<svg width="185" height="370" viewBox="0 0 185 370" fill="none" xmlns="http://www.w3.org/2000/svg">
<path d="M89.6587 290.201L87.377 162.792C87.377 162.792 95.3854 161.039 97.6224 156.768C97.6224 156.768 102.096 159.42 106.034 160.319L117.487 201.635C117.487 201.635 122.766 279.367 120.932 285.885C120.977 285.885 108.45 292.674 89.6587 290.201Z" fill="#69B5B3"/>
<path d="M103.306 158.385C103.306 158.385 97.7133 158.879 102.232 166.028L89.6601 289.346C89.6601 289.346 71.5852 280.624 68.9902 270.644C68.9902 270.644 83.9781 201.184 82.7254 173.131C82.6807 172.547 82.7702 171.962 82.9044 171.423C83.9781 167.781 88.8101 154.384 103.261 154.833L103.306 158.385Z" fill="#69B5B3"/>
<path d="M106.929 351.882C139.142 351.882 165.27 339.384 165.27 323.919C165.27 308.453 139.142 295.955 106.929 295.955C74.7161 295.955 48.5879 308.453 48.5879 323.919C48.5879 339.339 74.6713 351.882 106.929 351.882Z" fill="#EBEBEB"/>
<path d="M122.186 330.933C121.112 332.596 119.412 333.765 117.801 334.889C116.146 336.013 114.49 337.182 113.372 338.8C112.253 340.464 111.896 342.756 112.969 344.42C113.998 345.993 115.967 346.578 117.801 346.803C124.244 347.522 130.955 344.645 134.892 339.474C136.279 337.631 137.308 335.608 138.605 333.72C139.679 332.146 140.932 330.663 141.603 328.909C142.229 327.111 142.05 324.863 140.574 323.694C139.276 322.66 137.308 322.75 135.831 323.515C134.355 324.279 133.102 325.493 131.894 326.617C127.868 330.303 123.036 333.135 117.891 334.889" fill="#6B2B00"/>
<path d="M141.11 288.357C143.481 276.218 142.094 266.058 140.886 253.695C139.588 240.117 140.707 226.45 141.87 212.873C141.96 211.794 133.683 211.03 132.743 211.03C129.611 210.985 126.524 211.524 123.572 212.603C120.574 213.727 117.979 214.492 117.89 217.819C117.8 221.64 118.158 225.551 118.516 229.373C119.724 244.703 122.543 259.854 125.048 275.004C126.211 281.928 127.285 288.851 128.09 295.82L128.314 319.332C127.196 321.356 125.093 328.054 121.737 331.156C118.65 333.989 114.4 337.315 113.326 340.462C112.252 343.654 119.232 345.588 122.14 345.048C125.495 344.464 131.356 342.081 132.833 339.833C134.309 337.63 134.98 334.348 136.188 332.73C137.396 331.111 140.125 329.268 140.752 327.425C141.11 326.391 140.662 324.143 140.17 322.21C139.857 320.996 139.544 319.827 139.231 319.198L139.991 299.641C140.662 296.089 140.483 291.459 141.11 288.357Z" fill="#CE9C7A"/>
<path d="M133.236 322.21C131.312 322.21 129.433 321.715 127.778 320.771C127.062 320.366 126.883 319.422 127.375 318.793C127.778 318.253 128.494 318.119 129.075 318.433C130.373 319.153 131.849 319.557 133.326 319.512C134.802 319.467 136.279 319.063 137.576 318.298C138.158 317.939 138.874 318.074 139.321 318.613C139.813 319.243 139.679 320.187 138.963 320.591C137.263 321.58 135.339 322.165 133.371 322.21C133.326 322.21 133.281 322.21 133.236 322.21Z" fill="#6B2B00"/>
<path d="M135.204 337.451C129.924 337.451 124.69 334.888 121.424 330.707C121.066 330.258 121.2 329.628 121.647 329.313L122.318 328.864C122.721 328.594 123.303 328.684 123.616 329.044C126.39 332.55 130.774 334.708 135.204 334.708C135.696 334.708 136.098 335.113 136.143 335.608L136.188 336.417C136.188 337.001 135.785 337.451 135.204 337.451C135.248 337.451 135.204 337.451 135.204 337.451Z" fill="#6B2B00"/>
<path d="M125.808 343.745C123.974 340.373 121.066 337.586 117.576 335.922C116.95 335.608 116.637 334.843 116.905 334.214C117.174 333.495 118.024 333.135 118.739 333.495C122.721 335.428 126.032 338.62 128.18 342.486C128.538 343.16 128.269 344.015 127.553 344.329C126.927 344.644 126.166 344.374 125.808 343.745Z" fill="#6B2B00"/>
<path d="M139.945 329.987C141.198 328.549 142.093 326.75 142.003 324.862C141.959 323.514 141.377 322.21 140.751 321.041C140.437 320.456 139.274 318.928 138.558 319.917C138.156 320.456 139.051 321.85 139.185 322.39C139.901 324.862 140.169 327.425 139.945 329.987Z" fill="#6B2B00"/>
<path d="M69.7501 321.266C71.6739 321.806 73.6872 321.716 75.6558 321.671C79.7718 321.536 83.8879 321.356 87.8698 320.412C91.6727 319.513 95.2966 317.939 99.189 317.58C100.755 317.445 102.41 317.49 103.797 316.726C104.96 316.096 105.855 314.837 105.9 313.489C105.945 312.14 105.184 310.746 103.976 310.207C102.992 309.757 101.829 309.892 100.755 309.982C91.8964 310.971 82.9484 311.96 74.4478 314.613C72.9714 315.062 71.4502 315.602 69.929 315.916C68.8553 316.141 66.663 315.871 65.9024 316.726C64.2023 318.704 68.4974 320.907 69.7501 321.266Z" fill="#6B2B00"/>
<path d="M92.7017 86.4985C92.7017 86.4985 67.2446 116.26 62.3232 119.003C57.4018 121.745 26.2627 100.031 23.5783 98.8618C20.8939 97.6479 18.478 97.1534 16.1515 95.8047C13.3776 94.2311 10.4248 93.287 8.27725 90.7245C7.96407 90.4098 7.69563 90.0051 7.51667 89.5556C7.33771 89.106 7.29297 88.6564 7.29297 88.1619C7.38245 87.7123 7.65089 87.2627 7.74037 86.8132C7.87459 86.0938 7.60615 85.2846 7.87459 84.5653C8.23251 83.5762 9.44049 83.1266 9.75367 82.1376C9.97737 81.4183 9.75367 80.7439 10.1116 80.0695C10.4695 79.575 10.8274 79.1254 11.3196 78.7208C12.0354 77.7318 12.5276 76.6528 12.796 75.4839C12.975 75.1242 13.2434 74.7646 13.5566 74.4948C13.8698 74.2251 14.2724 74.0452 14.6751 73.9553C17.1358 73.4608 19.2833 77.1923 20.7597 78.7208C21.1624 79.1254 23.802 82.4523 24.6074 81.8678C25.4127 81.2384 26.1733 77.7318 27.8286 76.0234C29.484 74.27 32.2579 73.7305 31.5868 75.6637C31.1841 76.7876 30.6025 80.6989 30.2446 82.4523C29.8867 84.2056 29.1708 87.3527 30.4683 88.9262C31.7658 90.4997 58.1176 103.762 58.1176 103.762C58.1176 103.762 76.0136 80.3842 80.6666 74.2251C86.7513 66.1777 96.3256 67.5264 96.3256 67.5264C96.3256 67.5264 100.039 74.4049 92.7017 86.4985Z" fill="#CE9C7A"/>
<path d="M109.569 216.515C110.061 211.39 109.793 205.815 106.527 201.814C103.932 198.622 99.5471 197.003 95.5205 197.767C91.5834 198.487 87.3778 201.634 86.8857 205.815C86.2146 211.569 85.9909 217.504 85.7672 223.303C85.3198 235.936 85.8567 248.524 87.3331 261.068C87.9147 266.148 88.6753 271.138 89.5701 276.128H89.5253L90.8675 300.675C90.3754 300.81 89.928 301.574 88.8095 302.788C87.0199 304.631 84.8724 306.16 82.5906 307.284C78.6088 309.262 70.9135 312.364 67.4238 313.938C65.2315 314.927 65.321 317.579 67.6027 319.063C69.8397 320.546 75.298 321.67 81.8301 320.187C85.3645 319.377 90.0175 316.095 92.9703 316.275C95.8784 316.455 101.381 316.41 103.529 314.927C105.676 313.443 104.826 310.251 104.2 307.464C103.529 304.496 102.724 299.911 101.784 300.001V283.591C101.829 283.411 101.874 283.277 101.874 283.097C102.768 277.477 103.708 271.857 103.976 266.193C104.245 260.168 103.842 254.144 104.29 248.165C105.14 237.42 108.629 227.125 109.569 216.515Z" fill="#CE9C7A"/>
<path d="M146.523 164.724C143.749 156.676 140.483 148.719 138.917 140.312C136.099 125.431 138.738 110.055 142.675 95.3992C144.197 89.7345 143.391 85.2837 142.139 79.5292C140.528 72.2011 133.951 66.2218 126.882 63.839C122.229 62.2655 116.279 59.4781 110.552 61.0517C110.328 60.9168 110.06 60.8269 109.836 60.737C108.181 60.0626 107.733 60.692 106.436 61.6361C103.707 63.5693 100.53 64.8281 97.5327 66.2218C95.7878 67.031 94.0877 67.9301 92.5218 68.9642C90.3296 70.4478 88.3163 72.3809 87.5109 74.8986C86.9293 76.6519 87.0188 78.5401 87.153 80.3834C87.2872 81.822 87.4662 83.2606 87.9136 84.6094C88.3163 85.6884 88.8979 86.7224 89.7479 87.5316C87.6004 92.8815 86.4819 98.6361 87.1083 104.301C87.6899 109.471 89.6137 114.416 90.419 119.586C91.5823 127.274 90.1506 135.052 89.1216 142.739C87.1978 156.991 86.6609 171.377 86.124 185.764C85.945 190.17 85.8108 194.755 87.6004 198.801C90.2401 204.826 96.5037 208.287 102.499 210.94C108.583 213.637 114.937 215.975 121.558 216.605C128.18 217.234 135.159 215.975 140.573 212.064C147.463 207.074 150.952 198.307 151.31 189.81C151.623 181.178 149.297 172.771 146.523 164.724Z" fill="#CE9C7A"/>
<path d="M75.5223 309.8C74.896 309.395 74.0459 309.575 73.6433 310.249C73.2853 310.879 73.4643 311.688 74.0459 312.048C78.162 314.745 79.37 317.173 80.0411 320.05C80.22 320.77 80.8911 321.174 81.607 321.039C82.3675 320.904 82.8149 320.14 82.636 319.421C81.6964 315.599 80.0411 312.767 75.5223 309.8Z" fill="#6B2B00"/>
<path d="M106.258 310.206C106.258 310.206 105.855 302.204 102.723 299.686C102.858 299.326 102.768 298.877 102.544 298.562L102.5 298.517C102.097 297.978 101.336 297.843 100.755 298.157C97.9808 299.776 94.5806 300.27 91.4488 299.506C90.7777 299.326 90.1066 299.686 89.8829 300.36L89.8382 300.405C89.5697 301.125 90.0171 301.934 90.7777 302.114C91.9409 302.383 93.1489 302.563 94.3569 302.563C96.4597 302.563 98.5177 302.114 100.442 301.304C101.157 303.597 104.11 313.263 103.35 315.511C103.394 315.466 106.616 316.545 106.258 310.206Z" fill="#6B2B00"/>
<path d="M92.1219 315.105C90.8245 314.206 89.4823 313.487 88.1401 312.812C87.469 312.498 86.7979 312.138 86.1715 311.778C84.024 310.565 82.5476 309.306 81.6975 307.912C81.3396 307.373 80.6685 307.103 80.0868 307.328C79.2815 307.642 78.9683 308.586 79.4157 309.306C80.4895 311.104 82.3238 312.678 84.874 314.161C85.5451 314.521 86.261 314.88 86.9321 315.24C88.2295 315.914 89.527 316.544 90.6455 317.353C91.2271 317.758 91.9877 317.623 92.4351 317.128C92.9272 316.454 92.793 315.555 92.1219 315.105Z" fill="#6B2B00"/>
<path d="M125.228 58.625C125.228 58.625 129.255 66.4476 138.784 68.3358C138.829 68.3358 127.734 73.9555 127.734 73.9555L123.797 64.7842L123.707 60.2435L125.228 58.625Z" fill="#CE9C7A"/>
<path d="M94.0449 48.1958C94.0449 48.1958 94.6713 57.6369 97.5346 59.7499C97.6241 59.8398 97.7583 59.7049 97.7136 59.615C97.132 58.536 95.8345 55.3441 97.9373 51.7475C97.9373 51.7475 96.953 55.389 99.6822 57.1424C99.7716 57.2323 99.9059 57.0974 99.8611 56.9625C99.4585 56.423 99.1453 55.434 100.309 54.1302C102.053 52.1071 103.485 57.7718 102.009 59.9747C101.919 60.0646 102.053 60.1995 102.188 60.1545C103.44 59.3453 105.722 57.547 106.393 54.355C106.348 54.31 98.34 45.858 94.0449 48.1958Z" fill="#263238"/>
<path d="M125.093 53.0063C125.093 53.0063 123.617 60.7389 128.314 61.8179C128.448 61.8629 128.583 61.728 128.538 61.5931C128.225 60.2894 127.062 54.7146 129.701 51.7924C129.746 51.7475 129.791 51.7924 129.791 51.8374C129.701 52.5117 129.478 55.0743 129.97 56.8726C130.014 57.0524 130.238 57.0524 130.328 56.9176C130.999 55.389 133.191 50.4437 135.786 47.0719C138.873 43.0257 148.582 20.6369 127.912 10.5664C127.867 10.5664 127.822 10.5664 127.822 10.6114L126.435 23.3793L125.272 46.2177" fill="#263238"/>
<path d="M125.855 33.9885C126.839 34.573 128.226 32.6398 129.434 31.426C130.642 30.2121 134.579 28.4138 136.548 32.5949C138.516 36.7759 134.803 42.4405 131.716 43.4296C126.302 45.138 125.542 41.6763 125.542 41.6763L125.363 61.6374C116.37 72.0226 100.621 65.9083 107.69 60.6034V54.7139C105.319 55.1185 102.859 55.2085 100.443 55.0736C96.5054 54.4442 94.0447 51.3421 92.8367 47.0712C90.9129 40.1927 90.1523 34.6179 91.8077 21.0857C93.5973 6.24978 110.777 6.06995 120.039 11.9594C129.345 17.8039 125.855 33.9885 125.855 33.9885Z" fill="#CE9C7A"/>
<path d="M107.243 7.77859L111.18 2.29378C110.822 2.02403 110.464 1.79925 110.016 1.70933C109.569 1.61942 109.122 1.5295 108.719 1.57446C108.316 1.61942 107.869 1.79925 107.511 2.02403C107.108 2.24882 106.84 2.56352 106.527 2.87822C105.99 3.6425 105.811 4.54165 105.945 5.48576C106.035 6.42986 106.527 7.2391 107.243 7.77859Z" fill="#263238"/>
<path d="M107.689 54.6682C107.689 54.6682 116.458 52.9148 119.545 51.2514C121.38 50.3073 122.856 48.8686 123.84 47.0254C123.393 48.8237 122.543 50.5321 121.424 52.0157C119.143 54.893 107.645 57.0509 107.645 57.0509L107.689 54.6682C107.645 54.6682 107.689 54.6682 107.689 54.6682Z" fill="#A5795B"/>
<path d="M109.838 31.7866C109.838 32.1462 109.972 32.4609 110.151 32.7756C110.375 33.0454 110.643 33.2702 110.956 33.405C111.27 33.5399 111.627 33.5399 111.985 33.495C112.343 33.405 112.612 33.2252 112.88 33.0004C113.104 32.7307 113.283 32.416 113.328 32.1013C113.372 31.7416 113.372 31.4269 113.238 31.0673C113.104 30.7526 112.88 30.4828 112.567 30.303C112.299 30.1232 111.941 29.9883 111.583 29.9883C111.091 29.9883 110.643 30.2131 110.33 30.5278C110.017 30.8425 109.838 31.337 109.838 31.7866Z" fill="#263238"/>
<path d="M112.701 24.4581L116.459 26.5261C116.728 25.9866 116.773 25.4022 116.638 24.8627C116.459 24.3232 116.101 23.8286 115.609 23.5139C115.341 23.3791 115.072 23.2892 114.804 23.2442C114.536 23.1992 114.222 23.2442 113.954 23.3341C113.685 23.424 113.417 23.5589 113.238 23.7387C112.97 24.0085 112.791 24.2333 112.701 24.4581Z" fill="#263238"/>
<path d="M108.54 44.0156L104.514 45.5442C104.603 45.8139 104.737 46.0387 104.916 46.2635C105.095 46.4883 105.319 46.6681 105.587 46.758C105.856 46.8929 106.124 46.9379 106.393 46.9828C106.661 46.9828 106.974 46.9828 107.198 46.8929C107.735 46.6681 108.182 46.2635 108.451 45.724C108.719 45.1845 108.719 44.6001 108.54 44.0156Z" fill="#A5795B"/>
<path d="M93.6855 26.0304L97.1305 23.333C96.9515 23.1082 96.7726 22.8834 96.5041 22.7485C96.2804 22.6137 96.012 22.4788 95.6988 22.4338C95.4304 22.3889 95.1172 22.3889 94.8487 22.4788C94.5803 22.5687 94.3119 22.6586 94.0882 22.8384C93.596 23.1981 93.2828 23.7376 93.1934 24.322C93.1934 24.9514 93.3276 25.5359 93.6855 26.0304Z" fill="#263238"/>
<path d="M95.2065 31.2924C95.2065 31.7869 95.3855 32.2365 95.6986 32.5512C96.0118 32.9109 96.4592 33.0907 96.9514 33.0907C97.3093 33.0907 97.6672 33.0008 97.9804 32.8209C98.2936 32.6411 98.5173 32.3264 98.6962 32.0117C98.8304 31.697 98.8752 31.2924 98.8304 30.9327C98.7857 30.5731 98.6067 30.2584 98.3383 29.9886C98.0699 29.7189 97.7567 29.539 97.3988 29.4491C97.0408 29.3592 96.6829 29.4042 96.325 29.539C95.9671 29.6739 95.6986 29.8987 95.4749 30.2134C95.2512 30.5731 95.1618 30.9327 95.2065 31.2924Z" fill="#263238"/>
<path d="M103.888 29.8965L103.709 40.6413L97.4004 39.2476L103.888 29.8965Z" fill="#A5795B"/>
<path d="M100.801 30.0331C101.517 29.5386 102.367 29.2689 103.261 29.4037C104.559 29.6735 105.722 30.3478 106.572 31.292L105.677 32.5058C104.962 31.7865 104.067 31.202 103.127 30.8424C102.814 30.8424 102.501 30.8873 102.232 31.0222C101.964 31.1571 101.696 31.3369 101.517 31.5617L100.801 30.0331Z" fill="#263238"/>
<path d="M105.273 34.1253C105.989 36.5979 108.629 40.5542 114.713 39.6551C115.832 39.4752 116.906 39.0706 117.89 38.4412C118.829 37.8118 119.635 37.0026 120.261 36.0135C120.887 35.0244 121.245 33.9455 121.424 32.8215C121.558 31.6976 121.469 30.5287 121.156 29.4497C119.948 26.6174 117.532 25.4934 113.058 25.5384C108.584 25.5834 106.75 26.2577 105.273 28.5955C104.513 29.8094 104.692 32.0572 105.273 34.1253Z" fill="#BA68C8"/>
<path d="M114.088 38.3501C112.925 38.485 111.762 38.3501 110.688 37.9005C109.614 37.4509 108.63 36.7766 107.87 35.8774C107.109 34.9783 106.617 33.8993 106.348 32.7754C106.08 31.6514 106.169 30.4376 106.483 29.3136C107.243 27.9649 108.093 27.2456 110.509 27.0208C111.18 26.8859 112.03 26.8859 113.015 26.8859C117.578 26.841 119.01 28.0998 119.77 29.943C120.039 30.8422 120.084 31.7413 119.994 32.6405C119.86 33.5396 119.591 34.4388 119.099 35.2031C118.607 36.0573 117.936 36.7766 117.131 37.3161C116.325 37.8556 115.386 38.2152 114.446 38.3051H113.999L114.088 38.3501Z" fill="#263238"/>
<path d="M94.7158 36.5069C90.2418 35.7427 89.2575 31.7414 89.3022 28.2797C89.347 25.4924 92.1656 23.6041 95.2526 23.9638C99.1003 24.4134 101.472 26.886 101.65 29.0889C102.277 34.4838 98.6081 37.1363 94.7158 36.5069Z" fill="#BA68C8"/>
<path d="M96.3274 35.2036C95.8352 35.2486 95.3431 35.2036 94.8509 35.1137C91.9876 34.6641 90.5559 32.4163 90.6006 28.3251C90.6901 27.5159 91.0928 26.7516 91.6744 26.2121C92.256 25.6726 93.0613 25.3579 93.9114 25.3579C94.2693 25.313 94.672 25.313 95.0299 25.3579C98.0722 25.7176 100.041 27.6058 100.22 29.3142C100.354 30.0785 100.354 30.8427 100.175 31.5621C99.996 32.2814 99.6829 33.0007 99.2802 33.6301C98.9223 34.0797 98.4749 34.4393 97.9827 34.7091C97.4459 34.9788 96.909 35.1137 96.3274 35.2036Z" fill="#263238"/>
<path d="M105.678 9.71189C105.678 9.71189 119.01 31.5163 130.285 28.0096C130.285 28.0096 136.459 25.0424 138.07 20.142C139.725 15.1967 114.984 -8.54084 105.678 9.71189Z" fill="#263238"/>
<path d="M107.645 8.27344C107.645 8.27344 98.3391 25.8968 89.9279 23.3792C89.9279 23.3792 86.2145 22.8846 84.9171 19.0183C83.6196 15.107 100.352 -5.93313 107.645 8.27344Z" fill="#263238"/>
<path d="M123.842 27.425C123.842 27.425 121.739 40.103 123.439 43.5648C123.529 43.7446 123.797 43.6547 123.797 43.4749C123.663 41.4518 123.618 35.2926 126.974 33.809C131 32.0107 129.658 25.8965 129.658 25.8965L123.842 27.425Z" fill="#263238"/>
<path d="M125.585 42.6211C125.585 42.6211 125.54 47.971 119.858 49.4546C119.68 49.4996 119.635 49.7693 119.858 49.8593C121.022 50.2639 123.975 50.7134 127.464 46.937C127.464 46.937 128.091 45.6332 125.585 42.6211Z" fill="#263238"/>
<path d="M128.941 43.9239C129.12 44.823 129.299 45.7671 129.299 47.2507C129.299 50.4877 128.628 52.4208 128.314 52.5557C127.957 52.4208 127.285 50.4877 127.285 47.2507C127.285 44.3734 127.822 42.4852 128.18 42.0806C128.225 41.9907 128.27 41.9008 128.27 41.8109C128.27 41.4063 127.778 41.2264 127.509 41.5411C126.659 42.6201 126.391 45.4524 126.391 47.2957C126.391 49.5885 126.793 53.4998 128.27 53.4998C129.746 53.4998 130.149 49.6335 130.149 47.2957C130.149 46.2617 130.149 45.0928 129.925 43.8789L128.941 43.9239Z" fill="#E5A71C"/>
<path d="M129.657 19.332V27.829C127.867 27.829 126.436 24.3673 126.436 22.569C126.436 20.7707 127.867 19.332 129.657 19.332Z" fill="#57C3FF"/>
<path d="M129.657 19.332V27.829C127.867 27.829 126.436 24.3673 126.436 22.569C126.436 20.7707 127.867 19.332 129.657 19.332Z" fill="#DD4545"/>
<path d="M129.658 27.8294C129.121 29.5378 125.407 29.8525 123.707 29.313C122.007 28.7735 121.067 26.9303 121.649 25.2219C122.186 23.5135 124.02 22.5694 125.72 23.1538C127.376 23.6933 130.194 26.121 129.658 27.8294Z" fill="#F75959"/>
<path d="M129.658 27.8282C129.121 29.5366 125.407 29.8513 123.707 29.3118C122.007 28.7723 121.067 26.9291 121.649 25.2207L129.658 27.8282Z" fill="#DD4545"/>
<path d="M129.166 33.9884C128.137 35.427 126.079 35.7417 124.647 34.7077C123.215 33.6737 122.902 31.6056 123.931 30.167C124.96 28.7284 128.181 26.7952 129.613 27.8292C131.09 28.9082 130.239 32.5497 129.166 33.9884Z" fill="#F75959"/>
<path d="M129.165 33.9893C128.136 35.4279 126.078 35.7426 124.646 34.7086L129.613 27.8301C131.089 28.9091 130.239 32.5506 129.165 33.9893Z" fill="#DD4545"/>
<path d="M134.624 34.7077C133.192 35.7417 131.179 35.427 130.105 33.9884C129.076 32.5497 128.226 28.9082 129.657 27.8292C131.089 26.7952 134.31 28.7284 135.339 30.167C136.369 31.6056 136.055 33.6287 134.624 34.7077Z" fill="#F75959"/>
<path d="M134.622 34.7077L129.656 27.8292C131.088 26.7952 134.309 28.7284 135.338 30.167C136.367 31.6056 136.054 33.6287 134.622 34.7077Z" fill="#DD4545"/>
<path d="M135.607 29.3134C133.906 29.8529 130.193 29.5382 129.656 27.8298C129.567 27.605 129.567 27.3353 129.611 27.1105C129.611 27.0655 129.701 27.0206 129.701 26.9756C129.701 26.9307 129.656 26.8857 129.656 26.8408C130.104 25.3122 132.251 23.6038 133.638 23.1093C135.338 22.5698 137.172 23.4689 137.709 25.1773C138.246 26.9307 137.307 28.729 135.607 29.3134Z" fill="#F75959"/>
<path d="M137.666 25.2238L129.613 27.8313C129.568 27.6515 129.523 27.4716 129.523 27.2918C129.523 27.2019 129.613 27.067 129.658 26.9771C129.702 26.8872 129.613 26.7973 129.658 26.6624C130.195 25.1788 132.208 23.5603 133.55 23.1108C135.295 22.5713 137.129 23.5154 137.666 25.2238Z" fill="#DD4545"/>
<path d="M132.879 22.569C132.879 24.3673 131.448 27.829 129.658 27.829V19.332C131.403 19.332 132.879 20.8156 132.879 22.569Z" fill="#F75959"/>
<path d="M129.657 28.593C130.077 28.593 130.418 28.2508 130.418 27.8287C130.418 27.4066 130.077 27.0645 129.657 27.0645C129.237 27.0645 128.896 27.4066 128.896 27.8287C128.896 28.2508 129.237 28.593 129.657 28.593Z" fill="#FFDE55"/>
<g opacity="0.5">
<path opacity="0.5" d="M121.961 65.4132C121.872 65.0985 121.961 64.7838 122.23 64.6039C123.169 64.0195 124.243 62.8506 124.646 61.9964C125.048 61.1872 125.183 60.6027 125.227 59.7485C125.227 59.3889 125.54 59.1191 125.898 59.1191C126.256 59.1191 126.57 59.4338 126.57 59.8385C126.525 60.8275 126.346 61.5918 125.854 62.6258C125.317 63.6598 124.109 65.0535 122.901 65.7728C122.543 65.9976 122.096 65.8178 121.961 65.4132Z" fill="white"/>
</g>
<g opacity="0.5">
<path opacity="0.5" d="M105.81 65.7268C106.034 65.5469 106.168 65.2772 106.168 65.0524C106.078 64.2881 106.302 63.0743 106.615 62.31C106.928 61.5907 107.197 61.1411 107.689 60.5567C107.913 60.2869 107.913 59.9722 107.778 59.8374C107.599 59.7025 107.286 59.7924 107.063 60.0621C106.481 60.7815 106.123 61.3659 105.765 62.2651C105.362 63.2092 105.094 64.6028 105.228 65.5919C105.184 65.9066 105.497 65.9516 105.81 65.7268Z" fill="white"/>
</g>
<path d="M104.96 63.5703C104.96 63.5703 91.4932 73.8656 85.1849 88.1621C82.3215 94.6359 80.7109 90.4998 86.885 118.329C93.0591 146.157 85.0507 154.699 83.3058 163.915C81.5609 173.132 72.3892 184.641 107.779 246.817C116.011 260.439 103.931 293.618 126.346 306.341C126.346 306.341 139.902 306.925 146.389 316.996C152.877 327.066 149.342 243.985 152.295 223.529C155.248 203.118 154.487 182.393 141.692 143.46C137.173 129.748 140.528 101.694 140.528 101.694C140.528 101.694 141.11 74.7198 123.214 64.7392L104.96 63.5703Z" fill="#1FEAEA"/>
<path d="M103.797 195.608L107.958 195.698C108.45 195.698 108.852 195.518 109.255 195.248C109.613 194.979 109.881 194.619 109.971 194.214C110.105 193.675 110.06 193.135 109.747 192.641L107.644 188.864C107.376 188.37 106.884 188.01 106.392 187.875C105.989 187.741 105.542 187.785 105.094 187.92C104.692 188.1 104.334 188.37 104.11 188.82L102.052 192.371C102.32 192.506 102.544 192.731 102.678 192.911L103.439 192.461C103.931 192.191 104.602 192.371 104.915 192.866C105.184 193.36 105.005 194.035 104.513 194.349L103.752 194.799C103.707 195.069 103.797 195.383 103.797 195.608ZM101.202 206.488C101.739 206.623 102.276 206.578 102.768 206.263L106.526 204.15C107.018 203.88 107.376 203.386 107.51 202.891C107.644 202.487 107.6 202.037 107.421 201.632C107.242 201.228 106.973 200.868 106.571 200.598L102.991 198.485C102.857 198.665 102.678 198.89 102.455 199.07L102.902 199.834C103.17 200.329 102.991 201.003 102.499 201.318C102.007 201.587 101.336 201.408 101.023 200.913L100.575 200.149C100.352 200.239 100.039 200.284 99.8149 200.284L99.7254 204.465C99.7254 204.959 99.9043 205.364 100.083 205.724C100.352 206.083 100.754 206.353 101.202 206.488ZM96.9068 199.564C96.6383 199.429 96.4146 199.205 96.2804 199.025L95.5198 199.474C95.0277 199.744 94.3566 199.564 94.0434 199.07C93.775 198.575 93.9539 197.901 94.4461 197.586L95.1172 197.182C95.0277 196.957 94.9829 196.642 94.9829 196.327L90.9116 196.282C90.4195 196.282 90.0168 196.462 89.6589 196.642C89.301 196.912 89.0325 197.272 88.943 197.721C88.8088 198.171 88.8536 198.8 89.1667 199.295L91.2695 203.071C91.538 203.566 92.0301 203.925 92.5222 204.06C92.9249 204.195 93.3723 204.15 93.8197 204.015C94.2224 203.835 94.5803 203.566 94.804 203.116L96.9068 199.564ZM99.1438 191.607L99.2332 187.426C99.2332 186.931 99.0543 186.527 98.7858 186.122C98.5174 185.762 98.1595 185.493 97.7568 185.403C97.2199 185.268 96.6831 185.313 96.1909 185.628L92.4328 187.741C91.9406 188.01 91.5827 188.505 91.4485 188.999C91.3143 189.404 91.359 189.854 91.538 190.258C91.7169 190.663 91.9854 191.022 92.388 191.292L95.9225 193.36C96.0567 193.09 96.2357 192.956 96.4594 192.731L96.012 191.967C95.7435 191.472 95.9225 190.798 96.4146 190.483C96.9068 190.213 97.5779 190.393 97.891 190.888L98.3384 191.652C98.6069 191.697 98.8306 191.607 99.1438 191.607ZM101.56 196.597C101.918 195.383 101.202 194.169 100.039 193.855C98.8306 193.495 97.6226 194.214 97.3094 195.383C96.9515 196.597 97.6673 197.811 98.8306 198.126C100.039 198.485 101.247 197.721 101.56 196.597ZM102.231 187.696C102.678 186.796 103.484 186.257 104.334 185.897C105.139 185.538 106.078 185.538 106.973 185.762C107.958 186.032 108.942 186.751 109.523 187.785L111.626 191.562C112.208 192.596 112.297 193.765 112.029 194.799C111.805 195.653 111.313 196.417 110.552 197.002C109.837 197.541 108.942 197.901 107.913 197.856L106.123 197.811L107.644 198.755C108.494 199.295 109.076 200.014 109.434 200.868C109.792 201.722 109.792 202.621 109.568 203.521C109.3 204.51 108.584 205.499 107.555 206.083L103.797 208.196C102.768 208.781 101.604 208.871 100.575 208.601C99.7254 208.376 98.9648 207.881 98.3832 207.207C97.8463 206.488 97.4884 205.589 97.5331 204.555L97.5779 202.756L96.6383 204.285C96.1014 205.139 95.3856 205.724 94.5355 206.083C93.7302 206.443 92.7907 206.398 91.9406 206.128C91.9406 206.128 91.9406 206.128 91.8959 206.128C90.9116 205.858 90.0168 205.184 89.4352 204.15L87.3324 200.374C86.7508 199.34 86.6613 198.171 86.9297 197.137C87.1534 196.282 87.6456 195.518 88.4062 194.934C89.122 194.394 90.0168 194.08 91.0458 194.08H92.8354L91.2695 193.225C90.3747 192.776 89.8378 191.967 89.4799 191.112C89.122 190.303 89.122 189.359 89.3457 188.46C89.6141 187.471 90.33 186.482 91.359 185.897L95.1172 183.784C96.1462 183.2 97.3094 183.11 98.3384 183.38C99.1885 183.604 99.9491 184.099 100.531 184.773C101.068 185.493 101.381 186.392 101.381 187.426L101.336 189.224L102.231 187.696Z" fill="#22C6C1"/>
<path d="M120.037 222.404L122.9 223.258C123.213 223.348 123.527 223.303 123.84 223.214C124.153 223.169 124.377 222.854 124.511 222.584C124.69 222.269 124.779 221.865 124.69 221.46L123.929 218.493C123.84 218.043 123.571 217.729 123.258 217.594C122.99 217.459 122.676 217.369 122.408 217.369C122.095 217.414 121.782 217.504 121.558 217.774L119.455 219.842C119.545 220.022 119.724 220.201 119.813 220.381L120.439 220.246C120.842 220.156 121.245 220.426 121.379 220.786C121.469 221.19 121.2 221.595 120.842 221.73L120.216 221.91C120.037 222.045 119.992 222.269 120.037 222.404ZM116.055 229.418C116.368 229.597 116.771 229.687 117.173 229.597L120.171 228.833C120.618 228.743 120.932 228.474 121.066 228.159C121.2 227.889 121.29 227.574 121.245 227.26C121.2 226.945 121.111 226.63 120.842 226.406L118.784 224.248C118.605 224.337 118.516 224.472 118.292 224.517L118.471 225.147C118.56 225.551 118.292 225.956 117.934 226.091C117.531 226.181 117.129 225.911 116.994 225.551L116.816 224.922C116.592 224.922 116.458 224.877 116.234 224.922L115.384 227.799C115.294 228.114 115.294 228.429 115.429 228.743C115.608 228.968 115.831 229.238 116.055 229.418ZM114.534 223.843C114.444 223.663 114.265 223.528 114.176 223.303L113.55 223.438C113.147 223.528 112.744 223.258 112.61 222.899C112.52 222.494 112.789 222.09 113.147 221.955L113.684 221.82C113.684 221.595 113.728 221.415 113.773 221.19L110.955 220.291C110.641 220.201 110.328 220.201 110.015 220.336C109.702 220.471 109.478 220.696 109.344 220.966C109.165 221.28 109.076 221.685 109.165 222.09L109.926 225.102C110.015 225.506 110.283 225.866 110.597 226.001C110.865 226.136 111.178 226.226 111.447 226.226C111.76 226.181 112.073 226.091 112.297 225.821L114.534 223.843ZM117.531 218.718L118.381 215.841C118.471 215.526 118.426 215.121 118.337 214.896C118.247 214.672 117.979 214.357 117.71 214.222C117.397 214.042 116.995 213.952 116.592 214.042L113.594 214.806C113.147 214.896 112.834 215.166 112.699 215.481C112.565 215.751 112.476 216.065 112.52 216.38C112.565 216.695 112.655 217.009 112.923 217.234L115.026 219.347C115.205 219.257 115.294 219.122 115.518 219.077L115.339 218.448C115.25 218.043 115.518 217.639 115.876 217.504C116.279 217.414 116.681 217.684 116.816 218.043L116.994 218.673C117.173 218.628 117.308 218.673 117.531 218.718ZM118.292 222.629C118.695 221.865 118.471 220.876 117.755 220.426C116.995 220.022 116.01 220.246 115.563 220.966C115.16 221.73 115.384 222.719 116.1 223.169C116.816 223.618 117.8 223.393 118.292 222.629ZM120.395 216.65C120.887 216.155 121.558 215.885 122.184 215.841C122.855 215.796 123.482 215.93 124.019 216.29C124.69 216.695 125.182 217.324 125.361 218.178L126.121 221.19C126.3 222.045 126.166 222.854 125.764 223.483C125.45 224.068 124.913 224.472 124.332 224.697C123.75 224.967 123.034 224.967 122.363 224.787L121.155 224.427L122.05 225.327C122.542 225.821 122.811 226.495 122.855 227.125C122.9 227.799 122.766 228.429 122.408 228.968C122.005 229.597 121.379 230.137 120.529 230.317L117.531 231.081C116.681 231.261 115.876 231.126 115.25 230.721C114.668 230.407 114.265 229.867 114.042 229.283C113.773 228.698 113.773 227.979 113.952 227.305L114.31 226.091L113.415 226.99C112.923 227.484 112.252 227.754 111.581 227.844C110.91 227.889 110.283 227.754 109.747 227.395C109.747 227.395 109.747 227.395 109.702 227.395C109.076 226.99 108.539 226.361 108.315 225.551L107.554 222.539C107.375 221.685 107.51 220.876 107.912 220.246C108.225 219.662 108.762 219.257 109.344 218.988C109.926 218.718 110.641 218.718 111.313 218.898L112.565 219.257L111.67 218.358C111.178 217.864 110.91 217.189 110.82 216.515C110.776 215.841 110.91 215.211 111.268 214.672C111.67 214.042 112.297 213.503 113.147 213.323L116.144 212.559C116.995 212.379 117.8 212.514 118.426 212.918C119.008 213.233 119.41 213.772 119.634 214.357C119.903 214.941 119.903 215.661 119.724 216.335L119.366 217.594L120.395 216.65Z" fill="#22C6C1"/>
<path d="M135.562 298.876L137.486 298.606C137.71 298.606 137.889 298.427 138.068 298.337C138.247 298.247 138.292 297.977 138.381 297.752C138.381 297.483 138.381 297.258 138.157 297.033L136.949 295.414C136.815 295.145 136.547 295.1 136.278 295.01C136.099 294.965 135.831 295.01 135.652 295.145C135.473 295.28 135.339 295.414 135.249 295.594L134.533 297.438C134.668 297.483 134.802 297.572 134.891 297.662L135.249 297.393C135.428 297.213 135.786 297.258 135.92 297.527C136.099 297.707 136.055 298.067 135.786 298.202L135.428 298.472C135.518 298.562 135.562 298.741 135.562 298.876ZM135.07 304.091C135.339 304.091 135.562 304.091 135.786 303.866L137.442 302.608C137.71 302.473 137.755 302.203 137.844 301.933C137.889 301.753 137.844 301.484 137.71 301.304C137.621 301.124 137.442 300.944 137.263 300.899L135.428 300.18C135.384 300.315 135.294 300.45 135.205 300.495L135.473 300.854C135.652 301.034 135.607 301.394 135.339 301.529C135.16 301.709 134.802 301.664 134.668 301.394L134.399 301.034C134.31 301.079 134.176 301.124 133.997 301.124L134.265 303.057C134.265 303.282 134.355 303.462 134.533 303.642C134.668 304.001 134.847 304.091 135.07 304.091ZM132.61 301.169C132.475 301.124 132.341 301.034 132.252 300.944L131.983 301.214C131.804 301.394 131.446 301.349 131.312 301.079C131.178 300.809 131.178 300.54 131.446 300.405L131.76 300.135C131.715 300.045 131.67 299.91 131.67 299.73L129.746 300C129.523 300 129.344 300.09 129.165 300.27C129.03 300.45 128.941 300.63 128.851 300.854C128.762 301.079 128.851 301.349 129.075 301.574L130.283 303.192C130.462 303.372 130.686 303.507 130.954 303.597C131.133 303.642 131.402 303.597 131.581 303.462C131.76 303.372 131.894 303.192 131.983 303.012L132.61 301.169ZM133.147 297.258L132.878 295.325C132.878 295.1 132.699 294.92 132.61 294.74C132.431 294.605 132.252 294.515 132.028 294.515C131.76 294.515 131.536 294.515 131.312 294.74L129.702 295.954C129.433 296.089 129.388 296.359 129.299 296.628C129.254 296.808 129.299 297.078 129.433 297.258C129.523 297.438 129.702 297.617 129.881 297.662L131.715 298.382C131.76 298.247 131.849 298.112 131.939 298.067L131.67 297.707C131.491 297.527 131.536 297.168 131.804 297.033C131.983 296.853 132.341 296.898 132.475 297.168L132.744 297.527C132.833 297.303 132.968 297.303 133.147 297.258ZM134.623 299.416C134.712 298.876 134.265 298.292 133.728 298.202C133.191 298.112 132.61 298.561 132.52 299.101C132.431 299.64 132.878 300.225 133.415 300.315C133.952 300.405 134.533 300.045 134.623 299.416ZM134.355 295.28C134.533 294.83 134.847 294.47 135.205 294.291C135.563 294.111 136.01 294.021 136.413 294.066C136.905 294.111 137.397 294.425 137.71 294.875L138.918 296.493C139.231 296.943 139.365 297.483 139.321 297.977C139.276 298.382 139.097 298.786 138.784 299.146C138.471 299.506 138.068 299.685 137.621 299.775L136.77 299.91L137.576 300.225C138.023 300.405 138.381 300.719 138.56 301.079C138.739 301.439 138.829 301.888 138.784 302.293C138.739 302.788 138.426 303.282 137.978 303.597L136.323 304.856C135.876 305.17 135.339 305.305 134.847 305.26C134.444 305.215 134.041 305.035 133.773 304.721C133.504 304.406 133.236 304.001 133.147 303.552L133.012 302.698L132.699 303.507C132.52 303.956 132.207 304.316 131.849 304.496C131.491 304.676 131.044 304.766 130.641 304.721C130.149 304.676 129.657 304.361 129.344 303.911L128.136 302.293C127.822 301.843 127.688 301.304 127.733 300.809C127.778 300.405 127.957 300 128.27 299.64C128.583 299.371 128.986 299.101 129.433 299.011L130.283 298.876L129.478 298.561C129.03 298.382 128.673 298.067 128.494 297.707C128.315 297.348 128.225 296.898 128.27 296.493C128.315 295.999 128.628 295.504 129.075 295.19L130.686 293.976C131.133 293.616 131.67 293.526 132.162 293.571C132.565 293.616 132.968 293.796 133.236 294.111C133.504 294.425 133.773 294.83 133.862 295.28L133.997 296.134L134.355 295.28Z" fill="#22C6C1"/>
<path d="M123.752 200.644L125.675 200.374C125.899 200.374 126.078 200.194 126.257 200.104C126.436 200.014 126.481 199.745 126.57 199.52C126.57 199.25 126.57 199.025 126.346 198.801L125.139 197.182C125.004 196.912 124.736 196.867 124.467 196.777C124.288 196.733 124.02 196.777 123.841 196.912C123.662 197.002 123.528 197.182 123.438 197.362L122.723 199.205C122.857 199.25 122.991 199.34 123.08 199.43L123.438 199.16C123.617 198.98 123.975 199.025 124.109 199.295C124.288 199.475 124.244 199.835 123.975 199.969L123.617 200.239C123.662 200.329 123.707 200.464 123.752 200.644ZM123.215 205.859C123.483 205.859 123.707 205.859 123.931 205.634L125.586 204.375C125.854 204.24 125.899 203.971 125.989 203.701C126.033 203.521 125.989 203.251 125.854 203.072C125.765 202.892 125.586 202.712 125.407 202.667L123.573 201.948C123.528 202.082 123.438 202.217 123.349 202.262L123.617 202.622C123.796 202.802 123.752 203.161 123.483 203.296C123.304 203.476 122.946 203.431 122.812 203.161L122.544 202.802C122.454 202.847 122.32 202.892 122.141 202.892L122.409 204.825C122.409 205.05 122.499 205.229 122.678 205.409C122.812 205.724 122.991 205.859 123.215 205.859ZM120.709 202.892C120.575 202.847 120.441 202.757 120.351 202.667L120.038 202.937C119.859 203.116 119.501 203.072 119.367 202.802C119.188 202.622 119.233 202.262 119.501 202.127L119.814 201.858C119.77 201.768 119.725 201.633 119.725 201.453L117.801 201.723C117.577 201.723 117.399 201.813 117.22 201.993C117.085 202.172 116.996 202.352 116.906 202.577C116.862 202.757 116.906 203.072 117.13 203.296L118.338 204.915C118.517 205.095 118.741 205.23 119.009 205.319C119.188 205.364 119.457 205.319 119.636 205.185C119.814 205.095 119.949 204.915 120.038 204.735L120.709 202.892ZM121.246 198.98L120.978 197.047C120.978 196.822 120.799 196.643 120.709 196.463C120.53 196.328 120.351 196.238 120.128 196.238C119.859 196.238 119.636 196.238 119.412 196.463L117.801 197.677C117.533 197.812 117.488 198.081 117.399 198.351C117.354 198.531 117.399 198.801 117.533 198.98C117.622 199.16 117.801 199.34 117.98 199.385L119.814 200.104C119.859 199.969 119.949 199.835 120.038 199.79L119.77 199.43C119.591 199.25 119.636 198.89 119.904 198.756C120.172 198.621 120.441 198.621 120.575 198.89L120.843 199.25C120.978 199.07 121.157 199.025 121.246 198.98ZM122.723 201.183C122.812 200.644 122.365 200.059 121.828 199.969C121.291 199.88 120.709 200.329 120.62 200.869C120.53 201.408 120.978 201.993 121.515 202.082C122.141 202.127 122.633 201.768 122.723 201.183ZM122.454 197.002C122.633 196.553 122.946 196.193 123.304 196.013C123.662 195.833 124.109 195.743 124.512 195.788C125.004 195.833 125.496 196.148 125.81 196.598L127.018 198.216C127.331 198.666 127.465 199.205 127.42 199.7C127.376 200.104 127.197 200.509 126.883 200.869C126.57 201.138 126.168 201.408 125.72 201.498L124.87 201.633L125.675 201.948C126.123 202.127 126.481 202.442 126.66 202.802C126.839 203.161 126.928 203.611 126.883 204.016C126.839 204.51 126.525 205.005 126.078 205.319L124.423 206.578C123.975 206.893 123.438 207.028 122.946 206.983C122.544 206.938 122.141 206.758 121.873 206.443C121.604 206.129 121.336 205.724 121.246 205.274L121.112 204.42L120.799 205.23C120.62 205.679 120.307 206.039 119.949 206.219C119.591 206.398 119.143 206.488 118.741 206.443C118.249 206.398 117.756 206.084 117.443 205.634L116.235 204.016C115.922 203.566 115.788 203.027 115.833 202.532C115.877 202.127 116.056 201.723 116.369 201.363C116.683 201.093 117.085 200.824 117.533 200.734L118.383 200.599L117.577 200.284C117.13 200.104 116.772 199.79 116.593 199.43C116.414 199.07 116.325 198.621 116.369 198.216C116.414 197.722 116.727 197.227 117.175 196.912L118.785 195.699C119.233 195.339 119.77 195.249 120.262 195.294C120.665 195.339 121.067 195.519 121.336 195.833C121.604 196.148 121.873 196.553 121.962 197.002L122.096 197.856L122.454 197.002Z" fill="#22C6C1"/>
<path d="M146.39 236.431L148.314 236.161C148.538 236.161 148.717 235.981 148.896 235.891C149.03 235.712 149.12 235.532 149.209 235.307C149.209 235.037 149.209 234.812 148.985 234.588L147.777 232.969C147.643 232.699 147.375 232.654 147.106 232.564C146.927 232.52 146.659 232.564 146.48 232.699C146.301 232.789 146.167 232.969 146.077 233.149L145.361 234.992C145.496 235.037 145.63 235.127 145.719 235.217L146.077 234.947C146.256 234.767 146.614 234.812 146.748 235.082C146.883 235.352 146.883 235.622 146.614 235.757L146.256 236.026C146.301 236.206 146.39 236.386 146.39 236.431ZM145.898 241.736C146.167 241.736 146.39 241.736 146.614 241.511L148.27 240.252C148.538 240.117 148.583 239.848 148.672 239.578C148.717 239.398 148.672 239.128 148.538 238.948C148.448 238.769 148.27 238.589 148.091 238.544L146.256 237.825C146.211 237.959 146.122 238.094 146.033 238.139L146.301 238.499C146.48 238.679 146.435 239.038 146.167 239.173C145.988 239.353 145.63 239.308 145.496 239.038L145.227 238.679C145.138 238.724 145.004 238.769 144.825 238.769L145.093 240.702C145.093 240.927 145.182 241.106 145.361 241.286C145.496 241.646 145.719 241.691 145.898 241.736ZM143.393 238.814C143.259 238.769 143.124 238.679 143.035 238.589L142.722 238.859C142.543 239.038 142.185 238.993 142.051 238.724C141.872 238.544 141.916 238.184 142.185 238.049L142.498 237.78C142.453 237.69 142.409 237.555 142.409 237.375L140.485 237.645C140.261 237.645 140.082 237.735 139.903 237.914C139.769 238.094 139.679 238.274 139.59 238.499C139.545 238.679 139.59 238.993 139.814 239.218L141.022 240.837C141.201 241.017 141.424 241.151 141.693 241.241C141.872 241.286 142.14 241.241 142.319 241.106C142.498 241.017 142.632 240.837 142.722 240.657L143.393 238.814ZM143.93 234.902L143.661 232.969C143.661 232.744 143.482 232.565 143.393 232.385C143.214 232.25 143.035 232.16 142.811 232.16C142.543 232.16 142.319 232.16 142.095 232.385L140.485 233.599C140.216 233.733 140.172 234.003 140.082 234.273C140.037 234.453 140.082 234.722 140.216 234.902C140.306 235.082 140.485 235.262 140.664 235.307L142.498 236.026C142.543 235.891 142.632 235.756 142.722 235.712L142.453 235.352C142.274 235.172 142.319 234.812 142.588 234.678C142.767 234.498 143.124 234.543 143.259 234.812L143.527 235.172C143.706 234.947 143.751 234.902 143.93 234.902ZM145.406 237.06C145.496 236.521 145.048 235.936 144.511 235.846C143.974 235.756 143.393 236.206 143.303 236.746C143.214 237.285 143.661 237.869 144.198 237.959C144.78 238.049 145.317 237.69 145.406 237.06ZM145.138 232.924C145.317 232.475 145.63 232.115 145.988 231.935C146.346 231.755 146.793 231.665 147.196 231.71C147.688 231.755 148.18 232.07 148.493 232.52L149.701 234.138C150.014 234.588 150.149 235.127 150.104 235.622C150.059 236.026 149.88 236.431 149.567 236.791C149.254 237.15 148.851 237.33 148.404 237.42L147.554 237.555L148.359 237.869C148.806 238.049 149.164 238.364 149.343 238.724C149.522 239.083 149.612 239.533 149.567 239.938C149.522 240.432 149.209 240.927 148.762 241.241L147.106 242.5C146.659 242.815 146.122 242.95 145.63 242.905C145.227 242.86 144.825 242.68 144.556 242.365C144.288 242.051 144.019 241.646 143.93 241.196L143.796 240.342L143.482 241.151C143.303 241.601 142.99 241.961 142.632 242.14C142.274 242.32 141.827 242.41 141.424 242.365C140.932 242.32 140.44 242.006 140.127 241.556L138.919 239.938C138.606 239.488 138.471 238.949 138.516 238.454C138.561 238.049 138.74 237.645 139.053 237.285C139.366 237.015 139.769 236.746 140.216 236.656L141.066 236.521L140.261 236.206C139.814 236.026 139.456 235.712 139.277 235.352C139.098 234.992 139.008 234.543 139.053 234.138C139.098 233.643 139.411 233.149 139.858 232.834L141.469 231.62C141.916 231.261 142.453 231.171 142.945 231.216C143.348 231.261 143.751 231.441 144.019 231.755C144.288 232.07 144.556 232.475 144.646 232.924L144.78 233.778L145.138 232.924Z" fill="#22C6C1"/>
<path d="M145.36 192.193L147.866 190.934C148.179 190.799 148.313 190.574 148.492 190.305C148.626 190.035 148.626 189.765 148.581 189.451C148.537 189.091 148.313 188.821 147.955 188.551L145.494 186.978C145.136 186.753 144.778 186.708 144.421 186.753C144.107 186.798 143.839 186.978 143.66 187.203C143.481 187.427 143.392 187.697 143.347 188.057L143.213 190.844C143.392 190.889 143.615 190.889 143.749 190.979L144.107 190.485C144.331 190.17 144.778 190.08 145.092 190.26C145.405 190.485 145.494 190.934 145.315 191.249L144.957 191.743C145.136 191.833 145.226 192.013 145.36 192.193ZM147.15 199.431C147.508 199.386 147.776 199.161 148.045 198.802L149.61 196.329C149.834 195.969 149.879 195.61 149.834 195.25C149.789 194.935 149.61 194.666 149.387 194.486C149.163 194.261 148.895 194.126 148.537 194.171L145.673 194.036C145.629 194.171 145.629 194.396 145.539 194.576L146.076 194.935C146.389 195.16 146.479 195.61 146.3 195.924C146.076 196.284 145.673 196.419 145.315 196.149L144.778 195.79C144.689 195.924 144.51 196.014 144.331 196.104L145.584 198.622C145.718 198.937 145.942 199.071 146.21 199.251C146.568 199.476 146.837 199.476 147.15 199.431ZM142.452 196.644C142.273 196.599 142.094 196.599 141.915 196.509L141.647 197.003C141.423 197.318 140.976 197.408 140.662 197.228C140.349 197.048 140.26 196.554 140.439 196.239L140.707 195.745C140.573 195.655 140.439 195.43 140.349 195.295L137.844 196.554C137.531 196.689 137.396 196.913 137.217 197.183C137.083 197.453 137.038 197.768 137.128 198.037C137.173 198.352 137.396 198.667 137.754 198.937L140.17 200.555C140.528 200.78 140.886 200.825 141.199 200.78C141.512 200.735 141.781 200.555 141.96 200.33C142.184 200.105 142.228 199.836 142.273 199.476L142.452 196.644ZM141.289 191.204L140.036 188.686C139.902 188.372 139.678 188.147 139.41 188.057C139.141 187.922 138.873 187.922 138.56 187.967C138.202 188.012 137.933 188.237 137.665 188.596L136.054 191.024C135.831 191.384 135.786 191.743 135.831 192.103C135.875 192.418 136.054 192.687 136.278 192.867C136.502 193.092 136.77 193.227 137.128 193.182L139.902 193.317C139.947 193.137 139.947 192.957 140.036 192.777L139.499 192.418C139.186 192.193 139.097 191.743 139.275 191.429C139.499 191.114 139.947 191.024 140.26 191.204L140.752 191.564C140.976 191.474 141.11 191.339 141.289 191.204ZM144.286 193.407C144.107 192.553 143.302 192.058 142.497 192.238C141.647 192.418 141.155 193.182 141.334 194.036C141.512 194.89 142.363 195.34 143.123 195.205C143.973 195.07 144.465 194.261 144.286 193.407ZM141.915 187.967C141.96 187.338 142.184 186.663 142.631 186.214C143.034 185.764 143.571 185.449 144.152 185.359C144.868 185.18 145.584 185.314 146.3 185.719L148.76 187.293C149.431 187.697 149.834 188.372 150.013 189.091C150.147 189.72 150.058 190.26 149.834 190.844C149.61 191.429 149.118 191.878 148.537 192.148L147.463 192.732L148.671 192.777C149.297 192.822 149.968 193.047 150.371 193.452C150.818 193.856 151.132 194.396 151.221 194.98C151.4 195.7 151.266 196.419 150.863 197.138L149.297 199.611C148.895 200.285 148.223 200.69 147.508 200.87C146.881 201.005 146.344 200.96 145.763 200.69C145.181 200.465 144.734 199.971 144.421 199.386L143.928 198.307L143.884 199.521C143.839 200.15 143.615 200.825 143.168 201.274C142.765 201.724 142.228 202.039 141.647 202.129C140.931 202.308 140.215 202.173 139.499 201.769L137.083 200.15C136.412 199.746 136.009 199.071 135.831 198.352C135.696 197.723 135.741 197.183 136.009 196.599C136.233 196.059 136.681 195.565 137.307 195.295L138.381 194.711L137.173 194.666C136.546 194.621 135.875 194.396 135.428 193.946C134.98 193.542 134.667 193.002 134.578 192.418C134.399 191.698 134.533 190.979 134.936 190.26L136.546 187.832C136.949 187.158 137.665 186.708 138.336 186.573C138.962 186.438 139.499 186.483 140.081 186.753C140.662 186.978 141.11 187.472 141.423 188.057L142.005 189.136L141.915 187.967Z" fill="#22C6C1"/>
<path d="M122.767 243.039L125.094 241.825C125.362 241.69 125.586 241.466 125.675 241.196C125.809 240.971 125.809 240.656 125.809 240.387C125.72 240.027 125.541 239.757 125.183 239.532L122.901 238.049C122.588 237.824 122.185 237.779 121.872 237.869C121.604 237.914 121.38 238.049 121.156 238.274C120.977 238.498 120.843 238.768 120.798 239.083L120.709 241.69C120.888 241.69 121.067 241.735 121.246 241.825L121.559 241.331C121.783 241.016 122.185 240.926 122.499 241.151C122.812 241.376 122.901 241.78 122.678 242.095L122.364 242.59C122.588 242.724 122.722 242.859 122.767 243.039ZM124.512 249.963C124.87 249.873 125.138 249.693 125.362 249.333L126.838 246.995C127.062 246.681 127.062 246.321 127.017 245.961C126.973 245.737 126.838 245.467 126.57 245.287C126.302 245.107 126.078 244.972 125.765 244.927L123.125 244.792C123.08 244.927 123.08 245.107 122.991 245.332L123.483 245.647C123.796 245.871 123.886 246.276 123.662 246.591C123.438 246.906 123.035 246.995 122.722 246.771L122.23 246.456C122.096 246.591 122.006 246.681 121.783 246.771L122.946 249.198C123.08 249.468 123.304 249.693 123.572 249.783C123.93 249.963 124.199 249.963 124.512 249.963ZM120.083 247.31C119.904 247.31 119.725 247.265 119.546 247.175L119.233 247.67C119.009 247.984 118.606 248.074 118.293 247.85C117.98 247.625 117.89 247.22 118.114 246.906L118.383 246.501C118.248 246.366 118.114 246.186 118.069 246.051L115.743 247.265C115.474 247.4 115.251 247.625 115.161 247.895C115.027 248.119 115.027 248.434 115.116 248.704C115.206 249.019 115.385 249.333 115.743 249.558L118.025 251.042C118.338 251.266 118.696 251.266 119.054 251.221C119.322 251.176 119.546 251.042 119.769 250.817C119.948 250.592 120.083 250.322 120.127 250.008L120.083 247.31ZM119.009 242.185L117.801 239.847C117.667 239.577 117.443 239.353 117.175 239.218C116.951 239.083 116.638 239.083 116.369 239.173C116.011 239.263 115.743 239.443 115.519 239.802L114.043 242.095C113.819 242.41 113.819 242.769 113.864 243.129C113.909 243.399 114.043 243.624 114.311 243.803C114.58 243.983 114.803 244.118 115.116 244.163L117.711 244.253C117.711 244.073 117.756 243.938 117.846 243.713L117.354 243.399C117.04 243.174 116.951 242.769 117.175 242.455C117.398 242.14 117.801 242.05 118.114 242.275L118.606 242.59C118.651 242.365 118.83 242.23 119.009 242.185ZM121.783 244.253C121.604 243.489 120.843 242.994 120.127 243.174C119.412 243.354 118.875 244.073 119.054 244.837C119.233 245.602 119.993 246.096 120.709 245.916C121.47 245.737 121.962 244.972 121.783 244.253ZM119.591 239.083C119.591 238.453 119.859 237.869 120.262 237.464C120.62 237.015 121.112 236.745 121.649 236.61C122.32 236.475 123.08 236.565 123.662 237.015L125.944 238.498C126.57 238.903 127.017 239.532 127.152 240.207C127.286 240.746 127.241 241.331 126.973 241.825C126.704 242.32 126.302 242.814 125.765 243.129L124.736 243.624L125.899 243.669C126.525 243.669 127.107 243.938 127.51 244.343C127.912 244.748 128.225 245.197 128.36 245.737C128.494 246.411 128.404 247.175 127.957 247.76L126.48 250.097C126.078 250.727 125.451 251.176 124.825 251.266C124.288 251.401 123.707 251.356 123.214 251.087C122.722 250.817 122.23 250.412 121.962 249.828L121.47 248.839L121.425 249.963C121.425 250.637 121.156 251.176 120.754 251.581C120.351 251.986 119.904 252.3 119.277 252.39C119.277 252.39 119.277 252.39 119.233 252.39C118.561 252.525 117.89 252.39 117.264 251.986L114.982 250.502C114.356 250.097 113.909 249.468 113.819 248.839C113.685 248.299 113.73 247.715 113.998 247.13C114.266 246.636 114.669 246.141 115.206 245.827L116.235 245.332L115.116 245.287C114.49 245.287 113.909 245.017 113.506 244.613C113.103 244.208 112.79 243.758 112.656 243.219C112.522 242.545 112.656 241.825 113.058 241.196L114.535 238.903C114.938 238.229 115.564 237.824 116.235 237.689C116.772 237.554 117.354 237.599 117.846 237.869C118.338 238.139 118.83 238.543 119.098 239.128L119.591 240.162V239.083Z" fill="#22C6C1"/>
<path d="M145.45 213.998L147.643 212.874C147.911 212.739 148.09 212.559 148.179 212.289C148.314 212.02 148.314 211.84 148.269 211.525C148.224 211.21 148.001 210.941 147.687 210.716L145.54 209.322C145.227 209.097 144.869 209.052 144.6 209.142C144.377 209.232 144.108 209.277 143.929 209.547C143.75 209.727 143.661 209.997 143.661 210.266L143.571 212.694C143.705 212.739 143.929 212.739 144.019 212.829L144.287 212.379C144.466 212.065 144.913 211.975 145.137 212.199C145.361 212.424 145.54 212.829 145.316 213.054L145.048 213.503C145.271 213.773 145.406 213.953 145.45 213.998ZM147.016 220.562C147.329 220.517 147.598 220.292 147.822 219.977L149.208 217.819C149.432 217.504 149.477 217.145 149.387 216.875C149.298 216.65 149.164 216.38 148.985 216.201C148.806 216.021 148.537 215.931 148.269 215.931L145.763 215.796C145.719 215.931 145.674 216.111 145.629 216.246L146.121 216.515C146.435 216.74 146.524 217.145 146.3 217.37C146.077 217.684 145.674 217.774 145.45 217.549L144.958 217.28C144.869 217.415 144.734 217.504 144.6 217.594L145.719 219.842C145.853 220.112 146.032 220.292 146.3 220.382C146.524 220.562 146.793 220.562 147.016 220.562ZM142.9 217.999C142.766 217.954 142.542 217.954 142.453 217.864L142.184 218.314C142.005 218.628 141.558 218.718 141.334 218.493C141.021 218.314 140.932 217.864 141.155 217.639L141.424 217.19C141.29 217.1 141.2 216.92 141.111 216.83L138.918 217.954C138.65 218.089 138.471 218.269 138.381 218.538C138.292 218.808 138.247 219.078 138.292 219.303C138.337 219.617 138.56 219.887 138.874 220.112L141.021 221.506C141.334 221.685 141.692 221.775 141.961 221.685C142.184 221.596 142.453 221.461 142.632 221.281C142.811 221.101 142.9 220.831 142.9 220.562V217.999ZM141.826 213.233L140.708 211.031C140.574 210.761 140.395 210.581 140.171 210.446C139.947 210.311 139.724 210.311 139.41 210.356C139.097 210.401 138.829 210.626 138.605 210.941L137.218 213.099C136.994 213.413 136.95 213.773 137.039 214.043C137.129 214.267 137.263 214.537 137.442 214.717C137.621 214.897 137.889 214.987 138.158 214.987L140.663 215.122C140.708 214.987 140.753 214.807 140.797 214.672L140.305 214.402C139.992 214.223 139.903 213.773 140.126 213.548C140.305 213.233 140.753 213.144 140.976 213.368L141.424 213.638C141.558 213.458 141.737 213.323 141.826 213.233ZM144.556 215.122C144.377 214.402 143.75 213.953 142.945 214.088C142.229 214.267 141.782 214.897 141.916 215.706C142.095 216.425 142.721 216.875 143.526 216.74C144.198 216.56 144.69 215.931 144.556 215.122ZM142.453 210.266C142.453 209.682 142.721 209.097 143.079 208.783C143.392 208.378 143.884 208.153 144.466 208.018C145.092 207.884 145.764 207.973 146.39 208.423L148.537 209.817C149.164 210.221 149.477 210.806 149.611 211.435C149.745 211.975 149.701 212.469 149.477 213.009C149.253 213.548 148.851 213.908 148.358 214.223L147.419 214.672L148.493 214.762C149.074 214.762 149.656 215.032 149.969 215.391C150.282 215.751 150.685 216.246 150.73 216.785C150.864 217.415 150.774 218.089 150.327 218.718L148.94 220.876C148.537 221.506 147.956 221.82 147.329 221.955C146.793 222.09 146.211 222 145.763 221.82C145.227 221.596 144.869 221.191 144.556 220.696L144.108 219.752L144.019 220.831C144.019 221.416 143.75 222 143.392 222.405C143.079 222.809 142.587 223.034 142.005 223.169C141.379 223.304 140.708 223.169 140.171 222.809L138.023 221.416C137.397 221.011 137.084 220.427 136.95 219.797C136.816 219.258 136.905 218.673 137.084 218.224C137.308 217.684 137.71 217.325 138.202 217.01L139.142 216.56H138.068C137.487 216.56 136.905 216.291 136.502 215.931C136.1 215.616 135.786 215.077 135.742 214.537C135.608 213.908 135.742 213.233 136.144 212.604L137.531 210.446C137.934 209.817 138.516 209.502 139.142 209.367C139.679 209.232 140.171 209.277 140.708 209.502C141.245 209.727 141.603 210.131 141.916 210.626L142.363 211.57L142.453 210.266Z" fill="#22C6C1"/>
<path d="M126.166 172.096L126.569 169.668C126.569 169.399 126.569 169.174 126.434 168.904C126.3 168.634 126.121 168.544 125.853 168.365C125.584 168.185 125.271 168.185 124.913 168.41L122.542 169.354C122.229 169.489 122.005 169.713 121.871 170.028C121.737 170.298 121.737 170.478 121.781 170.792C121.871 171.017 121.916 171.287 122.184 171.422L124.063 172.905C124.153 172.77 124.287 172.681 124.421 172.591L124.197 172.096C124.063 171.781 124.242 171.377 124.555 171.242C124.868 171.107 125.271 171.287 125.405 171.602L125.629 172.096C125.808 172.051 125.942 172.051 126.166 172.096ZM132.206 174.524C132.34 174.254 132.385 173.939 132.25 173.58L131.311 171.197C131.177 170.882 130.953 170.657 130.64 170.523C130.371 170.433 130.192 170.388 129.879 170.433C129.656 170.523 129.387 170.568 129.253 170.837L127.687 172.77C127.821 172.86 127.911 172.995 128 173.13L128.492 172.905C128.806 172.77 129.208 172.95 129.342 173.265C129.477 173.58 129.298 173.984 128.984 174.119L128.492 174.344C128.537 174.479 128.537 174.659 128.492 174.838L130.908 175.243C131.177 175.243 131.4 175.243 131.669 175.108C131.937 174.928 132.072 174.704 132.206 174.524ZM127.866 176.412C127.776 176.547 127.642 176.637 127.508 176.727L127.642 177.221C127.776 177.536 127.598 177.941 127.284 178.075C126.971 178.21 126.569 178.03 126.434 177.716L126.3 177.221C126.166 177.266 125.987 177.266 125.808 177.221L125.405 179.649C125.405 179.919 125.405 180.143 125.539 180.413C125.674 180.683 125.853 180.773 126.121 180.953C126.39 181.088 126.703 181.133 127.061 180.908L129.432 179.964C129.745 179.829 129.969 179.604 130.103 179.289C130.237 179.02 130.237 178.84 130.192 178.525C130.103 178.3 130.058 178.03 129.79 177.896L127.866 176.412ZM123.392 174.524L120.976 174.119C120.708 174.119 120.394 174.119 120.215 174.254C119.947 174.389 119.858 174.569 119.679 174.838C119.544 175.108 119.5 175.423 119.723 175.783L120.663 178.165C120.797 178.48 121.021 178.705 121.334 178.84C121.602 178.975 121.781 178.975 122.095 178.93C122.318 178.84 122.587 178.795 122.721 178.525L124.197 176.637C124.063 176.547 123.974 176.412 123.884 176.277L123.392 176.502C123.079 176.637 122.676 176.457 122.542 176.142C122.408 175.828 122.587 175.423 122.9 175.288L123.392 175.063C123.392 174.794 123.437 174.659 123.392 174.524ZM126.479 173.49C125.808 173.22 125.047 173.535 124.779 174.164C124.51 174.794 124.824 175.603 125.45 175.872C126.121 176.142 126.882 175.828 127.15 175.198C127.419 174.569 127.15 173.759 126.479 173.49ZM121.423 172.366C120.931 172.006 120.663 171.512 120.573 170.972C120.439 170.433 120.484 169.938 120.708 169.399C120.931 168.814 121.423 168.32 122.095 168.05L124.466 167.106C125.092 166.836 125.808 166.926 126.345 167.106C126.792 167.286 127.195 167.645 127.508 168.14C127.821 168.634 127.866 169.174 127.776 169.758L127.642 170.792L128.313 169.983C128.671 169.489 129.163 169.219 129.7 169.129C130.237 168.994 130.729 169.039 131.266 169.264C131.848 169.489 132.34 169.983 132.608 170.657L133.548 173.04C133.816 173.67 133.727 174.389 133.548 174.928C133.324 175.468 133.011 175.783 132.519 176.097C132.072 176.322 131.49 176.457 130.908 176.367L129.879 176.232L130.685 176.907C131.177 177.266 131.445 177.761 131.535 178.3C131.669 178.84 131.624 179.334 131.4 179.874C131.177 180.458 130.685 180.908 130.013 181.177L127.642 182.122C127.016 182.391 126.3 182.301 125.763 182.122C125.226 181.897 124.913 181.582 124.6 181.088C124.376 180.638 124.242 180.098 124.332 179.469L124.466 178.435L123.795 179.244C123.437 179.739 122.945 180.009 122.408 180.098C121.871 180.233 121.379 180.188 120.842 179.964C120.26 179.739 119.768 179.244 119.5 178.57L118.56 176.187C118.292 175.558 118.381 174.838 118.56 174.299C118.739 173.849 119.097 173.445 119.589 173.13C120.036 172.905 120.618 172.77 121.2 172.86L122.229 172.995L121.423 172.366Z" fill="#22C6C1"/>
<path d="M137.261 256.931L137.754 253.514C137.798 253.11 137.754 252.705 137.53 252.435C137.351 252.076 137.127 251.896 136.724 251.716C136.322 251.536 135.874 251.491 135.382 251.716L132.072 253.02C131.579 253.155 131.266 253.514 131.087 253.919C130.908 254.233 130.908 254.593 130.998 254.998C131.042 255.312 131.266 255.627 131.624 255.897L134.264 258.01C134.398 257.83 134.577 257.65 134.845 257.515L134.577 256.886C134.443 256.391 134.622 255.897 135.024 255.717C135.427 255.537 136.009 255.762 136.188 256.167L136.501 256.886C136.859 256.976 137.082 256.931 137.261 256.931ZM145.851 260.348C146.03 259.943 146.075 259.494 145.851 258.999L144.554 255.672C144.42 255.178 144.062 254.863 143.659 254.683C143.346 254.503 142.943 254.458 142.585 254.593C142.272 254.638 141.959 254.863 141.646 255.178L139.498 257.92C139.677 258.055 139.856 258.235 139.946 258.415L140.662 258.1C141.154 257.965 141.646 258.145 141.825 258.549C141.959 259.044 141.78 259.539 141.377 259.718L140.662 260.033C140.662 260.258 140.662 260.483 140.706 260.707L144.151 261.247C144.554 261.292 144.957 261.247 145.225 261.022C145.449 260.977 145.673 260.662 145.851 260.348ZM139.677 263.045C139.543 263.225 139.364 263.405 139.185 263.54L139.454 264.169C139.588 264.664 139.409 265.158 139.006 265.338C138.514 265.473 138.022 265.293 137.843 264.888L137.575 264.259C137.351 264.259 137.127 264.259 136.859 264.259L136.367 267.676C136.322 268.08 136.367 268.485 136.59 268.755C136.769 269.114 137.082 269.339 137.396 269.474C137.798 269.654 138.201 269.654 138.693 269.474L142.004 268.17C142.496 267.946 142.809 267.676 142.988 267.226C143.167 266.912 143.212 266.507 143.078 266.147C143.033 265.833 142.809 265.518 142.451 265.248L139.677 263.045ZM133.458 260.348L130.058 259.853C129.656 259.808 129.253 259.853 128.984 260.078C128.716 260.303 128.403 260.573 128.269 260.887C128.09 261.292 128.045 261.741 128.269 262.236L129.566 265.563C129.7 266.057 130.058 266.372 130.461 266.552C130.774 266.732 131.177 266.777 131.535 266.642C131.848 266.597 132.161 266.372 132.474 266.057L134.622 263.315C134.443 263.18 134.264 263 134.174 262.82L133.458 263.135C132.966 263.27 132.474 263.09 132.295 262.686C132.161 262.191 132.34 261.696 132.743 261.517L133.458 261.202C133.369 260.842 133.414 260.573 133.458 260.348ZM137.754 258.864C136.769 258.46 135.74 258.864 135.338 259.853C134.935 260.752 135.338 261.876 136.322 262.281C137.217 262.686 138.335 262.281 138.738 261.292C139.14 260.438 138.738 259.314 137.754 258.864ZM130.595 257.381C129.924 256.886 129.566 256.212 129.387 255.447C129.208 254.728 129.298 253.964 129.566 253.244C129.924 252.48 130.55 251.716 131.535 251.401L134.845 250.097C135.74 249.693 136.724 249.738 137.485 250.097C138.156 250.367 138.693 250.862 139.096 251.581C139.498 252.21 139.633 253.02 139.498 253.784L139.23 255.223L140.125 254.009C140.662 253.379 141.288 252.975 142.049 252.795C142.764 252.615 143.525 252.705 144.241 252.975C145.001 253.334 145.762 253.964 146.075 254.953L147.373 258.28C147.775 259.179 147.731 260.168 147.373 260.932C147.104 261.652 146.612 262.146 145.896 262.551C145.27 262.955 144.465 263.09 143.614 262.91L142.183 262.641L143.301 263.54C143.928 264.079 144.33 264.754 144.554 265.473C144.733 266.192 144.643 266.957 144.33 267.631C144.33 267.631 144.33 267.631 144.33 267.676C143.972 268.44 143.346 269.159 142.451 269.519L139.14 270.823C138.246 271.227 137.261 271.183 136.501 270.823C135.785 270.553 135.293 270.059 134.89 269.339C134.487 268.71 134.353 267.901 134.487 267.136L134.666 265.653L133.772 266.867C133.28 267.541 132.519 267.946 131.848 268.125C131.132 268.305 130.371 268.215 129.656 267.946C128.895 267.586 128.134 266.956 127.821 265.967L126.524 262.641C126.121 261.741 126.166 260.752 126.524 259.988C126.792 259.314 127.284 258.774 128 258.37C128.671 257.965 129.432 257.83 130.282 258.01L131.714 258.28L130.595 257.381Z" fill="#22C6C1"/>
<path d="M142.988 286.107L143.212 284.669C143.257 284.534 143.212 284.354 143.123 284.219C143.033 284.084 142.899 283.994 142.765 283.904C142.586 283.859 142.407 283.814 142.183 283.904L140.796 284.489C140.617 284.579 140.483 284.714 140.393 284.848C140.349 284.983 140.304 285.163 140.304 285.298C140.304 285.478 140.438 285.613 140.572 285.703L141.691 286.602C141.78 286.512 141.825 286.467 141.915 286.377L141.78 286.062C141.736 285.882 141.78 285.658 141.959 285.568C142.138 285.523 142.362 285.568 142.451 285.748L142.586 286.062C142.854 286.107 142.899 286.062 142.988 286.107ZM146.657 287.546C146.702 287.366 146.746 287.186 146.657 286.961L146.075 285.568C145.986 285.388 145.852 285.253 145.717 285.163C145.583 285.118 145.404 285.073 145.225 285.118C145.046 285.118 144.912 285.253 144.823 285.388L143.928 286.512C144.017 286.602 144.062 286.647 144.152 286.737L144.465 286.602C144.644 286.557 144.867 286.602 144.957 286.782C145.002 286.961 144.957 287.186 144.778 287.276L144.465 287.411C144.465 287.546 144.465 287.591 144.509 287.681L145.941 287.906C146.075 287.951 146.254 287.906 146.389 287.816C146.478 287.771 146.568 287.681 146.657 287.546ZM144.017 288.715C143.928 288.805 143.883 288.85 143.794 288.94L143.883 289.209C143.928 289.389 143.883 289.614 143.704 289.704C143.525 289.749 143.302 289.704 143.212 289.524L143.123 289.299C142.988 289.299 142.899 289.299 142.809 289.299L142.586 290.738C142.541 290.873 142.586 291.053 142.675 291.187C142.765 291.322 142.899 291.412 143.033 291.502C143.167 291.547 143.391 291.592 143.615 291.502L145.002 290.918C145.181 290.828 145.315 290.693 145.404 290.558C145.449 290.423 145.494 290.243 145.494 290.108C145.494 289.929 145.36 289.794 145.225 289.704L144.017 288.715ZM141.378 287.546L139.946 287.321C139.767 287.276 139.633 287.321 139.499 287.411C139.364 287.501 139.275 287.636 139.185 287.771C139.141 287.951 139.096 288.13 139.185 288.355L139.767 289.749C139.857 289.929 139.991 290.064 140.125 290.153C140.259 290.198 140.438 290.243 140.617 290.198C140.796 290.198 140.93 290.064 141.02 289.929L141.915 288.805C141.825 288.715 141.78 288.67 141.691 288.58L141.378 288.715C141.199 288.76 140.975 288.715 140.886 288.535C140.841 288.355 140.886 288.13 141.065 288.04L141.378 287.906C141.378 287.726 141.422 287.636 141.378 287.546ZM143.212 286.917C142.809 286.737 142.362 286.961 142.183 287.321C142.004 287.681 142.228 288.175 142.586 288.355C142.988 288.535 143.436 288.31 143.615 287.951C143.794 287.546 143.615 287.096 143.212 286.917ZM140.17 286.287C139.901 286.062 139.722 285.793 139.678 285.433C139.588 285.163 139.633 284.848 139.767 284.489C139.901 284.174 140.214 283.859 140.572 283.68L141.959 283.095C142.317 282.915 142.765 282.96 143.078 283.095C143.346 283.23 143.615 283.455 143.749 283.725C143.883 283.994 144.017 284.309 143.928 284.669L143.794 285.298L144.196 284.804C144.42 284.534 144.688 284.354 145.046 284.309C145.315 284.219 145.673 284.264 145.986 284.399C146.299 284.534 146.612 284.849 146.791 285.208L147.373 286.602C147.552 286.961 147.507 287.411 147.373 287.726C147.239 287.995 147.06 288.265 146.746 288.4C146.478 288.535 146.165 288.67 145.807 288.58L145.181 288.445L145.673 288.85C145.941 289.074 146.12 289.344 146.165 289.704C146.254 289.974 146.21 290.333 146.075 290.648C145.941 290.963 145.628 291.277 145.27 291.457L143.883 292.042C143.525 292.221 143.078 292.176 142.765 292.042C142.496 291.907 142.228 291.682 142.094 291.412C141.959 291.142 141.87 290.828 141.915 290.468L142.049 289.839L141.646 290.333C141.422 290.603 141.154 290.783 140.796 290.828C140.438 290.873 140.17 290.873 139.857 290.738C139.543 290.603 139.23 290.288 139.051 289.929L138.47 288.535C138.291 288.175 138.335 287.726 138.47 287.411C138.604 287.141 138.783 286.872 139.096 286.737C139.364 286.602 139.678 286.512 140.035 286.557L140.662 286.692L140.17 286.287Z" fill="#22C6C1"/>
<path d="M125.765 277.072L126.257 274.015C126.302 273.655 126.212 273.341 126.078 273.026C125.944 272.756 125.72 272.576 125.407 272.396C125.004 272.217 124.691 272.172 124.244 272.352L121.335 273.475C120.933 273.655 120.62 273.925 120.441 274.33C120.262 274.644 120.262 274.914 120.351 275.229C120.396 275.544 120.62 275.813 120.933 276.038L123.304 277.926C123.438 277.746 123.617 277.657 123.796 277.477L123.483 276.937C123.304 276.533 123.528 276.083 123.93 275.903C124.333 275.723 124.78 275.948 124.959 276.353L125.228 276.982C125.317 277.027 125.541 277.027 125.765 277.072ZM133.326 280.084C133.505 279.68 133.549 279.365 133.37 278.915L132.162 275.993C131.984 275.588 131.715 275.274 131.312 275.094C131.044 274.959 130.731 274.914 130.418 275.004C130.104 275.094 129.836 275.274 129.612 275.499L127.688 277.926C127.823 278.016 127.957 278.241 128.046 278.376L128.673 278.106C129.075 277.926 129.523 278.151 129.702 278.556C129.881 278.96 129.657 279.41 129.254 279.59L128.628 279.859C128.628 280.084 128.673 280.219 128.673 280.444L131.715 280.938C132.073 280.983 132.386 280.893 132.699 280.759C133.057 280.624 133.236 280.399 133.326 280.084ZM127.912 282.467C127.778 282.647 127.599 282.737 127.42 282.917L127.644 283.501C127.823 283.906 127.599 284.355 127.196 284.535C126.794 284.715 126.346 284.49 126.167 284.085L125.944 283.501C125.72 283.501 125.496 283.501 125.273 283.546L124.825 286.513C124.78 286.873 124.87 287.187 125.004 287.502C125.138 287.772 125.451 287.997 125.675 288.132C125.988 288.311 126.391 288.356 126.838 288.177L129.747 287.053C130.149 286.873 130.462 286.603 130.641 286.198C130.82 285.884 130.82 285.614 130.731 285.299C130.686 284.985 130.462 284.715 130.149 284.49L127.912 282.467ZM122.32 280.039L119.277 279.545C118.919 279.5 118.562 279.545 118.293 279.725C118.025 279.859 117.801 280.174 117.667 280.399C117.488 280.804 117.443 281.118 117.622 281.568L118.74 284.49C118.919 284.895 119.188 285.209 119.591 285.389C119.904 285.569 120.172 285.569 120.485 285.479C120.799 285.434 121.067 285.209 121.291 284.985L123.214 282.557C123.036 282.422 122.946 282.242 122.857 282.107L122.23 282.377C121.828 282.557 121.38 282.332 121.201 281.927C121.022 281.523 121.246 281.073 121.649 280.893L122.275 280.624C122.364 280.444 122.32 280.219 122.32 280.039ZM126.212 278.78C125.362 278.421 124.422 278.78 124.02 279.635C123.662 280.489 124.02 281.433 124.87 281.838C125.72 282.197 126.659 281.838 126.973 280.983C127.286 280.084 127.017 279.185 126.212 278.78ZM119.859 277.432C119.277 276.982 118.919 276.353 118.74 275.723C118.562 275.094 118.696 274.42 118.919 273.835C119.188 273.116 119.814 272.486 120.664 272.172L123.572 271.048C124.378 270.688 125.228 270.778 125.944 271.048C126.525 271.273 127.017 271.767 127.375 272.307C127.733 272.891 127.867 273.61 127.778 274.285L127.554 275.588L128.36 274.509C128.807 273.925 129.433 273.565 130.06 273.386C130.686 273.206 131.357 273.341 131.939 273.565C132.655 273.925 133.281 274.465 133.594 275.319L134.802 278.241C135.16 279.05 135.071 279.904 134.802 280.624C134.578 281.208 134.131 281.748 133.549 282.062C132.968 282.422 132.252 282.557 131.581 282.467L130.283 282.242L131.268 283.051C131.849 283.501 132.207 284.13 132.386 284.805C132.52 285.434 132.431 286.109 132.207 286.693C132.207 286.693 132.207 286.693 132.207 286.738C131.849 287.457 131.312 288.087 130.507 288.356L127.599 289.48C126.794 289.84 125.944 289.75 125.228 289.48C124.646 289.256 124.154 288.761 123.796 288.222C123.438 287.637 123.304 286.918 123.393 286.243L123.617 284.94L122.812 285.929C122.364 286.513 121.738 286.873 121.112 287.053C120.485 287.232 119.814 287.098 119.233 286.873C118.517 286.513 117.89 285.974 117.577 285.119L116.459 282.197C116.101 281.388 116.19 280.534 116.459 279.814C116.682 279.23 117.13 278.691 117.711 278.376C118.293 278.016 119.009 277.881 119.68 277.971L120.977 278.196L119.859 277.432Z" fill="#22C6C1"/>
<path d="M160.885 127.275C157.171 83.9364 149.655 69.8647 137.307 68.1113C133.012 71.8878 132.027 85.1052 136.457 93.9169C136.457 93.9169 146.076 121.116 146.613 131.007C146.881 140.493 146.21 149.979 144.644 159.33C144.42 160.589 143.705 161.758 142.72 162.522C140.036 164.68 140.17 166.883 138.246 169.445C136.725 171.469 135.338 172.053 135.562 172.637C135.965 173.222 136.591 173.671 137.262 173.806C137.978 173.986 138.694 173.851 139.32 173.492C140.528 172.862 141.646 172.098 142.631 171.154C141.825 173.761 140.617 176.234 139.141 178.527C135.607 183.967 135.786 187.114 144.062 186.26C149.208 185.72 153.01 182.034 155.605 170.165C156.366 166.748 158.111 160.499 158.871 156.093C160.974 143.55 161.466 134.244 160.885 127.275Z" fill="#CE9C7A"/>
<path d="M34.1818 88.4766C33.5107 88.4766 33.0185 89.2408 32.6606 90.4547L33.8686 91.1291C34.0028 90.6795 34.0923 90.3198 34.2265 90.095C34.6739 91.0841 35.3898 94.5009 35.3898 100.166C35.3898 105.83 34.7187 109.247 34.2265 110.236C33.9133 109.562 33.5107 107.763 33.2422 104.931L31.8105 104.032C32.0342 107.539 32.6159 111.809 34.1818 111.809C36.5083 111.809 36.6872 102.908 36.6872 100.166C36.6872 97.4231 36.5083 88.4766 34.1818 88.4766Z" fill="#D39518"/>
<path d="M31.5411 86.5879C30.9148 86.5879 30.4226 87.2622 30.0647 88.3412C30.4226 89.1505 30.87 89.4202 31.1385 89.5101C31.2727 88.8807 31.4069 88.4311 31.5411 88.1614C31.9885 89.1505 32.7044 92.5672 32.7044 98.2319C32.7044 103.897 32.0333 107.313 31.5411 108.302C31.228 107.628 30.8253 105.92 30.6016 103.177L29.1699 102.278C29.3936 105.785 29.9752 109.876 31.5411 109.876C33.8676 109.876 34.0466 100.974 34.0466 98.2319C34.0466 95.4895 33.8676 86.5879 31.5411 86.5879Z" fill="#E5A71C"/>
</svg>
