<svg width="83" height="89" viewBox="0 0 83 89" fill="none" xmlns="http://www.w3.org/2000/svg">
<g clip-path="url(#clip0)">
<path d="M13.6797 68.8752C13.6797 68.8752 14.6093 82.823 18.8589 85.9446C18.9917 86.0775 19.1909 85.8782 19.1245 85.7454C18.2613 84.1513 16.3357 79.4357 19.4565 74.1222C19.4565 74.1222 17.9957 79.5021 22.0461 82.0924C22.1789 82.2252 22.3781 82.026 22.3117 81.8267C21.7141 81.0297 21.2493 79.5685 22.9757 77.6424C25.5653 74.6536 27.6901 83.0222 25.4989 86.2767C25.3661 86.4095 25.5653 86.6088 25.7645 86.5424C27.6237 85.3469 31.0101 82.6901 32.0061 77.9745C31.9397 77.8416 20.0541 65.3551 13.6797 68.8752Z" fill="#263238"/>
<path d="M59.76 75.9817C59.76 75.9817 57.5688 87.4056 64.5408 88.9996C64.74 89.066 64.9392 88.8668 64.8728 88.6675C64.408 86.7414 62.6816 78.5056 66.5992 74.1884C66.6656 74.122 66.732 74.1884 66.732 74.2548C66.5992 75.2511 66.2672 79.0369 66.9976 81.6936C67.064 81.9593 67.396 81.9593 67.5288 81.7601C68.5248 79.5018 71.7784 72.1959 75.6296 67.2145C80.2112 61.2369 94.62 28.1608 63.9432 13.2832C63.8768 13.2832 63.8104 13.2832 63.8104 13.3496L61.752 32.1459L60.0256 65.8862" fill="#263238"/>
<path d="M60.8897 47.8873C62.3505 48.7508 64.4089 45.8948 66.2017 44.1015C67.9945 42.3082 73.8377 39.6515 76.7593 45.8284C79.6809 52.0053 74.1697 60.3739 69.5881 61.8351C61.5537 64.359 60.4249 59.2448 60.4249 59.2448L61.0225 67.8127C59.6945 68.809 50.5313 74.1888 41.8329 76.6463L33.9313 78.506C30.4121 79.1038 26.7601 79.2366 23.1745 79.0373C17.3313 78.1075 13.6793 73.5247 11.8865 67.215C9.03125 57.053 7.90245 48.8172 10.3593 28.8254C13.0153 6.9075 38.5128 6.64182 52.2577 15.3426C66.0689 23.9769 60.8897 47.8873 60.8897 47.8873Z" fill="#CE9C7A"/>
<path d="M33.2663 9.16576L39.1095 1.06277C38.5783 0.664267 38.0471 0.332178 37.3831 0.199342C36.7191 0.066506 36.0551 -0.0663298 35.4575 8.81311e-05C34.8599 0.066506 34.1959 0.332178 33.6647 0.664267C33.1335 0.996357 32.6023 1.46128 32.2039 1.99263C31.4071 3.12173 31.1415 4.45009 31.3407 5.84486C31.4735 7.17322 32.2039 8.36874 33.2663 9.16576Z" fill="#263238"/>
<path d="M37.1172 44.6333C37.1172 45.1646 37.3164 45.6296 37.582 46.0945C37.914 46.493 38.3124 46.8251 38.7772 47.0243C39.242 47.2236 39.7732 47.2236 40.3044 47.1572C40.8356 47.0243 41.234 46.7587 41.6324 46.4266C41.9644 46.0281 42.23 45.5631 42.2964 45.0982C42.3628 44.5669 42.3628 44.1019 42.1636 43.5706C41.9644 43.1057 41.6324 42.7072 41.1676 42.4415C40.7692 42.1758 40.238 41.9766 39.7068 41.9766C38.9764 41.9766 38.3124 42.3087 37.8476 42.7736C37.3828 43.2385 37.1172 43.9691 37.1172 44.6333Z" fill="#263238"/>
<path d="M41.3672 33.8076L46.9448 36.8628C47.3432 36.0658 47.4096 35.2024 47.2104 34.4054C46.9448 33.6084 46.4136 32.8778 45.6832 32.4128C45.2848 32.2136 44.8864 32.0808 44.488 32.0143C44.0896 31.9479 43.6248 32.0143 43.2264 32.1472C42.828 32.28 42.4296 32.4793 42.164 32.7449C41.7656 33.1434 41.5 33.4755 41.3672 33.8076Z" fill="#263238"/>
<path d="M35.1928 62.6992L29.2168 64.9574C29.3496 65.3559 29.5488 65.688 29.8144 66.0201C30.08 66.3522 30.412 66.6179 30.8104 66.7507C31.2088 66.95 31.6072 67.0164 32.0056 67.0828C32.404 67.0828 32.8688 67.0828 33.2008 66.95C33.9976 66.6179 34.6616 66.0201 35.06 65.2231C35.4584 64.4261 35.4584 63.5627 35.1928 62.6992Z" fill="#A5795B"/>
<path d="M13.1484 36.1305L18.2612 32.1454C17.9956 31.8133 17.73 31.4812 17.3316 31.282C16.9996 31.0827 16.6012 30.8835 16.1364 30.8171C15.738 30.7506 15.2732 30.7506 14.8748 30.8835C14.4764 31.0163 14.078 31.1492 13.746 31.4148C13.0156 31.9462 12.5508 32.7432 12.418 33.6066C12.418 34.5365 12.6172 35.3999 13.1484 36.1305Z" fill="#263238"/>
<path d="M15.4053 43.9036C15.4053 44.6342 15.6709 45.2984 16.1357 45.7633C16.6005 46.2946 17.2645 46.5603 17.9949 46.5603C18.5261 46.5603 19.0573 46.4275 19.5221 46.1618C19.9869 45.8961 20.3189 45.4312 20.5845 44.9663C20.7837 44.5013 20.8501 43.9036 20.7837 43.3722C20.7173 42.8409 20.4517 42.376 20.0533 41.9775C19.6549 41.5789 19.1901 41.3133 18.6589 41.1804C18.1277 41.0476 17.5965 41.114 17.0653 41.3133C16.5341 41.5125 16.1357 41.8446 15.8037 42.3095C15.4717 42.8409 15.3389 43.3722 15.4053 43.9036Z" fill="#263238"/>
<path d="M28.2862 41.8438L28.0206 57.7176L18.6582 55.6587L28.2862 41.8438Z" fill="#A5795B"/>
<path d="M23.7051 42.0435C24.7675 41.3129 26.0291 40.9144 27.3571 41.1136C29.2827 41.5121 31.0091 42.5084 32.2707 43.9032L30.9427 45.6965C29.8803 44.6338 28.5523 43.7703 27.1579 43.239C26.6931 43.239 26.2283 43.3054 25.8299 43.5047C25.4315 43.7039 25.0331 43.9696 24.7675 44.3017L23.7051 42.0435Z" fill="#263238"/>
<path d="M30.346 48.0881C31.4084 51.7411 35.326 57.5859 44.3564 56.2575C46.0164 55.9919 47.61 55.3941 49.0708 54.4642C50.4652 53.5344 51.6604 52.3389 52.59 50.8777C53.5196 49.4165 54.0508 47.8225 54.3164 46.162C54.5156 44.5016 54.3828 42.7747 53.918 41.1807C52.1252 36.9963 48.5396 35.3359 41.8996 35.4023C35.2596 35.4687 32.5372 36.465 30.346 39.9187C29.2172 41.712 29.4828 45.0329 30.346 48.0881Z" fill="#BA68C8"/>
<path d="M43.4262 54.3309C41.6998 54.5301 39.9734 54.3309 38.3798 53.6667C36.7862 53.0025 35.3254 52.0062 34.1966 50.6779C33.0678 49.3495 32.3374 47.7555 31.939 46.095C31.5406 44.4346 31.6734 42.6413 32.1382 40.9809C33.267 38.9883 34.5286 37.9256 38.1142 37.5936C39.1102 37.3943 40.3718 37.3943 41.8326 37.3943C48.6054 37.3279 50.7302 39.1876 51.859 41.9107C52.2574 43.2391 52.3238 44.5674 52.191 45.8958C51.9918 47.2241 51.5934 48.5525 50.863 49.6816C50.1326 50.9436 49.1366 52.0062 47.9414 52.8033C46.7462 53.6003 45.3518 54.1316 43.9574 54.2644H43.2934L43.4262 54.3309Z" fill="#263238"/>
<path d="M14.6752 51.6071C8.0352 50.478 6.5744 44.5668 6.6408 39.4527C6.7072 35.3347 10.8904 32.5452 15.472 33.0765C21.1824 33.7407 24.7016 37.3937 24.9672 40.6482C25.8968 48.6183 20.452 52.537 14.6752 51.6071Z" fill="#BA68C8"/>
<path d="M17.0652 49.6813C16.3348 49.7477 15.6044 49.6813 14.874 49.5484C10.6244 48.8843 8.49956 45.5634 8.56596 39.5193C8.69876 38.3238 9.29636 37.1947 10.1596 36.3977C11.0228 35.6007 12.218 35.1358 13.4796 35.1358C14.0108 35.0693 14.6084 35.0693 15.1396 35.1358C19.6548 35.6671 22.5764 38.4566 22.842 40.9805C23.0412 42.1096 23.0412 43.2387 22.7756 44.3014C22.51 45.3641 22.0452 46.4268 21.4476 47.3567C20.9164 48.0208 20.2524 48.5522 19.522 48.9507C18.7252 49.3492 17.9284 49.5484 17.0652 49.6813Z" fill="#263238"/>
<path d="M30.9434 12.0213C30.9434 12.0213 50.7306 44.234 67.4634 39.0534C67.4634 39.0534 76.6265 34.6698 79.0169 27.4302C81.4738 20.1243 44.7546 -14.9444 30.9434 12.0213Z" fill="#263238"/>
<path d="M33.8644 9.83086C33.8644 9.83086 20.0532 35.8667 7.57005 32.1473C7.57005 32.1473 2.05885 31.4167 0.13325 25.7047C-1.79235 19.9928 23.0413 -11.1572 33.8644 9.83086Z" fill="#263238"/>
<path d="M57.901 38.1234C57.901 38.1234 54.7802 56.8533 57.3034 61.9675C57.4362 62.2331 57.8346 62.1003 57.8346 61.8346C57.6354 58.8458 57.569 49.7466 62.549 47.5548C68.525 44.8981 66.533 35.8652 66.533 35.8652L57.901 38.1234Z" fill="#263238"/>
<path d="M60.4896 60.6406C60.4896 60.6406 60.4232 68.5444 51.9904 70.7361C51.7248 70.8026 51.6584 71.2011 51.9904 71.3339C53.7168 71.9317 58.0992 72.5959 63.2784 67.0167C63.212 66.9503 64.208 65.0906 60.4896 60.6406Z" fill="#263238"/>
<path d="M65.4703 62.4991C65.7359 63.8275 66.0015 65.2222 66.0015 67.414C66.0015 72.1961 65.0055 75.0521 64.5407 75.2514C64.0095 75.0521 63.0135 72.1961 63.0135 67.414C63.0135 63.1633 63.8103 60.3737 64.3415 59.776C64.4079 59.6431 64.4743 59.5103 64.4743 59.3775C64.4743 58.7797 63.7439 58.514 63.3455 58.979C62.0839 60.573 61.6855 64.7573 61.6855 67.4804C61.6855 70.8678 62.2831 76.6461 64.4743 76.6461C66.6655 76.6461 67.2631 70.9342 67.2631 67.4804C67.2631 65.9528 67.2631 64.226 66.9311 62.4327L65.4703 62.4991Z" fill="#E5A71C"/>
<path d="M66.4683 26.2344V38.7874C63.8123 38.7874 61.6875 33.6732 61.6875 31.0165C61.6875 28.3597 63.8787 26.2344 66.4683 26.2344Z" fill="#57C3FF"/>
<path d="M66.4683 26.2344V38.7874C63.8123 38.7874 61.6875 33.6732 61.6875 31.0165C61.6875 28.3597 63.8787 26.2344 66.4683 26.2344Z" fill="#DD4545"/>
<path d="M66.4678 38.7866C65.671 41.3105 60.1598 41.7754 57.6366 40.9784C55.1134 40.1814 53.719 37.4583 54.5822 34.9344C55.379 32.4105 58.1014 31.0157 60.6246 31.8792C63.1478 32.6098 67.331 36.2627 66.4678 38.7866Z" fill="#F75959"/>
<path d="M66.4678 38.7858C65.671 41.3097 60.1598 41.7746 57.6366 40.9776C55.1134 40.1806 53.719 37.4575 54.5822 34.9336L66.4678 38.7858Z" fill="#DD4545"/>
<path d="M65.8033 47.8199C64.2761 49.9452 61.2217 50.4102 59.0969 48.8826C56.9721 47.3549 56.5073 44.2997 58.0345 42.1743C59.5617 40.049 64.3425 37.193 66.4673 38.7206C68.6585 40.3146 67.3969 45.6945 65.8033 47.8199Z" fill="#F75959"/>
<path d="M65.8041 47.82C64.2769 49.9453 61.2225 50.4103 59.0977 48.8826L66.4681 38.7207C68.6593 40.3147 67.3977 45.6946 65.8041 47.82Z" fill="#DD4545"/>
<path d="M73.8387 48.8826C71.7139 50.4102 68.7259 49.9452 67.1323 47.8199C65.6051 45.6945 64.3435 40.3146 66.4683 38.7206C68.5931 37.193 73.3739 40.049 74.9011 42.1743C76.4283 44.2997 76.0299 47.3549 73.8387 48.8826Z" fill="#F75959"/>
<path d="M73.8391 48.8826L66.4688 38.7206C68.5935 37.193 73.3744 40.049 74.9016 42.1743C76.4288 44.2997 76.0303 47.3549 73.8391 48.8826Z" fill="#DD4545"/>
<path d="M75.365 40.912C72.8418 41.709 67.3306 41.2441 66.5338 38.7202C66.401 38.3881 66.401 37.9896 66.4674 37.6575C66.4674 37.5911 66.6002 37.5247 66.6002 37.4583C66.6002 37.3918 66.5338 37.3254 66.5338 37.259C67.1978 35.0008 70.385 32.4769 72.4434 31.7463C74.9666 30.9493 77.689 32.2777 78.4858 34.8016C79.2826 37.3254 77.8882 40.115 75.365 40.912Z" fill="#F75959"/>
<path d="M78.4188 34.8681L66.4668 38.7203C66.4004 38.4546 66.334 38.189 66.334 37.9233C66.334 37.7905 66.4668 37.5912 66.5332 37.4584C66.5996 37.3255 66.4668 37.1927 66.5332 36.9934C67.33 34.8016 70.318 32.4106 72.31 31.7464C74.8996 31.0158 77.622 32.3442 78.4188 34.8681Z" fill="#DD4545"/>
<path d="M71.316 31.0165C71.316 33.6732 69.1912 38.7874 66.5352 38.7874V26.2344C69.1248 26.2344 71.316 28.3597 71.316 31.0165Z" fill="#F75959"/>
<path d="M66.4686 39.9164C67.0921 39.9164 67.5975 39.4109 67.5975 38.7873C67.5975 38.1637 67.0921 37.6582 66.4686 37.6582C65.8452 37.6582 65.3398 38.1637 65.3398 38.7873C65.3398 39.4109 65.8452 39.9164 66.4686 39.9164Z" fill="#FFDE55"/>
</g>
<defs>
<clipPath id="clip0">
<rect width="83" height="89" fill="white"/>
</clipPath>
</defs>
</svg>
