<svg width="124" height="99" viewBox="0 0 124 99" fill="none" xmlns="http://www.w3.org/2000/svg">
<path d="M52.4131 84.2861H82.122C91.7863 84.2861 100.99 80.4409 107.842 73.6222C114.694 66.7522 118.478 57.4725 118.478 47.834C118.478 43.4761 117.609 39.1696 115.973 35.1706C114.285 31.1716 111.831 27.4803 108.814 24.4554C105.746 21.3793 102.115 18.9184 98.1269 17.2778C94.1384 15.5859 89.7921 14.7656 85.4968 14.7656C76.7017 14.7656 68.3158 18.2519 62.1285 24.5067C55.9413 30.7102 52.4131 39.1696 52.4131 47.9365C52.4131 47.834 52.4131 84.2861 52.4131 84.2861Z" fill="#936811"/>
<path d="M96.7974 69.5735C97.4621 69.0608 97.8712 68.1893 97.82 67.3177C97.82 67.3177 100.632 70.0349 105.337 65.8309C109.274 62.4472 110.604 56.6538 107.536 53.4751C106.717 52.7574 105.797 52.1934 104.723 51.8858C103.649 51.6295 102.576 51.5269 101.553 51.732C100.53 51.9371 99.5075 52.3985 98.6382 53.065C97.7689 53.7315 97.1042 54.603 96.644 55.5771C96.644 55.5771 93.8316 55.7822 91.0704 50.5528C91.0704 50.5528 91.1215 36.4026 88.0534 34.557C78.0823 28.7636 71.0258 29.0712 64.3273 29.0712C60.799 31.1219 56.5549 39.9402 56.964 58.3969C57.373 74.0852 62.333 77.8791 64.9409 79.007C67.4464 80.1862 72.4064 79.4684 77.1108 78.6481L83.7582 77.6227C85.957 77.2638 87.9512 76.4435 89.6897 75.1105L96.7974 69.5735Z" fill="#FFC0C0"/>
<path d="M74.2979 53.5761C74.2979 53.9863 74.4513 54.2939 74.6558 54.6528C74.8603 55.0117 75.1671 55.268 75.5251 55.3705C75.883 55.5244 76.2409 55.5756 76.65 55.5244C77.0591 55.4731 77.3659 55.268 77.6727 55.0117C77.9795 54.7553 78.1329 54.3964 78.184 53.9863C78.2352 53.5761 78.2352 53.2685 78.1329 52.8584C77.9795 52.4995 77.7238 52.1919 77.4682 51.9355C77.1102 51.7305 76.8034 51.5767 76.3943 51.5254C75.883 51.5254 75.3205 51.7305 75.0137 52.0381C74.5024 52.4995 74.2979 53.0122 74.2979 53.5761Z" fill="#263238"/>
<g opacity="0.5">
<g opacity="0.5">
<path opacity="0.5" d="M73.7869 67.7773L69.2871 69.2641C69.3382 69.623 69.4916 69.8794 69.6962 70.1357C69.9007 70.392 70.1564 70.5971 70.4121 70.7509C70.6677 70.9047 71.0257 71.0073 71.3325 71.0073C71.6904 71.0073 71.9972 71.0073 72.2529 70.8535C72.8665 70.6484 73.3778 70.187 73.6335 69.5717C73.8892 69.1103 73.9915 68.4438 73.7869 67.7773Z" fill="#B25656"/>
</g>
</g>
<path d="M59.2645 47.4241L63.2529 44.7069C63.0995 44.4505 62.8439 44.1942 62.5882 44.0404C62.3325 43.8353 62.0769 43.6815 61.7189 43.6302C61.361 43.579 61.1053 43.579 60.7985 43.6302C60.4406 43.6815 60.1849 43.8353 59.9292 44.0404C59.4179 44.4506 59.06 44.9632 58.9066 45.6297C58.8043 46.1937 58.9577 46.8602 59.2645 47.4241Z" fill="#263238"/>
<path d="M77.0088 46.6552L81.4574 48.3984C81.6108 48.142 81.662 47.7831 81.662 47.4755C81.662 47.1679 81.6108 46.8603 81.4574 46.5527C81.304 46.2964 81.0995 46.04 80.9461 45.7324C80.7416 45.5273 80.4348 45.3222 80.128 45.271C79.5144 45.0659 78.8496 45.0659 78.2871 45.3222C77.7758 45.5786 77.3156 46.04 77.0088 46.6552Z" fill="#936811"/>
<path d="M58.3955 53.1152C58.3955 53.5254 58.5489 53.9355 58.7534 54.1919C58.958 54.5507 59.2648 54.8071 59.6227 54.9096C59.9807 55.0634 60.3386 55.1147 60.7477 55.0634C61.1567 55.0122 61.4636 54.8071 61.7704 54.5507C62.0772 54.2944 62.2306 53.9355 62.384 53.5254C62.4351 53.1152 62.4351 52.7051 62.3328 52.3974C62.1794 52.0386 61.9238 51.7309 61.6681 51.4746C61.3101 51.2695 61.0033 51.1157 60.5943 51.0645C60.3386 51.0645 60.0829 51.0645 59.7761 51.2183C59.5205 51.2695 59.3159 51.4746 59.1114 51.6284C58.9068 51.8335 58.7534 52.0386 58.6512 52.2949C58.4978 52.6538 58.3955 52.8589 58.3955 53.1152Z" fill="#263238"/>
<g opacity="0.5">
<g opacity="0.5">
<path opacity="0.5" d="M68.3664 51.9863L68.0085 63.8807L61.8213 61.9325L68.3664 51.9863Z" fill="#B25656"/>
</g>
</g>
<path d="M90.2522 16.5093L90.968 7.84489C90.4567 7.79362 89.8431 7.79362 89.2806 7.9987C88.7693 8.1525 88.2068 8.40885 87.7466 8.71646C87.2864 9.07534 86.9285 9.53676 86.6728 10.0494C86.4171 10.5621 86.2126 11.1261 86.2126 11.6388C86.0592 12.818 86.4683 13.9971 87.2353 14.92C88.0023 15.7403 89.1272 16.3555 90.2522 16.5093Z" fill="#936811"/>
<path d="M90.7115 17.3795L97.768 12.2526C97.4101 11.7912 97.0521 11.381 96.5919 11.0734C96.1317 10.7145 95.5692 10.5607 95.0579 10.4582C94.5465 10.3044 93.9329 10.4069 93.3705 10.4582C92.8591 10.612 92.2967 10.8171 91.8364 11.1247C90.916 11.8424 90.2513 12.8678 90.0468 14.047C89.7911 15.1749 90.0468 16.3541 90.7115 17.3795Z" fill="#936811"/>
<path d="M96.6436 55.6274V63.8816C95.9277 63.8816 95.1607 63.7278 94.4959 63.4715C93.8312 63.2151 93.2176 62.805 92.7063 62.2923C92.1949 61.7796 91.7858 61.1644 91.5302 60.4979C91.2745 59.8314 91.1211 59.1136 91.1211 58.3446V50.6543L96.6436 55.6274Z" fill="#936811"/>
<path d="M74.298 16.7148C70.6164 16.7148 67.037 17.4326 63.6621 18.8681C60.2873 20.3037 57.2192 22.3544 54.6625 24.8666C52.0547 27.4813 50.0093 30.5574 48.6799 33.8899C47.2992 37.2736 46.5322 40.9137 46.5322 44.5538V48.1426H60.0827C63.1508 48.1426 66.0654 47.0147 68.4176 45.0152C70.7698 43.0157 72.2015 40.1959 72.6106 37.2224L73.1219 48.1426C75.6275 48.1426 78.0308 47.2198 79.9227 45.4766C81.7636 43.7335 82.9396 41.4264 83.0931 38.9655L83.2465 37.1711C83.5021 40.1959 84.8316 42.9645 87.0304 44.9639C89.2291 47.0147 92.0926 48.1426 95.0584 48.1426H96.2345L97.6151 28.4554L74.298 16.7148Z" fill="#936811"/>
<path d="M100.99 51.8837H85.4962C85.1383 50.3969 84.3713 49.0639 83.2463 48.1411C82.1214 47.2183 80.6385 46.6543 79.1045 46.6543H78.0818C76.8034 46.6543 75.5762 47.0644 74.5024 47.7822C73.4286 48.5 72.6616 49.5253 72.0991 50.7045C71.0764 49.6792 69.6958 49.1152 68.3152 49.0127C67.1391 48.9614 65.9119 49.269 64.9404 50.038C64.429 49.0127 63.5597 48.1924 62.5371 47.5771C61.5144 46.9619 60.3894 46.6543 59.2133 46.6543H58.1907C56.4521 46.6543 54.8158 47.3208 53.5886 48.6025C52.4125 49.7817 51.6455 51.4736 51.6455 53.2167C51.6455 54.9598 52.3103 56.6004 53.5886 57.8309C54.7647 59.0101 56.4521 59.7791 58.1907 59.7791H59.2133C60.0826 59.7791 60.9519 59.574 61.6678 59.3177C62.4859 58.9588 63.2018 58.4974 63.8154 57.9334C64.429 57.3182 64.8892 56.6004 65.196 55.7801C65.554 54.9598 65.6562 54.0883 65.6562 53.3192C65.6562 52.6015 65.5028 51.935 65.2472 51.2685C65.6562 50.9096 66.0653 50.6533 66.5766 50.4482C67.0368 50.2431 67.5993 50.2431 68.1107 50.2431C68.7754 50.2431 69.4401 50.3969 70.0538 50.7045C70.6674 51.0634 71.1787 51.4223 71.5878 51.9862C71.5366 52.3964 71.4344 52.8578 71.4344 53.3192C71.4344 55.0624 72.0991 56.703 73.3775 57.9334C74.5535 59.1126 76.241 59.8816 77.9795 59.8816H79.0022C79.8715 59.8816 80.7408 59.6766 81.4566 59.4202C82.2748 59.0613 82.9907 58.5999 83.6043 58.036C84.2179 57.4207 84.6781 56.703 84.9849 55.8827C85.3428 55.0624 85.4451 54.1908 85.4451 53.4218C85.4451 53.3705 85.4451 53.268 85.4451 53.1654H98.6377C99.4558 52.5502 100.172 52.1913 100.99 51.8837ZM59.2133 58.6512H58.1907C56.7078 58.6512 55.3783 58.036 54.4067 57.0619C53.3841 56.0365 52.8216 54.6522 52.8216 53.268C52.8216 51.7812 53.4352 50.4482 54.4067 49.4741C55.4294 48.4487 56.81 47.8847 58.1907 47.8847H59.2133C60.6962 47.8847 62.0257 48.5 62.9973 49.4741C64.0199 50.4995 64.5824 51.8837 64.5824 53.268C64.5824 54.7548 63.9688 56.0878 62.9973 57.0619C62.0768 58.0872 60.6451 58.6512 59.2133 58.6512ZM79.1045 58.6512H78.0818C76.5989 58.6512 75.2694 58.036 74.2979 57.0619C73.3263 56.0878 72.7127 54.6522 72.7127 53.268C72.7127 51.7812 73.3263 50.4482 74.2979 49.4741C75.3206 48.4487 76.7012 47.8847 78.0818 47.8847H79.1045C80.5874 47.8847 81.9169 48.5 82.8884 49.4741C83.9111 50.4995 84.4735 51.8837 84.4735 53.268C84.4735 54.7548 83.8599 56.0878 82.8884 57.0619C81.8657 58.0872 80.4851 58.6512 79.1045 58.6512Z" fill="#455A64"/>
<path d="M45.0493 52.7557C47.7082 49.4233 49.0377 45.2192 45.5095 42.3994C42.646 40.1949 37.0212 40.1436 36.2542 44.9629C35.8451 47.2187 36.7655 49.5771 37.686 51.5765L45.0493 52.7557Z" fill="#D08963"/>
<path d="M44.027 51.9872C45.9701 49.6801 46.8393 46.5527 44.3338 44.6045C42.3396 43.0152 38.3511 43.0152 37.7886 46.4502C37.533 48.0395 38.1977 49.7314 38.8113 51.1669L44.027 51.9872Z" fill="#E7B388"/>
<path d="M11.8632 69.1612C7.61912 69.2638 3.375 67.7257 3.375 63.2141C3.375 59.6252 6.74985 55.1136 11.0451 57.4207C13.0905 58.4973 14.3688 60.6506 15.3915 62.5988L11.8632 69.1612Z" fill="#D08963"/>
<path d="M11.8627 67.9827C8.84582 68.0852 5.82891 66.9573 5.82891 63.7786C5.77778 61.2152 8.23221 58.0365 11.2491 59.6258C12.6809 60.3949 13.6013 61.9329 14.3172 63.3172L11.8627 67.9827Z" fill="#E7B388"/>
<path d="M10.6866 65.9833C10.9423 63.5737 13.9592 60.6514 14.1126 60.5488C14.5728 61.2153 14.9819 61.9844 15.391 62.6508L11.8627 69.2132C11.4025 69.2132 11.0446 69.2132 10.5844 69.2132C10.4821 67.8803 10.5844 66.9574 10.6866 65.9833Z" fill="#BE7B58"/>
<path d="M46.1234 51.1662C45.7655 51.7301 45.4075 52.1916 44.9985 52.7042L37.6863 51.5251C37.3795 50.8586 37.0727 50.1408 36.8682 49.423C39.8851 48.0388 43.3622 49.6281 46.1234 51.1662Z" fill="#BE7B58"/>
<path d="M19.9942 86.9013C23.727 89.6698 28.4313 89.9262 33.1356 88.6957C34.6185 88.2855 36.1526 87.7729 37.5332 87.1576C40.6523 85.7734 43.6692 84.2866 46.5839 82.5434C48.8338 81.2105 51.2882 79.7237 52.8734 77.5704C54.8165 74.9557 55.1744 71.4181 54.3051 68.342C53.5381 65.471 52.1575 62.7537 50.7769 60.1903C48.8849 56.6527 46.635 51.8335 42.5443 50.4492C38.4536 49.0649 29.9653 52.1923 25.7212 54.3456C23.0622 55.6786 14.3695 60.703 12.3241 64.0354C10.8412 66.5476 11.148 70.3415 12.0684 72.9562C13.5513 76.9552 14.7785 81.3643 17.5398 84.6967C18.3579 85.5683 19.1249 86.2861 19.9942 86.9013Z" fill="#D08963"/>
<path opacity="0.3" d="M48.9869 59.0101C46.9416 55.0111 44.2315 50.9096 39.4249 51.166C33.9024 51.4736 29.1981 53.7294 24.1358 55.934C21.2212 57.2157 17.9997 59.0614 15.4941 60.9583C18.9201 58.1898 23.9313 55.37 25.8232 54.4472C30.1185 52.2939 38.5556 49.1665 42.6463 50.5508C46.737 51.935 48.9869 56.7543 50.8789 60.2918C52.2595 62.9065 53.589 65.6238 54.4071 68.4436C54.9185 70.4943 54.9696 72.8014 54.356 74.8522C54.6117 68.7512 51.5436 63.9832 48.9869 59.0101Z" fill="#928980"/>
<path d="M44.0779 67.4183C45.7142 70.8533 47.9641 77.4157 44.7938 80.338C35.7942 88.541 29.3513 75.9802 29.249 70.4432C29.249 67.8285 30.5785 64.2396 35.9987 63.163C39.7315 62.4452 42.4416 63.9833 44.0779 67.4183Z" fill="#E7BB95"/>
<path d="M35.1799 62.9571C34.3106 63.316 32.0096 64.1363 31.396 65.1104C30.8846 65.8794 33.2879 66.2896 34.0038 66.3408C35.1287 66.4946 35.3333 66.2383 36.4582 64.3926C37.2764 63.0596 36.5605 62.3932 35.1799 62.9571Z" fill="#4A3F3E"/>
<path d="M42.9525 75.9787C42.7479 75.7223 42.3389 75.6198 42.0321 75.8761C41.7764 76.0812 41.6741 76.4914 41.9298 76.799C42.1343 77.0553 42.1855 77.6193 42.0321 77.8756C41.9298 78.0294 41.8275 78.0807 41.7764 78.0294C41.1117 78.0294 40.7537 77.4655 40.2424 76.2863C40.1401 76.0812 40.0378 75.8761 39.8844 75.6711C39.4242 74.7482 39.0152 73.7228 38.555 72.8C38.3504 72.236 38.0436 71.6721 37.7879 71.1081C36.9187 69.2112 36.3051 67.7757 35.5381 65.93C35.4358 65.5711 34.9756 65.4173 34.7199 65.5711C34.362 65.6736 34.2086 66.1351 34.362 66.3914C35.0778 68.1858 35.7426 69.6726 36.6119 71.5696C36.8675 72.0822 37.0721 72.6462 37.3789 73.1589C37.8391 74.133 38.2482 75.1071 38.7595 76.1325C38.8618 76.3375 38.9129 76.5426 39.0152 76.7477C39.0663 76.9015 39.1686 77.1578 39.2708 77.3629C39.322 77.4655 39.322 77.5167 39.3731 77.6193C39.5776 78.0294 39.6288 78.7985 39.4242 79.0035C39.2708 79.1573 39.1174 79.2086 38.964 79.2086C38.6061 79.1573 38.2482 78.7472 38.0436 78.2858C37.8902 77.9781 37.4811 77.8243 37.1743 77.9781C36.8675 78.132 36.7141 78.5421 36.8675 78.8497C37.1743 79.5162 37.6345 80.0289 38.197 80.2852C38.3504 80.3878 38.6061 80.4903 38.8106 80.5416C39.4242 80.6441 39.9356 80.4903 40.3958 80.0802C40.6003 79.8751 40.7537 79.5675 40.856 79.2599C41.1628 79.4137 41.5207 79.4649 41.8275 79.5162C42.4411 79.4649 42.9013 79.1573 43.2082 78.5934C43.515 77.6193 43.4638 76.6452 42.9525 75.9787Z" fill="#4A3F3E"/>
<path opacity="0.3" d="M33.1355 64.7001C33.34 65.1102 33.9536 64.7001 34.2093 64.5463C34.6695 64.3412 35.1808 64.1874 35.641 63.9823C35.7944 63.931 36.5103 63.726 36.3058 63.3158C36.1524 63.0595 35.5899 63.2133 35.3854 63.2646C34.7717 63.4184 33.8002 63.726 33.2377 64.1874C33.0843 64.3925 32.9821 64.495 33.1355 64.7001Z" fill="#928980"/>
<path d="M22.9595 71.4172C23.2663 72.0837 24.1867 72.3401 24.9026 72.2375C25.7719 72.0325 26.59 71.4685 27.1525 70.9046C27.4593 70.5969 27.7149 70.2893 27.8172 69.9304C28.0218 69.2127 27.5615 68.4437 26.7945 68.3924C25.823 68.2898 24.7492 68.6487 23.931 69.264C23.3174 69.6741 22.7549 70.3406 22.9084 71.1609C22.9084 71.2122 22.9595 71.3147 22.9595 71.4172Z" fill="#F3A19D"/>
<path d="M22.7038 66.6502C23.0617 67.2654 23.6242 67.573 24.0333 67.3679C24.4423 67.1628 24.5957 66.4963 24.2378 65.8299C23.8799 65.2146 23.3174 64.907 22.9083 65.1121C22.4992 65.3172 22.397 66.0349 22.7038 66.6502Z" fill="#4A3F3E"/>
<path d="M22.6012 65.8303C22.6523 65.9841 22.8569 66.0353 23.0614 65.9841C23.2148 65.9328 23.2659 65.7277 23.2148 65.5226C23.1637 65.3688 22.9591 65.3176 22.7546 65.3688C22.6012 65.4714 22.5501 65.6764 22.6012 65.8303Z" fill="#E6E2DD"/>
<path d="M24.1352 66.7532C24.1863 66.8557 24.2885 66.907 24.3397 66.8044C24.442 66.7532 24.4931 66.6506 24.3908 66.5993C24.3397 66.4968 24.2374 66.4455 24.1863 66.5481C24.084 66.5481 24.084 66.6506 24.1352 66.7532Z" fill="#E6E2DD"/>
<path d="M40.7026 62.5989C41.0095 63.2654 41.9299 63.5217 42.6457 63.4192C43.515 63.2141 44.3332 62.6501 44.8956 62.0862C45.2024 61.7786 45.4581 61.471 45.5604 61.1121C45.7649 60.3943 45.3047 59.6253 44.5377 59.574C43.5662 59.4715 42.4923 59.8304 41.6742 60.4456C41.0606 60.8557 40.4981 61.5222 40.6515 62.3425C40.6515 62.4451 40.7026 62.4963 40.7026 62.5989Z" fill="#F3A19D"/>
<path d="M40.4977 57.8826C40.8557 58.4978 41.4181 58.8054 41.8272 58.6003C42.2363 58.3953 42.3897 57.7288 42.0318 57.0623C41.6738 56.4471 41.1113 56.1394 40.7023 56.3445C40.2932 56.5496 40.1909 57.2161 40.4977 57.8826Z" fill="#4A3F3E"/>
<path d="M40.3447 57.0622C40.3958 57.216 40.6003 57.2672 40.8049 57.216C40.9583 57.1647 41.0094 56.9596 40.9583 56.7546C40.9071 56.5495 40.7026 56.5495 40.4981 56.6007C40.3958 56.7033 40.2935 56.8571 40.3447 57.0622Z" fill="#E6E2DD"/>
<path d="M41.8779 57.9328C41.9291 58.0354 42.0313 58.0866 42.0825 57.9841C42.1847 57.9328 42.2359 57.8303 42.1336 57.779C42.0825 57.6765 41.9802 57.6252 41.9291 57.7278C41.8779 57.779 41.8779 57.8303 41.8779 57.9328Z" fill="#E6E2DD"/>
</svg>
