<svg width="288" height="427" viewBox="0 0 288 427" fill="none" xmlns="http://www.w3.org/2000/svg">
<path d="M109.047 219.166L127.78 207.127L141.444 207.965C141.444 207.965 116.055 229.44 112.617 231.734L109.047 219.166Z" fill="#FFC0C0"/>
<path d="M141.399 208.009C143.47 206.024 144.837 203.467 145.366 200.689C145.85 197.91 145.454 195 144.176 192.442C142.236 189.091 135.889 193.06 135.272 196.808C134.655 200.556 133.906 206.201 131.525 209.244L141.399 208.009Z" fill="#EDB2B2"/>
<path d="M94.0612 171.672C97.8518 171.848 100.673 172.554 103.229 180.05C105.83 187.503 111.207 216.211 109.4 219.209L97.367 214.138L94.4138 198.395C87.5819 192.574 87.9786 173.789 94.0612 171.672Z" fill="#FFC0C0"/>
<path d="M97.3652 214.139L97.6297 225.736C97.7619 231.249 103.183 235.041 108.385 233.321C109.663 232.88 111.073 232.395 112.66 231.778L113.101 222.385L109.046 218.416L97.3652 214.139Z" fill="#FFC0C0"/>
<path d="M108.607 401.777C89.3009 410.993 57.962 410.993 38.6122 401.777C19.3064 392.56 19.3064 377.611 38.6122 368.395C57.9179 359.178 89.2568 359.178 108.607 368.395C127.912 377.611 127.912 392.56 108.607 401.777Z" fill="#E6E6E6"/>
<path d="M52.9818 184.285L43.0645 218.02L53.9074 223.576L62.3702 195.442L52.9818 184.285Z" fill="#FFC0C0"/>
<path d="M64.0437 170.969C58.7985 171.542 54.2144 176.26 52.0987 183.669C49.983 191.077 47.1621 202.631 47.1621 202.631C47.1621 202.631 52.9362 208.937 60.7379 207.041L64.0437 170.969Z" fill="#58A075"/>
<path d="M50.5559 366.452V365.041C49.9829 366.717 47.2502 373.861 43.2391 377.388C40.0656 380.211 35.746 383.43 34.6 386.605C33.454 389.78 40.4623 391.147 43.4154 390.662C46.8094 390.133 51.2612 388.237 53.6854 385.326C55.4044 383.298 56.5064 380.828 57.7405 379.241C58.9747 377.609 61.7515 375.845 62.4568 373.993C62.8535 373.023 62.4568 370.686 61.9719 368.745C61.4871 366.805 61.0904 365.041 60.4733 365.173C60.4733 365.394 60.4733 366.232 60.4733 366.232C59.724 367.025 57.7405 367.775 55.4926 367.819C54.038 367.907 50.5119 367.555 50.5559 366.452Z" fill="#87610C"/>
<path d="M40.3747 379.816C41.3444 378.978 42.3582 378.14 43.2397 377.346C46.0166 374.877 48.1764 370.643 49.4546 367.733C50.1598 366.101 50.5565 364.293 50.6006 362.529L50.6888 356.841L61.135 356.355L60.518 366.277V366.498H60.4739C59.989 368.571 55.3169 373.995 52.6722 377.522C50.9091 379.904 47.5593 382.902 43.5923 383.343C39.8017 383.828 37.9064 382.638 40.3747 379.816Z" fill="#FFA8A7"/>
<path d="M101.422 368.262L101.025 366.895C100.937 368.659 100.32 376.288 97.4987 380.742C95.2508 384.314 91.989 388.679 91.7687 392.031C91.5483 395.382 98.6888 394.721 101.377 393.442C104.507 391.943 108.254 388.9 109.752 385.416C110.81 382.991 111.207 380.301 111.912 378.404C112.617 376.508 114.821 374.039 114.953 372.01C115.041 370.908 113.984 368.835 112.97 367.115C112 365.396 111.074 363.808 110.546 364.161C110.59 364.381 110.854 365.219 110.854 365.219C110.369 366.189 108.65 367.468 106.49 368.174C105.168 368.659 101.686 369.364 101.422 368.262Z" fill="#87610C"/>
<path d="M95.4263 383.961C96.1315 382.858 96.8368 381.8 97.4979 380.786C99.4814 377.611 100.363 372.936 100.76 369.805C100.98 368.041 100.848 366.189 100.363 364.469L98.8643 359.001L108.429 356.355L110.897 365.263L110.941 365.484C111.03 367.6 108.121 374.127 106.534 378.272C105.564 381.05 103.14 384.887 99.4814 386.43C95.9993 387.974 93.8395 387.356 95.4263 383.961Z" fill="#FFA8A7"/>
<path d="M96.0444 222.96C101.554 230.06 102.568 237.38 101.378 258.106C100.188 278.832 99.7909 296.162 100.099 297.353C100.408 298.5 104.904 308.025 106.535 315.742C108.474 324.738 108.959 358.12 108.959 358.12C107.725 359.355 106.182 360.237 104.507 360.678C102.832 361.119 101.025 361.119 99.3501 360.678C99.3501 360.678 83.3501 306.878 81.8074 302.248C80.2647 297.618 70.4355 248.449 70.4355 248.449L71.9342 220.711L96.0444 222.96Z" fill="#9782A0"/>
<path d="M53.8625 246.816C54.7 237.247 56.7716 220.666 56.7716 220.666L81.2344 219.211C85.2014 225.385 83.4824 235.659 82.3805 244.964L68.408 299.778C68.7165 302.38 71.0967 307.98 68.408 322.091C65.4548 337.834 61.2234 358.604 61.2234 358.604C61.2234 358.604 55.9783 361.03 50.689 358.825C50.689 358.825 48.7055 308.906 49.9397 295.28C51.3502 280.463 53.2895 253.343 53.8625 246.816Z" fill="#9782A0"/>
<path d="M74.6678 270.056L70.7008 249.947C67.1746 248.669 63.8248 246.993 60.6953 244.832C62.6788 247.346 65.0149 249.506 67.7036 251.27L74.6678 270.056Z" fill="#263238"/>
<path d="M53.9062 167.925H73.6087C79.9999 167.925 86.1266 165.367 90.6666 160.869C95.2065 156.327 97.7189 150.198 97.7189 143.803C97.7189 140.937 97.1459 138.071 96.044 135.425C94.9421 132.779 93.3112 130.354 91.2837 128.325C89.2561 126.297 86.8319 124.665 84.1872 123.562C81.5426 122.46 78.6776 121.887 75.8126 121.887C69.9944 121.887 64.4407 124.18 60.3415 128.325C56.2423 132.426 53.9062 138.027 53.9062 143.803C53.9063 143.803 53.9062 167.925 53.9062 167.925Z" fill="#936811"/>
<path d="M58.2695 205.098C57.6524 210.699 39.0078 276.978 39.0078 276.978C57.4321 286.812 107.68 297.748 111.162 293.691C107.989 283.24 108.253 226.883 91.0188 211.404L94.3246 198.351C94.3246 198.351 86.0822 186.577 94.0161 171.628L84.2309 170.834L69.8618 170.438C66.4238 170.614 63.9995 170.967 63.9995 170.967C61.7957 173.039 59.8122 176.347 58.8425 182.52C57.4321 186.225 57.3439 197.999 58.2695 205.098Z" fill="#84BC9B"/>
<path d="M94.0612 171.674C98.3808 171.409 100.981 172.512 104.111 179.435C107.24 186.402 109.753 203.336 109.753 203.336C109.753 203.336 107.108 208.716 94.0612 207.173L92.0778 195.398C92.0778 195.443 86.3037 183.183 94.0612 171.674Z" fill="#58A075"/>
<path d="M92.6933 204.967C92.517 205.628 88.1974 211.317 86.0817 212.684C83.966 214.051 89.8283 215.903 90.6657 219.255C92.3407 226.001 87.4922 233.278 70.9633 233.719C67.0845 233.807 66.9082 234.645 68.9357 235.835C83.6134 238.261 97.5418 233.719 100.23 230.632C97.0569 220.181 93.663 214.227 91.0184 211.449L92.6933 204.967Z" fill="#5E9976"/>
<path d="M61.7517 131.455C59.4156 132.823 56.5946 138.643 56.8591 150.859C57.1236 161.222 60.4293 163.735 62.1483 164.485C63.8233 165.279 67.085 164.793 70.2145 164.264V170.482C70.3026 171.144 70.523 171.761 70.8756 172.334C71.2282 172.908 71.669 173.393 72.1979 173.789C74.7544 175.421 77.7957 174.76 79.5147 174.186C83.3054 172.819 84.0547 170.967 84.0547 170.967L83.9665 156.679C83.9665 156.679 85.8178 158.487 88.9472 155.709C91.5478 153.46 92.4293 149.624 90.4018 147.551C89.8729 147.066 89.2558 146.713 88.5505 146.493C87.8453 146.316 87.1401 146.272 86.4349 146.405C85.7296 146.537 85.0685 146.846 84.4955 147.287C83.9225 147.728 83.4817 148.301 83.1731 148.962C83.1731 148.962 81.3219 149.095 79.4707 145.655C79.4707 145.655 79.5147 136.306 77.4872 135.071C70.8756 131.235 66.2034 131.455 61.7517 131.455Z" fill="#FFC0C0"/>
<path d="M68.4082 147.596C68.4082 147.86 68.4964 148.081 68.6286 148.301C68.7608 148.522 68.9812 148.698 69.2016 148.786C69.422 148.874 69.6864 148.919 69.9509 148.874C70.2154 148.83 70.4357 148.698 70.6121 148.522C70.7884 148.345 70.9206 148.125 70.9647 147.86C71.0087 147.596 71.0087 147.375 70.9206 147.11C70.8324 146.89 70.6561 146.67 70.4798 146.493C70.2594 146.361 70.0391 146.273 69.7746 146.229C69.422 146.229 69.0694 146.361 68.849 146.581C68.5404 146.89 68.4082 147.243 68.4082 147.596Z" fill="#263238"/>
<g opacity="0.5">
<g opacity="0.5">
<path opacity="0.5" d="M68.0558 156.988L65.0586 157.958C65.1027 158.179 65.1908 158.355 65.3231 158.532C65.4553 158.708 65.6316 158.84 65.8079 158.929C65.9842 159.017 66.2046 159.105 66.425 159.105C66.6454 159.105 66.8658 159.105 67.0421 159.017C67.4388 158.885 67.7914 158.576 67.9677 158.179C68.144 157.87 68.1881 157.429 68.0558 156.988Z" fill="#B25656"/>
</g>
</g>
<path d="M58.4456 143.539L61.0902 141.731C61.002 141.554 60.8257 141.378 60.6494 141.29C60.4731 141.158 60.2968 141.069 60.0764 141.025C59.856 140.981 59.6797 140.981 59.4593 141.025C59.239 141.069 59.0627 141.158 58.8863 141.29C58.5337 141.554 58.3133 141.907 58.2252 142.348C58.137 142.701 58.2252 143.142 58.4456 143.539Z" fill="#263238"/>
<path d="M70.2148 143.009L73.168 144.155C73.2562 143.979 73.3002 143.758 73.3002 143.538C73.3002 143.317 73.2562 143.141 73.168 142.92C73.0799 142.744 72.9476 142.568 72.8154 142.391C72.6832 142.259 72.4628 142.127 72.2865 142.083C71.8898 141.95 71.449 141.95 71.0523 142.127C70.6997 142.303 70.3912 142.612 70.2148 143.009Z" fill="#936811"/>
<path d="M57.873 147.287C57.873 147.552 57.9612 147.816 58.0934 147.993C58.2257 148.213 58.4461 148.389 58.6664 148.478C58.8868 148.566 59.1513 148.61 59.4157 148.566C59.6802 148.522 59.9006 148.389 60.0769 148.213C60.2532 148.037 60.3854 147.816 60.4736 147.552C60.5177 147.287 60.5177 147.022 60.4295 146.802C60.3414 146.581 60.1651 146.361 59.9888 146.185C59.7684 146.052 59.548 145.964 59.2835 145.92C59.1072 145.92 58.9309 145.92 58.7546 146.008C58.5783 146.052 58.446 146.185 58.3138 146.273C58.1816 146.405 58.0934 146.537 58.0053 146.714C57.9171 146.978 57.873 147.111 57.873 147.287Z" fill="#263238"/>
<g opacity="0.5">
<g opacity="0.5">
<path opacity="0.5" d="M64.4856 146.537L64.2652 154.387L60.166 153.108L64.4856 146.537Z" fill="#B25656"/>
</g>
</g>
<g opacity="0.5">
<g opacity="0.5">
<path opacity="0.5" d="M70.2148 164.264C73.5206 163.823 80.3967 161.838 81.4545 159.148C81.0137 160.515 80.1763 161.706 79.0743 162.588C77.0468 164.352 70.2589 166.336 70.2589 166.336V164.264H70.2148Z" fill="#B25656"/>
</g>
</g>
<path d="M78.9856 123.077L79.4705 117.345C79.1179 117.301 78.7212 117.301 78.3686 117.433C78.016 117.521 77.6633 117.698 77.3548 117.918C77.0463 118.138 76.8259 118.447 76.6496 118.8C76.4732 119.153 76.341 119.506 76.341 119.858C76.2529 120.652 76.5173 121.402 77.0022 122.019C77.487 122.592 78.2363 122.989 78.9856 123.077Z" fill="#936811"/>
<path d="M79.2954 123.651L83.9676 120.255C83.7472 119.947 83.4828 119.682 83.1742 119.461C82.8657 119.241 82.5131 119.109 82.1605 119.065C81.8078 118.976 81.4111 119.02 81.0585 119.065C80.7059 119.153 80.3533 119.285 80.0448 119.506C79.4277 119.991 78.9869 120.652 78.8547 121.446C78.6784 122.196 78.8547 122.989 79.2954 123.651Z" fill="#936811"/>
<path d="M83.217 148.962V154.431C82.7321 154.431 82.2473 154.342 81.8065 154.166C81.3658 153.99 80.9691 153.725 80.6164 153.372C80.2638 153.019 79.9994 152.623 79.8231 152.182C79.6468 151.741 79.5586 151.256 79.5586 150.77V145.699L83.217 148.962Z" fill="#936811"/>
<path d="M68.4075 123.209C65.9833 123.209 63.6031 123.694 61.3552 124.62C59.1072 125.546 57.0797 126.913 55.4048 128.589C53.6857 130.309 52.3194 132.337 51.4378 134.542C50.5122 136.791 50.0273 139.172 50.0273 141.598V143.979H59.0191C61.0466 143.979 62.986 143.229 64.5287 141.907C66.0714 140.584 67.0411 138.731 67.3056 136.747L67.6582 143.979C69.3331 143.979 70.9199 143.362 72.1541 142.215C73.3882 141.069 74.1375 139.525 74.2698 137.894L74.3579 136.703C74.5342 138.687 75.4158 140.539 76.8703 141.862C78.3249 143.229 80.2202 143.979 82.2037 143.979H82.997L83.9227 130.97L68.4075 123.209Z" fill="#936811"/>
<path d="M86.083 146.492H75.8131C75.5927 145.522 75.0638 144.64 74.3144 144.023C73.5651 143.406 72.5954 143.053 71.5817 143.053H70.9205C70.083 143.053 69.2456 143.317 68.5403 143.802C67.8351 144.287 67.3062 144.949 66.9536 145.743C66.2924 145.081 65.3668 144.684 64.4412 144.64C63.6478 144.596 62.8544 144.817 62.1932 145.302C61.8406 144.64 61.2676 144.067 60.6064 143.67C59.9453 143.273 59.196 143.053 58.4026 143.053H57.7414C56.5954 143.053 55.4935 143.494 54.7001 144.332C53.9067 145.125 53.4219 146.228 53.4219 147.374C53.4219 148.521 53.8626 149.623 54.7001 150.417C55.4935 151.211 56.5954 151.696 57.7414 151.696H58.4026C58.9756 151.696 59.5486 151.564 60.0334 151.387C60.5624 151.167 61.0472 150.858 61.4439 150.461C61.8406 150.064 62.1491 149.579 62.3695 149.05C62.5899 148.521 62.6781 147.948 62.6781 147.418C62.6781 146.933 62.5899 146.492 62.4136 146.051C62.6781 145.831 62.9425 145.655 63.2952 145.522C63.6037 145.39 63.9563 145.39 64.3089 145.39C64.7497 145.39 65.1905 145.478 65.5872 145.699C65.9839 145.919 66.3365 146.184 66.6009 146.536C66.5569 146.801 66.5128 147.11 66.5128 147.418C66.5128 148.565 66.9536 149.667 67.791 150.461C68.5844 151.255 69.6863 151.74 70.8323 151.74H71.4935C72.0665 151.74 72.6395 151.608 73.1244 151.431C73.6533 151.211 74.1381 150.902 74.5348 150.505C74.9315 150.108 75.2401 149.623 75.4604 149.094C75.6808 148.565 75.769 147.992 75.769 147.463C75.769 147.418 75.769 147.374 75.769 147.286H84.4963C85.0693 146.933 85.5541 146.669 86.083 146.492ZM58.4026 150.946H57.7414C56.7717 150.946 55.8902 150.549 55.229 149.888C54.5679 149.226 54.1712 148.3 54.1712 147.374C54.1712 146.404 54.5679 145.522 55.229 144.861C55.8902 144.199 56.8158 143.802 57.7414 143.802H58.4026C59.3723 143.802 60.2538 144.199 60.915 144.861C61.5761 145.522 61.9728 146.448 61.9728 147.374C61.9728 148.344 61.5761 149.226 60.915 149.888C60.2979 150.593 59.3723 150.946 58.4026 150.946ZM71.5817 150.946H70.9205C69.9508 150.946 69.0693 150.549 68.4081 149.888C67.7469 149.226 67.3503 148.3 67.3503 147.374C67.3503 146.404 67.7469 145.522 68.4081 144.861C69.0693 144.199 69.9949 143.802 70.9205 143.802H71.5817C72.5513 143.802 73.4329 144.199 74.0941 144.861C74.7552 145.522 75.1519 146.448 75.1519 147.374C75.1519 148.344 74.7552 149.226 74.0941 149.888C73.4329 150.593 72.5073 150.946 71.5817 150.946Z" fill="#455A64"/>
<path d="M39.582 213.126C41.0366 211.538 42.1385 209.863 42.7997 207.79C43.4608 205.718 43.6371 202.675 45.3561 201.087C46.5462 199.985 49.3231 200.646 49.5435 202.587C49.852 205.321 47.9126 208.408 46.2818 210.216C44.4746 212.2 42.6233 214.008 39.7583 213.391L39.582 213.126Z" fill="#BE7B58"/>
<path d="M73.8729 221.638C76.3412 219.521 77.6194 216.522 75.2834 214.45C73.8729 213.215 70.6993 214.229 70.4789 216.478C70.3026 218.286 67.9665 219.653 64.9693 220.006C63.8233 220.138 62.501 220.271 61.5313 220.844C60.2971 221.505 61.4431 224.813 62.6332 225.21C63.7792 225.606 65.8068 225.386 67.3495 225.077C69.8619 224.46 71.4486 223.71 73.8729 221.638Z" fill="#D08963"/>
<path d="M61.4429 220.8C62.4126 220.271 63.7349 220.094 64.8809 219.962C65.3657 219.918 65.8506 219.83 66.2913 219.697C66.8203 221.549 66.5558 223.49 65.7624 225.254C64.5723 225.386 63.3382 225.43 62.5448 225.165C61.3988 224.768 60.2528 221.461 61.4429 220.8Z" fill="#BE7B58"/>
<path opacity="0.3" d="M72.3309 215.023C71.1408 215.949 70.9204 217.757 69.6422 218.551C68.981 218.992 68.2317 219.212 67.4824 219.388C69.1574 218.771 70.2593 217.713 70.3915 216.478C70.6119 214.273 73.7855 213.215 75.1959 214.449C75.4163 214.67 75.6367 214.89 75.813 215.111C74.8433 214.361 73.4769 214.141 72.3309 215.023Z" fill="#928980"/>
<path d="M48.1755 235.263C47.6907 235.836 47.9551 236.63 48.8367 236.409C48.3959 237.776 49.8505 239.32 50.9524 237.864C51.9662 239.055 53.2444 237.776 53.6852 236.718C54.3463 235.042 53.2885 233.587 51.878 233.543C50.3794 233.499 49.013 234.248 48.1755 235.263Z" fill="#D08963"/>
<path d="M33.4551 218.507C36.8049 224.372 41.5212 229.355 47.5598 233.191C51.6589 235.793 56.1548 236.455 59.8132 233.147C61.8848 231.295 64.0005 228.561 64.9262 226.003C66.557 221.55 65.4992 218.286 63.2071 215.817C59.4606 211.892 53.8187 211.892 48.7498 212.157C47.1631 212.245 42.4909 212.333 40.816 211.319C38.6562 210.084 33.4551 218.507 33.4551 218.507Z" fill="#D08963"/>
<path d="M35.0859 221.153C34.9537 221.021 34.6452 220.492 34.5129 220.271C34.1603 219.698 33.8077 219.125 33.4551 218.551C33.4551 218.551 38.6562 210.129 40.816 211.408C41.1245 211.584 41.5653 211.76 42.0501 211.849C40.9041 215.685 38.0391 218.596 35.0859 221.153Z" fill="#BE7B58"/>
<path d="M42.8866 229.178C45.7516 230.765 49.0133 231.559 52.2309 232.176C55.8452 232.882 57.6965 232.088 61.2226 229.574C63.7791 227.766 65.0573 222.607 65.41 219.652C66.0711 221.857 65.5422 224.327 64.9251 226.002C63.9995 228.56 61.8397 231.294 59.8122 233.146C56.1538 236.454 51.6579 235.792 47.5587 233.19C44.9141 231.471 42.4899 229.574 40.3301 227.458C41.1675 228.075 42.005 228.648 42.8866 229.178Z" fill="#BE7B58"/>
<path d="M60.7827 224.151C62.1932 221.241 61.8847 217.448 59.196 215.773C58.05 215.067 56.7276 214.45 55.3613 214.229C51.3062 213.568 49.1464 213.832 45.2235 214.273C43.769 214.406 41.1684 215.244 40.5513 217.184C40.1546 218.551 41.6533 220.403 42.8874 221.638C42.8874 221.638 55.8461 234.294 60.7827 224.151Z" fill="#E7B388"/>
<path opacity="0.3" d="M56.3309 213.126C59.7689 213.611 62.105 215.287 64.5292 217.58C64.1325 216.962 63.6918 216.345 63.1628 215.816C59.4163 211.891 53.7744 211.891 48.7055 212.156C47.6918 212.2 45.3116 212.288 43.3281 212.023C49.2345 212.905 51.9672 212.509 56.3309 213.126Z" fill="#928980"/>
<path d="M30.6789 194.649C31.2078 191.827 30.6348 188.917 27.6817 188.387C25.3015 187.99 21.9516 189.754 23.0095 192.841C23.4943 194.296 24.7726 195.399 25.9627 196.281L30.6789 194.649Z" fill="#D08963"/>
<path d="M29.84 194.517C30.2367 192.533 29.7959 190.416 27.6802 190.063C26.0053 189.755 23.6251 191.033 24.3744 193.238C24.727 194.253 25.6526 195.046 26.4901 195.708L29.84 194.517Z" fill="#E7B388"/>
<path d="M16.2642 214.891C13.7959 216.302 10.7986 216.743 9.3441 214.097C8.1981 211.981 8.7711 208.232 12.0328 208.232C13.5755 208.232 15.0301 209.07 16.2642 209.908V214.891Z" fill="#D08963"/>
<path d="M15.8679 214.184C14.1048 215.199 11.9891 215.507 10.9753 213.611C10.1379 212.112 10.5786 209.466 12.8707 209.422C13.9726 209.422 14.9864 210.039 15.8679 210.613V214.184Z" fill="#E7B388"/>
<path d="M14.5446 213.39C13.9276 211.891 14.8091 209.201 14.8532 209.068C15.338 209.333 15.8229 209.642 16.2637 209.906V214.933C15.9992 215.066 15.7788 215.198 15.5143 215.33C15.0295 214.581 14.8091 214.007 14.5446 213.39Z" fill="#BE7B58"/>
<path d="M30.81 193.371C30.766 193.812 30.7219 194.209 30.6337 194.65L25.9175 196.281C25.5208 195.973 25.1241 195.664 24.7715 195.311C26.1379 193.503 28.6943 193.327 30.81 193.371Z" fill="#BE7B58"/>
<path d="M26.7111 222.784C29.7965 223.225 32.6615 221.902 35.0417 219.653C35.791 218.948 36.5403 218.154 37.1574 217.36C38.5679 215.552 39.8902 213.7 41.0362 211.76C41.9618 210.26 42.9315 208.585 43.196 206.821C43.5045 204.66 42.623 202.455 41.1244 200.912C39.758 199.456 38.083 198.31 36.4522 197.208C34.2042 195.708 31.3392 193.591 28.4742 194.077C25.6092 194.562 21.5982 199.104 19.7469 201.75C18.6009 203.381 15.0307 209.114 14.8985 211.716C14.8103 213.656 16.2208 215.817 17.5872 217.052C19.7469 218.948 21.8626 221.153 24.5514 222.255C25.3007 222.52 26.0059 222.696 26.7111 222.784Z" fill="#D08963"/>
<path opacity="0.3" d="M34.9969 197.075C32.5286 195.355 29.6195 193.812 26.8427 195.488C23.6691 197.428 21.5975 200.25 19.3055 203.161C17.9832 204.836 16.6608 206.953 15.7793 208.893C16.9253 206.159 18.9969 202.896 19.8344 201.75C21.6856 199.104 25.6967 194.562 28.5617 194.077C31.4267 193.591 34.2917 195.708 36.5396 197.208C38.1705 198.31 39.8454 199.501 41.2118 200.912C42.1815 201.97 42.9308 203.293 43.1953 204.704C41.4322 201.044 38.0823 199.192 34.9969 197.075Z" fill="#928980"/>
<path d="M34.776 203.601C36.8476 205.1 40.2416 208.275 39.316 211.009C36.5832 218.726 28.7815 213.346 26.9744 210.127C26.1369 208.584 25.7843 206.026 28.6493 203.689C30.6328 202.057 32.7044 202.101 34.776 203.601Z" fill="#E7BB95"/>
<path d="M28.0768 203.821C27.6801 204.307 26.5782 205.541 26.5341 206.291C26.4901 206.908 28.0328 206.379 28.4735 206.203C29.1788 205.938 29.2228 205.718 29.311 204.262C29.3551 203.204 28.738 203.028 28.0768 203.821Z" fill="#4A3F3E"/>
<path d="M36.8036 209.024C36.5832 208.936 36.3188 209.024 36.2306 209.245C36.1425 209.465 36.2306 209.73 36.451 209.818C36.6714 209.906 36.8477 210.215 36.8477 210.435C36.8477 210.568 36.8036 210.612 36.7595 210.612C36.3628 210.832 35.9662 210.612 35.305 210.082C35.1728 209.994 35.0405 209.906 34.9083 209.818C34.3353 209.421 33.7623 208.936 33.1893 208.539C32.8808 208.274 32.5281 208.054 32.2196 207.789C31.1177 206.951 30.2802 206.29 29.2664 205.452C29.0901 205.276 28.7816 205.32 28.6493 205.496C28.473 205.673 28.5171 205.981 28.6934 206.114C29.7072 206.951 30.5447 207.613 31.6466 208.451C31.9551 208.671 32.2637 208.936 32.6163 209.156C33.1893 209.597 33.7623 210.038 34.3794 210.479C34.5116 210.568 34.5998 210.656 34.732 210.744C34.8201 210.832 34.9524 210.92 35.0846 211.008C35.1287 211.053 35.1728 211.097 35.2168 211.141C35.4813 211.317 35.7458 211.758 35.7017 211.935C35.6576 212.067 35.5695 212.155 35.4813 212.199C35.2609 212.287 34.9083 212.155 34.6438 211.935C34.4675 211.802 34.159 211.846 34.0268 212.023C33.8945 212.199 33.9386 212.508 34.1149 212.64C34.5116 212.949 34.9524 213.081 35.3491 213.081C35.4813 213.081 35.6576 213.081 35.7898 213.037C36.1865 212.905 36.451 212.64 36.5832 212.243C36.6273 212.067 36.6273 211.846 36.5832 211.626C36.8036 211.626 37.024 211.538 37.2444 211.449C37.597 211.229 37.7733 210.876 37.7733 210.479C37.6852 209.818 37.3325 209.245 36.8036 209.024Z" fill="#4A3F3E"/>
<path opacity="0.3" d="M27.4154 205.497C27.6799 205.673 27.9003 205.232 27.9884 205.056C28.2088 204.791 28.4292 204.527 28.6496 204.262C28.7377 204.174 29.0904 203.821 28.8259 203.645C28.6496 203.557 28.3851 203.821 28.2529 203.909C27.9444 204.174 27.4595 204.703 27.2832 205.144C27.2832 205.32 27.2832 205.409 27.4154 205.497Z" fill="#928980"/>
<path d="M23.5363 212.684C23.933 212.993 24.5501 212.861 24.9468 212.552C25.3875 212.155 25.6961 211.582 25.8724 211.053C25.9605 210.788 26.0046 210.524 25.9605 210.259C25.8724 209.774 25.3434 209.465 24.8586 209.686C24.2415 209.95 23.7126 210.48 23.4481 211.097C23.2277 211.538 23.0955 212.111 23.4481 212.552C23.4481 212.596 23.4922 212.64 23.5363 212.684Z" fill="#F3A19D"/>
<path d="M21.8612 209.952C22.2579 210.216 22.6987 210.216 22.875 209.952C23.0513 209.687 22.9191 209.246 22.5224 208.982C22.1257 208.717 21.6849 208.717 21.5086 208.982C21.3323 209.246 21.5086 209.687 21.8612 209.952Z" fill="#4A3F3E"/>
<path d="M21.5531 209.512C21.6412 209.6 21.7735 209.556 21.8616 209.468C21.9498 209.38 21.9057 209.248 21.8175 209.159C21.7294 209.071 21.5971 209.115 21.509 209.204C21.4208 209.292 21.4649 209.424 21.5531 209.512Z" fill="#E6E2DD"/>
<path d="M22.742 209.555C22.7861 209.599 22.8743 209.599 22.8743 209.511C22.9183 209.467 22.9183 209.379 22.8302 209.379C22.7861 209.334 22.6979 209.334 22.6979 209.423C22.6539 209.467 22.6979 209.511 22.742 209.555Z" fill="#E6E2DD"/>
<path d="M31.2511 201.837C31.6478 202.145 32.2649 202.013 32.6616 201.704C33.1024 201.308 33.4109 200.734 33.5872 200.205C33.6754 199.941 33.7195 199.676 33.6754 199.411C33.5872 198.926 33.0583 198.618 32.5734 198.838C31.9564 199.103 31.4274 199.632 31.163 200.249C30.9426 200.69 30.8104 201.263 31.163 201.704C31.163 201.749 31.2071 201.793 31.2511 201.837Z" fill="#F3A19D"/>
<path d="M29.6206 199.102C30.0173 199.367 30.4581 199.367 30.6344 199.102C30.8107 198.838 30.6785 198.397 30.2818 198.132C29.8851 197.867 29.4443 197.867 29.268 198.132C29.0917 198.397 29.2239 198.838 29.6206 199.102Z" fill="#4A3F3E"/>
<path d="M29.2683 198.663C29.3565 198.751 29.4887 198.707 29.5769 198.618C29.665 198.53 29.621 198.398 29.5328 198.31C29.4446 198.222 29.3124 198.266 29.2243 198.354C29.1802 198.442 29.1802 198.574 29.2683 198.663Z" fill="#E6E2DD"/>
<path d="M30.4581 198.705C30.5022 198.749 30.5904 198.749 30.5904 198.661C30.6344 198.617 30.6344 198.529 30.5463 198.529C30.5022 198.485 30.4141 198.485 30.4141 198.573C30.4141 198.617 30.4141 198.661 30.4581 198.705Z" fill="#E6E2DD"/>
<path d="M69.5525 235.086C72.7701 234.513 75.4147 232.617 74.445 229.618C73.872 227.81 70.6103 227.105 69.288 228.868C68.1861 230.324 65.4974 230.324 62.7646 229.045C61.7067 228.56 60.4726 228.031 59.3707 227.987C57.9602 227.942 57.255 231.382 58.0483 232.308C58.8417 233.234 60.6489 234.072 62.1475 234.601C64.6599 235.439 66.423 235.615 69.5525 235.086Z" fill="#D08963"/>
<path d="M67.0859 229.928C67.5708 229.884 68.0556 229.752 68.4523 229.531C68.3642 229.84 68.3201 230.149 68.3201 230.501C68.3201 231.295 68.6727 232.221 69.0694 232.839C69.2457 233.103 69.3779 233.412 69.5983 233.588C69.6865 233.676 69.8187 233.721 69.8628 233.853C69.9509 234.029 69.6424 234.029 69.5543 233.985C69.2898 233.853 69.1135 233.676 68.9372 233.456C68.849 233.368 68.8049 233.28 68.7168 233.191C68.1879 232.618 67.7471 231.957 67.4386 231.251C67.2182 230.854 67.13 230.413 67.0859 229.928Z" fill="#BE7B58"/>
<path d="M38.4783 218.859C38.6547 217.756 39.8007 217.227 40.55 216.521C41.4315 215.684 42.4453 214.405 43.0183 213.346C44.4288 210.789 44.0761 207.79 46.1478 206.247C47.6023 205.188 50.5996 206.247 50.5996 208.496C50.5996 211.538 48.0431 214.713 46.0155 216.521C44.4728 217.889 41.4756 220.887 39.1836 219.829C38.7869 219.652 38.4343 219.167 38.4783 218.859Z" fill="#CA825E"/>
<path d="M37.6862 221.062C36.7606 221.812 36.4961 224.193 37.0691 226.707C37.6421 229.221 39.7578 233.189 42.7991 234.38C44.2096 234.953 50.2481 235.13 53.2013 231.955C56.2867 228.647 56.0222 222.915 51.6145 223.929C47.3831 224.723 43.0636 224.943 38.744 224.59C38.2592 223.488 37.9066 222.297 37.6862 221.062Z" fill="#FFC0C0"/>
<path d="M158.546 162.369L158.237 161.179L174.722 130.663L158.722 125.062L154.006 146.715C150.303 151.654 138.05 175.51 133.51 184.374C132.761 185.873 132.011 187.285 131.174 188.696C130.116 190.504 129.19 192.4 128.353 194.296C126.369 198.882 124.21 205.762 127.912 211.362C131.615 217.007 135.846 212.244 136.199 207.922C136.507 203.601 139.989 198.397 141.444 197.868C143.163 198.265 144.794 199.103 146.116 200.161C146.116 200.161 147.13 198.618 144.794 196.325C142.414 194.032 141.356 190.636 142.766 187.814C144.221 184.992 158.546 162.369 158.546 162.369Z" fill="#FFC0C0"/>
<path d="M185.522 420.561C221.577 420.561 250.844 406.582 250.844 389.428C250.844 372.274 221.621 358.295 185.522 358.295C149.466 358.295 120.199 372.274 120.199 389.428C120.199 406.582 149.466 420.561 185.522 420.561Z" fill="#E6E6E6"/>
<path d="M233.653 363.896H220.033V383.785H233.653V363.896Z" fill="#FFA8A7"/>
<path d="M219.988 377.038V375.142C218.709 375.715 215.668 387.269 210.247 392.208C205.927 396.132 200.109 400.63 198.61 404.996C197.112 409.362 206.721 412.096 210.776 411.346C215.448 410.552 223.514 407.201 225.541 404.202C227.569 401.204 228.495 396.617 230.17 394.413C231.844 392.208 235.591 389.694 236.517 387.092C237.001 385.725 236.473 382.55 235.723 379.948C235.106 377.567 234.445 374.921 233.563 375.142V376.641C232.594 377.744 229.861 378.802 226.776 378.978C224.836 378.934 219.988 378.581 219.988 377.038Z" fill="#283135"/>
<path d="M173.62 368.57L160 369.099L161.19 349.035L174.81 348.594L173.62 368.57Z" fill="#FFA8A7"/>
<path d="M160.264 364.821C159.515 364.821 159.03 365.88 157.488 367.6C155.151 369.937 152.463 371.921 149.51 373.376C144.397 375.978 134.479 379.859 129.983 381.887C127.207 383.166 127.295 386.562 130.248 388.458C133.157 390.354 140.165 391.765 148.54 389.825C153.08 388.767 159.074 384.577 162.821 384.842C166.567 385.107 173.664 385.018 176.441 383.078C179.218 381.182 178.116 377.037 177.322 373.553C176.441 369.716 175.251 363.719 173.928 363.94L173.884 365.527C172.209 367.997 163.835 368.482 160.22 366.718L160.264 364.821Z" fill="#283135"/>
<path d="M260.893 160.781C260.584 156.636 253.576 137.894 250.138 130.133L232.463 138.423L239.251 153.857L257.543 167.969C262.259 167.307 261.025 162.545 260.893 160.781Z" fill="#FFC0C0"/>
<path d="M226.335 172.025C226.335 185.034 228.01 269.173 228.01 269.173C228.319 272.921 233.123 285.225 233.564 302.599C234.137 322.135 234.666 366.188 234.666 366.188C234.666 366.188 228.275 372.539 219.283 366.188C219.283 366.188 204.473 301.85 199.845 277.419C197.685 260.574 192.396 212.11 192.396 212.11L181.333 267.277C182.302 273.759 182.743 280.33 182.699 286.856C182.699 295.852 174.897 354.062 174.897 354.062C174.897 354.062 167.228 358.736 159.823 354.326C159.823 354.326 155.371 275.479 155.283 267.277C155.151 257.223 162.556 172.025 162.556 172.025H226.335Z" fill="#0D6682"/>
<path d="M192.486 212.155L190.899 200.38C190.899 200.38 180.629 195.662 177.059 192.311C177.059 192.311 183.538 200.866 187.593 203.203L182.612 261.544L192.486 212.155Z" fill="#0D5363"/>
<path d="M174.767 87.4456C171.638 84.006 165.952 84.6233 163.704 88.6804C160.266 94.7218 157.048 105.438 157.048 112.758C157.048 122.9 157.004 128.589 157.004 128.589C163.792 132.029 172.122 132.47 179.704 131.808L183.847 106.187C183.759 106.187 181.114 94.4131 174.767 87.4456Z" fill="#A574A8"/>
<path d="M205.841 81.9784C218.006 84.933 233.521 89.8719 238.987 101.117C244.452 112.362 252.827 130.618 252.827 130.618C247.185 136.175 240.221 140.276 232.64 142.569L226.425 131.721L230.171 202.63C220.651 213.037 179.35 215.022 158.502 199.808L162.733 105.747C162.733 95.1637 168.64 82.4194 184.816 81.4492L205.841 81.9784Z" fill="#D39CD3"/>
<path d="M226.336 131.72C226.336 131.72 220.253 121.137 218.887 118.535L226.336 144.156V131.72Z" fill="#AE7EAF"/>
<path d="M210.469 27.6929C211.571 27.5606 212.673 27.6929 213.73 28.0457C214.788 28.3985 215.714 29.0158 216.507 29.7655C219.108 32.4114 218.535 37.2621 216.507 48.463L208.529 49.3891L210.469 27.6929Z" fill="#263238"/>
<path d="M164.011 24.4311C162.292 24.4311 160.617 24.1224 159.03 23.461C156.562 22.0939 155.945 24.828 157.311 27.2975C158.193 29.0173 159.515 30.5166 161.146 31.5309C162.733 32.5892 164.672 33.2507 166.567 33.383C166.611 33.0302 168.859 27.1652 168.859 27.1652L164.011 24.4311Z" fill="#263238"/>
<path d="M206.722 49.478C207.912 50.1395 209.543 47.8905 211.041 46.3912C212.54 44.8918 217.256 42.7751 219.636 47.7582C222.017 52.7413 216.551 59.6205 213.377 61.8695C209.543 64.5154 206.722 62.4428 206.722 62.4428L205.84 81.9782C205.84 81.9782 201.609 92.3412 190.149 93.9287C178.689 95.4721 181.025 85.9911 184.816 81.3167V74.2169C184.816 74.2169 178.909 75.4076 176.088 74.6579C174.061 74.0405 172.209 72.894 170.755 71.3506C169.256 69.8071 168.154 67.955 167.625 65.9265C164.496 55.5194 163.791 44.4949 165.73 33.8674C168.639 16.14 188.606 15.8754 199.758 22.9311C210.953 29.8544 206.722 49.478 206.722 49.478Z" fill="#FFC0C0"/>
<path d="M206.721 51.4623C207.338 51.4623 209.542 47.7139 211.041 46.3469C213.068 44.4948 210.424 27.6494 210.424 27.6494C210.424 27.6494 212.495 21.2993 208.44 17.0659C204.385 12.8325 196.583 13.5381 190.853 13.3176C183.845 13.3617 176.881 11.9505 170.446 9.17238C162.335 5.64455 161.718 5.24767 160.793 8.8196C159.867 12.3915 159.426 20.5937 164.231 26.0619L168.242 27.5612C168.242 27.5612 170.402 29.4574 178.027 30.3835C185.652 31.3095 197.333 30.2071 199.008 29.9425C201.211 29.6338 201.652 31.7946 202.842 37.5714C203.856 42.775 204.738 51.3741 206.721 51.4623Z" fill="#263238"/>
<path d="M210.47 28.9717L217.61 25.1352C217.346 24.6501 217.037 24.2091 216.684 23.8563C216.332 23.5035 215.803 23.2389 215.318 23.0626C214.833 22.8862 214.26 22.798 213.731 22.8862C213.158 22.9303 212.673 23.0626 212.189 23.3271C211.219 23.9004 210.514 24.7383 210.205 25.7966C209.852 26.8991 209.985 28.0015 210.47 28.9717Z" fill="#263238"/>
<path opacity="0.5" d="M184.816 74.2173C184.816 74.2173 195.394 72.0565 199.141 70.0721C201.3 68.9696 203.152 67.1616 204.254 65.0449C203.681 67.2057 202.711 69.2342 201.344 70.9981C198.568 74.4378 184.771 77.0396 184.771 77.0396L184.816 74.2173Z" fill="#B25656"/>
<path d="M187.459 46.699C187.459 47.0077 187.503 47.2722 187.591 47.4927C187.723 47.7573 187.856 47.9778 188.032 48.2424C188.208 48.4188 188.473 48.5952 188.693 48.7275C188.958 48.8598 189.266 48.9039 189.487 48.9039C189.927 48.9039 190.368 48.7716 190.721 48.5952C191.073 48.3306 191.382 48.0219 191.602 47.625C191.823 47.2281 191.867 46.7431 191.779 46.3462C191.735 45.9052 191.47 45.4642 191.162 45.1555C190.853 44.8469 190.5 44.5823 190.06 44.5382C189.619 44.4941 189.178 44.4941 188.781 44.6705C188.341 44.8469 188.032 45.1114 187.812 45.4642C187.591 45.8611 187.459 46.258 187.459 46.699Z" fill="#263238"/>
<path d="M190.018 37.9687L194.558 40.4823C194.866 39.8649 194.91 39.1152 194.734 38.4538C194.558 37.7923 194.117 37.219 193.5 36.8662C193.191 36.6898 192.883 36.6017 192.53 36.5576C192.177 36.5135 191.869 36.5576 191.56 36.6898C191.252 36.8221 190.943 36.9544 190.679 37.1749C190.414 37.3954 190.238 37.66 190.018 37.9687Z" fill="#263238"/>
<path opacity="0.5" d="M187.593 61.252L182.744 63.1041C182.876 63.4128 183.009 63.7214 183.229 63.986C183.493 64.2506 183.714 64.4711 184.022 64.6034C184.331 64.7357 184.639 64.868 184.992 64.868C185.345 64.868 185.653 64.8239 185.962 64.7357C186.579 64.4711 187.152 63.9419 187.46 63.3246C187.769 62.5749 187.813 61.8693 187.593 61.252Z" fill="#B25656"/>
<path d="M167.713 40.6569L171.856 37.4378C171.68 37.1291 171.415 36.9527 171.107 36.7763C170.798 36.5999 170.49 36.4676 170.181 36.4235C169.873 36.3794 169.52 36.3794 169.211 36.4676C168.903 36.5117 168.594 36.7322 168.286 36.9086C167.713 37.3496 167.36 37.9669 167.228 38.6725C167.096 39.3781 167.316 40.1277 167.713 40.6569Z" fill="#263238"/>
<path d="M169.742 46.2158C169.742 46.6568 169.918 47.0096 170.183 47.4064C170.447 47.7151 170.756 48.0238 171.153 48.1561C171.505 48.2884 171.946 48.3325 172.387 48.2002C172.828 48.0679 173.18 47.8915 173.445 47.5828C173.753 47.2741 173.93 46.9214 174.018 46.4804C174.062 46.0394 174.018 45.5984 173.885 45.2456C173.709 44.8929 173.445 44.496 173.092 44.3196C172.739 44.055 172.343 43.9668 171.902 43.9668C171.329 43.9668 170.8 44.2314 170.359 44.6283C169.963 45.0251 169.742 45.5984 169.742 46.2158Z" fill="#263238"/>
<path opacity="0.5" d="M180.539 44.1875L179.878 56.9318L173.223 54.6387L180.539 44.1875Z" fill="#B25656"/>
<path d="M174.501 119.021C175.339 118.888 182.567 123.254 183.14 124.224C185.036 127.355 184.066 177.847 183.978 182.169C183.89 186.27 183.096 188.519 183.096 188.519C181.333 188.387 176 185.476 173.752 182.918C172.65 177.847 173.62 119.153 174.501 119.021Z" fill="#001689"/>
<path d="M175.957 179.347L177.94 180.758V153.946L175.957 152.535V179.347Z" fill="#D60B51"/>
<path d="M181.201 133.794L176.441 124.225L175.074 137.851L181.201 133.794Z" fill="white"/>
<path d="M175.338 142.171C175.338 145.831 176.352 148.829 177.63 148.829C178.908 148.829 179.922 145.875 179.922 142.171C179.922 138.51 178.908 135.512 177.63 135.512C176.352 135.556 175.338 138.51 175.338 142.171Z" fill="#925F36"/>
<path d="M175.338 140.186C175.338 143.846 176.352 146.845 177.63 146.845C178.908 146.845 179.922 143.89 179.922 140.186C179.922 136.526 178.908 133.527 177.63 133.527C176.352 133.571 175.338 136.526 175.338 140.186Z" fill="#C39663"/>
<path d="M257.544 167.969L239.252 153.858C239.252 153.858 202.403 159.811 198.083 160.208C193.764 160.517 189.973 157.254 188.298 153.02C186.623 148.787 184.067 149.184 184.067 149.184C184.728 151.565 184.949 154.034 184.508 156.504C183.009 158.092 174.458 159.723 168.772 157.739C163.042 155.754 154.668 158.621 159.869 166.426C165.026 174.231 175.075 175.157 181.951 175.157C184.86 175.157 187.814 174.981 190.634 174.584C192.926 174.275 195.13 174.011 197.422 173.923C211.703 172.953 251.02 170.086 257.544 167.969Z" fill="#FFC0C0"/>
</svg>
