<svg width="99" height="90" viewBox="0 0 99 90" fill="none" xmlns="http://www.w3.org/2000/svg">
<path d="M48.5414 87.0823C41.0661 87.0823 33.8783 84.0677 28.6072 78.7192C23.3362 73.3707 20.3652 66.0774 20.3652 58.4923V56.9364C20.3652 50.5182 22.9049 44.3432 27.3614 39.7727C31.8657 35.2022 37.9035 32.6738 44.2767 32.6738H52.8541C59.1794 32.6738 65.265 35.2508 69.7694 39.7727C74.2738 44.3432 76.7655 50.4696 76.7655 56.9364V58.4923C76.7655 66.0774 73.7946 73.3707 68.5235 78.7192C63.2045 84.0677 56.0167 87.0823 48.5414 87.0823Z" fill="#64B715"/>
<path d="M8.91309 89.9999C12.3153 89.9999 15.5738 88.6384 17.9697 86.2073C20.3657 83.7762 21.7074 80.4699 21.7074 77.0177V51.1992C18.3051 51.1992 15.0467 52.5606 12.6507 54.9918C10.2548 57.4229 8.91309 60.7292 8.91309 64.1814V89.9999Z" fill="#64B715"/>
<path d="M56.5923 87.034C39.5332 83.3387 39.8207 79.5948 39.8207 79.5948L39.8686 77.6985C39.8686 77.6985 37.1373 81.4424 32.6329 78.3792C28.1286 75.3646 28.0327 67.8768 30.5724 65.2025C33.16 62.5283 38.8144 63.3549 39.8207 67.0988C39.8207 67.0988 46.2897 67.3419 54.9151 62.5283C58.2694 60.6807 61.1445 58.1037 63.3488 54.9432C65.5051 51.7828 66.9427 48.1361 67.4698 44.2949C70.4408 46.094 74.1305 53.679 73.7471 69.5786C73.4596 83.0956 69.1469 86.4019 66.9427 87.3744C64.8343 88.2982 60.6174 87.7147 56.5923 87.034Z" fill="#FFA8A7"/>
<path d="M58.8914 66.1762C58.8914 66.4193 58.8914 66.6138 58.7956 66.8569C58.7476 67.0514 58.6039 67.2459 58.4601 67.4404C58.3164 67.6349 58.1247 67.7321 57.933 67.878C57.7413 67.9753 57.5017 68.0239 57.3101 68.0725C56.9746 68.1211 56.5913 68.0239 56.3038 67.878C56.0163 67.7321 55.7288 67.4404 55.585 67.1487C55.4412 66.8569 55.3454 66.468 55.3933 66.1276C55.4412 65.7872 55.585 65.4469 55.7767 65.1551C56.0163 64.8634 56.3038 64.6689 56.6392 64.5717C56.9746 64.4744 57.3101 64.4744 57.6455 64.6203C57.9809 64.7175 58.2684 64.9607 58.4601 65.2524C58.7476 65.4469 58.8914 65.7872 58.8914 66.1762Z" fill="#263238"/>
<path d="M59.3712 77.6016L63.2526 78.8657C63.2047 79.1088 63.0609 79.352 62.8693 79.5951C62.7255 79.7896 62.4859 79.9841 62.2463 80.1299C62.0067 80.2758 61.7671 80.3244 61.4796 80.373C61.1921 80.4217 60.9525 80.373 60.665 80.2758C60.1379 80.0813 59.7066 79.7409 59.467 79.2061C59.2274 78.7199 59.1795 78.1364 59.3712 77.6016Z" fill="#F28F8F"/>
<path d="M72.6444 60.9229L69.2422 58.5404C69.3859 58.2973 69.5776 58.1028 69.7693 57.9569C70.0089 57.811 70.2485 57.7138 70.4881 57.6165C70.7277 57.5679 71.0152 57.5679 71.3027 57.6165C71.5423 57.6652 71.8298 57.7624 72.0215 57.9569C72.4527 58.2973 72.7882 58.7835 72.884 59.3183C73.0278 59.9018 72.9319 60.4853 72.6444 60.9229Z" fill="#64B715"/>
<path d="M71.8303 64.9106C71.8303 65.2509 71.7345 65.5913 71.5428 65.8344C71.3511 66.1261 71.1115 66.3206 70.824 66.4665C70.5365 66.6123 70.2011 66.661 69.8656 66.5637C69.5302 66.5151 69.2427 66.3692 69.0031 66.1261C68.7635 65.883 68.6198 65.5913 68.5239 65.2509C68.4281 64.9106 68.476 64.5702 68.5718 64.2785C68.6677 63.9867 68.9073 63.695 69.1469 63.5005C69.4344 63.306 69.7219 63.2088 70.0573 63.1602C70.2969 63.1602 70.4886 63.2088 70.7282 63.2574C70.9199 63.3547 71.1115 63.4519 71.3032 63.5978C71.447 63.7436 71.5907 63.9381 71.6866 64.1326C71.7824 64.473 71.8303 64.7161 71.8303 64.9106Z" fill="#263238"/>
<path d="M63.9717 63.9863L64.2113 74.197L69.5302 72.5439L63.9717 63.9863Z" fill="#F28F8F"/>
<path d="M49.5 65.3967C76.8381 65.3967 99 57.8646 99 48.5733C99 39.2821 76.8381 31.75 49.5 31.75C22.1619 31.75 0 39.2821 0 48.5733C0 57.8646 22.1619 65.3967 49.5 65.3967Z" fill="#9C2CB7"/>
<path d="M66.5114 18.7196C64.2592 15.2188 61.8153 11.5235 58.1735 9.57861C54.8671 7.77958 50.9857 7.63371 47.296 7.8282C39.6769 8.2658 32.1058 10.1621 24.4388 9.91896C16.7718 9.67585 8.52977 6.70989 4.69628 0C1.43781 2.67423 1.86907 8.11994 4.36085 11.5235C6.85262 14.9271 10.734 16.9206 14.3279 19.1086C17.9218 21.2966 21.5637 24.0681 22.8095 28.1523C24.4867 33.7439 21.372 40.7455 25.0617 45.2188C26.9305 47.4554 29.9015 48.1848 32.7287 48.7196C39.629 50.0324 46.673 50.6645 53.7171 50.6159C58.0298 50.6159 69.2906 51.6369 72.5491 48.3306C74.8013 46.094 73.6512 39.1896 73.5075 36.2237C73.2679 29.611 70.0094 24.1653 66.5114 18.7196Z" fill="#9C2CB7"/>
<path d="M29.1825 34.9109C27.4574 34.7164 25.349 34.0843 23.2885 33.7439C23.1927 37.9254 22.5218 42.1556 25.0615 45.1702C26.9303 47.4068 29.9013 48.1361 32.7285 48.671C39.6288 49.9838 46.6728 50.6159 53.7169 50.5673C58.0295 50.5673 69.2904 51.5883 72.5489 48.282C74.8011 46.0454 73.651 39.141 73.5073 36.175C73.4594 34.3274 73.1239 32.577 72.6447 30.9238C68.1404 32.188 63.5402 33.1605 58.94 33.9384C49.1167 35.5916 39.1017 35.9806 29.1825 34.9109Z" fill="#FF6B31"/>
</svg>
