<svg width="138" height="370" viewBox="0 0 138 370" fill="none" xmlns="http://www.w3.org/2000/svg">
<g clip-path="url(#clip0)">
<path d="M120.288 135.164C118.437 140.07 116.807 145.197 113.458 149.264C112.401 150.546 111.079 152.181 111.74 153.684C112.181 154.7 113.37 155.142 114.472 155.408C119.759 156.557 125.443 154.745 129.541 151.253C133.638 147.761 136.282 142.678 137.428 137.374C138.221 133.838 138.353 129.992 136.767 126.766C135.269 123.716 130.554 119.871 127.558 122.92C124.121 126.456 122.006 130.611 120.288 135.164Z" fill="#9D10BF"/>
<path d="M121.036 127.606C120.683 129.86 121.388 132.247 120.639 134.413C120.066 136.137 118.612 137.463 118.172 139.187C117.951 139.982 117.995 140.91 118.612 141.441C119.097 141.883 119.802 141.927 120.419 141.971C124.164 142.104 128.041 141.308 131.126 139.187C134.21 137.021 136.369 133.396 136.193 129.639C136.017 125.794 133.109 122.346 129.407 121.462C125.574 120.578 121.564 124.026 121.036 127.606Z" fill="#752189"/>
<path d="M48.4243 370.001C74.7289 370.001 96.0987 359.791 96.0987 347.194C96.0987 334.597 74.773 324.387 48.4243 324.387C22.0757 324.387 0.75 334.641 0.75 347.238C0.75 359.835 22.1197 370.001 48.4243 370.001Z" fill="#E0E0E0"/>
<path d="M71.2914 336.409C74.3316 339.592 77.6362 342.465 81.2052 345.028C81.778 345.382 82.2627 345.868 82.6152 346.443C83.0998 347.415 83.8048 349.846 79.3987 351.393C77.1516 352.189 74.7723 352.454 72.437 352.233C70.1018 352.012 67.8106 351.261 65.7397 350.067C62.1267 347.813 61.9504 343.039 58.5136 340.343C55.9581 338.354 52.8297 337.824 50.7588 335.216C49.3489 333.404 49.7014 330.973 50.4504 327.967C51.2435 324.696 51.6401 322.221 52.6975 322.486L52.5213 323.989C53.9313 326.155 60.8489 326.818 63.9772 325.315C66.2684 329.116 68.6918 332.829 71.2914 336.409Z" fill="#263238"/>
<path d="M74.3755 339.459C73.318 338.487 72.3046 337.514 71.2912 336.409C69.2203 333.713 67.3257 330.884 65.6073 327.967C64.2854 326.155 63.4483 324.033 63.1839 321.779C63.0958 318.95 63.4042 313.735 63.4042 313.735L53.0498 313.027L52.5211 323.945C52.2567 326.42 54.2835 328.63 57.8965 331.724C61.5096 334.818 66.0919 342.111 69.3525 343.967C72.613 345.78 75.0364 345.735 76.3582 344.807C77.6801 343.835 77.9004 343.083 74.3755 339.459Z" fill="#FFA8A7"/>
<path d="M36.7914 346.796C39.8316 349.978 43.1362 352.852 46.7052 355.415C47.278 355.769 47.7627 356.255 48.1152 356.83C48.5998 357.802 49.3048 360.233 44.8987 361.78C42.6516 362.576 40.2723 362.841 37.937 362.62C35.6018 362.399 33.3106 361.647 31.2397 360.454C27.5826 358.2 27.4504 353.426 24.0136 350.73C21.4581 348.741 18.3297 348.21 16.2588 345.603C14.8489 343.79 15.2014 341.359 15.9504 338.354C16.7435 335.083 17.1401 332.608 18.1975 332.873L18.0213 334.376C19.4313 336.542 26.3489 337.205 29.4772 335.702C31.7684 339.503 34.1918 343.216 36.7914 346.796Z" fill="#263238"/>
<path d="M39.8763 349.845C38.8189 348.873 37.8054 347.9 36.8361 346.795C34.7652 344.099 32.8706 341.27 31.1522 338.353C29.8744 336.497 29.0372 334.331 28.7288 332.077C28.5526 329.513 28.7288 324.209 28.7288 324.209H18.3304L18.066 334.287C17.8016 336.762 19.8284 338.972 23.4415 342.066C27.0545 345.16 31.6369 352.453 34.8974 354.309C38.1579 356.122 40.4932 356.077 41.9031 355.149C43.269 354.221 43.4012 353.47 39.8763 349.845Z" fill="#FFA8A7"/>
<path d="M47.6758 199.697L50.6279 183.519C50.6279 183.519 62.9651 180.911 68.649 175.607C68.649 175.607 62.7448 182.989 53.9765 185.376L50.672 199.608L53.9325 241.908L47.6758 199.697Z" fill="#263238"/>
<path d="M18.1104 155.806C9.07783 175.564 19.3441 250.616 19.3441 250.616C19.0797 253.842 16.2598 258.837 15.9073 268.65C15.4667 281.247 17.7138 327.745 17.7138 327.745C19.5204 328.718 21.5472 329.248 23.574 329.292C25.6449 329.336 27.6717 328.894 29.5223 328.01C29.5223 328.01 40.2292 264.893 42.256 248.273C44.0625 233.776 47.5874 199.697 47.5874 199.697L54.7694 248.185C54.7694 248.185 51.0683 256.273 50.892 263.567C50.6276 273.379 52.0817 318.905 52.0817 318.905C52.0817 318.905 56.4437 320.452 64.1104 319.303C64.1104 319.303 74.9935 257.688 76.007 245.931C76.6238 238.903 71.3805 152.801 71.3805 152.801L18.1104 155.806Z" fill="#FF6B31"/>
<path d="M18.5957 244.826C19.0363 248.495 19.3447 250.616 19.3447 250.616C19.3447 250.882 19.3007 251.147 19.2126 251.456H41.8601C42.0363 250.263 42.1685 249.158 42.3007 248.23C42.4329 247.169 42.565 246.02 42.6972 244.826H18.5957Z" fill="#540468"/>
<path d="M40.0088 264.054C40.3613 261.711 40.7138 259.457 41.0222 257.424H17.5816C17.0969 259.28 16.6123 261.446 16.2598 264.054H40.0088Z" fill="#540468"/>
<path d="M38.9514 270.771H15.8633C15.8633 272.628 15.8633 274.882 15.9073 277.402H37.8939C38.2905 275.147 38.643 272.937 38.9514 270.771Z" fill="#540468"/>
<path d="M35.5591 291.9C35.9116 289.69 36.2641 287.48 36.6606 285.27H16.084C16.128 287.391 16.2162 289.645 16.2602 291.9H35.5591Z" fill="#540468"/>
<path d="M33.4 305.027C33.7525 302.905 34.105 300.651 34.5015 298.396H16.4805C16.5686 300.651 16.6567 302.861 16.7448 305.027H33.4Z" fill="#540468"/>
<path d="M31.4169 316.915C31.7694 314.882 32.1219 312.672 32.5185 310.285H16.9648C17.053 312.672 17.1411 314.882 17.2292 316.915H31.4169Z" fill="#540468"/>
<path d="M75.4784 250.926H53.7562C53.1393 252.65 52.3462 254.992 51.7734 257.556H74.5091C74.8616 255.036 75.2141 252.826 75.4784 250.926Z" fill="#540468"/>
<path d="M73.5388 263.832H50.9354C50.8913 265.379 50.8913 267.677 50.9354 270.462H72.4814C72.8339 268.164 73.1864 265.954 73.5388 263.832Z" fill="#540468"/>
<path d="M71.2035 278.02H51.0234C51.0675 280.141 51.1116 282.351 51.1556 284.65H70.102C70.4985 282.44 70.851 280.23 71.2035 278.02Z" fill="#540468"/>
<path d="M68.9125 291.721H51.332C51.3761 293.975 51.4642 296.185 51.5083 298.351H67.7669C68.1635 296.229 68.5159 294.019 68.9125 291.721Z" fill="#540468"/>
<path d="M66.9299 303.348H51.6406C51.7287 305.734 51.7728 307.989 51.8169 309.978H65.7402C66.1368 307.989 66.4893 305.734 66.9299 303.348Z" fill="#540468"/>
<path d="M76.0929 98.5231C82.702 106.435 93.6292 117.131 99.7978 124.911C103.058 128.977 104.865 134.06 104.821 139.32C104.821 143.209 103.719 146.436 99.93 144.801C97.1982 143.607 95.4358 142.193 91.4262 138.259C87.8572 134.723 70.4971 118.369 70.4971 118.369C70.4971 118.369 67.2365 98.3463 61.8611 96.7109C56.4856 95.0754 51.9473 86.5006 51.9473 86.5006C60.7595 85.6608 67.7212 88.4896 76.0929 98.5231Z" fill="#F28F8F"/>
<path d="M62.5668 85.042C66.2239 85.8376 69.6166 87.6056 72.7009 89.7272C84.9059 98.2579 92.132 112.225 102.927 122.48C105.791 125.176 108.919 127.651 111.475 130.612C114.074 133.574 116.145 137.198 116.366 141.176C116.586 145.11 114.603 149.353 110.99 150.9C108.347 152.05 105.218 151.652 102.574 150.458C99.9308 149.265 97.6837 147.409 95.4806 145.552C85.7871 137.463 75.9615 129.198 68.8235 118.767C63.3159 110.767 59.3503 101.484 52.3005 94.7661C50.9787 93.5285 49.5247 92.2909 49.04 90.5228C47.2775 84.4232 59.3503 84.3348 62.5668 85.042Z" fill="#752189"/>
<path d="M44.6346 79.1632C37.761 79.1632 31.1518 76.4228 26.3051 71.5607C21.4584 66.6987 18.7266 60.0687 18.7266 53.1734V51.759C18.7266 45.9246 21.0618 40.3112 25.1595 36.1564C29.3013 32.0015 34.853 29.7031 40.7132 29.7031H48.6001C54.4162 29.7031 60.012 32.0457 64.1538 36.1564C68.2955 40.3112 70.5867 45.8804 70.5867 51.759V53.1734C70.5867 60.0687 67.8549 66.6987 63.0082 71.5607C58.1174 76.4228 51.5082 79.1632 44.6346 79.1632Z" fill="#64B715"/>
<path d="M8.19531 81.8147C11.3237 81.8147 14.3198 80.5771 16.5229 78.3671C18.726 76.1571 19.9597 73.1515 19.9597 70.0133V46.543C16.8313 46.543 13.8352 47.7806 11.6321 49.9906C9.42903 52.2006 8.19531 55.2062 8.19531 58.3444V81.8147Z" fill="#64B715"/>
<path d="M35.733 86.9408C27.802 88.0458 23.5281 89.7696 20.9725 97.2836C19.2982 102.19 19.7388 109.35 21.4572 114.257L28.3748 134.544C24.189 141.219 20.7522 148.335 18.0645 155.805C38.3327 167.164 65.2982 161.109 71.4227 152.843C71.6871 151.075 70.0127 142.589 70.5415 133.616C71.0702 124.025 72.6123 112.975 71.1143 107.052C68.2943 96.046 60.6717 88.8414 52.0357 86.543L35.733 86.9408Z" fill="#F5F5F5"/>
<path d="M62.0378 40.2227C64.7696 41.8581 68.1623 48.7533 67.8099 63.2068C67.5455 75.4944 63.58 78.5 61.5532 79.384C59.5704 80.2681 55.693 79.7376 51.9919 79.1188V86.5003C51.9919 86.5003 57.147 92.5115 56.8386 95.8707C56.5302 99.2299 49.3922 100.07 44.5455 96.7547C41.4171 94.5005 38.7294 91.7159 36.6145 88.4893V70.6324C36.6145 70.6324 34.103 74.0358 29.9612 71.2512C25.8194 68.5108 25.7313 61.704 28.0666 59.273C30.4459 56.8419 35.6451 57.5933 36.5704 60.9968C36.5704 60.9968 42.5187 61.2178 50.4497 56.8419C53.534 55.1623 56.1777 52.8197 58.2045 49.9467C60.2754 47.0295 61.5532 43.7145 62.0378 40.2227Z" fill="#FFA8A7"/>
<path d="M54.1518 60.1569C54.1518 60.3779 54.1518 60.5547 54.0636 60.7757C54.0196 60.9525 53.8874 61.1293 53.7552 61.3061C53.623 61.4829 53.4468 61.5713 53.2705 61.7039C53.0943 61.7924 52.874 61.8365 52.6977 61.8807C52.3893 61.9249 52.0368 61.8366 51.7725 61.7039C51.5081 61.5713 51.2437 61.3061 51.1115 61.0409C50.9794 60.7757 50.8912 60.4221 50.9353 60.1127C50.9794 59.8033 51.1115 59.4939 51.2878 59.2287C51.5081 58.9635 51.7725 58.7867 52.0809 58.6983C52.3893 58.6099 52.6977 58.6099 53.0062 58.7425C53.3146 58.8309 53.579 59.0519 53.7552 59.3171C54.0196 59.4939 54.1518 59.8033 54.1518 60.1569Z" fill="#263238"/>
<path d="M54.5912 70.543L58.1601 71.6922C58.1161 71.9132 57.9839 72.1342 57.8076 72.3552C57.6755 72.532 57.4552 72.7088 57.2349 72.8414C57.0145 72.974 56.7942 73.0182 56.5299 73.0624C56.2655 73.1066 56.0452 73.0624 55.7808 72.974C55.2962 72.7972 54.8996 72.4878 54.6793 72.0016C54.459 71.5596 54.4149 71.0292 54.5912 70.543Z" fill="#F28F8F"/>
<path d="M66.7963 55.3825L63.668 53.2167C63.8002 52.9957 63.9764 52.8189 64.1526 52.6863C64.373 52.5537 64.5933 52.4653 64.8136 52.3769C65.0339 52.3327 65.2982 52.3327 65.5626 52.3769C65.7829 52.4211 66.0473 52.5095 66.2235 52.6863C66.6201 52.9957 66.9285 53.4377 67.0166 53.9239C67.1488 54.4543 67.0607 54.9847 66.7963 55.3825Z" fill="#64B715"/>
<path d="M66.0472 59.0072C66.0472 59.3166 65.9591 59.626 65.7829 59.847C65.6066 60.1122 65.3863 60.289 65.122 60.4216C64.8576 60.5542 64.5492 60.5984 64.2407 60.51C63.9323 60.4658 63.6679 60.3332 63.4476 60.1122C63.2273 59.8912 63.0951 59.626 63.007 59.3166C62.9189 59.0072 62.963 58.6978 63.0511 58.4326C63.1392 58.1674 63.3595 57.9022 63.5798 57.7254C63.8442 57.5486 64.1086 57.4602 64.417 57.416C64.6373 57.416 64.8135 57.4602 65.0338 57.5044C65.2101 57.5928 65.3863 57.6812 65.5626 57.8138C65.6948 57.9464 65.8269 58.1232 65.9151 58.3C66.0032 58.6094 66.0472 58.8304 66.0472 59.0072Z" fill="#263238"/>
<path d="M58.8223 58.168L59.0426 67.45L63.9334 65.9472L58.8223 58.168Z" fill="#F28F8F"/>
<path d="M52.037 79.1179C48.1155 78.5875 40.0082 76.2891 38.7305 73.0625C39.2592 74.6979 40.2286 76.1123 41.5504 77.1731C43.9738 79.2505 51.9929 81.5931 51.9929 81.5931V79.1179H52.037Z" fill="#F28F8F"/>
<path d="M45.5153 59.4498C70.6527 59.4498 91.0306 52.6028 91.0306 44.1566C91.0306 35.7103 70.6527 28.8633 45.5153 28.8633C20.3779 28.8633 0 35.7103 0 44.1566C0 52.6028 20.3779 59.4498 45.5153 59.4498Z" fill="#9C2CB7"/>
<path d="M61.1578 17.0171C59.0869 13.8347 56.8398 10.4755 53.4912 8.70744C50.4509 7.07204 46.882 6.93943 43.4892 7.11624C36.4835 7.51404 29.5218 9.23785 22.472 9.01684C15.4222 8.79584 7.84366 6.09963 4.31875 0C1.32258 2.43101 1.71913 7.38144 4.01032 10.4755C6.30151 13.5695 9.87047 15.3817 13.1751 17.3707C16.4797 19.3597 19.8283 21.8791 20.9739 25.5919C22.5161 30.675 19.6521 37.0398 23.0448 41.1062C24.7632 43.1394 27.495 43.8024 30.0946 44.2886C36.4394 45.482 42.9164 46.0566 49.3935 46.0124C53.359 46.0124 63.7134 46.9406 66.7095 43.935C68.7804 41.9018 67.723 35.6254 67.5908 32.9292C67.3705 26.9179 64.3743 21.9675 61.1578 17.0171Z" fill="#9C2CB7"/>
<path d="M26.8336 31.7357C25.2474 31.5589 23.3087 30.9843 21.4141 30.6749C21.3259 34.4762 20.7091 38.3216 23.0443 41.062C24.7627 43.0952 27.4945 43.7582 30.0941 44.2444C36.439 45.4378 42.916 46.0124 49.393 45.9682C53.3585 45.9682 63.7129 46.8964 66.7091 43.8908C68.7799 41.8576 67.7225 35.5812 67.5903 32.885C67.5462 31.2053 67.2378 29.6141 66.7972 28.1113C62.6554 29.2605 58.4255 30.1445 54.1957 30.8517C45.1631 32.3546 35.9543 32.7082 26.8336 31.7357Z" fill="#FF6B31"/>
<path d="M74.2433 131.629C73.8467 122.303 73.6705 112.756 70.6303 103.916C67.6782 95.4293 61.069 86.7661 52.0364 84.4677V86.4567C52.0364 86.4567 57.1916 92.4679 56.8831 95.8271C56.5747 99.1863 49.4368 100.026 44.59 96.7111C41.4617 94.4569 38.7739 91.6723 36.659 88.4457V82.9648C31.636 83.4952 26.9655 85.3959 23.9253 89.7717C19.8276 95.6503 20.9732 103.651 22.8678 110.59C24.7624 117.529 27.1858 124.867 25.1149 131.718C23.2203 137.994 17.977 142.547 14.5843 148.16C8.81224 157.796 8.76818 169.597 8.94443 180.78C9.16473 194.173 9.34098 207.609 9.56129 221.002C9.60535 223.698 9.64941 226.439 10.5306 229.002C11.5881 232.185 13.8352 234.793 16.0383 237.268C35.7337 259.721 56.795 281.026 79.046 300.96C89.841 245.356 76.7107 188.25 74.2433 131.629Z" fill="#9D10BF"/>
<path d="M76.4912 314.043C74.1119 313.512 72.6138 311.125 73.1866 308.739L123.505 86.3673C124.033 83.9805 126.413 82.4776 128.792 83.0522C131.171 83.5827 132.669 85.9695 132.097 88.3563L81.7786 310.728C81.2498 313.114 78.8705 314.617 76.4912 314.043Z" fill="#593A09"/>
<path d="M114.294 146.79C111.871 147.718 109.492 147.762 106.187 149.309C104.028 150.547 101.605 151.254 99.0932 151.342C95.8767 151.519 86.8442 147.629 78.9131 143.917C70.3212 139.717 62.5223 134.104 55.825 127.297C49.0836 119.297 43.1353 110.678 37.9802 101.573C35.1602 96.7107 32.2963 89.6828 27.802 88.7988C20.0032 89.6386 16.8308 103.252 21.8978 111.65C26.9649 120.048 35.8652 131.143 45.4706 140.425C50.1411 144.933 58.6449 149.839 70.8058 155.099C78.7809 158.591 87.0204 161.42 95.4361 163.63C97.9035 164.249 99.6219 165.177 104.204 166.768C106.055 167.519 108.038 168.006 110.02 168.182C112.488 168.271 114.999 168.006 117.379 167.387C120.419 166.635 123.239 165.044 125.442 162.79C126.676 161.552 127.557 160.05 128.086 158.414C128.614 156.735 128.57 154.967 127.909 153.331C127.777 153.022 127.601 152.712 127.292 152.491C126.72 152.182 126.059 152.138 125.486 152.27C121.961 153.022 118.392 153.596 114.823 153.994C111.827 154.127 109.756 153.773 110.109 153.331C110.461 152.845 112.223 152.933 114.471 151.652C116.718 150.37 117.995 147.939 117.246 146.79C116.541 145.596 116.718 145.861 114.294 146.79Z" fill="#FFA8A7"/>
<path d="M27.7151 125.086C34.0159 134.677 42.696 142.412 52.037 149.042C58.9987 153.993 66.401 158.369 74.1117 162.126C78.8703 164.424 83.8492 166.546 87.5504 170.303C92.0006 174.723 94.2037 180.911 96.2745 186.834C99.5351 175.916 98.9182 164.247 98.2132 152.888C98.1692 152.004 98.081 151.031 97.5964 150.28C96.8473 149.087 95.3052 148.689 93.9393 148.379C81.8665 145.374 71.0274 138.302 62.2592 129.462C53.491 120.622 46.6174 110.058 40.6692 99.0961C38.9948 96.0463 37.3646 92.8639 34.9412 90.3887C32.5178 87.8693 29.1251 86.057 25.6883 86.3664C9.47377 87.825 23.309 118.456 27.7151 125.086Z" fill="#752189"/>
<path d="M83.9369 352.806L50.1419 344.231C47.3219 343.524 45.6036 340.607 46.3085 337.778L59.7472 284.561C60.4522 281.732 63.3603 280.008 66.1802 280.715L99.9752 289.29C102.795 289.997 104.514 292.915 103.809 295.743L90.3698 348.96C89.6208 351.789 86.7568 353.513 83.9369 352.806Z" fill="#E2AF23"/>
<path d="M98.3008 313.822L56.0901 303.081C55.6054 302.948 55.297 302.418 55.4291 301.932L56.7069 296.893C56.8391 296.407 57.3678 296.097 57.8525 296.23L100.063 306.971C100.548 307.103 100.856 307.634 100.724 308.12L99.4464 313.159C99.3142 313.645 98.7855 313.954 98.3008 313.822Z" fill="#593A09"/>
<path d="M120.86 113.948C120.86 113.948 117.643 111.384 111.519 112.401C108.567 112.887 109.712 124.158 119.23 127.296C125.442 129.329 126.72 128.313 128.703 133.396C128.703 133.396 132.448 132.6 131.523 126.898C130.509 121.02 127.91 115.495 123.988 111.031C121.256 107.804 121.08 105.064 119.758 105.992C118.436 106.92 119.141 109.705 119.141 109.705L120.86 113.948Z" fill="#FFA8A7"/>
</g>
<defs>
<clipPath id="clip0">
<rect width="138" height="370" fill="white"/>
</clipPath>
</defs>
</svg>
