<svg width="1027" height="371" viewBox="0 0 1027 371" fill="none" xmlns="http://www.w3.org/2000/svg">
<path d="M868.646 109.059H868.233C868.222 106.521 868.848 104.022 870.054 101.788C870.797 100.418 871.168 98.8779 871.129 97.3207C871.091 95.7635 870.645 94.2434 869.836 92.9113C869.182 91.8219 868.308 90.8802 867.269 90.146C866.231 89.4118 865.05 88.9013 863.803 88.6467C862.556 88.3922 861.27 88.3993 860.026 88.6675C858.782 88.9358 857.607 89.4594 856.577 90.2049C850.299 94.7396 845.971 101.474 844.462 109.059H843.871C831.825 109.059 820.272 113.833 811.754 122.33C803.236 130.828 798.45 142.353 798.45 154.37C798.45 166.388 803.236 177.913 811.754 186.41C820.272 194.908 831.825 199.682 843.871 199.682H868.646C880.693 199.682 892.246 194.908 900.764 186.41C909.282 177.913 914.067 166.388 914.067 154.37C914.067 142.353 909.282 130.828 900.764 122.33C892.246 113.833 880.693 109.059 868.646 109.059ZM855.615 103.032C857.145 100.627 859.116 98.5303 861.424 96.8534C861.641 96.7397 861.89 96.7059 862.129 96.7579C862.368 96.8099 862.58 96.9444 862.729 97.1376C862.805 97.248 862.847 97.3775 862.851 97.5109C862.856 97.6444 862.822 97.7764 862.754 97.8914C860.909 101.325 859.947 105.163 859.954 109.059H852.935C853.529 106.93 854.432 104.9 855.615 103.032ZM868.646 191.443H843.871C834.015 191.443 824.563 187.537 817.593 180.585C810.624 173.632 806.709 164.203 806.709 154.37C806.709 144.538 810.624 135.108 817.593 128.156C824.563 121.203 834.015 117.297 843.871 117.297H868.646C878.503 117.297 887.955 121.203 894.924 128.156C901.894 135.108 905.809 144.538 905.809 154.37C905.809 164.203 901.894 173.632 894.924 180.585C887.955 187.537 878.503 191.443 868.646 191.443Z" fill="white"/>
<path d="M853.368 158.485H859.149C859.358 158.482 859.562 158.427 859.744 158.325C859.925 158.222 860.078 158.075 860.187 157.898C860.297 157.721 860.36 157.52 860.37 157.312C860.381 157.104 860.339 156.897 860.247 156.71L857.357 150.922C857.252 150.722 857.095 150.554 856.901 150.437C856.707 150.32 856.485 150.258 856.259 150.258C856.032 150.258 855.81 150.32 855.616 150.437C855.423 150.554 855.265 150.722 855.16 150.922L852.27 156.71C852.179 156.897 852.137 157.104 852.147 157.312C852.158 157.52 852.221 157.721 852.33 157.898C852.44 158.075 852.592 158.222 852.774 158.325C852.955 158.427 853.16 158.482 853.368 158.485Z" fill="white"/>
<path d="M876.903 166.727H872.774V170.846H864.516V166.727H847.999V170.846H839.741V166.727H835.612C834.516 166.727 833.466 167.161 832.692 167.933C831.917 168.706 831.482 169.753 831.482 170.846C831.482 174.123 832.788 177.267 835.111 179.584C837.434 181.902 840.585 183.204 843.87 183.204H852.128V179.084H860.387V183.204H868.645C871.93 183.204 875.081 181.902 877.404 179.584C879.728 177.267 881.033 174.123 881.033 170.846C881.033 169.753 880.598 168.706 879.823 167.933C879.049 167.161 877.999 166.727 876.903 166.727Z" fill="white"/>
<path d="M835.613 142.012C836.704 142.026 837.746 142.464 838.518 143.234C839.289 144.003 839.728 145.043 839.742 146.131C839.742 147.224 840.177 148.271 840.952 149.044C841.726 149.816 842.776 150.25 843.872 150.25C844.967 150.25 846.017 149.816 846.791 149.044C847.566 148.271 848.001 147.224 848.001 146.131C848.001 142.854 846.696 139.71 844.372 137.393C842.049 135.075 838.899 133.773 835.613 133.773C832.328 133.773 829.177 135.075 826.854 137.393C824.531 139.71 823.226 142.854 823.226 146.131C823.226 147.224 823.661 148.271 824.435 149.044C825.209 149.816 826.26 150.25 827.355 150.25C828.45 150.25 829.5 149.816 830.275 149.044C831.049 148.271 831.484 147.224 831.484 146.131C831.498 145.043 831.937 144.003 832.709 143.234C833.48 142.464 834.522 142.026 835.613 142.012Z" fill="white"/>
<path d="M876.905 133.773C873.62 133.773 870.469 135.075 868.146 137.393C865.823 139.71 864.518 142.854 864.518 146.131C864.518 147.224 864.953 148.271 865.727 149.044C866.501 149.816 867.552 150.25 868.647 150.25C869.742 150.25 870.792 149.816 871.567 149.044C872.341 148.271 872.776 147.224 872.776 146.131C872.776 145.039 873.211 143.991 873.985 143.218C874.76 142.446 875.81 142.012 876.905 142.012C878 142.012 879.051 142.446 879.825 143.218C880.599 143.991 881.034 145.039 881.034 146.131C881.034 147.224 881.469 148.271 882.244 149.044C883.018 149.816 884.068 150.25 885.164 150.25C886.259 150.25 887.309 149.816 888.083 149.044C888.858 148.271 889.293 147.224 889.293 146.131C889.293 142.854 887.988 139.71 885.664 137.393C883.341 135.075 880.191 133.773 876.905 133.773Z" fill="white"/>
<rect x="757.75" y="53.5" width="200.5" height="183.998" rx="32.5" stroke="white" stroke-width="9"/>
<path d="M456.654 228.458L485.777 269.733C488.135 273.072 492.75 273.869 496.088 271.512C499.425 269.153 500.222 264.541 497.867 261.201L497.866 261.203L478.447 233.678C520.336 245.521 554.455 244.754 581.557 237.481C613.417 228.951 635.315 211.582 649.129 196.415C662.963 181.226 668.855 168.208 669.086 167.71C670.76 163.983 669.099 159.603 665.374 157.926C663.756 157.198 662.015 157.102 660.428 157.527C658.357 158.082 656.54 159.532 655.591 161.639L655.591 161.642C655.591 161.642 655.591 161.642 655.569 161.685C655.127 162.649 649.459 174.45 637.011 187.727C624.544 201.016 605.434 215.76 577.729 223.187C553.312 229.718 522.02 230.661 482.14 219.343L509.038 200.033C512.357 197.651 513.119 193.026 510.734 189.707C508.885 187.135 505.692 186.101 502.803 186.877C501.966 187.101 501.154 187.477 500.404 188.013L458.384 218.185C455.085 220.556 454.313 225.142 456.654 228.458Z" fill="white"/>
<mask id="mask0" mask-type="alpha" maskUnits="userSpaceOnUse" x="886" y="205" width="141" height="137">
<path d="M975.839 224.332C934.949 222.484 911.311 245.177 902.528 257.996L913.405 274.432C905.94 288.317 913.997 295.61 914.678 296.447C917.966 300.488 919.692 300.741 923.433 303.505L941.226 316.823L958.906 330.46L1008.6 292.734C1017.17 275.935 990.331 240.133 975.839 224.332Z" fill="white"/>
</mask>
<g mask="url(#mask0)">
<path d="M971.508 224.951C961.377 223.18 950.95 224.427 941.523 228.536C934.466 231.365 927.755 234.992 921.521 239.345L909.573 222.873C907.45 220.152 904.337 218.382 900.912 217.95C897.488 217.519 894.033 218.461 891.301 220.57C888.448 222.512 886.48 225.504 885.827 228.893C885.174 232.282 885.89 235.791 887.818 238.654L910.362 269.732L901.828 268.429C898.079 267.869 894.26 268.802 891.191 271.028C888.123 273.254 886.05 276.595 885.418 280.332C885.09 282.188 885.137 284.092 885.558 285.93C885.979 287.767 886.764 289.502 887.867 291.031C889.956 294.031 893.148 296.081 896.746 296.732L923.672 303.382C927.551 307.258 932.115 310.381 937.134 312.589C940.908 314.35 944.94 315.493 949.076 315.975L953.404 321.942C954.012 322.8 954.925 323.392 955.956 323.597C956.987 323.802 958.057 323.604 958.947 323.044L1002.18 291.685C1002.99 291.014 1003.51 290.058 1003.63 289.014C1003.76 287.97 1003.48 286.918 1002.85 286.074L996.763 277.683C997.595 265.982 994.218 254.368 987.24 244.939L973.713 226.292C973.155 225.604 972.376 225.13 971.508 224.951ZM981.137 249.603C987.329 257.722 990.283 267.852 989.423 278.027C989.143 279.083 989.279 280.207 989.803 281.166L994.673 287.879L957.814 314.616L954.478 310.017C954.109 309.507 953.621 309.096 953.056 308.819C952.492 308.542 951.868 308.408 951.239 308.429C947.525 308.209 943.892 307.248 940.555 305.602C936.144 303.685 932.173 300.883 928.891 297.367C928.369 296.719 927.652 296.258 926.846 296.052L898.435 289.056C897.58 288.926 896.76 288.627 896.022 288.178C895.284 287.728 894.642 287.136 894.135 286.436C893.627 285.737 893.264 284.943 893.065 284.102C892.867 283.261 892.838 282.388 892.979 281.535C893.271 279.785 894.24 278.22 895.676 277.179C897.113 276.137 898.901 275.702 900.655 275.967L916.742 278.527L923.821 288.286L927.782 280.669L894.034 234.145C893.319 232.927 893.105 231.48 893.436 230.107C893.767 228.734 894.618 227.543 895.81 226.786C896.9 225.888 898.296 225.449 899.704 225.56C901.112 225.671 902.421 226.325 903.357 227.382L929.959 264.054L937.144 260.882L926.053 245.591C928.698 243.751 931.437 242.049 934.259 240.492L946.049 256.746L951.811 254.227L939.75 237.6C941.205 236.924 942.713 236.257 944.297 235.63C946.214 234.883 948.17 234.24 950.157 233.703L961.767 249.709L967.528 247.189L956.775 232.365C960.634 231.742 964.561 231.655 968.445 232.106L981.137 249.603Z" fill="#FCB527"/>
<path d="M929.171 302.967C918.655 298.636 906.864 291.442 916.889 274.388" stroke="#FCB527" stroke-width="9"/>
<path d="M924.838 241.776C921.258 243.037 912.377 247.553 905.5 255.527" stroke="#FCB527" stroke-width="10"/>
</g>
<rect x="126.5" y="41.5" width="200.5" height="308" rx="18.5" stroke="white" stroke-width="9"/>
<line x1="128" y1="92" x2="324" y2="92" stroke="white" stroke-width="12"/>
<line x1="128" y1="143" x2="324" y2="143" stroke="white" stroke-width="12"/>
<line x1="128" y1="194" x2="324" y2="194" stroke="white" stroke-width="12"/>
<line x1="128" y1="245" x2="324" y2="245" stroke="white" stroke-width="12"/>
<line x1="128" y1="296" x2="324" y2="296" stroke="white" stroke-width="12"/>
<line x1="127" y1="299" x2="127" y2="366" stroke="white" stroke-width="10" stroke-linecap="round"/>
<line x1="327" y1="299" x2="327" y2="366" stroke="white" stroke-width="10" stroke-linecap="round"/>
<path d="M25.9495 63.0364C26.0756 63.3393 26.2658 63.6113 26.5071 63.8336C26.7484 64.0559 27.035 64.2233 27.3473 64.3242C27.6595 64.4251 27.9898 64.4571 28.3156 64.418C28.6413 64.3789 28.9548 64.2697 29.2342 64.0978C37.6356 58.937 37.8277 59.1777 42.8244 65.2759C43.1676 65.6944 43.6488 65.9767 44.1816 66.0719C44.7143 66.1671 45.2635 66.0689 45.7304 65.7952C50.6243 62.9194 54.6566 63.6507 58.7937 68.1646C59.1163 68.5166 59.5417 68.758 60.0094 68.8543C60.477 68.9507 60.9632 68.8971 61.3987 68.7013C61.8341 68.5054 62.1968 68.1773 62.435 67.7635C62.6732 67.3496 62.7749 66.8712 62.7256 66.3963C62.0936 60.306 64.2174 56.8073 69.6208 55.0508C70.136 54.8841 70.5745 54.5385 70.8569 54.0765C71.1394 53.6145 71.2471 53.0667 71.1605 52.5322C69.9136 44.7475 69.8646 44.4437 79.2967 41.583C79.6107 41.4879 79.9004 41.3259 80.1458 41.1081C80.3912 40.8903 80.5864 40.622 80.7181 40.3214C80.8498 40.0209 80.9148 39.6954 80.9085 39.3674C80.9023 39.0394 80.8251 38.7166 80.6821 38.4213C78.752 34.4297 80.5138 32.4105 84.9935 28.7569C88.5259 25.8759 90.3788 21.4559 92.116 16.7973C92.3085 16.2816 92.3071 15.7135 92.1121 15.1987C91.917 14.6839 91.5416 14.2575 91.0557 13.9988C90.5697 13.7402 90.0064 13.6668 89.4704 13.7924C88.9345 13.9181 88.4624 14.2341 88.142 14.6818C83.4245 21.2752 76.8081 24.9195 67.3162 26.1525L67.3157 26.1514C64.6016 26.51 62.7277 30.4373 62.4364 32.5392C61.8287 36.9354 61.1331 40.3765 58.3361 42.7676C58.0947 42.3088 57.8835 41.8348 57.7039 41.3485C57.4393 40.6384 57.1679 39.9701 57.0906 39.7982C56.7061 38.9592 56.0763 38.2564 55.2844 37.7825C55.2062 37.0161 55.1788 36.2453 55.2024 35.4753C55.2189 34.9753 55.0699 34.4838 54.7785 34.0772C54.4871 33.6705 54.0695 33.3715 53.5908 33.2265C53.112 33.0814 52.5987 33.0986 52.1306 33.2752C51.6626 33.4517 51.2659 33.7779 51.0022 34.2031L49.0958 37.2769C48.0973 37.5561 47.1434 37.9753 46.2624 38.522L42.7441 37.917C42.2511 37.8323 41.7439 37.9128 41.3013 38.1459C40.8587 38.3791 40.5054 38.7518 40.2965 39.2064C40.0875 39.6609 40.0345 40.1717 40.1457 40.6594C40.2569 41.1472 40.5261 41.5845 40.9114 41.9036C41.4327 42.3406 41.9298 42.8058 42.4002 43.2973C42.1358 44.2957 42.218 45.3544 42.6333 46.3001C42.7106 46.472 43.0305 47.1184 43.3886 47.7902C43.632 48.2466 43.8457 48.7183 44.0285 49.2022C40.3822 49.7076 37.3476 47.9453 33.6554 45.483C31.8882 44.3057 27.6933 43.0992 25.6393 44.8959C18.4194 51.1752 11.3025 53.7097 3.23891 52.8656C2.69142 52.8082 2.14174 52.9517 1.69213 53.2693C1.24251 53.5869 0.923595 54.0571 0.794704 54.5923C0.665812 55.1275 0.735724 55.6912 0.991433 56.1787C1.24714 56.6662 1.67124 57.0442 2.18481 57.2424C6.82275 59.0338 11.3591 60.5804 15.8583 59.8493C21.5643 58.9222 24.2439 58.9438 25.9495 63.0364ZM28.3879 48.5232C29.3507 48.5396 30.2946 48.7933 31.1359 49.2618C35.078 51.8902 40.4756 55.4896 47.591 52.9764C48.1058 52.7929 48.5376 52.4303 48.8074 51.955C49.0773 51.4797 49.1673 50.9231 49.0611 50.387C48.7499 48.7345 48.1889 47.139 47.3975 45.6554C47.1086 45.113 46.8452 44.5895 46.792 44.4955C46.8139 44.3141 46.8765 44.1401 46.9752 43.9864C47.1205 43.7239 47.2122 43.4351 47.2448 43.1368C47.5673 43.0695 47.8714 42.9328 48.1357 42.7361C48.9567 42.1114 49.9145 41.691 50.9301 41.5097C51.263 41.4494 51.5784 41.3159 51.8534 41.1188C52.0839 41.3082 52.3494 41.4503 52.6348 41.537C52.7413 41.5725 52.8456 41.6141 52.9473 41.6615L52.9474 41.659C53.0159 41.8142 53.2328 42.3586 53.4466 42.9312C54.0376 44.5237 54.8691 46.0162 55.9123 47.3567C56.2457 47.7801 56.7189 48.0711 57.2473 48.1774C57.7756 48.2838 58.3246 48.1986 58.7958 47.9371C65.3973 44.2812 66.286 37.8548 66.9352 33.1615C67.1429 32.2212 67.5794 31.3467 68.206 30.6155C72.0634 30.1429 75.8333 29.1201 79.4007 27.5784C76.7381 30.106 74.4768 33.3613 75.6796 37.9633C67.0241 40.8396 65.3452 43.3162 66.4073 51.4174C66.3533 51.4404 66.2997 51.4645 66.2461 51.4886C64.129 52.3484 62.2772 53.7533 60.8789 55.5605C59.4806 57.3677 58.5857 59.5129 58.285 61.7781C56.3909 60.4999 54.1922 59.746 51.9122 59.593C49.6323 59.44 47.3526 59.8933 45.3046 60.9069C45.251 60.931 45.1974 60.9551 45.1443 60.9803C39.7867 54.8097 36.8203 54.4234 28.9262 58.9901C26.2813 55.0367 22.3455 54.5684 18.6877 54.8834C22.2079 53.2369 25.4745 51.0951 28.3879 48.5232Z" fill="white"/>
<path d="M108.987 50.194C105.854 55.0727 101.466 57.5385 94.7695 58.1843L94.7685 58.1848C92.2395 58.4333 90.8952 61.8623 90.7377 63.645C90.4786 66.5834 90.1741 68.8396 88.9433 70.4472C88.8862 70.3148 88.8336 70.1817 88.7815 70.047C88.5649 69.4733 88.3424 68.9326 88.2792 68.7921C87.974 68.1213 87.4996 67.5415 86.9025 67.1097C86.8337 66.5584 86.7953 66.0038 86.7875 65.4483C86.7824 64.946 86.611 64.4596 86.3002 64.0651C85.9893 63.6707 85.5564 63.3903 85.0693 63.268C84.5821 63.1457 84.0682 63.1883 83.6078 63.3891C83.1475 63.59 82.7666 63.9377 82.5249 64.378L81.3845 66.4594C80.817 66.6361 80.271 66.8755 79.7566 67.1733L77.4686 66.652C76.9786 66.5405 76.4654 66.5946 76.0095 66.806C75.5535 67.0173 75.1805 67.3739 74.9489 67.8199C74.7173 68.2659 74.6402 68.7761 74.7296 69.2706C74.8189 69.7652 75.0698 70.2161 75.4429 70.5528C75.7186 70.8008 76.1179 71.1939 76.4592 71.5717C76.3269 72.3838 76.4345 73.2169 76.7688 73.9687C76.832 74.1093 77.088 74.6324 77.373 75.1742C77.4397 75.3035 77.5043 75.4337 77.5664 75.5638C75.547 75.4179 73.657 74.1487 71.2872 72.3938C69.8495 71.3272 66.3988 70.0536 64.5261 71.7858C59.5988 76.369 54.8451 78.0157 49.1147 77.1204C48.572 77.0357 48.017 77.1506 47.5524 77.4437C47.0879 77.7369 46.7454 78.1885 46.5883 78.7148C46.4312 79.2411 46.4702 79.8066 46.698 80.3064C46.9259 80.8062 47.3271 81.2065 47.8275 81.4331C51.3519 83.0275 54.7996 84.4217 58.2452 83.9675C62.2354 83.4399 63.8641 83.528 65.1461 86.5759C65.274 86.8805 65.4669 87.1535 65.7113 87.3759C65.9557 87.5983 66.2456 87.7647 66.5609 87.8635C66.8763 87.9622 67.2093 87.991 67.5369 87.9477C67.8645 87.9045 68.1787 87.7903 68.4575 87.6131C73.8618 84.1795 73.8643 84.1796 77.5474 88.933C77.8898 89.3714 78.3807 89.6696 78.9276 89.7714C79.4745 89.8732 80.0397 89.7715 80.5169 89.4857C82.7429 88.1417 85.5289 87.3508 89.2861 91.7256C89.6054 92.0973 90.0364 92.3558 90.5147 92.4623C90.993 92.5689 91.493 92.5179 91.9399 92.3169C92.3868 92.1159 92.7567 91.7757 92.9944 91.3471C93.232 90.9186 93.3246 90.4246 93.2584 89.9391C92.4793 84.2274 94.9108 82.667 97.4013 81.8922C97.9324 81.7258 98.3842 81.3706 98.6711 80.8936C98.958 80.4166 99.0601 79.851 98.9582 79.3038C97.8449 73.3923 97.8469 73.3914 104.002 71.6275C104.32 71.5364 104.614 71.3771 104.863 71.1608C105.113 70.9444 105.312 70.6761 105.448 70.3747C105.583 70.0733 105.651 69.7459 105.647 69.4156C105.643 69.0852 105.566 68.7597 105.423 68.4618C103.994 65.4804 105.009 64.2034 108.051 61.5682C110.677 59.2917 111.922 55.7873 113.067 52.0926C113.23 51.5679 113.196 51.0021 112.974 50.5C112.751 49.9979 112.354 49.5935 111.856 49.3618C111.358 49.1301 110.793 49.0867 110.265 49.2398C109.738 49.3928 109.283 49.7318 108.987 50.1941L108.987 50.194ZM100.455 67.973C94.5545 69.9772 93.2714 72.1579 94.1805 78.2939C92.7768 78.9403 91.5527 79.9206 90.6153 81.1493C89.6779 82.3779 89.0557 83.8175 88.8031 85.3421C87.4949 84.5194 86.005 84.0296 84.4638 83.9157C82.9226 83.8017 81.3769 84.067 79.9619 84.6884C75.9725 79.9379 73.4875 79.4408 68.0774 82.5341C67.3947 81.5579 66.4972 80.7512 65.4539 80.1762C64.4105 79.6012 63.2492 79.2733 62.0592 79.2175C63.9031 78.1776 65.6236 76.9327 67.1881 75.5066C67.6829 75.5951 68.1563 75.7771 68.583 76.0428C71.6455 78.3106 75.8393 81.4178 81.3019 79.5496C81.8296 79.3666 82.2719 78.9965 82.5451 78.5093C82.8183 78.0221 82.9033 77.4517 82.7842 76.906C82.498 75.5696 82.031 74.2784 81.3962 73.0681C81.2162 72.7248 81.0501 72.3933 80.9609 72.211C80.9753 72.1678 80.9925 72.1256 81.0122 72.0846C81.0775 71.9502 81.1292 71.8097 81.1664 71.6651C81.3255 71.5912 81.4754 71.4989 81.613 71.3901C82.0798 71.0157 82.6371 70.7713 83.2287 70.6817C83.4077 70.6548 83.5828 70.6067 83.7503 70.5383C83.8865 70.6251 84.0307 70.6987 84.181 70.7579C84.2587 70.9442 84.3973 71.2929 84.5361 71.6584C85.0047 72.9029 85.6396 74.0783 86.4236 75.1524C86.4362 75.1723 86.4522 75.1944 86.4682 75.2163C86.7921 75.6789 87.2769 76.0039 87.8278 76.1279C88.3787 76.2518 88.956 76.1657 89.4468 75.8865C94.4692 73.0393 94.9272 67.8399 95.2622 64.043C95.3471 63.5478 95.5252 63.0733 95.7871 62.6446C97.8921 62.4205 99.9651 61.9593 101.967 61.2698C101.219 62.197 100.693 63.2835 100.431 64.4456C100.169 65.6077 100.177 66.8145 100.455 67.973Z" fill="white"/>
<path d="M396.916 49.9396C400.207 50.95 403.695 49.1006 404.706 45.8088C405.716 42.5169 403.866 39.0293 400.575 38.0189C397.283 37.0085 393.795 38.858 392.785 42.1498C391.774 45.4416 393.624 48.9293 396.916 49.9396Z" fill="white"/>
<path d="M371.584 42.1643C374.875 43.1746 378.363 41.3252 379.373 38.0334C380.384 34.7416 378.534 31.2539 375.243 30.2435C371.951 29.2331 368.463 31.0826 367.453 34.3744C366.442 37.6662 368.292 41.1539 371.584 42.1643Z" fill="white"/>
<path d="M383.334 49.0328C381.556 48.4869 379.646 48.6306 378.024 49.4323C376.402 50.234 375.201 51.6279 374.685 53.3075L370.797 65.9733C370.282 67.6528 370.494 69.4805 371.387 71.0541C372.28 72.6277 373.781 73.8184 375.559 74.3643C377.337 74.9101 379.248 74.7664 380.87 73.9648C382.492 73.1631 383.693 71.7691 384.208 70.0896L388.096 57.4238C388.611 55.7442 388.399 53.9166 387.506 52.343C386.613 50.7693 385.113 49.5786 383.334 49.0328Z" fill="white"/>
<path d="M395.226 10.2908C386.334 7.57204 376.732 8.47482 368.527 12.801C360.321 17.1273 354.183 24.5236 351.457 33.3672L338.095 76.9022C337.722 78.1191 337.725 79.4205 338.104 80.6374C338.484 81.8544 339.221 82.9306 340.221 83.7264C341.221 84.5222 342.437 85.0008 343.712 85.1C344.987 85.1992 346.261 84.9145 347.369 84.2828C348.878 83.4184 349.479 83.211 350.524 83.5319C351.679 83.8865 352.022 84.4863 352.837 86.1669C353.353 87.5558 354.177 88.8117 355.246 89.8411C356.316 90.8706 357.605 91.6471 359.016 92.1129C360.446 92.5188 361.948 92.5984 363.412 92.3459C364.875 92.0934 366.262 91.5152 367.468 90.6544C369.087 89.7243 369.698 89.4173 370.848 89.77C371.997 90.1227 372.336 90.7215 373.149 92.3982C373.637 93.8035 374.45 95.0749 375.524 96.1088C376.598 97.1428 377.901 97.9099 379.327 98.3477C380.753 98.7855 382.263 98.8816 383.731 98.628C385.2 98.3745 386.587 97.7785 387.779 96.8888C389.399 95.9586 390.01 95.6517 391.159 96.0043C392.198 96.3234 392.576 96.8209 393.323 98.3615C393.883 99.5108 394.778 100.466 395.89 101.103C397.001 101.74 398.279 102.029 399.556 101.933C400.834 101.836 402.051 101.358 403.05 100.561C404.048 99.7642 404.782 98.6855 405.154 97.4656L418.512 53.9487C421.217 45.0992 420.285 35.5326 415.92 27.3478C411.554 19.1631 404.112 13.0288 395.226 10.2908ZM399.06 95.5915C398.542 94.2613 397.732 93.063 396.688 92.0849C395.644 91.1069 394.394 90.374 393.03 89.9404C391.6 89.5345 390.098 89.4549 388.634 89.7074C387.171 89.9599 385.785 90.5381 384.578 91.3989C382.959 92.329 382.348 92.636 381.199 92.2833C380.049 91.9306 379.71 91.3318 378.897 89.6551C378.409 88.2503 377.595 86.9794 376.521 85.9458C375.447 84.9123 374.144 84.1454 372.718 83.7077C371.292 83.27 369.783 83.1738 368.315 83.4269C366.846 83.6801 365.459 84.2755 364.267 85.1645C362.647 86.0977 362.032 86.4038 360.883 86.0511C359.734 85.6984 359.388 85.0976 358.57 83.416C358.054 82.0272 357.231 80.7713 356.161 79.7419C355.091 78.7124 353.803 77.9359 352.391 77.4701C351.012 77.0625 349.559 76.968 348.14 77.1935C346.721 77.4191 345.371 77.9589 344.191 78.7733L357.553 35.2382C359.776 27.9977 364.797 21.9408 371.513 18.4C378.229 14.8592 386.089 14.1245 393.364 16.3575C400.639 18.5906 406.734 23.6085 410.307 30.3073C413.879 37.0061 414.638 44.8372 412.416 52.0777L399.06 95.5915Z" fill="white"/>
</svg>
