<svg width="86" height="73" viewBox="0 0 86 73" fill="none" xmlns="http://www.w3.org/2000/svg">
<g clip-path="url(#clip0)">
<path d="M46.9241 55.4408C31.7068 55.4408 19.3707 43.1047 19.3707 27.8874C19.3707 12.6701 31.7068 0.333984 46.9241 0.333984C62.1415 0.333984 74.4775 12.6701 74.4775 27.8874C74.4775 43.1047 62.1415 55.4408 46.9241 55.4408Z" fill="#263238"/>
<path d="M62.343 45.978C49.7074 45.978 39.4654 35.7359 39.4654 23.1003C39.4654 10.4647 49.7074 0.222656 62.343 0.222656C74.9786 0.222656 85.2207 10.4647 85.2207 23.1003C85.165 35.7359 74.923 45.978 62.343 45.978Z" fill="#263238"/>
<path d="M22.8215 39.4082C22.8215 39.4082 26.4953 56.8309 27.9982 59.6697C29.0001 61.4509 38.0733 63.5105 40.0215 64.1228L32.2843 51.0975L22.8215 39.4082Z" fill="#263238"/>
<path d="M31.8952 40.188C30.5036 41.023 28.4997 38.2955 26.7742 36.5143C25.0486 34.733 19.4266 32.2282 16.6434 38.1842C13.8603 44.0845 19.0926 52.2113 23.5457 53.6029C31.1159 55.9965 32.3405 51.0981 32.3405 51.0981L32.4518 57.7777C39.9107 65.6819 44.0855 66.3499 52.0454 68.1867L57.7787 69.5783C61.1742 70.135 64.6253 70.302 68.0764 70.135C73.7541 69.2444 77.2052 64.8469 78.9308 58.7796C81.6583 48.9829 82.7159 41.1343 80.378 21.8748C77.8175 0.833997 53.3256 0.611343 40.0777 8.90519C26.8298 17.199 31.8952 40.188 31.8952 40.188Z" fill="#E2B393"/>
<path d="M54.7168 37.0722C54.7168 37.5732 54.5498 38.0185 54.2158 38.4638C53.9375 38.8535 53.5479 39.1874 53.0469 39.3544C52.6016 39.5214 52.1006 39.5771 51.5996 39.4658C51.0987 39.3544 50.6534 39.1318 50.3194 38.7421C49.9854 38.3525 49.7627 37.9072 49.6514 37.4619C49.5401 36.9609 49.5958 36.4599 49.8184 36.0146C50.0411 35.5693 50.3194 35.1797 50.7647 34.9014C51.1543 34.623 51.6553 34.5117 52.1563 34.5117C52.4903 34.5117 52.8242 34.5674 53.1582 34.7344C53.4922 34.8457 53.7705 35.0684 53.9932 35.291C54.2158 35.5137 54.4385 35.8476 54.5498 36.126C54.6611 36.4043 54.7168 36.7383 54.7168 37.0722Z" fill="#263238"/>
<path d="M51.9893 28.1097L46.5899 31.0599C46.2003 30.3362 46.1446 29.4456 46.3672 28.6663C46.5899 27.8871 47.1465 27.1634 47.8702 26.7738C48.2041 26.5511 48.5938 26.4398 49.0391 26.4398C49.4287 26.3841 49.8184 26.4398 50.208 26.5511C50.5977 26.6625 50.9317 26.8851 51.2656 27.1634C51.5439 27.4417 51.7666 27.7757 51.9893 28.1097Z" fill="#263238"/>
<path d="M56.5538 54.4375L62.2314 56.6084C61.9531 57.3877 61.4522 58 60.7285 58.3339C60.0049 58.6679 59.17 58.7236 58.4463 58.5009C57.667 58.2226 57.0547 57.6103 56.6651 56.831C56.3311 56.1074 56.3311 55.2168 56.5538 54.4375Z" fill="#CCA285"/>
<path d="M77.1498 29.6674L72.2514 25.8823C72.4741 25.5483 72.7524 25.27 73.142 25.0473C73.476 24.8246 73.8657 24.7133 74.2553 24.6577C74.6449 24.602 75.0903 24.602 75.4799 24.7133C75.8695 24.8246 76.2592 24.9916 76.5375 25.27C77.2055 25.7709 77.6508 26.5502 77.7621 27.3852C77.8178 28.1088 77.5951 28.9994 77.1498 29.6674Z" fill="#263238"/>
<path d="M75.5908 36.347C75.5908 36.6809 75.5352 37.0149 75.4238 37.3489C75.3125 37.6829 75.0898 37.9612 74.8672 38.1838C74.6445 38.4065 74.3662 38.6292 74.0322 38.7405C73.6983 38.8518 73.4199 38.9631 73.0303 38.9631C72.5293 38.9631 71.9727 38.8518 71.5274 38.5735C71.0821 38.2952 70.7481 37.9055 70.5254 37.4046C70.3028 36.9036 70.2471 36.4026 70.3585 35.9016C70.4698 35.4007 70.6924 34.8997 71.0264 34.5101C71.4161 34.1204 71.8614 33.8978 72.3623 33.7864C72.8633 33.6751 73.4199 33.7308 73.8653 33.8978C74.3662 34.1204 74.7559 34.4544 75.0342 34.844C75.4795 35.2893 75.5908 35.846 75.5908 36.347Z" fill="#263238"/>
<path d="M62.7882 33.9551L63.6231 49.0955L71.5273 46.4237L62.7882 33.9551Z" fill="#CCA285"/>
<path d="M51.6552 46.4786C51.9335 46.1446 51.9335 45.5879 51.5995 45.3096L46.7568 41.0792C46.4228 40.8009 45.8662 40.8009 45.5879 41.1349C45.3095 41.4689 45.3095 42.0255 45.6435 42.3038L50.4862 46.5342C50.8202 46.8682 51.3212 46.8125 51.6552 46.4786Z" fill="#0F0F0E"/>
<path d="M47.4247 51.3223C47.703 50.9883 47.703 50.4317 47.369 50.1534L42.5263 45.923C42.1923 45.6446 41.6357 45.6446 41.3574 45.9786C41.0791 46.3126 41.0791 46.8692 41.4131 47.1476L46.2558 51.378C46.5897 51.712 47.1464 51.6563 47.4247 51.3223Z" fill="white"/>
<path d="M49.4286 48.9278C49.7069 48.5938 49.7069 48.0372 49.3729 47.7588L44.5302 43.5284C44.1962 43.2501 43.6396 43.2501 43.3613 43.5841C43.083 43.9181 43.083 44.4747 43.417 44.753L48.2597 48.9834C48.5937 49.3174 49.1503 49.2618 49.4286 48.9278Z" fill="#848280"/>
<path d="M73.3639 44.7524C73.1412 44.4741 73.1412 44.0844 73.4195 43.8618L76.982 40.7446C77.2603 40.5219 77.6499 40.5219 77.8726 40.8003C78.0952 41.0786 78.0952 41.4682 77.8169 41.6909L74.2545 44.808C73.9762 45.0307 73.5865 44.975 73.3639 44.7524Z" fill="#0F0F0E"/>
<path d="M76.481 48.3149C76.2584 48.0365 76.2584 47.6469 76.5367 47.4242L80.0992 44.3071C80.3775 44.0844 80.7671 44.0844 80.9898 44.3628C81.2124 44.6411 81.2124 45.0307 80.9341 45.2534L77.3717 48.3705C77.0933 48.5932 76.7037 48.5932 76.481 48.3149Z" fill="white"/>
<path d="M74.9781 46.5336C74.7555 46.2553 74.7555 45.8657 75.0338 45.643L78.5962 42.5258C78.8745 42.3032 79.2642 42.3032 79.4868 42.5815C79.7095 42.8598 79.7095 43.2495 79.4312 43.4721L75.8687 46.5893C75.5904 46.8119 75.2008 46.8119 74.9781 46.5336Z" fill="#848280"/>
<path d="M34.0654 28.8895C34.0654 28.8895 33.2305 42.5827 34.3994 47.2027C34.3994 47.2027 25.5489 36.1814 24.8253 33.0642C24.8253 33.1199 30.9483 27.0526 34.0654 28.8895Z" fill="#263238"/>
<path d="M66.1281 0.500372L74.5889 6.56769C74.5889 6.56769 78.04 7.79228 77.4277 8.84989L78.4854 9.51785C78.2627 9.85183 72.3624 17.756 63.9015 24.4913C56.2756 30.503 48.9837 33.5644 42.3598 33.5644C38.9643 33.5644 35.7358 32.7852 32.73 31.1153L33.231 30.2803C32.73 30.2803 32.229 30.336 31.7281 30.336L27.6646 31.0039C27.6646 30.9483 16.365 -4.62066 66.1281 0.500372ZM59.6154 24.2687C53.8265 27.0518 46.3676 29.2784 36.9604 30.0577C44.642 32.6182 52.7688 29.167 59.6154 24.2687Z" fill="#263238"/>
<path d="M24.2136 21.9862H79.3761C82.9942 21.9862 86 19.7597 86 17.0322C86 14.3047 83.0498 12.0781 79.3761 12.0781H24.2136C20.5955 12.0781 17.5896 14.3047 17.5896 17.0322C17.534 19.7597 20.5955 21.9862 24.2136 21.9862Z" fill="#F9AB10"/>
<path d="M31.8399 14.6385C28.6735 14.6385 26.1066 12.0716 26.1066 8.90521C26.1066 5.73878 28.6735 3.17188 31.8399 3.17188C35.0063 3.17188 37.5732 5.73878 37.5732 8.90521C37.5732 12.0716 35.0063 14.6385 31.8399 14.6385Z" fill="#E8E8E8"/>
<path d="M22.4881 3.17263C17.0888 3.0613 11.3554 4.00758 7.40333 7.6257C4.17485 10.5759 2.61627 14.9733 1.61433 19.2037C-0.166901 26.4399 -0.723534 34.1215 1.33601 41.3021C2.89459 46.7014 5.90042 51.5998 7.57032 56.9435C9.24023 62.2872 9.24022 68.7442 5.45511 72.9189C13.582 69.1338 21.4305 63.1778 23.9354 54.55C25.4383 49.3176 24.826 43.6956 24.158 38.2963C23.4901 32.8969 22.8221 27.2749 24.3807 22.0425C25.2156 19.2037 26.7742 16.5319 28.9451 14.5836C30.615 13.0807 34.0104 12.4128 34.7897 10.1862C36.9606 3.72926 25.8836 3.28396 22.4881 3.17263Z" fill="#263238"/>
</g>
<defs>
<clipPath id="clip0">
<rect width="86" height="72.9748" fill="white" transform="matrix(-1 0 0 1 86 0)"/>
</clipPath>
</defs>
</svg>
