<svg width="149" height="394" viewBox="0 0 149 394" fill="none" xmlns="http://www.w3.org/2000/svg">
<path d="M112.17 121.964C114.779 126.556 116.968 131.612 116.757 136.92C116.673 139.448 115.874 142.102 113.811 143.576C111.875 144.925 109.265 144.882 107.077 144.04C102.11 142.186 99.0374 137.089 97.6484 131.949C96.4699 127.652 96.1332 123.186 95.8385 118.762C95.6281 115.982 95.4597 113.033 96.7224 110.547C98.4481 107.135 102.826 105.829 104.972 109.283C107.498 113.412 109.813 117.793 112.17 121.964Z" fill="#CCA285"/>
<path d="M74.2887 389.568C35.3972 389.568 3.82941 374.528 3.82941 355.949C3.82941 337.37 35.3972 322.33 74.2887 322.33C113.18 322.33 144.748 337.37 144.748 355.949C144.748 374.486 113.222 389.568 74.2887 389.568Z" fill="#EBEBEB"/>
<path d="M76.7306 213.301C79.7611 209.593 84.8961 207.698 89.6102 208.582C94.1981 209.425 99.1227 213.09 99.7119 217.935C100.512 224.634 100.764 231.543 101.017 238.283C101.522 252.987 100.89 267.69 99.1647 282.266C98.4913 288.164 97.6074 294.02 96.5551 299.834H96.5972L94.8715 331.515L82.2865 331.094V308.513C82.2444 308.302 82.2023 308.134 82.2023 307.923C81.15 301.393 80.0557 294.821 79.719 288.207C79.3822 281.213 79.8873 274.178 79.3402 267.184C78.4142 254.756 74.3314 242.791 73.195 230.405C72.6057 224.423 72.9424 217.935 76.7306 213.301Z" fill="#E2B393"/>
<path d="M36.5752 273.714C38.0905 257.916 36.7857 241.991 35.4388 226.151C35.3546 224.887 45.0354 224.002 46.0877 224.002C49.7495 223.96 53.3693 224.592 56.8207 225.856C60.3142 227.162 63.3447 228.046 63.471 231.922C63.5972 236.388 63.1343 240.938 62.7554 245.404C61.3244 263.266 58.0413 280.919 55.1371 298.571C53.7902 306.617 52.5275 314.706 51.5594 322.795L51.2648 353.718H38.6798L37.6696 327.261C36.8699 323.09 37.0803 317.739 36.3227 314.116C33.5447 299.961 35.1863 288.123 36.5752 273.714Z" fill="#E2B393"/>
<path d="M70.2911 226.867L70.7541 193.585C70.7541 193.585 69.1125 214.565 67.4289 232.47C60.947 235.419 48.404 242.286 30.0947 233.945C29.5055 213.765 38.6391 173.827 38.6391 164.769L98.2391 147.58C98.2391 147.58 110.109 191.1 111.287 219.958C106.32 222.57 81.9501 229.648 70.2911 226.867Z" fill="#37474F"/>
<path d="M70.7521 193.583C77.234 191.561 83.253 188.149 88.2617 183.557C88.2617 183.557 84.8945 189.876 74.8349 195.774L70.2891 226.908L70.7521 193.583Z" fill="#263238"/>
<path d="M91.1251 114.802C96.9336 115.013 102.616 113.37 107.414 110.126C105.394 101.363 102.784 92.7263 99.6694 84.3005C94.5344 71.0719 88.6838 69.0497 79.5923 69.2182L91.1251 114.802Z" fill="#BA68C8"/>
<path d="M90.5779 114.76C99.5432 115.476 107.414 110.126 107.414 110.126C105.394 101.363 102.784 92.7263 99.6694 84.3005C94.5344 71.0719 88.6838 69.0497 79.5923 69.2182L90.5779 114.76Z" fill="#838084"/>
<path d="M94.8698 329.576C94.8698 329.576 96.0483 308.891 98.3633 289.006C98.3633 289.006 88.2195 294.946 79.6751 290.438L81.9059 311.503C81.9059 311.503 82.5794 327.596 82.2006 328.018C81.8638 328.439 86.3254 334.885 94.8698 329.576Z" fill="#2D2C2D"/>
<path d="M94.9559 327.64C95.5873 327.64 96.1344 328.567 97.5655 330.167C99.7121 332.358 102.238 334.128 104.973 335.476C109.688 337.835 118.821 341.458 122.988 343.354C125.556 344.534 125.471 347.651 122.778 349.421C120.084 351.19 113.644 352.496 105.899 350.769C101.648 349.842 96.1765 345.924 92.683 346.134C89.1895 346.345 82.6655 346.303 80.098 344.534C77.5726 342.764 78.5406 338.972 79.2983 335.729C80.098 332.19 81.0661 326.629 82.2446 326.881V328.103C83.7599 330.378 91.5466 331.347 94.8717 329.62L94.9559 327.64Z" fill="#F9AB10"/>
<path d="M51.3492 347.987C51.3492 347.987 50.3391 318.581 56.1055 293.725C56.1055 293.725 45.7512 303.625 34.3447 295.831C34.3447 295.831 37.2069 329.113 37.2069 330.588C37.2069 332.104 38.4696 346.723 38.4696 346.723C38.4696 346.723 40.7425 354.096 51.3492 347.987Z" fill="#2D2C2D"/>
<path d="M51.2235 347.651V345.797C52.4441 346.345 55.2221 357.003 60.2309 361.595C64.1874 365.218 69.617 369.389 70.9639 373.434C72.3529 377.478 63.4297 379.964 59.7258 379.29C55.4325 378.531 47.9405 375.498 46.0885 372.675C44.1944 369.853 43.3526 365.724 41.7953 363.66C40.2379 361.595 36.7444 359.362 35.9447 356.919C35.5238 355.613 36.0289 352.748 36.6602 350.305C37.2916 347.861 37.8808 345.628 38.6385 345.839V347.271C40.4484 348.662 42.6371 349.42 44.91 349.378C46.7619 349.336 51.2656 348.999 51.2235 347.651Z" fill="#F9AB10"/>
<path d="M97.437 151.454C98.6155 148.463 100.594 145.177 103.877 141.807C104.466 146.989 106.108 152.213 108.549 156.636C103.666 155.499 100.047 153.603 97.437 151.454ZM103.372 143.365C101.099 145.893 99.4152 148.547 98.2788 151.244C100.762 153.182 103.751 154.656 107.202 155.583C105.392 151.833 104.045 147.578 103.372 143.365Z" fill="#262227"/>
<path d="M98.28 151.2C99.4164 148.504 101.1 145.85 103.373 143.322C104.004 147.577 105.351 151.79 107.203 155.54C103.752 154.613 100.763 153.138 98.28 151.2Z" fill="#2E2A2F"/>
<path d="M112.506 134.771C114.232 133.634 115.874 132.665 117.389 131.822C119.62 132.96 122.019 134.392 124.502 136.162C127.112 138.057 129.3 139.953 131.152 141.849C130.521 147.073 128.837 152.381 126.354 156.805C123.955 157.268 121.219 157.563 118.062 157.563C114.442 157.563 111.286 157.226 108.55 156.594C106.109 152.171 104.467 146.947 103.878 141.765C106.109 139.49 108.971 137.131 112.506 134.771ZM109.013 156.004C111.749 156.594 114.779 156.889 118.062 156.889C120.882 156.889 123.534 156.678 125.891 156.215C128.206 152.044 129.763 147.073 130.395 142.102C128.543 140.206 126.438 138.394 124.081 136.709C121.85 135.108 119.577 133.718 117.389 132.581C115.916 133.381 114.4 134.308 112.885 135.319C109.686 137.425 106.866 139.7 104.593 142.018C105.225 146.905 106.782 151.834 109.013 156.004Z" fill="#D7D4D6"/>
<path d="M117.432 132.623C119.62 133.761 121.893 135.151 124.124 136.752C126.481 138.437 128.586 140.248 130.438 142.144C129.806 147.073 128.207 152.045 125.934 156.258C123.535 156.679 120.925 156.932 118.105 156.932C114.864 156.932 111.834 156.637 109.056 156.047C106.825 151.876 105.267 146.947 104.636 142.102C106.909 139.785 109.729 137.51 112.928 135.404C114.443 134.35 115.958 133.424 117.432 132.623Z" fill="#F7F6F7"/>
<path d="M93.5234 142.775C93.5234 142.944 93.4813 143.112 93.4813 143.281C93.4813 143.112 93.4813 142.944 93.5234 142.775Z" fill="#D7D4D6"/>
<path d="M97.1847 150.275C98.4895 147.242 100.51 144.335 103.161 141.554C102.656 136.92 102.993 132.496 104.172 128.747C103.793 128.747 103.372 128.705 102.993 128.705C101.604 128.705 100.257 128.831 98.9945 129.084C96.3429 132.286 94.5751 136.077 93.8595 140.164C94.6592 135.614 96.7638 131.527 99.7101 128.284C101.267 128.031 103.077 127.947 105.098 128.115C103.667 132.202 103.33 137.004 103.877 141.807C100.636 145.177 98.6157 148.463 97.4372 151.455C95.7957 150.106 94.5751 148.674 93.607 147.284C93.5228 146.694 93.4807 146.062 93.4386 145.43C93.4386 145.557 93.4386 145.641 93.4386 145.767C94.4909 147.452 95.7115 148.969 97.1847 150.275Z" fill="#D7D4D6"/>
<path d="M93.6504 141.512C93.6083 141.722 93.6083 141.933 93.5662 142.186C93.5662 141.975 93.6083 141.764 93.6504 141.512Z" fill="#D7D4D6"/>
<path d="M93.8184 140.332C93.7763 140.585 93.7342 140.838 93.6921 141.132C93.7342 140.88 93.7763 140.627 93.8184 140.332Z" fill="#D7D4D6"/>
<path d="M93.4809 143.281C93.4809 143.112 93.523 142.944 93.523 142.775C93.523 142.565 93.5651 142.396 93.5651 142.186C93.5651 141.975 93.6072 141.764 93.6493 141.512C93.6493 141.385 93.6914 141.259 93.6914 141.132C93.7335 140.88 93.7755 140.585 93.8176 140.332C93.8176 140.248 93.8597 140.206 93.8597 140.121C94.5753 136.077 96.3431 132.243 98.9948 129.041C100.257 128.788 101.604 128.662 102.993 128.662C103.372 128.662 103.751 128.662 104.172 128.704C103.035 132.454 102.699 136.877 103.162 141.512C100.51 144.292 98.5318 147.241 97.1849 150.232C95.7117 148.926 94.4911 147.41 93.4809 145.724C93.4809 145.598 93.4809 145.472 93.4809 145.387C93.4809 145.05 93.4388 144.713 93.4388 144.376C93.4388 144.039 93.4809 143.66 93.4809 143.281Z" fill="#F7F6F7"/>
<path d="M126.354 156.847C124.039 160.976 121.05 164.389 117.515 166.411C113.937 164.346 110.906 160.85 108.549 156.637C111.285 157.227 114.442 157.606 118.062 157.606C121.176 157.564 123.954 157.311 126.354 156.847ZM117.515 165.568C120.292 163.883 122.818 161.187 124.965 157.774C122.818 158.111 120.503 158.28 118.02 158.28C115.157 158.28 112.422 158.069 109.896 157.606C112.085 161.145 114.694 163.883 117.515 165.568Z" fill="#262227"/>
<path d="M124.965 157.773C122.818 161.228 120.293 163.882 117.515 165.567C114.695 163.84 112.085 161.101 109.939 157.562C112.464 158.026 115.158 158.237 118.062 158.237C120.503 158.279 122.818 158.11 124.965 157.773Z" fill="#2E2A2F"/>
<path d="M137.719 151.58C135.235 153.855 131.574 155.835 126.354 156.846C128.838 152.381 130.521 147.115 131.153 141.891C134.352 145.219 136.414 148.505 137.719 151.58ZM136.877 151.412C135.614 148.631 133.846 145.977 131.658 143.449C130.984 147.747 129.595 152.086 127.701 155.835C131.363 154.909 134.478 153.434 136.877 151.412Z" fill="#262227"/>
<path d="M136.877 151.412C134.478 153.476 131.363 154.95 127.659 155.835C129.553 152.044 130.942 147.746 131.616 143.449C133.846 145.935 135.614 148.631 136.877 151.412Z" fill="#2E2A2F"/>
<path d="M103.541 124.871C103.288 125.04 103.036 125.25 102.783 125.461C102.994 125.25 103.246 125.082 103.541 124.871Z" fill="#262227"/>
<path d="M104.383 124.281C104.13 124.45 103.836 124.618 103.583 124.829C103.836 124.66 104.088 124.492 104.383 124.281Z" fill="#262227"/>
<path d="M99.7092 128.282C100.635 127.271 101.645 126.344 102.74 125.502C101.94 126.134 101.182 126.766 100.509 127.482C101.309 127.398 102.15 127.355 102.992 127.355C103.539 127.355 104.087 127.355 104.634 127.398C105.265 125.712 106.065 124.196 107.033 122.848C106.149 123.269 105.265 123.774 104.423 124.322C105.686 123.522 106.991 122.805 108.422 122.258C106.991 123.943 105.896 125.965 105.139 128.156C103.034 127.945 101.267 128.029 99.7092 128.282Z" fill="#262227"/>
<path d="M104.592 127.357C104.045 127.314 103.498 127.314 102.951 127.314C102.109 127.314 101.267 127.357 100.467 127.441C101.183 126.725 101.94 126.051 102.698 125.461C102.698 125.461 102.698 125.461 102.74 125.461C102.993 125.25 103.245 125.082 103.498 124.871L103.54 124.829C103.792 124.66 104.087 124.45 104.34 124.281C105.181 123.733 106.065 123.228 106.949 122.807C106.023 124.155 105.224 125.671 104.592 127.357Z" fill="#2E2A2F"/>
<path d="M124.503 136.161C122.019 134.392 119.62 132.959 117.389 131.822C122.44 129.041 126.523 127.819 129.722 127.482C131.363 131.737 131.742 136.793 131.153 141.848C129.343 139.953 127.154 138.057 124.503 136.161ZM129.259 128.283C126.186 128.704 122.693 129.884 118.905 131.864C120.883 132.917 122.903 134.223 124.923 135.655C126.986 137.13 128.922 138.731 130.606 140.374C130.942 135.908 130.521 131.737 129.259 128.283Z" fill="#262227"/>
<path d="M118.903 131.821C122.691 129.883 126.185 128.662 129.257 128.24C130.478 131.737 130.941 135.866 130.604 140.289C128.921 138.646 126.984 137.045 124.922 135.571C122.902 134.18 120.881 132.917 118.903 131.821Z" fill="#2E2A2F"/>
<path d="M112.507 134.772C108.929 137.131 106.109 139.49 103.879 141.807C103.331 137.005 103.668 132.202 105.099 128.115C108.551 128.41 112.718 129.463 117.432 131.823C115.874 132.665 114.233 133.634 112.507 134.772ZM104.426 140.248C106.614 138.142 109.224 136.12 112.128 134.182C113.391 133.339 114.654 132.581 115.874 131.865C112.339 130.222 108.845 129.211 105.562 128.831C104.51 132.202 104.131 136.12 104.426 140.248Z" fill="#262227"/>
<path d="M112.127 134.18C109.181 136.118 106.613 138.141 104.424 140.247C104.088 136.076 104.509 132.2 105.561 128.83C108.886 129.167 112.337 130.178 115.873 131.863C114.652 132.58 113.39 133.338 112.127 134.18Z" fill="#2E2A2F"/>
<path d="M134.055 161.651C134.266 161.44 134.518 161.187 134.729 160.977C134.518 161.187 134.266 161.398 134.055 161.651Z" fill="#D7D4D6"/>
<path d="M130.227 164.641C130.521 164.473 130.774 164.262 131.068 164.094C130.774 164.304 130.521 164.473 130.227 164.641Z" fill="#D7D4D6"/>
<path d="M128.037 165.906C128.373 165.737 128.71 165.569 129.047 165.4C128.71 165.569 128.373 165.737 128.037 165.906Z" fill="#D7D4D6"/>
<path d="M135.697 159.88C135.949 159.585 136.16 159.29 136.412 159.037C136.16 159.332 135.907 159.585 135.697 159.88Z" fill="#D7D4D6"/>
<path d="M126.354 156.846C131.616 155.835 135.235 153.855 137.719 151.58C138.224 152.718 138.603 153.855 138.939 154.95C138.224 156.383 137.424 157.731 136.456 158.953C137.214 157.984 137.887 156.93 138.476 155.835C138.224 154.782 137.887 153.771 137.466 152.718C134.688 154.993 131.111 156.551 126.817 157.436C124.629 161.27 121.893 164.303 118.947 166.325C120.378 166.999 121.893 167.463 123.366 167.589C124.965 167.168 126.523 166.62 127.954 165.862C125.934 166.831 123.787 167.547 121.514 167.968C120.125 167.631 118.778 167.084 117.515 166.367C121.009 164.387 124.039 160.975 126.354 156.846Z" fill="#D7D4D6"/>
<path d="M129.175 165.272C129.469 165.104 129.764 164.935 130.059 164.725C129.764 164.935 129.469 165.104 129.175 165.272Z" fill="#D7D4D6"/>
<path d="M133.172 162.45C133.425 162.24 133.635 162.029 133.846 161.818C133.635 162.029 133.425 162.24 133.172 162.45Z" fill="#D7D4D6"/>
<path d="M134.897 160.764C135.107 160.511 135.36 160.259 135.57 160.006C135.36 160.259 135.107 160.511 134.897 160.764Z" fill="#D7D4D6"/>
<path d="M132.247 163.209C132.5 162.998 132.752 162.83 132.963 162.619C132.71 162.83 132.5 163.04 132.247 163.209Z" fill="#D7D4D6"/>
<path d="M131.278 163.968C131.53 163.799 131.783 163.588 132.035 163.42C131.783 163.588 131.53 163.757 131.278 163.968Z" fill="#D7D4D6"/>
<path d="M118.904 166.369C121.892 164.389 124.586 161.314 126.775 157.48C131.068 156.595 134.645 154.995 137.423 152.762C137.844 153.773 138.181 154.826 138.434 155.879C137.844 156.975 137.171 158.028 136.413 158.997C136.413 159.039 136.371 159.039 136.371 159.081C136.161 159.376 135.908 159.671 135.656 159.924C135.614 159.966 135.571 160.008 135.529 160.05C135.319 160.303 135.066 160.556 134.856 160.808C134.814 160.851 134.73 160.935 134.688 160.977C134.477 161.188 134.225 161.44 134.014 161.651C133.93 161.693 133.888 161.777 133.804 161.82C133.593 162.03 133.341 162.241 133.13 162.451C133.046 162.494 133.004 162.578 132.92 162.62C132.667 162.831 132.457 163.041 132.204 163.21C132.12 163.252 132.078 163.336 131.994 163.378C131.741 163.589 131.489 163.757 131.236 163.926C131.152 163.968 131.11 164.01 131.026 164.052C130.773 164.221 130.479 164.432 130.184 164.6C130.142 164.642 130.058 164.684 130.016 164.726C129.721 164.895 129.426 165.106 129.132 165.274C129.09 165.316 129.047 165.316 129.005 165.358C128.669 165.527 128.332 165.695 127.995 165.864C127.953 165.864 127.953 165.906 127.911 165.906C126.438 166.622 124.923 167.212 123.323 167.633C121.85 167.465 120.377 167.044 118.904 166.369Z" fill="#F7F6F7"/>
<path d="M108.548 156.594C110.863 160.807 113.936 164.304 117.514 166.368C116.209 167.126 114.82 167.674 113.389 168.011C105.939 166.747 99.7094 162.071 96.258 155.667C96.4685 154.319 96.8473 152.929 97.4366 151.412C100.046 153.603 103.666 155.499 108.548 156.594ZM111.495 167.632C113.052 167.505 114.609 167.042 116.125 166.326C113.094 164.304 110.316 161.144 108.128 157.184C104.129 156.257 100.635 154.698 97.8154 152.55C97.3524 153.898 97.0156 155.288 96.8473 156.636C100.046 162.113 105.392 166.115 111.495 167.632Z" fill="#D7D4D6"/>
<path d="M108.087 157.226C110.318 161.186 113.053 164.304 116.084 166.368C114.569 167.084 113.053 167.506 111.454 167.674C105.351 166.115 100.005 162.155 96.7645 156.678C96.9329 155.33 97.2696 153.94 97.7326 152.592C100.637 154.74 104.088 156.299 108.087 157.226Z" fill="#F7F6F7"/>
<path d="M115.579 168.307C115.789 168.307 115.999 168.349 116.252 168.349C115.999 168.349 115.789 168.307 115.579 168.307Z" fill="#262227"/>
<path d="M121.555 168.011C120.208 168.264 118.819 168.39 117.43 168.39C118.272 168.39 119.071 168.348 119.913 168.264C119.113 167.969 118.314 167.632 117.556 167.211C116.756 167.632 115.957 168.011 115.157 168.264C114.568 168.222 113.978 168.137 113.431 168.053C114.862 167.716 116.251 167.168 117.556 166.41C118.777 167.126 120.124 167.674 121.555 168.011Z" fill="#262227"/>
<path d="M119.871 168.264C119.071 168.348 118.23 168.391 117.388 168.391C117.009 168.391 116.63 168.391 116.209 168.348C115.999 168.348 115.788 168.306 115.536 168.306C115.367 168.306 115.241 168.306 115.073 168.264C115.873 167.969 116.672 167.632 117.472 167.211C118.272 167.632 119.071 167.969 119.871 168.264Z" fill="#2E2A2F"/>
<path d="M95.2075 153.434C95.2917 153.602 95.3338 153.771 95.418 153.939C95.3338 153.771 95.2917 153.602 95.2075 153.434Z" fill="#262227"/>
<path d="M94.1971 150.316C94.2392 150.443 94.2812 150.569 94.2812 150.696C94.2392 150.527 94.1971 150.401 94.1971 150.316Z" fill="#262227"/>
<path d="M94.8707 152.551C94.9128 152.677 94.9549 152.846 95.0391 152.972C94.9549 152.804 94.9128 152.677 94.8707 152.551Z" fill="#262227"/>
<path d="M94.4499 151.287C94.492 151.413 94.5341 151.54 94.5762 151.666C94.5341 151.54 94.492 151.413 94.4499 151.287Z" fill="#262227"/>
<path d="M97.4375 151.455C96.8482 152.929 96.4694 154.362 96.259 155.71C96.0064 155.204 95.7539 154.657 95.5013 154.151C95.5855 154.32 95.6697 154.53 95.7539 154.699C95.9643 153.688 96.259 152.677 96.6378 151.708C95.6276 150.823 94.7016 149.854 93.8598 148.801C93.7756 148.295 93.6915 147.832 93.6494 147.326C94.5754 148.674 95.8381 150.107 97.4375 151.455Z" fill="#262227"/>
<path d="M93.9021 148.928C93.9442 149.096 93.9863 149.265 93.9863 149.433C93.9442 149.265 93.9021 149.096 93.9021 148.928Z" fill="#262227"/>
<path d="M96.6367 151.666C96.2579 152.677 95.9633 153.688 95.7528 154.657C95.6686 154.488 95.5845 154.278 95.5003 154.109C95.4582 154.067 95.4582 153.983 95.4161 153.941C95.3319 153.772 95.2898 153.604 95.2056 153.435C95.1215 153.266 95.0794 153.098 94.9952 152.972C94.9531 152.845 94.8689 152.677 94.8268 152.55C94.7427 152.255 94.6164 152.003 94.5322 151.708C94.4901 151.581 94.448 151.455 94.4059 151.329C94.3218 151.118 94.2797 150.907 94.2376 150.697C94.1955 150.57 94.1534 150.444 94.1534 150.317C94.0692 150.023 94.0271 149.728 93.9429 149.475C93.9008 149.306 93.8588 149.138 93.8588 148.969C93.8588 148.927 93.8167 148.843 93.8167 148.801C94.6585 149.812 95.5845 150.781 96.6367 151.666Z" fill="#2E2A2F"/>
<path d="M137.717 151.582C136.412 148.507 134.308 145.221 131.151 141.892C131.74 136.795 131.362 131.781 129.72 127.526C131.614 127.316 133.214 127.442 134.518 127.695C134.813 127.99 135.108 128.327 135.402 128.622C134.266 128.285 133.003 128.116 131.656 128.116C131.362 128.116 131.025 128.116 130.688 128.158C131.993 132.076 132.414 136.71 131.867 141.682C134.434 144.42 136.497 147.369 137.928 150.445C139.359 149.012 140.495 147.327 141.295 145.431C141.253 146.063 141.211 146.695 141.127 147.285C140.369 148.717 139.275 150.192 137.717 151.582Z" fill="#D7D4D6"/>
<path d="M141.338 143.281C141.338 143.112 141.296 142.944 141.296 142.775C141.296 142.902 141.296 143.07 141.338 143.281Z" fill="#D7D4D6"/>
<path d="M141.127 141.048C141.085 140.795 141.043 140.543 141.001 140.332C141.043 140.543 141.085 140.795 141.127 141.048Z" fill="#D7D4D6"/>
<path d="M136.076 129.421C135.866 129.169 135.697 128.916 135.487 128.705C135.697 128.958 135.908 129.169 136.076 129.421Z" fill="#D7D4D6"/>
<path d="M140.453 137.931C139.695 135.235 138.475 132.665 136.791 130.348C138.433 132.623 139.695 135.193 140.453 137.931Z" fill="#D7D4D6"/>
<path d="M141.254 142.144C141.254 141.933 141.212 141.722 141.17 141.512C141.212 141.722 141.212 141.933 141.254 142.144Z" fill="#D7D4D6"/>
<path d="M136.75 130.305C136.54 130.052 136.371 129.8 136.161 129.547C136.371 129.8 136.582 130.052 136.75 130.305Z" fill="#D7D4D6"/>
<path d="M140.707 138.941C140.623 138.646 140.581 138.352 140.497 138.057C140.581 138.352 140.665 138.646 140.707 138.941Z" fill="#D7D4D6"/>
<path d="M140.918 139.953C140.876 139.7 140.834 139.405 140.75 139.152C140.834 139.447 140.876 139.7 140.918 139.953Z" fill="#D7D4D6"/>
<path d="M131.868 141.638C132.415 136.709 131.994 132.075 130.689 128.114C131.026 128.114 131.32 128.072 131.657 128.072C133.004 128.072 134.267 128.241 135.403 128.578C135.445 128.62 135.445 128.62 135.487 128.662C135.698 128.915 135.908 129.125 136.077 129.378C136.119 129.42 136.119 129.463 136.161 129.463C136.371 129.715 136.582 129.968 136.75 130.221L136.792 130.263C138.476 132.58 139.696 135.15 140.454 137.846C140.454 137.888 140.496 137.93 140.496 137.973C140.58 138.268 140.664 138.562 140.707 138.857C140.707 138.942 140.749 139.026 140.749 139.11C140.791 139.363 140.875 139.658 140.917 139.911C140.959 140.037 140.959 140.121 140.959 140.248C141.001 140.5 141.043 140.753 141.085 140.964C141.127 141.132 141.127 141.259 141.127 141.427C141.17 141.638 141.17 141.849 141.212 142.059C141.212 142.27 141.254 142.48 141.254 142.691C141.254 142.86 141.296 143.028 141.296 143.197C141.296 143.534 141.338 143.913 141.338 144.292C141.338 144.334 141.338 144.334 141.338 144.376C141.338 144.713 141.338 145.008 141.296 145.345C140.496 147.199 139.36 148.884 137.929 150.359C136.497 147.325 134.477 144.376 131.868 141.638Z" fill="#F7F6F7"/>
<path d="M132.963 126.219C132.163 125.503 131.279 124.871 130.395 124.281C131.321 124.871 132.163 125.503 132.963 126.219Z" fill="#262227"/>
<path d="M130.268 124.198C129.636 123.777 129.005 123.44 128.331 123.061C129.005 123.44 129.636 123.819 130.268 124.198Z" fill="#262227"/>
<path d="M129.721 127.484C129.006 125.588 128.038 123.86 126.775 122.344C127.238 122.554 127.701 122.765 128.122 122.976C128.922 124.113 129.595 125.377 130.142 126.725C130.647 126.683 131.152 126.683 131.615 126.683C132.289 126.683 132.962 126.725 133.636 126.809C133.467 126.641 133.257 126.472 133.088 126.304C133.594 126.725 134.057 127.189 134.52 127.652C133.215 127.399 131.615 127.315 129.721 127.484Z" fill="#262227"/>
<path d="M131.657 126.682C131.194 126.682 130.688 126.682 130.183 126.724C129.636 125.334 128.963 124.112 128.163 122.975C128.205 123.017 128.289 123.017 128.331 123.059C129.005 123.396 129.636 123.775 130.268 124.196C130.31 124.238 130.352 124.238 130.394 124.281C131.278 124.87 132.162 125.502 132.961 126.219C133.003 126.261 133.046 126.303 133.088 126.303C133.298 126.471 133.466 126.64 133.635 126.808C133.003 126.724 132.33 126.682 131.657 126.682Z" fill="#2E2A2F"/>
<path d="M141.17 147.283C141.086 147.873 141.002 148.463 140.917 149.053C140.244 150.022 139.444 150.948 138.56 151.791C138.855 152.507 139.15 153.266 139.36 154.024C139.234 154.361 139.065 154.656 138.939 154.993C138.644 153.94 138.224 152.802 137.719 151.623C139.276 150.19 140.37 148.716 141.17 147.283Z" fill="#262227"/>
<path d="M140.708 150.023C140.792 149.728 140.834 149.433 140.918 149.096C140.834 149.391 140.75 149.728 140.708 150.023Z" fill="#262227"/>
<path d="M139.359 153.94C139.528 153.561 139.654 153.182 139.822 152.803C139.696 153.182 139.528 153.561 139.359 153.94Z" fill="#262227"/>
<path d="M139.863 152.76C140.158 151.959 140.411 151.159 140.621 150.316C140.411 151.159 140.158 151.959 139.863 152.76Z" fill="#262227"/>
<path d="M140.918 149.01C140.918 149.052 140.918 149.052 140.918 149.094C140.876 149.389 140.792 149.684 140.708 150.021C140.665 150.147 140.665 150.232 140.623 150.358C140.413 151.158 140.16 152.001 139.866 152.801C139.866 152.844 139.866 152.844 139.824 152.844C139.697 153.223 139.529 153.602 139.361 153.981C139.361 153.981 139.361 153.981 139.361 154.023C139.108 153.265 138.856 152.549 138.561 151.79C139.445 150.906 140.202 150.021 140.918 149.01Z" fill="#2E2A2F"/>
<path d="M120.125 120.616C119.957 120.616 119.83 120.574 119.662 120.574C119.83 120.574 119.957 120.574 120.125 120.616Z" fill="#D7D4D6"/>
<path d="M117.388 131.822C112.674 129.463 108.549 128.409 105.056 128.115C105.813 125.924 106.908 123.902 108.339 122.216C108.802 122.006 109.265 121.837 109.77 121.711C108.213 123.27 106.95 125.25 106.024 127.525C109.644 127.946 113.474 129.168 117.346 131.064C121.513 128.831 125.301 127.441 128.711 126.935C127.827 124.955 126.732 123.228 125.343 121.795C125.806 121.964 126.311 122.132 126.774 122.343C127.995 123.86 129.005 125.587 129.721 127.483C126.522 127.862 122.481 129.084 117.388 131.822Z" fill="#D7D4D6"/>
<path d="M118.904 120.489C118.778 120.489 118.652 120.489 118.525 120.447C118.652 120.489 118.778 120.489 118.904 120.489Z" fill="#D7D4D6"/>
<path d="M121.26 120.742C121.091 120.7 120.923 120.7 120.797 120.658C120.923 120.7 121.091 120.742 121.26 120.742Z" fill="#D7D4D6"/>
<path d="M125.09 121.711C124.879 121.626 124.627 121.542 124.416 121.5C124.627 121.542 124.837 121.626 125.09 121.711Z" fill="#D7D4D6"/>
<path d="M124.207 121.417C123.786 121.291 123.323 121.164 122.902 121.08C123.365 121.206 123.786 121.291 124.207 121.417Z" fill="#D7D4D6"/>
<path d="M122.355 120.953C122.187 120.911 122.019 120.869 121.85 120.869C122.019 120.911 122.187 120.911 122.355 120.953Z" fill="#D7D4D6"/>
<path d="M110.697 121.416C110.403 121.5 110.066 121.585 109.771 121.711C110.108 121.585 110.403 121.5 110.697 121.416Z" fill="#D7D4D6"/>
<path d="M116.295 120.49C116.169 120.49 116.042 120.49 115.874 120.532C116.042 120.49 116.169 120.49 116.295 120.49Z" fill="#D7D4D6"/>
<path d="M113.348 120.783C112.464 120.952 111.58 121.12 110.738 121.373C111.58 121.162 112.464 120.952 113.348 120.783Z" fill="#D7D4D6"/>
<path d="M115.199 120.531C115.031 120.531 114.862 120.573 114.694 120.573C114.862 120.573 115.031 120.573 115.199 120.531Z" fill="#D7D4D6"/>
<path d="M114.189 120.658C113.979 120.7 113.811 120.7 113.6 120.742C113.769 120.7 113.979 120.7 114.189 120.658Z" fill="#D7D4D6"/>
<path d="M117.387 131.064C113.515 129.168 109.685 127.946 106.065 127.525C106.991 125.208 108.212 123.27 109.811 121.711C110.106 121.627 110.4 121.501 110.737 121.416C110.737 121.416 110.737 121.416 110.779 121.416C111.621 121.163 112.505 120.953 113.389 120.826C113.473 120.826 113.557 120.784 113.599 120.784C113.81 120.742 113.978 120.742 114.188 120.7C114.357 120.658 114.525 120.658 114.736 120.616C114.904 120.616 115.072 120.574 115.241 120.574C115.451 120.574 115.704 120.532 115.914 120.532C116.04 120.532 116.167 120.532 116.335 120.489C116.714 120.489 117.093 120.447 117.429 120.447C117.808 120.447 118.187 120.447 118.566 120.489C118.692 120.489 118.818 120.489 118.945 120.532C119.197 120.532 119.45 120.574 119.702 120.574C119.871 120.574 119.997 120.616 120.165 120.616C120.376 120.658 120.628 120.658 120.839 120.7C121.007 120.742 121.175 120.742 121.302 120.784C121.512 120.826 121.723 120.869 121.933 120.911C122.101 120.953 122.27 120.953 122.438 120.995C122.607 121.037 122.817 121.079 122.985 121.121C123.406 121.206 123.869 121.332 124.29 121.458C124.374 121.458 124.416 121.5 124.501 121.5C124.711 121.585 124.964 121.627 125.174 121.711C125.258 121.753 125.342 121.753 125.469 121.795C126.858 123.186 127.994 124.913 128.836 126.935C125.342 127.441 121.512 128.831 117.387 131.064Z" fill="#F7F6F7"/>
<path opacity="0.45" d="M93.5241 142.649C93.6924 140.459 94.1133 138.394 94.8289 136.414C95.9653 133.212 97.7752 130.306 100.09 127.862C101.774 126.135 103.668 124.618 105.814 123.438C109.182 121.543 113.096 120.489 117.221 120.447C117.305 120.447 117.347 120.447 117.431 120.447C118.063 120.447 118.652 120.489 119.241 120.532C123.829 120.869 128.038 122.512 131.532 125.039C132.879 126.008 134.099 127.146 135.194 128.368C137.929 131.359 139.866 135.066 140.792 139.195C141.086 140.585 141.297 142.017 141.339 143.492C141.339 143.787 141.381 144.124 141.381 144.419C141.381 149.011 140.076 153.308 137.845 156.973C137.677 157.226 137.509 157.521 137.34 157.774C135.067 161.144 131.953 163.925 128.333 165.778C126.902 166.495 125.387 167.084 123.787 167.548C121.767 168.095 119.662 168.39 117.431 168.39C115.074 168.39 112.801 168.053 110.655 167.421C108.929 166.916 107.33 166.242 105.772 165.357C102.7 163.672 100.09 161.313 98.0277 158.49C97.0597 157.142 96.2179 155.667 95.5023 154.109C94.1975 151.159 93.4399 147.873 93.4399 144.419C93.4399 143.829 93.482 143.239 93.5241 142.649Z" fill="white"/>
<path opacity="0.45" d="M141.338 143.787C141.338 143.998 141.338 144.208 141.338 144.419C141.338 149.011 140.033 153.308 137.802 156.974C137.634 157.226 137.466 157.521 137.297 157.774C135.024 161.144 131.91 163.925 128.29 165.779C126.859 166.495 125.344 167.085 123.744 167.548C121.724 168.096 119.619 168.391 117.388 168.391C115.031 168.391 112.759 168.054 110.612 167.422C108.886 166.916 107.287 166.242 105.729 165.357C102.657 163.672 100.047 161.313 97.9848 158.49C97.0167 157.142 96.1749 155.668 95.4594 154.109C94.1546 151.16 93.3969 147.874 93.3969 144.419C93.3969 144.208 93.3969 143.998 93.3969 143.787C93.3969 143.787 95.4594 153.772 117.178 153.772C138.897 153.772 141.338 143.787 141.338 143.787Z" fill="url(#paint0_radial)"/>
<path d="M126.649 118.172C127.743 118.973 128.627 120.447 128.038 121.669C127.575 122.638 126.439 123.059 125.386 123.354C122.44 124.197 119.452 125.082 116.505 125.924C115.621 126.177 114.738 126.43 113.854 126.345C112.97 126.261 112.002 125.798 111.665 124.997C110.192 124.281 108.677 126.219 107.077 126.177C105.899 126.135 105.015 124.997 104.888 123.86C104.804 122.68 105.351 121.585 106.067 120.658C108.256 118.004 112.465 116.403 115.874 116.403C119.325 116.445 123.703 115.982 126.649 118.172Z" fill="#E2B393"/>
<path d="M39.0595 118.13V93.4844C39.0595 82.0674 43.8578 77.686 43.8578 77.686L46.8883 76.3379L58.3369 72.5462L69.7855 69.5972C79.4663 67.0694 89.2733 71.2824 94.3242 78.992C96.3866 80.7614 98.2386 83.5841 99.6276 85.7748C101.437 88.6396 102.784 91.8835 102.953 95.296C103.163 99.9302 101.227 104.396 99.2908 108.651C99.2067 108.862 99.0804 109.072 98.9962 109.283C101.017 133.76 104.805 172.982 104.805 172.982C85.6115 187.053 51.6866 192.825 33.6298 183.304L39.0595 118.13Z" fill="white"/>
<path d="M61.1558 154.7C55.4315 151.751 53.4533 150.698 50.8436 143.241C32.1976 89.5259 38.3428 82.4903 47.6448 79.1621L54.6739 93.4018L67.1326 137.974C75.4244 145.052 92.5973 153.267 102.026 155.332C104.214 155.542 106.487 155.332 108.592 154.658C112.674 153.225 114.779 153.478 118.862 152.383V157.143C122.566 157.017 126.27 156.596 129.889 155.879C138.392 154.321 141.338 157.143 134.435 165.653C130.479 170.498 122.776 172.352 111.496 171.13C105.687 170.203 99.9631 168.729 94.4493 166.664C79.886 161.735 68.69 158.618 61.1558 154.7Z" fill="#E2B393"/>
<path d="M46.9291 76.339C40.4893 78.1084 36.1119 83.7116 36.9116 93.9911C37.5851 103.217 39.3949 121.67 41.4153 131.065C41.4153 131.065 58.967 127.442 66.8379 121.207C64.8596 112.907 59.3037 102.754 57.8305 95.2971C55.0105 85.2704 50.7173 76.002 46.9291 76.339Z" fill="#838084"/>
<path d="M67.5969 54.8954C56.0902 54.8954 46.7621 45.5588 46.7621 34.0415C46.7621 22.5241 56.0902 13.1875 67.5969 13.1875C79.1036 13.1875 88.4316 22.5241 88.4316 34.0415C88.4316 45.5588 79.1036 54.8954 67.5969 54.8954Z" fill="#263238"/>
<path d="M79.2555 47.7337C69.701 47.7337 61.9564 39.9819 61.9564 30.4186C61.9564 20.8553 69.701 13.1035 79.2555 13.1035C88.8101 13.1035 96.5547 20.8553 96.5547 30.4186C96.5126 39.9819 88.768 47.7337 79.2555 47.7337Z" fill="#263238"/>
<path d="M49.3705 42.7617C49.3705 42.7617 52.1485 55.9482 53.2849 58.0968C54.0425 59.4449 55.2632 60.4139 56.7363 60.8773L56.5259 51.6089L49.3705 42.7617Z" fill="#263238"/>
<path d="M56.2318 43.3518C55.1796 43.9838 53.6643 41.9194 52.3595 40.5713C51.0547 39.2232 46.8036 37.3274 44.6991 41.8352C42.5945 46.3009 46.551 52.4517 49.9183 53.505C55.6426 55.3165 56.5685 51.6092 56.5685 51.6092L56.9894 73.1372C64.1448 82.3635 84.0957 81.6052 75.8038 71.9576V65.5961C78.3714 66.0174 80.981 66.1437 83.5906 66.0174C87.8838 65.3433 90.4934 62.0151 91.7982 57.423C93.8606 50.0083 94.6603 44.068 92.8925 29.4913C90.9564 13.5665 72.4366 13.398 62.4191 19.6752C52.4016 25.9525 56.2318 43.3518 56.2318 43.3518Z" fill="#E2B393"/>
<path d="M75.7207 65.5523C75.7207 65.5523 66.2504 63.6143 62.9252 61.8449C60.9891 60.8338 59.3896 59.2329 58.3374 57.2949C58.8425 59.2329 59.7264 61.0444 60.947 62.6453C63.3882 65.7629 75.7207 68.0379 75.7207 68.0379V65.5523Z" fill="#CCA285"/>
<path d="M73.4902 40.9926C73.4902 41.3718 73.364 41.7088 73.1114 42.0459C72.901 42.3408 72.6063 42.5935 72.2275 42.7199C71.8908 42.8463 71.512 42.8884 71.1332 42.8042C70.7544 42.7199 70.4176 42.5514 70.1651 42.2565C69.9125 41.9616 69.7442 41.6246 69.66 41.2875C69.5758 40.9084 69.6179 40.5292 69.7863 40.1922C69.9546 39.8551 70.1651 39.5602 70.5018 39.3496C70.7964 39.1389 71.1753 39.0547 71.5541 39.0547C71.8066 39.0547 72.0592 39.0968 72.3117 39.2232C72.5642 39.3075 72.7747 39.476 72.9431 39.6445C73.1114 39.813 73.2798 40.0658 73.364 40.2764C73.4481 40.4871 73.4902 40.7399 73.4902 40.9926Z" fill="#263238"/>
<path d="M71.4258 34.2101L67.343 36.4429C67.0484 35.8953 67.0063 35.2212 67.1747 34.6314C67.343 34.0416 67.7639 33.4939 68.3111 33.199C68.5636 33.0305 68.8583 32.9462 69.195 32.9462C69.4896 32.9041 69.7843 32.9462 70.0789 33.0305C70.3735 33.1147 70.6261 33.2832 70.8786 33.4939C71.0891 33.7045 71.2574 33.9573 71.4258 34.2101Z" fill="#263238"/>
<path d="M74.8787 54.1367L79.1719 55.7798C78.9614 56.3696 78.5826 56.833 78.0354 57.0858C77.4883 57.3385 76.8569 57.3807 76.3097 57.2122C75.7205 57.0015 75.2575 56.5381 74.9629 55.9483C74.7103 55.4006 74.7103 54.7265 74.8787 54.1367Z" fill="#CCA285"/>
<path d="M90.4506 35.3896L86.7466 32.5248C86.915 32.2721 87.1254 32.0614 87.4201 31.8929C87.6726 31.7244 87.9672 31.6401 88.2619 31.598C88.5565 31.5559 88.8932 31.5559 89.1879 31.6401C89.4825 31.7244 89.7771 31.8508 89.9876 32.0614C90.4927 32.4406 90.8294 33.0304 90.9136 33.6623C90.9557 34.21 90.7873 34.8841 90.4506 35.3896Z" fill="#263238"/>
<path d="M89.2734 40.4447C89.2734 40.6974 89.2313 40.9502 89.1472 41.203C89.063 41.4558 88.8946 41.6664 88.7263 41.8349C88.5579 42.0035 88.3474 42.172 88.0949 42.2562C87.8424 42.3405 87.6319 42.4247 87.3373 42.4247C86.9585 42.4247 86.5376 42.3405 86.2008 42.1298C85.8641 41.9192 85.6116 41.6243 85.4432 41.2451C85.2748 40.866 85.2328 40.4868 85.3169 40.1076C85.4011 39.7285 85.5695 39.3493 85.822 39.0544C86.1167 38.7595 86.4534 38.591 86.8322 38.5067C87.211 38.4225 87.6319 38.4646 87.9686 38.591C88.3474 38.7595 88.6421 39.0123 88.8525 39.3072C89.1893 39.6442 89.2734 40.0655 89.2734 40.4447Z" fill="#263238"/>
<path d="M79.593 38.6328L80.2243 50.092L86.2012 48.0698L79.593 38.6328Z" fill="#CCA285"/>
<path d="M71.1752 48.1127C71.3856 47.8599 71.3856 47.4386 71.1331 47.228L67.4712 44.0261C67.2187 43.8155 66.7978 43.8155 66.5873 44.0683C66.3769 44.321 66.3769 44.7423 66.6294 44.953L70.2913 48.1548C70.5438 48.4076 70.9226 48.3654 71.1752 48.1127Z" fill="#0F0F0E"/>
<path d="M67.976 51.7787C68.1864 51.5259 68.1864 51.1046 67.9339 50.894L64.272 47.6921C64.0195 47.4815 63.5986 47.4815 63.3881 47.7343C63.1777 47.987 63.1777 48.4083 63.4302 48.619L67.0921 51.8208C67.3446 52.0736 67.7655 52.0315 67.976 51.7787Z" fill="white"/>
<path d="M69.4916 49.9662C69.702 49.7134 69.702 49.2921 69.4495 49.0815L65.7876 45.8796C65.5351 45.669 65.1142 45.669 64.9037 45.9218C64.6933 46.1745 64.6933 46.5958 64.9458 46.8065L68.6077 50.0083C68.8602 50.2611 69.2811 50.219 69.4916 49.9662Z" fill="#848280"/>
<path d="M87.5884 46.8053C87.42 46.5946 87.42 46.2997 87.6305 46.1312L90.3242 43.772C90.5347 43.6034 90.8293 43.6034 90.9977 43.8141C91.1661 44.0247 91.1661 44.3196 90.9556 44.4881L88.2618 46.8474C88.0514 47.0159 87.7567 46.9738 87.5884 46.8053Z" fill="#0F0F0E"/>
<path d="M89.9458 49.5006C89.7774 49.2899 89.7774 48.995 89.9879 48.8265L92.6817 46.4673C92.8921 46.2987 93.1868 46.2987 93.3551 46.5094C93.5235 46.72 93.5235 47.0149 93.313 47.1835L90.6192 49.5427C90.4088 49.7112 90.1142 49.7112 89.9458 49.5006Z" fill="white"/>
<path d="M88.8091 48.1529C88.6407 47.9423 88.6407 47.6474 88.8512 47.4788L91.5449 45.1196C91.7554 44.9511 92.05 44.9511 92.2184 45.1617C92.3868 45.3724 92.3868 45.6673 92.1763 45.8358L89.4825 48.195C89.2721 48.3636 88.9774 48.3636 88.8091 48.1529Z" fill="#848280"/>
<path d="M57.8744 34.8413C57.8744 34.8413 57.2431 45.2051 58.127 48.7018C58.127 48.7018 51.4346 40.3602 50.8874 38.001C50.8874 38.001 55.5173 33.4089 57.8744 34.8413Z" fill="#263238"/>
<path d="M82.1598 13.3133L88.5576 17.9054C88.5576 17.9054 91.1672 18.8322 90.7042 19.6327L91.5039 20.1382C91.3355 20.391 86.874 26.3734 80.4762 31.471C74.6678 36.0209 69.1539 38.3381 64.1452 38.3381C61.5777 38.3381 59.1364 37.7482 56.8635 36.4844L57.2423 35.8524C56.8635 35.8524 56.4847 35.8946 56.1059 35.8946L53.0333 36.4001C53.0333 36.358 44.489 9.43742 82.1598 13.3133ZM77.1932 31.3446C72.8158 33.4511 67.1757 35.1362 60.0624 35.726C65.8709 37.6219 72.0161 35.0098 77.1932 31.3446Z" fill="#263238"/>
<path d="M49.4139 29.5752H93.1879C96.0922 29.5752 98.4492 27.89 98.4492 25.8257C98.4492 23.7613 96.0922 22.0762 93.1879 22.0762H49.4139C46.5097 22.0762 44.1526 23.7613 44.1526 25.8257C44.1105 27.89 46.5097 29.5752 49.4139 29.5752Z" fill="#F9AB10"/>
<path d="M56.1901 24.0126C53.7958 24.0126 51.8548 22.0698 51.8548 19.6733C51.8548 17.2768 53.7958 15.334 56.1901 15.334C58.5844 15.334 60.5254 17.2768 60.5254 19.6733C60.5254 22.0698 58.5844 24.0126 56.1901 24.0126Z" fill="#E8E8E8"/>
<path d="M49.1194 15.3776C45.0366 15.2933 40.7013 16.0095 37.7129 18.7479C35.2717 20.9808 34.0931 24.309 33.3355 27.5108C31.9886 32.9876 31.5677 38.8014 33.1251 44.2361C34.3036 48.3226 36.5765 52.03 37.8392 56.0744C39.1019 60.1188 39.1019 65.0058 36.2397 68.1655C42.3849 65.3007 48.3197 60.7929 50.2138 54.2628C51.3502 50.3027 50.8872 46.0476 50.3821 41.9611C49.877 37.8746 49.372 33.6195 50.5505 29.6594C51.1818 27.5108 52.3604 25.4886 54.0019 24.0141C55.2646 22.8766 57.8321 22.371 58.4214 20.6859C60.0629 15.7567 51.6869 15.4197 49.1194 15.3776Z" fill="#263238"/>
<defs>
<radialGradient id="paint0_radial" cx="0" cy="0" r="1" gradientUnits="userSpaceOnUse" gradientTransform="translate(117.488 165.35) rotate(180) scale(29.3458 24.8671)">
<stop stop-color="white"/>
<stop offset="0.8889" stop-color="#A4A4A4"/>
</radialGradient>
</defs>
</svg>
