<svg width="88" height="89" viewBox="0 0 88 89" fill="none" xmlns="http://www.w3.org/2000/svg">
<g clip-path="url(#clip0)">
<path d="M0.202625 26.7496C0.728602 25.2839 2.14469 24.3068 3.68217 24.4289C5.09826 24.5511 6.55481 24.3882 7.88998 23.8996C8.73964 23.6146 9.54883 23.2075 10.3176 22.6782C6.79757 17.7926 4.89596 11.482 4.57228 3.62424C4.49136 1.62927 6.10975 -0.0399843 8.09228 0.000729382C9.91297 0.041443 11.41 1.50713 11.4504 3.29853C11.5718 6.27063 11.936 8.83559 12.5024 11.0748C13.7971 10.5456 14.9704 9.81271 15.9415 8.83559C16.953 7.85846 17.7622 6.59634 18.2881 5.2935C18.8546 3.82781 20.392 2.97282 21.9295 3.17639C24.1548 3.46139 25.5304 5.78206 24.6808 7.85846C23.7907 10.057 22.4555 12.0927 20.7562 13.7619C19.1378 15.3498 17.1957 16.6119 15.0918 17.4669C17.5599 21.4975 21.0394 23.8589 24.8022 25.4875C26.4206 26.1796 27.2298 28.0524 26.6633 29.7624C26.016 31.6759 23.8716 32.6124 22.0104 31.7981C19.7852 30.8209 17.3576 29.5181 15.0514 27.6453C13.5543 28.826 11.855 29.7217 10.0748 30.3731C7.80906 31.1467 5.42194 31.4317 3.07527 31.2281C0.890441 31.1467 -0.525651 28.8667 0.202625 26.7496Z" fill="#895811"/>
<path d="M53.0023 50.5663C55.9559 37.9858 48.1876 25.3646 35.6855 22.3925C23.1835 19.4204 10.641 27.2374 7.68739 39.8179C4.73383 52.3984 12.5021 65.0197 25.0042 67.9918C37.5062 70.9639 50.0488 63.1468 53.0023 50.5663Z" fill="#263238"/>
<path d="M68.4579 59.1973C68.4579 59.1973 64.8974 76.0934 63.4409 78.8212C62.4698 80.5312 55.0252 82.4447 53.1641 83.0147L59.314 70.5157L68.4579 59.1973Z" fill="#263238"/>
<path d="M63.9665 35.0136C65.2208 34.8507 66.475 35.0136 67.6483 35.4207C68.8217 35.8279 69.9141 36.52 70.8042 37.4157C73.7982 40.4285 72.0989 49.9148 68.4575 59.1568L61.7412 59.9303L63.9665 35.0136Z" fill="#263238"/>
<path d="M59.719 59.9714C61.0542 60.7857 62.9963 58.18 64.6551 56.4294C66.314 54.6787 71.7356 52.2766 74.4464 58.0172C77.1572 63.7578 72.0592 71.6155 67.7705 72.9591C60.4068 75.2798 59.3144 70.5163 59.3144 70.5163L57.9792 77.1119C57.251 81.4275 49.685 87.6567 34.7553 88.3896C31.4781 88.9188 28.1604 89.0817 24.8427 88.9188C19.4211 88.0638 16.0225 83.7482 14.3231 77.8854C11.6933 68.3992 10.6818 60.7857 12.9071 42.1389C15.3346 21.7006 38.9631 21.4971 51.708 29.5584C64.4528 37.6197 59.719 59.9714 59.719 59.9714Z" fill="#FFA8A7"/>
<path d="M59.7195 62.2505C60.4073 62.2505 62.9562 57.9756 64.6555 56.4284C67.0022 54.3113 63.9677 35.0131 63.9677 35.0131C64.6151 33.3438 64.7365 31.5117 64.3319 29.761C63.9273 28.0103 63.0372 26.4225 61.7424 25.2011C58.5461 21.659 53.2054 21.2926 44.1424 19.8269C39.3682 19.0533 32.1259 17.7098 27.3921 16.8141C21.6873 15.7555 16.9939 14.6155 12.948 18.1576C11.9365 18.9312 11.0464 19.949 10.4395 21.089C9.83257 22.229 9.42797 23.4911 9.30659 24.794C9.18521 26.0968 9.34705 27.3996 9.79211 28.621C10.1967 29.8424 10.8845 30.9824 11.7746 31.9596C12.8671 33.2624 14.2831 34.2395 15.8611 34.7688C15.8611 34.7688 18.3291 37.008 26.947 38.0666C35.565 39.1252 48.9976 37.863 50.8588 37.6187C53.3673 37.2523 53.8528 39.6951 55.2284 46.3722C56.4422 52.2757 57.4132 62.2098 59.7195 62.2505Z" fill="#263238"/>
<path d="M63.9672 36.5206L72.0996 32.1235C71.8164 31.5535 71.4523 31.065 71.0072 30.6578C70.5621 30.2507 70.0362 29.9657 69.4293 29.7621C68.8628 29.5585 68.2559 29.4771 67.649 29.5585C67.0421 29.64 66.4757 29.8028 65.9093 30.0878C64.8169 30.6985 64.0077 31.7164 63.6435 32.9378C63.2794 34.0778 63.4008 35.3806 63.9672 36.5206Z" fill="#263238"/>
<path d="M37.709 56.9583C37.709 57.2841 37.7494 57.6098 37.8708 57.8948C37.9922 58.1798 38.154 58.4647 38.3968 58.709C38.6396 58.9533 38.8823 59.1162 39.1655 59.279C39.4488 59.4012 39.7724 59.4826 40.0961 59.4826C40.5816 59.5233 41.1076 59.3604 41.5122 59.1162C41.9573 58.8312 42.2809 58.4648 42.4832 58.0169C42.6855 57.5691 42.7665 57.0398 42.6855 56.5512C42.6046 56.0626 42.3619 55.5741 41.9977 55.2077C41.6336 54.8412 41.1885 54.597 40.703 54.4748C40.2175 54.3527 39.6915 54.4341 39.2465 54.597C38.8014 54.8005 38.3968 55.1262 38.1136 55.5334C37.8708 55.9405 37.709 56.4291 37.709 56.9583Z" fill="#263238"/>
<path d="M41.5928 46.8199L46.7716 49.7106C47.1358 48.9777 47.2167 48.1634 47.0144 47.3899C46.7716 46.6163 46.2861 45.9649 45.5983 45.5578C45.2746 45.3542 44.87 45.2321 44.5059 45.2321C44.1013 45.1914 43.7371 45.2321 43.373 45.3542C43.0089 45.4763 42.6447 45.6799 42.3615 45.9242C41.9974 46.1685 41.7951 46.4942 41.5928 46.8199Z" fill="#263238"/>
<path d="M35.8877 73.7715L30.3447 75.8479C30.4661 76.2143 30.6684 76.5807 30.9112 76.8657C31.1539 77.1507 31.4776 77.395 31.8417 77.5578C32.2059 77.7207 32.57 77.8428 32.9746 77.8428C33.3792 77.8836 33.7433 77.8021 34.1075 77.68C34.8358 77.395 35.4427 76.825 35.7663 76.0922C36.1305 75.3593 36.1709 74.545 35.8877 73.7715Z" fill="#F28F8F"/>
<path d="M15.4966 48.9788L20.2304 45.3146C20.0281 44.9888 19.7449 44.7039 19.3808 44.5003C19.0571 44.2967 18.693 44.1746 18.2884 44.0931C17.9242 44.0524 17.5196 44.0524 17.115 44.1339C16.7509 44.2153 16.3868 44.4189 16.0631 44.6631C15.4157 45.1517 15.0111 45.8845 14.8897 46.6988C14.8493 47.5131 15.0111 48.3274 15.4966 48.9788Z" fill="#263238"/>
<path d="M17.5596 56.2265C17.5596 56.5522 17.6 56.8779 17.7214 57.1629C17.8428 57.4479 18.0046 57.7329 18.2474 57.9771C18.4902 58.2214 18.7329 58.3843 19.0566 58.5471C19.3398 58.6693 19.6635 58.7507 19.9872 58.7507C20.6345 58.7507 21.2819 58.4657 21.7269 57.9771C22.172 57.4886 22.4552 56.8779 22.4148 56.1857C22.4552 55.86 22.3743 55.4936 22.2934 55.2086C22.172 54.8829 22.0102 54.5979 21.7674 54.3536C21.5246 54.1094 21.2819 53.9058 20.9582 53.7836C20.6345 53.6615 20.3109 53.5801 19.9872 53.5801C19.6635 53.5801 19.2994 53.6615 19.0161 53.7836C18.7329 53.9058 18.4497 54.1094 18.2069 54.3536C17.9642 54.5979 17.8023 54.8829 17.681 55.2086C17.6 55.5343 17.5191 55.86 17.5596 56.2265Z" fill="#263238"/>
<path d="M29.5358 54.2715L29.2526 69.0505L20.5537 67.137L29.5358 54.2715Z" fill="#F28F8F"/>
<path d="M68.5385 38.2284C67.001 31.1443 59.6373 22.4315 49.5224 18.7673C49.2796 18.6859 49.0369 18.6452 48.7941 18.6045C48.5918 18.4823 48.3895 18.4009 48.1468 18.3195C45.5978 17.5052 41.5923 16.4873 36.6562 15.9174C35.0378 15.7545 33.6217 16.9352 33.5003 18.5637C33.4194 20.0701 34.5118 21.4137 36.0493 21.5766C40.5403 22.0651 44.2222 23.0422 46.4879 23.7751C46.6497 23.8158 46.852 23.8565 47.0139 23.8972C47.1757 23.9787 47.3376 24.1008 47.4994 24.1415C53.6897 26.5029 61.4176 32.3657 62.955 39.4498C63.9665 44.1319 64.4116 50.6868 64.2093 56.8346C64.3307 56.7124 64.452 56.5496 64.5734 56.4274C65.504 55.4096 67.6888 54.2289 69.9141 54.4325C69.995 49.3433 69.6309 43.2769 68.5385 38.2284Z" fill="#D11209"/>
<path d="M87.8382 26.7486C87.3122 25.2829 85.8961 24.3057 84.3586 24.4279C82.9426 24.55 81.486 24.3872 80.1508 23.8986C79.3012 23.6136 78.492 23.2065 77.7232 22.6772C81.2432 17.7508 83.1044 11.4809 83.4281 3.5825C83.509 1.58753 81.8906 -0.0410156 79.9485 -0.0410156C78.1278 -0.000301991 76.6308 1.46539 76.5904 3.25679C76.469 6.22888 76.1048 8.79384 75.5384 11.0331C74.2437 10.5038 73.0704 9.77097 72.0993 8.79384C71.0878 7.81672 70.2786 6.55459 69.7527 5.25176C69.1862 3.78607 67.6487 2.93108 66.1113 3.13465C63.886 3.41964 62.5104 5.74032 63.36 7.81672C64.2501 10.0153 65.5853 12.0509 67.2846 13.7202C68.903 15.308 70.8451 16.5701 72.949 17.4251C70.4809 21.4558 67.0014 23.8172 63.2386 25.4457C61.6202 26.1379 60.811 28.0107 61.3775 29.7207C62.0248 31.6342 64.1692 32.5706 66.0304 31.7563C68.2556 30.7792 70.6832 29.4764 72.9894 27.6035C74.4865 28.7842 76.1858 29.6799 77.966 30.3314C80.2317 31.1049 82.6189 31.3899 84.9655 31.1863C87.1099 31.1456 88.5665 28.8657 87.8382 26.7486Z" fill="#895811"/>
</g>
<defs>
<clipPath id="clip0">
<rect width="88" height="89" fill="white"/>
</clipPath>
</defs>
</svg>
