<svg width="490" height="309" viewBox="0 0 490 309" fill="none" xmlns="http://www.w3.org/2000/svg">
<g clip-path="url(#clip0)">
<path d="M3.39915 35.7755L119.803 35.7755C120.391 35.7755 120.914 36.2983 120.914 36.8866L118.038 135.055C117.842 142.375 111.829 148.192 104.574 148.192L18.3663 148.192C11.2422 148.192 5.42528 142.506 5.16384 135.382L2.28806 36.8866C2.28806 36.2983 2.74557 35.7755 3.39915 35.7755Z" stroke="white" stroke-width="11" stroke-miterlimit="10"/>
<path d="M28.9547 43.3573L93.7252 43.3573C93.8559 43.3573 103.79 44.6645 103.202 55.6448C102.81 62.9649 102.81 86.1673 102.745 92.8339C102.745 93.1606 102.875 93.4221 103.137 93.6835C106.209 96.3632 112.352 103.553 109.869 117.082C106.209 137.67 81.9606 140.35 61.2419 140.35C40.5232 140.35 16.2751 137.735 12.615 117.082C10.2621 103.553 16.3405 96.3632 19.347 93.6835C19.6084 93.4874 19.7391 93.1607 19.7391 92.8992C19.7391 86.2326 19.6738 63.0303 19.2816 55.7101C18.7588 44.7299 28.6933 43.4227 28.7586 43.4227L28.9547 43.4227L28.9547 43.3573ZM93.2023 48.586L29.4122 48.586C29.3469 48.586 29.2815 48.586 29.2161 48.586C28.0397 48.8475 24.3142 49.9586 24.5757 55.3833C25.0332 64.0107 25.0332 93.4221 25.0332 94.6639L25.0332 95.5136C25.0332 95.9057 24.8371 96.2325 24.5103 96.4286L23.7914 96.8861C23.4646 97.0822 15.3601 102.376 17.8437 116.167C20.1967 129.239 33.5952 135.121 61.3726 135.121C89.1501 135.121 102.549 129.304 104.901 116.167C107.385 102.376 99.2806 97.0822 98.9538 96.8861L98.2349 96.4286C97.9081 96.2325 97.712 95.9057 97.712 95.5136L97.712 94.6639C97.712 93.4221 97.712 64.076 98.1695 55.3833C98.3656 49.8278 94.4441 48.7821 93.3984 48.586C93.333 48.586 93.2676 48.586 93.2023 48.586Z" fill="white"/>
<path d="M41.9606 89.4347C42.222 89.6962 42.4181 89.6962 42.6795 89.8923L45.3592 90.8073C46.2742 91.0687 47.1893 90.8073 47.9082 90.3498C50.1304 88.2583 57.3198 89.1733 63.0061 89.8923C66.4047 90.3498 69.9994 90.8073 72.8752 90.6112C78.6921 90.6112 82.6137 87.2125 83.2019 80.9381C83.9208 76.4284 82.4829 71.069 81.5679 70.1539C81.1104 69.6964 80.6529 69.435 79.934 69.2389L77.7118 68.7814C77.4503 68.7814 77.4503 68.7814 77.2542 68.7814C76.5353 68.7814 75.8817 69.0428 75.4242 69.5003C73.202 71.5918 66.0125 70.8729 60.1303 70.2193C56.5355 69.7618 52.6794 69.5003 49.5422 69.5004C41.9606 69.7618 39.8037 74.7944 39.4116 78.8466C39.4116 78.912 39.4116 78.9774 39.4116 78.9774C39.5423 82.5067 40.1959 88.2583 41.9606 89.4347ZM43.9867 79.3042C44.4442 75.448 46.2089 73.6179 50.1304 73.6179C53.0715 73.3565 56.4048 73.8794 59.9996 74.3369C66.7315 75.0558 73.3327 75.7094 77.0582 73.6179C77.7118 73.2912 78.5614 73.6833 78.6268 74.4022L78.6268 74.533C78.8882 76.1669 79.3457 78.3891 78.8882 80.6113C78.1693 85.84 75.2935 86.4282 72.6138 86.4282L72.2216 86.4282C69.5419 86.4282 66.0779 85.9707 63.2021 85.7093C56.4702 84.7943 49.869 84.0753 46.1435 86.4282L45.686 86.6897L45.0978 86.559C44.7056 86.4936 44.4442 86.2322 44.3135 85.84C44.2481 85.7093 44.2481 85.6439 44.2481 85.5132C44.1827 83.8793 43.7906 81.7224 43.9867 79.3042Z" fill="white"/>
</g>
<g clip-path="url(#clip1)">
<path d="M485.802 148.191L369.398 148.191C368.81 148.191 368.287 147.668 368.287 147.08L371.163 48.9115C371.359 41.5913 377.372 35.7744 384.627 35.7744L470.835 35.7744C477.959 35.7744 483.776 41.4606 484.037 48.5847L486.913 147.08C486.913 147.668 486.456 148.191 485.802 148.191Z" stroke="white" stroke-width="11" stroke-miterlimit="10"/>
<path d="M460.246 140.609L395.476 140.609C395.345 140.609 385.411 139.302 385.999 128.322C386.391 121.002 386.391 97.7995 386.457 91.1329C386.457 90.8061 386.326 90.5447 386.064 90.2833C382.992 87.6036 376.849 80.4141 379.332 66.8849C382.993 46.2969 407.241 43.6172 427.959 43.6172C448.678 43.6172 472.926 46.2315 476.586 66.8849C478.939 80.4141 472.861 87.6036 469.854 90.2833C469.593 90.4794 469.462 90.8062 469.462 91.0676C469.462 97.7342 469.527 120.937 469.92 128.257C470.442 139.237 460.508 140.544 460.443 140.544L460.246 140.544L460.246 140.609ZM395.999 135.381L459.789 135.381C459.854 135.381 459.92 135.381 459.985 135.381C461.161 135.119 464.887 134.008 464.625 128.583C464.168 119.956 464.168 90.5447 464.168 89.3029L464.168 88.4533C464.168 88.0611 464.364 87.7343 464.691 87.5382L465.41 87.0807C465.737 86.8846 473.841 81.5906 471.357 67.7999C469.005 54.7282 455.606 48.8459 427.829 48.8459C400.051 48.8459 386.653 54.6628 384.3 67.7999C381.816 81.5906 389.921 86.8846 390.247 87.0807L390.966 87.5382C391.293 87.7343 391.489 88.0611 391.489 88.4532L391.489 89.3029C391.489 90.5447 391.489 119.891 391.032 128.583C390.836 134.139 394.757 135.185 395.803 135.381C395.868 135.381 395.934 135.381 395.999 135.381Z" fill="white"/>
<path d="M447.241 94.5321C446.979 94.2706 446.783 94.2706 446.522 94.0745L443.842 93.1595C442.927 92.8981 442.012 93.1595 441.293 93.617C439.071 95.7085 431.881 94.7935 426.195 94.0745C422.796 93.617 419.202 93.1595 416.326 93.3556C410.509 93.3556 406.588 96.7542 405.999 103.029C405.28 107.538 406.718 112.898 407.633 113.813C408.091 114.27 408.548 114.532 409.267 114.728L411.489 115.185C411.751 115.185 411.751 115.185 411.947 115.185C412.666 115.185 413.319 114.924 413.777 114.466C415.999 112.375 423.189 113.094 429.071 113.748C432.666 114.205 436.522 114.466 439.659 114.466C447.241 114.205 449.397 109.172 449.79 105.12C449.79 105.055 449.79 104.989 449.79 104.989C449.659 101.46 449.005 95.7085 447.241 94.5321ZM445.214 104.663C444.757 108.519 442.992 110.349 439.071 110.349C436.13 110.61 432.796 110.087 429.202 109.63C422.47 108.911 415.868 108.257 412.143 110.349C411.489 110.676 410.64 110.283 410.574 109.565L410.574 109.434C410.313 107.8 409.855 105.578 410.313 103.355C411.032 98.1268 413.908 97.5386 416.587 97.5386L416.98 97.5386C419.659 97.5386 423.123 97.9961 425.999 98.2575C432.731 99.1725 439.332 99.8915 443.058 97.5386L443.515 97.2771L444.103 97.4078C444.496 97.4732 444.757 97.7346 444.888 98.1268C444.953 98.2575 444.953 98.3229 444.953 98.4536C445.018 100.088 445.411 102.244 445.214 104.663Z" fill="white"/>
</g>
<path d="M181.121 187.113C170.519 183.071 158.962 182.234 147.889 184.708C139.651 186.293 131.621 188.814 123.955 192.222L114.467 171.874C112.738 168.481 109.737 165.911 106.118 164.725C102.499 163.539 98.5585 163.835 95.1572 165.547C91.6593 167.052 88.8998 169.881 87.482 173.415C86.0643 176.949 86.1038 180.901 87.5918 184.406L105.495 222.799L96.5232 219.597C92.5795 218.205 88.2469 218.415 84.4564 220.182C80.6659 221.95 77.72 225.134 76.2517 229.05C75.5068 230.992 75.1591 233.064 75.2292 235.143C75.2994 237.222 75.786 239.265 76.6602 241.153C78.2942 244.84 81.3226 247.731 85.0826 249.191L112.856 262.041C116.244 267.053 120.534 271.393 125.508 274.838C129.226 277.537 133.354 279.621 137.733 281.009L141.171 288.381C141.649 289.438 142.514 290.271 143.588 290.709C144.662 291.147 145.863 291.157 146.944 290.737L200.348 265.834C201.365 265.276 202.13 264.35 202.484 263.245C202.839 262.141 202.756 260.943 202.254 259.897L197.42 249.531C200.776 237.03 199.552 223.742 193.971 212.064L183.229 189.028C182.769 188.166 182.024 187.489 181.121 187.113ZM186.382 215.836C191.387 225.93 192.462 237.523 189.398 248.364C188.872 249.45 188.784 250.696 189.151 251.845L193.018 260.138L147.484 281.371L144.834 275.688C144.542 275.059 144.099 274.511 143.546 274.093C142.992 273.675 142.344 273.399 141.659 273.289C137.682 272.272 133.948 270.469 130.679 267.986C126.302 264.985 122.589 261.116 119.77 256.62C119.342 255.809 118.661 255.158 117.831 254.767L88.522 241.23C87.6236 240.91 86.7978 240.415 86.0925 239.773C85.3873 239.131 84.8165 238.355 84.4135 237.49C84.0104 236.626 83.783 235.69 83.7446 234.737C83.7061 233.784 83.8574 232.833 84.1895 231.939C84.873 230.105 86.2507 228.613 88.025 227.785C89.7993 226.958 91.8278 226.862 93.6725 227.517L110.561 233.664L116.183 245.72L122.071 238.3L95.2704 180.826C94.7516 179.356 94.8231 177.743 95.4699 176.326C96.1166 174.908 97.2881 173.797 98.7378 173.226C100.107 172.482 101.711 172.299 103.213 172.715C104.715 173.131 105.996 174.113 106.788 175.455L127.914 220.758L136.362 218.829L127.554 199.939C130.806 198.5 134.13 197.231 137.513 196.137L146.876 216.216L153.646 214.696L144.067 194.155C145.785 193.728 147.558 193.322 149.406 192.975C151.64 192.567 153.893 192.281 156.158 192.117L165.378 211.889L172.147 210.368L163.607 192.055C167.919 192.189 172.191 192.918 176.303 194.221L186.382 215.836Z" fill="#FCB527"/>
<path d="M302.75 91.7408C302.701 90.4895 302.186 89.0433 301.328 88.1312L273.328 58.3798C271.431 56.6748 267.793 55.971 265.672 57.9423C263.583 59.884 263.645 63.6496 265.726 65.5989L285.414 86.4907L192.5 86.4907C189.601 86.4907 187.25 88.8412 187.25 91.7408C187.25 94.6403 189.601 96.9909 192.5 96.9909L285.414 96.9909L265.726 117.883C263.935 119.677 263.604 123.575 265.672 125.539C267.74 127.503 271.509 126.876 273.328 125.102L301.328 95.3503C302.286 94.3322 302.753 93.1376 302.75 91.7408Z" fill="white"/>
<path d="M145.6 2.44732C157.84 2.44732 166.6 12.1433 166.6 24.0473C166.6 35.9513 157.84 45.6473 145.6 45.6473C141.983 45.6607 138.416 44.7964 135.205 43.1285C131.995 41.4607 129.237 39.039 127.168 36.0713L133.384 32.4233C136.024 36.0233 140.248 38.4473 145 38.4473C152.92 38.4473 159.4 31.7513 159.4 24.0473C159.4 16.3433 152.92 9.64732 145 9.64732C140.272 9.64732 136.072 12.0473 133.432 15.6233L137.8 19.2473L123.4 24.0473V7.24732L127.936 11.0393C130.032 8.35684 132.713 6.1884 135.774 4.69939C138.835 3.21037 142.196 2.4401 145.6 2.44732Z" fill="white"/>
<defs>
<clipPath id="clip0">
<rect width="123.201" height="116.992" fill="white" transform="translate(123.201 150.479) rotate(180)"/>
</clipPath>
<clipPath id="clip1">
<rect width="123.201" height="116.992" fill="white" transform="translate(366 33.4873)"/>
</clipPath>
</defs>
</svg>
