<svg width="600" height="259" viewBox="0 0 600 259" fill="none" xmlns="http://www.w3.org/2000/svg">
<g clip-path="url(#clip0)">
<path d="M579.922 181.183H20.2155C9.07632 181.183 0 190.257 0 201.393V238.927C0 250.063 9.07632 259.138 20.2155 259.138H579.922C591.061 259.138 600.138 250.063 600.138 238.927V201.393C600 190.257 590.924 181.183 579.922 181.183ZM586.248 238.927C586.248 242.502 583.36 245.389 579.785 245.389H20.0779C16.5024 245.389 13.6145 242.502 13.6145 238.927V201.393C13.6145 197.818 16.5024 194.931 20.0779 194.931H579.785C583.36 194.931 586.248 197.818 586.248 201.393V238.927Z" fill="white"/>
</g>
<mask id="mask0" mask-type="alpha" maskUnits="userSpaceOnUse" x="19" y="0" width="562" height="172">
<rect x="19" width="562" height="172" fill="#C4C4C4"/>
</mask>
<g mask="url(#mask0)">
<g clip-path="url(#clip1)">
<path d="M152.802 195.191H36.3982C35.81 195.191 35.2871 194.668 35.2871 194.08L38.1629 95.9115C38.359 88.5913 44.372 82.7744 51.6268 82.7744H137.835C144.959 82.7744 150.776 88.4606 151.037 95.5847L153.913 194.08C153.913 194.668 153.456 195.191 152.802 195.191Z" stroke="white" stroke-width="11" stroke-miterlimit="10"/>
<path d="M127.246 187.609H62.476C62.3453 187.609 52.4108 186.302 52.999 175.322C53.3912 168.002 53.3912 144.8 53.4565 138.133C53.4565 137.806 53.3258 137.545 53.0644 137.283C49.9925 134.604 43.8488 127.414 46.3324 113.885C49.9925 93.2969 74.2406 90.6172 94.9593 90.6172C115.678 90.6172 139.926 93.2315 143.586 113.885C145.939 127.414 139.861 134.604 136.854 137.283C136.593 137.479 136.462 137.806 136.462 138.068C136.462 144.734 136.527 167.937 136.92 175.257C137.442 186.237 127.508 187.544 127.443 187.544H127.246V187.609ZM62.9989 182.381H126.789C126.854 182.381 126.92 182.381 126.985 182.381C128.161 182.119 131.887 181.008 131.625 175.583C131.168 166.956 131.168 137.545 131.168 136.303V135.453C131.168 135.061 131.364 134.734 131.691 134.538L132.41 134.081C132.737 133.885 140.841 128.591 138.357 114.8C136.005 101.728 122.606 95.8459 94.8286 95.8459C67.0511 95.8459 53.6526 101.663 51.2997 114.8C48.8161 128.591 56.9205 133.885 57.2473 134.081L57.9663 134.538C58.2931 134.734 58.4891 135.061 58.4891 135.453V136.303C58.4891 137.545 58.4891 166.891 58.0316 175.583C57.8355 181.139 61.7571 182.185 62.8028 182.381C62.8682 182.381 62.9335 182.381 62.9989 182.381Z" fill="white"/>
<path d="M114.241 141.532C113.979 141.271 113.783 141.271 113.522 141.075L110.842 140.16C109.927 139.898 109.012 140.16 108.293 140.617C106.071 142.709 98.8813 141.793 93.1951 141.075C89.7965 140.617 86.2017 140.16 83.326 140.356C77.509 140.356 73.5875 143.754 72.9993 150.029C72.2803 154.538 73.7182 159.898 74.6333 160.813C75.0908 161.27 75.5483 161.532 76.2672 161.728L78.4894 162.185C78.7509 162.185 78.7509 162.185 78.9469 162.185C79.6659 162.185 80.3195 161.924 80.777 161.466C82.9992 159.375 90.1886 160.094 96.0709 160.748C99.6656 161.205 103.522 161.466 106.659 161.466C114.241 161.205 116.397 156.172 116.79 152.12C116.79 152.055 116.79 151.989 116.79 151.989C116.659 148.46 116.005 142.709 114.241 141.532ZM112.214 151.663C111.757 155.519 109.992 157.349 106.071 157.349C103.13 157.61 99.7963 157.087 96.2016 156.63C89.4697 155.911 82.8684 155.257 79.143 157.349C78.4894 157.676 77.6398 157.283 77.5744 156.565V156.434C77.313 154.8 76.8555 152.578 77.313 150.355C78.0319 145.127 80.9077 144.539 83.5874 144.539H83.9795C86.6593 144.539 90.1233 144.996 92.999 145.257C99.731 146.173 106.332 146.891 110.058 144.539L110.515 144.277L111.103 144.408C111.496 144.473 111.757 144.735 111.888 145.127C111.953 145.257 111.953 145.323 111.953 145.454C112.018 147.088 112.411 149.244 112.214 151.663Z" fill="white"/>
</g>
<g clip-path="url(#clip2)">
<path d="M289.402 82.7755H172.998C172.41 82.7755 171.887 83.2983 171.887 83.8866L174.763 182.055C174.959 189.375 180.972 195.192 188.226 195.192H274.434C281.559 195.192 287.376 189.506 287.637 182.382L290.513 83.8866C290.513 83.2983 290.055 82.7755 289.402 82.7755Z" stroke="white" stroke-width="11" stroke-miterlimit="10"/>
<path d="M263.846 90.3573H199.076C198.945 90.3573 189.01 91.6645 189.599 102.645C189.991 109.965 189.991 133.167 190.056 139.834C190.056 140.161 189.925 140.422 189.664 140.684C186.592 143.363 180.448 150.553 182.932 164.082C186.592 184.67 210.84 187.35 231.559 187.35C252.278 187.35 276.526 184.735 280.186 164.082C282.539 150.553 276.46 143.363 273.454 140.684C273.192 140.487 273.062 140.161 273.062 139.899C273.062 133.233 273.127 110.03 273.519 102.71C274.042 91.7299 264.108 90.4227 264.042 90.4227H263.846V90.3573ZM199.598 95.586H263.389C263.454 95.586 263.519 95.586 263.585 95.586C264.761 95.8475 268.487 96.9586 268.225 102.383C267.768 111.011 267.768 140.422 267.768 141.664V142.514C267.768 142.906 267.964 143.233 268.29 143.429L269.009 143.886C269.336 144.082 277.441 149.376 274.957 163.167C272.604 176.239 259.206 182.121 231.428 182.121C203.651 182.121 190.252 176.304 187.899 163.167C185.416 149.376 193.52 144.082 193.847 143.886L194.566 143.429C194.893 143.233 195.089 142.906 195.089 142.514V141.664C195.089 140.422 195.089 111.076 194.631 102.383C194.435 96.8278 198.357 95.7821 199.402 95.586C199.468 95.586 199.533 95.586 199.598 95.586Z" fill="white"/>
<path d="M250.84 136.435C250.579 136.696 250.383 136.696 250.121 136.892L247.442 137.807C246.527 138.069 245.612 137.807 244.893 137.35C242.67 135.258 235.481 136.173 229.795 136.892C226.396 137.35 222.801 137.807 219.926 137.611C214.109 137.611 210.187 134.213 209.599 127.938C208.88 123.428 210.318 118.069 211.233 117.154C211.69 116.696 212.148 116.435 212.867 116.239L215.089 115.781C215.35 115.781 215.35 115.781 215.547 115.781C216.265 115.781 216.919 116.043 217.377 116.5C219.599 118.592 226.788 117.873 232.671 117.219C236.265 116.762 240.121 116.5 243.259 116.5C250.84 116.762 252.997 121.794 253.389 125.847C253.389 125.912 253.389 125.977 253.389 125.977C253.258 129.507 252.605 135.258 250.84 136.435ZM248.814 126.304C248.357 122.448 246.592 120.618 242.67 120.618C239.729 120.357 236.396 120.879 232.801 121.337C226.069 122.056 219.468 122.709 215.743 120.618C215.089 120.291 214.239 120.683 214.174 121.402V121.533C213.913 123.167 213.455 125.389 213.913 127.611C214.632 132.84 217.507 133.428 220.187 133.428H220.579C223.259 133.428 226.723 132.971 229.599 132.709C236.331 131.794 242.932 131.075 246.657 133.428L247.115 133.69L247.703 133.559C248.095 133.494 248.357 133.232 248.487 132.84C248.553 132.709 248.553 132.644 248.553 132.513C248.618 130.879 249.01 128.722 248.814 126.304Z" fill="white"/>
</g>
<g clip-path="url(#clip3)">
<path d="M426.001 195.191H309.597C309.009 195.191 308.486 194.668 308.486 194.08L311.362 95.9115C311.558 88.5913 317.571 82.7744 324.826 82.7744H411.034C418.158 82.7744 423.975 88.4606 424.237 95.5847L427.112 194.08C427.112 194.668 426.655 195.191 426.001 195.191Z" stroke="white" stroke-width="11" stroke-miterlimit="10"/>
<path d="M400.446 187.609H335.675C335.545 187.609 325.61 186.302 326.198 175.322C326.59 168.002 326.59 144.8 326.656 138.133C326.656 137.806 326.525 137.545 326.264 137.283C323.192 134.604 317.048 127.414 319.532 113.885C323.192 93.2969 347.44 90.6172 368.158 90.6172C388.877 90.6172 413.125 93.2315 416.785 113.885C419.138 127.414 413.06 134.604 410.053 137.283C409.792 137.479 409.661 137.806 409.661 138.068C409.661 144.734 409.727 167.937 410.119 175.257C410.642 186.237 400.707 187.544 400.642 187.544H400.446V187.609ZM336.198 182.381H399.988C400.054 182.381 400.119 182.381 400.184 182.381C401.361 182.119 405.086 181.008 404.825 175.583C404.367 166.956 404.367 137.545 404.367 136.303V135.453C404.367 135.061 404.563 134.734 404.89 134.538L405.609 134.081C405.936 133.885 414.04 128.591 411.557 114.8C409.204 101.728 395.805 95.8459 368.028 95.8459C340.25 95.8459 326.852 101.663 324.499 114.8C322.015 128.591 330.12 133.885 330.447 134.081L331.165 134.538C331.492 134.734 331.688 135.061 331.688 135.453V136.303C331.688 137.545 331.688 166.891 331.231 175.583C331.035 181.139 334.956 182.185 336.002 182.381C336.067 182.381 336.133 182.381 336.198 182.381Z" fill="white"/>
<path d="M387.44 141.532C387.178 141.271 386.982 141.271 386.721 141.075L384.041 140.16C383.126 139.898 382.211 140.16 381.492 140.617C379.27 142.709 372.081 141.793 366.394 141.075C362.996 140.617 359.401 140.16 356.525 140.356C350.708 140.356 346.787 143.754 346.199 150.029C345.48 154.538 346.917 159.898 347.832 160.813C348.29 161.27 348.747 161.532 349.466 161.728L351.689 162.185C351.95 162.185 351.95 162.185 352.146 162.185C352.865 162.185 353.519 161.924 353.976 161.466C356.198 159.375 363.388 160.094 369.27 160.748C372.865 161.205 376.721 161.466 379.858 161.466C387.44 161.205 389.597 156.172 389.989 152.12C389.989 152.055 389.989 151.989 389.989 151.989C389.858 148.46 389.205 142.709 387.44 141.532ZM385.414 151.663C384.956 155.519 383.192 157.349 379.27 157.349C376.329 157.61 372.996 157.087 369.401 156.63C362.669 155.911 356.068 155.257 352.342 157.349C351.689 157.676 350.839 157.283 350.774 156.565V156.434C350.512 154.8 350.055 152.578 350.512 150.355C351.231 145.127 354.107 144.539 356.787 144.539H357.179C359.858 144.539 363.322 144.996 366.198 145.257C372.93 146.173 379.531 146.891 383.257 144.539L383.714 144.277L384.303 144.408C384.695 144.473 384.956 144.735 385.087 145.127C385.152 145.257 385.152 145.323 385.152 145.454C385.218 147.088 385.61 149.244 385.414 151.663Z" fill="white"/>
</g>
<g clip-path="url(#clip4)">
<path d="M562.601 82.7755H446.197C445.609 82.7755 445.086 83.2983 445.086 83.8866L447.962 182.055C448.158 189.375 454.171 195.192 461.426 195.192H547.634C554.758 195.192 560.575 189.506 560.836 182.382L563.712 83.8866C563.712 83.2983 563.254 82.7755 562.601 82.7755Z" stroke="white" stroke-width="11" stroke-miterlimit="10"/>
<path d="M537.045 90.3573H472.275C472.144 90.3573 462.21 91.6645 462.798 102.645C463.19 109.965 463.19 133.167 463.255 139.834C463.255 140.161 463.125 140.422 462.863 140.684C459.791 143.363 453.648 150.553 456.131 164.082C459.791 184.67 484.039 187.35 504.758 187.35C525.477 187.35 549.725 184.735 553.385 164.082C555.738 150.553 549.66 143.363 546.653 140.684C546.392 140.487 546.261 140.161 546.261 139.899C546.261 133.233 546.326 110.03 546.718 102.71C547.241 91.7299 537.307 90.4227 537.241 90.4227H537.045V90.3573ZM472.798 95.586H536.588C536.653 95.586 536.718 95.586 536.784 95.586C537.96 95.8475 541.686 96.9586 541.424 102.383C540.967 111.011 540.967 140.422 540.967 141.664V142.514C540.967 142.906 541.163 143.233 541.49 143.429L542.209 143.886C542.535 144.082 550.64 149.376 548.156 163.167C545.803 176.239 532.405 182.121 504.627 182.121C476.85 182.121 463.451 176.304 461.099 163.167C458.615 149.376 466.719 144.082 467.046 143.886L467.765 143.429C468.092 143.233 468.288 142.906 468.288 142.514V141.664C468.288 140.422 468.288 111.076 467.83 102.383C467.634 96.8278 471.556 95.7821 472.602 95.586C472.667 95.586 472.732 95.586 472.798 95.586Z" fill="white"/>
<path d="M524.039 136.435C523.778 136.696 523.582 136.696 523.32 136.892L520.641 137.807C519.726 138.069 518.811 137.807 518.092 137.35C515.87 135.258 508.68 136.173 502.994 136.892C499.595 137.35 496.001 137.807 493.125 137.611C487.308 137.611 483.386 134.213 482.798 127.938C482.079 123.428 483.517 118.069 484.432 117.154C484.89 116.696 485.347 116.435 486.066 116.239L488.288 115.781C488.55 115.781 488.55 115.781 488.746 115.781C489.465 115.781 490.118 116.043 490.576 116.5C492.798 118.592 499.987 117.873 505.87 117.219C509.464 116.762 513.321 116.5 516.458 116.5C524.039 116.762 526.196 121.794 526.588 125.847C526.588 125.912 526.588 125.977 526.588 125.977C526.458 129.507 525.804 135.258 524.039 136.435ZM522.013 126.304C521.556 122.448 519.791 120.618 515.87 120.618C512.928 120.357 509.595 120.879 506 121.337C499.269 122.056 492.667 122.709 488.942 120.618C488.288 120.291 487.439 120.683 487.373 121.402V121.533C487.112 123.167 486.654 125.389 487.112 127.611C487.831 132.84 490.707 133.428 493.386 133.428H493.778C496.458 133.428 499.922 132.971 502.798 132.709C509.53 131.794 516.131 131.075 519.856 133.428L520.314 133.69L520.902 133.559C521.294 133.494 521.556 133.232 521.687 132.84C521.752 132.709 521.752 132.644 521.752 132.513C521.817 130.879 522.209 128.722 522.013 126.304Z" fill="white"/>
</g>
</g>
<defs>
<clipPath id="clip0">
<rect width="600" height="256" fill="white" transform="translate(0 3)"/>
</clipPath>
<clipPath id="clip1">
<rect width="123.201" height="116.992" fill="white" transform="translate(33 80.4873)"/>
</clipPath>
<clipPath id="clip2">
<rect width="123.201" height="116.992" fill="white" transform="matrix(1 0 0 -1 169.6 197.479)"/>
</clipPath>
<clipPath id="clip3">
<rect width="123.201" height="116.992" fill="white" transform="translate(306.199 80.4873)"/>
</clipPath>
<clipPath id="clip4">
<rect width="123.201" height="116.992" fill="white" transform="matrix(1 0 0 -1 442.799 197.479)"/>
</clipPath>
</defs>
</svg>
