<svg width="74" height="126" viewBox="0 0 74 126" fill="none" xmlns="http://www.w3.org/2000/svg">
<path d="M67.3588 8.29095C63.9332 3.28956 58.2124 0.000976562 51.6695 0.000976562H19.8456C13.1999 0.000976563 7.99298 3.22105 5.25249 8.70203C5.14972 8.90757 4.73865 9.72971 4.53311 9.90099C3.19712 11.7851 2.37497 12.9498 1.45006 14.2858C0.833449 15.1764 0.216839 16.1013 0.0455583 17.1633C-0.125722 18.2252 0.216839 19.2872 0.5594 20.3148C1.51857 23.3294 2.47774 26.3097 3.43691 29.3242C3.50543 29.5983 3.57394 29.8723 3.57394 30.1464V59.5381C3.57394 61.7305 5.35526 63.5118 7.54765 63.5118H66.8107C68.9346 63.5118 70.6817 61.7647 70.6817 59.6409V27.7827C71.4695 25.282 72.2574 22.8155 73.0796 20.3148C73.4221 19.2872 73.7305 18.2252 73.5934 17.1633C73.4221 16.1013 72.8055 15.1764 72.1889 14.2858" fill="#00BAE7"/>
<path d="M68.5577 15.7587C66.6736 5.24209 55.5746 1.78223 38.0012 1.78223C20.4278 1.78223 9.32884 5.24209 7.44475 15.7587C5.56067 26.2753 12.2063 30.3176 12.2063 30.3176C12.2063 30.3176 12.2064 50.4944 11.9323 56.2494C11.6583 62.0045 16.6939 62.5868 16.6939 62.5868H38.0355H59.377C59.377 62.5868 64.4127 62.0045 64.1386 56.2494C63.8646 50.4944 63.8646 30.3176 63.8646 30.3176C63.8646 30.3176 70.4075 26.2753 68.5577 15.7587Z" fill="#C96A2D"/>
<path d="M66.0913 15.4159C64.2073 4.89932 53.1083 1.43945 35.5349 1.43945C17.9615 1.43945 6.86253 4.89932 4.97844 15.4159C3.09436 25.9326 9.74004 29.9748 9.74004 29.9748C9.74004 29.9748 9.74004 50.1516 9.46599 55.9067C9.19194 61.6617 14.2276 62.244 14.2276 62.244H35.5691H56.9107C56.9107 62.244 61.9464 61.6617 61.6723 55.9067C61.3983 50.1516 61.3983 29.9748 61.3983 29.9748C61.3983 29.9748 67.9754 25.9326 66.0913 15.4159Z" fill="#EFD0A3"/>
<g opacity="0.25">
<path opacity="0.25" d="M16.8996 27.9534C17.5428 27.9534 18.0643 27.432 18.0643 26.7887C18.0643 26.1455 17.5428 25.624 16.8996 25.624C16.2563 25.624 15.7349 26.1455 15.7349 26.7887C15.7349 27.432 16.2563 27.9534 16.8996 27.9534Z" fill="#C96A2D"/>
<path opacity="0.25" d="M27.8615 24.3909C28.5047 24.3909 29.0262 23.8695 29.0262 23.2262C29.0262 22.583 28.5047 22.0615 27.8615 22.0615C27.2182 22.0615 26.6968 22.583 26.6968 23.2262C26.6968 23.8695 27.2182 24.3909 27.8615 24.3909Z" fill="#C96A2D"/>
<path opacity="0.25" d="M26.9362 14.2513C27.5794 14.2513 28.1009 13.7298 28.1009 13.0866C28.1009 12.4433 27.5794 11.9219 26.9362 11.9219C26.2929 11.9219 25.7715 12.4433 25.7715 13.0866C25.7715 13.7298 26.2929 14.2513 26.9362 14.2513Z" fill="#C96A2D"/>
<path opacity="0.25" d="M24.6413 39.43C25.2845 39.43 25.806 38.9085 25.806 38.2653C25.806 37.622 25.2845 37.1006 24.6413 37.1006C23.998 37.1006 23.4766 37.622 23.4766 38.2653C23.4766 38.9085 23.998 39.43 24.6413 39.43Z" fill="#C96A2D"/>
<path opacity="0.25" d="M44.4411 33.0238C45.0843 33.0238 45.6058 32.5023 45.6058 31.859C45.6058 31.2158 45.0843 30.6943 44.4411 30.6943C43.7978 30.6943 43.2764 31.2158 43.2764 31.859C43.2764 32.5023 43.7978 33.0238 44.4411 33.0238Z" fill="#C96A2D"/>
<path opacity="0.25" d="M33.1022 31.8587C33.7455 31.8587 34.2669 31.3373 34.2669 30.694C34.2669 30.0508 33.7455 29.5293 33.1022 29.5293C32.459 29.5293 31.9375 30.0508 31.9375 30.694C31.9375 31.3373 32.459 31.8587 33.1022 31.8587Z" fill="#C96A2D"/>
<path opacity="0.25" d="M43.277 18.0882C43.9203 18.0882 44.4417 17.5667 44.4417 16.9235C44.4417 16.2802 43.9203 15.7588 43.277 15.7588C42.6338 15.7588 42.1123 16.2802 42.1123 16.9235C42.1123 17.5667 42.6338 18.0882 43.277 18.0882Z" fill="#C96A2D"/>
</g>
<path d="M35.5007 4.83081C44.4073 4.83081 50.8817 5.75572 55.3693 7.60555C59.6855 9.42113 62.0149 12.0931 62.7343 15.9983C63.3509 19.3897 62.9741 22.2672 61.6724 24.5966C60.7817 26.1724 59.7198 26.9603 59.5485 27.0973L57.9385 27.9879V29.9748C57.9385 30.7969 57.9385 50.2887 58.2468 56.0779C58.3153 57.7222 57.7329 58.2018 57.5274 58.3731C57.1848 58.6472 56.808 58.7842 56.5682 58.8527H35.5692H14.4675C14.2277 58.7842 13.8509 58.6472 13.5083 58.3731C13.3028 58.2018 12.6861 57.7222 12.7889 56.0779C13.063 50.2887 13.0972 30.7969 13.0972 29.9748V28.0564L11.4872 27.063C11.4872 27.063 10.4595 26.3436 9.53458 24.8706C8.09583 22.507 7.68475 19.5267 8.30136 15.9983C8.98648 12.0588 11.3502 9.42113 15.6664 7.60555C20.1197 5.75572 26.5941 4.83081 35.5007 4.83081ZM35.5007 1.43945C17.9273 1.43945 6.82835 4.89932 4.94426 15.4159C3.06018 25.9326 9.70586 29.9748 9.70586 29.9748C9.70586 29.9748 9.70586 50.1516 9.43181 55.9067C9.12351 61.6617 14.1592 62.244 14.1592 62.244H35.5007H56.8423C56.8423 62.244 61.8779 61.6617 61.6039 55.9067C61.3298 50.1516 61.3298 29.9748 61.3298 29.9748C61.3298 29.9748 67.9755 25.9326 66.0914 15.4159C64.1731 4.89932 53.0741 1.43945 35.5007 1.43945Z" fill="#F0C580"/>
<path opacity="0.15" d="M73.5249 17.1623C73.3536 16.1004 72.737 15.1755 72.1204 14.2848L67.3588 8.28998C63.9332 3.28859 58.2124 0 51.6695 0H19.8456C13.1999 0 7.99298 3.22007 5.25249 8.70105C5.14972 8.90659 4.73865 9.72873 4.53311 9.90002C3.19712 11.7841 2.37497 12.9488 1.45006 14.2848C0.833449 15.1755 0.216839 16.1004 0.0455583 17.1623C-0.125722 18.2242 0.216839 19.2862 0.5594 20.3139C1.51857 23.3284 2.47774 26.3087 3.43691 29.3232C3.50543 29.5973 3.57394 29.8713 3.57394 30.1454V59.5371C3.57394 61.7295 5.35526 63.5108 7.54765 63.5108H66.8107C68.9346 63.5108 70.6817 61.7638 70.6817 59.6399V27.7817C71.4695 25.281 72.2574 22.8146 73.0796 20.3139C73.3536 19.3204 73.6962 18.2242 73.5249 17.1623Z" fill="white"/>
<path d="M48.5182 34.4961C48.5182 34.4961 47.4905 36.6885 43.3798 36.7227C41.4957 36.7227 33.0687 36.7913 31.9382 36.9625C25.5666 37.9217 26.56 44.5331 26.56 44.5331C26.56 44.5331 27.5877 42.3407 31.6985 42.3065C33.5825 42.3065 42.0095 42.238 43.14 42.0667C49.5459 41.1418 48.5182 34.4961 48.5182 34.4961Z" fill="#3358B6"/>
<path fill-rule="evenodd" clip-rule="evenodd" d="M35.6374 31.3095C29.5056 30.5216 24.6755 30.5901 21.9007 32.5427C21.1128 29.4254 20.8045 26.5479 21.3526 24.15C22.3118 19.9365 24.9838 18.9773 27.4502 18.8403C30.5675 18.669 35.4319 19.6967 39.4056 20.2448C44.5098 20.9642 49.1001 21.1012 52.2174 19.3199C53.2108 21.8891 53.3821 24.5268 52.9368 27.1645C52.4914 30.1791 50.7101 31.7549 47.7641 32.0974C43.9959 32.5085 39.7482 31.8234 35.6374 31.3095Z" fill="white"/>
<path fill-rule="evenodd" clip-rule="evenodd" d="M33.4451 20.383C33.9247 20.383 34.1303 20.7599 34.1303 21.1367C34.1303 21.5478 33.8905 21.9246 33.4794 21.9246C33.0341 21.9246 32.7943 21.582 32.76 21.1709C32.76 20.7941 32.9313 20.383 33.4451 20.383ZM33.4451 20.109C32.7943 20.109 32.3147 20.4516 32.3147 21.1367C32.3147 21.8218 32.7258 22.1986 33.4451 22.1986C34.1303 22.1986 34.5756 21.8218 34.5756 21.1367C34.5756 20.4858 34.1303 20.109 33.4451 20.109ZM30.9787 21.0682V20.4516C31.2527 20.4516 31.6296 20.383 31.6296 20.7599C31.6296 21.0682 31.287 21.0682 30.9787 21.0682ZM30.5676 22.1986H31.0129V21.3765C31.3555 21.3765 31.8008 21.3765 32.0064 21.0682C32.2119 20.7599 32.1434 20.2118 31.5268 20.1775H30.5676V22.1986ZM28.4437 20.1433H28.8206C28.8206 20.3488 28.8206 21.3765 28.8206 21.5478C28.9233 21.9931 29.7112 21.9588 29.7455 21.5135C29.7797 21.2395 29.7455 20.4516 29.7455 20.1433H30.1223C30.1223 20.383 30.1565 21.4792 30.088 21.719C29.951 22.3014 29.1631 22.3014 28.7863 22.1301C28.4437 21.9588 28.4095 21.6848 28.4095 21.3422L28.4437 20.1433ZM27.0392 21.0339V20.4173C27.3475 20.4173 27.7244 20.3488 27.7244 20.6914C27.7244 21.0682 27.279 21.0339 27.0392 21.0339ZM26.5939 22.1986H27.0392V21.3422H27.279L27.7586 22.1986H28.2725L27.7244 21.2737C27.9984 21.1709 28.1697 20.9997 28.1697 20.7256C28.1697 20.3145 27.8271 20.2118 27.5188 20.1775H26.5939V22.1986ZM25.4977 21.0682V21.3422H25.8403V21.7875C25.4977 21.8903 24.9496 21.9246 24.7783 21.4792C24.6071 21.0339 24.7783 20.383 25.4292 20.383C25.669 20.383 25.8403 20.4516 25.943 20.6571L26.1828 20.383C26.0116 20.1775 25.806 20.109 25.4635 20.109C24.1275 20.109 24.1275 21.5135 24.6756 21.9246C25.0866 22.2671 25.7718 22.1644 26.2856 22.0273V21.0339L25.4977 21.0682ZM33.0683 31.6533C29.3687 31.3107 25.806 31.482 23.6136 33.2976C22.9285 33.1948 22.2434 33.0578 21.524 32.955C20.6676 30.1803 20.4963 27.2343 20.8731 24.2197C21.4898 21.2737 23.0313 18.636 26.7652 18.4305C30.6361 18.1907 35.8773 19.1498 41.1185 19.6979C44.8524 20.0747 48.141 19.7664 50.2991 18.0879C51.087 18.3277 51.8749 18.5675 52.6971 18.8073C53.6905 21.6848 53.759 24.4938 53.3137 27.2685C52.6628 31.208 50.0936 32.6125 46.668 32.6467C41.8721 32.6467 36.905 31.9959 33.0683 31.6533ZM35.6375 31.3107C29.5057 30.5229 24.6756 30.5914 21.9008 32.544C21.1129 29.4267 20.8046 26.5491 21.3527 24.1512C22.3119 19.9377 24.9839 18.9785 27.4503 18.8415C30.5676 18.6702 35.432 19.6979 39.4057 20.246C44.5099 20.9654 49.1002 21.1024 52.2175 19.3211C53.2109 21.8903 53.3822 24.528 52.9369 27.1658C52.4915 30.1803 50.7102 31.7561 47.7642 32.0986C43.996 32.5097 39.7483 31.8246 35.6375 31.3107Z" fill="#3D438B"/>
<path fill-rule="evenodd" clip-rule="evenodd" d="M42.2834 27.952H40.9816V24.1496H42.0778C42.6602 24.1496 42.8657 24.3209 42.9 24.6292C42.9342 25.1088 42.6602 25.3486 42.2148 25.3486H41.8038L41.2899 26.479H42.3176C42.7972 26.479 43.2768 26.8216 43.2083 27.2669C43.1055 27.678 42.7629 27.952 42.2834 27.952ZM42.4889 29.2195H39.4058V22.8479H42.3519C43.3796 22.8479 44.2702 23.1562 44.4072 24.1154C44.51 24.8347 44.3045 25.3486 43.7564 25.7254C44.5785 26.1022 44.9211 27.0614 44.6128 27.9863C44.3387 28.9112 43.2425 29.2195 42.4889 29.2195ZM48.1412 24.2524C49.0661 24.2524 49.854 25.0403 49.854 25.9652C49.854 26.9244 49.1003 27.678 48.1412 27.678C47.2162 27.678 46.4284 26.8901 46.4284 25.9652C46.4626 25.0403 47.2162 24.2524 48.1412 24.2524ZM48.1412 22.7451C49.8882 22.7451 51.327 24.1839 51.327 25.9994C51.327 27.7808 49.8882 29.2538 48.1412 29.2538C46.3941 29.2538 44.9553 27.815 44.9553 25.9994C44.9553 24.2181 46.3941 22.7451 48.1412 22.7451ZM38.755 22.8479V29.2195H37.1792V25.1773L36.1515 29.2195H34.6443L33.6851 25.2458V29.2195H32.1778V22.8479H34.61L35.4321 26.4105L36.2543 22.8479H38.755ZM29.9512 22.8479H31.4927V29.2195H29.9512V22.8479ZM27.1079 27.952H25.8062V24.1496H26.9024C27.4847 24.1496 27.6903 24.3209 27.7245 24.6292C27.7588 25.1088 27.4847 25.3486 27.0394 25.3486H26.6283L26.1145 26.479H27.1422C27.6217 26.479 28.1013 26.8216 28.0328 27.2669C27.9643 27.678 27.5875 27.952 27.1079 27.952ZM27.3477 29.2195H24.2646V22.8479H27.2107C28.2384 22.8479 29.129 23.1562 29.266 24.1154C29.3688 24.8347 29.1633 25.3486 28.6152 25.7254C29.4373 26.1022 29.7799 27.0614 29.4716 27.9863C29.1633 28.9112 28.1013 29.2195 27.3477 29.2195Z" fill="#DA243C"/>
<mask id="mask0" mask-type="alpha" maskUnits="userSpaceOnUse" x="0" y="0" width="74" height="64">
<path d="M67.3588 8.28998C63.9332 3.28859 58.2124 0 51.6695 0H19.8456C13.1999 0 7.99298 3.22007 5.25249 8.70105C5.14972 8.90659 4.73865 9.72873 4.53311 9.90002C3.19712 11.7841 2.37497 12.9488 1.45006 14.2848C0.833449 15.1755 0.216839 16.1004 0.0455583 17.1623C-0.125722 18.2242 0.216839 19.2862 0.5594 20.3139C1.51857 23.3284 2.47774 26.3087 3.43691 29.3232C3.50543 29.5973 3.57394 29.8713 3.57394 30.1454V59.5371C3.57394 61.7295 5.35526 63.5108 7.54765 63.5108H66.8107C68.9346 63.5108 70.6817 61.7638 70.6817 59.6399V27.7817C71.4695 25.281 72.2574 22.8146 73.0796 20.3139C73.4221 19.2862 73.7305 18.2242 73.5934 17.1623C73.4221 16.1004 72.8055 15.1755 72.1889 14.2848" fill="#00BAE7"/>
</mask>
<g mask="url(#mask0)">
<path opacity="0.15" d="M-13.3019 86.7546L25.2808 -16.5146L22.2321 -17.6537L-16.3506 85.6156L-13.3019 86.7546Z" fill="white"/>
<path opacity="0.15" d="M-2.44008 94.819L36.1426 -8.4502L34.6343 -9.01371L-3.94836 94.2555L-2.44008 94.819Z" fill="white"/>
<path opacity="0.15" d="M-4.74769 91.112L33.835 -12.1572L27.2242 -14.6271L-11.3585 88.6421L-4.74769 91.112Z" fill="white"/>
<path opacity="0.15" d="M41.3265 99.7741L79.9092 -3.49512L73.2984 -5.96498L34.7158 97.3043L41.3265 99.7741Z" fill="white"/>
<path opacity="0.15" d="M33.1756 95.2263L71.7583 -8.04297L68.7096 -9.18198L30.127 94.0873L33.1756 95.2263Z" fill="white"/>
<path opacity="0.15" d="M-20.1784 86.6657L18.4043 -16.6035L11.7935 -19.0734L-26.7891 84.1959L-20.1784 86.6657Z" fill="white"/>
<path opacity="0.15" d="M-28.3292 82.1179L10.2534 -21.1514L7.20476 -22.2904L-31.3779 80.9789L-28.3292 82.1179Z" fill="white"/>
</g>
<path d="M67.3588 70.6376C63.9332 65.6362 58.2124 62.3477 51.6695 62.3477H19.8456C13.1999 62.3477 7.99298 65.5677 5.25249 71.0487C5.14972 71.2542 4.73865 72.0764 4.53311 72.2477C3.19712 74.1318 2.37497 75.2965 1.45006 76.6325C0.833449 77.5231 0.216839 78.448 0.0455583 79.51C-0.125722 80.5719 0.216839 81.6338 0.5594 82.6615C1.51857 85.6761 2.47774 88.6563 3.43691 91.6709C3.50543 91.9449 3.57394 92.219 3.57394 92.493V121.885C3.57394 124.077 5.35526 125.858 7.54765 125.858H66.8107C68.9346 125.858 70.6817 124.111 70.6817 121.988V90.1294C71.4695 87.6287 72.2574 85.1622 73.0796 82.6615C73.4221 81.6338 73.7305 80.5719 73.5934 79.51C73.4221 78.448 72.8055 77.5231 72.1889 76.6325" fill="#00BAE7"/>
<path d="M68.5577 78.1034C66.6736 67.5868 55.5746 64.127 38.0012 64.127C20.4278 64.127 9.32884 67.5868 7.44475 78.1034C5.56067 88.6201 12.2063 92.6623 12.2063 92.6623C12.2063 92.6623 12.2064 112.839 11.9323 118.594C11.6583 124.349 16.6939 124.932 16.6939 124.932H38.0355H59.377C59.377 124.932 64.4127 124.349 64.1386 118.594C63.8646 112.839 63.8646 92.6623 63.8646 92.6623C63.8646 92.6623 70.4075 88.6201 68.5577 78.1034Z" fill="#C96A2D"/>
<path d="M66.0913 77.7607C64.2073 67.244 53.1083 63.7842 35.5349 63.7842C17.9615 63.7842 6.86253 67.244 4.97844 77.7607C3.09436 88.2773 9.74004 92.3195 9.74004 92.3195C9.74004 92.3195 9.74004 112.496 9.46599 118.251C9.19194 124.006 14.2276 124.589 14.2276 124.589H35.5691H56.9107C56.9107 124.589 61.9464 124.006 61.6723 118.251C61.3983 112.496 61.3983 92.3195 61.3983 92.3195C61.3983 92.3195 67.9754 88.2773 66.0913 77.7607Z" fill="#EFD0A3"/>
<g opacity="0.25">
<path opacity="0.25" d="M16.8996 90.2991C17.5428 90.2991 18.0643 89.7777 18.0643 89.1344C18.0643 88.4912 17.5428 87.9697 16.8996 87.9697C16.2563 87.9697 15.7349 88.4912 15.7349 89.1344C15.7349 89.7777 16.2563 90.2991 16.8996 90.2991Z" fill="#C96A2D"/>
<path opacity="0.25" d="M27.8615 86.7366C28.5047 86.7366 29.0262 86.2152 29.0262 85.5719C29.0262 84.9287 28.5047 84.4072 27.8615 84.4072C27.2182 84.4072 26.6968 84.9287 26.6968 85.5719C26.6968 86.2152 27.2182 86.7366 27.8615 86.7366Z" fill="#C96A2D"/>
<path opacity="0.25" d="M26.9362 76.597C27.5794 76.597 28.1009 76.0755 28.1009 75.4323C28.1009 74.789 27.5794 74.2676 26.9362 74.2676C26.2929 74.2676 25.7715 74.789 25.7715 75.4323C25.7715 76.0755 26.2929 76.597 26.9362 76.597Z" fill="#C96A2D"/>
<path opacity="0.25" d="M24.6413 101.776C25.2845 101.776 25.806 101.254 25.806 100.611C25.806 99.9677 25.2845 99.4463 24.6413 99.4463C23.998 99.4463 23.4766 99.9677 23.4766 100.611C23.4766 101.254 23.998 101.776 24.6413 101.776Z" fill="#C96A2D"/>
<path opacity="0.25" d="M44.4411 95.3695C45.0843 95.3695 45.6058 94.848 45.6058 94.2047C45.6058 93.5615 45.0843 93.04 44.4411 93.04C43.7978 93.04 43.2764 93.5615 43.2764 94.2047C43.2764 94.848 43.7978 95.3695 44.4411 95.3695Z" fill="#C96A2D"/>
<path opacity="0.25" d="M33.1022 94.2044C33.7455 94.2044 34.2669 93.683 34.2669 93.0397C34.2669 92.3965 33.7455 91.875 33.1022 91.875C32.459 91.875 31.9375 92.3965 31.9375 93.0397C31.9375 93.683 32.459 94.2044 33.1022 94.2044Z" fill="#C96A2D"/>
<path opacity="0.25" d="M43.277 80.4339C43.9203 80.4339 44.4417 79.9125 44.4417 79.2692C44.4417 78.626 43.9203 78.1045 43.277 78.1045C42.6338 78.1045 42.1123 78.626 42.1123 79.2692C42.1123 79.9125 42.6338 80.4339 43.277 80.4339Z" fill="#C96A2D"/>
</g>
<path d="M35.5007 67.1755C44.4073 67.1755 50.8817 68.1004 55.3693 69.9503C59.6855 71.7659 62.0149 74.4378 62.7343 78.343C63.3509 81.7344 62.9741 84.6119 61.6724 86.9413C60.7817 88.5171 59.7198 89.305 59.5485 89.442L57.9385 90.3327V92.3195C57.9385 93.1417 57.9385 112.633 58.2468 118.423C58.3153 120.067 57.7329 120.547 57.5274 120.718C57.1848 120.992 56.808 121.129 56.5682 121.197H35.5692H14.4675C14.2277 121.129 13.8509 120.992 13.5083 120.718C13.3028 120.547 12.6861 120.067 12.7889 118.423C13.063 112.633 13.0972 93.1417 13.0972 92.3195V90.4012L11.4872 89.4078C11.4872 89.4078 10.4595 88.6884 9.53458 87.2154C8.09583 84.8517 7.68475 81.8714 8.30136 78.343C8.98648 74.4036 11.3502 71.7659 15.6664 69.9503C20.1197 68.1004 26.5941 67.1755 35.5007 67.1755ZM35.5007 63.7842C17.9273 63.7842 6.82835 67.244 4.94426 77.7607C3.06018 88.2773 9.70586 92.3195 9.70586 92.3195C9.70586 92.3195 9.70586 112.496 9.43181 118.251C9.12351 124.006 14.1592 124.589 14.1592 124.589H35.5007H56.8423C56.8423 124.589 61.8779 124.006 61.6039 118.251C61.3298 112.496 61.3298 92.3195 61.3298 92.3195C61.3298 92.3195 67.9755 88.2773 66.0914 77.7607C64.1731 67.244 53.0741 63.7842 35.5007 63.7842Z" fill="#F0C580"/>
<path opacity="0.15" d="M73.5249 79.509C73.3536 78.4471 72.737 77.5221 72.1204 76.6315L67.3588 70.6367C63.9332 65.6353 58.2124 62.3467 51.6695 62.3467H19.8456C13.1999 62.3467 7.99298 65.5668 5.25249 71.0477C5.14972 71.2533 4.73865 72.0754 4.53311 72.2467C3.19712 74.1308 2.37497 75.2955 1.45006 76.6315C0.833449 77.5221 0.216839 78.4471 0.0455583 79.509C-0.125722 80.5709 0.216839 81.6329 0.5594 82.6606C1.51857 85.6751 2.47774 88.6554 3.43691 91.6699C3.50543 91.944 3.57394 92.218 3.57394 92.4921V121.884C3.57394 124.076 5.35526 125.858 7.54765 125.858H66.8107C68.9346 125.858 70.6817 124.11 70.6817 121.987V90.1284C71.4695 87.6277 72.2574 85.1612 73.0796 82.6606C73.3536 81.6671 73.6962 80.5709 73.5249 79.509Z" fill="white"/>
<path d="M48.5182 96.8418C48.5182 96.8418 47.4905 99.0342 43.3798 99.0684C41.4957 99.0684 33.0687 99.137 31.9382 99.3082C25.5666 100.267 26.56 106.879 26.56 106.879C26.56 106.879 27.5877 104.686 31.6985 104.652C33.5825 104.652 42.0095 104.584 43.14 104.412C49.5459 103.487 48.5182 96.8418 48.5182 96.8418Z" fill="#3358B6"/>
<path fill-rule="evenodd" clip-rule="evenodd" d="M35.6379 93.6562C29.5061 92.8683 24.676 92.9368 21.9012 94.8894C21.1133 91.7721 20.805 88.8946 21.3531 86.4967C22.3123 82.2832 24.9843 81.324 27.4507 81.187C30.568 81.0157 35.4324 82.0434 39.4061 82.5915C44.5103 83.3109 49.1006 83.4479 52.2179 81.6666C53.2113 84.2358 53.3826 86.8735 52.9373 89.5112C52.4919 92.5258 50.7106 94.1015 47.7646 94.4441C43.9964 94.8552 39.7487 94.17 35.6379 93.6562Z" fill="white"/>
<path fill-rule="evenodd" clip-rule="evenodd" d="M33.4451 82.7278C33.9247 82.7278 34.1303 83.1046 34.1303 83.4814C34.1303 83.8925 33.8905 84.2693 33.4794 84.2693C33.0341 84.2693 32.7943 83.9267 32.76 83.5157C32.76 83.1388 32.9313 82.7278 33.4451 82.7278ZM33.4451 82.4537C32.7943 82.4537 32.3147 82.7963 32.3147 83.4814C32.3147 84.1665 32.7258 84.5434 33.4451 84.5434C34.1303 84.5434 34.5756 84.1665 34.5756 83.4814C34.5756 82.8305 34.1303 82.4537 33.4451 82.4537ZM30.9787 83.4129V82.7963C31.2527 82.7963 31.6296 82.7278 31.6296 83.1046C31.6296 83.4129 31.287 83.4129 30.9787 83.4129ZM30.5676 84.5434H31.0129V83.7212C31.3555 83.7212 31.8008 83.7212 32.0064 83.4129C32.2119 83.1046 32.1434 82.5565 31.5268 82.5222H30.5676V84.5434ZM28.4437 82.488H28.8206C28.8206 82.6935 28.8206 83.7212 28.8206 83.8925C28.9233 84.3378 29.7112 84.3036 29.7455 83.8582C29.7797 83.5842 29.7455 82.7963 29.7455 82.488H30.1223C30.1223 82.7278 30.1565 83.824 30.088 84.0638C29.951 84.6461 29.1631 84.6461 28.7863 84.4748C28.4437 84.3036 28.4095 84.0295 28.4095 83.6869L28.4437 82.488ZM27.0392 83.3786V82.762C27.3475 82.762 27.7244 82.6935 27.7244 83.0361C27.7244 83.4129 27.279 83.3786 27.0392 83.3786ZM26.5939 84.5434H27.0392V83.6869H27.279L27.7586 84.5434H28.2725L27.7244 83.6184C27.9984 83.5157 28.1697 83.3444 28.1697 83.0703C28.1697 82.6593 27.8271 82.5565 27.5188 82.5222H26.5939V84.5434ZM25.4977 83.4129V83.6869H25.8403V84.1323C25.4977 84.235 24.9496 84.2693 24.7783 83.824C24.6071 83.3786 24.7783 82.7278 25.4292 82.7278C25.669 82.7278 25.8403 82.7963 25.943 83.0018L26.1828 82.7278C26.0116 82.5222 25.806 82.4537 25.4635 82.4537C24.1275 82.4537 24.1275 83.8582 24.6756 84.2693C25.0866 84.6119 25.7718 84.5091 26.2856 84.3721V83.3786L25.4977 83.4129ZM33.0683 93.998C29.3687 93.6555 25.806 93.8268 23.6136 95.6423C22.9285 95.5396 22.2434 95.4025 21.524 95.2998C20.6676 92.525 20.4963 89.579 20.8731 86.5645C21.4898 83.6184 23.0313 80.9807 26.7652 80.7752C30.6361 80.5354 35.8773 81.4946 41.1185 82.0427C44.8524 82.4195 48.141 82.1112 50.2991 80.4326C51.087 80.6724 51.8749 80.9122 52.6971 81.152C53.6905 84.0295 53.759 86.8385 53.3137 89.6133C52.6628 93.5527 50.0936 94.9572 46.668 94.9915C41.8721 94.9915 36.905 94.3406 33.0683 93.998ZM35.6375 93.6555C29.5057 92.8676 24.6756 92.9361 21.9008 94.8887C21.1129 91.7714 20.8046 88.8939 21.3527 86.4959C22.3119 82.2824 24.9839 81.3233 27.4503 81.1863C30.5676 81.015 35.432 82.0427 39.4057 82.5908C44.5099 83.3101 49.1002 83.4472 52.2175 81.6658C53.2109 84.235 53.3822 86.8728 52.9369 89.5105C52.4915 92.525 50.7102 94.1008 47.7642 94.4434C43.996 94.8544 39.7483 94.1693 35.6375 93.6555Z" fill="#3D438B"/>
<path fill-rule="evenodd" clip-rule="evenodd" d="M42.2834 90.2987H40.9816V86.4963H42.0778C42.6602 86.4963 42.8657 86.6676 42.9 86.9759C42.9342 87.4555 42.6602 87.6953 42.2148 87.6953H41.8038L41.2899 88.8257H42.3176C42.7972 88.8257 43.2768 89.1683 43.2083 89.6136C43.1055 90.0247 42.7629 90.2987 42.2834 90.2987ZM42.4889 91.5662H39.4058V85.1946H42.3519C43.3796 85.1946 44.2702 85.5029 44.4072 86.462C44.51 87.1814 44.3045 87.6953 43.7564 88.0721C44.5785 88.4489 44.9211 89.4081 44.6128 90.333C44.3387 91.2579 43.2425 91.5662 42.4889 91.5662ZM48.1412 86.5991C49.0661 86.5991 49.854 87.387 49.854 88.3119C49.854 89.271 49.1003 90.0247 48.1412 90.0247C47.2162 90.0247 46.4284 89.2368 46.4284 88.3119C46.4626 87.387 47.2162 86.5991 48.1412 86.5991ZM48.1412 85.0918C49.8882 85.0918 51.327 86.5306 51.327 88.3461C51.327 90.1274 49.8882 91.6005 48.1412 91.6005C46.3941 91.6005 44.9553 90.1617 44.9553 88.3461C44.9553 86.5648 46.3941 85.0918 48.1412 85.0918ZM38.755 85.1946V91.5662H37.1792V87.524L36.1515 91.5662H34.6443L33.6851 87.5925V91.5662H32.1778V85.1946H34.61L35.4321 88.7572L36.2543 85.1946H38.755ZM29.9512 85.1946H31.4927V91.5662H29.9512V85.1946ZM27.1079 90.2987H25.8062V86.4963H26.9024C27.4847 86.4963 27.6903 86.6676 27.7245 86.9759C27.7588 87.4555 27.4847 87.6953 27.0394 87.6953H26.6283L26.1145 88.8257H27.1422C27.6217 88.8257 28.1013 89.1683 28.0328 89.6136C27.9643 90.0247 27.5875 90.2987 27.1079 90.2987ZM27.3477 91.5662H24.2646V85.1946H27.2107C28.2384 85.1946 29.129 85.5029 29.266 86.462C29.3688 87.1814 29.1633 87.6953 28.6152 88.0721C29.4373 88.4489 29.7799 89.4081 29.4716 90.333C29.1633 91.2579 28.1013 91.5662 27.3477 91.5662Z" fill="#DA243C"/>
<mask id="mask1" mask-type="alpha" maskUnits="userSpaceOnUse" x="0" y="62" width="74" height="64">
<path d="M67.3588 70.6367C63.9332 65.6353 58.2124 62.3467 51.6695 62.3467H19.8456C13.1999 62.3467 7.99298 65.5668 5.25249 71.0477C5.14972 71.2533 4.73865 72.0754 4.53311 72.2467C3.19712 74.1308 2.37497 75.2955 1.45006 76.6315C0.833449 77.5221 0.216839 78.4471 0.0455583 79.509C-0.125722 80.5709 0.216839 81.6329 0.5594 82.6606C1.51857 85.6751 2.47774 88.6554 3.43691 91.6699C3.50543 91.944 3.57394 92.218 3.57394 92.4921V121.884C3.57394 124.076 5.35526 125.858 7.54765 125.858H66.8107C68.9346 125.858 70.6817 124.11 70.6817 121.987V90.1284C71.4695 87.6277 72.2574 85.1612 73.0796 82.6606C73.4221 81.6329 73.7305 80.5709 73.5934 79.509C73.4221 78.4471 72.8055 77.5221 72.1889 76.6315" fill="#00BAE7"/>
</mask>
<g mask="url(#mask1)">
<path opacity="0.15" d="M-13.3019 149.102L25.2808 45.833L22.2321 44.694L-16.3506 147.963L-13.3019 149.102Z" fill="white"/>
<path opacity="0.15" d="M-2.44008 157.167L36.1426 53.8975L34.6343 53.3339L-3.94836 156.603L-2.44008 157.167Z" fill="white"/>
<path opacity="0.15" d="M-4.74769 153.46L33.835 50.1904L27.2242 47.7206L-11.3585 150.99L-4.74769 153.46Z" fill="white"/>
<path opacity="0.15" d="M41.3265 162.12L79.9092 58.8506L73.2984 56.3807L34.7158 159.65L41.3265 162.12Z" fill="white"/>
<path opacity="0.15" d="M33.1756 157.572L71.7583 54.3027L68.7096 53.1637L30.127 156.433L33.1756 157.572Z" fill="white"/>
<path opacity="0.15" d="M-20.1784 149.009L18.4043 45.7402L11.7935 43.2704L-26.7891 146.54L-20.1784 149.009Z" fill="white"/>
<path opacity="0.15" d="M-28.3292 144.462L10.2534 41.1924L7.20476 40.0534L-31.3779 143.323L-28.3292 144.462Z" fill="white"/>
</g>
</svg>
