<svg width="222" height="130" viewBox="0 0 222 130" fill="none" xmlns="http://www.w3.org/2000/svg">
<path d="M0 58.228V19.4192C0 13.5222 4.78549 8.76758 10.6516 8.76758H167.863C173.76 8.76758 178.514 13.5531 178.514 19.4192V58.228C178.514 64.1249 173.729 68.8795 167.863 68.8795H10.6825C4.78549 68.8795 0 64.1249 0 58.228Z" fill="#00BAE7"/>
<path d="M162.676 66.5634V11.0825C162.676 10.4959 163.17 10.002 163.757 10.002H171.105C171.692 10.002 172.186 10.4959 172.186 11.0825V66.5634C172.186 67.15 171.692 67.644 171.105 67.644H163.757C163.17 67.6131 162.676 67.15 162.676 66.5634Z" fill="#C96A2D"/>
<path d="M152.642 66.5634V11.0825C152.642 10.4959 153.136 10.002 153.723 10.002H161.071C161.657 10.002 162.151 10.4959 162.151 11.0825V66.5634C162.151 67.15 161.657 67.644 161.071 67.644H153.723C153.136 67.6131 152.642 67.15 152.642 66.5634Z" fill="#C96A2D"/>
<path d="M142.608 66.5634V11.0825C142.608 10.4959 143.102 10.002 143.689 10.002H151.037C151.623 10.002 152.117 10.4959 152.117 11.0825V66.5634C152.117 67.15 151.623 67.644 151.037 67.644H143.689C143.071 67.6131 142.608 67.15 142.608 66.5634Z" fill="#C96A2D"/>
<path d="M132.543 66.5634V11.0825C132.543 10.4959 133.037 10.002 133.624 10.002H140.972C141.558 10.002 142.052 10.4959 142.052 11.0825V66.5634C142.052 67.15 141.558 67.644 140.972 67.644H133.624C133.037 67.6131 132.543 67.15 132.543 66.5634Z" fill="#C96A2D"/>
<path d="M122.509 66.5634V11.0825C122.509 10.4959 123.003 10.002 123.589 10.002H130.937C131.524 10.002 132.018 10.4959 132.018 11.0825V66.5634C132.018 67.15 131.524 67.644 130.937 67.644H123.589C123.003 67.6131 122.509 67.15 122.509 66.5634Z" fill="#C96A2D"/>
<path d="M112.475 66.5634V11.0825C112.475 10.4959 112.969 10.002 113.555 10.002H120.903C121.49 10.002 121.984 10.4959 121.984 11.0825V66.5634C121.984 67.15 121.49 67.644 120.903 67.644H113.555C112.938 67.6131 112.475 67.15 112.475 66.5634Z" fill="#C96A2D"/>
<path d="M102.41 66.5634V11.0825C102.41 10.4959 102.904 10.002 103.49 10.002H110.838C111.425 10.002 111.919 10.4959 111.919 11.0825V66.5634C111.919 67.15 111.425 67.644 110.838 67.644H103.49C102.904 67.6131 102.41 67.15 102.41 66.5634Z" fill="#C96A2D"/>
<path d="M92.3755 66.5634V11.0825C92.3755 10.4959 92.8695 10.002 93.4561 10.002H100.804C101.391 10.002 101.885 10.4959 101.885 11.0825V66.5634C101.885 67.15 101.391 67.644 100.804 67.644H93.4561C92.8695 67.6131 92.3755 67.15 92.3755 66.5634Z" fill="#C96A2D"/>
<path d="M82.3413 66.5634V11.0825C82.3413 10.4959 82.8353 10.002 83.4219 10.002H90.7699C91.3566 10.002 91.8505 10.4959 91.8505 11.0825V66.5634C91.8505 67.15 91.3566 67.644 90.7699 67.644H83.4219C82.8044 67.6131 82.3413 67.15 82.3413 66.5634Z" fill="#C96A2D"/>
<path d="M72.2764 66.5634V11.0825C72.2764 10.4959 72.7704 10.002 73.357 10.002H80.705C81.2916 10.002 81.7856 10.4959 81.7856 11.0825V66.5634C81.7856 67.15 81.2916 67.644 80.705 67.644H73.357C72.7704 67.6131 72.2764 67.15 72.2764 66.5634Z" fill="#C96A2D"/>
<path d="M62.2422 66.5634V11.0825C62.2422 10.4959 62.7362 10.002 63.3228 10.002H70.6708C71.2574 10.002 71.7514 10.4959 71.7514 11.0825V66.5634C71.7514 67.15 71.2574 67.644 70.6708 67.644H63.3228C62.7362 67.6131 62.2422 67.15 62.2422 66.5634Z" fill="#C96A2D"/>
<path d="M52.208 66.5634V11.0825C52.208 10.4959 52.702 10.002 53.2886 10.002H60.6366C61.2233 10.002 61.7172 10.4959 61.7172 11.0825V66.5634C61.7172 67.15 61.2233 67.644 60.6366 67.644H53.2886C52.6711 67.6131 52.208 67.15 52.208 66.5634Z" fill="#C96A2D"/>
<path d="M42.1738 66.5634V11.0825C42.1738 10.4959 42.6678 10.002 43.2544 10.002H50.6025C51.1891 10.002 51.6831 10.4959 51.6831 11.0825V66.5634C51.6831 67.15 51.1891 67.644 50.6025 67.644H43.2235C42.6369 67.6131 42.1738 67.15 42.1738 66.5634Z" fill="#C96A2D"/>
<path d="M32.1089 66.5634V11.0825C32.1089 10.4959 32.6029 10.002 33.1895 10.002H40.5375C41.1241 10.002 41.6181 10.4959 41.6181 11.0825V66.5634C41.6181 67.15 41.1241 67.644 40.5375 67.644H33.1895C32.6029 67.6131 32.1089 67.15 32.1089 66.5634Z" fill="#C96A2D"/>
<path d="M22.0747 66.5634V11.0825C22.0747 10.4959 22.5687 10.002 23.1553 10.002H30.5034C31.09 10.002 31.5839 10.4959 31.5839 11.0825V66.5634C31.5839 67.15 31.09 67.644 30.5034 67.644H23.1553C22.5378 67.6131 22.0747 67.15 22.0747 66.5634Z" fill="#C96A2D"/>
<path d="M12.0405 66.5634V11.0825C12.0405 10.4959 12.5345 10.002 13.1211 10.002H20.4692C21.0558 10.002 21.5498 10.4959 21.5498 11.0825V66.5634C21.5498 67.15 21.0558 67.644 20.4692 67.644H13.0902C12.5036 67.6131 12.0405 67.15 12.0405 66.5634Z" fill="#C96A2D"/>
<path d="M1.94531 59.1845V18.4306C1.94531 13.7686 5.71196 10.002 10.374 10.002C10.9606 10.002 11.4545 10.4959 11.4545 11.0825V66.5634C11.4545 67.15 10.9606 67.644 10.374 67.644C5.71196 67.6131 1.94531 63.8465 1.94531 59.1845Z" fill="#C96A2D"/>
<g opacity="0.15">
<path opacity="0.15" d="M0 58.228V19.4192C0 13.5222 4.78549 8.76758 10.6516 8.76758H167.863C173.76 8.76758 178.514 13.5531 178.514 19.4192V58.228C178.514 64.1249 173.729 68.8795 167.863 68.8795H10.6825C4.78549 68.8795 0 64.1249 0 58.228Z" fill="#C96A2D"/>
</g>
<g opacity="0.15">
<path opacity="0.15" d="M178.576 19.4182V58.227C178.576 64.1239 173.79 68.8786 167.924 68.8786H10.7131C4.81614 68.8786 0.0615234 64.0931 0.0615234 58.227V19.4182C0.0615234 13.5212 4.84702 8.7666 10.7131 8.7666H167.924C173.821 8.7666 178.576 13.5521 178.576 19.4182Z" fill="white"/>
</g>
<path d="M181.015 45.0445C186.881 46.8044 192.747 48.5951 198.582 50.3549C201.608 51.2811 204.88 52.1765 207.875 51.1267C210.253 50.2931 212.074 48.2863 213.247 46.0325C214.39 43.7787 214.976 41.2779 215.532 38.808C217.415 38.314 219.33 37.7274 220.688 36.338C222.047 34.9487 222.54 32.5405 221.244 31.1203C220.009 29.731 217.817 29.8236 216.273 28.8047C214.637 27.7241 214.05 25.6556 213.556 23.7414C212.105 17.9988 210.654 12.2562 209.234 6.51359C208.585 3.95104 207.567 0.956248 205.035 0.184394C202.627 -0.556585 200.219 1.07974 198.181 2.53083C196.143 3.98191 193.457 5.40213 191.265 4.19803C189.66 3.33356 188.795 1.32674 187.035 0.894501C184.998 0.400514 183.238 2.37646 182.157 4.16716C175.982 14.4791 174.315 26.8905 174.068 38.9006C174.006 42.1732 174.068 45.7855 175.828 48.6568C177.773 51.9295 181.447 47.7306 181.015 45.0445Z" fill="white"/>
<path d="M182.096 4.22856C177.032 12.6881 175.026 22.5061 174.315 32.4167C176.261 30.379 177.989 27.8782 178.854 24.9142C181.478 16.0534 193.704 5.77227 196.051 3.88894C194.445 4.69167 192.747 5.09303 191.234 4.25943C189.629 3.39496 188.765 1.38814 187.005 0.9559C184.936 0.461913 183.176 2.43786 182.096 4.22856Z" fill="#E8E8E8"/>
<path d="M181.108 45.0751C186.943 46.8349 192.747 48.5947 198.582 50.3545C201.608 51.2808 204.881 52.1761 207.876 51.1264C210.253 50.2928 212.074 48.286 213.248 46.0322C214.39 43.7784 214.977 41.2775 215.532 38.8076L178.236 39.4868L181.108 45.0751Z" fill="#E8E8E8"/>
<path d="M177.063 36.708C177.372 36.955 177.65 37.2329 177.897 37.5416C177.866 37.5107 177.835 37.4799 177.804 37.449C178.144 37.9121 178.421 38.4061 178.638 38.9309C178.607 38.9001 178.607 38.8383 178.576 38.8074C178.915 39.6102 179.132 40.4746 179.286 41.37C179.471 42.358 179.595 43.3459 179.842 44.3339C180.058 45.1984 180.367 46.0629 180.83 46.8656C181.262 47.6066 181.849 48.2858 182.559 48.7489C182.929 48.9959 183.33 49.1812 183.763 49.3047C184.195 49.4282 184.658 49.5208 185.121 49.6751C185.214 49.706 185.337 49.7369 185.43 49.7986C185.399 49.7678 185.337 49.7678 185.306 49.7369C185.492 49.8295 185.677 49.9221 185.831 50.0148C185.8 49.9839 185.77 49.953 185.739 49.9221C185.862 50.0148 185.986 50.1383 186.078 50.2618C186.047 50.2309 186.017 50.2 185.986 50.1691C186.078 50.2926 186.171 50.4161 186.233 50.5705C186.202 50.5396 186.202 50.4779 186.171 50.447C186.233 50.5705 186.264 50.694 186.264 50.8175C186.264 50.7866 186.264 50.7249 186.233 50.694C186.233 50.7866 186.233 50.8792 186.233 50.9719C186.233 50.941 186.233 50.8792 186.264 50.8484C186.264 50.941 186.233 51.0336 186.202 51.0954C186.233 51.0645 186.233 51.0027 186.264 50.9719C186.233 51.0336 186.202 51.0954 186.171 51.1571C186.109 51.2497 186.078 51.435 186.109 51.5585C186.14 51.682 186.233 51.8055 186.325 51.8672C186.572 51.9907 186.85 51.929 187.005 51.682C187.221 51.3423 187.282 50.941 187.221 50.5396C187.159 50.1691 186.974 49.8604 186.727 49.5516C186.233 48.9342 185.492 48.718 184.751 48.5328C184.349 48.4402 183.917 48.3476 183.547 48.1932C183.577 48.2241 183.639 48.2241 183.67 48.2549C183.361 48.1314 183.053 47.9462 182.775 47.7301C182.806 47.7609 182.836 47.7918 182.867 47.8227C182.528 47.5757 182.25 47.267 181.972 46.9273C182.003 46.9582 182.034 46.9891 182.065 47.02C181.725 46.5569 181.416 46.0629 181.2 45.538C181.231 45.5689 181.231 45.6306 181.262 45.6615C180.706 44.3648 180.521 42.9137 180.274 41.5244C180.027 40.2277 179.718 38.9001 179.07 37.7269C178.73 37.1094 178.267 36.5228 177.681 36.0596C177.557 35.967 177.464 35.9053 177.31 35.9053C177.187 35.9053 177.032 35.967 176.94 36.0596C176.847 36.1523 176.785 36.2758 176.785 36.4301C176.909 36.461 176.97 36.6154 177.063 36.708Z" fill="#A0A0A0"/>
<path d="M177.495 40.1975C177.866 40.5062 178.206 40.8458 178.483 41.2163C178.453 41.1855 178.422 41.1546 178.391 41.1237C178.761 41.5868 179.039 42.0808 179.255 42.6365C179.224 42.6057 179.224 42.5439 179.193 42.513C179.41 43.0688 179.564 43.6245 179.657 44.2111C179.657 44.1803 179.657 44.1185 179.626 44.0876C179.718 44.7051 179.687 45.3226 179.657 45.9401C179.626 46.5576 179.564 47.175 179.626 47.8234C179.687 48.4409 179.811 49.0584 180.12 49.6141C180.398 50.1081 180.83 50.5712 181.355 50.8182C181.663 50.9726 182.003 51.0652 182.343 51.0961C182.528 51.0961 182.682 51.0961 182.868 51.0652C183.053 51.0343 183.207 50.9726 183.362 50.9108C183.454 50.8491 183.578 50.7256 183.578 50.6021C183.608 50.4786 183.609 50.3242 183.516 50.2007C183.454 50.1081 183.331 49.9846 183.207 49.9846C183.176 49.9846 183.115 49.9846 183.084 49.9537C182.991 49.9537 182.898 49.9846 182.837 50.0155C182.837 50.0155 182.806 50.0155 182.806 50.0463C182.837 50.0155 182.898 50.0155 182.929 49.9846C182.806 50.0463 182.682 50.0772 182.528 50.0772C182.559 50.0772 182.621 50.0772 182.651 50.0463C182.497 50.0772 182.343 50.0772 182.219 50.0463C182.25 50.0463 182.312 50.0463 182.343 50.0772C182.157 50.0463 181.972 50.0155 181.818 49.9228C181.849 49.9537 181.91 49.9537 181.941 49.9846C181.756 49.892 181.602 49.7993 181.447 49.6758C181.478 49.7067 181.509 49.7376 181.54 49.7685C181.386 49.645 181.262 49.5215 181.139 49.3671C181.169 49.398 181.2 49.4289 181.231 49.4597C181.077 49.2745 180.953 49.0584 180.861 48.8114C180.892 48.8422 180.892 48.904 180.922 48.9349C180.768 48.5952 180.706 48.2556 180.645 47.8851C180.645 47.916 180.645 47.9778 180.675 48.0086C180.49 46.7428 180.799 45.4461 180.675 44.1802C180.614 43.5936 180.49 43.007 180.274 42.4822C180.058 41.9264 179.811 41.4016 179.471 40.9385C179.101 40.4136 178.669 39.8887 178.175 39.4874C178.082 39.3948 177.959 39.333 177.804 39.333C177.681 39.333 177.526 39.3948 177.434 39.4874C177.341 39.58 177.279 39.7035 177.279 39.8579C177.372 39.9505 177.403 40.1049 177.495 40.1975Z" fill="#828181"/>
<path d="M167.893 68.8795C173.79 68.8795 178.545 64.094 178.545 58.228V19.4192C178.545 13.5222 173.759 8.76758 167.893 8.76758H152.518C154.154 11.2684 155.698 15.2511 155.698 21.3334C155.698 27.3229 155.945 54.3378 156.47 57.9192C157.18 62.8282 158.971 66.3479 161.255 68.9104H167.893V68.8795Z" fill="white"/>
<path fill-rule="evenodd" clip-rule="evenodd" d="M130.598 44.2106C124.67 43.4388 120.008 43.5314 117.322 45.3839C116.581 42.3582 116.242 39.5795 116.797 37.264C117.723 33.1886 120.286 32.2623 122.694 32.108C125.689 31.9536 130.413 32.9416 134.241 33.4664C139.181 34.1457 143.627 34.2692 146.622 32.5711C147.579 35.0719 147.733 37.6036 147.301 40.1353C146.869 43.0683 145.14 44.5503 142.299 44.8899C138.656 45.3839 134.55 44.7355 130.598 44.2106Z" fill="white"/>
<path fill-rule="evenodd" clip-rule="evenodd" d="M128.437 33.6827C128.9 33.6827 129.085 34.0532 129.085 34.4237C129.085 34.8251 128.869 35.1647 128.437 35.1956C128.004 35.1956 127.757 34.8868 127.757 34.4546C127.788 34.0532 127.974 33.6827 128.437 33.6827ZM128.437 33.4049C127.788 33.4049 127.356 33.7445 127.356 34.4237C127.356 35.103 127.757 35.4735 128.437 35.4735C129.116 35.4735 129.517 35.103 129.517 34.4546C129.517 33.7445 129.116 33.4049 128.437 33.4049ZM126.09 34.3311V33.7136C126.368 33.7136 126.708 33.6519 126.708 33.9915C126.708 34.3311 126.368 34.3311 126.09 34.3311ZM125.658 35.4117H126.09V34.609C126.43 34.609 126.862 34.609 127.047 34.3311C127.263 34.0224 127.171 33.4975 126.584 33.4666H125.658V35.4117ZM123.62 33.4358H123.991C123.991 33.621 123.991 34.609 123.991 34.7942C124.083 35.2265 124.824 35.1956 124.886 34.7633C124.917 34.5164 124.886 33.7445 124.886 33.4666H125.257C125.257 33.7136 125.287 34.7633 125.226 34.9795C125.102 35.5352 124.33 35.5661 123.96 35.3808C123.62 35.2265 123.589 34.9486 123.589 34.609L123.62 33.4358ZM122.262 34.3002V33.7136C122.54 33.7136 122.91 33.6519 122.91 33.9915C122.91 34.3311 122.509 34.3002 122.262 34.3002ZM121.83 35.4117H122.262V34.5781H122.509L122.972 35.4117H123.466L122.941 34.5163C123.188 34.4237 123.373 34.2694 123.373 33.9606C123.373 33.5901 123.065 33.4358 122.725 33.4358H121.83V35.4117ZM120.78 34.3311V34.609H121.089V35.0412C120.749 35.1647 120.224 35.1956 120.07 34.7633C119.915 34.3311 120.07 33.7136 120.687 33.7136C120.934 33.7136 121.089 33.7754 121.181 33.9915L121.397 33.7136C121.212 33.5284 121.027 33.4358 120.687 33.4358C119.391 33.4358 119.391 34.7942 119.915 35.1956C120.317 35.5043 120.965 35.4117 121.459 35.3191V34.362L120.78 34.3311ZM128.097 44.5504C124.516 44.2108 121.089 44.3961 118.927 46.125C118.248 46.0015 117.6 45.9089 116.921 45.7854C116.087 43.0994 115.933 40.2589 116.303 37.3259C116.89 34.4546 118.403 31.9229 122.015 31.7068C125.751 31.4907 130.845 32.386 135.877 32.9109C139.49 33.2814 142.67 32.9726 144.769 31.3672C145.541 31.5833 146.313 31.8303 147.085 32.0464C148.073 34.8251 148.134 37.542 147.671 40.2281C147.023 44.0565 144.584 45.4149 141.249 45.4458C136.587 45.5075 131.802 44.8901 128.097 44.5504ZM130.598 44.2108C124.67 43.439 120.008 43.5316 117.322 45.384C116.581 42.3584 116.241 39.5797 116.797 37.2642C117.723 33.1888 120.286 32.2625 122.694 32.1082C125.689 31.9538 130.413 32.9418 134.241 33.4666C139.181 34.1459 143.627 34.2694 146.622 32.5713C147.579 35.0721 147.733 37.6038 147.301 40.1354C146.869 43.0685 145.14 44.5504 142.299 44.8901C138.656 45.3841 134.55 44.7357 130.598 44.2108Z" fill="#3D438B"/>
<path fill-rule="evenodd" clip-rule="evenodd" d="M136.988 41.0003H135.722V37.2954H136.772C137.328 37.2954 137.544 37.4497 137.575 37.7585C137.606 38.2216 137.328 38.4686 136.927 38.4686H136.525L136.031 39.5492H137.019C137.482 39.5492 137.945 39.8888 137.884 40.321C137.822 40.7224 137.451 41.0003 136.988 41.0003ZM137.204 42.2044H134.21V36.0604H137.05C138.038 36.0604 138.903 36.3383 139.057 37.2954C139.18 38.0055 138.964 38.4995 138.409 38.8391C139.211 39.1787 139.52 40.1358 139.242 41.0003C138.995 41.9265 137.945 42.2044 137.204 42.2044ZM142.669 37.4189C143.565 37.4189 144.305 38.1598 144.305 39.0861C144.305 40.0123 143.565 40.7533 142.669 40.7533C141.774 40.7533 141.033 40.0123 141.033 39.0861C141.033 38.1598 141.774 37.4189 142.669 37.4189ZM142.669 35.9678C144.367 35.9678 145.757 37.3571 145.757 39.0861C145.757 40.815 144.367 42.2044 142.669 42.2044C140.971 42.2044 139.582 40.815 139.582 39.0861C139.582 37.3571 140.971 35.9678 142.669 35.9678ZM133.592 36.0604V42.2044H132.079V38.3142L131.091 42.2044H129.609L128.652 38.3451V42.2044H127.201V36.0604H129.579L130.381 39.5183L131.184 36.0604H133.592ZM125.071 36.0604H126.553V42.2044H125.071V36.0604ZM122.323 41.0003H121.057V37.2954H122.107C122.663 37.2954 122.879 37.4497 122.91 37.7585C122.941 38.2216 122.663 38.4686 122.261 38.4686H121.86L121.366 39.5492H122.354C122.817 39.5492 123.28 39.8888 123.218 40.321C123.157 40.7224 122.786 41.0003 122.323 41.0003ZM122.539 42.2044H119.544V36.0604H122.385C123.373 36.0604 124.237 36.3383 124.392 37.2954C124.515 38.0055 124.299 38.4995 123.743 38.8391C124.546 39.1787 124.855 40.1358 124.577 41.0003C124.33 41.9265 123.28 42.2044 122.539 42.2044Z" fill="#DA243C"/>
<mask id="mask0" mask-type="alpha" maskUnits="userSpaceOnUse" x="0" y="8" width="179" height="61">
<path d="M0 58.228V19.4192C0 13.5222 4.78549 8.76758 10.6516 8.76758H167.863C173.76 8.76758 178.514 13.5531 178.514 19.4192V58.228C178.514 64.1249 173.729 68.8795 167.863 68.8795H10.6825C4.78549 68.8795 0 64.1249 0 58.228Z" fill="#00BAE7"/>
</mask>
<g mask="url(#mask0)">
<path d="M84.4717 75.055C84.4717 75.055 77.4015 71.7515 77.3706 58.6609C77.3706 52.6713 77.1236 25.6564 76.5988 22.075C73.5731 1.69807 52.4243 4.93986 52.4243 4.93986C52.4243 4.93986 59.4945 8.24339 59.5254 21.334C59.5254 27.3236 59.7724 54.3385 60.2972 57.9199C63.292 78.266 84.4717 75.055 84.4717 75.055Z" fill="white"/>
<path d="M77.5866 58.6601C77.5866 52.6705 77.3396 25.6557 76.8147 22.0743C74.036 3.33366 55.882 4.56863 53.0107 4.87737C59.5252 5.52572 69.2814 8.73663 71.2574 22.0743C71.7822 25.6557 72.0292 52.6705 72.0292 58.6601C72.0601 71.7508 79.1303 75.0543 79.1303 75.0543C79.1303 75.0543 79.0068 75.0852 78.7598 75.116C82.1868 75.4557 84.7185 75.0543 84.7185 75.0543C84.7185 75.0543 77.6174 71.7508 77.5866 58.6601Z" fill="#3358B6"/>
<path d="M176.507 64.4953C177.804 62.7354 178.545 60.5742 178.545 58.2278V19.419C178.545 14.4483 175.118 10.2494 170.518 9.07617C171.382 11.3917 172 14.3865 172 18.2149C172 24.2045 172.247 51.2194 172.771 54.8008C173.389 58.9379 174.747 62.0871 176.507 64.4953Z" fill="#3358B6"/>
<path opacity="0.15" d="M91.2605 85.0601L127.958 -13.1621L125.036 -14.2535L88.3393 83.9687L91.2605 85.0601Z" fill="white"/>
<path opacity="0.15" d="M101.594 92.7046L138.291 -5.51758L136.844 -6.05788L100.147 92.1643L101.594 92.7046Z" fill="white"/>
<path opacity="0.15" d="M99.363 89.1939L136.06 -9.02832L129.784 -11.3732L93.0868 86.849L99.363 89.1939Z" fill="white"/>
<path opacity="0.15" d="M25.1257 78.2017L61.8228 -20.0205L58.9015 -21.1119L22.2045 77.1103L25.1257 78.2017Z" fill="white"/>
<path opacity="0.15" d="M35.4588 85.8462L72.1558 -12.376L70.7096 -12.9163L34.0126 85.3059L35.4588 85.8462Z" fill="white"/>
<path opacity="0.15" d="M33.2683 82.3179L69.9653 -15.9043L63.6891 -18.2492L26.9921 79.973L33.2683 82.3179Z" fill="white"/>
<path opacity="0.15" d="M143.219 97.4312L179.916 -0.791016L173.64 -3.13591L136.943 95.0863L143.219 97.4312Z" fill="white"/>
<path opacity="0.15" d="M135.458 93.1108L172.155 -5.11133L169.234 -6.20273L132.537 92.0194L135.458 93.1108Z" fill="white"/>
<path opacity="0.15" d="M84.7107 84.9692L121.408 -13.2529L115.131 -15.5978L78.4344 82.6244L84.7107 84.9692Z" fill="white"/>
<path opacity="0.15" d="M76.9602 80.6196L113.657 -17.6025L110.736 -18.6939L74.039 79.5282L76.9602 80.6196Z" fill="white"/>
</g>
<path d="M0 118.741V79.9319C0 74.0349 4.78549 69.2803 10.6516 69.2803H167.863C173.76 69.2803 178.514 74.0658 178.514 79.9319V118.741C178.514 124.638 173.729 129.392 167.863 129.392H10.6825C4.78549 129.392 0 124.638 0 118.741Z" fill="#00BAE7"/>
<path d="M162.676 127.077V71.5962C162.676 71.0096 163.17 70.5156 163.756 70.5156H171.104C171.691 70.5156 172.185 71.0096 172.185 71.5962V127.077C172.185 127.664 171.691 128.158 171.104 128.158H163.756C163.17 128.127 162.676 127.664 162.676 127.077Z" fill="#C96A2D"/>
<path d="M152.642 127.077V71.5962C152.642 71.0096 153.136 70.5156 153.723 70.5156H161.071C161.657 70.5156 162.151 71.0096 162.151 71.5962V127.077C162.151 127.664 161.657 128.158 161.071 128.158H153.723C153.136 128.127 152.642 127.664 152.642 127.077Z" fill="#C96A2D"/>
<path d="M142.608 127.077V71.5962C142.608 71.0096 143.102 70.5156 143.689 70.5156H151.037C151.623 70.5156 152.117 71.0096 152.117 71.5962V127.077C152.117 127.664 151.623 128.158 151.037 128.158H143.689C143.071 128.127 142.608 127.664 142.608 127.077Z" fill="#C96A2D"/>
<path d="M132.542 127.077V71.5962C132.542 71.0096 133.036 70.5156 133.623 70.5156H140.971C141.558 70.5156 142.052 71.0096 142.052 71.5962V127.077C142.052 127.664 141.558 128.158 140.971 128.158H133.623C133.036 128.127 132.542 127.664 132.542 127.077Z" fill="#C96A2D"/>
<path d="M122.509 127.077V71.5962C122.509 71.0096 123.003 70.5156 123.589 70.5156H130.937C131.524 70.5156 132.018 71.0096 132.018 71.5962V127.077C132.018 127.664 131.524 128.158 130.937 128.158H123.589C123.003 128.127 122.509 127.664 122.509 127.077Z" fill="#C96A2D"/>
<path d="M112.475 127.077V71.5962C112.475 71.0096 112.969 70.5156 113.555 70.5156H120.903C121.49 70.5156 121.984 71.0096 121.984 71.5962V127.077C121.984 127.664 121.49 128.158 120.903 128.158H113.555C112.938 128.127 112.475 127.664 112.475 127.077Z" fill="#C96A2D"/>
<path d="M102.409 127.077V71.5962C102.409 71.0096 102.903 70.5156 103.49 70.5156H110.838C111.424 70.5156 111.918 71.0096 111.918 71.5962V127.077C111.918 127.664 111.424 128.158 110.838 128.158H103.49C102.903 128.127 102.409 127.664 102.409 127.077Z" fill="#C96A2D"/>
<path d="M92.3755 127.077V71.5962C92.3755 71.0096 92.8695 70.5156 93.4561 70.5156H100.804C101.391 70.5156 101.885 71.0096 101.885 71.5962V127.077C101.885 127.664 101.391 128.158 100.804 128.158H93.4561C92.8695 128.127 92.3755 127.664 92.3755 127.077Z" fill="#C96A2D"/>
<path d="M82.3413 127.077V71.5962C82.3413 71.0096 82.8353 70.5156 83.4219 70.5156H90.7699C91.3566 70.5156 91.8505 71.0096 91.8505 71.5962V127.077C91.8505 127.664 91.3566 128.158 90.7699 128.158H83.4219C82.8044 128.127 82.3413 127.664 82.3413 127.077Z" fill="#C96A2D"/>
<path d="M72.2764 127.077V71.5962C72.2764 71.0096 72.7704 70.5156 73.357 70.5156H80.705C81.2916 70.5156 81.7856 71.0096 81.7856 71.5962V127.077C81.7856 127.664 81.2916 128.158 80.705 128.158H73.357C72.7704 128.127 72.2764 127.664 72.2764 127.077Z" fill="#C96A2D"/>
<path d="M62.2422 127.077V71.5962C62.2422 71.0096 62.7362 70.5156 63.3228 70.5156H70.6708C71.2574 70.5156 71.7514 71.0096 71.7514 71.5962V127.077C71.7514 127.664 71.2574 128.158 70.6708 128.158H63.3228C62.7362 128.127 62.2422 127.664 62.2422 127.077Z" fill="#C96A2D"/>
<path d="M52.208 127.077V71.5962C52.208 71.0096 52.702 70.5156 53.2886 70.5156H60.6366C61.2233 70.5156 61.7172 71.0096 61.7172 71.5962V127.077C61.7172 127.664 61.2233 128.158 60.6366 128.158H53.2886C52.6711 128.127 52.208 127.664 52.208 127.077Z" fill="#C96A2D"/>
<path d="M42.1743 127.077V71.5962C42.1743 71.0096 42.6683 70.5156 43.2549 70.5156H50.603C51.1896 70.5156 51.6835 71.0096 51.6835 71.5962V127.077C51.6835 127.664 51.1896 128.158 50.603 128.158H43.224C42.6374 128.127 42.1743 127.664 42.1743 127.077Z" fill="#C96A2D"/>
<path d="M32.1089 127.077V71.5962C32.1089 71.0096 32.6029 70.5156 33.1895 70.5156H40.5375C41.1241 70.5156 41.6181 71.0096 41.6181 71.5962V127.077C41.6181 127.664 41.1241 128.158 40.5375 128.158H33.1895C32.6029 128.127 32.1089 127.664 32.1089 127.077Z" fill="#C96A2D"/>
<path d="M22.0747 127.077V71.5962C22.0747 71.0096 22.5687 70.5156 23.1553 70.5156H30.5034C31.09 70.5156 31.5839 71.0096 31.5839 71.5962V127.077C31.5839 127.664 31.09 128.158 30.5034 128.158H23.1553C22.5378 128.127 22.0747 127.664 22.0747 127.077Z" fill="#C96A2D"/>
<path d="M12.041 127.077V71.5962C12.041 71.0096 12.535 70.5156 13.1216 70.5156H20.4697C21.0563 70.5156 21.5503 71.0096 21.5503 71.5962V127.077C21.5503 127.664 21.0563 128.158 20.4697 128.158H13.0907C12.5041 128.127 12.041 127.664 12.041 127.077Z" fill="#C96A2D"/>
<path d="M1.94482 119.698V78.9443C1.94482 74.2823 5.71147 70.5156 10.3735 70.5156C10.9601 70.5156 11.4541 71.0096 11.4541 71.5962V127.077C11.4541 127.664 10.9601 128.158 10.3735 128.158C5.71147 128.127 1.94482 124.36 1.94482 119.698Z" fill="#C96A2D"/>
<g opacity="0.15">
<path opacity="0.15" d="M0 118.74V79.9309C0 74.0339 4.78549 69.2793 10.6516 69.2793H167.863C173.76 69.2793 178.514 74.0648 178.514 79.9309V118.74C178.514 124.637 173.729 129.391 167.863 129.391H10.6825C4.78549 129.391 0 124.637 0 118.74Z" fill="#C96A2D"/>
</g>
<g opacity="0.15">
<path opacity="0.15" d="M178.576 79.9309V118.74C178.576 124.637 173.79 129.391 167.924 129.391H10.7131C4.81614 129.391 0.0615234 124.606 0.0615234 118.74V79.9309C0.0615234 74.0339 4.84702 69.2793 10.7131 69.2793H167.924C173.821 69.2793 178.576 74.0648 178.576 79.9309Z" fill="white"/>
</g>
<path d="M181.015 105.557C186.881 107.317 192.747 109.108 198.582 110.868C201.608 111.794 204.88 112.689 207.875 111.639C210.253 110.806 212.074 108.799 213.247 106.545C214.39 104.291 214.976 101.791 215.532 99.3207C217.415 98.8267 219.33 98.2401 220.688 96.8507C222.047 95.4614 222.54 93.0532 221.244 91.633C220.009 90.2436 217.817 90.3363 216.273 89.3174C214.637 88.2368 214.05 86.1683 213.556 84.2541C212.105 78.5115 210.654 72.7689 209.234 67.0263C208.585 64.4637 207.567 61.4689 205.035 60.6971C202.627 59.9561 200.219 61.5924 198.181 63.0435C196.143 64.4946 193.457 65.9148 191.265 64.7107C189.66 63.8463 188.795 61.8394 187.035 61.4072C184.998 60.9132 183.238 62.8892 182.157 64.6799C175.982 74.9918 174.315 87.4032 174.068 99.4133C174.006 102.686 174.068 106.298 175.828 109.17C177.773 112.442 181.447 108.243 181.015 105.557Z" fill="white"/>
<path d="M182.096 64.7413C177.032 73.2008 175.026 83.0187 174.315 92.9294C176.261 90.8917 177.989 88.3909 178.854 85.4269C181.478 76.5661 193.704 66.285 196.051 64.4016C194.445 65.2044 192.747 65.6057 191.234 64.7721C189.629 63.9077 188.765 61.9008 187.005 61.4686C184.936 60.9746 183.176 62.9506 182.096 64.7413Z" fill="#E8E8E8"/>
<path d="M181.108 105.588C186.943 107.348 192.747 109.107 198.582 110.867C201.608 111.793 204.881 112.689 207.876 111.639C210.253 110.805 212.074 108.799 213.248 106.545C214.39 104.291 214.977 101.79 215.532 99.3203L178.236 99.9995L181.108 105.588Z" fill="#E8E8E8"/>
<path d="M177.063 97.2207C177.372 97.4677 177.65 97.7456 177.897 98.0543C177.866 98.0234 177.835 97.9926 177.804 97.9617C178.144 98.4248 178.421 98.9188 178.638 99.4436C178.607 99.4128 178.607 99.351 178.576 99.3201C178.915 100.123 179.132 100.987 179.286 101.883C179.471 102.871 179.595 103.859 179.842 104.847C180.058 105.711 180.367 106.576 180.83 107.378C181.262 108.119 181.849 108.799 182.559 109.262C182.929 109.509 183.33 109.694 183.763 109.817C184.195 109.941 184.658 110.033 185.121 110.188C185.214 110.219 185.337 110.25 185.43 110.311C185.399 110.28 185.337 110.28 185.306 110.25C185.492 110.342 185.677 110.435 185.831 110.527C185.8 110.497 185.77 110.466 185.739 110.435C185.862 110.527 185.986 110.651 186.078 110.774C186.047 110.744 186.017 110.713 185.986 110.682C186.078 110.805 186.171 110.929 186.233 111.083C186.202 111.052 186.202 110.991 186.171 110.96C186.233 111.083 186.264 111.207 186.264 111.33C186.264 111.299 186.264 111.238 186.233 111.207C186.233 111.299 186.233 111.392 186.233 111.485C186.233 111.454 186.233 111.392 186.264 111.361C186.264 111.454 186.233 111.546 186.202 111.608C186.233 111.577 186.233 111.515 186.264 111.485C186.233 111.546 186.202 111.608 186.171 111.67C186.109 111.762 186.078 111.948 186.109 112.071C186.14 112.195 186.233 112.318 186.325 112.38C186.572 112.503 186.85 112.442 187.005 112.195C187.221 111.855 187.282 111.454 187.221 111.052C187.159 110.682 186.974 110.373 186.727 110.064C186.233 109.447 185.492 109.231 184.751 109.045C184.349 108.953 183.917 108.86 183.547 108.706C183.577 108.737 183.639 108.737 183.67 108.768C183.361 108.644 183.053 108.459 182.775 108.243C182.806 108.274 182.836 108.305 182.867 108.335C182.528 108.088 182.25 107.78 181.972 107.44C182.003 107.471 182.034 107.502 182.065 107.533C181.725 107.07 181.416 106.576 181.2 106.051C181.231 106.082 181.231 106.143 181.262 106.174C180.706 104.877 180.521 103.426 180.274 102.037C180.027 100.74 179.718 99.4128 179.07 98.2395C178.73 97.6221 178.267 97.0355 177.681 96.5723C177.557 96.4797 177.464 96.418 177.31 96.418C177.187 96.418 177.032 96.4797 176.94 96.5723C176.847 96.665 176.785 96.7885 176.785 96.9428C176.909 96.9737 176.97 97.1281 177.063 97.2207Z" fill="#A0A0A0"/>
<path d="M177.495 100.71C177.866 101.019 178.206 101.359 178.483 101.729C178.453 101.698 178.422 101.667 178.391 101.636C178.761 102.1 179.039 102.594 179.255 103.149C179.224 103.118 179.224 103.057 179.193 103.026C179.41 103.581 179.564 104.137 179.657 104.724C179.657 104.693 179.657 104.631 179.626 104.6C179.718 105.218 179.687 105.835 179.657 106.453C179.626 107.07 179.564 107.688 179.626 108.336C179.687 108.954 179.811 109.571 180.12 110.127C180.398 110.621 180.83 111.084 181.355 111.331C181.663 111.485 182.003 111.578 182.343 111.609C182.528 111.609 182.682 111.609 182.868 111.578C183.053 111.547 183.207 111.485 183.362 111.424C183.454 111.362 183.578 111.238 183.578 111.115C183.608 110.991 183.609 110.837 183.516 110.713C183.454 110.621 183.331 110.497 183.207 110.497C183.176 110.497 183.115 110.497 183.084 110.466C182.991 110.466 182.898 110.497 182.837 110.528C182.837 110.528 182.806 110.528 182.806 110.559C182.837 110.528 182.898 110.528 182.929 110.497C182.806 110.559 182.682 110.59 182.528 110.59C182.559 110.59 182.621 110.59 182.651 110.559C182.497 110.59 182.343 110.59 182.219 110.559C182.25 110.559 182.312 110.559 182.343 110.59C182.157 110.559 181.972 110.528 181.818 110.436C181.849 110.466 181.91 110.466 181.941 110.497C181.756 110.405 181.602 110.312 181.447 110.189C181.478 110.219 181.509 110.25 181.54 110.281C181.386 110.158 181.262 110.034 181.139 109.88C181.169 109.911 181.2 109.942 181.231 109.972C181.077 109.787 180.953 109.571 180.861 109.324C180.892 109.355 180.892 109.417 180.922 109.448C180.768 109.108 180.706 108.768 180.645 108.398C180.645 108.429 180.645 108.49 180.675 108.521C180.49 107.255 180.799 105.959 180.675 104.693C180.614 104.106 180.49 103.52 180.274 102.995C180.058 102.439 179.811 101.914 179.471 101.451C179.101 100.926 178.669 100.401 178.175 100C178.082 99.9075 177.959 99.8457 177.804 99.8457C177.681 99.8457 177.526 99.9075 177.434 100C177.341 100.093 177.279 100.216 177.279 100.371C177.372 100.463 177.403 100.618 177.495 100.71Z" fill="#828181"/>
<path d="M167.893 129.392C173.79 129.392 178.545 124.607 178.545 118.741V79.9319C178.545 74.0349 173.759 69.2803 167.893 69.2803H152.518C154.154 71.7811 155.698 75.7638 155.698 81.846C155.698 87.8356 155.945 114.851 156.47 118.432C157.18 123.341 158.971 126.861 161.255 129.423H167.893V129.392Z" fill="white"/>
<path fill-rule="evenodd" clip-rule="evenodd" d="M130.598 104.723C124.67 103.951 120.008 104.044 117.322 105.897C116.581 102.871 116.242 100.092 116.797 97.7767C117.723 93.7013 120.286 92.775 122.694 92.6207C125.689 92.4663 130.413 93.4543 134.241 93.9791C139.181 94.6584 143.627 94.7819 146.622 93.0838C147.579 95.5846 147.733 98.1163 147.301 100.648C146.869 103.581 145.14 105.063 142.299 105.403C138.656 105.897 134.55 105.248 130.598 104.723Z" fill="white"/>
<path fill-rule="evenodd" clip-rule="evenodd" d="M128.437 94.1964C128.9 94.1964 129.085 94.5669 129.085 94.9374C129.085 95.3388 128.869 95.6784 128.437 95.7093C128.004 95.7093 127.757 95.4005 127.757 94.9683C127.788 94.5669 127.974 94.1964 128.437 94.1964ZM128.437 93.9186C127.788 93.9186 127.356 94.2582 127.356 94.9374C127.356 95.6166 127.757 95.9871 128.437 95.9871C129.116 95.9871 129.517 95.6166 129.517 94.9683C129.517 94.2582 129.116 93.9186 128.437 93.9186ZM126.09 94.8448V94.2273C126.368 94.2273 126.708 94.1655 126.708 94.5052C126.708 94.8448 126.368 94.8448 126.09 94.8448ZM125.658 95.9254H126.09V95.1226C126.43 95.1226 126.862 95.1226 127.047 94.8448C127.263 94.536 127.171 94.0112 126.584 93.9803H125.658V95.9254ZM123.62 93.9494H123.991C123.991 94.1347 123.991 95.1226 123.991 95.3079C124.083 95.7401 124.824 95.7093 124.886 95.277C124.917 95.03 124.886 94.2582 124.886 93.9803H125.257C125.257 94.2273 125.287 95.277 125.226 95.4931C125.102 96.0489 124.33 96.0797 123.96 95.8945C123.62 95.7401 123.589 95.4623 123.589 95.1226L123.62 93.9494ZM122.262 94.8139V94.2273C122.54 94.2273 122.91 94.1655 122.91 94.5052C122.91 94.8448 122.509 94.8139 122.262 94.8139ZM121.83 95.9254H122.262V95.0918H122.509L122.972 95.9254H123.466L122.941 95.03C123.188 94.9374 123.373 94.783 123.373 94.4743C123.373 94.1038 123.065 93.9494 122.725 93.9494H121.83V95.9254ZM120.78 94.8448V95.1226H121.089V95.5549C120.749 95.6784 120.224 95.7093 120.07 95.277C119.915 94.8448 120.07 94.2273 120.687 94.2273C120.934 94.2273 121.089 94.289 121.181 94.5052L121.397 94.2273C121.212 94.0421 121.027 93.9494 120.687 93.9494C119.391 93.9494 119.391 95.3079 119.915 95.7093C120.317 96.018 120.965 95.9254 121.459 95.8328V94.8757L120.78 94.8448ZM128.097 105.064C124.516 104.725 121.089 104.91 118.927 106.639C118.248 106.515 117.6 106.423 116.921 106.299C116.087 103.613 115.933 100.773 116.303 97.8396C116.89 94.9683 118.403 92.4366 122.015 92.2205C125.751 92.0044 130.845 92.8997 135.877 93.4246C139.49 93.7951 142.67 93.4863 144.769 91.8809C145.541 92.097 146.313 92.344 147.085 92.5601C148.073 95.3388 148.134 98.0557 147.671 100.742C147.023 104.57 144.584 105.929 141.249 105.959C136.587 106.021 131.802 105.404 128.097 105.064ZM130.598 104.725C124.67 103.953 120.008 104.045 117.322 105.898C116.581 102.872 116.241 100.093 116.797 97.7778C117.723 93.7024 120.286 92.7762 122.694 92.6218C125.689 92.4675 130.413 93.4554 134.241 93.9803C139.181 94.6595 143.627 94.783 146.622 93.0849C147.579 95.5858 147.733 98.1174 147.301 100.649C146.869 103.582 145.14 105.064 142.299 105.404C138.656 105.898 134.55 105.249 130.598 104.725Z" fill="#3D438B"/>
<path fill-rule="evenodd" clip-rule="evenodd" d="M136.988 101.513H135.722V97.8081H136.772C137.328 97.8081 137.544 97.9624 137.575 98.2712C137.606 98.7343 137.328 98.9813 136.927 98.9813H136.525L136.031 100.062H137.019C137.482 100.062 137.945 100.401 137.884 100.834C137.822 101.235 137.451 101.513 136.988 101.513ZM137.204 102.717H134.21V96.5731H137.05C138.038 96.5731 138.903 96.851 139.057 97.8081C139.18 98.5182 138.964 99.0121 138.409 99.3518C139.211 99.6914 139.52 100.648 139.242 101.513C138.995 102.439 137.945 102.717 137.204 102.717ZM142.669 97.9316C143.565 97.9316 144.305 98.6725 144.305 99.5988C144.305 100.525 143.565 101.266 142.669 101.266C141.774 101.266 141.033 100.525 141.033 99.5988C141.033 98.6725 141.774 97.9316 142.669 97.9316ZM142.669 96.4805C144.367 96.4805 145.757 97.8698 145.757 99.5988C145.757 101.328 144.367 102.717 142.669 102.717C140.971 102.717 139.582 101.328 139.582 99.5988C139.582 97.8698 140.971 96.4805 142.669 96.4805ZM133.592 96.5731V102.717H132.079V98.8269L131.091 102.717H129.609L128.652 98.8578V102.717H127.201V96.5731H129.579L130.381 100.031L131.184 96.5731H133.592ZM125.071 96.5731H126.553V102.717H125.071V96.5731ZM122.323 101.513H121.057V97.8081H122.107C122.663 97.8081 122.879 97.9624 122.91 98.2712C122.941 98.7343 122.663 98.9813 122.261 98.9813H121.86L121.366 100.062H122.354C122.817 100.062 123.28 100.401 123.218 100.834C123.157 101.235 122.786 101.513 122.323 101.513ZM122.539 102.717H119.544V96.5731H122.385C123.373 96.5731 124.237 96.851 124.392 97.8081C124.515 98.5182 124.299 99.0121 123.743 99.3518C124.546 99.6914 124.855 100.648 124.577 101.513C124.33 102.439 123.28 102.717 122.539 102.717Z" fill="#DA243C"/>
<mask id="mask1" mask-type="alpha" maskUnits="userSpaceOnUse" x="0" y="69" width="179" height="61">
<path d="M0 118.741V79.9319C0 74.0349 4.78549 69.2803 10.6516 69.2803H167.863C173.76 69.2803 178.514 74.0658 178.514 79.9319V118.741C178.514 124.638 173.729 129.392 167.863 129.392H10.6825C4.78549 129.392 0 124.638 0 118.741Z" fill="#00BAE7"/>
</mask>
<g mask="url(#mask1)">
<path d="M84.4712 135.567C84.4712 135.567 77.401 132.263 77.3701 119.173C77.3701 113.183 77.1231 86.1681 76.5983 82.5867C73.5726 62.2098 52.4238 65.4516 52.4238 65.4516C52.4238 65.4516 59.494 68.7551 59.5249 81.8457C59.5249 87.8353 59.7719 114.85 60.2967 118.432C63.2915 138.778 84.4712 135.567 84.4712 135.567Z" fill="white"/>
<path d="M77.5861 119.172C77.5861 113.182 77.3391 86.1674 76.8142 82.586C74.0355 63.8454 55.8815 65.0803 53.0103 65.3891C59.5247 66.0374 69.2809 69.2484 71.2569 82.586C71.7817 86.1674 72.0287 113.182 72.0287 119.172C72.0596 132.262 79.1298 135.566 79.1298 135.566C79.1298 135.566 79.0063 135.597 78.7593 135.628C82.1863 135.967 84.718 135.566 84.718 135.566C84.718 135.566 77.6169 132.262 77.5861 119.172Z" fill="#3358B6"/>
<path d="M176.507 125.008C177.804 123.248 178.545 121.087 178.545 118.741V79.9317C178.545 74.961 175.118 70.7621 170.518 69.5889C171.382 71.9044 172 74.8992 172 78.7276C172 84.7172 172.247 111.732 172.771 115.313C173.389 119.451 174.747 122.6 176.507 125.008Z" fill="#3358B6"/>
<path opacity="0.15" d="M91.26 145.574L127.957 47.3516L125.036 46.2602L88.3388 144.482L91.26 145.574Z" fill="white"/>
<path opacity="0.15" d="M101.593 153.218L138.29 54.9961L136.844 54.4558L100.147 152.678L101.593 153.218Z" fill="white"/>
<path opacity="0.15" d="M99.3626 149.708L136.06 51.4854L129.783 49.1405L93.0863 147.363L99.3626 149.708Z" fill="white"/>
<path opacity="0.15" d="M25.1253 138.715L61.8223 40.4932L58.9011 39.4018L22.204 137.624L25.1253 138.715Z" fill="white"/>
<path opacity="0.15" d="M35.4583 146.36L72.1553 48.1377L70.7091 47.5974L34.0121 145.82L35.4583 146.36Z" fill="white"/>
<path opacity="0.15" d="M33.2678 142.832L69.9648 44.6094L63.6886 42.2645L26.9916 140.487L33.2678 142.832Z" fill="white"/>
<path opacity="0.15" d="M143.219 157.944L179.916 59.7217L173.639 57.3768L136.942 155.599L143.219 157.944Z" fill="white"/>
<path opacity="0.15" d="M135.457 153.624L172.154 55.4014L169.233 54.31L132.536 152.532L135.457 153.624Z" fill="white"/>
<path opacity="0.15" d="M84.7102 145.483L121.407 47.2607L115.131 44.9159L78.4339 143.138L84.7102 145.483Z" fill="white"/>
<path opacity="0.15" d="M76.9597 141.133L113.657 42.9111L110.736 41.8197L74.0385 140.042L76.9597 141.133Z" fill="white"/>
</g>
</svg>
