<svg width="74" height="128" viewBox="0 0 74 128" fill="none" xmlns="http://www.w3.org/2000/svg">
<path d="M67.5104 8.31287C64.0754 3.29767 58.3388 0 51.7778 0H19.9004C13.2363 0 7.98069 3.22896 5.23264 8.72507C5.12959 8.93118 4.71738 9.75559 4.51127 9.92735C3.1716 11.8166 2.38153 12.9846 1.45406 14.3586C0.83575 15.2517 0.217437 16.1792 0.0456841 17.244C-0.126069 18.3089 0.217438 19.3738 0.560944 20.4043C1.52276 23.4272 2.48458 26.4157 3.4464 29.4385C3.5151 29.7133 3.5838 29.9881 3.5838 30.263V59.7358C3.5838 61.9343 5.37004 63.7205 7.56848 63.7205H66.9952C69.1249 63.7205 70.8768 61.9686 70.8768 59.8389V27.8928C71.6669 25.3852 72.4569 22.9119 73.2813 20.4043C73.6248 19.3738 73.934 18.3089 73.7966 17.244C73.6248 16.1792 73.0065 15.2517 72.3882 14.3586" fill="#00BAE7"/>
<path d="M68.7127 15.8012C66.8234 5.25555 55.6937 1.78613 38.0718 1.78613C20.4499 1.78613 9.32032 5.25555 7.43103 15.8012C5.54174 26.3469 12.2058 30.4003 12.2058 30.4003C12.2058 30.4003 12.2058 50.6328 11.931 56.4037C11.6218 62.209 16.7057 62.7929 16.7057 62.7929H38.1062H59.5067C59.5067 62.7929 64.5562 62.209 64.2814 56.4381C64.0066 50.6672 64.0066 30.4346 64.0066 30.4346C64.0066 30.4346 70.6019 26.3469 68.7127 15.8012Z" fill="#A56A1C"/>
<path d="M66.2395 15.4575C64.3502 4.9118 53.2206 1.44238 35.5987 1.44238C17.9768 1.44238 6.84717 4.9118 4.95789 15.4575C3.0686 26.0031 9.73263 30.0565 9.73263 30.0565C9.73263 30.0565 9.73263 50.2891 9.45783 56.06C9.14867 61.8652 14.2326 62.4492 14.2326 62.4492H35.633H57.0335C57.0335 62.4492 62.0831 61.8652 61.8083 56.0943C61.5335 50.3234 61.5335 30.0909 61.5335 30.0909C61.5335 30.0909 68.1288 26.0375 66.2395 15.4575Z" fill="#B77616"/>
<path d="M35.5645 4.8431C44.4957 4.8431 50.988 5.77057 55.4879 7.62551C59.8161 9.44609 62.152 12.1254 62.8733 16.0414C63.4916 19.4421 63.1138 22.3276 61.8084 24.6634C60.9153 26.2436 59.8505 27.0336 59.6787 27.171L58.0642 28.0642V30.0565C58.0642 30.8809 58.0642 50.4265 58.3734 56.2317C58.4421 57.8806 57.8581 58.3615 57.652 58.5332C57.3085 58.808 56.9306 58.9454 56.6902 59.0141H35.6332H14.5075C14.2671 58.9454 13.8892 58.808 13.5457 58.5332C13.3396 58.3615 12.7213 57.8806 12.8244 56.2317C13.0992 50.4265 13.1335 30.8809 13.1335 30.0565V28.1329L11.519 27.1367C11.519 27.1367 10.4885 26.4153 9.56105 24.9383C8.04962 22.5681 7.63741 19.5795 8.29008 16.0758C8.97709 12.1254 11.3473 9.48044 15.6755 7.65986C20.1411 5.77057 26.6677 4.8431 35.5645 4.8431ZM35.5645 1.44238C17.9426 1.44238 6.813 4.9118 4.92371 15.4575C3.03442 26.0031 9.69845 30.0565 9.69845 30.0565C9.69845 30.0565 9.69845 50.2891 9.42365 56.06C9.11449 61.8652 14.1984 62.4492 14.1984 62.4492H35.5989H56.9993C56.9993 62.4492 62.0489 61.8652 61.7741 56.0943C61.4993 50.3234 61.4993 30.0909 61.4993 30.0909C61.4993 30.0909 68.1633 26.0375 66.274 15.4918C64.316 4.9118 53.1864 1.44238 35.5645 1.44238Z" fill="#B77616"/>
<path opacity="0.15" d="M73.6936 17.2097C73.5218 16.1448 72.9035 15.2174 72.2852 14.3242L67.5104 8.31287C64.0754 3.29767 58.3388 0 51.7778 0H19.9004C13.2363 0 7.98069 3.22896 5.23264 8.72507C5.12959 8.93118 4.71738 9.75559 4.51127 9.92735C3.1716 11.8166 2.38153 12.9846 1.45406 14.3586C0.83575 15.2517 0.217437 16.1792 0.0456841 17.244C-0.126069 18.3089 0.217438 19.3738 0.560944 20.4043C1.52276 23.4272 2.48458 26.4157 3.4464 29.4385C3.5151 29.7133 3.5838 29.9881 3.5838 30.263V59.7358C3.5838 61.9343 5.37004 63.7205 7.56848 63.7205H66.9952C69.1249 63.7205 70.8768 61.9686 70.8768 59.8389V27.8928C71.6669 25.3852 72.4569 22.9119 73.2813 20.4043C73.5561 19.3738 73.8653 18.2746 73.6936 17.2097Z" fill="white"/>
<mask id="mask0" mask-type="alpha" maskUnits="userSpaceOnUse" x="0" y="0" width="74" height="64">
<path d="M67.5104 8.31287C64.0754 3.29767 58.3388 0 51.7778 0H19.9004C13.2363 0 7.98069 3.22896 5.23264 8.72507C5.12959 8.93118 4.71738 9.75559 4.51127 9.92735C3.1716 11.8166 2.38153 12.9846 1.45406 14.3586C0.83575 15.2517 0.217437 16.1792 0.0456841 17.244C-0.126069 18.3089 0.217438 19.3738 0.560944 20.4043C1.52276 23.4272 2.48458 26.4157 3.4464 29.4385C3.5151 29.7133 3.5838 29.9881 3.5838 30.263V59.7358C3.5838 61.9343 5.37004 63.7205 7.56848 63.7205H66.9952C69.1249 63.7205 70.8768 61.9686 70.8768 59.8389V27.8928C71.6669 25.3852 72.4569 22.9119 73.2813 20.4043C73.6248 19.3738 73.934 18.3089 73.7966 17.244C73.6248 16.1792 73.0065 15.2517 72.3882 14.3586" fill="#00BAE7"/>
</mask>
<g mask="url(#mask0)">
<path opacity="0.15" d="M-13.3498 86.9879L25.3394 -16.5664L22.2823 -17.7086L-16.4069 85.8458L-13.3498 86.9879Z" fill="white"/>
<path opacity="0.15" d="M-2.45822 95.0739L36.231 -8.48047L34.7185 -9.04554L-3.97066 94.5088L-2.45822 95.0739Z" fill="white"/>
<path opacity="0.15" d="M-4.77218 91.3571L33.917 -12.1973L27.288 -14.674L-11.4012 88.8804L-4.77218 91.3571Z" fill="white"/>
<path opacity="0.15" d="M41.429 100.041L80.1182 -3.51367L73.4891 -5.99036L34.8 97.564L41.429 100.041Z" fill="white"/>
<path opacity="0.15" d="M33.2557 95.4801L71.9448 -8.07422L68.8878 -9.21638L30.1986 94.338L33.2557 95.4801Z" fill="white"/>
<path opacity="0.15" d="M-20.2463 86.8952L18.4429 -16.6592L11.8138 -19.1359L-26.8753 84.4185L-20.2463 86.8952Z" fill="white"/>
<path opacity="0.15" d="M-28.4196 82.3346L10.2695 -21.2197L7.21246 -22.3619L-31.4767 81.1925L-28.4196 82.3346Z" fill="white"/>
<path d="M9.62948 39.3997C9.93863 38.9532 10.2478 38.541 10.66 38.1975C10.6256 38.2318 10.5913 38.2662 10.5569 38.3005C11.0379 37.854 11.5531 37.4761 12.1027 37.1326C12.0684 37.167 12.034 37.167 11.9653 37.2013C12.5493 36.8921 13.1332 36.6517 13.7859 36.4799C13.7516 36.4799 13.6829 36.5143 13.6485 36.5143C14.3355 36.3425 15.0225 36.3082 15.7095 36.2738C16.3966 36.2395 17.0836 36.2051 17.7706 36.0677C18.4576 35.9303 19.1103 35.6899 19.6942 35.2777C20.2095 34.8998 20.656 34.3845 20.8622 33.7662C20.9996 33.3884 21.0683 33.0105 21.0339 32.6327C21.0339 32.4266 20.9996 32.2548 20.9309 32.0487C20.8622 31.8769 20.7934 31.7052 20.6904 31.5334C20.6217 31.4304 20.4499 31.3273 20.3469 31.3273C20.2095 31.293 20.0377 31.3273 19.9347 31.4304C19.8316 31.5334 19.7286 31.6365 19.7286 31.7739C19.7286 31.8082 19.7286 31.8769 19.7286 31.9113C19.7286 32.0143 19.7629 32.1174 19.8316 32.1861C19.8316 32.1861 19.8316 32.2205 19.866 32.2205C19.8316 32.1861 19.8316 32.1518 19.7973 32.083C19.866 32.2205 19.9347 32.3579 19.969 32.4953C19.969 32.4609 19.9347 32.3922 19.9347 32.3579C19.969 32.5296 20.0034 32.7014 20.0034 32.8388C20.0034 32.8044 20.0034 32.7357 20.0034 32.7014C20.0034 32.9075 19.969 33.1136 19.9003 33.2853C19.9003 33.251 19.9347 33.1823 19.9347 33.1479C19.866 33.354 19.7973 33.5601 19.6599 33.7319C19.6942 33.6975 19.6942 33.6632 19.7286 33.5945C19.6255 33.7662 19.4881 33.938 19.3507 34.0754C19.3851 34.041 19.4194 34.0067 19.4538 33.9723C19.2477 34.1784 19.0416 34.3158 18.8011 34.4532C18.8355 34.4189 18.8698 34.4189 18.9385 34.3845C18.595 34.5907 18.2171 34.7281 17.8049 34.8311C17.8393 34.8311 17.908 34.7968 17.9423 34.7968C16.5683 35.1403 15.0912 34.9685 13.7172 35.2777C13.0645 35.4151 12.4462 35.6212 11.8623 35.9303C11.2783 36.2395 10.7287 36.583 10.2478 36.9952C9.69818 37.4761 9.18292 37.9914 8.80506 38.6097C8.73636 38.7471 8.66766 38.8501 8.70201 39.0219C8.70201 39.1593 8.80506 39.331 8.90811 39.3997C9.01116 39.4684 9.18292 39.5371 9.32032 39.5028C9.38902 39.5715 9.56078 39.5028 9.62948 39.3997Z" fill="#D6D6D4"/>
<path d="M5.4386 30.503C5.85081 30.3656 6.29737 30.2626 6.70957 30.2282C6.67522 30.2282 6.60652 30.2282 6.57217 30.2282C7.19049 30.1595 7.84315 30.2282 8.46146 30.3313C8.42711 30.3313 8.35841 30.3313 8.32406 30.2969C9.28588 30.4687 10.2477 30.7778 11.1408 31.1557C12.1713 31.5679 13.2019 32.0488 14.2324 32.3923C15.1942 32.7358 16.1904 32.9419 17.1865 32.9763C18.1484 33.0106 19.1102 32.8732 20.0033 32.461C20.4498 32.2549 20.8621 31.9801 21.2399 31.6709C21.6178 31.3274 21.9956 30.9496 22.3735 30.6061C22.4765 30.5374 22.5796 30.4343 22.6826 30.3656C22.6483 30.4 22.6139 30.4343 22.5796 30.4343C22.7513 30.2969 22.9574 30.1939 23.1636 30.1252C23.1292 30.1252 23.0605 30.1595 23.0262 30.1595C23.1979 30.0908 23.3697 30.0565 23.5414 30.0565C23.5071 30.0565 23.4384 30.0565 23.404 30.0565C23.5758 30.0565 23.7475 30.0565 23.9193 30.0908C23.8849 30.0908 23.8162 30.0908 23.7819 30.0565C23.9193 30.0908 24.0567 30.1252 24.1941 30.1939C24.1597 30.1595 24.091 30.1595 24.0567 30.1252C24.1597 30.1595 24.2284 30.2282 24.3315 30.2969C24.2971 30.2626 24.2628 30.2282 24.2284 30.1939C24.2971 30.2626 24.3658 30.3313 24.4345 30.4C24.4002 30.3656 24.3658 30.3313 24.3658 30.2969C24.4002 30.3656 24.4345 30.4343 24.4689 30.503C24.5376 30.6404 24.675 30.7435 24.8124 30.7778C24.9498 30.8122 25.1215 30.8122 25.2246 30.7435C25.4994 30.5717 25.6025 30.2626 25.465 29.9878C25.2933 29.5755 24.9498 29.3007 24.5376 29.129C24.1597 28.9572 23.7475 28.9572 23.3353 28.9916C22.4765 29.0946 21.7895 29.6442 21.2056 30.2282C20.8621 30.5374 20.5186 30.8809 20.1407 31.1557C20.175 31.1213 20.2094 31.087 20.2437 31.087C19.9346 31.2931 19.5911 31.4648 19.2132 31.6022C19.2476 31.6022 19.3163 31.5679 19.3506 31.5679C18.9041 31.7396 18.4232 31.8083 17.9766 31.877C18.0109 31.877 18.0797 31.877 18.114 31.877C17.4613 31.9457 16.843 31.877 16.1904 31.774C16.2247 31.774 16.2934 31.774 16.3278 31.8083C14.782 31.5335 13.3049 30.8465 11.8622 30.2626C10.4882 29.7129 9.07977 29.1977 7.56834 29.129C6.77828 29.0946 5.95386 29.1633 5.19815 29.4381C5.06074 29.4725 4.92334 29.5412 4.85464 29.6786C4.78594 29.7816 4.75159 29.9534 4.78594 30.0908C4.82029 30.2282 4.88899 30.3656 5.02639 30.4343C5.12944 30.503 5.3012 30.5374 5.4386 30.503Z" fill="#C1C1BC"/>
<path d="M65.3463 45.1708C64.2814 46.3387 62.6326 46.7509 61.5677 47.9188C59.4723 50.2203 60.2624 54.6172 57.7892 56.4034C56.106 57.6401 53.8045 56.8844 51.9495 55.9225C50.1289 54.9264 48.171 53.7241 46.1443 54.1707C44.4954 54.5485 43.2588 55.9225 41.9191 57.0218C40.5795 58.121 38.7589 58.9797 37.2818 58.121C35.9421 57.3309 35.4269 55.4416 34.1215 54.5829C32.7132 53.6554 30.8926 54.2394 29.2437 54.4455C26.4613 54.789 23.5415 53.7928 21.4118 51.8005C20.7935 51.2165 20.2095 50.4951 19.9003 49.6707C19.6255 48.9493 19.5912 48.1936 19.6255 47.4379C19.6599 45.9952 19.969 44.4838 19.6255 43.0754C19.282 41.667 18.3202 40.5678 17.4958 39.3655C16.7057 38.1976 16.0187 36.7205 16.3622 35.3121C16.7744 33.6289 18.4233 32.7015 20.0034 32.3236C21.5492 31.9458 23.2324 31.8427 24.6064 30.9496C26.1522 29.9191 26.9766 28.0641 28.0415 26.5184C29.9307 23.7703 32.7132 21.7436 35.8047 20.8848C38.8963 20.0261 42.2283 20.4039 45.1138 21.881C47.4496 23.0833 49.4076 24.9726 51.3656 26.8275C53.564 28.9573 55.7625 31.0526 57.9953 33.1824C59.9532 35.0717 61.8425 36.8923 64.0753 38.4037C66.2051 39.8808 67.4417 42.8693 65.3463 45.1708Z" fill="white"/>
<path d="M34.671 40.5679C34.671 40.5679 21.7552 40.1557 18.5605 40.8083C19.0415 41.4953 19.4537 42.2167 19.6598 43.0411C19.9346 44.106 19.7972 45.2396 19.7285 46.3731C20.3811 45.3083 23.2322 42.3885 34.671 40.5679Z" fill="#E8E8E8"/>
<path d="M48.583 38.7812C56.8959 41.5293 59.7813 52.4185 59.7813 52.4185C60.1592 50.7696 60.5027 49.0521 61.5332 47.8842C61.7393 47.6781 61.9454 47.472 62.1859 47.3002C58.373 39.5026 48.583 38.7812 48.583 38.7812Z" fill="#E8E8E8"/>
<path d="M31.2705 53.9994C31.2705 53.9994 31.2705 54.0338 31.2705 54.1025C32.2667 53.9651 33.2628 53.9651 34.1216 54.549C34.4651 54.7895 34.7399 55.0643 35.0147 55.4078L35.0491 55.3734C35.0491 55.3734 34.4995 43.0415 37.9345 36.0684C37.9689 36.0684 32.9193 45.7896 31.2705 53.9994Z" fill="#E8E8E8"/>
<path d="M43.7397 39.5371C43.8084 39.6401 43.8428 39.7432 43.9115 39.8462C46.213 44.621 43.8084 53.4835 43.0527 56.0254C44.0146 55.201 44.9764 54.3766 46.1786 54.1361C47.3122 53.8957 48.4458 54.1705 49.545 54.6514C49.7855 47.8156 40.7512 34.0753 43.7397 39.5371Z" fill="#E8E8E8"/>
<path d="M10.2477 16.9003C11.4843 15.6293 13.4079 15.2171 14.6789 13.9462C17.1178 11.4729 16.2247 6.69816 19.0758 4.74017C21.0681 3.40049 23.7475 4.22491 25.8772 5.28978C28.007 6.35465 30.3085 7.65998 32.6443 7.17907C34.568 6.80121 36.0107 5.28978 37.5565 4.08751C39.1023 2.88523 41.232 1.99211 42.9839 2.91958C44.564 3.77835 45.148 5.83939 46.6594 6.76686C48.3082 7.76303 50.438 7.11037 52.3616 6.90426C55.6249 6.5264 59.0256 7.59128 61.4989 9.75537C62.2203 10.408 62.9073 11.1637 63.2508 12.0569C63.5599 12.8126 63.6286 13.637 63.5943 14.4614C63.5599 16.0415 63.1821 17.656 63.5943 19.1675C64.0065 20.6789 65.1401 21.8812 66.0675 23.1521C66.995 24.4231 67.7851 26.0032 67.4072 27.5147C66.9263 29.3353 65.0027 30.3314 63.1821 30.7436C61.3615 31.1558 59.4035 31.2589 57.8234 32.2551C56.0371 33.3543 55.041 35.3466 53.8043 37.0642C51.6059 40.0527 48.3426 42.2511 44.7701 43.1442C41.1633 44.0374 37.2817 43.6595 33.9153 42.045C31.2016 40.7397 28.9001 38.713 26.633 36.6863C24.0567 34.3848 21.4804 32.1177 18.904 29.8162C16.6026 27.7551 14.4385 25.7971 11.8278 24.1827C9.25151 22.6025 7.80878 19.3736 10.2477 16.9003Z" fill="white"/>
<path d="M46.041 21.8469C46.041 21.8469 61.0866 22.2935 64.8652 21.5721C64.3156 20.8164 63.8347 20.0263 63.5942 19.1332C63.2851 17.9653 63.4225 16.763 63.5255 15.5264C62.7011 16.6943 59.3691 19.8889 46.041 21.8469Z" fill="#E8E8E8"/>
<path d="M29.7935 23.7705C20.1066 20.8163 16.7403 9.06836 16.7403 9.06836C16.2937 10.8546 15.9159 12.7095 14.6792 13.9462C14.4388 14.1866 14.164 14.3927 13.8892 14.5988C18.4235 22.9804 29.7935 23.7705 29.7935 23.7705Z" fill="#E8E8E8"/>
<path d="M49.9915 7.31709C49.9915 7.31709 49.9914 7.28274 49.9571 7.21404C48.7892 7.35144 47.6213 7.35144 46.6251 6.73313C46.2129 6.49268 45.9037 6.18352 45.5946 5.80566L45.5602 5.84001C45.5602 5.84001 46.2129 19.1681 42.1938 26.6909C42.1938 26.7252 48.1022 16.2139 49.9915 7.31709Z" fill="#E8E8E8"/>
<path d="M35.4613 22.9462C35.3926 22.8431 35.3239 22.7057 35.2552 22.6027C32.5759 17.4501 35.3926 7.86622 36.2514 5.11816C35.1522 6.01128 33.9843 6.9044 32.6102 7.1792C31.2706 7.45401 29.9652 7.14485 28.6943 6.62959C28.4194 14.015 38.9651 28.8545 35.4613 22.9462Z" fill="#E8E8E8"/>
</g>
<path d="M67.5104 72.3129C64.0754 67.2977 58.3388 64 51.7778 64H19.9004C13.2363 64 7.98069 67.229 5.23264 72.7251C5.12959 72.9312 4.71738 73.7556 4.51127 73.9273C3.1716 75.8166 2.38153 76.9846 1.45406 78.3586C0.83575 79.2517 0.217437 80.1792 0.0456841 81.244C-0.126069 82.3089 0.217438 83.3738 0.560944 84.4043C1.52276 87.4272 2.48458 90.4157 3.4464 93.4385C3.5151 93.7133 3.5838 93.9881 3.5838 94.263V123.736C3.5838 125.934 5.37004 127.721 7.56848 127.721H66.9952C69.1249 127.721 70.8768 125.969 70.8768 123.839V91.8928C71.6669 89.3852 72.4569 86.9119 73.2813 84.4043C73.6248 83.3738 73.934 82.3089 73.7966 81.244C73.6248 80.1792 73.0065 79.2517 72.3882 78.3586" fill="#00BAE7"/>
<path d="M68.7127 79.8012C66.8234 69.2556 55.6937 65.7861 38.0718 65.7861C20.4499 65.7861 9.32032 69.2556 7.43103 79.8012C5.54174 90.3469 12.2058 94.4003 12.2058 94.4003C12.2058 94.4003 12.2058 114.633 11.931 120.404C11.6218 126.209 16.7057 126.793 16.7057 126.793H38.1062H59.5067C59.5067 126.793 64.5562 126.209 64.2814 120.438C64.0066 114.667 64.0066 94.4346 64.0066 94.4346C64.0066 94.4346 70.6019 90.3469 68.7127 79.8012Z" fill="#A56A1C"/>
<path d="M66.2395 79.4575C64.3502 68.9118 53.2206 65.4424 35.5987 65.4424C17.9768 65.4424 6.84717 68.9118 4.95789 79.4575C3.0686 90.0031 9.73263 94.0565 9.73263 94.0565C9.73263 94.0565 9.73263 114.289 9.45783 120.06C9.14867 125.865 14.2326 126.449 14.2326 126.449H35.633H57.0335C57.0335 126.449 62.0831 125.865 61.8083 120.094C61.5335 114.323 61.5335 94.0909 61.5335 94.0909C61.5335 94.0909 68.1288 90.0375 66.2395 79.4575Z" fill="#B77616"/>
<path d="M35.5645 68.8431C44.4957 68.8431 50.988 69.7706 55.4879 71.6255C59.8161 73.4461 62.152 76.1254 62.8733 80.0414C63.4916 83.4421 63.1138 86.3276 61.8084 88.6634C60.9153 90.2436 59.8505 91.0336 59.6787 91.171L58.0642 92.0642V94.0565C58.0642 94.8809 58.0642 114.426 58.3734 120.232C58.4421 121.881 57.8581 122.361 57.652 122.533C57.3085 122.808 56.9306 122.945 56.6902 123.014H35.6332H14.5075C14.2671 122.945 13.8892 122.808 13.5457 122.533C13.3396 122.361 12.7213 121.881 12.8244 120.232C13.0992 114.426 13.1335 94.8809 13.1335 94.0565V92.1329L11.519 91.1367C11.519 91.1367 10.4885 90.4153 9.56105 88.9383C8.04962 86.5681 7.63741 83.5795 8.29008 80.0758C8.97709 76.1254 11.3473 73.4804 15.6755 71.6599C20.1411 69.7706 26.6677 68.8431 35.5645 68.8431ZM35.5645 65.4424C17.9426 65.4424 6.813 68.9118 4.92371 79.4575C3.03442 90.0031 9.69845 94.0565 9.69845 94.0565C9.69845 94.0565 9.69845 114.289 9.42365 120.06C9.11449 125.865 14.1984 126.449 14.1984 126.449H35.5989H56.9993C56.9993 126.449 62.0489 125.865 61.7741 120.094C61.4993 114.323 61.4993 94.0909 61.4993 94.0909C61.4993 94.0909 68.1633 90.0375 66.274 79.4918C64.316 68.9118 53.1864 65.4424 35.5645 65.4424Z" fill="#B77616"/>
<path opacity="0.15" d="M73.6936 81.2097C73.5218 80.1448 72.9035 79.2174 72.2852 78.3242L67.5104 72.3129C64.0754 67.2977 58.3388 64 51.7778 64H19.9004C13.2363 64 7.98069 67.229 5.23264 72.7251C5.12959 72.9312 4.71738 73.7556 4.51127 73.9273C3.1716 75.8166 2.38153 76.9846 1.45406 78.3586C0.83575 79.2517 0.217437 80.1792 0.0456841 81.244C-0.126069 82.3089 0.217438 83.3738 0.560944 84.4043C1.52276 87.4272 2.48458 90.4157 3.4464 93.4385C3.5151 93.7133 3.5838 93.9881 3.5838 94.263V123.736C3.5838 125.934 5.37004 127.721 7.56848 127.721H66.9952C69.1249 127.721 70.8768 125.969 70.8768 123.839V91.8928C71.6669 89.3852 72.4569 86.9119 73.2813 84.4043C73.5561 83.3738 73.8653 82.2746 73.6936 81.2097Z" fill="white"/>
<mask id="mask1" mask-type="alpha" maskUnits="userSpaceOnUse" x="0" y="64" width="74" height="64">
<path d="M67.5104 72.3129C64.0754 67.2977 58.3388 64 51.7778 64H19.9004C13.2363 64 7.98069 67.229 5.23264 72.7251C5.12959 72.9312 4.71738 73.7556 4.51127 73.9273C3.1716 75.8166 2.38153 76.9846 1.45406 78.3586C0.83575 79.2517 0.217437 80.1792 0.0456841 81.244C-0.126069 82.3089 0.217438 83.3738 0.560944 84.4043C1.52276 87.4272 2.48458 90.4157 3.4464 93.4385C3.5151 93.7133 3.5838 93.9881 3.5838 94.263V123.736C3.5838 125.934 5.37004 127.721 7.56848 127.721H66.9952C69.1249 127.721 70.8768 125.969 70.8768 123.839V91.8928C71.6669 89.3852 72.4569 86.9119 73.2813 84.4043C73.6248 83.3738 73.934 82.3089 73.7966 81.244C73.6248 80.1792 73.0065 79.2517 72.3882 78.3586" fill="#00BAE7"/>
</mask>
<g mask="url(#mask1)">
<path opacity="0.15" d="M-13.3498 150.988L25.3394 47.4336L22.2823 46.2914L-16.4069 149.846L-13.3498 150.988Z" fill="white"/>
<path opacity="0.15" d="M-2.45822 159.074L36.231 55.5195L34.7185 54.9545L-3.97066 158.509L-2.45822 159.074Z" fill="white"/>
<path opacity="0.15" d="M-4.77218 155.357L33.917 51.8027L27.288 49.326L-11.4012 152.88L-4.77218 155.357Z" fill="white"/>
<path opacity="0.15" d="M41.429 164.041L80.1182 60.4863L73.4891 58.0096L34.8 161.564L41.429 164.041Z" fill="white"/>
<path opacity="0.15" d="M33.2557 159.48L71.9448 55.9258L68.8878 54.7836L30.1986 158.338L33.2557 159.48Z" fill="white"/>
<path opacity="0.15" d="M-20.2463 150.895L18.4429 47.3408L11.8138 44.8641L-26.8753 148.418L-20.2463 150.895Z" fill="white"/>
<path opacity="0.15" d="M-28.4196 146.335L10.2695 42.7803L7.21246 41.6381L-31.4767 145.192L-28.4196 146.335Z" fill="white"/>
<path d="M9.62948 103.4C9.93863 102.953 10.2478 102.541 10.66 102.197C10.6256 102.232 10.5913 102.266 10.5569 102.301C11.0379 101.854 11.5531 101.476 12.1027 101.133C12.0684 101.167 12.034 101.167 11.9653 101.201C12.5493 100.892 13.1332 100.652 13.7859 100.48C13.7516 100.48 13.6829 100.514 13.6485 100.514C14.3355 100.343 15.0225 100.308 15.7095 100.274C16.3966 100.239 17.0836 100.205 17.7706 100.068C18.4576 99.9303 19.1103 99.6899 19.6942 99.2777C20.2095 98.8998 20.656 98.3845 20.8622 97.7662C20.9996 97.3884 21.0683 97.0105 21.0339 96.6327C21.0339 96.4266 20.9996 96.2548 20.9309 96.0487C20.8622 95.8769 20.7934 95.7052 20.6904 95.5334C20.6217 95.4304 20.4499 95.3273 20.3469 95.3273C20.2095 95.293 20.0377 95.3273 19.9347 95.4304C19.8316 95.5334 19.7286 95.6365 19.7286 95.7739C19.7286 95.8082 19.7286 95.8769 19.7286 95.9113C19.7286 96.0143 19.7629 96.1174 19.8316 96.1861C19.8316 96.1861 19.8316 96.2205 19.866 96.2205C19.8316 96.1861 19.8316 96.1518 19.7973 96.083C19.866 96.2205 19.9347 96.3579 19.969 96.4953C19.969 96.4609 19.9347 96.3922 19.9347 96.3579C19.969 96.5296 20.0034 96.7014 20.0034 96.8388C20.0034 96.8044 20.0034 96.7357 20.0034 96.7014C20.0034 96.9075 19.969 97.1136 19.9003 97.2853C19.9003 97.251 19.9347 97.1823 19.9347 97.1479C19.866 97.354 19.7973 97.5601 19.6599 97.7319C19.6942 97.6975 19.6942 97.6632 19.7286 97.5945C19.6255 97.7662 19.4881 97.938 19.3507 98.0754C19.3851 98.041 19.4194 98.0067 19.4538 97.9723C19.2477 98.1784 19.0416 98.3158 18.8011 98.4532C18.8355 98.4189 18.8698 98.4189 18.9385 98.3845C18.595 98.5907 18.2171 98.7281 17.8049 98.8311C17.8393 98.8311 17.908 98.7968 17.9423 98.7968C16.5683 99.1403 15.0912 98.9685 13.7172 99.2777C13.0645 99.4151 12.4462 99.6212 11.8623 99.9303C11.2783 100.239 10.7287 100.583 10.2478 100.995C9.69818 101.476 9.18292 101.991 8.80506 102.61C8.73636 102.747 8.66766 102.85 8.70201 103.022C8.70201 103.159 8.80506 103.331 8.90811 103.4C9.01116 103.468 9.18292 103.537 9.32032 103.503C9.38902 103.571 9.56078 103.503 9.62948 103.4Z" fill="#D6D6D4"/>
<path d="M5.4386 94.503C5.85081 94.3656 6.29737 94.2626 6.70957 94.2282C6.67522 94.2282 6.60652 94.2282 6.57217 94.2282C7.19049 94.1595 7.84315 94.2282 8.46146 94.3313C8.42711 94.3313 8.35841 94.3313 8.32406 94.2969C9.28588 94.4687 10.2477 94.7778 11.1408 95.1557C12.1713 95.5679 13.2019 96.0488 14.2324 96.3923C15.1942 96.7358 16.1904 96.9419 17.1865 96.9763C18.1484 97.0106 19.1102 96.8732 20.0033 96.461C20.4498 96.2549 20.8621 95.9801 21.2399 95.6709C21.6178 95.3274 21.9956 94.9496 22.3735 94.6061C22.4765 94.5374 22.5796 94.4343 22.6826 94.3656C22.6483 94.4 22.6139 94.4343 22.5796 94.4343C22.7513 94.2969 22.9574 94.1939 23.1636 94.1252C23.1292 94.1252 23.0605 94.1595 23.0262 94.1595C23.1979 94.0908 23.3697 94.0565 23.5414 94.0565C23.5071 94.0565 23.4384 94.0565 23.404 94.0565C23.5758 94.0565 23.7475 94.0565 23.9193 94.0908C23.8849 94.0908 23.8162 94.0908 23.7819 94.0565C23.9193 94.0908 24.0567 94.1252 24.1941 94.1939C24.1597 94.1595 24.091 94.1595 24.0567 94.1252C24.1597 94.1595 24.2284 94.2282 24.3315 94.2969C24.2971 94.2626 24.2628 94.2282 24.2284 94.1939C24.2971 94.2626 24.3658 94.3313 24.4345 94.4C24.4002 94.3656 24.3658 94.3313 24.3658 94.2969C24.4002 94.3656 24.4345 94.4343 24.4689 94.503C24.5376 94.6404 24.675 94.7435 24.8124 94.7778C24.9498 94.8122 25.1215 94.8122 25.2246 94.7435C25.4994 94.5717 25.6025 94.2626 25.465 93.9878C25.2933 93.5755 24.9498 93.3007 24.5376 93.129C24.1597 92.9572 23.7475 92.9572 23.3353 92.9916C22.4765 93.0946 21.7895 93.6442 21.2056 94.2282C20.8621 94.5374 20.5186 94.8809 20.1407 95.1557C20.175 95.1213 20.2094 95.087 20.2437 95.087C19.9346 95.2931 19.5911 95.4648 19.2132 95.6022C19.2476 95.6022 19.3163 95.5679 19.3506 95.5679C18.9041 95.7396 18.4232 95.8083 17.9766 95.877C18.0109 95.877 18.0797 95.877 18.114 95.877C17.4613 95.9457 16.843 95.877 16.1904 95.774C16.2247 95.774 16.2934 95.774 16.3278 95.8083C14.782 95.5335 13.3049 94.8465 11.8622 94.2626C10.4882 93.7129 9.07977 93.1977 7.56834 93.129C6.77828 93.0946 5.95386 93.1633 5.19815 93.4381C5.06074 93.4725 4.92334 93.5412 4.85464 93.6786C4.78594 93.7816 4.75159 93.9534 4.78594 94.0908C4.82029 94.2282 4.88899 94.3656 5.02639 94.4343C5.12944 94.503 5.3012 94.5374 5.4386 94.503Z" fill="#C1C1BC"/>
<path d="M65.3463 109.171C64.2814 110.339 62.6326 110.751 61.5677 111.919C59.4723 114.22 60.2624 118.617 57.7892 120.403C56.106 121.64 53.8045 120.884 51.9495 119.923C50.1289 118.926 48.171 117.724 46.1443 118.171C44.4954 118.549 43.2588 119.923 41.9191 121.022C40.5795 122.121 38.7589 122.98 37.2818 122.121C35.9421 121.331 35.4269 119.442 34.1215 118.583C32.7132 117.655 30.8926 118.239 29.2437 118.445C26.4613 118.789 23.5415 117.793 21.4118 115.8C20.7935 115.216 20.2095 114.495 19.9003 113.671C19.6255 112.949 19.5912 112.194 19.6255 111.438C19.6599 109.995 19.969 108.484 19.6255 107.075C19.282 105.667 18.3202 104.568 17.4958 103.366C16.7057 102.198 16.0187 100.721 16.3622 99.3121C16.7744 97.6289 18.4233 96.7015 20.0034 96.3236C21.5492 95.9458 23.2324 95.8427 24.6064 94.9496C26.1522 93.9191 26.9766 92.0641 28.0415 90.5184C29.9307 87.7703 32.7132 85.7436 35.8047 84.8848C38.8963 84.0261 42.2283 84.4039 45.1138 85.881C47.4496 87.0833 49.4076 88.9726 51.3656 90.8275C53.564 92.9573 55.7625 95.0526 57.9953 97.1824C59.9532 99.0717 61.8425 100.892 64.0753 102.404C66.2051 103.881 67.4417 106.869 65.3463 109.171Z" fill="white"/>
<path d="M34.671 104.568C34.671 104.568 21.7552 104.156 18.5605 104.808C19.0415 105.495 19.4537 106.217 19.6598 107.041C19.9346 108.106 19.7972 109.24 19.7285 110.373C20.3811 109.308 23.2322 106.388 34.671 104.568Z" fill="#E8E8E8"/>
<path d="M48.583 102.781C56.8959 105.529 59.7813 116.418 59.7813 116.418C60.1592 114.77 60.5027 113.052 61.5332 111.884C61.7393 111.678 61.9454 111.472 62.1859 111.3C58.373 103.503 48.583 102.781 48.583 102.781Z" fill="#E8E8E8"/>
<path d="M31.2705 117.999C31.2705 117.999 31.2705 118.034 31.2705 118.102C32.2667 117.965 33.2628 117.965 34.1216 118.549C34.4651 118.789 34.7399 119.064 35.0147 119.408L35.0491 119.373C35.0491 119.373 34.4995 107.042 37.9345 100.068C37.9689 100.068 32.9193 109.79 31.2705 117.999Z" fill="#E8E8E8"/>
<path d="M43.7397 103.537C43.8084 103.64 43.8428 103.743 43.9115 103.846C46.213 108.621 43.8084 117.483 43.0527 120.025C44.0146 119.201 44.9764 118.377 46.1786 118.136C47.3122 117.896 48.4458 118.17 49.545 118.651C49.7855 111.816 40.7512 98.0753 43.7397 103.537Z" fill="#E8E8E8"/>
<path d="M10.2477 80.9003C11.4843 79.6293 13.4079 79.2171 14.6789 77.9462C17.1178 75.4729 16.2247 70.6982 19.0758 68.7402C21.0681 67.4005 23.7475 68.2249 25.8772 69.2898C28.007 70.3547 30.3085 71.66 32.6443 71.1791C34.568 70.8012 36.0107 69.2898 37.5565 68.0875C39.1023 66.8852 41.232 65.9921 42.9839 66.9196C44.564 67.7784 45.148 69.8394 46.6594 70.7669C48.3082 71.763 50.438 71.1104 52.3616 70.9043C55.6249 70.5264 59.0256 71.5913 61.4989 73.7554C62.2203 74.408 62.9073 75.1637 63.2508 76.0569C63.5599 76.8126 63.6286 77.637 63.5943 78.4614C63.5599 80.0415 63.1821 81.656 63.5943 83.1675C64.0065 84.6789 65.1401 85.8812 66.0675 87.1521C66.995 88.4231 67.7851 90.0032 67.4072 91.5147C66.9263 93.3353 65.0027 94.3314 63.1821 94.7436C61.3615 95.1558 59.4035 95.2589 57.8234 96.2551C56.0371 97.3543 55.041 99.3466 53.8043 101.064C51.6059 104.053 48.3426 106.251 44.7701 107.144C41.1633 108.037 37.2817 107.659 33.9153 106.045C31.2016 104.74 28.9001 102.713 26.633 100.686C24.0567 98.3848 21.4804 96.1177 18.904 93.8162C16.6026 91.7551 14.4385 89.7971 11.8278 88.1827C9.25151 86.6025 7.80878 83.3736 10.2477 80.9003Z" fill="white"/>
<path d="M46.041 85.8469C46.041 85.8469 61.0866 86.2935 64.8652 85.5721C64.3156 84.8164 63.8347 84.0263 63.5942 83.1332C63.2851 81.9653 63.4225 80.763 63.5255 79.5264C62.7011 80.6943 59.3691 83.8889 46.041 85.8469Z" fill="#E8E8E8"/>
<path d="M29.7935 87.7705C20.1066 84.8163 16.7403 73.0684 16.7403 73.0684C16.2937 74.8546 15.9159 76.7095 14.6792 77.9462C14.4388 78.1866 14.164 78.3927 13.8892 78.5988C18.4235 86.9804 29.7935 87.7705 29.7935 87.7705Z" fill="#E8E8E8"/>
<path d="M49.9915 71.3171C49.9915 71.3171 49.9914 71.2827 49.9571 71.214C48.7892 71.3514 47.6213 71.3514 46.6251 70.7331C46.2129 70.4927 45.9037 70.1835 45.5946 69.8057L45.5602 69.84C45.5602 69.84 46.2129 83.1681 42.1938 90.6909C42.1938 90.7252 48.1022 80.2139 49.9915 71.3171Z" fill="#E8E8E8"/>
<path d="M35.4613 86.9462C35.3926 86.8431 35.3239 86.7057 35.2552 86.6027C32.5759 81.4501 35.3926 71.8662 36.2514 69.1182C35.1522 70.0113 33.9843 70.9044 32.6102 71.1792C31.2706 71.454 29.9652 71.1449 28.6943 70.6296C28.4194 78.015 38.9651 92.8545 35.4613 86.9462Z" fill="#E8E8E8"/>
</g>
</svg>
