<svg width="222" height="130" viewBox="0 0 222 130" fill="none" xmlns="http://www.w3.org/2000/svg">
<path d="M0.0620117 58.1892V19.4167C0.0620117 13.5206 4.84684 8.7666 10.7121 8.7666H167.901C173.797 8.7666 178.551 13.5514 178.551 19.4167V58.2201C178.551 64.1162 173.767 68.8702 167.901 68.8702H10.7121C4.81597 68.8702 0.0620117 64.0854 0.0620117 58.1892Z" fill="#00BAE7"/>
<path d="M162.715 66.5237V11.0814C162.715 10.4949 163.209 10.001 163.795 10.001H171.142C171.729 10.001 172.223 10.4949 172.223 11.0814V66.5545C172.223 67.141 171.729 67.635 171.142 67.635H163.795C163.178 67.6041 162.715 67.1411 162.715 66.5237Z" fill="#934114"/>
<path d="M152.651 66.5237V11.0814C152.651 10.4949 153.145 10.001 153.732 10.001H161.079C161.665 10.001 162.159 10.4949 162.159 11.0814V66.5545C162.159 67.141 161.665 67.635 161.079 67.635H153.732C153.145 67.6041 152.651 67.1411 152.651 66.5237Z" fill="#934114"/>
<path d="M142.619 66.5237V11.0814C142.619 10.4949 143.113 10.001 143.699 10.001H151.046C151.633 10.001 152.127 10.4949 152.127 11.0814V66.5545C152.127 67.141 151.633 67.635 151.046 67.635H143.699C143.082 67.6041 142.619 67.1411 142.619 66.5237Z" fill="#934114"/>
<path d="M132.586 66.5237V11.0814C132.586 10.4949 133.08 10.001 133.666 10.001H141.013C141.6 10.001 142.094 10.4949 142.094 11.0814V66.5545C142.094 67.141 141.6 67.635 141.013 67.635H133.666C133.049 67.6041 132.586 67.1411 132.586 66.5237Z" fill="#934114"/>
<path d="M122.522 66.5237V11.0814C122.522 10.4949 123.016 10.001 123.603 10.001H130.95C131.536 10.001 132.03 10.4949 132.03 11.0814V66.5545C132.03 67.141 131.536 67.635 130.95 67.635H123.603C123.016 67.6041 122.522 67.1411 122.522 66.5237Z" fill="#934114"/>
<path d="M112.49 66.5237V11.0814C112.49 10.4949 112.984 10.001 113.57 10.001H120.917C121.504 10.001 121.998 10.4949 121.998 11.0814V66.5545C121.998 67.141 121.504 67.635 120.917 67.635H113.57C112.984 67.6041 112.49 67.1411 112.49 66.5237Z" fill="#934114"/>
<path d="M102.457 66.5237V11.0814C102.457 10.4949 102.951 10.001 103.537 10.001H110.885C111.471 10.001 111.965 10.4949 111.965 11.0814V66.5545C111.965 67.141 111.471 67.635 110.885 67.635H103.537C102.92 67.6041 102.457 67.1411 102.457 66.5237Z" fill="#934114"/>
<path d="M92.3936 66.5237V11.0814C92.3936 10.4949 92.8875 10.001 93.474 10.001H100.821C101.408 10.001 101.901 10.4949 101.901 11.0814V66.5545C101.901 67.141 101.408 67.635 100.821 67.635H93.474C92.8875 67.6041 92.3936 67.1411 92.3936 66.5237Z" fill="#934114"/>
<path d="M82.3608 66.5237V11.0814C82.3608 10.4949 82.8548 10.001 83.4413 10.001H90.7883C91.3748 10.001 91.8688 10.4949 91.8688 11.0814V66.5545C91.8688 67.141 91.3748 67.635 90.7883 67.635H83.4413C82.8548 67.6041 82.3608 67.1411 82.3608 66.5237Z" fill="#934114"/>
<path d="M72.3281 66.5237V11.0814C72.3281 10.4949 72.822 10.001 73.4086 10.001H80.7556C81.3421 10.001 81.836 10.4949 81.836 11.0814V66.5545C81.836 67.141 81.3421 67.635 80.7556 67.635H73.4086C72.7912 67.6041 72.3281 67.1411 72.3281 66.5237Z" fill="#934114"/>
<path d="M62.2646 66.5237V11.0814C62.2646 10.4949 62.7586 10.001 63.3451 10.001H70.6921C71.2786 10.001 71.7726 10.4949 71.7726 11.0814V66.5545C71.7726 67.141 71.2786 67.635 70.6921 67.635H63.3451C62.7586 67.6041 62.2646 67.1411 62.2646 66.5237Z" fill="#934114"/>
<path d="M52.2319 66.5237V11.0814C52.2319 10.4949 52.7259 10.001 53.3124 10.001H60.6594C61.2459 10.001 61.7398 10.4949 61.7398 11.0814V66.5545C61.7398 67.141 61.2459 67.635 60.6594 67.635H53.3124C52.7259 67.6041 52.2319 67.1411 52.2319 66.5237Z" fill="#934114"/>
<path d="M42.1992 66.5237V11.0814C42.1992 10.4949 42.6931 10.001 43.2797 10.001H50.6267C51.2132 10.001 51.7071 10.4949 51.7071 11.0814V66.5545C51.7071 67.141 51.2132 67.635 50.6267 67.635H43.2797C42.6623 67.6041 42.1992 67.1411 42.1992 66.5237Z" fill="#934114"/>
<path d="M32.1357 66.5237V11.0814C32.1357 10.4949 32.6297 10.001 33.2162 10.001H40.5632C41.1497 10.001 41.6437 10.4949 41.6437 11.0814V66.5545C41.6437 67.141 41.1497 67.635 40.5632 67.635H33.2162C32.6297 67.6041 32.1357 67.1411 32.1357 66.5237Z" fill="#934114"/>
<path d="M22.103 66.5237V11.0814C22.103 10.4949 22.5969 10.001 23.1835 10.001H30.5305C31.117 10.001 31.6109 10.4949 31.6109 11.0814V66.5545C31.6109 67.141 31.117 67.635 30.5305 67.635H23.1835C22.5969 67.6041 22.103 67.1411 22.103 66.5237Z" fill="#934114"/>
<path d="M12.0703 66.5237V11.0814C12.0703 10.4949 12.5642 10.001 13.1508 10.001H20.4978C21.0843 10.001 21.5782 10.4949 21.5782 11.0814V66.5545C21.5782 67.141 21.0843 67.635 20.4978 67.635H13.1508C12.5334 67.6041 12.0703 67.1411 12.0703 66.5237Z" fill="#934114"/>
<path d="M1.97559 59.1766V18.4284C1.97559 13.7671 5.74171 10.001 10.4031 10.001C10.9896 10.001 11.4835 10.4949 11.4835 11.0814V66.5545C11.4835 67.141 10.9896 67.635 10.4031 67.635C5.74171 67.6041 1.97559 63.838 1.97559 59.1766Z" fill="#934114"/>
<g opacity="0.15">
<path opacity="0.15" d="M0.0620117 58.1892V19.4167C0.0620117 13.5206 4.84684 8.7666 10.7121 8.7666H167.901C173.797 8.7666 178.551 13.5514 178.551 19.4167V58.2201C178.551 64.1162 173.767 68.8702 167.901 68.8702H10.7121C4.81597 68.8702 0.0620117 64.0854 0.0620117 58.1892Z" fill="#934114"/>
</g>
<path d="M181.021 45.0382C186.886 46.7978 192.751 48.5883 198.586 50.3479C201.611 51.274 204.883 52.1692 207.877 51.1196C210.254 50.2861 212.076 48.2796 213.249 46.0261C214.422 43.7726 214.977 41.2721 215.533 38.8025C217.416 38.3086 219.33 37.7221 220.688 36.333C222.047 34.9438 222.541 32.536 221.244 31.1159C220.009 29.7268 217.817 29.8194 216.274 28.8007C214.638 27.7203 214.051 25.652 213.557 23.7381C212.107 17.9963 210.656 12.2545 209.236 6.51269C208.587 3.95049 207.569 0.956115 205.037 0.184369C202.63 -0.556508 200.222 1.07959 198.184 2.53048C196.147 3.98136 193.461 5.40137 191.269 4.19745C189.664 3.33309 188.8 1.32655 187.04 0.894374C185.003 0.400456 183.243 2.37613 182.163 4.16658C175.989 14.4771 174.322 26.8868 174.075 38.8951C174.013 42.1674 174.075 45.7791 175.834 48.65C177.779 51.9222 181.453 47.6931 181.021 45.0382Z" fill="#DA733B"/>
<path d="M182.101 4.22806C177.039 12.6864 175.032 22.503 174.322 32.4122C176.267 30.3748 177.996 27.8744 178.86 24.9108C181.484 16.0512 193.709 5.77155 196.024 3.88849C194.419 4.6911 192.721 5.09241 191.208 4.25893C189.603 3.39457 188.738 1.38803 186.979 0.955854C184.941 0.461937 183.182 2.40674 182.101 4.22806Z" fill="#B75432"/>
<path d="M181.114 45.0693C186.948 46.8289 192.751 48.5885 198.586 50.3481C201.611 51.2742 204.883 52.1694 207.878 51.1198C210.255 50.2863 212.076 48.2798 213.249 46.0263C214.391 43.7728 214.978 41.2723 215.533 38.8027L178.243 39.4819L181.114 45.0693Z" fill="#B75432"/>
<path d="M177.069 36.6727C177.378 36.9197 177.656 37.1975 177.903 37.5062C177.872 37.4753 177.841 37.4445 177.81 37.4136C178.15 37.8767 178.428 38.3706 178.644 38.8954C178.613 38.8645 178.613 38.8028 178.582 38.7719C178.922 39.5745 179.138 40.4389 179.292 41.3341C179.477 42.3219 179.601 43.3098 179.848 44.2976C180.064 45.1619 180.372 46.0263 180.835 46.8289C181.268 47.5698 181.854 48.2489 182.564 48.712C182.935 48.9589 183.336 49.1442 183.768 49.2676C184.2 49.3911 184.663 49.4837 185.126 49.6381C185.219 49.6689 185.342 49.6998 185.435 49.7615C185.404 49.7307 185.342 49.7307 185.312 49.6998C185.497 49.7924 185.682 49.885 185.836 49.9776C185.805 49.9468 185.775 49.9159 185.744 49.885C185.867 49.9776 185.991 50.1011 186.083 50.2246C186.052 50.1937 186.022 50.1629 185.991 50.132C186.083 50.2555 186.176 50.3789 186.238 50.5333C186.207 50.5024 186.207 50.4407 186.176 50.4098C186.238 50.5333 186.269 50.6568 186.269 50.7803C186.269 50.7494 186.269 50.6876 186.238 50.6568C186.238 50.7494 186.238 50.842 186.238 50.9346C186.238 50.9037 186.238 50.842 186.269 50.8111C186.269 50.9037 186.238 50.9963 186.207 51.0581C186.238 51.0272 186.238 50.9655 186.269 50.9346C186.238 50.9963 186.207 51.0581 186.176 51.1198C186.114 51.2124 186.083 51.3977 186.114 51.5211C186.145 51.6446 186.238 51.7681 186.33 51.8298C186.577 51.9533 186.855 51.8916 187.009 51.6446C187.226 51.305 187.287 50.9037 187.226 50.5024C187.164 50.132 186.979 49.8233 186.732 49.5146C186.238 48.8972 185.497 48.6811 184.756 48.4959C184.355 48.4033 183.922 48.3107 183.552 48.1563C183.583 48.1872 183.645 48.1872 183.675 48.2181C183.367 48.0946 183.058 47.9094 182.78 47.6933C182.811 47.7241 182.842 47.755 182.873 47.7859C182.533 47.5389 182.255 47.2302 181.978 46.8907C182.009 46.9215 182.039 46.9524 182.07 46.9833C181.731 46.5202 181.422 46.0263 181.206 45.5015C181.237 45.5324 181.237 45.5941 181.268 45.625C180.712 44.3285 180.527 42.8776 180.28 41.4884C180.033 40.1919 179.724 38.8645 179.076 37.6914C178.736 37.074 178.273 36.4875 177.687 36.0245C177.563 35.9319 177.471 35.8701 177.316 35.8701C177.193 35.8701 177.038 35.9319 176.946 36.0245C176.853 36.1171 176.792 36.2406 176.792 36.3949C176.946 36.4566 176.977 36.611 177.069 36.6727Z" fill="#F4CF56"/>
<path d="M177.532 40.1915C177.903 40.5002 178.242 40.8398 178.52 41.2102C178.489 41.1793 178.459 41.1485 178.428 41.1176C178.798 41.5806 179.076 42.0746 179.292 42.6302C179.261 42.5994 179.261 42.5376 179.23 42.5067C179.446 43.0624 179.601 43.6181 179.693 44.2046C179.693 44.1737 179.693 44.112 179.663 44.0811C179.755 44.6985 179.724 45.3159 179.693 45.9333C179.662 46.5507 179.601 47.1681 179.663 47.8164C179.724 48.4338 179.848 49.0511 180.156 49.6068C180.434 50.1007 180.866 50.5638 181.391 50.8107C181.7 50.9651 182.039 51.0577 182.379 51.0886C182.564 51.0886 182.719 51.0886 182.904 51.0577C183.089 51.0268 183.243 50.9651 183.398 50.9033C183.49 50.8416 183.614 50.7181 183.614 50.5946C183.645 50.4712 183.645 50.3168 183.552 50.1933C183.49 50.1007 183.367 49.9772 183.243 49.9772C183.213 49.9772 183.151 49.9772 183.12 49.9464C183.027 49.9464 182.935 49.9772 182.873 50.0081C182.873 50.0081 182.842 50.0081 182.842 50.039C182.873 50.0081 182.935 50.0081 182.966 49.9772C182.842 50.039 182.719 50.0698 182.564 50.0698C182.595 50.0698 182.657 50.0699 182.688 50.039C182.533 50.0699 182.379 50.0699 182.256 50.039C182.286 50.039 182.348 50.039 182.379 50.0698C182.194 50.039 182.009 50.0081 181.854 49.9155C181.885 49.9464 181.947 49.9464 181.978 49.9772C181.793 49.8846 181.638 49.792 181.484 49.6685C181.515 49.6994 181.546 49.7303 181.576 49.7612C181.422 49.6377 181.299 49.5142 181.175 49.3598C181.206 49.3907 181.237 49.4216 181.268 49.4525C181.113 49.2672 180.99 49.0511 180.897 48.8042C180.928 48.8351 180.928 48.8968 180.959 48.9277C180.805 48.5881 180.743 48.2485 180.681 47.8781C180.681 47.909 180.681 47.9707 180.712 48.0016C180.527 46.7359 180.836 45.4394 180.712 44.1737C180.65 43.5872 180.527 43.0007 180.311 42.4759C180.095 41.9202 179.848 41.3954 179.508 40.9324C179.138 40.4076 178.706 39.8828 178.212 39.4815C178.119 39.3889 177.996 39.3271 177.841 39.3271C177.718 39.3271 177.563 39.3889 177.471 39.4815C177.378 39.5741 177.316 39.6976 177.316 39.8519C177.378 39.9445 177.409 40.0989 177.532 40.1915Z" fill="#B28C20"/>
<path d="M167.901 68.8702C173.797 68.8702 178.551 64.0854 178.551 58.2201V19.4167C178.551 13.5206 173.766 8.7666 167.901 8.7666H152.528C154.164 11.2671 155.707 15.2493 155.707 21.3306C155.707 27.3194 155.954 54.3305 156.479 57.9114C157.189 62.8197 158.98 66.3389 161.264 68.9011H167.901V68.8702Z" fill="#DA733B"/>
<mask id="mask0" mask-type="alpha" maskUnits="userSpaceOnUse" x="0" y="8" width="179" height="61">
<path d="M0 58.0037V19.2312C0 13.335 4.78483 8.58105 10.6501 8.58105H167.839C173.735 8.58105 178.489 13.3659 178.489 19.2312V58.0345C178.489 63.9307 173.705 68.6846 167.839 68.6846H10.6501C4.75396 68.6846 0 63.8998 0 58.0037Z" fill="#00BAE7"/>
</mask>
<g mask="url(#mask0)">
<path d="M84.707 75.0433C84.707 75.0433 77.6378 71.7402 77.6069 58.6514C77.6069 52.6627 77.3599 25.6515 76.8351 22.0706C73.8099 1.69654 52.6641 4.93788 52.6641 4.93788C52.6641 4.93788 59.7333 8.24095 59.7641 21.3298C59.7641 27.3185 60.0111 54.3296 60.5359 57.9105C63.5302 78.2537 84.707 75.0433 84.707 75.0433Z" fill="#FFE2AE"/>
<path d="M78.6254 75.0433C78.6254 75.0433 71.5562 71.7402 71.5254 58.6514C71.5254 52.6627 71.2784 25.6515 70.7536 22.0706C67.7284 1.69654 46.5825 4.93788 46.5825 4.93788C46.5825 4.93788 53.6517 8.24095 53.6826 21.3298C53.6826 27.3185 53.9295 54.3296 54.4543 57.9105C57.4487 78.2537 78.6254 75.0433 78.6254 75.0433Z" fill="#DA733B"/>
<path d="M176.514 64.4866C177.81 62.727 178.551 60.5661 178.551 58.22V19.4166C178.551 14.4465 175.125 10.2482 170.525 9.0752C171.389 11.3904 172.007 14.3848 172.007 18.2127C172.007 24.2014 172.254 51.2125 172.778 54.7934C173.396 58.93 174.754 62.0787 176.514 64.4866Z" fill="#FFE2AE"/>
<path opacity="0.15" d="M91.2056 85.1118L127.897 -13.0967L124.977 -14.1879L88.2848 84.0205L91.2056 85.1118Z" fill="white"/>
<path opacity="0.15" d="M101.537 92.7553L138.229 -5.45312L136.783 -5.99335L100.091 92.2151L101.537 92.7553Z" fill="white"/>
<path opacity="0.15" d="M99.3359 89.2554L136.028 -8.95312L129.752 -11.2977L93.0605 86.9108L99.3359 89.2554Z" fill="white"/>
<path opacity="0.15" d="M25.0918 78.2241L61.7837 -19.9844L58.8629 -21.0756L22.171 77.1328L25.0918 78.2241Z" fill="white"/>
<path opacity="0.15" d="M35.4121 85.897L72.104 -12.3115L70.6581 -12.8517L33.9662 85.3567L35.4121 85.897Z" fill="white"/>
<path opacity="0.15" d="M33.2222 82.3677L69.9141 -15.8408L63.6387 -18.1854L26.9468 80.0231L33.2222 82.3677Z" fill="white"/>
<path opacity="0.15" d="M143.156 97.4819L179.848 -0.726562L173.573 -3.07113L136.881 95.1373L143.156 97.4819Z" fill="white"/>
<path opacity="0.15" d="M135.396 93.1616L172.088 -5.04688L169.167 -6.13812L132.475 92.0704L135.396 93.1616Z" fill="white"/>
<path opacity="0.15" d="M84.6675 84.9917L121.359 -13.2168L115.084 -15.5614L78.3921 82.6471L84.6675 84.9917Z" fill="white"/>
<path opacity="0.15" d="M76.9072 80.6714L113.599 -17.5371L110.678 -18.6284L73.9864 79.5801L76.9072 80.6714Z" fill="white"/>
<path fill-rule="evenodd" clip-rule="evenodd" d="M130.796 43.0937C124.869 42.322 120.207 42.4146 117.522 44.2668C116.781 41.2415 116.441 38.4632 116.997 36.148C117.923 32.0732 120.485 31.1471 122.893 30.9927C125.887 30.8384 130.611 31.8262 134.438 32.351C139.378 33.0301 143.823 33.1536 146.817 31.4558C147.774 33.9562 147.929 36.4876 147.496 39.0189C147.064 41.9515 145.335 43.4333 142.495 43.7729C138.853 44.2668 134.747 43.5876 130.796 43.0937Z" fill="white"/>
<path fill-rule="evenodd" clip-rule="evenodd" d="M128.635 32.5359C129.098 32.5359 129.283 32.9064 129.283 33.2768C129.283 33.6781 129.067 34.0177 128.635 34.0486C128.202 34.0486 127.956 33.7399 127.956 33.3077C127.986 32.9372 128.172 32.5359 128.635 32.5359ZM128.635 32.2581C127.986 32.2581 127.554 32.5977 127.554 33.2768C127.554 33.956 127.956 34.3264 128.635 34.3264C129.314 34.3264 129.715 33.956 129.715 33.3077C129.746 32.6286 129.314 32.2581 128.635 32.2581ZM126.289 33.1842V32.5668C126.566 32.5668 126.906 32.5051 126.906 32.8446C126.906 33.2151 126.566 33.1842 126.289 33.1842ZM125.856 34.2646H126.289V33.462C126.628 33.462 127.06 33.462 127.246 33.1842C127.462 32.8755 127.369 32.3507 126.782 32.3198H125.856V34.2646ZM123.819 32.289H124.189C124.189 32.4742 124.189 33.462 124.189 33.6473C124.282 34.0794 125.023 34.0486 125.085 33.6164C125.115 33.3694 125.085 32.5977 125.085 32.3198H125.455C125.455 32.5668 125.486 33.6164 125.424 33.8325C125.301 34.3881 124.529 34.419 124.159 34.2338C123.819 34.0794 123.788 33.8016 123.788 33.462L123.819 32.289ZM122.461 33.1533V32.5668C122.739 32.5668 123.109 32.5051 123.109 32.8446C123.14 33.2151 122.708 33.1533 122.461 33.1533ZM122.028 34.2646H122.461V33.4312H122.708L123.171 34.2646H123.665L123.14 33.3694C123.387 33.2768 123.572 33.1225 123.572 32.8138C123.572 32.4433 123.263 32.289 122.924 32.289H122.028V34.2646ZM120.979 33.1842V33.462H121.288V33.8942C120.948 34.0177 120.423 34.0486 120.269 33.6164C120.115 33.1842 120.269 32.5668 120.886 32.5668C121.133 32.5668 121.288 32.6286 121.38 32.8446L121.596 32.5668C121.411 32.3816 121.226 32.289 120.886 32.289C119.59 32.289 119.59 33.6473 120.115 34.0486C120.516 34.3573 121.164 34.2646 121.658 34.172V33.2151L120.979 33.1842ZM128.295 43.4021C124.714 43.0626 121.288 43.2478 119.127 44.9765C118.448 44.853 117.799 44.7604 117.12 44.6369C116.287 41.9512 116.132 39.1112 116.503 36.1786C117.089 33.3077 118.602 30.7764 122.214 30.5603C125.949 30.3442 131.042 31.2394 136.074 31.7642C139.686 32.1346 142.866 31.8259 144.965 30.2207C145.737 30.4368 146.508 30.6837 147.28 30.8998C148.268 33.6781 148.33 36.3947 147.867 39.0803C147.218 42.9082 144.78 44.2665 141.446 44.2973C136.784 44.39 131.999 43.7726 128.295 43.4021ZM130.796 43.0934C124.869 42.3217 120.207 42.4143 117.522 44.2665C116.781 41.2412 116.441 38.4629 116.997 36.1477C117.923 32.0729 120.485 31.1468 122.893 30.9924C125.887 30.8381 130.61 31.8259 134.438 32.3507C139.377 33.0299 143.823 33.1533 146.817 31.4555C147.774 33.956 147.928 36.4873 147.496 39.0186C147.064 41.9512 145.335 43.433 142.495 43.7726C138.853 44.2665 134.747 43.5873 130.796 43.0934Z" fill="#3D438B"/>
<path fill-rule="evenodd" clip-rule="evenodd" d="M137.185 39.8521H135.92V36.1477H136.969C137.525 36.1477 137.741 36.3021 137.772 36.6108C137.803 37.0738 137.525 37.3208 137.124 37.3208H136.722L136.229 38.4012H137.216C137.679 38.4012 138.142 38.7408 138.081 39.173C138.019 39.5743 137.649 39.8521 137.185 39.8521ZM137.402 41.0869H134.407V34.9438H137.247C138.235 34.9438 139.099 35.2216 139.254 36.1786C139.377 36.8886 139.161 37.3825 138.606 37.7221C139.408 38.0616 139.717 39.0186 139.439 39.883C139.192 40.7782 138.142 41.0869 137.402 41.0869ZM142.866 36.3021C143.761 36.3021 144.502 37.0429 144.502 37.969C144.502 38.8951 143.761 39.636 142.866 39.636C141.97 39.636 141.229 38.8951 141.229 37.969C141.229 37.0429 141.97 36.3021 142.866 36.3021ZM142.866 34.8203C144.563 34.8203 145.953 36.2095 145.953 37.9382C145.953 39.6669 144.563 41.056 142.866 41.056C141.168 41.056 139.779 39.6669 139.779 37.9382C139.779 36.2403 141.168 34.8203 142.866 34.8203ZM133.79 34.9129V41.056H132.277V37.1664L131.289 41.056H129.808L128.851 37.1973V41.056H127.369V34.9129H129.746L130.548 38.3703L131.351 34.9129H133.79ZM125.27 34.9129H126.751V41.056H125.27V34.9129ZM122.522 39.8521H121.257V36.1477H122.306C122.862 36.1477 123.078 36.3021 123.109 36.6108C123.14 37.0738 122.862 37.3208 122.461 37.3208H122.059L121.565 38.4012H122.553C123.016 38.4012 123.479 38.7408 123.418 39.173C123.356 39.5743 123.016 39.8521 122.522 39.8521ZM122.738 41.0869H119.775V34.9438H122.615C123.603 34.9438 124.467 35.2216 124.621 36.1786C124.745 36.8886 124.529 37.3825 123.973 37.7221C124.776 38.0616 125.085 39.0186 124.807 39.883C124.529 40.7782 123.479 41.0869 122.738 41.0869Z" fill="#DA243C"/>
</g>
<path d="M0.0620117 118.694V79.9216C0.0620117 74.0254 4.84684 69.2715 10.7121 69.2715H167.901C173.797 69.2715 178.551 74.0563 178.551 79.9216V118.725C178.551 124.621 173.767 129.375 167.901 129.375H10.7121C4.81597 129.375 0.0620117 124.59 0.0620117 118.694Z" fill="#00BAE7"/>
<path d="M162.715 127.029V71.5863C162.715 70.9998 163.209 70.5059 163.795 70.5059H171.142C171.729 70.5059 172.223 70.9998 172.223 71.5863V127.059C172.223 127.646 171.729 128.14 171.142 128.14H163.795C163.178 128.109 162.715 127.646 162.715 127.029Z" fill="#934114"/>
<path d="M152.651 127.029V71.5863C152.651 70.9998 153.145 70.5059 153.732 70.5059H161.079C161.665 70.5059 162.159 70.9998 162.159 71.5863V127.059C162.159 127.646 161.665 128.14 161.079 128.14H153.732C153.145 128.109 152.651 127.646 152.651 127.029Z" fill="#934114"/>
<path d="M142.619 127.029V71.5863C142.619 70.9998 143.113 70.5059 143.699 70.5059H151.046C151.633 70.5059 152.127 70.9998 152.127 71.5863V127.059C152.127 127.646 151.633 128.14 151.046 128.14H143.699C143.082 128.109 142.619 127.646 142.619 127.029Z" fill="#934114"/>
<path d="M132.586 127.029V71.5863C132.586 70.9998 133.08 70.5059 133.666 70.5059H141.013C141.6 70.5059 142.094 70.9998 142.094 71.5863V127.059C142.094 127.646 141.6 128.14 141.013 128.14H133.666C133.049 128.109 132.586 127.646 132.586 127.029Z" fill="#934114"/>
<path d="M122.522 127.029V71.5863C122.522 70.9998 123.016 70.5059 123.603 70.5059H130.95C131.536 70.5059 132.03 70.9998 132.03 71.5863V127.059C132.03 127.646 131.536 128.14 130.95 128.14H123.603C123.016 128.109 122.522 127.646 122.522 127.029Z" fill="#934114"/>
<path d="M112.49 127.029V71.5863C112.49 70.9998 112.984 70.5059 113.57 70.5059H120.917C121.504 70.5059 121.998 70.9998 121.998 71.5863V127.059C121.998 127.646 121.504 128.14 120.917 128.14H113.57C112.984 128.109 112.49 127.646 112.49 127.029Z" fill="#934114"/>
<path d="M102.457 127.029V71.5863C102.457 70.9998 102.951 70.5059 103.537 70.5059H110.885C111.471 70.5059 111.965 70.9998 111.965 71.5863V127.059C111.965 127.646 111.471 128.14 110.885 128.14H103.537C102.92 128.109 102.457 127.646 102.457 127.029Z" fill="#934114"/>
<path d="M92.3936 127.029V71.5863C92.3936 70.9998 92.8875 70.5059 93.474 70.5059H100.821C101.408 70.5059 101.901 70.9998 101.901 71.5863V127.059C101.901 127.646 101.408 128.14 100.821 128.14H93.474C92.8875 128.109 92.3936 127.646 92.3936 127.029Z" fill="#934114"/>
<path d="M82.3608 127.029V71.5863C82.3608 70.9998 82.8548 70.5059 83.4413 70.5059H90.7883C91.3748 70.5059 91.8688 70.9998 91.8688 71.5863V127.059C91.8688 127.646 91.3748 128.14 90.7883 128.14H83.4413C82.8548 128.109 82.3608 127.646 82.3608 127.029Z" fill="#934114"/>
<path d="M72.3281 127.029V71.5863C72.3281 70.9998 72.822 70.5059 73.4086 70.5059H80.7556C81.3421 70.5059 81.836 70.9998 81.836 71.5863V127.059C81.836 127.646 81.3421 128.14 80.7556 128.14H73.4086C72.7912 128.109 72.3281 127.646 72.3281 127.029Z" fill="#934114"/>
<path d="M62.2646 127.029V71.5863C62.2646 70.9998 62.7586 70.5059 63.3451 70.5059H70.6921C71.2786 70.5059 71.7726 70.9998 71.7726 71.5863V127.059C71.7726 127.646 71.2786 128.14 70.6921 128.14H63.3451C62.7586 128.109 62.2646 127.646 62.2646 127.029Z" fill="#934114"/>
<path d="M52.2319 127.029V71.5863C52.2319 70.9998 52.7259 70.5059 53.3124 70.5059H60.6594C61.2459 70.5059 61.7398 70.9998 61.7398 71.5863V127.059C61.7398 127.646 61.2459 128.14 60.6594 128.14H53.3124C52.7259 128.109 52.2319 127.646 52.2319 127.029Z" fill="#934114"/>
<path d="M42.1992 127.029V71.5863C42.1992 70.9998 42.6931 70.5059 43.2797 70.5059H50.6267C51.2132 70.5059 51.7071 70.9998 51.7071 71.5863V127.059C51.7071 127.646 51.2132 128.14 50.6267 128.14H43.2797C42.6623 128.109 42.1992 127.646 42.1992 127.029Z" fill="#934114"/>
<path d="M32.1357 127.029V71.5863C32.1357 70.9998 32.6297 70.5059 33.2162 70.5059H40.5632C41.1497 70.5059 41.6437 70.9998 41.6437 71.5863V127.059C41.6437 127.646 41.1497 128.14 40.5632 128.14H33.2162C32.6297 128.109 32.1357 127.646 32.1357 127.029Z" fill="#934114"/>
<path d="M22.103 127.029V71.5863C22.103 70.9998 22.5969 70.5059 23.1835 70.5059H30.5305C31.117 70.5059 31.6109 70.9998 31.6109 71.5863V127.059C31.6109 127.646 31.117 128.14 30.5305 128.14H23.1835C22.5969 128.109 22.103 127.646 22.103 127.029Z" fill="#934114"/>
<path d="M12.0703 127.029V71.5863C12.0703 70.9998 12.5642 70.5059 13.1508 70.5059H20.4978C21.0843 70.5059 21.5782 70.9998 21.5782 71.5863V127.059C21.5782 127.646 21.0843 128.14 20.4978 128.14H13.1508C12.5334 128.109 12.0703 127.646 12.0703 127.029Z" fill="#934114"/>
<path d="M1.97559 119.682V78.9333C1.97559 74.272 5.74171 70.5059 10.4031 70.5059C10.9896 70.5059 11.4835 70.9998 11.4835 71.5863V127.059C11.4835 127.646 10.9896 128.14 10.4031 128.14C5.74171 128.109 1.97559 124.343 1.97559 119.682Z" fill="#934114"/>
<g opacity="0.15">
<path opacity="0.15" d="M0.0620117 118.694V79.9216C0.0620117 74.0254 4.84684 69.2715 10.7121 69.2715H167.901C173.797 69.2715 178.551 74.0563 178.551 79.9216V118.725C178.551 124.621 173.767 129.375 167.901 129.375H10.7121C4.81597 129.375 0.0620117 124.59 0.0620117 118.694Z" fill="#934114"/>
</g>
<path d="M181.021 105.543C186.886 107.303 192.751 109.093 198.586 110.853C201.611 111.779 204.883 112.674 207.877 111.624C210.254 110.791 212.076 108.784 213.249 106.531C214.422 104.277 214.977 101.777 215.533 99.3074C217.416 98.8135 219.33 98.227 220.688 96.8378C222.047 95.4487 222.541 93.0408 221.244 91.6208C220.009 90.2317 217.817 90.3243 216.274 89.3056C214.638 88.2251 214.051 86.1569 213.557 84.2429C212.107 78.5012 210.656 72.7594 209.236 67.0176C208.587 64.4554 207.569 61.461 205.037 60.6893C202.63 59.9484 200.222 61.5845 198.184 63.0354C196.147 64.4862 193.461 65.9063 191.269 64.7023C189.664 63.838 188.8 61.8314 187.04 61.3993C185.003 60.9053 183.243 62.881 182.163 64.6715C175.989 74.982 174.322 87.3917 174.075 99.4C174.013 102.672 174.075 106.284 175.834 109.155C177.779 112.427 181.453 108.198 181.021 105.543Z" fill="#DA733B"/>
<path d="M182.101 64.7329C177.039 73.1913 175.032 83.0079 174.322 92.9171C176.267 90.8797 177.996 88.3792 178.86 85.4157C181.484 76.5561 193.709 66.2764 196.024 64.3934C194.419 65.196 192.721 65.5973 191.208 64.7638C189.603 63.8995 188.738 61.8929 186.979 61.4607C184.941 60.9668 183.182 62.9116 182.101 64.7329Z" fill="#B75432"/>
<path d="M181.114 105.574C186.948 107.334 192.751 109.093 198.586 110.853C201.611 111.779 204.883 112.674 207.878 111.625C210.255 110.791 212.076 108.785 213.249 106.531C214.391 104.278 214.978 101.777 215.533 99.3076L178.243 99.9868L181.114 105.574Z" fill="#B75432"/>
<path d="M177.069 97.1776C177.378 97.4246 177.656 97.7024 177.903 98.0111C177.872 97.9802 177.841 97.9494 177.81 97.9185C178.15 98.3815 178.428 98.8755 178.644 99.4002C178.613 99.3694 178.613 99.3076 178.582 99.2768C178.922 100.079 179.138 100.944 179.292 101.839C179.477 102.827 179.601 103.815 179.848 104.802C180.064 105.667 180.372 106.531 180.835 107.334C181.268 108.075 181.854 108.754 182.564 109.217C182.935 109.464 183.336 109.649 183.768 109.773C184.2 109.896 184.663 109.989 185.126 110.143C185.219 110.174 185.342 110.205 185.435 110.266C185.404 110.236 185.342 110.236 185.312 110.205C185.497 110.297 185.682 110.39 185.836 110.483C185.805 110.452 185.775 110.421 185.744 110.39C185.867 110.483 185.991 110.606 186.083 110.729C186.052 110.699 186.022 110.668 185.991 110.637C186.083 110.76 186.176 110.884 186.238 111.038C186.207 111.007 186.207 110.946 186.176 110.915C186.238 111.038 186.269 111.162 186.269 111.285C186.269 111.254 186.269 111.193 186.238 111.162C186.238 111.254 186.238 111.347 186.238 111.439C186.238 111.409 186.238 111.347 186.269 111.316C186.269 111.409 186.238 111.501 186.207 111.563C186.238 111.532 186.238 111.47 186.269 111.439C186.238 111.501 186.207 111.563 186.176 111.625C186.114 111.717 186.083 111.903 186.114 112.026C186.145 112.149 186.238 112.273 186.33 112.335C186.577 112.458 186.855 112.396 187.009 112.149C187.226 111.81 187.287 111.409 187.226 111.007C187.164 110.637 186.979 110.328 186.732 110.019C186.238 109.402 185.497 109.186 184.756 109.001C184.355 108.908 183.922 108.816 183.552 108.661C183.583 108.692 183.645 108.692 183.675 108.723C183.367 108.599 183.058 108.414 182.78 108.198C182.811 108.229 182.842 108.26 182.873 108.291C182.533 108.044 182.255 107.735 181.978 107.396C182.009 107.426 182.039 107.457 182.07 107.488C181.731 107.025 181.422 106.531 181.206 106.006C181.237 106.037 181.237 106.099 181.268 106.13C180.712 104.833 180.527 103.382 180.28 101.993C180.033 100.697 179.724 99.3694 179.076 98.1963C178.736 97.5789 178.273 96.9924 177.687 96.5293C177.563 96.4367 177.471 96.375 177.316 96.375C177.193 96.375 177.038 96.4367 176.946 96.5293C176.853 96.622 176.792 96.7454 176.792 96.8998C176.946 96.9615 176.977 97.1159 177.069 97.1776Z" fill="#F4CF56"/>
<path d="M177.532 100.696C177.903 101.005 178.242 101.345 178.52 101.715C178.489 101.684 178.459 101.653 178.428 101.622C178.798 102.086 179.076 102.579 179.292 103.135C179.261 103.104 179.261 103.042 179.23 103.012C179.446 103.567 179.601 104.123 179.693 104.709C179.693 104.679 179.693 104.617 179.663 104.586C179.755 105.203 179.724 105.821 179.693 106.438C179.662 107.056 179.601 107.673 179.663 108.321C179.724 108.939 179.848 109.556 180.156 110.112C180.434 110.606 180.866 111.069 181.391 111.316C181.7 111.47 182.039 111.563 182.379 111.593C182.564 111.593 182.719 111.593 182.904 111.563C183.089 111.532 183.243 111.47 183.398 111.408C183.49 111.346 183.614 111.223 183.614 111.1C183.645 110.976 183.645 110.822 183.552 110.698C183.49 110.606 183.367 110.482 183.243 110.482C183.213 110.482 183.151 110.482 183.12 110.451C183.027 110.451 182.935 110.482 182.873 110.513C182.873 110.513 182.842 110.513 182.842 110.544C182.873 110.513 182.935 110.513 182.966 110.482C182.842 110.544 182.719 110.575 182.564 110.575C182.595 110.575 182.657 110.575 182.688 110.544C182.533 110.575 182.379 110.575 182.256 110.544C182.286 110.544 182.348 110.544 182.379 110.575C182.194 110.544 182.009 110.513 181.854 110.42C181.885 110.451 181.947 110.451 181.978 110.482C181.793 110.39 181.638 110.297 181.484 110.173C181.515 110.204 181.546 110.235 181.576 110.266C181.422 110.143 181.299 110.019 181.175 109.865C181.206 109.896 181.237 109.926 181.268 109.957C181.113 109.772 180.99 109.556 180.897 109.309C180.928 109.34 180.928 109.402 180.959 109.433C180.805 109.093 180.743 108.753 180.681 108.383C180.681 108.414 180.681 108.476 180.712 108.506C180.527 107.241 180.836 105.944 180.712 104.679C180.65 104.092 180.527 103.506 180.311 102.981C180.095 102.425 179.848 101.9 179.508 101.437C179.138 100.912 178.706 100.388 178.212 99.9864C178.119 99.8938 177.996 99.832 177.841 99.832C177.718 99.832 177.563 99.8938 177.471 99.9864C177.378 100.079 177.316 100.202 177.316 100.357C177.378 100.449 177.409 100.604 177.532 100.696Z" fill="#B28C20"/>
<path d="M167.901 129.375C173.797 129.375 178.551 124.59 178.551 118.725V79.9216C178.551 74.0254 173.766 69.2715 167.901 69.2715H152.528C154.164 71.7719 155.707 75.7542 155.707 81.8355C155.707 87.8243 155.954 114.835 156.479 118.416C157.189 123.325 158.98 126.844 161.264 129.406H167.901V129.375Z" fill="#DA733B"/>
<mask id="mask1" mask-type="alpha" maskUnits="userSpaceOnUse" x="0" y="69" width="179" height="61">
<path d="M0 118.509V79.736C0 73.8399 4.78483 69.0859 10.6501 69.0859H167.839C173.735 69.0859 178.489 73.8708 178.489 79.736V118.539C178.489 124.436 173.705 129.19 167.839 129.19H10.6501C4.75396 129.19 0 124.405 0 118.509Z" fill="#00BAE7"/>
</mask>
<g mask="url(#mask1)">
<path d="M84.707 135.548C84.707 135.548 77.6378 132.245 77.6069 119.156C77.6069 113.168 77.3599 86.1564 76.8351 82.5755C73.8099 62.2014 52.6641 65.4428 52.6641 65.4428C52.6641 65.4428 59.7333 68.7458 59.7641 81.8346C59.7641 87.8234 60.0111 114.835 60.5359 118.415C63.5302 138.759 84.707 135.548 84.707 135.548Z" fill="#FFE2AE"/>
<path d="M78.6254 135.548C78.6254 135.548 71.5562 132.245 71.5254 119.156C71.5254 113.168 71.2784 86.1564 70.7536 82.5755C67.7284 62.2014 46.5825 65.4428 46.5825 65.4428C46.5825 65.4428 53.6517 68.7458 53.6826 81.8346C53.6826 87.8234 53.9295 114.835 54.4543 118.415C57.4487 138.759 78.6254 135.548 78.6254 135.548Z" fill="#DA733B"/>
<path d="M176.514 124.991C177.81 123.232 178.551 121.071 178.551 118.725V79.9215C178.551 74.9514 175.125 70.7531 170.525 69.5801C171.389 71.8953 172.007 74.8897 172.007 78.7176C172.007 84.7063 172.254 111.717 172.778 115.298C173.396 119.435 174.754 122.584 176.514 124.991Z" fill="#FFE2AE"/>
<path opacity="0.15" d="M91.2056 145.617L127.897 47.4082L124.977 46.317L88.2848 144.525L91.2056 145.617Z" fill="white"/>
<path opacity="0.15" d="M101.537 153.26L138.229 55.0518L136.783 54.5115L100.091 152.72L101.537 153.26Z" fill="white"/>
<path opacity="0.15" d="M99.3359 149.76L136.028 51.5518L129.752 49.2072L93.0605 147.416L99.3359 149.76Z" fill="white"/>
<path opacity="0.15" d="M25.0918 138.729L61.7837 40.5205L58.8629 39.4293L22.171 137.638L25.0918 138.729Z" fill="white"/>
<path opacity="0.15" d="M35.4121 146.402L72.104 48.1934L70.6581 47.6531L33.9662 145.862L35.4121 146.402Z" fill="white"/>
<path opacity="0.15" d="M33.2222 142.873L69.9141 44.6641L63.6387 42.3195L26.9468 140.528L33.2222 142.873Z" fill="white"/>
<path opacity="0.15" d="M143.156 157.987L179.848 59.7783L173.573 57.4338L136.881 155.642L143.156 157.987Z" fill="white"/>
<path opacity="0.15" d="M135.396 153.666L172.088 55.458L169.167 54.3668L132.475 152.575L135.396 153.666Z" fill="white"/>
<path opacity="0.15" d="M84.6675 145.497L121.359 47.2881L115.084 44.9435L78.3921 143.152L84.6675 145.497Z" fill="white"/>
<path opacity="0.15" d="M76.9072 141.176L113.599 42.9678L110.678 41.8765L73.9864 140.085L76.9072 141.176Z" fill="white"/>
<path fill-rule="evenodd" clip-rule="evenodd" d="M130.796 103.599C124.869 102.827 120.207 102.919 117.522 104.772C116.781 101.746 116.441 98.9681 116.997 96.6529C117.923 92.5781 120.485 91.652 122.893 91.4976C125.887 91.3433 130.611 92.3311 134.438 92.8559C139.378 93.535 143.823 93.6585 146.817 91.9607C147.774 94.4611 147.929 96.9925 147.496 99.5238C147.064 102.456 145.335 103.938 142.495 104.278C138.853 104.772 134.747 104.093 130.796 103.599Z" fill="white"/>
<path fill-rule="evenodd" clip-rule="evenodd" d="M128.635 93.0408C129.098 93.0408 129.283 93.4113 129.283 93.7817C129.283 94.183 129.067 94.5226 128.635 94.5534C128.202 94.5534 127.956 94.2447 127.956 93.8126C127.986 93.4421 128.172 93.0408 128.635 93.0408ZM128.635 92.763C127.986 92.763 127.554 93.1026 127.554 93.7817C127.554 94.4608 127.956 94.8313 128.635 94.8313C129.314 94.8313 129.715 94.4608 129.715 93.8126C129.746 93.1334 129.314 92.763 128.635 92.763ZM126.289 93.6891V93.0717C126.566 93.0717 126.906 93.01 126.906 93.3495C126.906 93.72 126.566 93.6891 126.289 93.6891ZM125.856 94.7695H126.289V93.9669C126.628 93.9669 127.06 93.9669 127.246 93.6891C127.462 93.3804 127.369 92.8556 126.782 92.8247H125.856V94.7695ZM123.819 92.7939H124.189C124.189 92.9791 124.189 93.9669 124.189 94.1521C124.282 94.5843 125.023 94.5534 125.085 94.1213C125.115 93.8743 125.085 93.1026 125.085 92.8247H125.455C125.455 93.0717 125.486 94.1213 125.424 94.3374C125.301 94.893 124.529 94.9239 124.159 94.7387C123.819 94.5843 123.788 94.3065 123.788 93.9669L123.819 92.7939ZM122.461 93.6582V93.0717C122.739 93.0717 123.109 93.01 123.109 93.3495C123.14 93.72 122.708 93.6582 122.461 93.6582ZM122.028 94.7695H122.461V93.936H122.708L123.171 94.7695H123.665L123.14 93.8743C123.387 93.7817 123.572 93.6273 123.572 93.3187C123.572 92.9482 123.263 92.7939 122.924 92.7939H122.028V94.7695ZM120.979 93.6891V93.9669H121.288V94.3991C120.948 94.5226 120.423 94.5534 120.269 94.1213C120.115 93.6891 120.269 93.0717 120.886 93.0717C121.133 93.0717 121.288 93.1334 121.38 93.3495L121.596 93.0717C121.411 92.8865 121.226 92.7939 120.886 92.7939C119.59 92.7939 119.59 94.1521 120.115 94.5534C120.516 94.8621 121.164 94.7695 121.658 94.6769V93.72L120.979 93.6891ZM128.295 103.907C124.714 103.567 121.288 103.753 119.127 105.481C118.448 105.358 117.799 105.265 117.12 105.142C116.287 102.456 116.132 99.6161 116.503 96.6835C117.089 93.8126 118.602 91.2812 122.214 91.0652C125.949 90.8491 131.042 91.7443 136.074 92.2691C139.686 92.6395 142.866 92.3308 144.965 90.7256C145.737 90.9417 146.508 91.1886 147.28 91.4047C148.268 94.183 148.33 96.8996 147.867 99.5852C147.218 103.413 144.78 104.771 141.446 104.802C136.784 104.895 131.999 104.277 128.295 103.907ZM130.796 103.598C124.869 102.827 120.207 102.919 117.522 104.771C116.781 101.746 116.441 98.9678 116.997 96.6526C117.923 92.5778 120.485 91.6517 122.893 91.4973C125.887 91.343 130.61 92.3308 134.438 92.8556C139.377 93.5347 143.823 93.6582 146.817 91.9604C147.774 94.4608 147.928 96.9922 147.496 99.5235C147.064 102.456 145.335 103.938 142.495 104.277C138.853 104.771 134.747 104.092 130.796 103.598Z" fill="#3D438B"/>
<path fill-rule="evenodd" clip-rule="evenodd" d="M137.185 100.357H135.92V96.6526H136.969C137.525 96.6526 137.741 96.8069 137.772 97.1156C137.803 97.5787 137.525 97.8257 137.124 97.8257H136.722L136.229 98.9061H137.216C137.679 98.9061 138.142 99.2457 138.081 99.6778C138.019 100.079 137.649 100.357 137.185 100.357ZM137.402 101.592H134.407V95.4487H137.247C138.235 95.4487 139.099 95.7265 139.254 96.6835C139.377 97.3935 139.161 97.8874 138.606 98.227C139.408 98.5665 139.717 99.5235 139.439 100.388C139.192 101.283 138.142 101.592 137.402 101.592ZM142.866 96.8069C143.761 96.8069 144.502 97.5478 144.502 98.4739C144.502 99.4 143.761 100.141 142.866 100.141C141.97 100.141 141.229 99.4 141.229 98.4739C141.229 97.5478 141.97 96.8069 142.866 96.8069ZM142.866 95.3252C144.563 95.3252 145.953 96.7143 145.953 98.4431C145.953 100.172 144.563 101.561 142.866 101.561C141.168 101.561 139.779 100.172 139.779 98.4431C139.779 96.7452 141.168 95.3252 142.866 95.3252ZM133.79 95.4178V101.561H132.277V97.6713L131.289 101.561H129.808L128.851 97.7022V101.561H127.369V95.4178H129.746L130.548 98.8752L131.351 95.4178H133.79ZM125.27 95.4178H126.751V101.561H125.27V95.4178ZM122.522 100.357H121.257V96.6526H122.306C122.862 96.6526 123.078 96.8069 123.109 97.1156C123.14 97.5787 122.862 97.8257 122.461 97.8257H122.059L121.565 98.9061H122.553C123.016 98.9061 123.479 99.2457 123.418 99.6778C123.356 100.079 123.016 100.357 122.522 100.357ZM122.738 101.592H119.775V95.4487H122.615C123.603 95.4487 124.467 95.7265 124.621 96.6835C124.745 97.3935 124.529 97.8874 123.973 98.227C124.776 98.5665 125.085 99.5235 124.807 100.388C124.529 101.283 123.479 101.592 122.738 101.592Z" fill="#DA243C"/>
</g>
</svg>
