<svg width="74" height="128" viewBox="0 0 74 128" fill="none" xmlns="http://www.w3.org/2000/svg">
<path d="M67.5104 8.31287C64.0754 3.29767 58.3388 0 51.7778 0H19.9004C13.2363 0 7.98069 3.22896 5.23264 8.72507C5.12959 8.93118 4.71738 9.75559 4.51127 9.92735C3.1716 11.8166 2.38153 12.9846 1.45406 14.3586C0.83575 15.2517 0.217437 16.1792 0.0456841 17.244C-0.126069 18.3089 0.217438 19.3738 0.560944 20.4043C1.52276 23.4272 2.48458 26.4157 3.4464 29.4385C3.5151 29.7133 3.5838 29.9881 3.5838 30.263V59.7358C3.5838 61.9343 5.37004 63.7205 7.56848 63.7205H66.9952C69.1249 63.7205 70.8768 61.9686 70.8768 59.8389V27.8928C71.6669 25.3852 72.4569 22.9119 73.2813 20.4043C73.6248 19.3738 73.934 18.3089 73.7966 17.244C73.6248 16.1792 73.0065 15.2517 72.3882 14.3586" fill="#00BAE7"/>
<path d="M68.6785 15.8354C66.7892 5.28973 55.6596 1.82031 38.0377 1.82031C20.4158 1.82031 9.28614 5.28973 7.39685 15.8354C5.50756 26.3811 12.1716 30.4344 12.1716 30.4344C12.1716 30.4344 12.1716 50.667 11.8968 56.4379C11.5876 62.2088 16.6372 62.7928 16.6372 62.7928H38.0377H59.4381C59.4381 62.7928 64.4877 62.2088 64.2129 56.4379C63.9381 50.667 63.9381 30.4344 63.9381 30.4344C63.9381 30.4344 70.5334 26.3811 68.6785 15.8354Z" fill="#934114"/>
<path d="M66.2053 15.4916C64.316 4.94598 53.1864 1.47656 35.5645 1.47656C17.9426 1.47656 6.813 4.94598 4.92371 15.4916C3.03442 26.0373 9.69845 30.0907 9.69845 30.0907C9.69845 30.0907 9.69845 50.3232 9.42365 56.0941C9.11449 61.8651 14.164 62.449 14.164 62.449H35.5645H56.965C56.965 62.449 62.0145 61.8651 61.7397 56.0941C61.4649 50.3232 61.4649 30.0907 61.4649 30.0907C61.4649 30.0907 68.0603 26.0373 66.2053 15.4916Z" fill="#A55734"/>
<path opacity="0.15" d="M73.6936 17.2097C73.5218 16.1448 72.9035 15.2174 72.2852 14.3242L67.5104 8.31287C64.0754 3.29767 58.3388 0 51.7778 0H19.9004C13.2363 0 7.98069 3.22896 5.23264 8.72507C5.12959 8.93118 4.71738 9.75559 4.51127 9.92735C3.1716 11.8166 2.38153 12.9846 1.45406 14.3586C0.83575 15.2517 0.217437 16.1792 0.0456841 17.244C-0.126069 18.3089 0.217438 19.3738 0.560944 20.4043C1.52276 23.4272 2.48458 26.4157 3.4464 29.4385C3.5151 29.7133 3.5838 29.9881 3.5838 30.263V59.7358C3.5838 61.9343 5.37004 63.7205 7.56848 63.7205H66.9952C69.1249 63.7205 70.8768 61.9686 70.8768 59.8389V27.8928C71.6669 25.3852 72.4569 22.9119 73.2813 20.4043C73.5561 19.3738 73.8653 18.2746 73.6936 17.2097Z" fill="white"/>
<mask id="mask0" mask-type="alpha" maskUnits="userSpaceOnUse" x="0" y="0" width="74" height="64">
<path d="M67.5104 8.31287C64.0754 3.29767 58.3388 0 51.7778 0H19.9004C13.2363 0 7.98069 3.22896 5.23264 8.72507C5.12959 8.93118 4.71738 9.75559 4.51127 9.92735C3.1716 11.8166 2.38153 12.9846 1.45406 14.3586C0.83575 15.2517 0.217437 16.1792 0.0456841 17.244C-0.126069 18.3089 0.217438 19.3738 0.560944 20.4043C1.52276 23.4272 2.48458 26.4157 3.4464 29.4385C3.5151 29.7133 3.5838 29.9881 3.5838 30.263V59.7358C3.5838 61.9343 5.37004 63.7205 7.56848 63.7205H66.9952C69.1249 63.7205 70.8768 61.9686 70.8768 59.8389V27.8928C71.6669 25.3852 72.4569 22.9119 73.2813 20.4043C73.6248 19.3738 73.934 18.3089 73.7966 17.244C73.6248 16.1792 73.0065 15.2517 72.3882 14.3586" fill="#00BAE7"/>
</mask>
<g mask="url(#mask0)">
<path opacity="0.15" d="M-13.3498 86.9879L25.3394 -16.5664L22.2823 -17.7086L-16.4069 85.8458L-13.3498 86.9879Z" fill="white"/>
<path opacity="0.15" d="M-2.45822 95.0739L36.231 -8.48047L34.7185 -9.04554L-3.97066 94.5088L-2.45822 95.0739Z" fill="white"/>
<path opacity="0.15" d="M-4.77218 91.3571L33.917 -12.1973L27.288 -14.674L-11.4012 88.8804L-4.77218 91.3571Z" fill="white"/>
<path opacity="0.15" d="M41.429 100.041L80.1182 -3.51367L73.4891 -5.99036L34.8 97.564L41.429 100.041Z" fill="white"/>
<path opacity="0.15" d="M33.2557 95.4801L71.9448 -8.07422L68.8878 -9.21638L30.1986 94.338L33.2557 95.4801Z" fill="white"/>
<path opacity="0.15" d="M-20.2463 86.8952L18.4429 -16.6592L11.8138 -19.1359L-26.8753 84.4185L-20.2463 86.8952Z" fill="white"/>
<path opacity="0.15" d="M-28.4196 82.3346L10.2695 -21.2197L7.21246 -22.3619L-31.4767 81.1925L-28.4196 82.3346Z" fill="white"/>
<path d="M9.62948 39.7435C9.93863 39.2969 10.2478 38.8847 10.66 38.5412C10.6256 38.5756 10.5913 38.6099 10.5569 38.6443C11.0379 38.1977 11.5531 37.8199 12.1027 37.4764C12.0684 37.5107 12.034 37.5107 11.9653 37.5451C12.5493 37.2359 13.1332 36.9954 13.7859 36.8237C13.7516 36.8237 13.6829 36.858 13.6485 36.858C14.3355 36.6863 15.0225 36.6519 15.7095 36.6176C16.3966 36.5832 17.0836 36.5489 17.7706 36.4115C18.4576 36.2741 19.1103 36.0336 19.6942 35.6214C20.2095 35.2436 20.656 34.7283 20.8622 34.11C20.9996 33.7321 21.0683 33.3543 21.0339 32.9764C21.0339 32.7703 20.9996 32.5986 20.9309 32.3924C20.8622 32.2207 20.7934 32.0489 20.6904 31.8772C20.6217 31.7741 20.4499 31.6711 20.3469 31.6711C20.2095 31.6367 20.0377 31.6711 19.9347 31.7741C19.8316 31.8772 19.7286 31.9802 19.7286 32.1176C19.7286 32.152 19.7286 32.2207 19.7286 32.255C19.7286 32.3581 19.7629 32.4612 19.8316 32.5299C19.8316 32.5299 19.8316 32.5642 19.866 32.5642C19.8316 32.5299 19.8316 32.4955 19.7973 32.4268C19.866 32.5642 19.9347 32.7016 19.969 32.839C19.969 32.8047 19.9347 32.736 19.9347 32.7016C19.969 32.8734 20.0034 33.0451 20.0034 33.1825C20.0034 33.1482 20.0034 33.0795 20.0034 33.0451C20.0034 33.2512 19.969 33.4573 19.9003 33.6291C19.9003 33.5947 19.9347 33.526 19.9347 33.4917C19.866 33.6978 19.7973 33.9039 19.6599 34.0756C19.6942 34.0413 19.6942 34.0069 19.7286 33.9382C19.6255 34.11 19.4881 34.2817 19.3507 34.4191C19.3851 34.3848 19.4194 34.3504 19.4538 34.3161C19.2477 34.5222 19.0416 34.6596 18.8011 34.797C18.8355 34.7626 18.8698 34.7626 18.9385 34.7283C18.595 34.9344 18.2171 35.0718 17.8049 35.1749C17.8393 35.1749 17.908 35.1405 17.9423 35.1405C16.5683 35.484 15.0912 35.3123 13.7172 35.6214C13.0645 35.7588 12.4462 35.9649 11.8623 36.2741C11.2783 36.5832 10.7287 36.9267 10.2478 37.3389C9.69818 37.8199 9.18292 38.3351 8.80506 38.9534C8.73636 39.0908 8.66766 39.1939 8.70201 39.3656C8.70201 39.503 8.80506 39.6748 8.90811 39.7435C9.01116 39.8122 9.18292 39.8809 9.32032 39.8465C9.38902 39.9152 9.56078 39.8465 9.62948 39.7435Z" fill="#E5B428"/>
<path d="M5.4386 30.8468C5.85081 30.7094 6.29737 30.6063 6.70957 30.572C6.67522 30.572 6.60652 30.572 6.57217 30.572C7.19049 30.5033 7.84315 30.572 8.46146 30.675C8.42711 30.675 8.35841 30.675 8.32406 30.6407C9.28588 30.8124 10.2477 31.1216 11.1408 31.4994C12.1713 31.9116 13.2019 32.3925 14.2324 32.7361C15.1942 33.0796 16.1904 33.2857 17.1865 33.32C18.1484 33.3544 19.1102 33.217 20.0033 32.8048C20.4498 32.5986 20.8621 32.3238 21.2399 32.0147C21.6178 31.6712 21.9956 31.2933 22.3735 30.9498C22.4765 30.8811 22.5796 30.7781 22.6826 30.7094C22.6483 30.7437 22.6139 30.7781 22.5796 30.7781C22.7513 30.6407 22.9574 30.5376 23.1636 30.4689C23.1292 30.4689 23.0605 30.5033 23.0262 30.5033C23.1979 30.4346 23.3697 30.4002 23.5414 30.4002C23.5071 30.4002 23.4384 30.4002 23.404 30.4002C23.5758 30.4002 23.7475 30.4002 23.9193 30.4346C23.8849 30.4346 23.8162 30.4346 23.7819 30.4002C23.9193 30.4346 24.0567 30.4689 24.1941 30.5376C24.1597 30.5033 24.091 30.5033 24.0567 30.4689C24.1597 30.5033 24.2284 30.572 24.3315 30.6407C24.2971 30.6063 24.2628 30.572 24.2284 30.5376C24.2971 30.6063 24.3658 30.675 24.4345 30.7437C24.4002 30.7094 24.3658 30.675 24.3658 30.6407C24.4002 30.7094 24.4345 30.7781 24.4689 30.8468C24.5376 30.9842 24.675 31.0872 24.8124 31.1216C24.9498 31.1559 25.1215 31.1559 25.2246 31.0872C25.4994 30.9155 25.6025 30.6063 25.465 30.3315C25.2933 29.9193 24.9498 29.6445 24.5376 29.4727C24.1597 29.301 23.7475 29.301 23.3353 29.3353C22.4765 29.4384 21.7895 29.988 21.2056 30.572C20.8621 30.8811 20.5186 31.2246 20.1407 31.4994C20.175 31.4651 20.2094 31.4307 20.2437 31.4307C19.9346 31.6368 19.5911 31.8086 19.2132 31.946C19.2476 31.946 19.3163 31.9116 19.3506 31.9116C18.9041 32.0834 18.4232 32.1521 17.9766 32.2208C18.0109 32.2208 18.0797 32.2208 18.114 32.2208C17.4613 32.2895 16.843 32.2208 16.1904 32.1177C16.2247 32.1177 16.2934 32.1177 16.3278 32.1521C14.782 31.8773 13.3049 31.1903 11.8622 30.6063C10.4882 30.0567 9.07977 29.5414 7.56834 29.4727C6.77828 29.4384 5.95386 29.5071 5.19815 29.7819C5.06074 29.8162 4.92334 29.8849 4.85464 30.0223C4.78594 30.1254 4.75159 30.2972 4.78594 30.4346C4.82029 30.572 4.88899 30.7094 5.02639 30.7781C5.12944 30.8468 5.3012 30.8811 5.4386 30.8468Z" fill="#F4CF56"/>
<path d="M65.3463 45.5145C64.2814 46.6824 62.6326 47.0947 61.5677 48.2626C59.4723 50.5641 60.2624 54.961 57.7892 56.7472C56.106 57.9838 53.8045 57.2281 51.9495 56.2663C50.1289 55.2701 48.171 54.0678 46.1443 54.5144C44.4954 54.8923 43.2588 56.2663 41.9191 57.3655C40.5795 58.4647 38.7589 59.3235 37.2818 58.4647C35.9421 57.6747 35.4269 55.7854 34.1215 54.9266C32.7132 53.9991 30.8926 54.5831 29.2437 54.7892C26.4613 55.1327 23.5415 54.1365 21.4118 52.1442C20.7935 51.5602 20.2095 50.8389 19.9003 50.0145C19.6255 49.2931 19.5912 48.5374 19.6255 47.7817C19.6599 46.3389 19.969 44.8275 19.6255 43.4191C19.282 42.0108 18.3202 40.9115 17.4958 39.7093C16.7057 38.5413 16.0187 37.0643 16.3622 35.6559C16.7744 33.9727 18.4233 33.0452 20.0034 32.6674C21.5492 32.2895 23.2324 32.1865 24.6064 31.2933C26.1522 30.2628 26.9766 28.4079 28.0415 26.8621C29.9307 24.114 32.7132 22.0874 35.8047 21.2286C38.8963 20.3698 42.2283 20.7477 45.1138 22.2248C47.4496 23.427 49.4076 25.3163 51.3656 27.1713C53.564 29.301 55.7625 31.3964 57.9953 33.5261C59.9532 35.4154 61.8425 37.236 64.0753 38.7474C66.2051 40.2245 67.4417 43.213 65.3463 45.5145Z" fill="#DA733B"/>
<path d="M34.671 40.9116C34.671 40.9116 21.7552 40.4994 18.5605 41.1521C19.0415 41.8391 19.4537 42.5604 19.6598 43.3849C19.9346 44.4497 19.7972 45.5833 19.7285 46.7169C20.3811 45.652 23.2322 42.7322 34.671 40.9116Z" fill="#B75432"/>
<path d="M48.583 39.125C56.8959 41.8731 59.7813 52.7622 59.7813 52.7622C60.1592 51.1134 60.5027 49.3959 61.5332 48.2279C61.7393 48.0218 61.9454 47.8157 62.1859 47.644C58.373 39.8464 48.583 39.125 48.583 39.125Z" fill="#B75432"/>
<path d="M31.2705 54.3432C31.2705 54.3432 31.2705 54.3775 31.2705 54.4462C32.2667 54.3088 33.2628 54.3088 34.1216 54.8928C34.4651 55.1332 34.7399 55.408 35.0147 55.7515L35.0491 55.7172C35.0491 55.7172 34.4995 43.3853 37.9345 36.4121C37.9689 36.4121 32.9193 46.1334 31.2705 54.3432Z" fill="#B75432"/>
<path d="M43.7397 39.8808C43.8084 39.9839 43.8428 40.0869 43.9115 40.19C46.213 44.9647 43.8084 53.8272 43.0527 56.3692C44.0146 55.5447 44.9764 54.7203 46.1786 54.4799C47.3122 54.2394 48.4458 54.5142 49.545 54.9951C49.7855 48.1593 40.7512 34.4191 43.7397 39.8808Z" fill="#B75432"/>
<path d="M10.2477 17.2441C11.4843 15.9731 13.4079 15.5609 14.6789 14.2899C17.1178 11.8167 16.2247 7.04191 19.0758 5.08392C21.0681 3.74424 23.7475 4.56866 25.8772 5.63353C28.007 6.6984 30.3085 8.00373 32.6443 7.52282C34.568 7.14496 36.0107 5.63353 37.5565 4.43126C39.1023 3.22898 41.232 2.33586 42.9839 3.26333C44.564 4.1221 45.148 6.18314 46.6594 7.11061C48.3082 8.10678 50.438 7.45412 52.3616 7.24801C55.6249 6.87015 59.0256 7.93503 61.4989 10.0991C62.2203 10.7518 62.9073 11.5075 63.2508 12.4006C63.5599 13.1563 63.6286 13.9807 63.5943 14.8052C63.5599 16.3853 63.1821 17.9998 63.5943 19.5112C64.0065 21.0226 65.1401 22.2249 66.0675 23.4959C66.995 24.7669 67.7851 26.347 67.4072 27.8584C66.9263 29.679 65.0027 30.6752 63.1821 31.0874C61.3615 31.4996 59.4035 31.6026 57.8234 32.5988C56.0371 33.698 55.041 35.6904 53.8043 37.4079C51.6059 40.3964 48.3426 42.5949 44.7701 43.488C41.1633 44.3811 37.2817 44.0032 33.9153 42.3888C31.2016 41.0834 28.9001 39.0567 26.633 37.0301C24.0567 34.7286 21.4804 32.4614 18.904 30.1599C16.6026 28.0989 14.4385 26.1409 11.8278 24.5264C9.25151 22.9463 7.80878 19.7173 10.2477 17.2441Z" fill="#DA733B"/>
<path d="M46.041 22.1906C46.041 22.1906 61.0866 22.6372 64.8652 21.9158C64.3156 21.1601 63.8347 20.3701 63.5942 19.4769C63.2851 18.309 63.4225 17.1067 63.5255 15.8701C62.7011 17.038 59.3691 20.2327 46.041 22.1906Z" fill="#B75432"/>
<path d="M29.7935 24.1142C20.1066 21.16 16.7403 9.41211 16.7403 9.41211C16.2937 11.1983 15.9159 13.0533 14.6792 14.2899C14.4388 14.5304 14.164 14.7365 13.8892 14.9426C18.4235 23.3241 29.7935 24.1142 29.7935 24.1142Z" fill="#B75432"/>
<path d="M49.9915 7.65987C49.9915 7.65987 49.9914 7.62552 49.9571 7.55682C48.7892 7.69422 47.6213 7.69422 46.6251 7.07591C46.2129 6.83545 45.9037 6.5263 45.5946 6.14844L45.5602 6.18279C45.5602 6.18279 46.2129 19.5109 42.1938 27.0337C42.1938 27.068 48.1022 16.5567 49.9915 7.65987Z" fill="#B75432"/>
<path d="M35.4613 23.2899C35.3926 23.1869 35.3239 23.0495 35.2552 22.9464C32.5759 17.7938 35.3926 8.20997 36.2514 5.46191C35.1522 6.35503 33.9843 7.24815 32.6102 7.52295C31.2706 7.79776 29.9652 7.4886 28.6943 6.97334C28.4194 14.3587 38.9651 29.1982 35.4613 23.2899Z" fill="#B75432"/>
</g>
<path d="M67.5104 72.3129C64.0754 67.2977 58.3388 64 51.7778 64H19.9004C13.2363 64 7.98069 67.229 5.23264 72.7251C5.12959 72.9312 4.71738 73.7556 4.51127 73.9273C3.1716 75.8166 2.38153 76.9846 1.45406 78.3586C0.83575 79.2517 0.217437 80.1792 0.0456841 81.244C-0.126069 82.3089 0.217438 83.3738 0.560944 84.4043C1.52276 87.4272 2.48458 90.4157 3.4464 93.4385C3.5151 93.7133 3.5838 93.9881 3.5838 94.263V123.736C3.5838 125.934 5.37004 127.721 7.56848 127.721H66.9952C69.1249 127.721 70.8768 125.969 70.8768 123.839V91.8928C71.6669 89.3852 72.4569 86.9119 73.2813 84.4043C73.6248 83.3738 73.934 82.3089 73.7966 81.244C73.6248 80.1792 73.0065 79.2517 72.3882 78.3586" fill="#00BAE7"/>
<path d="M68.6785 79.8354C66.7892 69.2897 55.6596 65.8203 38.0377 65.8203C20.4158 65.8203 9.28614 69.2897 7.39685 79.8354C5.50756 90.3811 12.1716 94.4344 12.1716 94.4344C12.1716 94.4344 12.1716 114.667 11.8968 120.438C11.5876 126.209 16.6372 126.793 16.6372 126.793H38.0377H59.4381C59.4381 126.793 64.4877 126.209 64.2129 120.438C63.9381 114.667 63.9381 94.4344 63.9381 94.4344C63.9381 94.4344 70.5334 90.3811 68.6785 79.8354Z" fill="#934114"/>
<path d="M66.2053 79.4916C64.316 68.946 53.1864 65.4766 35.5645 65.4766C17.9426 65.4766 6.813 68.946 4.92371 79.4916C3.03442 90.0373 9.69845 94.0907 9.69845 94.0907C9.69845 94.0907 9.69845 114.323 9.42365 120.094C9.11449 125.865 14.164 126.449 14.164 126.449H35.5645H56.965C56.965 126.449 62.0145 125.865 61.7397 120.094C61.4649 114.323 61.4649 94.0907 61.4649 94.0907C61.4649 94.0907 68.0603 90.0373 66.2053 79.4916Z" fill="#A55734"/>
<path opacity="0.15" d="M73.6936 81.2097C73.5218 80.1448 72.9035 79.2174 72.2852 78.3242L67.5104 72.3129C64.0754 67.2977 58.3388 64 51.7778 64H19.9004C13.2363 64 7.98069 67.229 5.23264 72.7251C5.12959 72.9312 4.71738 73.7556 4.51127 73.9273C3.1716 75.8166 2.38153 76.9846 1.45406 78.3586C0.83575 79.2517 0.217437 80.1792 0.0456841 81.244C-0.126069 82.3089 0.217438 83.3738 0.560944 84.4043C1.52276 87.4272 2.48458 90.4157 3.4464 93.4385C3.5151 93.7133 3.5838 93.9881 3.5838 94.263V123.736C3.5838 125.934 5.37004 127.721 7.56848 127.721H66.9952C69.1249 127.721 70.8768 125.969 70.8768 123.839V91.8928C71.6669 89.3852 72.4569 86.9119 73.2813 84.4043C73.5561 83.3738 73.8653 82.2746 73.6936 81.2097Z" fill="white"/>
<mask id="mask1" mask-type="alpha" maskUnits="userSpaceOnUse" x="0" y="64" width="74" height="64">
<path d="M67.5104 72.3129C64.0754 67.2977 58.3388 64 51.7778 64H19.9004C13.2363 64 7.98069 67.229 5.23264 72.7251C5.12959 72.9312 4.71738 73.7556 4.51127 73.9273C3.1716 75.8166 2.38153 76.9846 1.45406 78.3586C0.83575 79.2517 0.217437 80.1792 0.0456841 81.244C-0.126069 82.3089 0.217438 83.3738 0.560944 84.4043C1.52276 87.4272 2.48458 90.4157 3.4464 93.4385C3.5151 93.7133 3.5838 93.9881 3.5838 94.263V123.736C3.5838 125.934 5.37004 127.721 7.56848 127.721H66.9952C69.1249 127.721 70.8768 125.969 70.8768 123.839V91.8928C71.6669 89.3852 72.4569 86.9119 73.2813 84.4043C73.6248 83.3738 73.934 82.3089 73.7966 81.244C73.6248 80.1792 73.0065 79.2517 72.3882 78.3586" fill="#00BAE7"/>
</mask>
<g mask="url(#mask1)">
<path opacity="0.15" d="M-13.3498 150.988L25.3394 47.4336L22.2823 46.2914L-16.4069 149.846L-13.3498 150.988Z" fill="white"/>
<path opacity="0.15" d="M-2.45822 159.074L36.231 55.5195L34.7185 54.9545L-3.97066 158.509L-2.45822 159.074Z" fill="white"/>
<path opacity="0.15" d="M-4.77218 155.357L33.917 51.8027L27.288 49.326L-11.4012 152.88L-4.77218 155.357Z" fill="white"/>
<path opacity="0.15" d="M41.429 164.041L80.1182 60.4863L73.4891 58.0096L34.8 161.564L41.429 164.041Z" fill="white"/>
<path opacity="0.15" d="M33.2557 159.48L71.9448 55.9258L68.8878 54.7836L30.1986 158.338L33.2557 159.48Z" fill="white"/>
<path opacity="0.15" d="M-20.2463 150.895L18.4429 47.3408L11.8138 44.8641L-26.8753 148.418L-20.2463 150.895Z" fill="white"/>
<path opacity="0.15" d="M-28.4196 146.335L10.2695 42.7803L7.21246 41.6381L-31.4767 145.192L-28.4196 146.335Z" fill="white"/>
<path d="M9.62948 103.743C9.93863 103.297 10.2478 102.885 10.66 102.541C10.6256 102.576 10.5913 102.61 10.5569 102.644C11.0379 102.198 11.5531 101.82 12.1027 101.476C12.0684 101.511 12.034 101.511 11.9653 101.545C12.5493 101.236 13.1332 100.995 13.7859 100.824C13.7516 100.824 13.6829 100.858 13.6485 100.858C14.3355 100.686 15.0225 100.652 15.7095 100.618C16.3966 100.583 17.0836 100.549 17.7706 100.411C18.4576 100.274 19.1103 100.034 19.6942 99.6214C20.2095 99.2436 20.656 98.7283 20.8622 98.11C20.9996 97.7321 21.0683 97.3543 21.0339 96.9764C21.0339 96.7703 20.9996 96.5986 20.9309 96.3924C20.8622 96.2207 20.7934 96.0489 20.6904 95.8772C20.6217 95.7741 20.4499 95.6711 20.3469 95.6711C20.2095 95.6367 20.0377 95.6711 19.9347 95.7741C19.8316 95.8772 19.7286 95.9802 19.7286 96.1176C19.7286 96.152 19.7286 96.2207 19.7286 96.255C19.7286 96.3581 19.7629 96.4612 19.8316 96.5299C19.8316 96.5299 19.8316 96.5642 19.866 96.5642C19.8316 96.5299 19.8316 96.4955 19.7973 96.4268C19.866 96.5642 19.9347 96.7016 19.969 96.839C19.969 96.8047 19.9347 96.736 19.9347 96.7016C19.969 96.8734 20.0034 97.0451 20.0034 97.1825C20.0034 97.1482 20.0034 97.0795 20.0034 97.0451C20.0034 97.2512 19.969 97.4573 19.9003 97.6291C19.9003 97.5947 19.9347 97.526 19.9347 97.4917C19.866 97.6978 19.7973 97.9039 19.6599 98.0756C19.6942 98.0413 19.6942 98.0069 19.7286 97.9382C19.6255 98.11 19.4881 98.2817 19.3507 98.4191C19.3851 98.3848 19.4194 98.3504 19.4538 98.3161C19.2477 98.5222 19.0416 98.6596 18.8011 98.797C18.8355 98.7626 18.8698 98.7626 18.9385 98.7283C18.595 98.9344 18.2171 99.0718 17.8049 99.1749C17.8393 99.1749 17.908 99.1405 17.9423 99.1405C16.5683 99.484 15.0912 99.3123 13.7172 99.6214C13.0645 99.7588 12.4462 99.9649 11.8623 100.274C11.2783 100.583 10.7287 100.927 10.2478 101.339C9.69818 101.82 9.18292 102.335 8.80506 102.953C8.73636 103.091 8.66766 103.194 8.70201 103.366C8.70201 103.503 8.80506 103.675 8.90811 103.743C9.01116 103.812 9.18292 103.881 9.32032 103.847C9.38902 103.915 9.56078 103.847 9.62948 103.743Z" fill="#E5B428"/>
<path d="M5.4386 94.8468C5.85081 94.7094 6.29737 94.6063 6.70957 94.572C6.67522 94.572 6.60652 94.572 6.57217 94.572C7.19049 94.5033 7.84315 94.572 8.46146 94.675C8.42711 94.675 8.35841 94.675 8.32406 94.6407C9.28588 94.8124 10.2477 95.1216 11.1408 95.4994C12.1713 95.9116 13.2019 96.3925 14.2324 96.7361C15.1942 97.0796 16.1904 97.2857 17.1865 97.32C18.1484 97.3544 19.1102 97.217 20.0033 96.8048C20.4498 96.5986 20.8621 96.3238 21.2399 96.0147C21.6178 95.6712 21.9956 95.2933 22.3735 94.9498C22.4765 94.8811 22.5796 94.7781 22.6826 94.7094C22.6483 94.7437 22.6139 94.7781 22.5796 94.7781C22.7513 94.6407 22.9574 94.5376 23.1636 94.4689C23.1292 94.4689 23.0605 94.5033 23.0262 94.5033C23.1979 94.4346 23.3697 94.4002 23.5414 94.4002C23.5071 94.4002 23.4384 94.4002 23.404 94.4002C23.5758 94.4002 23.7475 94.4002 23.9193 94.4346C23.8849 94.4346 23.8162 94.4346 23.7819 94.4002C23.9193 94.4346 24.0567 94.4689 24.1941 94.5376C24.1597 94.5033 24.091 94.5033 24.0567 94.4689C24.1597 94.5033 24.2284 94.572 24.3315 94.6407C24.2971 94.6063 24.2628 94.572 24.2284 94.5376C24.2971 94.6063 24.3658 94.675 24.4345 94.7437C24.4002 94.7094 24.3658 94.675 24.3658 94.6407C24.4002 94.7094 24.4345 94.7781 24.4689 94.8468C24.5376 94.9842 24.675 95.0872 24.8124 95.1216C24.9498 95.1559 25.1215 95.1559 25.2246 95.0872C25.4994 94.9155 25.6025 94.6063 25.465 94.3315C25.2933 93.9193 24.9498 93.6445 24.5376 93.4727C24.1597 93.301 23.7475 93.301 23.3353 93.3353C22.4765 93.4384 21.7895 93.988 21.2056 94.572C20.8621 94.8811 20.5186 95.2246 20.1407 95.4994C20.175 95.4651 20.2094 95.4307 20.2437 95.4307C19.9346 95.6368 19.5911 95.8086 19.2132 95.946C19.2476 95.946 19.3163 95.9116 19.3506 95.9116C18.9041 96.0834 18.4232 96.1521 17.9766 96.2208C18.0109 96.2208 18.0797 96.2208 18.114 96.2208C17.4613 96.2895 16.843 96.2208 16.1904 96.1177C16.2247 96.1177 16.2934 96.1177 16.3278 96.1521C14.782 95.8773 13.3049 95.1903 11.8622 94.6063C10.4882 94.0567 9.07977 93.5414 7.56834 93.4727C6.77828 93.4384 5.95386 93.5071 5.19815 93.7819C5.06074 93.8162 4.92334 93.8849 4.85464 94.0223C4.78594 94.1254 4.75159 94.2972 4.78594 94.4346C4.82029 94.572 4.88899 94.7094 5.02639 94.7781C5.12944 94.8468 5.3012 94.8811 5.4386 94.8468Z" fill="#F4CF56"/>
<path d="M65.3463 109.515C64.2814 110.682 62.6326 111.095 61.5677 112.263C59.4723 114.564 60.2624 118.961 57.7892 120.747C56.106 121.984 53.8045 121.228 51.9495 120.266C50.1289 119.27 48.171 118.068 46.1443 118.514C44.4954 118.892 43.2588 120.266 41.9191 121.366C40.5795 122.465 38.7589 123.323 37.2818 122.465C35.9421 121.675 35.4269 119.785 34.1215 118.927C32.7132 117.999 30.8926 118.583 29.2437 118.789C26.4613 119.133 23.5415 118.137 21.4118 116.144C20.7935 115.56 20.2095 114.839 19.9003 114.014C19.6255 113.293 19.5912 112.537 19.6255 111.782C19.6599 110.339 19.969 108.828 19.6255 107.419C19.282 106.011 18.3202 104.912 17.4958 103.709C16.7057 102.541 16.0187 101.064 16.3622 99.6559C16.7744 97.9727 18.4233 97.0452 20.0034 96.6674C21.5492 96.2895 23.2324 96.1865 24.6064 95.2933C26.1522 94.2628 26.9766 92.4079 28.0415 90.8621C29.9307 88.114 32.7132 86.0874 35.8047 85.2286C38.8963 84.3698 42.2283 84.7477 45.1138 86.2248C47.4496 87.427 49.4076 89.3163 51.3656 91.1713C53.564 93.301 55.7625 95.3964 57.9953 97.5261C59.9532 99.4154 61.8425 101.236 64.0753 102.747C66.2051 104.225 67.4417 107.213 65.3463 109.515Z" fill="#DA733B"/>
<path d="M34.671 104.912C34.671 104.912 21.7552 104.499 18.5605 105.152C19.0415 105.839 19.4537 106.56 19.6598 107.385C19.9346 108.45 19.7972 109.583 19.7285 110.717C20.3811 109.652 23.2322 106.732 34.671 104.912Z" fill="#B75432"/>
<path d="M48.583 103.125C56.8959 105.873 59.7813 116.762 59.7813 116.762C60.1592 115.113 60.5027 113.396 61.5332 112.228C61.7393 112.022 61.9454 111.816 62.1859 111.644C58.373 103.846 48.583 103.125 48.583 103.125Z" fill="#B75432"/>
<path d="M31.2705 118.343C31.2705 118.343 31.2705 118.378 31.2705 118.446C32.2667 118.309 33.2628 118.309 34.1216 118.893C34.4651 119.133 34.7399 119.408 35.0147 119.752L35.0491 119.717C35.0491 119.717 34.4995 107.385 37.9345 100.412C37.9689 100.412 32.9193 110.133 31.2705 118.343Z" fill="#B75432"/>
<path d="M43.7397 103.881C43.8084 103.984 43.8428 104.087 43.9115 104.19C46.213 108.965 43.8084 117.827 43.0527 120.369C44.0146 119.545 44.9764 118.72 46.1786 118.48C47.3122 118.239 48.4458 118.514 49.545 118.995C49.7855 112.159 40.7512 98.4191 43.7397 103.881Z" fill="#B75432"/>
<path d="M10.2477 81.2441C11.4843 79.9731 13.4079 79.5609 14.6789 78.2899C17.1178 75.8167 16.2247 71.0419 19.0758 69.0839C21.0681 67.7442 23.7475 68.5687 25.8772 69.6335C28.007 70.6984 30.3085 72.0037 32.6443 71.5228C34.568 71.145 36.0107 69.6335 37.5565 68.4313C39.1023 67.229 41.232 66.3359 42.9839 67.2633C44.564 68.1221 45.148 70.1831 46.6594 71.1106C48.3082 72.1068 50.438 71.4541 52.3616 71.248C55.6249 70.8702 59.0256 71.935 61.4989 74.0991C62.2203 74.7518 62.9073 75.5075 63.2508 76.4006C63.5599 77.1563 63.6286 77.9807 63.5943 78.8052C63.5599 80.3853 63.1821 81.9998 63.5943 83.5112C64.0065 85.0226 65.1401 86.2249 66.0675 87.4959C66.995 88.7669 67.7851 90.347 67.4072 91.8584C66.9263 93.679 65.0027 94.6752 63.1821 95.0874C61.3615 95.4996 59.4035 95.6026 57.8234 96.5988C56.0371 97.698 55.041 99.6904 53.8043 101.408C51.6059 104.396 48.3426 106.595 44.7701 107.488C41.1633 108.381 37.2817 108.003 33.9153 106.389C31.2016 105.083 28.9001 103.057 26.633 101.03C24.0567 98.7286 21.4804 96.4614 18.904 94.1599C16.6026 92.0989 14.4385 90.1409 11.8278 88.5264C9.25151 86.9463 7.80878 83.7173 10.2477 81.2441Z" fill="#DA733B"/>
<path d="M46.041 86.1906C46.041 86.1906 61.0866 86.6372 64.8652 85.9158C64.3156 85.1601 63.8347 84.3701 63.5942 83.4769C63.2851 82.309 63.4225 81.1067 63.5255 79.8701C62.7011 81.038 59.3691 84.2327 46.041 86.1906Z" fill="#B75432"/>
<path d="M29.7935 88.1142C20.1066 85.16 16.7403 73.4121 16.7403 73.4121C16.2937 75.1983 15.9159 77.0533 14.6792 78.2899C14.4388 78.5304 14.164 78.7365 13.8892 78.9426C18.4235 87.3241 29.7935 88.1142 29.7935 88.1142Z" fill="#B75432"/>
<path d="M49.9915 71.6599C49.9915 71.6599 49.9914 71.6255 49.9571 71.5568C48.7892 71.6942 47.6213 71.6942 46.6251 71.0759C46.2129 70.8355 45.9037 70.5263 45.5946 70.1484L45.5602 70.1828C45.5602 70.1828 46.2129 83.5109 42.1938 91.0337C42.1938 91.068 48.1022 80.5567 49.9915 71.6599Z" fill="#B75432"/>
<path d="M35.4613 87.2899C35.3926 87.1869 35.3239 87.0495 35.2552 86.9464C32.5759 81.7938 35.3926 72.21 36.2514 69.4619C35.1522 70.355 33.9843 71.2481 32.6102 71.523C31.2706 71.7978 29.9652 71.4886 28.6943 70.9733C28.4194 78.3587 38.9651 93.1982 35.4613 87.2899Z" fill="#B75432"/>
</g>
</svg>
