<svg width="74" height="127" viewBox="0 0 74 127" fill="none" xmlns="http://www.w3.org/2000/svg">
<path d="M67.5473 8.31416C64.1121 3.29877 58.3753 0.000976562 51.8141 0.000976562H19.9011C13.2368 0.000976562 8.01534 3.26441 5.26719 8.76073C5.16413 8.96684 4.75191 9.79129 4.54579 9.96305C3.20607 11.8524 2.38162 13.0204 1.45412 14.3601C0.835781 15.2533 0.217446 16.1808 0.0456858 17.2457C-0.126074 18.3106 0.217446 19.3755 0.560965 20.406C1.52282 23.429 2.48468 26.4176 3.44653 29.4406C3.51524 29.7154 3.58394 29.9903 3.58394 30.2651V59.7391C3.58394 61.9376 5.37024 63.7239 7.56877 63.7239H66.9977C69.1275 63.7239 70.8795 61.9719 70.8795 59.8421V27.8948C71.6696 25.3871 72.4597 22.9137 73.2841 20.406C73.6276 19.3755 73.9368 18.3106 73.7994 17.2457C73.6276 16.1808 73.0093 15.2533 72.391 14.3601" fill="#00BAE7"/>
<path d="M68.6803 15.8359C66.8253 5.28986 55.6953 1.82031 38.0383 1.82031C20.3814 1.82031 9.28574 5.28986 7.39638 15.8359C5.50702 26.382 12.1713 30.4355 12.1713 30.4355C12.1713 30.4355 12.1713 50.6688 11.8965 56.44C11.6217 62.2111 16.6714 62.7951 16.6714 62.7951H38.0727H59.474C59.474 62.7951 64.5237 62.2111 64.2489 56.44C63.9741 50.6688 63.9741 30.4355 63.9741 30.4355C63.9741 30.4355 70.5697 26.382 68.6803 15.8359Z" fill="#934114"/>
<path d="M66.206 15.4922C64.351 4.94611 53.221 1.47656 35.564 1.47656C17.9071 1.47656 6.81143 4.94611 4.95643 15.4922C3.10142 26.0382 9.73135 30.0918 9.73135 30.0918C9.73135 30.0918 9.73135 50.3251 9.45653 56.0962C9.18172 61.8673 14.2315 62.4513 14.2315 62.4513H35.6327H57.034C57.034 62.4513 62.0838 61.8673 61.809 56.0962C61.5341 50.3251 61.5341 30.0918 61.5341 30.0918C61.5341 30.0918 68.0954 26.0382 66.206 15.4922Z" fill="#CEA267"/>
<path d="M16.8779 28.0654C17.523 28.0654 18.0459 27.5425 18.0459 26.8975C18.0459 26.2524 17.523 25.7295 16.8779 25.7295C16.2329 25.7295 15.71 26.2524 15.71 26.8975C15.71 27.5425 16.2329 28.0654 16.8779 28.0654Z" fill="#A06E27"/>
<path d="M27.8711 24.4912C28.5161 24.4912 29.0391 23.9683 29.0391 23.3232C29.0391 22.6782 28.5161 22.1553 27.8711 22.1553C27.226 22.1553 26.7031 22.6782 26.7031 23.3232C26.7031 23.9683 27.226 24.4912 27.8711 24.4912Z" fill="#A06E27"/>
<path d="M26.9775 14.3242C27.6226 14.3242 28.1455 13.8013 28.1455 13.1562C28.1455 12.5112 27.6226 11.9883 26.9775 11.9883C26.3325 11.9883 25.8096 12.5112 25.8096 13.1562C25.8096 13.8013 26.3325 14.3242 26.9775 14.3242Z" fill="#A06E27"/>
<path d="M24.6753 39.5723C25.3203 39.5723 25.8433 39.0493 25.8433 38.4043C25.8433 37.7592 25.3203 37.2363 24.6753 37.2363C24.0302 37.2363 23.5073 37.7592 23.5073 38.4043C23.5073 39.0493 24.0302 39.5723 24.6753 39.5723Z" fill="#A06E27"/>
<path d="M44.4971 33.1484C45.1421 33.1484 45.665 32.6255 45.665 31.9805C45.665 31.3354 45.1421 30.8125 44.4971 30.8125C43.852 30.8125 43.3291 31.3354 43.3291 31.9805C43.3291 32.6255 43.852 33.1484 44.4971 33.1484Z" fill="#A06E27"/>
<path d="M33.126 31.9814C33.771 31.9814 34.2939 31.4585 34.2939 30.8135C34.2939 30.1684 33.771 29.6455 33.126 29.6455C32.4809 29.6455 31.958 30.1684 31.958 30.8135C31.958 31.4585 32.4809 31.9814 33.126 31.9814Z" fill="#A06E27"/>
<path d="M43.3638 18.1709C44.0088 18.1709 44.5317 17.648 44.5317 17.0029C44.5317 16.3579 44.0088 15.835 43.3638 15.835C42.7187 15.835 42.1958 16.3579 42.1958 17.0029C42.1958 17.648 42.7187 18.1709 43.3638 18.1709Z" fill="#A06E27"/>
<path d="M35.5315 4.87838C44.463 4.87838 50.9555 5.80589 55.4557 7.66089C59.784 9.48155 62.1199 12.161 62.8413 16.0771C63.4597 19.478 63.0818 22.3635 61.7764 24.6995C60.8833 26.2797 59.8184 27.0698 59.6466 27.2072L58.0321 28.1003V30.0927C58.0321 30.9172 58.0321 50.4635 58.3412 56.2689C58.4099 57.9178 57.8259 58.3988 57.6198 58.5705C57.2763 58.8453 56.8984 58.9827 56.658 59.0515H35.6002H14.4737C14.2333 58.9827 13.8554 58.8453 13.5119 58.5705C13.3058 58.3988 12.6874 57.9178 12.7905 56.2689C13.0653 50.4635 13.0997 30.9172 13.0997 30.0927V28.169L11.4851 27.1728C11.4851 27.1728 10.4546 26.4514 9.52706 24.9743C8.08427 22.604 7.67205 19.6154 8.29039 16.0771C8.97743 12.1267 11.3477 9.48155 15.6761 7.66089C20.1075 5.77154 26.6343 4.87838 35.5315 4.87838ZM35.5315 1.47754C17.9089 1.47754 6.7789 4.94709 4.88954 15.4931C3.00018 26.0392 9.66447 30.0927 9.66447 30.0927C9.66447 30.0927 9.66447 50.326 9.38965 56.0972C9.11483 61.8683 14.1646 62.4523 14.1646 62.4523H35.5659H56.9671C56.9671 62.4523 62.0169 61.8683 61.7421 56.0972C61.4673 50.326 61.4673 30.0927 61.4673 30.0927C61.4673 30.0927 68.1315 26.0392 66.2422 15.4931C64.2841 4.94709 53.1884 1.47754 35.5315 1.47754Z" fill="#A06E27"/>
<path opacity="0.15" d="M73.7307 17.2113C73.5589 16.1464 72.9406 15.2189 72.3223 14.3258L67.5473 8.31416C64.1121 3.29877 58.3753 0.000976562 51.8141 0.000976562H19.9011C13.2368 0.000976562 8.01534 3.26441 5.26719 8.76073C5.16413 8.96684 4.75191 9.79129 4.54579 9.96305C3.20607 11.8524 2.38162 13.0204 1.45412 14.3601C0.835781 15.2533 0.217446 16.1808 0.0456858 17.2457C-0.126074 18.3106 0.217446 19.3755 0.560965 20.406C1.52282 23.429 2.48468 26.4176 3.44653 29.4406C3.51524 29.7154 3.58394 29.9903 3.58394 30.2651V59.7391C3.58394 61.9376 5.37024 63.7239 7.56877 63.7239H66.9977C69.1275 63.7239 70.8795 61.9719 70.8795 59.8421V27.8948C71.6696 25.3871 72.4597 22.9137 73.2841 20.406C73.5589 19.3755 73.9024 18.2762 73.7307 17.2113Z" fill="white"/>
<path d="M48.654 34.626C48.654 34.626 47.6235 36.8245 43.5012 36.8589C41.6119 36.8589 33.1613 36.9276 32.0277 37.0993C25.6382 38.0612 26.6344 44.6911 26.6344 44.6911C26.6344 44.6911 27.665 42.4926 31.7872 42.4582C33.6766 42.4582 42.1272 42.3895 43.2608 42.2178C49.6846 41.2559 48.654 34.626 48.654 34.626Z" fill="#DA733B"/>
<path fill-rule="evenodd" clip-rule="evenodd" d="M35.7383 31.3974C29.5892 30.6073 24.7456 30.676 21.9631 32.6341C21.173 29.508 20.8638 26.6225 21.4135 24.2178C22.4097 19.9925 25.0548 18.9963 27.5281 18.8589C30.6542 18.6872 35.5321 19.7177 39.517 20.2673C44.6354 20.9887 49.2386 21.1261 52.3646 19.3398C53.3608 21.9162 53.5326 24.5613 53.086 27.2064C52.6394 30.2294 50.8531 31.8096 47.8989 32.1531C44.1201 32.5997 39.8605 31.9127 35.7383 31.3974Z" fill="white"/>
<path fill-rule="evenodd" clip-rule="evenodd" d="M33.539 20.4383C34.0199 20.4383 34.226 20.8162 34.226 21.194C34.226 21.6063 33.9855 21.9841 33.5733 21.9841C33.1267 21.9841 32.8863 21.6406 32.8519 21.2284C32.8519 20.8505 33.0237 20.4383 33.539 20.4383ZM33.539 20.1635C32.8863 20.1635 32.4053 20.507 32.4053 21.194C32.4053 21.8811 32.8176 22.259 33.539 22.259C34.226 22.259 34.6726 21.8811 34.6726 21.194C34.6726 20.5414 34.226 20.1635 33.539 20.1635ZM31.0656 21.1253V20.507C31.3404 20.507 31.7183 20.4383 31.7183 20.8162C31.7183 21.1597 31.3748 21.1253 31.0656 21.1253ZM30.6534 22.259H31.1V21.4002C31.4435 21.4002 31.8901 21.4002 32.0962 21.091C32.3023 20.7818 32.2336 20.2322 31.6152 20.1978H30.6534V22.259ZM28.5236 20.1978H28.9014C28.9014 20.4039 28.9014 21.4345 28.9014 21.6063C29.0045 22.0528 29.7946 22.0185 29.8289 21.5719C29.8633 21.2971 29.8289 20.507 29.8289 20.1978H30.2068C30.2068 20.4383 30.2412 21.5376 30.1725 21.778C30.0351 22.362 29.245 22.362 28.8671 22.1903C28.5236 22.0185 28.4892 21.7437 28.4892 21.4002L28.5236 20.1978ZM27.1151 21.091V20.4727C27.4243 20.4727 27.8022 20.4039 27.8022 20.7475C27.8022 21.1597 27.39 21.091 27.1151 21.091ZM26.7029 22.259H27.1151V21.4002H27.3556L27.8365 22.259H28.3518L27.8022 21.3315C28.077 21.2284 28.2488 21.0566 28.2488 20.7818C28.2488 20.3696 27.9052 20.2665 27.5961 20.2322H26.6686L26.7029 22.259ZM25.5693 21.1253V21.4002H25.9128V21.8467C25.5693 21.9498 25.0197 21.9841 24.8479 21.5376C24.6761 21.091 24.8479 20.4383 25.5006 20.4383C25.7411 20.4383 25.9128 20.507 26.0159 20.7131L26.2563 20.4383C26.0846 20.2322 25.8785 20.1635 25.5349 20.1635C24.1952 20.1635 24.1952 21.5719 24.7448 21.9841C25.1571 22.3277 25.8441 22.2246 26.3594 22.0872V21.091L25.5693 21.1253ZM33.1611 31.7401C29.4511 31.3966 25.8785 31.5683 23.6799 33.389C22.9929 33.2859 22.3059 33.1485 21.5845 33.0455C20.7257 30.263 20.5539 27.3087 20.9318 24.2857C21.5501 21.3315 23.096 18.6864 26.8403 18.4802C30.7221 18.2398 35.9779 19.2016 41.2338 19.7513C44.9782 20.1291 48.276 19.82 50.4401 18.1367C51.2302 18.3772 52.0203 18.6176 52.8448 18.8581C53.841 21.7437 53.9097 24.5605 53.4631 27.3431C52.8104 31.2935 50.234 32.702 46.7988 32.7363C41.9895 32.7363 37.0085 32.0836 33.1611 31.7401ZM35.7375 31.3966C29.5885 30.6065 24.7448 30.6752 21.9623 32.6333C21.1722 29.5072 20.8631 26.6217 21.4127 24.217C22.4089 19.9917 25.054 18.9955 27.5274 18.8581C30.6534 18.6863 35.5314 19.7169 39.5162 20.2665C44.6346 20.9879 49.2378 21.1253 52.3638 19.339C53.36 21.9154 53.5318 24.5605 53.0852 27.2056C52.6387 30.2286 50.8524 31.8088 47.8981 32.1523C44.1194 32.5989 39.8597 31.9119 35.7375 31.3966Z" fill="#3D438B"/>
<path fill-rule="evenodd" clip-rule="evenodd" d="M42.4021 28.0654H41.0968V24.218H42.196C42.78 24.218 42.9861 24.3898 43.0205 24.6989C43.0548 25.1799 42.78 25.4203 42.3334 25.4203H41.9212L41.4059 26.5539H42.4365C42.9174 26.5539 43.3984 26.8975 43.3296 27.344C43.2609 27.7563 42.8831 28.0654 42.4021 28.0654ZM42.6083 29.3021H39.5166V22.947H42.4708C43.5014 22.947 44.3946 23.2561 44.532 24.218C44.635 24.9394 44.4289 25.4547 43.8793 25.8325C44.7037 26.2104 45.0473 27.1723 44.7381 28.0998C44.4633 28.9929 43.364 29.3021 42.6083 29.3021ZM48.2763 24.3554C49.2038 24.3554 49.9939 25.1455 49.9939 26.073C49.9939 27.0349 49.2382 27.7906 48.2763 27.7906C47.3488 27.7906 46.5587 27.0005 46.5587 26.073C46.5931 25.1112 47.3488 24.3554 48.2763 24.3554ZM48.2763 22.8096C50.0283 22.8096 51.4711 24.2524 51.4711 26.073C51.4711 27.8593 50.0283 29.3364 48.2763 29.3364C46.5244 29.3364 45.0816 27.8937 45.0816 26.073C45.0816 24.2867 46.5244 22.8096 48.2763 22.8096ZM38.8639 22.947V29.3021H37.2837V25.2829L36.2531 29.3364H34.7417L33.7455 25.3516V29.3021H32.234V22.947H34.673L35.4974 26.5196L36.3218 22.947H38.8639ZM30.0354 22.947H31.5813V29.3021H30.0354V22.947ZM27.1842 28.0654H25.8788V24.218H26.9781C27.5621 24.218 27.7682 24.3898 27.8026 24.6989C27.8369 25.1799 27.5621 25.4203 27.1155 25.4203H26.7033L26.188 26.5539H27.2186C27.6995 26.5539 28.1804 26.8975 28.1117 27.344C28.043 27.7563 27.6651 28.0654 27.1842 28.0654ZM27.4247 29.3021H24.333V22.947H27.2873C28.3178 22.947 29.211 23.2561 29.3484 24.218C29.4515 24.9394 29.2453 25.4547 28.6957 25.8325C29.5202 26.2104 29.8637 27.1723 29.5545 28.0998C29.2797 28.9929 28.1804 29.3021 27.4247 29.3021Z" fill="#DA243C"/>
<mask id="mask0" mask-type="alpha" maskUnits="userSpaceOnUse" x="0" y="0" width="74" height="64">
<path d="M67.5473 8.31318C64.1121 3.29779 58.3753 0 51.8141 0H19.9011C13.2368 0 8.01534 3.26344 5.26719 8.75975C5.16413 8.96587 4.75191 9.79031 4.54579 9.96207C3.20607 11.8514 2.38162 13.0194 1.45412 14.3591C0.835781 15.2523 0.217446 16.1798 0.0456858 17.2447C-0.126074 18.3096 0.217446 19.3745 0.560965 20.4051C1.52282 23.428 2.48468 26.4167 3.44653 29.4396C3.51524 29.7145 3.58394 29.9893 3.58394 30.2641V59.7381C3.58394 61.9366 5.37024 63.7229 7.56877 63.7229H66.9977C69.1275 63.7229 70.8795 61.971 70.8795 59.8411V27.8938C71.6696 25.3861 72.4597 22.9128 73.2841 20.4051C73.6276 19.3745 73.9368 18.3096 73.7994 17.2447C73.6276 16.1798 73.0093 15.2523 72.391 14.3591" fill="#00BAE7"/>
</mask>
<g mask="url(#mask0)">
<path opacity="0.15" d="M-13.3303 87.0055L25.3604 -16.5527L22.3032 -17.6949L-16.3875 85.8633L-13.3303 87.0055Z" fill="white"/>
<path opacity="0.15" d="M-2.43868 95.0924L36.252 -8.46582L34.7395 -9.03091L-3.95118 94.5273L-2.43868 95.0924Z" fill="white"/>
<path opacity="0.15" d="M-4.78487 91.362L33.9058 -12.1963L27.2765 -14.6731L-11.4141 88.8852L-4.78487 91.362Z" fill="white"/>
<path opacity="0.15" d="M41.451 100.059L80.1416 -3.49902L73.5123 -5.9758L34.8217 97.5824L41.451 100.059Z" fill="white"/>
<path opacity="0.15" d="M33.2776 95.4987L71.9683 -8.05957L68.9111 -9.20177L30.2204 94.3565L33.2776 95.4987Z" fill="white"/>
<path opacity="0.15" d="M-20.2268 86.9137L18.4639 -16.6445L11.8346 -19.1213L-26.856 84.4369L-20.2268 86.9137Z" fill="white"/>
<path opacity="0.15" d="M-28.4001 82.3532L10.2905 -21.2051L7.23334 -22.3473L-31.4573 81.211L-28.4001 82.3532Z" fill="white"/>
</g>
<path d="M67.5473 70.8347C64.1121 65.8193 58.3753 62.5215 51.8141 62.5215H19.9011C13.2368 62.5215 8.01534 65.7849 5.26719 71.2812C5.16413 71.4874 4.75191 72.3118 4.54579 72.4836C3.20607 74.3729 2.38162 75.5409 1.45412 76.8806C0.835781 77.7738 0.217446 78.7013 0.0456858 79.7662C-0.126074 80.8311 0.217446 81.896 0.560965 82.9266C1.52282 85.9495 2.48468 88.9382 3.44653 91.9611C3.51524 92.2359 3.58394 92.5108 3.58394 92.7856V122.26C3.58394 124.458 5.37024 126.244 7.56877 126.244H66.9977C69.1275 126.244 70.8795 124.492 70.8795 122.363V90.4153C71.6696 87.9076 72.4597 85.4343 73.2841 82.9266C73.6276 81.896 73.9368 80.8311 73.7994 79.7662C73.6276 78.7013 73.0093 77.7738 72.391 76.8806" fill="#00BAE7"/>
<path d="M68.6803 78.3564C66.8253 67.8104 55.6953 64.3408 38.0383 64.3408C20.3814 64.3408 9.28574 67.8104 7.39638 78.3564C5.50702 88.9025 12.1713 92.956 12.1713 92.956C12.1713 92.956 12.1713 113.189 11.8965 118.96C11.6217 124.732 16.6714 125.316 16.6714 125.316H38.0727H59.474C59.474 125.316 64.5237 124.732 64.2489 118.96C63.9741 113.189 63.9741 92.956 63.9741 92.956C63.9741 92.956 70.5697 88.9025 68.6803 78.3564Z" fill="#934114"/>
<path d="M66.206 78.0127C64.351 67.4666 53.221 63.9971 35.564 63.9971C17.9071 63.9971 6.81143 67.4666 4.95643 78.0127C3.10142 88.5587 9.73135 92.6123 9.73135 92.6123C9.73135 92.6123 9.73135 112.846 9.45653 118.617C9.18172 124.388 14.2315 124.972 14.2315 124.972H35.6327H57.034C57.034 124.972 62.0838 124.388 61.809 118.617C61.5341 112.846 61.5341 92.6123 61.5341 92.6123C61.5341 92.6123 68.0954 88.5587 66.206 78.0127Z" fill="#CEA267"/>
<path d="M16.8779 90.5869C17.523 90.5869 18.0459 90.064 18.0459 89.4189C18.0459 88.7739 17.523 88.251 16.8779 88.251C16.2329 88.251 15.71 88.7739 15.71 89.4189C15.71 90.064 16.2329 90.5869 16.8779 90.5869Z" fill="#A06E27"/>
<path d="M27.8711 87.0127C28.5161 87.0127 29.0391 86.4898 29.0391 85.8447C29.0391 85.1997 28.5161 84.6768 27.8711 84.6768C27.226 84.6768 26.7031 85.1997 26.7031 85.8447C26.7031 86.4898 27.226 87.0127 27.8711 87.0127Z" fill="#A06E27"/>
<path d="M26.9775 76.8457C27.6226 76.8457 28.1455 76.3228 28.1455 75.6777C28.1455 75.0327 27.6226 74.5098 26.9775 74.5098C26.3325 74.5098 25.8096 75.0327 25.8096 75.6777C25.8096 76.3228 26.3325 76.8457 26.9775 76.8457Z" fill="#A06E27"/>
<path d="M24.6753 102.094C25.3203 102.094 25.8433 101.571 25.8433 100.926C25.8433 100.281 25.3203 99.7578 24.6753 99.7578C24.0302 99.7578 23.5073 100.281 23.5073 100.926C23.5073 101.571 24.0302 102.094 24.6753 102.094Z" fill="#A06E27"/>
<path d="M44.4971 95.6699C45.1421 95.6699 45.665 95.147 45.665 94.502C45.665 93.8569 45.1421 93.334 44.4971 93.334C43.852 93.334 43.3291 93.8569 43.3291 94.502C43.3291 95.147 43.852 95.6699 44.4971 95.6699Z" fill="#A06E27"/>
<path d="M33.126 94.5029C33.771 94.5029 34.2939 93.98 34.2939 93.335C34.2939 92.6899 33.771 92.167 33.126 92.167C32.4809 92.167 31.958 92.6899 31.958 93.335C31.958 93.98 32.4809 94.5029 33.126 94.5029Z" fill="#A06E27"/>
<path d="M43.3638 80.6924C44.0088 80.6924 44.5317 80.1695 44.5317 79.5244C44.5317 78.8794 44.0088 78.3564 43.3638 78.3564C42.7187 78.3564 42.1958 78.8794 42.1958 79.5244C42.1958 80.1695 42.7187 80.6924 43.3638 80.6924Z" fill="#A06E27"/>
<path d="M35.5315 67.3979C44.463 67.3979 50.9555 68.3254 55.4557 70.1804C59.784 72.0011 62.1199 74.6805 62.8413 78.5967C63.4597 81.9975 63.0818 84.8831 61.7764 87.219C60.8833 88.7992 59.8184 89.5893 59.6466 89.7267L58.0321 90.6199V92.6123C58.0321 93.4367 58.0321 112.983 58.3412 118.788C58.4099 120.437 57.8259 120.918 57.6198 121.09C57.2763 121.365 56.8984 121.502 56.658 121.571H35.6002H14.4737C14.2333 121.502 13.8554 121.365 13.5119 121.09C13.3058 120.918 12.6874 120.437 12.7905 118.788C13.0653 112.983 13.0997 93.4367 13.0997 92.6123V90.6886L11.4851 89.6924C11.4851 89.6924 10.4546 88.971 9.52706 87.4938C8.08427 85.1235 7.67205 82.1349 8.29039 78.5967C8.97743 74.6462 11.3477 72.0011 15.6761 70.1804C20.1075 68.2911 26.6343 67.3979 35.5315 67.3979ZM35.5315 63.9971C17.9089 63.9971 6.7789 67.4666 4.88954 78.0127C3.00018 88.5587 9.66447 92.6123 9.66447 92.6123C9.66447 92.6123 9.66447 112.846 9.38965 118.617C9.11483 124.388 14.1646 124.972 14.1646 124.972H35.5659H56.9671C56.9671 124.972 62.0169 124.388 61.7421 118.617C61.4673 112.846 61.4673 92.6123 61.4673 92.6123C61.4673 92.6123 68.1315 88.5587 66.2422 78.0127C64.2841 67.4666 53.1884 63.9971 35.5315 63.9971Z" fill="#A06E27"/>
<path opacity="0.15" d="M73.7307 79.7318C73.5589 78.6669 72.9406 77.7394 72.3223 76.8463L67.5473 70.8347C64.1121 65.8193 58.3753 62.5215 51.8141 62.5215H19.9011C13.2368 62.5215 8.01534 65.7849 5.26719 71.2812C5.16413 71.4874 4.75191 72.3118 4.54579 72.4836C3.20607 74.3729 2.38162 75.5409 1.45412 76.8806C0.835781 77.7738 0.217446 78.7013 0.0456858 79.7662C-0.126074 80.8311 0.217446 81.896 0.560965 82.9266C1.52282 85.9495 2.48468 88.9382 3.44653 91.9611C3.51524 92.2359 3.58394 92.5108 3.58394 92.7856V122.26C3.58394 124.458 5.37024 126.244 7.56877 126.244H66.9977C69.1275 126.244 70.8795 124.492 70.8795 122.363V90.4153C71.6696 87.9076 72.4597 85.4343 73.2841 82.9266C73.5589 81.896 73.9024 80.7967 73.7307 79.7318Z" fill="white"/>
<path d="M48.654 97.1475C48.654 97.1475 47.6235 99.346 43.5012 99.3803C41.6119 99.3803 33.1613 99.449 32.0277 99.6208C25.6382 100.583 26.6344 107.213 26.6344 107.213C26.6344 107.213 27.665 105.014 31.7872 104.98C33.6766 104.98 42.1272 104.911 43.2608 104.739C49.6846 103.777 48.654 97.1475 48.654 97.1475Z" fill="#DA733B"/>
<path fill-rule="evenodd" clip-rule="evenodd" d="M35.7373 93.9179C29.5883 93.1278 24.7446 93.1965 21.9621 95.1546C21.172 92.0285 20.8629 89.143 21.4125 86.7383C22.4087 82.513 25.0538 81.5168 27.5272 81.3794C30.6532 81.2077 35.5312 82.2382 39.516 82.7878C44.6344 83.5092 49.2376 83.6467 52.3636 81.8603C53.3598 84.4367 53.5316 87.0818 53.085 89.727C52.6385 92.7499 50.8521 94.3301 47.8979 94.6736C44.1192 95.1202 39.8595 94.4332 35.7373 93.9179Z" fill="white"/>
<path fill-rule="evenodd" clip-rule="evenodd" d="M33.539 82.9598C34.0199 82.9598 34.226 83.3377 34.226 83.7155C34.226 84.1278 33.9855 84.5056 33.5733 84.5056C33.1267 84.5056 32.8863 84.1621 32.8519 83.7499C32.8519 83.372 33.0237 82.9598 33.539 82.9598ZM33.539 82.685C32.8863 82.685 32.4053 83.0285 32.4053 83.7155C32.4053 84.4026 32.8176 84.7804 33.539 84.7804C34.226 84.7804 34.6726 84.4026 34.6726 83.7155C34.6726 83.0628 34.226 82.685 33.539 82.685ZM31.0656 83.6468V83.0285C31.3404 83.0285 31.7183 82.9598 31.7183 83.3377C31.7183 83.6812 31.3748 83.6468 31.0656 83.6468ZM30.6534 84.7804H31.1V83.9216C31.4435 83.9216 31.8901 83.9216 32.0962 83.6125C32.3023 83.3033 32.2336 82.7537 31.6152 82.7193H30.6534V84.7804ZM28.5236 82.7193H28.9014C28.9014 82.9254 28.9014 83.956 28.9014 84.1278C29.0045 84.5743 29.7946 84.54 29.8289 84.0934C29.8633 83.8186 29.8289 83.0285 29.8289 82.7193H30.2068C30.2068 82.9598 30.2412 84.059 30.1725 84.2995C30.0351 84.8835 29.245 84.8835 28.8671 84.7117C28.5236 84.54 28.4892 84.2652 28.4892 83.9216L28.5236 82.7193ZM27.1151 83.6125V82.9941C27.4243 82.9941 27.8022 82.9254 27.8022 83.269C27.8022 83.6812 27.39 83.6125 27.1151 83.6125ZM26.7029 84.7804H27.1151V83.9216H27.3556L27.8365 84.7804H28.3518L27.8022 83.8529C28.077 83.7499 28.2488 83.5781 28.2488 83.3033C28.2488 82.8911 27.9052 82.788 27.5961 82.7537H26.6686L26.7029 84.7804ZM25.5693 83.6468V83.9216H25.9128V84.3682C25.5693 84.4713 25.0197 84.5056 24.8479 84.059C24.6761 83.6125 24.8479 82.9598 25.5006 82.9598C25.7411 82.9598 25.9128 83.0285 26.0159 83.2346L26.2563 82.9598C26.0846 82.7537 25.8785 82.685 25.5349 82.685C24.1952 82.685 24.1952 84.0934 24.7448 84.5056C25.1571 84.8491 25.8441 84.7461 26.3594 84.6087V83.6125L25.5693 83.6468ZM33.1611 94.2616C29.4511 93.9181 25.8785 94.0898 23.6799 95.9105C22.9929 95.8074 22.3059 95.67 21.5845 95.567C20.7257 92.7845 20.5539 89.8302 20.9318 86.8072C21.5501 83.8529 23.096 81.2078 26.8403 81.0017C30.7221 80.7613 35.9779 81.7231 41.2338 82.2727C44.9782 82.6506 48.276 82.3415 50.4401 80.6582C51.2302 80.8987 52.0203 81.1391 52.8448 81.3796C53.841 84.2652 53.9097 87.082 53.4631 89.8645C52.8104 93.815 50.234 95.2234 46.7988 95.2578C41.9895 95.2578 37.0085 94.6051 33.1611 94.2616ZM35.7375 93.9181C29.5885 93.128 24.7448 93.1967 21.9623 95.1547C21.1722 92.0287 20.8631 89.1431 21.4127 86.7385C22.4089 82.5132 25.054 81.517 27.5274 81.3796C30.6534 81.2078 35.5314 82.2384 39.5162 82.788C44.6346 83.5094 49.2378 83.6468 52.3638 81.8605C53.36 84.4369 53.5318 87.082 53.0852 89.7271C52.6387 92.7501 50.8524 94.3303 47.8981 94.6738C44.1194 95.1204 39.8597 94.4333 35.7375 93.9181Z" fill="#3D438B"/>
<path fill-rule="evenodd" clip-rule="evenodd" d="M42.4021 90.5859H41.0968V86.7385H42.196C42.78 86.7385 42.9861 86.9103 43.0205 87.2194C43.0548 87.7004 42.78 87.9408 42.3334 87.9408H41.9212L41.4059 89.0744H42.4365C42.9174 89.0744 43.3984 89.418 43.3296 89.8645C43.2609 90.2768 42.8831 90.5859 42.4021 90.5859ZM42.6083 91.8226H39.5166V85.4675H42.4708C43.5014 85.4675 44.3946 85.7767 44.532 86.7385C44.635 87.4599 44.4289 87.9752 43.8793 88.3531C44.7037 88.7309 45.0473 89.6928 44.7381 90.6203C44.4633 91.5134 43.364 91.8226 42.6083 91.8226ZM48.2763 86.8759C49.2038 86.8759 49.9939 87.666 49.9939 88.5935C49.9939 89.5554 49.2382 90.3111 48.2763 90.3111C47.3488 90.3111 46.5587 89.521 46.5587 88.5935C46.5931 87.6317 47.3488 86.8759 48.2763 86.8759ZM48.2763 85.3301C50.0283 85.3301 51.4711 86.7729 51.4711 88.5935C51.4711 90.3798 50.0283 91.857 48.2763 91.857C46.5244 91.857 45.0816 90.4142 45.0816 88.5935C45.0816 86.8072 46.5244 85.3301 48.2763 85.3301ZM38.8639 85.4675V91.8226H37.2837V87.8034L36.2531 91.857H34.7417L33.7455 87.8721V91.8226H32.234V85.4675H34.673L35.4974 89.0401L36.3218 85.4675H38.8639ZM30.0354 85.4675H31.5813V91.8226H30.0354V85.4675ZM27.1842 90.5859H25.8788V86.7385H26.9781C27.5621 86.7385 27.7682 86.9103 27.8026 87.2194C27.8369 87.7004 27.5621 87.9408 27.1155 87.9408H26.7033L26.188 89.0744H27.2186C27.6995 89.0744 28.1804 89.418 28.1117 89.8645C28.043 90.2768 27.6651 90.5859 27.1842 90.5859ZM27.4247 91.8226H24.333V85.4675H27.2873C28.3178 85.4675 29.211 85.7767 29.3484 86.7385C29.4515 87.4599 29.2453 87.9752 28.6957 88.3531C29.5202 88.7309 29.8637 89.6928 29.5545 90.6203C29.2797 91.5134 28.1804 91.8226 27.4247 91.8226Z" fill="#DA243C"/>
<mask id="mask1" mask-type="alpha" maskUnits="userSpaceOnUse" x="0" y="62" width="74" height="65">
<path d="M67.5473 70.8337C64.1121 65.8183 58.3753 62.5205 51.8141 62.5205H19.9011C13.2368 62.5205 8.01534 65.7839 5.26719 71.2803C5.16413 71.4864 4.75191 72.3108 4.54579 72.4826C3.20607 74.3719 2.38162 75.5399 1.45412 76.8796C0.835781 77.7728 0.217446 78.7003 0.0456858 79.7652C-0.126074 80.8301 0.217446 81.895 0.560965 82.9256C1.52282 85.9486 2.48468 88.9372 3.44653 91.9602C3.51524 92.235 3.58394 92.5098 3.58394 92.7846V122.259C3.58394 124.457 5.37024 126.243 7.56877 126.243H66.9977C69.1275 126.243 70.8795 124.491 70.8795 122.362V90.4143C71.6696 87.9066 72.4597 85.4333 73.2841 82.9256C73.6276 81.895 73.9368 80.8301 73.7994 79.7652C73.6276 78.7003 73.0093 77.7728 72.391 76.8796" fill="#00BAE7"/>
</mask>
<g mask="url(#mask1)">
<path opacity="0.15" d="M-13.3303 149.525L25.3604 45.9668L22.3032 44.8246L-16.3875 148.383L-13.3303 149.525Z" fill="white"/>
<path opacity="0.15" d="M-2.43868 157.612L36.252 54.0537L34.7395 53.4886L-3.95118 157.047L-2.43868 157.612Z" fill="white"/>
<path opacity="0.15" d="M-4.78487 153.881L33.9058 50.3232L27.2765 47.8465L-11.4141 151.405L-4.78487 153.881Z" fill="white"/>
<path opacity="0.15" d="M41.451 162.581L80.1416 59.0225L73.5123 56.5457L34.8217 160.104L41.451 162.581Z" fill="white"/>
<path opacity="0.15" d="M33.2776 158.02L71.9683 54.4619L68.9111 53.3197L30.2204 156.878L33.2776 158.02Z" fill="white"/>
<path opacity="0.15" d="M-20.2268 149.433L18.4639 45.875L11.8346 43.3982L-26.856 146.956L-20.2268 149.433Z" fill="white"/>
<path opacity="0.15" d="M-28.4001 144.873L10.2905 41.3145L7.23334 40.1722L-31.4573 143.73L-28.4001 144.873Z" fill="white"/>
</g>
</svg>
