<svg width="726" height="777" viewBox="0 0 726 777" fill="none" xmlns="http://www.w3.org/2000/svg">
<path d="M685.413 776.216H44.8944C36.7922 776.216 30.1328 771.977 30.1328 766.661V22.4678C30.1328 17.2235 36.6812 12.9131 44.8944 12.9131H685.413C693.516 12.9131 700.175 17.1517 700.175 22.4678V766.661C700.064 771.977 693.516 776.216 685.413 776.216Z" fill="#7F9199"/>
<path d="M676.804 761.868H36.285C28.1828 761.868 21.5234 757.637 21.5234 752.331V9.53679C21.6344 4.30231 28.1828 0 36.285 0H676.804C684.906 0 691.565 4.23061 691.565 9.53679V752.331C691.454 757.637 684.906 761.868 676.804 761.868Z" fill="url(#paint0_linear)"/>
<path d="M671.426 210.428H42.8184V37.4722C42.8184 27.2722 51.1377 18.957 61.3427 18.957H652.901C663.106 18.957 671.426 27.2722 671.426 37.4722V210.428Z" fill="#DC5B56"/>
<path d="M263.114 147.678L262.449 147.012C261.45 145.571 254.351 122.954 257.235 100.669C260.674 74.9475 274.872 61.7541 299.608 61.4215C300.274 61.4215 300.939 61.4215 301.605 61.4215C316.025 61.4215 332.775 63.4171 349.081 65.3019C365.497 67.1867 382.469 69.1823 397 69.1823C414.637 69.1823 426.506 66.2997 433.494 60.2019L434.714 59.2041L450.465 63.9715L451.02 64.5258C452.24 66.1888 459.006 85.5909 456.677 107.765C454.015 132.489 440.482 145.017 415.524 146.125C414.969 146.125 414.526 146.125 413.971 146.125C413.195 146.125 412.307 146.125 411.531 146.125C410.643 146.125 409.756 146.125 408.869 146.125C395.114 146.125 378.919 144.684 363.39 143.243C346.973 141.58 331 140.138 317.023 140.138C297.944 140.138 285.077 143.132 277.867 149.341L276.869 150.228L263.114 147.678Z" fill="white"/>
<path d="M449.023 66.2975L435.49 62.1953C411.309 83.0387 344.089 63.5257 299.608 64.0801C279.309 64.3018 263.669 73.7257 260.008 100.999C257.013 123.395 264.445 145.236 264.445 145.236L275.981 147.232C300.163 126.388 370.932 145.347 415.302 143.462C434.714 142.686 450.798 134.815 453.793 107.43C456.455 84.7017 449.023 66.2975 449.023 66.2975Z" fill="#00008B"/>
<path d="M449.023 66.2975L435.49 62.1953C411.309 83.0387 344.089 63.5257 299.608 64.0801C279.309 64.3018 263.669 73.7257 260.008 100.999C257.013 123.395 264.445 145.236 264.445 145.236L275.981 147.232C300.163 126.388 370.932 145.347 415.302 143.462C434.714 142.686 450.798 134.815 453.793 107.43C456.455 84.7017 449.023 66.2975 449.023 66.2975Z" stroke="#00008B" stroke-width="5.144" stroke-miterlimit="10" stroke-linejoin="round"/>
<path d="M447.803 69.0712C447.803 69.0712 465.44 121.512 433.826 137.477C401.991 153.664 306.042 118.519 266.442 143.464C266.553 142.245 248.916 88.695 280.085 70.5125C310.368 52.9952 399.107 92.2429 447.803 69.0712Z" fill="white"/>
<path d="M306.376 105.215C308.927 103.552 310.258 101.224 310.258 98.1192C310.258 91.9105 306.154 88.6953 297.946 88.6953H280.087V125.171H298.389C304.601 125.171 311.922 122.289 311.922 114.306C311.922 109.871 309.925 106.767 306.376 105.215ZM297.28 117.521H289.515V96.1235H296.171C300.275 96.1235 300.83 97.7866 300.83 99.3387C300.83 101.556 299.499 102.776 296.726 102.776H294.507L291.179 109.539H297.28C300.608 109.539 302.161 110.869 302.161 113.752C302.383 115.415 301.828 117.521 297.28 117.521Z" fill="#FD0000"/>
<path d="M323.679 88.585H314.14V125.061H323.679V88.585Z" fill="#FD0000"/>
<path d="M346.752 109.317L342.093 88.585H326.896V124.95H336.436V102.665L342.093 124.95H351.633L357.29 102.554V124.95H366.829V88.585H351.633L346.752 109.317Z" fill="#FD0000"/>
<path d="M396.669 105.436C399.22 103.773 400.551 101.445 400.551 98.3409C400.551 92.1322 396.447 88.917 388.239 88.917H370.38V125.282H388.571C394.783 125.282 402.104 122.399 402.104 114.417C402.215 110.093 400.219 106.989 396.669 105.436ZM387.573 117.743H379.808V96.3452H386.464C390.568 96.3452 391.123 98.0083 391.123 99.5604C391.123 101.778 389.792 102.997 387.019 102.997H384.8L381.472 109.76H387.573C390.901 109.76 392.454 111.091 392.454 113.973C392.676 115.526 392.121 117.743 387.573 117.743Z" fill="#FD0000"/>
<path d="M422.623 88.251C412.085 88.251 403.433 96.4553 403.433 106.544C403.433 116.633 412.085 124.838 422.623 124.838C433.271 124.838 441.812 116.633 441.812 106.544C441.923 96.4553 433.271 88.251 422.623 88.251ZM422.623 116.19C417.187 116.19 412.528 111.755 412.528 106.544C412.528 101.334 417.187 96.8988 422.623 96.8988C428.169 96.8988 432.606 101.223 432.606 106.544C432.606 111.866 428.169 116.19 422.623 116.19Z" fill="#FD0000"/>
<path d="M292.287 84.1494C291.511 84.5929 290.623 84.8146 289.736 85.0363C288.849 85.2581 287.961 85.2581 286.963 85.2581C285.965 85.2581 285.077 85.1472 284.19 84.8146C283.302 84.482 282.637 84.1494 281.971 83.5951C281.306 83.0407 280.862 82.3755 280.529 81.7103C280.196 80.9342 279.975 80.1581 279.975 79.1603C279.975 78.2733 280.196 77.3864 280.529 76.6103C280.862 75.8342 281.306 75.169 281.971 74.7255C282.637 74.1712 283.302 73.8386 284.19 73.506C285.077 73.1734 285.965 73.0625 286.963 73.0625C287.961 73.0625 288.959 73.1734 289.736 73.3951C290.512 73.6168 291.4 73.9494 291.954 74.5038L289.958 76.4994C289.625 76.1668 289.181 75.8342 288.627 75.7234C288.183 75.5016 287.517 75.3907 286.852 75.3907C286.297 75.3907 285.743 75.5016 285.188 75.7234C284.744 75.9451 284.301 76.1668 283.968 76.4994C283.635 76.832 283.302 77.2755 283.191 77.719C282.97 78.1625 282.859 78.7168 282.859 79.1603C282.859 79.7146 282.97 80.1581 283.191 80.6016C283.413 81.0451 283.635 81.4885 283.968 81.8212C284.301 82.1538 284.744 82.3755 285.188 82.5972C285.632 82.819 286.186 82.9298 286.852 82.9298C287.517 82.9298 287.961 82.819 288.405 82.7081C288.849 82.5972 289.181 82.4864 289.514 82.3755V80.4907H287.185V78.1625H292.176L292.287 84.1494Z" fill="#00008B"/>
<path d="M294.064 73.3945H298.945C299.61 73.3945 300.165 73.5054 300.83 73.6163C301.496 73.7271 301.94 73.9489 302.383 74.1706C302.827 74.3924 303.16 74.8358 303.382 75.2793C303.604 75.7228 303.714 76.2771 303.714 76.9423C303.714 77.7184 303.493 78.4945 303.049 79.0489C302.605 79.6032 301.94 79.9358 300.941 80.1575L304.158 85.0358H300.83L298.168 80.3793H296.726V85.0358H293.953L294.064 73.3945ZM296.837 78.1619H298.501C298.723 78.1619 299.056 78.1619 299.277 78.1619C299.61 78.1619 299.832 78.051 300.054 78.051C300.276 77.9402 300.498 77.8293 300.609 77.7184C300.72 77.4967 300.83 77.275 300.83 76.9423C300.83 76.6097 300.72 76.388 300.609 76.2771C300.498 76.0554 300.276 75.9445 300.054 75.8337C299.832 75.7228 299.61 75.7228 299.388 75.6119C299.167 75.6119 298.834 75.6119 298.612 75.6119H296.726L296.837 78.1619Z" fill="#00008B"/>
<path d="M315.803 80.4901C315.803 81.1554 315.692 81.8206 315.47 82.3749C315.248 82.9293 314.916 83.4836 314.472 83.9271C314.028 84.3706 313.474 84.7032 312.808 84.9249C312.143 85.1466 311.366 85.2575 310.479 85.2575C309.591 85.2575 308.815 85.1466 308.149 84.9249C307.484 84.7032 306.929 84.3706 306.485 83.9271C306.042 83.4836 305.709 83.0401 305.487 82.3749C305.265 81.8206 305.154 81.1554 305.154 80.4901V73.3945H307.927V80.3793C307.927 80.7119 308.038 81.0445 308.149 81.3771C308.26 81.7097 308.482 81.9314 308.704 82.1532C308.926 82.3749 309.259 82.5967 309.48 82.7075C309.813 82.8184 310.146 82.9293 310.479 82.9293C310.811 82.9293 311.144 82.8184 311.477 82.7075C311.81 82.5967 312.032 82.3749 312.253 82.1532C312.475 81.9314 312.697 81.7097 312.808 81.3771C312.919 81.0445 313.03 80.7119 313.03 80.3793V73.3945H315.803V80.4901Z" fill="#00008B"/>
<path d="M317.688 73.3945H322.458C323.124 73.3945 323.789 73.3945 324.344 73.5054C324.899 73.6163 325.453 73.838 325.897 74.0598C326.341 74.2815 326.673 74.725 326.895 75.1684C327.117 75.6119 327.228 76.1663 327.228 76.8315C327.228 77.4967 327.117 78.051 326.895 78.4945C326.673 78.938 326.341 79.2706 325.897 79.6032C325.453 79.8249 325.009 80.0467 324.455 80.1575C323.9 80.2684 323.235 80.3793 322.569 80.3793H320.462V84.9249H317.688V73.3945ZM320.462 78.2728H322.347C322.569 78.2728 322.791 78.2728 323.124 78.1619C323.346 78.1619 323.567 78.051 323.789 77.9402C324.011 77.8293 324.122 77.7184 324.233 77.4967C324.344 77.275 324.455 77.0532 324.455 76.8315C324.455 76.4989 324.344 76.2771 324.233 76.1663C324.122 75.9445 323.9 75.8337 323.678 75.7228C323.457 75.6119 323.235 75.6119 322.902 75.501C322.569 75.501 322.347 75.501 322.125 75.501H320.683V78.2728H320.462Z" fill="#00008B"/>
<path d="M328.228 79.1603C328.228 78.2733 328.449 77.3864 328.782 76.6103C329.115 75.8342 329.559 75.169 330.224 74.7255C330.89 74.1712 331.555 73.8386 332.443 73.506C333.33 73.1734 334.217 73.0625 335.216 73.0625C336.214 73.0625 337.101 73.1734 337.989 73.506C338.876 73.8386 339.542 74.1712 340.207 74.7255C340.873 75.2799 341.317 75.9451 341.649 76.6103C341.982 77.3864 342.204 78.1625 342.204 79.1603C342.204 80.0472 341.982 80.9342 341.649 81.7103C341.317 82.4864 340.873 83.1516 340.207 83.5951C339.542 84.1494 338.876 84.482 337.989 84.8146C337.101 85.1472 336.214 85.2581 335.216 85.2581C334.217 85.2581 333.33 85.1472 332.443 84.8146C331.555 84.482 330.89 84.1494 330.224 83.5951C329.559 83.0407 329.115 82.3755 328.782 81.7103C328.449 80.9342 328.228 80.0472 328.228 79.1603ZM331.222 79.1603C331.222 79.7146 331.333 80.1581 331.555 80.6016C331.777 81.0451 331.999 81.4885 332.332 81.8212C332.664 82.1538 333.108 82.3755 333.552 82.5972C333.996 82.819 334.55 82.9298 335.216 82.9298C335.881 82.9298 336.325 82.819 336.88 82.5972C337.323 82.3755 337.767 82.1538 338.1 81.8212C338.433 81.4885 338.765 81.0451 338.876 80.6016C339.098 80.1581 339.209 79.6038 339.209 79.1603C339.209 78.6059 339.098 78.1625 338.876 77.719C338.654 77.2755 338.433 76.832 338.1 76.4994C337.767 76.1668 337.323 75.9451 336.88 75.7234C336.436 75.5016 335.881 75.3907 335.216 75.3907C334.55 75.3907 334.107 75.5016 333.552 75.7234C333.108 75.9451 332.664 76.1668 332.332 76.4994C331.999 76.832 331.666 77.2755 331.555 77.719C331.333 78.1625 331.222 78.6059 331.222 79.1603Z" fill="#00008B"/>
<path d="M447.692 138.918C447.692 138.253 447.803 137.587 448.136 137.033C448.358 136.479 448.802 135.924 449.245 135.481C449.689 135.037 450.244 134.705 450.798 134.483C451.353 134.261 452.018 134.15 452.684 134.15C453.35 134.15 454.015 134.261 454.57 134.483C455.124 134.705 455.679 135.037 456.123 135.481C456.566 135.924 456.899 136.368 457.232 136.922C457.454 137.476 457.676 138.142 457.676 138.807C457.676 139.472 457.565 140.137 457.232 140.692C457.01 141.246 456.566 141.8 456.123 142.244C455.679 142.687 455.124 143.02 454.57 143.242C454.015 143.463 453.35 143.574 452.684 143.574C452.018 143.574 451.353 143.463 450.798 143.242C450.244 143.02 449.689 142.687 449.245 142.244C448.802 141.8 448.469 141.357 448.136 140.803C447.803 140.248 447.692 139.583 447.692 138.918ZM448.58 138.918C448.58 139.472 448.691 140.026 448.913 140.47C449.134 140.913 449.467 141.357 449.8 141.689C450.133 142.022 450.576 142.355 451.131 142.576C451.686 142.798 452.129 142.909 452.795 142.909C453.46 142.909 453.904 142.798 454.459 142.576C455.013 142.355 455.457 142.133 455.79 141.689C456.123 141.246 456.455 140.913 456.677 140.359C456.899 139.916 457.01 139.361 457.01 138.807C457.01 138.253 456.899 137.698 456.677 137.255C456.455 136.811 456.123 136.368 455.79 136.035C455.457 135.703 455.013 135.37 454.459 135.148C453.904 134.926 453.46 134.816 452.795 134.816C452.24 134.816 451.686 134.926 451.131 135.148C450.576 135.37 450.133 135.592 449.8 136.035C449.467 136.368 449.134 136.811 448.913 137.366C448.691 137.809 448.58 138.363 448.58 138.918ZM450.909 136.257H453.017C453.682 136.257 454.237 136.368 454.57 136.59C454.902 136.811 455.013 137.255 455.013 137.809C455.013 138.253 454.902 138.696 454.57 138.918C454.237 139.14 453.904 139.25 453.46 139.361L455.124 141.8H454.237L452.684 139.472H451.686V141.8H450.909V136.257ZM451.686 138.696H452.684C452.906 138.696 453.017 138.696 453.239 138.696C453.46 138.696 453.571 138.696 453.793 138.585C453.904 138.474 454.015 138.474 454.126 138.363C454.237 138.253 454.237 138.031 454.237 137.809C454.237 137.587 454.237 137.476 454.126 137.366C454.015 137.255 453.904 137.144 453.793 137.144C453.682 137.033 453.571 137.033 453.35 137.033C453.239 137.033 453.017 137.033 452.906 137.033H451.686V138.696Z" fill="#00008B"/>
<defs>
<linearGradient id="paint0_linear" x1="-101.434" y1="85.0605" x2="438.017" y2="920.052" gradientUnits="userSpaceOnUse">
<stop stop-color="#D1E2EF"/>
<stop offset="0.7904" stop-color="#A5B8C4"/>
</linearGradient>
</defs>
</svg>
