<svg width="519" height="519" viewBox="0 0 519 519" fill="none" xmlns="http://www.w3.org/2000/svg">
<path d="M371.842 256.999C364.534 254.213 356.568 253.636 348.936 255.342C343.257 256.434 337.723 258.172 332.439 260.521L325.899 246.496C324.708 244.157 322.639 242.385 320.145 241.568C317.65 240.751 314.934 240.955 312.59 242.135C310.179 243.172 308.277 245.122 307.3 247.558C306.322 249.994 306.35 252.718 307.375 255.133L319.715 281.596L313.531 279.39C310.813 278.43 307.827 278.575 305.214 279.793C302.601 281.011 300.571 283.206 299.559 285.905C299.045 287.244 298.806 288.672 298.854 290.104C298.902 291.537 299.238 292.946 299.84 294.247C300.967 296.789 303.054 298.781 305.646 299.787L324.789 308.644C327.124 312.099 330.081 315.09 333.509 317.465C336.072 319.325 338.917 320.761 341.936 321.719L344.305 326.799C344.635 327.528 345.231 328.102 345.971 328.404C346.711 328.706 347.539 328.713 348.284 328.423L385.094 311.259C385.795 310.874 386.322 310.236 386.566 309.474C386.811 308.713 386.754 307.887 386.408 307.167L383.076 300.022C385.389 291.405 384.546 282.246 380.699 274.197L373.295 258.319C372.977 257.725 372.464 257.258 371.842 256.999V256.999ZM375.468 276.797C378.918 283.754 379.658 291.745 377.546 299.218C377.184 299.966 377.123 300.825 377.376 301.616L380.042 307.332L348.657 321.967L346.83 318.051C346.629 317.617 346.324 317.24 345.942 316.951C345.561 316.663 345.114 316.473 344.642 316.398C341.9 315.696 339.327 314.454 337.074 312.742C334.057 310.674 331.498 308.007 329.555 304.908C329.259 304.349 328.79 303.9 328.218 303.631L308.016 294.3C307.397 294.08 306.828 293.738 306.342 293.296C305.856 292.853 305.462 292.318 305.184 291.723C304.907 291.127 304.75 290.482 304.723 289.825C304.697 289.168 304.801 288.513 305.03 287.896C305.501 286.632 306.451 285.603 307.674 285.033C308.897 284.463 310.295 284.397 311.566 284.848L323.207 289.085L327.082 297.395L331.141 292.28L312.668 252.665C312.31 251.653 312.359 250.541 312.805 249.564C313.251 248.587 314.059 247.821 315.058 247.427C316.002 246.915 317.107 246.789 318.142 247.075C319.177 247.362 320.061 248.039 320.607 248.964L335.168 280.19L340.991 278.86L334.92 265.84C337.161 264.848 339.452 263.973 341.784 263.219L348.238 277.059L352.904 276.011L346.302 261.853C347.485 261.559 348.708 261.279 349.982 261.039C351.521 260.759 353.074 260.561 354.635 260.448L360.99 274.076L365.656 273.028L359.77 260.405C362.742 260.498 365.686 261 368.52 261.899L375.468 276.797Z" fill="#FCB527"/>
<g clip-path="url(#clip0)">
<path d="M218.228 296.476L278.56 287.703C283.065 287.037 286.425 283.113 286.425 278.56L286.092 178.47C286.092 173.954 282.843 170.179 278.412 169.401L218.375 159.333C217.083 159.111 216.123 159 214.646 159C213.538 159 212.062 159.037 210.732 159.185L132.086 167.44C127.471 167.921 124 171.77 124 176.434V280.3C124 285.001 127.545 288.888 132.197 289.332L213.206 296.809C213.391 296.809 213.575 296.846 213.76 296.846L218.228 296.476ZM131.754 280.3V176.434C131.754 175.768 132.234 175.213 132.898 175.139L210.031 167.069V288.74L132.935 281.596C132.271 281.522 131.754 281.003 131.754 280.3ZM277.452 280.004L220 288.37V167.551C220 167.514 220 167.514 220 167.477L277.157 177.064C277.858 177.175 278.338 177.767 278.338 178.47L278.671 278.56C278.708 279.301 278.154 279.893 277.452 280.004Z" fill="white"/>
<path d="M156.677 242.729C156.972 243.099 157.268 243.247 157.711 243.396L159.188 243.729C159.335 243.729 159.335 243.729 159.52 243.729C159.963 243.729 160.406 243.544 160.701 243.173C162.178 241.508 166.978 241.915 170.929 242.359C173.366 242.692 175.951 242.766 178.092 242.729C183.298 242.433 184.738 238.176 185.034 234.845C185.034 231.921 184.554 227.146 183.335 226.331C183.188 226.183 183.003 226.183 182.855 225.961L180.972 225.332C180.381 225.184 179.754 225.369 179.311 225.776C177.76 227.479 172.886 226.998 169.083 226.59C166.794 226.294 164.394 226.072 162.474 226.331C158.597 226.479 156.123 229.293 155.68 234.29C155.237 237.806 156.049 242.026 156.677 242.729ZM158.449 234.29C158.892 230.144 160.812 229.552 162.621 229.478H162.954C164.763 229.404 166.978 229.7 168.935 229.774C173.477 230.292 177.908 230.699 180.529 228.774L180.861 228.589L181.637 228.737L181.785 229.293C181.785 230.736 182.117 232.587 181.932 234.586C181.6 237.695 180.381 239.213 177.797 239.287C175.803 239.509 173.514 239.25 171.077 238.954C166.572 238.546 162.215 238.139 159.705 239.842L158.818 240.397L158.671 239.139C158.449 237.88 158.154 236.103 158.449 234.29Z" fill="white"/>
<path d="M187.249 202.16L179.902 202.642L180.308 202.271C181.342 201.42 182.634 200.347 183.483 198.681C184.443 196.83 184.665 194.054 183.188 192.351C181.822 190.797 179.902 191.019 178.499 191.204C178.351 191.204 178.203 191.241 178.092 191.241C174.732 191.611 171.409 189.982 169.415 186.984C169.342 186.836 169.231 186.651 169.157 186.503C168.603 185.651 167.975 184.689 166.979 184.097C166.055 183.579 164.874 183.616 163.914 184.134C163.102 184.578 162.511 185.392 162.252 186.355C161.92 187.576 162.252 188.687 162.437 189.353L164.357 195.868C164.135 195.868 163.951 195.831 163.729 195.757C163.508 195.646 163.212 195.461 162.917 195.275C162.289 194.868 161.514 194.35 160.517 194.313C159.151 194.239 157.785 195.09 156.972 196.534C156.197 197.83 156.049 199.532 156.382 201.013C156.677 202.234 157.379 203.16 158.08 203.9L153.354 204.159C148.222 204.492 144.049 209.86 144.049 216.078V253.686C144.049 259.905 148.222 264.976 153.354 264.939L187.286 264.717C192.825 264.68 197.366 259.312 197.366 252.761V213.413C197.366 206.861 192.788 201.827 187.249 202.16ZM194.006 218.188V248.06L147.077 249.096V220.483L194.006 218.188ZM165.465 187.687C165.834 187.946 166.203 188.465 166.609 189.094C166.683 189.242 166.831 189.39 166.942 189.612C169.563 193.536 173.883 195.646 178.24 195.164C178.388 195.164 178.572 195.127 178.72 195.127C179.569 195.016 180.529 194.905 180.862 195.238C181.046 195.461 181.046 196.238 180.714 196.793C180.234 197.644 179.422 198.385 178.535 199.088L173.846 203.012L169.895 203.271L165.465 187.946C165.465 187.909 165.428 187.724 165.391 187.613C165.428 187.687 165.428 187.687 165.465 187.687ZM161.477 202.123C160.517 201.42 159.631 200.717 159.446 199.865C159.372 199.495 159.409 199.014 159.594 198.718C159.742 198.422 160.037 198.237 160.259 198.274C160.517 198.311 160.923 198.57 161.329 198.792C161.699 199.051 162.105 199.273 162.548 199.458C163.471 199.828 164.505 199.865 165.465 199.643L166.609 203.493L163.692 203.678L161.477 202.123ZM153.354 208.12L187.286 206.084C190.979 205.862 194.006 209.23 194.006 213.598L147.077 216.078C147.077 211.932 149.883 208.305 153.354 208.12ZM187.249 260.978L153.391 261.311C149.92 261.348 147.151 257.98 147.151 253.797V253.464L194.043 252.65V252.983C194.006 257.314 190.942 260.941 187.249 260.978Z" fill="white"/>
<path d="M235.397 228.96L267.151 230.958C268.591 231.07 269.92 229.811 270.843 227.627C271.729 225.443 272.062 222.556 271.729 219.706L270.105 205.455C269.625 201.087 267.742 197.904 265.489 197.644L237.206 194.387C234.769 194.091 232.665 197.015 232.111 201.531L230.265 216.337C229.896 219.336 230.265 222.445 231.262 224.925C232.332 227.442 233.846 228.886 235.397 228.96ZM232.849 217.67L234.696 202.938C234.991 200.68 236.062 199.162 237.28 199.31L265.563 202.345C266.708 202.456 267.668 204.085 267.926 206.306L269.588 220.594C269.736 222.075 269.588 223.518 269.108 224.666C268.628 225.776 267.963 226.369 267.225 226.332L235.508 224.074C234.696 224 233.92 223.259 233.403 222.038C232.849 220.742 232.665 219.188 232.849 217.67Z" fill="white"/>
<path d="M245.957 219.002L246.658 219.335C246.732 219.335 246.732 219.335 246.806 219.335C247.028 219.335 247.212 219.224 247.36 218.965C248.062 217.781 250.277 218.373 252.049 218.928C253.157 219.298 254.302 219.52 255.262 219.594C257.551 219.631 258.178 216.67 258.326 214.227C258.326 212.08 258.105 208.601 257.588 207.898C257.514 207.749 257.44 207.749 257.366 207.601L256.554 206.972C256.295 206.824 256 206.935 255.815 207.157C255.114 208.305 252.935 207.564 251.237 206.972C250.203 206.602 249.095 206.232 248.172 206.269C246.363 206.084 245.182 208.046 244.96 211.784C244.738 214.449 245.182 217.781 245.44 218.373C245.588 218.706 245.735 218.854 245.957 219.002ZM246.289 212.08C246.511 209.008 247.434 208.675 248.246 208.749H248.394C249.243 208.823 250.24 209.193 251.163 209.415C253.231 210.155 255.188 210.748 256.369 209.489L256.517 209.378L256.849 209.563L256.923 209.97C256.923 211.044 257.071 212.413 256.997 213.82C256.849 216.115 256.295 217.077 255.188 216.966C254.302 217.04 253.305 216.67 252.16 216.3C250.092 215.708 248.098 215.153 246.917 216.263L246.511 216.633L246.437 215.671C246.289 214.745 246.142 213.45 246.289 212.08Z" fill="white"/>
<path d="M270.105 241.064C269.625 236.733 267.742 233.623 265.489 233.512L237.206 231.847C234.769 231.699 232.665 234.734 232.111 239.25L230.265 254.13C229.896 257.128 230.265 260.238 231.262 262.644C232.259 265.05 233.772 266.456 235.397 266.456L267.151 266.715C268.591 266.715 269.92 265.42 270.843 263.162C271.729 260.941 272.062 258.017 271.729 255.167L270.105 241.064ZM269.034 260.238C268.554 261.348 267.889 262.014 267.151 262.014L235.397 261.533C234.585 261.533 233.809 260.793 233.292 259.608C232.776 258.424 232.591 256.795 232.776 255.241L234.622 240.397C234.917 238.102 235.988 236.548 237.206 236.622L265.489 238.102C266.634 238.176 267.594 239.731 267.852 241.952L269.514 256.166C269.662 257.647 269.477 259.127 269.034 260.238Z" fill="white"/>
<path d="M257.551 244.173C257.477 244.025 257.403 244.025 257.329 243.877L256.517 243.284C256.258 243.136 255.963 243.247 255.778 243.507C255.077 244.691 252.898 244.062 251.2 243.581C250.166 243.247 249.058 242.951 248.135 243.025C246.326 242.951 245.144 244.95 244.923 248.726C244.701 251.391 245.144 254.722 245.403 255.278C245.551 255.574 245.698 255.685 245.883 255.833L246.584 256.129C246.658 256.129 246.658 256.129 246.732 256.129C246.954 256.129 247.138 256.018 247.286 255.722C247.988 254.5 250.203 254.981 251.975 255.426C253.083 255.722 254.228 255.907 255.188 255.907C257.477 255.833 258.104 252.797 258.252 250.391C258.289 248.319 258.068 244.802 257.551 244.173ZM256.96 250.095C256.812 252.39 256.258 253.39 255.151 253.353C254.264 253.464 253.268 253.168 252.123 252.872C250.055 252.39 248.061 251.946 246.88 253.131L246.474 253.538L246.4 252.575C246.326 251.613 246.178 250.243 246.326 248.948C246.548 245.876 247.471 245.505 248.283 245.505H248.431C249.28 245.542 250.277 245.839 251.2 246.024C253.268 246.653 255.224 247.134 256.406 245.839L256.554 245.691L256.886 245.839L256.96 246.246C256.886 247.319 257.034 248.652 256.96 250.095Z" fill="white"/>
</g>
<g clip-path="url(#clip1)">
<path d="M258.41 332.538C258.41 345.769 238.712 354.59 214.409 354.59C194.656 354.59 178.718 349.441 173.154 341.359" stroke="white" stroke-width="7" stroke-linecap="round" stroke-linejoin="round"/>
<path d="M168.667 332.537C168.667 319.307 188.365 310.486 212.668 310.486C232.425 310.486 248.359 315.635 253.923 323.717" stroke="white" stroke-width="7" stroke-linecap="round" stroke-linejoin="round"/>
<path d="M191.102 343.562L173.154 341.357L168.667 350.177" stroke="white" stroke-width="7" stroke-linecap="round" stroke-linejoin="round"/>
<path d="M235.974 321.511L253.923 323.716L258.41 314.895" stroke="white" stroke-width="7" stroke-linecap="round" stroke-linejoin="round"/>
</g>
<defs>
<clipPath id="clip0">
<rect width="162.462" height="137.846" fill="white" transform="translate(124 159)"/>
</clipPath>
<clipPath id="clip1">
<rect width="107.692" height="52.9231" fill="white" transform="translate(159.692 306.077)"/>
</clipPath>
</defs>
</svg>
