<svg width="882" height="199" viewBox="0 0 882 199" fill="none" xmlns="http://www.w3.org/2000/svg">
<path d="M852.302 27.9812C851.536 28.6977 850.347 28.7004 849.577 27.9874L847.745 26.2898C846.967 25.5686 845.76 25.5809 844.997 26.3177L842.928 28.3139C842.101 29.1119 842.115 30.4411 842.959 31.2214L849.606 37.3682C850.375 38.08 851.564 38.0767 852.33 37.3607L866.05 24.5312C866.889 23.7466 866.896 22.418 866.065 21.6244L863.988 19.6393C863.221 18.9065 862.015 18.8999 861.24 19.6244L852.302 27.9812Z" fill="white"/>
<circle cx="854.5" cy="27.5" r="24" stroke="white" stroke-width="7"/>
<rect x="6" y="35" width="158" height="158" rx="8" stroke="white" stroke-width="12"/>
<path d="M61.4592 140.13C62.0135 140.685 62.4887 140.922 63.2806 141.16L65.8939 141.714C66.1315 141.714 66.1315 141.714 66.4483 141.714C67.2402 141.714 68.0321 141.476 68.5072 140.922C71.1206 138.547 79.5148 139.339 86.3253 140.13C90.5225 140.685 94.9572 140.922 98.6 140.922C107.469 140.685 109.845 134.667 110.4 129.917C110.4 125.721 109.608 118.912 107.549 117.645C107.311 117.408 106.994 117.408 106.757 117.091L103.589 116.062C102.56 115.824 101.53 116.062 100.738 116.616C98.1248 118.991 89.7305 117.962 83.1577 117.17C79.1981 116.616 75.0009 116.141 71.5957 116.379C64.7852 116.379 60.3505 120.337 59.5586 127.621C58.8459 132.846 60.3505 139.101 61.4592 140.13ZM64.5477 127.859C65.3396 121.842 68.7448 121.05 71.9125 121.05H72.4668C75.6345 121.05 79.5148 121.604 82.9201 121.842C90.76 122.871 98.3624 123.663 102.797 121.05L103.351 120.812L104.698 121.05L104.935 121.842C104.935 123.9 105.49 126.592 105.173 129.442C104.619 133.876 102.56 136.013 98.1248 136.013C94.7196 136.251 90.76 135.776 86.5629 135.222C78.7229 134.43 71.1206 133.638 66.6858 136.013L65.102 136.805L64.8644 134.984C64.5477 133.084 64.0725 130.471 64.5477 127.859Z" fill="white"/>
<path d="M114.121 83.68H101.767L102.48 83.205C104.222 82.0966 106.439 80.6715 107.865 78.3755C109.449 75.842 109.845 71.8834 107.39 69.3498C105.093 66.9747 101.846 67.133 99.4705 67.2122C99.2329 67.2122 98.9954 67.2122 98.7578 67.2122C93.056 67.3705 87.3542 64.6787 83.8698 60.1659C83.7114 59.9284 83.553 59.6908 83.3947 59.4533C82.4444 58.1866 81.3357 56.6823 79.5935 55.7322C78.0096 54.8613 75.9507 54.7822 74.2876 55.4155C72.8622 55.9698 71.8327 57.0782 71.3576 58.4241C70.8032 60.1659 71.3576 61.8285 71.6743 62.7786L75.0004 72.4376C74.6044 72.4376 74.2876 72.3584 73.8917 72.2C73.4957 72.0417 73.0206 71.725 72.4662 71.4083C71.3576 70.7749 70.0113 69.9041 68.2691 69.7457C65.8933 69.5082 63.4384 70.6166 62.013 72.5959C60.6667 74.4169 60.3499 76.8712 60.9835 79.088C61.5378 80.909 62.7257 82.3341 63.9928 83.4425H55.6777C46.4914 83.4425 38.9683 90.9638 38.9683 100.148V155.648C38.9683 164.831 46.4914 172.353 55.6777 172.353H114.2C123.386 172.353 130.91 164.831 130.91 155.648V100.385C130.91 91.2014 123.386 83.68 114.121 83.68ZM125.366 106.877V148.997H44.4325V106.877H125.366ZM76.9801 60.7201C77.6137 61.1159 78.2472 61.9077 78.9599 62.8577C79.1183 63.0952 79.3559 63.3328 79.5143 63.6495C84.0282 69.5874 91.4722 73.0709 98.9162 72.8334C99.1537 72.8334 99.4705 72.8334 99.7081 72.8334C101.134 72.7542 102.797 72.6751 103.351 73.2293C103.668 73.546 103.668 74.6544 103.113 75.4461C102.321 76.6337 100.896 77.5838 99.3913 78.5338L91.4722 83.68H84.6617L76.9801 61.1159C76.9801 61.0368 76.901 60.7993 76.8218 60.6409C76.901 60.7201 76.901 60.7201 76.9801 60.7201ZM70.0113 81.2257C68.3483 80.1173 66.7645 79.0089 66.4477 77.7421C66.2893 77.1879 66.3685 76.4753 66.6853 76.0795C66.9228 75.6836 67.4772 75.4461 67.8731 75.5253C68.3483 75.6044 69.061 76.0003 69.7737 76.3962C70.4073 76.792 71.12 77.1879 71.9119 77.5046C73.4957 78.138 75.3171 78.2963 76.9801 78.0588L78.9599 83.7592H73.8917L70.0113 81.2257ZM55.6777 89.2221H114.2C120.377 89.2221 125.366 94.2099 125.366 100.385H44.4325C44.4325 94.2891 49.5007 89.2221 55.6777 89.2221ZM114.121 167.127H55.6777C49.5007 167.127 44.5117 162.14 44.5117 155.964V155.489H125.366V155.964C125.366 162.06 120.298 167.127 114.121 167.127Z" fill="white"/>
<rect x="223" y="35" width="158" height="158" rx="8" stroke="white" stroke-width="12"/>
<path d="M278.459 140.13C279.014 140.685 279.489 140.922 280.281 141.16L282.894 141.714C283.131 141.714 283.131 141.714 283.448 141.714C284.24 141.714 285.032 141.476 285.507 140.922C288.121 138.547 296.515 139.339 303.325 140.13C307.522 140.685 311.957 140.922 315.6 140.922C324.469 140.685 326.845 134.667 327.4 129.917C327.4 125.721 326.608 118.912 324.549 117.645C324.311 117.408 323.994 117.408 323.757 117.091L320.589 116.062C319.56 115.824 318.53 116.062 317.738 116.616C315.125 118.991 306.731 117.962 300.158 117.17C296.198 116.616 292.001 116.141 288.596 116.379C281.785 116.379 277.351 120.337 276.559 127.621C275.846 132.846 277.351 139.101 278.459 140.13ZM281.548 127.859C282.34 121.842 285.745 121.05 288.912 121.05H289.467C292.634 121.05 296.515 121.604 299.92 121.842C307.76 122.871 315.362 123.663 319.797 121.05L320.351 120.812L321.698 121.05L321.935 121.842C321.935 123.9 322.49 126.592 322.173 129.442C321.619 133.876 319.56 136.013 315.125 136.013C311.72 136.251 307.76 135.776 303.563 135.222C295.723 134.43 288.121 133.638 283.686 136.013L282.102 136.805L281.864 134.984C281.548 133.084 281.073 130.471 281.548 127.859Z" fill="white"/>
<path d="M331.121 83.68H318.767L319.48 83.205C321.222 82.0966 323.439 80.6715 324.865 78.3755C326.449 75.842 326.845 71.8834 324.39 69.3498C322.093 66.9747 318.846 67.133 316.471 67.2122C316.233 67.2122 315.995 67.2122 315.758 67.2122C310.056 67.3705 304.354 64.6787 300.87 60.1659C300.711 59.9284 300.553 59.6908 300.395 59.4533C299.444 58.1866 298.336 56.6823 296.593 55.7322C295.01 54.8613 292.951 54.7822 291.288 55.4155C289.862 55.9698 288.833 57.0782 288.358 58.4241C287.803 60.1659 288.358 61.8285 288.674 62.7786L292 72.4376C291.604 72.4376 291.288 72.3584 290.892 72.2C290.496 72.0417 290.021 71.725 289.466 71.4083C288.358 70.7749 287.011 69.9041 285.269 69.7457C282.893 69.5082 280.438 70.6166 279.013 72.5959C277.667 74.4169 277.35 76.8712 277.983 79.088C278.538 80.909 279.726 82.3341 280.993 83.4425H272.678C263.491 83.4425 255.968 90.9638 255.968 100.148V155.648C255.968 164.831 263.491 172.353 272.678 172.353H331.2C340.386 172.353 347.91 164.831 347.91 155.648V100.385C347.91 91.2014 340.386 83.68 331.121 83.68ZM342.366 106.877V148.997H261.432V106.877H342.366ZM293.98 60.7201C294.614 61.1159 295.247 61.9077 295.96 62.8577C296.118 63.0952 296.356 63.3328 296.514 63.6495C301.028 69.5874 308.472 73.0709 315.916 72.8334C316.154 72.8334 316.471 72.8334 316.708 72.8334C318.134 72.7542 319.797 72.6751 320.351 73.2293C320.668 73.546 320.668 74.6544 320.113 75.4461C319.321 76.6337 317.896 77.5838 316.391 78.5338L308.472 83.68H301.662L293.98 61.1159C293.98 61.0368 293.901 60.7993 293.822 60.6409C293.901 60.7201 293.901 60.7201 293.98 60.7201ZM287.011 81.2257C285.348 80.1173 283.764 79.0089 283.448 77.7421C283.289 77.1879 283.368 76.4753 283.685 76.0795C283.923 75.6836 284.477 75.4461 284.873 75.5253C285.348 75.6044 286.061 76.0003 286.774 76.3962C287.407 76.792 288.12 77.1879 288.912 77.5046C290.496 78.138 292.317 78.2963 293.98 78.0588L295.96 83.7592H290.892L287.011 81.2257ZM272.678 89.2221H331.2C337.377 89.2221 342.366 94.2099 342.366 100.385H261.432C261.432 94.2891 266.501 89.2221 272.678 89.2221ZM331.121 167.127H272.678C266.501 167.127 261.512 162.14 261.512 155.964V155.489H342.366V155.964C342.366 162.06 337.298 167.127 331.121 167.127Z" fill="white"/>
<rect x="440" y="35" width="158" height="158" rx="8" stroke="white" stroke-width="12"/>
<path d="M495.459 140.13C496.014 140.685 496.489 140.922 497.281 141.16L499.894 141.714C500.131 141.714 500.131 141.714 500.448 141.714C501.24 141.714 502.032 141.476 502.507 140.922C505.121 138.547 513.515 139.339 520.325 140.13C524.522 140.685 528.957 140.922 532.6 140.922C541.469 140.685 543.845 134.667 544.4 129.917C544.4 125.721 543.608 118.912 541.549 117.645C541.311 117.408 540.994 117.408 540.757 117.091L537.589 116.062C536.56 115.824 535.53 116.062 534.738 116.616C532.125 118.991 523.731 117.962 517.158 117.17C513.198 116.616 509.001 116.141 505.596 116.379C498.785 116.379 494.351 120.337 493.559 127.621C492.846 132.846 494.351 139.101 495.459 140.13ZM498.548 127.859C499.34 121.842 502.745 121.05 505.912 121.05H506.467C509.634 121.05 513.515 121.604 516.92 121.842C524.76 122.871 532.362 123.663 536.797 121.05L537.351 120.812L538.698 121.05L538.935 121.842C538.935 123.9 539.49 126.592 539.173 129.442C538.619 133.876 536.56 136.013 532.125 136.013C528.72 136.251 524.76 135.776 520.563 135.222C512.723 134.43 505.121 133.638 500.686 136.013L499.102 136.805L498.864 134.984C498.548 133.084 498.073 130.471 498.548 127.859Z" fill="white"/>
<path d="M548.121 83.68H535.767L536.48 83.205C538.222 82.0966 540.439 80.6715 541.865 78.3755C543.449 75.842 543.845 71.8834 541.39 69.3498C539.093 66.9747 535.846 67.133 533.471 67.2122C533.233 67.2122 532.995 67.2122 532.758 67.2122C527.056 67.3705 521.354 64.6787 517.87 60.1659C517.711 59.9284 517.553 59.6908 517.395 59.4533C516.444 58.1866 515.336 56.6823 513.593 55.7322C512.01 54.8613 509.951 54.7822 508.288 55.4155C506.862 55.9698 505.833 57.0782 505.358 58.4241C504.803 60.1659 505.358 61.8285 505.674 62.7786L509 72.4376C508.604 72.4376 508.288 72.3584 507.892 72.2C507.496 72.0417 507.021 71.725 506.466 71.4083C505.358 70.7749 504.011 69.9041 502.269 69.7457C499.893 69.5082 497.438 70.6166 496.013 72.5959C494.667 74.4169 494.35 76.8712 494.983 79.088C495.538 80.909 496.726 82.3341 497.993 83.4425H489.678C480.491 83.4425 472.968 90.9638 472.968 100.148V155.648C472.968 164.831 480.491 172.353 489.678 172.353H548.2C557.386 172.353 564.91 164.831 564.91 155.648V100.385C564.91 91.2014 557.386 83.68 548.121 83.68ZM559.366 106.877V148.997H478.432V106.877H559.366ZM510.98 60.7201C511.614 61.1159 512.247 61.9077 512.96 62.8577C513.118 63.0952 513.356 63.3328 513.514 63.6495C518.028 69.5874 525.472 73.0709 532.916 72.8334C533.154 72.8334 533.471 72.8334 533.708 72.8334C535.134 72.7542 536.797 72.6751 537.351 73.2293C537.668 73.546 537.668 74.6544 537.113 75.4461C536.321 76.6337 534.896 77.5838 533.391 78.5338L525.472 83.68H518.662L510.98 61.1159C510.98 61.0368 510.901 60.7993 510.822 60.6409C510.901 60.7201 510.901 60.7201 510.98 60.7201ZM504.011 81.2257C502.348 80.1173 500.764 79.0089 500.448 77.7421C500.289 77.1879 500.368 76.4753 500.685 76.0795C500.923 75.6836 501.477 75.4461 501.873 75.5253C502.348 75.6044 503.061 76.0003 503.774 76.3962C504.407 76.792 505.12 77.1879 505.912 77.5046C507.496 78.138 509.317 78.2963 510.98 78.0588L512.96 83.7592H507.892L504.011 81.2257ZM489.678 89.2221H548.2C554.377 89.2221 559.366 94.2099 559.366 100.385H478.432C478.432 94.2891 483.501 89.2221 489.678 89.2221ZM548.121 167.127H489.678C483.501 167.127 478.512 162.14 478.512 155.964V155.489H559.366V155.964C559.366 162.06 554.298 167.127 548.121 167.127Z" fill="white"/>
<rect x="657" y="35" width="158" height="158" rx="8" stroke="white" stroke-width="12"/>
<path d="M712.459 140.13C713.014 140.685 713.489 140.922 714.281 141.16L716.894 141.714C717.131 141.714 717.131 141.714 717.448 141.714C718.24 141.714 719.032 141.476 719.507 140.922C722.121 138.547 730.515 139.339 737.325 140.13C741.522 140.685 745.957 140.922 749.6 140.922C758.469 140.685 760.845 134.667 761.4 129.917C761.4 125.721 760.608 118.912 758.549 117.645C758.311 117.408 757.994 117.408 757.757 117.091L754.589 116.062C753.56 115.824 752.53 116.062 751.738 116.616C749.125 118.991 740.731 117.962 734.158 117.17C730.198 116.616 726.001 116.141 722.596 116.379C715.785 116.379 711.351 120.337 710.559 127.621C709.846 132.846 711.351 139.101 712.459 140.13ZM715.548 127.859C716.34 121.842 719.745 121.05 722.912 121.05H723.467C726.634 121.05 730.515 121.604 733.92 121.842C741.76 122.871 749.362 123.663 753.797 121.05L754.351 120.812L755.698 121.05L755.935 121.842C755.935 123.9 756.49 126.592 756.173 129.442C755.619 133.876 753.56 136.013 749.125 136.013C745.72 136.251 741.76 135.776 737.563 135.222C729.723 134.43 722.121 133.638 717.686 136.013L716.102 136.805L715.864 134.984C715.548 133.084 715.073 130.471 715.548 127.859Z" fill="white"/>
<path d="M765.121 83.68H752.767L753.48 83.205C755.222 82.0966 757.439 80.6715 758.865 78.3755C760.449 75.842 760.845 71.8834 758.39 69.3498C756.093 66.9747 752.846 67.133 750.471 67.2122C750.233 67.2122 749.995 67.2122 749.758 67.2122C744.056 67.3705 738.354 64.6787 734.87 60.1659C734.711 59.9284 734.553 59.6908 734.395 59.4533C733.444 58.1866 732.336 56.6823 730.593 55.7322C729.01 54.8613 726.951 54.7822 725.288 55.4155C723.862 55.9698 722.833 57.0782 722.358 58.4241C721.803 60.1659 722.358 61.8285 722.674 62.7786L726 72.4376C725.604 72.4376 725.288 72.3584 724.892 72.2C724.496 72.0417 724.021 71.725 723.466 71.4083C722.358 70.7749 721.011 69.9041 719.269 69.7457C716.893 69.5082 714.438 70.6166 713.013 72.5959C711.667 74.4169 711.35 76.8712 711.983 79.088C712.538 80.909 713.726 82.3341 714.993 83.4425H706.678C697.491 83.4425 689.968 90.9638 689.968 100.148V155.648C689.968 164.831 697.491 172.353 706.678 172.353H765.2C774.386 172.353 781.91 164.831 781.91 155.648V100.385C781.91 91.2014 774.386 83.68 765.121 83.68ZM776.366 106.877V148.997H695.432V106.877H776.366ZM727.98 60.7201C728.614 61.1159 729.247 61.9077 729.96 62.8577C730.118 63.0952 730.356 63.3328 730.514 63.6495C735.028 69.5874 742.472 73.0709 749.916 72.8334C750.154 72.8334 750.471 72.8334 750.708 72.8334C752.134 72.7542 753.797 72.6751 754.351 73.2293C754.668 73.546 754.668 74.6544 754.113 75.4461C753.321 76.6337 751.896 77.5838 750.391 78.5338L742.472 83.68H735.662L727.98 61.1159C727.98 61.0368 727.901 60.7993 727.822 60.6409C727.901 60.7201 727.901 60.7201 727.98 60.7201ZM721.011 81.2257C719.348 80.1173 717.764 79.0089 717.448 77.7421C717.289 77.1879 717.368 76.4753 717.685 76.0795C717.923 75.6836 718.477 75.4461 718.873 75.5253C719.348 75.6044 720.061 76.0003 720.774 76.3962C721.407 76.792 722.12 77.1879 722.912 77.5046C724.496 78.138 726.317 78.2963 727.98 78.0588L729.96 83.7592H724.892L721.011 81.2257ZM706.678 89.2221H765.2C771.377 89.2221 776.366 94.2099 776.366 100.385H695.432C695.432 94.2891 700.501 89.2221 706.678 89.2221ZM765.121 167.127H706.678C700.501 167.127 695.512 162.14 695.512 155.964V155.489H776.366V155.964C776.366 162.06 771.298 167.127 765.121 167.127Z" fill="white"/>
</svg>
