<svg width="661" height="526" viewBox="0 0 661 526" fill="none" xmlns="http://www.w3.org/2000/svg">
<g clip-path="url(#clip0)">
<path d="M175.856 180.551C177.17 182.415 178.201 184.514 179.349 186.467C181.225 189.58 183.434 192.462 185.987 195.011C186.39 195.438 186.846 195.87 187.334 196.227L187.362 196.203C188.955 196.165 190.632 195.769 192.183 195.337C192.314 195.322 192.451 195.257 192.61 195.219C193.597 194.969 194.758 194.527 195.98 193.7C196.314 193.47 196.127 192.958 195.737 192.949L195.685 192.944C195.399 192.944 195.211 192.719 195.263 192.437L195.575 190.747L193.856 190.747C193.569 190.748 193.382 190.522 193.434 190.24L193.746 188.55L192.026 188.55C191.74 188.551 191.552 188.325 191.604 188.043L191.916 186.353L190.197 186.353C189.91 186.354 189.722 186.128 189.774 185.846L190.086 184.156L188.367 184.157C188.081 184.157 187.893 183.931 187.945 183.65L188.252 182.01C188.276 182.039 188.252 182.01 188.229 181.982C188.205 181.954 188.182 181.926 188.13 181.921L186.462 181.927C186.176 181.927 185.988 181.702 186.04 181.42L186.376 179.757L184.656 179.758C184.37 179.758 184.182 179.533 184.234 179.251L184.546 177.56L182.827 177.561C182.54 177.561 182.352 177.336 182.404 177.054L182.716 175.363L180.997 175.364C180.711 175.364 180.523 175.139 180.575 174.857L180.887 173.166L179.168 173.167C178.881 173.167 178.693 172.942 178.745 172.66L179.057 170.969L177.338 170.97C177.051 170.97 176.864 170.745 176.916 170.463L177.228 168.772L175.508 168.773C175.222 168.773 175.034 168.548 175.086 168.266L175.398 166.575L173.679 166.576C173.392 166.576 173.205 166.351 173.257 166.069L173.304 165.839C173.394 165.43 172.896 165.177 172.609 165.464C171.405 166.657 170.671 167.841 170.266 168.846C170.237 168.87 170.233 168.921 170.204 168.945C169.607 170.063 169.488 171.354 169.195 172.552C169.077 172.984 168.936 173.388 168.719 173.759C168.789 173.844 168.888 173.905 168.987 173.966C170.207 174.858 171.437 175.646 172.54 176.683C173.783 177.89 174.89 179.162 175.856 180.551Z" fill="#B75009"/>
<path d="M118.949 240.106C117.636 238.242 116.605 236.143 115.456 234.19C113.581 231.077 111.371 228.195 108.819 225.646C108.415 225.219 107.96 224.787 107.472 224.431L107.444 224.454C105.851 224.492 104.174 224.888 102.623 225.321C102.491 225.335 102.355 225.401 102.195 225.438C101.208 225.688 100.048 226.13 98.8253 226.957C98.4915 227.187 98.6788 227.699 99.0687 227.708L99.1204 227.713C99.4069 227.713 99.5946 227.938 99.5426 228.22L99.2306 229.911L100.95 229.91C101.236 229.91 101.424 230.135 101.372 230.417L101.06 232.108L102.78 232.107C103.066 232.107 103.254 232.332 103.202 232.614L102.89 234.305L104.609 234.304C104.896 234.304 105.083 234.529 105.031 234.811L104.719 236.501L106.439 236.501C106.725 236.5 106.913 236.726 106.861 237.008L106.554 238.647C106.549 238.698 106.572 238.727 106.596 238.755C106.619 238.783 106.643 238.811 106.694 238.816L108.362 238.81C108.649 238.81 108.836 239.035 108.784 239.317L108.472 241.008L110.192 241.007C110.478 241.007 110.666 241.232 110.614 241.514L110.302 243.205L112.021 243.204C112.308 243.204 112.495 243.429 112.443 243.711L112.131 245.402L113.851 245.401C114.137 245.401 114.325 245.626 114.273 245.908L113.961 247.599L115.68 247.598C115.967 247.598 116.155 247.823 116.103 248.105L115.791 249.796L117.51 249.795C117.797 249.795 117.984 250.02 117.932 250.302L117.62 251.993L119.34 251.992C119.626 251.992 119.814 252.217 119.762 252.499L119.45 254.19L121.169 254.189C121.456 254.189 121.643 254.414 121.591 254.696L121.544 254.926C121.454 255.335 121.952 255.588 122.239 255.301C123.443 254.108 124.177 252.924 124.582 251.919C124.611 251.895 124.615 251.844 124.644 251.82C125.241 250.702 125.36 249.411 125.653 248.213C125.771 247.781 125.912 247.377 126.129 247.006C126.058 246.921 125.96 246.86 125.861 246.799C124.641 245.908 123.411 245.119 122.308 244.082C121.051 242.744 119.915 241.495 118.949 240.106Z" fill="#B75009"/>
<path d="M189.516 196.007L169.648 172.15L105.547 225.533L125.415 249.389L189.516 196.007Z" fill="#EA680F"/>
<path fill-rule="evenodd" clip-rule="evenodd" d="M160.619 198.631C158.527 195.317 156.524 193.026 154.491 192.478C155.709 190.843 156.951 189.522 158.342 188.841C160.772 187.628 162.308 188.496 163.373 189.66C164.7 191.082 166.163 193.871 167.504 195.998C169.23 198.759 170.998 201.054 173.116 201.819C172.273 203.331 171.074 204.473 169.617 205.305C167.962 206.301 166.473 206.063 165.131 204.795C163.381 203.152 162.007 200.814 160.619 198.631Z" fill="white"/>
<path fill-rule="evenodd" clip-rule="evenodd" d="M165.004 193.167C165.191 193.392 165.116 193.646 164.919 193.81C164.721 193.975 164.458 194.003 164.266 193.829C164.078 193.604 164.153 193.35 164.351 193.186C164.525 192.993 164.793 192.913 165.004 193.167ZM165.145 193.049C164.887 192.74 164.53 192.655 164.191 192.937C163.853 193.219 163.82 193.581 164.101 193.919C164.382 194.257 164.716 194.313 165.055 194.031C165.421 193.725 165.403 193.359 165.145 193.049ZM163.708 192.242L164.019 191.984C164.136 192.125 164.305 192.27 164.136 192.411C163.966 192.552 163.802 192.355 163.708 192.242ZM162.985 192.463L163.149 192.661L163.544 192.332C163.685 192.501 163.849 192.698 164.084 192.693C164.319 192.688 164.554 192.397 164.319 192.115L163.944 191.665L162.985 192.463V192.463ZM163.128 190.627L163.292 190.824C163.207 190.895 162.699 191.318 162.615 191.388C162.413 191.604 162.769 191.975 163.018 191.815C163.159 191.698 163.526 191.392 163.667 191.275L163.831 191.472C163.719 191.566 163.182 192.012 163.07 192.106C162.741 192.285 162.412 191.891 162.333 191.623C162.277 191.384 162.418 191.266 162.559 191.149L163.128 190.627ZM162.113 190.327L162.395 190.092C162.513 190.233 162.705 190.407 162.536 190.548C162.367 190.688 162.207 190.44 162.113 190.327ZM161.39 190.548L161.554 190.745L161.977 190.393L162.071 190.505L161.835 191.083L162.046 191.337L162.263 190.679C162.413 190.745 162.564 190.81 162.733 190.67C162.931 190.505 162.846 190.289 162.729 190.148L162.354 189.698L161.39 190.548ZM161.48 189.567L161.339 189.684L161.48 189.853L161.282 190.017C161.085 189.895 160.874 189.642 161.001 189.393C161.128 189.144 161.537 188.947 161.795 189.256C161.889 189.369 161.931 189.477 161.865 189.627L162.1 189.623C162.143 189.444 162.077 189.308 161.936 189.139C161.397 188.491 160.72 189.055 160.733 189.473C160.728 189.811 161.066 190.102 161.31 190.28L161.79 189.881L161.48 189.567ZM159.394 197.504C158.086 195.589 156.547 193.913 154.781 193.571C154.556 193.186 154.331 192.801 154.106 192.416C155.108 190.866 156.449 189.607 158.08 188.582C159.753 187.665 161.656 187.369 163.27 189.077C164.931 190.842 166.614 193.781 168.42 196.523C169.724 198.49 171.206 199.926 172.916 200.315C173.132 200.804 173.324 201.264 173.539 201.752C172.555 203.382 171.196 204.562 169.678 205.492C167.501 206.78 165.792 206.105 164.408 204.443C162.457 202.157 160.773 199.504 159.394 197.504ZM160.619 198.631C158.528 195.316 156.525 193.025 154.491 192.477C155.71 190.842 156.951 189.522 158.343 188.84C160.773 187.627 162.308 188.495 163.373 189.659C164.701 191.082 166.163 193.871 167.504 195.997C169.23 198.758 170.998 201.054 173.116 201.818C172.274 203.331 171.074 204.472 169.617 205.304C167.962 206.301 166.473 206.062 165.131 204.795C163.381 203.152 162.007 200.814 160.619 198.631Z" fill="#3D438B"/>
<path fill-rule="evenodd" clip-rule="evenodd" d="M164.878 200.474L164.362 199.855L166.224 198.304L166.669 198.839C166.904 199.121 166.913 199.304 166.772 199.421C166.546 199.609 166.34 199.591 166.152 199.365L165.988 199.168L165.241 199.361L165.639 199.84C165.827 200.065 165.845 200.431 165.625 200.568C165.371 200.779 165.089 200.728 164.878 200.474ZM164.379 201.08L163.136 199.587L166.211 197.026L167.407 198.463C167.83 198.97 168.04 199.51 167.608 199.966C167.316 200.304 166.968 200.403 166.588 200.29C166.747 200.825 166.408 201.394 165.839 201.629C165.271 201.864 164.684 201.446 164.379 201.08ZM169.052 201.815C169.428 202.266 169.366 202.937 168.886 203.337C168.435 203.713 167.735 203.676 167.36 203.225C166.984 202.774 167.046 202.103 167.526 201.703C168.005 201.304 168.677 201.365 169.052 201.815ZM169.786 201.204C170.49 202.049 170.371 203.341 169.496 204.069C168.621 204.798 167.33 204.681 166.626 203.836C165.922 202.991 166.041 201.699 166.916 200.971C167.791 200.243 169.082 200.359 169.786 201.204ZM165.953 196.717L162.878 199.278L162.245 198.517L164.191 196.896L161.822 198.01L161.212 197.278L162.732 195.201L160.814 196.799L160.204 196.067L163.279 193.506L164.264 194.689L162.872 196.516L164.921 195.477L165.953 196.717ZM162.411 192.464L163.045 193.224L159.969 195.785L159.336 195.025L162.411 192.464ZM158.779 193.151L158.263 192.531L160.125 190.981L160.571 191.516C160.805 191.797 160.815 191.981 160.673 192.098C160.448 192.286 160.241 192.267 160.053 192.042L159.889 191.845L159.142 192.038L159.541 192.517C159.728 192.742 159.747 193.108 159.526 193.245C159.272 193.456 158.967 193.376 158.779 193.151ZM158.28 193.757L157.037 192.264L160.113 189.703L161.309 191.14C161.731 191.647 161.942 192.187 161.509 192.642C161.217 192.981 160.87 193.08 160.489 192.967C160.648 193.502 160.309 194.071 159.741 194.306C159.149 194.513 158.585 194.123 158.28 193.757Z" fill="#DA243C"/>
<mask id="mask0" mask-type="alpha" maskUnits="userSpaceOnUse" x="105" y="172" width="85" height="78">
<path d="M189.359 196.019L169.491 172.162L105.39 225.544L125.257 249.401L189.359 196.019Z" fill="#EA680F"/>
</mask>
<g mask="url(#mask0)">
<path d="M156.114 231.431C156.43 230.548 156.286 229.572 156.028 228.689C155.771 227.806 155.382 226.937 155.204 226.036C155.027 225.134 155.042 224.12 155.532 223.331C155.687 223.058 155.889 222.842 156.045 222.57C156.2 222.297 156.257 221.964 156.126 221.691C155.882 221.226 155.229 221.246 154.788 220.945C154.37 220.673 154.206 220.189 154.094 219.71C153.982 219.231 153.898 218.729 153.593 218.363C153.288 217.997 152.682 217.786 152.339 218.119C151.944 218.448 152.093 219.087 152.393 219.505C152.722 219.899 153.163 220.199 153.435 220.641C153.866 221.331 153.729 222.256 153.399 223.008C153.07 223.759 152.59 224.445 152.312 225.201C151.93 226.235 152.206 227.197 152.637 228.174C153.092 229.179 153.165 230.357 152.553 231.344C152.064 232.133 151.26 232.66 150.433 233.158C149.826 233.52 149.192 233.905 148.51 233.948C148.092 233.962 147.712 233.85 147.332 233.737C148.135 233.211 148.911 232.708 149.715 232.181C150.463 231.702 151.267 231.176 151.728 230.41C152.189 229.644 152.214 228.526 151.566 227.921C150.82 227.254 149.457 227.626 149.188 228.565C149.009 229.096 149.159 229.735 148.853 230.228C148.481 230.872 147.513 230.914 146.898 230.52C146.255 230.15 145.875 229.464 145.491 228.83C143.653 225.877 141.152 223.333 138.256 221.404C136.561 220.288 134.768 219.396 133.101 218.256C131.754 217.327 130.473 216.247 129.582 214.89C129.193 214.308 128.793 214.116 128.315 213.656C127.766 213.111 127.386 212.426 126.945 211.839C126.462 211.144 125.951 210.473 125.176 210.116C124.026 209.596 122.686 209.995 121.479 210.381C120.619 210.668 119.735 210.927 118.959 211.43C118.184 211.933 117.544 212.656 117.308 213.52C117.001 214.873 117.732 216.268 117.529 217.63C117.396 218.503 116.883 219.264 116.676 220.105C116.558 220.537 116.538 221.03 116.655 221.457C116.749 221.857 117.35 221.833 117.417 221.396C117.445 221.086 117.525 220.781 117.629 220.504C117.77 220.1 118.386 220.207 118.371 220.649C118.279 223.063 119.352 225.556 121.243 227.081C122.069 227.729 123.041 228.208 123.867 228.855C124.646 229.447 125.383 230.216 125.636 231.151C125.673 231.311 125.795 231.4 125.922 231.437C126.767 231.592 127.434 232.277 127.94 233C128.465 233.803 128.826 234.695 129.408 235.451C131.077 237.685 134.257 238.233 137.043 237.964C139.068 237.757 141.075 237.183 142.927 236.308C143.608 235.979 144.266 235.622 144.929 235.213C145.431 235.988 146.323 236.485 147.234 236.489C148.066 236.512 148.856 236.141 149.594 235.765C150.628 235.285 151.61 234.801 152.644 234.321C153.326 233.992 154.035 233.64 154.647 233.226C155.314 232.766 155.864 232.164 156.114 231.431Z" fill="white"/>
<path d="M117.645 223.161C117.603 222.767 117.213 222.471 116.899 222.208C116.8 222.147 116.674 222.11 116.561 222.204C116.476 222.274 116.467 222.378 116.457 222.481C116.541 222.697 116.494 222.927 116.372 223.124C116.221 223.345 115.944 223.528 116.023 223.796C116.037 223.928 116.131 224.04 116.281 224.106C116.906 224.397 117.682 223.894 117.645 223.161Z" fill="white"/>
<path d="M122.992 225.911C123.312 225.836 123.523 225.516 123.552 225.206C123.581 224.896 123.454 224.572 123.351 224.277C123.019 223.361 122.71 222.474 122.377 221.558C121.937 220.398 121.534 219.112 121.954 217.951C122.533 216.467 124.399 215.724 124.979 214.24C125.389 213.183 125.146 211.859 125.922 211.069C126.007 210.999 126.091 210.928 126.176 210.858C125.866 210.543 125.552 210.281 125.153 210.088C124.852 209.957 124.57 209.905 124.288 209.854C124.091 210.018 123.922 210.159 123.748 210.352C122.859 211.235 122.284 212.381 121.79 213.509C121.295 214.636 120.871 215.848 120.301 216.943C120.014 217.516 119.647 218.108 119.665 218.76C119.683 219.127 119.805 219.502 119.955 219.854C120.269 220.69 120.634 221.531 120.948 222.366C121.285 223.23 121.651 224.071 121.965 224.907C122.049 225.123 122.157 225.367 122.321 225.564C122.504 225.841 122.752 225.968 122.992 225.911Z" fill="#E5E5E5"/>
<path d="M125.829 214.342C125.701 215.164 125.831 216.009 125.99 216.831C126.149 217.653 126.28 218.498 126.203 219.325C126.023 220.715 125.158 221.913 124.851 223.266C124.619 224.365 124.778 225.473 124.884 226.577C124.908 226.891 124.959 227.182 125.114 227.483C125.245 227.755 125.508 228.013 125.789 228.065C126.123 228.121 126.452 227.942 126.659 227.675C126.866 227.407 126.998 227.106 127.106 226.777C127.497 225.641 127.889 224.504 128.303 223.396C128.973 221.503 129.651 219.506 129.442 217.534C129.289 216.088 128.656 214.754 128.075 213.425C127.813 212.881 127.471 212.068 126.827 212.557C126.267 212.975 125.942 213.675 125.829 214.342Z" fill="#E5E5E5"/>
<path d="M116.689 224.196C116.887 224.031 116.939 223.749 116.963 223.491C116.991 223.181 116.94 222.89 116.917 222.575C116.903 222.444 116.842 222.256 116.772 222.172C116.72 222.167 116.64 222.186 116.612 222.209C116.527 222.28 116.518 222.383 116.508 222.486C116.592 222.702 116.545 222.932 116.423 223.13C116.272 223.351 115.995 223.534 116.074 223.802C116.088 223.933 116.182 224.046 116.332 224.111C116.403 224.196 116.558 224.21 116.689 224.196Z" fill="#E5E5E5"/>
<path d="M126.027 209.933C125.831 208.951 125.663 207.946 125.805 206.969C126.112 205.33 127.424 204.094 128.698 202.985C129.804 202.017 130.937 201.026 132.309 200.551C133.625 200.123 135.077 200.202 136.429 200.506C140.125 201.388 143.18 204.138 145.258 207.321C147.335 210.504 148.59 214.134 149.849 217.712C150.407 219.299 150.931 220.961 150.624 222.6C150.274 224.418 148.943 225.86 147.701 227.181C146.807 228.116 145.886 229.074 144.692 229.591C143.258 230.165 141.656 230.02 140.135 229.857C137.814 229.595 135.494 229.333 133.197 229.099C132.037 228.968 130.877 228.837 129.716 228.707C129.148 228.655 128.556 228.576 127.988 228.524C127.574 228.487 126.71 228.539 126.367 228.3C125.781 227.882 126.346 226.266 126.432 225.623C126.55 224.618 126.669 223.613 126.736 222.603C126.87 220.583 126.924 218.583 126.822 216.568C126.767 215.469 126.689 214.342 126.554 213.262C126.503 212.684 126.424 212.13 126.321 211.548C126.227 211.149 126.261 210.214 126.027 209.933Z" fill="#562B04"/>
<path d="M140.099 216.388C139.78 215.604 138.949 215.008 138.123 214.933C137.812 214.905 137.394 214.919 137.155 214.689C137.061 214.576 136.996 214.44 136.958 214.281C136.654 213.341 136.326 212.374 135.994 211.459C135.647 210.411 135.296 209.416 135.081 208.355C134.969 207.876 134.913 207.35 134.829 206.847C134.764 206.425 134.699 206.002 134.634 205.579C134.531 204.997 134.456 204.391 134.485 203.795C134.505 203.302 134.656 202.795 134.52 202.287C134.408 201.808 134.131 201.419 133.826 201.053C133.662 200.855 133.507 200.555 133.296 200.302C133.085 200.334 132.873 200.367 132.657 200.452C132.727 200.537 132.774 200.593 132.821 200.649C132.934 200.842 133.018 201.058 133.102 201.274C133.271 201.706 133.388 202.133 133.477 202.584C133.664 203.382 133.874 204.209 134.089 204.983C134.197 205.514 134.351 206.101 134.2 206.608C134.12 206.913 133.941 207.158 133.889 207.44C133.771 207.872 133.912 208.327 134.029 208.754C134.435 210.276 134.819 211.769 135.198 213.314C135.333 213.821 135.464 214.38 135.238 214.854C134.979 215.404 134.335 215.606 133.856 216.006C133.381 216.353 133.047 216.87 132.863 217.453C133.888 216.79 135.114 216.484 136.35 216.361C137.59 216.187 138.83 216.299 140.099 216.388Z" fill="#75461F"/>
<path d="M150.377 215.937C150.551 215.744 150.632 215.439 150.496 215.218C150.36 214.998 150.078 214.946 149.82 214.923C149.181 214.787 148.716 214.458 148.172 214.149C147.603 213.811 147.692 214.835 147.898 215.14C148.123 215.525 148.522 215.717 148.921 215.909C149.17 216.036 149.395 216.135 149.654 216.158C149.889 216.153 150.18 216.101 150.377 215.937Z" fill="#160D01"/>
<path d="M150.447 212.635C150.597 212.701 150.78 212.691 150.94 212.654C151.1 212.616 151.241 212.499 151.405 212.409C151.683 212.226 151.932 212.066 152.162 211.827C152.336 211.634 152.539 211.131 152.299 210.901C152.06 210.671 151.534 211.015 151.341 211.127C151.035 211.334 150.753 211.569 150.466 211.856C150.353 211.95 150.264 212.072 150.226 212.199C150.184 212.377 150.296 212.57 150.447 212.635Z" fill="#160D01"/>
<path d="M150.793 209.15C150.784 208.967 150.878 208.793 150.996 208.648C151.113 208.502 151.278 208.413 151.419 208.295C151.166 207.934 150.842 207.774 150.423 208.075C150.174 208.235 150.014 208.559 149.934 208.864C149.891 209.043 149.844 209.273 149.905 209.461C149.966 209.649 150.106 209.818 150.337 209.864C150.515 209.907 150.759 209.799 150.807 209.568C150.844 209.442 150.779 209.305 150.793 209.15Z" fill="#160D01"/>
<path d="M134.714 207.515C134.085 207.849 133.459 208.131 132.83 208.465C132.961 208.737 133.092 209.009 133.341 209.136C133.543 209.206 133.754 209.173 133.937 209.164C134.548 209.037 135.7 208.698 135.916 208.04C136.181 207.153 135.18 207.271 134.714 207.515Z" fill="#160D01"/>
<path d="M136.441 209.703C135.952 209.633 135.473 209.746 134.97 209.831C134.731 209.887 134.491 209.944 134.345 210.113C134.166 210.357 134.316 210.709 134.419 211.005C134.55 211.277 134.729 211.606 135.01 211.658C135.165 211.672 135.325 211.634 135.433 211.592C135.917 211.427 137.238 211.234 137.468 210.708C137.84 210.064 136.906 209.745 136.441 209.703Z" fill="#160D01"/>
<path d="M141.539 204.981C141.75 205.234 141.961 205.488 142.271 205.516C142.529 205.539 142.722 205.426 142.943 205.29C143.244 205.135 143.888 204.932 143.949 204.547C143.968 204.341 143.715 203.693 143.542 203.599C143.373 203.453 143.11 203.482 142.94 203.623C142.748 203.735 142.602 203.905 142.456 204.074C142.31 204.243 142.117 204.356 141.906 204.389C141.723 204.398 141.544 204.356 141.427 204.502C141.309 204.647 141.422 204.84 141.539 204.981Z" fill="#160D01"/>
<path d="M144.199 212.305C143.876 211.859 142.833 211.869 142.311 211.874C142.156 211.86 141.973 211.869 141.837 211.935C141.677 211.973 141.536 212.09 141.47 212.241C141.399 212.443 141.455 212.682 141.624 212.828C141.765 212.997 141.967 213.067 142.192 213.165C142.493 213.297 142.793 213.428 143.103 213.456C143.648 213.479 144.711 212.976 144.199 212.305Z" fill="#160D01"/>
<path d="M145.122 206.528C145.126 206.762 145.079 206.993 145.163 207.209C145.248 207.425 145.463 207.626 145.703 207.57C145.966 207.542 146.093 207.293 146.216 207.095C146.343 206.846 146.493 206.626 146.62 206.377C146.71 206.254 146.776 206.104 146.71 205.968C146.579 205.696 145.762 205.518 145.517 205.626C145.188 205.804 145.127 206.19 145.122 206.528Z" fill="#160D01"/>
<path d="M143.223 207.633C143.433 208.173 144.311 208.825 144.898 208.956C145.18 209.008 145.504 208.881 145.608 208.604C145.801 208.204 145.44 207.885 145.149 207.651C144.83 207.439 144.539 207.205 144.219 206.994C144.074 206.876 143.9 206.782 143.745 206.768C143.435 206.74 143.148 207.027 143.148 207.313C143.162 207.445 143.152 207.548 143.223 207.633Z" fill="#160D01"/>
<path d="M139.719 206.352C139.846 206.676 140.404 207.117 140.789 207.178C140.968 207.22 141.184 207.135 141.255 206.933C141.382 206.684 141.166 206.483 140.945 206.332C140.748 206.21 140.556 206.037 140.359 205.915C140.26 205.854 140.162 205.793 140.035 205.755C139.828 205.737 139.654 205.929 139.663 206.112C139.677 206.244 139.724 206.3 139.719 206.352Z" fill="#160D01"/>
<path d="M142.74 206.651C142.383 205.994 141.598 206.886 141.236 207.14C141.038 207.305 140.813 207.493 140.765 207.723C140.742 207.981 140.976 208.263 141.263 208.263C141.446 208.253 141.559 208.159 141.723 208.07C142.193 207.774 143.143 207.365 142.74 206.651Z" fill="#160D01"/>
<path d="M141.627 205.431C141.722 204.971 140.984 205.06 140.674 205.032C140.519 205.018 140.336 205.028 140.195 205.145C140.054 205.263 140.058 205.498 140.204 205.615C140.302 205.676 140.406 205.685 140.509 205.695C140.894 205.755 141.528 205.943 141.627 205.431Z" fill="#160D01"/>
<path d="M140.94 202.998C140.836 203.275 141.061 203.66 141.371 203.688C141.578 203.707 141.742 203.618 141.883 203.5C142.274 203.223 143.092 202.542 142.806 201.969C142.389 201.124 141.551 202.298 141.208 202.632C141.119 202.754 141.006 202.848 140.94 202.998Z" fill="#160D01"/>
<path d="M143.403 205.956C143.745 206.769 144.371 205.914 144.634 205.599C144.724 205.477 144.836 205.383 144.874 205.256C144.912 205.129 144.926 204.974 144.861 204.838C144.743 204.697 144.565 204.655 144.377 204.716C144.217 204.754 144.076 204.871 143.935 204.989C143.794 205.106 143.625 205.247 143.507 205.393C143.385 205.59 143.314 205.792 143.403 205.956Z" fill="#160D01"/>
<path d="M139.319 207.306C139.855 207.146 139.823 206.649 139.452 206.433C138.983 206.156 138.428 205.949 137.931 205.696C137.715 205.781 137.663 206.063 137.747 206.279C137.831 206.495 138 206.64 138.197 206.762C138.394 206.884 138.615 207.034 138.812 207.156C138.906 207.269 139.131 207.367 139.319 207.306Z" fill="#160D01"/>
<path d="M138.001 205.493C138.128 204.958 137.654 204.733 137.292 204.987C136.822 205.283 136.37 205.659 135.895 206.006C135.876 206.213 136.092 206.415 136.322 206.462C136.552 206.509 136.769 206.424 136.961 206.311C137.178 206.226 137.399 206.09 137.591 205.977C137.765 205.785 137.958 205.672 138.001 205.493Z" fill="#160D01"/>
<path d="M137.581 203.268C137.816 202.977 137.605 202.723 137.29 202.747C136.924 202.766 136.548 202.888 136.153 202.931C136.064 203.053 136.153 203.217 136.275 203.306C136.397 203.396 136.552 203.41 136.707 203.424C136.862 203.438 137.022 203.4 137.177 203.414C137.336 203.376 137.496 203.339 137.581 203.268Z" fill="#160D01"/>
<path d="M137.891 203.01C138.224 203.352 138.713 203.136 138.704 202.666C138.723 202.46 138.639 202.244 138.526 202.051C138.376 201.699 138.203 201.319 138.053 200.967C137.969 200.751 137.838 200.478 137.608 200.431C137.326 200.38 137.067 200.643 137.038 200.953C136.986 201.235 137.141 201.535 137.277 201.756C137.479 202.113 137.605 202.723 137.891 203.01Z" fill="#160D01"/>
<path d="M139.218 201.906C139.124 202.079 139.076 202.31 139.165 202.474C139.283 202.615 139.541 202.638 139.682 202.521C139.847 202.431 139.946 202.206 140.04 202.032C140.195 201.76 140.553 201.271 140.426 200.947C140.192 200.379 139.661 200.774 139.496 201.149C139.42 201.403 139.293 201.652 139.218 201.906Z" fill="#160D01"/>
<path d="M140.333 203.933C140.371 204.093 140.432 204.281 140.558 204.318C140.709 204.384 140.878 204.243 140.944 204.092C141.01 203.942 140.972 203.782 140.963 203.599C140.935 203.336 140.955 202.843 140.706 202.717C140.288 202.444 140.137 202.952 140.212 203.271C140.245 203.482 140.301 203.722 140.333 203.933Z" fill="#160D01"/>
<path d="M138.819 205.099C138.828 205.282 138.918 205.446 139.04 205.535C139.185 205.653 139.392 205.671 139.533 205.554C139.617 205.483 139.679 205.385 139.74 205.286C139.867 205.037 140.309 204.478 140.31 204.192C140.282 203.929 139.916 203.661 139.624 203.713C139.361 203.741 139.206 204.014 139.079 204.263C138.923 204.535 138.768 204.808 138.819 205.099Z" fill="#160D01"/>
<path d="M138.307 204.428C138.397 204.306 138.388 204.122 138.322 203.986C138.2 203.611 138.074 203.573 137.763 203.545C137.529 203.55 137.139 203.541 136.923 203.625C136.622 203.78 136.476 204.236 136.658 204.513C136.968 204.541 137.25 204.593 137.537 204.592C137.842 204.672 138.18 204.677 138.307 204.428Z" fill="#160D01"/>
<path d="M139.088 208.118C138.952 208.184 138.788 208.273 138.698 208.396C138.581 208.541 138.557 208.8 138.697 208.969C138.81 209.161 139.04 209.208 139.228 209.147C139.388 209.109 139.505 208.963 139.595 208.841C139.774 208.597 139.981 208.329 140.183 208.113C139.756 207.658 139.61 207.827 139.088 208.118Z" fill="#160D01"/>
<path d="M143.378 211.033C142.886 210.441 142.375 209.77 141.826 209.225C141.441 208.878 140.755 208.972 140.824 209.63C140.843 209.71 140.838 209.761 140.857 209.841C141.021 210.325 141.457 210.677 141.847 210.973C142.091 211.151 142.335 211.329 142.617 211.381C142.899 211.432 143.275 211.31 143.378 211.033Z" fill="#160D01"/>
<path d="M147.614 216.807C147.412 216.737 147.271 216.568 147.13 216.399C146.619 215.727 146.108 215.056 145.648 214.389C145.554 214.277 145.461 214.164 145.447 214.033C145.433 213.901 145.499 213.751 145.607 213.708C145.766 213.671 145.912 213.788 146.001 213.952C146.442 214.539 146.935 215.131 147.375 215.718C147.54 215.915 147.971 216.318 148.027 216.558C148.145 216.699 147.755 216.976 147.614 216.807Z" fill="#160D01"/>
<path d="M142.9 214.532C142.82 214.551 142.735 214.621 142.702 214.697C142.669 214.772 142.711 214.88 142.758 214.936C142.941 215.213 143.326 215.274 143.599 215.142C143.763 215.053 143.909 214.884 144.027 214.738C144.352 214.325 144.728 213.916 145.029 213.474C145.236 213.207 145.114 213.117 144.776 213.113C144.409 213.132 144.235 213.324 144 213.616C143.755 214.01 143.36 214.339 142.9 214.532Z" fill="#160D01"/>
<path d="M146.249 211.266C146.164 211.05 146.029 210.83 145.845 210.839C145.714 210.853 145.573 210.971 145.535 211.098C145.497 211.225 145.506 211.408 145.52 211.539C145.628 212.07 145.763 212.577 145.951 213.089C146.016 213.225 146.082 213.361 146.181 213.422C146.279 213.483 146.462 213.474 146.575 213.38C147.012 213.159 146.825 212.933 146.703 212.558C146.586 212.13 146.417 211.698 146.249 211.266Z" fill="#160D01"/>
<path d="M144.113 209.276C144.014 209.215 143.892 209.126 143.766 209.089C143.639 209.051 143.479 209.089 143.418 209.187C143.328 209.309 143.366 209.469 143.46 209.582C143.554 209.694 143.652 209.755 143.802 209.821C144.277 210.046 144.911 210.234 145.437 210.177C145.555 209.459 144.531 209.548 144.113 209.276Z" fill="#160D01"/>
<path d="M146.753 209.749C146.654 209.688 146.527 209.651 146.414 209.745C146.33 209.815 146.316 209.97 146.358 210.078C146.4 210.186 146.494 210.299 146.564 210.383C146.728 210.58 146.784 210.82 146.812 211.083C146.821 211.266 146.807 211.421 146.924 211.562C146.995 211.646 147.145 211.712 147.253 211.67C147.841 211.514 147.02 209.956 146.753 209.749Z" fill="#160D01"/>
<path d="M147.896 212.327C147.806 212.449 147.694 212.543 147.656 212.67C147.618 212.797 147.604 212.952 147.67 213.088C147.735 213.224 147.885 213.29 148.022 213.224C148.102 213.205 148.135 213.13 148.191 213.083C148.365 212.891 148.539 212.698 148.741 212.482C148.826 212.411 148.887 212.313 148.868 212.233C148.887 212.026 148.615 211.871 148.432 211.881C148.169 211.909 148.07 212.135 147.896 212.327Z" fill="#160D01"/>
<path d="M145.466 209.294C145.485 209.374 145.527 209.482 145.574 209.538C145.62 209.595 145.719 209.656 145.822 209.665C145.926 209.674 146.039 209.58 146.1 209.482C146.241 209.364 146.33 209.242 146.471 209.125C146.617 208.955 146.966 208.284 146.458 208.42C146.35 208.462 145.466 209.294 145.466 209.294Z" fill="#160D01"/>
<path d="M144.233 211.085C144.242 211.268 144.327 211.484 144.387 211.672C144.43 211.78 144.448 211.859 144.49 211.967C144.556 212.104 144.622 212.24 144.692 212.324C144.814 212.413 144.969 212.427 145.082 212.333C145.167 212.263 145.176 212.16 145.134 212.052C145.115 211.972 145.073 211.864 145.054 211.784C144.993 211.596 144.933 211.408 144.952 211.202C144.942 211.019 145.046 210.741 144.929 210.601C144.68 210.187 144.233 210.798 144.233 211.085Z" fill="#160D01"/>
<path d="M139.883 210.508C139.897 210.64 139.911 210.771 139.982 210.856C140.122 211.025 140.432 211.053 140.578 210.884C140.48 210.536 140.466 210.118 140.551 209.761C140.632 209.456 140.82 209.108 140.472 208.921C139.754 208.517 139.86 210.194 139.883 210.508Z" fill="#160D01"/>
<path d="M125.906 229.639C125.695 229.386 125.545 229.033 125.541 228.512C125.518 227.625 125.951 226.882 126.295 226.262L128.677 222.18C129.604 220.597 130.564 218.939 131.886 217.599C133.461 216.049 135.285 215.198 137.079 215.23C138.564 215.234 139.916 215.825 141.146 216.327L148.218 219.31C149.345 219.803 150.594 220.384 150.973 221.643C151.31 222.793 150.787 223.944 150.227 224.935L145.449 233.541C145.015 234.284 144.554 235.049 143.694 235.336C142.914 235.604 142.106 235.323 141.501 235.112L130.672 231.346C130.343 231.238 130.043 231.107 129.742 230.976C128.991 230.647 128.211 230.342 127.512 230.305C127.178 230.249 126.375 230.202 125.906 229.639ZM149.775 221.352C149.329 220.817 148.578 220.489 147.879 220.165L140.807 217.182C139.629 216.684 138.375 216.154 137.097 216.169C135.016 216.137 133.38 217.5 132.58 218.261C131.32 219.502 130.416 221.113 129.493 222.644L127.112 226.727C126.74 227.37 126.457 227.892 126.457 228.465C126.475 229.117 126.85 229.282 127.55 229.319C128.405 229.37 129.232 229.731 130.063 230.041C130.363 230.172 130.692 230.28 130.969 230.383L141.798 234.149C142.403 234.36 142.911 234.51 143.366 234.369C143.902 234.209 144.241 233.641 144.585 233.02L149.363 224.414C149.834 223.545 150.281 222.648 150.038 221.897C150.005 221.686 149.916 221.521 149.775 221.352Z" fill="#3D2604"/>
<path d="M141.675 234.633C142.281 234.844 142.939 235.059 143.554 234.881C144.255 234.631 144.683 233.941 145.026 233.321C146.618 230.469 148.213 227.566 149.805 224.715C150.304 223.822 150.817 222.775 150.517 221.784C150.199 220.713 149.049 220.193 148.049 219.737C145.692 218.743 143.334 217.749 140.977 216.754C139.724 216.224 138.418 215.689 137.089 215.699C135.266 215.691 133.536 216.655 132.219 217.942C130.903 219.229 129.999 220.841 129.071 222.424C128.295 223.786 127.518 225.149 126.69 226.506C126.346 227.126 125.946 227.793 125.983 228.526C126.019 229.545 126.7 229.789 127.503 229.835C128.565 229.905 129.757 230.534 130.79 230.914C133.087 231.721 135.383 232.527 137.679 233.334C139.022 233.742 140.337 234.173 141.675 234.633Z" fill="#FFE7C0"/>
<path d="M150.517 221.783C150.199 220.713 149.048 220.192 148.048 219.737C145.691 218.743 143.334 217.748 140.977 216.754C139.723 216.224 138.418 215.689 137.088 215.699C135.421 215.705 133.865 216.476 132.59 217.584C132.961 218.373 133.589 219.185 134.232 219.556C135.228 220.063 136.077 220.739 137.04 221.321C139.312 222.672 141.927 223.403 144.586 223.383C145.549 223.392 146.55 223.274 147.476 223.123C148.03 223.043 148.613 222.94 149.13 222.7C149.647 222.46 150.094 222.136 150.517 221.783Z" fill="white"/>
<path d="M137.171 229.511C138.184 230.384 139.654 230.83 140.853 230.261C141.859 229.805 142.419 228.813 143.171 227.996C144.22 226.788 145.654 225.928 147.2 225.547C147.628 225.43 148.102 225.368 148.516 225.119C148.902 224.893 149.254 224.457 149.166 224.006C149.11 223.48 148.594 223.147 148.096 222.893C146.546 222.18 144.79 222.021 143.112 222.417C142.741 222.487 142.313 222.605 141.971 222.366C141.75 222.215 141.675 221.896 141.539 221.676C141.099 220.802 140.122 220.375 139.173 220.211C138.224 220.048 137.238 220.01 136.336 219.616C135.834 219.415 135.421 219.091 134.947 218.866C134.473 218.641 133.914 218.486 133.406 218.622C132.767 218.773 132.325 219.332 132.16 219.994C131.999 220.605 132.092 221.29 132.27 221.906C132.607 223.056 133.268 224.079 134.014 225.032C134.343 225.427 134.746 225.854 134.962 226.342C135.172 226.882 135.487 227.432 135.805 227.929C136.199 228.46 136.64 229.046 137.171 229.511Z" fill="#DD1D1D"/>
<path opacity="0.1" d="M188.732 216.566L170.136 163.371L166.741 164.562L185.337 217.757L188.732 216.566Z" fill="white"/>
<path opacity="0.1" d="M184.016 217.463L165.42 164.269L163.861 164.815L182.457 218.01L184.016 217.463Z" fill="white"/>
<path opacity="0.1" d="M134.866 265.643L111.213 197.981L109.204 198.686L132.857 266.348L134.866 265.643Z" fill="white"/>
<path opacity="0.1" d="M143.661 265.14L120.008 197.479L119.003 197.831L142.657 265.492L143.661 265.14Z" fill="white"/>
<path opacity="0.1" d="M140.97 264.272L117.316 196.61L112.986 198.129L136.64 265.791L140.97 264.272Z" fill="white"/>
</g>
</g>
<path d="M517.207 276.399C522.283 286.229 527.868 296.567 532.944 306.766L548.451 337.503C553.481 347.748 558.419 358.04 563.173 368.331C567.927 378.623 572.403 388.868 576.234 399.114L576.603 382.961C573.905 391.255 570.668 399.364 566.911 407.236C565.111 411.297 562.804 415.174 560.819 419.189C558.835 423.204 556.204 427.035 553.851 430.819C548.954 438.642 543.655 446.205 537.975 453.479C535.113 457.125 532.252 460.863 529.206 464.371C526.16 467.878 522.837 471.524 519.976 474.524L519.053 475.539C516.927 477.874 515.701 480.889 515.596 484.045C515.491 487.201 516.513 490.292 518.479 492.763C520.444 495.234 523.226 496.925 526.325 497.532C529.423 498.139 532.637 497.623 535.39 496.076C540.161 493.389 544.783 490.447 549.235 487.261C553.851 484.216 557.912 481.031 562.065 477.662C570.38 470.842 578.185 463.423 585.418 455.464C592.801 447.376 599.515 438.702 605.493 429.527C611.636 420.18 616.978 410.33 621.461 400.083C623.436 395.734 623.78 390.819 622.43 386.238L621.784 384.069C618.277 372.023 614.354 360.347 610.016 348.902C605.678 337.456 601.063 326.242 596.171 315.212C591.279 304.182 586.156 293.29 580.756 282.537C575.357 271.784 569.911 261.262 563.681 250.508C560.237 244.354 554.505 239.808 547.728 237.856C540.952 235.904 533.679 236.706 527.49 240.086C521.301 243.466 516.696 249.152 514.676 255.908C512.655 262.665 513.382 269.945 516.699 276.168L517.207 276.399Z" fill="#FF8B7B"/>
<path d="M490.719 259.965C488.873 295.178 528.839 359.835 528.839 359.835L611.126 318.715C601.126 289.549 585.65 262.56 565.529 239.197C522.009 191.108 492.426 227.66 490.719 259.965Z" fill="#263238"/>
<path d="M546.466 489.475L529.898 517.166L495.423 495.106C501.444 484.315 510.875 475.826 522.237 470.969C524.864 470.13 527.705 470.259 530.245 471.335C532.785 472.41 534.856 474.36 536.082 476.83L546.466 489.475Z" fill="#FF8B7B"/>
<path d="M516.099 528.98L500.085 525.98C498.737 525.731 497.452 525.217 496.303 524.469C495.155 523.72 494.166 522.752 493.393 521.619C492.621 520.486 492.081 519.212 491.803 517.869C491.526 516.526 491.518 515.142 491.778 513.796L495.424 495.336L529.898 517.396L527.591 522.98C526.647 525.141 524.993 526.914 522.902 528.005C520.812 529.096 518.412 529.44 516.099 528.98V528.98Z" fill="#FF8B7B"/>
<path d="M418.863 83.0227C418.54 86.0225 416.647 88.3761 414.709 88.1915C412.771 88.0069 411.479 85.4687 411.848 82.4689C412.217 79.4691 414.063 77.1154 416.001 77.2539C417.94 77.3923 419.232 79.9767 418.863 83.0227Z" fill="#263238"/>
<path d="M416.925 88.3799C412.257 97.3435 406.439 105.659 399.618 113.117C404.233 118.516 413.464 116.947 413.464 116.947L416.925 88.3799Z" fill="#FF5652"/>
<path d="M431.783 67.0997C431.543 67.1354 431.298 67.1166 431.066 67.0447C430.835 66.9728 430.622 66.8496 430.444 66.6843C428.844 65.1859 426.901 64.1034 424.784 63.5321C422.668 62.9607 420.444 62.918 418.307 63.4076C418.089 63.4774 417.859 63.5013 417.631 63.4779C417.403 63.4545 417.182 63.3842 416.983 63.2716C416.784 63.1589 416.61 63.0062 416.472 62.8232C416.335 62.6401 416.237 62.4306 416.184 62.2077C416.068 61.7491 416.133 61.2637 416.365 60.8515C416.597 60.4393 416.978 60.1318 417.43 59.9925C420.128 59.3486 422.943 59.3736 425.629 60.0653C428.316 60.757 430.793 62.0944 432.844 63.9614C433.016 64.1252 433.153 64.3221 433.246 64.5403C433.34 64.7584 433.388 64.9933 433.388 65.2306C433.388 65.4679 433.34 65.7027 433.246 65.9209C433.153 66.139 433.016 66.3359 432.844 66.4997C432.716 66.6655 432.557 66.8039 432.374 66.907C432.192 67.01 431.991 67.0755 431.783 67.0997Z" fill="#263238"/>
<path d="M511.902 116.439C503.088 143.161 491.365 192.403 508.072 212.156C508.072 212.156 497.088 239.062 446.507 234.77C390.803 230.155 423.431 205.003 423.431 205.003C454.722 200.388 456.845 177.82 454.26 156.267L511.902 116.439Z" fill="#FF8B7B"/>
<path d="M520.025 221.895C525.24 213.542 531.055 203.989 521.178 200.435C510.333 196.512 449.414 190.144 427.723 195.497C406.032 200.851 410.463 218.572 410.463 218.572L520.025 221.895Z" fill="#6550E2"/>
<path d="M341.652 233.153C333.714 240.445 325.13 248.521 316.592 255.905C308.054 263.289 299.424 270.858 290.747 278.15C282.071 285.442 273.21 292.318 264.303 299.01C255.396 305.702 246.35 311.794 237.305 317.47L255.765 315.717C248.094 313.67 240.833 310.313 234.305 305.794C226.677 300.463 219.596 294.387 213.168 287.657C206.241 280.567 199.752 273.062 193.739 265.182C190.647 261.167 187.554 257.105 184.509 252.906C181.463 248.706 178.694 244.275 176.155 240.399L175.648 239.66C173.895 236.983 171.238 235.025 168.162 234.144C165.086 233.263 161.795 233.517 158.891 234.86C155.987 236.203 153.662 238.546 152.341 241.46C151.02 244.375 150.791 247.667 151.695 250.737C153.449 256.736 155.295 261.859 157.418 267.212C159.541 272.566 161.756 277.827 164.248 282.996C169.302 293.54 175.214 303.65 181.924 313.224C188.969 323.378 197.178 332.671 206.384 340.915C216.574 350.011 228.398 357.09 241.228 361.775C243.982 362.746 246.901 363.16 249.817 362.993C252.732 362.827 255.585 362.083 258.211 360.806L259.734 360.021C271.193 354.39 282.319 348.103 293.055 341.192C303.531 334.408 313.684 327.347 323.468 319.778C333.252 312.209 342.713 304.548 351.943 296.703C361.173 288.857 370.034 280.642 379.034 271.458C383.823 266.463 386.491 259.808 386.479 252.888C386.468 245.969 383.777 239.323 378.971 234.344C374.166 229.365 367.619 226.441 360.704 226.184C353.789 225.928 347.044 228.359 341.882 232.968L341.652 233.153Z" fill="#FF8B7B"/>
<path d="M369.849 209.203C369.849 209.203 323.329 254.339 317.93 533.504C392.325 551.549 463.904 558.195 519.193 551.18C521.823 516.152 525.746 394.59 561.282 266.43C562.809 261.032 563.196 255.376 562.421 249.82C561.645 244.264 559.723 238.93 556.777 234.157C553.83 229.383 549.923 225.275 545.305 222.091C540.686 218.908 535.456 216.719 529.946 215.664C522.885 214.28 515.455 213.034 508.071 212.064C480.018 208.052 451.758 205.663 423.43 204.911C405.49 205.058 387.584 206.492 369.849 209.203Z" fill="#263238"/>
<path d="M405.939 257.847C401.324 292.783 341.328 359.932 341.328 359.932L270.117 286.091C291.271 263.883 314.14 243.375 338.513 224.757C390.709 185.76 410.092 225.449 405.939 257.847Z" fill="#263238"/>
<path d="M156.31 263.013L132.496 241.184L161.017 211.878C170.451 219.911 176.945 230.854 179.477 242.983C179.756 245.756 179.022 248.537 177.41 250.81C175.798 253.084 173.418 254.697 170.709 255.352L156.31 263.013Z" fill="#FF8B7B"/>
<path d="M123.727 225.312L129.865 210.22C130.385 208.926 131.159 207.748 132.142 206.758C133.125 205.768 134.297 204.985 135.587 204.455C136.878 203.926 138.263 203.661 139.658 203.676C141.053 203.692 142.431 203.987 143.71 204.544L161.201 211.882L132.68 241.188L127.696 237.819C125.696 236.509 124.209 234.55 123.486 232.271C122.762 229.993 122.848 227.535 123.727 225.312V225.312Z" fill="#FF8B7B"/>
<path d="M519.006 84.5908C512.314 121.511 510.284 143.387 489.516 160.97C458.272 187.415 415.167 166.831 411.06 129.126C407.183 95.1593 418.767 40.4707 456.333 28.5638C493.9 16.6569 525.698 47.6702 519.006 84.5908Z" fill="#FF8B7B"/>
<path d="M446.226 97.8856C433.258 100.839 423.151 85.8402 421.766 81.5944C428.089 82.1943 439.304 78.9638 441.519 76.1025C434.596 76.7024 427.905 68.1646 427.074 64.8879C434.419 63.4695 440.923 59.249 445.211 53.1194C433.996 52.8887 420.52 33.1362 432.843 15.4605C445.165 -2.21524 496.669 12.5991 503.915 0C514.714 6.27649 505.115 14.6298 505.115 14.6298C505.115 14.6298 577.987 28.475 544.389 56.5807C569.033 58.796 572.495 87.917 551.958 102.731C531.421 117.546 530.359 127.33 538.528 126.13C535.251 132.406 520.621 133.237 519.791 127.145C516.329 139.929 506.361 157.235 483.378 154.42C460.395 151.605 437.873 119.438 446.226 97.8856Z" fill="#263238"/>
<path d="M538.022 52.2858C555.374 54.6856 563.266 44.9017 558.928 36.2715C580.434 47.2553 556.944 71.5306 538.022 52.2858Z" fill="#263238"/>
<path d="M464.182 92.2521C461.196 99.9868 455.913 106.622 449.045 111.266C439.815 117.358 431.461 111.266 433.03 102.036C434.461 93.5443 440.968 80.1145 450.568 77.7146C452.556 77.0622 454.689 76.9912 456.716 77.5099C458.743 78.0286 460.58 79.1156 462.01 80.6428C463.44 82.17 464.404 84.074 464.789 86.1306C465.174 88.1873 464.963 90.3111 464.182 92.2521Z" fill="#FF8B7B"/>
<defs>
<clipPath id="clip0">
<rect width="73.0882" height="99.0227" fill="white" transform="translate(164.092 153) rotate(50.2131)"/>
</clipPath>
</defs>
</svg>
