<svg width="661" height="526" viewBox="0 0 661 526" fill="none" xmlns="http://www.w3.org/2000/svg">
<g clip-path="url(#clip0)">
<path d="M154.603 260.142C154.597 259.875 154.644 259.617 154.742 259.368C154.756 259.35 154.756 259.35 154.77 259.331C156.241 255.838 157.35 252.162 158.854 248.664C159.555 247.023 160.293 245.41 161.064 243.792C161.087 243.722 161.144 243.647 161.186 243.591C164.737 238.143 168.288 232.696 171.839 227.249C174.964 222.448 178.089 217.648 181.215 212.848C181.257 212.791 181.299 212.735 181.341 212.679C192.381 199.465 205.241 187.703 218.003 176.071C218.078 176.01 218.059 175.879 217.984 175.823C217.89 175.752 217.885 175.602 217.993 175.536C219.437 174.862 220.509 173.47 221.421 172.017C221.87 171.299 221.732 170.347 221.078 169.77C209.607 159.687 193.67 155.332 183.085 144.302C179.274 140.336 176.292 135.615 172.289 131.827C169.373 129.058 165.988 126.875 162.571 124.813C160.79 123.742 160.169 123.043 159.441 125.191C159.054 126.335 158.831 127.573 158.623 128.792C158.53 129.308 158.212 129.772 157.747 130.039C153.683 132.409 151.064 136.886 149.487 141.383C148.526 144.117 147.865 146.958 147.134 149.777C147.093 149.95 147.018 150.128 146.905 150.278C145.745 152.102 144.924 154.414 143.707 156.195C142.322 158.201 140.768 160.081 139.176 161.932C135.069 166.671 130.554 171.133 127.143 176.393C125.829 178.422 124.669 180.598 123.81 182.881C123.726 183.111 123.605 183.313 123.427 183.472C113.273 194.013 102.634 204.103 91.5907 213.714C91.6283 213.742 91.6659 213.77 91.6847 213.784C90.9297 214.126 90.2604 215.059 89.689 215.626C89.2767 216.02 88.8833 216.428 88.4711 216.821C87.7544 217.543 87.7898 218.711 88.5424 219.391C97.4365 227.428 106.476 235.427 116.835 241.428C119.707 243.081 122.677 244.603 125.399 246.495C128.995 248.984 132.109 252.077 135.448 254.87C140.339 259.001 145.764 262.537 151.521 265.355C152.479 265.839 153.633 265.357 153.973 264.354C154.431 262.998 154.643 261.577 154.603 260.142Z" fill="#DDBF0A"/>
<path d="M221.388 172.022C221.837 171.305 221.699 170.353 221.045 169.775C209.607 159.687 193.67 155.332 183.084 144.303C179.273 140.337 176.292 135.616 172.289 131.828C169.372 129.059 165.988 126.875 162.571 124.814C160.789 123.743 160.168 123.044 159.44 125.191C159.114 126.176 158.882 127.231 158.701 128.296C159.44 129.112 160.281 129.83 161.09 130.553C167.19 135.853 173.271 141.139 179.371 146.439C183.938 150.415 188.542 154.419 193.605 157.771C198.461 160.969 203.682 163.562 208.486 166.867C212.064 169.342 215.38 172.205 218.358 175.401C219.572 174.642 220.579 173.377 221.388 172.022Z" fill="#AF940C"/>
<path d="M120.943 237.276C112.99 230.413 105.037 223.55 97.0893 216.72C95.5373 215.382 93.6566 213.974 91.7546 213.574C91.6937 213.616 91.6515 213.672 91.5906 213.714C91.6282 213.742 91.6658 213.771 91.6846 213.785C90.9296 214.126 90.2604 215.059 89.6889 215.626C89.2767 216.02 88.8833 216.428 88.471 216.821C87.7544 217.543 87.7898 218.711 88.5423 219.392C97.4364 227.428 106.476 235.427 116.835 241.429C119.707 243.082 122.677 244.603 125.399 246.496C128.995 248.984 132.109 252.077 135.448 254.87C140.339 259.001 145.764 262.537 151.521 265.356C152.479 265.839 153.633 265.357 153.973 264.354C154.43 262.999 154.643 261.578 154.603 260.142C154.584 260.011 154.597 259.875 154.63 259.753C153.606 259.279 152.558 258.875 151.524 258.452C140.018 253.668 130.386 245.402 120.943 237.276Z" fill="#AF940C"/>
<path d="M168.915 145.191L163.017 153.066L153.388 150.245L159.368 137.164L168.915 145.191Z" fill="#DD0E0E"/>
<path d="M197.652 171.103L170.758 150.962L166.686 156.399L193.58 176.54L197.652 171.103Z" fill="#AF940C"/>
<path fill-rule="evenodd" clip-rule="evenodd" d="M162.124 182.835C156.836 177.704 152.21 174.357 148.182 174.208C149.667 170.697 151.383 167.738 153.623 165.845C157.536 162.542 160.744 163.51 163.193 165.14C166.272 167.182 170.169 171.622 173.556 174.978C177.921 179.301 182.186 182.7 186.403 183.223C185.485 186.37 183.801 188.972 181.519 191.156C178.957 193.714 176.132 193.881 173.1 192.167C169.204 189.922 165.656 186.271 162.124 182.835Z" fill="white"/>
<path fill-rule="evenodd" clip-rule="evenodd" d="M167.769 170.907C168.201 171.231 168.16 171.757 167.893 172.113C167.598 172.507 167.125 172.708 166.692 172.384C166.245 172.079 166.273 171.572 166.549 171.164C166.815 170.808 167.298 170.555 167.769 170.907ZM167.979 170.626C167.359 170.161 166.654 170.161 166.163 170.817C165.671 171.473 165.786 172.144 166.463 172.651C167.121 173.144 167.801 173.098 168.293 172.441C168.784 171.785 168.637 171.119 167.979 170.626ZM164.959 169.798L165.408 169.198C165.672 169.395 166.071 169.607 165.818 169.944C165.566 170.282 165.241 170.01 164.959 169.798ZM163.745 170.557L164.159 170.867L164.748 170.08C165.087 170.333 165.487 170.662 165.918 170.517C166.35 170.372 166.635 169.795 166.08 169.321L165.177 168.645L163.745 170.557V170.557ZM163.198 167.133L163.555 167.401C163.415 167.588 162.666 168.549 162.591 168.727C162.357 169.196 163.109 169.759 163.503 169.352C163.718 169.103 164.266 168.372 164.491 168.072L164.848 168.34C164.665 168.583 163.912 169.629 163.72 169.807C163.181 170.252 162.415 169.707 162.184 169.271C161.976 168.882 162.149 168.572 162.388 168.253L163.198 167.133ZM161.23 166.977L161.666 166.395C161.948 166.607 162.347 166.818 162.109 167.137C161.842 167.493 161.456 167.146 161.23 166.977ZM160.002 167.754L160.416 168.064L161.034 167.239L161.278 167.422L161.112 168.585L161.601 168.952L161.734 167.676C162.049 167.765 162.349 167.756 162.574 167.456C162.855 167.081 162.633 166.71 162.314 166.471L161.449 165.823L160.002 167.754ZM159.749 165.897L159.553 166.159L159.873 166.399L159.564 166.811C159.141 166.67 158.619 166.309 158.777 165.784C158.936 165.258 159.564 164.734 160.166 165.184C160.41 165.367 160.504 165.555 160.444 165.832L160.88 165.72C160.851 165.405 160.701 165.175 160.381 164.936C159.102 163.978 158.11 165.342 158.304 166.102C158.46 166.717 159.189 167.116 159.743 167.356L160.445 166.418L159.749 165.897ZM159.421 181.309C156.157 178.337 152.645 175.971 149.261 176.1C148.687 175.494 148.099 174.907 147.525 174.302C148.696 171.053 150.605 168.151 153.125 165.531C155.814 163.155 159.154 161.793 162.858 164.215C166.694 166.737 171.041 171.398 175.613 175.641C178.887 178.678 182.248 180.697 185.477 180.657C186.061 181.446 186.645 182.234 187.248 183.037C186.171 186.474 184.219 189.197 181.807 191.517C178.378 194.802 174.954 194.317 171.635 191.889C167.074 188.532 162.817 184.378 159.421 181.309ZM162.124 182.835C156.836 177.705 152.21 174.357 148.182 174.209C149.667 170.697 151.384 167.739 153.623 165.845C157.536 162.542 160.744 163.51 163.193 165.14C166.272 167.182 170.169 171.622 173.556 174.978C177.921 179.301 182.186 182.7 186.403 183.224C185.485 186.37 183.801 188.972 181.519 191.156C178.957 193.715 176.132 193.881 173.1 192.167C169.204 189.922 165.657 186.271 162.124 182.835Z" fill="#3D438B"/>
<path fill-rule="evenodd" clip-rule="evenodd" d="M170.797 184.384L169.556 183.454L172.28 179.817L173.314 180.591C173.86 181 173.973 181.319 173.748 181.619C173.43 182.083 173.017 182.125 172.603 181.815L172.209 181.519L170.919 182.222L171.878 182.94C172.348 183.292 172.528 183.954 172.163 184.324C171.816 184.708 171.267 184.736 170.797 184.384ZM170.124 185.753L167.171 183.542L171.693 177.504L174.495 179.603C175.473 180.335 176.09 181.236 175.538 182.286C175.132 183.064 174.541 183.383 173.78 183.34C174.299 184.255 173.935 185.446 173.007 186.097C172.098 186.763 170.839 186.288 170.124 185.753ZM179.009 185.061C179.893 185.723 180.078 187.003 179.404 187.903C178.73 188.803 177.468 188.999 176.565 188.323C175.681 187.661 175.496 186.381 176.17 185.481C176.844 184.581 178.125 184.399 179.009 185.061ZM180.076 183.636C181.75 184.889 182.098 187.286 180.82 188.992C179.556 190.68 177.163 191.053 175.47 189.786C173.796 188.532 173.448 186.135 174.726 184.429C176.023 182.737 178.402 182.382 180.076 183.636ZM171.091 177.053L166.57 183.091L165.084 181.978L167.948 178.153L164.106 181.246L162.658 180.161L164.573 175.684L161.736 179.471L160.288 178.387L164.809 172.349L167.141 174.096L165.39 178.081L168.702 175.265L171.091 177.053ZM162.703 170.772L164.17 171.87L159.648 177.908L158.181 176.809L162.703 170.772ZM156.372 173.581L155.131 172.651L157.855 169.014L158.889 169.789C159.435 170.197 159.548 170.516 159.323 170.816C159.005 171.28 158.592 171.322 158.178 171.012L157.783 170.716L156.494 171.419L157.453 172.137C157.923 172.489 158.103 173.151 157.738 173.521C157.391 173.905 156.842 173.933 156.372 173.581ZM155.699 174.95L152.746 172.739L157.268 166.701L160.07 168.8C161.048 169.532 161.665 170.433 161.113 171.483C160.706 172.262 160.116 172.58 159.355 172.537C159.874 173.452 159.51 174.643 158.582 175.295C157.673 175.96 156.414 175.485 155.699 174.95Z" fill="#DA243C"/>
<mask id="mask0" mask-type="alpha" maskUnits="userSpaceOnUse" x="87" y="123" width="135" height="143">
<path d="M154.603 260.142C154.597 259.875 154.644 259.617 154.742 259.368C154.756 259.35 154.756 259.35 154.77 259.331C156.241 255.838 157.35 252.162 158.854 248.664C159.555 247.023 160.293 245.41 161.064 243.792C161.087 243.722 161.144 243.647 161.186 243.591C164.737 238.143 168.288 232.696 171.839 227.249C174.964 222.448 178.089 217.648 181.215 212.848C181.257 212.791 181.299 212.735 181.341 212.679C192.381 199.465 205.241 187.703 218.003 176.071C218.078 176.01 218.059 175.879 217.984 175.823C217.89 175.752 217.885 175.602 217.993 175.536C219.437 174.862 220.509 173.47 221.421 172.017C221.87 171.299 221.732 170.347 221.078 169.77C209.607 159.687 193.67 155.332 183.085 144.302C179.274 140.336 176.292 135.615 172.289 131.827C169.373 129.058 165.988 126.875 162.571 124.813C160.79 123.742 160.169 123.043 159.441 125.191C159.054 126.335 158.831 127.573 158.623 128.792C158.53 129.308 158.212 129.772 157.747 130.039C153.683 132.409 151.064 136.886 149.487 141.383C148.526 144.117 147.865 146.958 147.134 149.777C147.093 149.95 147.018 150.128 146.905 150.278C145.745 152.102 144.924 154.414 143.707 156.195C142.322 158.201 140.768 160.081 139.176 161.932C135.069 166.671 130.554 171.133 127.143 176.393C125.829 178.422 124.669 180.598 123.81 182.881C123.726 183.111 123.605 183.313 123.427 183.472C113.273 194.013 102.634 204.103 91.5907 213.714C91.6283 213.742 91.6659 213.77 91.6847 213.784C90.9297 214.126 90.2604 215.059 89.689 215.626C89.2767 216.02 88.8833 216.428 88.4711 216.821C87.7544 217.543 87.7898 218.711 88.5424 219.391C97.4365 227.428 106.476 235.427 116.835 241.428C119.707 243.081 122.677 244.603 125.399 246.495C128.995 248.984 132.11 252.077 135.448 254.87C140.339 259.001 145.764 262.537 151.521 265.355C152.479 265.839 153.633 265.357 153.973 264.354C154.431 262.998 154.643 261.577 154.603 260.142Z" fill="#DDBF0A"/>
</mask>
<g mask="url(#mask0)">
<path d="M171.847 198.662C170.365 196.996 168.812 195.306 166.782 194.371C163.968 193.112 160.73 193.556 157.68 194.022L138.843 196.949C137.924 197.08 137.193 197.82 137.059 198.744L133.971 218.82C133.638 221.029 133.305 223.355 134 225.485C134.661 227.502 136.167 229.098 137.63 230.633C140.853 234.012 144.062 237.41 147.285 240.79C149.284 242.902 151.303 245.028 153.672 246.685C156.437 248.639 159.674 249.921 163.031 250.416C165.003 250.723 167.13 250.705 168.855 249.656C170.304 248.78 171.22 247.242 172.081 245.78C175.986 239.076 179.614 232.193 182.936 225.17C183.758 223.444 184.562 221.705 185.347 219.952C185.851 218.807 186.96 217.209 186.77 215.896C186.599 214.831 185.517 213.962 184.853 213.202C183.512 211.7 182.171 210.198 180.849 208.71C177.847 205.35 174.849 202.022 171.847 198.662Z" fill="#996A2B"/>
<path d="M134.824 231.166C136.532 230.923 138.188 230.436 139.924 230.391C142.262 230.327 144.55 231.074 146.776 231.864C148.984 232.64 151.249 233.457 153.587 233.511C154.915 233.54 156.304 233.292 157.509 232.702C158.888 232.037 159.175 230.204 158.065 229.138C154.927 226.115 151.63 223.266 148.174 220.59C146.19 219.045 144.126 217.529 141.81 216.584C139.423 215.616 136.803 215.235 134.245 215.514C131.753 215.784 129.277 216.739 127.445 218.44C125.613 220.141 124.492 222.697 124.789 225.202C125.362 229.963 130.647 231.725 134.824 231.166Z" fill="#CE9F1B"/>
<path d="M145.995 209.506C143.63 209.842 141.139 210.229 139.353 211.79C138.416 212.61 137.752 213.81 137.849 215.053C137.969 216.343 138.896 217.417 139.828 218.291C141.483 219.882 143.397 221.286 145.577 221.981C147.775 222.691 150.277 222.604 152.232 221.405C154.449 220.051 155.692 217.294 155.367 214.709C155.137 212.664 153.921 210.407 152.13 209.271C150.541 208.257 147.788 209.268 145.995 209.506Z" fill="#E8C258"/>
<path d="M166.294 196.669C164.428 193.164 159.88 191.397 156.099 192.605C152.895 193.629 150.606 196.334 148.485 198.931C147.445 200.201 146.355 201.579 146.156 203.216C145.848 205.94 148.233 208.4 150.887 209.129C153.541 209.858 156.347 209.325 159.035 208.793C160.485 208.503 162.438 208.443 163.722 207.591C164.641 206.991 165.37 205.782 165.927 204.881C167.429 202.406 167.591 199.25 166.294 196.669Z" fill="#E8B71A"/>
<path d="M168.156 204.649C169.51 203.468 171.283 202.864 173.029 202.415C174.291 202.102 175.839 201.916 176.7 202.882C177.26 203.507 177.342 204.417 177.414 205.261C177.759 210.641 178.137 216.016 178.482 221.396C178.608 223.305 178.627 225.514 177.226 226.836C176.046 227.942 174.211 228.001 172.623 227.69C168.735 226.885 165.367 223.895 164.082 220.123C163.156 217.44 163.338 214.415 164.454 211.827C164.93 210.72 165.769 209.797 166.123 208.657C166.598 207.082 166.802 205.83 168.156 204.649Z" fill="#B58612"/>
<path d="M173.378 229.544C172.532 231.339 171.231 232.999 169.468 233.902C167.704 234.806 165.395 234.833 163.782 233.654C164.512 232.562 165.868 232.085 167.017 231.452C168.508 230.637 169.772 229.419 170.67 227.984C171.12 227.267 171.493 226.494 171.764 225.701C171.895 225.331 171.934 224.219 172.356 224.008C173.093 223.652 173.912 224.793 174.176 225.342C174.789 226.679 173.952 228.306 173.378 229.544Z" fill="#E8C258"/>
<path d="M165.168 224.828C163.572 225.038 161.925 225.239 160.551 226.054C159.159 226.855 158.097 228.43 158.358 230.001C158.515 230.968 159.174 231.812 159.992 232.366C160.824 232.902 161.801 233.165 162.773 233.278C164.783 233.496 166.852 233.084 168.62 232.096C169.675 231.511 170.63 230.705 171.196 229.636C171.762 228.567 171.904 227.239 171.362 226.16C170.707 224.879 169.213 224.17 167.757 224.075C166.302 223.98 164.885 224.383 163.487 224.799" fill="#B58612"/>
<path d="M168.296 206.773C167.135 206.05 165.806 205.669 164.463 205.424C158.776 204.355 152.742 205.397 147.749 208.301C146.806 208.854 145.78 209.636 145.773 210.743C145.752 211.751 146.608 212.568 147.431 213.155C151.272 215.944 156.086 217.354 160.813 217.002C163.582 216.793 167.509 216.017 169.622 214.058C171.88 211.944 170.604 208.238 168.296 206.773Z" fill="#CE9F1B"/>
<path d="M156.607 210.662C156.408 209.869 155.473 209.55 154.703 209.324C148.799 207.565 144.575 205.719 140.635 200.984C140.573 200.557 139.732 199.956 139.38 200.19C139.015 200.443 138.936 200.94 139.05 201.377C139.163 201.813 139.446 202.141 139.728 202.47C143.267 206.642 147.851 209.929 152.944 211.987C153.71 212.297 154.522 212.584 155.32 212.42C156.118 212.256 156.806 211.455 156.607 210.662Z" fill="#E8C258"/>
<path d="M144.882 200.213C144.403 200.03 143.858 199.856 143.375 199.992C142.873 200.113 142.456 200.708 142.692 201.178C142.88 201.553 143.331 201.657 143.731 201.751C147.112 202.527 150.242 204.344 152.59 206.893C153.07 207.428 155.309 209.573 155.888 208.016C156.187 207.186 154.578 205.924 154.099 205.506C151.432 203.187 148.161 201.44 144.882 200.213Z" fill="#E8C258"/>
<path d="M171.142 226.377C172.683 224.985 173.96 223.161 174.299 221.103C174.595 219.335 174.23 217.51 173.536 215.849C172.286 212.893 169.933 210.312 166.894 209.236C163.854 208.159 160.175 208.799 157.988 211.171C156.555 212.731 155.786 214.935 154.028 216.106C152.837 216.912 151.279 217.15 150.272 218.181C149.354 219.133 149.099 220.61 149.388 221.909C149.678 223.209 150.464 224.354 151.349 225.368C153.908 228.221 157.625 229.922 161.419 230.187C165.334 230.486 168.298 228.959 171.142 226.377Z" fill="#E8B71A"/>
<path d="M168.808 232.588C169.704 232.528 170.652 232.36 171.498 232.642C172.343 232.924 173.11 233.82 172.849 234.678C172.602 235.518 171.627 235.841 170.763 236.014C164.396 237.186 157.49 234.648 153.362 229.655C152.223 228.275 151.542 225.775 153.996 225.359C155.911 225.037 156.201 226.805 157.128 227.997C159.708 231.334 164.781 232.909 168.808 232.588Z" fill="#E8C258"/>
<path d="M124.77 215.243C130.34 217.384 135.82 216.602 137.008 213.496C138.196 210.39 134.644 206.136 129.073 203.994C123.502 201.853 118.023 202.635 116.835 205.741C115.646 208.848 119.199 213.102 124.77 215.243Z" fill="#916409"/>
<path d="M125.138 212.558C130.708 214.699 136.012 214.377 136.982 211.839C137.953 209.301 134.225 205.508 128.654 203.366C123.083 201.225 117.78 201.547 116.809 204.085C115.838 206.623 119.567 210.417 125.138 212.558Z" fill="#7F5A18"/>
<path fill-rule="evenodd" clip-rule="evenodd" d="M133.432 208.173C132.181 207.06 130.649 206.205 128.996 206.021C127.09 205.823 125.143 206.501 123.306 205.975C122.24 205.674 121.333 204.965 120.29 204.594C119.247 204.222 117.881 204.282 117.277 205.206C116.866 205.834 116.924 206.697 117.273 207.368C117.622 208.039 118.186 208.579 118.746 209.086C120.937 211.02 123.387 212.766 126.14 213.716C128.399 214.501 130.864 214.737 133.229 214.401C134.018 214.289 134.797 214.111 135.439 213.685C136.339 213.071 136.783 212.204 136.161 211.27C135.412 210.153 134.434 209.069 133.432 208.173Z" fill="white"/>
</g>
<mask id="mask1" mask-type="alpha" maskUnits="userSpaceOnUse" x="87" y="123" width="135" height="143">
<path d="M154.603 260.142C154.597 259.875 154.644 259.617 154.742 259.368C154.756 259.35 154.756 259.35 154.77 259.331C156.241 255.838 157.35 252.162 158.854 248.664C159.555 247.023 160.293 245.41 161.064 243.792C161.087 243.722 161.144 243.647 161.186 243.591C164.737 238.143 168.288 232.696 171.839 227.249C174.964 222.448 178.089 217.648 181.215 212.848C181.257 212.791 181.299 212.735 181.341 212.679C192.381 199.465 205.241 187.703 218.003 176.071C218.078 176.01 218.059 175.879 217.984 175.823C217.89 175.752 217.885 175.602 217.993 175.536C219.437 174.862 220.509 173.47 221.421 172.017C221.87 171.299 221.732 170.347 221.078 169.77C209.607 159.687 193.67 155.332 183.085 144.302C179.274 140.336 176.292 135.615 172.289 131.827C169.373 129.058 165.988 126.875 162.571 124.813C160.79 123.742 160.169 123.043 159.441 125.191C159.054 126.335 158.831 127.573 158.623 128.792C158.53 129.308 158.212 129.772 157.747 130.039C153.683 132.409 151.064 136.886 149.487 141.383C148.526 144.117 147.865 146.958 147.134 149.777C147.093 149.95 147.018 150.128 146.905 150.278C145.745 152.102 144.924 154.414 143.707 156.195C142.322 158.201 140.768 160.081 139.176 161.932C135.069 166.671 130.554 171.133 127.143 176.393C125.829 178.422 124.669 180.598 123.81 182.881C123.726 183.111 123.605 183.313 123.427 183.472C113.273 194.013 102.634 204.103 91.5907 213.714C91.6283 213.742 91.6659 213.77 91.6847 213.784C90.9297 214.126 90.2604 215.059 89.689 215.626C89.2767 216.02 88.8833 216.428 88.4711 216.821C87.7544 217.543 87.7898 218.711 88.5424 219.391C97.4365 227.428 106.476 235.427 116.835 241.428C119.707 243.081 122.677 244.603 125.399 246.495C128.995 248.984 132.11 252.077 135.448 254.87C140.339 259.001 145.764 262.537 151.521 265.355C152.479 265.839 153.633 265.357 153.973 264.354C154.431 262.998 154.643 261.577 154.603 260.142Z" fill="#DDBF0A"/>
</mask>
<g mask="url(#mask1)">
<path opacity="0.15" d="M126.396 267.468L258.417 182.948L256.55 180.044L124.529 264.564L126.396 267.468Z" fill="white"/>
<path opacity="0.15" d="M129.329 281.866L261.35 197.347L260.422 195.904L128.402 280.424L129.329 281.866Z" fill="white"/>
<path opacity="0.15" d="M130.516 276.746L262.537 192.227L258.523 185.983L126.502 270.503L130.516 276.746Z" fill="white"/>
<path opacity="0.15" d="M66.7498 220.914L198.771 136.395L196.903 133.49L64.8824 218.01L66.7498 220.914Z" fill="white"/>
<path opacity="0.15" d="M69.702 235.3L201.723 150.78L200.795 149.338L68.7746 233.858L69.702 235.3Z" fill="white"/>
<path opacity="0.15" d="M70.9022 230.2L202.923 145.681L198.908 139.437L66.8877 223.957L70.9022 230.2Z" fill="white"/>
<path opacity="0.15" d="M166.478 311.598L298.499 227.078L294.485 220.835L162.464 305.354L166.478 311.598Z" fill="white"/>
<path opacity="0.15" d="M162.894 302.335L294.915 217.815L293.048 214.911L161.027 299.431L162.894 302.335Z" fill="white"/>
<path opacity="0.15" d="M119.929 263.475L251.949 178.955L247.935 172.712L115.914 257.231L119.929 263.475Z" fill="white"/>
<path opacity="0.15" d="M116.357 254.232L248.378 169.712L246.51 166.808L114.49 251.327L116.357 254.232Z" fill="white"/>
</g>
</g>
<path d="M519.207 276.399C524.283 286.229 529.868 296.567 534.944 306.766L550.451 337.503C555.481 347.748 560.419 358.04 565.173 368.331C569.927 378.623 574.403 388.868 578.234 399.114L578.603 382.961C575.905 391.255 572.668 399.364 568.911 407.236C567.111 411.297 564.804 415.174 562.819 419.189C560.835 423.204 558.204 427.035 555.851 430.819C550.954 438.642 545.655 446.205 539.975 453.479C537.113 457.125 534.252 460.863 531.206 464.371C528.16 467.878 524.837 471.524 521.976 474.524L521.053 475.539C518.927 477.874 517.701 480.889 517.596 484.045C517.491 487.201 518.513 490.292 520.479 492.763C522.444 495.234 525.226 496.925 528.325 497.532C531.423 498.139 534.637 497.623 537.39 496.076C542.161 493.389 546.783 490.447 551.235 487.261C555.851 484.216 559.912 481.031 564.065 477.662C572.38 470.842 580.185 463.423 587.418 455.464C594.801 447.376 601.515 438.702 607.493 429.527C613.636 420.18 618.978 410.33 623.461 400.083C625.436 395.734 625.78 390.819 624.43 386.238L623.784 384.069C620.277 372.023 616.354 360.347 612.016 348.902C607.678 337.456 603.063 326.242 598.171 315.212C593.279 304.182 588.156 293.29 582.756 282.537C577.357 271.784 571.911 261.262 565.681 250.508C562.237 244.354 556.505 239.808 549.728 237.856C542.952 235.904 535.679 236.706 529.49 240.086C523.301 243.466 518.696 249.152 516.676 255.908C514.655 262.665 515.382 269.945 518.699 276.168L519.207 276.399Z" fill="#FF8B7B"/>
<path d="M492.719 259.965C490.873 295.178 530.839 359.835 530.839 359.835L613.126 318.715C603.126 289.549 587.65 262.56 567.529 239.197C524.009 191.108 494.426 227.66 492.719 259.965Z" fill="#263238"/>
<path d="M548.466 489.475L531.898 517.166L497.423 495.106C503.444 484.315 512.875 475.826 524.237 470.969C526.864 470.13 529.705 470.259 532.245 471.335C534.785 472.41 536.856 474.36 538.082 476.83L548.466 489.475Z" fill="#FF8B7B"/>
<path d="M518.099 528.98L502.085 525.98C500.737 525.731 499.452 525.217 498.303 524.469C497.155 523.72 496.166 522.752 495.393 521.619C494.621 520.486 494.081 519.212 493.803 517.869C493.526 516.526 493.518 515.142 493.778 513.796L497.424 495.336L531.898 517.396L529.591 522.98C528.647 525.141 526.993 526.914 524.902 528.005C522.812 529.096 520.412 529.44 518.099 528.98V528.98Z" fill="#FF8B7B"/>
<path d="M420.863 83.0227C420.54 86.0225 418.647 88.3761 416.709 88.1915C414.771 88.0069 413.479 85.4687 413.848 82.4689C414.217 79.4691 416.063 77.1154 418.001 77.2539C419.94 77.3923 421.232 79.9767 420.863 83.0227Z" fill="#263238"/>
<path d="M418.925 88.3799C414.257 97.3435 408.439 105.659 401.618 113.117C406.233 118.516 415.464 116.947 415.464 116.947L418.925 88.3799Z" fill="#FF5652"/>
<path d="M433.783 67.0997C433.543 67.1354 433.298 67.1166 433.066 67.0447C432.835 66.9728 432.622 66.8496 432.444 66.6843C430.844 65.1859 428.901 64.1034 426.784 63.5321C424.668 62.9607 422.444 62.918 420.307 63.4076C420.089 63.4774 419.859 63.5013 419.631 63.4779C419.403 63.4545 419.182 63.3842 418.983 63.2716C418.784 63.1589 418.61 63.0062 418.472 62.8232C418.335 62.6401 418.237 62.4306 418.184 62.2077C418.068 61.7491 418.133 61.2637 418.365 60.8515C418.597 60.4393 418.978 60.1318 419.43 59.9925C422.128 59.3486 424.943 59.3736 427.629 60.0653C430.316 60.757 432.793 62.0944 434.844 63.9614C435.016 64.1252 435.153 64.3221 435.246 64.5403C435.34 64.7584 435.388 64.9933 435.388 65.2306C435.388 65.4679 435.34 65.7027 435.246 65.9209C435.153 66.139 435.016 66.3359 434.844 66.4997C434.716 66.6655 434.557 66.8039 434.374 66.907C434.192 67.01 433.991 67.0755 433.783 67.0997Z" fill="#263238"/>
<path d="M513.902 116.439C505.088 143.161 493.365 192.403 510.072 212.156C510.072 212.156 499.088 239.062 448.507 234.77C392.803 230.155 425.431 205.003 425.431 205.003C456.722 200.388 458.845 177.82 456.26 156.267L513.902 116.439Z" fill="#FF8B7B"/>
<path d="M522.025 221.895C527.24 213.542 533.055 203.989 523.178 200.435C512.333 196.512 451.414 190.144 429.723 195.497C408.032 200.851 412.463 218.572 412.463 218.572L522.025 221.895Z" fill="#6550E2"/>
<path d="M343.652 233.153C335.714 240.445 327.13 248.521 318.592 255.905C310.054 263.289 301.424 270.858 292.747 278.15C284.071 285.442 275.21 292.318 266.303 299.01C257.396 305.702 248.35 311.794 239.305 317.47L257.765 315.717C250.094 313.67 242.833 310.313 236.305 305.794C228.677 300.463 221.596 294.387 215.168 287.657C208.241 280.567 201.752 273.062 195.739 265.182C192.647 261.167 189.554 257.105 186.509 252.906C183.463 248.706 180.694 244.275 178.155 240.399L177.648 239.66C175.895 236.983 173.238 235.025 170.162 234.144C167.086 233.263 163.795 233.517 160.891 234.86C157.987 236.203 155.662 238.546 154.341 241.46C153.02 244.375 152.791 247.667 153.695 250.737C155.449 256.736 157.295 261.859 159.418 267.212C161.541 272.566 163.756 277.827 166.248 282.996C171.302 293.54 177.214 303.65 183.924 313.224C190.969 323.378 199.178 332.671 208.384 340.915C218.574 350.011 230.398 357.09 243.228 361.775C245.982 362.746 248.901 363.16 251.817 362.993C254.732 362.827 257.585 362.083 260.211 360.806L261.734 360.021C273.193 354.39 284.319 348.103 295.055 341.192C305.531 334.408 315.684 327.347 325.468 319.778C335.252 312.209 344.713 304.548 353.943 296.703C363.173 288.857 372.034 280.642 381.034 271.458C385.823 266.463 388.491 259.808 388.479 252.888C388.468 245.969 385.777 239.323 380.971 234.344C376.166 229.365 369.619 226.441 362.704 226.184C355.789 225.928 349.044 228.359 343.882 232.968L343.652 233.153Z" fill="#FF8B7B"/>
<path d="M371.849 209.203C371.849 209.203 325.329 254.339 319.93 533.504C394.325 551.549 465.904 558.195 521.193 551.18C523.823 516.152 527.746 394.59 563.282 266.43C564.809 261.032 565.196 255.376 564.421 249.82C563.645 244.264 561.723 238.93 558.777 234.157C555.83 229.383 551.923 225.275 547.305 222.091C542.686 218.908 537.456 216.719 531.946 215.664C524.885 214.28 517.455 213.034 510.071 212.064C482.018 208.052 453.758 205.663 425.43 204.911C407.49 205.058 389.584 206.492 371.849 209.203Z" fill="#263238"/>
<path d="M407.939 257.847C403.324 292.783 343.328 359.932 343.328 359.932L272.117 286.091C293.271 263.883 316.14 243.375 340.513 224.757C392.709 185.76 412.092 225.449 407.939 257.847Z" fill="#263238"/>
<path d="M158.31 263.013L134.496 241.184L163.017 211.878C172.451 219.911 178.945 230.854 181.477 242.983C181.756 245.756 181.022 248.537 179.41 250.81C177.798 253.084 175.418 254.697 172.709 255.352L158.31 263.013Z" fill="#FF8B7B"/>
<path d="M125.727 225.312L131.865 210.22C132.385 208.926 133.159 207.748 134.142 206.758C135.125 205.768 136.297 204.985 137.587 204.455C138.878 203.926 140.263 203.661 141.658 203.676C143.053 203.692 144.431 203.987 145.71 204.544L163.201 211.882L134.68 241.188L129.696 237.819C127.696 236.509 126.209 234.55 125.486 232.271C124.762 229.993 124.848 227.535 125.727 225.312V225.312Z" fill="#FF8B7B"/>
<path d="M521.006 84.5908C514.314 121.511 512.284 143.387 491.516 160.97C460.272 187.415 417.167 166.831 413.06 129.126C409.183 95.1593 420.767 40.4707 458.333 28.5638C495.9 16.6569 527.698 47.6702 521.006 84.5908Z" fill="#FF8B7B"/>
<path d="M448.226 97.8856C435.258 100.839 425.151 85.8402 423.766 81.5944C430.089 82.1943 441.304 78.9638 443.519 76.1025C436.596 76.7024 429.905 68.1646 429.074 64.8879C436.419 63.4695 442.923 59.249 447.211 53.1194C435.996 52.8887 422.52 33.1362 434.843 15.4605C447.165 -2.21524 498.669 12.5991 505.915 0C516.714 6.27649 507.115 14.6298 507.115 14.6298C507.115 14.6298 579.987 28.475 546.389 56.5807C571.033 58.796 574.495 87.917 553.958 102.731C533.421 117.546 532.359 127.33 540.528 126.13C537.251 132.406 522.621 133.237 521.791 127.145C518.329 139.929 508.361 157.235 485.378 154.42C462.395 151.605 439.873 119.438 448.226 97.8856Z" fill="#263238"/>
<path d="M540.022 52.2858C557.374 54.6856 565.266 44.9017 560.928 36.2715C582.434 47.2553 558.944 71.5306 540.022 52.2858Z" fill="#263238"/>
<path d="M466.182 92.2521C463.196 99.9868 457.913 106.622 451.045 111.266C441.815 117.358 433.461 111.266 435.03 102.036C436.461 93.5443 442.968 80.1145 452.568 77.7146C454.556 77.0622 456.689 76.9912 458.716 77.5099C460.743 78.0286 462.58 79.1156 464.01 80.6428C465.44 82.17 466.404 84.074 466.789 86.1306C467.174 88.1873 466.963 90.3111 466.182 92.2521Z" fill="#FF8B7B"/>
<defs>
<clipPath id="clip0">
<rect width="83.8357" height="126.145" fill="white" transform="translate(159.615 119) rotate(36.8292)"/>
</clipPath>
</defs>
</svg>
