<svg width="621" height="526" viewBox="0 0 621 526" fill="none" xmlns="http://www.w3.org/2000/svg">
<g clip-path="url(#clip0)" filter="url(#filter0_d)">
<path fill-rule="evenodd" clip-rule="evenodd" d="M141.56 175.399L91.1882 140.065C90.2887 139.434 90.0714 138.195 90.7023 137.295L97.4627 127.658C98.0937 126.758 99.3327 126.541 100.232 127.172L150.604 162.506C151.503 163.137 151.721 164.376 151.09 165.276L144.329 174.913C143.656 175.783 142.46 176.03 141.56 175.399Z" fill="#13A816"/>
<path fill-rule="evenodd" clip-rule="evenodd" d="M91.5285 245.628L42.1419 210.985C40.9854 210.174 40.6613 208.54 41.5026 207.341L47.5719 198.689C48.3832 197.532 50.0165 197.208 51.2159 198.049L100.56 232.662C101.716 233.474 102.04 235.107 101.199 236.306L95.1297 244.959C94.2884 246.158 92.685 246.439 91.5285 245.628Z" fill="#13A816"/>
<path fill-rule="evenodd" clip-rule="evenodd" d="M96.6615 239.131L46.5039 203.947C45.5616 203.286 45.2886 201.944 45.9797 200.959L91.1392 136.58C91.8002 135.638 93.1421 135.365 94.1273 136.056L144.285 171.24C145.227 171.901 145.5 173.243 144.809 174.228L99.6496 238.607C98.9157 239.562 97.6039 239.792 96.6615 239.131Z" fill="#10C419"/>
<path fill-rule="evenodd" clip-rule="evenodd" d="M99.726 238.405L140.799 179.852C138.636 178.654 135.944 178.3 132.819 179.111C128.48 180.285 124.979 183.454 121.727 186.541C112.821 194.865 103.884 203.231 94.9776 211.555C93.1371 213.268 91.2365 215.066 88.9465 216.144C84.4395 218.287 78.9154 217.416 74.4985 215.148C70.0087 212.893 66.3173 209.409 62.6088 206.041C58.8701 202.715 54.9128 199.428 50.221 197.735C49.7026 197.563 49.1841 197.391 48.6784 197.292L46.1846 200.847C45.1029 202.389 45.5038 204.46 47.0029 205.511L95.1045 239.253C96.5737 240.348 98.6443 239.947 99.726 238.405Z" fill="#0D9E11"/>
<path fill-rule="evenodd" clip-rule="evenodd" d="M101.32 174.909C96.5752 170.558 92.4031 167.759 88.9055 167.734C90.1259 164.628 91.5387 161.976 93.4521 160.251C96.7898 157.224 99.6308 158.002 101.82 159.346C104.566 161.08 108.077 164.822 111.13 167.666C115.078 171.331 118.886 174.193 122.623 174.514C121.905 177.27 120.514 179.617 118.536 181.617C116.347 183.917 113.874 184.163 111.179 182.72C107.666 180.895 104.489 177.771 101.32 174.909Z" fill="white"/>
<path fill-rule="evenodd" clip-rule="evenodd" d="M105.955 164.292C106.341 164.563 106.344 165.013 106.104 165.355C105.864 165.698 105.452 165.921 105.067 165.65C104.681 165.38 104.677 164.93 104.918 164.587C105.115 164.214 105.527 163.992 105.955 164.292ZM106.135 164.035C105.579 163.645 104.983 163.674 104.562 164.274C104.141 164.873 104.274 165.414 104.873 165.834C105.473 166.255 106.026 166.195 106.447 165.596C106.837 165.039 106.692 164.426 106.135 164.035ZM103.466 163.377L103.826 162.863C104.083 163.043 104.413 163.211 104.203 163.51C103.993 163.81 103.723 163.557 103.466 163.377ZM102.389 164.092L102.775 164.362L103.285 163.634C103.585 163.844 103.971 164.115 104.322 163.978C104.674 163.841 104.919 163.31 104.435 162.906L103.621 162.335L102.389 164.092ZM101.822 161.073L102.165 161.314C102.045 161.485 101.444 162.342 101.323 162.513C101.139 162.959 101.811 163.367 102.124 163.011C102.318 162.827 102.755 162.112 102.936 161.855L103.278 162.095C103.128 162.309 102.467 163.252 102.304 163.393C101.845 163.774 101.13 163.336 100.95 162.954C100.74 162.615 100.921 162.358 101.131 162.059L101.822 161.073ZM100.125 161.033L100.485 160.519C100.742 160.699 101.115 160.897 100.935 161.154C100.652 161.467 100.339 161.183 100.125 161.033ZM99.0482 161.748L99.4337 162.018L99.9445 161.29L100.159 161.44L100.033 162.439L100.462 162.739L100.531 161.638C100.806 161.703 101.067 161.694 101.247 161.437C101.488 161.095 101.278 160.756 101.021 160.575L100.25 160.035L99.0482 161.748ZM98.7969 160.102L98.6166 160.359L98.9165 160.569L98.646 160.955C98.2861 160.83 97.7849 160.542 97.9268 160.067C98.0687 159.591 98.5878 159.124 99.1447 159.515C99.3588 159.665 99.4573 159.798 99.3927 160.072L99.7872 159.966C99.736 159.674 99.6248 159.468 99.325 159.258C98.1685 158.447 97.37 159.676 97.558 160.319C97.6903 160.859 98.3501 161.194 98.8685 161.366L99.4394 160.552L98.7969 160.102ZM98.8821 173.647C95.9656 171.153 92.8043 169.191 89.868 169.368C89.3284 168.862 88.8189 168.313 88.3222 167.837C89.2466 164.97 90.8479 162.323 92.9934 159.993C95.2801 157.827 98.1704 156.531 101.46 158.583C104.909 160.682 108.792 164.621 112.916 168.217C115.846 170.783 118.84 172.436 121.674 172.315C122.209 173.009 122.774 173.662 123.266 174.326C122.41 177.369 120.77 179.798 118.732 181.883C115.832 184.833 112.806 184.5 109.863 182.5C105.807 179.718 101.927 176.23 98.8821 173.647ZM101.32 174.909C96.5749 170.558 92.4028 167.759 88.9052 167.734C90.1256 164.628 91.5384 161.976 93.4518 160.251C96.7895 157.224 99.6305 158.002 101.819 159.346C104.565 161.08 108.076 164.822 111.13 167.666C115.078 171.331 118.886 174.193 122.623 174.514C121.904 177.27 120.513 179.617 118.535 181.617C116.347 183.917 113.874 184.163 111.179 182.72C107.666 180.895 104.489 177.771 101.32 174.909Z" fill="#3D438B"/>
<path fill-rule="evenodd" clip-rule="evenodd" d="M108.914 176.019L107.8 175.238L110.083 171.982L111.026 172.643C111.497 172.974 111.621 173.253 111.441 173.51C111.213 173.925 110.806 173.959 110.463 173.719L110.121 173.478L109.031 174.12L109.888 174.721C110.316 175.022 110.491 175.592 110.178 175.947C109.822 176.273 109.342 176.319 108.914 176.019ZM108.377 177.24L105.721 175.377L109.537 169.937L112.064 171.71C112.921 172.311 113.511 173.109 113.069 174.013C112.734 174.672 112.232 175.023 111.551 174.993C112.026 175.773 111.725 176.84 110.927 177.431C110.129 178.022 109.019 177.691 108.377 177.24ZM116.148 176.365C116.962 176.935 117.154 178.029 116.583 178.842C116.012 179.656 114.919 179.848 114.105 179.277C113.291 178.706 113.1 177.613 113.671 176.799C114.241 175.986 115.335 175.794 116.148 176.365ZM117.05 175.08C118.549 176.131 118.877 178.215 117.825 179.714C116.744 181.256 114.703 181.614 113.204 180.562C111.705 179.511 111.377 177.427 112.428 175.928C113.48 174.429 115.551 174.028 117.05 175.08ZM109.023 169.577L105.207 175.016L103.836 174.055L106.24 170.628L102.98 173.454L101.695 172.553L103.254 168.598L100.881 171.982L99.5958 171.08L103.412 165.641L105.51 167.113L104.105 170.665L106.924 168.104L109.023 169.577ZM101.527 164.319L102.855 165.25L99.0389 170.69L97.7111 169.758L101.527 164.319ZM96.0208 166.975L94.9071 166.194L97.1906 162.938L98.133 163.599C98.6041 163.93 98.7282 164.209 98.5479 164.466C98.3203 164.881 97.9131 164.915 97.5704 164.675L97.1849 164.404L96.0955 165.046L96.9522 165.647C97.3805 165.948 97.5557 166.518 97.2425 166.873C96.9292 167.229 96.4491 167.275 96.0208 166.975ZM95.4838 168.196L92.8281 166.333L96.644 160.893L99.1712 162.666C100.028 163.267 100.619 164.065 100.176 164.969C99.8412 165.628 99.3393 165.979 98.6579 165.949C99.1329 166.729 98.8318 167.796 98.0339 168.387C97.2361 168.978 96.0834 168.617 95.4838 168.196Z" fill="#DA243C"/>
<path fill-rule="evenodd" clip-rule="evenodd" d="M81.3008 220.942C72.4292 215.549 64.5364 208.671 56.7165 201.779C55.4788 200.719 54.2283 199.586 53.6254 198.077C52.7317 195.98 53.3128 193.512 54.4762 191.58C55.0644 190.65 55.781 189.811 56.5833 189.032C57.9648 187.7 60.1295 187.621 61.6114 188.788C72.1688 197.152 86.5459 200.527 99.6776 197.66C100.582 197.463 101.362 198.266 101.108 199.174L100.247 202.405C100.23 202.521 100.316 202.581 100.419 202.525C101.932 201.734 104.194 203.065 104.094 204.848C104.042 205.833 103.385 206.587 102.741 207.414C101.664 208.767 101.071 210.524 101.335 212.243C102.089 216.543 107.142 217.084 109.536 214.673C109.597 214.587 109.682 214.647 109.695 214.72C109.793 215.492 110.339 218.176 110.27 218.638C110.174 220.233 109.688 221.745 108.958 223.151C107.623 225.601 104.962 228.209 102.257 229.059C96.3486 230.922 86.2656 223.977 81.3008 220.942Z" fill="#9F6255"/>
<path fill-rule="evenodd" clip-rule="evenodd" d="M72.1264 209.969C74.0098 212.569 76.987 214.338 80.1841 214.791C83.8441 215.313 87.6472 214.082 90.6327 211.831C93.5881 209.622 95.7687 206.422 97.2851 203.076C97.6373 202.301 97.8527 201.174 97.0645 200.748C96.3619 200.383 95.5941 200.931 95.045 201.441C91.7718 204.194 87.454 205.703 83.1593 205.63C81.0419 205.55 78.9335 205.094 76.9926 204.308C75.613 203.723 73.3006 201.462 71.9076 201.444C67.8743 201.363 71.1418 208.64 72.1264 209.969Z" fill="#10C419"/>
<path fill-rule="evenodd" clip-rule="evenodd" d="M80.1966 214.864C83.8566 215.386 87.6597 214.155 90.6452 211.904C92.6698 210.384 94.2834 208.448 95.5971 206.302C92.3412 208.939 88.1264 210.393 83.9773 210.294C81.86 210.215 79.7516 209.759 77.8107 208.972C76.4311 208.388 74.1187 206.127 72.7257 206.108C71.5941 206.081 71.0578 206.664 70.8641 207.487C71.3301 208.644 71.8435 209.644 72.1817 210.073C74.0095 212.569 76.9995 214.411 80.1966 214.864Z" fill="#13A316"/>
<path fill-rule="evenodd" clip-rule="evenodd" d="M70.6537 199.222C71.6631 197.054 73.8891 195.612 76.2385 195.087C78.5879 194.562 81.0352 194.809 83.4223 195.141C86.7351 195.612 90.0435 196.271 93.3474 197.118C94.9201 197.519 96.7197 198.142 97.3654 199.681C97.8743 200.869 97.5086 202.21 96.916 203.328C95.4987 206.169 92.9077 208.314 89.919 209.477C86.9303 210.64 83.7025 210.868 80.5482 210.445C78.4654 210.134 76.4171 209.592 74.6437 208.476C71.8979 206.741 69.1674 202.525 70.6537 199.222Z" fill="#82453B"/>
<path fill-rule="evenodd" clip-rule="evenodd" d="M78.7026 190.296C79.363 189.992 79.8565 189.38 79.8443 188.668C79.8411 187.579 78.6245 186.854 77.523 186.784C76.3486 186.727 75.2638 187.18 74.2089 187.591C73.8273 187.771 73.4757 187.907 73.0512 188.057C72.5966 188.249 72.0692 188.455 71.756 188.81C70.6232 190.061 71.8801 193.371 73.4891 191.624C74.3087 190.729 73.8893 190.051 75.4281 190.044C76.5897 190.028 77.4847 190.847 78.7026 190.296Z" fill="#9F6255"/>
<path fill-rule="evenodd" clip-rule="evenodd" d="M97.2534 195.193C98.2859 195.726 98.75 194.517 99.2435 193.905C99.737 193.293 99.7767 192.234 99.1642 191.74C98.6803 191.337 97.9515 191.465 97.4368 191.743C96.8922 192.064 96.5316 192.578 96.1282 193.062C95.4244 193.974 94.4213 194.037 94.6259 195.203C94.8305 196.37 96.1212 195.805 96.2894 194.837" fill="#9F6255"/>
<path fill-rule="evenodd" clip-rule="evenodd" d="M107.23 205.386C106.514 205.587 105.794 205.976 105.502 206.666C105.21 207.356 105.449 208.291 106.169 208.54C106.846 208.759 107.596 208.327 108.158 207.89C108.557 207.595 108.926 207.343 109.153 206.927C109.424 206.542 109.48 206.006 109.258 205.594C109.035 205.182 108.487 205.053 108.007 205.1C107.569 205.177 107.128 205.442 106.771 205.767" fill="#9F6255"/>
<path d="M117.445 196.8C121.789 196.392 125.122 194.056 124.89 191.582C124.657 189.108 120.947 187.433 116.603 187.84C112.259 188.248 108.926 190.585 109.158 193.059C109.39 195.533 113.1 197.208 117.445 196.8Z" fill="#E3E803"/>
</g>
<path d="M479.207 276.399C484.283 286.229 489.868 296.567 494.944 306.766L510.451 337.503C515.481 347.748 520.419 358.04 525.173 368.331C529.927 378.623 534.403 388.868 538.234 399.114L538.603 382.961C535.905 391.255 532.668 399.364 528.911 407.236C527.111 411.297 524.804 415.174 522.819 419.189C520.835 423.204 518.204 427.035 515.851 430.819C510.954 438.642 505.655 446.205 499.975 453.479C497.113 457.125 494.252 460.863 491.206 464.371C488.16 467.878 484.837 471.524 481.976 474.524L481.053 475.539C478.927 477.874 477.701 480.889 477.596 484.045C477.491 487.201 478.513 490.292 480.479 492.763C482.444 495.234 485.226 496.925 488.325 497.532C491.423 498.139 494.637 497.623 497.39 496.076C502.161 493.389 506.783 490.447 511.235 487.261C515.851 484.216 519.912 481.031 524.065 477.662C532.38 470.842 540.185 463.423 547.418 455.464C554.801 447.376 561.515 438.702 567.493 429.527C573.636 420.18 578.978 410.33 583.461 400.083C585.436 395.734 585.78 390.819 584.43 386.238L583.784 384.069C580.277 372.023 576.354 360.347 572.016 348.902C567.678 337.456 563.063 326.242 558.171 315.212C553.279 304.182 548.156 293.29 542.756 282.537C537.357 271.784 531.911 261.262 525.681 250.508C522.237 244.354 516.505 239.808 509.728 237.856C502.952 235.904 495.679 236.706 489.49 240.086C483.301 243.466 478.696 249.152 476.676 255.908C474.655 262.665 475.382 269.945 478.699 276.168L479.207 276.399Z" fill="#FF8B7B"/>
<path d="M452.719 259.965C450.873 295.178 490.839 359.835 490.839 359.835L573.126 318.715C563.126 289.549 547.65 262.56 527.529 239.197C484.009 191.108 454.426 227.66 452.719 259.965Z" fill="#263238"/>
<path d="M508.466 489.475L491.898 517.166L457.423 495.106C463.444 484.315 472.875 475.826 484.237 470.969C486.864 470.13 489.705 470.259 492.245 471.335C494.785 472.41 496.856 474.36 498.082 476.83L508.466 489.475Z" fill="#FF8B7B"/>
<path d="M478.099 528.98L462.085 525.98C460.737 525.731 459.452 525.217 458.303 524.469C457.155 523.72 456.166 522.752 455.393 521.619C454.621 520.486 454.081 519.212 453.803 517.869C453.526 516.526 453.518 515.142 453.778 513.796L457.424 495.336L491.898 517.396L489.591 522.98C488.647 525.141 486.993 526.914 484.902 528.005C482.812 529.096 480.412 529.44 478.099 528.98Z" fill="#FF8B7B"/>
<path d="M380.863 83.0227C380.54 86.0225 378.647 88.3761 376.709 88.1915C374.771 88.0069 373.479 85.4687 373.848 82.4689C374.217 79.4691 376.063 77.1154 378.001 77.2539C379.94 77.3923 381.232 79.9767 380.863 83.0227Z" fill="#263238"/>
<path d="M378.925 88.3799C374.257 97.3435 368.439 105.659 361.618 113.117C366.233 118.516 375.464 116.947 375.464 116.947L378.925 88.3799Z" fill="#FF5652"/>
<path d="M393.783 67.0997C393.543 67.1354 393.298 67.1166 393.066 67.0447C392.835 66.9728 392.622 66.8496 392.444 66.6843C390.844 65.1859 388.901 64.1034 386.784 63.5321C384.668 62.9607 382.444 62.918 380.307 63.4076C380.089 63.4774 379.859 63.5013 379.631 63.4779C379.403 63.4545 379.182 63.3842 378.983 63.2716C378.784 63.1589 378.61 63.0062 378.472 62.8232C378.335 62.6401 378.237 62.4306 378.184 62.2077C378.068 61.7491 378.133 61.2637 378.365 60.8515C378.597 60.4393 378.978 60.1318 379.43 59.9925C382.128 59.3486 384.943 59.3736 387.629 60.0653C390.316 60.757 392.793 62.0944 394.844 63.9614C395.016 64.1252 395.153 64.3221 395.246 64.5403C395.34 64.7584 395.388 64.9933 395.388 65.2306C395.388 65.4679 395.34 65.7027 395.246 65.9209C395.153 66.139 395.016 66.3359 394.844 66.4997C394.716 66.6655 394.557 66.8039 394.374 66.907C394.192 67.01 393.991 67.0755 393.783 67.0997Z" fill="#263238"/>
<path d="M473.902 116.439C465.088 143.161 453.365 192.403 470.072 212.156C470.072 212.156 459.088 239.062 408.507 234.77C352.803 230.155 385.431 205.003 385.431 205.003C416.722 200.388 418.845 177.82 416.26 156.267L473.902 116.439Z" fill="#FF8B7B"/>
<path d="M482.025 221.895C487.24 213.542 493.055 203.989 483.178 200.435C472.333 196.512 411.414 190.144 389.723 195.497C368.032 200.851 372.463 218.572 372.463 218.572L482.025 221.895Z" fill="#6550E2"/>
<path d="M303.652 233.153C295.714 240.445 287.13 248.521 278.592 255.905C270.054 263.289 261.424 270.858 252.747 278.15C244.071 285.442 235.21 292.318 226.303 299.01C217.396 305.702 208.35 311.794 199.305 317.47L217.765 315.717C210.094 313.67 202.833 310.313 196.305 305.794C188.677 300.463 181.596 294.387 175.168 287.657C168.241 280.567 161.752 273.062 155.739 265.182C152.647 261.167 149.555 257.105 146.509 252.906C143.463 248.706 140.694 244.275 138.155 240.399L137.648 239.66C135.895 236.983 133.238 235.025 130.162 234.144C127.086 233.263 123.795 233.517 120.891 234.86C117.986 236.203 115.662 238.546 114.341 241.46C113.02 244.375 112.791 247.667 113.695 250.737C115.449 256.736 117.295 261.859 119.418 267.212C121.541 272.566 123.756 277.827 126.248 282.996C131.302 293.54 137.214 303.65 143.924 313.224C150.969 323.378 159.178 332.671 168.384 340.915C178.574 350.011 190.398 357.09 203.228 361.775C205.982 362.746 208.901 363.16 211.817 362.993C214.732 362.827 217.585 362.083 220.211 360.806L221.734 360.021C233.193 354.39 244.319 348.103 255.055 341.192C265.531 334.408 275.684 327.347 285.468 319.778C295.252 312.209 304.713 304.548 313.943 296.703C323.173 288.857 332.034 280.642 341.034 271.458C345.823 266.463 348.491 259.808 348.479 252.888C348.468 245.969 345.777 239.323 340.971 234.344C336.166 229.365 329.619 226.441 322.704 226.184C315.789 225.928 309.044 228.359 303.882 232.968L303.652 233.153Z" fill="#FF8B7B"/>
<path d="M331.849 209.203C331.849 209.203 285.329 254.339 279.93 533.504C354.325 551.549 425.904 558.195 481.193 551.18C483.823 516.151 487.746 394.59 523.282 266.43C524.809 261.032 525.196 255.376 524.421 249.82C523.645 244.264 521.723 238.93 518.777 234.157C515.83 229.383 511.923 225.275 507.305 222.091C502.686 218.908 497.456 216.719 491.946 215.664C484.885 214.28 477.455 213.034 470.071 212.064C442.018 208.052 413.758 205.663 385.43 204.911C367.49 205.058 349.584 206.492 331.849 209.203Z" fill="#263238"/>
<path d="M367.939 257.847C363.324 292.783 303.328 359.932 303.328 359.932L232.117 286.091C253.271 263.883 276.14 243.375 300.513 224.757C352.709 185.76 372.092 225.449 367.939 257.847Z" fill="#263238"/>
<path d="M118.31 263.013L94.496 241.184L123.017 211.878C132.451 219.911 138.945 230.854 141.477 242.983C141.756 245.756 141.022 248.537 139.41 250.81C137.798 253.084 135.418 254.697 132.709 255.352L118.31 263.013Z" fill="#FF8B7B"/>
<path d="M85.7268 225.312L91.8649 210.22C92.3846 208.926 93.1589 207.748 94.1419 206.758C95.1249 205.768 96.2965 204.985 97.5875 204.455C98.8785 203.926 100.263 203.661 101.658 203.676C103.053 203.692 104.431 203.987 105.71 204.544L123.201 211.882L94.6801 241.188L89.6958 237.819C87.6957 236.509 86.2086 234.55 85.4856 232.271C84.7625 229.993 84.8477 227.535 85.7268 225.312Z" fill="#FF8B7B"/>
<path d="M481.006 84.5908C474.314 121.511 472.284 143.387 451.516 160.97C420.272 187.415 377.167 166.831 373.06 129.126C369.183 95.1593 380.767 40.4707 418.333 28.5638C455.9 16.6569 487.698 47.6702 481.006 84.5908Z" fill="#FF8B7B"/>
<path d="M408.226 97.8856C395.258 100.839 385.151 85.8402 383.766 81.5944C390.089 82.1943 401.304 78.9638 403.519 76.1025C396.596 76.7024 389.905 68.1646 389.074 64.8879C396.419 63.4696 402.923 59.249 407.211 53.1194C395.996 52.8887 382.52 33.1362 394.843 15.4605C407.165 -2.21524 458.669 12.5991 465.915 0C476.714 6.27649 467.115 14.6298 467.115 14.6298C467.115 14.6298 539.987 28.475 506.389 56.5807C531.033 58.796 534.495 87.917 513.958 102.731C493.421 117.546 492.359 127.33 500.528 126.13C497.251 132.406 482.621 133.237 481.791 127.145C478.329 139.929 468.361 157.235 445.378 154.42C422.395 151.605 399.873 119.438 408.226 97.8856Z" fill="#263238"/>
<path d="M500.022 52.2858C517.374 54.6856 525.266 44.9017 520.928 36.2715C542.434 47.2553 518.944 71.5306 500.022 52.2858Z" fill="#263238"/>
<path d="M426.182 92.2521C423.196 99.9868 417.913 106.622 411.045 111.266C401.815 117.358 393.461 111.266 395.03 102.036C396.461 93.5443 402.968 80.1145 412.568 77.7146C414.556 77.0622 416.689 76.9912 418.716 77.5099C420.743 78.0286 422.58 79.1156 424.01 80.6428C425.44 82.17 426.404 84.074 426.789 86.1306C427.174 88.1873 426.963 90.3111 426.182 92.2521Z" fill="#FF8B7B"/>
<defs>
<filter id="filter0_d" x="0" y="86" width="192.23" height="201.13" filterUnits="userSpaceOnUse" color-interpolation-filters="sRGB">
<feFlood flood-opacity="0" result="BackgroundImageFix"/>
<feColorMatrix in="SourceAlpha" type="matrix" values="0 0 0 0 0 0 0 0 0 0 0 0 0 0 0 0 0 0 127 0"/>
<feMorphology radius="20" operator="dilate" in="SourceAlpha" result="effect1_dropShadow"/>
<feOffset/>
<feGaussianBlur stdDeviation="10"/>
<feColorMatrix type="matrix" values="0 0 0 0 1 0 0 0 0 1 0 0 0 0 1 0 0 0 1 0"/>
<feBlend mode="normal" in2="BackgroundImageFix" result="effect1_dropShadow"/>
<feBlend mode="normal" in="SourceGraphic" in2="effect1_dropShadow" result="shape"/>
</filter>
<clipPath id="clip0">
<rect width="65.5578" height="101.973" fill="white" transform="translate(98.5605 126) rotate(35.0486)"/>
</clipPath>
</defs>
</svg>
