<svg width="1120" height="482" viewBox="0 0 1120 482" fill="none" xmlns="http://www.w3.org/2000/svg">
<rect x="260" y="90" width="601" height="118" rx="20" fill="#FCB527"/>
<path d="M486.35 168L469.131 123.311H457.205L439.919 168H450.773L453.587 160.429H472.749L475.496 168H486.35ZM470.136 152.054H456.2L463.168 132.825L470.136 152.054ZM505.351 168.804C511.984 168.804 516.004 165.923 518.148 162.908L512.587 157.749C511.046 159.893 508.701 161.233 505.753 161.233C500.594 161.233 496.976 157.414 496.976 151.786C496.976 146.158 500.594 142.406 505.753 142.406C508.701 142.406 511.046 143.612 512.587 145.89L518.148 140.664C516.004 137.716 511.984 134.835 505.351 134.835C495.368 134.835 488.199 141.87 488.199 151.786C488.199 161.769 495.368 168.804 505.351 168.804ZM538.92 168.804C543.945 168.804 549.037 167.263 552.253 164.315L548.501 158.821C546.424 160.831 542.605 162.037 539.858 162.037C534.364 162.037 531.081 158.62 530.545 154.533H554.598V152.657C554.598 142.071 548.032 134.835 538.384 134.835C528.535 134.835 521.634 142.406 521.634 151.786C521.634 162.171 529.071 168.804 538.92 168.804ZM546.357 148.771H530.411C530.813 145.555 533.091 141.602 538.384 141.602C544.012 141.602 546.156 145.689 546.357 148.771ZM579.236 168.804C587.544 168.804 593.574 162.573 593.574 151.786C593.574 140.999 587.544 134.835 579.236 134.835C575.283 134.835 571.732 136.577 569.253 139.726V135.639H560.744V180.328H569.253V163.846C571.866 167.196 575.417 168.804 579.236 168.804ZM576.556 161.233C573.809 161.233 570.66 159.558 569.253 157.548V146.091C570.66 144.014 573.809 142.406 576.556 142.406C581.447 142.406 584.73 146.225 584.73 151.786C584.73 157.414 581.447 161.233 576.556 161.233ZM610.659 168.804C614.21 168.804 616.488 167.866 617.761 166.727L615.952 160.295C615.483 160.764 614.277 161.233 613.004 161.233C611.128 161.233 610.056 159.692 610.056 157.682V143.076H616.622V135.639H610.056V126.795H601.48V135.639H596.12V143.076H601.48V159.96C601.48 165.722 604.696 168.804 610.659 168.804ZM650.383 168V147.096C650.383 137.783 643.616 134.835 636.246 134.835C631.154 134.835 626.062 136.443 622.109 139.927L625.325 145.622C628.072 143.076 631.288 141.803 634.772 141.803C639.06 141.803 641.874 143.947 641.874 147.23V151.585C639.73 149.039 635.911 147.632 631.623 147.632C626.464 147.632 620.367 150.513 620.367 158.084C620.367 165.32 626.464 168.804 631.623 168.804C635.844 168.804 639.663 167.263 641.874 164.65V168H650.383ZM635.04 163.042C631.69 163.042 628.943 161.3 628.943 158.285C628.943 155.136 631.69 153.394 635.04 153.394C637.787 153.394 640.467 154.332 641.874 156.208V160.228C640.467 162.104 637.787 163.042 635.04 163.042ZM667.332 168V146.627C668.739 144.55 672.491 142.942 675.305 142.942C676.243 142.942 677.047 143.009 677.65 143.143V134.835C673.63 134.835 669.61 137.18 667.332 140.061V135.639H658.823V168H667.332Z" fill="white"/>
<path d="M861.043 272.972C846.943 267.596 831.575 266.484 816.848 269.774C805.893 271.882 795.214 275.235 785.02 279.767L772.402 252.706C770.103 248.194 766.111 244.776 761.299 243.199C756.487 241.623 751.246 242.016 746.723 244.293C742.071 246.294 738.401 250.056 736.516 254.756C734.631 259.456 734.683 264.711 736.662 269.372L760.47 320.429L748.539 316.172C743.295 314.32 737.533 314.599 732.492 316.95C727.451 319.3 723.534 323.535 721.581 328.743C720.591 331.325 720.128 334.08 720.221 336.845C720.315 339.609 720.962 342.327 722.124 344.837C724.297 349.741 728.325 353.585 733.325 355.527L770.26 372.616C774.766 379.282 780.471 385.052 787.084 389.634C792.029 393.223 797.519 395.994 803.343 397.841L807.914 407.644C808.55 409.049 809.7 410.157 811.129 410.74C812.557 411.323 814.154 411.336 815.591 410.777L886.612 377.66C887.964 376.918 888.981 375.686 889.452 374.217C889.924 372.749 889.814 371.155 889.146 369.765L882.718 355.979C887.18 339.355 885.554 321.683 878.131 306.153L863.846 275.519C863.234 274.372 862.243 273.472 861.043 272.972ZM868.039 311.17C874.695 324.593 876.124 340.01 872.049 354.428C871.35 355.871 871.233 357.528 871.721 359.056L876.863 370.085L816.31 398.321L812.786 390.765C812.397 389.928 811.809 389.199 811.073 388.643C810.336 388.087 809.475 387.72 808.563 387.575C803.274 386.222 798.31 383.824 793.962 380.522C788.141 376.531 783.203 371.386 779.454 365.407C778.884 364.328 777.979 363.463 776.875 362.942L737.899 344.94C736.704 344.515 735.606 343.856 734.668 343.002C733.73 342.148 732.971 341.117 732.435 339.967C731.899 338.818 731.597 337.573 731.546 336.306C731.494 335.038 731.696 333.774 732.137 332.585C733.046 330.145 734.878 328.161 737.238 327.061C739.598 325.96 742.295 325.832 744.748 326.704L767.208 334.879L774.684 350.911L782.514 341.043L746.873 264.611C746.183 262.657 746.278 260.512 747.139 258.626C747.999 256.741 749.557 255.264 751.484 254.504C753.305 253.515 755.439 253.272 757.436 253.825C759.433 254.378 761.137 255.684 762.19 257.468L790.284 317.716L801.52 315.149L789.806 290.029C794.13 288.116 798.551 286.428 803.05 284.972L815.501 311.675L824.504 309.653L811.766 282.337C814.05 281.77 816.409 281.229 818.866 280.767C821.836 280.225 824.833 279.845 827.845 279.626L840.106 305.921L849.108 303.898L837.752 279.544C843.485 279.723 849.167 280.692 854.635 282.425L868.039 311.17Z" fill="#FCB527"/>
</svg>
