<svg width="1113" height="476" viewBox="0 0 1113 476" fill="none" xmlns="http://www.w3.org/2000/svg">
<rect x="548" y="6" width="243" height="329" rx="27" stroke="white" stroke-width="12"/>
<rect x="864" y="6" width="243" height="329" rx="27" stroke="white" stroke-width="12"/>
<path d="M188.653 387.79C186.134 372.912 179.297 359.103 168.991 348.081C161.618 339.709 153.312 332.207 144.235 325.721L161.154 301.12C163.877 296.85 164.798 291.676 163.716 286.729C162.633 281.782 159.636 277.465 155.38 274.722C151.295 271.728 146.192 270.474 141.185 271.233C136.178 271.992 131.676 274.703 128.663 278.773L96.7387 325.19L94.356 312.748C93.2916 307.289 90.1281 302.465 85.5454 299.314C80.9627 296.162 75.3265 294.933 69.8478 295.893C67.1196 296.349 64.5107 297.348 62.1755 298.831C59.8404 300.313 57.8265 302.25 56.2531 304.525C53.1289 308.885 51.8593 314.306 52.7223 319.6L56.7306 360.099C53.2716 367.363 51.1923 375.207 50.5986 383.23C50.0137 389.312 50.4104 395.449 51.7733 401.405L45.6439 410.317C44.7553 411.578 44.3838 413.131 44.6059 414.658C44.828 416.184 45.6268 417.567 46.8378 418.523L111.404 462.929C112.729 463.718 114.306 463.969 115.811 463.63C117.316 463.292 118.634 462.389 119.493 461.108L128.113 448.576C144.703 443.988 159.107 433.622 168.726 419.348L187.881 391.498C188.558 390.388 188.831 389.078 188.653 387.79ZM159.283 413.196C151.092 425.741 138.53 434.793 124.038 438.594C122.439 438.724 120.952 439.463 119.883 440.659L112.987 450.685L57.9368 412.823L62.6615 405.954C63.1856 405.194 63.5151 404.317 63.621 403.401C63.7269 402.484 63.606 401.555 63.2689 400.696C61.7517 395.452 61.2999 389.957 61.94 384.535C62.4269 377.495 64.3559 370.629 67.6072 364.366C68.2482 363.327 68.5346 362.108 68.4231 360.893L64.1658 318.171C63.9268 316.926 63.9376 315.645 64.1976 314.404C64.4576 313.162 64.9616 311.985 65.6804 310.94C66.3991 309.895 67.3182 309.003 68.3845 308.316C69.4507 307.629 70.6427 307.161 71.8914 306.939C74.4549 306.484 77.0943 307.057 79.2394 308.532C81.3845 310.008 82.8633 312.267 83.3563 314.824L87.7042 338.326L77.6801 352.901L90.1559 354.644L137.946 285.158C139.28 283.572 141.177 282.566 143.238 282.351C145.299 282.136 147.362 282.729 148.995 284.005C150.771 285.073 152.063 286.788 152.599 288.789C153.136 290.791 152.875 292.922 151.871 294.735L114.201 349.507L122.112 357.888L137.818 335.051C141.661 337.807 145.358 340.76 148.894 343.899L132.198 368.175L138.507 374.908L155.587 350.075C157.234 351.755 158.896 353.513 160.541 355.397C162.515 357.681 164.363 360.071 166.079 362.555L149.638 386.46L155.947 393.193L171.175 371.052C173.929 376.083 175.976 381.471 177.256 387.063L159.283 413.196Z" fill="#FCB527"/>
<rect x="229" y="6" width="243" height="329" rx="27" stroke="white" stroke-width="12"/>
<g clip-path="url(#clip0)">
<path d="M373.297 161.424C392.159 148.658 397.021 122.899 384.155 103.888C371.289 84.8776 345.568 79.815 326.706 92.5804C307.844 105.346 302.982 131.105 315.848 150.116C328.714 169.127 354.435 174.189 373.297 161.424Z" fill="#866EEA"/>
<path d="M370.133 156.754C386.435 145.724 390.636 123.46 379.516 107.026C368.396 90.5925 346.167 86.2126 329.865 97.2432C313.563 108.274 309.362 130.538 320.482 146.971C331.601 163.405 353.831 167.785 370.133 156.754Z" fill="white"/>
<path d="M353.132 103.924L356.714 114.922C357.164 116.29 358.424 117.208 359.846 117.208H371.42C374.624 117.208 375.956 121.294 373.364 123.184L364.004 129.988C362.852 130.834 362.366 132.328 362.798 133.678L366.38 144.676C367.37 147.718 363.878 150.256 361.304 148.366L351.944 141.562C350.792 140.716 349.226 140.716 348.056 141.562L338.696 148.366C336.104 150.238 332.63 147.718 333.62 144.676L337.202 133.678C337.652 132.31 337.166 130.834 335.996 129.988L326.636 123.184C324.044 121.312 325.376 117.208 328.58 117.208H340.154C341.576 117.208 342.854 116.29 343.286 114.922L346.868 103.924C347.84 100.882 352.16 100.882 353.132 103.924Z" fill="#866EEA"/>
</g>
<g clip-path="url(#clip1)">
<path d="M692.744 106.424C711.607 93.6583 716.468 67.8987 703.602 48.8882C690.736 29.8776 665.016 24.815 646.153 37.5804C627.291 50.3459 622.43 76.1054 635.295 95.116C648.161 114.127 673.882 119.189 692.744 106.424Z" fill="#866EEA"/>
<path d="M689.58 101.754C705.882 90.7237 710.083 68.4596 698.963 52.0261C687.843 35.5925 665.614 31.2126 649.312 42.2432C633.01 53.2738 628.809 75.5378 639.929 91.9714C651.049 108.405 673.278 112.785 689.58 101.754Z" fill="white"/>
<path d="M672.58 48.9241L676.162 59.9221C676.612 61.2901 677.872 62.2081 679.294 62.2081H690.868C694.072 62.2081 695.404 66.2941 692.812 68.1841L683.452 74.9881C682.3 75.8341 681.814 77.3281 682.246 78.6781L685.828 89.6761C686.818 92.7181 683.326 95.2561 680.752 93.3661L671.392 86.5621C670.24 85.7161 668.674 85.7161 667.504 86.5621L658.144 93.3661C655.552 95.2381 652.078 92.7181 653.068 89.6761L656.65 78.6781C657.1 77.3101 656.614 75.8341 655.444 74.9881L646.084 68.1841C643.492 66.3121 644.824 62.2081 648.028 62.2081H659.602C661.024 62.2081 662.302 61.2901 662.734 59.9221L666.316 48.9241C667.288 45.8821 671.608 45.8821 672.58 48.9241Z" fill="#866EEA"/>
</g>
<path d="M373.297 258.424C392.159 245.658 397.021 219.899 384.155 200.888C371.289 181.878 345.568 176.815 326.706 189.58C307.844 202.346 302.982 228.105 315.848 247.116C328.714 266.127 354.435 271.189 373.297 258.424Z" fill="#866EEA"/>
<path d="M370.133 253.754C386.435 242.724 390.636 220.46 379.516 204.026C368.396 187.593 346.167 183.213 329.865 194.243C313.563 205.274 309.362 227.538 320.482 243.971C331.601 260.405 353.831 264.785 370.133 253.754Z" fill="white"/>
<path d="M353.132 200.924L356.714 211.922C357.164 213.29 358.424 214.208 359.846 214.208H371.42C374.624 214.208 375.956 218.294 373.364 220.184L364.004 226.988C362.852 227.834 362.366 229.328 362.798 230.678L366.38 241.676C367.37 244.718 363.878 247.256 361.304 245.366L351.944 238.562C350.792 237.716 349.226 237.716 348.056 238.562L338.696 245.366C336.104 247.238 332.63 244.718 333.62 241.676L337.202 230.678C337.652 229.31 337.166 227.834 335.996 226.988L326.636 220.184C324.044 218.312 325.376 214.208 328.58 214.208H340.154C341.576 214.208 342.854 213.29 343.286 211.922L346.868 200.924C347.84 197.882 352.16 197.882 353.132 200.924Z" fill="#866EEA"/>
<path d="M692.744 303.424C711.607 290.658 716.468 264.899 703.602 245.888C690.736 226.878 665.016 221.815 646.153 234.58C627.291 247.346 622.43 273.105 635.295 292.116C648.161 311.127 673.882 316.189 692.744 303.424Z" fill="#866EEA"/>
<path d="M689.58 298.754C705.882 287.724 710.083 265.46 698.963 249.026C687.843 232.593 665.614 228.213 649.312 239.243C633.01 250.274 628.809 272.538 639.929 288.971C651.049 305.405 673.278 309.785 689.58 298.754Z" fill="white"/>
<path d="M672.58 245.924L676.162 256.922C676.612 258.29 677.872 259.208 679.294 259.208H690.868C694.072 259.208 695.404 263.294 692.812 265.184L683.452 271.988C682.3 272.834 681.814 274.328 682.246 275.678L685.828 286.676C686.818 289.718 683.326 292.256 680.752 290.366L671.392 283.562C670.24 282.716 668.674 282.716 667.504 283.562L658.144 290.366C655.552 292.238 652.078 289.718 653.068 286.676L656.65 275.678C657.1 274.31 656.614 272.834 655.444 271.988L646.084 265.184C643.492 263.312 644.824 259.208 648.028 259.208H659.602C661.024 259.208 662.302 258.29 662.734 256.922L666.316 245.924C667.288 242.882 671.608 242.882 672.58 245.924Z" fill="#866EEA"/>
<path d="M692.744 203.957C711.607 191.191 716.468 165.432 703.602 146.421C690.736 127.411 665.016 122.348 646.153 135.114C627.291 147.879 622.43 173.639 635.295 192.649C648.161 211.66 673.882 216.722 692.744 203.957Z" fill="#866EEA"/>
<path d="M689.58 199.288C705.882 188.257 710.083 165.993 698.963 149.559C687.843 133.126 665.614 128.746 649.312 139.776C633.01 150.807 628.809 173.071 639.929 189.505C651.049 205.938 673.278 210.318 689.58 199.288Z" fill="white"/>
<path d="M672.58 146.457L676.162 157.455C676.612 158.823 677.872 159.741 679.294 159.741H690.868C694.072 159.741 695.404 163.827 692.812 165.717L683.452 172.521C682.3 173.367 681.814 174.861 682.246 176.211L685.828 187.209C686.818 190.251 683.326 192.789 680.752 190.899L671.392 184.095C670.24 183.249 668.674 183.249 667.504 184.095L658.144 190.899C655.552 192.771 652.078 190.251 653.068 187.209L656.65 176.211C657.1 174.843 656.614 173.367 655.444 172.521L646.084 165.717C643.492 163.845 644.824 159.741 648.028 159.741H659.602C661.024 159.741 662.302 158.823 662.734 157.455L666.316 146.457C667.288 143.415 671.608 143.415 672.58 146.457Z" fill="#866EEA"/>
<path d="M1008.74 203.957C1027.61 191.191 1032.47 165.432 1019.6 146.421C1006.74 127.411 981.016 122.348 962.153 135.114C943.291 147.879 938.43 173.639 951.295 192.649C964.161 211.66 989.882 216.722 1008.74 203.957Z" fill="#866EEA"/>
<path d="M1005.58 199.288C1021.88 188.257 1026.08 165.993 1014.96 149.559C1003.84 133.126 981.614 128.746 965.312 139.776C949.01 150.807 944.809 173.071 955.929 189.505C967.049 205.938 989.278 210.318 1005.58 199.288Z" fill="white"/>
<path d="M988.58 146.457L992.162 157.455C992.612 158.823 993.872 159.741 995.294 159.741H1006.87C1010.07 159.741 1011.4 163.827 1008.81 165.717L999.452 172.521C998.3 173.367 997.814 174.861 998.246 176.211L1001.83 187.209C1002.82 190.251 999.326 192.789 996.752 190.899L987.392 184.095C986.24 183.249 984.674 183.249 983.504 184.095L974.144 190.899C971.552 192.771 968.078 190.251 969.068 187.209L972.65 176.211C973.1 174.843 972.614 173.367 971.444 172.521L962.084 165.717C959.492 163.845 960.824 159.741 964.028 159.741H975.602C977.024 159.741 978.302 158.823 978.734 157.455L982.316 146.457C983.288 143.415 987.608 143.415 988.58 146.457Z" fill="#866EEA"/>
<defs>
<clipPath id="clip0">
<rect width="90" height="90" fill="white" transform="translate(305 82)"/>
</clipPath>
<clipPath id="clip1">
<rect width="90" height="90" fill="white" transform="translate(624.447 27)"/>
</clipPath>
</defs>
</svg>
