<svg width="293" height="209" viewBox="0 0 293 209" fill="none" xmlns="http://www.w3.org/2000/svg">
<rect width="293" height="209" rx="10" fill="#6550E2"/>
<g clip-path="url(#clip0)">
<path d="M264.326 190.48C277.949 181.402 281.46 163.084 272.168 149.565C262.876 136.047 244.3 132.447 230.677 141.524C217.054 150.602 213.543 168.92 222.835 182.439C232.127 195.957 250.703 199.557 264.326 190.48Z" fill="#E59F39"/>
<path d="M262.04 187.16C273.814 179.316 276.848 163.484 268.817 151.798C260.786 140.112 244.731 136.997 232.958 144.841C221.184 152.685 218.15 168.517 226.181 180.203C234.212 191.89 250.266 195.004 262.04 187.16Z" fill="#F7CC7F"/>
<path opacity="0.3" d="M233.656 144.394C226.909 148.579 222.827 155.363 221.891 162.621C223.477 156.618 227.286 151.178 233.019 147.619C245.044 140.157 260.995 143.792 268.639 155.722C271.993 160.957 273.189 166.922 272.461 172.605C274.203 166.013 273.267 158.73 269.276 152.483C261.632 140.554 245.681 136.931 233.656 144.394Z" fill="#F7CC7F"/>
<path d="M249.763 149.59L252.35 157.411C252.675 158.384 253.585 159.037 254.612 159.037H262.971C265.285 159.037 266.247 161.942 264.375 163.286L257.615 168.125C256.783 168.726 256.432 169.789 256.744 170.749L259.331 178.569C260.046 180.733 257.524 182.537 255.665 181.193L248.905 176.355C248.073 175.753 246.942 175.753 246.097 176.355L239.337 181.193C237.465 182.525 234.956 180.733 235.671 178.569L238.258 170.749C238.583 169.776 238.232 168.726 237.387 168.125L230.627 163.286C228.755 161.955 229.717 159.037 232.031 159.037H240.39C241.417 159.037 242.34 158.384 242.652 157.411L245.239 149.59C245.941 147.427 249.061 147.427 249.763 149.59Z" fill="#E59F39"/>
</g>
<path d="M133.36 195L117.79 172.68L132.37 151.53H119.59L110.68 164.94L101.68 151.53H88.9L103.39 172.68L88 195H100.69L110.68 180.33L120.58 195H133.36Z" fill="white"/>
<path d="M196.519 195V182.58H204.259V171.33H196.519V134.97H178.879L155.029 172.5V182.58H183.739V195H196.519ZM183.739 171.33H167.539L183.739 146.31V171.33Z" fill="#FCB527"/>
<g clip-path="url(#clip1)">
<path fill-rule="evenodd" clip-rule="evenodd" d="M104.242 98.9412L45.128 114.017C44.0174 114.3 42.8265 113.636 42.5304 112.475L23.1802 36.601C22.897 35.4904 23.561 34.2995 24.7221 34.0034L83.8363 18.9275C84.9469 18.6443 86.1378 19.3083 86.4339 20.4694L105.784 96.3435C106.017 97.467 105.353 98.6579 104.242 98.9412Z" fill="#00A8FC"/>
<path fill-rule="evenodd" clip-rule="evenodd" d="M85.2106 23.6845L25.7935 38.8376C24.7334 39.108 23.6563 38.4687 23.386 37.4086L20.4892 26.0501C20.2189 24.99 20.8582 23.913 21.9183 23.6426L81.2849 8.50234C82.345 8.23197 83.4221 8.8713 83.6924 9.93142L86.5892 21.2898C86.8595 22.3499 86.2202 23.427 85.2106 23.6845Z" fill="#D3B81A"/>
<path fill-rule="evenodd" clip-rule="evenodd" d="M105.822 107.033L47.6163 121.877C46.2532 122.225 44.8089 121.41 44.4484 119.997L41.8478 109.799C41.5002 108.436 42.3147 106.992 43.7282 106.632L101.883 91.8004C103.246 91.4528 104.691 92.2673 105.051 93.6808L107.652 103.878C108.012 105.292 107.185 106.685 105.822 107.033Z" fill="#D3B81A"/>
<path fill-rule="evenodd" clip-rule="evenodd" d="M105.424 95.1449L87.8122 26.0857C85.5039 26.9432 83.4908 28.747 82.0766 31.6346C80.1498 35.6745 80.2731 40.3744 80.4964 44.8338C81.0086 56.9616 81.5337 69.1399 82.0459 81.2677C82.1462 83.7691 82.2722 86.3715 81.6014 88.8007C80.2973 93.5958 76.0562 97.2043 71.4783 99.0708C66.8627 101.001 61.8362 101.53 56.886 102.147C51.9357 102.764 46.8984 103.673 42.5759 106.119C42.1097 106.399 41.6435 106.68 41.2407 106.997L42.3092 111.187C42.7727 113.005 44.5972 114.045 46.364 113.594L103.055 99.1363C104.848 98.7866 105.888 96.9622 105.424 95.1449Z" fill="#0692C9"/>
<path fill-rule="evenodd" clip-rule="evenodd" d="M65.9104 51.9408C59.5456 52.7038 54.7251 54.0407 52.4378 56.6671C50.8824 53.7304 49.7952 50.943 49.7325 48.3783C49.6102 43.8932 52.0411 42.2517 54.4761 41.4694C57.5674 40.5197 62.6711 40.2934 66.8008 39.8317C72.1302 39.2252 76.7626 38.2051 79.429 35.5895C81.0448 37.9195 81.9162 40.4931 82.1442 43.2845C82.4623 46.4292 81.0441 48.4576 78.2062 49.5577C74.5993 51.0153 70.1786 51.39 65.9104 51.9408Z" fill="white"/>
<path fill-rule="evenodd" clip-rule="evenodd" d="M60.8959 41.5521C61.3502 41.4362 61.6927 41.7252 61.7957 42.1291C61.8987 42.533 61.7998 42.9883 61.3454 43.1042C60.8911 43.2201 60.5486 42.931 60.4456 42.5272C60.3426 42.1233 60.391 41.6809 60.8959 41.5521ZM60.8186 41.2492C60.1623 41.4166 59.7981 41.8858 59.9784 42.5926C60.1586 43.2993 60.6526 43.5497 61.3593 43.3695C62.0661 43.1892 62.3798 42.7329 62.1996 42.0261C62.0698 41.3065 61.5253 41.069 60.8186 41.2492ZM58.6401 42.8264L58.4856 42.2206C58.7885 42.1433 59.129 42.0027 59.2191 42.3561C59.2459 42.6719 58.8925 42.762 58.6401 42.8264ZM58.469 44.0528L58.9233 43.937L58.7045 43.0788C59.0578 42.9886 59.5122 42.8728 59.6369 42.5184C59.7615 42.164 59.519 41.6344 58.9003 41.7385L57.9411 41.9831L58.469 44.0528ZM55.8338 42.5743L56.2376 42.4713C56.2891 42.6732 56.5466 43.6828 56.5981 43.8848C56.8149 44.3134 57.5593 44.0698 57.4939 43.6025C57.48 43.3373 57.2236 42.5424 57.1463 42.2395L57.5502 42.1365C57.6145 42.389 57.8978 43.4996 57.8988 43.7144C57.889 44.3083 57.0941 44.5648 56.6893 44.4529C56.2973 44.3916 56.22 44.0887 56.1299 43.7354L55.8338 42.5743ZM54.652 43.8434L54.4975 43.2376C54.8004 43.1604 55.1914 43.0069 55.2687 43.3098C55.3588 43.6632 54.9044 43.7791 54.652 43.8434ZM54.4809 45.0699L54.9353 44.954L54.7164 44.0958L54.9688 44.0315L55.642 44.7738L56.1468 44.645L55.3598 43.878C55.5864 43.7127 55.7498 43.5097 55.6725 43.2068C55.5695 42.803 55.1775 42.7416 54.8746 42.8189L53.966 43.0506L54.4809 45.0699ZM53.0871 44.2425L53.1643 44.5454L53.5177 44.4553L53.6336 44.9096C53.306 45.1007 52.7635 45.2928 52.4962 44.8771C52.2289 44.4614 52.213 43.7665 52.8692 43.5991C53.1217 43.5348 53.286 43.5466 53.4513 43.7733L53.6265 43.406C53.373 43.2556 53.1454 43.2061 52.792 43.2963C51.429 43.6439 51.8399 45.0445 52.4478 45.3196C52.9417 45.57 53.6227 45.2888 54.0889 45.0086L53.8443 44.0494L53.0871 44.2425ZM63.4135 52.8997C59.6382 53.4861 56.1055 54.6022 54.3349 56.9355C53.6024 57.0148 52.857 57.0436 52.175 57.11C50.6087 54.5523 49.6472 51.6254 49.2786 48.4935C49.1248 45.3606 50.0202 42.3364 53.7044 41.1818C57.5271 39.938 63.0218 39.5583 68.4136 38.7746C72.2522 38.2258 75.4434 37.0356 77.1893 34.8161C78.0614 34.8625 78.9206 34.8584 79.7422 34.9177C81.4856 37.5377 82.2571 40.3518 82.5108 43.2442C82.8588 47.3491 80.6447 49.4192 77.2248 50.3451C72.5053 51.6563 67.3402 52.2746 63.4135 52.8997ZM65.9108 51.9402C59.546 52.7032 54.7255 54.0401 52.4382 56.6665C50.8828 53.7297 49.7956 50.9424 49.7329 48.3776C49.6106 43.8925 52.0415 42.251 54.4765 41.4688C57.5678 40.5191 62.6715 40.2928 66.8012 39.831C72.1306 39.2246 76.7631 38.2044 79.4295 35.5889C81.0452 37.9189 81.9166 40.4924 82.1446 43.2838C82.4627 46.4286 81.0445 48.457 78.2067 49.5571C74.5998 51.0146 70.179 51.3893 65.9108 51.9402Z" fill="#3D438B"/>
<path fill-rule="evenodd" clip-rule="evenodd" d="M71.7117 46.858L70.3992 47.1927L69.4207 43.3561L70.5313 43.0729C71.0866 42.9313 71.3777 43.0183 71.4549 43.3212C71.6213 43.7627 71.3828 44.0923 70.9789 44.1953L70.575 44.2983L70.3535 45.5377L71.3631 45.2802C71.8679 45.1514 72.4124 45.3889 72.4778 45.8562C72.4927 46.3362 72.1661 46.7421 71.7117 46.858ZM72.2355 48.0685L69.1056 48.8668L67.4706 42.4556L70.449 41.696C71.4587 41.4385 72.4446 41.5096 72.8406 42.4302C73.1218 43.1112 73.0615 43.718 72.5963 44.213C73.4942 44.3603 74.105 45.2799 74.0339 46.2658C74.0261 47.2893 72.9927 47.8754 72.2355 48.0685ZM76.6783 41.6665C77.6374 41.4219 78.5878 41.986 78.8324 42.9452C79.077 43.9043 78.5129 44.8547 77.5537 45.0993C76.5946 45.3439 75.6442 44.7798 75.3996 43.8206C75.155 42.8615 75.7191 41.9111 76.6783 41.6665ZM76.292 40.1521C78.0589 39.7015 79.8457 40.805 80.2963 42.5718C80.7598 44.3892 79.7068 46.1631 77.94 46.6137C76.1731 47.0643 74.3862 45.9609 73.9356 44.194C73.4346 42.44 74.5252 40.6027 76.292 40.1521ZM66.8777 42.6605L68.5127 49.0717L66.9478 49.4708L65.9178 45.4323L65.9382 49.7283L64.4237 50.1146L62.4475 46.3711L63.4646 50.3592L61.9501 50.7454L60.3151 44.3342L62.7887 43.7034L64.5609 47.0687L64.4546 43.2785L66.8777 42.6605ZM58.0434 44.9136L59.6083 44.5145L61.2434 50.9256L59.6784 51.3247L58.0434 44.9136ZM56.4662 50.7461L55.1537 51.0808L54.1752 47.2442L55.2858 46.9609C55.8411 46.8193 56.1322 46.9064 56.2094 47.2093C56.3758 47.6507 56.1372 47.9804 55.7334 48.0834L55.3295 48.1864L55.108 49.4257L56.1176 49.1682C56.6224 49.0395 57.1669 49.277 57.2323 49.7442C57.2472 50.2243 56.971 50.6173 56.4662 50.7461ZM57.0405 51.9437L53.9106 52.7419L52.2756 46.3308L55.254 45.5712C56.2636 45.3137 57.2496 45.3848 57.6456 46.3054C57.9268 46.9864 57.8665 47.5932 57.4013 48.0881C58.2992 48.2355 58.91 49.155 58.8389 50.141C58.8311 51.1645 57.7977 51.7506 57.0405 51.9437Z" fill="#DA243C"/>
<path fill-rule="evenodd" clip-rule="evenodd" d="M89.0569 32.6506C89.1954 32.5615 89.334 32.4724 89.4726 32.3833L86.7303 21.6307C86.2668 19.8133 84.4424 18.7732 82.6755 19.2238L58.7976 25.3134C53.1833 27.1215 47.4799 28.7912 41.7121 30.2084C37.3578 31.2651 32.9777 32.2208 28.559 33.0251L25.934 33.6946C24.1166 34.1581 23.0765 35.9825 23.5271 37.7494L26.1535 48.0477C28.5786 47.8593 30.975 46.9256 33.2446 45.9166C40.2426 42.7878 46.909 38.9908 53.9971 36.2154C61.1357 33.427 68.8475 31.6216 76.4093 32.8115C80.6708 33.4989 85.4035 34.9802 89.0569 32.6506Z" fill="#E2C70A"/>
<path fill-rule="evenodd" clip-rule="evenodd" d="M105.631 95.9523L103.597 87.9762C102.108 88.4634 100.684 89.203 99.2594 89.9426C83.8679 97.6852 66.7288 101.949 49.5338 102.409C46.5395 102.474 42.9007 102.541 40.5223 104.6L42.4277 112.071C42.8912 113.888 44.7157 114.928 46.4825 114.478L103.174 100.02C105.041 99.5436 106.094 97.7696 105.631 95.9523Z" fill="#E2C70A"/>
<path fill-rule="evenodd" clip-rule="evenodd" d="M55.9751 88.4547C54.9977 92.8439 56.5494 97.6634 59.8113 100.756C63.0733 103.849 67.9941 105.014 72.3098 103.806C74.821 103.111 77.2143 101.533 78.2772 99.1654C79.528 96.4807 78.906 93.1984 77.4407 90.615C75.9754 88.0316 73.6915 86.0334 71.471 84.0727C68.6921 81.6092 66.2477 77.7164 62.3785 79.8322C59.1646 81.5658 56.729 84.8753 55.9751 88.4547Z" fill="#DB2A6E"/>
<path fill-rule="evenodd" clip-rule="evenodd" d="M56.0432 68.06C55.9666 65.23 57.457 62.4304 59.8127 60.9156C62.1684 59.4009 65.3518 59.2342 67.8722 60.4732C69.3412 61.1738 70.6361 62.4566 71.0352 64.0215C71.4987 65.8388 70.7496 67.7504 69.556 69.1838C68.3495 70.5668 66.7243 71.5727 65.1366 72.5153C63.1333 73.7251 61.1974 75.8318 59.0788 74.0602C57.2147 72.6538 56.0919 70.3594 56.0432 68.06Z" fill="#DD7C12"/>
<path fill-rule="evenodd" clip-rule="evenodd" d="M72.1073 79.8239C73.141 81.9797 75.309 83.5236 77.6857 83.7777C80.0624 84.0318 82.5211 82.9209 83.9146 81.0063C84.7559 79.8778 85.2041 78.4731 84.9199 77.1477C84.5841 75.6204 83.2645 74.4515 81.8212 73.8518C80.3779 73.2521 78.7851 73.1206 77.2053 73.0397C75.2335 72.8974 72.9676 72.0236 72.0175 74.2014C71.2169 75.911 71.2776 78.0461 72.1073 79.8239Z" fill="#44C41A"/>
<path fill-rule="evenodd" clip-rule="evenodd" d="M45.4091 77.3851C45.154 79.547 46.1254 81.88 47.8627 83.2112C49.6001 84.5424 52.0531 84.8845 54.1089 84.0914C55.2819 83.631 56.4023 82.7538 56.7882 81.5263C57.2493 80.1721 56.7869 78.5696 55.9473 77.3858C55.1077 76.202 53.9158 75.3232 52.7368 74.4948C51.2786 73.415 49.855 71.6275 48.1298 72.874C46.6055 73.8541 45.5901 75.5647 45.4091 77.3851Z" fill="#E2CD05"/>
<path fill-rule="evenodd" clip-rule="evenodd" d="M81.7285 59.5736C81.4734 61.7355 82.4447 64.0685 84.1821 65.3997C85.9195 66.7308 88.3724 67.073 90.4283 66.2799C91.6012 65.8195 92.7216 64.9423 93.1075 63.7148C93.5687 62.3606 93.1062 60.7581 92.2666 59.5743C91.4271 58.3905 90.2352 57.5117 89.0561 56.6833C87.5979 55.6035 86.1743 53.816 84.4491 55.0624C82.9882 56.0802 81.9728 57.7908 81.7285 59.5736Z" fill="#0692C9"/>
</g>
<g clip-path="url(#clip2)">
<path fill-rule="evenodd" clip-rule="evenodd" d="M132.896 107.277L73.7823 122.353C72.6717 122.636 71.4808 121.972 71.1847 120.811L51.8345 44.9369C51.5513 43.8263 52.2153 42.6354 53.3764 42.3393L112.491 27.2634C113.601 26.9802 114.792 27.6443 115.088 28.8053L134.438 104.679C134.671 105.803 134.007 106.994 132.896 107.277Z" fill="#00A8FC"/>
<path fill-rule="evenodd" clip-rule="evenodd" d="M113.865 32.0204L54.4478 47.1736C53.3877 47.4439 52.3106 46.8046 52.0403 45.7445L49.1435 34.3861C48.8732 33.326 49.5125 32.2489 50.5726 31.9785L109.939 16.8383C110.999 16.5679 112.076 17.2072 112.347 18.2674L115.243 29.6258C115.514 30.6859 114.875 31.7629 113.865 32.0204Z" fill="#D3B81A"/>
<path fill-rule="evenodd" clip-rule="evenodd" d="M134.476 115.369L76.2706 130.213C74.9075 130.561 73.4632 129.746 73.1027 128.333L70.5021 118.135C70.1545 116.772 70.969 115.328 72.3825 114.968L130.538 100.136C131.901 99.7887 133.345 100.603 133.705 102.017L136.306 112.214C136.666 113.628 135.839 115.021 134.476 115.369Z" fill="#D3B81A"/>
<path fill-rule="evenodd" clip-rule="evenodd" d="M134.079 103.481L116.467 34.4217C114.158 35.2792 112.145 37.083 110.731 39.9706C108.804 44.0105 108.927 48.7104 109.151 53.1697C109.663 65.2975 110.188 77.4758 110.7 89.6036C110.801 92.105 110.927 94.7074 110.256 97.1366C108.952 101.932 104.71 105.54 100.133 107.407C95.517 109.337 90.4905 109.866 85.5403 110.483C80.59 111.1 75.5527 112.009 71.2302 114.455C70.764 114.735 70.2978 115.015 69.895 115.333L70.9635 119.523C71.427 121.341 73.2515 122.381 75.0183 121.93L131.709 107.472C133.502 107.123 134.542 105.298 134.079 103.481Z" fill="#0692C9"/>
<path fill-rule="evenodd" clip-rule="evenodd" d="M94.5647 60.2768C88.1999 61.0397 83.3794 62.3767 81.0921 65.0031C79.5367 62.0663 78.4495 59.279 78.3868 56.7142C78.2645 52.2291 80.6954 50.5876 83.1304 49.8053C86.2217 48.8557 91.3254 48.6294 95.4551 48.1676C100.784 47.5612 105.417 46.541 108.083 43.9255C109.699 46.2554 110.57 48.829 110.798 51.6204C111.117 54.7652 109.698 56.7936 106.861 57.8937C103.254 59.3512 98.8329 59.7259 94.5647 60.2768Z" fill="white"/>
<path fill-rule="evenodd" clip-rule="evenodd" d="M89.5501 49.8881C90.0045 49.7722 90.347 50.0612 90.45 50.465C90.553 50.8689 90.4541 51.3242 89.9997 51.4401C89.5454 51.556 89.2029 51.267 89.0999 50.8631C88.9969 50.4593 89.0453 50.0168 89.5501 49.8881ZM89.4729 49.5852C88.8166 49.7525 88.4524 50.2218 88.6327 50.9285C88.8129 51.6353 89.3069 51.8856 90.0136 51.7054C90.7204 51.5252 91.0341 51.0688 90.8539 50.362C90.7241 49.6424 90.1796 49.4049 89.4729 49.5852ZM87.2944 51.1623L87.1399 50.5565C87.4428 50.4793 87.7833 50.3387 87.8734 50.692C87.9002 51.0078 87.5468 51.0979 87.2944 51.1623ZM87.1233 52.3888L87.5776 52.2729L87.3588 51.4147C87.7121 51.3246 88.1665 51.2087 88.2911 50.8543C88.4158 50.4999 88.1732 49.9704 87.5546 50.0744L86.5954 50.319L87.1233 52.3888ZM84.4881 50.9102L84.8919 50.8072C84.9434 51.0091 85.2009 52.0188 85.2524 52.2207C85.4692 52.6493 86.2136 52.4057 86.1482 51.9385C86.1343 51.6732 85.8778 50.8784 85.8006 50.5755L86.2045 50.4725C86.2688 50.7249 86.5521 51.8355 86.5531 52.0503C86.5433 52.6442 85.7484 52.9007 85.3435 52.7889C84.9516 52.7276 84.8743 52.4247 84.7842 52.0713L84.4881 50.9102ZM83.3063 52.1794L83.1518 51.5736C83.4547 51.4963 83.8457 51.3429 83.9229 51.6458C84.0131 51.9991 83.5587 52.115 83.3063 52.1794ZM83.1352 53.4058L83.5896 53.29L83.3707 52.4318L83.6231 52.3674L84.2963 53.1097L84.8011 52.981L84.0141 52.2139C84.2407 52.0486 84.404 51.8456 84.3268 51.5428C84.2238 51.1389 83.8318 51.0776 83.5289 51.1548L82.6202 51.3866L83.1352 53.4058ZM81.7414 52.5785L81.8186 52.8814L82.172 52.7912L82.2879 53.2456C81.9603 53.4367 81.4178 53.6288 81.1505 53.213C80.8832 52.7973 80.8673 52.1024 81.5235 51.9351C81.7759 51.8707 81.9403 51.8826 82.1056 52.1092L82.2808 51.742C82.0273 51.5915 81.7997 51.5421 81.4463 51.6322C80.0833 51.9798 80.4942 53.3804 81.1021 53.6555C81.596 53.9059 82.277 53.6247 82.7432 53.3445L82.4986 52.3854L81.7414 52.5785ZM92.0678 61.2356C88.2925 61.8221 84.7598 62.9381 82.9892 65.2714C82.2567 65.3507 81.5113 65.3795 80.8293 65.4459C79.263 62.8883 78.3015 59.9613 77.9329 56.8294C77.7791 53.6965 78.6745 50.6724 82.3587 49.5177C86.1814 48.274 91.6761 47.8942 97.0679 47.1106C100.907 46.5617 104.098 45.3715 105.844 43.152C106.716 43.1984 107.575 43.1944 108.396 43.2537C110.14 45.8736 110.911 48.6877 111.165 51.5801C111.513 55.6851 109.299 57.7551 105.879 58.6811C101.16 59.9922 95.9945 60.6105 92.0678 61.2356ZM94.5651 60.2761C88.2003 61.0391 83.3798 62.376 81.0925 65.0024C79.5371 62.0657 78.4499 59.2783 78.3872 56.7136C78.2649 52.2285 80.6958 50.587 83.1308 49.8047C86.2221 48.855 91.3258 48.6287 95.4555 48.167C100.785 47.5605 105.417 46.5404 108.084 43.9248C109.699 46.2548 110.571 48.8283 110.799 51.6198C111.117 54.7645 109.699 56.7929 106.861 57.893C103.254 59.3506 98.8333 59.7253 94.5651 60.2761Z" fill="#3D438B"/>
<path fill-rule="evenodd" clip-rule="evenodd" d="M100.366 55.1939L99.0535 55.5287L98.075 51.6921L99.1856 51.4088C99.7409 51.2672 100.032 51.3543 100.109 51.6572C100.276 52.0986 100.037 52.4283 99.6332 52.5313L99.2293 52.6343L99.0078 53.8736L100.017 53.6161C100.522 53.4874 101.067 53.7249 101.132 54.1921C101.147 54.6722 100.82 55.0781 100.366 55.1939ZM100.89 56.4045L97.7599 57.2027L96.1249 50.7915L99.1033 50.0319C100.113 49.7744 101.099 49.8456 101.495 50.7661C101.776 51.4471 101.716 52.0539 101.251 52.5489C102.148 52.6963 102.759 53.6158 102.688 54.6017C102.68 55.6252 101.647 56.2114 100.89 56.4045ZM105.333 50.0025C106.292 49.7578 107.242 50.322 107.487 51.2811C107.731 52.2403 107.167 53.1906 106.208 53.4352C105.249 53.6798 104.299 53.1157 104.054 52.1566C103.809 51.1974 104.373 50.2471 105.333 50.0025ZM104.946 48.488C106.713 48.0374 108.5 49.1409 108.951 50.9078C109.414 52.7251 108.361 54.4991 106.594 54.9497C104.827 55.4003 103.041 54.2968 102.59 52.5299C102.089 50.7759 103.179 48.9386 104.946 48.488ZM95.532 50.9965L97.167 57.4077L95.6021 57.8068L94.5721 53.7682L94.5925 58.0643L93.078 58.4505L91.1018 54.707L92.1188 58.6951L90.6044 59.0813L88.9693 52.6701L91.443 52.0393L93.2152 55.4046L93.1089 51.6144L95.532 50.9965ZM86.6977 53.2495L88.2626 52.8504L89.8976 59.2616L88.3327 59.6607L86.6977 53.2495ZM85.1205 59.082L83.808 59.4167L82.8295 55.5801L83.9401 55.2969C84.4954 55.1553 84.7865 55.2423 84.8637 55.5452C85.0301 55.9867 84.7915 56.3163 84.3877 56.4193L83.9838 56.5223L83.7623 57.7617L84.7719 57.5042C85.2767 57.3754 85.8212 57.6129 85.8866 58.0802C85.9015 58.5602 85.6253 58.9533 85.1205 59.082ZM85.6948 60.2797L82.5649 61.0779L80.9299 54.6667L83.9083 53.9071C84.9179 53.6496 85.9038 53.7208 86.2999 54.6413C86.5811 55.3223 86.5208 55.9291 86.0556 56.4241C86.9535 56.5715 87.5643 57.491 87.4932 58.4769C87.4854 59.5004 86.452 60.0866 85.6948 60.2797Z" fill="#DA243C"/>
<path fill-rule="evenodd" clip-rule="evenodd" d="M117.711 40.9865C117.85 40.8974 117.988 40.8083 118.127 40.7192L115.385 29.9666C114.921 28.1493 113.097 27.1091 111.33 27.5597L87.4519 33.6493C81.8376 35.4575 76.1342 37.1271 70.3664 38.5443C66.0121 39.601 61.632 40.5568 57.2133 41.3611L54.5883 42.0305C52.7709 42.494 51.7308 44.3185 52.1814 46.0853L54.8078 56.3836C57.2329 56.1952 59.6293 55.2615 61.8989 54.2526C68.8969 51.1237 75.5632 47.3268 82.6514 44.5513C89.79 41.763 97.5018 39.9575 105.064 41.1474C109.325 41.8349 114.058 43.3161 117.711 40.9865Z" fill="#E2C70A"/>
<path fill-rule="evenodd" clip-rule="evenodd" d="M134.285 104.288L132.251 96.3121C130.762 96.7993 129.338 97.5389 127.914 98.2785C112.522 106.021 95.3831 110.285 78.1881 110.745C75.1938 110.81 71.555 110.877 69.1766 112.936L71.082 120.407C71.5455 122.224 73.37 123.264 75.1368 122.814L131.828 108.356C133.696 107.88 134.749 106.106 134.285 104.288Z" fill="#E2C70A"/>
<path fill-rule="evenodd" clip-rule="evenodd" d="M84.6294 96.7907C83.6519 101.18 85.2037 105.999 88.4656 109.092C91.7276 112.185 96.6484 113.35 100.964 112.142C103.475 111.447 105.869 109.869 106.931 107.501C108.182 104.817 107.56 101.534 106.095 98.9509C104.63 96.3676 102.346 94.3693 100.125 92.4086C97.3464 89.9452 94.902 86.0523 91.0328 88.1681C87.8189 89.9018 85.3833 93.2112 84.6294 96.7907Z" fill="#DB2A6E"/>
<path fill-rule="evenodd" clip-rule="evenodd" d="M84.6975 76.3959C84.6209 73.5659 86.1113 70.7664 88.467 69.2516C90.8227 67.7368 94.0061 67.5701 96.5265 68.8091C97.9955 69.5098 99.2904 70.7925 99.6895 72.3574C100.153 74.1748 99.4039 76.0863 98.2103 77.5198C97.0038 78.9028 95.3786 79.9087 93.7909 80.8512C91.7876 82.0611 89.8517 84.1678 87.7331 82.3961C85.869 80.9898 84.7462 78.6954 84.6975 76.3959Z" fill="#DD7C12"/>
<path fill-rule="evenodd" clip-rule="evenodd" d="M100.762 88.1598C101.795 90.3156 103.963 91.8595 106.34 92.1136C108.717 92.3678 111.175 91.2568 112.569 89.3423C113.41 88.2137 113.858 86.809 113.574 85.4836C113.238 83.9563 111.919 82.7874 110.475 82.1877C109.032 81.588 107.439 81.4566 105.86 81.3756C103.888 81.2333 101.622 80.3595 100.672 82.5373C99.8712 84.2469 99.9319 86.3821 100.762 88.1598Z" fill="#44C41A"/>
<path fill-rule="evenodd" clip-rule="evenodd" d="M74.0634 85.7211C73.8083 87.883 74.7797 90.216 76.517 91.5471C78.2544 92.8783 80.7074 93.2205 82.7632 92.4274C83.9362 91.9669 85.0566 91.0898 85.4425 89.8623C85.9036 88.5081 85.4411 86.9055 84.6016 85.7218C83.762 84.538 82.5701 83.6591 81.3911 82.8307C79.9329 81.751 78.5093 79.9634 76.7841 81.2099C75.2598 82.19 74.2444 83.9007 74.0634 85.7211Z" fill="#E2CD05"/>
<path fill-rule="evenodd" clip-rule="evenodd" d="M110.383 67.9095C110.128 70.0714 111.099 72.4044 112.836 73.7356C114.574 75.0668 117.027 75.409 119.083 74.6158C120.256 74.1554 121.376 73.2783 121.762 72.0508C122.223 70.6966 121.76 69.094 120.921 67.9102C120.081 66.7265 118.889 65.8476 117.71 65.0192C116.252 63.9395 114.829 62.1519 113.103 63.3984C111.642 64.4161 110.627 66.1268 110.383 67.9095Z" fill="#0692C9"/>
</g>
<defs>
<clipPath id="clip0">
<rect width="65" height="64" fill="white" transform="translate(215 134)"/>
</clipPath>
<clipPath id="clip1">
<rect width="65.2783" height="101.538" fill="white" transform="translate(20 24.1318) rotate(-14.3072)"/>
</clipPath>
<clipPath id="clip2">
<rect width="65.2783" height="101.538" fill="white" transform="translate(48.6543 32.4678) rotate(-14.3072)"/>
</clipPath>
</defs>
</svg>
