<svg width="291" height="209" viewBox="0 0 291 209" fill="none" xmlns="http://www.w3.org/2000/svg">
<rect width="291" height="209" rx="10" fill="#261394"/>
<path fill-rule="evenodd" clip-rule="evenodd" d="M254.89 110.974C254.614 110.78 254.244 110.893 254.123 111.208L253.345 113.242L253.316 113.251L251.535 111.999C251.258 111.804 250.889 111.917 250.767 112.233L249.989 114.266L249.961 114.275L248.18 113.023C247.903 112.829 247.533 112.942 247.412 113.257L246.634 115.291L246.606 115.3L244.824 114.048C244.548 113.853 244.178 113.966 244.057 114.282L243.279 116.315L243.25 116.324L241.469 115.072C241.192 114.878 240.823 114.991 240.701 115.306L239.935 117.274C239.915 117.311 239.895 117.349 239.838 117.366C239.781 117.383 239.744 117.364 239.707 117.344L237.972 116.14C237.695 115.946 237.325 116.059 237.204 116.374L236.426 118.408L236.369 118.425L234.588 117.173C234.311 116.979 233.941 117.092 233.82 117.407L233.042 119.441L233.014 119.45L231.233 118.198C230.956 118.003 230.586 118.116 230.465 118.432L229.687 120.465L229.658 120.474L227.877 119.222C227.6 119.028 227.231 119.141 227.11 119.456L226.332 121.49L226.303 121.499L224.522 120.246C224.245 120.052 223.875 120.165 223.754 120.481L222.976 122.514L222.948 122.523L221.167 121.271C220.89 121.077 220.52 121.19 220.399 121.505L219.621 123.539L219.593 123.547L217.811 122.295C217.535 122.101 217.165 122.214 217.044 122.53L216.266 124.563L216.237 124.572L214.456 123.32C214.179 123.126 213.81 123.239 213.688 123.554L213.587 123.833C213.395 124.325 212.72 124.252 212.602 123.762C211.446 118.449 213.453 115.452 213.756 115.019C213.775 114.982 213.795 114.945 213.815 114.908L214.381 113.404C214.675 112.633 215.301 112.039 216.098 111.796L231.026 107.238L246.239 102.593C247.035 102.35 247.886 102.492 248.56 102.968L249.907 103.919C249.944 103.938 249.982 103.958 250.019 103.978C250.512 104.168 253.833 105.476 255.856 110.37C256.06 110.834 255.512 111.28 255.078 110.979L254.89 110.974Z" fill="#072999"/>
<path fill-rule="evenodd" clip-rule="evenodd" d="M223.87 11.1144C223.749 11.43 223.38 11.5429 223.103 11.3488L221.322 10.0967L221.293 10.1054L220.515 12.1388C220.394 12.4545 220.024 12.5674 219.747 12.3733L217.938 11.1299L217.909 11.1386L217.131 13.172C217.01 13.4877 216.64 13.6006 216.364 13.4064L214.582 12.1544L214.554 12.1631L213.776 14.1965C213.655 14.5122 213.285 14.625 213.008 14.4309L211.199 13.1876L211.17 13.1962L210.392 15.2297C210.271 15.5453 209.901 15.6582 209.625 15.4641L207.889 14.26C207.852 14.2404 207.815 14.2207 207.758 14.2381C207.701 14.2555 207.681 14.2925 207.662 14.3295L206.895 16.2976C206.774 16.6132 206.404 16.7261 206.127 16.532L204.346 15.2799L204.318 15.2886L203.54 17.322C203.418 17.6377 203.049 17.7506 202.772 17.5564L200.991 16.3044L200.962 16.3131L200.184 18.3465C200.063 18.6622 199.693 18.7751 199.416 18.5809L197.607 17.3376L197.578 17.3463L196.8 19.3797C196.679 19.6954 196.31 19.8082 196.033 19.6141L194.252 18.3621L194.223 18.3707L193.445 20.4042C193.324 20.7198 192.954 20.8327 192.677 20.6386L190.896 19.3865L190.868 19.3952L190.09 21.4286C189.969 21.7443 189.599 21.8572 189.322 21.6631L187.513 20.4197L187.484 20.4284L186.706 22.4618C186.585 22.7775 186.215 22.8904 185.938 22.6962L184.157 21.4442L184.129 21.4529L183.351 23.4863C183.23 23.802 182.86 23.9148 182.583 23.7207L182.315 23.5549C181.881 23.2539 181.362 23.6911 181.537 24.1639C183.546 29.2168 186.885 30.5815 187.378 30.7715C187.415 30.7911 187.452 30.8108 187.489 30.8304L189.648 32.4008C189.767 32.4881 189.936 32.5296 190.106 32.4775L206.03 27.6156L222.238 22.6668C222.38 22.6234 222.505 22.5233 222.575 22.347L223.516 19.8303C223.536 19.7932 223.556 19.7562 223.576 19.7192C223.879 19.2861 225.903 16.3458 224.847 11.1568C224.757 10.6579 224.053 10.594 223.862 11.086L223.87 11.1144Z" fill="#072999"/>
<path fill-rule="evenodd" clip-rule="evenodd" d="M246.676 104.534L216.222 113.832C215.142 114.162 213.992 113.553 213.663 112.477L189.397 33.0031C189.069 31.9268 189.682 30.7797 190.763 30.4498L221.245 21.1426C222.325 20.8127 223.475 21.4215 223.804 22.4978L248.069 101.972C248.398 103.048 247.785 104.195 246.676 104.534Z" fill="#004FA3"/>
<path d="M238.739 75.9011C238.962 73.1702 238.39 70.2794 236.708 68.1302C235.481 66.5542 233.714 65.4525 231.824 64.7601C229.943 64.096 227.929 63.8129 225.91 63.7171C219.245 63.3682 212.495 64.779 206.548 67.8023C205.366 68.4109 204.074 69.2698 203.945 70.5787C203.83 71.7285 204.722 72.8184 205.772 73.3031C206.821 73.7877 208.043 73.8173 209.207 73.8642C214.457 74.057 219.667 74.7268 224.809 75.7885C226.034 76.0337 227.313 76.3552 228.299 77.1382C229.515 78.0673 230.104 79.5903 231.088 80.7761C232.181 82.1146 233.801 83.0441 235.533 83.3203C236.544 83.476 236.727 82.9557 237.088 82.1023C237.461 81.1836 237.816 80.2082 238.085 79.2589C238.425 78.1332 238.652 77.0423 238.739 75.9011Z" fill="#4C290A"/>
<path d="M234.876 74.4484C233.985 73.6677 232.918 73.1264 231.869 72.6418C230.309 71.9106 228.689 71.2903 227.026 70.9314C225.669 70.6643 224.271 70.5648 222.882 70.4936C221.934 70.4425 220.948 70.3718 220 70.3207C218.545 70.2386 217.09 70.1565 215.607 70.0831C213.269 69.9608 210.912 69.8756 208.583 69.7817C207.042 69.7256 205.368 69.7413 204.176 70.7245C203.129 71.5706 202.742 73.0512 202.952 74.3495C203.17 75.6761 203.929 76.8378 204.901 77.7797C204.964 76.4599 205.027 75.1401 205.521 73.9057C206.014 72.6713 206.903 72.1212 208.189 71.8525C208.946 71.6834 210.809 71.9816 211.558 72.0934C216.144 72.8605 219.734 72.91 224.32 73.6772C227.166 74.1397 230.168 74.7091 232.288 76.6628C233.325 77.6157 234.081 78.871 234.829 80.098C235.388 81.0111 235.955 81.9526 236.514 82.8658C237.224 84.0731 237.344 82.736 237.421 81.9694C237.608 80.2403 237.393 78.4171 236.664 76.8438C236.191 75.9046 235.63 75.0851 234.876 74.4484Z" fill="#723C07"/>
<path d="M215.566 71.2717C215.566 71.2717 208.024 69.5802 204.285 72.3009C204.285 72.3009 201.86 73.3198 206.125 83.0097C206.125 83.0097 207.979 88.5742 211.427 90.0916C211.427 90.0916 228.472 95.7243 233.405 92.6389C238.338 89.5535 238.183 78.7637 234.637 76.007C231.062 73.259 215.566 71.2717 215.566 71.2717Z" fill="#381F04"/>
<path d="M225.71 80.0639C225.273 79.5472 224.691 79.1676 224.146 78.8077C223.369 78.3016 222.565 77.8042 221.797 77.3264C221.418 77.1017 221.029 76.8486 220.571 76.7719C220.243 76.7171 219.922 76.7843 219.611 76.7861C218.718 76.8113 217.862 76.4532 217.022 76.2455C215.648 75.9217 214.154 75.9136 212.861 76.4632C211.567 77.0129 210.447 78.129 210.128 79.527C209.915 80.4589 210.03 81.4457 210.156 82.3671C210.329 83.6457 210.547 84.9723 211.146 86.1208C211.746 87.2692 212.828 88.27 214.141 88.3955C215.013 88.501 215.914 88.1949 216.786 88.3003C217.498 88.3925 218.137 88.7547 218.826 88.9776C220.56 89.5631 222.568 89.3213 224.099 88.3276C225.343 87.5143 226.252 86.215 226.619 84.7714C227.004 83.3844 226.657 81.2301 225.71 80.0639Z" fill="#FCFCFC"/>
<path d="M232.822 64.3621C232.724 64.1442 232.55 63.9807 232.376 63.8171C231.539 63.1128 230.45 62.7022 229.351 62.6662C228.816 62.6438 228.25 62.7238 227.748 62.5055C227.423 62.3571 227.148 62.0693 226.814 61.8925C226.25 61.5696 225.535 61.571 224.901 61.7337C224.267 61.8964 223.684 62.229 223.13 62.5529C222.52 62.8942 221.889 63.2725 221.278 63.6138C220.724 63.9378 220.142 64.2704 219.643 64.6706C219.018 65.1709 218.477 65.7388 217.915 66.3437C217.354 66.9485 216.793 67.5534 216.24 68.1866C216.075 68.3607 215.891 68.5718 215.847 68.8331C215.976 69.2579 216.071 69.5695 216.576 69.6942C217.24 69.8321 217.813 69.4711 218.395 69.8507C218.746 70.0841 219.01 70.4372 219.361 70.6706C219.72 70.9324 220.488 70.698 220.941 70.6527C221.299 70.6051 221.666 70.5859 222.005 70.5754C222.739 70.537 223.5 70.5835 224.236 70.4514C224.973 70.3193 225.698 69.9433 226.054 69.2772C226.351 68.7221 226.371 67.9729 226.796 67.5334C227.357 66.9286 228.369 67.0843 229.119 66.7932C230.04 66.45 230.66 65.4249 230.488 64.4555C230.918 64.5409 231.21 64.8853 231.581 65.0817C231.932 65.3151 232.493 65.4224 232.728 65.072C232.912 64.861 232.92 64.58 232.822 64.3621ZM220.677 65.7171C220.774 65.6257 220.879 65.5627 220.992 65.528C221.325 65.3955 221.62 65.2433 221.953 65.1108C222.087 65.0391 222.229 64.9957 222.38 64.9806C222.53 64.9655 222.687 65.0724 222.731 65.214C222.765 65.3273 222.714 65.4666 222.618 65.558C222.522 65.6494 222.416 65.7124 222.274 65.7558C221.942 65.8883 221.592 65.9642 221.233 66.0117C221.054 66.0355 220.691 66.2703 220.573 66.0894C220.53 65.9478 220.581 65.8085 220.677 65.7171ZM224.331 68.3171C224.158 68.4628 223.754 68.4624 223.517 68.5036C223.159 68.5511 222.772 68.6073 222.405 68.6265C221.67 68.665 220.958 68.5727 220.249 68.3869C220.146 68.3563 220.044 68.3257 219.989 68.2494C219.906 68.1818 219.872 68.0685 219.94 67.9858C219.988 67.9401 220.045 67.9227 220.13 67.8967C221.219 67.5951 222.352 67.4351 223.499 67.4254C223.715 67.4213 223.903 67.4259 224.117 67.5154C224.425 67.6072 224.657 68.0626 224.331 68.3171ZM228.294 65.3113C228.226 65.394 228.14 65.42 228.026 65.4548C227.449 65.6001 226.655 65.7495 226.097 65.5486C225.92 65.4787 225.783 65.3348 225.606 65.2649C225.309 65.1078 224.984 64.9594 224.659 64.8109C224.548 64.752 224.428 64.6647 224.487 64.5537C224.507 64.5167 224.564 64.4994 224.612 64.4537C225.741 64.0781 227.025 64.2123 228.024 64.8362C228.107 64.9038 228.181 64.9431 228.235 65.0194C228.327 65.1153 228.333 65.2373 228.294 65.3113Z" fill="white"/>
<path fill-rule="evenodd" clip-rule="evenodd" d="M212.747 51.1383C207.902 51.9673 204.251 53.144 202.596 55.2592C201.273 53.0624 200.36 50.9881 200.224 49.0168C199.986 45.5906 201.78 44.2378 203.631 43.5798C205.948 42.7176 209.887 42.382 213.03 41.8865C217.09 41.2352 220.594 40.2893 222.567 38.2005C223.903 39.929 224.651 41.8682 224.915 43.955C225.274 46.3533 224.264 47.9313 222.133 48.8917C219.364 50.1085 215.996 50.5798 212.747 51.1383Z" fill="white"/>
<path fill-rule="evenodd" clip-rule="evenodd" d="M208.544 43.3811C208.885 43.2769 209.143 43.5081 209.229 43.7913C209.324 44.1028 209.24 44.4382 208.899 44.5423C208.558 44.6465 208.281 44.4524 208.186 44.1408C208.128 43.8489 208.175 43.494 208.544 43.3811ZM208.484 43.1828C207.972 43.3391 207.717 43.7265 207.873 44.2363C208.037 44.7745 208.436 44.9622 208.977 44.7972C209.488 44.641 209.743 44.2536 209.588 43.7437C209.423 43.2056 208.996 43.0266 208.484 43.1828ZM206.823 44.4639L206.676 43.9824C206.904 43.913 207.142 43.7782 207.229 44.0614C207.344 44.336 207.051 44.3945 206.823 44.4639ZM206.77 45.4091L207.111 45.3049L206.921 44.6818C207.177 44.6037 207.518 44.4995 207.619 44.2208C207.721 43.9422 207.506 43.5434 207.042 43.654L206.331 43.871L206.798 45.4004L206.77 45.4091ZM204.682 44.3746L204.966 44.2877C205.01 44.4294 205.252 45.2224 205.286 45.3357C205.447 45.6582 206.036 45.4475 205.989 45.0903C205.957 44.8834 205.746 44.2973 205.677 44.0707L205.962 43.9839C206.022 44.1821 206.301 44.9948 206.296 45.1821C206.312 45.6417 205.724 45.8523 205.396 45.7975C205.106 45.7624 205.008 45.5445 204.93 45.2896L204.682 44.3746ZM203.838 45.3755L203.699 44.9224C203.927 44.8529 204.194 44.7095 204.272 44.9644C204.358 45.2476 204.037 45.3148 203.838 45.3755ZM203.756 46.3294L204.097 46.2252L203.898 45.5738L204.097 45.513L204.666 46.0516L205.064 45.93L204.421 45.3522C204.594 45.2065 204.702 45.0498 204.633 44.8232C204.537 44.5116 204.256 44.5048 204 44.5829L203.317 44.7913L203.756 46.3294ZM202.672 45.7315L202.732 45.9298L202.988 45.8516L203.092 46.1915C202.842 46.3916 202.444 46.5132 202.207 46.245C201.989 45.9399 201.956 45.4237 202.439 45.2761C202.638 45.2153 202.769 45.2372 202.907 45.3811L203.008 45.1024C202.823 45.0042 202.663 44.991 202.379 45.0778C201.355 45.3904 201.684 46.4666 202.205 46.6479C202.596 46.8073 203.082 46.5661 203.454 46.3596L203.229 45.6232L202.672 45.7315ZM210.863 51.9931C207.97 52.5977 205.303 53.5358 204.049 55.4358C203.483 55.5158 202.945 55.5871 202.379 55.6671C201.077 53.7426 200.26 51.5768 199.872 49.1872C199.644 46.8108 200.233 44.4635 203.024 43.4254C205.901 42.3612 210.127 41.8451 214.237 41.0545C217.167 40.4695 219.563 39.4592 220.832 37.7095C221.481 37.6971 222.167 37.7044 222.816 37.692C224.25 39.6384 224.955 41.7452 225.234 43.9823C225.631 47.1125 224.026 48.7791 221.418 49.6062C217.779 50.7175 213.85 51.3907 210.863 51.9931ZM212.747 51.1391C207.902 51.9682 204.251 53.1448 202.597 55.2601C201.273 53.0633 200.36 50.9889 200.225 49.0177C199.987 45.5915 201.781 44.2387 203.631 43.5807C205.948 42.7184 209.887 42.3828 213.031 41.8874C217.091 41.2361 220.594 40.2901 222.568 38.2014C223.904 39.9299 224.651 41.8691 224.915 43.9559C225.275 46.3542 224.264 47.9322 222.133 48.8926C219.365 50.1093 215.996 50.5806 212.747 51.1391Z" fill="#3D438B"/>
<path fill-rule="evenodd" clip-rule="evenodd" d="M217.011 47.0812L216.016 47.3851L215.134 44.4962L215.958 44.2444C216.385 44.1142 216.59 44.1754 216.696 44.4216C216.837 44.7811 216.69 45.0118 216.349 45.116L216.036 45.2115L215.897 46.1827L216.665 45.9483C217.035 45.8354 217.454 45.9862 217.529 46.3347C217.596 46.6549 217.381 46.9684 217.011 47.0812ZM217.476 47.9921L215.116 48.7127L213.646 43.8978L215.892 43.212C216.66 42.9775 217.411 42.9958 217.75 43.6974C217.999 44.2095 217.95 44.6581 217.61 45.0716C218.322 45.1638 218.803 45.8221 218.783 46.5713C218.791 47.3118 218.044 47.8185 217.476 47.9921ZM220.619 42.9142C221.33 42.6971 222.08 43.1183 222.297 43.8263C222.513 44.5344 222.126 45.3028 221.415 45.5199C220.704 45.7369 219.954 45.3158 219.738 44.6077C219.521 43.8996 219.908 43.1312 220.619 42.9142ZM220.273 41.7813C221.61 41.3732 223.028 42.1479 223.443 43.5074C223.858 44.8669 223.115 46.3014 221.778 46.7094C220.442 47.1175 219.024 46.3428 218.609 44.9833C218.185 43.5955 218.937 42.1893 220.273 41.7813ZM213.154 44.0171L214.624 48.832L213.429 49.1966L212.495 46.1378L212.662 49.431L211.496 49.787L209.831 46.9822L210.757 50.0127L209.591 50.3687L208.121 45.5538L209.969 44.9895L211.425 47.5175L211.22 44.6075L213.154 44.0171ZM206.471 46.0574L207.637 45.7014L209.107 50.5163L207.941 50.8723L206.471 46.0574ZM205.495 50.5975L204.5 50.9013L203.618 48.0124L204.442 47.7606C204.869 47.6304 205.074 47.6916 205.18 47.9378C205.321 48.2973 205.174 48.528 204.833 48.6322L204.52 48.7277L204.381 49.699L205.149 49.4645C205.519 49.3517 205.938 49.5024 206.013 49.8509C206.08 50.1712 205.865 50.4846 205.495 50.5975ZM205.96 51.5083L203.6 52.2289L202.129 47.4141L204.376 46.7282C205.144 46.4938 205.895 46.512 206.234 47.2136C206.483 47.7257 206.434 48.1743 206.094 48.5878C206.806 48.68 207.287 49.3383 207.267 50.0875C207.275 50.828 206.528 51.3347 205.96 51.5083Z" fill="#DA243C"/>
<mask id="mask0" mask-type="alpha" maskUnits="userSpaceOnUse" x="189" y="20" width="60" height="94">
<path fill-rule="evenodd" clip-rule="evenodd" d="M246.719 104.251L216.265 113.55C215.185 113.88 214.035 113.271 213.706 112.195L189.44 32.7209C189.112 31.6446 189.725 30.4975 190.806 30.1675L221.288 20.8604C222.368 20.5305 223.518 21.1393 223.847 22.2156L248.112 101.689C248.441 102.766 247.828 103.913 246.719 104.251Z" fill="#004FA3"/>
</mask>
<g mask="url(#mask0)">
<path opacity="0.1" d="M249.67 36.2863L180.908 32.1611L180.634 36.5377L249.397 40.6629L249.67 36.2863Z" fill="white"/>
<path opacity="0.1" d="M248.422 41.9738L179.66 37.8486L179.532 39.8891L248.295 44.0142L248.422 41.9738Z" fill="white"/>
<path opacity="0.1" d="M260.918 100.494L192.156 96.3691L192.029 98.4096L260.791 102.535L260.918 100.494Z" fill="white"/>
<path opacity="0.1" d="M263.747 92.5646L194.984 88.4395L194.921 89.4449L263.684 93.57L263.747 92.5646Z" fill="white"/>
<path opacity="0.1" d="M261.95 94.6174L193.188 90.4922L192.914 94.8688L261.676 98.9939L261.95 94.6174Z" fill="white"/>
</g>
<g clip-path="url(#clip0)">
<path d="M102.667 31.1881C104.894 30.6996 107.228 30.5621 109.474 30.2599C113.07 29.7368 116.583 28.8168 119.922 27.451C120.472 27.2445 121.046 26.9922 121.564 26.6803L121.554 26.6452C122.135 25.1622 122.421 23.4625 122.623 21.8651C122.66 21.7384 122.653 21.5872 122.68 21.4253C122.832 20.419 122.874 19.1775 122.585 17.7302C122.502 17.3332 121.958 17.3076 121.799 17.6635L121.774 17.7093C121.663 17.9736 121.383 18.0592 121.143 17.9021L119.705 16.9594L119.04 18.5448C118.929 18.8091 118.649 18.8948 118.409 18.7376L116.971 17.7949L116.306 19.3804C116.195 19.6446 115.914 19.7303 115.675 19.5732L114.237 18.6304L113.572 20.2159C113.461 20.4801 113.18 20.5658 112.941 20.4087L111.503 19.466L110.837 21.0514C110.726 21.3156 110.446 21.4013 110.206 21.2442L108.814 20.3259C108.849 20.3152 108.814 20.3259 108.779 20.3366C108.744 20.3473 108.709 20.358 108.685 20.4038L108.044 21.9434C107.933 22.2077 107.652 22.2934 107.413 22.1363L106.01 21.1828L105.345 22.7682C105.234 23.0325 104.953 23.1182 104.714 22.9611L103.276 22.0183L102.61 23.6038C102.5 23.868 102.219 23.9537 101.979 23.7966L100.542 22.8539L99.8762 24.4393C99.7653 24.7035 99.4849 24.7892 99.2453 24.6321L97.8074 23.6894L97.142 25.2748C97.0311 25.539 96.7507 25.6247 96.5111 25.4676L95.0732 24.5249L94.4078 26.1103C94.2969 26.3746 94.0165 26.4603 93.7769 26.3031L92.339 25.3604L91.6736 26.9458C91.5627 27.2101 91.2823 27.2958 91.0426 27.1387L89.6048 26.1959L88.9394 27.7814C88.8285 28.0456 88.5481 28.1313 88.3084 27.9742L88.1146 27.8415C87.7726 27.6004 87.3463 27.9611 87.4993 28.3366C88.1331 29.9089 88.94 31.0445 89.7098 31.8074C89.7205 31.8426 89.7663 31.867 89.777 31.9021C90.5761 32.8864 91.7207 33.4965 92.7115 34.2303C93.0641 34.5064 93.3818 34.7933 93.64 35.1367C93.7452 35.1046 93.8396 35.0373 93.934 34.9701C95.2289 34.1905 96.4322 33.3621 97.8157 32.7473C99.4096 32.0683 101.011 31.5404 102.667 31.1881Z" fill="#B75009"/>
<path d="M135.521 106.724C133.294 107.213 130.96 107.35 128.715 107.652C125.118 108.175 121.605 109.095 118.266 110.461C117.716 110.668 117.142 110.92 116.624 111.232L116.635 111.267C116.053 112.75 115.767 114.45 115.566 116.047C115.528 116.174 115.536 116.325 115.508 116.487C115.356 117.493 115.314 118.735 115.603 120.182C115.686 120.579 116.23 120.604 116.39 120.249L116.414 120.203C116.525 119.939 116.805 119.853 117.045 120.01L118.483 120.953L119.148 119.367C119.259 119.103 119.539 119.017 119.779 119.174L121.217 120.117L121.882 118.532C121.993 118.268 122.274 118.182 122.513 118.339L123.951 119.282L124.617 117.696C124.727 117.432 125.008 117.346 125.248 117.503L126.685 118.446L127.351 116.861C127.462 116.596 127.742 116.511 127.982 116.668L129.374 117.586C129.42 117.611 129.455 117.6 129.49 117.589C129.525 117.578 129.56 117.568 129.584 117.522L130.225 115.982C130.336 115.718 130.617 115.632 130.856 115.79L132.294 116.732L132.959 115.147C133.07 114.883 133.351 114.797 133.59 114.954L135.028 115.897L135.694 114.311C135.805 114.047 136.085 113.961 136.325 114.118L137.762 115.061L138.428 113.476C138.539 113.212 138.819 113.126 139.059 113.283L140.497 114.226L141.162 112.64C141.273 112.376 141.553 112.29 141.793 112.447L143.231 113.39L143.896 111.805C144.007 111.541 144.288 111.455 144.527 111.612L145.965 112.555L146.63 110.969C146.741 110.705 147.022 110.619 147.261 110.776L148.699 111.719L149.365 110.134C149.476 109.869 149.756 109.784 149.996 109.941L150.189 110.074C150.531 110.315 150.958 109.954 150.805 109.578C150.171 108.006 149.364 106.871 148.594 106.108C148.584 106.073 148.538 106.048 148.527 106.013C147.728 105.029 146.583 104.419 145.593 103.685C145.24 103.409 144.922 103.122 144.664 102.778C144.559 102.811 144.464 102.878 144.37 102.945C143.075 103.725 141.872 104.553 140.488 105.168C138.768 105.809 137.177 106.372 135.521 106.724Z" fill="#B75009"/>
<path d="M122.208 24.5834L92.5176 33.6562L116.896 113.433L146.586 104.36L122.208 24.5834Z" fill="#EA680F"/>
<path fill-rule="evenodd" clip-rule="evenodd" d="M113.431 52.2395C109.565 52.8834 106.677 53.8427 105.383 55.5048C104.348 53.748 103.612 52.0917 103.523 50.545C103.346 47.8347 104.741 46.7558 106.227 46.2249C108.053 45.5519 111.19 45.2841 113.67 44.8717C116.884 44.3505 119.685 43.6096 121.211 41.9533C122.279 43.3162 122.867 44.8642 123.069 46.5299C123.347 48.4415 122.55 49.7216 120.861 50.4679C118.669 51.4451 115.981 51.8057 113.431 52.2395Z" fill="white"/>
<path fill-rule="evenodd" clip-rule="evenodd" d="M110.093 46.0806C110.373 45.9949 110.578 46.1627 110.653 46.4085C110.728 46.6543 110.652 46.9078 110.417 47.0179C110.137 47.1036 109.932 46.9358 109.857 46.69C109.747 46.4549 109.777 46.177 110.093 46.0806ZM110.039 45.905C109.653 46.0229 109.437 46.3192 109.566 46.7406C109.695 47.1619 110.015 47.3328 110.436 47.2042C110.857 47.0757 111.038 46.79 110.909 46.3687C110.769 45.9122 110.424 45.7872 110.039 45.905ZM108.738 46.9167L108.62 46.5305C108.796 46.4769 108.995 46.3775 109.059 46.5882C109.124 46.7989 108.878 46.8739 108.738 46.9167ZM108.662 47.6696L108.907 47.5946L108.757 47.103C108.967 47.0387 109.213 46.9638 109.299 46.7453C109.386 46.5269 109.208 46.1972 108.858 46.3043L108.297 46.4757L108.662 47.6696ZM107.024 46.8262L107.27 46.7513C107.302 46.8566 107.495 47.4886 107.527 47.594C107.648 47.8642 108.128 47.6791 108.077 47.3875C108.024 47.2119 107.884 46.7554 107.83 46.5799L108.076 46.5049C108.119 46.6453 108.323 47.3125 108.366 47.4529C108.403 47.8255 107.912 47.9755 107.634 47.9451C107.392 47.904 107.338 47.7285 107.285 47.5529L107.024 46.8262ZM106.355 47.6451L106.247 47.294C106.423 47.2404 106.657 47.1303 106.722 47.341C106.786 47.5517 106.495 47.6023 106.355 47.6451ZM106.278 48.398L106.523 48.323L106.362 47.7963L106.503 47.7534L106.944 48.1944L107.26 48.098L106.737 47.6434C106.856 47.5303 106.975 47.4172 106.91 47.2065C106.835 46.9607 106.604 46.9548 106.428 47.0083L105.867 47.1797L106.278 48.398ZM105.408 47.9343L105.462 48.1099L105.672 48.0456L105.747 48.2914C105.558 48.4259 105.243 48.5223 105.063 48.3087C104.882 48.095 104.859 47.6415 105.244 47.5237C105.385 47.4809 105.5 47.4838 105.613 47.6029L105.7 47.3845C105.552 47.2761 105.401 47.2839 105.191 47.3481C104.384 47.5945 104.642 48.4372 105.033 48.5866C105.342 48.7223 105.742 48.5235 106 48.3676L105.818 47.7707L105.408 47.9343ZM111.918 52.9324C109.645 53.3966 107.504 54.166 106.505 55.6616C106.063 55.7199 105.62 55.7782 105.178 55.8365C104.137 54.3118 103.496 52.5883 103.183 50.6874C102.987 48.7895 103.45 46.9202 105.651 46.0942C107.921 45.2468 111.283 44.8338 114.51 44.2316C116.829 43.7918 118.727 42.9813 119.748 41.556C120.282 41.5465 120.78 41.5477 121.314 41.5381C122.436 43.0766 122.997 44.7864 123.266 46.5468C123.61 49.0523 122.325 50.3664 120.257 50.9984C117.394 51.9118 114.296 52.4361 111.918 52.9324ZM113.431 52.2397C109.565 52.8836 106.677 53.8429 105.384 55.505C104.349 53.7482 103.612 52.0919 103.523 50.5452C103.346 47.8349 104.741 46.756 106.227 46.2251C108.053 45.5521 111.191 45.2843 113.671 44.8719C116.884 44.3507 119.686 43.6098 121.211 41.9535C122.279 43.3164 122.867 44.8644 123.07 46.5301C123.347 48.4417 122.55 49.7218 120.862 50.4681C118.669 51.4453 115.981 51.8059 113.431 52.2397Z" fill="#3D438B"/>
<path fill-rule="evenodd" clip-rule="evenodd" d="M116.78 49.028L116.009 49.2636L115.3 46.9462L115.966 46.7426C116.317 46.6355 116.489 46.698 116.543 46.8736C116.629 47.1545 116.532 47.3378 116.251 47.4235L116.006 47.4985L115.894 48.262L116.49 48.0799C116.77 47.9942 117.115 48.1192 117.155 48.3757C117.252 48.6917 117.095 48.9316 116.78 49.028ZM117.145 49.7225L115.287 50.2902L114.118 46.4629L115.906 45.9166C116.537 45.7238 117.116 45.7387 117.369 46.3142C117.567 46.7141 117.524 47.073 117.273 47.3801C117.828 47.4408 118.221 47.9734 118.217 48.5888C118.213 49.2042 117.601 49.5832 117.145 49.7225ZM119.634 45.6988C120.194 45.5275 120.79 45.8447 120.972 46.4416C121.144 47.0034 120.838 47.6342 120.277 47.8056C119.716 47.977 119.121 47.6598 118.939 47.0629C118.756 46.466 119.073 45.8702 119.634 45.6988ZM119.355 44.7859C120.406 44.4646 121.551 45.0746 121.883 46.1631C122.216 47.2516 121.608 48.3972 120.556 48.7186C119.505 49.0399 118.36 48.4299 118.027 47.3414C117.695 46.2529 118.303 45.1073 119.355 44.7859ZM113.732 46.5807L114.902 50.4081L113.955 50.6973L113.215 48.2745L113.324 50.8901L112.413 51.1686L111.087 48.963L111.817 51.3507L110.906 51.6292L109.736 47.8019L111.208 47.352L112.354 49.3439L112.19 47.052L113.732 46.5807ZM108.439 48.1982L109.386 47.909L110.555 51.7363L109.609 52.0255L108.439 48.1982ZM107.666 51.813L106.895 52.0487L106.186 49.7312L106.852 49.5277C107.203 49.4206 107.375 49.4831 107.429 49.6586C107.515 49.9396 107.418 50.1229 107.137 50.2085L106.892 50.2835L106.78 51.0471L107.376 50.865C107.656 50.7793 108.001 50.9043 108.041 51.1608C108.138 51.4768 107.946 51.7273 107.666 51.813ZM108.031 52.5076L106.173 53.0753L105.004 49.248L106.792 48.7017C107.423 48.5088 108.002 48.5237 108.255 49.0992C108.453 49.4992 108.41 49.858 108.159 50.1651C108.714 50.2258 109.107 50.7585 109.103 51.3739C109.064 51.9999 108.487 52.3683 108.031 52.5076Z" fill="#DA243C"/>
<mask id="mask1" mask-type="alpha" maskUnits="userSpaceOnUse" x="92" y="24" width="55" height="90">
<path d="M122.157 24.7338L92.4668 33.8066L116.845 113.583L146.536 104.511L122.157 24.7338Z" fill="#EA680F"/>
</mask>
<g mask="url(#mask1)">
<path d="M141.922 69.1008C141.231 68.4676 140.274 68.2224 139.361 68.1176C138.447 68.0129 137.496 68.0349 136.596 67.8492C135.696 67.6635 134.766 67.2564 134.229 66.4994C134.037 66.2506 133.917 65.9804 133.726 65.7316C133.535 65.4829 133.249 65.3013 132.947 65.3168C132.424 65.3614 132.189 65.9709 131.741 66.2613C131.328 66.541 130.819 66.5047 130.334 66.4225C129.849 66.3404 129.353 66.2231 128.897 66.3624C128.442 66.5016 128.013 66.9783 128.187 67.4241C128.337 67.9157 128.984 68.0252 129.485 67.9103C129.976 67.7604 130.424 67.47 130.936 67.3902C131.74 67.2599 132.539 67.7449 133.105 68.3401C133.67 68.9352 134.116 69.6435 134.706 70.1928C135.51 70.945 136.505 71.0635 137.572 71.0445C138.674 71.0147 139.79 71.4034 140.462 72.3496C141 73.1067 141.174 74.0517 141.313 75.0075C141.411 75.7068 141.521 76.4412 141.296 77.0857C141.147 77.4767 140.896 77.7838 140.645 78.0909C140.471 77.1458 140.308 76.2359 140.134 75.2908C139.982 74.4159 139.808 73.4709 139.281 72.749C138.754 72.027 137.733 71.5712 136.924 71.9336C136.02 72.3632 135.835 73.7636 136.597 74.3754C137.017 74.7462 137.664 74.8557 138 75.3288C138.449 75.921 138.113 76.8298 137.512 77.244C136.921 77.6933 136.142 77.7778 135.409 77.8867C131.974 78.4371 128.66 79.757 125.759 81.6799C124.073 82.8094 122.557 84.1175 120.86 85.2119C119.481 86.0939 117.99 86.8568 116.394 87.1525C115.706 87.2858 115.374 87.5792 114.765 87.8423C114.05 88.1375 113.271 88.2219 112.559 88.4011C111.731 88.5772 110.914 88.7885 110.286 89.3645C109.36 90.2233 109.21 91.6129 109.097 92.8758C109.029 93.7798 108.925 94.6945 109.088 95.6045C109.251 96.5145 109.67 97.3845 110.376 97.9368C111.504 98.7439 113.072 98.61 114.249 99.3254C115.003 99.786 115.506 100.554 116.201 101.071C116.553 101.347 117.001 101.556 117.44 101.614C117.844 101.682 118.055 101.119 117.678 100.888C117.403 100.742 117.153 100.55 116.938 100.347C116.62 100.06 116.958 99.5343 117.359 99.7188C119.549 100.739 122.263 100.716 124.402 99.563C125.319 99.0524 126.137 98.3418 127.054 97.8312C127.901 97.342 128.896 96.9612 129.855 97.0903C130.017 97.1177 130.146 97.0397 130.23 96.9374C130.7 96.2179 131.59 95.8691 132.453 95.6823C133.397 95.5091 134.359 95.5222 135.281 95.2788C137.988 94.6052 139.725 91.8861 140.556 89.2133C141.149 87.2661 141.398 85.1938 141.309 83.1477C141.27 82.3919 141.195 81.6468 141.075 80.8773C141.984 80.7148 142.788 80.0852 143.145 79.2467C143.488 78.4891 143.452 77.6172 143.391 76.7912C143.349 75.6521 143.284 74.5588 143.242 73.4197C143.203 72.6639 143.153 71.873 143.008 71.1493C142.842 70.3554 142.501 69.615 141.922 69.1008Z" fill="white"/>
<path d="M119.393 101.362C119.014 101.248 118.59 101.492 118.226 101.68C118.131 101.748 118.048 101.85 118.091 101.99C118.123 102.096 118.214 102.145 118.306 102.193C118.538 102.199 118.732 102.332 118.866 102.521C119.011 102.746 119.073 103.072 119.35 103.103C119.477 103.141 119.617 103.098 119.736 102.985C120.246 102.522 120.083 101.612 119.393 101.362Z" fill="white"/>
<path d="M124 97.4973C124.054 97.1735 123.842 96.8545 123.567 96.7081C123.292 96.5617 122.945 96.5528 122.632 96.5331C121.659 96.4849 120.721 96.426 119.748 96.3778C118.509 96.3343 117.167 96.2069 116.26 95.3707C115.116 94.2614 115.154 92.2534 114.01 91.1441C113.194 90.3567 111.879 90.0674 111.452 89.0462C111.42 88.9408 111.388 88.8355 111.356 88.7302C110.946 88.8938 110.582 89.0819 110.25 89.3753C110.012 89.6014 109.856 89.8412 109.699 90.0811C109.774 90.3269 109.838 90.5375 109.949 90.7726C110.419 91.9343 111.253 92.908 112.1 93.8007C112.948 94.6934 113.901 95.554 114.689 96.5033C115.106 96.9901 115.51 97.5578 116.119 97.7941C116.463 97.9191 116.857 97.9524 117.24 97.9507C118.132 97.9852 119.048 97.9739 119.94 98.0084C120.867 98.0323 121.784 98.021 122.676 98.0555C122.908 98.0615 123.174 98.0567 123.42 97.9817C123.746 97.9204 123.959 97.7401 124 97.4973Z" fill="#E5E5E5"/>
<path d="M114.434 90.4004C115.142 90.8366 115.972 91.0437 116.791 91.2157C117.61 91.3877 118.44 91.5949 119.172 91.9853C120.384 92.6899 121.153 93.9522 122.281 94.7592C123.205 95.3984 124.288 95.6817 125.347 96.0109C125.646 96.1114 125.934 96.1769 126.271 96.1507C126.573 96.1353 126.913 95.993 127.069 95.7532C127.25 95.4675 127.213 95.095 127.047 94.8004C126.88 94.5058 126.654 94.2677 126.393 94.0404C125.496 93.2393 124.6 92.4383 123.739 91.6265C122.253 90.2761 120.676 88.8769 118.776 88.3056C117.383 87.8866 115.909 87.9532 114.459 87.974C113.855 88.0049 112.974 88.0055 113.175 88.7887C113.344 89.4666 113.863 90.0373 114.434 90.4004Z" fill="#E5E5E5"/>
<path d="M119.977 102.642C119.901 102.397 119.662 102.239 119.433 102.117C119.158 101.971 118.87 101.905 118.571 101.805C118.444 101.767 118.248 101.75 118.142 101.782C118.118 101.828 118.104 101.909 118.115 101.944C118.147 102.05 118.239 102.098 118.331 102.147C118.562 102.153 118.756 102.286 118.891 102.475C119.036 102.699 119.097 103.026 119.375 103.056C119.502 103.095 119.642 103.052 119.761 102.939C119.866 102.907 119.939 102.769 119.977 102.642Z" fill="#E5E5E5"/>
<path d="M110.446 88.5093C109.466 88.3099 108.474 88.0754 107.629 87.5659C106.236 86.6476 105.605 84.9592 105.077 83.3547C104.613 81.9609 104.138 80.532 104.231 79.0828C104.347 77.7039 104.982 76.3964 105.787 75.2675C108.031 72.2014 111.75 70.4506 115.49 69.7686C119.229 69.0867 123.061 69.3361 126.848 69.5611C128.527 69.6623 130.262 69.823 131.654 70.7414C133.194 71.768 134.009 73.554 134.745 75.2103C135.26 76.3964 135.787 77.6176 135.801 78.9186C135.775 80.4623 135.021 81.8829 134.28 83.2225C133.14 85.2602 131.999 87.298 130.894 89.325C130.324 90.3438 129.754 91.3627 129.184 92.3815C128.916 92.8856 128.613 93.4004 128.346 93.9045C128.151 94.2711 127.864 95.0882 127.511 95.3113C126.899 95.6904 125.628 94.543 125.068 94.2151C124.187 93.7163 123.307 93.2176 122.402 92.7647C120.592 91.8589 118.768 91.034 116.872 90.3466C115.837 89.9716 114.768 89.6074 113.72 89.3134C113.168 89.1366 112.626 88.9949 112.05 88.864C111.645 88.7955 110.797 88.4021 110.446 88.5093Z" fill="#562B04"/>
<path d="M121.849 78.0374C121.003 78.0273 120.132 78.5623 119.742 79.2955C119.596 79.5705 119.448 79.9615 119.143 80.093C119.003 80.1358 118.852 80.1436 118.69 80.1162C117.706 80.0329 116.688 79.9602 115.715 79.912C114.615 79.8257 113.562 79.7638 112.5 79.5507C112.015 79.4686 111.508 79.3162 111.013 79.199C110.598 79.0954 110.183 78.9918 109.768 78.8883C109.191 78.7573 108.604 78.5913 108.065 78.3336C107.618 78.1247 107.209 77.789 106.689 77.7176C106.204 77.6355 105.737 77.7396 105.282 77.8789C105.036 77.9538 104.699 77.98 104.384 78.0764C104.332 78.2841 104.281 78.4918 104.275 78.7239C104.38 78.6918 104.45 78.6704 104.521 78.6489C104.742 78.6198 104.973 78.6257 105.205 78.6317C105.669 78.6436 106.108 78.7013 106.558 78.7942C107.366 78.9311 108.21 79.0573 109.007 79.159C109.538 79.2656 110.139 79.3507 110.548 79.6864C110.799 79.8786 110.955 80.1381 111.194 80.2952C111.547 80.5713 112.021 80.6184 112.461 80.6761C114.021 80.8904 115.546 81.1154 117.117 81.3648C117.637 81.4362 118.203 81.532 118.553 81.9242C118.959 82.3759 118.896 83.0478 119.078 83.6447C119.215 84.2173 119.562 84.7255 120.028 85.1207C119.814 83.9191 120.007 82.6699 120.373 81.4832C120.692 80.2721 121.276 79.1724 121.849 78.0374Z" fill="#75461F"/>
<path d="M125.417 68.3864C125.306 68.1513 125.056 67.959 124.8 67.9989C124.544 68.0388 124.387 68.2786 124.265 68.5077C123.893 69.044 123.41 69.3451 122.913 69.7271C122.382 70.1199 123.36 70.4354 123.721 70.3634C124.163 70.305 124.495 70.0116 124.827 69.7183C125.04 69.5379 125.218 69.3683 125.34 69.1392C125.427 68.9208 125.492 68.6321 125.417 68.3864Z" fill="#160D01"/>
<path d="M122.398 67.0441C122.517 66.9311 122.579 66.7585 122.607 66.5966C122.634 66.4347 122.58 66.2591 122.562 66.0729C122.5 65.7461 122.449 65.4545 122.318 65.1492C122.207 64.9141 121.823 64.5326 121.518 64.6642C121.213 64.7957 121.325 65.414 121.355 65.6354C121.427 65.9973 121.534 66.3484 121.687 66.7239C121.73 66.8644 121.808 66.9941 121.911 67.078C122.059 67.1864 122.28 67.1572 122.398 67.0441Z" fill="#160D01"/>
<path d="M119.32 65.3732C119.148 65.3107 119.024 65.1566 118.935 64.9918C118.846 64.8269 118.828 64.6406 118.774 64.4651C118.343 64.5585 118.07 64.7953 118.185 65.2976C118.236 65.5893 118.473 65.8624 118.723 66.0547C118.871 66.163 119.065 66.2957 119.262 66.3124C119.459 66.329 119.669 66.2648 119.801 66.0708C119.91 65.9226 119.905 65.6553 119.711 65.5226C119.608 65.4387 119.457 65.4464 119.32 65.3732Z" fill="#160D01"/>
<path d="M111.583 79.5634C111.647 80.2734 111.665 80.959 111.729 81.669C112.03 81.6535 112.332 81.6381 112.546 81.4577C112.689 81.2988 112.74 81.0911 112.802 80.9186C112.922 80.3062 113.056 79.1135 112.533 78.6588C111.817 78.0714 111.538 79.0397 111.583 79.5634Z" fill="#160D01"/>
<path d="M114.27 78.8192C114.016 79.2423 113.934 79.7279 113.817 80.2243C113.777 80.4671 113.736 80.7099 113.835 80.9098C113.991 81.1693 114.374 81.1675 114.687 81.1872C114.988 81.1717 115.36 81.1348 115.517 80.895C115.59 80.7575 115.617 80.5956 115.62 80.4796C115.656 79.9696 115.989 78.6775 115.594 78.2609C115.145 77.6688 114.488 78.4067 114.27 78.8192Z" fill="#160D01"/>
<path d="M111.891 72.2901C112.206 72.1936 112.521 72.0972 112.667 71.8223C112.789 71.5932 112.76 71.3718 112.72 71.1153C112.693 70.7778 112.756 70.1059 112.425 69.9C112.242 69.8024 111.546 69.7845 111.393 69.9083C111.193 70.0077 111.117 70.2612 111.182 70.4719C111.211 70.6933 111.31 70.8933 111.41 71.0932C111.509 71.2932 111.539 71.5146 111.487 71.7223C111.425 71.8949 111.317 72.0431 111.405 72.2079C111.494 72.3728 111.715 72.3436 111.891 72.2901Z" fill="#160D01"/>
<path d="M119.675 72.6751C119.138 72.8006 118.743 73.7659 118.546 74.2486C118.473 74.386 118.411 74.5586 118.419 74.7098C118.391 74.8717 118.445 75.0472 118.558 75.1663C118.717 75.3097 118.959 75.3508 119.159 75.2514C119.369 75.1871 119.512 75.0282 119.691 74.8586C119.928 74.6324 120.166 74.4063 120.312 74.1314C120.544 73.638 120.492 72.4638 119.675 72.6751Z" fill="#160D01"/>
<path d="M114.705 69.5865C114.923 69.6734 115.117 69.8062 115.349 69.8121C115.58 69.8181 115.85 69.6973 115.891 69.4544C115.967 69.2009 115.787 68.9873 115.652 68.798C115.472 68.5844 115.327 68.36 115.146 68.1463C115.068 68.0166 114.955 67.8976 114.804 67.9053C114.502 67.9208 114.022 68.6052 114.027 68.8724C114.064 69.2449 114.395 69.4509 114.705 69.5865Z" fill="#160D01"/>
<path d="M114.989 71.7653C115.568 71.7802 116.51 71.2238 116.858 70.7334C117.015 70.4936 117.023 70.1454 116.808 69.9425C116.515 69.6098 116.08 69.8193 115.751 69.9966C115.433 70.2091 115.104 70.3864 114.786 70.5989C114.621 70.6875 114.467 70.8113 114.394 70.9488C114.248 71.2237 114.401 71.5993 114.665 71.7106C114.792 71.7487 114.884 71.7975 114.989 71.7653Z" fill="#160D01"/>
<path d="M112.452 74.4991C112.799 74.5081 113.422 74.1641 113.628 73.8326C113.736 73.6844 113.742 73.4523 113.583 73.3089C113.402 73.0952 113.133 73.216 112.909 73.3612C112.72 73.4957 112.485 73.6058 112.296 73.7403C112.202 73.8076 112.108 73.8748 112.024 73.9772C111.927 74.1605 112.037 74.3956 112.209 74.4581C112.336 74.4961 112.406 74.4747 112.452 74.4991Z" fill="#160D01"/>
<path d="M113.897 71.8299C113.153 71.9037 113.671 72.9738 113.765 73.4058C113.84 73.6516 113.926 73.9325 114.12 74.0652C114.349 74.1873 114.699 74.0801 114.81 73.8159C114.872 73.6433 114.829 73.5029 114.811 73.3166C114.72 72.7685 114.711 71.7347 113.897 71.8299Z" fill="#160D01"/>
<path d="M112.34 72.3827C111.953 72.1172 111.75 72.832 111.604 73.1069C111.531 73.2444 111.468 73.417 111.522 73.5926C111.576 73.7681 111.794 73.855 111.958 73.7664C112.053 73.6991 112.102 73.6075 112.15 73.5158C112.355 73.1843 112.774 72.6725 112.34 72.3827Z" fill="#160D01"/>
<path d="M109.832 72.0739C110.047 72.2768 110.489 72.2185 110.635 71.9436C110.733 71.7603 110.714 71.574 110.66 71.3984C110.556 70.9313 110.245 69.913 109.606 69.9546C108.665 70.0117 109.423 71.2389 109.598 71.6847C109.676 71.8144 109.719 71.9549 109.832 72.0739Z" fill="#160D01"/>
<path d="M113.512 70.9493C114.393 70.9488 113.847 70.0406 113.659 69.6758C113.581 69.546 113.538 69.4056 113.436 69.3217C113.334 69.2377 113.196 69.1645 113.046 69.1723C112.87 69.2258 112.762 69.374 112.746 69.571C112.719 69.7329 112.772 69.9084 112.826 70.084C112.88 70.2596 112.944 70.4702 113.033 70.6351C113.167 70.8244 113.326 70.9678 113.512 70.9493Z" fill="#160D01"/>
<path d="M113.175 75.2374C113.235 74.6816 112.764 74.5185 112.421 74.7768C111.984 75.1023 111.579 75.5332 111.152 75.8938C111.147 76.1259 111.386 76.283 111.618 76.289C111.85 76.295 112.05 76.1956 112.238 76.0611C112.427 75.9266 112.651 75.7814 112.84 75.6469C112.98 75.604 113.158 75.4344 113.175 75.2374Z" fill="#160D01"/>
<path d="M110.993 75.75C110.549 75.425 110.158 75.775 110.251 76.207C110.342 76.7552 110.514 77.317 110.651 77.8895C110.834 77.9871 111.103 77.8663 111.236 77.6723C111.368 77.4783 111.374 77.2462 111.345 77.0248C111.35 76.7927 111.31 76.5362 111.281 76.3148C111.171 76.0797 111.141 75.8583 110.993 75.75Z" fill="#160D01"/>
<path d="M108.779 75.2753C108.602 74.9456 108.286 75.042 108.186 75.3414C108.061 75.6866 108.029 76.0805 107.915 76.4608C107.993 76.5906 108.179 76.5721 108.308 76.4942C108.438 76.4162 108.511 76.2787 108.584 76.1412C108.657 76.0038 108.684 75.8419 108.757 75.7044C108.784 75.5425 108.811 75.3807 108.779 75.2753Z" fill="#160D01"/>
<path d="M108.661 74.8896C109.106 74.7152 109.096 74.1808 108.659 74.007C108.476 73.9094 108.244 73.9034 108.023 73.9326C107.64 73.9344 107.223 73.9469 106.84 73.9486C106.608 73.9427 106.306 73.9582 106.174 74.1522C106.017 74.392 106.16 74.7324 106.434 74.8788C106.674 75.0359 107.011 75.0098 107.267 74.9699C107.674 74.9223 108.286 75.0425 108.661 74.8896Z" fill="#160D01"/>
<path d="M108.156 73.2384C108.28 73.3926 108.473 73.5253 108.659 73.5068C108.835 73.4533 108.956 73.2242 108.903 73.0486C108.884 72.8623 108.714 72.6838 108.591 72.5296C108.4 72.2809 108.088 71.7619 107.74 71.753C107.126 71.7488 107.284 72.3915 107.566 72.6891C107.771 72.8569 107.951 73.0706 108.156 73.2384Z" fill="#160D01"/>
<path d="M110.459 72.9956C110.621 73.023 110.817 73.0397 110.901 72.9373C111.02 72.8242 110.956 72.6135 110.842 72.4945C110.729 72.3755 110.568 72.3481 110.395 72.2856C110.142 72.2094 109.695 72.0005 109.482 72.1809C109.069 72.4606 109.478 72.7962 109.802 72.851C110.009 72.9028 110.252 72.9438 110.459 72.9956Z" fill="#160D01"/>
<path d="M110.947 74.8434C111.119 74.9059 111.305 74.8875 111.435 74.8095C111.599 74.7208 111.697 74.5375 111.643 74.362C111.611 74.2566 111.544 74.162 111.476 74.0674C111.296 73.8537 110.952 73.2294 110.688 73.1181C110.435 73.0419 110.046 73.2758 109.981 73.5645C109.905 73.818 110.096 74.0668 110.277 74.2804C110.468 74.5292 110.659 74.778 110.947 74.8434Z" fill="#160D01"/>
<path d="M110.13 75.0547C110.052 74.9249 109.879 74.8624 109.728 74.8702C109.335 74.8368 109.251 74.9392 109.105 75.2141C109.019 75.4326 108.859 75.7884 108.853 76.0205C108.88 76.358 109.243 76.6692 109.57 76.608C109.715 76.333 109.872 76.0932 109.983 75.8289C110.175 75.5784 110.31 75.2683 110.13 75.0547Z" fill="#160D01"/>
<path d="M113.835 75.7651C113.843 75.9163 113.862 76.1025 113.94 76.2323C114.029 76.3971 114.257 76.5191 114.468 76.4549C114.689 76.4257 114.821 76.2317 114.838 76.0347C114.865 75.8728 114.776 75.708 114.698 75.5783C114.542 75.3188 114.376 75.0242 114.255 74.754C113.669 74.9712 113.769 75.1712 113.835 75.7651Z" fill="#160D01"/>
<path d="M118.183 72.9389C117.446 73.1638 116.629 73.3751 115.915 73.6703C115.445 73.8905 115.267 74.5594 115.9 74.7498C115.981 74.7635 116.026 74.7879 116.107 74.8016C116.616 74.8379 117.11 74.5719 117.534 74.3273C117.793 74.1714 118.052 74.0155 118.208 73.7756C118.365 73.5358 118.398 73.1418 118.183 72.9389Z" fill="#160D01"/>
<path d="M125.147 71.271C125.004 71.4299 124.794 71.4942 124.583 71.5584C123.766 71.7697 122.949 71.981 122.157 72.1464C122.017 72.1892 121.876 72.2321 121.75 72.194C121.623 72.1559 121.51 72.0369 121.513 71.9208C121.54 71.759 121.705 71.6703 121.891 71.6518C122.602 71.4727 123.339 71.2478 124.05 71.0686C124.296 70.9937 124.835 70.7521 125.078 70.7931C125.253 70.7396 125.357 71.2067 125.147 71.271Z" fill="#160D01"/>
<path d="M121.224 74.7353C121.21 74.8162 121.242 74.9216 121.299 74.9811C121.355 75.0406 121.471 75.0436 121.541 75.0222C121.868 74.9609 122.073 74.6294 122.057 74.327C122.039 74.1408 121.939 73.9408 121.851 73.7759C121.595 73.3165 121.364 72.8112 121.074 72.3625C120.907 72.0679 120.777 72.1459 120.642 72.4559C120.518 72.8011 120.628 73.0362 120.805 73.3659C121.074 73.7444 121.225 74.236 121.224 74.7353Z" fill="#160D01"/>
<path d="M119.511 70.3838C119.279 70.3778 119.023 70.4177 118.961 70.5903C118.923 70.717 118.977 70.8926 119.079 70.9765C119.181 71.0604 119.354 71.1229 119.48 71.161C120.011 71.2675 120.531 71.339 121.076 71.3646C121.227 71.3568 121.378 71.3491 121.472 71.2818C121.566 71.2146 121.629 71.042 121.586 70.9016C121.551 70.413 121.271 70.4986 120.878 70.4653C120.438 70.4076 119.975 70.3957 119.511 70.3838Z" fill="#160D01"/>
<path d="M116.849 71.5807C116.754 71.6479 116.625 71.7259 116.541 71.8282C116.457 71.9306 116.43 72.0925 116.497 72.1871C116.575 72.3169 116.737 72.3442 116.877 72.3014C117.017 72.2585 117.112 72.1913 117.231 72.0782C117.622 71.7283 118.04 71.2165 118.192 70.7094C117.575 70.322 117.261 71.301 116.849 71.5807Z" fill="#160D01"/>
<path d="M118.307 69.3304C118.212 69.3976 118.129 69.5 118.172 69.6405C118.204 69.7458 118.341 69.819 118.457 69.822C118.573 69.825 118.713 69.7821 118.818 69.75C119.064 69.675 119.306 69.7161 119.559 69.7922C119.732 69.8547 119.869 69.9279 120.044 69.8744C120.15 69.8422 120.268 69.7292 120.271 69.6131C120.356 69.0114 118.601 69.1638 118.307 69.3304Z" fill="#160D01"/>
<path d="M121.126 69.2752C121.204 69.4049 121.247 69.5454 121.349 69.6293C121.452 69.7132 121.589 69.7864 121.74 69.7787C121.891 69.7709 122.009 69.6578 122.002 69.5067C122.015 69.4257 121.959 69.3662 121.937 69.296C121.827 69.0609 121.717 68.8258 121.596 68.5557C121.564 68.4503 121.497 68.3557 121.416 68.342C121.233 68.2444 120.984 68.4354 120.922 68.608C120.846 68.8615 121.016 69.0401 121.126 69.2752Z" fill="#160D01"/>
<path d="M117.389 70.3404C117.47 70.354 117.586 70.357 117.656 70.3356C117.726 70.3142 117.82 70.2469 117.869 70.1553C117.918 70.0636 117.875 69.9232 117.808 69.8286C117.754 69.653 117.676 69.5232 117.622 69.3477C117.523 69.1477 117.039 68.5663 116.968 69.087C116.965 69.2031 117.389 70.3404 117.389 70.3404Z" fill="#160D01"/>
<path d="M118.562 72.1712C118.735 72.2337 118.966 72.2397 119.163 72.2564C119.279 72.2593 119.36 72.273 119.476 72.276C119.627 72.2683 119.778 72.2605 119.883 72.2284C120.012 72.1504 120.085 72.013 120.042 71.8725C120.01 71.7672 119.919 71.7184 119.803 71.7154C119.722 71.7017 119.606 71.6987 119.525 71.685C119.328 71.6684 119.132 71.6517 118.948 71.5541C118.776 71.4916 118.561 71.2887 118.385 71.3422C117.908 71.4113 118.298 72.06 118.562 72.1712Z" fill="#160D01"/>
<path d="M116.346 75.9579C116.472 75.996 116.599 76.0341 116.704 76.002C116.914 75.9377 117.06 75.6627 116.961 75.4628C116.603 75.4187 116.212 75.2693 115.916 75.0527C115.665 74.8605 115.418 74.5522 115.11 74.7997C114.46 75.3056 116.047 75.8573 116.346 75.9579Z" fill="#160D01"/>
<path d="M128.565 96.256C128.25 96.3524 127.867 96.3542 127.385 96.156C126.558 95.8328 126.041 95.146 125.603 94.589L122.762 90.8116C121.662 89.3434 120.505 87.8157 119.783 86.0785C118.964 84.0253 118.886 82.0143 119.611 80.3723C120.189 79.0053 121.258 77.9877 122.197 77.048L127.687 71.6847C128.578 70.8367 129.598 69.9107 130.905 70.0488C132.096 70.1839 132.955 71.1117 133.651 72.0122L139.734 79.7514C140.251 80.4382 140.778 81.1601 140.709 82.0641C140.654 82.8872 140.082 83.5227 139.653 83.9994L131.986 92.5234C131.759 92.7847 131.521 93.0108 131.284 93.237C130.69 93.8023 130.107 94.4028 129.801 95.0336C129.62 95.3193 129.266 96.0418 128.565 96.256ZM130.173 71.0403C129.507 71.2438 128.914 71.8091 128.344 72.3287L122.854 77.6919C121.939 78.5858 120.965 79.5362 120.483 80.7199C119.648 82.6261 120.27 84.6627 120.662 85.6946C121.317 87.3372 122.453 88.7947 123.507 90.2385L126.348 94.0159C126.797 94.6081 127.168 95.0705 127.696 95.2931C128.305 95.5294 128.602 95.2467 128.907 94.6158C129.286 93.8475 129.939 93.2256 130.546 92.5793C130.784 92.3532 131.011 92.0919 131.213 91.8765L138.88 83.3525C139.309 82.8758 139.644 82.4664 139.69 81.9915C139.751 81.4356 139.358 80.903 138.919 80.3459L132.837 72.6067C132.218 71.836 131.564 71.076 130.777 71.0093C130.57 70.9575 130.384 70.976 130.173 71.0403Z" fill="#3D2604"/>
<path d="M139.279 83.6531C139.709 83.1764 140.162 82.6539 140.236 82.0171C140.277 81.275 139.807 80.6126 139.368 80.0555C137.356 77.4839 135.298 74.8879 133.286 72.3163C132.656 71.5105 131.889 70.6315 130.86 70.5237C129.749 70.4023 128.824 71.2611 128.017 72.0067C126.187 73.7945 124.357 75.5822 122.527 77.37C121.552 78.3204 120.554 79.3166 120.048 80.5462C119.334 82.2232 119.552 84.1914 120.229 85.9042C120.905 87.617 122.041 89.0745 123.141 90.5427C124.096 91.7865 125.051 93.0304 125.982 94.32C126.42 94.8771 126.88 95.5044 127.57 95.7543C128.523 96.1156 129.012 95.5824 129.366 94.8599C129.842 93.9083 130.883 93.0525 131.634 92.2473C133.267 90.4429 134.9 88.6385 136.534 86.834C137.43 85.7539 138.337 84.7089 139.279 83.6531Z" fill="#FFE7C0"/>
<path d="M130.858 70.5233C129.748 70.4018 128.822 71.2606 128.015 72.0063C126.185 73.794 124.355 75.5818 122.525 77.3695C121.551 78.3199 120.552 79.3162 120.046 80.5457C119.405 82.0853 119.513 83.8183 120.042 85.4228C120.912 85.3871 121.905 85.1223 122.495 84.673C123.348 83.9517 124.3 83.4304 125.21 82.7686C127.336 81.1975 129.023 79.0693 130.035 76.6103C130.416 75.7259 130.695 74.7576 130.915 73.8459C131.056 73.3037 131.186 72.7264 131.165 72.1569C131.145 71.5874 131.019 71.0499 130.858 70.5233Z" fill="white"/>
<path d="M132.811 85.8211C134.009 85.2248 134.989 84.0423 134.929 82.7169C134.898 81.613 134.201 80.7125 133.739 79.702C133.032 78.2671 132.795 76.612 133.042 75.0391C133.1 74.5993 133.227 74.1381 133.158 73.6602C133.099 73.2174 132.833 72.7228 132.383 72.63C131.876 72.4776 131.369 72.8246 130.943 73.1852C129.685 74.3374 128.858 75.8954 128.573 77.5951C128.494 77.9647 128.437 78.4045 128.083 78.6277C127.859 78.7729 127.536 78.7181 127.28 78.758C126.304 78.8258 125.532 79.5608 125.013 80.3719C124.495 81.1831 124.078 82.0782 123.366 82.7566C122.985 83.1417 122.527 83.397 122.135 83.7469C121.744 84.0968 121.385 84.5521 121.314 85.0728C121.205 85.7203 121.549 86.3446 122.096 86.7535C122.597 87.138 123.265 87.3177 123.901 87.3921C125.092 87.5272 126.292 87.3142 127.459 86.9958C127.95 86.8458 128.5 86.6393 129.034 86.6298C129.613 86.6447 130.241 86.568 130.824 86.4668C131.465 86.3091 132.177 86.13 132.811 85.8211Z" fill="#DD1D1D"/>
<path opacity="0.1" d="M140.856 33.2713L84.6113 29.8057L84.394 33.3967L140.639 36.8623L140.856 33.2713Z" fill="white"/>
<path opacity="0.1" d="M139.856 37.9675L83.6113 34.502L83.5116 36.1509L139.756 39.6165L139.856 37.9675Z" fill="white"/>
<path opacity="0.1" d="M165.231 101.943L93.6895 97.5352L93.5609 99.6604L165.102 104.069L165.231 101.943Z" fill="white"/>
<path opacity="0.1" d="M168.174 93.6405L96.6328 89.2324L96.5685 90.2951L168.11 94.7032L168.174 93.6405Z" fill="white"/>
<path opacity="0.1" d="M166.33 95.785L94.7891 91.377L94.5119 95.9573L166.053 100.365L166.33 95.785Z" fill="white"/>
</g>
</g>
<g clip-path="url(#clip1)">
<path d="M52.9578 31.1881C55.1848 30.6996 57.5191 30.5621 59.7647 30.2599C63.3609 29.7368 66.8741 28.8168 70.2129 27.451C70.763 27.2445 71.3375 26.9922 71.8554 26.6803L71.8447 26.6452C72.4263 25.1622 72.7118 23.4625 72.9136 21.8651C72.9515 21.7384 72.9436 21.5872 72.9708 21.4253C73.1232 20.419 73.1654 19.1775 72.8765 17.7302C72.7935 17.3332 72.2491 17.3076 72.0896 17.6635L72.0652 17.7093C71.9543 17.9736 71.6739 18.0592 71.4343 17.9021L69.9964 16.9594L69.331 18.5448C69.2201 18.8091 68.9397 18.8948 68.7001 18.7376L67.2622 17.7949L66.5968 19.3804C66.4859 19.6446 66.2055 19.7303 65.9658 19.5732L64.528 18.6304L63.8626 20.2159C63.7517 20.4801 63.4713 20.5658 63.2316 20.4087L61.7937 19.466L61.1284 21.0514C61.0175 21.3156 60.7371 21.4013 60.4974 21.2442L59.1053 20.3259C59.1404 20.3152 59.1053 20.3259 59.0703 20.3366C59.0352 20.3473 59.0002 20.358 58.9758 20.4038L58.3348 21.9434C58.2239 22.2077 57.9435 22.2934 57.7038 22.1363L56.301 21.1828L55.6357 22.7682C55.5248 23.0325 55.2443 23.1182 55.0047 22.9611L53.5668 22.0183L52.9015 23.6038C52.7906 23.868 52.5101 23.9537 52.2705 23.7966L50.8326 22.8539L50.1673 24.4393C50.0564 24.7035 49.7759 24.7892 49.5363 24.6321L48.0984 23.6894L47.433 25.2748C47.3222 25.539 47.0417 25.6247 46.8021 25.4676L45.3642 24.5249L44.6988 26.1103C44.5879 26.3746 44.3075 26.4603 44.0679 26.3031L42.63 25.3604L41.9646 26.9458C41.8537 27.2101 41.5733 27.2958 41.3337 27.1387L39.8958 26.1959L39.2304 27.7814C39.1195 28.0456 38.8391 28.1313 38.5995 27.9742L38.4056 27.8415C38.0636 27.6004 37.6373 27.9611 37.7904 28.3366C38.4241 29.9089 39.2311 31.0445 40.0008 31.8074C40.0115 31.8426 40.0573 31.867 40.068 31.9021C40.8671 32.8864 42.0117 33.4965 43.0025 34.2303C43.3551 34.5064 43.6728 34.7933 43.931 35.1367C44.0362 35.1046 44.1306 35.0373 44.225 34.9701C45.5199 34.1905 46.7232 33.3621 48.1067 32.7473C49.7006 32.0683 51.3024 31.5404 52.9578 31.1881Z" fill="#B75009"/>
<path d="M85.8124 106.724C83.5854 107.213 81.2511 107.35 79.0055 107.652C75.4093 108.175 71.8961 109.095 68.5573 110.461C68.0072 110.668 67.4328 110.92 66.9148 111.232L66.9255 111.267C66.3439 112.75 66.0584 114.45 65.8566 116.047C65.8187 116.174 65.8266 116.325 65.7994 116.487C65.647 117.493 65.6048 118.735 65.8937 120.182C65.9767 120.579 66.5211 120.604 66.6806 120.249L66.705 120.203C66.8159 119.939 67.0963 119.853 67.3359 120.01L68.7738 120.953L69.4392 119.367C69.5501 119.103 69.8305 119.017 70.0702 119.174L71.508 120.117L72.1734 118.532C72.2843 118.268 72.5647 118.182 72.8044 118.339L74.2422 119.282L74.9076 117.696C75.0185 117.432 75.2989 117.346 75.5386 117.503L76.9765 118.446L77.6418 116.861C77.7527 116.596 78.0331 116.511 78.2728 116.668L79.6649 117.586C79.7107 117.611 79.7457 117.6 79.7808 117.589C79.8158 117.578 79.8509 117.568 79.8752 117.522L80.5162 115.982C80.6271 115.718 80.9075 115.632 81.1472 115.79L82.5851 116.732L83.2504 115.147C83.3613 114.883 83.6417 114.797 83.8814 114.954L85.3193 115.897L85.9846 114.311C86.0955 114.047 86.376 113.961 86.6156 114.118L88.0535 115.061L88.7188 113.476C88.8297 113.212 89.1102 113.126 89.3498 113.283L90.7877 114.226L91.453 112.64C91.5639 112.376 91.8444 112.29 92.084 112.447L93.5219 113.39L94.1872 111.805C94.2981 111.541 94.5786 111.455 94.8182 111.612L96.2561 112.555L96.9214 110.969C97.0323 110.705 97.3128 110.619 97.5524 110.776L98.9903 111.719L99.6557 110.134C99.7665 109.869 100.047 109.784 100.287 109.941L100.48 110.074C100.822 110.315 101.249 109.954 101.096 109.578C100.462 108.006 99.655 106.871 98.8853 106.108C98.8746 106.073 98.8288 106.048 98.8181 106.013C98.019 105.029 96.8744 104.419 95.8836 103.685C95.5309 103.409 95.2133 103.122 94.9551 102.778C94.8499 102.811 94.7555 102.878 94.661 102.945C93.3662 103.725 92.1629 104.553 90.7793 105.168C89.0588 105.809 87.4678 106.372 85.8124 106.724Z" fill="#B75009"/>
<path d="M72.4993 24.5834L42.8086 33.6562L67.1868 113.433L96.8775 104.36L72.4993 24.5834Z" fill="#EA680F"/>
<path fill-rule="evenodd" clip-rule="evenodd" d="M63.7217 52.2395C59.8557 52.8834 56.9677 53.8427 55.6743 55.5048C54.6392 53.748 53.9031 52.0917 53.8137 50.545C53.6371 47.8347 55.0321 46.7558 56.5179 46.2249C58.3436 45.5519 61.4813 45.2841 63.9615 44.8717C67.175 44.3505 69.9765 43.6096 71.5017 41.9533C72.5697 43.3162 73.1577 44.8642 73.3601 46.5299C73.6377 48.4415 72.8407 49.7216 71.1524 50.4679C68.9597 51.4451 66.272 51.8057 63.7217 52.2395Z" fill="white"/>
<path fill-rule="evenodd" clip-rule="evenodd" d="M60.3835 46.0806C60.664 45.9949 60.8686 46.1627 60.9437 46.4085C61.0188 46.6543 60.9429 46.9078 60.7083 47.0179C60.4279 47.1036 60.2233 46.9358 60.1482 46.69C60.038 46.4549 60.068 46.177 60.3835 46.0806ZM60.3299 45.905C59.9443 46.0229 59.7282 46.3192 59.857 46.7406C59.9858 47.1619 60.3062 47.3328 60.7269 47.2042C61.1475 47.0757 61.3285 46.79 61.1998 46.3687C61.0603 45.9122 60.7155 45.7872 60.3299 45.905ZM59.0293 46.9167L58.9113 46.5305C59.0865 46.4769 59.2861 46.3775 59.3505 46.5882C59.4149 46.7989 59.1695 46.8739 59.0293 46.9167ZM58.9527 47.6696L59.1981 47.5946L59.0479 47.103C59.2582 47.0387 59.5036 46.9638 59.5902 46.7453C59.6767 46.5269 59.4993 46.1972 59.1488 46.3043L58.5879 46.4757L58.9527 47.6696ZM57.3152 46.8262L57.5606 46.7513C57.5928 46.8566 57.7859 47.4886 57.8181 47.594C57.939 47.8642 58.4191 47.6791 58.3683 47.3875C58.3146 47.2119 58.1751 46.7554 58.1215 46.5799L58.3669 46.5049C58.4098 46.6453 58.6136 47.3125 58.6566 47.4529C58.6938 47.8255 58.203 47.9755 57.9254 47.9451C57.6829 47.904 57.6293 47.7285 57.5756 47.5529L57.3152 46.8262ZM56.6456 47.6451L56.5383 47.294C56.7136 47.2404 56.9482 47.1303 57.0126 47.341C57.077 47.5517 56.7858 47.6023 56.6456 47.6451ZM56.5691 48.398L56.8144 48.323L56.6535 47.7963L56.7937 47.7534L57.2351 48.1944L57.5506 48.098L57.0284 47.6434C57.1471 47.5303 57.2659 47.4172 57.2015 47.2065C57.1264 46.9607 56.8946 46.9548 56.7193 47.0083L56.1585 47.1797L56.5691 48.398ZM55.6992 47.9343L55.7528 48.1099L55.9631 48.0456L56.0383 48.2914C55.8494 48.4259 55.5339 48.5223 55.3536 48.3087C55.1734 48.095 55.1498 47.6415 55.5354 47.5237C55.6756 47.4809 55.7915 47.4838 55.9045 47.6029L55.9911 47.3845C55.843 47.2761 55.692 47.2839 55.4817 47.3481C54.6755 47.5945 54.933 48.4372 55.3236 48.5866C55.6333 48.7223 56.0325 48.5235 56.2915 48.3676L56.1091 47.7707L55.6992 47.9343ZM62.209 52.9324C59.9362 53.3966 57.7951 54.166 56.7957 55.6616C56.3536 55.7199 55.9114 55.7782 55.4693 55.8365C54.4285 54.3118 53.7868 52.5883 53.4743 50.6874C53.2776 48.7895 53.7412 46.9202 55.9417 46.0942C58.2124 45.2468 61.574 44.8338 64.8011 44.2316C67.1196 43.7918 69.0183 42.9813 70.0391 41.556C70.5728 41.5465 71.0714 41.5477 71.6051 41.5381C72.7268 43.0766 73.2876 44.7864 73.5573 46.5468C73.9013 49.0523 72.6164 50.3664 70.5483 50.9984C67.6846 51.9118 64.587 52.4361 62.209 52.9324ZM63.7221 52.2397C59.8561 52.8836 56.9681 53.8429 55.6747 55.505C54.6395 53.7482 53.9035 52.0919 53.8141 50.5452C53.6374 47.8349 55.0325 46.756 56.5183 46.2251C58.344 45.5521 61.4817 45.2843 63.9619 44.8719C67.1754 44.3507 69.9769 43.6098 71.5021 41.9535C72.5701 43.3164 73.1581 44.8644 73.3605 46.5301C73.6381 48.4417 72.8411 49.7218 71.1528 50.4681C68.9601 51.4453 66.2724 51.8059 63.7221 52.2397Z" fill="#3D438B"/>
<path fill-rule="evenodd" clip-rule="evenodd" d="M67.0708 49.028L66.2996 49.2636L65.5914 46.9462L66.2575 46.7426C66.608 46.6355 66.7804 46.698 66.8341 46.8736C66.9199 47.1545 66.8226 47.3378 66.5422 47.4235L66.2968 47.4985L66.1852 48.262L66.7811 48.0799C67.0615 47.9942 67.4063 48.1192 67.4464 48.3757C67.5429 48.6917 67.3863 48.9316 67.0708 49.028ZM67.4363 49.7225L65.5785 50.2902L64.4089 46.4629L66.1967 45.9166C66.8276 45.7238 67.4071 45.7387 67.6596 46.3142C67.8585 46.7141 67.8148 47.073 67.5637 47.3801C68.1189 47.4408 68.5116 47.9734 68.508 48.5888C68.5044 49.2042 67.892 49.5832 67.4363 49.7225ZM69.9245 45.6988C70.4854 45.5275 71.0806 45.8447 71.263 46.4416C71.4347 47.0034 71.1292 47.6342 70.5683 47.8056C70.0075 47.977 69.4123 47.6598 69.2299 47.0629C69.0474 46.466 69.3637 45.8702 69.9245 45.6988ZM69.6455 44.7859C70.6972 44.4646 71.8418 45.0746 72.1744 46.1631C72.507 47.2516 71.8989 48.3972 70.8473 48.7186C69.7957 49.0399 68.6511 48.4299 68.3185 47.3414C67.9858 46.2529 68.5939 45.1073 69.6455 44.7859ZM64.0233 46.5807L65.1929 50.4081L64.2464 50.6973L63.5061 48.2745L63.6155 50.8901L62.7041 51.1686L61.3785 48.963L62.1081 51.3507L61.1967 51.6292L60.0272 47.8019L61.4994 47.352L62.6447 49.3439L62.481 47.052L64.0233 46.5807ZM58.7302 48.1982L59.6766 47.909L60.8462 51.7363L59.8997 52.0255L58.7302 48.1982ZM57.9568 51.813L57.1856 52.0487L56.4774 49.7312L57.1434 49.5277C57.494 49.4206 57.6664 49.4831 57.72 49.6586C57.8059 49.9396 57.7086 50.1229 57.4281 50.2085L57.1828 50.2835L57.0711 51.0471L57.6671 50.865C57.9475 50.7793 58.2923 50.9043 58.3324 51.1608C58.4289 51.4768 58.2372 51.7273 57.9568 51.813ZM58.3223 52.5076L56.4645 53.0753L55.2949 49.248L57.0826 48.7017C57.7136 48.5088 58.2931 48.5237 58.5456 49.0992C58.7445 49.4992 58.7008 49.858 58.4497 50.1651C59.0048 50.2258 59.3976 50.7585 59.394 51.3739C59.3553 51.9999 58.778 52.3683 58.3223 52.5076Z" fill="#DA243C"/>
<mask id="mask2" mask-type="alpha" maskUnits="userSpaceOnUse" x="42" y="24" width="55" height="90">
<path d="M72.4485 24.7338L42.7578 33.8066L67.136 113.583L96.8267 104.511L72.4485 24.7338Z" fill="#EA680F"/>
</mask>
<g mask="url(#mask2)">
<path d="M92.2134 69.1008C91.5216 68.4676 90.5652 68.2224 89.6516 68.1176C88.7381 68.0129 87.7866 68.0349 86.8867 67.8492C85.9867 67.6635 85.0575 67.2564 84.5195 66.4994C84.3285 66.2506 84.2076 65.9804 84.0166 65.7316C83.8256 65.4829 83.5402 65.3013 83.2383 65.3168C82.7154 65.3614 82.48 65.9709 82.0321 66.2613C81.6194 66.541 81.11 66.5047 80.625 66.4225C80.14 66.3404 79.6442 66.2231 79.1885 66.3624C78.7328 66.5016 78.3036 66.9783 78.4781 67.4241C78.6283 67.9157 79.275 68.0252 79.7765 67.9103C80.2673 67.7604 80.7151 67.47 81.2273 67.3902C82.0307 67.2599 82.8305 67.7449 83.3956 68.3401C83.9607 68.9352 84.4071 69.6435 84.9966 70.1928C85.8014 70.945 86.7957 71.0635 87.8631 71.0445C88.9655 71.0147 90.0808 71.4034 90.7532 72.3496C91.2911 73.1067 91.465 74.0517 91.6037 75.0075C91.7024 75.7068 91.8119 76.4412 91.5872 77.0857C91.4384 77.4767 91.1873 77.7838 90.9362 78.0909C90.7624 77.1458 90.5993 76.2359 90.4255 75.2908C90.2731 74.4159 90.0993 73.4709 89.5721 72.749C89.0449 72.027 88.024 71.5712 87.2149 71.9336C86.3114 72.3632 86.1261 73.7636 86.8879 74.3754C87.3079 74.7462 87.9546 74.8557 88.2908 75.3288C88.74 75.921 88.4045 76.8298 87.8028 77.244C87.2119 77.6933 86.4329 77.7778 85.6996 77.8867C82.2651 78.4371 78.9507 79.757 76.0505 81.6799C74.3643 82.8094 72.8476 84.1175 71.1507 85.2119C69.7722 86.0939 68.2806 86.8568 66.6846 87.1525C65.9971 87.2858 65.6651 87.5792 65.0556 87.8423C64.341 88.1375 63.5619 88.2219 62.8501 88.4011C62.0224 88.5772 61.2054 88.7885 60.5766 89.3645C59.6509 90.2233 59.5006 91.6129 59.3883 92.8758C59.3196 93.7798 59.2158 94.6945 59.3789 95.6045C59.542 96.5145 59.9612 97.3845 60.6665 97.9368C61.7947 98.7439 63.3635 98.61 64.5403 99.3254C65.2943 99.786 65.7972 100.554 66.4918 101.071C66.8445 101.347 67.2916 101.556 67.7308 101.614C68.135 101.682 68.346 101.119 67.969 100.888C67.6943 100.742 67.444 100.55 67.2286 100.347C66.911 100.06 67.2487 99.5343 67.65 99.7188C69.8398 100.739 72.5539 100.716 74.6929 99.563C75.6101 99.0524 76.4278 98.3418 77.3449 97.8312C78.1919 97.342 79.187 96.9612 80.1463 97.0903C80.308 97.1177 80.4375 97.0397 80.5212 96.9374C80.9912 96.2179 81.8812 95.8691 82.7439 95.6823C83.6875 95.5091 84.6497 95.5222 85.5718 95.2788C88.2789 94.6052 90.0159 91.8861 90.8472 89.2133C91.4403 87.2661 91.6886 85.1938 91.5999 83.1477C91.5606 82.3919 91.4862 81.6468 91.3661 80.8773C92.2746 80.7148 93.0787 80.0852 93.4357 79.2467C93.7791 78.4891 93.7426 77.6172 93.6819 76.7912C93.6404 75.6521 93.5746 74.5588 93.5331 73.4197C93.4938 72.6639 93.4438 71.873 93.2993 71.1493C93.1333 70.3554 92.7921 69.615 92.2134 69.1008Z" fill="white"/>
<path d="M69.6844 101.362C69.3046 101.248 68.8811 101.492 68.5169 101.68C68.4225 101.748 68.3388 101.85 68.3817 101.99C68.4139 102.096 68.5055 102.145 68.597 102.193C68.8288 102.199 69.0227 102.332 69.1572 102.521C69.3024 102.746 69.3639 103.072 69.6415 103.103C69.7681 103.141 69.9083 103.098 70.0271 102.985C70.5371 102.522 70.3741 101.612 69.6844 101.362Z" fill="white"/>
<path d="M74.291 97.4973C74.3453 97.1735 74.1329 96.8545 73.8582 96.7081C73.5835 96.5617 73.2358 96.5528 72.9232 96.5331C71.9503 96.4849 71.0124 96.426 70.0395 96.3778C68.7997 96.3343 67.4577 96.2069 66.5506 95.3707C65.4067 94.2614 65.4447 92.2534 64.3008 91.1441C63.4853 90.3567 62.1704 90.0674 61.7434 89.0462C61.7112 88.9408 61.679 88.8355 61.6468 88.7302C61.2369 88.8938 60.8728 89.0819 60.5408 89.3753C60.3033 89.6014 60.1466 89.8412 59.99 90.0811C60.0651 90.3269 60.1294 90.5375 60.2396 90.7726C60.7096 91.9343 61.5437 92.908 62.3914 93.8007C63.2391 94.6934 64.192 95.554 64.9803 96.5033C65.3974 96.9901 65.8008 97.5578 66.4096 97.7941C66.7544 97.9191 67.1479 97.9524 67.5306 97.9507C68.4227 97.9852 69.3391 97.9739 70.2312 98.0084C71.1583 98.0323 72.0747 98.021 72.9668 98.0555C73.1986 98.0615 73.4654 98.0567 73.7108 97.9817C74.037 97.9204 74.2502 97.7401 74.291 97.4973Z" fill="#E5E5E5"/>
<path d="M64.7248 90.4004C65.433 90.8366 66.2628 91.0437 67.082 91.2157C67.9011 91.3877 68.7309 91.5949 69.4634 91.9853C70.6753 92.6899 71.4443 93.9522 72.5724 94.7592C73.496 95.3984 74.579 95.6817 75.6378 96.0109C75.9368 96.1114 76.2251 96.1769 76.5621 96.1507C76.8639 96.1353 77.2038 95.993 77.3604 95.7532C77.5414 95.4675 77.5042 95.095 77.3376 94.8004C77.1709 94.5058 76.9448 94.2677 76.6837 94.0404C75.7874 93.2393 74.891 92.4383 74.0297 91.6265C72.5439 90.2761 70.9665 88.8769 69.0672 88.3056C67.6744 87.8866 66.2 87.9532 64.7499 87.974C64.1461 88.0049 63.2648 88.0055 63.4658 88.7887C63.6346 89.4666 64.1539 90.0373 64.7248 90.4004Z" fill="#E5E5E5"/>
<path d="M70.2676 102.642C70.1925 102.397 69.9528 102.239 69.7239 102.117C69.4492 101.971 69.1609 101.905 68.8619 101.805C68.7353 101.767 68.5386 101.75 68.4334 101.782C68.4091 101.828 68.3955 101.909 68.4062 101.944C68.4384 102.05 68.53 102.098 68.6215 102.147C68.8533 102.153 69.0472 102.286 69.1817 102.475C69.3269 102.699 69.3884 103.026 69.666 103.056C69.7926 103.095 69.9328 103.052 70.0516 102.939C70.1567 102.907 70.2297 102.769 70.2676 102.642Z" fill="#E5E5E5"/>
<path d="M60.7374 88.5093C59.7566 88.3099 58.7651 88.0754 57.9195 87.5659C56.5274 86.6476 55.8965 84.9592 55.3679 83.3547C54.9036 81.9609 54.4287 80.532 54.5224 79.0828C54.6376 77.7039 55.2729 76.3964 56.0777 75.2675C58.322 72.2014 62.0413 70.4506 65.7806 69.7686C69.5199 69.0867 73.3522 69.3361 77.1387 69.5611C78.8177 69.6623 80.5532 69.823 81.9453 70.7414C83.4855 71.768 84.2996 73.554 85.0357 75.2103C85.5514 76.3964 86.0779 77.6176 86.0922 78.9186C86.0657 80.4623 85.3116 81.8829 84.5712 83.2225C83.4308 85.2602 82.2904 87.298 81.1851 89.325C80.6149 90.3438 80.0447 91.3627 79.4746 92.3815C79.207 92.8856 78.9044 93.4004 78.6368 93.9045C78.4422 94.2711 78.1553 95.0882 77.8019 95.3113C77.1896 95.6904 75.9191 94.543 75.3589 94.2151C74.4783 93.7163 73.5977 93.2176 72.6927 92.7647C70.8829 91.8589 69.0594 91.034 67.1629 90.3466C66.1285 89.9716 65.059 89.6074 64.011 89.3134C63.4587 89.1366 62.9172 88.9949 62.3406 88.864C61.9364 88.7955 61.0879 88.4021 60.7374 88.5093Z" fill="#562B04"/>
<path d="M72.1403 78.0374C71.294 78.0273 70.4226 78.5623 70.0334 79.2955C69.8875 79.5705 69.7387 79.9615 69.4339 80.093C69.2937 80.1358 69.1428 80.1436 68.9811 80.1162C67.9975 80.0329 66.9788 79.9602 66.0058 79.912C64.9063 79.8257 63.8525 79.7638 62.7909 79.5507C62.3059 79.4686 61.7994 79.3162 61.3037 79.199C60.8887 79.0954 60.4738 78.9918 60.0589 78.8883C59.4823 78.7573 58.895 78.5913 58.3563 78.3336C57.9092 78.1247 57.5 77.789 56.9799 77.7176C56.4949 77.6355 56.0285 77.7396 55.5728 77.8789C55.3274 77.9538 54.9904 77.98 54.675 78.0764C54.6235 78.2841 54.5719 78.4918 54.5662 78.7239C54.6714 78.6918 54.7415 78.6704 54.8116 78.6489C55.0326 78.6198 55.2644 78.6257 55.4962 78.6317C55.9598 78.6436 56.399 78.7013 56.849 78.7942C57.6574 78.9311 58.5008 79.0573 59.2984 79.159C59.8293 79.2656 60.4302 79.3507 60.8394 79.6864C61.0897 79.8786 61.2457 80.1381 61.4853 80.2952C61.838 80.5713 62.3123 80.6184 62.7516 80.6761C64.3118 80.8904 65.837 81.1154 67.4079 81.3648C67.928 81.4362 68.4939 81.532 68.8437 81.9242C69.25 82.3759 69.1871 83.0478 69.3695 83.6447C69.5061 84.2173 69.853 84.7255 70.3187 85.1207C70.1049 83.9191 70.2981 82.6699 70.6636 81.4832C70.9834 80.2721 71.5672 79.1724 72.1403 78.0374Z" fill="#75461F"/>
<path d="M75.7076 68.3864C75.5974 68.1513 75.347 67.959 75.0909 67.9989C74.8348 68.0388 74.6781 68.2786 74.5565 68.5077C74.1838 69.044 73.7009 69.3451 73.2044 69.7271C72.6729 70.1199 73.6508 70.4354 74.0121 70.3634C74.4542 70.305 74.7861 70.0116 75.118 69.7183C75.3312 69.5379 75.5094 69.3683 75.631 69.1392C75.7176 68.9208 75.7827 68.6321 75.7076 68.3864Z" fill="#160D01"/>
<path d="M72.6894 67.0441C72.8082 66.9311 72.8704 66.7585 72.8976 66.5966C72.9248 66.4347 72.8712 66.2591 72.8526 66.0729C72.791 65.7461 72.7403 65.4545 72.6086 65.1492C72.4985 64.9141 72.1136 64.5326 71.8089 64.6642C71.5041 64.7957 71.6164 65.414 71.6457 65.6354C71.718 65.9973 71.8253 66.3484 71.9783 66.7239C72.0213 66.8644 72.0992 66.9941 72.2015 67.078C72.3496 67.1864 72.5707 67.1572 72.6894 67.0441Z" fill="#160D01"/>
<path d="M69.6111 65.3732C69.4387 65.3107 69.3149 65.1566 69.2262 64.9918C69.1375 64.8269 69.1189 64.6406 69.0653 64.4651C68.6339 64.5585 68.3613 64.7953 68.4765 65.2976C68.5273 65.5893 68.7641 65.8624 69.0144 66.0547C69.1625 66.163 69.3564 66.2957 69.5531 66.3124C69.7498 66.329 69.9602 66.2648 70.0925 66.0708C70.2005 65.9226 70.1955 65.6553 70.0017 65.5226C69.8994 65.4387 69.7484 65.4464 69.6111 65.3732Z" fill="#160D01"/>
<path d="M61.8744 79.5634C61.9381 80.2734 61.9559 80.959 62.0196 81.669C62.3215 81.6535 62.6234 81.6381 62.8366 81.4577C62.9796 81.2988 63.0311 81.0911 63.0934 80.9186C63.2129 80.3062 63.3467 79.1135 62.8245 78.6588C62.1084 78.0714 61.8294 79.0397 61.8744 79.5634Z" fill="#160D01"/>
<path d="M64.5606 78.8192C64.3066 79.2423 64.225 79.7279 64.1084 80.2243C64.0676 80.4671 64.0269 80.7099 64.1263 80.9098C64.2822 81.1693 64.665 81.1675 64.9776 81.1872C65.2795 81.1717 65.6515 81.1348 65.8082 80.895C65.8811 80.7575 65.9083 80.5956 65.9112 80.4796C65.947 79.9696 66.2804 78.6775 65.8848 78.2609C65.4355 77.6688 64.7795 78.4067 64.5606 78.8192Z" fill="#160D01"/>
<path d="M62.1815 72.2901C62.497 72.1936 62.8125 72.0972 62.9585 71.8223C63.0801 71.5932 63.0507 71.3718 63.0107 71.1153C62.9842 70.7778 63.0472 70.1059 62.716 69.9C62.5329 69.8024 61.8375 69.7845 61.6837 69.9083C61.4841 70.0077 61.4083 70.2612 61.4726 70.4719C61.502 70.6933 61.6014 70.8933 61.7008 71.0932C61.8003 71.2932 61.8296 71.5146 61.7781 71.7223C61.7158 71.8949 61.6078 72.0431 61.6965 72.2079C61.7852 72.3728 62.0063 72.3436 62.1815 72.2901Z" fill="#160D01"/>
<path d="M69.9659 72.6751C69.4294 72.8006 69.0344 73.7659 68.837 74.2486C68.764 74.386 68.7018 74.5586 68.7096 74.7098C68.6824 74.8717 68.7361 75.0472 68.8491 75.1663C69.0079 75.3097 69.2504 75.3508 69.45 75.2514C69.6604 75.1871 69.8034 75.0282 69.9816 74.8586C70.2191 74.6324 70.4566 74.4063 70.6025 74.1314C70.8351 73.638 70.7829 72.4638 69.9659 72.6751Z" fill="#160D01"/>
<path d="M64.9959 69.5865C65.2141 69.6734 65.4079 69.8062 65.6397 69.8121C65.8715 69.8181 66.1412 69.6973 66.182 69.4544C66.2578 69.2009 66.0775 68.9873 65.9431 68.798C65.7628 68.5844 65.6176 68.36 65.4373 68.1463C65.3593 68.0166 65.2463 67.8976 65.0954 67.9053C64.7935 67.9208 64.3127 68.6052 64.3177 68.8724C64.3549 69.2449 64.6861 69.4509 64.9959 69.5865Z" fill="#160D01"/>
<path d="M65.2798 71.7653C65.8592 71.7802 66.8007 71.2238 67.1491 70.7334C67.3058 70.4936 67.3144 70.1454 67.099 69.9425C66.8057 69.6098 66.3715 69.8193 66.0424 69.9966C65.7241 70.2091 65.395 70.3864 65.0766 70.5989C64.9121 70.6875 64.7583 70.8113 64.6853 70.9488C64.5394 71.2237 64.6924 71.5993 64.9564 71.7106C65.083 71.7487 65.1746 71.7975 65.2798 71.7653Z" fill="#160D01"/>
<path d="M62.7427 74.4991C63.0904 74.5081 63.7135 74.1641 63.9188 73.8326C64.0268 73.6844 64.0326 73.4523 63.8738 73.3089C63.6935 73.0952 63.4238 73.216 63.1999 73.3612C63.011 73.4957 62.7763 73.6058 62.5875 73.7403C62.4931 73.8076 62.3986 73.8748 62.3149 73.9772C62.2176 74.1605 62.3278 74.3956 62.5002 74.4581C62.6268 74.4961 62.6969 74.4747 62.7427 74.4991Z" fill="#160D01"/>
<path d="M64.1876 71.8299C63.4436 71.9037 63.9622 72.9738 64.0559 73.4058C64.131 73.6516 64.2169 73.9325 64.4107 74.0652C64.6397 74.1873 64.9902 74.0801 65.1011 73.8159C65.1633 73.6433 65.1204 73.5029 65.1018 73.3166C65.011 72.7685 65.0017 71.7347 64.1876 71.8299Z" fill="#160D01"/>
<path d="M62.6315 72.3827C62.2438 72.1172 62.0406 72.832 61.8946 73.1069C61.8217 73.2444 61.7594 73.417 61.8131 73.5926C61.8667 73.7681 62.0849 73.855 62.2494 73.7664C62.3439 73.6991 62.3925 73.6075 62.4412 73.5158C62.6465 73.1843 63.065 72.6725 62.6315 72.3827Z" fill="#160D01"/>
<path d="M60.1229 72.0739C60.3382 72.2768 60.7803 72.2185 60.9263 71.9436C61.0236 71.7603 61.005 71.574 60.9513 71.3984C60.8469 70.9313 60.5357 69.913 59.8969 69.9546C58.9562 70.0117 59.7144 71.2389 59.889 71.6847C59.967 71.8144 60.0099 71.9549 60.1229 72.0739Z" fill="#160D01"/>
<path d="M63.8029 70.9493C64.6843 70.9488 64.1385 70.0406 63.9503 69.6758C63.8724 69.546 63.8294 69.4056 63.7272 69.3217C63.6249 69.2377 63.4875 69.1645 63.3366 69.1723C63.1613 69.2258 63.0533 69.374 63.0368 69.571C63.0096 69.7329 63.0633 69.9084 63.1169 70.084C63.1706 70.2596 63.2349 70.4702 63.3236 70.6351C63.4581 70.8244 63.6169 70.9678 63.8029 70.9493Z" fill="#160D01"/>
<path d="M63.4659 75.2374C63.526 74.6816 63.0546 74.5185 62.7119 74.7768C62.2748 75.1023 61.8699 75.5332 61.4435 75.8938C61.4378 76.1259 61.6774 76.283 61.9092 76.289C62.141 76.295 62.3406 76.1956 62.5295 76.0611C62.7183 75.9266 62.9422 75.7814 63.1311 75.6469C63.2713 75.604 63.4494 75.4344 63.4659 75.2374Z" fill="#160D01"/>
<path d="M61.2843 75.75C60.8401 75.425 60.4488 75.775 60.5425 76.207C60.6333 76.7552 60.805 77.317 60.9416 77.8895C61.1247 77.9871 61.3944 77.8663 61.5268 77.6723C61.6591 77.4783 61.6649 77.2462 61.6355 77.0248C61.6413 76.7927 61.6012 76.5362 61.5719 76.3148C61.4617 76.0797 61.4324 75.8583 61.2843 75.75Z" fill="#160D01"/>
<path d="M59.07 75.2753C58.8926 74.9456 58.5771 75.042 58.477 75.3414C58.3525 75.6866 58.3196 76.0805 58.2058 76.4608C58.2838 76.5906 58.4698 76.5721 58.5993 76.4942C58.7288 76.4162 58.8017 76.2787 58.8747 76.1412C58.9477 76.0038 58.9749 75.8419 59.0479 75.7044C59.075 75.5425 59.1022 75.3807 59.07 75.2753Z" fill="#160D01"/>
<path d="M58.9516 74.8896C59.3965 74.7152 59.3865 74.1808 58.9502 74.007C58.767 73.9094 58.5352 73.9034 58.3142 73.9326C57.9315 73.9344 57.5137 73.9469 57.1309 73.9486C56.8992 73.9427 56.5973 73.9582 56.4649 74.1522C56.3082 74.392 56.4506 74.7324 56.7253 74.8788C56.9649 75.0359 57.3019 75.0098 57.558 74.9699C57.965 74.9223 58.5767 75.0425 58.9516 74.8896Z" fill="#160D01"/>
<path d="M58.4468 73.2384C58.5705 73.3926 58.7644 73.5253 58.9504 73.5068C59.1257 73.4533 59.2473 73.2242 59.1936 73.0486C59.175 72.8623 59.0055 72.6838 58.8817 72.5296C58.6907 72.2809 58.3788 71.7619 58.0312 71.753C57.4167 71.7488 57.5747 72.3915 57.8573 72.6891C58.0619 72.8569 58.2422 73.0706 58.4468 73.2384Z" fill="#160D01"/>
<path d="M60.75 72.9956C60.9117 73.023 61.1084 73.0397 61.1921 72.9373C61.3109 72.8242 61.2465 72.6135 61.1335 72.4945C61.0205 72.3755 60.8588 72.3481 60.6864 72.2856C60.4331 72.2094 59.986 72.0005 59.7729 72.1809C59.3601 72.4606 59.7693 72.7962 60.0926 72.851C60.3001 72.9028 60.5426 72.9438 60.75 72.9956Z" fill="#160D01"/>
<path d="M61.238 74.8434C61.4104 74.9059 61.5964 74.8875 61.7259 74.8095C61.8904 74.7208 61.9877 74.5375 61.9341 74.362C61.9019 74.2566 61.8347 74.162 61.7674 74.0674C61.5871 73.8537 61.2431 73.2294 60.9791 73.1181C60.7258 73.0419 60.3374 73.2758 60.2723 73.5645C60.1964 73.818 60.3874 74.0668 60.5677 74.2804C60.7587 74.5292 60.9497 74.778 61.238 74.8434Z" fill="#160D01"/>
<path d="M60.4207 75.0547C60.3427 74.9249 60.1703 74.8624 60.0194 74.8702C59.6259 74.8368 59.5422 74.9392 59.3963 75.2141C59.3097 75.4326 59.1502 75.7884 59.1444 76.0205C59.1709 76.358 59.5343 76.6692 59.8605 76.608C60.0065 76.333 60.1631 76.0932 60.274 75.8289C60.4658 75.5784 60.601 75.2683 60.4207 75.0547Z" fill="#160D01"/>
<path d="M64.1264 75.7651C64.1343 75.9163 64.1529 76.1025 64.2309 76.2323C64.3196 76.3971 64.5485 76.5191 64.7588 76.4549C64.9799 76.4257 65.1122 76.2317 65.1287 76.0347C65.1559 75.8728 65.0672 75.708 64.9892 75.5783C64.8332 75.3188 64.6666 75.0242 64.5457 74.754C63.9605 74.9712 64.0599 75.1712 64.1264 75.7651Z" fill="#160D01"/>
<path d="M68.4735 72.9389C67.7374 73.1638 66.9204 73.3751 66.2057 73.6703C65.7364 73.8905 65.5576 74.5594 66.1907 74.7498C66.2715 74.7635 66.3173 74.7879 66.3981 74.8016C66.9075 74.8379 67.4011 74.5719 67.8246 74.3273C68.0836 74.1714 68.3426 74.0155 68.4992 73.7756C68.6559 73.5358 68.6888 73.1418 68.4735 72.9389Z" fill="#160D01"/>
<path d="M75.4381 71.271C75.295 71.4299 75.0847 71.4942 74.8744 71.5584C74.0574 71.7697 73.2404 71.981 72.4478 72.1464C72.3076 72.1892 72.1674 72.2321 72.0407 72.194C71.9141 72.1559 71.8011 72.0369 71.804 71.9208C71.8311 71.759 71.9957 71.6703 72.1817 71.6518C72.8935 71.4727 73.6296 71.2478 74.3414 71.0686C74.5868 70.9937 75.1262 70.7521 75.3687 70.7931C75.544 70.7396 75.6484 71.2067 75.4381 71.271Z" fill="#160D01"/>
<path d="M71.5148 74.7353C71.5013 74.8162 71.5334 74.9216 71.59 74.9811C71.6465 75.0406 71.7624 75.0436 71.8325 75.0222C72.1587 74.9609 72.364 74.6294 72.3483 74.327C72.3297 74.1408 72.2302 73.9408 72.1415 73.7759C71.8862 73.3165 71.6551 72.8112 71.3647 72.3625C71.198 72.0679 71.0685 72.1459 70.9333 72.4559C70.8088 72.8011 70.919 73.0362 71.0964 73.3659C71.3654 73.7444 71.5156 74.236 71.5148 74.7353Z" fill="#160D01"/>
<path d="M69.8021 70.3838C69.5704 70.3778 69.3143 70.4177 69.252 70.5903C69.2141 70.717 69.2677 70.8926 69.37 70.9765C69.4723 71.0604 69.6447 71.1229 69.7714 71.161C70.3022 71.2675 70.8223 71.339 71.3667 71.3646C71.5176 71.3568 71.6685 71.3491 71.763 71.2818C71.8574 71.2146 71.9197 71.042 71.8767 70.9016C71.8424 70.413 71.562 70.4986 71.1685 70.4653C70.7293 70.4076 70.2657 70.3957 69.8021 70.3838Z" fill="#160D01"/>
<path d="M67.1395 71.5807C67.0451 71.6479 66.9156 71.7259 66.8319 71.8282C66.7482 71.9306 66.721 72.0925 66.7883 72.1871C66.8663 72.3169 67.0279 72.3442 67.1681 72.3014C67.3084 72.2585 67.4028 72.1913 67.5215 72.0782C67.9129 71.7283 68.3314 71.2165 68.4831 70.7094C67.8664 70.322 67.5523 71.301 67.1395 71.5807Z" fill="#160D01"/>
<path d="M68.5978 69.3304C68.5034 69.3976 68.4197 69.5 68.4626 69.6405C68.4948 69.7458 68.6321 69.819 68.748 69.822C68.8639 69.825 69.0041 69.7821 69.1093 69.75C69.3547 69.675 69.5972 69.7161 69.8504 69.7922C70.0228 69.8547 70.1602 69.9279 70.3355 69.8744C70.4406 69.8422 70.5594 69.7292 70.5622 69.6131C70.6467 69.0114 68.8918 69.1638 68.5978 69.3304Z" fill="#160D01"/>
<path d="M71.417 69.2752C71.495 69.4049 71.5379 69.5454 71.6402 69.6293C71.7425 69.7132 71.8799 69.7864 72.0308 69.7787C72.1818 69.7709 72.3005 69.6578 72.2926 69.5067C72.3062 69.4257 72.2497 69.3662 72.2283 69.296C72.1181 69.0609 72.0079 68.8258 71.8871 68.5557C71.8549 68.4503 71.7876 68.3557 71.7068 68.342C71.5236 68.2444 71.2754 68.4354 71.2132 68.608C71.1373 68.8615 71.3069 69.0401 71.417 69.2752Z" fill="#160D01"/>
<path d="M67.6801 70.3404C67.7609 70.354 67.8768 70.357 67.9469 70.3356C68.0171 70.3142 68.1115 70.2469 68.1601 70.1553C68.2088 70.0636 68.1659 69.9232 68.0986 69.8286C68.045 69.653 67.967 69.5232 67.9133 69.3477C67.8139 69.1477 67.3296 68.5663 67.2588 69.087C67.2559 69.2031 67.6801 70.3404 67.6801 70.3404Z" fill="#160D01"/>
<path d="M68.8532 72.1712C69.0256 72.2337 69.2574 72.2397 69.4541 72.2564C69.57 72.2593 69.6508 72.273 69.7667 72.276C69.9177 72.2683 70.0686 72.2605 70.1738 72.2284C70.3033 72.1504 70.3762 72.013 70.3333 71.8725C70.3011 71.7672 70.2096 71.7184 70.0937 71.7154C70.0128 71.7017 69.8969 71.6987 69.8161 71.685C69.6194 71.6684 69.4226 71.6517 69.2395 71.5541C69.0671 71.4916 68.8518 71.2887 68.6765 71.3422C68.1993 71.4113 68.5892 72.06 68.8532 72.1712Z" fill="#160D01"/>
<path d="M66.6367 75.9579C66.7634 75.996 66.89 76.0341 66.9951 76.002C67.2055 75.9377 67.3514 75.6627 67.252 75.4628C66.8936 75.4187 66.503 75.2693 66.2068 75.0527C65.9564 74.8605 65.7089 74.5522 65.4013 74.7997C64.751 75.3056 66.3377 75.8573 66.6367 75.9579Z" fill="#160D01"/>
<path d="M78.8563 96.256C78.5408 96.3524 78.1581 96.3542 77.6759 96.156C76.8489 95.8328 76.3324 95.146 75.8939 94.589L73.0532 90.8116C71.953 89.3434 70.7963 87.8157 70.0738 86.0785C69.2547 84.0253 69.1768 82.0143 69.9015 80.3723C70.4803 79.0053 71.5491 77.9877 72.4884 77.048L77.9784 71.6847C78.8691 70.8367 79.8892 69.9107 81.1962 70.0488C82.3873 70.1839 83.2458 71.1117 83.9425 72.0122L90.0252 79.7514C90.5417 80.4382 91.0689 81.1601 91.0002 82.0641C90.9451 82.8872 90.3728 83.5227 89.9435 83.9994L82.2766 92.5234C82.0498 92.7847 81.8123 93.0108 81.5748 93.237C80.981 93.8023 80.398 94.4028 80.0925 95.0336C79.9115 95.3193 79.5573 96.0418 78.8563 96.256ZM80.4644 71.0403C79.7983 71.2438 79.2045 71.8091 78.6351 72.3287L73.1451 77.6919C72.2301 78.5858 71.2558 79.5362 70.7743 80.7199C69.9387 82.6261 70.561 84.6627 70.953 85.6946C71.6083 87.3372 72.7435 88.7947 73.798 90.2385L76.6386 94.0159C77.0879 94.6081 77.4592 95.0705 77.9871 95.2931C78.5959 95.5294 78.8928 95.2467 79.1983 94.6158C79.5767 93.8475 80.2299 93.2256 80.8372 92.5793C81.0748 92.3532 81.3015 92.0919 81.504 91.8765L89.1709 83.3525C89.6002 82.8758 89.935 82.4664 89.9815 81.9915C90.0416 81.4356 89.6489 80.903 89.2104 80.3459L83.1277 72.6067C82.5089 71.836 81.8551 71.076 81.0681 71.0093C80.8607 70.9575 80.6747 70.976 80.4644 71.0403Z" fill="#3D2604"/>
<path d="M89.5704 83.6531C89.9997 83.1764 90.4533 82.6539 90.527 82.0171C90.5685 81.275 90.0978 80.6126 89.6592 80.0555C87.6469 77.4839 85.5889 74.8879 83.5765 72.3163C82.947 71.5105 82.1802 70.6315 81.1507 70.5237C80.0405 70.4023 79.1147 71.2611 78.3078 72.0067C76.4778 73.7945 74.6478 75.5822 72.8178 77.37C71.8434 78.3204 70.8447 79.3166 70.3389 80.5462C69.6249 82.2232 69.8431 84.1914 70.5198 85.9042C71.1965 87.617 72.3318 89.0745 73.432 90.5427C74.387 91.7865 75.342 93.0304 76.2727 94.32C76.7112 94.8771 77.1712 95.5044 77.8608 95.7543C78.8144 96.1156 79.303 95.5824 79.6571 94.8599C80.1329 93.9083 81.1745 93.0525 81.9249 92.2473C83.5582 90.4429 85.1915 88.6385 86.8247 86.834C87.7211 85.7539 88.6283 84.7089 89.5704 83.6531Z" fill="#FFE7C0"/>
<path d="M81.1489 70.5233C80.0387 70.4018 79.1129 71.2606 78.306 72.0063C76.476 73.794 74.646 75.5818 72.816 77.3695C71.8416 78.3199 70.8429 79.3162 70.3371 80.5457C69.6961 82.0853 69.8041 83.8183 70.3327 85.4228C71.2033 85.3871 72.1956 85.1223 72.7865 84.673C73.6392 83.9517 74.5914 83.4304 75.5007 82.7686C77.6268 81.1975 79.3145 79.0693 80.3261 76.6103C80.7074 75.7259 80.9864 74.7576 81.2061 73.8459C81.347 73.3037 81.4772 72.7264 81.4565 72.1569C81.4358 71.5874 81.3099 71.0499 81.1489 70.5233Z" fill="white"/>
<path d="M83.102 85.8211C84.2995 85.2248 85.2796 84.0423 85.2196 82.7169C85.1888 81.613 84.4921 80.7125 84.03 79.702C83.3232 78.2671 83.0857 76.612 83.3333 75.0391C83.3906 74.5993 83.5179 74.1381 83.4485 73.6602C83.3899 73.2174 83.1238 72.7228 82.6738 72.63C82.1673 72.4776 81.6601 72.8246 81.2337 73.1852C79.976 74.3374 79.149 75.8954 78.8635 77.5951C78.7848 77.9647 78.7276 78.4045 78.3742 78.6277C78.1503 78.7729 77.8269 78.7181 77.5708 78.758C76.595 78.8258 75.8231 79.5608 75.3045 80.3719C74.7858 81.1831 74.3694 82.0782 73.6569 82.7566C73.2763 83.1417 72.8177 83.397 72.4264 83.7469C72.0351 84.0968 71.6759 84.5521 71.6051 85.0728C71.4964 85.7203 71.8404 86.3446 72.387 86.7535C72.8877 87.138 73.5559 87.3177 74.1919 87.3921C75.383 87.5272 76.5827 87.3142 77.7502 86.9958C78.2409 86.8458 78.7911 86.6393 79.3247 86.6298C79.9042 86.6447 80.5323 86.568 81.1146 86.4668C81.7563 86.3091 82.4681 86.13 83.102 85.8211Z" fill="#DD1D1D"/>
<path opacity="0.1" d="M91.1473 33.2713L34.9023 29.8057L34.6851 33.3967L90.93 36.8623L91.1473 33.2713Z" fill="white"/>
<path opacity="0.1" d="M90.1473 37.9675L33.9023 34.502L33.8026 36.1509L90.0475 39.6165L90.1473 37.9675Z" fill="white"/>
<path opacity="0.1" d="M115.522 101.943L43.9805 97.5352L43.8519 99.6604L115.393 104.069L115.522 101.943Z" fill="white"/>
<path opacity="0.1" d="M118.465 93.6405L46.9238 89.2324L46.8595 90.2951L118.401 94.7032L118.465 93.6405Z" fill="white"/>
<path opacity="0.1" d="M116.621 95.785L45.0801 91.377L44.8029 95.9573L116.344 100.365L116.621 95.785Z" fill="white"/>
</g>
</g>
<path d="M167 81V68M167 68V55M167 68H180M167 68H154" stroke="white" stroke-width="3" stroke-linecap="round"/>
<g clip-path="url(#clip2)">
<path d="M263.327 188.48C276.95 179.402 280.461 161.084 271.169 147.565C261.877 134.047 243.301 130.447 229.678 139.524C216.055 148.602 212.544 166.92 221.836 180.439C231.128 193.957 249.704 197.557 263.327 188.48Z" fill="#E59F39"/>
<path d="M261.041 185.16C272.815 177.316 275.849 161.484 267.818 149.798C259.787 138.112 243.732 134.997 231.958 142.841C220.185 150.685 217.151 166.517 225.182 178.203C233.213 189.89 249.267 193.004 261.041 185.16Z" fill="#F7CC7F"/>
<path opacity="0.3" d="M232.658 142.394C225.911 146.579 221.829 153.363 220.893 160.621C222.479 154.618 226.288 149.178 232.021 145.619C244.046 138.157 259.997 141.792 267.641 153.722C270.995 158.957 272.191 164.922 271.463 170.605C273.205 164.013 272.269 156.73 268.278 150.483C260.634 138.554 244.683 134.931 232.658 142.394Z" fill="#F7CC7F"/>
<path d="M248.764 147.59L251.351 155.411C251.676 156.384 252.586 157.037 253.613 157.037H261.972C264.286 157.037 265.248 159.942 263.376 161.286L256.616 166.125C255.784 166.726 255.433 167.789 255.745 168.749L258.332 176.569C259.047 178.733 256.525 180.537 254.666 179.193L247.906 174.355C247.074 173.753 245.943 173.753 245.098 174.355L238.338 179.193C236.466 180.525 233.957 178.733 234.672 176.569L237.259 168.749C237.584 167.776 237.233 166.726 236.388 166.125L229.628 161.286C227.756 159.955 228.718 157.037 231.032 157.037H239.391C240.418 157.037 241.341 156.384 241.653 155.411L244.24 147.59C244.942 145.427 248.062 145.427 248.764 147.59Z" fill="#E59F39"/>
</g>
<path d="M132.36 193L116.79 170.68L131.37 149.53H118.59L109.68 162.94L100.68 149.53H87.9L102.39 170.68L87 193H99.69L109.68 178.33L119.58 193H132.36Z" fill="white"/>
<path d="M179.319 194.08C193.809 194.08 203.349 186.07 203.349 173.29C203.349 161.14 194.259 153.85 184.089 153.85C178.599 153.85 173.739 156.01 170.859 158.89V144.22H199.299V132.97H158.079V167.44L166.989 169.78C170.589 166.36 174.639 164.92 179.589 164.92C186.429 164.92 190.389 168.52 190.389 173.83C190.389 178.69 186.339 182.74 179.229 182.74C172.929 182.74 167.349 180.4 163.299 176.17L156.189 185.08C161.319 190.66 168.879 194.08 179.319 194.08Z" fill="#FCB527"/>
<defs>
<clipPath id="clip0">
<rect width="73.0882" height="99.0227" fill="white" transform="translate(72.709 31.3594) rotate(-16.9921)"/>
</clipPath>
<clipPath id="clip1">
<rect width="73.0882" height="99.0227" fill="white" transform="translate(23 31.3594) rotate(-16.9921)"/>
</clipPath>
<clipPath id="clip2">
<rect width="65" height="64" fill="white" transform="translate(214 132)"/>
</clipPath>
</defs>
</svg>
