<svg width="293" height="209" viewBox="0 0 293 209" fill="none" xmlns="http://www.w3.org/2000/svg">
<rect width="293" height="209" rx="10" fill="#6550E2"/>
<g clip-path="url(#clip0)">
<path d="M264.326 190.48C277.949 181.402 281.46 163.084 272.168 149.565C262.876 136.047 244.3 132.447 230.677 141.524C217.054 150.602 213.543 168.92 222.835 182.439C232.127 195.957 250.703 199.557 264.326 190.48Z" fill="#E59F39"/>
<path d="M262.04 187.16C273.814 179.316 276.848 163.484 268.817 151.798C260.786 140.112 244.731 136.997 232.958 144.841C221.184 152.685 218.15 168.517 226.181 180.203C234.212 191.89 250.266 195.004 262.04 187.16Z" fill="#F7CC7F"/>
<path opacity="0.3" d="M233.656 144.394C226.909 148.579 222.827 155.363 221.891 162.621C223.477 156.618 227.286 151.178 233.019 147.619C245.044 140.157 260.995 143.792 268.639 155.722C271.993 160.957 273.189 166.922 272.461 172.605C274.203 166.013 273.267 158.73 269.276 152.483C261.632 140.554 245.681 136.931 233.656 144.394Z" fill="#F7CC7F"/>
<path d="M249.763 149.59L252.35 157.411C252.675 158.384 253.585 159.037 254.612 159.037H262.971C265.285 159.037 266.247 161.942 264.375 163.286L257.615 168.125C256.783 168.726 256.432 169.789 256.744 170.749L259.331 178.569C260.046 180.733 257.524 182.537 255.665 181.193L248.905 176.355C248.073 175.753 246.942 175.753 246.097 176.355L239.337 181.193C237.465 182.525 234.956 180.733 235.671 178.569L238.258 170.749C238.583 169.776 238.232 168.726 237.387 168.125L230.627 163.286C228.755 161.955 229.717 159.037 232.031 159.037H240.39C241.417 159.037 242.34 158.384 242.652 157.411L245.239 149.59C245.941 147.427 249.061 147.427 249.763 149.59Z" fill="#E59F39"/>
</g>
<path d="M133.36 195L117.79 172.68L132.37 151.53H119.59L110.68 164.94L101.68 151.53H88.9L103.39 172.68L88 195H100.69L110.68 180.33L120.58 195H133.36Z" fill="white"/>
<path d="M196.519 195V182.58H204.259V171.33H196.519V134.97H178.879L155.029 172.5V182.58H183.739V195H196.519ZM183.739 171.33H167.539L183.739 146.31V171.33Z" fill="#FCB527"/>
<g clip-path="url(#clip1)">
<path d="M106.958 36.1881C109.185 35.6996 111.519 35.5621 113.765 35.2599C117.361 34.7368 120.874 33.8168 124.213 32.451C124.763 32.2445 125.337 31.9922 125.855 31.6803L125.845 31.6452C126.426 30.1622 126.712 28.4625 126.914 26.8651C126.951 26.7384 126.944 26.5872 126.971 26.4253C127.123 25.419 127.165 24.1775 126.876 22.7302C126.793 22.3332 126.249 22.3076 126.09 22.6635L126.065 22.7093C125.954 22.9736 125.674 23.0592 125.434 22.9021L123.996 21.9594L123.331 23.5448C123.22 23.8091 122.94 23.8948 122.7 23.7376L121.262 22.7949L120.597 24.3804C120.486 24.6446 120.205 24.7303 119.966 24.5732L118.528 23.6304L117.863 25.2159C117.752 25.4801 117.471 25.5658 117.232 25.4087L115.794 24.466L115.128 26.0514C115.018 26.3156 114.737 26.4013 114.497 26.2442L113.105 25.3259C113.14 25.3152 113.105 25.3259 113.07 25.3366C113.035 25.3473 113 25.358 112.976 25.4038L112.335 26.9434C112.224 27.2077 111.943 27.2934 111.704 27.1363L110.301 26.1828L109.636 27.7682C109.525 28.0325 109.244 28.1182 109.005 27.9611L107.567 27.0183L106.901 28.6038C106.791 28.868 106.51 28.9537 106.27 28.7966L104.833 27.8539L104.167 29.4393C104.056 29.7035 103.776 29.7892 103.536 29.6321L102.098 28.6894L101.433 30.2748C101.322 30.539 101.042 30.6247 100.802 30.4676L99.3642 29.5249L98.6988 31.1103C98.5879 31.3746 98.3075 31.4603 98.0679 31.3031L96.63 30.3604L95.9646 31.9458C95.8537 32.2101 95.5733 32.2958 95.3337 32.1387L93.8958 31.1959L93.2304 32.7814C93.1195 33.0456 92.8391 33.1313 92.5995 32.9742L92.4056 32.8415C92.0636 32.6004 91.6373 32.9611 91.7904 33.3366C92.4241 34.9089 93.2311 36.0445 94.0008 36.8074C94.0115 36.8426 94.0573 36.867 94.068 36.9021C94.8671 37.8864 96.0117 38.4965 97.0025 39.2303C97.3551 39.5064 97.6728 39.7933 97.931 40.1367C98.0362 40.1046 98.1306 40.0373 98.225 39.9701C99.5199 39.1905 100.723 38.3621 102.107 37.7473C103.701 37.0683 105.302 36.5404 106.958 36.1881Z" fill="#B75009"/>
<path d="M139.813 111.724C137.586 112.213 135.252 112.35 133.007 112.652C129.41 113.175 125.897 114.095 122.558 115.461C122.008 115.668 121.434 115.92 120.916 116.232L120.927 116.267C120.345 117.75 120.059 119.45 119.858 121.047C119.82 121.174 119.828 121.325 119.8 121.487C119.648 122.493 119.606 123.735 119.895 125.182C119.978 125.579 120.522 125.604 120.682 125.249L120.706 125.203C120.817 124.939 121.097 124.853 121.337 125.01L122.775 125.953L123.44 124.367C123.551 124.103 123.831 124.017 124.071 124.174L125.509 125.117L126.174 123.532C126.285 123.268 126.566 123.182 126.805 123.339L128.243 124.282L128.909 122.696C129.019 122.432 129.3 122.346 129.54 122.503L130.977 123.446L131.643 121.861C131.754 121.596 132.034 121.511 132.274 121.668L133.666 122.586C133.712 122.611 133.747 122.6 133.782 122.589C133.817 122.578 133.852 122.568 133.876 122.522L134.517 120.982C134.628 120.718 134.909 120.632 135.148 120.79L136.586 121.732L137.251 120.147C137.362 119.883 137.643 119.797 137.882 119.954L139.32 120.897L139.986 119.311C140.096 119.047 140.377 118.961 140.617 119.118L142.054 120.061L142.72 118.476C142.831 118.212 143.111 118.126 143.351 118.283L144.789 119.226L145.454 117.64C145.565 117.376 145.845 117.29 146.085 117.447L147.523 118.39L148.188 116.805C148.299 116.541 148.58 116.455 148.819 116.612L150.257 117.555L150.922 115.969C151.033 115.705 151.314 115.619 151.553 115.776L152.991 116.719L153.657 115.134C153.768 114.869 154.048 114.784 154.288 114.941L154.481 115.074C154.823 115.315 155.25 114.954 155.097 114.578C154.463 113.006 153.656 111.871 152.886 111.108C152.876 111.073 152.83 111.048 152.819 111.013C152.02 110.029 150.875 109.419 149.885 108.685C149.532 108.409 149.214 108.122 148.956 107.778C148.851 107.811 148.756 107.878 148.662 107.945C147.367 108.725 146.164 109.553 144.78 110.168C143.06 110.809 141.469 111.372 139.813 111.724Z" fill="#B75009"/>
<path d="M126.498 29.5834L96.8076 38.6562L121.186 118.433L150.876 109.36L126.498 29.5834Z" fill="#EA680F"/>
<path fill-rule="evenodd" clip-rule="evenodd" d="M117.722 57.2395C113.856 57.8834 110.968 58.8427 109.674 60.5048C108.639 58.748 107.903 57.0917 107.814 55.545C107.637 52.8347 109.032 51.7558 110.518 51.2249C112.344 50.5519 115.481 50.2841 117.962 49.8717C121.175 49.3505 123.976 48.6096 125.502 46.9533C126.57 48.3162 127.158 49.8642 127.36 51.5299C127.638 53.4415 126.841 54.7216 125.152 55.4679C122.96 56.4451 120.272 56.8057 117.722 57.2395Z" fill="white"/>
<path fill-rule="evenodd" clip-rule="evenodd" d="M114.383 51.0806C114.663 50.9949 114.868 51.1627 114.943 51.4085C115.018 51.6543 114.942 51.9078 114.707 52.0179C114.427 52.1036 114.222 51.9358 114.147 51.69C114.037 51.4549 114.067 51.177 114.383 51.0806ZM114.329 50.905C113.943 51.0229 113.727 51.3192 113.856 51.7406C113.985 52.1619 114.305 52.3328 114.726 52.2042C115.147 52.0757 115.328 51.79 115.199 51.3687C115.059 50.9122 114.714 50.7872 114.329 50.905ZM113.028 51.9167L112.91 51.5305C113.086 51.4769 113.285 51.3775 113.35 51.5882C113.414 51.7989 113.169 51.8739 113.028 51.9167ZM112.952 52.6696L113.197 52.5946L113.047 52.103C113.257 52.0387 113.503 51.9638 113.589 51.7453C113.676 51.5269 113.498 51.1972 113.148 51.3043L112.587 51.4757L112.952 52.6696ZM111.314 51.8262L111.56 51.7513C111.592 51.8566 111.785 52.4886 111.817 52.594C111.938 52.8642 112.418 52.6791 112.367 52.3875C112.314 52.2119 112.174 51.7554 112.121 51.5799L112.366 51.5049C112.409 51.6453 112.613 52.3125 112.656 52.4529C112.693 52.8255 112.202 52.9755 111.924 52.9451C111.682 52.904 111.628 52.7285 111.575 52.5529L111.314 51.8262ZM110.645 52.6451L110.537 52.294C110.713 52.2404 110.947 52.1303 111.012 52.341C111.076 52.5517 110.785 52.6023 110.645 52.6451ZM110.568 53.398L110.813 53.323L110.653 52.7963L110.793 52.7534L111.234 53.1944L111.55 53.098L111.027 52.6434C111.146 52.5303 111.265 52.4172 111.201 52.2065C111.125 51.9607 110.894 51.9548 110.718 52.0083L110.157 52.1797L110.568 53.398ZM109.698 52.9343L109.752 53.1099L109.962 53.0456L110.037 53.2914C109.848 53.4259 109.533 53.5223 109.353 53.3087C109.172 53.095 109.149 52.6415 109.534 52.5237C109.675 52.4809 109.79 52.4838 109.904 52.6029L109.99 52.3845C109.842 52.2761 109.691 52.2839 109.481 52.3481C108.674 52.5945 108.932 53.4372 109.323 53.5866C109.632 53.7223 110.032 53.5235 110.291 53.3676L110.108 52.7707L109.698 52.9343ZM116.208 57.9324C113.935 58.3966 111.794 59.166 110.795 60.6616C110.353 60.7199 109.91 60.7782 109.468 60.8365C108.428 59.3118 107.786 57.5883 107.473 55.6874C107.277 53.7895 107.74 51.9202 109.941 51.0942C112.211 50.2468 115.573 49.8338 118.8 49.2316C121.119 48.7918 123.017 47.9813 124.038 46.556C124.572 46.5465 125.07 46.5477 125.604 46.5381C126.726 48.0766 127.287 49.7864 127.556 51.5468C127.9 54.0523 126.615 55.3664 124.547 55.9984C121.684 56.9118 118.586 57.4361 116.208 57.9324ZM117.721 57.2397C113.855 57.8836 110.967 58.8429 109.674 60.505C108.639 58.7482 107.902 57.0919 107.813 55.5452C107.636 52.8349 109.031 51.756 110.517 51.2251C112.343 50.5521 115.481 50.2843 117.961 49.8719C121.174 49.3507 123.976 48.6098 125.501 46.9535C126.569 48.3164 127.157 49.8644 127.36 51.5301C127.637 53.4417 126.84 54.7218 125.152 55.4681C122.959 56.4453 120.271 56.8059 117.721 57.2397Z" fill="#3D438B"/>
<path fill-rule="evenodd" clip-rule="evenodd" d="M121.071 54.028L120.3 54.2636L119.591 51.9462L120.257 51.7426C120.608 51.6355 120.78 51.698 120.834 51.8736C120.92 52.1545 120.823 52.3378 120.542 52.4235L120.297 52.4985L120.185 53.262L120.781 53.0799C121.062 52.9942 121.406 53.1192 121.446 53.3757C121.543 53.6917 121.386 53.9316 121.071 54.028ZM121.436 54.7225L119.578 55.2902L118.409 51.4629L120.197 50.9166C120.828 50.7238 121.407 50.7387 121.66 51.3142C121.858 51.7141 121.815 52.073 121.564 52.3801C122.119 52.4408 122.512 52.9734 122.508 53.5888C122.504 54.2042 121.892 54.5832 121.436 54.7225ZM123.925 50.6988C124.485 50.5275 125.081 50.8447 125.263 51.4416C125.435 52.0034 125.129 52.6342 124.568 52.8056C124.007 52.977 123.412 52.6598 123.23 52.0629C123.047 51.466 123.364 50.8702 123.925 50.6988ZM123.646 49.7859C124.697 49.4646 125.842 50.0746 126.174 51.1631C126.507 52.2516 125.899 53.3972 124.847 53.7186C123.796 54.0399 122.651 53.4299 122.318 52.3414C121.986 51.2529 122.594 50.1073 123.646 49.7859ZM118.023 51.5807L119.193 55.4081L118.246 55.6973L117.506 53.2745L117.615 55.8901L116.704 56.1686L115.379 53.963L116.108 56.3507L115.197 56.6292L114.027 52.8019L115.499 52.352L116.645 54.3439L116.481 52.052L118.023 51.5807ZM112.73 53.1982L113.677 52.909L114.846 56.7363L113.9 57.0255L112.73 53.1982ZM111.957 56.813L111.186 57.0487L110.477 54.7312L111.143 54.5277C111.494 54.4206 111.666 54.4831 111.72 54.6586C111.806 54.9396 111.709 55.1229 111.428 55.2085L111.183 55.2835L111.071 56.0471L111.667 55.865C111.947 55.7793 112.292 55.9043 112.332 56.1608C112.429 56.4768 112.237 56.7273 111.957 56.813ZM112.322 57.5076L110.464 58.0753L109.295 54.248L111.083 53.7017C111.714 53.5088 112.293 53.5237 112.546 54.0992C112.744 54.4992 112.701 54.858 112.45 55.1651C113.005 55.2258 113.398 55.7585 113.394 56.3739C113.355 56.9999 112.778 57.3683 112.322 57.5076Z" fill="#DA243C"/>
<mask id="mask0" mask-type="alpha" maskUnits="userSpaceOnUse" x="96" y="29" width="55" height="90">
<path d="M126.448 29.7338L96.7578 38.8066L121.136 118.583L150.827 109.511L126.448 29.7338Z" fill="#EA680F"/>
</mask>
<g mask="url(#mask0)">
<path d="M146.215 74.1008C145.524 73.4676 144.567 73.2224 143.654 73.1176C142.74 73.0129 141.789 73.0349 140.889 72.8492C139.989 72.6635 139.059 72.2564 138.521 71.4994C138.33 71.2506 138.21 70.9804 138.019 70.7316C137.828 70.4829 137.542 70.3013 137.24 70.3168C136.717 70.3614 136.482 70.9709 136.034 71.2613C135.621 71.541 135.112 71.5047 134.627 71.4225C134.142 71.3404 133.646 71.2231 133.19 71.3624C132.735 71.5016 132.306 71.9783 132.48 72.4241C132.63 72.9157 133.277 73.0252 133.778 72.9103C134.269 72.7604 134.717 72.47 135.229 72.3902C136.033 72.2599 136.832 72.7449 137.398 73.3401C137.963 73.9352 138.409 74.6435 138.999 75.1928C139.803 75.945 140.798 76.0635 141.865 76.0445C142.967 76.0147 144.083 76.4034 144.755 77.3496C145.293 78.1067 145.467 79.0517 145.606 80.0075C145.704 80.7068 145.814 81.4412 145.589 82.0857C145.44 82.4767 145.189 82.7838 144.938 83.0909C144.764 82.1458 144.601 81.2359 144.427 80.2908C144.275 79.4159 144.101 78.4709 143.574 77.749C143.047 77.027 142.026 76.5712 141.217 76.9336C140.313 77.3632 140.128 78.7636 140.89 79.3754C141.31 79.7462 141.957 79.8557 142.293 80.3288C142.742 80.921 142.406 81.8298 141.805 82.244C141.214 82.6933 140.435 82.7778 139.702 82.8867C136.267 83.4371 132.953 84.757 130.052 86.6799C128.366 87.8094 126.85 89.1175 125.153 90.2119C123.774 91.0939 122.283 91.8568 120.687 92.1525C119.999 92.2858 119.667 92.5792 119.058 92.8423C118.343 93.1375 117.564 93.2219 116.852 93.4011C116.024 93.5772 115.207 93.7885 114.579 94.3645C113.653 95.2233 113.503 96.6129 113.39 97.8758C113.322 98.7798 113.218 99.6945 113.381 100.604C113.544 101.514 113.963 102.385 114.668 102.937C115.797 103.744 117.365 103.61 118.542 104.325C119.296 104.786 119.799 105.554 120.494 106.071C120.846 106.347 121.294 106.556 121.733 106.614C122.137 106.682 122.348 106.119 121.971 105.888C121.696 105.742 121.446 105.55 121.231 105.347C120.913 105.06 121.251 104.534 121.652 104.719C123.842 105.739 126.556 105.716 128.695 104.563C129.612 104.052 130.43 103.342 131.347 102.831C132.194 102.342 133.189 101.961 134.148 102.09C134.31 102.118 134.439 102.04 134.523 101.937C134.993 101.218 135.883 100.869 136.746 100.682C137.689 100.509 138.652 100.522 139.574 100.279C142.281 99.6052 144.018 96.8861 144.849 94.2133C145.442 92.2661 145.691 90.1938 145.602 88.1477C145.563 87.3919 145.488 86.6468 145.368 85.8773C146.277 85.7148 147.081 85.0852 147.438 84.2467C147.781 83.4891 147.745 82.6172 147.684 81.7912C147.642 80.6521 147.577 79.5588 147.535 78.4197C147.496 77.6639 147.446 76.873 147.301 76.1493C147.135 75.3554 146.794 74.615 146.215 74.1008Z" fill="white"/>
<path d="M123.687 106.362C123.307 106.248 122.884 106.492 122.52 106.68C122.425 106.748 122.342 106.85 122.385 106.99C122.417 107.096 122.508 107.145 122.6 107.193C122.832 107.199 123.026 107.332 123.16 107.521C123.305 107.746 123.367 108.072 123.644 108.103C123.771 108.141 123.911 108.098 124.03 107.985C124.54 107.522 124.377 106.612 123.687 106.362Z" fill="white"/>
<path d="M128.294 102.497C128.348 102.174 128.136 101.855 127.861 101.708C127.586 101.562 127.239 101.553 126.926 101.533C125.953 101.485 125.015 101.426 124.042 101.378C122.803 101.334 121.461 101.207 120.554 100.371C119.41 99.2614 119.448 97.2534 118.304 96.1441C117.488 95.3567 116.173 95.0674 115.746 94.0462C115.714 93.9408 115.682 93.8355 115.65 93.7302C115.24 93.8938 114.876 94.0819 114.544 94.3753C114.306 94.6014 114.15 94.8412 113.993 95.0811C114.068 95.3269 114.132 95.5375 114.243 95.7726C114.713 96.9343 115.547 97.908 116.394 98.8007C117.242 99.6934 118.195 100.554 118.983 101.503C119.4 101.99 119.804 102.558 120.413 102.794C120.757 102.919 121.151 102.952 121.534 102.951C122.426 102.985 123.342 102.974 124.234 103.008C125.161 103.032 126.078 103.021 126.97 103.055C127.201 103.061 127.468 103.057 127.714 102.982C128.04 102.92 128.253 102.74 128.294 102.497Z" fill="#E5E5E5"/>
<path d="M118.728 95.4004C119.436 95.8366 120.266 96.0437 121.085 96.2157C121.904 96.3877 122.734 96.5949 123.466 96.9853C124.678 97.6899 125.447 98.9522 126.575 99.7592C127.499 100.398 128.582 100.682 129.641 101.011C129.94 101.111 130.228 101.177 130.565 101.151C130.867 101.135 131.207 100.993 131.363 100.753C131.544 100.468 131.507 100.095 131.34 99.8004C131.174 99.5058 130.948 99.2677 130.687 99.0404C129.79 98.2393 128.894 97.4383 128.033 96.6265C126.547 95.2761 124.969 93.8769 123.07 93.3056C121.677 92.8866 120.203 92.9532 118.753 92.974C118.149 93.0049 117.268 93.0055 117.469 93.7887C117.638 94.4666 118.157 95.0373 118.728 95.4004Z" fill="#E5E5E5"/>
<path d="M124.271 107.642C124.195 107.397 123.956 107.239 123.727 107.117C123.452 106.971 123.164 106.905 122.865 106.805C122.738 106.767 122.541 106.75 122.436 106.782C122.412 106.828 122.398 106.909 122.409 106.944C122.441 107.05 122.533 107.098 122.624 107.147C122.856 107.153 123.05 107.286 123.185 107.475C123.33 107.699 123.391 108.026 123.669 108.056C123.796 108.095 123.936 108.052 124.054 107.939C124.16 107.907 124.233 107.769 124.271 107.642Z" fill="#E5E5E5"/>
<path d="M114.739 93.5093C113.759 93.3099 112.767 93.0754 111.922 92.5659C110.529 91.6476 109.898 89.9592 109.37 88.3547C108.906 86.9609 108.431 85.532 108.524 84.0828C108.64 82.7039 109.275 81.3964 110.08 80.2675C112.324 77.2014 116.043 75.4506 119.783 74.7686C123.522 74.0867 127.354 74.3361 131.141 74.5611C132.82 74.6623 134.555 74.823 135.947 75.7414C137.487 76.768 138.302 78.554 139.038 80.2103C139.553 81.3964 140.08 82.6176 140.094 83.9186C140.068 85.4623 139.314 86.8829 138.573 88.2225C137.433 90.2602 136.292 92.298 135.187 94.325C134.617 95.3438 134.047 96.3627 133.477 97.3815C133.209 97.8856 132.906 98.4004 132.639 98.9045C132.444 99.2711 132.157 100.088 131.804 100.311C131.192 100.69 129.921 99.543 129.361 99.2151C128.48 98.7163 127.6 98.2176 126.695 97.7647C124.885 96.8589 123.061 96.034 121.165 95.3466C120.13 94.9716 119.061 94.6074 118.013 94.3134C117.461 94.1366 116.919 93.9949 116.343 93.864C115.938 93.7955 115.09 93.4021 114.739 93.5093Z" fill="#562B04"/>
<path d="M126.142 83.0374C125.296 83.0273 124.425 83.5623 124.035 84.2955C123.889 84.5705 123.741 84.9615 123.436 85.093C123.296 85.1358 123.145 85.1436 122.983 85.1162C121.999 85.0329 120.981 84.9602 120.008 84.912C118.908 84.8257 117.854 84.7638 116.793 84.5507C116.308 84.4686 115.801 84.3162 115.306 84.199C114.891 84.0954 114.476 83.9918 114.061 83.8883C113.484 83.7573 112.897 83.5913 112.358 83.3336C111.911 83.1247 111.502 82.789 110.982 82.7176C110.497 82.6355 110.03 82.7396 109.575 82.8789C109.329 82.9538 108.992 82.98 108.677 83.0764C108.625 83.2841 108.574 83.4918 108.568 83.7239C108.673 83.6918 108.743 83.6704 108.814 83.6489C109.035 83.6198 109.266 83.6257 109.498 83.6317C109.962 83.6436 110.401 83.7013 110.851 83.7942C111.659 83.9311 112.503 84.0573 113.3 84.159C113.831 84.2656 114.432 84.3507 114.841 84.6864C115.092 84.8786 115.248 85.1381 115.487 85.2952C115.84 85.5713 116.314 85.6184 116.754 85.6761C118.314 85.8904 119.839 86.1154 121.41 86.3648C121.93 86.4362 122.496 86.532 122.846 86.9242C123.252 87.3759 123.189 88.0478 123.371 88.6447C123.508 89.2173 123.855 89.7255 124.321 90.1207C124.107 88.9191 124.3 87.6699 124.666 86.4832C124.985 85.2721 125.569 84.1724 126.142 83.0374Z" fill="#75461F"/>
<path d="M129.708 73.3864C129.597 73.1513 129.347 72.959 129.091 72.9989C128.835 73.0388 128.678 73.2786 128.557 73.5077C128.184 74.044 127.701 74.3451 127.204 74.7271C126.673 75.1199 127.651 75.4354 128.012 75.3634C128.454 75.305 128.786 75.0116 129.118 74.7183C129.331 74.5379 129.509 74.3683 129.631 74.1392C129.718 73.9208 129.783 73.6321 129.708 73.3864Z" fill="#160D01"/>
<path d="M126.691 72.0441C126.81 71.9311 126.872 71.7585 126.9 71.5966C126.927 71.4347 126.873 71.2591 126.855 71.0729C126.793 70.7461 126.742 70.4545 126.611 70.1492C126.5 69.9141 126.116 69.5326 125.811 69.6642C125.506 69.7957 125.618 70.414 125.648 70.6354C125.72 70.9973 125.827 71.3484 125.98 71.7239C126.023 71.8644 126.101 71.9941 126.203 72.078C126.352 72.1864 126.573 72.1572 126.691 72.0441Z" fill="#160D01"/>
<path d="M123.613 70.3732C123.441 70.3107 123.317 70.1566 123.228 69.9918C123.139 69.8269 123.121 69.6406 123.067 69.4651C122.636 69.5585 122.363 69.7953 122.478 70.2976C122.529 70.5893 122.766 70.8624 123.016 71.0547C123.164 71.163 123.358 71.2957 123.555 71.3124C123.752 71.329 123.962 71.2648 124.094 71.0708C124.202 70.9226 124.197 70.6553 124.004 70.5226C123.901 70.4387 123.75 70.4464 123.613 70.3732Z" fill="#160D01"/>
<path d="M115.875 84.5634C115.939 85.2734 115.957 85.959 116.021 86.669C116.322 86.6535 116.624 86.6381 116.838 86.4577C116.981 86.2988 117.032 86.0911 117.094 85.9186C117.214 85.3062 117.348 84.1135 116.825 83.6588C116.109 83.0714 115.83 84.0397 115.875 84.5634Z" fill="#160D01"/>
<path d="M118.562 83.8192C118.308 84.2423 118.226 84.7279 118.109 85.2243C118.069 85.4671 118.028 85.7099 118.127 85.9098C118.283 86.1693 118.666 86.1675 118.979 86.1872C119.28 86.1717 119.652 86.1348 119.809 85.895C119.882 85.7575 119.909 85.5956 119.912 85.4796C119.948 84.9696 120.281 83.6775 119.886 83.2609C119.436 82.6688 118.78 83.4067 118.562 83.8192Z" fill="#160D01"/>
<path d="M116.183 77.2901C116.498 77.1936 116.813 77.0972 116.959 76.8223C117.081 76.5932 117.052 76.3718 117.012 76.1153C116.985 75.7778 117.048 75.1059 116.717 74.9C116.534 74.8024 115.838 74.7845 115.685 74.9083C115.485 75.0077 115.409 75.2612 115.474 75.4719C115.503 75.6933 115.602 75.8933 115.702 76.0932C115.801 76.2932 115.831 76.5146 115.779 76.7223C115.717 76.8949 115.609 77.0431 115.697 77.2079C115.786 77.3728 116.007 77.3436 116.183 77.2901Z" fill="#160D01"/>
<path d="M123.966 77.6751C123.429 77.8006 123.034 78.7659 122.837 79.2486C122.764 79.386 122.702 79.5586 122.71 79.7098C122.682 79.8717 122.736 80.0472 122.849 80.1663C123.008 80.3097 123.25 80.3508 123.45 80.2514C123.66 80.1871 123.803 80.0282 123.982 79.8586C124.219 79.6324 124.457 79.4063 124.603 79.1314C124.835 78.638 124.783 77.4638 123.966 77.6751Z" fill="#160D01"/>
<path d="M118.998 74.5865C119.216 74.6734 119.41 74.8062 119.642 74.8121C119.873 74.8181 120.143 74.6973 120.184 74.4544C120.26 74.2009 120.079 73.9873 119.945 73.798C119.765 73.5844 119.62 73.36 119.439 73.1463C119.361 73.0166 119.248 72.8976 119.097 72.9053C118.795 72.9208 118.315 73.6052 118.32 73.8724C118.357 74.2449 118.688 74.4509 118.998 74.5865Z" fill="#160D01"/>
<path d="M119.281 76.7653C119.86 76.7802 120.802 76.2238 121.15 75.7334C121.307 75.4936 121.315 75.1454 121.1 74.9425C120.807 74.6098 120.372 74.8193 120.043 74.9966C119.725 75.2091 119.396 75.3864 119.078 75.5989C118.913 75.6875 118.759 75.8113 118.686 75.9488C118.54 76.2237 118.693 76.5993 118.957 76.7106C119.084 76.7487 119.176 76.7975 119.281 76.7653Z" fill="#160D01"/>
<path d="M116.743 79.4991C117.09 79.5081 117.713 79.1641 117.919 78.8326C118.027 78.6844 118.033 78.4523 117.874 78.3089C117.693 78.0952 117.424 78.216 117.2 78.3612C117.011 78.4957 116.776 78.6058 116.587 78.7403C116.493 78.8076 116.399 78.8748 116.315 78.9772C116.218 79.1605 116.328 79.3956 116.5 79.4581C116.627 79.4961 116.697 79.4747 116.743 79.4991Z" fill="#160D01"/>
<path d="M118.189 76.8299C117.445 76.9037 117.963 77.9738 118.057 78.4058C118.132 78.6516 118.218 78.9325 118.412 79.0652C118.641 79.1873 118.991 79.0801 119.102 78.8159C119.164 78.6433 119.121 78.5029 119.103 78.3166C119.012 77.7685 119.003 76.7347 118.189 76.8299Z" fill="#160D01"/>
<path d="M116.633 77.3827C116.246 77.1172 116.043 77.832 115.897 78.1069C115.824 78.2444 115.761 78.417 115.815 78.5926C115.869 78.7681 116.087 78.855 116.251 78.7664C116.346 78.6991 116.394 78.6075 116.443 78.5158C116.648 78.1843 117.067 77.6725 116.633 77.3827Z" fill="#160D01"/>
<path d="M114.124 77.0739C114.339 77.2768 114.781 77.2185 114.927 76.9436C115.025 76.7603 115.006 76.574 114.952 76.3984C114.848 75.9313 114.537 74.913 113.898 74.9546C112.957 75.0117 113.715 76.2389 113.89 76.6847C113.968 76.8144 114.011 76.9549 114.124 77.0739Z" fill="#160D01"/>
<path d="M117.805 75.9493C118.686 75.9488 118.14 75.0406 117.952 74.6758C117.874 74.546 117.831 74.4056 117.729 74.3217C117.627 74.2377 117.489 74.1645 117.339 74.1723C117.163 74.2258 117.055 74.374 117.039 74.571C117.012 74.7329 117.065 74.9084 117.119 75.084C117.173 75.2596 117.237 75.4702 117.326 75.6351C117.46 75.8244 117.619 75.9678 117.805 75.9493Z" fill="#160D01"/>
<path d="M117.467 80.2374C117.527 79.6816 117.056 79.5185 116.713 79.7768C116.276 80.1023 115.871 80.5332 115.444 80.8938C115.439 81.1259 115.678 81.283 115.91 81.289C116.142 81.295 116.342 81.1956 116.53 81.0611C116.719 80.9266 116.943 80.7814 117.132 80.6469C117.272 80.604 117.45 80.4344 117.467 80.2374Z" fill="#160D01"/>
<path d="M115.285 80.75C114.841 80.425 114.45 80.775 114.543 81.207C114.634 81.7552 114.806 82.317 114.943 82.8895C115.126 82.9871 115.395 82.8663 115.528 82.6723C115.66 82.4783 115.666 82.2462 115.637 82.0248C115.642 81.7927 115.602 81.5362 115.573 81.3148C115.463 81.0797 115.433 80.8583 115.285 80.75Z" fill="#160D01"/>
<path d="M113.071 80.2753C112.894 79.9456 112.578 80.042 112.478 80.3414C112.353 80.6866 112.321 81.0805 112.207 81.4608C112.285 81.5906 112.471 81.5721 112.6 81.4942C112.73 81.4162 112.803 81.2787 112.876 81.1412C112.949 81.0038 112.976 80.8419 113.049 80.7044C113.076 80.5425 113.103 80.3807 113.071 80.2753Z" fill="#160D01"/>
<path d="M112.953 79.8896C113.398 79.7152 113.388 79.1808 112.951 79.007C112.768 78.9094 112.536 78.9034 112.315 78.9326C111.932 78.9344 111.515 78.9469 111.132 78.9486C110.9 78.9427 110.598 78.9582 110.466 79.1522C110.309 79.392 110.452 79.7324 110.726 79.8788C110.966 80.0359 111.303 80.0098 111.559 79.9699C111.966 79.9223 112.578 80.0425 112.953 79.8896Z" fill="#160D01"/>
<path d="M112.449 78.2384C112.572 78.3926 112.766 78.5253 112.952 78.5068C113.128 78.4533 113.249 78.2242 113.196 78.0486C113.177 77.8623 113.007 77.6838 112.884 77.5296C112.693 77.2809 112.381 76.7619 112.033 76.753C111.419 76.7488 111.577 77.3915 111.859 77.6891C112.064 77.8569 112.244 78.0706 112.449 78.2384Z" fill="#160D01"/>
<path d="M114.751 77.9956C114.913 78.023 115.109 78.0397 115.193 77.9373C115.312 77.8242 115.248 77.6135 115.134 77.4945C115.021 77.3755 114.86 77.3481 114.687 77.2856C114.434 77.2094 113.987 77.0005 113.774 77.1809C113.361 77.4606 113.77 77.7962 114.094 77.851C114.301 77.9028 114.544 77.9438 114.751 77.9956Z" fill="#160D01"/>
<path d="M115.238 79.8434C115.41 79.9059 115.596 79.8875 115.726 79.8095C115.89 79.7208 115.988 79.5375 115.934 79.362C115.902 79.2566 115.835 79.162 115.767 79.0674C115.587 78.8537 115.243 78.2294 114.979 78.1181C114.726 78.0419 114.337 78.2758 114.272 78.5645C114.196 78.818 114.387 79.0668 114.568 79.2804C114.759 79.5292 114.95 79.778 115.238 79.8434Z" fill="#160D01"/>
<path d="M114.421 80.0547C114.343 79.9249 114.17 79.8624 114.019 79.8702C113.626 79.8368 113.542 79.9392 113.396 80.2141C113.31 80.4326 113.15 80.7884 113.144 81.0205C113.171 81.358 113.534 81.6692 113.861 81.608C114.006 81.333 114.163 81.0932 114.274 80.8289C114.466 80.5784 114.601 80.2683 114.421 80.0547Z" fill="#160D01"/>
<path d="M118.126 80.7651C118.134 80.9163 118.153 81.1025 118.231 81.2323C118.32 81.3971 118.548 81.5191 118.759 81.4549C118.98 81.4257 119.112 81.2317 119.129 81.0347C119.156 80.8728 119.067 80.708 118.989 80.5783C118.833 80.3188 118.667 80.0242 118.546 79.754C117.96 79.9712 118.06 80.1712 118.126 80.7651Z" fill="#160D01"/>
<path d="M122.475 77.9389C121.739 78.1638 120.922 78.3751 120.208 78.6703C119.738 78.8905 119.56 79.5594 120.193 79.7498C120.273 79.7635 120.319 79.7879 120.4 79.8016C120.909 79.8379 121.403 79.5719 121.827 79.3273C122.086 79.1714 122.345 79.0155 122.501 78.7756C122.658 78.5358 122.691 78.1418 122.475 77.9389Z" fill="#160D01"/>
<path d="M129.44 76.271C129.297 76.4299 129.087 76.4942 128.876 76.5584C128.059 76.7697 127.242 76.981 126.45 77.1464C126.31 77.1892 126.169 77.2321 126.043 77.194C125.916 77.1559 125.803 77.0369 125.806 76.9208C125.833 76.759 125.998 76.6703 126.184 76.6518C126.895 76.4727 127.632 76.2478 128.343 76.0686C128.589 75.9937 129.128 75.7521 129.371 75.7931C129.546 75.7396 129.65 76.2067 129.44 76.271Z" fill="#160D01"/>
<path d="M125.516 79.7353C125.502 79.8162 125.534 79.9216 125.591 79.9811C125.647 80.0406 125.763 80.0436 125.833 80.0222C126.16 79.9609 126.365 79.6294 126.349 79.327C126.331 79.1408 126.231 78.9408 126.143 78.7759C125.887 78.3165 125.656 77.8112 125.366 77.3625C125.199 77.0679 125.069 77.1459 124.934 77.4559C124.81 77.8011 124.92 78.0362 125.097 78.3659C125.366 78.7444 125.517 79.236 125.516 79.7353Z" fill="#160D01"/>
<path d="M123.802 75.3838C123.57 75.3778 123.314 75.4177 123.252 75.5903C123.214 75.717 123.268 75.8926 123.37 75.9765C123.472 76.0604 123.645 76.1229 123.771 76.161C124.302 76.2675 124.822 76.339 125.367 76.3646C125.518 76.3568 125.669 76.3491 125.763 76.2818C125.857 76.2146 125.92 76.042 125.877 75.9016C125.842 75.413 125.562 75.4986 125.169 75.4653C124.729 75.4076 124.266 75.3957 123.802 75.3838Z" fill="#160D01"/>
<path d="M121.141 76.5807C121.046 76.6479 120.917 76.7259 120.833 76.8282C120.749 76.9306 120.722 77.0925 120.789 77.1871C120.867 77.3169 121.029 77.3442 121.169 77.3014C121.309 77.2585 121.404 77.1913 121.523 77.0782C121.914 76.7283 122.332 76.2165 122.484 75.7094C121.867 75.322 121.553 76.301 121.141 76.5807Z" fill="#160D01"/>
<path d="M122.6 74.3304C122.505 74.3976 122.422 74.5 122.465 74.6405C122.497 74.7458 122.634 74.819 122.75 74.822C122.866 74.825 123.006 74.7821 123.111 74.75C123.357 74.675 123.599 74.7161 123.852 74.7922C124.025 74.8547 124.162 74.9279 124.337 74.8744C124.443 74.8422 124.561 74.7292 124.564 74.6131C124.649 74.0114 122.894 74.1638 122.6 74.3304Z" fill="#160D01"/>
<path d="M125.419 74.2752C125.497 74.4049 125.54 74.5454 125.642 74.6293C125.744 74.7132 125.882 74.7864 126.033 74.7787C126.184 74.7709 126.302 74.6578 126.295 74.5067C126.308 74.4257 126.252 74.3662 126.23 74.296C126.12 74.0609 126.01 73.8258 125.889 73.5557C125.857 73.4503 125.79 73.3557 125.709 73.342C125.526 73.2444 125.277 73.4354 125.215 73.608C125.139 73.8615 125.309 74.0401 125.419 74.2752Z" fill="#160D01"/>
<path d="M121.681 75.3404C121.762 75.354 121.878 75.357 121.948 75.3356C122.018 75.3142 122.112 75.2469 122.161 75.1553C122.21 75.0636 122.167 74.9232 122.1 74.8286C122.046 74.653 121.968 74.5232 121.914 74.3477C121.815 74.1477 121.331 73.5663 121.26 74.087C121.257 74.2031 121.681 75.3404 121.681 75.3404Z" fill="#160D01"/>
<path d="M122.854 77.1712C123.027 77.2337 123.258 77.2397 123.455 77.2564C123.571 77.2593 123.652 77.273 123.768 77.276C123.919 77.2683 124.07 77.2605 124.175 77.2284C124.304 77.1504 124.377 77.013 124.334 76.8725C124.302 76.7672 124.211 76.7184 124.095 76.7154C124.014 76.7017 123.898 76.6987 123.817 76.685C123.62 76.6684 123.424 76.6517 123.24 76.5541C123.068 76.4916 122.853 76.2887 122.677 76.3422C122.2 76.4113 122.59 77.06 122.854 77.1712Z" fill="#160D01"/>
<path d="M120.639 80.9579C120.765 80.996 120.892 81.0341 120.997 81.002C121.207 80.9377 121.353 80.6627 121.254 80.4628C120.896 80.4187 120.505 80.2693 120.209 80.0527C119.958 79.8605 119.711 79.5522 119.403 79.7997C118.753 80.3056 120.34 80.8573 120.639 80.9579Z" fill="#160D01"/>
<path d="M132.859 101.256C132.544 101.352 132.161 101.354 131.679 101.156C130.852 100.833 130.335 100.146 129.897 99.589L127.056 95.8116C125.956 94.3434 124.799 92.8157 124.077 91.0785C123.258 89.0253 123.18 87.0143 123.904 85.3723C124.483 84.0053 125.552 82.9877 126.491 82.048L131.981 76.6847C132.872 75.8367 133.892 74.9107 135.199 75.0488C136.39 75.1839 137.249 76.1117 137.945 77.0122L144.028 84.7514C144.545 85.4382 145.072 86.1601 145.003 87.0641C144.948 87.8872 144.376 88.5227 143.946 88.9994L136.28 97.5234C136.053 97.7847 135.815 98.0108 135.578 98.237C134.984 98.8023 134.401 99.4028 134.095 100.034C133.914 100.319 133.56 101.042 132.859 101.256ZM134.467 76.0403C133.801 76.2438 133.207 76.8091 132.638 77.3287L127.148 82.6919C126.233 83.5858 125.259 84.5362 124.777 85.7199C123.942 87.6261 124.564 89.6627 124.956 90.6946C125.611 92.3372 126.746 93.7947 127.801 95.2385L130.642 99.0159C131.091 99.6081 131.462 100.07 131.99 100.293C132.599 100.529 132.896 100.247 133.201 99.6158C133.58 98.8475 134.233 98.2256 134.84 97.5793C135.078 97.3532 135.304 97.0919 135.507 96.8765L143.174 88.3525C143.603 87.8758 143.938 87.4664 143.984 86.9915C144.045 86.4356 143.652 85.903 143.213 85.3459L137.131 77.6067C136.512 76.836 135.858 76.076 135.071 76.0093C134.864 75.9575 134.678 75.976 134.467 76.0403Z" fill="#3D2604"/>
<path d="M143.572 88.6531C144.002 88.1764 144.455 87.6539 144.529 87.0171C144.57 86.275 144.1 85.6126 143.661 85.0555C141.649 82.4839 139.591 79.8879 137.579 77.3163C136.949 76.5105 136.182 75.6315 135.153 75.5237C134.042 75.4023 133.117 76.2611 132.31 77.0067C130.48 78.7945 128.65 80.5822 126.82 82.37C125.845 83.3204 124.847 84.3166 124.341 85.5462C123.627 87.2232 123.845 89.1914 124.522 90.9042C125.198 92.617 126.334 94.0745 127.434 95.5427C128.389 96.7865 129.344 98.0304 130.275 99.32C130.713 99.8771 131.173 100.504 131.863 100.754C132.816 101.116 133.305 100.582 133.659 99.8599C134.135 98.9083 135.176 98.0525 135.927 97.2473C137.56 95.4429 139.193 93.6385 140.827 91.834C141.723 90.7539 142.63 89.7089 143.572 88.6531Z" fill="#FFE7C0"/>
<path d="M135.152 75.5233C134.042 75.4018 133.116 76.2606 132.309 77.0063C130.479 78.794 128.649 80.5818 126.819 82.3695C125.845 83.3199 124.846 84.3162 124.34 85.5457C123.699 87.0853 123.807 88.8183 124.336 90.4228C125.206 90.3871 126.198 90.1223 126.789 89.673C127.642 88.9517 128.594 88.4304 129.504 87.7686C131.63 86.1975 133.317 84.0693 134.329 81.6103C134.71 80.7259 134.989 79.7576 135.209 78.8459C135.35 78.3037 135.48 77.7264 135.459 77.1569C135.439 76.5874 135.313 76.0499 135.152 75.5233Z" fill="white"/>
<path d="M137.106 90.8211C138.303 90.2248 139.284 89.0423 139.223 87.7169C139.193 86.613 138.496 85.7125 138.034 84.702C137.327 83.2671 137.09 81.612 137.337 80.0391C137.394 79.5993 137.522 79.1381 137.452 78.6602C137.394 78.2174 137.128 77.7228 136.678 77.63C136.171 77.4776 135.664 77.8246 135.238 78.1852C133.98 79.3374 133.153 80.8954 132.867 82.5951C132.789 82.9647 132.732 83.4045 132.378 83.6277C132.154 83.7729 131.831 83.7181 131.575 83.758C130.599 83.8258 129.827 84.5608 129.308 85.3719C128.79 86.1831 128.373 87.0782 127.661 87.7566C127.28 88.1417 126.822 88.397 126.43 88.7469C126.039 89.0968 125.68 89.5521 125.609 90.0728C125.5 90.7203 125.844 91.3446 126.391 91.7535C126.892 92.138 127.56 92.3177 128.196 92.3921C129.387 92.5272 130.587 92.3142 131.754 91.9958C132.245 91.8458 132.795 91.6393 133.329 91.6298C133.908 91.6447 134.536 91.568 135.119 91.4668C135.76 91.3091 136.472 91.13 137.106 90.8211Z" fill="#DD1D1D"/>
<path opacity="0.1" d="M145.147 38.2713L88.9023 34.8057L88.6851 38.3967L144.93 41.8623L145.147 38.2713Z" fill="white"/>
<path opacity="0.1" d="M144.148 42.9675L87.9033 39.502L87.8035 41.1509L144.048 44.6165L144.148 42.9675Z" fill="white"/>
<path opacity="0.1" d="M169.523 106.943L97.9814 102.535L97.8529 104.66L169.394 109.069L169.523 106.943Z" fill="white"/>
<path opacity="0.1" d="M172.467 98.6405L100.926 94.2324L100.861 95.2951L172.403 99.7032L172.467 98.6405Z" fill="white"/>
<path opacity="0.1" d="M170.623 100.785L99.082 96.377L98.8049 100.957L170.346 105.365L170.623 100.785Z" fill="white"/>
</g>
</g>
<g clip-path="url(#clip2)">
<path d="M50.9578 36.1881C53.1848 35.6996 55.5191 35.5621 57.7647 35.2599C61.3609 34.7368 64.8741 33.8168 68.2129 32.451C68.763 32.2445 69.3375 31.9922 69.8554 31.6803L69.8447 31.6452C70.4263 30.1622 70.7118 28.4625 70.9136 26.8651C70.9515 26.7384 70.9436 26.5872 70.9708 26.4253C71.1232 25.419 71.1654 24.1775 70.8765 22.7302C70.7935 22.3332 70.2491 22.3076 70.0896 22.6635L70.0652 22.7093C69.9543 22.9736 69.6739 23.0592 69.4343 22.9021L67.9964 21.9594L67.331 23.5448C67.2201 23.8091 66.9397 23.8948 66.7001 23.7376L65.2622 22.7949L64.5968 24.3804C64.4859 24.6446 64.2055 24.7303 63.9658 24.5732L62.528 23.6304L61.8626 25.2159C61.7517 25.4801 61.4713 25.5658 61.2316 25.4087L59.7937 24.466L59.1284 26.0514C59.0175 26.3156 58.7371 26.4013 58.4974 26.2442L57.1053 25.3259C57.1404 25.3152 57.1053 25.3259 57.0703 25.3366C57.0352 25.3473 57.0002 25.358 56.9758 25.4038L56.3348 26.9434C56.2239 27.2077 55.9435 27.2934 55.7038 27.1363L54.301 26.1828L53.6357 27.7682C53.5248 28.0325 53.2443 28.1182 53.0047 27.9611L51.5668 27.0183L50.9015 28.6038C50.7906 28.868 50.5101 28.9537 50.2705 28.7966L48.8326 27.8539L48.1673 29.4393C48.0564 29.7035 47.7759 29.7892 47.5363 29.6321L46.0984 28.6894L45.433 30.2748C45.3222 30.539 45.0417 30.6247 44.8021 30.4676L43.3642 29.5249L42.6988 31.1103C42.5879 31.3746 42.3075 31.4603 42.0679 31.3031L40.63 30.3604L39.9646 31.9458C39.8537 32.2101 39.5733 32.2958 39.3337 32.1387L37.8958 31.1959L37.2304 32.7814C37.1195 33.0456 36.8391 33.1313 36.5995 32.9742L36.4056 32.8415C36.0636 32.6004 35.6373 32.9611 35.7904 33.3366C36.4241 34.9089 37.2311 36.0445 38.0008 36.8074C38.0115 36.8426 38.0573 36.867 38.068 36.9021C38.8671 37.8864 40.0117 38.4965 41.0025 39.2303C41.3551 39.5064 41.6728 39.7933 41.931 40.1367C42.0362 40.1046 42.1306 40.0373 42.225 39.9701C43.5199 39.1905 44.7232 38.3621 46.1067 37.7473C47.7006 37.0683 49.3024 36.5404 50.9578 36.1881Z" fill="#B75009"/>
<path d="M83.8134 111.724C81.5864 112.213 79.2521 112.35 77.0065 112.652C73.4103 113.175 69.897 114.095 66.5583 115.461C66.0082 115.668 65.4337 115.92 64.9158 116.232L64.9265 116.267C64.3449 117.75 64.0594 119.45 63.8576 121.047C63.8197 121.174 63.8276 121.325 63.8004 121.487C63.648 122.493 63.6057 123.735 63.8947 125.182C63.9777 125.579 64.5221 125.604 64.6816 125.249L64.706 125.203C64.8168 124.939 65.0973 124.853 65.3369 125.01L66.7748 125.953L67.4402 124.367C67.551 124.103 67.8315 124.017 68.0711 124.174L69.509 125.117L70.1744 123.532C70.2853 123.268 70.5657 123.182 70.8053 123.339L72.2432 124.282L72.9086 122.696C73.0195 122.432 73.2999 122.346 73.5395 122.503L74.9774 123.446L75.6428 121.861C75.7537 121.596 76.0341 121.511 76.2737 121.668L77.6659 122.586C77.7116 122.611 77.7467 122.6 77.7817 122.589C77.8168 122.578 77.8519 122.568 77.8762 122.522L78.5172 120.982C78.6281 120.718 78.9085 120.632 79.1482 120.79L80.5861 121.732L81.2514 120.147C81.3623 119.883 81.6427 119.797 81.8824 119.954L83.3203 120.897L83.9856 119.311C84.0965 119.047 84.3769 118.961 84.6166 119.118L86.0545 120.061L86.7198 118.476C86.8307 118.212 87.1111 118.126 87.3508 118.283L88.7887 119.226L89.454 117.64C89.5649 117.376 89.8453 117.29 90.085 117.447L91.5229 118.39L92.1882 116.805C92.2991 116.541 92.5795 116.455 92.8192 116.612L94.2571 117.555L94.9224 115.969C95.0333 115.705 95.3138 115.619 95.5534 115.776L96.9913 116.719L97.6566 115.134C97.7675 114.869 98.048 114.784 98.2876 114.941L98.4815 115.074C98.8234 115.315 99.2498 114.954 99.0967 114.578C98.4629 113.006 97.656 111.871 96.8863 111.108C96.8755 111.073 96.8298 111.048 96.819 111.013C96.02 110.029 94.8754 109.419 93.8846 108.685C93.5319 108.409 93.2143 108.122 92.9561 107.778C92.8509 107.811 92.7565 107.878 92.662 107.945C91.3672 108.725 90.1639 109.553 88.7803 110.168C87.0598 110.809 85.4688 111.372 83.8134 111.724Z" fill="#B75009"/>
<path d="M70.4983 29.5834L40.8076 38.6562L65.1858 118.433L94.8765 109.36L70.4983 29.5834Z" fill="#EA680F"/>
<path fill-rule="evenodd" clip-rule="evenodd" d="M61.7217 57.2395C57.8557 57.8834 54.9677 58.8427 53.6743 60.5048C52.6392 58.748 51.9031 57.0917 51.8137 55.545C51.6371 52.8347 53.0321 51.7558 54.5179 51.2249C56.3436 50.5519 59.4813 50.2841 61.9615 49.8717C65.175 49.3505 67.9765 48.6096 69.5017 46.9533C70.5697 48.3162 71.1577 49.8642 71.3601 51.5299C71.6377 53.4415 70.8407 54.7216 69.1524 55.4679C66.9597 56.4451 64.272 56.8057 61.7217 57.2395Z" fill="white"/>
<path fill-rule="evenodd" clip-rule="evenodd" d="M58.3826 51.0806C58.663 50.9949 58.8676 51.1627 58.9427 51.4085C59.0178 51.6543 58.942 51.9078 58.7073 52.0179C58.4269 52.1036 58.2223 51.9358 58.1472 51.69C58.037 51.4549 58.0671 51.177 58.3826 51.0806ZM58.3289 50.905C57.9433 51.0229 57.7273 51.3192 57.856 51.7406C57.9848 52.1619 58.3053 52.3328 58.7259 52.2042C59.1466 52.0757 59.3276 51.79 59.1988 51.3687C59.0593 50.9122 58.7145 50.7872 58.3289 50.905ZM57.0283 51.9167L56.9103 51.5305C57.0856 51.4769 57.2852 51.3775 57.3495 51.5882C57.4139 51.7989 57.1685 51.8739 57.0283 51.9167ZM56.9518 52.6696L57.1971 52.5946L57.0469 52.103C57.2572 52.0387 57.5026 51.9638 57.5892 51.7453C57.6757 51.5269 57.4983 51.1972 57.1478 51.3043L56.5869 51.4757L56.9518 52.6696ZM55.3143 51.8262L55.5596 51.7513C55.5918 51.8566 55.785 52.4886 55.8172 52.594C55.9381 52.8642 56.4181 52.6791 56.3673 52.3875C56.3136 52.2119 56.1742 51.7554 56.1205 51.5799L56.3659 51.5049C56.4088 51.6453 56.6127 52.3125 56.6556 52.4529C56.6928 52.8255 56.202 52.9755 55.9245 52.9451C55.6819 52.904 55.6283 52.7285 55.5746 52.5529L55.3143 51.8262ZM54.6447 52.6451L54.5374 52.294C54.7126 52.2404 54.9473 52.1303 55.0116 52.341C55.076 52.5517 54.7849 52.6023 54.6447 52.6451ZM54.5681 53.398L54.8135 53.323L54.6525 52.7963L54.7927 52.7534L55.2341 53.1944L55.5496 53.098L55.0274 52.6434C55.1461 52.5303 55.2649 52.4172 55.2005 52.2065C55.1254 51.9607 54.8936 51.9548 54.7183 52.0083L54.1575 52.1797L54.5681 53.398ZM53.6982 52.9343L53.7518 53.1099L53.9622 53.0456L54.0373 53.2914C53.8484 53.4259 53.5329 53.5223 53.3527 53.3087C53.1724 53.095 53.1488 52.6415 53.5344 52.5237C53.6746 52.4809 53.7905 52.4838 53.9035 52.6029L53.9901 52.3845C53.842 52.2761 53.6911 52.2839 53.4807 52.3481C52.6745 52.5945 52.932 53.4372 53.3226 53.5866C53.6324 53.7223 54.0315 53.5235 54.2905 53.3676L54.1081 52.7707L53.6982 52.9343ZM60.208 57.9324C57.9353 58.3966 55.7941 59.166 54.7947 60.6616C54.3526 60.7199 53.9105 60.7782 53.4684 60.8365C52.4275 59.3118 51.7859 57.5883 51.4733 55.6874C51.2766 53.7895 51.7402 51.9202 53.9408 51.0942C56.2114 50.2468 59.573 49.8338 62.8001 49.2316C65.1186 48.7918 67.0173 47.9813 68.0382 46.556C68.5718 46.5465 69.0705 46.5477 69.6041 46.5381C70.7258 48.0766 71.2866 49.7864 71.5563 51.5468C71.9003 54.0523 70.6155 55.3664 68.5473 55.9984C65.6836 56.9118 62.586 57.4361 60.208 57.9324ZM61.7211 57.2397C57.8551 57.8836 54.9671 58.8429 53.6737 60.505C52.6386 58.7482 51.9025 57.0919 51.8131 55.5452C51.6365 52.8349 53.0315 51.756 54.5173 51.2251C56.343 50.5521 59.4807 50.2843 61.9609 49.8719C65.1744 49.3507 67.9759 48.6098 69.5011 46.9535C70.5691 48.3164 71.1571 49.8644 71.3596 51.5301C71.6371 53.4417 70.8401 54.7218 69.1518 55.4681C66.9591 56.4453 64.2714 56.8059 61.7211 57.2397Z" fill="#3D438B"/>
<path fill-rule="evenodd" clip-rule="evenodd" d="M65.0708 54.028L64.2996 54.2636L63.5914 51.9462L64.2575 51.7426C64.608 51.6355 64.7804 51.698 64.8341 51.8736C64.9199 52.1545 64.8226 52.3378 64.5422 52.4235L64.2968 52.4985L64.1852 53.262L64.7811 53.0799C65.0615 52.9942 65.4063 53.1192 65.4464 53.3757C65.5429 53.6917 65.3863 53.9316 65.0708 54.028ZM65.4363 54.7225L63.5785 55.2902L62.4089 51.4629L64.1967 50.9166C64.8276 50.7238 65.4071 50.7387 65.6596 51.3142C65.8585 51.7141 65.8148 52.073 65.5637 52.3801C66.1189 52.4408 66.5116 52.9734 66.508 53.5888C66.5044 54.2042 65.892 54.5832 65.4363 54.7225ZM67.9245 50.6988C68.4854 50.5275 69.0806 50.8447 69.263 51.4416C69.4347 52.0034 69.1292 52.6342 68.5683 52.8056C68.0075 52.977 67.4123 52.6598 67.2299 52.0629C67.0474 51.466 67.3637 50.8702 67.9245 50.6988ZM67.6455 49.7859C68.6972 49.4646 69.8418 50.0746 70.1744 51.1631C70.507 52.2516 69.8989 53.3972 68.8473 53.7186C67.7957 54.0399 66.6511 53.4299 66.3185 52.3414C65.9858 51.2529 66.5939 50.1073 67.6455 49.7859ZM62.0233 51.5807L63.1929 55.4081L62.2464 55.6973L61.5061 53.2745L61.6155 55.8901L60.7041 56.1686L59.3785 53.963L60.1081 56.3507L59.1967 56.6292L58.0272 52.8019L59.4994 52.352L60.6447 54.3439L60.481 52.052L62.0233 51.5807ZM56.7302 53.1982L57.6766 52.909L58.8462 56.7363L57.8997 57.0255L56.7302 53.1982ZM55.9568 56.813L55.1856 57.0487L54.4774 54.7312L55.1434 54.5277C55.494 54.4206 55.6664 54.4831 55.72 54.6586C55.8059 54.9396 55.7086 55.1229 55.4281 55.2085L55.1828 55.2835L55.0711 56.0471L55.6671 55.865C55.9475 55.7793 56.2923 55.9043 56.3324 56.1608C56.4289 56.4768 56.2372 56.7273 55.9568 56.813ZM56.3223 57.5076L54.4645 58.0753L53.2949 54.248L55.0826 53.7017C55.7136 53.5088 56.2931 53.5237 56.5456 54.0992C56.7445 54.4992 56.7008 54.858 56.4497 55.1651C57.0048 55.2258 57.3976 55.7585 57.394 56.3739C57.3553 56.9999 56.778 57.3683 56.3223 57.5076Z" fill="#DA243C"/>
<mask id="mask1" mask-type="alpha" maskUnits="userSpaceOnUse" x="40" y="29" width="55" height="90">
<path d="M70.4485 29.7338L40.7578 38.8066L65.136 118.583L94.8267 109.511L70.4485 29.7338Z" fill="#EA680F"/>
</mask>
<g mask="url(#mask1)">
<path d="M90.2153 74.1008C89.5236 73.4676 88.5671 73.2224 87.6536 73.1176C86.74 73.0129 85.7886 73.0349 84.8886 72.8492C83.9887 72.6635 83.0594 72.2564 82.5215 71.4994C82.3305 71.2506 82.2096 70.9804 82.0186 70.7316C81.8276 70.4829 81.5421 70.3013 81.2403 70.3168C80.7173 70.3614 80.4819 70.9709 80.0341 71.2613C79.6213 71.541 79.112 71.5047 78.6269 71.4225C78.1419 71.3404 77.6462 71.2231 77.1905 71.3624C76.7348 71.5016 76.3055 71.9783 76.4801 72.4241C76.6303 72.9157 77.277 73.0252 77.7785 72.9103C78.2692 72.7604 78.7171 72.47 79.2293 72.3902C80.0326 72.2599 80.8324 72.7449 81.3976 73.3401C81.9627 73.9352 82.4091 74.6435 82.9985 75.1928C83.8033 75.945 84.7977 76.0635 85.8651 76.0445C86.9675 76.0147 88.0827 76.4034 88.7552 77.3496C89.2931 78.1067 89.4669 79.0517 89.6057 80.0075C89.7044 80.7068 89.8138 81.4412 89.5892 82.0857C89.4404 82.4767 89.1893 82.7838 88.9381 83.0909C88.7643 82.1458 88.6012 81.2359 88.4274 80.2908C88.2751 79.4159 88.1013 78.4709 87.574 77.749C87.0468 77.027 86.026 76.5712 85.2169 76.9336C84.3134 77.3632 84.128 78.7636 84.8899 79.3754C85.3098 79.7462 85.9565 79.8557 86.2927 80.3288C86.742 80.921 86.4064 81.8298 85.8048 82.244C85.2139 82.6933 84.4348 82.7778 83.7016 82.8867C80.267 83.4371 76.9526 84.757 74.0524 86.6799C72.3662 87.8094 70.8496 89.1175 69.1527 90.2119C67.7741 91.0939 66.2825 91.8568 64.6865 92.1525C63.999 92.2858 63.6671 92.5792 63.0576 92.8423C62.3429 93.1375 61.5639 93.2219 60.852 93.4011C60.0243 93.5772 59.2074 93.7885 58.5785 94.3645C57.6528 95.2233 57.5026 96.6129 57.3902 97.8758C57.3215 98.7798 57.2178 99.6945 57.3808 100.604C57.5439 101.514 57.9631 102.385 58.6685 102.937C59.7966 103.744 61.3654 103.61 62.5422 104.325C63.2962 104.786 63.7991 105.554 64.4937 106.071C64.8464 106.347 65.2935 106.556 65.7328 106.614C66.137 106.682 66.348 106.119 65.971 105.888C65.6963 105.742 65.4459 105.55 65.2306 105.347C64.913 105.06 65.2506 104.534 65.652 104.719C67.8417 105.739 70.5559 105.716 72.6949 104.563C73.612 104.052 74.4297 103.342 75.3469 102.831C76.1939 102.342 77.189 101.961 78.1483 102.09C78.31 102.118 78.4395 102.04 78.5232 101.937C78.9932 101.218 79.8831 100.869 80.7459 100.682C81.6895 100.509 82.6517 100.522 83.5738 100.279C86.2808 99.6052 88.0178 96.8861 88.8492 94.2133C89.4423 92.2661 89.6905 90.1938 89.6019 88.1477C89.5626 87.3919 89.4882 86.6468 89.368 85.8773C90.2766 85.7148 91.0807 85.0852 91.4377 84.2467C91.7811 83.4891 91.7446 82.6172 91.6838 81.7912C91.6423 80.6521 91.5766 79.5588 91.5351 78.4197C91.4958 77.6639 91.4457 76.873 91.3012 76.1493C91.1353 75.3554 90.7941 74.615 90.2153 74.1008Z" fill="white"/>
<path d="M67.6874 106.362C67.3075 106.248 66.884 106.492 66.5199 106.68C66.4254 106.748 66.3417 106.85 66.3846 106.99C66.4168 107.096 66.5084 107.145 66.6 107.193C66.8317 107.199 67.0256 107.332 67.1601 107.521C67.3053 107.746 67.3668 108.072 67.6444 108.103C67.771 108.141 67.9112 108.098 68.03 107.985C68.5401 107.522 68.377 106.612 67.6874 106.362Z" fill="white"/>
<path d="M72.2939 102.497C72.3483 102.174 72.1358 101.855 71.8611 101.708C71.5864 101.562 71.2387 101.553 70.9261 101.533C69.9532 101.485 69.0153 101.426 68.0424 101.378C66.8027 101.334 65.4606 101.207 64.5535 100.371C63.4097 99.2614 63.4476 97.2534 62.3038 96.1441C61.4882 95.3567 60.1734 95.0674 59.7463 94.0462C59.7141 93.9408 59.6819 93.8355 59.6497 93.7302C59.2398 93.8938 58.8757 94.0819 58.5438 94.3753C58.3062 94.6014 58.1496 94.8412 57.9929 95.0811C58.068 95.3269 58.1324 95.5375 58.2425 95.7726C58.7125 96.9343 59.5466 97.908 60.3943 98.8007C61.242 99.6934 62.1949 100.554 62.9832 101.503C63.4003 101.99 63.8037 102.558 64.4125 102.794C64.7573 102.919 65.1508 102.952 65.5335 102.951C66.4256 102.985 67.342 102.974 68.2341 103.008C69.1612 103.032 70.0776 103.021 70.9697 103.055C71.2015 103.061 71.4683 103.057 71.7137 102.982C72.0399 102.92 72.2531 102.74 72.2939 102.497Z" fill="#E5E5E5"/>
<path d="M62.7277 95.4004C63.4359 95.8366 64.2658 96.0437 65.0849 96.2157C65.904 96.3877 66.7338 96.5949 67.4664 96.9853C68.6782 97.6899 69.4472 98.9522 70.5753 99.7592C71.4989 100.398 72.582 100.682 73.6407 101.011C73.9397 101.111 74.228 101.177 74.565 101.151C74.8669 101.135 75.2067 100.993 75.3634 100.753C75.5444 100.468 75.5072 100.095 75.3405 99.8004C75.1738 99.5058 74.9478 99.2677 74.6867 99.0404C73.7903 98.2393 72.8939 97.4383 72.0326 96.6265C70.5468 95.2761 68.9695 93.8769 67.0701 93.3056C65.6773 92.8866 64.2029 92.9532 62.7528 92.974C62.149 93.0049 61.2677 93.0055 61.4687 93.7887C61.6375 94.4666 62.1569 95.0373 62.7277 95.4004Z" fill="#E5E5E5"/>
<path d="M68.2705 107.642C68.1954 107.397 67.9558 107.239 67.7269 107.117C67.4522 106.971 67.1639 106.905 66.8648 106.805C66.7382 106.767 66.5415 106.75 66.4363 106.782C66.412 106.828 66.3984 106.909 66.4091 106.944C66.4413 107.05 66.5329 107.098 66.6245 107.147C66.8562 107.153 67.0501 107.286 67.1846 107.475C67.3298 107.699 67.3913 108.026 67.6689 108.056C67.7955 108.095 67.9357 108.052 68.0545 107.939C68.1596 107.907 68.2326 107.769 68.2705 107.642Z" fill="#E5E5E5"/>
<path d="M58.7394 93.5093C57.7586 93.3099 56.7671 93.0754 55.9215 92.5659C54.5294 91.6476 53.8985 89.9592 53.3698 88.3547C52.9056 86.9609 52.4306 85.532 52.5244 84.0828C52.6396 82.7039 53.2749 81.3964 54.0797 80.2675C56.3239 77.2014 60.0432 75.4506 63.7826 74.7686C67.5219 74.0867 71.3542 74.3361 75.1407 74.5611C76.8197 74.6623 78.5552 74.823 79.9473 75.7414C81.4875 76.768 82.3015 78.554 83.0376 80.2103C83.5534 81.3964 84.0799 82.6176 84.0941 83.9186C84.0676 85.4623 83.3136 86.8829 82.5731 88.2225C81.4328 90.2602 80.2924 92.298 79.1871 94.325C78.6169 95.3438 78.0467 96.3627 77.4765 97.3815C77.209 97.8856 76.9063 98.4004 76.6388 98.9045C76.4442 99.2711 76.1573 100.088 75.8039 100.311C75.1915 100.69 73.921 99.543 73.3609 99.2151C72.4803 98.7163 71.5996 98.2176 70.6947 97.7647C68.8848 96.8589 67.0613 96.034 65.1649 95.3466C64.1304 94.9716 63.061 94.6074 62.0129 94.3134C61.4607 94.1366 60.9191 93.9949 60.3425 93.864C59.9383 93.7955 59.0899 93.4021 58.7394 93.5093Z" fill="#562B04"/>
<path d="M70.1422 83.0374C69.2959 83.0273 68.4246 83.5623 68.0354 84.2955C67.8895 84.5705 67.7406 84.9615 67.4359 85.093C67.2957 85.1358 67.1447 85.1436 66.9831 85.1162C65.9994 85.0329 64.9807 84.9602 64.0078 84.912C62.9083 84.8257 61.8545 84.7638 60.7929 84.5507C60.3079 84.4686 59.8014 84.3162 59.3056 84.199C58.8907 84.0954 58.4758 83.9918 58.0609 83.8883C57.4843 83.7573 56.8969 83.5913 56.3583 83.3336C55.9112 83.1247 55.502 82.789 54.9819 82.7176C54.4969 82.6355 54.0304 82.7396 53.5747 82.8789C53.3293 82.9538 52.9924 82.98 52.6769 83.0764C52.6254 83.2841 52.5739 83.4918 52.5682 83.7239C52.6733 83.6918 52.7434 83.6704 52.8135 83.6489C53.0346 83.6198 53.2664 83.6257 53.4982 83.6317C53.9617 83.6436 54.401 83.7013 54.8509 83.7942C55.6593 83.9311 56.5027 84.0573 57.3004 84.159C57.8312 84.2656 58.4321 84.3507 58.8413 84.6864C59.0917 84.8786 59.2476 85.1381 59.4873 85.2952C59.84 85.5713 60.3143 85.6184 60.7535 85.6761C62.3137 85.8904 63.8389 86.1154 65.4099 86.3648C65.93 86.4362 66.4958 86.532 66.8457 86.9242C67.252 87.3759 67.189 88.0478 67.3714 88.6447C67.508 89.2173 67.855 89.7255 68.3207 90.1207C68.1068 88.9191 68.3 87.6699 68.6656 86.4832C68.9854 85.2721 69.5692 84.1724 70.1422 83.0374Z" fill="#75461F"/>
<path d="M73.7076 73.3864C73.5974 73.1513 73.347 72.959 73.0909 72.9989C72.8348 73.0388 72.6781 73.2786 72.5565 73.5077C72.1838 74.044 71.7009 74.3451 71.2044 74.7271C70.6729 75.1199 71.6508 75.4354 72.0121 75.3634C72.4542 75.305 72.7861 75.0116 73.118 74.7183C73.3312 74.5379 73.5094 74.3683 73.631 74.1392C73.7176 73.9208 73.7827 73.6321 73.7076 73.3864Z" fill="#160D01"/>
<path d="M70.6914 72.0441C70.8101 71.9311 70.8724 71.7585 70.8996 71.5966C70.9268 71.4347 70.8731 71.2591 70.8545 71.0729C70.793 70.7461 70.7422 70.4545 70.6106 70.1492C70.5004 69.9141 70.1156 69.5326 69.8108 69.6642C69.5061 69.7957 69.6183 70.414 69.6477 70.6354C69.7199 70.9973 69.8272 71.3484 69.9803 71.7239C70.0232 71.8644 70.1012 71.9941 70.2035 72.078C70.3516 72.1864 70.5726 72.1572 70.6914 72.0441Z" fill="#160D01"/>
<path d="M67.613 70.3732C67.4406 70.3107 67.3169 70.1566 67.2282 69.9918C67.1395 69.8269 67.1209 69.6406 67.0672 69.4651C66.6358 69.5585 66.3633 69.7953 66.4784 70.2976C66.5292 70.5893 66.766 70.8624 67.0164 71.0547C67.1645 71.163 67.3583 71.2957 67.5551 71.3124C67.7518 71.329 67.9621 71.2648 68.0945 71.0708C68.2025 70.9226 68.1975 70.6553 68.0036 70.5226C67.9013 70.4387 67.7504 70.4464 67.613 70.3732Z" fill="#160D01"/>
<path d="M59.8754 84.5634C59.939 85.2734 59.9569 85.959 60.0206 86.669C60.3225 86.6535 60.6243 86.6381 60.8375 86.4577C60.9806 86.2988 61.0321 86.0911 61.0944 85.9186C61.2139 85.3062 61.3477 84.1135 60.8254 83.6588C60.1094 83.0714 59.8303 84.0397 59.8754 84.5634Z" fill="#160D01"/>
<path d="M62.5616 83.8192C62.3076 84.2423 62.226 84.7279 62.1094 85.2243C62.0686 85.4671 62.0278 85.7099 62.1273 85.9098C62.2832 86.1693 62.6659 86.1675 62.9786 86.1872C63.2805 86.1717 63.6525 86.1348 63.8091 85.895C63.8821 85.7575 63.9093 85.5956 63.9122 85.4796C63.9479 84.9696 64.2813 83.6775 63.8857 83.2609C63.4365 82.6688 62.7805 83.4067 62.5616 83.8192Z" fill="#160D01"/>
<path d="M60.1825 77.2901C60.498 77.1936 60.8135 77.0972 60.9594 76.8223C61.081 76.5932 61.0517 76.3718 61.0117 76.1153C60.9852 75.7778 61.0482 75.1059 60.717 74.9C60.5338 74.8024 59.8385 74.7845 59.6847 74.9083C59.4851 75.0077 59.4092 75.2612 59.4736 75.4719C59.5029 75.6933 59.6024 75.8933 59.7018 76.0932C59.8012 76.2932 59.8306 76.5146 59.7791 76.7223C59.7168 76.8949 59.6088 77.0431 59.6975 77.2079C59.7862 77.3728 60.0072 77.3436 60.1825 77.2901Z" fill="#160D01"/>
<path d="M67.9659 77.6751C67.4294 77.8006 67.0344 78.7659 66.837 79.2486C66.764 79.386 66.7018 79.5586 66.7096 79.7098C66.6824 79.8717 66.7361 80.0472 66.8491 80.1663C67.0079 80.3097 67.2504 80.3508 67.45 80.2514C67.6604 80.1871 67.8034 80.0282 67.9816 79.8586C68.2191 79.6324 68.4566 79.4063 68.6025 79.1314C68.8351 78.638 68.7829 77.4638 67.9659 77.6751Z" fill="#160D01"/>
<path d="M62.9978 74.5865C63.216 74.6734 63.4099 74.8062 63.6417 74.8121C63.8734 74.8181 64.1432 74.6973 64.1839 74.4544C64.2598 74.2009 64.0795 73.9873 63.945 73.798C63.7647 73.5844 63.6195 73.36 63.4393 73.1463C63.3613 73.0166 63.2483 72.8976 63.0973 72.9053C62.7954 72.9208 62.3147 73.6052 62.3197 73.8724C62.3569 74.2449 62.6881 74.4509 62.9978 74.5865Z" fill="#160D01"/>
<path d="M63.2807 76.7653C63.8602 76.7802 64.8017 76.2238 65.1501 75.7334C65.3067 75.4936 65.3153 75.1454 65.1 74.9425C64.8067 74.6098 64.3725 74.8193 64.0434 74.9966C63.725 75.2091 63.396 75.3864 63.0776 75.5989C62.9131 75.6875 62.7593 75.8113 62.6863 75.9488C62.5403 76.2237 62.6934 76.5993 62.9574 76.7106C63.084 76.7487 63.1756 76.7975 63.2807 76.7653Z" fill="#160D01"/>
<path d="M60.7427 79.4991C61.0904 79.5081 61.7135 79.1641 61.9188 78.8326C62.0268 78.6844 62.0326 78.4523 61.8738 78.3089C61.6935 78.0952 61.4238 78.216 61.1999 78.3612C61.011 78.4957 60.7763 78.6058 60.5875 78.7403C60.4931 78.8076 60.3986 78.8748 60.3149 78.9772C60.2176 79.1605 60.3278 79.3956 60.5002 79.4581C60.6268 79.4961 60.6969 79.4747 60.7427 79.4991Z" fill="#160D01"/>
<path d="M62.1886 76.8299C61.4446 76.9037 61.9632 77.9738 62.0569 78.4058C62.132 78.6516 62.2178 78.9325 62.4117 79.0652C62.6406 79.1873 62.9912 79.0801 63.1021 78.8159C63.1643 78.6433 63.1214 78.5029 63.1028 78.3166C63.012 77.7685 63.0027 76.7347 62.1886 76.8299Z" fill="#160D01"/>
<path d="M60.6334 77.3827C60.2457 77.1172 60.0425 77.832 59.8966 78.1069C59.8236 78.2444 59.7614 78.417 59.815 78.5926C59.8687 78.7681 60.0868 78.855 60.2514 78.7664C60.3458 78.6991 60.3945 78.6075 60.4431 78.5158C60.6484 78.1843 61.0669 77.6725 60.6334 77.3827Z" fill="#160D01"/>
<path d="M58.1239 77.0739C58.3392 77.2768 58.7813 77.2185 58.9273 76.9436C59.0245 76.7603 59.006 76.574 58.9523 76.3984C58.8479 75.9313 58.5367 74.913 57.8979 74.9546C56.9571 75.0117 57.7154 76.2389 57.89 76.6847C57.9679 76.8144 58.0109 76.9549 58.1239 77.0739Z" fill="#160D01"/>
<path d="M61.8049 75.9493C62.6862 75.9488 62.1404 75.0406 61.9523 74.6758C61.8743 74.546 61.8314 74.4056 61.7291 74.3217C61.6268 74.2377 61.4895 74.1645 61.3385 74.1723C61.1632 74.2258 61.0552 74.374 61.0388 74.571C61.0116 74.7329 61.0652 74.9084 61.1189 75.084C61.1725 75.2596 61.2369 75.4702 61.3256 75.6351C61.4601 75.8244 61.6189 75.9678 61.8049 75.9493Z" fill="#160D01"/>
<path d="M61.4669 80.2374C61.527 79.6816 61.0556 79.5185 60.7129 79.7768C60.2758 80.1023 59.8709 80.5332 59.4445 80.8938C59.4388 81.1259 59.6784 81.283 59.9102 81.289C60.142 81.295 60.3416 81.1956 60.5304 81.0611C60.7193 80.9266 60.9432 80.7814 61.1321 80.6469C61.2723 80.604 61.4504 80.4344 61.4669 80.2374Z" fill="#160D01"/>
<path d="M59.2853 80.75C58.8411 80.425 58.4497 80.775 58.5434 81.207C58.6343 81.7552 58.806 82.317 58.9426 82.8895C59.1257 82.9871 59.3954 82.8663 59.5278 82.6723C59.6601 82.4783 59.6658 82.2462 59.6365 82.0248C59.6422 81.7927 59.6022 81.5362 59.5729 81.3148C59.4627 81.0797 59.4334 80.8583 59.2853 80.75Z" fill="#160D01"/>
<path d="M57.071 80.2753C56.8936 79.9456 56.5781 80.042 56.478 80.3414C56.3535 80.6866 56.3206 81.0805 56.2068 81.4608C56.2848 81.5906 56.4708 81.5721 56.6003 81.4942C56.7297 81.4162 56.8027 81.2787 56.8757 81.1412C56.9487 81.0038 56.9759 80.8419 57.0488 80.7044C57.076 80.5425 57.1032 80.3807 57.071 80.2753Z" fill="#160D01"/>
<path d="M56.9525 79.8896C57.3975 79.7152 57.3875 79.1808 56.9511 79.007C56.768 78.9094 56.5362 78.9034 56.3152 78.9326C55.9324 78.9344 55.5146 78.9469 55.1319 78.9486C54.9001 78.9427 54.5982 78.9582 54.4659 79.1522C54.3092 79.392 54.4516 79.7324 54.7263 79.8788C54.9659 80.0359 55.3029 80.0098 55.559 79.9699C55.966 79.9223 56.5777 80.0425 56.9525 79.8896Z" fill="#160D01"/>
<path d="M56.4487 78.2384C56.5725 78.3926 56.7663 78.5253 56.9523 78.5068C57.1276 78.4533 57.2492 78.2242 57.1956 78.0486C57.177 77.8623 57.0074 77.6838 56.8837 77.5296C56.6927 77.2809 56.3808 76.7619 56.0331 76.753C55.4186 76.7488 55.5767 77.3915 55.8593 77.6891C56.0639 77.8569 56.2441 78.0706 56.4487 78.2384Z" fill="#160D01"/>
<path d="M58.751 77.9956C58.9127 78.023 59.1094 78.0397 59.1931 77.9373C59.3119 77.8242 59.2475 77.6135 59.1345 77.4945C59.0214 77.3755 58.8598 77.3481 58.6874 77.2856C58.4341 77.2094 57.987 77.0005 57.7738 77.1809C57.361 77.4606 57.7702 77.7962 58.0936 77.851C58.301 77.9028 58.5436 77.9438 58.751 77.9956Z" fill="#160D01"/>
<path d="M59.238 79.8434C59.4104 79.9059 59.5964 79.8875 59.7259 79.8095C59.8904 79.7208 59.9877 79.5375 59.9341 79.362C59.9019 79.2566 59.8347 79.162 59.7674 79.0674C59.5871 78.8537 59.2431 78.2294 58.9791 78.1181C58.7258 78.0419 58.3374 78.2758 58.2723 78.5645C58.1964 78.818 58.3874 79.0668 58.5677 79.2804C58.7587 79.5292 58.9497 79.778 59.238 79.8434Z" fill="#160D01"/>
<path d="M58.4207 80.0547C58.3427 79.9249 58.1703 79.8624 58.0194 79.8702C57.6259 79.8368 57.5422 79.9392 57.3963 80.2141C57.3097 80.4326 57.1502 80.7884 57.1444 81.0205C57.1709 81.358 57.5343 81.6692 57.8605 81.608C58.0065 81.333 58.1631 81.0932 58.274 80.8289C58.4658 80.5784 58.601 80.2683 58.4207 80.0547Z" fill="#160D01"/>
<path d="M62.1264 80.7651C62.1343 80.9163 62.1529 81.1025 62.2309 81.2323C62.3196 81.3971 62.5485 81.5191 62.7588 81.4549C62.9799 81.4257 63.1122 81.2317 63.1287 81.0347C63.1559 80.8728 63.0672 80.708 62.9892 80.5783C62.8332 80.3188 62.6666 80.0242 62.5457 79.754C61.9605 79.9712 62.0599 80.1712 62.1264 80.7651Z" fill="#160D01"/>
<path d="M66.4755 77.9389C65.7393 78.1638 64.9224 78.3751 64.2077 78.6703C63.7384 78.8905 63.5595 79.5594 64.1926 79.7498C64.2735 79.7635 64.3193 79.7879 64.4001 79.8016C64.9095 79.8379 65.4031 79.5719 65.8266 79.3273C66.0856 79.1714 66.3445 79.0155 66.5012 78.7756C66.6579 78.5358 66.6908 78.1418 66.4755 77.9389Z" fill="#160D01"/>
<path d="M73.4401 76.271C73.297 76.4299 73.0867 76.4942 72.8763 76.5584C72.0594 76.7697 71.2424 76.981 70.4497 77.1464C70.3095 77.1892 70.1693 77.2321 70.0427 77.194C69.9161 77.1559 69.803 77.0369 69.8059 76.9208C69.8331 76.759 69.9976 76.6703 70.1836 76.6518C70.8954 76.4727 71.6316 76.2478 72.3434 76.0686C72.5888 75.9937 73.1282 75.7521 73.3707 75.7931C73.546 75.7396 73.6504 76.2067 73.4401 76.271Z" fill="#160D01"/>
<path d="M69.5158 79.7353C69.5022 79.8162 69.5344 79.9216 69.5909 79.9811C69.6474 80.0406 69.7633 80.0436 69.8334 80.0222C70.1597 79.9609 70.365 79.6294 70.3492 79.327C70.3307 79.1408 70.2312 78.9408 70.1425 78.7759C69.8871 78.3165 69.6561 77.8112 69.3657 77.3625C69.199 77.0679 69.0695 77.1459 68.9343 77.4559C68.8098 77.8011 68.92 78.0362 69.0974 78.3659C69.3663 78.7444 69.5166 79.236 69.5158 79.7353Z" fill="#160D01"/>
<path d="M67.8021 75.3838C67.5704 75.3778 67.3143 75.4177 67.252 75.5903C67.2141 75.717 67.2677 75.8926 67.37 75.9765C67.4723 76.0604 67.6447 76.1229 67.7714 76.161C68.3022 76.2675 68.8223 76.339 69.3667 76.3646C69.5176 76.3568 69.6685 76.3491 69.763 76.2818C69.8574 76.2146 69.9197 76.042 69.8767 75.9016C69.8424 75.413 69.562 75.4986 69.1685 75.4653C68.7293 75.4076 68.2657 75.3957 67.8021 75.3838Z" fill="#160D01"/>
<path d="M65.1405 76.5807C65.0461 76.6479 64.9166 76.7259 64.8329 76.8282C64.7492 76.9306 64.722 77.0925 64.7893 77.1871C64.8672 77.3169 65.0289 77.3442 65.1691 77.3014C65.3093 77.2585 65.4038 77.1913 65.5225 77.0782C65.9138 76.7283 66.3324 76.2165 66.484 75.7094C65.8674 75.322 65.5533 76.301 65.1405 76.5807Z" fill="#160D01"/>
<path d="M66.5998 74.3304C66.5053 74.3976 66.4216 74.5 66.4646 74.6405C66.4967 74.7458 66.6341 74.819 66.75 74.822C66.8659 74.825 67.0061 74.7821 67.1113 74.75C67.3566 74.675 67.5991 74.7161 67.8524 74.7922C68.0248 74.8547 68.1621 74.9279 68.3374 74.8744C68.4426 74.8422 68.5613 74.7292 68.5642 74.6131C68.6486 74.0114 66.8938 74.1638 66.5998 74.3304Z" fill="#160D01"/>
<path d="M69.419 74.2752C69.497 74.4049 69.5399 74.5454 69.6422 74.6293C69.7445 74.7132 69.8818 74.7864 70.0328 74.7787C70.1837 74.7709 70.3025 74.6578 70.2946 74.5067C70.3082 74.4257 70.2517 74.3662 70.2302 74.296C70.1201 74.0609 70.0099 73.8258 69.889 73.5557C69.8568 73.4503 69.7896 73.3557 69.7087 73.342C69.5256 73.2444 69.2774 73.4354 69.2151 73.608C69.1393 73.8615 69.3088 74.0401 69.419 74.2752Z" fill="#160D01"/>
<path d="M65.6811 75.3404C65.7619 75.354 65.8778 75.357 65.9479 75.3356C66.018 75.3142 66.1125 75.2469 66.1611 75.1553C66.2098 75.0636 66.1668 74.9232 66.0996 74.8286C66.0459 74.653 65.968 74.5232 65.9143 74.3477C65.8149 74.1477 65.3306 73.5663 65.2598 74.087C65.2569 74.2031 65.6811 75.3404 65.6811 75.3404Z" fill="#160D01"/>
<path d="M66.8542 77.1712C67.0266 77.2337 67.2584 77.2397 67.4551 77.2564C67.571 77.2593 67.6518 77.273 67.7677 77.276C67.9186 77.2683 68.0696 77.2605 68.1748 77.2284C68.3042 77.1504 68.3772 77.013 68.3343 76.8725C68.3021 76.7672 68.2105 76.7184 68.0946 76.7154C68.0138 76.7017 67.8979 76.6987 67.8171 76.685C67.6203 76.6684 67.4236 76.6517 67.2405 76.5541C67.0681 76.4916 66.8528 76.2887 66.6775 76.3422C66.2003 76.4113 66.5902 77.06 66.8542 77.1712Z" fill="#160D01"/>
<path d="M64.6387 80.9579C64.7653 80.996 64.8919 81.0341 64.9971 81.002C65.2074 80.9377 65.3534 80.6627 65.2539 80.4628C64.8955 80.4187 64.5049 80.2693 64.2088 80.0527C63.9584 79.8605 63.7109 79.5522 63.4033 79.7997C62.753 80.3056 64.3397 80.8573 64.6387 80.9579Z" fill="#160D01"/>
<path d="M76.8592 101.256C76.5437 101.352 76.161 101.354 75.6788 101.156C74.8518 100.833 74.3354 100.146 73.8968 99.589L71.0562 95.8116C69.9559 94.3434 68.7992 92.8157 68.0767 91.0785C67.2577 89.0253 67.1797 87.0143 67.9045 85.3723C68.4832 84.0053 69.552 82.9877 70.4914 82.048L75.9813 76.6847C76.872 75.8367 77.8921 74.9107 79.1991 75.0488C80.3902 75.1839 81.2487 76.1117 81.9454 77.0122L88.0281 84.7514C88.5446 85.4382 89.0718 86.1601 89.0031 87.0641C88.948 87.8872 88.3757 88.5227 87.9465 88.9994L80.2795 97.5234C80.0527 97.7847 79.8152 98.0108 79.5777 98.237C78.9839 98.8023 78.4009 99.4028 78.0954 100.034C77.9144 100.319 77.5603 101.042 76.8592 101.256ZM78.4673 76.0403C77.8013 76.2438 77.2075 76.8091 76.638 77.3287L71.1481 82.6919C70.2331 83.5858 69.2587 84.5362 68.7772 85.7199C67.9416 87.6261 68.5639 89.6627 68.9559 90.6946C69.6112 92.3372 70.7465 93.7947 71.8009 95.2385L74.6416 99.0159C75.0908 99.6081 75.4621 100.07 75.99 100.293C76.5988 100.529 76.8957 100.247 77.2012 99.6158C77.5796 98.8475 78.2328 98.2256 78.8402 97.5793C79.0777 97.3532 79.3045 97.0919 79.5069 96.8765L87.1739 88.3525C87.6031 87.8758 87.9379 87.4664 87.9844 86.9915C88.0445 86.4356 87.6518 85.903 87.2133 85.3459L81.1306 77.6067C80.5118 76.836 79.858 76.076 79.0711 76.0093C78.8636 75.9575 78.6776 75.976 78.4673 76.0403Z" fill="#3D2604"/>
<path d="M87.5724 88.6531C88.0016 88.1764 88.4552 87.6539 88.5289 87.0171C88.5704 86.275 88.0997 85.6126 87.6612 85.0555C85.6489 82.4839 83.5908 79.8879 81.5785 77.3163C80.949 76.5105 80.1821 75.6315 79.1527 75.5237C78.0424 75.4023 77.1167 76.2611 76.3097 77.0067C74.4797 78.7945 72.6498 80.5822 70.8198 82.37C69.8454 83.3204 68.8467 84.3166 68.3409 85.5462C67.6269 87.2232 67.845 89.1914 68.5217 90.9042C69.1984 92.617 70.3337 94.0745 71.4339 95.5427C72.3889 96.7865 73.3439 98.0304 74.2746 99.32C74.7131 99.8771 75.1731 100.504 75.8627 100.754C76.8163 101.116 77.3049 100.582 77.6591 99.8599C78.1348 98.9083 79.1764 98.0525 79.9269 97.2473C81.5602 95.4429 83.1934 93.6385 84.8267 91.834C85.7231 90.7539 86.6302 89.7089 87.5724 88.6531Z" fill="#FFE7C0"/>
<path d="M79.1518 75.5233C78.0416 75.4018 77.1159 76.2606 76.3089 77.0063C74.4789 78.794 72.6489 80.5818 70.8189 82.3695C69.8446 83.3199 68.8459 84.3162 68.34 85.5457C67.699 87.0853 67.807 88.8183 68.3356 90.4228C69.2063 90.3871 70.1985 90.1223 70.7894 89.673C71.6422 88.9517 72.5943 88.4304 73.5036 87.7686C75.6298 86.1975 77.3174 84.0693 78.329 81.6103C78.7103 80.7259 78.9894 79.7576 79.209 78.8459C79.3499 78.3037 79.4802 77.7264 79.4594 77.1569C79.4387 76.5874 79.3128 76.0499 79.1518 75.5233Z" fill="white"/>
<path d="M81.1059 90.8211C82.3034 90.2248 83.2835 89.0423 83.2235 87.7169C83.1928 86.613 82.496 85.7125 82.0339 84.702C81.3271 83.2671 81.0897 81.612 81.3372 80.0391C81.3945 79.5993 81.5218 79.1381 81.4524 78.6602C81.3938 78.2174 81.1277 77.7228 80.6777 77.63C80.1712 77.4776 79.664 77.8246 79.2376 78.1852C77.98 79.3374 77.1529 80.8954 76.8675 82.5951C76.7888 82.9647 76.7315 83.4045 76.3781 83.6277C76.1542 83.7729 75.8308 83.7181 75.5747 83.758C74.599 83.8258 73.827 84.5608 73.3084 85.3719C72.7897 86.1831 72.3733 87.0782 71.6608 87.7566C71.2802 88.1417 70.8216 88.397 70.4303 88.7469C70.039 89.0968 69.6799 89.5521 69.609 90.0728C69.5003 90.7203 69.8443 91.3446 70.3909 91.7535C70.8916 92.138 71.5598 92.3177 72.1958 92.3921C73.3869 92.5272 74.5866 92.3142 75.7541 91.9958C76.2448 91.8458 76.795 91.6393 77.3287 91.6298C77.9081 91.6447 78.5362 91.568 79.1185 91.4668C79.7602 91.3091 80.472 91.13 81.1059 90.8211Z" fill="#DD1D1D"/>
<path opacity="0.1" d="M89.1473 38.2713L32.9023 34.8057L32.6851 38.3967L88.93 41.8623L89.1473 38.2713Z" fill="white"/>
<path opacity="0.1" d="M88.1482 42.9675L31.9033 39.502L31.8035 41.1509L88.0485 44.6165L88.1482 42.9675Z" fill="white"/>
<path opacity="0.1" d="M113.523 106.943L41.9814 102.535L41.8529 104.66L113.394 109.069L113.523 106.943Z" fill="white"/>
<path opacity="0.1" d="M116.467 98.6405L44.9258 94.2324L44.8615 95.2951L116.403 99.7032L116.467 98.6405Z" fill="white"/>
<path opacity="0.1" d="M114.623 100.785L43.082 96.377L42.8049 100.957L114.346 105.365L114.623 100.785Z" fill="white"/>
</g>
</g>
<defs>
<clipPath id="clip0">
<rect width="65" height="64" fill="white" transform="translate(215 134)"/>
</clipPath>
<clipPath id="clip1">
<rect width="73.0882" height="99.0227" fill="white" transform="translate(77 36.3594) rotate(-16.9921)"/>
</clipPath>
<clipPath id="clip2">
<rect width="73.0882" height="99.0227" fill="white" transform="translate(21 36.3594) rotate(-16.9921)"/>
</clipPath>
</defs>
</svg>
