<svg width="293" height="209" viewBox="0 0 293 209" fill="none" xmlns="http://www.w3.org/2000/svg">
<rect width="293" height="209" rx="10" fill="#6550E2"/>
<path d="M166 89V76M166 76V63M166 76H179M166 76H153" stroke="white" stroke-width="3" stroke-linecap="round"/>
<g clip-path="url(#clip0)">
<path d="M264.327 190.48C277.95 181.402 281.461 163.084 272.169 149.565C262.877 136.047 244.301 132.447 230.678 141.524C217.055 150.602 213.544 168.92 222.836 182.439C232.128 195.957 250.704 199.557 264.327 190.48Z" fill="#E59F39"/>
<path d="M262.041 187.16C273.815 179.316 276.849 163.484 268.818 151.798C260.787 140.112 244.732 136.997 232.958 144.841C221.185 152.685 218.151 168.517 226.182 180.203C234.213 191.89 250.267 195.004 262.041 187.16Z" fill="#F7CC7F"/>
<path opacity="0.3" d="M233.658 144.394C226.911 148.579 222.829 155.363 221.893 162.621C223.479 156.618 227.288 151.178 233.021 147.619C245.046 140.157 260.997 143.792 268.641 155.722C271.995 160.957 273.191 166.922 272.463 172.605C274.205 166.013 273.269 158.73 269.278 152.483C261.634 140.554 245.683 136.931 233.658 144.394Z" fill="#F7CC7F"/>
<path d="M249.764 149.59L252.351 157.411C252.676 158.384 253.586 159.037 254.613 159.037H262.972C265.286 159.037 266.248 161.942 264.376 163.286L257.616 168.125C256.784 168.726 256.433 169.789 256.745 170.749L259.332 178.569C260.047 180.733 257.525 182.537 255.666 181.193L248.906 176.355C248.074 175.753 246.943 175.753 246.098 176.355L239.338 181.193C237.466 182.525 234.957 180.733 235.672 178.569L238.259 170.749C238.584 169.776 238.233 168.726 237.388 168.125L230.628 163.286C228.756 161.955 229.718 159.037 232.032 159.037H240.391C241.418 159.037 242.341 158.384 242.653 157.411L245.24 149.59C245.942 147.427 249.062 147.427 249.764 149.59Z" fill="#E59F39"/>
</g>
<path d="M133.36 195L117.79 172.68L132.37 151.53H119.59L110.68 164.94L101.68 151.53H88.9L103.39 172.68L88 195H100.69L110.68 180.33L120.58 195H133.36Z" fill="white"/>
<path d="M180.319 196.08C194.809 196.08 204.349 188.07 204.349 175.29C204.349 163.14 195.259 155.85 185.089 155.85C179.599 155.85 174.739 158.01 171.859 160.89V146.22H200.299V134.97H159.079V169.44L167.989 171.78C171.589 168.36 175.639 166.92 180.589 166.92C187.429 166.92 191.389 170.52 191.389 175.83C191.389 180.69 187.339 184.74 180.229 184.74C173.929 184.74 168.349 182.4 164.299 178.17L157.189 187.08C162.319 192.66 169.879 196.08 180.319 196.08Z" fill="#FCB527"/>
<g clip-path="url(#clip1)">
<path fill-rule="evenodd" clip-rule="evenodd" d="M104.242 98.9246L45.128 114C44.0174 114.284 42.8265 113.62 42.5304 112.459L23.1802 36.5844C22.897 35.4738 23.561 34.2829 24.7221 33.9868L83.8363 18.9109C84.9469 18.6277 86.1378 19.2917 86.4339 20.4528L105.784 96.3269C106.017 97.4504 105.353 98.6413 104.242 98.9246Z" fill="#00A8FC"/>
<path fill-rule="evenodd" clip-rule="evenodd" d="M85.2106 23.6679L25.7935 38.821C24.7334 39.0914 23.6563 38.4521 23.386 37.392L20.4892 26.0335C20.2189 24.9734 20.8582 23.8964 21.9183 23.626L81.2849 8.48574C82.345 8.21537 83.4221 8.8547 83.6924 9.91482L86.5892 21.2732C86.8595 22.3333 86.2202 23.4104 85.2106 23.6679Z" fill="#D3B81A"/>
<path fill-rule="evenodd" clip-rule="evenodd" d="M105.821 107.016L47.6153 121.861C46.2523 122.208 44.808 121.394 44.4475 119.98L41.8468 109.783C41.4992 108.42 42.3137 106.976 43.7272 106.615L101.882 91.7838C103.245 91.4362 104.69 92.2507 105.05 93.6642L107.651 103.861C108.011 105.275 107.184 106.669 105.821 107.016Z" fill="#D3B81A"/>
<path fill-rule="evenodd" clip-rule="evenodd" d="M105.425 95.1283L87.8132 26.0691C85.5049 26.9266 83.4917 28.7304 82.0776 31.618C80.1508 35.6579 80.2741 40.3578 80.4973 44.8172C81.0096 56.945 81.5347 69.1233 82.0469 81.2511C82.1472 83.7525 82.2732 86.3549 81.6024 88.7841C80.2983 93.5792 76.0572 97.1877 71.4792 99.0542C66.8637 100.984 61.8372 101.513 56.8869 102.13C51.9367 102.748 46.8993 103.656 42.5769 106.103C42.1107 106.383 41.6445 106.663 41.2416 106.981L42.3102 111.171C42.7737 112.988 44.5981 114.028 46.365 113.578L103.056 99.1197C104.849 98.77 105.889 96.9456 105.425 95.1283Z" fill="#0692C9"/>
<path fill-rule="evenodd" clip-rule="evenodd" d="M65.9113 51.9242C59.5466 52.6872 54.7261 54.0241 52.4388 56.6505C50.8834 53.7138 49.7961 50.9264 49.7335 48.3617C49.6112 43.8766 52.0421 42.2351 54.4771 41.4528C57.5683 40.5031 62.6721 40.2768 66.8018 39.8151C72.1311 39.2086 76.7636 38.1885 79.43 35.5729C81.0458 37.9029 81.9172 40.4765 82.1452 43.2679C82.4633 46.4126 81.045 48.441 78.2072 49.5411C74.6003 50.9987 70.1796 51.3734 65.9113 51.9242Z" fill="white"/>
<path fill-rule="evenodd" clip-rule="evenodd" d="M60.8959 41.5355C61.3502 41.4196 61.6927 41.7086 61.7957 42.1125C61.8987 42.5164 61.7998 42.9717 61.3454 43.0876C60.8911 43.2034 60.5486 42.9144 60.4456 42.5106C60.3426 42.1067 60.391 41.6643 60.8959 41.5355ZM60.8186 41.2326C60.1623 41.4 59.7981 41.8692 59.9784 42.576C60.1586 43.2827 60.6526 43.5331 61.3593 43.3529C62.0661 43.1726 62.3798 42.7163 62.1996 42.0095C62.0698 41.2899 61.5253 41.0524 60.8186 41.2326ZM58.6401 42.8097L58.4856 42.204C58.7885 42.1267 59.129 41.9861 59.2191 42.3395C59.2459 42.6553 58.8925 42.7454 58.6401 42.8097ZM58.469 44.0362L58.9233 43.9204L58.7045 43.0622C59.0578 42.972 59.5122 42.8562 59.6369 42.5018C59.7615 42.1474 59.519 41.6178 58.9003 41.7219L57.9411 41.9665L58.469 44.0362ZM55.8338 42.5577L56.2376 42.4547C56.2891 42.6566 56.5466 43.6662 56.5981 43.8682C56.8149 44.2968 57.5593 44.0532 57.4939 43.5859C57.48 43.3207 57.2236 42.5258 57.1463 42.2229L57.5502 42.1199C57.6145 42.3724 57.8978 43.483 57.8988 43.6978C57.889 44.2917 57.0941 44.5481 56.6893 44.4363C56.2973 44.375 56.22 44.0721 56.1299 43.7188L55.8338 42.5577ZM54.652 43.8268L54.4975 43.221C54.8004 43.1438 55.1914 42.9903 55.2687 43.2932C55.3588 43.6466 54.9044 43.7625 54.652 43.8268ZM54.4809 45.0533L54.9353 44.9374L54.7164 44.0792L54.9688 44.0149L55.642 44.7572L56.1468 44.6284L55.3598 43.8614C55.5864 43.6961 55.7498 43.4931 55.6725 43.1902C55.5695 42.7864 55.1775 42.725 54.8746 42.8023L53.966 43.034L54.4809 45.0533ZM53.0871 44.2259L53.1643 44.5288L53.5177 44.4387L53.6336 44.893C53.306 45.0841 52.7635 45.2762 52.4962 44.8605C52.2289 44.4448 52.213 43.7499 52.8692 43.5825C53.1217 43.5182 53.286 43.53 53.4513 43.7567L53.6265 43.3894C53.373 43.239 53.1454 43.1895 52.792 43.2797C51.429 43.6273 51.8399 45.0279 52.4478 45.303C52.9417 45.5534 53.6227 45.2722 54.0889 44.992L53.8443 44.0328L53.0871 44.2259ZM63.4135 52.8831C59.6382 53.4695 56.1055 54.5856 54.3349 56.9189C53.6024 56.9982 52.857 57.027 52.175 57.0934C50.6087 54.5357 49.6472 51.6088 49.2786 48.4769C49.1248 45.344 50.0202 42.3198 53.7044 41.1652C57.5271 39.9214 63.0218 39.5417 68.4136 38.758C72.2522 38.2092 75.4434 37.019 77.1893 34.7995C78.0614 34.8459 78.9206 34.8418 79.7422 34.9011C81.4856 37.5211 82.2571 40.3352 82.5108 43.2276C82.8588 47.3325 80.6447 49.4026 77.2248 50.3285C72.5053 51.6397 67.3402 52.258 63.4135 52.8831ZM65.9108 51.9236C59.546 52.6866 54.7255 54.0235 52.4382 56.6499C50.8828 53.7131 49.7956 50.9258 49.7329 48.361C49.6106 43.8759 52.0415 42.2344 54.4765 41.4521C57.5678 40.5025 62.6715 40.2762 66.8012 39.8144C72.1306 39.208 76.7631 38.1878 79.4295 35.5723C81.0452 37.9023 81.9166 40.4758 82.1446 43.2672C82.4627 46.412 81.0445 48.4404 78.2067 49.5405C74.5998 50.998 70.179 51.3727 65.9108 51.9236Z" fill="#3D438B"/>
<path fill-rule="evenodd" clip-rule="evenodd" d="M71.7127 46.8414L70.4002 47.1761L69.4217 43.3395L70.5323 43.0563C71.0876 42.9147 71.3787 43.0017 71.4559 43.3046C71.6222 43.7461 71.3837 44.0757 70.9799 44.1787L70.576 44.2817L70.3544 45.5211L71.3641 45.2636C71.8689 45.1348 72.4134 45.3723 72.4787 45.8396C72.4936 46.3196 72.167 46.7255 71.7127 46.8414ZM72.2365 48.0519L69.1066 48.8502L67.4716 42.439L70.45 41.6794C71.4596 41.4219 72.4455 41.493 72.8416 42.4136C73.1228 43.0946 73.0625 43.7014 72.5973 44.1964C73.4952 44.3437 74.106 45.2633 74.0349 46.2492C74.0271 47.2727 72.9937 47.8588 72.2365 48.0519ZM76.6792 41.6499C77.6384 41.4053 78.5887 41.9694 78.8334 42.9286C79.078 43.8877 78.5139 44.8381 77.5547 45.0827C76.5955 45.3273 75.6452 44.7632 75.4006 43.804C75.156 42.8449 75.7201 41.8945 76.6792 41.6499ZM76.293 40.1355C78.0599 39.6849 79.8467 40.7884 80.2973 42.5552C80.7608 44.3726 79.7078 46.1465 77.9409 46.5971C76.1741 47.0477 74.3872 45.9443 73.9366 44.1774C73.4355 42.4234 74.5261 40.5861 76.293 40.1355ZM66.8787 42.6439L68.5137 49.0551L66.9488 49.4542L65.9188 45.4157L65.9391 49.7117L64.4247 50.098L62.4485 46.3545L63.4655 50.3426L61.9511 50.7288L60.316 44.3176L62.7896 43.6868L64.5619 47.0521L64.4555 43.2619L66.8787 42.6439ZM58.0443 44.897L59.6093 44.4979L61.2443 50.909L59.6794 51.3081L58.0443 44.897ZM56.4672 50.7295L55.1547 51.0642L54.1762 47.2276L55.2868 46.9443C55.8421 46.8027 56.1331 46.8898 56.2104 47.1927C56.3767 47.6341 56.1382 47.9638 55.7344 48.0668L55.3305 48.1698L55.1089 49.4091L56.1186 49.1516C56.6234 49.0229 57.1678 49.2604 57.2332 49.7276C57.2481 50.2077 56.972 50.6007 56.4672 50.7295ZM57.0415 51.9271L53.9116 52.7253L52.2765 46.3142L55.255 45.5546C56.2646 45.2971 57.2505 45.3682 57.6466 46.2888C57.9278 46.9698 57.8675 47.5766 57.4023 48.0715C58.3001 48.2189 58.911 49.1384 58.8398 50.1244C58.832 51.1479 57.7987 51.734 57.0415 51.9271Z" fill="#DA243C"/>
<path fill-rule="evenodd" clip-rule="evenodd" d="M89.0569 32.634C89.1954 32.5449 89.334 32.4558 89.4726 32.3667L86.7303 21.6141C86.2668 19.7967 84.4424 18.7566 82.6755 19.2072L58.7976 25.2968C53.1833 27.1049 47.4799 28.7746 41.7121 30.1918C37.3578 31.2485 32.9777 32.2042 28.559 33.0085L25.934 33.678C24.1166 34.1415 23.0765 35.9659 23.5271 37.7328L26.1535 48.0311C28.5786 47.8427 30.975 46.909 33.2446 45.9C40.2426 42.7712 46.909 38.9742 53.9971 36.1988C61.1357 33.4104 68.8475 31.605 76.4093 32.7949C80.6708 33.4823 85.4035 34.9636 89.0569 32.634Z" fill="#E2C70A"/>
<path fill-rule="evenodd" clip-rule="evenodd" d="M105.63 95.9357L103.596 87.9596C102.107 88.4468 100.683 89.1864 99.2584 89.926C83.8669 97.6686 66.7278 101.932 49.5328 102.392C46.5385 102.457 42.8997 102.525 40.5213 104.583L42.4267 112.054C42.8902 113.872 44.7147 114.912 46.4815 114.461L103.173 100.003C105.04 99.527 106.093 97.753 105.63 95.9357Z" fill="#E2C70A"/>
<path fill-rule="evenodd" clip-rule="evenodd" d="M55.9741 88.4381C54.9967 92.8273 56.5484 97.6468 59.8104 100.74C63.0724 103.833 67.9931 104.997 72.3088 103.789C74.82 103.095 77.2134 101.517 78.2762 99.1488C79.5271 96.4641 78.905 93.1818 77.4397 90.5984C75.9744 88.015 73.6905 86.0168 71.47 84.0561C68.6912 81.5926 66.2467 77.6998 62.3776 79.8156C59.1637 81.5492 56.728 84.8587 55.9741 88.4381Z" fill="#DB2A6E"/>
<path fill-rule="evenodd" clip-rule="evenodd" d="M56.0432 68.0434C55.9666 65.2134 57.457 62.4138 59.8127 60.899C62.1684 59.3843 65.3518 59.2176 67.8722 60.4566C69.3412 61.1572 70.6361 62.44 71.0352 64.0049C71.4987 65.8222 70.7496 67.7338 69.556 69.1672C68.3495 70.5502 66.7243 71.5561 65.1366 72.4987C63.1333 73.7085 61.1974 75.8152 59.0788 74.0436C57.2147 72.6372 56.0919 70.3428 56.0432 68.0434Z" fill="#DD7C12"/>
<path fill-rule="evenodd" clip-rule="evenodd" d="M72.1073 79.8073C73.141 81.9631 75.309 83.507 77.6857 83.7611C80.0624 84.0152 82.5211 82.9043 83.9146 80.9897C84.7559 79.8612 85.2041 78.4565 84.9199 77.1311C84.5841 75.6037 83.2645 74.4349 81.8212 73.8352C80.3779 73.2355 78.7851 73.104 77.2053 73.0231C75.2335 72.8808 72.9676 72.007 72.0175 74.1848C71.2169 75.8944 71.2776 78.0295 72.1073 79.8073Z" fill="#44C41A"/>
<path fill-rule="evenodd" clip-rule="evenodd" d="M45.4101 77.3685C45.155 79.5304 46.1263 81.8634 47.8637 83.1946C49.6011 84.5257 52.054 84.8679 54.1099 84.0748C55.2828 83.6144 56.4033 82.7372 56.7892 81.5097C57.2503 80.1555 56.7878 78.553 55.9483 77.3692C55.1087 76.1854 53.9168 75.3066 52.7378 74.4782C51.2796 73.3984 49.8559 71.6109 48.1307 72.8574C46.6065 73.8375 45.5911 75.5481 45.4101 77.3685Z" fill="#E2CD05"/>
<path fill-rule="evenodd" clip-rule="evenodd" d="M81.7285 59.557C81.4734 61.7189 82.4447 64.0519 84.1821 65.3831C85.9195 66.7142 88.3724 67.0564 90.4283 66.2633C91.6012 65.8029 92.7216 64.9257 93.1075 63.6982C93.5687 62.344 93.1062 60.7415 92.2666 59.5577C91.4271 58.3739 90.2352 57.4951 89.0561 56.6667C87.5979 55.5869 86.1743 53.7994 84.4491 55.0458C82.9882 56.0636 81.9728 57.7742 81.7285 59.557Z" fill="#0692C9"/>
</g>
<g clip-path="url(#clip2)">
<path fill-rule="evenodd" clip-rule="evenodd" d="M132.896 107.26L73.7823 122.336C72.6717 122.62 71.4808 121.956 71.1847 120.794L51.8345 44.9203C51.5513 43.8097 52.2153 42.6188 53.3764 42.3227L112.491 27.2468C113.601 26.9636 114.792 27.6277 115.088 28.7887L134.438 104.663C134.671 105.786 134.007 106.977 132.896 107.26Z" fill="#00A8FC"/>
<path fill-rule="evenodd" clip-rule="evenodd" d="M113.865 32.0038L54.4478 47.157C53.3877 47.4273 52.3106 46.788 52.0403 45.7279L49.1435 34.3695C48.8732 33.3094 49.5125 32.2323 50.5726 31.9619L109.939 16.8217C110.999 16.5513 112.076 17.1906 112.347 18.2508L115.243 29.6092C115.514 30.6693 114.875 31.7463 113.865 32.0038Z" fill="#D3B81A"/>
<path fill-rule="evenodd" clip-rule="evenodd" d="M134.475 115.352L76.2696 130.197C74.9066 130.544 73.4622 129.73 73.1018 128.316L70.5011 118.119C70.1535 116.756 70.968 115.311 72.3815 114.951L130.537 100.12C131.9 99.7721 133.344 100.587 133.704 102L136.305 112.197C136.665 113.611 135.838 115.005 134.475 115.352Z" fill="#D3B81A"/>
<path fill-rule="evenodd" clip-rule="evenodd" d="M134.08 103.464L116.467 34.4051C114.159 35.2626 112.146 37.0664 110.732 39.954C108.805 43.9939 108.928 48.6938 109.152 53.1531C109.664 65.2809 110.189 77.4592 110.701 89.587C110.801 92.0884 110.928 94.6908 110.257 97.12C108.953 101.915 104.711 105.524 100.134 107.39C95.518 109.32 90.4915 109.849 85.5412 110.466C80.591 111.084 75.5536 111.992 71.2312 114.439C70.765 114.719 70.2988 114.999 69.8959 115.317L70.9645 119.507C71.428 121.324 73.2524 122.364 75.0193 121.914L131.71 107.456C133.503 107.106 134.543 105.282 134.08 103.464Z" fill="#0692C9"/>
<path fill-rule="evenodd" clip-rule="evenodd" d="M94.5656 60.2602C88.2009 61.0231 83.3804 62.36 81.0931 64.9864C79.5377 62.0497 78.4504 59.2624 78.3878 56.6976C78.2655 52.2125 80.6964 50.571 83.1314 49.7887C86.2226 48.8391 91.3264 48.6128 95.4561 48.151C100.785 47.5446 105.418 46.5244 108.084 43.9089C109.7 46.2388 110.571 48.8124 110.799 51.6038C111.118 54.7486 109.699 56.777 106.862 57.8771C103.255 59.3346 98.8339 59.7093 94.5656 60.2602Z" fill="white"/>
<path fill-rule="evenodd" clip-rule="evenodd" d="M89.5501 49.8715C90.0045 49.7556 90.347 50.0446 90.45 50.4484C90.553 50.8523 90.4541 51.3076 89.9997 51.4235C89.5454 51.5394 89.2029 51.2504 89.0999 50.8465C88.9969 50.4427 89.0453 50.0002 89.5501 49.8715ZM89.4729 49.5686C88.8166 49.7359 88.4524 50.2052 88.6327 50.9119C88.8129 51.6187 89.3069 51.869 90.0136 51.6888C90.7204 51.5086 91.0341 51.0522 90.8539 50.3454C90.7241 49.6258 90.1796 49.3883 89.4729 49.5686ZM87.2944 51.1457L87.1399 50.5399C87.4428 50.4627 87.7833 50.3221 87.8734 50.6754C87.9002 50.9912 87.5468 51.0813 87.2944 51.1457ZM87.1233 52.3722L87.5776 52.2563L87.3588 51.3981C87.7121 51.308 88.1665 51.1921 88.2911 50.8377C88.4158 50.4833 88.1732 49.9538 87.5546 50.0578L86.5954 50.3024L87.1233 52.3722ZM84.4881 50.8936L84.8919 50.7906C84.9434 50.9925 85.2009 52.0022 85.2524 52.2041C85.4692 52.6327 86.2136 52.3891 86.1482 51.9219C86.1343 51.6566 85.8778 50.8618 85.8006 50.5589L86.2045 50.4559C86.2688 50.7083 86.5521 51.8189 86.5531 52.0337C86.5433 52.6276 85.7484 52.8841 85.3435 52.7723C84.9516 52.711 84.8743 52.4081 84.7842 52.0547L84.4881 50.8936ZM83.3063 52.1628L83.1518 51.557C83.4547 51.4797 83.8457 51.3263 83.9229 51.6292C84.0131 51.9825 83.5587 52.0984 83.3063 52.1628ZM83.1352 53.3892L83.5896 53.2734L83.3707 52.4152L83.6231 52.3508L84.2963 53.0931L84.8011 52.9644L84.0141 52.1973C84.2407 52.032 84.404 51.829 84.3268 51.5262C84.2238 51.1223 83.8318 51.061 83.5289 51.1382L82.6202 51.37L83.1352 53.3892ZM81.7414 52.5619L81.8186 52.8648L82.172 52.7746L82.2879 53.229C81.9603 53.4201 81.4178 53.6122 81.1505 53.1964C80.8832 52.7807 80.8673 52.0858 81.5235 51.9185C81.7759 51.8541 81.9403 51.866 82.1056 52.0926L82.2808 51.7254C82.0273 51.5749 81.7997 51.5255 81.4463 51.6156C80.0833 51.9632 80.4942 53.3638 81.1021 53.6389C81.596 53.8893 82.277 53.6081 82.7432 53.3279L82.4986 52.3688L81.7414 52.5619ZM92.0678 61.219C88.2925 61.8055 84.7598 62.9215 82.9892 65.2548C82.2567 65.3341 81.5113 65.3629 80.8293 65.4293C79.263 62.8717 78.3015 59.9447 77.9329 56.8128C77.7791 53.6799 78.6745 50.6558 82.3587 49.5011C86.1814 48.2574 91.6761 47.8776 97.0679 47.094C100.907 46.5451 104.098 45.3549 105.844 43.1354C106.716 43.1818 107.575 43.1778 108.396 43.2371C110.14 45.857 110.911 48.6711 111.165 51.5635C111.513 55.6685 109.299 57.7385 105.879 58.6645C101.16 59.9756 95.9945 60.5939 92.0678 61.219ZM94.5651 60.2595C88.2003 61.0225 83.3798 62.3594 81.0925 64.9858C79.5371 62.0491 78.4499 59.2617 78.3872 56.697C78.2649 52.2119 80.6958 50.5704 83.1308 49.7881C86.2221 48.8384 91.3258 48.6121 95.4555 48.1504C100.785 47.5439 105.417 46.5238 108.084 43.9082C109.699 46.2382 110.571 48.8117 110.799 51.6031C111.117 54.7479 109.699 56.7763 106.861 57.8764C103.254 59.334 98.8333 59.7087 94.5651 60.2595Z" fill="#3D438B"/>
<path fill-rule="evenodd" clip-rule="evenodd" d="M100.367 55.1773L99.0545 55.5121L98.076 51.6754L99.1866 51.3922C99.7419 51.2506 100.033 51.3377 100.11 51.6406C100.277 52.082 100.038 52.4117 99.6342 52.5147L99.2303 52.6177L99.0087 53.857L100.018 53.5995C100.523 53.4708 101.068 53.7083 101.133 54.1755C101.148 54.6556 100.821 55.0615 100.367 55.1773ZM100.891 56.3879L97.7609 57.1861L96.1259 50.7749L99.1043 50.0153C100.114 49.7578 101.1 49.829 101.496 50.7495C101.777 51.4305 101.717 52.0373 101.252 52.5323C102.149 52.6797 102.76 53.5992 102.689 54.5851C102.681 55.6086 101.648 56.1948 100.891 56.3879ZM105.334 49.9859C106.293 49.7412 107.243 50.3054 107.488 51.2645C107.732 52.2237 107.168 53.174 106.209 53.4186C105.25 53.6632 104.299 53.0991 104.055 52.14C103.81 51.1808 104.374 50.2305 105.334 49.9859ZM104.947 48.4714C106.714 48.0208 108.501 49.1243 108.952 50.8912C109.415 52.7085 108.362 54.4825 106.595 54.9331C104.828 55.3837 103.042 54.2802 102.591 52.5133C102.09 50.7593 103.18 48.922 104.947 48.4714ZM95.533 50.9799L97.168 57.3911L95.6031 57.7902L94.5731 53.7516L94.5934 58.0477L93.079 58.4339L91.1027 54.6904L92.1198 58.6785L90.6054 59.0647L88.9703 52.6535L91.4439 52.0227L93.2162 55.388L93.1098 51.5978L95.533 50.9799ZM86.6986 53.2329L88.2636 52.8338L89.8986 59.245L88.3337 59.6441L86.6986 53.2329ZM85.1215 59.0654L83.809 59.4001L82.8305 55.5635L83.9411 55.2803C84.4964 55.1387 84.7874 55.2257 84.8647 55.5286C85.031 55.9701 84.7925 56.2997 84.3887 56.4027L83.9848 56.5057L83.7632 57.7451L84.7729 57.4876C85.2777 57.3588 85.8221 57.5963 85.8875 58.0636C85.9024 58.5436 85.6263 58.9367 85.1215 59.0654ZM85.6958 60.2631L82.5659 61.0613L80.9308 54.6501L83.9093 53.8905C84.9189 53.633 85.9048 53.7042 86.3009 54.6247C86.5821 55.3057 86.5218 55.9125 86.0566 56.4075C86.9544 56.5549 87.5653 57.4744 87.4941 58.4603C87.4863 59.4838 86.453 60.07 85.6958 60.2631Z" fill="#DA243C"/>
<path fill-rule="evenodd" clip-rule="evenodd" d="M117.711 40.9699C117.85 40.8808 117.988 40.7917 118.127 40.7026L115.385 29.95C114.921 28.1327 113.097 27.0925 111.33 27.5431L87.4519 33.6327C81.8376 35.4409 76.1342 37.1105 70.3664 38.5277C66.0121 39.5844 61.632 40.5402 57.2133 41.3445L54.5883 42.0139C52.7709 42.4774 51.7308 44.3019 52.1814 46.0687L54.8078 56.367C57.2329 56.1786 59.6293 55.2449 61.8989 54.236C68.8969 51.1071 75.5632 47.3102 82.6514 44.5347C89.79 41.7464 97.5018 39.9409 105.064 41.1308C109.325 41.8183 114.058 43.2995 117.711 40.9699Z" fill="#E2C70A"/>
<path fill-rule="evenodd" clip-rule="evenodd" d="M134.284 104.272L132.25 96.2955C130.761 96.7827 129.337 97.5223 127.913 98.2619C112.521 106.005 95.3821 110.268 78.1871 110.728C75.1928 110.793 71.554 110.861 69.1756 112.919L71.081 120.39C71.5445 122.208 73.369 123.248 75.1358 122.797L131.827 108.339C133.695 107.863 134.748 106.089 134.284 104.272Z" fill="#E2C70A"/>
<path fill-rule="evenodd" clip-rule="evenodd" d="M84.6284 96.7741C83.651 101.163 85.2027 105.983 88.4647 109.076C91.7267 112.169 96.6474 113.333 100.963 112.125C103.474 111.431 105.868 109.853 106.93 107.485C108.181 104.8 107.559 101.518 106.094 98.9343C104.629 96.351 102.345 94.3527 100.124 92.392C97.3455 89.9286 94.901 86.0357 91.0319 88.1515C87.818 89.8852 85.3823 93.1946 84.6284 96.7741Z" fill="#DB2A6E"/>
<path fill-rule="evenodd" clip-rule="evenodd" d="M84.6975 76.3793C84.6209 73.5493 86.1113 70.7498 88.467 69.235C90.8227 67.7202 94.0061 67.5535 96.5265 68.7925C97.9955 69.4932 99.2904 70.7759 99.6895 72.3408C100.153 74.1582 99.4039 76.0697 98.2103 77.5032C97.0038 78.8862 95.3786 79.8921 93.7909 80.8346C91.7876 82.0445 89.8517 84.1512 87.7331 82.3795C85.869 80.9732 84.7462 78.6788 84.6975 76.3793Z" fill="#DD7C12"/>
<path fill-rule="evenodd" clip-rule="evenodd" d="M100.762 88.1432C101.795 90.299 103.963 91.8429 106.34 92.097C108.717 92.3512 111.175 91.2402 112.569 89.3257C113.41 88.1971 113.858 86.7924 113.574 85.467C113.238 83.9397 111.919 82.7708 110.475 82.1711C109.032 81.5714 107.439 81.44 105.86 81.359C103.888 81.2167 101.622 80.3429 100.672 82.5207C99.8712 84.2303 99.9319 86.3655 100.762 88.1432Z" fill="#44C41A"/>
<path fill-rule="evenodd" clip-rule="evenodd" d="M74.0644 85.7045C73.8093 87.8664 74.7806 90.1994 76.518 91.5305C78.2554 92.8617 80.7083 93.2039 82.7642 92.4108C83.9371 91.9503 85.0576 91.0732 85.4435 89.8457C85.9046 88.4915 85.4421 86.8889 84.6026 85.7052C83.763 84.5214 82.5711 83.6425 81.3921 82.8141C79.9339 81.7344 78.5102 79.9468 76.785 81.1933C75.2608 82.1734 74.2454 83.8841 74.0644 85.7045Z" fill="#E2CD05"/>
<path fill-rule="evenodd" clip-rule="evenodd" d="M110.383 67.8929C110.128 70.0548 111.099 72.3878 112.836 73.719C114.574 75.0502 117.027 75.3924 119.083 74.5992C120.256 74.1388 121.376 73.2617 121.762 72.0342C122.223 70.68 121.76 69.0774 120.921 67.8936C120.081 66.7099 118.889 65.831 117.71 65.0026C116.252 63.9229 114.829 62.1353 113.103 63.3818C111.642 64.3995 110.627 66.1101 110.383 67.8929Z" fill="#0692C9"/>
</g>
<g clip-path="url(#clip3)">
<path fill-rule="evenodd" clip-rule="evenodd" d="M253.49 22.7199L193.869 37.925C192.804 38.1965 191.723 37.5545 191.451 36.4898L188.542 25.0828C188.271 24.0181 188.913 22.9364 189.977 22.6649L249.598 7.45982C250.663 7.1883 251.744 7.83037 252.016 8.89503L254.925 20.3021C255.146 21.3796 254.555 22.4484 253.49 22.7199Z" fill="#13A816"/>
<path fill-rule="evenodd" clip-rule="evenodd" d="M274.189 106.426L215.735 121.333C214.366 121.682 212.915 120.864 212.553 119.445L209.941 109.204C209.592 107.835 210.41 106.384 211.83 106.022L270.234 91.1277C271.603 90.7786 273.053 91.5966 273.415 93.0161L276.027 103.257C276.389 104.677 275.558 106.076 274.189 106.426Z" fill="#13A816"/>
<path fill-rule="evenodd" clip-rule="evenodd" d="M272.603 98.299L213.236 113.439C212.121 113.724 210.925 113.057 210.627 111.891L191.194 35.6919C190.91 34.5765 191.577 33.3806 192.743 33.0832L252.11 17.9427C253.225 17.6583 254.421 18.3252 254.719 19.4912L274.152 95.6903C274.398 96.8692 273.719 98.0145 272.603 98.299Z" fill="#10C419"/>
<path fill-rule="evenodd" clip-rule="evenodd" d="M274.049 95.5006L256.374 26.1965C254.056 27.0577 252.034 28.8692 250.614 31.7692C248.679 35.8264 248.803 40.5464 249.027 45.0248C249.542 57.2046 250.069 69.435 250.583 81.6148C250.684 84.1269 250.811 86.7404 250.137 89.18C248.827 93.9956 244.568 97.6196 239.97 99.4941C235.335 101.432 230.287 101.964 225.316 102.584C220.357 103.254 215.285 104.116 210.944 106.573C210.476 106.854 210.008 107.135 209.603 107.455L210.677 111.663C211.142 113.488 212.974 114.532 214.749 114.08L271.683 99.5599C273.47 99.158 274.515 97.3258 274.049 95.5006Z" fill="#0D9E11"/>
<path fill-rule="evenodd" clip-rule="evenodd" d="M226.908 52.9329C220.516 53.6991 215.674 55.0417 213.377 57.6794C211.815 54.7301 210.723 51.9308 210.66 49.3551C210.538 44.8508 212.979 43.2022 215.424 42.4166C218.529 41.4629 223.654 41.2356 227.802 40.7719C233.154 40.1628 237.806 39.1383 240.484 36.5116C242.107 38.8515 242.982 41.4361 243.211 44.2394C243.53 47.3977 242.106 49.4348 239.256 50.5396C235.583 52.0163 231.143 52.3926 226.908 52.9329Z" fill="white"/>
<path fill-rule="evenodd" clip-rule="evenodd" d="M221.872 42.5005C222.328 42.3842 222.672 42.6744 222.776 43.08C222.879 43.4856 222.78 43.9429 222.323 44.0593C221.867 44.1756 221.523 43.8854 221.42 43.4798C221.265 43.0871 221.365 42.6298 221.872 42.5005ZM221.794 42.1964C221.135 42.3644 220.769 42.8357 220.95 43.5455C221.131 44.2552 221.627 44.5067 222.337 44.3257C223.047 44.1447 223.362 43.6863 223.181 42.9766C223.013 42.3175 222.453 42.0283 221.794 42.1964ZM219.556 43.7932L219.401 43.1848C219.705 43.1072 220.047 42.966 220.137 43.3209C220.228 43.6758 219.86 43.7156 219.556 43.7932ZM219.397 45.0756L219.853 44.9592L219.633 44.0974C219.988 44.0068 220.444 43.8905 220.57 43.5346C220.695 43.1787 220.451 42.6469 219.83 42.7513L218.867 42.997L219.397 45.0756ZM216.737 43.54L217.143 43.4366C217.195 43.6394 217.453 44.6533 217.505 44.8561C217.723 45.2865 218.47 45.0419 218.405 44.5727C218.391 44.3063 218.133 43.508 218.056 43.2038L218.461 43.1004C218.526 43.3539 218.81 44.4693 218.811 44.685C218.801 45.2814 218.003 45.539 217.596 45.4267C217.203 45.3651 217.125 45.0609 217.035 44.7061L216.737 43.54ZM215.601 44.8017L215.446 44.1933C215.75 44.1157 216.143 43.9616 216.221 44.2658C216.273 44.6843 215.855 44.737 215.601 44.8017ZM215.442 46.0841L215.899 45.9677L215.679 45.1059L215.932 45.0412L216.608 45.7867L217.115 45.6574L216.325 44.8871C216.553 44.721 216.717 44.5172 216.639 44.213C216.536 43.8074 216.142 43.7459 215.838 43.8234L214.925 44.0562L215.442 46.0841ZM214.03 45.2025L214.107 45.5067L214.462 45.4162L214.578 45.8724C214.249 46.0643 213.705 46.2573 213.436 45.8398C213.168 45.4223 213.152 44.7244 213.811 44.5563C214.064 44.4917 214.229 44.5036 214.395 44.7312L214.571 44.3624C214.317 44.2113 214.088 44.1616 213.733 44.2522C212.364 44.6012 212.777 46.0079 213.388 46.2841C213.884 46.5356 214.568 46.2532 215.036 45.9718L214.79 45.0085L214.03 45.2025ZM224.362 53.9603C220.571 54.5493 217.023 55.6701 215.245 58.0134C214.509 58.093 213.761 58.1219 213.076 58.1886C211.503 55.62 210.537 52.6806 210.167 49.5353C210.013 46.3889 210.912 43.3518 214.612 42.1923C218.451 40.9432 223.969 40.5618 229.384 39.7748C233.239 39.2236 236.444 38.0283 238.197 35.7993C239.073 35.8459 239.936 35.8418 240.761 35.9014C242.512 38.5326 243.287 41.3587 243.542 44.2635C243.891 48.386 241.667 50.465 238.233 51.3949C233.48 52.6609 228.306 53.3326 224.362 53.9603ZM226.908 52.9331C220.516 53.6993 215.675 55.042 213.378 57.6796C211.816 54.7303 210.724 51.931 210.661 49.3553C210.538 44.851 212.98 43.2025 215.425 42.4168C218.529 41.4631 223.655 41.2358 227.802 40.7721C233.155 40.163 237.807 39.1385 240.485 36.5118C242.107 38.8517 242.983 41.4363 243.212 44.2397C243.531 47.3979 242.107 49.435 239.257 50.5398C235.584 52.0165 231.144 52.3928 226.908 52.9331Z" fill="#3D438B"/>
<path fill-rule="evenodd" clip-rule="evenodd" d="M232.696 47.8938L231.378 48.23L230.395 44.3769L231.51 44.0925C232.068 43.9503 232.36 44.0377 232.438 44.3419C232.605 44.7853 232.365 45.1163 231.96 45.2198L231.554 45.3232L231.332 46.5679L232.346 46.3093C232.853 46.18 233.399 46.4185 233.465 46.8877C233.48 47.3698 233.203 47.7645 232.696 47.8938ZM233.272 49.0966L230.129 49.8983L228.487 43.4596L231.478 42.6968C232.492 42.4382 233.482 42.5096 233.88 43.4341C234.163 44.118 234.102 44.7274 233.635 45.2245C234.536 45.3725 235.15 46.296 235.079 47.2861C235.007 48.2763 234.033 48.9027 233.272 49.0966ZM237.671 42.6294C238.634 42.3838 239.588 42.9503 239.834 43.9136C240.08 44.8768 239.513 45.8312 238.55 46.0769C237.587 46.3225 236.632 45.756 236.386 44.7928C236.141 43.8295 236.707 42.8751 237.671 42.6294ZM237.283 41.1085C239.057 40.656 240.852 41.7642 241.304 43.5386C241.77 45.3637 240.712 47.1453 238.938 47.5978C237.163 48.0504 235.369 46.9421 234.916 45.1677C234.464 43.3933 235.508 41.561 237.283 41.1085ZM227.879 43.6148L229.521 50.0534L227.898 50.4672L226.864 46.4113L226.884 50.7257L225.364 51.1136L223.379 47.3542L224.4 51.3593L222.879 51.7472L221.237 45.3085L223.722 44.675L225.501 48.0547L225.395 44.2483L227.879 43.6148ZM219.007 45.8774L220.578 45.4766L222.22 51.9153L220.649 52.3161L219.007 45.8774ZM217.436 51.7856L216.117 52.1218L215.135 48.2687L216.25 47.9843C216.808 47.8421 217.1 47.9295 217.178 48.2337C217.345 48.677 217.105 49.0081 216.7 49.1115L216.243 49.2279L216.021 50.4726L217.035 50.214C217.542 50.0847 218.089 50.3232 218.154 50.7924C218.22 51.2616 217.943 51.6563 217.436 51.7856ZM218.012 52.9884L214.869 53.79L213.227 47.3514L216.218 46.5886C217.232 46.33 218.222 46.4014 218.62 47.3259C218.902 48.0098 218.842 48.6192 218.375 49.1163C219.276 49.2643 219.89 50.1878 219.818 51.1779C219.747 52.1681 218.722 52.8074 218.012 52.9884Z" fill="#DA243C"/>
<path fill-rule="evenodd" clip-rule="evenodd" d="M248.796 98.1064C238.926 101.326 228.566 102.834 218.243 104.279C216.633 104.527 214.959 104.738 213.421 104.212C211.248 103.525 209.753 101.476 209.045 99.3349C208.723 98.2832 208.553 97.1927 208.484 96.0763C208.374 94.1607 209.723 92.4666 211.574 92.1025C224.798 89.5401 236.723 80.8293 243.101 68.9976C243.541 68.1834 244.657 68.1146 245.181 68.8989L247.072 71.6564C247.149 71.7448 247.25 71.719 247.275 71.6046C247.661 69.9405 250.144 69.0912 251.431 70.3287C252.145 71.0106 252.29 71.9997 252.497 73.0266C252.823 74.7255 253.769 76.3199 255.246 77.2393C259 79.4676 262.701 75.9858 262.432 72.5989C262.406 72.4975 262.507 72.4717 262.571 72.5094C263.22 72.9378 265.612 74.2716 265.918 74.6255C267.065 75.7368 267.897 77.0906 268.487 78.5599C269.477 81.1693 269.723 84.8862 268.606 87.4929C266.171 93.1894 254.333 96.3163 248.796 98.1064Z" fill="#9F6255"/>
<path fill-rule="evenodd" clip-rule="evenodd" d="M234.495 97.9209C237.694 98.1849 240.975 97.0781 243.402 94.9474C246.182 92.5105 247.725 88.8232 247.962 85.0913C248.211 81.4101 247.203 77.6714 245.652 74.3413C245.293 73.5689 244.578 72.6713 243.742 72.9925C243.007 73.2879 242.923 74.2273 242.952 74.9759C242.909 79.2525 241.241 83.5115 238.388 86.7228C236.949 88.2778 235.23 89.5802 233.369 90.5408C232.027 91.207 228.805 91.4887 227.883 92.5336C225.195 95.5411 232.845 97.8018 234.495 97.9209Z" fill="#10C419"/>
<path fill-rule="evenodd" clip-rule="evenodd" d="M243.465 94.9858C246.245 92.5489 247.789 88.8616 248.025 85.1297C248.19 82.6036 247.773 80.1184 247 77.7237C246.88 81.9119 245.237 86.0565 242.46 89.1406C241.021 90.6955 239.301 91.998 237.44 92.9586C236.098 93.6248 232.877 93.9065 231.955 94.9514C231.198 95.7925 231.29 96.5788 231.788 97.2617C232.971 97.6622 234.063 97.9235 234.609 97.9463C237.694 98.1855 241.039 97.1165 243.465 94.9858Z" fill="#13A316"/>
<path fill-rule="evenodd" clip-rule="evenodd" d="M225.381 92.0376C224.394 89.8596 224.749 87.2311 225.881 85.1066C227.013 82.982 228.795 81.2859 230.602 79.6911C233.116 77.4839 235.771 75.4029 238.567 73.4481C239.895 72.5155 241.54 71.556 243.128 72.0688C244.361 72.4563 245.141 73.6074 245.603 74.7854C246.835 77.7109 246.775 81.074 245.711 84.0992C244.646 87.1244 242.717 89.7222 240.341 91.8399C238.749 93.2179 237.003 94.419 235.001 95.0376C231.897 95.9913 226.919 95.3169 225.381 92.0376Z" fill="#82453B"/>
<path fill-rule="evenodd" clip-rule="evenodd" d="M223.852 80.1159C224.052 79.4171 223.909 78.6436 223.361 78.1894C222.533 77.4827 221.19 77.9332 220.419 78.7236C219.611 79.5776 219.249 80.696 218.873 81.7638C218.761 82.1704 218.635 82.5263 218.473 82.9458C218.322 83.416 218.135 83.9499 218.2 84.4191C218.411 86.0932 221.742 87.2956 221.464 84.9367C221.319 83.7318 220.531 83.6086 221.528 82.4365C222.273 81.5447 223.478 81.3994 223.852 80.1159Z" fill="#9F6255"/>
<path fill-rule="evenodd" clip-rule="evenodd" d="M239.65 69.2297C240.726 68.7931 240.112 67.654 239.969 66.8806C239.825 66.1072 239.048 65.3875 238.274 65.5308C237.653 65.6352 237.276 66.2715 237.151 66.8431C237.04 67.4655 237.195 68.0738 237.3 68.6951C237.533 69.8234 236.928 70.6257 237.946 71.23C238.964 71.8343 239.377 70.4873 238.751 69.7288" fill="#9F6255"/>
<path fill-rule="evenodd" clip-rule="evenodd" d="M253.883 68.2993C253.569 68.9734 253.395 69.7736 253.728 70.4446C254.061 71.1156 254.926 71.543 255.584 71.1592C256.192 70.7883 256.353 69.9373 256.387 69.2265C256.423 68.7315 256.472 68.2871 256.305 67.8437C256.188 67.3875 255.819 66.9958 255.361 66.8965C254.904 66.7971 254.449 67.1292 254.171 67.5239C253.945 67.9057 253.858 68.4137 253.873 68.8958" fill="#9F6255"/>
<path d="M254.021 54.9572C256.541 51.3952 256.939 47.3441 254.911 45.9088C252.882 44.4735 249.195 46.1975 246.674 49.7595C244.154 53.3214 243.756 57.3725 245.785 58.8078C247.813 60.2431 251.501 58.5191 254.021 54.9572Z" fill="#E3E803"/>
</g>
<defs>
<clipPath id="clip0">
<rect width="65" height="64" fill="white" transform="translate(215 134)"/>
</clipPath>
<clipPath id="clip1">
<rect width="65.2783" height="101.538" fill="white" transform="translate(20 24.1152) rotate(-14.3072)"/>
</clipPath>
<clipPath id="clip2">
<rect width="65.2783" height="101.538" fill="white" transform="translate(48.6543 32.4512) rotate(-14.3072)"/>
</clipPath>
<clipPath id="clip3">
<rect width="65.5578" height="101.973" fill="white" transform="translate(188 23.1689) rotate(-14.3072)"/>
</clipPath>
</defs>
</svg>
