<svg width="293" height="209" viewBox="0 0 293 209" fill="none" xmlns="http://www.w3.org/2000/svg">
<rect width="293" height="209" rx="10" fill="#6550E2"/>
<g clip-path="url(#clip0)">
<path d="M264.326 190.48C277.949 181.402 281.46 163.084 272.168 149.565C262.876 136.047 244.3 132.447 230.677 141.524C217.054 150.602 213.543 168.92 222.835 182.439C232.127 195.957 250.703 199.557 264.326 190.48Z" fill="#E59F39"/>
<path d="M262.04 187.16C273.814 179.316 276.848 163.484 268.817 151.798C260.786 140.112 244.731 136.997 232.958 144.841C221.184 152.685 218.15 168.517 226.181 180.203C234.212 191.89 250.266 195.004 262.04 187.16Z" fill="#F7CC7F"/>
<path opacity="0.3" d="M233.656 144.394C226.909 148.579 222.827 155.363 221.891 162.621C223.477 156.618 227.286 151.178 233.019 147.619C245.044 140.157 260.995 143.792 268.639 155.722C271.993 160.957 273.189 166.922 272.461 172.605C274.203 166.013 273.267 158.73 269.276 152.483C261.632 140.554 245.681 136.931 233.656 144.394Z" fill="#F7CC7F"/>
<path d="M249.763 149.59L252.35 157.411C252.675 158.384 253.585 159.037 254.612 159.037H262.971C265.285 159.037 266.247 161.942 264.375 163.286L257.615 168.125C256.783 168.726 256.432 169.789 256.744 170.749L259.331 178.569C260.046 180.733 257.524 182.537 255.665 181.193L248.905 176.355C248.073 175.753 246.942 175.753 246.097 176.355L239.337 181.193C237.465 182.525 234.956 180.733 235.671 178.569L238.258 170.749C238.583 169.776 238.232 168.726 237.387 168.125L230.627 163.286C228.755 161.955 229.717 159.037 232.031 159.037H240.39C241.417 159.037 242.34 158.384 242.652 157.411L245.239 149.59C245.941 147.427 249.061 147.427 249.763 149.59Z" fill="#E59F39"/>
</g>
<path d="M133.36 195L117.79 172.68L132.37 151.53H119.59L110.68 164.94L101.68 151.53H88.9L103.39 172.68L88 195H100.69L110.68 180.33L120.58 195H133.36Z" fill="white"/>
<path d="M178.249 196.08C192.649 196.08 201.919 188.79 201.919 178.44C201.919 169.44 193.999 164.67 187.879 164.04C194.539 162.87 201.019 157.92 201.019 150.36C201.019 140.37 192.379 134.07 178.339 134.07C167.809 134.07 160.249 138.12 155.389 143.61L161.779 151.62C166.009 147.57 171.229 145.41 176.989 145.41C183.289 145.41 188.149 147.75 188.149 152.52C188.149 156.93 183.739 158.91 177.079 158.91C174.829 158.91 170.689 158.91 169.609 158.82V170.34C170.509 170.25 174.559 170.16 177.079 170.16C185.449 170.16 189.139 172.32 189.139 177.09C189.139 181.59 185.089 184.74 177.799 184.74C171.949 184.74 165.379 182.22 161.239 177.9L154.579 186.45C158.989 191.85 167.179 196.08 178.249 196.08Z" fill="#FCB527"/>
<g clip-path="url(#clip1)">
<path d="M96.2697 104.959C96.1005 104.824 95.964 104.662 95.86 104.472C95.8556 104.454 95.8556 104.454 95.8512 104.435C94.4385 101.711 92.7243 99.1164 91.3256 96.3689C90.6668 95.083 90.0449 93.7883 89.4372 92.4707C89.4055 92.4198 89.3879 92.346 89.3747 92.2906C87.8224 87.2592 86.2701 82.2278 84.7178 77.1964C83.3477 72.7651 81.9777 68.3337 80.6076 63.9023C80.5944 63.847 80.5812 63.7916 80.568 63.7363C78.0592 50.0212 77.3957 35.9245 76.7631 21.9569C76.764 21.8787 76.6723 21.8225 76.5983 21.8402C76.5058 21.8622 76.4098 21.7876 76.4248 21.6866C76.7529 20.4382 76.4413 19.05 76.009 17.7296C75.795 17.0786 75.1307 16.6716 74.4327 16.7796C62.2158 18.6993 51.2522 26.3654 38.9042 27.2438C34.4619 27.5625 29.9792 26.9743 25.5483 27.5048C22.3141 27.8863 19.2022 28.8626 16.1494 29.9223C14.5604 30.4769 13.8034 30.5015 14.7636 32.0665C15.2753 32.9 15.9308 33.6796 16.5818 34.4409C16.8549 34.7657 16.979 35.2041 16.9049 35.6313C16.2756 39.3891 17.7066 43.3379 19.6894 46.648C20.8935 48.6619 22.3206 50.5445 23.6966 52.4589C23.7829 52.5748 23.8551 52.7136 23.8903 52.8612C24.4248 54.5277 25.4387 56.236 25.9176 57.9158C26.4494 59.817 26.8146 61.758 27.1428 63.7077C27.9663 68.718 28.4056 73.8394 29.9139 78.6863C30.4968 80.5558 31.2507 82.4041 32.2275 84.1211C32.327 84.2924 32.3896 84.4725 32.3966 84.6658C33.7004 96.4452 34.4728 108.293 34.7377 120.145C34.7747 120.136 34.8117 120.127 34.8302 120.123C34.652 120.77 34.8862 121.669 34.9433 122.319C34.9749 122.779 35.025 123.235 35.0566 123.696C35.1348 124.516 35.8802 125.098 36.6936 124.982C46.302 123.607 55.9624 122.121 65.0628 118.78C67.5789 117.849 70.0642 116.788 72.6517 116.073C76.0632 115.123 79.6014 114.786 83.0692 114.154C88.1735 113.248 93.1837 111.702 97.919 109.578C98.7166 109.231 99.0139 108.263 98.5655 107.532C97.9586 106.546 97.1842 105.677 96.2697 104.959Z" fill="#DDBF0A"/>
<path d="M75.9952 17.7523C75.7812 17.1013 75.1168 16.6943 74.4189 16.8023C62.216 18.6992 51.2525 26.3652 38.9045 27.2437C34.4622 27.5624 29.9795 26.9741 25.5486 27.5046C22.3144 27.8861 19.2025 28.8624 16.1497 29.9222C14.5607 30.4767 13.8037 30.5013 14.7639 32.0663C15.2078 32.7795 15.7443 33.4705 16.3134 34.1343C17.2043 34.0973 18.0874 33.9451 18.9563 33.8158C25.4142 32.7628 31.8536 31.7143 38.3115 30.6613C43.1514 29.8772 48.0283 29.0844 52.737 27.6686C57.2422 26.3014 61.5598 24.3939 66.1055 23.1145C69.4985 22.1687 72.998 21.5874 76.53 21.3883C76.6863 20.2395 76.4196 18.9576 75.9952 17.7523Z" fill="#AF940C"/>
<path d="M64.6051 114.073C56.2145 115.47 47.824 116.867 39.4564 118.278C37.8199 118.551 35.9692 118.993 34.7352 119.97C34.7299 120.03 34.7432 120.085 34.7378 120.145C34.7749 120.136 34.8119 120.127 34.8304 120.123C34.6522 120.77 34.8864 121.669 34.9435 122.319C34.9751 122.779 35.0252 123.235 35.0568 123.696C35.135 124.516 35.8804 125.098 36.6938 124.982C46.3022 123.607 55.9626 122.121 65.063 118.78C67.5791 117.849 70.0644 116.788 72.6519 116.073C76.0634 115.123 79.6016 114.786 83.0694 114.154C88.1737 113.248 93.1838 111.702 97.9192 109.578C98.7168 109.231 99.014 108.263 98.5657 107.532C97.9588 106.546 97.1844 105.677 96.2699 104.959C96.1782 104.903 96.1007 104.824 96.0417 104.741C95.2159 105.133 94.4218 105.576 93.6233 106C84.6873 110.687 74.5536 112.402 64.6051 114.073Z" fill="#AF940C"/>
<path d="M32.1204 36.5262L33.969 44.2755L27.2264 48.809L22.1797 38.3125L32.1204 36.5262Z" fill="#DD0E0E"/>
<path d="M63.1328 32.0531L36.668 38.3662L37.9444 43.7169L64.4092 37.4038L63.1328 32.0531Z" fill="#AF940C"/>
<path fill-rule="evenodd" clip-rule="evenodd" d="M52.0384 60.2452C46.1067 60.8802 41.6271 62.0268 39.449 64.4575C38.0318 61.7144 37.079 59.1141 37.0602 56.7395C37.0296 52.5932 39.2938 51.0975 41.5764 50.4165C44.4423 49.5573 49.2239 49.4307 53.067 49.06C58.0188 48.5808 62.3432 47.6857 64.8526 45.332C66.3361 47.5327 67.0836 49.9285 67.2618 52.4796C67.5281 55.3997 66.1688 57.245 63.5319 58.2445C60.1168 59.5077 56.0067 59.8251 52.0384 60.2452Z" fill="white"/>
<path fill-rule="evenodd" clip-rule="evenodd" d="M47.5359 50.555C47.9616 50.4535 48.2673 50.7511 48.3509 51.1016C48.4433 51.4891 48.3234 51.8882 47.8977 51.9898C47.4765 52.1098 47.1751 51.8306 47.0642 51.4476C46.9806 51.097 47.0732 50.6654 47.5359 50.555ZM47.4699 50.2783C46.8591 50.424 46.4942 50.862 46.6483 51.5078C46.8023 52.1536 47.279 52.4299 47.9452 52.2709C48.593 52.1164 48.9165 51.6687 48.7624 51.023C48.6084 50.3772 48.1176 50.1237 47.4699 50.2783ZM45.3907 51.7298L45.2498 51.1394C45.5089 51.0776 45.8474 50.9383 45.9266 51.2704C46.0058 51.6025 45.6683 51.6636 45.3907 51.7298ZM45.2344 52.8786L45.6416 52.7815L45.4567 52.0065C45.7898 51.9271 46.2014 51.8484 46.3345 51.5046C46.4677 51.1609 46.2563 50.6848 45.6738 50.7847L44.7855 50.9966L45.2344 52.8786ZM42.8193 51.4461L43.171 51.3623C43.215 51.5468 43.4253 52.5106 43.4976 52.6494C43.6684 53.0377 44.4087 52.8611 44.3586 52.405C44.3155 52.1423 44.1438 51.4227 44.0734 51.1275L44.425 51.0436C44.4823 51.2835 44.7428 52.2938 44.7542 52.5056C44.7523 53.0716 44.0165 53.2666 43.6252 53.1845C43.2754 53.1119 43.1724 52.844 43.0975 52.5303L42.8193 51.4461ZM41.7034 52.5899L41.567 52.0179C41.8446 51.9517 42.183 51.8124 42.2578 52.1261C42.3414 52.4767 41.9255 52.5369 41.7034 52.5899ZM41.5515 53.7571L41.9587 53.66L41.765 52.8482L42.0056 52.7908L42.6434 53.4967L43.1246 53.3819L42.3996 52.6383C42.6181 52.4887 42.768 52.2969 42.6976 52.0017C42.6096 51.6327 42.2641 51.5786 41.9495 51.6536L41.0982 51.8567L41.5515 53.7571ZM40.2643 52.9527L40.3259 53.211L40.6405 53.1359L40.7373 53.5419C40.4306 53.732 39.9353 53.8697 39.6905 53.4991C39.4456 53.1285 39.444 52.4658 40.0362 52.3246C40.2768 52.2672 40.4424 52.3056 40.5834 52.4865L40.7395 52.1568C40.5289 52.012 40.3077 51.9868 39.9931 52.0618C38.7346 52.362 39.07 53.6861 39.6436 53.9588C40.1071 54.1797 40.7328 53.9329 41.1691 53.7119L40.949 52.7893L40.2643 52.9527ZM49.6886 61.1374C46.1486 61.6309 42.857 62.5916 41.1848 64.765C40.5106 64.8089 39.8409 64.8711 39.1667 64.9149C37.7503 62.5032 36.9323 59.8122 36.6062 56.8869C36.5197 53.9824 37.4007 51.1982 40.8272 50.1468C44.3832 49.0645 49.5359 48.7714 54.5449 48.1225C58.1308 47.6571 61.1281 46.6106 62.7756 44.5795C63.5687 44.6244 64.3618 44.6692 65.1734 44.7096C66.7554 47.1598 67.4404 49.785 67.6353 52.4881C67.9048 56.324 65.83 58.2035 62.6 59.013C58.1487 60.1138 53.3582 60.6131 49.6886 61.1374ZM52.0382 60.2454C46.1065 60.8804 41.627 62.027 39.4488 64.4576C38.0316 61.7146 37.0788 59.1143 37.06 56.7396C37.0294 52.5933 39.2936 51.0976 41.5762 50.4166C44.4422 49.5575 49.2237 49.4309 53.0669 49.0601C58.0186 48.5809 62.343 47.6859 64.8525 45.3322C66.3359 47.5329 67.0834 49.9287 67.2617 52.4797C67.5279 55.3998 66.1686 57.2452 63.5317 58.2447C60.1166 59.5079 56.0065 59.8253 52.0382 60.2454Z" fill="#3D438B"/>
<path fill-rule="evenodd" clip-rule="evenodd" d="M57.4939 55.6486L56.2724 55.9399L55.4185 52.3605L56.4364 52.1177C56.9731 51.9896 57.2304 52.0843 57.3008 52.3795C57.425 52.8179 57.2372 53.0967 56.83 53.1938L56.4414 53.2865L56.2111 54.453L57.155 54.2279C57.6176 54.1175 58.1225 54.3481 58.1638 54.7672C58.2236 55.182 57.9565 55.5382 57.4939 55.6486ZM57.9976 56.7764L55.0921 57.4696L53.6748 51.5284L56.4323 50.8706C57.3947 50.641 58.275 50.7235 58.6431 51.6108C58.917 52.267 58.8094 52.7997 58.3889 53.251C59.2269 53.4021 59.7801 54.2451 59.705 55.1601C59.6484 56.0707 58.7009 56.6087 57.9976 56.7764ZM62.1674 50.8871C63.0372 50.6796 63.9306 51.227 64.1419 52.1126C64.3531 52.9983 63.8215 53.8856 62.9332 54.0975C62.0634 54.305 61.1699 53.7576 60.9587 52.872C60.7474 51.9863 61.2975 51.0946 62.1674 50.8871ZM61.8328 49.4848C63.48 49.0919 65.1523 50.1165 65.5528 51.7956C65.9489 53.4561 64.9421 55.1394 63.2765 55.5367C61.6294 55.9296 59.9571 54.905 59.5566 53.2259C59.1745 51.5425 60.1857 49.8777 61.8328 49.4848ZM53.0826 51.6697L54.4998 57.6108L53.0378 57.9596L52.1399 54.1956L52.0754 58.1892L50.6504 58.5291L48.8545 55.0184L49.7436 58.7454L48.3185 59.0854L46.9013 53.1442L49.1961 52.5968L50.7701 55.7509L50.7322 52.2303L53.0826 51.6697ZM44.8285 53.6387L46.272 53.2943L47.6893 59.2355L46.2458 59.5798L44.8285 53.6387ZM43.2991 59.0347L42.0776 59.3261L41.2237 55.7466L42.2416 55.5038C42.7783 55.3758 43.0356 55.4704 43.106 55.7656C43.2302 56.204 43.0424 56.4828 42.6353 56.5799L42.2466 56.6726L42.0163 57.8391L42.9602 57.614C43.4228 57.5036 43.9277 57.7342 43.969 58.1533C44.0288 58.5681 43.7617 58.9243 43.2991 59.0347ZM43.8028 60.1626L40.8973 60.8557L39.48 54.9145L42.2375 54.2567C43.1999 54.0272 44.0802 54.1097 44.4484 54.9969C44.7222 55.6531 44.6146 56.1858 44.1941 56.6371C45.0321 56.7882 45.5853 57.6313 45.5102 58.5462C45.4536 59.4568 44.5061 59.9948 43.8028 60.1626Z" fill="#DA243C"/>
<mask id="mask0" mask-type="alpha" maskUnits="userSpaceOnUse" x="12" y="15" width="88" height="112">
<path d="M96.2697 104.959C96.1005 104.824 95.964 104.662 95.86 104.472C95.8556 104.454 95.8556 104.454 95.8512 104.435C94.4385 101.711 92.7243 99.1164 91.3256 96.3689C90.6668 95.083 90.0449 93.7883 89.4372 92.4707C89.4055 92.4198 89.3879 92.346 89.3747 92.2906C87.8224 87.2592 86.2701 82.2278 84.7178 77.1964C83.3477 72.7651 81.9777 68.3337 80.6076 63.9023C80.5944 63.847 80.5812 63.7916 80.568 63.7363C78.0592 50.0212 77.3957 35.9245 76.7631 21.9569C76.764 21.8787 76.6723 21.8225 76.5983 21.8402C76.5058 21.8622 76.4098 21.7876 76.4248 21.6866C76.7529 20.4382 76.4413 19.05 76.009 17.7296C75.795 17.0786 75.1307 16.6716 74.4327 16.7796C62.2158 18.6993 51.2522 26.3654 38.9042 27.2438C34.4619 27.5625 29.9792 26.9743 25.5483 27.5048C22.3141 27.8863 19.2022 28.8626 16.1494 29.9223C14.5604 30.4769 13.8034 30.5015 14.7636 32.0665C15.2753 32.9 15.9308 33.6796 16.5818 34.4409C16.8549 34.7657 16.979 35.2041 16.9049 35.6313C16.2756 39.3891 17.7066 43.3379 19.6894 46.648C20.8935 48.6619 22.3206 50.5445 23.6966 52.4589C23.7829 52.5748 23.8551 52.7136 23.8903 52.8612C24.4248 54.5277 25.4387 56.236 25.9176 57.9158C26.4494 59.817 26.8146 61.758 27.1428 63.7077C27.9663 68.718 28.4056 73.8394 29.9139 78.6863C30.4968 80.5558 31.2507 82.404 32.2275 84.1211C32.327 84.2924 32.3896 84.4725 32.3966 84.6658C33.7004 96.4452 34.4728 108.293 34.7377 120.145C34.7747 120.136 34.8117 120.127 34.8302 120.123C34.652 120.77 34.8862 121.669 34.9433 122.319C34.9749 122.779 35.025 123.235 35.0566 123.696C35.1348 124.516 35.8802 125.098 36.6936 124.982C46.302 123.607 55.9624 122.121 65.0628 118.78C67.5789 117.849 70.0642 116.788 72.6517 116.073C76.0632 115.123 79.6014 114.786 83.0692 114.154C88.1735 113.248 93.1837 111.702 97.919 109.578C98.7166 109.231 99.0139 108.263 98.5655 107.532C97.9586 106.546 97.1842 105.677 96.2697 104.959Z" fill="#DDBF0A"/>
</mask>
<g mask="url(#mask0)">
<path d="M66.9264 62.3884C65.1216 62.4484 63.2657 62.5401 61.6326 63.3197C59.3914 64.4199 57.9905 66.6651 56.7016 68.8056L48.7698 82.0472C48.3749 82.6874 48.4575 83.5257 48.9632 84.0876L59.8625 96.4056C61.065 97.7569 62.3407 99.1686 64.0263 99.839C65.6247 100.472 67.3977 100.361 69.1109 100.245C72.8835 99.9883 76.6605 99.7503 80.4331 99.4939C82.7833 99.3428 85.1521 99.1872 87.4109 98.5704C90.0582 97.8609 92.5331 96.51 94.5797 94.6762C95.7917 93.6071 96.8821 92.2744 97.1222 90.6571C97.327 89.3017 96.8445 87.9347 96.3795 86.6416C94.2282 80.739 91.8222 74.9168 89.1703 69.2116C88.5221 67.8062 87.8553 66.4052 87.1701 65.0086C86.7192 64.1021 86.2983 62.5839 85.382 62.0225C84.6304 61.5778 83.5297 61.8013 82.7128 61.8207C81.0834 61.8779 79.454 61.9351 77.8431 61.9878C74.1966 62.1167 70.5729 62.2595 66.9264 62.3884Z" fill="#996A2B"/>
<path d="M67.9898 102.267C68.7233 101.078 69.2779 99.7949 70.1489 98.6901C71.3195 97.2018 72.9694 96.1647 74.6141 95.1873C76.2402 94.2144 77.9218 93.2282 79.1656 91.8005C79.8716 90.9885 80.4368 89.9957 80.6935 88.9399C80.9934 87.7373 80.0006 86.6091 78.7624 86.7485C75.2559 87.1364 71.7749 87.7133 68.3194 88.4791C66.3304 88.9146 64.3175 89.4142 62.5302 90.3671C60.6917 91.3517 59.0972 92.7851 57.9467 94.5221C56.8245 96.2134 56.1366 98.2495 56.2471 100.271C56.3576 102.292 57.3679 104.313 59.0807 105.425C62.3416 107.534 66.1755 105.157 67.9898 102.267Z" fill="#CE9F1B"/>
<path d="M60.2908 84.0962C59.2752 85.7425 58.2261 87.4943 58.2732 89.4136C58.2984 90.4216 58.7018 91.4565 59.5256 92.04C60.3908 92.6331 61.5399 92.6125 62.5657 92.4848C64.4137 92.278 66.2785 91.8137 67.8403 90.8171C69.4206 89.8161 70.6617 88.2134 70.9275 86.3755C71.2329 84.2941 70.1601 82.0929 68.383 80.9567C66.9909 80.0408 64.9563 79.6291 63.3214 80.1556C61.8673 80.6195 61.071 82.857 60.2908 84.0962Z" fill="#E8C258"/>
<path d="M62.8101 64.8127C59.6617 64.1597 56.2068 66.0759 55.0005 69.0547C53.9794 71.5799 54.4774 74.4057 54.9958 77.0707C55.2483 78.3755 55.5414 79.7681 56.4576 80.7391C57.9941 82.3421 60.7603 82.1308 62.5883 80.8562C64.4163 79.5816 65.5377 77.559 66.5984 75.6094C67.1688 74.5568 68.1429 73.3104 68.2771 72.0694C68.3796 71.1869 68.0045 70.1063 67.7324 69.2937C66.9689 67.0772 65.0879 65.3418 62.8101 64.8127Z" fill="#E8B71A"/>
<path d="M68.7419 67.7858C68.7079 66.3313 69.2502 64.9149 69.8744 63.596C70.3329 62.6481 71.0188 61.5874 72.0666 61.552C72.7451 61.5266 73.354 61.9469 73.917 62.3391C77.4447 64.9102 80.9866 67.4584 84.5144 70.0295C85.7681 70.9395 87.1531 72.0717 87.2505 73.628C87.3277 74.9356 86.4145 76.109 85.3991 76.9362C82.8844 78.9402 79.2792 79.4882 76.2657 78.335C74.1157 77.5218 72.3264 75.8425 71.2932 73.8074C70.8511 72.9379 70.7103 71.9379 70.1845 71.1273C69.4498 70.0155 68.7759 69.2402 68.7419 67.7858Z" fill="#B58612"/>
<path d="M86.9442 77.4262C87.6241 78.8825 87.9832 80.5519 87.633 82.1175C87.2827 83.6831 86.1033 85.1345 84.5346 85.5282C84.2326 84.5082 84.6374 83.4171 84.8386 82.3746C85.1033 81.0244 84.9997 79.6061 84.5717 78.3041C84.3577 77.6531 84.0697 77.0198 83.7165 76.441C83.5536 76.1679 82.8822 75.5675 82.9696 75.1957C83.1292 74.5531 84.2633 74.6335 84.7418 74.7534C85.8917 75.0641 86.4712 76.4274 86.9442 77.4262Z" fill="#E8C258"/>
<path d="M79.757 80.0962C79.0614 81.1981 78.3332 82.3274 78.1293 83.6046C77.907 84.8862 78.3375 86.363 79.4512 87.0139C80.134 87.4165 81.0012 87.4437 81.7696 87.2213C82.5337 86.9806 83.2036 86.5088 83.7774 85.9624C84.9533 84.8239 85.7688 83.3228 86.0688 81.7106C86.2506 80.7507 86.2438 79.7383 85.8713 78.8327C85.4988 77.927 84.7464 77.1509 83.7938 76.9296C82.6571 76.6743 81.4418 77.2372 80.629 78.0941C79.8163 78.951 79.3331 80.0413 78.8685 81.1272" fill="#B58612"/>
<path d="M70.1379 68.7991C69.0865 69.1474 68.1611 69.7777 67.3131 70.487C63.7029 73.4738 61.2264 77.7697 60.4488 82.3818C60.305 83.2547 60.2606 84.2988 60.9461 84.8763C61.5628 85.4117 62.5146 85.3017 63.306 85.0934C67.0311 84.1462 70.4024 81.8795 72.6301 78.7545C73.9339 76.9224 75.4847 74.0759 75.3593 71.7462C75.2128 69.2461 72.2451 68.1209 70.1379 68.7991Z" fill="#CE9F1B"/>
<path d="M66.5053 78.0891C65.9087 77.8024 65.2257 78.2189 64.6863 78.5815C60.5341 81.3466 57.1973 83.0201 52.2096 83.0204C51.9118 82.8379 51.1019 83.0506 51.0657 83.3908C51.0339 83.7494 51.3026 84.0558 51.633 84.211C51.9634 84.3661 52.3141 84.3605 52.6649 84.3548C57.0948 84.3121 61.5144 83.1603 65.4329 81.0555C66.0225 80.7394 66.6219 80.3819 66.9331 79.8006C67.2443 79.2194 67.1018 78.3758 66.5053 78.0891Z" fill="#E8C258"/>
<path d="M53.9294 79.9777C53.5672 80.1811 53.1768 80.4303 53.011 80.8013C52.8267 81.1768 52.9817 81.7443 53.3958 81.8406C53.7271 81.9175 54.0251 81.6905 54.2904 81.4907C56.5247 79.7876 59.277 78.78 62.0794 78.6381C62.661 78.6163 65.1558 78.3332 64.4864 77.1669C64.1243 76.5512 62.5054 76.8984 61.997 76.9807C59.1725 77.4399 56.3911 78.5715 53.9294 79.9777Z" fill="#E8C258"/>
<path d="M83.814 77.1777C83.7457 75.4975 83.2721 73.7579 82.1656 72.4813C81.2186 71.3811 79.8934 70.6637 78.5003 70.2355C76.0128 69.4833 73.1875 69.6113 70.9436 70.9461C68.6996 72.2809 67.1929 74.9024 67.5368 77.492C67.7664 79.1923 68.7397 80.8127 68.5586 82.5134C68.4438 83.6719 67.7852 84.765 67.9056 85.9258C68.0226 86.99 68.8101 87.9136 69.7688 88.4065C70.7274 88.8993 71.8475 89.0027 72.9367 88.9768C76.0386 88.8609 79.0219 87.4277 81.1515 85.2036C83.3649 82.9206 83.9489 80.2852 83.814 77.1777Z" fill="#E8B71A"/>
<path d="M86.4729 81.8483C86.8996 81.259 87.2858 80.5818 87.8992 80.2015C88.5126 79.8211 89.4679 79.8078 89.8669 80.4146C90.2616 81.003 89.9573 81.7776 89.6179 82.4046C87.0506 86.9757 81.8946 89.9607 76.6487 89.9445C75.2 89.9391 73.2906 89.0685 74.3027 87.3255C75.0935 85.9668 76.3446 86.7019 77.5669 86.7419C80.9799 86.8638 84.5873 84.5212 86.4729 81.8483Z" fill="#E8C258"/>
<path d="M52.8699 100.281C57.0876 97.9218 59.4379 94.1058 58.1196 91.7576C56.8012 89.4094 52.3134 89.4182 48.0957 91.7773C43.8781 94.1364 41.5277 97.9524 42.8461 100.301C44.1645 102.649 48.6523 102.64 52.8699 100.281Z" fill="#916409"/>
<path d="M51.3894 98.6613C55.6071 96.3022 58.1529 92.8343 57.0756 90.9156C55.9983 88.9968 51.706 89.3538 47.4883 91.7129C43.2706 94.072 40.7249 97.5398 41.8021 99.4586C42.8794 101.377 47.1718 101.02 51.3894 98.6613Z" fill="#7F5A18"/>
<path fill-rule="evenodd" clip-rule="evenodd" d="M52.9545 91.2277C51.6141 91.4304 50.2886 91.9416 49.3181 92.8751C48.2075 93.9591 47.622 95.5223 46.3431 96.3929C45.6036 96.9008 44.6924 97.0987 43.9212 97.5557C43.15 98.0127 42.48 98.894 42.7424 99.7479C42.9203 100.33 43.4877 100.74 44.086 100.87C44.6843 101.001 45.3126 100.929 45.9181 100.843C48.2569 100.48 50.6126 99.8596 52.6292 98.6375C54.2879 97.6373 55.7114 96.2252 56.727 94.5789C57.0656 94.0301 57.3583 93.4533 57.4254 92.8327C57.5094 91.9547 57.1993 91.2291 56.2961 91.1325C55.2131 91.0204 54.0314 91.0683 52.9545 91.2277Z" fill="white"/>
</g>
<mask id="mask1" mask-type="alpha" maskUnits="userSpaceOnUse" x="12" y="15" width="88" height="112">
<path d="M96.2697 104.959C96.1005 104.824 95.964 104.662 95.86 104.472C95.8556 104.454 95.8556 104.454 95.8512 104.435C94.4385 101.711 92.7243 99.1164 91.3256 96.3689C90.6668 95.083 90.0449 93.7883 89.4372 92.4707C89.4055 92.4198 89.3879 92.346 89.3747 92.2906C87.8224 87.2592 86.2701 82.2278 84.7178 77.1964C83.3477 72.7651 81.9777 68.3337 80.6076 63.9023C80.5944 63.847 80.5812 63.7916 80.568 63.7363C78.0592 50.0212 77.3957 35.9245 76.7631 21.9569C76.764 21.8787 76.6723 21.8225 76.5983 21.8402C76.5058 21.8622 76.4098 21.7876 76.4248 21.6866C76.7529 20.4382 76.4413 19.05 76.009 17.7296C75.795 17.0786 75.1307 16.6716 74.4327 16.7796C62.2158 18.6993 51.2522 26.3654 38.9042 27.2438C34.4619 27.5625 29.9792 26.9743 25.5483 27.5048C22.3141 27.8863 19.2022 28.8626 16.1494 29.9223C14.5604 30.4769 13.8034 30.5015 14.7636 32.0665C15.2753 32.9 15.9308 33.6796 16.5818 34.4409C16.8549 34.7657 16.979 35.2041 16.9049 35.6313C16.2756 39.3891 17.7066 43.3379 19.6894 46.648C20.8935 48.6619 22.3206 50.5445 23.6966 52.4589C23.7829 52.5748 23.8551 52.7136 23.8903 52.8612C24.4248 54.5277 25.4387 56.236 25.9176 57.9158C26.4494 59.817 26.8146 61.758 27.1428 63.7077C27.9663 68.718 28.4056 73.8394 29.9139 78.6863C30.4968 80.5558 31.2507 82.404 32.2275 84.1211C32.327 84.2924 32.3896 84.4725 32.3966 84.6658C33.7004 96.4452 34.4728 108.293 34.7377 120.145C34.7747 120.136 34.8117 120.127 34.8302 120.123C34.652 120.77 34.8862 121.669 34.9433 122.319C34.9749 122.779 35.025 123.235 35.0566 123.696C35.1348 124.516 35.8802 125.098 36.6936 124.982C46.302 123.607 55.9624 122.121 65.0628 118.78C67.5789 117.849 70.0642 116.788 72.6517 116.073C76.0632 115.123 79.6014 114.786 83.0692 114.154C88.1735 113.248 93.1837 111.702 97.919 109.578C98.7166 109.231 99.0139 108.263 98.5655 107.532C97.9586 106.546 97.1842 105.677 96.2697 104.959Z" fill="#DDBF0A"/>
</mask>
<g mask="url(#mask1)">
<path opacity="0.15" d="M86.2244 126.313L101.972 0.360352L99.1967 0.0190152L83.4494 125.972L86.2244 126.313Z" fill="white"/>
<path opacity="0.15" d="M96.7068 131.943L112.454 5.99023L111.076 5.82073L95.3288 131.774L96.7068 131.943Z" fill="white"/>
<path opacity="0.15" d="M94.1336 128.553L109.881 2.59961L103.915 1.86585L88.1682 127.819L94.1336 128.553Z" fill="white"/>
<path opacity="0.15" d="M26.3563 139.338L42.1035 13.3848L39.3285 13.0434L23.5812 138.996L26.3563 139.338Z" fill="white"/>
<path opacity="0.15" d="M36.8406 144.948L52.5879 18.9951L51.2098 18.8256L35.4626 144.779L36.8406 144.948Z" fill="white"/>
<path opacity="0.15" d="M34.2869 141.56L50.0342 15.6074L44.0688 14.8737L28.3216 140.827L34.2869 141.56Z" fill="white"/>
<path opacity="0.15" d="M80.3885 128.27L96.1357 2.31738L90.1704 1.58362L74.4231 127.537L80.3885 128.27Z" fill="white"/>
<path opacity="0.15" d="M72.785 125.709L88.5322 -0.244141L85.7572 -0.585478L70.0099 125.367L72.785 125.709Z" fill="white"/>
</g>
</g>
<defs>
<clipPath id="clip0">
<rect width="65" height="64" fill="white" transform="translate(215 134)"/>
</clipPath>
<clipPath id="clip1">
<rect width="67.8854" height="102.145" fill="white" transform="translate(11 28.752) rotate(-13.417)"/>
</clipPath>
</defs>
</svg>
