<svg width="293" height="209" viewBox="0 0 293 209" fill="none" xmlns="http://www.w3.org/2000/svg">
<rect width="293" height="209" rx="10" fill="#6550E2"/>
<path d="M166 89V76M166 76V63M166 76H179M166 76H153" stroke="white" stroke-width="3" stroke-linecap="round"/>
<path d="M101.495 112.835C101.326 112.7 101.19 112.538 101.086 112.348C101.081 112.33 101.081 112.33 101.077 112.311C99.664 109.587 97.9498 106.992 96.5512 104.245C95.8923 102.959 95.2705 101.664 94.6628 100.347C94.6311 100.296 94.6135 100.222 94.6003 100.167C93.048 95.1352 91.4957 90.1038 89.9434 85.0724C88.5733 80.641 87.2033 76.2097 85.8332 71.7783C85.82 71.723 85.8068 71.6676 85.7936 71.6123C83.2848 57.8972 82.6213 43.8005 81.9887 29.8328C81.9896 29.7546 81.8979 29.6985 81.8239 29.7161C81.7314 29.7382 81.6353 29.6636 81.6504 29.5625C81.9785 28.3142 81.6669 26.926 81.2345 25.6056C81.0206 24.9546 80.3562 24.5475 79.6583 24.6555C67.4413 26.5753 56.4778 34.2413 44.1298 35.1198C39.6875 35.4385 35.2048 34.8503 30.7739 35.3807C27.5397 35.7622 24.4278 36.7386 21.375 37.7983C19.786 38.3529 19.029 38.3774 19.9891 39.9425C20.5009 40.7759 21.1564 41.5556 21.8074 42.3168C22.0805 42.6417 22.2046 43.0801 22.1305 43.5073C21.5012 47.2651 22.9322 51.2139 24.915 54.524C26.1191 56.5379 27.5462 58.4205 28.9222 60.3349C29.0085 60.4508 29.0807 60.5896 29.1159 60.7372C29.6504 62.4037 30.6643 64.1119 31.1432 65.7918C31.675 67.693 32.0402 69.6339 32.3684 71.5837C33.1919 76.594 33.6312 81.7154 35.1395 86.5623C35.7224 88.4318 36.4763 90.28 37.4531 91.9971C37.5526 92.1683 37.6152 92.3484 37.6222 92.5418C38.926 104.321 39.6984 116.169 39.9632 128.021C40.0003 128.012 40.0373 128.003 40.0558 127.999C39.8776 128.646 40.1118 129.545 40.1689 130.195C40.2005 130.655 40.2506 131.111 40.2822 131.572C40.3604 132.392 41.1058 132.974 41.9192 132.858C51.5276 131.483 61.188 129.997 70.2884 126.656C72.8045 125.725 75.2898 124.664 77.8773 123.949C81.2888 122.999 84.827 122.662 88.2948 122.03C93.3991 121.124 98.4092 119.578 103.145 117.454C103.942 117.107 104.239 116.139 103.791 115.408C103.184 114.422 102.41 113.553 101.495 112.835Z" fill="#DDBF0A"/>
<path d="M81.2198 25.6283C81.0058 24.9773 80.3414 24.5702 79.6435 24.6782C67.4407 26.5751 56.4771 34.2412 44.1291 35.1196C39.6868 35.4383 35.2041 34.8501 30.7732 35.3806C27.539 35.7621 24.4271 36.7384 21.3743 37.7981C19.7853 38.3527 19.0283 38.3773 19.9885 39.9423C20.4324 40.6554 20.9689 41.3465 21.538 42.0103C22.4289 41.9732 23.312 41.8211 24.1809 41.6918C30.6388 40.6388 37.0782 39.5902 43.5361 38.5372C48.376 37.7532 53.2529 36.9604 57.9616 35.5446C62.4668 34.1774 66.7844 32.2699 71.3301 30.9905C74.7231 30.0446 78.2226 29.4633 81.7546 29.2643C81.9109 28.1155 81.6442 26.8336 81.2198 25.6283Z" fill="#AF940C"/>
<path d="M69.8306 121.949C61.4401 123.346 53.0496 124.743 44.682 126.154C43.0455 126.427 41.1948 126.869 39.9608 127.846C39.9555 127.906 39.9687 127.961 39.9634 128.021C40.0004 128.012 40.0375 128.003 40.056 127.999C39.8778 128.646 40.112 129.545 40.1691 130.195C40.2007 130.655 40.2508 131.111 40.2824 131.572C40.3606 132.392 41.106 132.974 41.9194 132.858C51.5278 131.483 61.1881 129.997 70.2885 126.656C72.8047 125.725 75.29 124.664 77.8775 123.949C81.289 122.999 84.8272 122.662 88.295 122.03C93.3992 121.124 98.4094 119.578 103.145 117.454C103.942 117.107 104.24 116.139 103.791 115.408C103.184 114.422 102.41 113.553 101.495 112.835C101.404 112.779 101.326 112.7 101.267 112.617C100.441 113.009 99.6474 113.452 98.8489 113.876C89.9129 118.562 79.7792 120.278 69.8306 121.949Z" fill="#AF940C"/>
<path d="M37.3469 44.4022L39.1955 52.1515L32.453 56.685L27.4062 46.1885L37.3469 44.4022Z" fill="#DD0E0E"/>
<path d="M68.3574 39.9291L41.8926 46.2422L43.169 51.5929L69.6338 45.2798L68.3574 39.9291Z" fill="#AF940C"/>
<path fill-rule="evenodd" clip-rule="evenodd" d="M57.265 68.1212C51.3333 68.7562 46.8537 69.9028 44.6756 72.3334C43.2584 69.5904 42.3056 66.9901 42.2868 64.6155C42.2561 60.4691 44.5204 58.9735 46.8029 58.2925C49.6689 57.4333 54.4505 57.3067 58.2936 56.936C63.2453 56.4568 67.5697 55.5617 70.0792 53.208C71.5626 55.4087 72.3102 57.8045 72.4884 60.3556C72.7547 63.2757 71.3953 65.121 68.7584 66.1205C65.3434 67.3837 61.2332 67.7011 57.265 68.1212Z" fill="white"/>
<path fill-rule="evenodd" clip-rule="evenodd" d="M52.7625 58.431C53.1881 58.3295 53.4938 58.6271 53.5775 58.9776C53.6699 59.3651 53.5499 59.7642 53.1243 59.8657C52.703 59.9857 52.4017 59.7066 52.2908 59.3236C52.2071 58.973 52.2998 58.5414 52.7625 58.431ZM52.6964 58.1542C52.0857 58.2999 51.7208 58.738 51.8748 59.3838C52.0289 60.0296 52.5055 60.3059 53.1718 60.1469C53.8195 59.9924 54.1431 59.5447 53.989 58.8989C53.835 58.2532 53.3442 57.9997 52.6964 58.1542ZM50.6172 59.6058L50.4764 59.0153C50.7355 58.9535 51.0739 58.8143 51.1532 59.1464C51.2324 59.4785 50.8949 59.5395 50.6172 59.6058ZM50.461 60.7546L50.8681 60.6575L50.6833 59.8825C51.0164 59.8031 51.4279 59.7244 51.5611 59.3806C51.6943 59.0368 51.4829 58.5607 50.9004 58.6607L50.012 58.8726L50.461 60.7546ZM48.0459 59.3221L48.3975 59.2382C48.4415 59.4227 48.6519 60.3866 48.7241 60.5254C48.895 60.9136 49.6353 60.737 49.5852 60.281C49.542 60.0183 49.3704 59.2987 49.3 59.0035L49.6516 58.9196C49.7088 59.1594 49.9694 60.1698 49.9808 60.3816C49.9789 60.9476 49.243 61.1426 48.8518 61.0604C48.5019 60.9879 48.3989 60.72 48.3241 60.4063L48.0459 59.3221ZM46.93 60.4658L46.7935 59.8939C47.0711 59.8277 47.4096 59.6884 47.4844 60.0021C47.568 60.3526 47.1521 60.4129 46.93 60.4658ZM46.7781 61.6331L47.1853 61.536L46.9916 60.7242L47.2322 60.6668L47.87 61.3726L48.3512 61.2579L47.6261 60.5143C47.8447 60.3646 47.9946 60.1729 47.9241 59.8777C47.8361 59.5087 47.4907 59.4546 47.1761 59.5296L46.3248 59.7327L46.7781 61.6331ZM45.4908 60.8286L45.5525 61.087L45.8671 61.0119L45.9639 61.4178C45.6572 61.608 45.1619 61.7456 44.917 61.375C44.6721 61.0044 44.6705 60.3418 45.2628 60.2005C45.5033 60.1431 45.669 60.1816 45.81 60.3625L45.966 60.0328C45.7554 59.888 45.5343 59.8628 45.2196 59.9378C43.9612 60.238 44.2966 61.5621 44.8702 61.8347C45.3337 62.0557 45.9594 61.8089 46.3957 61.5878L46.1756 60.6653L45.4908 60.8286ZM54.9152 69.0134C51.3752 69.5068 48.0836 70.4675 46.4113 72.641C45.7372 72.6848 45.0674 72.7471 44.3933 72.7909C42.9769 70.3792 42.1589 67.6882 41.8327 64.7629C41.7462 61.8584 42.6273 59.0741 46.0538 58.0228C49.6098 56.9405 54.7624 56.6474 59.7715 55.9985C63.3573 55.5331 66.3546 54.4866 68.0022 52.4555C68.7953 52.5003 69.5884 52.5452 70.4 52.5856C71.982 55.0358 72.6669 57.661 72.8619 60.3641C73.1314 64.1999 71.0565 66.0795 67.8266 66.8889C63.3753 67.9898 58.5848 68.489 54.9152 69.0134ZM57.2648 68.1214C51.3331 68.7563 46.8535 69.9029 44.6754 72.3336C43.2582 69.5905 42.3054 66.9902 42.2866 64.6156C42.2559 60.4693 44.5202 58.9736 46.8028 58.2926C49.6687 57.4334 54.4503 57.3068 58.2934 56.9361C63.2452 56.4569 67.5696 55.5618 70.079 53.2081C71.5624 55.4089 72.31 57.8046 72.4882 60.3557C72.7545 63.2758 71.3952 65.1211 68.7583 66.1207C65.3432 67.3838 61.2331 67.7013 57.2648 68.1214Z" fill="#3D438B"/>
<path fill-rule="evenodd" clip-rule="evenodd" d="M62.7214 63.5245L61.4999 63.8159L60.6461 60.2365L61.664 59.9936C62.2007 59.8656 62.4579 59.9602 62.5284 60.2555C62.6525 60.6939 62.4647 60.9727 62.0576 61.0698L61.6689 61.1625L61.4386 62.329L62.3825 62.1038C62.8452 61.9935 63.3501 62.224 63.3914 62.6432C63.4512 63.0579 63.1841 63.4142 62.7214 63.5245ZM63.2252 64.6524L60.3196 65.3455L58.9023 59.4044L61.6599 58.7466C62.6222 58.517 63.5026 58.5995 63.8707 59.4867C64.1446 60.1429 64.0369 60.6756 63.6165 61.1269C64.4545 61.2781 65.0077 62.1211 64.9325 63.0361C64.8759 63.9466 63.9284 64.4847 63.2252 64.6524ZM67.3949 58.7631C68.2647 58.5556 69.1581 59.103 69.3694 59.9886C69.5807 60.8742 69.0491 61.7616 68.1607 61.9735C67.2909 62.181 66.3975 61.6336 66.1862 60.7479C65.975 59.8623 66.5251 58.9705 67.3949 58.7631ZM67.0604 57.3608C68.7075 56.9679 70.3798 57.9925 70.7803 59.6715C71.1765 61.3321 70.1697 63.0153 68.504 63.4127C66.8569 63.8056 65.1846 62.7809 64.7841 61.1019C64.4021 59.4185 65.4133 57.7537 67.0604 57.3608ZM58.3101 59.5456L59.7274 65.4868L58.2653 65.8356L57.3674 62.0716L57.303 66.0651L55.8779 66.4051L54.082 62.8943L54.9711 66.6214L53.5461 66.9613L52.1288 61.0202L54.4237 60.4727L55.9976 63.6269L55.9597 60.1063L58.3101 59.5456ZM50.056 61.5146L51.4996 61.1703L52.9168 67.1114L51.4733 67.4558L50.056 61.5146ZM48.5266 66.9107L47.3052 67.202L46.4513 63.6226L47.4692 63.3798C48.0059 63.2517 48.2632 63.3464 48.3336 63.6416C48.4577 64.08 48.27 64.3588 47.8628 64.4559L47.4742 64.5486L47.2439 65.7151L48.1877 65.49C48.6504 65.3796 49.1553 65.6102 49.1966 66.0293C49.2564 66.4441 48.9893 66.8003 48.5266 66.9107ZM49.0304 68.0385L46.1248 68.7317L44.7076 62.7905L47.4651 62.1327C48.4274 61.9031 49.3078 61.9856 49.6759 62.8729C49.9498 63.5291 49.8421 64.0618 49.4217 64.5131C50.2597 64.6642 50.8129 65.5073 50.7377 66.4222C50.6811 67.3328 49.7336 67.8708 49.0304 68.0385Z" fill="#DA243C"/>
<mask id="mask0" mask-type="alpha" maskUnits="userSpaceOnUse" x="18" y="23" width="87" height="112">
<path d="M101.495 112.835C101.326 112.7 101.19 112.538 101.086 112.348C101.081 112.33 101.081 112.33 101.077 112.311C99.664 109.587 97.9498 106.992 96.5512 104.245C95.8923 102.959 95.2705 101.664 94.6628 100.347C94.6311 100.296 94.6135 100.222 94.6003 100.167C93.048 95.1352 91.4957 90.1038 89.9434 85.0724C88.5733 80.641 87.2033 76.2097 85.8332 71.7783C85.82 71.723 85.8068 71.6676 85.7936 71.6123C83.2848 57.8972 82.6213 43.8005 81.9887 29.8328C81.9896 29.7546 81.8979 29.6985 81.8239 29.7161C81.7314 29.7382 81.6353 29.6636 81.6504 29.5625C81.9785 28.3142 81.6669 26.926 81.2345 25.6056C81.0206 24.9546 80.3562 24.5475 79.6583 24.6555C67.4413 26.5753 56.4778 34.2413 44.1298 35.1198C39.6875 35.4385 35.2048 34.8503 30.7739 35.3807C27.5397 35.7622 24.4278 36.7386 21.375 37.7983C19.786 38.3529 19.029 38.3774 19.9891 39.9425C20.5009 40.7759 21.1563 41.5556 21.8074 42.3168C22.0805 42.6417 22.2046 43.0801 22.1305 43.5073C21.5012 47.2651 22.9322 51.2139 24.915 54.524C26.1191 56.5379 27.5462 58.4205 28.9222 60.3349C29.0085 60.4508 29.0807 60.5895 29.1159 60.7372C29.6504 62.4037 30.6643 64.1119 31.1432 65.7918C31.675 67.693 32.0402 69.6339 32.3684 71.5837C33.1919 76.594 33.6312 81.7154 35.1395 86.5623C35.7224 88.4318 36.4763 90.28 37.4531 91.9971C37.5526 92.1683 37.6152 92.3484 37.6222 92.5418C38.926 104.321 39.6984 116.169 39.9632 128.021C40.0003 128.012 40.0373 128.003 40.0558 127.999C39.8776 128.646 40.1118 129.545 40.1689 130.195C40.2005 130.655 40.2506 131.111 40.2822 131.572C40.3604 132.392 41.1058 132.974 41.9192 132.858C51.5276 131.483 61.188 129.997 70.2884 126.656C72.8045 125.725 75.2898 124.664 77.8773 123.949C81.2888 122.999 84.827 122.662 88.2948 122.029C93.3991 121.124 98.4092 119.578 103.145 117.454C103.942 117.107 104.239 116.139 103.791 115.408C103.184 114.422 102.41 113.553 101.495 112.835Z" fill="#DDBF0A"/>
</mask>
<g mask="url(#mask0)">
<path d="M72.152 70.2644C70.3472 70.3244 68.4913 70.4161 66.8582 71.1957C64.617 72.2958 63.2161 74.5411 61.9272 76.6816L53.9954 89.9231C53.6004 90.5634 53.6831 91.4017 54.1887 91.9636L65.0881 104.282C66.2906 105.633 67.5663 107.045 69.2519 107.715C70.8503 108.348 72.6233 108.237 74.3365 108.121C78.1091 107.864 81.8861 107.626 85.6587 107.37C88.0089 107.219 90.3777 107.063 92.6364 106.446C95.2838 105.737 97.7587 104.386 99.8053 102.552C101.017 101.483 102.108 100.15 102.348 98.533C102.553 97.1776 102.07 95.8107 101.605 94.5176C99.4538 88.615 97.0478 82.7927 94.3959 77.0876C93.7477 75.6822 93.0809 74.2812 92.3957 72.8846C91.9447 71.9781 91.5239 70.4599 90.6076 69.8985C89.856 69.4537 88.7553 69.6773 87.9384 69.6967C86.309 69.7539 84.6796 69.811 83.0687 69.8638C79.4221 69.9926 75.7985 70.1355 72.152 70.2644Z" fill="#996A2B"/>
<path d="M73.2154 110.143C73.9489 108.954 74.5035 107.671 75.3744 106.566C76.5451 105.078 78.195 104.041 79.8396 103.063C81.4657 102.09 83.1474 101.104 84.3912 99.6765C85.0972 98.8645 85.6624 97.8717 85.9191 96.8159C86.219 95.6133 85.2261 94.4851 83.988 94.6245C80.4815 95.0124 77.0005 95.5893 73.545 96.3551C71.556 96.7905 69.5431 97.2902 67.7557 98.2431C65.9173 99.2277 64.3227 100.661 63.1723 102.398C62.0501 104.089 61.3622 106.125 61.4727 108.147C61.5832 110.168 62.5935 112.189 64.3063 113.301C67.5671 115.41 71.4011 113.033 73.2154 110.143Z" fill="#CE9F1B"/>
<path d="M65.5154 91.9721C64.4998 93.6185 63.4507 95.3703 63.4978 97.2896C63.5231 98.2976 63.9264 99.3325 64.7502 99.916C65.6154 100.509 66.7645 100.488 67.7903 100.361C69.6383 100.154 71.5031 99.6896 73.0649 98.6931C74.6452 97.6921 75.8864 96.0894 76.1521 94.2515C76.4575 92.17 75.3847 89.9688 73.6076 88.8327C72.2155 87.9168 70.1809 87.5051 68.546 88.0316C67.0919 88.4955 66.2956 90.733 65.5154 91.9721Z" fill="#E8C258"/>
<path d="M68.0357 72.6887C64.8872 72.0357 61.4323 73.9519 60.2261 76.9307C59.2049 79.4559 59.703 82.2817 60.2213 84.9466C60.4739 86.2514 60.767 87.6441 61.6832 88.6151C63.2197 90.2181 65.9859 90.0067 67.8139 88.7322C69.6419 87.4576 70.7633 85.435 71.824 83.4854C72.3944 82.4328 73.3685 81.1864 73.5027 79.9453C73.6052 79.0629 73.23 77.9823 72.958 77.1697C72.1945 74.9532 70.3135 73.2178 68.0357 72.6887Z" fill="#E8B71A"/>
<path d="M73.9675 75.6618C73.9335 74.2073 74.4758 72.7909 75.1 71.472C75.5585 70.5241 76.2444 69.4634 77.2922 69.428C77.9707 69.4026 78.5795 69.8229 79.1425 70.2151C82.6703 72.7862 86.2122 75.3344 89.74 77.9055C90.9937 78.8155 92.3787 79.9476 92.4761 81.504C92.5533 82.8116 91.6401 83.985 90.6247 84.8122C88.11 86.8161 84.5048 87.3641 81.4913 86.2109C79.3413 85.3978 77.552 83.7185 76.5188 81.6834C76.0767 80.8138 75.9359 79.8139 75.41 79.0033C74.6754 77.8915 74.0014 77.1162 73.9675 75.6618Z" fill="#B58612"/>
<path d="M92.1688 85.3021C92.8487 86.7585 93.2078 88.4279 92.8576 89.9935C92.5074 91.5591 91.3279 93.0105 89.7592 93.4042C89.4572 92.3842 89.862 91.2931 90.0632 90.2506C90.3279 88.9004 90.2243 87.4821 89.7963 86.1801C89.5824 85.5291 89.2944 84.8958 88.9411 84.317C88.7782 84.0439 88.1068 83.4435 88.1942 83.0716C88.3538 82.429 89.488 82.5095 89.9664 82.6294C91.1163 82.9401 91.6958 84.3034 92.1688 85.3021Z" fill="#E8C258"/>
<path d="M84.9826 87.9722C84.287 89.0741 83.5588 90.2034 83.3549 91.4805C83.1325 92.7621 83.5631 94.239 84.6768 94.8899C85.3596 95.2925 86.2267 95.3196 86.9952 95.0973C87.7593 94.8566 88.4292 94.3848 89.003 93.8384C90.1788 92.6998 90.9944 91.1987 91.2944 89.5866C91.4762 88.6267 91.4694 87.6143 91.0969 86.7086C90.7243 85.803 89.972 85.0269 89.0194 84.8056C87.8827 84.5503 86.6673 85.1132 85.8546 85.9701C85.0419 86.827 84.5587 87.9173 84.094 89.0032" fill="#B58612"/>
<path d="M75.3635 76.6751C74.3121 77.0234 73.3866 77.6537 72.5387 78.363C68.9284 81.3498 66.452 85.6456 65.6744 90.2578C65.5306 91.1306 65.4862 92.1748 66.1717 92.7523C66.7884 93.2877 67.7401 93.1776 68.5315 92.9694C72.2567 92.0222 75.628 89.7555 77.8557 86.6305C79.1595 84.7984 80.7103 81.9519 80.5849 79.6222C80.4384 77.1221 77.4707 75.9969 75.3635 76.6751Z" fill="#CE9F1B"/>
<path d="M71.7318 85.9651C71.1353 85.6784 70.4522 86.0948 69.9128 86.4575C65.7607 89.2226 62.4239 90.8961 57.4362 90.8963C57.1384 90.7139 56.3285 90.9266 56.2922 91.2667C56.2604 91.6253 56.5291 91.9317 56.8595 92.0869C57.19 92.2421 57.5407 92.2365 57.8914 92.2308C62.3214 92.1881 66.741 91.0363 70.6595 88.9315C71.2491 88.6153 71.8484 88.2579 72.1597 87.6766C72.4709 87.0953 72.3283 86.2518 71.7318 85.9651Z" fill="#E8C258"/>
<path d="M59.155 87.8537C58.7928 88.0571 58.4023 88.3062 58.2366 88.6773C58.0523 89.0528 58.2073 89.6203 58.6214 89.7165C58.9527 89.7935 59.2506 89.5664 59.5159 89.3666C61.7503 87.6636 64.5026 86.656 67.305 86.5141C67.8866 86.4923 70.3814 86.2092 69.712 85.0428C69.3499 84.4272 67.731 84.7744 67.2225 84.8567C64.3981 85.3159 61.6167 86.4474 59.155 87.8537Z" fill="#E8C258"/>
<path d="M89.0396 85.0537C88.9713 83.3734 88.4977 81.6339 87.3912 80.3572C86.4441 79.2571 85.119 78.5397 83.7259 78.1115C81.2383 77.3593 78.4131 77.4873 76.1691 78.8221C73.9252 80.1569 72.4185 82.7784 72.7624 85.368C72.992 87.0683 73.9653 88.6886 73.7842 90.3894C73.6694 91.5478 73.0108 92.641 73.1312 93.8018C73.2482 94.8659 74.0357 95.7896 74.9944 96.2824C75.953 96.7753 77.073 96.8786 78.1622 96.8528C81.2642 96.7369 84.2475 95.3037 86.3771 93.0796C88.5905 90.7966 89.1745 88.1611 89.0396 85.0537Z" fill="#E8B71A"/>
<path d="M91.6995 89.7242C92.1262 89.1349 92.5123 88.4578 93.1258 88.0775C93.7392 87.6971 94.6944 87.6838 95.0935 88.2906C95.4881 88.879 95.1839 89.6536 94.8445 90.2806C92.2772 94.8516 87.1212 97.8366 81.8753 97.8205C80.4265 97.8151 78.5172 96.9445 79.5292 95.2015C80.3201 93.8428 81.5712 94.5779 82.7935 94.6178C86.2064 94.7397 89.8139 92.3971 91.6995 89.7242Z" fill="#E8C258"/>
<path d="M58.0965 108.157C62.3142 105.798 64.6645 101.982 63.3461 99.6336C62.0278 97.2854 57.5399 97.2942 53.3223 99.6533C49.1046 102.012 46.7543 105.828 48.0727 108.177C49.391 110.525 53.8789 110.516 58.0965 108.157Z" fill="#916409"/>
<path d="M56.616 106.537C60.8336 104.178 63.3794 100.71 62.3022 98.7915C61.2249 96.8728 56.9325 97.2297 52.7149 99.5888C48.4972 101.948 45.9514 105.416 47.0287 107.335C48.1059 109.253 52.3983 108.896 56.616 106.537Z" fill="#7F5A18"/>
<path fill-rule="evenodd" clip-rule="evenodd" d="M58.181 99.1036C56.8406 99.3064 55.5152 99.8176 54.5447 100.751C53.4341 101.835 52.8485 103.398 51.5696 104.269C50.8302 104.777 49.9189 104.975 49.1477 105.432C48.3765 105.889 47.7066 106.77 47.969 107.624C48.1468 108.206 48.7142 108.616 49.3125 108.746C49.9109 108.877 50.5392 108.805 51.1446 108.719C53.4835 108.356 55.8392 107.736 57.8557 106.513C59.5145 105.513 60.938 104.101 61.9536 102.455C62.2921 101.906 62.5848 101.329 62.652 100.709C62.7359 99.8306 62.4259 99.1051 61.5227 99.0085C60.4397 98.8964 59.2579 98.9442 58.181 99.1036Z" fill="white"/>
</g>
<mask id="mask1" mask-type="alpha" maskUnits="userSpaceOnUse" x="18" y="23" width="87" height="112">
<path d="M101.495 112.835C101.326 112.7 101.19 112.538 101.086 112.348C101.081 112.33 101.081 112.33 101.077 112.311C99.664 109.587 97.9498 106.992 96.5512 104.245C95.8923 102.959 95.2705 101.664 94.6628 100.347C94.6311 100.296 94.6135 100.222 94.6003 100.167C93.048 95.1352 91.4957 90.1038 89.9434 85.0724C88.5733 80.641 87.2033 76.2097 85.8332 71.7783C85.82 71.723 85.8068 71.6676 85.7936 71.6123C83.2848 57.8972 82.6213 43.8005 81.9887 29.8328C81.9896 29.7546 81.8979 29.6985 81.8239 29.7161C81.7314 29.7382 81.6353 29.6636 81.6504 29.5625C81.9785 28.3142 81.6669 26.926 81.2345 25.6056C81.0206 24.9546 80.3562 24.5475 79.6583 24.6555C67.4413 26.5753 56.4778 34.2413 44.1298 35.1198C39.6875 35.4385 35.2048 34.8503 30.7739 35.3807C27.5397 35.7622 24.4278 36.7386 21.375 37.7983C19.786 38.3529 19.029 38.3774 19.9891 39.9425C20.5009 40.7759 21.1563 41.5556 21.8074 42.3168C22.0805 42.6417 22.2046 43.0801 22.1305 43.5073C21.5012 47.2651 22.9322 51.2139 24.915 54.524C26.1191 56.5379 27.5462 58.4205 28.9222 60.3349C29.0085 60.4508 29.0807 60.5895 29.1159 60.7372C29.6504 62.4037 30.6643 64.1119 31.1432 65.7918C31.675 67.693 32.0402 69.6339 32.3684 71.5837C33.1919 76.594 33.6312 81.7154 35.1395 86.5623C35.7224 88.4318 36.4763 90.28 37.4531 91.9971C37.5526 92.1683 37.6152 92.3484 37.6222 92.5418C38.926 104.321 39.6984 116.169 39.9632 128.021C40.0003 128.012 40.0373 128.003 40.0558 127.999C39.8776 128.646 40.1118 129.545 40.1689 130.195C40.2005 130.655 40.2506 131.111 40.2822 131.572C40.3604 132.392 41.1058 132.974 41.9192 132.858C51.5276 131.483 61.188 129.997 70.2884 126.656C72.8045 125.725 75.2898 124.664 77.8773 123.949C81.2888 122.999 84.827 122.662 88.2948 122.029C93.3991 121.124 98.4092 119.578 103.145 117.454C103.942 117.107 104.239 116.139 103.791 115.408C103.184 114.422 102.41 113.553 101.495 112.835Z" fill="#DDBF0A"/>
</mask>
<g mask="url(#mask1)">
<path opacity="0.15" d="M91.45 134.189L107.197 8.23633L104.422 7.89499L88.675 133.848L91.45 134.189Z" fill="white"/>
<path opacity="0.15" d="M101.932 139.819L117.68 13.8662L116.302 13.6967L100.554 139.65L101.932 139.819Z" fill="white"/>
<path opacity="0.15" d="M99.3602 136.428L115.107 10.4756L109.142 9.74183L93.3948 135.695L99.3602 136.428Z" fill="white"/>
<path opacity="0.15" d="M31.5809 147.214L47.3281 21.2607L44.5531 20.9194L28.8059 146.872L31.5809 147.214Z" fill="white"/>
<path opacity="0.15" d="M42.0653 152.824L57.8125 26.8711L56.4344 26.7016L40.6872 152.655L42.0653 152.824Z" fill="white"/>
<path opacity="0.15" d="M39.5125 149.436L55.2598 23.4834L49.2944 22.7496L33.5472 148.703L39.5125 149.436Z" fill="white"/>
<path opacity="0.15" d="M85.6141 136.146L101.361 10.1934L95.396 9.4596L79.6487 135.413L85.6141 136.146Z" fill="white"/>
<path opacity="0.15" d="M78.0106 133.585L93.7578 7.63184L90.9828 7.2905L75.2355 133.243L78.0106 133.585Z" fill="white"/>
</g>
<g clip-path="url(#clip0)">
<path d="M264.327 190.48C277.95 181.402 281.461 163.084 272.169 149.565C262.877 136.047 244.301 132.447 230.678 141.524C217.055 150.602 213.544 168.92 222.836 182.439C232.128 195.957 250.704 199.557 264.327 190.48Z" fill="#E59F39"/>
<path d="M262.041 187.16C273.815 179.316 276.849 163.484 268.818 151.798C260.787 140.112 244.732 136.997 232.958 144.841C221.185 152.685 218.151 168.517 226.182 180.203C234.213 191.89 250.267 195.004 262.041 187.16Z" fill="#F7CC7F"/>
<path opacity="0.3" d="M233.658 144.394C226.911 148.579 222.829 155.363 221.893 162.621C223.479 156.618 227.288 151.178 233.021 147.619C245.046 140.157 260.997 143.792 268.641 155.722C271.995 160.957 273.191 166.922 272.463 172.605C274.205 166.013 273.269 158.73 269.278 152.483C261.634 140.554 245.683 136.931 233.658 144.394Z" fill="#F7CC7F"/>
<path d="M249.764 149.59L252.351 157.411C252.676 158.384 253.586 159.037 254.613 159.037H262.972C265.286 159.037 266.248 161.942 264.376 163.286L257.616 168.125C256.784 168.726 256.433 169.789 256.745 170.749L259.332 178.569C260.047 180.733 257.525 182.537 255.666 181.193L248.906 176.355C248.074 175.753 246.943 175.753 246.098 176.355L239.338 181.193C237.466 182.525 234.957 180.733 235.672 178.569L238.259 170.749C238.584 169.776 238.233 168.726 237.388 168.125L230.628 163.286C228.756 161.955 229.718 159.037 232.032 159.037H240.391C241.418 159.037 242.341 158.384 242.653 157.411L245.24 149.59C245.942 147.427 249.062 147.427 249.764 149.59Z" fill="#E59F39"/>
</g>
<path d="M133.36 195L117.79 172.68L132.37 151.53H119.59L110.68 164.94L101.68 151.53H88.9L103.39 172.68L88 195H100.69L110.68 180.33L120.58 195H133.36Z" fill="white"/>
<path d="M196.519 195V182.58H204.259V171.33H196.519V134.97H178.879L155.029 172.5V182.58H183.739V195H196.519ZM183.739 171.33H167.539L183.739 146.31V171.33Z" fill="#FCB527"/>
<path d="M137.531 108.971C137.362 108.835 137.225 108.673 137.121 108.483C137.117 108.464 137.117 108.464 137.112 108.446C135.698 105.717 133.983 103.118 132.583 100.366C131.924 99.0784 131.301 97.7817 130.693 96.462C130.661 96.411 130.644 96.3371 130.63 96.2816C129.076 91.2425 127.522 86.2034 125.967 81.1642C124.595 76.7261 123.223 72.2879 121.851 67.8497C121.838 67.7943 121.825 67.7389 121.812 67.6834C119.297 53.9478 118.628 39.8305 117.99 25.8425C117.991 25.7642 117.899 25.708 117.825 25.7256C117.732 25.7477 117.636 25.673 117.651 25.5717C117.979 24.3217 117.667 22.9314 117.234 21.609C117.02 20.957 116.355 20.5491 115.657 20.6571C103.44 22.576 92.4789 30.2499 80.1304 31.126C75.6879 31.4438 71.2047 30.8534 66.7736 31.3833C63.5394 31.7644 60.4277 32.7412 57.375 33.8016C55.7862 34.3565 55.0291 34.3809 55.99 35.9485C56.5021 36.7833 57.1579 37.5643 57.8093 38.3268C58.0825 38.6522 58.2069 39.0913 58.1329 39.5191C57.5051 43.2821 58.9377 47.237 60.922 50.5525C62.127 52.5696 63.5549 54.4554 64.9318 56.373C65.0182 56.4891 65.0904 56.6281 65.1257 56.7759C65.6609 58.445 66.6755 60.156 67.1552 61.8384C67.6877 63.7425 68.0537 65.6864 68.3827 67.6391C69.2083 72.6568 69.6497 77.7857 71.1601 82.6401C71.7437 84.5125 72.4984 86.3636 73.476 88.0834C73.5756 88.255 73.6382 88.4353 73.6453 88.629C74.9539 100.426 75.7311 112.291 76.0007 124.16C76.0377 124.151 76.0747 124.142 76.0933 124.138C75.9153 124.786 76.1499 125.687 76.2073 126.337C76.239 126.798 76.2893 127.255 76.3211 127.716C76.3997 128.537 77.1453 129.121 77.9588 129.005C87.5672 127.63 97.2277 126.146 106.327 122.803C108.843 121.87 111.328 120.808 113.916 120.093C117.327 119.143 120.865 118.806 124.333 118.174C129.438 117.269 134.447 115.722 139.182 113.596C139.98 113.25 140.277 112.28 139.828 111.548C139.221 110.56 138.446 109.69 137.531 108.971Z" fill="#28AD07"/>
<path d="M117.219 21.6317C117.005 20.9797 116.34 20.5719 115.642 20.6799C103.439 22.5759 92.4782 30.2498 80.1298 31.1259C75.6872 31.4437 71.204 30.8533 66.773 31.3832C63.5387 31.7643 60.427 32.7411 57.3744 33.8015C55.7855 34.3564 55.0285 34.3808 55.9893 35.9484C56.4336 36.6627 56.9704 37.3549 57.5398 38.0198C58.4308 37.9829 59.3138 37.8308 60.1827 37.7016C66.6407 36.649 73.0801 35.6008 79.538 34.5482C84.3779 33.7645 89.2549 32.9719 93.9634 31.5555C98.4683 30.1877 102.785 28.2787 107.331 26.9988C110.724 26.0526 114.223 25.4715 117.756 25.2732C117.911 24.1228 117.644 22.8389 117.219 21.6317Z" fill="#287F0F"/>
<path d="M105.868 118.088C97.4772 119.484 89.0866 120.881 80.719 122.292C79.0825 122.565 77.2318 123.006 75.9982 123.984C75.9929 124.044 76.0061 124.1 76.0008 124.16C76.0379 124.151 76.0749 124.142 76.0934 124.137C75.9154 124.785 76.15 125.686 76.2074 126.337C76.2392 126.798 76.2895 127.255 76.3213 127.716C76.3998 128.537 77.1455 129.121 77.9589 129.005C87.5674 127.63 97.2278 126.145 106.328 122.802C108.843 121.87 111.329 120.808 113.916 120.093C117.327 119.143 120.866 118.806 124.333 118.174C129.438 117.269 134.448 115.722 139.182 113.596C139.98 113.249 140.277 112.28 139.828 111.547C139.221 110.559 138.446 109.69 137.531 108.97C137.439 108.914 137.362 108.835 137.303 108.751C136.477 109.144 135.683 109.587 134.885 110.012C125.95 114.702 115.816 116.417 105.868 118.088Z" fill="#287F0F"/>
<path d="M73.3508 40.4191L75.2026 48.1802L68.4614 52.7183L63.4102 42.2051L73.3508 40.4191Z" fill="#DD0E0E"/>
<path d="M104.363 35.9493L77.8984 42.2637L79.1771 47.6225L105.641 41.3081L104.363 35.9493Z" fill="#4EA532"/>
<path fill-rule="evenodd" clip-rule="evenodd" d="M93.2793 64.1802C87.3474 64.8144 82.868 65.9613 80.6907 68.3948C79.2723 65.6474 78.3183 63.043 78.2986 60.665C78.2663 56.5127 80.5301 55.0155 82.8126 54.3342C85.6784 53.4746 90.4602 53.3493 94.3035 52.9791C99.2554 52.5007 103.58 51.6056 106.088 49.2493C107.573 51.4536 108.321 53.8531 108.501 56.4079C108.768 59.3323 107.409 61.1798 104.773 62.18C101.358 63.444 97.2476 63.7607 93.2793 64.1802Z" fill="white"/>
<path fill-rule="evenodd" clip-rule="evenodd" d="M88.7728 54.4738C89.1985 54.3722 89.5043 54.6704 89.5881 55.0215C89.6807 55.4095 89.5609 55.8092 89.1352 55.9107C88.714 56.0308 88.4126 55.7511 88.3015 55.3675C88.2177 55.0164 88.3102 54.5842 88.7728 54.4738ZM88.7067 54.1966C88.096 54.3423 87.7312 54.7809 87.8855 55.4277C88.0398 56.0744 88.5166 56.3513 89.1829 56.1923C89.8306 56.0378 90.154 55.5895 89.9996 54.9428C89.8453 54.296 89.3544 54.0421 88.7067 54.1966ZM86.6279 55.6496L86.4869 55.0583C86.7459 54.9965 87.0843 54.8572 87.1637 55.1898C87.2431 55.5224 86.9055 55.5834 86.6279 55.6496ZM86.4721 56.8001L86.8793 56.7029L86.6941 55.9268C87.0272 55.8473 87.4387 55.7687 87.5718 55.4244C87.7048 55.0802 87.4932 54.6034 86.9107 54.7033L86.0224 54.9152L86.4721 56.8001ZM84.0563 55.3648L84.4079 55.2809C84.452 55.4657 84.6628 56.431 84.7351 56.57C84.9061 56.9589 85.6463 56.7823 85.5961 56.3255C85.5528 56.0624 85.3809 55.3417 85.3103 55.0461L85.662 54.9622C85.7193 55.2024 85.9803 56.2143 85.9918 56.4264C85.9901 56.9932 85.2542 57.1883 84.8629 57.1059C84.513 57.0331 84.4099 56.7648 84.3349 56.4506L84.0563 55.3648ZM82.9408 56.5099L82.8041 55.937C83.0817 55.8708 83.4201 55.7315 83.495 56.0456C83.5788 56.3967 83.1628 56.4569 82.9408 56.5099ZM82.7893 57.6788L83.1965 57.5816L83.0025 56.7686L83.2431 56.7112L83.8812 57.4183L84.3624 57.3034L83.637 56.5586C83.8555 56.4088 84.0053 56.2168 83.9348 55.9211C83.8466 55.5516 83.5011 55.4973 83.1865 55.5724L82.3352 55.7755L82.7893 57.6788ZM81.5017 56.8728L81.5634 57.1315L81.878 57.0564L81.975 57.4629C81.6683 57.6533 81.1731 57.791 80.928 57.4198C80.683 57.0486 80.6811 56.385 81.2733 56.2437C81.5139 56.1863 81.6796 56.2249 81.8206 56.4061L81.9766 56.0759C81.7659 55.9308 81.5447 55.9055 81.2301 55.9806C79.9717 56.2808 80.3076 57.6069 80.8814 57.8801C81.345 58.1015 81.9707 57.8546 82.4069 57.6333L82.1864 56.7094L81.5017 56.8728ZM90.93 65.0721C87.3899 65.5652 84.0984 66.5264 82.4269 68.7025C81.7528 68.7461 81.083 68.8083 80.4088 68.852C78.9914 66.4364 78.1723 63.7412 77.8449 60.8116C77.7572 57.9029 78.6372 55.1149 82.0635 54.063C85.6194 52.9802 90.7722 52.6882 95.7814 52.0399C99.3673 51.5749 102.364 50.5277 104.011 48.4942C104.804 48.5393 105.598 48.5844 106.409 48.6251C107.992 51.0794 108.678 53.7086 108.874 56.4156C109.146 60.2571 107.071 62.1387 103.841 62.9484C99.3902 64.0495 94.5996 64.5481 90.93 65.0721ZM93.2794 64.1795C87.3475 64.8136 82.8681 65.9606 80.6908 68.3941C79.2724 65.6467 78.3185 63.0423 78.2987 60.6643C78.2664 56.5119 80.5302 55.0148 82.8127 54.3335C85.6785 53.4739 90.4603 53.3485 94.3036 52.9784C99.2555 52.5 103.58 51.6049 106.089 49.2485C107.573 51.4529 108.321 53.8523 108.501 56.4071C108.768 59.3315 107.409 61.1791 104.773 62.1793C101.358 63.4433 97.2477 63.76 93.2794 64.1795Z" fill="#3D438B"/>
<path fill-rule="evenodd" clip-rule="evenodd" d="M98.7347 59.5779L97.5133 59.8694L96.6579 56.2845L97.6758 56.0416C98.2125 55.9136 98.4698 56.0084 98.5404 56.3041C98.6647 56.7431 98.477 57.0223 98.0699 57.1194L97.6812 57.2122L97.4514 58.3803L98.3952 58.1551C98.8579 58.0447 99.3629 58.2757 99.4044 58.6955C99.4643 59.1109 99.1974 59.4675 98.7347 59.5779ZM99.239 60.7076L96.3335 61.4008L94.9137 55.4507L97.6712 54.7927C98.6335 54.5631 99.514 54.646 99.8825 55.5346C100.157 56.1919 100.049 56.7253 99.6289 57.1771C100.467 57.3287 101.021 58.1732 100.946 59.0894C100.89 60.0012 99.9422 60.5398 99.239 60.7076ZM103.407 54.8109C104.276 54.6034 105.17 55.1519 105.382 56.0388C105.593 56.9258 105.062 57.8143 104.174 58.0262C103.304 58.2338 102.41 57.6853 102.199 56.7983C102.006 55.9069 102.537 55.0185 103.407 54.8109ZM103.072 53.4066C104.719 53.0136 106.391 54.0402 106.793 55.7217C107.189 57.3848 106.183 59.0702 104.518 59.4676C102.852 59.865 101.198 58.834 100.797 57.1524C100.414 55.4664 101.424 53.7996 103.072 53.4066ZM94.3215 55.592L95.7413 61.5421L94.2792 61.891L93.3798 58.1213L93.3169 62.1206L91.8919 62.4606L90.0945 58.9443L90.9851 62.677L89.5601 63.017L88.1404 57.0668L90.4352 56.5193L92.0105 59.6785L91.9712 56.1528L94.3215 55.592ZM86.0677 57.5614L87.5112 57.217L88.9309 63.1671L87.4874 63.5115L86.0677 57.5614ZM84.5403 62.9647L83.3189 63.2562L82.4635 59.6713L83.4814 59.4284C84.018 59.3004 84.2754 59.3952 84.3459 59.6909C84.4703 60.13 84.2826 60.4091 83.8754 60.5063L83.4868 60.599L83.257 61.7671L84.2008 61.5419C84.6634 61.4315 85.1685 61.6625 85.2099 62.0823C85.2699 62.4977 85.0029 62.8544 84.5403 62.9647ZM85.0445 64.0944L82.139 64.7877L80.7193 58.8375L83.4768 58.1796C84.4391 57.95 85.3195 58.0328 85.688 58.9215C85.9622 59.5787 85.8548 60.1121 85.4344 60.564C86.2726 60.7155 86.8261 61.56 86.7514 62.4762C86.6951 63.3881 85.7478 63.9266 85.0445 64.0944Z" fill="#DA243C"/>
<mask id="mask2" mask-type="alpha" maskUnits="userSpaceOnUse" x="54" y="19" width="87" height="112">
<path d="M137.531 108.971C137.362 108.835 137.225 108.673 137.121 108.483C137.117 108.464 137.117 108.464 137.112 108.446C135.698 105.717 133.983 103.118 132.583 100.366C131.924 99.0784 131.301 97.7817 130.693 96.462C130.661 96.411 130.644 96.3371 130.63 96.2816C129.076 91.2425 127.522 86.2034 125.967 81.1642C124.595 76.7261 123.223 72.2879 121.851 67.8497C121.838 67.7943 121.825 67.7389 121.812 67.6834C119.297 53.9478 118.628 39.8305 117.99 25.8425C117.991 25.7642 117.899 25.708 117.825 25.7256C117.732 25.7477 117.636 25.673 117.651 25.5717C117.979 24.3217 117.667 22.9314 117.234 21.609C117.02 20.957 116.355 20.5491 115.657 20.6571C103.44 22.576 92.4789 30.2499 80.1304 31.126C75.6879 31.4438 71.2047 30.8534 66.7736 31.3833C63.5394 31.7644 60.4277 32.7412 57.375 33.8016C55.7862 34.3565 55.0291 34.3809 55.99 35.9485C56.5021 36.7833 57.1579 37.5643 57.8093 38.3268C58.0825 38.6522 58.2069 39.0913 58.1329 39.5191C57.5051 43.2821 58.9377 47.237 60.922 50.5525C62.127 52.5696 63.5549 54.4554 64.9318 56.373C65.0182 56.4891 65.0904 56.6281 65.1257 56.7759C65.6609 58.445 66.6755 60.156 67.1552 61.8384C67.6877 63.7425 68.0537 65.6864 68.3827 67.6391C69.2083 72.6568 69.6497 77.7857 71.1601 82.6401C71.7437 84.5125 72.4984 86.3636 73.476 88.0834C73.5756 88.255 73.6382 88.4353 73.6453 88.629C74.9539 100.426 75.7311 112.291 76.0007 124.16C76.0377 124.151 76.0747 124.142 76.0933 124.138C75.9153 124.786 76.1499 125.687 76.2073 126.337C76.239 126.798 76.2893 127.255 76.3211 127.716C76.3997 128.537 77.1453 129.121 77.9588 129.005C87.5672 127.63 97.2277 126.146 106.327 122.803C108.843 121.87 111.328 120.808 113.916 120.093C117.327 119.143 120.865 118.806 124.333 118.174C129.438 117.269 134.447 115.722 139.182 113.596C139.98 113.25 140.277 112.28 139.828 111.548C139.221 110.56 138.446 109.69 137.531 108.971Z" fill="#28AD07"/>
</mask>
<g mask="url(#mask2)">
<path d="M84.1713 85.2778C84.1098 86.2495 84.3893 87.257 84.934 88.0645C84.5163 88.2814 84.0986 88.4982 83.6809 88.7151C83.7505 88.6789 83.8157 88.6243 83.8854 88.5882C83.8016 88.6472 83.2664 86.5679 83.2408 86.3787C83.127 85.4098 83.2116 85.2724 84.1713 85.2778Z" fill="#377220"/>
<path d="M87.976 99.1745C86.646 98.4372 85.6447 97.1918 85.0003 95.8026C84.3418 94.4363 84.0031 92.9351 83.7059 91.4436C83.5745 90.8109 83.4572 90.1553 83.4968 89.5013C83.5364 88.8474 83.7698 88.1862 84.25 87.7396C84.7814 87.2613 85.5446 87.0987 86.2681 87.18C86.9917 87.2612 87.6483 87.5538 88.2908 87.8692C89.5943 88.4957 90.8546 89.2691 91.8815 90.2936C92.9268 91.3137 93.7202 92.5892 94.0368 93.998C94.3966 95.6699 93.9932 97.9145 92.7429 99.1504C91.5956 100.244 89.1914 99.8415 87.976 99.1745Z" fill="#199319"/>
<path d="M108.169 66.3294C106.364 66.389 104.508 66.4803 102.875 67.2605C100.634 68.3616 99.2344 70.6097 97.9463 72.7529L90.0192 86.0112C89.6245 86.6523 89.7074 87.4918 90.2134 88.0547L101.118 100.394C102.322 101.747 103.598 103.161 105.284 103.833C106.883 104.467 108.656 104.357 110.369 104.241C114.142 103.985 117.919 103.748 121.692 103.493C124.042 103.342 126.411 103.187 128.67 102.57C131.317 101.86 133.791 100.508 135.837 98.672C137.049 97.6017 138.139 96.2675 138.378 94.6479C138.583 93.2906 138.1 91.9215 137.634 90.6264C135.48 84.7146 133.072 78.8832 130.417 73.1691C129.769 71.7614 129.101 70.3582 128.415 68.9594C127.964 68.0515 127.543 66.531 126.626 65.9685C125.874 65.5229 124.773 65.7464 123.956 65.7656C122.327 65.8224 120.698 65.8791 119.087 65.9315C115.44 66.0595 111.816 66.2015 108.169 66.3294Z" fill="#996A2B"/>
<path d="M109.248 106.266C109.981 105.076 110.535 103.791 111.406 102.685C112.576 101.195 114.225 100.157 115.87 99.1787C117.496 98.2048 119.177 97.2177 120.42 95.7883C121.126 94.9754 121.691 93.9812 121.947 92.924C122.247 91.7198 121.253 90.5897 120.015 90.7288C116.508 91.1163 113.027 91.693 109.572 92.4589C107.583 92.8944 105.57 93.3942 103.783 94.3479C101.945 95.3334 100.351 96.7684 99.201 98.5076C98.0793 100.201 97.3922 102.24 97.5036 104.264C97.6149 106.288 98.626 108.312 100.339 109.427C103.601 111.539 107.435 109.16 109.248 106.266Z" fill="#EF770A"/>
<path d="M101.542 88.0665C100.527 89.7149 99.4785 91.4689 99.5263 93.391C99.552 94.4005 99.9558 95.4369 100.78 96.0215C101.645 96.6158 102.795 96.5955 103.82 96.4679C105.668 96.2613 107.533 95.7969 109.095 94.7993C110.675 93.7973 111.915 92.1928 112.18 90.3522C112.485 88.2679 111.411 86.0632 109.633 84.9249C108.241 84.0072 106.206 83.5943 104.571 84.1211C103.117 84.5852 102.322 86.8257 101.542 88.0665Z" fill="#CC8E44"/>
<path d="M104.053 68.7564C100.904 68.1015 97.4499 70.0195 96.2448 73.0023C95.2246 75.5308 95.7238 78.3608 96.2433 81.0298C96.4964 82.3366 96.79 83.7313 97.7067 84.7039C99.2439 86.3098 102.01 86.0989 103.838 84.823C105.665 83.5471 106.786 81.522 107.846 79.5699C108.416 78.5159 109.39 77.268 109.524 76.0252C109.626 75.1415 109.25 74.0592 108.978 73.2454C108.232 71.0211 106.35 69.2826 104.053 68.7564Z" fill="#EF8F30"/>
<path d="M109.987 71.735C109.953 70.2785 110.494 68.8602 111.118 67.5395C111.576 66.5904 112.262 65.5284 113.31 65.4932C113.988 65.468 114.597 65.8891 115.16 66.282C118.69 68.8579 122.233 71.4108 125.762 73.9867C127.016 74.8983 128.401 76.0325 128.499 77.5911C128.577 78.9007 127.664 80.0755 126.649 80.9036C124.135 82.9097 120.53 83.4574 117.516 82.3017C115.365 81.4867 113.575 79.8045 112.541 77.7661C112.099 76.8952 111.957 75.8937 111.431 75.0818C110.696 73.9682 110.022 73.1916 109.987 71.735Z" fill="#FFC76C"/>
<path d="M128.194 81.3949C128.874 82.8535 129.234 84.5254 128.884 86.0932C128.535 87.661 127.356 89.1141 125.787 89.5079C125.485 88.4864 125.889 87.3938 126.09 86.3499C126.354 84.9978 126.25 83.5774 125.821 82.2734C125.607 81.6214 125.319 80.9871 124.965 80.4074C124.802 80.1338 124.131 79.5323 124.218 79.16C124.377 78.5165 125.511 78.5974 125.99 78.7176C127.159 79.0247 127.72 80.3946 128.194 81.3949Z" fill="#CC8E44"/>
<path d="M121.007 84.0664C120.312 85.1698 119.584 86.3004 119.381 87.5794C119.159 88.8628 119.59 90.3419 120.704 90.994C121.387 91.3974 122.254 91.4249 123.023 91.2025C123.787 90.9616 124.456 90.4893 125.03 89.9423C126.205 88.8024 127.02 87.2994 127.32 85.6851C127.501 84.7238 127.494 83.7099 127.121 82.8029C126.748 81.8958 125.995 81.1184 125.043 80.8965C123.906 80.6404 122.691 81.2038 121.878 82.0617C121.066 82.9196 120.583 84.0113 120.119 85.0986" fill="#FFC76C"/>
<path d="M111.402 72.7448C110.351 73.0933 109.426 73.7242 108.578 74.4343C104.969 77.4243 102.494 81.7257 101.718 86.3443C101.574 87.2183 101.53 88.2639 102.216 88.8425C102.833 89.3789 103.785 89.2689 104.576 89.0606C108.301 88.1132 111.672 85.8442 113.899 82.7153C115.202 80.881 116.752 78.0308 116.625 75.6977C116.459 73.1983 113.491 72.0707 111.402 72.7448Z" fill="#EF770A"/>
<path d="M107.755 82.0525C107.158 81.7652 106.475 82.1821 105.936 82.5451C101.785 85.3129 98.4484 86.9879 93.4603 86.9867C93.1624 86.8039 92.3525 87.0166 92.3164 87.3573C92.2847 87.7164 92.5536 88.0233 92.8841 88.1788C93.2146 88.3343 93.5653 88.3288 93.9161 88.3232C98.3463 88.2817 102.766 87.1296 106.684 85.0229C107.273 84.7065 107.872 84.3487 108.183 83.7666C108.495 83.1846 108.37 82.3354 107.755 82.0525Z" fill="#CC8E44"/>
<path d="M95.1769 83.9402C94.8147 84.1438 94.4244 84.3932 94.2587 84.7647C94.0746 85.1407 94.2298 85.7091 94.644 85.8056C94.9754 85.8827 95.2732 85.6554 95.5385 85.4554C97.7723 83.7506 100.524 82.7424 103.327 82.601C103.909 82.5794 106.403 82.2966 105.733 81.1284C105.371 80.5117 103.752 80.8589 103.244 80.9412C100.438 81.3959 97.6382 82.5326 95.1769 83.9402Z" fill="#CC8E44"/>
<path d="M125.064 81.1458C124.996 79.4631 124.521 77.7209 123.414 76.4421C122.467 75.3401 121.141 74.6213 119.748 74.192C117.26 73.438 114.434 73.5653 112.191 74.9014C109.947 76.2375 108.441 78.8623 108.786 81.4557C109.017 83.1586 109.991 84.7816 109.81 86.4847C109.696 87.6448 109.038 88.7393 109.158 89.9019C109.276 90.9676 110.064 91.8928 111.023 92.3866C111.982 92.8805 113.102 92.9843 114.191 92.9588C117.293 92.8436 120.276 91.4092 122.405 89.1825C124.618 86.8968 125.201 84.2578 125.064 81.1458Z" fill="#EF8F30"/>
<path d="M127.725 85.8223C128.152 85.2322 128.537 84.5542 129.151 84.1735C129.783 83.7884 130.719 83.7797 131.119 84.3876C131.514 84.9769 131.21 85.7525 130.871 86.3803C128.305 90.9573 123.15 93.945 117.903 93.9273C116.455 93.9215 114.545 93.0491 115.556 91.3039C116.347 89.9435 117.598 90.68 118.82 90.7203C122.234 90.8434 125.84 88.4985 127.725 85.8223Z" fill="#CC8E44"/>
<path d="M91.567 99.5482C93.8155 99.0117 95.1449 96.5084 94.5361 93.9571C93.9273 91.4057 91.611 89.7723 89.3624 90.3088C87.1138 90.8453 85.7845 93.3486 86.3933 95.9C87.002 98.4513 89.3184 100.085 91.567 99.5482Z" fill="#377220"/>
<path d="M91.3907 98.8094C93.2816 98.3583 94.3999 96.2551 93.8885 94.112C93.3772 91.9688 91.4298 90.5972 89.5389 91.0483C87.6481 91.4995 86.5298 93.6026 87.0411 95.7458C87.5525 97.8889 89.4999 99.2606 91.3907 98.8094Z" fill="#EDF219"/>
<path d="M95.5429 103.834C95.6638 104.586 95.544 105.396 95.0576 105.981C94.5245 106.616 93.6451 106.865 92.8228 106.944C90.5959 107.201 88.2718 106.643 86.4077 105.388C86.1556 105.234 85.9133 105.038 85.7546 104.782C85.5959 104.527 85.5536 104.186 85.7087 103.934C85.8355 103.728 86.0444 103.62 86.2576 103.53C88.1364 102.632 90.1598 102.013 92.2307 101.675C92.8732 101.58 94.1466 101.179 94.7045 101.631C95.2025 102.079 95.4574 103.229 95.5429 103.834Z" fill="#199319"/>
<path d="M90.4978 104.491C93.2063 103.845 95.2145 102.535 94.9831 101.566C94.7518 100.596 92.3686 100.334 89.6601 100.98C86.9515 101.626 84.9434 102.936 85.1747 103.906C85.4061 104.875 87.7893 105.137 90.4978 104.491Z" fill="#377220"/>
<path d="M90.3652 103.936C92.6649 103.388 94.391 102.364 94.2205 101.649C94.0501 100.935 92.0476 100.801 89.7479 101.349C87.4482 101.898 85.7222 102.922 85.8926 103.636C86.0631 104.351 88.0655 104.485 90.3652 103.936Z" fill="#EDF219"/>
</g>
<mask id="mask3" mask-type="alpha" maskUnits="userSpaceOnUse" x="54" y="19" width="87" height="112">
<path d="M137.531 108.971C137.362 108.835 137.225 108.673 137.121 108.483C137.117 108.464 137.117 108.464 137.112 108.446C135.698 105.717 133.983 103.118 132.583 100.366C131.924 99.0784 131.301 97.7817 130.693 96.462C130.661 96.411 130.644 96.3371 130.63 96.2816C129.076 91.2425 127.522 86.2034 125.967 81.1642C124.595 76.7261 123.223 72.2879 121.851 67.8497C121.838 67.7943 121.825 67.7389 121.812 67.6834C119.297 53.9478 118.628 39.8305 117.99 25.8425C117.991 25.7642 117.899 25.708 117.825 25.7256C117.732 25.7477 117.636 25.673 117.651 25.5717C117.979 24.3217 117.667 22.9314 117.234 21.609C117.02 20.957 116.355 20.5491 115.657 20.6571C103.44 22.576 92.4789 30.2499 80.1304 31.126C75.6879 31.4438 71.2047 30.8534 66.7736 31.3833C63.5394 31.7644 60.4277 32.7412 57.375 33.8016C55.7862 34.3565 55.0291 34.3809 55.99 35.9485C56.5021 36.7833 57.1579 37.5643 57.8093 38.3268C58.0825 38.6522 58.2069 39.0913 58.1329 39.5191C57.5051 43.2821 58.9377 47.237 60.922 50.5525C62.127 52.5696 63.5549 54.4554 64.9318 56.373C65.0182 56.4891 65.0904 56.6281 65.1257 56.7759C65.6609 58.445 66.6755 60.156 67.1552 61.8384C67.6877 63.7425 68.0537 65.6864 68.3827 67.6391C69.2083 72.6568 69.6497 77.7857 71.1601 82.6401C71.7437 84.5125 72.4984 86.3636 73.476 88.0834C73.5756 88.255 73.6382 88.4353 73.6453 88.629C74.9539 100.426 75.7311 112.291 76.0007 124.16C76.0377 124.151 76.0747 124.142 76.0933 124.138C75.9153 124.786 76.1499 125.687 76.2073 126.337C76.239 126.798 76.2893 127.255 76.3211 127.716C76.3997 128.537 77.1453 129.121 77.9588 129.005C87.5672 127.63 97.2277 126.146 106.327 122.803C108.843 121.87 111.328 120.808 113.916 120.093C117.327 119.143 120.865 118.806 124.333 118.174C129.438 117.269 134.447 115.722 139.182 113.596C139.98 113.25 140.277 112.28 139.828 111.548C139.221 110.56 138.446 109.69 137.531 108.971Z" fill="#28AD07"/>
</mask>
<g mask="url(#mask3)">
<path opacity="0.15" d="M127.492 130.369L143.189 4.23828L140.414 3.89563L124.716 130.026L127.492 130.369Z" fill="white"/>
<path opacity="0.15" d="M137.978 135.991L153.676 9.86035L152.298 9.69019L136.6 135.82L137.978 135.991Z" fill="white"/>
<path opacity="0.15" d="M135.404 132.595L151.102 6.46484L145.135 5.72826L129.438 131.858L135.404 132.595Z" fill="white"/>
<path opacity="0.15" d="M67.6478 143.379L83.3457 17.249L80.5703 16.9064L64.8724 143.037L67.6478 143.379Z" fill="white"/>
<path opacity="0.15" d="M78.1165 148.999L93.8145 22.8691L92.4362 22.699L76.7383 148.829L78.1165 148.999Z" fill="white"/>
<path opacity="0.15" d="M75.5599 145.606L91.2578 19.4756L85.2917 18.739L69.5938 144.869L75.5599 145.606Z" fill="white"/>
<path opacity="0.15" d="M121.659 132.309L137.357 6.17871L131.391 5.44213L115.693 131.572L121.659 132.309Z" fill="white"/>
<path opacity="0.15" d="M114.054 129.741L129.752 3.61035L126.977 3.2677L111.279 129.398L114.054 129.741Z" fill="white"/>
</g>
<g clip-path="url(#clip1)">
<path d="M189.822 38.5074C189.822 38.5074 192.837 46.3959 194.147 47.0787C195.456 47.7614 201.162 69.3486 206.699 73.257C206.699 73.257 207.173 89.0685 209.996 98.7958C210.89 102.328 210.839 104.489 210.042 106.064C209.244 107.638 208.725 114.095 209.474 115.635C210.294 117.218 209.06 118.724 210.034 120.207C210.034 120.207 257.732 106.577 264.355 106.272C264.355 106.272 266.531 104.706 252.815 85.7442C252.815 85.7442 251.316 82.1857 251.436 79.5895C251.556 76.9933 246.463 52.8642 243.325 40.4721C243.325 40.4721 242.655 37.1211 244.168 34.3514C245.68 31.5817 243.107 26.147 243.107 26.147C243.107 26.147 201.674 37.117 189.822 38.5074Z" fill="#9F27CC"/>
<path d="M235.27 99.6153C237.368 100.576 239.424 101.607 241.648 102.356C242.507 102.676 243.407 102.925 244.265 102.767C245.122 102.61 246.006 101.849 245.962 100.965C245.96 100.25 245.382 99.6203 244.706 99.3141C244.031 99.0079 243.299 98.9545 242.568 98.901C236.491 98.2919 230.733 96.1101 224.99 93.9844C222.879 93.2063 220.768 92.4283 218.642 91.5943C217.783 91.2747 216.981 90.9409 216.067 90.8741C215.208 90.793 214.239 90.979 213.551 91.5708C213.06 91.9936 212.682 92.8649 212.867 93.5938C213.051 94.3228 213.769 94.3201 214.373 94.346C216.089 94.5081 217.82 94.7262 219.55 94.9444C223.039 95.4928 226.431 96.3644 229.766 97.4887C231.652 98.0851 233.511 98.8079 235.27 99.6153Z" fill="#BA2020"/>
<path d="M221.477 95.4701C222.125 95.9027 222.857 96.1947 223.604 96.5427C227.207 98.0168 230.797 99.4348 234.401 100.909C235.738 101.465 237.132 102.007 238.524 101.834C239.859 101.675 241.039 100.899 242.162 100.137C242.359 99.9678 242.626 99.8405 242.681 99.5877C242.737 99.335 242.61 99.0688 242.384 98.8873C242.159 98.7057 241.905 98.6505 241.638 98.5392C240.202 98.0674 238.781 97.6517 237.345 97.1799C235.755 96.8069 234.164 96.1953 232.602 95.6959C230.984 95.2108 229.365 94.7256 227.789 94.1701C226.17 93.685 224.552 93.1998 222.975 92.6443C222.131 92.3808 221.343 92.1031 220.512 91.8957C220.118 91.7568 218.682 91.0465 218.628 91.7763C218.587 92.3237 219.503 93.3446 219.8 93.8065C220.266 94.4643 220.829 95.0375 221.477 95.4701Z" fill="#BC3737"/>
<path d="M237.201 95.9041C239.893 92.5969 242.867 89.457 245.404 86.01C246.021 85.1378 246.68 84.1953 246.705 83.1148C246.731 82.0343 245.954 80.8586 244.885 80.8905C244.239 80.935 243.635 81.3862 243.299 81.9487C242.963 82.5112 242.767 83.1573 242.572 83.8035C241.259 87.5967 238.229 90.5123 235.451 93.4831C232.674 96.4538 230.108 99.5501 227.711 102.842C227.277 103.489 226.786 104.151 226.872 104.964C226.945 105.721 227.635 106.322 228.353 106.558C229.071 106.794 230.337 107.07 230.743 106.311C231.247 105.467 231.526 104.442 231.974 103.612C232.898 101.827 233.963 100.125 235.168 98.5073C235.785 97.6351 236.458 96.7487 237.201 95.9041Z" fill="#BA2020"/>
<path d="M231.803 102.701C232.618 102.614 233.405 102.414 234.079 102.005C234.753 101.596 235.202 101.005 235.636 100.358C237.472 97.6849 238.561 94.4257 240.989 92.1999C241.719 91.5377 242.631 90.889 243.121 89.9892C243.611 89.0894 243.622 87.9528 243.142 87.0004C242.789 86.3142 242.042 85.7276 241.297 85.8566C240.481 85.9438 239.963 86.7315 239.543 87.4346C238.184 89.6284 236.713 91.8507 234.833 93.6396C233.626 94.7805 232.208 95.796 231.001 96.9369C229.654 98.2328 228.491 99.7804 227.651 101.425C227.091 102.522 227.57 102.758 228.653 102.783C229.638 102.891 230.762 102.845 231.803 102.701Z" fill="#D62929"/>
<path d="M201.094 47.1094L203.667 52.7826L207.53 50.79L207.39 45.5148L201.094 47.1094Z" fill="#DD0E0E"/>
<path fill-rule="evenodd" clip-rule="evenodd" d="M226.776 71.2757C220.8 72.0131 216.317 73.2082 214.185 75.6574C212.716 72.9267 211.753 70.3064 211.691 67.9354C211.597 63.7825 213.829 62.2028 216.162 61.4927C219.043 60.5841 223.838 60.3842 227.69 60.0052C232.696 59.4537 236.997 58.4838 239.494 56.0613C241.004 58.2446 241.798 60.6691 242.029 63.236C242.345 66.1393 241.028 68.0243 238.358 69.0584C234.874 70.4181 230.712 70.7561 226.776 71.2757Z" fill="white"/>
<path fill-rule="evenodd" clip-rule="evenodd" d="M222.097 61.5409C222.547 61.427 222.801 61.7207 222.9 62.1132C222.999 62.5057 222.86 62.8991 222.466 62.9988C222.016 63.1127 221.721 62.8893 221.607 62.4407C221.522 62.1042 221.591 61.669 222.097 61.5409ZM222.026 61.2605C221.408 61.4171 221.043 61.8675 221.199 62.4843C221.37 63.1571 221.848 63.3939 222.523 63.2231C223.198 63.0522 223.506 62.6161 223.336 61.9433C223.137 61.3968 222.644 61.1039 222.026 61.2605ZM219.948 62.7414L219.806 62.1807C220.087 62.1095 220.41 61.968 220.496 62.3044C220.581 62.6409 220.229 62.6702 219.948 62.7414ZM219.824 63.9065L220.218 63.8068L220.019 63.0218C220.356 62.9364 220.75 62.8367 220.904 62.4994C221.058 62.1621 220.818 61.6859 220.241 61.7722L219.342 62L219.824 63.9065ZM217.318 62.5125L217.655 62.4271C217.698 62.5953 217.953 63.6046 217.982 63.7168C218.137 64.0951 218.924 63.8957 218.811 63.4471C218.754 63.2229 218.555 62.4378 218.484 62.1575L218.821 62.072C218.878 62.2963 219.134 63.3056 219.191 63.5299C219.22 64.1191 218.433 64.3185 218.053 64.2357C217.673 64.1529 217.617 63.9286 217.531 63.5921L217.318 62.5125ZM216.238 63.6811L216.096 63.1203C216.377 63.0492 216.7 62.9077 216.785 63.2441C216.87 63.5805 216.463 63.6241 216.238 63.6811ZM216.114 64.8461L216.507 64.7465L216.309 63.9614L216.534 63.9045L217.182 64.5756L217.688 64.4475L216.913 63.7488C217.109 63.5797 217.306 63.4106 217.235 63.1302C217.135 62.7377 216.77 62.711 216.489 62.7822L215.645 62.9957L216.114 64.8461ZM214.79 64.1073L214.861 64.3877L215.198 64.3023L215.298 64.6948C214.989 64.8923 214.483 65.0205 214.215 64.6707C213.947 64.3209 213.959 63.6614 214.578 63.5048C214.803 63.4478 214.985 63.4612 215.155 63.657L215.309 63.3197C215.097 63.1942 214.844 63.139 214.563 63.2102C213.326 63.5234 213.667 64.8691 214.272 65.1335C214.751 65.3703 215.341 65.1015 215.819 64.8612L215.591 63.9641L214.79 64.1073ZM224.373 72.1822C220.858 72.7143 217.528 73.7367 215.874 75.9457C215.171 76.0044 214.524 76.0489 213.821 76.1076C212.366 73.6715 211.516 71.0227 211.129 68.0775C210.996 65.1876 211.833 62.3502 215.261 61.2432C218.859 60.0935 223.977 59.752 229.052 59.0038C232.637 58.5136 235.644 57.3941 237.27 55.3115C238.058 55.3507 238.902 55.3757 239.69 55.4149C241.327 57.8644 242.05 60.4856 242.268 63.2349C242.587 67.0923 240.496 68.9942 237.306 69.8618C232.879 71.0426 228.112 71.5933 224.373 72.1822ZM226.776 71.2754C220.801 72.0129 216.317 73.208 214.185 75.6572C212.716 72.9265 211.754 70.3062 211.691 67.9352C211.597 63.7823 213.829 62.2026 216.162 61.4925C219.043 60.5839 223.838 60.3839 227.69 60.005C232.696 59.4535 236.997 58.4836 239.494 56.0611C241.004 58.2444 241.798 60.6689 242.029 63.2358C242.346 66.1391 241.028 68.0241 238.359 69.0581C234.874 70.4179 230.712 70.7559 226.776 71.2754Z" fill="#3D438B"/>
<path fill-rule="evenodd" clip-rule="evenodd" d="M232.165 66.5695L230.928 66.8827L230.02 63.294L231.032 63.0378C231.538 62.9096 231.805 63.0209 231.932 63.287C232.046 63.7356 231.878 64.0168 231.484 64.1165L231.091 64.2162L230.855 65.4097L231.81 65.1677C232.26 65.0538 232.795 65.2763 232.838 65.683C232.881 66.0898 232.615 66.4556 232.165 66.5695ZM232.688 67.6901L229.765 68.4304L228.26 62.4867L231.014 61.789C231.97 61.547 232.884 61.6138 233.224 62.4825C233.507 63.1269 233.41 63.6885 232.989 64.1531C233.861 64.2902 234.384 65.1723 234.372 66.0703C234.36 66.9683 233.419 67.505 232.688 67.6901ZM236.794 61.6977C237.694 61.4699 238.553 62.028 238.78 62.9252C239.007 63.8223 238.461 64.7364 237.618 64.9499C236.775 65.1635 235.859 64.6196 235.632 63.7225C235.405 62.8253 235.951 61.9113 236.794 61.6977ZM236.439 60.2959C238.07 59.883 239.76 60.8871 240.186 62.5692C240.612 64.2514 239.603 65.9389 237.973 66.3518C236.343 66.7646 234.653 65.7606 234.226 64.0784C233.8 62.3962 234.809 60.7088 236.439 60.2959ZM227.698 62.629L229.203 68.5728L227.741 68.9429L226.79 65.1861L226.785 69.185L225.324 69.5551L223.473 66.0261L224.424 69.7829L223.019 70.1389L221.513 64.1951L223.818 63.6114L225.457 66.7765L225.393 63.2128L227.698 62.629ZM219.433 64.7219L220.895 64.3518L222.4 70.2955L220.938 70.6656L219.433 64.7219ZM217.942 70.1715L216.705 70.4847L215.796 66.8961L216.808 66.6398C217.314 66.5117 217.582 66.6229 217.709 66.8891C217.822 67.3376 217.654 67.6189 217.261 67.7185L216.867 67.8182L216.631 69.0117L217.587 68.7697C218.037 68.6558 218.571 68.8783 218.615 69.2851C218.658 69.6918 218.392 70.0576 217.942 70.1715ZM218.465 71.2921L215.541 72.0324L214.036 66.0887L216.791 65.3911C217.747 65.149 218.661 65.2159 219.001 66.0845C219.283 66.7289 219.186 67.2905 218.766 67.7551C219.638 67.8922 220.16 68.7743 220.149 69.6723C220.137 70.5704 219.139 71.1212 218.465 71.2921Z" fill="#DA243C"/>
<path d="M264.482 106.299C264.482 106.299 265.198 105.82 263.332 101.996C262.643 101.872 261.968 101.804 261.307 101.793C255.273 101.829 250.108 106.001 244.375 107.93C240.525 109.263 236.363 109.601 232.342 110.262C226.663 111.223 221.112 112.927 215.575 114.687C213.636 115.297 211.641 115.922 209.843 116.855C209.888 117.977 209.398 119.115 210.104 120.249C210.104 120.249 257.803 106.618 264.482 106.299Z" fill="#5D0F82"/>
<path d="M243.177 26.1893C243.177 26.1893 201.674 37.1174 189.822 38.5078C189.822 38.5078 190.573 40.5256 191.52 42.6127C196.663 40.9522 201.793 39.4742 207.021 38.1501C212.404 36.7273 217.787 35.5429 223.213 34.2883C228.413 33.0906 233.67 31.8787 238.885 30.7371C240.698 30.3376 242.511 29.9381 244.367 29.7068C243.941 27.786 243.177 26.1893 243.177 26.1893Z" fill="#5D0F82"/>
<path d="M210.791 96.2672C211.217 97.9494 211.98 99.5462 212.28 101.201C212.765 104.061 211.802 107.11 209.754 109.18C209.613 109.335 209.515 109.419 209.361 109.518C209.278 110.374 209.168 111.357 209.156 112.255C209.704 111.818 210.236 110.848 210.615 110.453C211.386 109.721 212.243 109.086 212.93 108.256C213.995 106.793 214.356 104.911 214.633 103.171C215.021 100.924 215.381 98.5655 214.715 96.4072C214.318 95.0757 213.598 93.8856 213.201 92.5541C212.393 90.0735 212.78 87.3501 213.14 84.753C210.658 87.9472 209.727 92.3003 210.791 96.2672Z" fill="#8628B2"/>
<path d="M237.983 41.3475C238.575 41.7943 238.774 42.5794 239.169 43.1953C239.762 44.1192 240.762 44.7609 241.846 45.0236C242.746 45.2728 243.717 45.3254 244.631 45.3922C244.418 44.5511 244.219 43.7661 244.02 42.9811C243.204 42.5912 242.415 42.0749 241.879 41.3753C241.272 40.6339 240.651 39.5979 239.723 39.7135C239.372 39.7429 239.006 39.9547 238.627 39.8719C237.951 39.8042 237.71 38.851 238.032 38.2324C238.354 37.6138 238.986 37.2748 239.548 36.8939C241.696 35.4548 243.139 33.1203 243.498 30.5232C242.207 31.5663 241.07 32.7491 239.934 33.9319C238.742 35.1289 237.62 36.3678 236.427 37.5648C236.048 37.959 235.726 38.3391 235.488 38.817C235.306 39.2807 235.279 39.8841 235.562 40.29C236.154 40.9754 237.265 40.8731 237.983 41.3475Z" fill="#8628B2"/>
<path d="M231.405 42.7751C230.66 43.1426 230 43.608 229.242 43.9195C228.272 44.344 227.218 44.4321 226.191 44.3937C225.699 44.3394 225.038 44.3278 224.786 44.7497C224.519 45.1154 224.774 45.6477 225.14 45.913C225.506 46.1782 225.985 46.1764 226.406 46.1889C229.275 46.1784 231.931 45.0883 234.516 43.9563C235.316 43.5745 237.227 42.6134 235.453 41.9885C234.285 41.628 232.472 42.266 231.405 42.7751Z" fill="#8628B2"/>
<path d="M232.064 81.9894C231.502 82.3703 230.899 82.8215 230.337 83.2024C230.28 82.7396 230.236 82.3329 230.179 81.87C229.645 82.1246 229.182 82.4209 228.648 82.6754C228.731 82.2963 228.815 81.9171 228.884 81.4819C228.773 81.9875 227.985 81.9482 227.703 81.5424C227.477 81.1223 227.574 80.5607 227.826 80.1388C228.232 79.3796 228.934 78.8439 229.636 78.3081C234.184 74.7696 239.635 72.4345 245.342 71.5857C244.416 72.4169 243.546 73.2339 242.62 74.0652C244.462 73.7778 246.289 73.4344 248.131 73.147C242.374 77.1109 236.167 80.473 229.662 83.1348" fill="#FFBC00"/>
<path d="M225.576 98.1917C224.803 98.4471 224 97.8748 223.689 97.1182C223.434 96.3474 223.587 95.5331 223.88 94.8024C224.174 94.0717 224.524 93.3267 224.62 92.5266C224.786 91.5298 224.475 90.5347 224.641 89.5379C224.863 88.2883 225.69 87.3031 226.18 86.1647C226.823 84.6891 226.875 83.0052 226.379 81.5197C227.241 83.0319 228.117 84.6002 228.922 86.1266C229.162 86.6028 229.473 87.1208 229.966 87.4137C230.797 87.8596 231.836 87.477 232.693 87.081C233.171 86.8407 233.705 86.5862 233.999 86.094C234.335 85.5315 234.15 84.8026 233.882 84.2142C233.613 83.6259 233.232 83.066 233.132 82.435C233.032 81.804 233.199 81.0457 233.789 80.7769C233.313 81.4943 233.427 82.4199 233.809 83.2183C234.176 83.9606 234.867 84.5614 235.487 85.1204C236.107 85.6794 236.784 86.2241 237.165 87.0225C237.712 86.1084 237.723 84.9719 237.242 84.0195C237.61 85.0003 238.863 85.4588 239.119 86.4681C239.247 86.9728 239.093 87.5486 239.109 88.0817C239.153 88.9655 239.689 89.6651 240.225 90.3647C240.493 90.7145 240.776 91.1204 241.142 91.3856C241.508 91.6509 242.015 91.7613 242.436 91.5352C242.703 91.408 242.927 91.1125 243.11 90.8873C243.376 90.5216 243.698 90.1415 243.965 89.7757C244.231 89.4099 244.525 88.9178 244.299 88.4977C244.429 89.9564 245.18 92.2127 245.914 93.4588C245.62 93.7125 244.355 93.9135 244.06 94.1672C239.442 97.9024 234.003 99.3395 228.095 98.9261C227.181 98.8593 226.421 98.6937 225.576 98.1917Z" fill="#EAC011"/>
<path d="M226.905 95.4084C227.175 96.4738 227.824 97.3835 228.754 97.9834C229.683 98.5833 230.795 98.7196 231.891 98.5612C232.988 98.4028 233.999 97.908 234.87 97.3296C235.122 97.1462 235.319 96.9771 235.501 96.752C235.627 96.541 235.654 96.1761 235.541 95.9661C235.443 95.8121 235.231 95.6866 235.034 95.6172C232.908 94.5445 230.74 93.5422 228.614 92.4696C227.867 92.1216 227.036 91.4371 226.898 92.5461C226.703 93.4307 226.664 94.4552 226.905 95.4084Z" fill="#B4CC29"/>
<path d="M230.833 90.8333C231.28 89.7653 232.164 89.0044 233.176 88.5096C234.131 88.029 235.199 87.7585 236.198 88.1618C237.283 88.6629 237.848 89.9517 237.668 91.131C237.488 92.3103 236.605 93.3097 235.608 93.8606C234.821 94.2985 233.978 94.512 233.106 94.6134C232.586 94.6855 231.616 94.8715 231.137 94.3961C230.812 94.0606 230.839 93.4571 230.74 93.0646C230.597 92.2654 230.483 91.5783 230.833 90.8333Z" fill="#529110"/>
<path d="M244.825 96.0023C245.387 95.86 245.949 95.7176 246.384 95.3091C246.833 94.9566 247.085 94.2963 246.831 93.764C246.661 93.3297 246.182 93.0929 245.76 93.0804C245.324 93.0118 244.874 93.1257 244.41 93.1836C242.878 93.5119 241.29 93.8545 239.942 94.6732C239.169 95.1671 236.433 97.8291 238.782 97.6521C240.778 97.5045 242.984 96.5282 244.825 96.0023Z" fill="#BA2020"/>
<path d="M222.454 103.338C221.527 103.693 220.332 103.936 219.613 103.223C219.035 102.593 219.131 101.555 219.678 100.879C220.225 100.204 221.04 99.878 221.869 99.6083C223.696 99.0263 225.579 98.6687 227.463 98.5495C228.223 98.4766 229.067 98.5015 229.742 98.8077C232.375 99.9907 229.312 100.886 228.159 101.297C226.29 101.949 224.365 102.616 222.454 103.338Z" fill="#BA2020"/>
<path d="M237.253 98.9346C238.586 97.8213 239.736 96.456 241.07 95.3426C242.206 94.3984 243.498 93.5939 244.847 93.0136C237.256 94.2201 229.878 96.5062 222.556 98.778C222.331 98.8349 222.05 98.9061 221.868 99.1313C220.956 100.019 222.39 99.7748 222.643 99.83C223.276 99.968 224.023 100.555 224.685 100.805C226.064 101.291 227.513 101.58 228.962 101.631C231.916 101.718 234.909 100.781 237.253 98.9346Z" fill="#E51717"/>
<path d="M221.672 103.27C222.144 102.885 222.132 102.093 221.646 101.499C221.159 100.906 220.383 100.737 219.912 101.121C219.441 101.506 219.453 102.298 219.939 102.892C220.425 103.485 221.201 103.654 221.672 103.27Z" fill="#751919"/>
<mask id="mask4" mask-type="alpha" maskUnits="userSpaceOnUse" x="189" y="24" width="76" height="97">
<path d="M189.822 38.5074C189.822 38.5074 192.837 46.3959 194.147 47.0787C195.456 47.7614 201.162 69.3486 206.699 73.257C206.699 73.257 207.173 89.0685 209.996 98.7958C210.89 102.328 210.839 104.489 210.042 106.064C209.244 107.638 208.725 114.095 209.474 115.635C210.294 117.218 209.06 118.724 210.034 120.207C210.034 120.207 257.732 106.577 264.355 106.272C264.355 106.272 266.531 104.706 252.815 85.7442C252.815 85.7442 251.316 82.1857 251.436 79.5895C251.556 76.9933 246.463 52.8642 243.325 40.4721C243.325 40.4721 242.655 37.1211 244.168 34.3514C245.68 31.5817 243.107 26.147 243.107 26.147C243.107 26.147 201.674 37.117 189.822 38.5074Z" fill="#9F27CC"/>
</mask>
<g mask="url(#mask4)">
<path opacity="0.15" d="M242.824 120.345L255.674 4.40039L252.965 4.10485L240.115 120.049L242.824 120.345Z" fill="white"/>
<path opacity="0.15" d="M253.183 125.436L266.033 9.49121L264.708 9.34659L251.858 125.291L253.183 125.436Z" fill="white"/>
<path opacity="0.15" d="M250.64 122.346L263.49 6.40137L257.669 5.76628L244.819 121.711L250.64 122.346Z" fill="white"/>
<path opacity="0.15" d="M184.691 132.705L197.541 16.7607L194.832 16.4652L181.982 132.41L184.691 132.705Z" fill="white"/>
<path opacity="0.15" d="M195.05 137.796L207.9 21.8516L206.575 21.7069L193.725 137.651L195.05 137.796Z" fill="white"/>
<path opacity="0.15" d="M192.507 134.706L205.357 18.7617L199.536 18.1266L186.686 134.071L192.507 134.706Z" fill="white"/>
<path opacity="0.15" d="M237.179 122.216L250.029 6.27148L244.208 5.63639L231.358 121.581L237.179 122.216Z" fill="white"/>
<path opacity="0.15" d="M229.709 119.888L242.559 3.94336L239.85 3.64782L227 119.592L229.709 119.888Z" fill="white"/>
</g>
</g>
<defs>
<clipPath id="clip0">
<rect width="65" height="64" fill="white" transform="translate(215 134)"/>
</clipPath>
<clipPath id="clip1">
<rect width="66.6352" height="98.9116" fill="white" transform="translate(183 32.3584) rotate(-14.2111)"/>
</clipPath>
</defs>
</svg>
