<svg width="40" height="40" viewBox="0 0 40 40" fill="none" xmlns="http://www.w3.org/2000/svg">
<path d="M20 0C8.96842 0 0 8.96842 0 20C0 31.0316 8.96842 40 20 40C31.0316 40 40 31.0316 40 20C40 8.96842 31.0316 0 20 0ZM20 36.2947C11.0316 36.2947 3.70526 28.9684 3.70526 20C3.70526 11.0316 11.0316 3.70526 20 3.70526C28.9684 3.70526 36.2947 11.0316 36.2947 20C36.2947 28.9684 28.9684 36.2947 20 36.2947Z" fill="white"/>
<path d="M13.3887 18.0216C14.8072 18.0216 15.9572 16.8717 15.9572 15.4532C15.9572 14.0347 14.8072 12.8848 13.3887 12.8848C11.9702 12.8848 10.8203 14.0347 10.8203 15.4532C10.8203 16.8717 11.9702 18.0216 13.3887 18.0216Z" fill="white"/>
<path d="M26.6114 18.0216C28.0299 18.0216 29.1798 16.8717 29.1798 15.4532C29.1798 14.0347 28.0299 12.8848 26.6114 12.8848C25.1929 12.8848 24.043 14.0347 24.043 15.4532C24.043 16.8717 25.1929 18.0216 26.6114 18.0216Z" fill="white"/>
<path d="M27.4114 26.0626L13.3483 22.9468C12.3377 22.7362 11.3693 23.3678 11.1167 24.3362C10.9062 25.3468 11.5377 26.3152 12.5062 26.5678L26.5693 29.6836C26.6956 29.7257 26.8219 29.7257 26.9904 29.7257C27.8325 29.7257 28.5904 29.1362 28.8009 28.2941C29.0535 27.2836 28.4219 26.2731 27.4114 26.0626Z" fill="white"/>
</svg>
