<svg width="40" height="40" viewBox="0 0 40 40" fill="none" xmlns="http://www.w3.org/2000/svg">
<path d="M20 0C8.96842 0 0 8.96842 0 20C0 31.0316 8.96842 40 20 40C31.0316 40 40 31.0316 40 20C40 8.96842 31.0316 0 20 0ZM20 36.2947C11.0316 36.2947 3.70526 28.9684 3.70526 20C3.70526 11.0316 11.0316 3.70526 20 3.70526C28.9684 3.70526 36.2947 11.0316 36.2947 20C36.2947 28.9684 28.9684 36.2947 20 36.2947Z" fill="white"/>
<path d="M29.5164 23.7887C28.7164 23.1572 27.5375 23.2835 26.9059 24.0835C26.8638 24.1256 24.4217 27.0309 20.0006 27.0309C15.5796 27.0309 13.1796 24.2098 13.0954 24.0835C12.4638 23.2835 11.2849 23.1572 10.4849 23.7887C9.68485 24.4203 9.55853 25.5993 10.1901 26.3993C10.3164 26.5677 13.7691 30.7361 20.0006 30.7361C26.2322 30.7361 29.6427 26.6098 29.8112 26.3993C30.4427 25.5993 30.3164 24.4624 29.5164 23.7887Z" fill="white"/>
<path d="M10.4836 17.0514C11.2415 17.3883 12.1678 17.0514 12.5047 16.2514C12.6731 15.8725 13.1784 15.1567 13.5994 15.1567C14.0205 15.1567 14.5257 15.8725 14.6942 16.2514C14.9468 16.8409 15.5363 17.1777 16.1257 17.1777C16.3363 17.1777 16.5468 17.1356 16.7573 17.0514C17.5573 16.7146 17.8942 15.7883 17.5573 15.0304C17.431 14.7356 16.2099 12.083 13.5994 12.083C11.031 12.083 9.80996 14.7356 9.64154 15.0304C9.3468 15.7883 9.68364 16.6725 10.4836 17.0514Z" fill="white"/>
<path d="M26.3582 12.042C23.7898 12.042 22.5687 14.6946 22.4003 14.9894C22.0635 15.7473 22.4003 16.6736 23.2003 17.0104C23.9582 17.3473 24.8845 17.0104 25.2214 16.2104C25.3898 15.8315 25.8951 15.1157 26.3161 15.1157C26.7372 15.1157 27.2424 15.8315 27.4108 16.2104C27.6635 16.7999 28.253 17.1367 28.8424 17.1367C29.053 17.1367 29.2635 17.0946 29.474 17.0104C30.274 16.6736 30.6109 15.7473 30.274 14.9894C30.1898 14.6946 28.9687 12.042 26.3582 12.042Z" fill="white"/>
</svg>
