<svg width="1473" height="820" viewBox="0 0 1473 820" fill="none" xmlns="http://www.w3.org/2000/svg">
<g clip-path="url(#clip0)">
<path d="M982.724 89.0086C982.724 89.0086 990.816 69.2182 1040.67 75.0882C1090.52 80.9583 1095.68 146.954 1120.59 193.872C1145.49 240.791 1171.95 263.558 1171.95 263.558C1171.95 263.558 1175.6 292.154 1121.34 308.296C1067.08 324.439 960.753 297.479 960.753 297.479C960.753 297.479 947.001 172.573 967.42 134.459C987.839 96.3461 982.724 89.0086 982.724 89.0086Z" fill="#263238"/>
<path d="M836.979 1336.68L904.526 1340.88C904.526 1340.88 933.163 1080.58 964.694 891.064C964.694 890.435 964.694 889.723 964.987 889.01C977.901 811.651 991.277 746.452 1003.35 715.886C1003.35 715.886 1018.87 958.528 1023.48 1066.24C1028.09 1173.96 1049.6 1362.43 1049.6 1362.43L1112.03 1371.69C1112.03 1371.69 1122.35 996.515 1116.22 925.656C1110.1 854.796 1137.99 592.322 1089.94 527.332H916.14C916.14 527.332 848.845 896.054 843.981 998.276C839.117 1100.5 836.979 1336.68 836.979 1336.68Z" fill="#263238"/>
<path opacity="0.3" d="M964.989 888.968C977.903 811.609 991.278 746.41 1003.35 715.844L995.345 671.902C995.345 671.902 974.59 828.716 964.989 888.968Z" fill="black"/>
<path d="M809.014 429.932C825.785 437.94 871.907 446.703 871.907 446.703C871.907 446.703 902.096 368.674 910.062 324.313C912.562 308.455 920.137 293.834 931.651 282.645C943.164 271.457 957.996 264.303 973.92 262.259C994.297 259.617 1080.33 260.498 1110.52 266.703C1140.71 272.909 1145.95 317.227 1148.64 343.852C1151.32 370.477 1168.13 469.639 1153.96 498.989C1139.79 528.339 1090.1 516.683 1090.1 516.683V527.333H916.268L920.46 445.991C920.46 445.991 904.024 489.177 878.532 490.938C853.039 492.699 795.177 450.184 795.177 450.184L809.014 429.932ZM1115.09 475.425C1115.09 475.425 1113.17 424.775 1109.73 410.183L1104.49 437.228L1097.11 475.425H1115.09Z" fill="#6550E2"/>
<path d="M1004.53 463.936L977.189 430.854L938.824 424.984L932.954 459.072L962.304 469.806C962.304 469.806 976.434 486.829 1004.65 483.894L1004.53 463.936Z" fill="#FF8B7B"/>
<path d="M809.013 429.932L794.799 403.852L760.124 389.261L747 424.774L775.721 435.969C775.721 435.969 783.226 452.489 794.799 450.351L809.013 429.932Z" fill="#FF8B7B"/>
<path d="M1003.94 230.477C1004.13 233.493 1004.13 236.517 1003.94 239.533C1003.52 245.277 1004.61 255.802 993.334 261.336C999.162 273.915 1013.21 305.445 1021.72 316.137C1034.68 305.529 1065.12 262.72 1065.12 262.72C1065.12 262.72 1043.73 239.533 1059.08 195.843C1059.08 195.843 1080.63 180.078 1076.31 171.399C1071.36 161.294 1057.32 166.745 1054.34 171.022C1057.48 166.409 1072.12 115.801 1054.34 97.185C1043.27 85.5707 1032.2 85.4449 1011.57 84.6064H1009.85C996.646 84.1451 986.835 84.6064 986.835 84.6064C982.351 89.4367 978.401 94.7364 975.053 100.414C965.698 115.686 959.961 132.897 958.281 150.728C954.382 192.28 962.558 225.948 1003.94 230.477Z" fill="#FF8B7B"/>
<path d="M992.535 178.82C992.535 178.82 1011.32 185.193 1018.15 170.938" stroke="#263238" stroke-width="0.5" stroke-linecap="round" stroke-linejoin="round"/>
<path d="M1015.22 118.862C1018.36 118.769 1021.47 119.561 1024.18 121.148C1026.89 122.734 1029.11 125.051 1030.57 127.835" stroke="#263238" stroke-linecap="round" stroke-linejoin="round"/>
<path d="M967.419 114.543C968.942 112.878 970.785 111.536 972.839 110.6C974.892 109.663 977.113 109.151 979.369 109.093" stroke="#263238" stroke-linecap="round" stroke-linejoin="round"/>
<path d="M984.696 171.105L988.386 139.7L969.895 163.432C969.895 163.432 971.698 171.608 984.696 171.105Z" fill="#FF5652"/>
<path d="M1015.05 139.952C1014.84 143.139 1012.95 145.613 1010.86 145.487C1008.76 145.361 1007.29 142.636 1007.55 139.407C1007.8 136.179 1009.6 133.747 1011.74 133.914C1013.88 134.082 1015.3 136.891 1015.05 139.952Z" fill="#263238"/>
<path d="M978.49 134.712C978.239 137.94 976.394 140.414 974.297 140.247C972.201 140.079 970.733 137.395 970.985 134.167C971.237 130.938 973.081 128.506 975.178 128.674C977.274 128.842 978.7 131.525 978.49 134.712Z" fill="#263238"/>
<path d="M1067.08 147.793C1067.08 147.793 1088.51 119.071 1070.82 100.455C1059.75 88.8407 1029.98 81.2516 1009.39 80.3711C1009.85 85.2348 1009.39 127.834 1067.08 147.793Z" fill="#263238"/>
<path d="M974.716 100.54C987.879 99.2098 1000.23 93.5637 1009.85 84.4809L1011.49 82.7618C1003.23 82.4205 994.959 83.0112 986.833 84.5228C982.349 89.3531 978.399 94.6528 975.051 100.33L974.716 100.54Z" fill="#263238"/>
<path opacity="0.2" d="M1003.82 239.533C1012.93 236.762 1021.01 231.348 1027.04 223.978C1019.82 227.582 1011.98 229.787 1003.94 230.477C1004.09 233.495 1004.05 236.52 1003.82 239.533Z" fill="black"/>
<path opacity="0.2" d="M1104.44 437.228L1109.68 410.183V371.357C1109.68 371.357 1103.65 412.322 1104.44 437.228Z" fill="black"/>
<path d="M1351 551.79H54.817C37.6443 551.79 23.6914 565.731 23.6914 582.889V820H1382.13V582.889C1382.13 565.731 1368.17 551.79 1351 551.79Z" fill="#5D539D"/>
</g>
<defs>
<clipPath id="clip0">
<rect width="1518" height="820" fill="white" transform="translate(-45)"/>
</clipPath>
</defs>
</svg>
