<svg width="1920" height="1080" viewBox="0 0 1920 1080" fill="none" xmlns="http://www.w3.org/2000/svg">
<g clip-path="url(#clip0)">
<path d="M636.041 578.316C633.541 575.616 630.941 572.816 628.441 570.116C621.541 562.616 614.641 555.216 607.841 547.716C597.641 536.716 587.441 525.616 577.341 514.616C569.441 506.016 561.541 497.516 553.641 488.916C552.041 487.116 553.341 484.216 555.741 484.316C560.141 484.416 564.641 482.816 567.541 479.516C567.641 479.416 567.641 479.416 567.741 479.316C572.741 473.516 581.741 473.316 586.941 478.916C589.641 481.916 592.441 484.916 595.141 487.816C602.941 496.216 610.741 504.716 618.441 513.116C622.141 517.116 625.741 521.116 629.441 525.116C629.641 525.316 629.741 525.416 629.941 525.616C634.441 530.516 643.541 530.216 647.841 525.316C652.641 519.916 652.341 512.616 647.541 507.416C645.041 504.716 642.441 501.916 639.941 499.216C638.741 497.816 637.441 496.516 636.241 495.116C631.441 489.916 631.841 482.116 636.841 477.116C636.941 477.016 637.141 476.816 637.241 476.716C642.041 471.316 641.741 464.016 636.941 458.816C634.441 456.116 631.841 453.316 629.341 450.616C622.441 443.116 615.541 435.716 608.741 428.216C598.541 417.216 588.341 406.116 578.241 395.116C565.841 381.716 553.541 368.216 541.141 354.816C527.541 340.016 513.941 325.316 500.341 310.516C486.641 295.716 472.941 280.816 459.341 266.016C446.541 252.116 433.741 238.216 420.941 224.316C410.041 212.416 399.241 200.716 388.341 189.016C380.541 180.616 372.741 172.116 365.041 163.716C361.341 159.716 357.741 155.716 354.041 151.716C353.841 151.516 353.741 151.416 353.541 151.216C349.041 146.316 340.041 146.516 335.641 151.516C330.841 156.916 331.141 164.216 335.941 169.416C338.441 172.116 341.041 174.916 343.541 177.616C344.841 179.016 346.041 180.316 347.341 181.716C352.041 186.916 351.641 194.716 346.741 199.716C346.641 199.816 346.441 200.016 346.341 200.116L346.241 200.216C342.241 204.816 335.141 205.016 330.941 200.516C326.841 196.116 322.741 191.616 318.641 187.216C310.841 178.816 303.041 170.316 295.241 161.916C291.541 157.916 287.941 153.916 284.241 149.916C284.041 149.716 283.941 149.616 283.741 149.416C278.141 143.316 266.741 143.616 261.341 149.816C255.341 156.516 255.641 165.716 261.741 172.216C264.241 174.916 266.841 177.716 269.341 180.416C276.241 187.916 283.141 195.316 289.941 202.816C300.141 213.916 310.341 225.016 320.541 236.016C328.441 244.616 336.341 253.116 344.241 261.716C345.841 263.516 344.541 266.416 342.141 266.316C337.741 266.216 333.241 267.816 330.341 271.116C324.341 277.816 324.641 287.016 330.741 293.516C333.241 296.216 335.841 299.016 338.341 301.716C345.241 309.216 352.141 316.616 358.941 324.116C369.141 335.116 379.341 346.216 389.441 357.216C401.841 370.616 414.141 384.116 426.541 397.516C440.141 412.316 453.741 427.016 467.341 441.816C481.041 456.616 494.741 471.516 508.341 486.316C521.141 500.216 533.941 514.116 546.741 528.016C557.541 539.716 568.341 551.516 579.141 563.216C586.941 571.616 594.741 580.116 602.441 588.516C606.141 592.516 609.741 596.516 613.441 600.516C613.641 600.716 613.741 600.816 613.941 601.016C619.541 607.116 630.941 606.816 636.341 600.616C642.441 594.016 642.041 584.916 636.041 578.316Z" fill="#9B85F8"/>
<path d="M512.2 1119.41C508.5 1115.41 504.8 1111.41 501.1 1107.41C491 1096.51 480.9 1085.61 470.8 1074.71C455.9 1058.71 441 1042.61 426.1 1026.61C423.3 1023.51 420.4 1020.51 417.6 1017.41C414 1013.61 416.1 1007.31 421.3 1006.51C426 1005.71 430.5 1003.61 433.8 1000.11C442.6 990.513 442.6 976.813 433.8 967.213C430.1 963.213 426.4 959.213 422.7 955.213C412.6 944.313 402.5 933.413 392.4 922.513C377.5 906.513 362.6 890.413 347.7 874.413C329.5 854.813 311.4 835.313 293.2 815.713C273.3 794.313 253.4 772.813 233.5 751.413C213.4 729.813 193.3 708.113 173.3 686.513C154.5 666.313 135.7 646.113 117 625.813C101.1 608.713 85.3 591.613 69.4 574.513C58 562.313 46.7 550.013 35.3 537.813C29.9 532.013 24.6 526.213 19.2 520.413C19 520.213 18.7 519.913 18.5 519.713C10.2 510.813 -6.1 510.713 -14.4 519.713C-23.2 529.313 -23.2 543.013 -14.4 552.613C-10.7 556.613 -6.99999 560.613 -3.29999 564.613C6.80001 575.513 16.9 586.413 27 597.313C41.9 613.313 56.8 629.413 71.7 645.413C74.5 648.513 77.4 651.513 80.2 654.613C83.8 658.413 81.7 664.713 76.5 665.513C71.8 666.313 67.3 668.413 64 671.913C55.2 681.513 55.2 695.213 64 704.813C67.7 708.813 71.4 712.813 75.1 716.813C85.2 727.713 95.3 738.613 105.4 749.513C120.3 765.513 135.2 781.613 150.1 797.613C168.3 817.213 186.4 836.713 204.6 856.313C224.5 877.713 244.4 899.213 264.3 920.613C284.4 942.213 304.5 963.913 324.5 985.513C343.3 1005.71 362.1 1025.91 380.8 1046.21C396.7 1063.31 412.5 1080.41 428.4 1097.51C439.8 1109.71 451.1 1122.01 462.5 1134.21C467.9 1140.01 473.2 1145.81 478.6 1151.61C478.8 1151.81 479.1 1152.11 479.3 1152.31C487.6 1161.21 503.9 1161.31 512.2 1152.31C521 1142.71 521 1128.91 512.2 1119.41Z" fill="#9B85F8"/>
<path d="M2153.51 1185.66C2148.51 1180.26 2143.51 1174.86 2138.51 1169.46C2124.91 1154.76 2111.21 1140.06 2097.61 1125.36C2077.41 1103.66 2057.31 1081.86 2037.11 1060.16C2012.51 1033.66 1987.91 1007.06 1963.21 980.562C1936.21 951.463 1909.31 922.462 1882.31 893.362C1881.31 892.263 1880.21 891.163 1879.21 889.963C1875.51 885.963 1878.01 879.263 1883.51 878.963C1890.91 878.463 1898.21 875.562 1903.21 870.062C1914.91 857.362 1915.01 839.062 1903.21 826.362C1898.21 820.962 1893.21 815.563 1888.21 810.163C1874.61 795.463 1860.91 780.763 1847.31 766.062C1827.11 744.362 1807.01 722.563 1786.81 700.863C1762.21 674.363 1737.61 647.763 1712.91 621.263C1685.91 592.163 1659.01 563.163 1632.01 534.063C1604.81 504.763 1577.61 475.363 1550.31 446.063C1524.91 418.663 1499.51 391.363 1474.11 363.963C1452.61 340.863 1431.21 317.763 1409.71 294.563C1394.31 277.963 1378.81 261.263 1363.41 244.663C1356.11 236.763 1348.81 228.763 1341.41 220.963C1341.11 220.663 1340.81 220.263 1340.51 219.963C1329.51 208.063 1307.81 207.963 1296.81 219.963C1285.11 232.663 1285.01 250.963 1296.81 263.663C1301.81 269.063 1306.81 274.463 1311.81 279.863C1325.41 294.563 1339.11 309.263 1352.71 323.963C1372.91 345.663 1393.01 367.463 1413.21 389.163C1437.81 415.663 1462.41 442.263 1487.11 468.763C1514.11 497.863 1541.01 526.863 1568.01 555.963C1568.51 556.463 1568.91 556.963 1569.41 557.463C1573.31 561.663 1570.31 568.563 1564.61 568.463C1554.81 568.463 1545.01 571.963 1538.41 579.163C1531.91 586.263 1528.41 594.763 1527.91 603.363C1527.61 609.163 1520.51 611.763 1516.51 607.463C1516.41 607.363 1516.41 607.363 1516.31 607.263C1494.81 584.163 1473.41 561.063 1451.91 537.863C1436.51 521.263 1421.01 504.563 1405.61 487.963C1398.31 480.063 1391.01 472.063 1383.61 464.263C1383.31 463.963 1383.01 463.563 1382.71 463.263C1371.71 451.363 1350.01 451.263 1339.01 463.263C1327.31 475.963 1327.21 494.263 1339.01 506.963C1344.01 512.363 1349.01 517.763 1354.01 523.163C1367.61 537.863 1381.31 552.563 1394.91 567.263C1415.11 588.963 1435.21 610.763 1455.41 632.463C1480.01 658.963 1504.61 685.563 1529.31 712.063C1556.31 741.163 1583.21 770.163 1610.21 799.263C1637.41 828.562 1664.61 857.963 1691.91 887.263C1717.31 914.663 1742.71 941.962 1768.11 969.362C1789.61 992.462 1811.01 1015.56 1832.51 1038.76C1847.91 1055.36 1863.41 1072.06 1878.81 1088.66C1886.11 1096.56 1893.41 1104.56 1900.81 1112.36C1901.11 1112.66 1901.41 1113.06 1901.71 1113.36C1912.71 1125.26 1934.41 1125.36 1945.41 1113.36C1950.31 1108.06 1953.21 1101.66 1954.01 1095.16C1954.71 1089.66 1961.61 1087.56 1965.31 1091.56C1966.01 1092.36 1966.71 1093.16 1967.51 1093.86C1989.01 1116.96 2010.41 1140.06 2031.91 1163.26C2047.31 1179.86 2062.81 1196.56 2078.21 1213.16C2085.51 1221.06 2092.81 1228.96 2100.21 1236.86C2100.51 1237.16 2100.81 1237.56 2101.11 1237.86C2114.31 1252.16 2140.31 1252.26 2153.51 1237.86C2167.51 1222.86 2167.61 1200.96 2153.51 1185.66Z" fill="#9B85F8"/>
</g>
<defs>
<clipPath id="clip0">
<rect width="1920" height="1080" fill="white"/>
</clipPath>
</defs>
</svg>
