<svg width="650" height="684" viewBox="0 0 650 684" fill="none" xmlns="http://www.w3.org/2000/svg">
<path d="M405.591 131.664C400.979 154.725 391.755 200.846 407.667 216.297C407.667 216.297 401.44 239.357 358.824 239.357C311.965 239.357 336.455 216.297 336.455 216.297C362.007 210.209 361.361 191.253 356.887 173.404L405.591 131.664Z" fill="#E4897B"/>
<path d="M333.781 223.818C327.462 224.74 333.319 210.304 335.948 208.782C341.99 205.185 418.967 197.944 418.09 206.061C417.569 210.868 415.459 215.364 412.095 218.837C408.543 221.281 389.172 214.916 333.781 223.818Z" fill="#407BFF"/>
<path opacity="0.6" d="M333.781 223.818C327.462 224.74 333.319 210.304 335.948 208.782C341.99 205.185 418.967 197.944 418.09 206.061C417.569 210.868 415.459 215.364 412.095 218.837C408.543 221.281 389.172 214.916 333.781 223.818Z" fill="white"/>
<path d="M491.562 270.029C493.96 279.254 496.589 289.4 499.449 299.086C502.308 308.771 505.03 318.733 508.028 328.511C511.025 338.289 514.069 348.159 517.252 357.89L521.864 372.557L523.063 376.201L523.524 377.492C523.596 377.76 523.688 378.022 523.801 378.276C524.363 379.599 525.074 380.852 525.923 382.012C531.037 388.586 537.285 394.193 544.371 398.57C552.509 403.932 560.999 408.74 569.784 412.959C588.075 421.759 606.828 429.565 625.96 436.343L621.348 455.391C599.942 452.144 578.883 446.926 558.438 439.802C547.867 436.112 537.584 431.641 527.675 426.427C516.454 420.654 506.411 412.832 498.065 403.366C495.64 400.44 493.523 397.272 491.747 393.911C491.239 393.035 490.824 392.113 490.363 391.144L489.394 388.792L487.826 385.102C485.751 380.213 483.675 375.324 481.738 370.343C477.864 360.427 473.99 350.511 470.577 340.411C467.164 330.31 463.751 320.209 460.661 309.97L456.325 294.474C454.896 289.17 453.696 284.189 452.451 278.377L491.562 270.029Z" fill="#E4897B"/>
<path d="M507.52 286.356L468.732 317.257L445.441 335.706C445.441 335.706 442.996 329.203 440.044 319.886C434.417 301.899 427.084 273.396 432.158 260.297C440.137 239.543 455.218 220.817 474.313 224.968C490.363 228.612 507.52 286.356 507.52 286.356Z" fill="#407BFF"/>
<path opacity="0.2" d="M507.52 286.356L468.732 317.257L445.441 335.706C445.441 335.706 442.996 329.203 440.044 319.886C434.417 301.899 427.084 273.396 432.158 260.297C440.137 239.543 455.218 220.817 474.313 224.968C490.363 228.612 507.52 286.356 507.52 286.356Z" fill="white"/>
<path opacity="0.1" d="M468.731 317.256L445.44 335.704C445.44 335.704 442.996 329.201 440.044 319.885L453.88 251.395L468.731 317.256Z" fill="black"/>
<path d="M271.148 226.217C271.148 226.217 252.7 232.674 289.597 459.361H446.41C443.781 395.529 443.688 356.141 474.082 225.064C452.109 220.53 429.835 217.602 407.437 216.301C383.731 214.592 359.932 214.592 336.226 216.301C305.832 218.976 271.148 226.217 271.148 226.217Z" fill="#407BFF"/>
<path opacity="0.2" d="M271.148 226.217C271.148 226.217 252.7 232.674 289.597 459.361H446.41C443.781 395.529 443.688 356.141 474.082 225.064C452.109 220.53 429.835 217.602 407.437 216.301C383.731 214.592 359.932 214.592 336.226 216.301C305.832 218.976 271.148 226.217 271.148 226.217Z" fill="white"/>
<path d="M649.62 464.754L637.628 489.198L629.695 463.416L647.221 439.295L649.62 464.754Z" fill="#E4897B"/>
<path d="M289.596 459.358C289.596 459.358 246.057 756.841 230.745 873.712C214.833 995.242 168.343 1267.73 168.343 1267.73L219.952 1275.61C219.952 1275.61 301.634 1015.72 324.371 897.419C349.185 768.51 404.484 459.266 404.484 459.266L289.596 459.358Z" fill="#407BFF"/>
<path opacity="0.7" d="M289.596 459.358C289.596 459.358 246.057 756.841 230.745 873.712C214.833 995.242 168.343 1267.73 168.343 1267.73L219.952 1275.61C219.952 1275.61 301.634 1015.72 324.371 897.419C349.185 768.51 404.484 459.266 404.484 459.266L289.596 459.358Z" fill="black"/>
<path d="M331.013 459.357C331.013 459.357 353.474 724.509 376.719 873.942C395.49 994.642 410.342 1276.81 410.342 1276.81H463.012C463.012 1276.81 488.102 1004.33 478.555 884.781C454.434 582.732 496.773 529.231 446.501 459.219L331.013 459.357Z" fill="#407BFF"/>
<path opacity="0.7" d="M331.013 459.357C331.013 459.357 353.474 724.509 376.719 873.942C395.49 994.642 410.342 1276.81 410.342 1276.81H463.012C463.012 1276.81 488.102 1004.33 478.555 884.781C454.434 582.732 496.773 529.231 446.501 459.219L331.013 459.357Z" fill="black"/>
<path d="M620.01 434.959L647.222 439.294L629.926 463.416C629.926 463.416 603.268 453.777 604.329 437.772L620.01 434.959Z" fill="#E4897B"/>
<path d="M312.565 82.4998C312.278 82.5035 311.994 82.4385 311.738 82.3101C311.481 82.1817 311.258 81.9937 311.089 81.7619C309.793 79.858 308.063 78.2885 306.043 77.1822C304.023 76.0758 301.769 75.4641 299.467 75.3971C299.203 75.4392 298.934 75.4236 298.677 75.3513C298.42 75.2791 298.182 75.152 297.979 74.9789C297.775 74.8057 297.612 74.5905 297.501 74.3482C297.389 74.1059 297.331 73.8422 297.331 73.5753C297.331 73.3085 297.389 73.0448 297.501 72.8025C297.612 72.5602 297.775 72.345 297.979 72.1718C298.182 71.9986 298.42 71.8715 298.677 71.7993C298.934 71.7271 299.203 71.7115 299.467 71.7535C302.362 71.8138 305.203 72.5549 307.759 73.9171C310.315 75.2792 312.515 77.2241 314.179 79.5942C314.322 79.7908 314.425 80.0137 314.482 80.2501C314.538 80.4866 314.547 80.7318 314.509 80.9718C314.47 81.2118 314.385 81.4419 314.257 81.6487C314.129 81.8555 313.962 82.035 313.764 82.1769C313.416 82.4235 312.991 82.538 312.565 82.4998V82.4998Z" fill="#263238"/>
<path d="M302.464 104.498C299.978 111.723 296.501 118.568 292.133 124.838C293.765 125.9 295.608 126.595 297.536 126.874C299.463 127.153 301.428 127.009 303.294 126.452L302.464 104.498Z" fill="#DE5753"/>
<path d="M304.909 99.0593C304.909 102.196 303.479 104.778 301.404 104.824C299.328 104.871 297.622 102.472 297.529 99.336C297.437 96.1998 298.959 93.6631 300.988 93.5708C303.018 93.4786 304.77 95.9692 304.909 99.0593Z" fill="#263238"/>
<path d="M301.911 93.7042L294.347 91.8594C294.347 91.8594 298.405 97.5323 301.911 93.7042Z" fill="#263238"/>
<path d="M286.505 278.932C277.448 301.725 267.179 324.018 255.742 345.715C250.069 356.6 244.074 367.439 237.294 378C235.726 380.676 233.881 383.304 232.174 385.933C230.468 388.562 228.669 391.237 226.686 393.82C224.703 396.403 223.042 399.078 220.828 401.661L217.692 405.535L216.124 407.472L215.063 408.671L213.818 410.009C207.691 416.131 200.222 420.742 192.002 423.476C185.23 425.725 178.244 427.27 171.156 428.088C158.266 429.611 145.255 429.827 132.321 428.734C107.622 426.771 83.1803 422.353 59.3574 415.543L63.3238 396.357C74.7619 397.418 86.6613 398.386 98.2839 398.847C109.906 399.309 121.575 399.631 132.967 399.17C143.965 398.903 154.92 397.7 165.713 395.573C170.46 394.62 175.096 393.183 179.55 391.283C182.684 390.045 185.492 388.104 187.759 385.611L191.864 379.891C193.432 377.816 194.862 375.279 196.476 373.066C199.428 368.453 202.288 363.518 205.101 358.583C210.682 348.667 215.893 338.244 221.059 327.867C226.225 317.489 231.021 306.743 235.864 296.043C240.707 285.343 245.411 274.458 249.7 263.758L286.505 278.932Z" fill="#E4897B"/>
<path d="M65.4455 417.297L26.0117 410.517L42.4309 381.691C42.4309 381.691 69.8271 389.025 76.0996 403.784L65.4455 417.297Z" fill="#E4897B"/>
<path d="M0 401.153L10.285 383.812L42.4316 381.598L26.0124 410.47L0 401.153Z" fill="#E4897B"/>
<path d="M409.144 84.2526C408.314 122.579 408.775 138.814 390.234 159.2C362.561 189.871 315.425 180.462 304.817 142.642C295.27 108.605 298.268 51.6448 335.073 34.9488C343.177 31.2331 352.096 29.6505 360.983 30.3513C369.87 31.052 378.431 34.0129 385.852 38.9527C393.273 43.8925 399.309 50.6472 403.385 58.5756C407.462 66.504 409.444 75.3427 409.144 84.2526V84.2526Z" fill="#E4897B"/>
<path d="M455.264 83.5609C451.851 55.888 438.337 28.6764 423.256 15.3012C386.912 -16.9838 338.116 8.84422 314.04 28.5842C288.858 49.2466 306.2 81.9928 321.604 98.412C321.854 104.289 322.751 110.12 324.279 115.8C321.881 130.928 311.78 145.917 297.621 158.001C345.541 171.837 415.692 172.99 441.612 163.351C475.096 150.944 461.583 141.167 455.264 83.5609Z" fill="#263238"/>
<path d="M335.625 102.009C334.973 109.229 331.882 116.012 326.862 121.242C320.036 128.298 313.025 124.239 311.78 115.891C310.719 108.374 312.979 95.6442 321.281 91.6317C329.583 87.6191 336.178 93.4765 335.625 102.009Z" fill="#E4897B"/>
<path d="M448.853 450.18L455.909 464.017C456.463 465.124 455.171 466.231 453.373 466.231H288.627C287.243 466.231 286.044 465.539 285.952 464.616L284.568 450.78C284.568 449.811 285.675 448.981 287.243 448.981H446.132C446.652 448.901 447.185 448.972 447.667 449.184C448.149 449.397 448.56 449.742 448.853 450.18V450.18Z" fill="#407BFF"/>
<path opacity="0.6" d="M448.853 450.18L455.909 464.017C456.463 465.124 455.171 466.231 453.373 466.231H288.627C287.243 466.231 286.044 465.539 285.952 464.616L284.568 450.78C284.568 449.811 285.675 448.981 287.243 448.981H446.132C446.652 448.901 447.185 448.972 447.667 449.184C448.149 449.397 448.56 449.742 448.853 450.18V450.18Z" fill="white"/>
<path d="M427.499 468.028H431.604C432.434 468.028 433.08 467.567 433.034 467.06L431.005 448.611C431.005 448.058 430.22 447.643 429.39 447.643H425.101C424.271 447.643 423.625 448.058 423.671 448.611L425.701 467.06C425.931 467.475 426.669 468.028 427.499 468.028Z" fill="#407BFF"/>
<path d="M324.372 468.028H328.615C329.445 468.028 330.137 467.567 330.045 467.06L328.061 448.611C328.061 448.058 327.277 447.643 326.401 447.643H322.158C321.327 447.643 320.682 448.058 320.728 448.611L322.711 467.06C322.757 467.475 323.495 468.028 324.372 468.028Z" fill="#407BFF"/>
<path opacity="0.7" d="M427.499 468.028H431.604C432.434 468.028 433.08 467.567 433.034 467.06L431.005 448.611C431.005 448.058 430.22 447.643 429.39 447.643H425.101C424.271 447.643 423.625 448.058 423.671 448.611L425.701 467.06C425.931 467.475 426.669 468.028 427.499 468.028Z" fill="black"/>
<path opacity="0.7" d="M324.372 468.028H328.615C329.445 468.028 330.137 467.567 330.045 467.06L328.061 448.611C328.061 448.058 327.277 447.643 326.401 447.643H322.158C321.327 447.643 320.682 448.058 320.728 448.611L322.711 467.06C322.757 467.475 323.495 468.028 324.372 468.028Z" fill="black"/>
<path d="M271.148 226.213C251.916 230.825 228.302 283.587 228.302 283.587L274.008 342.162C274.008 342.162 321.236 275.332 314.918 254.946C308.368 233.684 294.44 220.54 271.148 226.213Z" fill="#407BFF"/>
<path opacity="0.2" d="M271.148 226.213C251.916 230.825 228.302 283.587 228.302 283.587L274.008 342.162C274.008 342.162 321.236 275.332 314.918 254.946C308.368 233.684 294.44 220.54 271.148 226.213Z" fill="white"/>
</svg>
