<svg width="824" height="391" viewBox="0 0 824 391" fill="none" xmlns="http://www.w3.org/2000/svg">
<g clip-path="url(#clip0)">
<path d="M537.7 56.2998L380.8 3.39983C379 2.79983 377.2 2.89983 375.5 3.59983C374.3 3.39983 373 3.59983 371.9 3.99983L287.9 37.4998C283.1 39.3998 280 43.8998 280 48.9998V292C280 296.8 283.6 300.8 288.3 301.4L371.6 312C372 312 372.3 312.1 372.7 312.1C373.7 312.1 374.7 311.9 375.6 311.6C376.2 311.8 376.9 311.9 377.6 311.9C377.8 311.9 378.1 311.9 378.3 311.9L534.8 294.5C539.5 294 543 290.1 543 285.4L544 65.1998C544 61.0998 541.5 57.5998 537.7 56.2998ZM381.5 192.5L533.4 204.7L533.2 241.1L381.5 242V192.5ZM381.5 182.5V133L533.6 157.3L533.4 194.7L381.5 182.5ZM381.5 122.9V73.5998L533.8 112.4L533.6 147.2L381.5 122.9ZM533.8 102.1L381.5 63.2998V14.1998L534 65.5998L533.8 102.1ZM290 48.9998C290 47.9998 290.6 47.1998 291.5 46.7998L371 15.0998V301.8L290 291.6V48.9998ZM381.5 301.4V252L533.2 251.1L533.1 284.6L381.5 301.4Z" fill="white"/>
</g>
<path d="M481.083 354C481.083 371.5 454.926 383.167 422.656 383.167C396.427 383.167 375.263 376.356 367.875 365.667" stroke="white" stroke-width="7" stroke-linecap="round" stroke-linejoin="round"/>
<path d="M361.917 353.999C361.917 336.499 388.074 324.832 420.344 324.832C446.578 324.832 467.736 331.642 475.125 342.332" stroke="white" stroke-width="7" stroke-linecap="round" stroke-linejoin="round"/>
<path d="M391.708 368.581L367.875 365.664L361.917 377.331" stroke="white" stroke-width="7" stroke-linecap="round" stroke-linejoin="round"/>
<path d="M451.292 339.414L475.125 342.331L481.083 330.664" stroke="white" stroke-width="7" stroke-linecap="round" stroke-linejoin="round"/>
<defs>
<clipPath id="clip0">
<rect width="264" height="309" fill="white" transform="translate(280 3)"/>
</clipPath>
</defs>
</svg>
