<svg width="824" height="391" viewBox="0 0 824 391" fill="none" xmlns="http://www.w3.org/2000/svg">
<g clip-path="url(#clip0)">
<path d="M257.7 53.2998L100.8 0.399831C99 -0.200169 97.2 -0.100169 95.5 0.599831C94.3 0.399831 93 0.599831 91.9 0.999831L7.9 34.4998C3.1 36.3998 0 40.8998 0 45.9998V289C0 293.8 3.6 297.8 8.3 298.4L91.6 309C92 309 92.3 309.1 92.7 309.1C93.7 309.1 94.7 308.9 95.6 308.6C96.2 308.8 96.9 308.9 97.6 308.9C97.8 308.9 98.1 308.9 98.3 308.9L254.8 291.5C259.5 291 263 287.1 263 282.4L264 62.1998C264 58.0998 261.5 54.5998 257.7 53.2998ZM101.5 189.5L253.4 201.7L253.2 238.1L101.5 239V189.5ZM101.5 179.5V130L253.6 154.3L253.4 191.7L101.5 179.5ZM101.5 119.9V70.5998L253.8 109.4L253.6 144.2L101.5 119.9ZM253.8 99.0998L101.5 60.2998V11.1998L254 62.5998L253.8 99.0998ZM10 45.9998C10 44.9998 10.6 44.1998 11.5 43.7998L91 12.0998V298.8L10 288.6V45.9998ZM101.5 298.4V249L253.2 248.1L253.1 281.6L101.5 298.4Z" fill="white"/>
</g>
<g clip-path="url(#clip1)">
<path d="M566.3 53.2998L723.2 0.399831C725 -0.200169 726.8 -0.100169 728.5 0.599831C729.7 0.399831 731 0.599831 732.1 0.999831L816.1 34.4998C820.9 36.3998 824 40.8998 824 45.9998V289C824 293.8 820.4 297.8 815.7 298.4L732.4 309C732 309 731.7 309.1 731.3 309.1C730.3 309.1 729.3 308.9 728.4 308.6C727.8 308.8 727.1 308.9 726.4 308.9C726.2 308.9 725.9 308.9 725.7 308.9L569.2 291.5C564.5 291 561 287.1 561 282.4L560 62.1998C560 58.0998 562.5 54.5998 566.3 53.2998ZM722.5 189.5L570.6 201.7L570.8 238.1L722.5 239V189.5ZM722.5 179.5V130L570.4 154.3L570.6 191.7L722.5 179.5ZM722.5 119.9V70.5998L570.2 109.4L570.4 144.2L722.5 119.9ZM570.2 99.0998L722.5 60.2998V11.1998L570 62.5998L570.2 99.0998ZM814 45.9998C814 44.9998 813.4 44.1998 812.5 43.7998L733 12.0998V298.8L814 288.6V45.9998ZM722.5 298.4V249L570.8 248.1L570.9 281.6L722.5 298.4Z" fill="white"/>
</g>
<path d="M448.581 290.771V364.224C448.581 378.968 436.585 391 421.885 391H399.111C384.411 391 372.419 378.973 372.419 364.224V290.771C359.183 285.972 351 261.375 351 248.708V178.034C351 163.289 362.991 151.257 377.696 151.257H443.308C458.009 151.257 470 163.289 470 178.034V248.708C470 261.375 461.817 285.972 448.585 290.771H448.581ZM408.574 57C432.271 57 451.483 76.2696 451.483 100.038C451.483 123.806 432.271 143.076 408.574 143.076C384.877 143.076 365.665 123.806 365.665 100.038C365.665 76.2696 384.877 57 408.574 57ZM408.574 76.8826C395.822 76.8826 385.488 87.2474 385.488 100.038C385.488 112.833 395.822 123.193 408.574 123.193C421.331 123.193 431.66 112.833 431.66 100.038C431.66 87.2474 421.331 76.8826 408.574 76.8826ZM428.758 364.219V271.814H443.304C443.964 271.814 450.173 252.492 450.173 248.703V178.029C450.173 174.258 447.064 171.135 443.304 171.135H377.692C373.932 171.135 370.819 174.258 370.819 178.029V248.703C370.819 252.492 377.028 271.814 377.692 271.814H392.238V364.219C392.238 367.99 395.347 371.113 399.107 371.113H421.88C425.64 371.113 428.753 367.99 428.753 364.219H428.758Z" fill="white"/>
<defs>
<clipPath id="clip0">
<rect width="264" height="309" fill="white"/>
</clipPath>
<clipPath id="clip1">
<rect width="264" height="309" fill="white" transform="matrix(-1 0 0 1 824 0)"/>
</clipPath>
</defs>
</svg>
