<svg width="257" height="147" viewBox="0 0 257 147" fill="none" xmlns="http://www.w3.org/2000/svg">
<path d="M133.72 34.043C129.707 36.89 125.824 57.0783 127.766 62.7724C129.19 67.3018 133.462 84.7724 190.55 85.29C255.794 85.8077 255.017 60.7018 255.017 57.2077C255.017 53.7136 254.499 38.0547 246.214 32.7488C241.554 29.9018 156.504 18.2547 133.72 34.043Z" fill="#F4A134"/>
<path d="M187.315 15.7967C145.502 16.832 130.356 30.5496 129.45 47.5026C128.543 64.3261 145.89 76.232 193.658 75.8437C240.519 75.4555 250.487 60.832 251.911 51.7732C254.759 33.7849 235.859 14.632 187.315 15.7967Z" fill="#FFEAB7"/>
<path d="M135.792 50.9964C137.734 50.9964 139.805 50.9964 141.617 50.3493C142.653 49.9611 142.264 47.8905 141.099 48.2787C139.416 48.9258 137.475 48.9258 135.662 48.9258C134.756 48.9258 134.756 50.9964 135.792 50.9964Z" fill="#FFD38D"/>
<path d="M149.514 46.2079C150.938 45.8196 152.232 45.6902 153.656 45.5608C155.08 45.5608 155.08 43.4902 153.656 43.4902C152.103 43.4902 150.549 43.7491 148.996 44.1373C147.701 44.5255 148.219 46.5961 149.514 46.2079Z" fill="#FFD38D"/>
<path d="M140.452 42.1975C141.358 42.1975 142.264 42.1975 143.3 42.1975C144.206 42.1975 144.853 41.6799 144.853 41.1623C144.853 40.6446 144.206 40.127 143.3 40.127C142.394 40.127 141.487 40.127 140.452 40.127C139.546 40.127 138.898 40.6446 138.898 41.1623C138.898 41.8093 139.675 42.1975 140.452 42.1975Z" fill="#FFD38D"/>
<path d="M160.388 36.5021C162.46 36.5021 164.401 36.5021 166.343 36.1139C167.638 35.8551 167.12 33.9139 165.825 34.0433C164.013 34.3021 162.201 34.3021 160.388 34.3021C158.964 34.3021 158.964 36.5021 160.388 36.5021Z" fill="#FFD38D"/>
<path d="M148.608 33.2674C149.514 33.2674 150.291 33.138 151.067 32.7498C151.585 32.4909 151.715 31.7145 151.456 31.3262C151.197 30.8086 150.55 30.6792 150.032 30.938C149.644 31.1968 149.126 31.0674 148.608 31.0674C148.09 31.0674 147.572 31.5851 147.572 32.1027C147.572 32.7498 148.09 33.2674 148.608 33.2674Z" fill="#FFD38D"/>
<path d="M163.106 26.5379C163.495 26.2791 164.271 26.4085 164.789 26.4085C166.213 26.4085 166.213 24.3379 164.789 24.3379C163.883 24.3379 162.977 24.3379 162.071 24.8555C161.553 25.1144 161.423 25.8908 161.682 26.2791C161.941 26.6673 162.588 26.6673 163.106 26.5379Z" fill="#FFD38D"/>
<path d="M187.314 32.3612C188.997 32.3612 190.68 32.3612 192.363 32.3612C193.787 32.3612 193.787 30.2906 192.363 30.2906C190.68 30.2906 188.997 30.2906 187.314 30.2906C185.89 30.1612 185.89 32.3612 187.314 32.3612Z" fill="#FFD38D"/>
<path d="M174.369 43.1022C175.793 43.1022 177.346 42.9728 178.77 42.714C180.065 42.4552 179.547 40.3846 178.252 40.6434C176.958 40.9023 175.663 40.9023 174.369 40.9023C172.945 41.0317 172.945 43.1022 174.369 43.1022Z" fill="#FFD38D"/>
<path d="M176.052 29.3855C176.57 29.1267 177.735 28.9972 178.382 29.1267C179.676 29.5149 180.194 27.4443 178.9 27.0561C177.605 26.6678 176.052 26.9267 174.887 27.4443C173.851 28.0914 174.887 29.9031 176.052 29.3855Z" fill="#FFD38D"/>
<path d="M182.524 22.5257C183.43 22.5257 184.465 22.5257 185.372 22.5257C186.795 22.5257 186.795 20.4551 185.372 20.4551C184.465 20.4551 183.43 20.4551 182.524 20.4551C181.229 20.4551 181.229 22.5257 182.524 22.5257Z" fill="#FFD38D"/>
<path d="M205.955 29.1266C208.156 29.7737 210.357 29.5149 212.557 29.7737C213.852 29.9031 213.852 27.8325 212.557 27.7031C210.486 27.4443 208.415 27.7031 206.473 27.0561C205.308 26.6678 204.661 28.7384 205.955 29.1266Z" fill="#FFD38D"/>
<path d="M201.554 42.1972C202.46 42.1972 203.496 42.1972 204.402 42.1972C205.826 42.1972 205.826 40.1266 204.402 40.1266C203.496 40.1266 202.46 40.1266 201.554 40.1266C200.13 39.9972 200.13 42.1972 201.554 42.1972Z" fill="#FFD38D"/>
<path d="M184.466 56.4315C185.631 56.4315 186.797 56.4315 187.962 56.4315C189.386 56.4315 189.386 54.361 187.962 54.361C186.797 54.361 185.631 54.361 184.466 54.361C183.042 54.2316 183.042 56.4315 184.466 56.4315Z" fill="#FFD38D"/>
<path d="M153.138 57.9846C153.526 57.9846 154.044 57.9846 154.432 57.9846C154.95 57.9846 155.468 57.467 155.468 56.9494C155.468 56.4317 154.95 55.9141 154.432 55.9141C154.044 55.9141 153.526 55.9141 153.138 55.9141C152.62 55.9141 152.102 56.4317 152.102 56.9494C151.973 57.467 152.49 57.9846 153.138 57.9846Z" fill="#FFD38D"/>
<path d="M164.789 53.844C166.213 53.844 166.213 51.7734 164.789 51.7734C163.495 51.7734 163.495 53.844 164.789 53.844Z" fill="#FFD38D"/>
<path d="M173.722 69.6311C174.628 69.6311 175.664 69.6311 176.57 69.6311C177.994 69.6311 177.994 67.5605 176.57 67.5605C175.664 67.5605 174.628 67.5605 173.722 67.5605C172.298 67.5605 172.298 69.6311 173.722 69.6311Z" fill="#FFD38D"/>
<path d="M210.356 67.8196C211.78 67.8196 213.333 67.5608 214.757 67.5608C216.181 67.5608 216.181 65.4902 214.757 65.4902C213.333 65.4902 211.78 65.7491 210.356 65.7491C209.061 65.7491 209.061 67.8196 210.356 67.8196Z" fill="#FFD38D"/>
<path d="M203.496 54.2323C204.402 54.2323 205.438 54.2323 206.344 54.2323C207.768 54.2323 207.768 52.1617 206.344 52.1617C205.438 52.1617 204.402 52.1617 203.496 52.1617C202.072 52.0323 202.072 54.2323 203.496 54.2323Z" fill="#FFD38D"/>
<path d="M231.328 58.243C233.658 57.9842 235.989 57.9842 238.319 57.5959C239.613 57.4665 239.095 55.3959 237.801 55.5254C235.471 55.7842 233.141 55.7842 230.81 56.1724C229.386 56.4312 229.904 58.3724 231.328 58.243Z" fill="#FFD38D"/>
<path d="M217.605 47.7622C218.77 47.5034 219.935 47.2446 221.1 47.1151C222.524 47.1151 222.524 44.9151 221.1 45.0446C219.676 45.0446 218.382 45.4328 216.958 45.6916C215.793 46.0799 216.31 48.1504 217.605 47.7622Z" fill="#FFD38D"/>
<path d="M236.635 44.3964C237.541 44.3964 238.318 44.3964 239.224 44.3964C240.648 44.3964 240.648 42.3258 239.224 42.3258C238.318 42.3258 237.541 42.3258 236.635 42.3258C235.34 42.1964 235.34 44.3964 236.635 44.3964Z" fill="#FFD38D"/>
<path d="M223.043 34.9504C224.596 34.5622 226.15 34.4328 227.703 34.6916C228.739 34.821 229.127 32.7504 227.962 32.621C226.279 32.3622 224.596 32.4916 222.913 32.8798C221.748 33.1386 221.878 35.2092 223.043 34.9504Z" fill="#FFD38D"/>
<path d="M202.459 21.8787C203.365 21.8787 204.271 21.8787 205.178 21.3611C205.695 21.1023 205.825 20.3258 205.566 19.9376C205.307 19.4199 204.66 19.2905 204.142 19.5493C203.754 19.8082 202.977 19.6787 202.459 19.6787C201.165 19.8082 201.165 21.8787 202.459 21.8787Z" fill="#FFD38D"/>
<path d="M225.891 27.3144C226.668 27.3144 227.315 27.3144 228.091 27.3144C229.515 27.3144 229.515 25.2438 228.091 25.2438C227.315 25.2438 226.668 25.2438 225.891 25.2438C224.596 25.1144 224.596 27.3144 225.891 27.3144Z" fill="#FFD38D"/>
<path d="M178.123 47.7628C178.123 47.8922 177.993 48.0216 177.993 48.0216C177.993 48.0216 177.864 48.0216 177.993 48.0216C177.864 48.0216 177.993 48.0216 177.993 48.0216H178.123C178.382 48.0216 178.641 47.7628 178.641 47.504C178.641 47.2451 178.382 46.9863 178.123 46.9863C177.864 46.9863 177.735 46.9863 177.605 47.1157C177.346 47.2452 177.217 47.504 177.217 47.7628C177.217 48.0216 177.476 48.2804 177.735 48.2804C177.864 48.2804 178.123 48.0216 178.123 47.7628Z" fill="#EAC083"/>
<path d="M191.327 44.3986C191.715 44.3986 191.974 44.3986 192.362 44.3986C193.01 44.3986 193.01 43.3633 192.362 43.3633C191.974 43.3633 191.715 43.3633 191.327 43.3633C190.55 43.3633 190.55 44.3986 191.327 44.3986Z" fill="#EAC083"/>
<path d="M184.076 37.1505C183.947 37.1505 184.076 37.0211 184.076 37.1505H184.206C184.335 37.1505 184.594 37.1505 184.724 37.1505C185.371 37.1505 185.371 36.1152 184.724 36.1152C184.206 36.1152 183.688 36.1152 183.3 36.5035C183.041 36.6329 183.041 37.0211 183.3 37.2799C183.559 37.2799 183.817 37.2799 184.076 37.1505Z" fill="#EAC083"/>
<path d="M209.061 34.9513C209.32 34.9513 209.579 34.9513 209.967 34.9513C210.226 34.9513 210.485 34.6925 210.485 34.4337C210.485 34.1748 210.226 33.916 209.967 33.916C209.708 33.916 209.449 33.916 209.061 33.916C208.802 33.916 208.543 34.1748 208.543 34.4337C208.543 34.6925 208.672 34.9513 209.061 34.9513Z" fill="#EAC083"/>
<path d="M200.128 25.5043C200.516 25.5043 200.775 25.5043 201.164 25.5043C201.811 25.5043 201.811 24.469 201.164 24.469C200.775 24.469 200.516 24.469 200.128 24.469C199.481 24.3396 199.481 25.5043 200.128 25.5043Z" fill="#EAC083"/>
<path d="M214.756 25.633C214.886 25.633 214.886 25.633 215.015 25.633C215.274 25.633 215.533 25.3741 215.533 25.1153C215.533 24.8565 215.274 24.5977 215.015 24.5977C214.886 24.5977 214.886 24.5977 214.756 24.5977C214.497 24.5977 214.238 24.8565 214.238 25.1153C214.238 25.3741 214.368 25.633 214.756 25.633Z" fill="#EAC083"/>
<path d="M159.998 29.6447C160.257 29.6447 160.516 29.6447 160.904 29.6447C161.163 29.6447 161.422 29.3858 161.422 29.127C161.422 28.8682 161.163 28.6094 160.904 28.6094C160.646 28.6094 160.387 28.6094 159.998 28.6094C159.739 28.6094 159.48 28.8682 159.48 29.127C159.48 29.3858 159.739 29.6447 159.998 29.6447Z" fill="#EAC083"/>
<path d="M171.261 23.9499C171.52 23.8204 171.908 23.8204 172.297 23.8204C172.944 23.8204 172.944 22.7852 172.297 22.7852C171.779 22.7852 171.261 22.7852 170.743 23.044C170.484 23.1734 170.355 23.5616 170.614 23.8204C170.743 23.9499 171.002 23.9499 171.261 23.9499Z" fill="#EAC083"/>
<path d="M152.62 24.5974C153.267 24.5974 153.785 24.5974 154.303 24.3385C154.562 24.2091 154.691 23.8209 154.432 23.5621C154.303 23.3032 153.915 23.3032 153.656 23.4327C153.267 23.5621 152.879 23.5621 152.491 23.5621C151.973 23.5621 151.973 24.5974 152.62 24.5974Z" fill="#EAC083"/>
<path d="M138.769 34.6921C139.028 34.5626 139.416 34.5626 139.804 34.5626C140.452 34.5626 140.452 33.5273 139.804 33.5273C139.287 33.5273 138.769 33.5273 138.251 33.7862C137.992 33.9156 137.863 34.3038 138.122 34.5626C138.251 34.6921 138.51 34.8215 138.769 34.6921Z" fill="#EAC083"/>
<path d="M148.477 35.9855C148.607 35.9855 148.866 35.9855 148.995 35.8561C149.125 35.8561 149.125 35.8561 149.254 35.7267H149.383C149.513 35.7267 149.254 35.7267 149.383 35.7267C149.642 35.7267 149.901 35.4679 149.901 35.2091C149.901 34.9502 149.642 34.6914 149.383 34.6914C149.254 34.6914 148.995 34.6914 148.866 34.8208C148.736 34.8208 148.736 34.8208 148.607 34.9502H148.477C148.348 34.9502 148.607 34.9502 148.477 34.9502C148.218 34.9502 147.959 35.2091 147.959 35.4679C147.83 35.7267 148.089 35.9855 148.477 35.9855Z" fill="#EAC083"/>
<path d="M135.145 43.363C135.663 43.363 136.051 43.2336 136.439 43.1042C136.698 42.9748 136.828 42.5865 136.569 42.3277C136.439 42.0689 136.051 42.0689 135.792 42.1983C135.533 42.3277 135.274 42.3277 135.015 42.3277C134.368 42.3277 134.368 43.363 135.145 43.363Z" fill="#EAC083"/>
<path d="M199.482 50.9982C199.87 50.9982 200.129 50.9982 200.517 50.9982C201.164 50.9982 201.164 49.9629 200.517 49.9629C200.129 49.9629 199.87 49.9629 199.482 49.9629C198.834 49.9629 198.834 50.9982 199.482 50.9982Z" fill="#EAC083"/>
<path d="M217.994 51.3855C218.641 51.5149 219.159 51.6443 219.806 51.6443C220.454 51.6443 220.454 50.609 219.806 50.609C219.289 50.609 218.771 50.609 218.253 50.4796C217.606 50.2208 217.347 51.1267 217.994 51.3855Z" fill="#EAC083"/>
<path d="M221.487 40.3864C222.005 40.3864 222.523 40.3864 222.911 39.9982C223.17 39.8688 223.17 39.4805 222.911 39.2217C222.652 38.9629 222.394 39.0923 222.135 39.2217C222.264 39.2217 222.005 39.2217 222.135 39.2217H222.005C221.876 39.2217 221.617 39.2217 221.487 39.2217C220.84 39.3511 220.84 40.3864 221.487 40.3864Z" fill="#EAC083"/>
<path d="M237.282 41.2917C237.799 41.1623 238.447 41.1623 239.094 41.1623C239.741 41.1623 239.741 40.127 239.094 40.127C238.447 40.127 237.67 40.127 237.023 40.3858C236.246 40.3858 236.634 41.4211 237.282 41.2917Z" fill="#EAC083"/>
<path d="M231.196 33.6564C231.585 33.6564 231.844 33.6564 232.232 33.6564C232.879 33.6564 232.879 32.6211 232.232 32.6211C231.844 32.6211 231.585 32.6211 231.196 32.6211C230.549 32.6211 230.549 33.6564 231.196 33.6564Z" fill="#EAC083"/>
<path d="M232.233 28.3503C232.362 28.3503 232.362 28.3503 232.492 28.3503C232.492 28.3503 232.75 28.3503 232.621 28.3503C232.621 28.3503 232.75 28.3503 232.621 28.3503C232.75 28.3503 232.492 28.2208 232.621 28.3503C232.88 28.6091 233.139 28.6091 233.398 28.3503C233.657 28.0914 233.657 27.8326 233.398 27.5738C233.009 27.1856 232.621 27.1855 232.233 27.1855C231.974 27.1855 231.715 27.4444 231.715 27.7032C231.715 28.2208 231.974 28.3503 232.233 28.3503Z" fill="#EAC083"/>
<path d="M243.366 38.7033C243.884 38.7033 244.531 38.7033 245.049 38.7033C245.696 38.7033 245.696 37.668 245.049 37.668C244.531 37.668 243.884 37.668 243.366 37.668C242.719 37.668 242.719 38.7033 243.366 38.7033Z" fill="#EAC083"/>
<path d="M240.26 32.1042C240.648 31.9747 241.295 31.9747 241.684 31.9747C242.331 31.9747 242.331 30.9395 241.684 30.9395C241.036 30.9395 240.389 30.9395 239.742 31.1983C239.483 31.3277 239.483 31.7159 239.612 31.9747C239.742 32.2336 240.001 32.2336 240.26 32.1042Z" fill="#EAC083"/>
<path d="M134.626 56.0451C135.014 56.0451 135.273 56.0451 135.662 56.0451C136.309 56.0451 136.309 55.0098 135.662 55.0098C135.273 55.0098 135.014 55.0098 134.626 55.0098C133.979 55.0098 133.979 56.0451 134.626 56.0451Z" fill="#EAC083"/>
<path d="M149.901 49.7028C150.419 49.7028 150.937 49.7028 151.325 49.3146C151.584 49.1852 151.584 48.7969 151.325 48.5381C151.067 48.2793 150.808 48.4087 150.549 48.5381C150.678 48.5381 150.419 48.5381 150.549 48.5381H150.419C150.29 48.5381 150.031 48.5381 149.901 48.5381C149.254 48.6675 149.254 49.7028 149.901 49.7028Z" fill="#EAC083"/>
<path d="M161.294 40.3869C161.812 40.3869 162.33 40.3869 162.718 40.3869C163.365 40.3869 163.365 39.3516 162.718 39.3516C162.2 39.3516 161.682 39.3516 161.294 39.3516C160.647 39.3516 160.647 40.3869 161.294 40.3869Z" fill="#EAC083"/>
<path d="M170.356 30.0333C170.485 30.0333 170.615 30.0333 170.744 30.0333C171.003 30.0333 171.262 29.7745 171.262 29.5157C171.262 29.2569 171.003 28.998 170.744 28.998C170.615 28.998 170.485 28.998 170.356 28.998C170.097 28.998 169.838 29.2569 169.838 29.5157C169.838 29.9039 170.097 30.0333 170.356 30.0333Z" fill="#EAC083"/>
<path d="M176.957 19.1618C177.604 19.1618 178.122 19.1618 178.64 18.903C178.899 18.7736 179.028 18.3853 178.77 18.1265C178.64 17.8677 178.252 17.8677 177.993 17.9971C177.604 18.1265 177.216 18.1265 176.828 18.1265C176.181 17.9971 176.181 19.1618 176.957 19.1618Z" fill="#EAC083"/>
<path d="M193.785 18.6447C194.044 18.6447 194.303 18.6447 194.692 18.6447C194.95 18.6447 195.209 18.3858 195.209 18.127C195.209 17.8682 194.95 17.6094 194.692 17.6094C194.433 17.6094 194.174 17.6094 193.785 17.6094C193.526 17.6094 193.268 17.8682 193.268 18.127C193.268 18.3858 193.526 18.6447 193.785 18.6447Z" fill="#EAC083"/>
<path d="M162.2 65.1037C162.459 65.1037 162.718 65.1037 163.106 65.1037C163.365 65.1037 163.624 64.8448 163.624 64.586C163.624 64.3272 163.365 64.0684 163.106 64.0684C162.847 64.0684 162.588 64.0684 162.2 64.0684C161.941 64.0684 161.682 64.3272 161.682 64.586C161.553 64.8448 161.812 65.1037 162.2 65.1037Z" fill="#EAC083"/>
<path d="M199.352 68.7267C199.482 68.7267 199.482 68.7267 199.611 68.7267C199.87 68.7267 200.129 68.4679 200.129 68.2091C200.129 67.9502 199.87 67.6914 199.611 67.6914C199.482 67.6914 199.482 67.6914 199.352 67.6914C199.093 67.6914 198.834 67.9502 198.834 68.2091C198.705 68.4679 198.964 68.7267 199.352 68.7267Z" fill="#EAC083"/>
<path d="M220.195 57.8561C220.454 57.7267 220.842 57.7267 221.23 57.7267C221.877 57.7267 221.877 56.6914 221.23 56.6914C220.712 56.6914 220.195 56.6914 219.677 56.9502C219.418 57.0796 219.288 57.4679 219.547 57.7267C219.677 57.9855 219.936 57.9855 220.195 57.8561Z" fill="#EAC083"/>
<path d="M227.572 64.9748C227.702 64.9748 227.702 64.9748 227.831 64.9748C228.09 64.9748 228.349 64.7159 228.349 64.4571C228.349 64.1983 228.09 63.9395 227.831 63.9395C227.702 63.9395 227.702 63.9395 227.572 63.9395C227.314 63.9395 227.055 64.1983 227.055 64.4571C227.055 64.7159 227.314 64.9748 227.572 64.9748Z" fill="#EAC083"/>
<path d="M244.271 48.7971C244.66 48.6677 245.178 48.5383 245.566 48.4089C245.825 48.2794 245.954 47.8912 245.695 47.6324C245.566 47.3736 245.178 47.3736 244.919 47.503C244.53 47.6324 244.012 47.7618 243.624 47.8912C243.365 48.0206 243.236 48.4089 243.495 48.6677C243.754 48.9265 244.012 48.9265 244.271 48.7971Z" fill="#EAC083"/>
<path d="M254.888 57.3385C254.888 56.4326 254.888 54.7503 254.629 52.6797C253.852 54.4915 253.205 56.8209 252.946 57.8562C252.428 61.3503 250.486 64.0679 248.803 67.0444C247.25 69.6326 243.625 72.2209 241.036 73.7738C237.153 75.9738 232.493 77.915 228.221 78.8209C219.159 80.6326 210.356 80.762 201.036 81.2797C191.456 81.7973 181.488 81.4091 171.909 80.5032C166.601 79.9856 161.164 79.0797 155.986 77.2679C151.067 75.5856 145.501 75.715 141.358 72.7385C137.863 70.2797 133.462 69.5032 131.002 65.8797C130.484 65.1032 128.801 61.9973 127.248 59.9267C127.248 61.0914 127.507 62.1267 127.636 62.9032C129.06 67.4326 133.332 84.9032 190.421 85.4209C255.664 85.8091 254.888 60.8326 254.888 57.3385Z" fill="#E89736"/>
<path d="M126.342 50.9963C126.342 50.9963 132.297 73.9022 191.586 74.2904C250.487 74.6787 256.183 50.3493 256.183 50.3493C256.183 50.3493 256.83 40.7728 256.312 36.8904C254.888 24.9845 245.179 1.3022 190.68 1.04338C140.453 0.784552 128.672 21.8787 126.213 34.8198C125.048 40.3846 126.342 50.9963 126.342 50.9963Z" fill="#E89736"/>
<path d="M231.715 16.0563C231.586 16.4445 233.01 17.4798 233.528 17.6092C234.304 17.868 236.246 17.3504 236.246 16.8327C236.117 16.3151 235.081 15.4092 234.304 15.1504C233.657 15.1504 231.845 15.2798 231.715 16.0563Z" fill="#EAE8A9"/>
<path d="M133.332 55.0094C133.85 57.5976 140.841 61.3505 146.019 64.0682C151.197 66.7858 170.226 71.7035 172.686 71.1858C177.087 70.2799 176.181 59.927 173.98 55.6564C172.168 52.1623 163.106 41.8094 155.857 40.5152C148.478 39.2211 135.145 37.2799 133.721 40.6447C132.167 44.0094 132.426 50.3505 133.332 55.0094Z" fill="#E89E46"/>
<path d="M255.923 36.1146C254.24 24.0793 244.013 1.17343 190.42 0.914605C141.876 0.655782 129.448 20.5852 126.471 33.5264C126.859 34.3028 126.859 34.9499 127.247 35.3381C128.93 37.797 130.872 39.997 133.591 41.2911C139.028 43.8793 145.5 41.4205 150.937 44.1381C156.633 46.9852 160.387 52.4205 166.083 55.397C173.721 59.4087 181.876 59.1499 189.773 55.7852C197.152 52.5499 203.754 52.4205 211.65 53.9734C218.382 55.2676 227.702 55.9146 233.528 51.1264C235.599 49.444 235.858 46.4675 237.799 44.5264C239.741 42.4558 242.848 41.4205 245.567 40.644C249.838 39.3499 253.463 38.7028 255.923 36.1146Z" fill="#F4A134"/>
<path d="M155.598 31.0675C155.857 31.3263 157.41 30.5498 157.798 30.1616C158.316 29.5145 158.834 27.5734 158.446 27.4439C157.928 27.3145 156.633 27.8322 156.115 28.3498C155.598 28.8675 154.95 30.5498 155.598 31.0675Z" fill="#EAE8A9"/>
<path d="M147.443 21.2315C147.702 21.4904 149.256 20.7139 149.644 20.3256C150.162 19.6786 150.68 17.7374 150.291 17.608C149.773 17.4786 148.479 17.9962 147.961 18.5139C147.443 19.0315 146.796 20.7139 147.443 21.2315Z" fill="#EAE8A9"/>
<path d="M178.9 12.1745C178.9 12.5627 180.324 13.4686 180.972 13.4686C181.748 13.598 183.69 12.9509 183.561 12.4333C183.431 11.9157 182.266 11.1392 181.489 11.0098C180.713 11.0098 179.03 11.398 178.9 12.1745Z" fill="#EAE8A9"/>
<path d="M165.437 9.06649C165.178 9.32532 165.696 11.0077 166.084 11.5253C166.602 12.1724 168.414 13.0783 168.673 12.5606C168.932 12.043 168.544 10.7489 168.026 10.1018C167.508 9.32532 165.955 8.41944 165.437 9.06649Z" fill="#EAE8A9"/>
<path d="M179.547 3.50295C179.417 3.24413 177.734 3.11472 177.087 3.24413C176.31 3.50295 174.886 5.0559 175.275 5.31472C175.663 5.70296 176.958 5.83237 177.734 5.57354C178.511 5.44413 179.806 4.15001 179.547 3.50295Z" fill="#EAE8A9"/>
<path d="M173.074 22.1385C172.944 22.3974 173.98 23.8209 174.498 24.0797C175.145 24.4679 177.216 24.5974 177.216 24.0797C177.216 23.5621 176.439 22.3973 175.792 22.0091C175.145 21.7503 173.332 21.4915 173.074 22.1385Z" fill="#EAE8A9"/>
<path d="M155.211 8.1616C155.211 8.54984 156.894 9.06749 157.541 8.93808C158.318 8.80866 160 7.77337 159.742 7.25572C159.483 6.86749 158.188 6.34984 157.411 6.47925C156.635 6.47925 155.081 7.25572 155.211 8.1616Z" fill="#EAE8A9"/>
<path d="M205.826 6.09059C205.955 5.83177 205.049 4.27883 204.661 3.8906C204.014 3.37295 201.942 3.11412 201.942 3.63177C201.813 4.14942 202.46 5.44354 203.108 5.83177C203.625 6.34942 205.438 6.73765 205.826 6.09059Z" fill="#EAE8A9"/>
<path d="M188.35 5.57259C188.221 5.83142 188.998 7.38436 189.515 7.7726C190.163 8.29025 192.104 8.54907 192.234 8.16083C192.363 7.64319 191.716 6.34907 191.069 5.83142C190.551 5.44318 188.868 4.92553 188.35 5.57259Z" fill="#EAE8A9"/>
<path d="M225.502 32.7493C225.761 32.6199 225.761 30.8081 225.502 30.2905C225.113 29.514 223.56 28.2199 223.301 28.6081C222.913 28.9964 222.913 30.4199 223.301 31.1964C223.56 31.8434 224.854 33.1376 225.502 32.7493Z" fill="#EAE8A9"/>
<path d="M191.585 19.0323C191.844 19.2911 193.398 18.5147 193.786 18.1264C194.304 17.4794 194.822 15.5382 194.433 15.4088C193.915 15.2794 192.621 15.797 192.103 16.3147C191.715 16.8323 191.067 18.5147 191.585 19.0323Z" fill="#EAE8A9"/>
<path d="M185.632 34.6905C185.891 34.9493 187.444 34.1729 187.833 33.7846C188.351 33.1376 188.868 31.1964 188.48 31.067C187.962 30.9376 186.668 31.4552 186.15 31.9729C185.762 32.3611 185.114 34.1729 185.632 34.6905Z" fill="#EAE8A9"/>
<path d="M210.486 16.9617C210.616 16.7029 209.709 15.1499 209.321 14.7617C208.674 14.244 206.603 13.9852 206.603 14.5029C206.473 15.0205 207.12 16.3146 207.897 16.7029C208.415 17.2205 210.098 17.7382 210.486 16.9617Z" fill="#EAE8A9"/>
<path d="M209.839 27.4443C209.71 27.1855 208.027 26.7972 207.509 27.0561C206.732 27.3149 205.179 28.609 205.567 28.9972C205.826 29.3855 207.25 29.6443 208.027 29.5149C208.674 29.2561 210.098 28.2208 209.839 27.4443Z" fill="#EAE8A9"/>
<path d="M224.207 9.4562C224.337 9.19738 223.172 7.77384 222.654 7.51502C221.877 7.12678 219.936 7.12679 219.936 7.64443C219.936 8.16208 220.712 9.32678 221.489 9.71502C222.007 9.97384 223.819 10.1033 224.207 9.4562Z" fill="#EAE8A9"/>
<path opacity="0.2" d="M187.574 9.97325C184.855 9.06736 182.137 8.29089 179.289 8.16148C176.182 8.03207 173.075 9.06737 170.227 9.58501C164.402 10.8791 158.317 13.5968 152.621 15.7968C148.091 17.4791 143.171 19.4203 139.935 23.4321C139.158 24.338 138.641 25.2438 138.123 26.2791V27.5733C136.958 30.938 139.417 31.9733 142.136 33.138C143.819 33.9144 145.502 34.0438 147.314 34.4321C149.385 34.9497 151.456 35.8556 153.398 36.6321C157.023 38.0556 159.871 40.5144 163.237 42.3262C165.567 43.6203 168.156 45.3027 170.745 45.3027C178.124 45.4321 177.994 35.7262 181.23 31.0674C182.784 28.738 185.114 26.538 187.444 24.8556C190.033 23.0438 193.528 21.7497 195.6 19.4203C199.483 15.0203 190.68 11.138 187.574 9.97325Z" fill="#FFC050"/>
<path d="M12.2941 69.1129C6.33926 73.254 0.513917 103.666 3.36186 112.336C5.56255 119.066 11.9057 145.466 97.4735 146.113C195.339 146.889 194.174 109.36 194.174 104.054C194.174 98.8776 193.527 75.3246 181.1 67.4305C174.109 63.0305 46.3399 45.4305 12.2941 69.1129Z" fill="#F4A134"/>
<path d="M92.556 41.8077C29.7717 43.49 6.98819 63.9371 5.82312 89.3018C4.5286 114.667 30.5485 132.396 102.135 131.749C172.428 131.102 187.315 109.231 189.516 95.643C193.917 68.8548 165.438 39.9959 92.556 41.8077Z" fill="#FFEAB7"/>
<path d="M15.4008 94.6076C18.3782 94.6076 21.3556 94.737 24.2036 93.5723C25.757 92.9252 25.1097 89.9487 23.5563 90.4664C20.9673 91.5017 18.1193 91.3723 15.4008 91.3723C13.718 91.5017 13.718 94.6076 15.4008 94.6076Z" fill="#FFD38D"/>
<path d="M35.9844 87.3612C38.0556 86.8436 40.1269 86.4554 42.1981 86.4554C44.2693 86.4554 44.2693 83.2201 42.1981 83.3495C39.868 83.3495 37.4084 83.7377 35.0782 84.3848C33.2659 84.9024 34.0426 87.8789 35.9844 87.3612Z" fill="#FFD38D"/>
<path d="M22.3926 81.4067C23.8166 81.4067 25.2406 81.4067 26.5351 81.4067C27.8296 81.4067 28.8652 80.6302 28.8652 79.8537C28.8652 78.9478 27.8296 78.3008 26.5351 78.3008C25.1111 78.3008 23.6872 78.3008 22.3926 78.3008C21.0981 78.3008 20.0625 79.0773 20.0625 79.8537C20.0625 80.7596 21.0981 81.4067 22.3926 81.4067Z" fill="#FFD38D"/>
<path d="M52.2966 72.7365C55.274 72.7365 58.2514 72.6071 61.2288 72.2188C63.3 71.96 62.3938 68.8541 60.3226 69.113C57.6041 69.5012 54.8856 69.5012 52.1671 69.5012C50.2253 69.6306 50.2253 72.7365 52.2966 72.7365Z" fill="#FFD38D"/>
<path d="M34.6907 67.9478C35.9852 67.9478 37.1503 67.8184 38.3154 67.3007C39.0921 66.9125 39.351 65.8772 38.8332 65.1007C38.3153 64.3243 37.4092 64.1949 36.6325 64.5831C35.9852 64.8419 35.338 64.8419 34.5612 64.8419C33.6551 64.8419 33.0078 65.6184 33.0078 66.3949C33.1373 67.3007 33.7845 67.9478 34.6907 67.9478Z" fill="#FFD38D"/>
<path d="M56.4383 57.8549C57.0856 57.5961 58.1212 57.5961 59.0273 57.5961C61.0986 57.5961 61.0986 54.4902 59.0273 54.4902C57.6034 54.4902 56.1794 54.6196 54.8849 55.1373C54.1081 55.5255 53.8492 56.5608 54.3671 57.3373C54.626 57.9844 55.5321 58.1138 56.4383 57.8549Z" fill="#FFD38D"/>
<path d="M92.6843 66.5258C95.2733 66.5258 97.7329 66.5258 100.322 66.5258C102.393 66.5258 102.393 63.4199 100.322 63.4199C97.7329 63.4199 95.2733 63.4199 92.6843 63.4199C90.6131 63.4199 90.6131 66.5258 92.6843 66.5258Z" fill="#FFD38D"/>
<path d="M73.1374 82.702C75.3381 82.702 77.5388 82.5725 79.7395 82.1843C81.6813 81.7961 80.9045 78.6902 78.8333 79.0784C76.8915 79.4667 75.0792 79.4667 73.1374 79.4667C71.0662 79.5961 71.0662 82.702 73.1374 82.702Z" fill="#FFD38D"/>
<path d="M75.8562 62.1246C76.7624 61.7364 78.3158 61.4776 79.3514 61.8658C81.2932 62.3834 82.1993 59.407 80.2575 58.7599C78.3158 58.2423 76.1151 58.5011 74.3028 59.407C72.361 60.1834 74.0439 62.9011 75.8562 62.1246Z" fill="#FFD38D"/>
<path d="M85.5651 51.9007C86.9891 51.9007 88.4131 51.9007 89.837 51.9007C91.9083 51.9007 91.9083 48.7948 89.837 48.7948C88.4131 48.7948 86.9891 48.7948 85.5651 48.7948C83.4939 48.6654 83.4939 51.9007 85.5651 51.9007Z" fill="#FFD38D"/>
<path d="M120.777 61.7366C124.013 62.7719 127.379 62.3837 130.744 62.7719C132.816 63.0307 132.686 59.7954 130.744 59.666C127.767 59.2778 124.66 59.666 121.683 58.7601C119.611 58.1131 118.835 61.219 120.777 61.7366Z" fill="#FFD38D"/>
<path d="M114.044 81.2778C115.468 81.2778 116.892 81.2778 118.316 81.2778C120.387 81.2778 120.387 78.1719 118.316 78.1719C116.892 78.1719 115.468 78.1719 114.044 78.1719C111.972 78.1719 111.972 81.2778 114.044 81.2778Z" fill="#FFD38D"/>
<path d="M88.4128 102.631C90.0957 102.631 91.908 102.631 93.5909 102.631C95.6621 102.631 95.6621 99.5254 93.5909 99.5254C91.908 99.5254 90.0957 99.5254 88.4128 99.5254C86.3416 99.5254 86.3416 102.631 88.4128 102.631Z" fill="#FFD38D"/>
<path d="M41.2917 105.09C41.939 105.09 42.5862 105.09 43.2335 105.09C44.1397 105.09 44.7869 104.314 44.7869 103.537C44.7869 102.631 44.0102 101.984 43.2335 101.984C42.5862 101.984 41.939 101.984 41.2917 101.984C40.3855 101.984 39.7383 102.761 39.7383 103.537C39.7383 104.314 40.515 105.09 41.2917 105.09Z" fill="#FFD38D"/>
<path d="M58.8972 98.8774C60.9684 98.8774 60.9684 95.7715 58.8972 95.7715C56.8259 95.7715 56.8259 98.8774 58.8972 98.8774Z" fill="#FFD38D"/>
<path d="M72.2312 122.69C73.6551 122.69 75.0791 122.69 76.5031 122.69C78.5743 122.69 78.5743 119.584 76.5031 119.584C75.0791 119.584 73.6551 119.584 72.2312 119.584C70.1599 119.454 70.1599 122.69 72.2312 122.69Z" fill="#FFD38D"/>
<path d="M127.378 119.844C129.578 119.844 131.779 119.456 133.98 119.326C136.051 119.326 136.051 116.091 133.98 116.221C131.779 116.221 129.578 116.609 127.378 116.738C125.306 116.609 125.306 119.844 127.378 119.844Z" fill="#FFD38D"/>
<path d="M116.891 99.3968C118.315 99.3968 119.739 99.3968 121.163 99.3968C123.234 99.3968 123.234 96.2909 121.163 96.2909C119.739 96.2909 118.315 96.2909 116.891 96.2909C114.82 96.1615 114.82 99.3968 116.891 99.3968Z" fill="#FFD38D"/>
<path d="M158.576 105.478C162.071 104.961 165.566 104.961 169.061 104.572C171.133 104.314 170.227 101.208 168.155 101.466C164.66 101.984 161.165 101.984 157.67 102.372C155.728 102.631 156.634 105.737 158.576 105.478Z" fill="#FFD38D"/>
<path d="M138.251 89.8202C139.934 89.432 141.746 88.9144 143.559 88.9144C145.63 88.9144 145.63 85.6791 143.559 85.8085C141.487 85.8085 139.416 86.3261 137.474 86.8438C135.403 87.232 136.18 90.3379 138.251 89.8202Z" fill="#FFD38D"/>
<path d="M166.731 84.6429C168.026 84.6429 169.32 84.6429 170.485 84.6429C172.557 84.6429 172.557 81.537 170.485 81.537C169.191 81.537 167.896 81.537 166.731 81.537C164.66 81.4076 164.66 84.6429 166.731 84.6429Z" fill="#FFD38D"/>
<path d="M146.277 70.5367C148.607 70.0191 150.938 69.8897 153.138 70.1485C154.692 70.4073 155.21 67.172 153.527 67.0426C151.067 66.6544 148.478 66.7838 145.889 67.4308C144.336 67.8191 144.594 70.925 146.277 70.5367Z" fill="#FFD38D"/>
<path d="M115.468 50.8658C116.892 50.8658 118.316 50.7364 119.611 50.2187C120.388 49.8305 120.647 48.7952 120.129 48.0187C119.611 47.2422 118.705 47.1128 117.928 47.5011C117.281 47.7599 116.245 47.7599 115.339 47.7599C113.397 47.7599 113.397 50.8658 115.468 50.8658Z" fill="#FFD38D"/>
<path d="M150.55 59.0198C151.715 59.0198 152.751 59.0198 153.916 59.0198C155.987 59.0198 155.987 55.9139 153.916 55.9139C152.751 55.9139 151.715 55.9139 150.55 55.9139C148.608 55.7845 148.608 59.0198 150.55 59.0198Z" fill="#FFD38D"/>
<path d="M78.8327 89.6901C78.8327 89.8195 78.7033 89.9489 78.5738 90.0783C78.7033 89.9489 78.3149 90.0783 78.5738 90.0783C78.3149 90.0783 78.4444 90.0783 78.5738 90.0783H78.7033C79.0916 90.0783 79.48 89.6901 79.48 89.3019C79.48 88.9136 79.0916 88.5254 78.7033 88.5254C78.4444 88.5254 78.056 88.5254 77.7971 88.6548C77.4088 88.7842 77.2793 89.1725 77.2793 89.5607C77.2793 89.9489 77.6677 90.3372 78.056 90.3372C78.4444 90.4666 78.8327 90.0783 78.8327 89.6901Z" fill="#EAC083"/>
<path d="M98.638 84.7717C99.1559 84.7717 99.6737 84.7717 100.191 84.7717C101.227 84.7717 101.227 83.2188 100.191 83.2188C99.6737 83.2188 99.1559 83.2188 98.638 83.2188C97.6024 83.2188 97.6024 84.7717 98.638 84.7717Z" fill="#EAC083"/>
<path d="M87.7655 73.7717C87.636 73.9011 87.8949 73.7717 87.7655 73.7717C87.8949 73.7717 88.0244 73.7717 88.0244 73.7717C88.2833 73.7717 88.5422 73.7717 88.8011 73.7717C89.8367 73.7717 89.8367 72.2188 88.8011 72.2188C88.0244 72.2188 87.2477 72.2188 86.6004 72.7364C86.3415 72.9952 86.3415 73.5129 86.6004 73.9011C86.9888 74.0305 87.3771 74.0305 87.7655 73.7717Z" fill="#EAC083"/>
<path d="M125.177 70.5373C125.565 70.5373 126.083 70.5373 126.472 70.5373C126.86 70.5373 127.248 70.1491 127.248 69.7608C127.248 69.3726 126.86 68.9844 126.472 68.9844C126.083 68.9844 125.565 68.9844 125.177 68.9844C124.789 68.9844 124.4 69.3726 124.4 69.7608C124.4 70.1491 124.789 70.5373 125.177 70.5373Z" fill="#EAC083"/>
<path d="M111.972 56.3022C112.49 56.3022 113.008 56.3022 113.525 56.3022C114.561 56.3022 114.561 54.7493 113.525 54.7493C113.008 54.7493 112.49 54.7493 111.972 54.7493C110.936 54.6199 110.936 56.3022 111.972 56.3022Z" fill="#EAC083"/>
<path d="M133.72 56.5608C133.85 56.5608 133.979 56.5608 133.979 56.5608C134.367 56.5608 134.756 56.1725 134.756 55.7843C134.756 55.396 134.367 55.0078 133.979 55.0078C133.85 55.0078 133.72 55.0078 133.72 55.0078C133.332 55.0078 132.943 55.396 132.943 55.7843C132.943 56.1725 133.332 56.5608 133.72 56.5608Z" fill="#EAC083"/>
<path d="M51.7764 62.6428C52.1648 62.6428 52.6826 62.6428 53.0709 62.6428C53.4593 62.6428 53.8477 62.2546 53.8477 61.8663C53.8477 61.4781 53.4593 61.0898 53.0709 61.0898C52.6826 61.0898 52.1648 61.0898 51.7764 61.0898C51.3881 61.0898 50.9997 61.4781 50.9997 61.8663C50.8702 62.2546 51.2586 62.6428 51.7764 62.6428Z" fill="#EAC083"/>
<path d="M68.6059 53.9719C69.1237 53.7131 69.6415 53.7131 70.1593 53.7131C71.1949 53.7131 71.1949 52.1602 70.1593 52.1602C69.3826 52.1602 68.6059 52.2896 67.8291 52.5484C67.4408 52.6778 67.3113 53.3249 67.5702 53.5837C67.6997 54.1013 68.2175 54.1013 68.6059 53.9719Z" fill="#EAC083"/>
<path d="M40.6439 55.0084C41.5501 55.0084 42.4562 55.0084 43.2329 54.6202C43.6213 54.4908 43.7507 53.8437 43.4918 53.5849C43.2329 53.1966 42.8446 53.0672 42.4562 53.3261C41.9384 53.5849 41.1617 53.5849 40.6439 53.5849C39.6083 53.4555 39.6083 55.0084 40.6439 55.0084Z" fill="#EAC083"/>
<path d="M19.8031 70.0188C20.3209 69.76 20.8387 69.76 21.3566 69.76C22.3922 69.76 22.3922 68.207 21.3566 68.207C20.5798 68.207 19.8031 68.3364 19.0264 68.5953C18.6381 68.7247 18.5086 69.3717 18.7675 69.6306C19.0264 70.1482 19.4148 70.2776 19.8031 70.0188Z" fill="#EAC083"/>
<path d="M34.3001 72.091C34.5591 72.091 34.818 71.9616 35.0769 71.9616C35.2063 71.9616 35.3358 71.8322 35.4652 71.8322H35.5947C35.7241 71.8322 35.4652 71.8322 35.5947 71.8322C35.983 71.8322 36.3714 71.444 36.3714 71.0558C36.3714 70.6675 35.983 70.2793 35.5947 70.2793C35.3358 70.2793 35.0769 70.4087 34.818 70.4087C34.6885 70.4087 34.5591 70.5381 34.4296 70.5381H34.3001C34.1707 70.5381 34.4296 70.5381 34.3001 70.5381C33.9118 70.5381 33.5234 70.9263 33.5234 71.3146C33.5234 71.7028 33.9118 72.091 34.3001 72.091Z" fill="#EAC083"/>
<path d="M14.3646 83.2194C15.1413 83.2194 15.6591 83.0899 16.3064 82.8311C16.6947 82.7017 16.8242 82.0546 16.5653 81.7958C16.3064 81.4076 15.918 81.2782 15.5297 81.537C15.1413 81.7958 14.8824 81.7958 14.3646 81.7958C13.329 81.537 13.329 83.2194 14.3646 83.2194Z" fill="#EAC083"/>
<path d="M110.937 94.6076C111.455 94.6076 111.972 94.6076 112.49 94.6076C113.526 94.6076 113.526 93.0547 112.49 93.0547C111.972 93.0547 111.455 93.0547 110.937 93.0547C109.901 93.0547 109.901 94.6076 110.937 94.6076Z" fill="#EAC083"/>
<path d="M138.64 95.1242C139.546 95.383 140.453 95.5124 141.359 95.5124C142.394 95.5124 142.394 93.9595 141.359 93.9595C140.582 93.9595 139.805 93.9595 139.029 93.7006C138.123 93.3124 137.605 94.8653 138.64 95.1242Z" fill="#EAC083"/>
<path d="M143.947 78.689C144.723 78.689 145.5 78.689 146.147 78.1713C146.406 77.9125 146.406 77.3949 146.147 77.0066C145.888 76.7478 145.371 76.7478 144.982 77.0066C145.112 76.8772 144.853 77.0066 144.982 77.0066C144.853 77.0066 144.723 77.0066 144.723 77.0066C144.464 77.0066 144.206 77.0066 143.947 77.0066C142.911 77.136 142.911 78.689 143.947 78.689Z" fill="#EAC083"/>
<path d="M167.507 79.9836C168.413 79.7248 169.189 79.7248 170.096 79.7248C171.131 79.7248 171.131 78.1719 170.096 78.1719C169.06 78.1719 168.024 78.1719 166.989 78.5601C166.212 78.6895 166.6 80.2425 167.507 79.9836Z" fill="#EAC083"/>
<path d="M158.445 68.5959C158.962 68.5959 159.48 68.5959 159.998 68.5959C161.034 68.5959 161.034 67.043 159.998 67.043C159.48 67.043 158.962 67.043 158.445 67.043C157.409 67.043 157.409 68.5959 158.445 68.5959Z" fill="#EAC083"/>
<path d="M159.999 60.7019C160.128 60.7019 160.258 60.7019 160.387 60.7019C160.387 60.7019 160.776 60.7019 160.517 60.7019C160.517 60.7019 160.776 60.8313 160.646 60.7019H160.776C160.905 60.8313 160.646 60.5725 160.776 60.7019C161.034 60.9607 161.552 60.9607 161.941 60.7019C162.2 60.4431 162.2 59.9254 161.941 59.5372C161.423 59.0195 160.776 59.0195 160.128 59.0195C159.74 59.0195 159.352 59.4078 159.352 59.796C159.222 60.3137 159.61 60.7019 159.999 60.7019Z" fill="#EAC083"/>
<path d="M176.827 76.2307C177.734 76.2307 178.51 76.2307 179.417 76.2307C180.452 76.2307 180.452 74.6777 179.417 74.6777C178.51 74.6777 177.734 74.6777 176.827 74.6777C175.792 74.6777 175.792 76.2307 176.827 76.2307Z" fill="#EAC083"/>
<path d="M172.167 66.2668C172.814 66.008 173.591 66.008 174.238 66.008C175.274 66.008 175.274 64.4551 174.238 64.4551C173.203 64.4551 172.296 64.4551 171.261 64.8433C170.872 64.9727 170.743 65.6198 171.002 65.8786C171.39 66.3963 171.779 66.5257 172.167 66.2668Z" fill="#EAC083"/>
<path d="M13.7181 102.113C14.2359 102.113 14.7537 102.113 15.2715 102.113C16.3072 102.113 16.3072 100.561 15.2715 100.561C14.7537 100.561 14.2359 100.561 13.7181 100.561C12.6825 100.561 12.6825 102.113 13.7181 102.113Z" fill="#EAC083"/>
<path d="M36.5013 92.6675C37.278 92.6675 38.0547 92.6675 38.702 92.1499C38.9609 91.891 38.9609 91.3734 38.702 90.9851C38.4431 90.7263 37.9253 90.7263 37.5369 90.9851C37.6664 90.8557 37.4075 90.9851 37.5369 90.9851C37.4075 90.9851 37.278 90.9851 37.278 90.9851C37.0191 90.9851 36.7602 90.9851 36.5013 90.9851C35.4657 91.1145 35.4657 92.6675 36.5013 92.6675Z" fill="#EAC083"/>
<path d="M53.5892 78.6897C54.3659 78.6897 55.0132 78.6897 55.7899 78.6897C56.8255 78.6897 56.8255 77.1367 55.7899 77.1367C55.0132 77.1367 54.3659 77.1367 53.5892 77.1367C52.5536 77.1367 52.5536 78.6897 53.5892 78.6897Z" fill="#EAC083"/>
<path d="M67.181 63.1604C67.4399 63.1604 67.5694 63.1604 67.8283 63.1604C68.2166 63.1604 68.605 62.7721 68.605 62.3839C68.605 61.9957 68.2166 61.6074 67.8283 61.6074C67.5694 61.6074 67.4399 61.6074 67.181 61.6074C66.7927 61.6074 66.4043 61.9957 66.4043 62.3839C66.4043 62.9015 66.7927 63.1604 67.181 63.1604Z" fill="#EAC083"/>
<path d="M77.0209 46.7252C77.927 46.7252 78.8332 46.7252 79.6099 46.337C79.9982 46.2076 80.1277 45.5605 79.8688 45.3017C79.6099 44.9134 79.2215 44.784 78.8332 45.0429C78.3154 45.3017 77.5387 45.3017 77.0209 45.3017C75.9852 45.1723 75.9852 46.7252 77.0209 46.7252Z" fill="#EAC083"/>
<path d="M102.392 46.0783C102.78 46.0783 103.298 46.0783 103.686 46.0783C104.075 46.0783 104.463 45.6901 104.463 45.3019C104.463 44.9136 104.075 44.5254 103.686 44.5254C103.298 44.5254 102.78 44.5254 102.392 44.5254C102.004 44.5254 101.615 44.9136 101.615 45.3019C101.615 45.8195 102.004 46.0783 102.392 46.0783Z" fill="#EAC083"/>
<path d="M54.8841 115.832C55.2725 115.832 55.7903 115.832 56.1787 115.832C56.567 115.832 56.9554 115.444 56.9554 115.056C56.9554 114.668 56.567 114.279 56.1787 114.279C55.7903 114.279 55.2725 114.279 54.8841 114.279C54.4958 114.279 54.1074 114.668 54.1074 115.056C54.1074 115.444 54.4958 115.832 54.8841 115.832Z" fill="#EAC083"/>
<path d="M110.677 121.137C110.807 121.137 110.936 121.137 110.936 121.137C111.324 121.137 111.713 120.749 111.713 120.36C111.713 119.972 111.324 119.584 110.936 119.584C110.807 119.584 110.677 119.584 110.677 119.584C110.289 119.584 109.9 119.972 109.9 120.36C109.9 120.878 110.159 121.137 110.677 121.137Z" fill="#EAC083"/>
<path d="M142.135 104.96C142.653 104.701 143.171 104.701 143.689 104.701C144.724 104.701 144.724 103.148 143.689 103.148C142.912 103.148 142.135 103.278 141.358 103.537C140.97 103.666 140.841 104.313 141.1 104.572C141.229 105.09 141.747 105.09 142.135 104.96Z" fill="#EAC083"/>
<path d="M153.138 115.444C153.267 115.444 153.397 115.444 153.397 115.444C153.785 115.444 154.173 115.055 154.173 114.667C154.173 114.279 153.785 113.891 153.397 113.891C153.267 113.891 153.138 113.891 153.138 113.891C152.749 113.891 152.361 114.279 152.361 114.667C152.232 115.055 152.62 115.444 153.138 115.444Z" fill="#EAC083"/>
<path d="M178.252 91.2438C178.9 90.985 179.547 90.8556 180.194 90.5967C180.582 90.4673 180.712 89.8203 180.453 89.5615C180.194 89.1732 179.806 89.0438 179.417 89.3026C178.77 89.5614 178.123 89.6909 177.476 89.9497C177.087 90.0791 176.958 90.7262 177.217 90.985C177.346 91.3732 177.864 91.5026 178.252 91.2438Z" fill="#EAC083"/>
<path d="M194.046 104.055C194.046 102.761 194.046 100.172 193.787 97.0664C192.492 99.7841 191.586 103.278 191.327 104.831C190.55 110.008 187.702 114.149 184.984 118.549C182.654 122.431 177.217 126.313 173.204 128.513C167.378 131.749 160.517 134.725 154.045 136.149C140.452 138.996 127.248 139.125 113.138 139.772C98.7688 140.419 83.7524 140.031 69.5127 138.608C61.4866 137.831 53.3311 136.408 45.6935 133.819C38.3147 131.361 30.0298 131.49 23.6866 127.09C18.5085 123.466 11.9065 122.172 8.15238 116.866C7.37566 115.702 4.91607 110.913 2.58594 107.808C2.71539 109.619 2.84484 111.172 3.2332 112.337C5.43388 119.066 11.777 145.466 97.3448 146.113C195.211 146.89 194.046 109.361 194.046 104.055Z" fill="#E89736"/>
<path d="M1.16148 94.6078C1.16148 94.6078 10.0937 128.902 99.0272 129.42C187.443 129.937 195.857 93.4431 195.857 93.4431C195.857 93.4431 196.764 79.2078 195.987 73.2548C193.916 55.5254 179.417 19.8078 97.6033 19.4195C22.3916 19.0313 4.65668 50.7372 0.902575 70.149C-0.650849 78.5607 1.16148 94.6078 1.16148 94.6078Z" fill="#E89736"/>
<path d="M159.223 42.1959C159.093 42.7135 161.164 44.3959 162.071 44.5253C163.236 44.7841 166.213 44.1371 166.084 43.49C165.954 42.7135 164.401 41.29 163.236 41.0312C162.071 40.7723 159.482 41.0312 159.223 42.1959Z" fill="#EAE8A9"/>
<path d="M11.647 100.56C12.4237 104.443 22.9093 110.007 30.6765 114.149C38.4436 118.29 66.923 125.666 70.6771 124.76C77.2792 123.337 75.8552 107.807 72.6189 101.466C69.771 96.1604 56.308 80.7604 45.3045 78.8192C34.3011 76.878 14.236 74.031 12.1648 79.078C9.96413 84.1251 10.223 93.5721 11.647 100.56Z" fill="#E89E46"/>
<path d="M195.598 72.3492C193.009 54.2315 177.734 19.808 97.3439 19.4198C24.4624 19.0315 5.95074 48.9256 1.41992 68.3374C1.93773 69.5021 2.06718 70.408 2.58499 71.055C5.17403 74.808 8.02198 78.0433 12.1644 79.855C20.3199 83.608 30.0288 80.1139 38.1843 84.255C46.5987 88.5256 52.2946 96.6786 60.9679 101.208C72.4891 107.161 84.5281 106.902 96.4377 101.726C107.571 96.9374 117.538 96.6786 129.189 99.008C139.286 100.949 153.267 101.855 162.07 94.608C165.177 92.0197 165.695 87.6197 168.413 84.6433C171.39 81.408 175.921 79.855 180.064 78.8197C186.536 77.008 191.973 76.2315 195.598 72.3492Z" fill="#F4A134"/>
<path d="M45.0466 64.8437C45.435 65.1025 47.7651 64.0672 48.4124 63.4201C49.1891 62.5143 50.0953 59.5378 49.3186 59.279C48.6713 59.0202 46.6001 59.7966 45.8234 60.7025C45.0466 61.479 44.1405 64.0672 45.0466 64.8437Z" fill="#EAE8A9"/>
<path d="M32.7482 49.9609C33.1366 50.2197 35.4667 49.1844 36.114 48.5373C36.8907 47.6315 37.7969 44.655 37.0201 44.3962C36.3729 44.1373 34.3016 44.9138 33.5249 45.8197C32.8777 46.7256 31.842 49.1844 32.7482 49.9609Z" fill="#EAE8A9"/>
<path d="M80.127 36.3725C80.127 36.8902 82.3276 38.3137 83.2338 38.3137C84.3989 38.4431 87.2468 37.4078 87.1174 36.7607C86.8585 35.9843 85.1756 34.8196 84.0105 34.6902C82.8454 34.5607 80.2564 35.2078 80.127 36.3725Z" fill="#EAE8A9"/>
<path d="M59.8042 31.5841C59.4158 31.9723 60.1925 34.5606 60.7103 35.2076C61.4871 36.1135 64.2055 37.4076 64.5939 36.7606C64.9823 36.1135 64.4645 33.9135 63.6877 33.0076C62.911 32.2311 60.7103 30.8076 59.8042 31.5841Z" fill="#EAE8A9"/>
<path d="M81.0341 23.3028C80.9046 22.7852 78.3156 22.6557 77.4094 22.9146C76.2444 23.3028 74.1731 25.5028 74.691 26.1499C75.2088 26.6675 77.28 27.0557 78.4451 26.5381C79.4807 26.1499 81.4225 24.3381 81.0341 23.3028Z" fill="#EAE8A9"/>
<path d="M71.1948 51.3843C70.9359 51.7725 72.6188 53.9725 73.3955 54.3607C74.4311 55.0078 77.5379 55.1372 77.5379 54.3607C77.6674 53.5842 76.3729 51.7725 75.3372 51.2548C74.4311 50.6078 71.842 50.2195 71.1948 51.3843Z" fill="#EAE8A9"/>
<path d="M44.3978 30.29C44.5272 30.8076 46.9868 31.5841 47.893 31.4547C49.058 31.3253 51.6471 29.6429 51.2587 28.9959C50.8704 28.3488 48.9286 27.5724 47.7635 27.7018C46.5984 27.8312 44.2683 28.9959 44.3978 30.29Z" fill="#EAE8A9"/>
<path d="M120.388 27.1852C120.647 26.797 119.352 24.4675 118.575 23.9499C117.54 23.3028 114.562 22.7852 114.433 23.5617C114.303 24.3381 115.339 26.2793 116.245 26.9264C117.151 27.5734 119.74 28.2205 120.388 27.1852Z" fill="#EAE8A9"/>
<path d="M94.2368 26.5377C93.9779 26.9259 95.2724 29.2553 96.0491 29.773C97.0847 30.5494 100.062 31.0671 100.192 30.2906C100.321 29.5141 99.4149 27.573 98.3793 26.9259C97.4731 26.2789 94.8841 25.5024 94.2368 26.5377Z" fill="#EAE8A9"/>
<path d="M149.903 67.1727C150.291 66.9138 150.291 64.1962 149.903 63.4197C149.385 62.255 147.055 60.3138 146.537 60.9609C146.019 61.4785 146.019 63.6785 146.537 64.8432C147.055 65.8785 148.867 67.8197 149.903 67.1727Z" fill="#EAE8A9"/>
<path d="M99.156 46.5956C99.5444 46.8545 101.875 45.8192 102.522 45.1721C103.299 44.2662 104.205 41.2898 103.428 41.0309C102.781 40.7721 100.709 41.5486 99.9327 42.4545C99.156 43.3604 98.2499 45.8192 99.156 46.5956Z" fill="#EAE8A9"/>
<path d="M90.2244 70.0195C90.6127 70.2783 92.9429 69.243 93.5901 68.5959C94.3668 67.6901 95.273 64.7136 94.4963 64.4548C93.849 64.1959 91.7778 64.9724 91.0011 65.8783C90.2244 66.7842 89.3182 69.243 90.2244 70.0195Z" fill="#EAE8A9"/>
<path d="M127.507 43.6188C127.766 43.2306 126.342 40.9011 125.694 40.3835C124.659 39.7364 121.681 39.2188 121.552 39.9953C121.423 40.7717 122.458 42.7129 123.364 43.36C124.271 44.007 126.86 44.6541 127.507 43.6188Z" fill="#EAE8A9"/>
<path d="M126.6 59.2783C126.47 58.7606 123.881 58.3724 122.975 58.6312C121.81 59.0194 119.48 60.9606 119.998 61.6077C120.516 62.2547 122.587 62.643 123.752 62.3841C124.788 61.9959 126.859 60.443 126.6 59.2783Z" fill="#EAE8A9"/>
<path d="M147.961 32.2313C148.22 31.7136 146.407 29.7724 145.631 29.3842C144.595 28.8666 141.488 28.8666 141.488 29.643C141.488 30.4195 142.783 32.1019 143.818 32.6195C144.854 33.1372 147.443 33.396 147.961 32.2313Z" fill="#EAE8A9"/>
<path opacity="0.2" d="M93.0729 33.137C89.0599 31.7134 84.9174 30.6781 80.6455 30.4193C75.9852 30.1605 71.3249 31.7134 67.053 32.6193C58.2503 34.5605 49.3181 38.7017 40.6448 41.937C33.7838 44.5252 26.5345 47.3723 21.4859 53.3252C20.3208 54.6193 19.5441 56.1723 18.7674 57.4664V59.4076C17.0845 64.4546 20.7092 65.8781 24.8516 67.8193C27.4407 68.984 30.0297 69.1134 32.6188 69.7605C35.7256 70.537 38.8325 71.9605 41.8099 73.1252C47.2468 75.3252 51.5188 78.8193 56.5674 81.6664C59.9331 83.6076 64.0756 86.0664 67.8297 86.1958C78.9626 86.4546 78.7037 71.9605 83.6229 64.8428C86.0825 61.3487 89.4482 57.984 93.0729 55.5252C96.9564 52.937 102.264 50.8664 105.241 47.2429C111.067 40.5134 97.7331 34.8193 93.0729 33.137Z" fill="#FFC050"/>
</svg>
