<svg width="243" height="55" viewBox="0 0 243 55" fill="none" xmlns="http://www.w3.org/2000/svg">
<rect y="2.00977" width="241.016" height="52" rx="5" fill="#3E3382"/>
<g clip-path="url(#clip0)">
<path d="M67.5357 40.3836C65.837 40.4298 63.9595 40.2912 62.6184 39.4594C61.0091 38.4427 60.6068 36.6867 60.3833 34.8844C60.2492 33.7753 60.428 32.62 61.0985 31.7882C62.2161 30.2632 64.3171 30.1246 65.9264 29.4776C67.8486 28.692 69.3685 27.5829 70.4413 25.7344C71.6036 23.8397 73.2129 19.542 76.1185 20.9746C76.9232 21.3905 77.549 22.1299 78.0407 22.8693C80.5441 26.52 81.2146 31.1412 78.2196 34.7458C75.3139 38.2117 71.9165 40.2912 67.5357 40.3836Z" fill="#E5A80E"/>
<path d="M66.9071 38.536C65.3425 38.5822 63.6438 38.4898 62.3921 37.7504C60.9169 36.8724 60.5146 35.3012 60.3358 33.73C60.2464 32.7595 60.3805 31.7428 60.9616 31.0035C61.9898 29.6633 63.912 29.5247 65.3872 28.9701C67.1306 28.2769 68.5163 27.3065 69.5445 25.6891C70.5727 24.0254 72.0925 20.236 74.73 21.53C75.4899 21.8997 76.0263 22.5467 76.5181 23.1936C78.8426 26.3823 79.4684 30.4951 76.6969 33.6375C74.0594 36.6413 70.9303 38.4898 66.9071 38.536Z" fill="#F7C128"/>
<path d="M63.5118 32.0213C62.126 33.0842 60.5167 34.0546 58.9522 34.1932C57.0747 34.3319 55.7783 33.1304 54.5713 31.744C53.8561 30.9122 53.3644 29.8493 53.4091 28.7864C53.4985 26.8455 55.1525 25.5054 56.0912 24.0266C57.2535 22.2706 57.8793 20.4683 57.7452 18.2963C57.6111 16.0319 56.5829 11.5956 59.7568 11.041C60.6508 10.9024 61.5449 11.1335 62.3942 11.457C66.4622 12.9819 69.5913 16.4016 69.0996 21.069C68.6973 25.644 67.088 29.3872 63.5118 32.0213Z" fill="#F2B316"/>
<path d="M63.2436 32.2063C61.9472 33.223 60.3826 34.1934 58.8628 34.2397C57.03 34.3321 55.7336 33.1306 54.5713 31.7442C53.8561 30.9124 53.3644 29.8495 53.4091 28.7866C53.4538 26.8919 55.0184 25.598 55.9124 24.1192C56.9853 22.4094 57.5664 20.6071 57.4323 18.4814C57.2535 16.2632 56.1806 11.8268 59.2651 11.3647C60.1144 11.2261 61.0085 11.5034 61.8131 11.8268C65.7916 13.398 68.9208 16.8177 68.5185 21.4389C68.2056 26.0139 66.6857 29.6647 63.2436 32.2063Z" fill="#F7C128"/>
<path d="M19.8806 30.7708C19.2548 29.1071 18.7631 27.2587 19.1207 25.6412C19.523 23.7466 20.9982 22.7761 22.5628 21.9443C23.5015 21.4822 24.6191 21.2511 25.6473 21.6208C27.3906 22.2216 28.24 24.2087 29.3576 25.595C30.6986 27.2125 32.2185 28.3215 34.2301 28.7837C36.3311 29.292 40.8014 29.4768 40.4438 32.7579C40.3544 33.6821 39.8626 34.5139 39.3709 35.2533C36.8676 38.9041 32.8443 41.076 28.5976 39.32C24.3956 37.6564 21.3558 35.0685 19.8806 30.7708Z" fill="#F2B316"/>
<path d="M20.9973 30.404C20.3714 28.7404 19.8797 26.8919 20.1926 25.3207C20.5502 23.426 21.8913 22.5017 23.4112 21.7161C24.3052 21.254 25.3781 21.0692 26.3169 21.4389C27.9708 22.0858 28.8202 24.0729 29.893 25.4593C31.1894 27.0767 32.6199 28.232 34.5868 28.7404C36.5984 29.2487 40.8004 29.526 40.5322 32.807C40.4428 33.7313 40.0405 34.5169 39.5488 35.2562C37.2242 38.8608 33.4692 40.9403 29.446 39.0918C25.3781 37.3358 22.4724 34.6555 20.9973 30.404Z" fill="#F7C128"/>
<path d="M32.9763 24.0266C32.3505 22.363 31.8588 20.5145 32.2164 18.8971C32.6187 17.0024 34.0939 16.032 35.6585 15.2001C36.5972 14.738 37.7148 14.507 38.743 14.8767C40.4864 15.4774 41.3357 17.4645 42.4533 18.8509C43.7943 20.4683 45.3142 21.5774 47.3258 22.0395C49.4268 22.5479 53.8971 22.7327 53.5395 26.0137C53.4501 26.938 52.9583 27.7698 52.4666 28.5092C49.9633 32.1599 45.9401 34.3319 41.6933 32.5759C37.4913 30.9122 34.4515 28.2781 32.9763 24.0266Z" fill="#EAAA0A"/>
<path d="M34.4984 23.471C33.8726 21.8073 33.3809 19.9589 33.6491 18.3877C33.962 16.5392 35.3031 15.5687 36.7336 14.8293C37.5829 14.3672 38.6558 14.2286 39.5945 14.5983C41.2485 15.2452 42.0532 17.2324 43.126 18.6187C44.4224 20.2361 45.8082 21.3914 47.7304 21.946C49.6973 22.5005 53.8099 22.7778 53.5417 26.0589C53.4523 26.9831 53.0499 27.7687 52.6029 28.5081C50.3678 32.0664 46.7022 34.0997 42.7237 32.2513C38.8346 30.449 35.9736 27.7687 34.4984 23.471Z" fill="#F7C128"/>
<path d="M53.2735 36.7358C52.2007 38.076 50.8596 39.4623 49.3397 39.9244C47.5516 40.479 45.987 39.6472 44.5565 38.6305C43.7072 37.9835 42.9472 37.1055 42.7684 36.0426C42.4108 34.1479 43.7072 32.4381 44.2883 30.7745C45.0036 28.7873 45.1824 26.8464 44.6012 24.8131C43.9754 22.6411 41.9638 18.5745 44.9142 17.2806C45.7188 16.9109 46.6575 16.9571 47.5516 17.0495C51.8877 17.5116 55.6874 20.0995 56.2686 24.7669C56.8944 29.2957 56.1792 33.3161 53.2735 36.7358Z" fill="#E2C205"/>
<path d="M52.8711 37.2426C51.8876 38.4903 50.636 39.738 49.2055 40.1077C47.5068 40.5698 45.9869 39.6918 44.5564 38.6289C43.7071 37.982 42.9472 37.1039 42.7236 36.0873C42.3213 34.285 43.4836 32.7138 43.9753 31.1426C44.5564 29.2941 44.6905 27.4919 44.02 25.4585C43.3048 23.379 41.2038 19.4048 44.02 18.2957C44.78 17.9722 45.674 18.0646 46.568 18.2033C50.7254 18.8502 54.4804 21.4381 55.285 25.9207C56.0003 30.3108 55.4638 34.1002 52.8711 37.2426Z" fill="#F8D800"/>
<path d="M57.9657 21.9921C59.8879 20.7443 61.8995 19.4966 64.1346 19.0807C66.3698 18.6186 68.9178 19.1731 70.393 20.9754C71.8682 22.8239 71.7788 25.6428 70.7506 27.7686C69.7224 29.8943 67.8449 31.4655 65.878 32.8057C63.9111 34.0996 61.7207 35.2087 59.3962 35.3935C57.0717 35.5784 54.5236 34.6541 53.2273 32.667C51.8862 30.5875 52.1544 27.6761 53.5402 25.6428C54.9259 23.6095 56.4011 22.408 58.1445 21.8996" fill="#F4CE11"/>
<path d="M57.9225 21.8093C59.8894 20.7002 61.901 19.5449 64.1361 19.0366C66.3713 18.5745 68.8746 18.9442 70.2604 20.423C71.6461 21.9479 71.4673 24.351 70.3498 26.2457C69.2322 28.0941 67.31 29.5267 65.3431 30.7282C63.3315 31.9297 61.1411 32.9464 58.8166 33.2237C56.492 33.4547 54.0334 32.8078 52.8264 31.0979C51.5748 29.3419 51.9324 26.8464 53.4076 25.0442C54.8828 23.2419 56.3579 22.179 58.1013 21.6707" fill="#FFE133"/>
<path d="M47.5517 28.0936C49.4739 26.8459 51.4855 25.5982 53.7206 25.1823C55.9557 24.7202 58.5038 25.2747 59.9789 27.077C61.4541 28.9254 61.3647 31.7444 60.3366 33.8701C59.3084 35.9959 57.4309 37.5671 55.464 38.9072C53.4971 40.2012 51.3067 41.3103 48.9821 41.4951C46.6576 41.68 44.1096 40.7557 42.8132 38.7686C41.4721 36.6891 41.7403 33.7777 43.1261 31.7444C44.5119 29.711 45.9871 28.5095 47.7305 28.0012" fill="#EDAE0F"/>
<path d="M46.4348 28.3699C48.044 27.2146 49.7427 26.0593 51.665 25.6896C53.5872 25.3199 55.7776 25.9669 57.1186 27.8153C58.4597 29.71 58.4597 32.4827 57.6551 34.5623C56.8504 36.6418 55.2858 38.1206 53.6766 39.3221C52.0226 40.5698 50.1898 41.5865 48.1782 41.6327C46.1666 41.7251 43.9761 40.7085 42.7692 38.6752C41.5622 36.5494 41.6516 33.6843 42.8139 31.6971C43.9314 29.7562 45.1831 28.6009 46.6583 28.185" fill="#F7C128"/>
<path d="M39.0128 36.6883C37.0906 35.4406 35.079 34.1929 33.6933 32.2982C32.3075 30.4497 31.5922 27.8156 32.531 25.6899C33.4697 23.5179 35.9284 22.3164 38.2082 22.3164C40.5327 22.3164 42.7232 23.3331 44.7348 24.5346C46.7464 25.7361 48.7133 27.2611 49.9202 29.3406C51.1272 31.4202 51.4848 34.1467 50.3226 36.2724C49.1156 38.4444 46.4782 39.5535 44.1089 39.1838C41.7397 38.8141 40.041 37.9823 38.7893 36.5959" fill="#F4CE11"/>
<path d="M38.9244 36.7357C37.0469 35.4417 35.0799 34.1478 33.6942 32.2993C32.3084 30.4508 31.5037 27.9092 32.3084 25.8759C33.113 23.8425 35.3482 22.7797 37.5386 22.9183C39.729 23.0107 41.8747 24.0736 43.8416 25.3675C45.8085 26.6153 47.7307 28.1865 48.9824 30.2198C50.2341 32.2531 50.6811 34.8872 49.6976 36.8743C48.6695 38.9076 46.2109 39.8319 43.931 39.3698C41.6512 38.9076 39.9972 38.0296 38.7902 36.6432" fill="#FFE133"/>
<path d="M40.3085 28.5997C41.6496 28.5997 41.6496 26.4277 40.3085 26.4277C38.9675 26.4277 38.9675 28.5997 40.3085 28.5997Z" fill="#FFD576"/>
<path d="M43.2164 32.2981C45.0045 32.2981 45.0045 29.3867 43.2164 29.3867C41.3836 29.3867 41.3836 32.2981 43.2164 32.2981Z" fill="#FFD576"/>
<path d="M37.8059 31.4656C39.0576 31.4656 39.0576 29.4785 37.8059 29.4785C36.5543 29.4785 36.5543 31.4656 37.8059 31.4656Z" fill="#FFD576"/>
<path d="M27.3467 29.0638C27.4361 29.0638 27.4361 28.8789 27.3467 28.8789C27.2126 28.8789 27.2126 29.0638 27.3467 29.0638Z" fill="#FFD576"/>
<path d="M23.9937 26.799C24.1278 26.8915 24.2619 26.9839 24.396 27.0763C24.4407 27.1225 24.5301 27.1225 24.5748 27.1687C24.6642 27.2149 24.7983 27.2149 24.8877 27.1687C25.0665 27.1225 25.2453 27.0763 25.3347 26.9377C25.4242 26.8452 25.5136 26.7066 25.5583 26.568C25.603 26.4755 25.603 26.3369 25.5583 26.2445C25.5583 26.1521 25.5136 26.0134 25.4689 25.921C25.3794 25.7824 25.29 25.6437 25.2006 25.5051C25.0218 25.2278 24.7536 25.043 24.396 25.043C24.1725 25.043 23.9043 25.1354 23.7702 25.3202C23.5914 25.5051 23.502 25.7362 23.502 25.9672C23.5467 26.3369 23.7255 26.6142 23.9937 26.799Z" fill="#FFD576"/>
<path d="M26.9886 30.7258C27.2568 30.7258 27.2568 30.2637 26.9886 30.2637C26.6757 30.2637 26.6757 30.7258 26.9886 30.7258Z" fill="#FFD576"/>
<path d="M35.6165 19.4984C36.3764 19.4984 36.3764 18.2969 35.6165 18.2969C34.9013 18.3431 34.9013 19.4984 35.6165 19.4984Z" fill="#FFD576"/>
<path d="M38.5198 21.5326C39.9056 21.5326 39.9056 19.3145 38.5198 19.3145C37.134 19.3145 37.134 21.5326 38.5198 21.5326Z" fill="#FFD576"/>
<path d="M64.1357 26.7982C65.6109 26.7982 65.6109 24.4414 64.1357 24.4414C62.6605 24.4414 62.6605 26.7982 64.1357 26.7982Z" fill="#FFD576"/>
<path d="M67.7105 24.4888C69.5434 24.4888 69.5434 21.5312 67.7105 21.5312C65.8777 21.5312 65.8777 24.4888 67.7105 24.4888Z" fill="#FFD576"/>
<path d="M63.0172 15.5242C64.3583 15.5242 64.3583 13.3984 63.0172 13.3984C61.7208 13.3984 61.7208 15.5242 63.0172 15.5242Z" fill="#FFD576"/>
<path d="M74.2385 30.1724C76.1607 30.1724 76.1607 27.0762 74.2385 27.0762C72.3163 27.0762 72.3163 30.1724 74.2385 30.1724Z" fill="#FFD576"/>
<path d="M66.9969 34.4703C67.0863 34.4703 67.1757 34.5165 67.3098 34.5165C67.578 34.6089 67.8462 34.6089 68.0697 34.5165C68.338 34.4241 68.5168 34.3316 68.6956 34.1468C68.9638 33.8695 69.1426 33.4998 69.1426 33.0839C69.1426 32.8991 69.0979 32.668 69.0085 32.4832C68.9638 32.2983 68.8297 32.1135 68.6956 32.021C68.5168 31.8362 68.2933 31.6976 68.0697 31.6513C67.8015 31.5589 67.5333 31.5589 67.3098 31.6513C67.2204 31.6513 67.131 31.6976 66.9969 31.6976C66.9075 31.7438 66.7734 31.79 66.684 31.8362C66.5052 31.9286 66.3711 32.0673 66.2817 32.2059C66.1923 32.2983 66.1476 32.3907 66.1029 32.5294C66.0134 32.7142 65.9688 32.8991 65.9688 33.0839C65.9688 33.2226 66.0134 33.3612 66.0134 33.4536C66.0581 33.546 66.1029 33.6847 66.1476 33.7771C66.237 33.9619 66.3711 34.1006 66.5052 34.193C66.6393 34.3779 66.8181 34.4241 66.9969 34.4703Z" fill="#FFD576"/>
<path d="M55.8212 33.1303C57.2964 33.1303 57.2964 30.7734 55.8212 30.7734C54.346 30.8196 54.346 33.1303 55.8212 33.1303Z" fill="#FFD576"/>
<path d="M55.4654 29.5724C56.6277 29.5724 56.6277 27.6777 55.4654 27.6777C54.3032 27.6777 54.3032 29.5724 55.4654 29.5724Z" fill="#FFD576"/>
<path d="M20.6406 33.5449H82.0618C82.0618 33.5449 87.1131 60.579 52.5135 61.5956C52.5135 61.5494 22.6522 64.9229 20.6406 33.5449Z" fill="#EA5226"/>
<path d="M20.6406 33.5449H78.3068C78.3068 33.5449 83.0452 60.579 50.5466 61.5956C50.5913 61.5494 22.5181 64.9229 20.6406 33.5449Z" fill="#FF7F4D"/>
<path d="M25.8262 33.5449H78.3515C78.3515 33.5449 82.6877 60.579 53.0947 61.5956C53.05 61.5494 27.5249 64.9229 25.8262 33.5449Z" fill="#F75D39"/>
<path d="M34.4974 28.7404C35.0786 29.4336 35.6597 30.2654 35.7938 31.0972C35.9279 32.1139 35.3915 32.8533 34.7656 33.5465C34.3633 33.9624 33.8716 34.2858 33.2905 34.2858C32.307 34.3321 31.5471 33.5002 30.7424 33.0381C29.8037 32.4836 28.8649 32.2525 27.792 32.3911C26.6745 32.5298 24.4394 33.3154 24.037 31.6055C23.9029 31.1434 23.9923 30.6351 24.1264 30.173C24.7076 27.9086 26.3169 26.0601 28.7308 26.1063C31.0553 26.1987 33.0222 26.8919 34.4974 28.7404Z" fill="#F8D800"/>
<mask id="mask0" mask-type="alpha" maskUnits="userSpaceOnUse" x="0" y="7" width="45" height="47">
<rect y="7" width="45" height="47" rx="5" fill="#C4C4C4"/>
</mask>
<g mask="url(#mask0)">
</g>
</g>
<g clip-path="url(#clip1)">
<path d="M169.665 70.7957H174.471C176.974 70.756 177.689 67.3413 176.418 65.5148C174.908 63.4104 175.425 59.8369 175.345 58.8045C175.306 57.7722 176.458 49.9898 176.815 43.4384C177.292 34.9016 174.233 29.5413 173.399 27.9134C172.008 25.134 172.048 18.9001 172.048 17.5898H169.625H167.202C167.202 18.9398 167.241 25.134 165.851 27.9134C165.056 29.5413 161.997 34.9016 162.434 43.4384C162.792 49.9898 163.944 57.7722 163.904 58.8045C163.865 59.8369 164.341 63.4104 162.832 65.5148C161.56 67.3413 162.276 70.756 164.778 70.7957H169.665V70.7957Z" fill="#DDDDDD"/>
<path d="M176.418 65.5148C174.909 63.4104 175.425 59.8369 175.346 58.8045C175.306 57.7722 176.458 49.9898 176.815 43.4384C177.292 34.9016 174.233 29.5413 173.399 27.9134C172.009 25.134 172.048 18.9001 172.048 17.5898H169.625V70.8354H174.432C176.974 70.756 177.729 67.3413 176.418 65.5148Z" fill="#D1D1D1"/>
<path d="M171.81 17.6696H167.559C167.162 17.6696 166.844 17.352 166.844 16.9549C166.844 16.5579 167.162 16.2402 167.559 16.2402H171.81C172.207 16.2402 172.525 16.5579 172.525 16.9549C172.525 17.352 172.207 17.6696 171.81 17.6696Z" fill="#D1D1D1"/>
<path d="M169.664 17.6696H171.77C172.167 17.6696 172.485 17.352 172.485 16.9549C172.485 16.5579 172.167 16.2402 171.77 16.2402H169.664V17.6696Z" fill="#C1C1C1"/>
<path d="M169.585 44.8688H162.514C162.514 44.8688 162.236 41.8115 162.514 38.3968C162.792 34.9821 163.627 33.0762 163.627 33.0762H169.585H175.544C175.544 33.0762 176.339 34.9821 176.657 38.3968C176.935 41.8115 176.657 44.8688 176.657 44.8688H169.585Z" fill="#FF5B57"/>
<path d="M169.586 44.8688H176.657C176.657 44.8688 176.935 41.8115 176.657 38.3968C176.379 34.9821 175.545 33.0762 175.545 33.0762H169.586V44.8688Z" fill="#FF4C4C"/>
<path d="M163.865 45.9414C163.865 45.9414 164.659 54.3988 164.977 56.3443C165.295 58.2502 165.573 64.2061 164.342 65.6752C163.269 66.9855 163.309 69.5267 165.017 69.5267C166.725 69.5267 169.705 69.5267 169.705 69.5267V45.9414H163.865V45.9414Z" fill="#744F3C"/>
<path d="M174.988 65.5945C173.757 64.0857 174.114 58.2489 174.392 56.3033C174.71 54.3975 175.504 45.9004 175.504 45.9004H175.465H169.665H169.625V69.4857C169.625 69.4857 172.604 69.4857 174.313 69.4857C174.313 69.4857 174.313 69.4857 174.352 69.4857C176.061 69.5254 176.061 66.9048 174.988 65.5945Z" fill="#523428"/>
<path d="M167.996 23.8242C167.996 23.8242 167.718 26.961 167.003 28.1522C166.288 29.3433 165.176 32.1227 165.176 32.1227H169.625V23.8242H167.996Z" fill="#744F3C"/>
<path d="M172.326 28.1522C171.611 26.961 171.333 23.8242 171.333 23.8242H169.664V32.083H174.113C174.113 32.1227 173.041 29.3036 172.326 28.1522Z" fill="#523428"/>
<path d="M170.737 55.5485C171.197 55.5485 171.571 55.1752 171.571 54.7147C171.571 54.2542 171.197 53.8809 170.737 53.8809C170.276 53.8809 169.902 54.2542 169.902 54.7147C169.902 55.1752 170.276 55.5485 170.737 55.5485Z" fill="#DDDDDD"/>
<path d="M164.144 28.5893C164.144 28.3511 164.74 27.5173 164.74 27.0011C164.74 21.6805 161.998 17.1937 159.098 15.0496C156.437 13.104 156.516 9.09375 156.516 9.09375H150.319C150.319 9.09375 150.319 13.2629 147.737 15.0496C144.797 17.154 142.096 21.6805 142.096 27.0011C142.096 27.5173 142.692 28.3114 142.692 28.5893C142.692 32.2423 142.692 42.1687 142.692 51.9364C142.692 52.4526 142.096 52.9687 142.096 53.4849C142.096 62.2202 142.096 69.7246 142.096 69.7246C142.096 69.7246 143.129 74.7275 146.744 74.7275C149.127 74.7275 149.922 72.9011 149.922 72.9011C149.922 72.9011 150.637 74.807 153.457 74.807C156.278 74.807 156.993 72.9011 156.993 72.9011C156.993 72.9011 157.787 74.7275 160.171 74.7275C163.786 74.7275 164.819 69.7246 164.819 69.7246C164.819 69.7246 164.819 62.2202 164.819 53.4849C164.819 52.9687 164.223 52.4526 164.223 51.9364C164.144 42.1687 164.144 32.2423 164.144 28.5893Z" fill="#DDDDDD"/>
<path d="M164.144 28.5893C164.144 28.3511 164.74 27.5173 164.74 27.0011C164.74 21.6805 161.999 17.1937 159.099 15.0496C156.437 13.104 156.517 9.09375 156.517 9.09375H153.299V74.7673C156.08 74.7673 156.914 72.8614 156.914 72.8614C156.914 72.8614 157.708 74.6878 160.092 74.6878C163.707 74.6878 164.74 69.6849 164.74 69.6849C164.74 69.6849 164.74 62.1805 164.74 53.4452C164.74 52.929 164.144 52.4128 164.144 51.8967C164.144 42.1687 164.144 32.2423 164.144 28.5893Z" fill="#D1D1D1"/>
<path d="M164.143 29.0664H142.691V51.3017H164.143V29.0664Z" fill="#FF5B57"/>
<path d="M164.144 29.0664H153.299V51.3017H164.144V29.0664Z" fill="#FF4C4C"/>
<path d="M153.417 28.0738H162.832C162.832 27.9149 163.428 27.2002 163.428 26.6046C163.428 26.0091 163.667 24.6194 162.356 21.2443C161.045 17.8693 159.098 16.6782 158.741 16.2811C158.383 15.8841 157.072 15.3282 156.317 13.4223C155.96 12.5488 155.96 12.1914 155.96 12.1914H153.417H150.875C150.875 12.1914 150.915 12.5091 150.517 13.4223C149.763 15.3282 148.452 15.8841 148.094 16.2811C147.737 16.6782 145.711 17.9488 144.439 21.2841C143.168 24.6193 143.367 26.0488 143.367 26.6444C143.367 27.2399 143.963 27.9546 143.963 28.1135H153.417V28.0738Z" fill="#744F3C"/>
<path d="M153.418 28.0738H162.833C162.833 27.9149 163.429 27.2002 163.429 26.6046C163.429 26.0091 163.667 24.6193 162.356 21.2443C161.045 17.8693 159.099 16.6782 158.741 16.2811C158.384 15.8841 157.073 15.3282 156.318 13.4223C155.96 12.5488 155.96 12.1914 155.96 12.1914H153.418V28.0738Z" fill="#523428"/>
<path d="M156.237 10.4846H150.517C149.841 10.4846 149.285 9.9287 149.285 9.2537V6.03752C149.285 5.36252 149.841 4.80664 150.517 4.80664H156.237C156.913 4.80664 157.469 5.36252 157.469 6.03752V9.2537C157.469 9.9287 156.913 10.4846 156.237 10.4846Z" fill="#FF5B57"/>
<path d="M156.913 11.3579H149.841C149.524 11.3579 149.285 11.1196 149.285 10.802C149.285 10.4843 149.524 10.2461 149.841 10.2461H156.913C157.23 10.2461 157.469 10.4843 157.469 10.802C157.469 11.0799 157.23 11.3579 156.913 11.3579Z" fill="#FF5B57"/>
<path d="M153.379 10.4833H156.517C157.034 10.4833 157.471 10.0465 157.471 9.53033V5.71857C157.471 5.20239 157.034 4.76562 156.517 4.76562H153.379V10.4833Z" fill="#FF4C4C"/>
<path d="M153.379 11.3579H156.994C157.272 11.3579 157.471 11.1593 157.471 10.8814V10.7226C157.471 10.4446 157.272 10.2461 156.994 10.2461H153.379V11.3579Z" fill="#FF4C4C"/>
<path d="M144.003 52.4531C144.003 52.8502 143.248 53.8031 143.248 54.2002V69.5663C143.248 69.5663 144.519 73.7355 146.784 73.7355C149.048 73.7355 150.041 71.3134 150.041 71.3134C150.041 71.3134 151.114 73.7355 153.378 73.7355V52.4531H144.003Z" fill="#744F3C"/>
<path d="M162.833 52.4531H153.418V73.7355C155.722 73.7355 156.755 71.3134 156.755 71.3134C156.755 71.3134 157.748 73.7355 160.012 73.7355C162.277 73.7355 163.548 69.5664 163.548 69.5664V54.2002C163.588 53.8031 162.833 52.8502 162.833 52.4531Z" fill="#523428"/>
<path d="M159.853 53.8032C159.853 54.2797 159.456 54.6767 158.979 54.6767C158.503 54.6767 158.105 54.2797 158.105 53.8032C158.105 53.3267 158.503 52.9297 158.979 52.9297C159.456 52.9297 159.853 53.3267 159.853 53.8032Z" fill="#DDDDDD"/>
<path d="M205.101 32.5605H194.097C193.7 32.5605 192.746 34.1885 192.746 34.5855V35.9355V63.4914V64.9208V64.9606C192.746 65.5164 193.62 67.1444 194.097 67.1444H205.101C205.498 67.1444 206.452 65.3973 206.452 64.9606V64.9208V63.4914V35.9355V34.5855C206.452 34.0694 205.578 32.5605 205.101 32.5605Z" fill="#DDDDDD"/>
<path d="M199.578 67.1047H205.1C205.497 67.1047 206.451 65.3576 206.451 64.9208V64.8811V63.4517V35.9355V34.5855C206.451 34.0694 205.577 32.5605 205.1 32.5605H199.578V67.1047Z" fill="#D1D1D1"/>
<path d="M204.824 32.6795H194.336C194.018 32.6795 193.74 32.4015 193.74 32.0839C193.74 31.7662 194.018 31.4883 194.336 31.4883H204.824C205.142 31.4883 205.42 31.7662 205.42 32.0839C205.42 32.4412 205.181 32.6795 204.824 32.6795Z" fill="#D1D1D1"/>
<path d="M199.578 32.6795H204.822C205.14 32.6795 205.418 32.4015 205.418 32.0839C205.418 31.7662 205.14 31.4883 204.822 31.4883H199.578V32.6795Z" fill="#C1C1C1"/>
<path d="M206.452 34.9043H192.746V64.6837H206.452V34.9043Z" fill="#FF5B57"/>
<path d="M206.451 34.9043H199.578V64.6837H206.451V34.9043Z" fill="#FF4C4C"/>
<path d="M227.507 66.7073H213.205L212.014 34.1484H228.699L227.507 66.7073Z" fill="#744F3C"/>
<path d="M228.658 67.8982H212.052L210.781 32.957H229.929L228.658 67.8982ZM214.357 65.5159H226.354L227.466 35.3394H213.244L214.357 65.5159Z" fill="#DDDDDD"/>
<path d="M227.507 66.7073H213.205L212.014 34.1484H228.699L227.507 66.7073Z" fill="#744F3C"/>
<path d="M220.355 66.7073H227.506L228.698 34.1484H220.355V66.7073Z" fill="#523428"/>
<path d="M225.203 53.3663C225.203 54.081 224.646 54.6369 223.931 54.6369C223.216 54.6369 222.66 54.081 222.66 53.3663C222.66 52.6516 223.216 52.0957 223.931 52.0957C224.646 52.0957 225.203 52.6516 225.203 53.3663Z" fill="#DDDDDD"/>
<path d="M222.661 47.0525C222.661 47.7672 222.065 48.3628 221.35 48.3628C220.635 48.3628 220.039 47.7672 220.039 47.0525C220.039 46.3378 220.635 45.7422 221.35 45.7422C222.065 45.7819 222.661 46.3378 222.661 47.0525Z" fill="#DDDDDD"/>
<path d="M224.646 42.5649C224.646 43.0414 224.249 43.4385 223.772 43.4385C223.296 43.4385 222.898 43.0414 222.898 42.5649C222.898 42.0885 223.296 41.6914 223.772 41.6914C224.249 41.6914 224.646 42.0885 224.646 42.5649Z" fill="#DDDDDD"/>
</g>
<path d="M129.602 29.5663V26.4063H122.442V18.6063H118.962V26.4063H111.762V29.5663H118.962V37.6863H122.442V29.5663H129.602Z" fill="white"/>
<defs>
<clipPath id="clip0">
<rect width="108" height="52" fill="white" transform="translate(1 2)"/>
</clipPath>
<clipPath id="clip1">
<rect width="116" height="54" fill="white" transform="translate(127)"/>
</clipPath>
</defs>
</svg>
