<svg width="242" height="52" viewBox="0 0 242 52" fill="none" xmlns="http://www.w3.org/2000/svg">
<rect width="241.016" height="52" rx="5" fill="#3E3382"/>
<g clip-path="url(#clip0)">
<path d="M221.324 26.0369C220.599 24.7776 218.004 24.4723 217.699 23.8236C217.394 23.1749 217.699 21.6484 217.699 21.6484H211.021H210.372H203.694C203.694 21.6484 203.999 23.1367 203.694 23.8236C203.389 24.4723 200.794 24.8158 200.069 26.0369C199.344 27.2962 198.924 49.3911 199.687 50.8794C200.45 52.3294 203.465 53.0927 204.915 53.3216C206.06 53.4743 209.075 53.5506 210.41 53.5506C210.41 53.5506 210.525 53.5506 210.754 53.5506C210.944 53.5506 211.097 53.5506 211.097 53.5506C212.433 53.5506 215.447 53.5124 216.592 53.3216C218.042 53.0927 221.095 52.3294 221.82 50.8794C222.469 49.3911 222.049 27.258 221.324 26.0369Z" fill="#D8E1EA"/>
<path d="M203.427 19.8164C203.427 19.8164 202.931 20.1217 202.969 20.9994C203.16 23.518 208.426 23.1364 210.83 23.1745C217.165 23.2127 218.042 22.2968 218.271 21.4191C218.577 20.3507 217.623 19.8164 217.623 19.8164H203.427Z" fill="#2E2A29"/>
<path d="M211.175 18.5953C206.634 18.4808 203.543 19.015 203.314 20.1217C203.085 21.2284 207.206 21.4573 211.366 21.4192C214.838 21.381 218.998 21.381 217.967 20.1217C216.975 18.8624 214.266 18.6716 211.175 18.5953Z" fill="#423D3C"/>
<path d="M200.794 26.6465C200.336 32.3324 200.145 48.7414 200.718 50.0007C201.405 51.4889 204.114 52.2522 205.412 52.4811C206.404 52.6719 209.113 52.7101 210.296 52.7101C210.296 52.7101 210.411 52.7101 210.601 52.7101C210.792 52.7101 210.907 52.7101 210.907 52.7101C212.09 52.7101 214.799 52.6719 215.791 52.4811C217.089 52.2522 219.798 51.4889 220.485 50.0007C221.057 48.7414 220.867 32.3324 220.409 26.6465H200.794Z" fill="#AA0E25"/>
<path d="M210.602 27.1427C216.019 27.1427 220.409 26.9035 220.409 26.6085C220.409 26.3134 216.019 26.0742 210.602 26.0742C205.186 26.0742 200.795 26.3134 200.795 26.6085C200.795 26.9035 205.186 27.1427 210.602 27.1427Z" fill="#CE5F74"/>
<path d="M217.012 43.4002H204.19C203.618 43.4002 203.16 42.9423 203.16 42.3699V33.5167C203.16 32.9443 203.618 32.4863 204.19 32.4863H217.012C217.585 32.4863 218.043 32.9443 218.043 33.5167V42.4081C218.043 42.9423 217.585 43.4002 217.012 43.4002ZM204.19 32.8298C203.809 32.8298 203.504 33.1351 203.504 33.5167V42.4081C203.504 42.7897 203.809 43.0949 204.19 43.0949H217.012C217.394 43.0949 217.699 42.7897 217.699 42.4081V33.5167C217.699 33.1351 217.394 32.8298 217.012 32.8298H204.19Z" fill="#D66B73"/>
<path opacity="0.2" d="M221.248 25.9217C220.523 24.6624 217.928 24.3571 217.623 23.7084C217.317 23.0596 217.623 21.5332 217.623 21.5332H213.959C213.883 21.8766 213.73 23.0215 213.997 23.5939C214.303 24.2426 216.898 24.586 217.623 25.8072C218.348 27.0665 218.767 49.1614 218.004 50.6497C217.241 52.0998 214.226 52.863 212.776 53.0919C211.631 53.2446 208.617 53.3209 207.281 53.3209C207.281 53.3209 207.167 53.3209 206.938 53.3209C206.747 53.3209 206.594 53.3209 206.594 53.3209C206.403 53.3209 206.136 53.3209 205.869 53.3209C207.243 53.3972 209.227 53.4354 210.219 53.4354C210.219 53.4354 210.334 53.4354 210.563 53.4354C210.754 53.4354 210.906 53.4354 210.906 53.4354C212.242 53.4354 215.257 53.3972 216.401 53.2064C217.852 52.9774 220.904 52.2142 221.629 50.7641C222.431 49.314 221.973 27.181 221.248 25.9217Z" fill="#47332F"/>
<path d="M207.814 36.9505C207.814 37.0268 207.853 37.1031 207.891 37.1413C207.967 37.1795 208.043 37.1795 208.12 37.1413C208.043 37.3703 207.967 37.6374 207.967 37.9427C207.967 39.5073 210.066 41.5298 210.829 41.5298C211.745 41.5298 213.691 39.4691 213.691 37.9427C213.691 37.7137 213.653 37.4848 213.615 37.2939C213.653 37.2939 213.729 37.2558 213.767 37.2176C213.806 37.1795 213.806 37.1031 213.806 37.065C213.615 36.6071 213.348 36.2255 212.928 35.9583L213.195 35.8057C213.271 35.7675 213.31 35.6912 213.31 35.6149C213.31 35.5386 213.233 35.4622 213.157 35.4622C212.241 35.2333 211.363 35.2333 210.982 35.3478C211.058 34.7372 211.363 34.4701 211.402 34.4319C211.478 34.3556 211.478 34.2411 211.44 34.1648C211.363 34.0885 211.249 34.0885 211.173 34.1266C211.134 34.1266 210.715 34.5082 210.638 35.3478C210.333 35.3859 210.104 35.3478 209.951 35.3478C209.799 35.3478 209.684 35.3096 209.532 35.3478C209.303 35.3859 208.921 35.5386 208.616 35.6912C208.463 35.7675 208.349 35.8057 208.272 35.8439C208.196 35.882 208.158 35.9583 208.158 36.0347C208.158 36.111 208.234 36.1873 208.311 36.1873C208.463 36.2255 208.54 36.2255 208.616 36.2636L207.967 36.836C207.814 36.836 207.814 36.8742 207.814 36.9505ZM210.829 41.1863C210.295 41.1863 208.311 39.3165 208.311 37.9427C208.311 37.5229 208.425 37.2176 208.616 36.9505C208.845 36.8742 209.15 36.836 209.455 36.9123C209.646 36.9887 209.684 37.5992 209.684 37.8282V37.9045C209.684 37.9808 209.837 38.0953 209.951 38.0572C210.219 37.9427 210.409 37.5992 210.6 37.2939C210.638 37.2176 210.715 37.1031 210.753 37.065C210.867 37.065 211.096 37.2939 211.249 37.4084C211.478 37.5992 211.707 37.79 211.936 37.8664C211.974 37.8664 212.05 37.8664 212.088 37.8282C212.127 37.79 212.165 37.7519 212.165 37.7137C212.165 37.4466 212.165 37.1795 212.165 36.9505C212.317 36.9887 212.508 37.0268 212.699 37.1031C212.89 37.1413 213.081 37.2176 213.271 37.2558C213.348 37.4848 213.424 37.7137 213.424 37.9808C213.348 39.3546 211.402 41.1863 210.829 41.1863ZM208.845 36.1491C208.807 36.0728 208.768 36.0347 208.73 35.9965C208.997 35.882 209.341 35.7675 209.494 35.7294C209.608 35.7294 209.684 35.7294 209.837 35.7294C210.028 35.7294 210.219 35.7675 210.562 35.7294C210.562 35.882 210.562 36.0347 210.6 36.1873C210.6 36.2636 210.676 36.3399 210.791 36.3399H210.829C210.944 36.3399 210.982 36.2255 210.982 36.1491C210.944 35.9965 210.944 35.8438 210.944 35.7294C210.982 35.7294 211.02 35.7294 211.058 35.6912C211.058 35.6912 211.058 35.6912 211.096 35.6912C211.249 35.653 211.821 35.6149 212.585 35.7294L212.47 35.7675C212.394 35.8057 212.356 35.8438 212.356 35.9202C212.356 35.9965 212.394 36.0347 212.47 36.0728C212.852 36.2636 213.119 36.4926 213.31 36.836H213.271C213.119 36.7979 212.928 36.7597 212.775 36.6834C212.47 36.6071 212.165 36.4926 211.936 36.4926C211.898 36.4926 211.821 36.4926 211.783 36.5307C211.745 36.5689 211.745 36.6071 211.745 36.6834C211.783 36.8742 211.783 37.1031 211.783 37.3703C211.669 37.2939 211.554 37.2176 211.44 37.1031C211.134 36.836 210.829 36.5689 210.562 36.7215C210.486 36.7597 210.409 36.8742 210.257 37.1031C210.18 37.2176 210.104 37.3703 210.028 37.4848C209.99 37.1031 209.913 36.6834 209.57 36.5689C209.417 36.5307 209.265 36.4926 209.15 36.4926C208.997 36.4926 208.768 36.5307 208.768 36.5307C208.883 36.3781 208.883 36.2255 208.845 36.1491Z" fill="#D66B73"/>
<path d="M209.265 38.4775C209.379 38.4775 209.418 38.3629 209.418 38.2865C209.418 38.2101 209.379 38.1719 209.379 38.0955C209.341 38.0191 209.265 37.9427 209.15 37.9809C209.074 38.0191 208.997 38.0955 209.036 38.2101C209.036 38.2483 209.074 38.2865 209.074 38.3629C209.074 38.4011 209.15 38.4775 209.265 38.4775Z" fill="#D66B73"/>
<path d="M209.532 39.0484C209.493 38.972 209.379 38.9338 209.302 38.972C209.226 39.0102 209.188 39.1248 209.226 39.2013C209.264 39.2777 209.302 39.3541 209.379 39.3923C209.417 39.4305 209.455 39.4305 209.493 39.4305C209.532 39.4305 209.57 39.4305 209.608 39.3923C209.684 39.3159 209.684 39.2013 209.608 39.1249C209.57 39.1249 209.57 39.0866 209.532 39.0484Z" fill="#D66B73"/>
<path d="M210.639 38.9357C210.639 38.8594 210.6 38.7831 210.6 38.7067C210.562 38.6304 210.562 38.5922 210.562 38.5541C210.562 38.4396 210.486 38.3633 210.41 38.3633C210.295 38.3633 210.219 38.4396 210.219 38.5159C210.219 38.6304 210.257 38.7067 210.257 38.8212C210.257 38.8594 210.295 38.9357 210.295 38.9739C210.295 39.0502 210.371 39.1265 210.486 39.1265C210.562 39.1265 210.639 39.012 210.639 38.9357Z" fill="#D66B73"/>
<path d="M210.906 39.8514C210.906 39.8132 210.906 39.8132 210.906 39.775C210.906 39.6604 210.829 39.584 210.714 39.584C210.6 39.584 210.523 39.6604 210.523 39.775C210.523 39.8132 210.523 39.8132 210.523 39.8514C210.523 39.9661 210.523 40.0807 210.6 40.1953C210.638 40.2717 210.676 40.2717 210.753 40.2717C210.791 40.2717 210.829 40.2717 210.829 40.2335C210.906 40.1953 210.944 40.0807 210.906 40.0043C210.867 40.0043 210.867 39.9278 210.906 39.8514Z" fill="#D66B73"/>
<path d="M211.747 38.6294C211.747 38.5912 211.747 38.5148 211.747 38.4384C211.785 38.3238 211.708 38.2474 211.594 38.2092C211.479 38.171 211.403 38.2474 211.365 38.362C211.326 38.4384 211.326 38.5912 211.365 38.7441C211.403 38.8205 211.441 38.8587 211.517 38.8587H211.556C211.747 38.8587 211.785 38.7441 211.747 38.6294Z" fill="#D66B73"/>
<path d="M212.507 37.752C212.393 37.752 212.316 37.8284 212.316 37.943V38.2486C212.316 38.3633 212.393 38.4397 212.507 38.4397C212.622 38.4397 212.698 38.3633 212.698 38.2486V37.943C212.66 37.8666 212.584 37.752 212.507 37.752Z" fill="#D66B73"/>
<path d="M212.203 39.2416C212.126 39.2034 212.012 39.2034 211.974 39.3179C211.936 39.3561 211.936 39.4324 211.897 39.4705C211.859 39.5469 211.821 39.6232 211.783 39.6995C211.745 39.7758 211.745 39.8903 211.821 39.9666C211.859 40.0048 211.897 40.0048 211.936 40.0048C211.974 40.0048 212.05 39.9666 212.088 39.9285C212.164 39.8522 212.203 39.7377 212.241 39.6613C212.279 39.6232 212.279 39.585 212.317 39.5087C212.317 39.3942 212.279 39.2797 212.203 39.2416Z" fill="#D66B73"/>
<path d="M204.609 18.0241C203.579 16.2305 199.801 15.7726 199.381 14.8186C198.961 13.8646 199.381 11.6895 199.381 11.6895H189.726H188.772H179.118C179.118 11.6895 179.537 13.8646 179.118 14.8186C178.698 15.7726 174.92 16.2305 173.89 18.0241C172.859 19.8176 172.211 51.7198 173.317 53.8186C174.424 55.9174 178.774 57.0241 180.873 57.3294C182.514 57.5583 186.826 57.6347 188.772 57.6347C188.772 57.6347 188.963 57.6347 189.23 57.6347C189.535 57.6347 189.688 57.6347 189.688 57.6347C191.596 57.6347 195.946 57.5583 197.587 57.3294C199.686 57.0241 204.036 55.9174 205.143 53.8186C206.25 51.6816 205.639 19.8176 204.609 18.0241Z" fill="#D8E1EA"/>
<path d="M178.813 9.05469C178.813 9.05469 178.088 9.51261 178.164 10.7337C178.431 14.3972 186.025 13.8247 189.497 13.8629C198.618 13.9011 199.877 12.6036 200.221 11.3443C200.64 9.77974 199.267 9.05469 199.267 9.05469H178.813Z" fill="#2E2A29"/>
<path d="M189.956 7.30037C183.431 7.14773 178.928 7.91094 178.623 9.51368C178.317 11.1164 184.194 11.4599 190.262 11.3835C195.261 11.3072 201.252 11.3072 199.802 9.51368C198.314 7.68198 194.421 7.41486 189.956 7.30037Z" fill="#423D3C"/>
<path d="M174.997 18.9023C174.349 27.1068 174.043 50.7664 174.883 52.5599C175.875 54.6969 179.767 55.8035 181.637 56.147C183.087 56.4141 186.98 56.4523 188.697 56.4523C188.697 56.4523 188.85 56.4523 189.117 56.4523C189.384 56.4523 189.536 56.4523 189.536 56.4523C191.254 56.4523 195.146 56.3759 196.596 56.147C198.504 55.8035 202.396 54.6969 203.351 52.5599C204.19 50.7282 203.885 27.1068 203.236 18.9023H174.997V18.9023Z" fill="#59287C"/>
<path d="M189.115 19.626C196.913 19.626 203.235 19.2843 203.235 18.8628C203.235 18.4413 196.913 18.0996 189.115 18.0996C181.318 18.0996 174.996 18.4413 174.996 18.8628C174.996 19.2843 181.318 19.626 189.115 19.626Z" fill="#6D38A5"/>
<path d="M198.351 43.0572H179.881C179.079 43.0572 178.393 42.4084 178.393 41.5689V28.7851C178.393 27.9838 179.041 27.2969 179.881 27.2969H198.351C199.152 27.2969 199.839 27.9456 199.839 28.7851V41.5689C199.839 42.4084 199.19 43.0572 198.351 43.0572ZM179.881 27.793C179.347 27.793 178.889 28.2509 178.889 28.7851V41.5689C178.889 42.1032 179.347 42.5611 179.881 42.5611H198.351C198.885 42.5611 199.343 42.1032 199.343 41.5689V28.7851C199.343 28.2509 198.885 27.793 198.351 27.793H179.881Z" fill="#9560C4"/>
<path opacity="0.2" d="M204.495 17.9089C203.465 16.1153 199.687 15.6574 199.267 14.7034C198.848 13.7494 199.267 11.5742 199.267 11.5742H193.963C193.887 12.1085 193.62 13.7494 194.001 14.5507C194.421 15.5047 198.199 15.9627 199.229 17.7562C200.259 19.5498 200.908 51.4519 199.802 53.5507C198.695 55.6496 194.345 56.7562 192.246 57.0615C190.605 57.2905 186.293 57.3668 184.347 57.3668C184.347 57.3668 184.156 57.3668 183.889 57.3668C183.583 57.3668 183.431 57.3668 183.431 57.3668C183.125 57.3668 182.782 57.3668 182.4 57.3668C184.385 57.4813 187.247 57.5194 188.697 57.5194C188.697 57.5194 188.888 57.5194 189.155 57.5194C189.46 57.5194 189.613 57.5194 189.613 57.5194C191.521 57.5194 195.871 57.4431 197.512 57.2141C199.611 56.9089 203.961 55.8022 205.068 53.7034C206.174 51.5664 205.526 19.6642 204.495 17.9089Z" fill="#47332F"/>
<path d="M189.383 34.4316C189.04 34.4316 188.734 34.6988 188.734 35.0804C188.734 35.4238 189.001 35.7291 189.383 35.7291C189.727 35.7291 190.032 35.462 190.032 35.0804C190.032 34.6988 189.727 34.4316 189.383 34.4316ZM189.383 35.2712C189.269 35.2712 189.192 35.1949 189.192 35.0804C189.192 34.9659 189.269 34.8896 189.383 34.8896C189.498 34.8896 189.574 34.9659 189.574 35.0804C189.612 35.1567 189.498 35.2712 189.383 35.2712Z" fill="#9560C4"/>
<path d="M188.772 32.5631C189.115 32.5631 189.42 32.296 189.42 31.9144C189.42 31.5709 189.153 31.2656 188.772 31.2656C188.428 31.2656 188.123 31.5327 188.123 31.9144C188.123 32.2578 188.428 32.5631 188.772 32.5631ZM188.772 31.7236C188.886 31.7236 188.963 31.7999 188.963 31.9144C188.963 32.0288 188.886 32.1052 188.772 32.1052C188.657 32.1052 188.581 32.0288 188.581 31.9144C188.581 31.7999 188.657 31.7236 188.772 31.7236Z" fill="#9560C4"/>
<path d="M187.092 34.6233C187.092 34.2799 186.825 33.9746 186.444 33.9746C186.1 33.9746 185.795 34.2417 185.795 34.6233C185.795 34.9668 186.062 35.2721 186.444 35.2721C186.825 35.2721 187.092 35.0049 187.092 34.6233ZM186.482 34.8523C186.367 34.8523 186.291 34.776 186.291 34.6615C186.291 34.547 186.367 34.4707 186.482 34.4707C186.596 34.4707 186.673 34.547 186.673 34.6615C186.673 34.7378 186.596 34.8523 186.482 34.8523Z" fill="#9560C4"/>
<path d="M191.33 31.7621C190.948 31.7621 190.567 31.8385 190.185 31.9529C190.033 31.1897 189.346 30.6555 188.544 30.6555C188.125 30.6555 187.743 30.8081 187.438 31.0752C187.361 30.9989 187.285 30.9226 187.209 30.8463C185.988 29.6251 184.118 29.5488 184.041 29.5488C183.965 29.5488 183.927 29.587 183.889 29.6251C183.851 29.6633 183.812 29.7396 183.812 29.7778C183.812 29.8541 183.889 31.724 185.11 32.9451C185.263 33.0977 185.415 33.2122 185.568 33.3267C185.301 33.632 185.148 34.0136 185.148 34.4334C185.148 35.3111 185.797 35.9979 186.636 36.1124C186.56 36.4177 186.522 36.6848 186.522 36.9901C186.522 38.7073 187.781 40.0811 187.819 40.1574C187.858 40.1956 187.934 40.2338 187.972 40.2338C188.01 40.2338 188.086 40.1956 188.125 40.1574C188.163 40.0811 189.422 38.7073 189.422 36.9901C189.422 36.7612 189.384 36.5322 189.346 36.3032C190.147 36.1887 190.72 35.5019 190.758 34.7005C190.91 34.7386 191.063 34.7386 191.216 34.7386C192.933 34.7386 194.307 33.4794 194.383 33.4412C194.421 33.403 194.459 33.3267 194.459 33.2886C194.459 33.2122 194.421 33.1741 194.383 33.1359C194.421 33.0214 193.047 31.7621 191.33 31.7621ZM188.544 31.1134C189.193 31.1134 189.727 31.6477 189.804 32.2964C189.804 32.2964 189.804 32.2964 189.804 32.3345C189.804 32.3345 189.804 32.3727 189.804 32.4109C189.804 32.7161 189.689 32.9833 189.537 33.1741C189.269 33.5175 188.812 33.7083 188.315 33.5938C188.125 33.2886 187.819 33.0214 187.476 32.9069C187.476 32.8688 187.438 32.8688 187.438 32.8306L187.4 32.7925C187.361 32.678 187.323 32.5253 187.323 32.4109C187.323 32.1056 187.438 31.8385 187.59 31.6095L187.629 31.5713C187.858 31.266 188.201 31.1134 188.544 31.1134ZM184.309 29.9686C184.843 30.0449 186.102 30.2739 186.942 31.1134C187.018 31.1897 187.094 31.266 187.171 31.3805C187.018 31.6095 186.903 31.9148 186.865 32.2201L186.407 31.7621V31.1516C186.407 31.0371 186.293 30.9226 186.178 30.9226C186.064 30.9226 185.949 31.0371 185.949 31.1516V31.3424L185.263 30.6555C185.186 30.5792 185.034 30.5792 184.957 30.6555C184.881 30.7318 184.881 30.8844 184.957 30.9608L185.644 31.6477H185.453C185.339 31.6477 185.224 31.7621 185.224 31.8766C185.224 31.9911 185.339 32.1056 185.453 32.1056H186.064L186.713 32.7543C186.407 32.7543 186.14 32.8688 185.911 33.0214C185.721 32.9069 185.568 32.7925 185.415 32.6017C184.614 31.7621 184.385 30.5028 184.309 29.9686ZM185.644 34.4334C185.644 34.0518 185.835 33.7083 186.102 33.4794C186.14 33.4794 186.14 33.4412 186.178 33.4412C186.369 33.2886 186.636 33.2122 186.903 33.2122C187.59 33.2122 188.163 33.7846 188.163 34.4715C188.163 35.1203 187.667 35.6545 187.056 35.7308C187.018 35.7308 187.018 35.7308 187.018 35.7308C186.98 35.7308 186.98 35.7308 186.942 35.7308C186.217 35.6927 185.644 35.1203 185.644 34.4334ZM188.048 39.6613C187.705 39.2416 187.018 38.1731 187.018 36.9901C187.018 36.6848 187.056 36.3795 187.171 36.0743C187.438 36.0361 187.667 35.9216 187.857 35.8071V36.8756L187.4 37.3336C187.323 37.4099 187.323 37.5625 187.4 37.6388C187.438 37.677 187.514 37.7152 187.552 37.7152C187.59 37.7152 187.667 37.677 187.705 37.6388L187.857 37.4862V38.4784C187.857 38.5929 187.972 38.7073 188.086 38.7073C188.201 38.7073 188.315 38.5929 188.315 38.4784V37.4862L188.468 37.6388C188.506 37.677 188.583 37.7152 188.621 37.7152C188.659 37.7152 188.735 37.677 188.773 37.6388C188.85 37.5625 188.85 37.4099 188.773 37.3336L188.315 36.8756V35.9979C188.544 36.1506 188.812 36.2269 189.079 36.2651C189.117 36.494 189.155 36.723 189.155 36.952C189.117 38.2112 188.392 39.2416 188.048 39.6613ZM189.193 35.8835C188.85 35.8835 188.506 35.7308 188.277 35.4637C188.277 35.4255 188.277 35.4255 188.277 35.3874C188.468 35.1203 188.583 34.7768 188.583 34.4334C188.583 34.2807 188.544 34.1662 188.544 34.0136H188.583C189.04 34.0136 189.46 33.8228 189.766 33.5175C190.185 33.7083 190.452 34.1662 190.452 34.6242C190.452 35.3111 189.88 35.8835 189.193 35.8835ZM190.796 34.2426C190.72 33.9373 190.567 33.6702 190.338 33.4794H191.216L191.674 33.9373C191.712 33.9754 191.788 34.0136 191.826 34.0136C191.864 34.0136 191.941 33.9754 191.979 33.9373C192.055 33.861 192.055 33.7083 191.979 33.632L191.826 33.4794H192.818C192.933 33.4794 193.047 33.3649 193.047 33.2504C193.047 33.1359 192.933 33.0214 192.818 33.0214H191.826L191.979 32.8688C192.055 32.7925 192.055 32.6398 191.979 32.5635C191.903 32.4872 191.75 32.4872 191.674 32.5635L191.216 33.0214H190.071C190.147 32.8306 190.223 32.6398 190.223 32.4109C190.567 32.2582 190.948 32.1819 191.33 32.1819C192.551 32.1819 193.582 32.9069 194.001 33.2122C193.543 33.632 192.208 34.4715 190.796 34.2426Z" fill="#9560C4"/>
<path d="M178.01 26.112C177.438 23.8987 174.652 24.1276 174.08 23.3263C173.622 22.7157 173.813 21.113 173.813 21.113L164.005 19.7773L154.198 21.113C154.198 21.113 154.351 22.7157 153.931 23.3263C153.359 24.1276 150.573 23.8987 150 26.112C149.542 27.791 148.741 52.0611 149.81 53.5875C152.405 57.3272 176.56 57.2509 178.277 53.5875C179.002 51.8321 178.468 27.791 178.01 26.112Z" fill="#D8E1EA"/>
<path d="M176.903 26.3799C176.407 24.281 173.926 24.51 173.43 23.7468C173.049 23.1362 173.201 21.648 173.201 21.648L164.577 20.3887L155.075 21.648C155.075 21.648 155.037 23.0981 154.617 23.6705C154.121 24.4337 151.87 24.281 151.335 26.3799C150.954 27.9826 150.229 50.8026 151.183 52.2527C153.472 55.7634 175.567 55.7253 177.056 52.2527C177.781 50.6118 177.285 27.9826 176.903 26.3799Z" fill="#844D03"/>
<path opacity="0.42" d="M176.98 26.3416C176.446 24.2809 173.851 24.5099 173.355 23.7466C172.935 23.1742 173.087 21.686 173.087 21.686L164.005 20.4648L161.754 20.7701L168.585 21.686C168.585 21.686 168.585 21.8005 168.546 21.9913L154.961 21.9531L154.809 23.4795L168.928 23.823C169.615 24.4335 171.943 24.3572 172.477 26.3034C172.897 27.868 173.393 50.6498 172.63 52.2525C171.943 53.7408 167.211 54.5803 161.983 54.7711C168.775 55.0001 176.255 54.1605 177.171 52.2525C177.934 50.6879 177.4 27.9061 176.98 26.3416Z" fill="#47332F"/>
<path d="M153.74 14.9316V21.7624H153.778C154.274 22.144 158.663 22.4111 164.005 22.4111C169.348 22.4111 173.736 22.1058 174.232 21.7624H174.271V14.9316H153.74Z" fill="#E03822"/>
<path d="M171.255 14.9316V21.7624H171.179C170.721 22.1058 167.096 22.3729 162.479 22.4111C162.975 22.4111 163.471 22.4111 164.005 22.4111C169.347 22.4111 173.736 22.1058 174.232 21.7624H174.27V14.9316H171.255Z" fill="#B7281D"/>
<path d="M164.005 15.6574C169.675 15.6574 174.271 15.2986 174.271 14.8561C174.271 14.4135 169.675 14.0547 164.005 14.0547C158.336 14.0547 153.74 14.4135 153.74 14.8561C153.74 15.2986 158.336 15.6574 164.005 15.6574Z" fill="#EA6132"/>
<path d="M177.858 42.9424H150.459L150.841 30.9219H177.477L177.858 42.9424Z" fill="#E5DCA8"/>
<path d="M162.288 37.0293C161.945 37.0293 161.678 37.2964 161.678 37.6399C161.678 37.9833 161.945 38.2504 162.288 38.2504C162.632 38.2504 162.899 37.9833 162.899 37.6399C162.861 37.2964 162.594 37.0293 162.288 37.0293Z" fill="white"/>
<path d="M165.265 37.0293C164.921 37.0293 164.654 37.2964 164.654 37.6399C164.654 37.9833 164.921 38.2504 165.265 38.2504C165.608 38.2504 165.875 37.9833 165.875 37.6399C165.837 37.2964 165.57 37.0293 165.265 37.0293Z" fill="white"/>
<path d="M167.898 37.5242C167.669 36.9136 167.478 36.4557 167.02 35.9596C167.02 35.8069 167.02 35.6925 167.02 35.5398V35.5017L166.715 33.7081C166.677 33.5936 166.601 33.4792 166.486 33.4792C166.372 33.441 166.257 33.4792 166.181 33.5936L165.456 34.5476C164.311 33.8989 163.166 33.8989 162.06 34.5476L161.335 33.5936C161.258 33.5173 161.144 33.441 161.029 33.4792C160.915 33.5173 160.838 33.5936 160.8 33.7081L160.495 35.5017V35.5398C160.495 35.6925 160.495 35.8069 160.495 35.9596C160.037 36.4557 159.846 36.9136 159.617 37.5242C159.579 37.6768 159.617 37.8295 159.77 37.8676C160.075 38.0203 160.342 38.1347 160.648 38.1729C160.953 40.1954 161.754 41.4929 163.7 41.76C163.739 41.76 163.739 41.76 163.777 41.76C165.723 41.4929 166.524 40.2336 166.83 38.1729C167.135 38.1347 167.402 38.0203 167.707 37.8676C167.898 37.7913 167.936 37.6386 167.898 37.5242ZM160.266 37.4478C160.342 37.257 160.419 37.0662 160.533 36.8754C160.533 37.1044 160.571 37.3334 160.571 37.5242C160.495 37.5242 160.38 37.486 160.266 37.4478ZM166.295 37.8676C166.028 39.852 165.341 40.806 164.044 41.0731V39.852L164.464 39.623C164.616 39.5467 164.654 39.3559 164.578 39.2414C164.502 39.0887 164.311 39.0506 164.197 39.1269L163.739 39.3559L163.281 39.1269C163.128 39.0506 162.937 39.1269 162.899 39.2414C162.823 39.394 162.899 39.5467 163.014 39.623L163.433 39.852V41.0731C162.136 40.7678 161.449 39.852 161.182 37.8295C161.106 37.1044 161.067 36.2267 161.067 35.5017L161.258 34.4332L161.716 35.0819C161.792 35.1964 161.983 35.2345 162.136 35.1582C163.204 34.4332 164.273 34.4332 165.38 35.1582C165.494 35.2345 165.685 35.1964 165.799 35.0819L166.257 34.4332L166.448 35.5017C166.448 36.2649 166.41 37.1426 166.295 37.8676ZM166.944 37.5623C166.982 37.3334 166.982 37.1426 166.982 36.9136C167.097 37.0662 167.173 37.257 167.249 37.486C167.135 37.486 167.02 37.5242 166.944 37.5623Z" fill="white"/>
</g>
<g clip-path="url(#clip1)">
<path d="M56.9719 48.2483C56.705 53.0963 63.0715 52.5237 66.5025 52.5237H75.9188C79.4642 52.5237 86.0594 53.6689 90.4054 52.2946C94.1033 51.8747 97.0768 50.4242 97.1912 46.5687C97.3437 43.0186 94.4845 27.3678 97.3818 24.1612C103.634 15.0379 89.5286 10.0373 78.8161 10.0373C78.7399 10.0373 78.6636 10.0373 78.5874 10.0373C77.8249 9.99911 77.0625 9.96094 76.3381 9.96094C63.8339 9.96094 50.4529 15.0379 58.1156 24.5048C59.4117 26.8333 57.3531 41.339 56.9719 48.2483Z" fill="#A06210"/>
<path d="M78.435 10.0002C77.6726 9.962 76.9101 9.92383 76.1858 9.92383C63.6816 9.92383 50.3006 15.0008 57.9632 24.4677C59.2594 26.7962 57.2008 41.3019 56.8195 48.2112C56.5527 53.0591 62.9192 52.4865 66.3502 52.4865H75.7665C79.3119 52.4865 85.9071 53.6317 90.253 52.2575C93.9509 51.8376 96.8864 50.387 97.0389 46.5316C97.1532 42.9815 94.3322 27.3306 97.2295 24.1241C103.482 15.0008 89.3762 10.0002 78.6638 10.0002C78.5875 10.0002 78.5113 10.0002 78.435 10.0002Z" fill="#A16210"/>
<path d="M78.2827 10.0373C77.5203 9.99911 76.7578 9.96094 76.0335 9.96094C63.5293 9.96094 50.1482 15.0379 57.8109 24.5048C59.107 26.8333 57.0484 41.339 56.6672 48.2483C56.4003 53.0963 62.7668 52.5237 66.1979 52.5237H75.6141C79.1595 52.5237 85.7547 53.6689 90.1007 52.2946C93.7986 51.8747 96.734 50.4242 96.8865 46.5687C97.0009 43.0186 94.1798 27.3678 97.0772 24.1612C103.329 15.0379 89.2239 10.0373 78.5114 10.0373C78.4352 9.99911 78.359 9.99911 78.2827 10.0373Z" fill="#A16310"/>
<path d="M78.0913 10.0373C77.3288 9.99911 76.5664 9.96094 75.8421 9.96094C63.3379 9.96094 49.9568 15.0379 57.6195 24.5048C58.9156 26.8333 56.857 41.339 56.4758 48.2483C56.2089 53.0963 62.5754 52.5237 66.0064 52.5237H75.4227C78.9681 52.5237 85.5633 53.6689 89.9093 52.2946C93.6072 51.8747 96.5426 50.4242 96.6951 46.5687C96.8095 43.0186 93.9884 27.3678 96.8857 24.1612C103.138 15.0379 89.0325 10.0373 78.32 10.0373C78.2438 10.0373 78.1675 10.0373 78.0913 10.0373Z" fill="#A26310"/>
<path d="M77.9389 10.0373C77.1765 9.99911 76.414 9.96094 75.6897 9.96094C63.1855 9.96094 49.8045 15.0379 57.4671 24.5048C58.7633 26.8333 56.7047 41.339 56.3235 48.2483C56.0566 53.0963 62.4231 52.5237 65.8541 52.5237H75.2704C78.8158 52.5237 85.411 53.6689 89.7569 52.2946C93.4548 51.8747 96.3903 50.4242 96.5428 46.5687C96.6571 43.0186 93.8361 27.3678 96.7334 24.1612C102.985 15.0379 88.8801 10.0373 78.1677 10.0373C78.0914 10.0373 78.0152 10.0373 77.9389 10.0373Z" fill="#A26410"/>
<path d="M77.7495 10.0373C76.987 9.99911 76.2246 9.96094 75.5003 9.96094C62.9961 9.96094 49.615 15.0379 57.2777 24.5048C58.5738 26.8333 56.5152 41.339 56.134 48.2483C55.8671 53.0963 62.2336 52.5237 65.6646 52.5237H75.0809C78.6263 52.5237 85.2215 53.6689 89.5675 52.2946C93.2654 51.8747 96.2008 50.4242 96.3533 46.5687C96.4677 43.0186 93.6466 27.3678 96.5439 24.1612C102.796 15.0379 88.6907 10.0373 77.9782 10.0373C77.9401 10.0373 77.8638 10.0373 77.7495 10.0373Z" fill="#A36411"/>
<path d="M77.5952 10.0373C76.8327 9.99911 76.0703 9.96094 75.346 9.96094C62.8418 9.96094 49.4607 15.0379 57.1234 24.5048C58.4195 26.8333 56.3609 41.339 55.9797 48.2483C55.7128 53.0963 62.0793 52.5237 65.5103 52.5237H74.9266C78.472 52.5237 85.0672 53.6689 89.4132 52.2946C93.1111 51.8747 96.0465 50.4242 96.199 46.5687C96.3134 43.0186 93.4923 27.3678 96.3896 24.1612C102.642 15.0379 88.5364 10.0373 77.8239 10.0373C77.7477 10.0373 77.6714 10.0373 77.5952 10.0373Z" fill="#A36411"/>
<path d="M77.4428 10.0373C76.6804 9.99911 75.9179 9.96094 75.1936 9.96094C62.6894 9.96094 49.3084 15.0379 56.971 24.5048C58.2672 26.8333 56.2086 41.339 55.8274 48.2483C55.5605 53.0963 61.927 52.5237 65.358 52.5237H74.7743C78.3197 52.5237 84.9149 53.6689 89.2608 52.2946C92.9587 51.8747 95.8942 50.4242 96.0466 46.5687C96.161 43.0186 93.3399 27.3678 96.2373 24.1612C102.489 15.0379 88.384 10.0373 77.6716 10.0373C77.5953 10.0373 77.5191 10.0373 77.4428 10.0373Z" fill="#A46511"/>
<path d="M77.2534 10.0373C76.491 9.99911 75.7285 9.96094 75.0042 9.96094C62.5 9.96094 49.1189 15.0379 56.7816 24.5048C58.0777 26.8333 56.0191 41.339 55.6379 48.2483C55.371 53.0963 61.7375 52.5237 65.1685 52.5237H74.5467C78.0921 52.5237 84.6873 53.6689 89.0333 52.2946C92.7312 51.8747 95.6666 50.4242 95.8191 46.5687C95.9335 43.0186 93.1124 27.3678 96.0097 24.1612C102.262 15.0379 88.1565 10.0373 77.444 10.0373C77.4059 10.0373 77.3297 10.0373 77.2534 10.0373Z" fill="#A46511"/>
<path d="M77.1011 10.0373C76.3386 9.99911 75.5762 9.96094 74.8518 9.96094C62.3476 9.96094 48.9666 15.0379 56.6292 24.5048C57.9254 26.8333 55.8668 41.339 55.4856 48.2483C55.2187 53.0963 61.5852 52.5237 65.0162 52.5237H74.4325C77.9779 52.5237 84.5731 53.6689 88.919 52.2946C92.6169 51.8747 95.5524 50.4242 95.7049 46.5687C95.8192 43.0186 92.9982 27.3678 95.8955 24.1612C102.148 15.0379 88.0422 10.0373 77.3298 10.0373C77.2535 10.0373 77.1773 10.0373 77.1011 10.0373Z" fill="#A56611"/>
<path d="M76.9487 10.0763C76.1863 10.0382 75.4238 10 74.6995 10C62.1953 10 48.8143 15.077 56.4769 24.5439C57.7731 26.8724 55.7144 41.3781 55.3332 48.2874C55.0664 53.1353 61.4328 52.5627 64.8639 52.5627H74.2801C77.8255 52.5627 84.4207 53.7079 88.7667 52.3337C92.4646 51.9138 95.4 50.4632 95.5525 46.6077C95.6669 43.0577 92.8458 27.4068 95.7431 24.2003C101.995 15.077 87.8899 10.0763 77.1774 10.0763C77.1012 10.0382 77.025 10.0382 76.9487 10.0763Z" fill="#A56611"/>
<path d="M76.7573 10.0763C75.9949 10.0382 75.2324 10 74.5081 10C62.0039 10 48.6228 15.077 56.2855 24.5439C57.5817 26.8724 55.523 41.3781 55.1418 48.2874C54.875 53.1353 61.2414 52.5627 64.6725 52.5627H74.0887C77.6341 52.5627 84.2293 53.7079 88.5753 52.3337C92.2732 51.9138 95.2086 50.4632 95.3611 46.6077C95.4755 43.0577 92.6544 27.4068 95.5517 24.2003C101.804 15.077 87.6985 10.0763 76.986 10.0763C76.9098 10.0763 76.8336 10.0763 76.7573 10.0763Z" fill="#A66611"/>
<path d="M76.605 10.0763C75.8425 10.0382 75.0801 10 74.3557 10C61.8515 10 48.4705 15.077 56.1331 24.5439C57.4293 26.8724 55.3707 41.3781 54.9895 48.2874C54.7226 53.1353 61.0891 52.5627 64.5201 52.5627H73.9364C77.4818 52.5627 84.077 53.7079 88.4229 52.3337C92.1208 51.9138 95.0563 50.4632 95.2088 46.6077C95.3231 43.0577 92.5021 27.4068 95.3994 24.2003C101.651 15.077 87.5461 10.0763 76.8337 10.0763C76.7574 10.0763 76.6812 10.0763 76.605 10.0763Z" fill="#A66711"/>
<path d="M76.4136 10.0763C75.6511 10.0382 74.8887 10 74.1643 10C61.6601 10 48.2791 15.077 55.9417 24.5439C57.2379 26.8724 55.1793 41.3781 54.7981 48.2874C54.5312 53.1353 60.8977 52.5627 64.3287 52.5627H73.745C77.2904 52.5627 83.8856 53.7079 88.2315 52.3337C91.9294 51.9138 94.8649 50.4632 95.0174 46.6077C95.1317 43.0577 92.3107 27.4068 95.208 24.2003C101.46 15.077 87.3547 10.0763 76.6423 10.0763C76.6042 10.0763 76.5279 10.0763 76.4136 10.0763Z" fill="#A76711"/>
<path d="M76.2612 10.0763C75.4987 10.0382 74.7363 10 74.012 10C61.5078 10 48.1268 15.077 55.7894 24.5439C57.0856 26.8724 55.0269 41.3781 54.6457 48.2874C54.3789 53.1353 60.7453 52.5627 64.1764 52.5627H73.5926C77.138 52.5627 83.7332 53.7079 88.0792 52.3337C91.7771 51.9138 94.7125 50.4632 94.865 46.6077C94.9794 43.0577 92.1583 27.4068 95.0556 24.2003C101.308 15.077 87.2024 10.0763 76.4899 10.0763C76.4137 10.0763 76.3374 10.0763 76.2612 10.0763Z" fill="#A76812"/>
<path d="M76.1089 10.0763C75.3464 10.0382 74.584 10 73.8596 10C61.3554 10 47.9744 15.077 55.637 24.5439C56.9332 26.8724 54.8746 41.3781 54.4934 48.2874C54.2265 53.1353 60.593 52.5627 64.024 52.5627H73.4022C76.9476 52.5627 83.5428 53.7079 87.8887 52.3337C91.5866 51.9138 94.5221 50.4632 94.6746 46.6077C94.7889 43.0577 91.9679 27.4068 94.8652 24.2003C101.117 15.077 87.0119 10.0763 76.2995 10.0763C76.2614 10.0763 76.1851 10.0763 76.1089 10.0763Z" fill="#A86812"/>
<path d="M75.9194 10.0763C75.157 10.0382 74.3945 10 73.6702 10C61.166 10 47.785 15.077 55.4476 24.5439C56.7438 26.8724 54.6851 41.3781 54.3039 48.2874C54.0371 53.1353 60.4035 52.5627 63.8346 52.5627H73.2508C76.7962 52.5627 83.3915 53.7079 87.7374 52.3337C91.4353 51.9138 94.3708 50.4632 94.5232 46.6077C94.6376 43.0577 91.8165 27.4068 94.7139 24.2003C100.966 15.077 86.8606 10.0763 76.1482 10.0763C76.0719 10.0763 75.9957 10.0763 75.9194 10.0763Z" fill="#A96812"/>
<path d="M75.7671 10.0763C75.0046 10.0382 74.2422 10 73.5178 10C61.0136 10 47.6326 15.077 55.2953 24.5439C56.5914 26.8724 54.5328 41.3781 54.1516 48.2874C53.8847 53.1353 60.2512 52.5627 63.6822 52.5627H73.0985C76.6439 52.5627 83.2391 53.7079 87.5851 52.3337C91.283 51.9138 94.2184 50.4632 94.3709 46.6077C94.4852 43.0577 91.6642 27.4068 94.5615 24.2003C100.814 15.077 86.7082 10.0763 75.9958 10.0763C75.9196 10.0763 75.8433 10.0763 75.7671 10.0763Z" fill="#A96912"/>
<path d="M75.6128 10.1154C74.8503 10.0772 74.0879 10.0391 73.3635 10.0391C60.8593 10.0391 47.4783 15.1161 55.141 24.5829C56.4371 26.9115 54.3785 41.4171 53.9973 48.3264C53.7304 53.1744 60.0969 52.6018 63.5279 52.6018H72.9442C76.4896 52.6018 83.0848 53.747 87.4308 52.3727C91.1287 51.9528 94.0641 50.5023 94.2166 46.6468C94.331 43.0967 91.5099 27.4459 94.4072 24.2394C100.659 15.1161 86.554 10.1154 75.8415 10.1154C75.7653 10.0772 75.689 10.0772 75.6128 10.1154Z" fill="#AA6912"/>
<path d="M75.4233 10.1154C74.6609 10.0772 73.8984 10.0391 73.1741 10.0391C60.6699 10.0391 47.2889 15.1161 54.9515 24.5829C56.2477 26.9115 54.1891 41.4171 53.8078 48.3264C53.541 53.1744 59.9074 52.6018 63.3385 52.6018H72.7547C76.3001 52.6018 82.8953 53.747 87.2413 52.3727C90.9392 51.9528 93.8746 50.5023 94.0271 46.6468C94.1415 43.0967 91.3204 27.4459 94.2177 24.2394C100.47 15.1161 86.3645 10.1154 75.652 10.1154C75.5758 10.1154 75.4996 10.1154 75.4233 10.1154Z" fill="#AA6A12"/>
<path d="M75.271 10.1154C74.5085 10.0772 73.7461 10.0391 73.0217 10.0391C60.5175 10.0391 47.1365 15.1161 54.7992 24.5829C56.0953 26.9115 54.0367 41.4171 53.6555 48.3264C53.3886 53.1744 59.7551 52.6018 63.1861 52.6018H72.6024C76.1478 52.6018 82.743 53.747 87.089 52.3727C90.7869 51.9528 93.7223 50.5023 93.8748 46.6468C93.9892 43.0967 91.1681 27.4459 94.0654 24.2394C100.318 15.1161 86.2122 10.1154 75.4997 10.1154C75.4235 10.1154 75.3472 10.1154 75.271 10.1154Z" fill="#AB6A12"/>
<path d="M75.0796 10.1154C74.3171 10.0772 73.5547 10.0391 72.8303 10.0391C60.3261 10.0391 46.9451 15.1161 54.6078 24.5829C55.9039 26.9115 53.8453 41.4171 53.4641 48.3264C53.1972 53.1744 59.5637 52.6018 62.9947 52.6018H72.411C75.9564 52.6018 82.5516 53.747 86.8976 52.3727C90.5954 51.9528 93.5309 50.5023 93.6834 46.6468C93.7977 43.0967 90.9767 27.4459 93.874 24.2394C100.126 15.1161 86.0207 10.1154 75.3083 10.1154C75.2702 10.1154 75.1939 10.1154 75.0796 10.1154Z" fill="#AB6B12"/>
<path d="M74.9272 10.1154C74.1648 10.0772 73.4023 10.0391 72.678 10.0391C60.1738 10.0391 46.7928 15.1161 54.4554 24.5829C55.7516 26.9115 53.693 41.4171 53.3117 48.3264C53.0449 53.1744 59.4113 52.6018 62.8424 52.6018H72.2586C75.804 52.6018 82.3992 53.747 86.7452 52.3727C90.4431 51.9528 93.3785 50.5023 93.531 46.6468C93.6454 43.0967 90.8243 27.4459 93.7216 24.2394C99.9737 15.1161 85.8684 10.1154 75.156 10.1154C75.0797 10.1154 75.0035 10.1154 74.9272 10.1154Z" fill="#AC6B12"/>
<path d="M74.7749 10.1154C74.0124 10.0772 73.25 10.0391 72.5257 10.0391C60.0215 10.0391 46.6404 15.1161 54.3031 24.5829C55.5992 26.9115 53.5406 41.4171 53.1594 48.3264C52.8925 53.1744 59.259 52.6018 62.69 52.6018H72.1063C75.6517 52.6018 82.2469 53.747 86.5929 52.3727C90.2908 51.9528 93.2262 50.5023 93.3787 46.6468C93.4931 43.0967 90.672 27.4459 93.5693 24.2394C99.8214 15.1161 85.7161 10.1154 75.0036 10.1154C74.9274 10.1154 74.8511 10.1154 74.7749 10.1154Z" fill="#AC6B13"/>
<path d="M74.5835 10.1154C73.821 10.0772 73.0586 10.0391 72.3342 10.0391C59.83 10.0391 46.449 15.1161 54.1117 24.5829C55.4078 26.9115 53.3492 41.4171 52.968 48.3264C52.7011 53.1744 59.0676 52.6018 62.4986 52.6018H71.8768C75.4222 52.6018 82.0174 53.747 86.3633 52.3727C90.0612 51.9528 92.9967 50.5023 93.1492 46.6468C93.2635 43.0967 90.4425 27.4459 93.3398 24.2394C99.5919 15.1161 85.4865 10.1154 74.7741 10.1154C74.736 10.1154 74.6597 10.1154 74.5835 10.1154Z" fill="#AD6C13"/>
<path d="M74.4311 10.1154C73.6687 10.0772 72.9062 10.0391 72.1819 10.0391C59.6777 10.0391 46.2967 15.1161 53.9593 24.5829C55.2555 26.9115 53.1969 41.4171 52.8156 48.3264C52.5488 53.1744 58.9152 52.6018 62.3463 52.6018H71.7625C75.3079 52.6018 81.9031 53.747 86.2491 52.3727C89.947 51.9528 92.8824 50.5023 93.0349 46.6468C93.1493 43.0967 90.3282 27.4459 93.2255 24.2394C99.4776 15.1161 85.3723 10.1154 74.6599 10.1154C74.5836 10.1154 74.5074 10.1154 74.4311 10.1154Z" fill="#AD6C13"/>
<path d="M74.2417 10.1525C73.4792 10.1143 72.7168 10.0762 71.9924 10.0762C59.4882 10.0762 46.1072 15.1532 53.7699 24.62C55.066 26.9486 53.0074 41.4543 52.6262 48.3635C52.3593 53.2115 58.7258 52.6389 62.1568 52.6389H71.5731C75.1185 52.6389 81.7137 53.7841 86.0597 52.4099C89.7576 51.99 92.693 50.5394 92.8455 46.6839C92.9599 43.1339 90.1388 27.483 93.0361 24.2765C99.2882 15.1532 85.1829 10.1525 74.4704 10.1525C74.4323 10.1143 74.356 10.1143 74.2417 10.1525Z" fill="#AE6D13"/>
<path d="M74.0874 10.1525C73.3249 10.1143 72.5625 10.0762 71.8381 10.0762C59.3339 10.0762 45.9529 15.1532 53.6156 24.62C54.9117 26.9486 52.8531 41.4543 52.4719 48.3635C52.205 53.2115 58.5715 52.6389 62.0025 52.6389H71.4188C74.9642 52.6389 81.5594 53.7841 85.9054 52.4099C89.6032 51.99 92.5387 50.5394 92.6912 46.6839C92.8055 43.1339 89.9845 27.483 92.8818 24.2765C99.1339 15.1532 85.0285 10.1525 74.3161 10.1525C74.2399 10.1525 74.1636 10.1525 74.0874 10.1525Z" fill="#AE6D13"/>
<path d="M73.935 10.1525C73.1726 10.1143 72.4101 10.0762 71.6858 10.0762C59.1816 10.0762 45.8006 15.1532 53.4632 24.62C54.7594 26.9486 52.7008 41.4543 52.3195 48.3635C52.0527 53.2115 58.4192 52.6389 61.8502 52.6389H71.2665C74.8119 52.6389 81.4071 53.7841 85.753 52.4099C89.4509 51.99 92.3864 50.5394 92.5389 46.6839C92.6532 43.1339 89.8322 27.483 92.7295 24.2765C98.9816 15.1532 84.8762 10.1525 74.1638 10.1525C74.0875 10.1525 74.0113 10.1525 73.935 10.1525Z" fill="#AF6D13"/>
<path d="M73.7456 10.1525C72.9831 10.1143 72.2207 10.0762 71.4963 10.0762C58.9921 10.0762 45.6111 15.1532 53.2738 24.62C54.5699 26.9486 52.5113 41.4543 52.1301 48.3635C51.8632 53.2115 58.2297 52.6389 61.6607 52.6389H71.077C74.6224 52.6389 81.2176 53.7841 85.5636 52.4099C89.2614 51.99 92.1969 50.5394 92.3494 46.6839C92.4637 43.1339 89.6427 27.483 92.54 24.2765C98.7921 15.1532 84.6867 10.1525 73.9743 10.1525C73.9362 10.1525 73.8599 10.1525 73.7456 10.1525Z" fill="#B06E13"/>
<path d="M73.5932 10.1525C72.8308 10.1143 72.0683 10.0762 71.344 10.0762C58.8398 10.0762 45.4588 15.1532 53.1214 24.62C54.4176 26.9486 52.359 41.4543 51.9777 48.3635C51.7109 53.2115 58.0774 52.6389 61.5084 52.6389H70.9247C74.4701 52.6389 81.0653 53.7841 85.4112 52.4099C89.1091 51.99 92.0446 50.5394 92.197 46.6839C92.3114 43.1339 89.4903 27.483 92.3877 24.2765C98.6398 15.1532 84.5344 10.1525 73.822 10.1525C73.7457 10.1525 73.6695 10.1525 73.5932 10.1525Z" fill="#B06E13"/>
<path d="M73.4409 10.1525C72.6785 10.1143 71.916 10.0762 71.1917 10.0762C58.6875 10.0762 45.3064 15.1532 52.9691 24.62C54.2652 26.9486 52.2066 41.4543 51.8254 48.3635C51.5585 53.2115 57.925 52.6389 61.356 52.6389H70.7342C74.2796 52.6389 80.8748 53.7841 85.2208 52.4099C88.9187 51.99 91.8541 50.5394 92.0066 46.6839C92.121 43.1339 89.2999 27.483 92.1972 24.2765C98.4493 15.1532 84.344 10.1525 73.6315 10.1525C73.5934 10.1525 73.5171 10.1525 73.4409 10.1525Z" fill="#B16F13"/>
<path d="M73.2495 10.1525C72.487 10.1143 71.7246 10.0762 71.0003 10.0762C58.4961 10.0762 45.115 15.1532 52.7777 24.62C54.0738 26.9486 52.0152 41.4543 51.634 48.3635C51.3671 53.2115 57.7336 52.6389 61.1646 52.6389H70.5809C74.1263 52.6389 80.7215 53.7841 85.0675 52.4099C88.7654 51.99 91.7008 50.5394 91.8533 46.6839C91.9677 43.1339 89.1466 27.483 92.0439 24.2765C98.296 15.1532 84.1907 10.1525 73.4782 10.1525C73.402 10.1525 73.3257 10.1525 73.2495 10.1525Z" fill="#B16F13"/>
<path d="M73.0971 10.1525C72.3347 10.1143 71.5722 10.0762 70.8479 10.0762C58.3437 10.0762 44.9627 15.1532 52.6253 24.62C53.9215 26.9486 51.8629 41.4543 51.4817 48.3635C51.2148 53.2115 57.5813 52.6389 61.0123 52.6389H70.4286C73.974 52.6389 80.5692 53.7841 84.9151 52.4099C88.613 51.99 91.5485 50.5394 91.701 46.6839C91.8153 43.1339 88.9943 27.483 91.8916 24.2765C98.1437 15.1532 84.0383 10.1525 73.3259 10.1525C73.2496 10.1525 73.1734 10.1525 73.0971 10.1525Z" fill="#B26F14"/>
<path d="M72.9077 10.1916C72.1452 10.1534 71.3828 10.1152 70.6585 10.1152C58.1543 10.1152 44.7732 15.1922 52.4359 24.6591C53.732 26.9876 51.6734 41.4933 51.2922 48.4026C51.0253 53.2506 57.3918 52.678 60.8228 52.678H70.2391C73.7845 52.678 80.3797 53.8231 84.7257 52.4489C88.4236 52.029 91.359 50.5785 91.5115 46.723C91.6259 43.1729 88.8048 27.5221 91.7021 24.3155C97.9542 15.1922 83.8489 10.1916 73.1364 10.1916C73.0983 10.1534 73.0221 10.1534 72.9077 10.1916Z" fill="#B27014"/>
<path d="M72.7554 10.1916C71.9929 10.1534 71.2304 10.1152 70.5061 10.1152C58.0019 10.1152 44.6209 15.1922 52.2835 24.6591C53.5797 26.9876 51.5211 41.4933 51.1399 48.4026C50.873 53.2506 57.2395 52.678 60.6705 52.678H70.0868C73.6322 52.678 80.2274 53.8231 84.5733 52.4489C88.2712 52.029 91.2067 50.5785 91.3592 46.723C91.4735 43.1729 88.6525 27.5221 91.5498 24.3155C97.8019 15.1922 83.6965 10.1916 72.9841 10.1916C72.9078 10.1916 72.8316 10.1916 72.7554 10.1916Z" fill="#B37014"/>
<path d="M72.601 10.1916C71.8386 10.1534 71.0761 10.1152 70.3518 10.1152C57.8476 10.1152 44.4666 15.1922 52.1292 24.6591C53.4254 26.9876 51.3668 41.4933 50.9856 48.4026C50.7187 53.2506 57.0852 52.678 60.5162 52.678H69.9325C73.4779 52.678 80.0731 53.8231 84.419 52.4489C88.1169 52.029 91.0524 50.5785 91.2048 46.723C91.3192 43.1729 88.4981 27.5221 91.3955 24.3155C97.6476 15.1922 83.5422 10.1916 72.8298 10.1916C72.7535 10.1916 72.6773 10.1916 72.601 10.1916Z" fill="#B37114"/>
<path d="M72.4116 10.1916C71.6492 10.1534 70.8867 10.1152 70.1624 10.1152C57.6582 10.1152 44.2771 15.1922 51.9398 24.6591C53.236 26.9876 51.1773 41.4933 50.7961 48.4026C50.5292 53.2506 56.8957 52.678 60.3267 52.678H69.743C73.2884 52.678 79.8836 53.8231 84.2296 52.4489C87.9275 52.029 90.8629 50.5785 91.0154 46.723C91.1298 43.1729 88.3087 27.5221 91.206 24.3155C97.4581 15.1922 83.3528 10.1916 72.6403 10.1916C72.5641 10.1916 72.4878 10.1916 72.4116 10.1916Z" fill="#B47114"/>
<path d="M72.2593 10.1916C71.4968 10.1534 70.7344 10.1152 70.01 10.1152C57.5058 10.1152 44.1248 15.1922 51.7874 24.6591C53.0836 26.9876 51.025 41.4933 50.6438 48.4026C50.3769 53.2506 56.7434 52.678 60.1744 52.678H69.5907C73.1361 52.678 79.7313 53.8231 84.0772 52.4489C87.7751 52.029 90.7106 50.5785 90.8631 46.723C90.9774 43.1729 88.1564 27.5221 91.0537 24.3155C97.3058 15.1922 83.2004 10.1916 72.488 10.1916C72.4117 10.1916 72.3355 10.1916 72.2593 10.1916Z" fill="#B47114"/>
<path d="M72.105 10.1916C71.3425 10.1534 70.58 10.1152 69.8557 10.1152C57.3515 10.1152 43.9705 15.1922 51.6331 24.6591C52.9293 26.9876 50.8707 41.4933 50.4895 48.4026C50.2226 53.2506 56.5891 52.678 60.0201 52.678H69.4364C72.9818 52.678 79.577 53.8231 83.9229 52.4489C87.6208 52.029 90.5563 50.5785 90.7088 46.723C90.8231 43.1729 88.0021 27.5221 90.8994 24.3155C97.1515 15.1922 83.0461 10.1916 72.3337 10.1916C72.2574 10.1916 72.1812 10.1916 72.105 10.1916Z" fill="#B57214"/>
<path d="M71.9155 10.1916C71.1531 10.1534 70.3906 10.1152 69.6663 10.1152C57.1621 10.1152 43.7811 15.1922 51.4437 24.6591C52.7399 26.9876 50.6812 41.4933 50.3 48.4026C50.0332 53.2506 56.3996 52.678 59.8307 52.678H69.2088C72.7542 52.678 79.3494 53.8231 83.6954 52.4489C87.3933 52.029 90.3287 50.5785 90.4812 46.723C90.5956 43.1729 87.7745 27.5221 90.6718 24.3155C96.9239 15.1922 82.8186 10.1916 72.1061 10.1916C72.068 10.1916 71.9918 10.1916 71.9155 10.1916Z" fill="#B57214"/>
<path d="M71.7632 10.1916C71.0007 10.1534 70.2383 10.1152 69.5139 10.1152C57.0097 10.1152 43.6287 15.1922 51.2913 24.6591C52.5875 26.9876 50.5289 41.4933 50.1477 48.4026C49.8808 53.2506 56.2473 52.678 59.6783 52.678H69.0946C72.64 52.678 79.2352 53.8231 83.5812 52.4489C87.279 52.029 90.2145 50.5785 90.367 46.723C90.4813 43.1729 87.6603 27.5221 90.5576 24.3155C96.8097 15.1922 82.7043 10.1916 71.9919 10.1916C71.9157 10.1916 71.8394 10.1916 71.7632 10.1916Z" fill="#B67314"/>
<path d="M71.5717 10.2287C70.8093 10.1905 70.0469 10.1523 69.3225 10.1523C56.8183 10.1523 43.4373 15.2293 51.0999 24.6962C52.3961 27.0247 50.3375 41.5304 49.9563 48.4397C49.6894 53.2877 56.0559 52.7151 59.4869 52.7151H68.9032C72.4486 52.7151 79.0438 53.8603 83.3897 52.486C87.0876 52.0661 90.0231 50.6156 90.1756 46.7601C90.2899 43.21 87.4689 27.5592 90.3662 24.3526C96.6183 15.2293 82.5129 10.2287 71.8005 10.2287C71.7624 10.1905 71.6861 10.1905 71.5717 10.2287Z" fill="#B67315"/>
<path d="M71.4194 10.2287C70.657 10.1905 69.8945 10.1523 69.1702 10.1523C56.666 10.1523 43.285 15.2293 50.9476 24.6962C52.2438 27.0247 50.1851 41.5304 49.8039 48.4397C49.5371 53.2877 55.9035 52.7151 59.3346 52.7151H68.7508C72.2962 52.7151 78.8915 53.8603 83.2374 52.486C86.9353 52.0661 89.8708 50.6156 90.0232 46.7601C90.1376 43.21 87.3165 27.5592 90.2139 24.3526C96.466 15.2293 82.3606 10.2287 71.6482 10.2287C71.5719 10.2287 71.4957 10.2287 71.4194 10.2287Z" fill="#B77315"/>
<path d="M71.2671 10.2287C70.5046 10.1905 69.7422 10.1523 69.0178 10.1523C56.5136 10.1523 43.1326 15.2293 50.7953 24.6962C52.0914 27.0247 50.0328 41.5304 49.6516 48.4397C49.3847 53.2877 55.7512 52.7151 59.1822 52.7151H68.5985C72.1439 52.7151 78.7391 53.8603 83.0851 52.486C86.783 52.0661 89.7184 50.6156 89.8709 46.7601C89.9852 43.21 87.1642 27.5592 90.0615 24.3526C96.3136 15.2293 82.2082 10.2287 71.4958 10.2287C71.4196 10.2287 71.3433 10.2287 71.2671 10.2287Z" fill="#B87415"/>
<path d="M71.0757 10.2287C70.3132 10.1905 69.5508 10.1523 68.8264 10.1523C56.3222 10.1523 42.9412 15.2293 50.6038 24.6962C51.9 27.0247 49.8414 41.5304 49.4602 48.4397C49.1933 53.2877 55.5598 52.7151 58.9908 52.7151H68.4071C71.9525 52.7151 78.5477 53.8603 82.8936 52.486C86.5915 52.0661 89.527 50.6156 89.6795 46.7601C89.7938 43.21 86.9728 27.5592 89.8701 24.3526C96.1222 15.2293 82.0168 10.2287 71.3044 10.2287C71.2281 10.2287 71.1519 10.2287 71.0757 10.2287Z" fill="#B87415"/>
<path d="M70.9253 10.2287C70.1628 10.1905 69.4004 10.1523 68.676 10.1523C56.1718 10.1523 42.7908 15.2293 50.4535 24.6962C51.7496 27.0247 49.691 41.5304 49.3098 48.4397C49.0429 53.2877 55.4094 52.7151 58.8404 52.7151H68.2567C71.8021 52.7151 78.3973 53.8603 82.7433 52.486C86.4412 52.0661 89.3766 50.6156 89.5291 46.7601C89.6435 43.21 86.8224 27.5592 89.7197 24.3526C95.9718 15.2293 81.8664 10.2287 71.154 10.2287C71.0778 10.2287 71.0015 10.2287 70.9253 10.2287Z" fill="#B97515"/>
<path d="M70.7339 10.2287C69.9714 10.1905 69.209 10.1523 68.4846 10.1523C55.9804 10.1523 42.5994 15.2293 50.262 24.6962C51.5582 27.0247 49.4996 41.5304 49.1184 48.4397C48.8515 53.2877 55.218 52.7151 58.649 52.7151H68.0653C71.6107 52.7151 78.2059 53.8603 82.5518 52.486C86.2497 52.0661 89.1852 50.6156 89.3377 46.7601C89.452 43.21 86.631 27.5592 89.5283 24.3526C95.7804 15.2293 81.675 10.2287 70.9626 10.2287C70.9245 10.2287 70.8482 10.2287 70.7339 10.2287Z" fill="#B97515"/>
<path d="M70.5815 10.2287C69.8191 10.1905 69.0566 10.1523 68.3323 10.1523C55.8281 10.1523 42.4471 15.2293 50.1097 24.6962C51.4059 27.0247 49.3473 41.5304 48.966 48.4397C48.6992 53.2877 55.0656 52.7151 58.4967 52.7151H67.9129C71.4583 52.7151 78.0535 53.8603 82.3995 52.486C86.0974 52.0661 89.0328 50.6156 89.1853 46.7601C89.2997 43.21 86.4786 27.5592 89.3759 24.3526C95.628 15.2293 81.5227 10.2287 70.8103 10.2287C70.734 10.2287 70.6578 10.2287 70.5815 10.2287Z" fill="#BA7515"/>
<path d="M70.4292 10.2287C69.6667 10.1905 68.9043 10.1523 68.18 10.1523C55.6757 10.1523 42.2947 15.2293 49.9574 24.6962C51.2535 27.0247 49.1949 41.5304 48.8137 48.4397C48.5468 53.2877 54.9133 52.7151 58.3443 52.7151H67.7606C71.306 52.7151 77.9012 53.8603 82.2472 52.486C85.9451 52.0661 88.8805 50.6156 89.033 46.7601C89.1474 43.21 86.3263 27.5592 89.2236 24.3526C95.4757 15.2293 81.3704 10.2287 70.6579 10.2287C70.5817 10.2287 70.5054 10.2287 70.4292 10.2287Z" fill="#BA7615"/>
<path d="M70.2378 10.2658C69.4753 10.2276 68.7129 10.1895 67.9885 10.1895C55.4843 10.1895 42.1033 15.2664 49.766 24.7333C51.0621 27.0619 49.0035 41.5675 48.6223 48.4768C48.3554 53.3248 54.7219 52.7522 58.1529 52.7522H67.5692C71.1146 52.7522 77.7098 53.8974 82.0558 52.5231C85.7537 52.1032 88.6891 50.6527 88.8416 46.7972C88.956 43.2471 86.1349 27.5963 89.0322 24.3898C95.2843 15.2664 81.1789 10.2658 70.4665 10.2658C70.4284 10.2276 70.3521 10.2276 70.2378 10.2658Z" fill="#BB7615"/>
<path d="M70.0854 10.2658C69.323 10.2276 68.5605 10.1895 67.8362 10.1895C55.332 10.1895 41.951 15.2664 49.6136 24.7333C50.9098 27.0619 48.8512 41.5675 48.4699 48.4768C48.2031 53.3248 54.5695 52.7522 58.0006 52.7522H67.4168C70.9622 52.7522 77.5574 53.8974 81.9034 52.5231C85.6013 52.1032 88.5367 50.6527 88.6892 46.7972C88.8036 43.2471 85.9825 27.5963 88.8798 24.3898C95.1319 15.2664 81.0266 10.2658 70.3142 10.2658C70.2379 10.2658 70.1617 10.2658 70.0854 10.2658Z" fill="#BB7716"/>
<path d="M69.9331 10.2658C69.1706 10.2276 68.4082 10.1895 67.6839 10.1895C55.1797 10.1895 41.7986 15.2664 49.4613 24.7333C50.7574 27.0619 48.6988 41.5675 48.3176 48.4768C48.0507 53.3248 54.4172 52.7522 57.8482 52.7522H67.2645C70.8099 52.7522 77.4051 53.8974 81.7511 52.5231C85.449 52.1032 88.3844 50.6527 88.5369 46.7972C88.6513 43.2471 85.8302 27.5963 88.7275 24.3898C94.9796 15.2664 80.8743 10.2658 70.1618 10.2658C70.0856 10.2658 70.0093 10.2658 69.9331 10.2658Z" fill="#BC7716"/>
<path d="M69.7436 10.2658C68.9812 10.2276 68.2187 10.1895 67.4944 10.1895C54.9902 10.1895 41.6092 15.2664 49.2718 24.7333C50.568 27.0619 48.5094 41.5675 48.1281 48.4768C47.8613 53.3248 54.2278 52.7522 57.6588 52.7522H67.0751C70.6205 52.7522 77.2157 53.8974 81.5616 52.5231C85.2595 52.1032 88.195 50.6527 88.3475 46.7972C88.4618 43.2471 85.6408 27.5963 88.5381 24.3898C94.7902 15.2664 80.6848 10.2658 69.9724 10.2658C69.8961 10.2658 69.8199 10.2658 69.7436 10.2658Z" fill="#BC7816"/>
<path d="M69.5893 10.2658C68.8269 10.2276 68.0644 10.1895 67.3401 10.1895C54.8359 10.1895 41.4549 15.2664 49.1175 24.7333C50.4137 27.0619 48.3551 41.5675 47.9738 48.4768C47.707 53.3248 54.0734 52.7522 57.5045 52.7522H66.9207C70.4661 52.7522 77.0613 53.8974 81.4073 52.5231C85.1052 52.1032 88.0406 50.6527 88.1931 46.7972C88.3075 43.2471 85.4864 27.5963 88.3837 24.3898C94.6358 15.2664 80.5305 10.2658 69.8181 10.2658C69.7418 10.2658 69.6656 10.2658 69.5893 10.2658Z" fill="#BD7816"/>
<path d="M69.3999 10.2658C68.6374 10.2276 67.875 10.1895 67.1506 10.1895C54.6464 10.1895 41.2654 15.2664 48.9281 24.7333C50.2242 27.0619 48.1656 41.5675 47.7844 48.4768C47.5175 53.3248 53.884 52.7522 57.315 52.7522H66.7313C70.2767 52.7522 76.8719 53.8974 81.2179 52.5231C84.9157 52.1032 87.8512 50.6527 88.0037 46.7972C88.118 43.2471 85.297 27.5963 88.1943 24.3898C94.4464 15.2664 80.341 10.2658 69.6286 10.2658C69.5905 10.2658 69.5142 10.2658 69.3999 10.2658Z" fill="#BD7816"/>
<path d="M69.2475 10.2658C68.4851 10.2276 67.7226 10.1895 66.9983 10.1895C54.4941 10.1895 41.1131 15.2664 48.7757 24.7333C50.0719 27.0619 48.0133 41.5675 47.632 48.4768C47.3652 53.3248 53.7317 52.7522 57.1627 52.7522H66.5408C70.0862 52.7522 76.6814 53.8974 81.0274 52.5231C84.7253 52.1032 87.6607 50.6527 87.8132 46.7972C87.9276 43.2471 85.1065 27.5963 88.0038 24.3898C94.2559 15.2664 80.1506 10.2658 69.4382 10.2658C69.4 10.2658 69.3238 10.2658 69.2475 10.2658Z" fill="#BE7916"/>
<path d="M69.0952 10.2658C68.3327 10.2276 67.5703 10.1895 66.846 10.1895C54.3418 10.1895 40.9607 15.2664 48.6234 24.7333C49.9195 27.0619 47.8609 41.5675 47.4797 48.4768C47.2128 53.3248 53.5793 52.7522 57.0103 52.7522H66.4266C69.972 52.7522 76.5672 53.8974 80.9132 52.5231C84.6111 52.1032 87.5465 50.6527 87.699 46.7972C87.8134 43.2471 84.9923 27.5963 87.8896 24.3898C94.1417 15.2664 80.0364 10.2658 69.3239 10.2658C69.2477 10.2658 69.1714 10.2658 69.0952 10.2658Z" fill="#BE7916"/>
<path d="M68.9038 10.3049C68.1413 10.2667 67.3789 10.2285 66.6546 10.2285C54.1504 10.2285 40.7693 15.3055 48.432 24.7724C49.7281 27.1009 47.6695 41.6066 47.2883 48.5159C47.0214 53.3638 53.3879 52.7913 56.8189 52.7913H66.2352C69.7806 52.7913 76.3758 53.9364 80.7218 52.5622C84.4197 52.1423 87.3551 50.6917 87.5076 46.8363C87.622 43.2862 84.8009 27.6353 87.6982 24.4288C93.9503 15.3055 79.845 10.3049 69.1325 10.3049C69.0944 10.2667 68.98 10.2667 68.9038 10.3049Z" fill="#BF7A16"/>
<path d="M68.7514 10.3049C67.989 10.2667 67.2265 10.2285 66.5022 10.2285C53.998 10.2285 40.617 15.3055 48.2796 24.7724C49.5758 27.1009 47.5172 41.6066 47.136 48.5159C46.8691 53.3638 53.2356 52.7913 56.6666 52.7913H66.0829C69.6283 52.7913 76.2235 53.9364 80.5694 52.5622C84.2673 52.1423 87.2028 50.6917 87.3552 46.8363C87.4696 43.2862 84.6485 27.6353 87.5459 24.4288C93.798 15.3055 79.6926 10.3049 68.9802 10.3049C68.9039 10.3049 68.8277 10.3049 68.7514 10.3049Z" fill="#C07A16"/>
<path d="M68.5991 10.3049C67.8366 10.2667 67.0742 10.2285 66.3499 10.2285C53.8457 10.2285 40.4646 15.3055 48.1273 24.7724C49.4235 27.1009 47.3648 41.6066 46.9836 48.5159C46.7167 53.3638 53.0832 52.7913 56.5142 52.7913H65.9305C69.4759 52.7913 76.0711 53.9364 80.4171 52.5622C84.115 52.1423 87.0504 50.6917 87.2029 46.8363C87.3173 43.2862 84.4962 27.6353 87.3935 24.4288C93.6456 15.3055 79.5403 10.3049 68.8278 10.3049C68.7516 10.3049 68.6753 10.3049 68.5991 10.3049Z" fill="#C07A17"/>
<path d="M68.4077 10.3049C67.6452 10.2667 66.8828 10.2285 66.1585 10.2285C53.6543 10.2285 40.2732 15.3055 47.9359 24.7724C49.232 27.1009 47.1734 41.6066 46.7922 48.5159C46.5253 53.3638 52.8918 52.7913 56.3228 52.7913H65.7391C69.2845 52.7913 75.8797 53.9364 80.2257 52.5622C83.9236 52.1423 86.859 50.6917 87.0115 46.8363C87.1259 43.2862 84.3048 27.6353 87.2021 24.4288C93.4542 15.3055 79.3489 10.3049 68.6364 10.3049C68.5602 10.3049 68.4839 10.3049 68.4077 10.3049Z" fill="#C17B17"/>
<path d="M68.2554 10.3049C67.4929 10.2667 66.7305 10.2285 66.0061 10.2285C53.5019 10.2285 40.1209 15.3055 47.7835 24.7724C49.0797 27.1009 47.0211 41.6066 46.6399 48.5159C46.373 53.3638 52.7395 52.7913 56.1705 52.7913H65.5868C69.1322 52.7913 75.7274 53.9364 80.0734 52.5622C83.7712 52.1423 86.7067 50.6917 86.8592 46.8363C86.9735 43.2862 84.1525 27.6353 87.0498 24.4288C93.3019 15.3055 79.1965 10.3049 68.4841 10.3049C68.4078 10.3049 68.3316 10.3049 68.2554 10.3049Z" fill="#C17B17"/>
<path d="M68.0659 10.3049C67.3035 10.2667 66.541 10.2285 65.8167 10.2285C53.3125 10.2285 39.9314 15.3055 47.5941 24.7724C48.8902 27.1009 46.8316 41.6066 46.4504 48.5159C46.1835 53.3638 52.55 52.7913 55.981 52.7913H65.3973C68.9427 52.7913 75.5379 53.9364 79.8839 52.5622C83.5818 52.1423 86.5172 50.6917 86.6697 46.8363C86.7841 43.2862 83.963 27.6353 86.8603 24.4288C93.1124 15.3055 79.0071 10.3049 68.2946 10.3049C68.2565 10.3049 68.1803 10.3049 68.0659 10.3049Z" fill="#C27C17"/>
<path d="M67.9135 10.3049C67.1511 10.2667 66.3886 10.2285 65.6643 10.2285C53.1601 10.2285 39.7791 15.3055 47.4417 24.7724C48.7379 27.1009 46.6793 41.6066 46.2981 48.5159C46.0312 53.3638 52.3977 52.7913 55.8287 52.7913H65.245C68.7904 52.7913 75.3856 53.9364 79.7315 52.5622C83.4294 52.1423 86.3649 50.6917 86.5173 46.8363C86.6317 43.2862 83.8106 27.6353 86.708 24.4288C92.9601 15.3055 78.8547 10.3049 68.1423 10.3049C68.066 10.3049 67.9898 10.3049 67.9135 10.3049Z" fill="#C27C17"/>
<path d="M67.7612 10.3049C66.9987 10.2667 66.2363 10.2285 65.512 10.2285C53.0078 10.2285 39.6268 15.3055 47.2894 24.7724C48.5856 27.1009 46.5269 41.6066 46.1457 48.5159C45.8789 53.3638 52.2453 52.7913 55.6764 52.7913H65.0926C68.638 52.7913 75.2332 53.9364 79.5792 52.5622C83.2771 52.1423 86.2125 50.6917 86.365 46.8363C86.4794 43.2862 83.6583 27.6353 86.5556 24.4288C92.8077 15.3055 78.7024 10.3049 67.9899 10.3049C67.9137 10.3049 67.8374 10.3049 67.7612 10.3049Z" fill="#C37C17"/>
<path d="M67.5698 10.3439C66.8073 10.3058 66.0449 10.2676 65.3206 10.2676C52.8164 10.2676 39.4354 15.3446 47.098 24.8114C48.3942 27.14 46.3355 41.6457 45.9543 48.5549C45.6875 53.4029 52.0539 52.8303 55.4849 52.8303H64.9012C68.4466 52.8303 75.0418 53.9755 79.3878 52.6013C83.0857 52.1814 86.0211 50.7308 86.1736 46.8753C86.288 43.3253 83.4669 27.6744 86.3642 24.4679C92.6163 15.3446 78.511 10.3439 67.7985 10.3439C67.7223 10.3058 67.646 10.3058 67.5698 10.3439Z" fill="#C37D17"/>
<path d="M67.4175 10.3439C66.655 10.3058 65.8926 10.2676 65.1682 10.2676C52.664 10.2676 39.283 15.3446 46.9456 24.8114C48.2418 27.14 46.1832 41.6457 45.802 48.5549C45.5351 53.4029 51.9016 52.8303 55.3326 52.8303H64.7489C68.2943 52.8303 74.8895 53.9755 79.2355 52.6013C82.9333 52.1814 85.8688 50.7308 86.0213 46.8753C86.1356 43.3253 83.3146 27.6744 86.2119 24.4679C92.464 15.3446 78.3586 10.3439 67.6462 10.3439C67.5699 10.3439 67.4937 10.3439 67.4175 10.3439Z" fill="#C47D17"/>
<path d="M67.2651 10.3439C66.5027 10.3058 65.7402 10.2676 65.0159 10.2676C52.5117 10.2676 39.1307 15.3446 46.7933 24.8114C48.0895 27.14 46.0308 41.6457 45.6496 48.5549C45.3828 53.4029 51.7492 52.8303 55.1803 52.8303H64.5965C68.1419 52.8303 74.7371 53.9755 79.0831 52.6013C82.781 52.1814 85.7164 50.7308 85.8689 46.8753C85.9833 43.3253 83.1622 27.6744 86.0595 24.4679C92.3116 15.3446 78.2063 10.3439 67.4939 10.3439C67.4176 10.3439 67.3414 10.3439 67.2651 10.3439Z" fill="#C47E17"/>
<path d="M67.0737 10.3439C66.3113 10.3058 65.5488 10.2676 64.8245 10.2676C52.3203 10.2676 38.9393 15.3446 46.6019 24.8114C47.8981 27.14 45.8394 41.6457 45.4582 48.5549C45.1914 53.4029 51.5578 52.8303 54.9889 52.8303H64.4051C67.9505 52.8303 74.5457 53.9755 78.8917 52.6013C82.5896 52.1814 85.525 50.7308 85.6775 46.8753C85.7919 43.3253 82.9708 27.6744 85.8681 24.4679C92.1202 15.3446 78.0149 10.3439 67.3024 10.3439C67.2262 10.3439 67.15 10.3439 67.0737 10.3439Z" fill="#C57E18"/>
<path d="M66.9214 10.3439C66.1589 10.3058 65.3965 10.2676 64.6721 10.2676C52.1679 10.2676 38.7869 15.3446 46.4495 24.8114C47.7457 27.14 45.6871 41.6457 45.3059 48.5549C45.039 53.4029 51.4055 52.8303 54.8365 52.8303H64.2528C67.7982 52.8303 74.3934 53.9755 78.7393 52.6013C82.4372 52.1814 85.3727 50.7308 85.5252 46.8753C85.6395 43.3253 82.8185 27.6744 85.7158 24.4679C91.9679 15.3446 77.8625 10.3439 67.1501 10.3439C67.0739 10.3439 66.9976 10.3439 66.9214 10.3439Z" fill="#C57E18"/>
<path d="M66.73 10.3439C65.9675 10.3058 65.2051 10.2676 64.4807 10.2676C51.9765 10.2676 38.5955 15.3446 46.2581 24.8114C47.5543 27.14 45.4957 41.6457 45.1145 48.5549C44.8476 53.4029 51.2141 52.8303 54.6451 52.8303H64.0614C67.6068 52.8303 74.202 53.9755 78.548 52.6013C82.2459 52.1814 85.1813 50.7308 85.3338 46.8753C85.4482 43.3253 82.6271 27.6744 85.5244 24.4679C91.7765 15.3446 77.6712 10.3439 66.9587 10.3439C66.9206 10.3439 66.8443 10.3439 66.73 10.3439Z" fill="#C67F18"/>
<path d="M66.5776 10.3439C65.8152 10.3058 65.0527 10.2676 64.3284 10.2676C51.8242 10.2676 38.4432 15.3446 46.1058 24.8114C47.402 27.14 45.3433 41.6457 44.9621 48.5549C44.6953 53.4029 51.0617 52.8303 54.4928 52.8303H63.8709C67.4163 52.8303 74.0115 53.9755 78.3575 52.6013C82.0554 52.1814 84.9908 50.7308 85.1433 46.8753C85.2577 43.3253 82.4366 27.6744 85.3339 24.4679C91.586 15.3446 77.4807 10.3439 66.7682 10.3439C66.7301 10.3439 66.6539 10.3439 66.5776 10.3439Z" fill="#C67F18"/>
<path d="M66.4253 10.3439C65.6628 10.3058 64.9004 10.2676 64.176 10.2676C51.6718 10.2676 38.2908 15.3446 45.9535 24.8114C47.2496 27.14 45.191 41.6457 44.8098 48.5549C44.5429 53.4029 50.9094 52.8303 54.3404 52.8303H63.7567C67.3021 52.8303 73.8973 53.9755 78.2433 52.6013C81.9412 52.1814 84.8766 50.7308 85.0291 46.8753C85.1435 43.3253 82.3224 27.6744 85.2197 24.4679C91.4718 15.3446 77.3665 10.3439 66.654 10.3439C66.5778 10.3439 66.5015 10.3439 66.4253 10.3439Z" fill="#C78018"/>
<path d="M66.2358 10.381C65.4734 10.3429 64.7109 10.3047 63.9866 10.3047C51.4824 10.3047 38.1014 15.3817 45.764 24.8485C47.0602 27.1771 45.0016 41.6828 44.6203 48.5921C44.3535 53.44 50.7199 52.8674 54.151 52.8674H63.5672C67.1126 52.8674 73.7078 54.0126 78.0538 52.6384C81.7517 52.2185 84.6871 50.7679 84.8396 46.9124C84.954 43.3624 82.1329 27.7115 85.0302 24.505C91.2823 15.3817 77.177 10.381 66.4645 10.381C66.3883 10.3429 66.3121 10.3429 66.2358 10.381Z" fill="#C88018"/>
<path d="M66.0834 10.381C65.3209 10.3429 64.5584 10.3047 63.8341 10.3047C51.2918 10.3047 37.9489 15.3817 45.6115 24.8485C46.9077 27.1771 44.8491 41.6828 44.4679 48.5921C44.201 53.44 50.5675 52.8674 53.9985 52.8674H63.4148C66.9602 52.8674 73.5554 54.0126 77.9013 52.6384C81.5992 52.2185 84.5347 50.7679 84.6872 46.9124C84.8015 43.3624 81.9805 27.7115 84.8778 24.505C91.1299 15.3817 77.0245 10.381 66.3121 10.381C66.2358 10.381 66.1596 10.381 66.0834 10.381Z" fill="#C88018"/>
<path d="M65.8921 10.381C65.1296 10.3429 64.3672 10.3047 63.6428 10.3047C51.1386 10.3047 37.7576 15.3817 45.4203 24.8485C46.7164 27.1771 44.6578 41.6828 44.2766 48.5921C44.0097 53.44 50.3762 52.8674 53.8072 52.8674H63.2235C66.7689 52.8674 73.3641 54.0126 77.7101 52.6384C81.4079 52.2185 84.3434 50.7679 84.4959 46.9124C84.6102 43.3624 81.7892 27.7115 84.6865 24.505C90.9386 15.3817 76.8332 10.381 66.1208 10.381C66.0827 10.381 66.0064 10.381 65.8921 10.381Z" fill="#C98118"/>
<path d="M65.7397 10.381C64.9773 10.3429 64.2148 10.3047 63.4905 10.3047C50.9863 10.3047 37.6053 15.3817 45.2679 24.8485C46.5641 27.1771 44.5055 41.6828 44.1242 48.5921C43.8574 53.44 50.2238 52.8674 53.6549 52.8674H63.0711C66.6165 52.8674 73.2117 54.0126 77.5577 52.6384C81.2556 52.2185 84.191 50.7679 84.3435 46.9124C84.4579 43.3624 81.6368 27.7115 84.5341 24.505C90.7862 15.3817 76.6809 10.381 65.9685 10.381C65.8922 10.381 65.816 10.381 65.7397 10.381Z" fill="#C98118"/>
<path d="M65.5874 10.381C64.8249 10.3429 64.0625 10.3047 63.3381 10.3047C50.8339 10.3047 37.4529 15.3817 45.1156 24.8485C46.4117 27.1771 44.3531 41.6828 43.9719 48.5921C43.705 53.44 50.0715 52.8674 53.5025 52.8674H62.9188C66.4642 52.8674 73.0594 54.0126 77.4054 52.6384C81.1033 52.2185 84.0387 50.7679 84.1912 46.9124C84.3056 43.3624 81.4845 27.7115 84.3818 24.505C90.6339 15.3817 76.5286 10.381 65.8161 10.381C65.7399 10.381 65.6636 10.381 65.5874 10.381Z" fill="#CA8218"/>
<path d="M65.396 10.381C64.6335 10.3429 63.8711 10.3047 63.1467 10.3047C50.6425 10.3047 37.2615 15.3817 44.9242 24.8485C46.2203 27.1771 44.1617 41.6828 43.7805 48.5921C43.5136 53.44 49.8801 52.8674 53.3111 52.8674H62.7274C66.2728 52.8674 72.868 54.0126 77.214 52.6384C80.9118 52.2185 83.8473 50.7679 83.9998 46.9124C84.1141 43.3624 81.2931 27.7115 84.1904 24.505C90.4425 15.3817 76.3371 10.381 65.6247 10.381C65.5866 10.381 65.5103 10.381 65.396 10.381Z" fill="#CA8219"/>
<path d="M65.2436 10.381C64.4812 10.3429 63.7187 10.3047 62.9944 10.3047C50.4902 10.3047 37.1092 15.3817 44.7718 24.8485C46.068 27.1771 44.0094 41.6828 43.6281 48.5921C43.3613 53.44 49.7277 52.8674 53.1588 52.8674H62.5751C66.1205 52.8674 72.7157 54.0126 77.0616 52.6384C80.7595 52.2185 83.695 50.7679 83.8475 46.9124C83.9618 43.3624 81.1408 27.7115 84.0381 24.505C90.2902 15.3817 76.1848 10.381 65.4724 10.381C65.3961 10.381 65.3199 10.381 65.2436 10.381Z" fill="#CB8219"/>
<path d="M65.0913 10.381C64.3288 10.3429 63.5664 10.3047 62.8421 10.3047C50.3379 10.3047 36.9568 15.3817 44.6195 24.8485C45.9156 27.1771 43.857 41.6828 43.4758 48.5921C43.2089 53.44 49.5754 52.8674 53.0064 52.8674H62.4227C65.9681 52.8674 72.5633 54.0126 76.9093 52.6384C80.6072 52.2185 83.5426 50.7679 83.6951 46.9124C83.8095 43.3624 80.9884 27.7115 83.8857 24.505C90.1378 15.3817 76.0325 10.381 65.32 10.381C65.2438 10.381 65.1675 10.381 65.0913 10.381Z" fill="#CB8319"/>
<path d="M64.8999 10.4201C64.1374 10.3819 63.375 10.3438 62.6506 10.3438C50.1464 10.3438 36.7654 15.4207 44.4281 24.8876C45.7242 27.2161 43.6656 41.7218 43.2844 48.6311C43.0175 53.4791 49.384 52.9065 52.815 52.9065H62.2313C65.7767 52.9065 72.3719 54.0517 76.7179 52.6774C80.4157 52.2575 83.3512 50.807 83.5037 46.9515C83.618 43.4014 80.797 27.7506 83.6943 24.5441C89.9464 15.4207 75.841 10.4201 65.1286 10.4201C65.0524 10.3819 64.9761 10.3819 64.8999 10.4201Z" fill="#CC8319"/>
<path d="M64.7475 10.4201C63.9851 10.3819 63.2226 10.3438 62.4983 10.3438C49.9941 10.3438 36.6131 15.4207 44.2757 24.8876C45.5719 27.2161 43.5133 41.7218 43.132 48.6311C42.8652 53.4791 49.2317 52.9065 52.6627 52.9065H62.079C65.6244 52.9065 72.2196 54.0517 76.5655 52.6774C80.2634 52.2575 83.1989 50.807 83.3514 46.9515C83.4657 43.4014 80.6447 27.7506 83.542 24.5441C89.7941 15.4207 75.6887 10.4201 64.9763 10.4201C64.9 10.4201 64.8238 10.4201 64.7475 10.4201Z" fill="#CC8419"/>
<path d="M64.5581 10.4201C63.7956 10.3819 63.0332 10.3438 62.3089 10.3438C49.8047 10.3438 36.4236 15.4207 44.0863 24.8876C45.3824 27.2161 43.3238 41.7218 42.9426 48.6311C42.6757 53.4791 49.0422 52.9065 52.4732 52.9065H61.8895C65.4349 52.9065 72.0301 54.0517 76.3761 52.6774C80.074 52.2575 83.0094 50.807 83.1619 46.9515C83.2763 43.4014 80.4552 27.7506 83.3525 24.5441C89.6046 15.4207 75.4993 10.4201 64.7868 10.4201C64.7487 10.4201 64.6725 10.4201 64.5581 10.4201Z" fill="#CD8419"/>
<path d="M64.4057 10.4201C63.6433 10.3819 62.8808 10.3438 62.1565 10.3438C49.6523 10.3438 36.2713 15.4207 43.9339 24.8876C45.2301 27.2161 43.1715 41.7218 42.7902 48.6311C42.5234 53.4791 48.8899 52.9065 52.3209 52.9065H61.7372C65.2826 52.9065 71.8778 54.0517 76.2237 52.6774C79.9216 52.2575 82.8571 50.807 83.0096 46.9515C83.1239 43.4014 80.3029 27.7506 83.2002 24.5441C89.4523 15.4207 75.3469 10.4201 64.6345 10.4201C64.5582 10.4201 64.482 10.4201 64.4057 10.4201Z" fill="#CD8519"/>
<path d="M64.2534 10.4201C63.4909 10.3819 62.7285 10.3438 62.0042 10.3438C49.5 10.3438 36.1189 15.4207 43.7816 24.8876C45.0777 27.2161 43.0191 41.7218 42.6379 48.6311C42.371 53.4791 48.7375 52.9065 52.1685 52.9065H61.5848C65.1302 52.9065 71.7254 54.0517 76.0714 52.6774C79.7693 52.2575 82.7047 50.807 82.8572 46.9515C82.9716 43.4014 80.1505 27.7506 83.0478 24.5441C89.2999 15.4207 75.1946 10.4201 64.4821 10.4201C64.4059 10.4201 64.3296 10.4201 64.2534 10.4201Z" fill="#CE8519"/>
<path d="M64.062 10.4201C63.2995 10.3819 62.5371 10.3438 61.8128 10.3438C49.3086 10.3438 35.9275 15.4207 43.5902 24.8876C44.8863 27.2161 42.8277 41.7218 42.4465 48.6311C42.1796 53.4791 48.5461 52.9065 51.9771 52.9065H61.3934C64.9388 52.9065 71.534 54.0517 75.88 52.6774C79.5779 52.2575 82.5133 50.807 82.6658 46.9515C82.7802 43.4014 79.9591 27.7506 82.8564 24.5441C89.1085 15.4207 75.0032 10.4201 64.2907 10.4201C64.2145 10.4201 64.1382 10.4201 64.062 10.4201Z" fill="#CF8519"/>
<path d="M63.9097 10.4201C63.1472 10.3819 62.3848 10.3438 61.6604 10.3438C49.1562 10.3438 35.7752 15.4207 43.4378 24.8876C44.734 27.2161 42.6754 41.7218 42.2942 48.6311C42.0273 53.4791 48.3938 52.9065 51.8248 52.9065H61.203C64.7484 52.9065 71.3436 54.0517 75.6895 52.6774C79.3874 52.2575 82.3229 50.807 82.4754 46.9515C82.5897 43.4014 79.7686 27.7506 82.666 24.5441C88.9181 15.4207 74.8127 10.4201 64.1003 10.4201C64.0621 10.4201 63.9859 10.4201 63.9097 10.4201Z" fill="#CF861A"/>
<path d="M63.7573 10.4201C62.9948 10.3819 62.2324 10.3438 61.5081 10.3438C49.0039 10.3438 35.6229 15.4207 43.2855 24.8876C44.5817 27.2161 42.523 41.7218 42.1418 48.6311C41.875 53.4791 48.2414 52.9065 51.6724 52.9065H61.0887C64.6341 52.9065 71.2293 54.0517 75.5753 52.6774C79.2732 52.2575 82.2086 50.807 82.3611 46.9515C82.4755 43.4014 79.6544 27.7506 82.5517 24.5441C88.8038 15.4207 74.6985 10.4201 63.986 10.4201C63.9098 10.4201 63.8335 10.4201 63.7573 10.4201Z" fill="#D0861A"/>
<path d="M63.5679 10.4572C62.8054 10.419 62.043 10.3809 61.3186 10.3809C48.8144 10.3809 35.4334 15.4578 43.096 24.9247C44.3922 27.2533 42.3336 41.7589 41.9524 48.6682C41.6855 53.5162 48.052 52.9436 51.483 52.9436H60.8993C64.4447 52.9436 71.0399 54.0888 75.3859 52.7145C79.0838 52.2946 82.0192 50.8441 82.1717 46.9886C82.2861 43.4385 79.465 27.7877 82.3623 24.5812C88.6144 15.4578 74.509 10.4572 63.7966 10.4572C63.7204 10.419 63.6441 10.419 63.5679 10.4572Z" fill="#D0871A"/>
<path d="M63.4151 10.4572C62.6527 10.419 61.8902 10.3809 61.1659 10.3809C48.6236 10.3809 35.2807 15.4578 42.9052 24.9247C44.2013 27.2533 42.1427 41.7589 41.7615 48.6682C41.4946 53.5162 47.8611 52.9436 51.2921 52.9436H60.7084C64.2538 52.9436 70.849 54.0888 75.195 52.7145C78.8929 52.2946 81.8283 50.8441 81.9808 46.9886C82.0952 43.4385 79.2741 27.7877 82.1714 24.5812C88.4235 15.4578 74.3182 10.4572 63.6057 10.4572C63.5676 10.4572 63.4914 10.4572 63.4151 10.4572Z" fill="#D1871A"/>
<path d="M63.2241 10.4572C62.4616 10.419 61.6992 10.3809 60.9749 10.3809C48.4707 10.3809 35.0897 15.4578 42.7523 24.9247C44.0484 27.2533 41.9898 41.7589 41.6086 48.6682C41.3417 53.5162 47.7082 52.9436 51.1392 52.9436H60.5555C64.1009 52.9436 70.6961 54.0888 75.0421 52.7145C78.74 52.2946 81.6754 50.8441 81.8279 46.9886C81.9423 43.4385 79.1212 27.7877 82.0185 24.5812C88.2706 15.4578 74.1653 10.4572 63.4528 10.4572C63.4147 10.4572 63.3385 10.4572 63.2241 10.4572Z" fill="#D1871A"/>
<path d="M63.0718 10.4572C62.3093 10.419 61.5469 10.3809 60.8225 10.3809C48.3183 10.3809 34.9373 15.4578 42.5999 24.9247C43.8961 27.2533 41.8375 41.7589 41.4563 48.6682C41.1894 53.5162 47.5559 52.9436 50.9869 52.9436H60.4032C63.9486 52.9436 70.5438 54.0888 74.8898 52.7145C78.5876 52.2946 81.5231 50.8441 81.6756 46.9886C81.7899 43.4385 78.9689 27.7877 81.8662 24.5812C88.1183 15.4578 74.0129 10.4572 63.3005 10.4572C63.2242 10.4572 63.148 10.4572 63.0718 10.4572Z" fill="#D2881A"/>
<path d="M62.9194 10.4572C62.157 10.419 61.3945 10.3809 60.6702 10.3809C48.166 10.3809 34.785 15.4578 42.4476 24.9247C43.7438 27.2533 41.6851 41.7589 41.3039 48.6682C41.0371 53.5162 47.4035 52.9436 50.8346 52.9436H60.2508C63.7962 52.9436 70.3914 54.0888 74.7374 52.7145C78.4353 52.2946 81.3707 50.8441 81.5232 46.9886C81.6376 43.4385 78.8165 27.7877 81.7138 24.5812C87.9659 15.4578 73.8606 10.4572 63.1482 10.4572C63.0719 10.4572 62.9957 10.4572 62.9194 10.4572Z" fill="#D2881A"/>
<path d="M62.728 10.4572C61.9656 10.419 61.2031 10.3809 60.4788 10.3809C47.9746 10.3809 34.5936 15.4578 42.2562 24.9247C43.5524 27.2533 41.4937 41.7589 41.1125 48.6682C40.8457 53.5162 47.2121 52.9436 50.6432 52.9436H60.0594C63.6048 52.9436 70.2 54.0888 74.546 52.7145C78.2439 52.2946 81.1793 50.8441 81.3318 46.9886C81.4462 43.4385 78.6251 27.7877 81.5224 24.5812C87.7745 15.4578 73.6692 10.4572 62.9567 10.4572C62.8805 10.4572 62.8043 10.4572 62.728 10.4572Z" fill="#D3891A"/>
<path d="M62.5757 10.4572C61.8132 10.419 61.0507 10.3809 60.3264 10.3809C47.8222 10.3809 34.4412 15.4578 42.1038 24.9247C43.4 27.2533 41.3414 41.7589 40.9602 48.6682C40.6933 53.5162 47.0598 52.9436 50.4908 52.9436H59.9071C63.4525 52.9436 70.0477 54.0888 74.3936 52.7145C78.0915 52.2946 81.027 50.8441 81.1795 46.9886C81.2938 43.4385 78.4728 27.7877 81.3701 24.5812C87.6222 15.4578 73.5168 10.4572 62.8044 10.4572C62.7281 10.4572 62.6519 10.4572 62.5757 10.4572Z" fill="#D3891A"/>
<path d="M62.4233 10.4572C61.6609 10.419 60.8984 10.3809 60.1741 10.3809C47.6699 10.3809 34.2889 15.4578 41.9515 24.9247C43.2477 27.2533 41.1891 41.7589 40.8078 48.6682C40.541 53.5162 46.9074 52.9436 50.3385 52.9436H59.7547C63.3001 52.9436 69.8953 54.0888 74.2413 52.7145C77.9392 52.2946 80.8746 50.8441 81.0271 46.9886C81.1415 43.4385 78.3204 27.7877 81.2177 24.5812C87.4698 15.4578 73.3645 10.4572 62.6521 10.4572C62.5758 10.4572 62.4996 10.4572 62.4233 10.4572Z" fill="#D4891B"/>
<path d="M62.2319 10.4963C61.4695 10.4581 60.707 10.4199 59.9827 10.4199C47.4785 10.4199 34.0975 15.4969 41.7601 24.9638C43.0563 27.2923 40.9976 41.798 40.6164 48.7073C40.3496 53.5552 46.716 52.9826 50.1471 52.9826H59.5633C63.1087 52.9826 69.7039 54.1278 74.0499 52.7536C77.7478 52.3337 80.6832 50.8831 80.8357 47.0277C80.9501 43.4776 78.129 27.8267 81.0263 24.6202C87.2784 15.4969 73.1731 10.4963 62.4606 10.4963C62.3844 10.4581 62.3081 10.4581 62.2319 10.4963Z" fill="#D48A1B"/>
<path d="M62.0796 10.4963C61.3171 10.4581 60.5547 10.4199 59.8303 10.4199C47.3261 10.4199 33.9451 15.4969 41.6078 24.9638C42.9039 27.2923 40.8453 41.798 40.4641 48.7073C40.1972 53.5552 46.5637 52.9826 49.9947 52.9826H59.411C62.9564 52.9826 69.5516 54.1278 73.8976 52.7536C77.5955 52.3337 80.5309 50.8831 80.6834 47.0277C80.7978 43.4776 77.9767 27.8267 80.874 24.6202C87.1261 15.4969 73.0208 10.4963 62.3083 10.4963C62.2321 10.4963 62.1558 10.4963 62.0796 10.4963Z" fill="#D58A1B"/>
<path d="M61.8882 10.4963C61.1257 10.4581 60.3633 10.4199 59.6389 10.4199C47.1347 10.4199 33.7537 15.4969 41.4163 24.9638C42.7125 27.2923 40.6539 41.798 40.2727 48.7073C40.0058 53.5552 46.3723 52.9826 49.8033 52.9826H59.2196C62.765 52.9826 69.3602 54.1278 73.7062 52.7536C77.404 52.3337 80.3395 50.8831 80.492 47.0277C80.6063 43.4776 77.7853 27.8267 80.6826 24.6202C86.9347 15.4969 72.8293 10.4963 62.1169 10.4963C62.0788 10.4963 62.0025 10.4963 61.8882 10.4963Z" fill="#D58B1B"/>
<path d="M40.0832 48.7444C39.8164 53.5924 46.1828 53.0198 49.6139 53.0198H59.0301C62.5755 53.0198 69.1707 54.1649 73.5167 52.7907C77.2146 52.3708 80.1882 50.9203 80.3025 47.0648C80.455 43.5147 77.5958 27.8639 80.4931 24.6573C86.7452 15.534 72.6399 10.5334 61.9275 10.5334C61.8512 10.5334 61.775 10.5334 61.6987 10.5334C60.9363 10.4952 60.1738 10.457 59.4495 10.457C46.9453 10.457 33.5643 15.534 41.2269 25.0009C42.5231 27.2913 40.5026 41.7969 40.0832 48.7444Z" fill="#D68B1B"/>
<path d="M35.966 49.6995C35.6992 54.5474 42.0656 53.9748 45.4967 53.9748H54.9129C58.4583 53.9748 65.0535 55.12 69.3995 53.7458C73.0974 53.3259 76.071 51.8753 76.1853 48.0199C76.3378 44.4698 73.4786 28.8189 76.3759 25.6124C82.628 16.4891 68.5227 11.4885 57.8103 11.4885C57.734 11.4885 57.6578 11.4885 57.5815 11.4885C56.8191 11.4503 56.0566 11.4121 55.3323 11.4121C42.8281 11.4121 29.4471 16.4891 37.1097 25.956C38.4059 28.2845 36.3854 42.7902 35.966 49.6995ZM40.007 25.078L39.8926 24.8871L39.702 24.6963C37.4147 21.6806 38.2534 19.2375 38.5202 18.7413C40.1595 15.5729 47.784 13.4353 56.2091 13.7407C56.3616 13.7407 56.5141 13.7407 56.6284 13.7788C64.1005 14.1224 71.3819 17.0235 72.983 20.2682C73.2118 20.7645 73.9361 22.215 72.1443 24.6963C69.7045 27.4447 69.9332 34.2776 70.5051 42.8665C70.6575 44.966 70.7719 46.9892 70.7338 47.829C70.6957 48.6306 70.5813 50.0049 68.3321 50.7683C67.2265 51.15 65.5873 51.3791 63.1474 51.2646C61.47 51.1882 59.6783 50.9974 58.1152 50.8447C56.7809 50.692 55.5229 50.5774 54.4555 50.5393L45.3061 50.2339C45.0011 50.2339 44.658 50.1957 44.3149 50.1957C43.9718 50.1957 43.5905 50.1957 43.1712 50.1575C40.5789 50.0812 38.9777 49.6995 38.444 49.0887C38.444 49.0887 38.4059 49.0505 38.4059 49.0124C38.3296 48.8978 38.1771 48.6306 38.2534 48.058C38.444 46.1494 38.7871 43.5918 39.1302 40.9197C39.1683 40.7289 39.1683 40.538 39.2064 40.309V40.2708C40.5407 30.8039 40.9982 27.063 40.007 25.078Z" fill="#D68B1B"/>
<path d="M69.4 53.7847C73.0979 53.3648 76.0715 51.9142 76.1859 48.0588C76.3383 44.5087 73.4792 28.8578 76.3765 25.6513C82.6286 16.528 68.5232 11.5273 57.8108 11.5273C57.7345 11.5273 57.6583 11.5273 57.582 11.5273C65.1684 11.9854 73.5554 14.8102 75.1565 19.7345C75.6903 21.3378 75.4615 23.1319 74.2797 25.1551C74.2035 25.3077 74.0891 25.4986 73.9747 25.6513C73.9366 25.6895 73.8985 25.7658 73.8604 25.804C72.4498 27.3691 72.3736 31.8353 72.6786 36.4542C72.6786 36.4924 72.6786 36.4924 72.6786 36.5306C72.9836 41.5312 73.746 46.6845 73.6698 48.555C73.6316 51.4562 71.878 53.0212 69.4 53.7847Z" fill="#915A10"/>
<path d="M38.292 48.097C38.2158 48.7841 38.4445 49.0132 38.5208 49.0895C39.0545 49.7003 40.6556 50.082 43.248 50.1583C43.6292 50.1583 44.0104 50.1965 44.3917 50.1965C44.7348 50.1965 45.0779 50.1965 45.3828 50.2347L54.5323 50.5401C55.5616 50.5782 56.8577 50.6928 58.192 50.8454C59.755 50.9981 61.5087 51.189 63.2242 51.2654C70.5437 51.5326 70.7343 49.0132 70.8106 47.8298C70.8868 46.99 70.7343 45.005 70.5819 42.8673C70.01 34.2403 69.7813 27.4073 72.2211 24.6971C74.0129 22.2158 73.2886 20.7652 73.0598 20.269C71.3824 16.9098 63.8723 14.0087 56.2478 13.7414C47.8227 13.4361 40.1982 15.6119 38.5589 18.7421C38.292 19.2383 37.4533 21.6814 39.7407 24.6971L39.9313 24.8879L40.0457 25.0788C41.075 27.0638 40.5413 30.9574 39.207 40.9587C38.8258 43.669 38.4827 46.2265 38.292 48.097Z" fill="#FECC75"/>
<path d="M55.4844 24.3895C55.4844 25.3056 56.2087 26.0309 57.1237 26.0309C58.0386 26.0309 58.7629 25.3056 58.7629 24.3895C58.7629 23.4733 58.0386 22.748 57.1237 22.748C56.2087 22.748 55.4844 23.4733 55.4844 24.3895Z" fill="#E4A84F"/>
<path d="M51.2148 28.9719C51.2148 29.5063 51.6342 29.9262 52.1679 29.9262C52.7016 29.9262 53.121 29.5063 53.121 28.9719C53.121 28.4375 52.7016 28.0176 52.1679 28.0176C51.6342 28.0176 51.2148 28.4375 51.2148 28.9719Z" fill="#E4A84F"/>
<path d="M50.0723 37.1022C50.0723 37.713 50.5679 38.2474 51.2159 38.2474C51.8259 38.2474 52.3596 37.7512 52.3596 37.1022C52.3596 36.4915 51.864 35.957 51.2159 35.957C50.5679 35.957 50.0723 36.4915 50.0723 37.1022Z" fill="#E4A84F"/>
<path d="M62.3848 43.898C62.3848 44.4324 62.8041 44.8523 63.3378 44.8523C63.8715 44.8523 64.2909 44.4324 64.2909 43.898C64.2909 43.3635 63.8715 42.9436 63.3378 42.9436C62.8041 42.9055 62.3848 43.3635 62.3848 43.898Z" fill="#E4A84F"/>
<path d="M59.6016 26.9866C59.6016 27.292 59.8303 27.5592 60.1734 27.5592C60.4784 27.5592 60.7452 27.3302 60.7452 26.9866C60.7452 26.6813 60.5165 26.4141 60.1734 26.4141C59.8684 26.4522 59.6016 26.6813 59.6016 26.9866Z" fill="#E4A84F"/>
<path d="M45.916 19.2375C45.916 20.23 46.7166 21.0316 47.7078 21.0316C48.699 21.0316 49.4995 20.23 49.4995 19.2375C49.4995 18.245 48.699 17.4434 47.7078 17.4434C46.7166 17.4434 45.916 18.245 45.916 19.2375Z" fill="#E4A84F"/>
<path d="M44.3906 26.4508C44.3906 26.8325 44.6956 27.1379 45.0768 27.1379C45.4581 27.1379 45.763 26.8325 45.763 26.4508C45.763 26.0691 45.4581 25.7637 45.0768 25.7637C44.7337 25.7637 44.3906 26.0691 44.3906 26.4508Z" fill="#E4A84F"/>
<path d="M42.752 43.898C42.752 44.4324 43.1713 44.8523 43.705 44.8523C44.2387 44.8523 44.6581 44.4324 44.6581 43.898C44.6581 43.3635 44.2387 42.9436 43.705 42.9436C43.1713 42.9055 42.752 43.3635 42.752 43.898Z" fill="#E4A84F"/>
<path d="M65.0156 21.0328C65.0156 21.4145 65.3206 21.7199 65.7018 21.7199C66.0831 21.7199 66.388 21.4145 66.388 21.0328C66.388 20.6511 66.0831 20.3457 65.7018 20.3457C65.3206 20.3457 65.0156 20.6511 65.0156 21.0328Z" fill="#E4A84F"/>
<path d="M59.0312 18.6647C59.0312 19.2755 59.5268 19.8099 60.1749 19.8099C60.7849 19.8099 61.3186 19.3137 61.3186 18.6647C61.3186 18.054 60.823 17.5195 60.1749 17.5195C59.565 17.5195 59.0312 18.054 59.0312 18.6647Z" fill="#E4A84F"/>
<path d="M65.0156 28.9699C65.0156 29.7334 65.6256 30.3441 66.388 30.3441C67.1505 30.3441 67.7604 29.7334 67.7604 28.9699C67.7604 28.2065 67.1505 27.5957 66.388 27.5957C65.6256 27.5957 65.0156 28.2065 65.0156 28.9699Z" fill="#E4A84F"/>
<path d="M59.373 38.2469C59.373 38.705 59.7162 39.0486 60.1736 39.0486C60.6311 39.0486 60.9742 38.705 60.9742 38.2469C60.9742 37.7889 60.6311 37.4453 60.1736 37.4453C59.7162 37.4453 59.373 37.7889 59.373 38.2469Z" fill="#E4A84F"/>
<path d="M51.9766 46.2633C51.9766 46.874 52.4722 47.3703 53.0821 47.3703C53.6921 47.3703 54.1877 46.874 54.1877 46.2633C54.1877 45.6525 53.6921 45.1562 53.0821 45.1562C52.4722 45.1562 51.9766 45.6525 51.9766 46.2633Z" fill="#E4A84F"/>
<path d="M65.2812 48.5541C65.2812 48.8977 65.5481 49.1649 65.8912 49.1649C66.2343 49.1649 66.5012 48.8977 66.5012 48.5541C66.5012 48.2106 66.2343 47.9434 65.8912 47.9434C65.5481 47.9434 65.2812 48.2106 65.2812 48.5541Z" fill="#E4A84F"/>
<path d="M33.6399 73.5967C36.8041 77.2994 40.9975 72.4897 43.5136 70.0848L50.2994 63.5572C52.8537 61.1142 58.4196 57.3732 60.6307 53.3651C62.9943 50.5021 64.1379 47.4101 61.5837 44.509C59.2201 41.8369 46.3347 32.5227 46.2203 28.171C44.4286 17.2536 30.7807 23.3994 23.0418 30.8049C23.0037 30.8431 22.9274 30.9194 22.8893 30.9576C22.3175 31.4539 21.7456 31.9501 21.2119 32.4463C12.1769 41.1116 6.00103 54.0522 18.0859 55.5791C20.602 56.4189 29.1414 68.2907 33.6399 73.5967ZM19.5345 52.9833L19.3058 52.907H19.0771C15.3411 52.2962 14.2736 49.9295 14.1211 49.4333C13.1299 45.9977 17.1328 39.2029 23.423 33.5534C23.5374 33.477 23.6518 33.3625 23.7661 33.248C29.4083 28.3237 36.6516 25.3462 40.0826 26.6059C40.5782 26.7968 42.1031 27.3312 42.5606 30.385C42.6749 34.0496 47.5927 38.8212 53.9592 44.6617C55.5222 46.0741 56.9709 47.4483 57.5427 48.0972C58.0764 48.708 58.9533 49.7768 57.8477 51.8763C57.314 52.907 56.2847 54.2049 54.4548 55.8463C53.1968 56.9915 51.7862 58.0603 50.5282 59.0147C49.4607 59.8545 48.4696 60.6179 47.669 61.305L40.845 67.4127C40.6163 67.6035 40.3876 67.8326 40.1207 68.0616C39.8539 68.2907 39.587 68.5579 39.282 68.8251C37.3378 70.5429 35.9272 71.4208 35.1267 71.3445C35.0885 71.3445 35.0885 71.3445 35.0504 71.3445C34.8979 71.3063 34.6311 71.23 34.288 70.7719C33.1062 69.2831 31.5813 67.1836 29.9801 65.0078C29.8658 64.8551 29.7514 64.6642 29.637 64.5115C29.637 64.5115 29.637 64.4734 29.5989 64.4734C23.8805 56.7624 21.6313 53.7086 19.5345 52.9833Z" fill="#D68B1B"/>
<path d="M34.2117 70.8104C34.631 71.3448 34.936 71.383 35.0504 71.383C35.8891 71.4593 37.2615 70.6195 39.2057 68.8636C39.5107 68.5964 39.7776 68.3292 40.0444 68.1001C40.3113 67.8711 40.54 67.6421 40.7687 67.4512L47.5927 61.3435C48.3932 60.6564 49.3844 59.8548 50.4519 59.0532C51.7099 58.0988 53.1204 56.9918 54.3785 55.8848C59.83 50.9987 58.2289 49.0519 57.4664 48.1357C56.9327 47.4868 55.4459 46.1507 53.8829 44.7002C47.5164 38.8597 42.6367 34.1263 42.4843 30.4235C42.0649 27.4079 40.54 26.8353 40.0063 26.6444C36.499 25.3847 29.027 28.4767 23.3467 33.5537C17.0565 39.1651 13.0536 45.998 14.0448 49.4336C14.1973 49.968 15.2648 52.3347 19.0008 52.9073H19.2295L19.4582 52.9837C21.5931 53.709 23.8804 56.8773 29.8276 65.0081C31.505 67.2222 33.0299 69.3217 34.2117 70.8104Z" fill="#FECC75"/>
<path d="M30.2467 41.7985C30.8948 42.4475 31.9241 42.4856 32.5722 41.8367C33.2203 41.1878 33.2584 40.1571 32.6103 39.5082C31.9622 38.8592 30.9329 38.8211 30.2848 39.47C29.6368 40.0808 29.5986 41.1114 30.2467 41.7985Z" fill="#E4A84F"/>
<path d="M30.3242 48.0598C30.6673 48.4416 31.2773 48.4416 31.6585 48.098C32.0397 47.7544 32.0397 47.1437 31.6966 46.762C31.3535 46.3802 30.7436 46.3802 30.3623 46.7238C29.9811 47.0673 29.943 47.6781 30.3242 48.0598Z" fill="#E4A84F"/>
<path d="M48.6993 51.0746C49.0805 51.4563 49.6905 51.4563 50.0717 51.1127C50.4529 50.731 50.4529 50.1202 50.1098 49.7385C49.7286 49.3568 49.1186 49.3568 48.7374 49.7003C48.3181 50.0821 48.3181 50.6928 48.6993 51.0746Z" fill="#E4A84F"/>
<path d="M35.0121 40.8054C35.2408 41.0345 35.5839 41.0345 35.8127 40.8054C36.0414 40.5764 36.0414 40.2328 35.8127 40.0038C35.5839 39.7748 35.2408 39.7748 35.0121 40.0038C34.8215 40.2328 34.8215 40.5764 35.0121 40.8054Z" fill="#E4A84F"/>
<path d="M19.801 44.6991C20.4872 45.4244 21.6309 45.4244 22.3552 44.7373C23.0795 44.0502 23.0795 42.905 22.3933 42.1797C21.7071 41.4544 20.5635 41.4544 19.8391 42.1415C19.1148 42.8286 19.1148 43.9738 19.801 44.6991Z" fill="#E4A84F"/>
<path d="M23.6526 50.9229C23.9195 51.1901 24.3389 51.1901 24.6438 50.9611C24.9107 50.6939 24.9107 50.2739 24.682 49.9686C24.4151 49.7013 23.9957 49.6632 23.6908 49.9304C23.3858 50.2358 23.3858 50.6557 23.6526 50.9229Z" fill="#E4A84F"/>
<path d="M34.8226 32.7516C35.0894 33.0188 35.5088 33.0188 35.8138 32.7897C36.0806 32.5225 36.0806 32.1026 35.8519 31.7973C35.585 31.53 35.1657 31.53 34.8607 31.7591C34.5557 32.0645 34.5557 32.4844 34.8226 32.7516Z" fill="#E4A84F"/>
<path d="M28.8371 35.1948C29.2565 35.6529 29.9808 35.6529 30.4383 35.233C30.8957 34.8131 30.8957 34.0878 30.4764 33.6297C30.057 33.1717 29.3327 33.1717 28.8752 33.5916C28.4559 34.0115 28.4178 34.7367 28.8371 35.1948Z" fill="#E4A84F"/>
<path d="M40.2724 38.4775C40.8061 39.0119 41.6829 39.0501 42.2166 38.5157C42.7503 37.9812 42.7885 37.1033 42.2547 36.5689C41.721 36.0344 40.8442 35.9963 40.3105 36.5307C39.7768 37.0651 39.7386 37.9431 40.2724 38.4775Z" fill="#E4A84F"/>
<path d="M42.5992 49.0885C42.9042 49.3938 43.3998 49.432 43.7429 49.1266C44.0479 48.8212 44.086 48.325 43.781 47.9814C43.4761 47.6761 42.9805 47.6379 42.6374 47.9433C42.3324 48.2486 42.2943 48.7831 42.5992 49.0885Z" fill="#E4A84F"/>
<path d="M53.9977 52.4503C54.2265 52.6793 54.6077 52.6793 54.8364 52.4503C55.0652 52.2212 55.0652 51.8395 54.8364 51.6105C54.6077 51.3814 54.2265 51.3814 53.9977 51.5723C53.769 51.8395 53.769 52.2212 53.9977 52.4503Z" fill="#E4A84F"/>
<path d="M90.3668 52.2964C94.0647 51.8765 97.0383 50.4259 97.1527 46.5705C97.3052 43.0204 94.446 27.3695 97.3433 24.163C103.595 15.0397 89.49 10.0391 78.7776 10.0391C78.7013 10.0391 78.6251 10.0391 78.5488 10.0391C86.1352 10.4971 94.5222 13.3219 96.1234 18.2462C96.6571 19.8495 96.4283 21.6436 95.2465 23.6668C95.1703 23.8195 95.0559 24.0103 94.9416 24.163C94.9034 24.2012 94.8653 24.2775 94.8272 24.3157C93.4167 25.8808 93.3404 30.347 93.6454 34.9659C93.6454 35.0041 93.6454 35.0041 93.6454 35.0423C93.9504 40.0429 94.7128 45.1963 94.6366 47.0667C94.5603 49.9679 92.8067 51.533 90.3668 52.2964Z" fill="#915A10"/>
</g>
<path d="M129.604 27.5566V24.3966H122.444V16.5966H118.964V24.3966H111.764V27.5566H118.964V35.6766H122.444V27.5566H129.604Z" fill="white"/>
<defs>
<clipPath id="clip0">
<rect width="111.429" height="51.8982" fill="white" transform="translate(129.586 0.0488281)"/>
</clipPath>
<clipPath id="clip1">
<rect width="111.318" height="51.9151" fill="white" transform="translate(3.63672)"/>
</clipPath>
</defs>
</svg>
