<svg width="923" height="244" viewBox="0 0 923 244" fill="none" xmlns="http://www.w3.org/2000/svg">
<rect x="550" y="6" width="367" height="211" rx="9" stroke="white" stroke-width="12"/>
<rect x="6" y="6" width="367" height="211" rx="9" stroke="white" stroke-width="12"/>
<path fill-rule="evenodd" clip-rule="evenodd" d="M738.977 112.218C729.673 98.8267 717.375 87.5073 700.612 85.3318C689.579 83.902 673.112 86.3165 668.577 98.5495C657.839 127.671 712.784 125.937 725.244 124.485C732.247 123.674 745.617 122.007 738.977 112.218ZM713.659 132.599C717.222 143.167 717.919 152.556 717.963 157.902C721.48 158.316 724.924 158.334 727.808 158.108L728.061 158.088C728.085 153.129 727.492 143.238 723.327 132.161C720.595 132.393 717.297 132.56 713.659 132.599ZM710.5 156.35C710.329 150.926 709.397 142.138 705.72 132.464C703.517 132.367 701.252 132.217 698.975 132C697.958 134.225 697.285 136.443 697.04 138.558C696.938 139.443 696.536 140.22 695.945 140.798L689.353 148.194L694.053 146.086C696.239 145.112 697.986 146.25 699.042 148.105C701.316 152.221 705.623 154.812 710.5 156.35ZM730.875 131.183C734.609 141.835 735.406 151.378 735.488 156.95C738.134 156.364 740.788 155.576 743.398 154.581C743.566 151.355 743.704 140.969 739.582 128.727C736.981 129.828 733.987 130.616 730.875 131.183ZM745.934 124.376C749.957 135.381 750.798 145.32 750.883 151.065C753.59 149.527 756.2 147.735 758.644 145.669C758.821 139.796 758.288 122.129 747.169 105.136C745.814 105.082 744.444 105.089 743.064 105.149C743.748 106.07 744.422 107.015 745.081 107.963C749.399 115.531 748.975 120.756 745.934 124.376ZM756.645 106.544C763.026 118.434 765.171 130.153 765.818 138.162C768.568 134.583 770.911 130.489 772.694 125.855C773.43 123.94 775.593 122.988 777.503 123.727C782.063 124.985 786.139 124.593 789.69 121.033C794.179 116.531 794.179 109.134 789.69 104.633C785.859 100.793 779.762 100.14 775.226 103.085C773.352 104.301 771.848 106.052 770.933 108.104C770.1 109.978 767.799 110.777 765.929 109.94C762.852 108.452 759.743 107.332 756.645 106.544ZM783.615 93.8992L790.063 77.3114C791.82 72.7468 798.742 75.4258 796.987 79.9903L790.706 96.155C792.236 97.0012 793.669 98.068 794.954 99.3555C802.335 106.758 802.335 118.909 794.954 126.309C790.568 130.706 784.415 132.653 778.329 131.608C772.623 144.25 763.186 153.094 752.597 158.604C744.813 162.652 736.388 164.906 728.389 165.541C716.81 166.464 701.703 164.025 694.17 154.181L676.528 162.089C672.917 163.701 669.601 159.193 672.259 156.218L689.83 136.508C690.133 134.696 690.641 132.852 691.332 131.023C671.44 127.757 653.237 118.58 661.595 95.9526C667.386 80.3003 686.668 76.0276 701.543 77.957C709.436 78.9837 716.466 81.7155 722.75 85.6491C723.074 82.7112 723.427 79.4651 723.6 77.6834C725.375 59.1316 758.943 42.1207 758.943 76.4452V99.4412C761.296 100.065 763.656 100.856 766.007 101.827C767.404 99.8534 769.161 98.1574 771.182 96.8444C774.964 94.3843 779.367 93.4269 783.615 93.8992ZM782.205 105.891C784.3 105.891 786.001 107.597 786.001 109.697C786.001 111.798 784.3 113.505 782.205 113.505C780.109 113.505 778.407 111.798 778.407 109.697C778.407 107.597 780.109 105.891 782.205 105.891ZM751.498 98.0133V76.4452C751.498 51.3538 731.732 70.5512 730.984 78.3855C730.693 81.4018 730.024 87.5074 729.669 90.6987C732.403 92.9856 734.971 95.5003 737.394 98.1957C742.121 97.5465 746.842 97.4608 751.376 97.9969L751.498 98.0133Z" fill="white"/>
<g clip-path="url(#clip0)">
<path fill-rule="evenodd" clip-rule="evenodd" d="M418.794 115.973C416.402 114.487 416.402 111.217 418.794 109.73L442.113 91.8923C446 88.9193 450.485 94.8653 446.598 97.8382L431.649 109.136C451.082 109.136 470.216 109.136 489.351 109.136L474.402 97.8382C470.515 94.8653 475.299 88.9193 479.186 91.8923L502.505 109.73C504.598 111.217 504.598 114.487 502.505 115.973L479.186 134.109C475.299 137.081 470.515 131.136 474.402 128.163L489.351 116.568C470.216 116.568 451.082 116.568 431.649 116.568L446.598 128.163C450.485 131.136 446 137.081 442.113 134.109L418.794 115.973Z" fill="white"/>
</g>
<path d="M244.25 107.75C243.87 107.75 243.489 107.75 243.136 107.75C242.083 105.308 240.341 103.229 238.123 101.768C235.906 100.307 233.31 99.5284 230.657 99.5284C228.003 99.5284 225.407 100.307 223.19 101.768C220.972 103.229 219.23 105.308 218.178 107.75C217.824 107.75 217.444 107.75 217.063 107.75C214.233 107.806 211.491 108.746 209.22 110.439C206.948 112.132 205.261 114.493 204.393 117.194C203.524 119.894 203.519 122.799 204.377 125.502C205.235 128.206 206.914 130.573 209.179 132.275C208.982 133.17 208.891 134.084 208.907 135C208.919 137.422 209.575 139.798 210.808 141.881C212.041 143.965 213.806 145.681 215.921 146.854C215.459 147.971 214.997 149.143 214.507 150.396C210.558 161.169 208.605 172.574 208.743 184.05H196.428C197.389 176.629 197.924 169.16 198.032 161.678C198.155 144.251 195.914 126.888 191.371 110.066C194.143 110.655 197.012 110.615 199.768 109.95C202.523 109.285 205.096 108.012 207.297 106.223C209.499 104.434 211.274 102.175 212.493 99.6102C213.713 97.0457 214.345 94.2407 214.344 91.4C214.338 89.9317 214.165 88.4689 213.828 87.04C217.811 85.271 221.069 82.1853 223.056 78.2986C225.043 74.4118 225.639 69.9593 224.745 65.685C223.851 61.4106 221.52 57.5733 218.143 54.8141C214.765 52.0548 210.545 50.5408 206.188 50.525C205.038 50.5231 203.891 50.6326 202.762 50.852C201.699 47.073 199.499 43.7149 196.461 41.2359C193.423 38.7569 189.696 37.2779 185.789 37.0007C181.881 36.7235 177.983 37.6617 174.628 39.6871C171.272 41.7125 168.621 44.7265 167.038 48.3177C165.612 47.9812 164.153 47.8075 162.688 47.8C158.469 47.8059 154.371 49.217 151.039 51.8115C147.707 54.4059 145.33 58.0366 144.281 62.1328C143.232 66.229 143.571 70.5585 145.244 74.4406C146.918 78.3227 149.831 81.5374 153.526 83.5792C152.399 86.0318 151.814 88.6998 151.813 91.4C151.819 95.0284 152.858 98.5798 154.807 101.637C156.756 104.695 159.534 107.132 162.817 108.663C166.099 110.193 169.749 110.754 173.337 110.278C176.926 109.803 180.306 108.311 183.078 105.979C183.683 106.49 184.318 106.964 184.982 107.396C190.167 124.998 192.733 143.27 192.594 161.623C192.495 169.126 191.942 176.615 190.936 184.05H172.312C170.948 175.947 168.63 168.035 165.407 160.479C170.377 154.844 173.257 147.665 173.563 140.15C174.297 131.049 172.122 122.574 167.745 117.451C167.277 116.91 166.615 116.575 165.903 116.519C165.191 116.463 164.485 116.69 163.938 117.151C158.882 121.375 155.402 129.55 154.668 138.624C154.668 139.496 154.668 140.341 154.668 141.186C152.539 138.238 150.252 135.409 147.816 132.711C148.683 130.872 149.12 128.859 149.094 126.825C149.11 125.909 149.018 124.995 148.822 124.1C151.087 122.398 152.766 120.031 153.624 117.327C154.482 114.624 154.476 111.719 153.608 109.019C152.74 106.318 151.053 103.957 148.781 102.264C146.51 100.571 143.768 99.631 140.938 99.575C140.557 99.575 140.177 99.575 139.823 99.575C138.771 97.1333 137.028 95.0538 134.811 93.5928C132.593 92.1319 129.998 91.3534 127.344 91.3534C124.69 91.3534 122.095 92.1319 119.877 93.5928C117.66 95.0538 115.917 97.1333 114.865 99.575C114.512 99.575 114.131 99.575 113.75 99.575C110.918 99.6255 108.172 100.562 105.897 102.252C103.621 103.943 101.929 106.305 101.058 109.006C100.186 111.708 100.179 114.615 101.036 117.321C101.893 120.027 103.572 122.397 105.839 124.1C105.281 126.813 105.561 129.632 106.642 132.181C107.723 134.73 109.553 136.889 111.889 138.369C114.225 139.849 116.956 140.58 119.717 140.465C122.478 140.35 125.139 139.394 127.344 137.725C129.809 139.61 132.849 140.581 135.947 140.471C139.045 140.362 142.01 139.18 144.336 137.125C147.209 140.377 149.861 143.819 152.275 147.426C153.988 150.151 155.565 152.876 157.033 155.601C157.507 156.778 158.07 157.917 158.718 159.007C162.591 166.989 165.336 175.473 166.875 184.214H135.5V189.663H246.969V184.05H214.181C214.181 183.396 214.181 182.715 214.181 182.061H214.67C220.085 181.993 225.302 180.015 229.406 176.474C231.932 174.382 233.97 171.761 235.379 168.795C236.788 165.83 237.533 162.591 237.562 159.307C237.573 158.662 237.354 158.034 236.946 157.535C236.538 157.036 235.966 156.698 235.333 156.582C232.081 156.085 228.76 156.307 225.604 157.235C222.447 158.162 219.532 159.772 217.063 161.95L216.546 162.441C217.358 159.004 218.375 155.619 219.591 152.304C220.108 150.914 220.597 149.579 221.087 148.489C221.555 148.562 222.027 148.608 222.5 148.625C225.442 148.625 228.304 147.669 230.657 145.9C232.676 147.418 235.078 148.343 237.592 148.57C240.106 148.797 242.634 148.318 244.892 147.187C247.15 146.055 249.049 144.315 250.376 142.163C251.704 140.011 252.407 137.53 252.407 135C252.422 134.084 252.331 133.17 252.135 132.275C254.4 130.573 256.078 128.206 256.936 125.502C257.794 122.799 257.789 119.894 256.921 117.194C256.053 114.493 254.365 112.132 252.094 110.439C249.822 108.746 247.08 107.806 244.25 107.75ZM201.648 56.7652C203.102 56.2317 204.639 55.964 206.188 55.975C209.283 55.9842 212.283 57.0519 214.69 59.0016C217.098 60.9513 218.77 63.6662 219.429 66.6975C220.089 69.7287 219.696 72.8947 218.317 75.6721C216.937 78.4494 214.653 80.6717 211.843 81.9715C210.182 79.0443 207.778 76.6099 204.875 74.9155C201.972 73.2212 198.672 72.3274 195.313 72.325H194.932C194.533 70.7495 193.779 69.2863 192.73 68.0467C193.018 65.5194 194.005 63.1233 195.581 61.1295C197.157 59.1357 199.259 57.6239 201.648 56.7652ZM171.306 52.378C172.107 49.4869 173.837 46.9414 176.228 45.1366C178.62 43.3318 181.538 42.3686 184.532 42.3966C187.525 42.4245 190.426 43.442 192.783 45.2912C195.14 47.1403 196.823 49.7177 197.569 52.6232C195.182 53.8367 193.079 55.5456 191.401 57.6363C189.723 59.7271 188.507 62.1518 187.836 64.7495C185.971 64.1097 183.964 64.0054 182.042 64.4484C180.12 64.8914 178.361 65.864 176.961 67.2565C175.095 66.0248 173.561 64.351 172.494 62.3833C171.427 60.4155 170.86 58.2145 170.844 55.975C170.844 54.7611 170.999 53.5521 171.306 52.378ZM149.094 66.875C149.094 63.2614 150.526 59.7958 153.076 57.2407C155.625 54.6855 159.083 53.25 162.688 53.25C163.657 53.263 164.622 53.3726 165.57 53.577C165.46 54.3716 165.406 55.1729 165.407 55.975C165.421 59.145 166.219 62.2621 167.727 65.0483C169.236 67.8346 171.409 70.2034 174.052 71.9435C173.757 72.9538 173.593 73.9978 173.563 75.05C171.851 77.3377 169.464 79.0276 166.741 79.8802C164.018 80.7329 161.096 80.7051 158.389 79.8008C155.682 78.8965 153.328 77.1615 151.66 74.8417C149.992 72.5218 149.094 69.7346 149.094 66.875ZM181.039 100.392C179.214 102.467 176.802 103.935 174.124 104.603C171.446 105.27 168.629 105.105 166.047 104.129C163.465 103.153 161.241 101.412 159.669 99.1387C158.098 96.865 157.254 94.1659 157.25 91.4C157.251 89.3393 157.725 87.3065 158.637 85.4595C159.965 85.7734 161.324 85.9379 162.688 85.95C167.375 85.9466 171.896 84.2098 175.384 81.0722C176.256 82.4138 177.412 83.5463 178.77 84.3893C180.128 85.2324 181.655 85.7652 183.242 85.95C184.011 87.6645 184.419 89.5201 184.438 91.4C184.456 94.716 183.245 97.9207 181.039 100.392ZM184.438 80.5C183.362 80.5 182.311 80.1804 181.417 79.5815C180.523 78.9826 179.826 78.1315 179.414 77.1356C179.003 76.1398 178.895 75.0439 179.105 73.9868C179.315 72.9296 179.833 71.9585 180.593 71.1963C181.353 70.4341 182.322 69.915 183.377 69.7047C184.432 69.4944 185.525 69.6024 186.519 70.0148C187.512 70.4273 188.362 71.1259 188.959 72.0221C189.556 72.9184 189.875 73.9721 189.875 75.05C189.875 76.4954 189.303 77.8816 188.283 78.9037C187.263 79.9258 185.88 80.5 184.438 80.5ZM189.875 91.4C189.866 89.2355 189.489 87.0884 188.761 85.0507C190.268 84.3837 191.604 83.3822 192.668 82.1218C193.733 80.8614 194.498 79.375 194.905 77.775H195.313C198.007 77.77 200.643 78.5678 202.884 80.067C205.125 81.5663 206.871 83.6993 207.901 86.1952C207.889 86.2583 207.889 86.323 207.901 86.386C209.003 89.1919 209.145 92.2849 208.305 95.1804C207.464 98.076 205.69 100.61 203.259 102.387C200.827 104.163 197.877 105.08 194.87 104.996C191.862 104.911 188.968 103.829 186.64 101.918C188.74 98.8136 189.866 95.1509 189.875 91.4ZM119.378 103.281C119.747 101.657 120.602 100.184 121.829 99.0609C123.056 97.9372 124.596 97.216 126.243 96.9937C127.89 96.7715 129.565 97.0587 131.045 97.8171C132.524 98.5755 133.737 99.7688 134.522 101.237C132.771 102.18 131.248 103.495 130.06 105.091C128.871 106.687 128.046 108.525 127.643 110.475H127.344C125.747 110.47 124.184 110.944 122.858 111.837C121.732 111.094 120.808 110.083 120.167 108.894C119.527 107.706 119.19 106.376 119.188 105.025C119.181 104.438 119.245 103.853 119.378 103.281ZM105.594 113.2C105.594 111.032 106.453 108.953 107.983 107.419C109.513 105.886 111.587 105.025 113.75 105.025C113.754 107.222 114.287 109.385 115.305 111.33C116.323 113.276 117.795 114.945 119.596 116.197C119.333 116.989 119.195 117.816 119.188 118.65C119.188 118.841 119.188 119.031 119.188 119.195C118.021 120.242 116.577 120.929 115.03 121.176C113.484 121.422 111.899 121.217 110.465 120.585C109.031 119.953 107.81 118.92 106.946 117.61C106.082 116.301 105.613 114.77 105.594 113.2ZM125.305 132.275C124.207 133.523 122.755 134.406 121.143 134.805C119.531 135.203 117.836 135.1 116.284 134.507C114.733 133.915 113.398 132.862 112.46 131.489C111.521 130.116 111.023 128.489 111.032 126.825C111.032 126.825 111.032 126.634 111.032 126.552C111.927 126.728 112.838 126.82 113.75 126.825C116.534 126.816 119.249 125.95 121.526 124.345C122.282 125.126 123.187 125.747 124.186 126.173C125.185 126.599 126.258 126.821 127.344 126.825C127.355 128.831 126.629 130.771 125.305 132.275ZM127.344 121.375C126.806 121.375 126.281 121.215 125.834 120.916C125.387 120.616 125.038 120.191 124.832 119.693C124.627 119.195 124.573 118.647 124.678 118.118C124.783 117.59 125.041 117.104 125.422 116.723C125.802 116.342 126.286 116.082 126.814 115.977C127.341 115.872 127.888 115.926 128.385 116.132C128.881 116.339 129.306 116.688 129.605 117.136C129.903 117.584 130.063 118.111 130.063 118.65C130.063 119.373 129.776 120.066 129.267 120.577C128.757 121.088 128.065 121.375 127.344 121.375ZM135.5 135C133.88 134.99 132.299 134.497 130.96 133.583C132.144 131.528 132.772 129.198 132.782 126.825C132.778 126.151 132.732 125.477 132.646 124.808C133.534 124.047 134.249 123.103 134.741 122.04C135.234 120.978 135.493 119.822 135.5 118.65C137.178 118.66 138.813 119.189 140.18 120.165C141.547 121.14 142.581 122.514 143.14 124.1C143.473 124.97 143.648 125.893 143.657 126.825C143.657 128.993 142.797 131.072 141.268 132.606C139.738 134.139 137.664 135 135.5 135ZM135.5 113.2C134.83 113.159 134.158 113.159 133.488 113.2C133.286 112.95 133.068 112.714 132.836 112.491C132.951 110.814 133.579 109.212 134.634 107.905C135.69 106.599 137.122 105.65 138.736 105.188C139.459 105.034 140.2 104.979 140.938 105.025C142.552 105.037 144.126 105.529 145.461 106.438C146.796 107.348 147.832 108.633 148.438 110.133C149.043 111.633 149.191 113.279 148.863 114.863C148.534 116.447 147.744 117.898 146.593 119.031C145.346 117.239 143.687 115.774 141.757 114.759C139.826 113.744 137.68 113.209 135.5 113.2ZM161.872 152.985C160.215 148.542 159.565 143.786 159.969 139.06C160.3 133.476 162.183 128.095 165.407 123.528C167.79 128.567 168.731 134.171 168.125 139.714C167.816 145.231 166.001 150.557 162.878 155.11L161.872 152.985ZM230.657 105.025C232.521 105.027 234.328 105.669 235.778 106.844C237.227 108.019 238.231 109.656 238.623 111.483C238.758 112.045 238.822 112.622 238.813 113.2C238.81 114.551 238.474 115.881 237.833 117.069C237.193 118.258 236.268 119.269 235.143 120.012C233.817 119.119 232.254 118.645 230.657 118.65H230.358C229.955 116.693 229.128 114.848 227.934 113.247C226.741 111.646 225.211 110.327 223.452 109.385C224.144 108.07 225.18 106.97 226.45 106.202C227.719 105.433 229.174 105.027 230.657 105.025ZM211.408 127.206C210.256 126.073 209.466 124.622 209.138 123.038C208.81 121.454 208.958 119.808 209.563 118.308C210.169 116.808 211.204 115.523 212.539 114.613C213.875 113.704 215.449 113.212 217.063 113.2C217.816 113.202 218.565 113.303 219.292 113.5C220.911 113.956 222.349 114.903 223.41 116.21C224.471 117.518 225.103 119.122 225.219 120.803C224.987 121.025 224.769 121.262 224.567 121.511C223.881 121.422 223.191 121.377 222.5 121.375C220.32 121.384 218.175 121.919 216.244 122.934C214.314 123.949 212.655 125.414 211.408 127.206ZM220.597 166.119C223.722 163.415 227.698 161.9 231.826 161.841C231.098 165.958 228.941 169.684 225.736 172.36C222.586 175.095 218.566 176.612 214.399 176.638C215.139 172.5 217.339 168.767 220.597 166.119ZM222.5 143.175C220.337 143.175 218.263 142.314 216.733 140.781C215.203 139.247 214.344 137.168 214.344 135C214.335 134.011 214.52 133.029 214.888 132.111C215.472 130.561 216.513 129.224 217.873 128.28C219.233 127.336 220.846 126.829 222.5 126.825C222.491 127.986 222.729 129.136 223.198 130.198C223.666 131.26 224.356 132.209 225.219 132.983C225.178 133.655 225.178 134.328 225.219 135C225.229 137.373 225.857 139.703 227.041 141.758C225.701 142.672 224.121 143.165 222.5 143.175ZM227.938 126.825C227.938 126.286 228.097 125.759 228.396 125.311C228.695 124.863 229.119 124.514 229.616 124.307C230.113 124.101 230.66 124.047 231.187 124.152C231.714 124.257 232.199 124.517 232.579 124.898C232.959 125.279 233.218 125.765 233.323 126.293C233.428 126.822 233.374 127.37 233.168 127.868C232.963 128.366 232.614 128.791 232.167 129.091C231.72 129.39 231.194 129.55 230.657 129.55C229.936 129.55 229.244 129.263 228.734 128.752C228.224 128.241 227.938 127.548 227.938 126.825ZM238.813 143.175C237.659 143.18 236.517 142.94 235.463 142.47C234.408 142.001 233.465 141.312 232.696 140.45C231.372 138.946 230.646 137.006 230.657 135C231.742 134.996 232.816 134.774 233.815 134.348C234.814 133.922 235.718 133.301 236.475 132.52C238.752 134.125 241.466 134.991 244.25 135C245.163 134.995 246.073 134.903 246.969 134.727C246.969 134.727 246.969 134.891 246.969 135C246.969 137.168 246.11 139.247 244.58 140.781C243.051 142.314 240.976 143.175 238.813 143.175ZM247.758 128.732C246.299 129.416 244.671 129.651 243.079 129.408C241.488 129.166 240.003 128.457 238.813 127.37C238.813 127.179 238.813 127.016 238.813 126.825C238.806 125.991 238.668 125.164 238.405 124.372C240.206 123.12 241.678 121.451 242.696 119.505C243.713 117.56 244.247 115.397 244.25 113.2C246.092 113.211 247.877 113.846 249.312 115.003C250.748 116.16 251.751 117.77 252.158 119.57C252.564 121.371 252.351 123.257 251.552 124.921C250.753 126.584 249.416 127.928 247.758 128.732Z" fill="white"/>
<defs>
<clipPath id="clip0">
<rect width="87" height="55" fill="white" transform="translate(417 91)"/>
</clipPath>
</defs>
</svg>
