<svg width="1007" height="296" viewBox="0 0 1007 296" fill="none" xmlns="http://www.w3.org/2000/svg">
<path d="M517.402 182.005L548.563 209.191C551.086 211.39 554.911 211.129 557.109 208.608C559.307 206.085 559.047 202.262 556.527 200.062L556.526 200.064L535.748 181.933C571.359 183.237 598.348 176.016 618.495 164.98C642.183 152.022 656.234 133.964 664.283 119.224C672.343 104.463 674.507 92.9664 674.595 92.5257C675.203 89.2371 673.034 86.0756 669.746 85.4634C668.318 85.1978 666.915 85.4583 665.735 86.104C664.195 86.9468 663.031 88.4523 662.684 90.3117L662.685 90.314C662.685 90.314 662.685 90.314 662.676 90.3526C662.511 91.2049 660.289 101.69 652.962 114.661C645.62 127.647 633.277 143.077 612.68 154.352C594.526 164.278 569.82 171.091 535.907 169.816L553.559 149.246C555.738 146.708 555.448 142.882 552.907 140.704C550.938 139.017 548.199 138.813 546.051 139.99C545.429 140.33 544.856 140.787 544.363 141.359L516.787 173.498C514.623 176.023 514.898 179.821 517.402 182.005Z" fill="white"/>
<rect x="716" y="9" width="285" height="163" rx="9" stroke="#FCB527" stroke-width="12"/>
<mask id="mask0" mask-type="alpha" maskUnits="userSpaceOnUse" x="710" y="184" width="106" height="112">
<path d="M815.684 241.845C803.761 202.688 774.472 187.993 759.455 184L747.599 199.745C732.017 197.349 727.837 207.38 727.275 208.302C724.565 212.751 724.904 214.463 723.549 218.912L716.944 240.133L710 261.354L762.165 295.582C780.862 298.046 805.635 260.784 815.684 241.845Z" fill="white"/>
</mask>
<g mask="url(#mask0)">
<path d="M813.654 237.968C811.938 227.829 807.278 218.417 800.254 210.905C795.229 205.2 789.568 200.087 783.382 195.667L794.913 178.9C796.769 175.99 797.396 172.464 796.659 169.093C795.921 165.721 793.879 162.779 790.978 160.91C788.194 158.869 784.716 158.014 781.304 158.532C777.892 159.049 774.823 160.897 772.769 163.671L751.013 195.305L749.389 186.826C748.663 183.105 746.507 179.818 743.384 177.669C740.261 175.521 736.42 174.684 732.686 175.338C730.826 175.649 729.048 176.33 727.457 177.34C725.866 178.351 724.493 179.67 723.421 181.221C721.291 184.193 720.426 187.887 721.014 191.495L723.746 219.096C721.389 224.047 719.972 229.392 719.567 234.861C719.168 239.006 719.439 243.188 720.368 247.247L716.19 253.321C715.585 254.18 715.332 255.239 715.483 256.279C715.634 257.319 716.179 258.262 717.004 258.913L761.007 289.177C761.91 289.715 762.985 289.886 764.011 289.655C765.037 289.424 765.935 288.809 766.52 287.936L772.395 279.395C783.701 276.269 793.518 269.204 800.074 259.476L813.128 240.495C813.59 239.739 813.776 238.846 813.654 237.968ZM793.638 255.283C788.056 263.832 779.494 270.002 769.618 272.592C768.528 272.681 767.514 273.185 766.786 274L762.086 280.833L724.568 255.029L727.788 250.347C728.145 249.829 728.37 249.232 728.442 248.607C728.514 247.982 728.432 247.35 728.202 246.764C727.168 243.19 726.86 239.445 727.296 235.75C727.628 230.952 728.943 226.273 731.159 222.004C731.596 221.296 731.791 220.465 731.715 219.637L728.813 190.522C728.651 189.673 728.658 188.8 728.835 187.954C729.012 187.108 729.356 186.305 729.846 185.593C730.335 184.881 730.962 184.273 731.689 183.805C732.415 183.337 733.228 183.018 734.079 182.866C735.826 182.557 737.624 182.947 739.086 183.952C740.548 184.958 741.556 186.498 741.892 188.24L744.855 204.257L738.024 214.19L746.526 215.378L779.096 168.022C780.005 166.941 781.298 166.256 782.703 166.109C784.107 165.963 785.514 166.367 786.626 167.236C787.837 167.964 788.717 169.133 789.083 170.497C789.448 171.861 789.271 173.314 788.587 174.549L762.913 211.877L768.305 217.589L779.009 202.025C781.628 203.903 784.147 205.916 786.558 208.055L775.179 224.6L779.479 229.188L791.119 212.264C792.242 213.409 793.375 214.608 794.495 215.891C795.84 217.448 797.1 219.077 798.269 220.77L787.065 237.062L791.365 241.65L801.743 226.561C803.62 229.99 805.015 233.662 805.887 237.473L793.638 255.283Z" fill="#FCB527"/>
<path d="M725.975 224.14C726.543 212.781 729.382 199.265 748.806 203.013" stroke="#FCB527" stroke-width="9"/>
<path d="M782.2 199.605C779.814 196.652 772.59 189.791 762.776 185.975" stroke="#FCB527" stroke-width="10"/>
</g>
<rect opacity="0.3" width="448" height="264" rx="15" fill="white"/>
<rect x="6" y="6" width="436" height="252" rx="9" stroke="white" stroke-width="12" stroke-dasharray="10 10"/>
<path fill-rule="evenodd" clip-rule="evenodd" d="M862.553 91.1968C855.243 80.7199 845.581 71.8639 832.41 70.1617C823.74 69.0431 810.802 70.9322 807.239 80.503C798.802 103.287 841.973 101.93 851.763 100.795C857.265 100.16 867.771 98.8558 862.553 91.1968ZM842.661 107.143C845.461 115.411 846.008 122.757 846.042 126.939C848.806 127.263 851.512 127.277 853.778 127.1L853.977 127.085C853.995 123.205 853.529 115.466 850.257 106.8C848.11 106.981 845.519 107.113 842.661 107.143ZM840.178 125.725C840.044 121.482 839.312 114.606 836.423 107.037C834.692 106.961 832.913 106.844 831.123 106.675C830.324 108.415 829.796 110.15 829.603 111.805C829.523 112.497 829.207 113.105 828.742 113.557L823.563 119.344L827.256 117.695C828.974 116.933 830.346 117.823 831.176 119.274C832.963 122.495 836.347 124.522 840.178 125.725ZM856.188 106.035C859.122 114.369 859.748 121.836 859.812 126.194C861.891 125.736 863.977 125.12 866.027 124.341C866.159 121.817 866.267 113.691 863.029 104.113C860.985 104.975 858.633 105.592 856.188 106.035ZM868.02 100.709C871.181 109.32 871.841 117.096 871.908 121.59C874.035 120.387 876.086 118.985 878.006 117.368C878.145 112.774 877.726 98.9513 868.99 85.6566C867.925 85.6138 866.849 85.6195 865.764 85.6666C866.302 86.3871 866.832 87.1262 867.349 87.8681C870.742 93.7892 870.409 97.877 868.02 100.709ZM876.436 86.7581C881.449 96.0607 883.134 105.229 883.643 111.496C885.804 108.695 887.645 105.492 889.045 101.866C889.624 100.368 891.323 99.6234 892.824 100.201C896.407 101.186 899.609 100.879 902.399 98.0939C905.926 94.5711 905.926 88.7841 902.399 85.2628C899.389 82.258 894.599 81.7472 891.035 84.0515C889.563 85.0031 888.381 86.3728 887.662 87.978C887.007 89.4447 885.199 90.0696 883.73 89.4147C881.312 88.2505 878.87 87.3744 876.436 86.7581ZM897.626 76.8647L902.692 63.8867C904.073 60.3155 909.512 62.4114 908.133 65.9827L903.198 78.6297C904.4 79.2917 905.526 80.1264 906.535 81.1337C912.335 86.925 912.335 96.4317 906.535 102.222C903.089 105.662 898.255 107.185 893.473 106.368C888.989 116.258 881.575 123.178 873.255 127.488C867.139 130.656 860.519 132.419 854.234 132.916C845.136 133.638 833.267 131.73 827.348 124.028L813.486 130.215C810.649 131.476 808.044 127.949 810.132 125.622L823.938 110.202C824.176 108.783 824.575 107.341 825.118 105.91C809.489 103.354 795.186 96.1748 801.753 78.4713C806.303 66.2252 821.454 62.8823 833.141 64.3918C839.342 65.1951 844.866 67.3324 849.804 70.41C850.058 68.1114 850.335 65.5718 850.471 64.1778C851.866 49.6631 878.241 36.3541 878.241 63.209V81.2007C880.09 81.6887 881.944 82.3079 883.792 83.067C884.889 81.5232 886.27 80.1963 887.858 79.169C890.829 77.2443 894.289 76.4952 897.626 76.8647ZM896.518 86.2473C898.165 86.2473 899.501 87.5813 899.501 89.225C899.501 90.8686 898.165 92.2041 896.518 92.2041C894.872 92.2041 893.534 90.8686 893.534 89.225C893.534 87.5813 894.872 86.2473 896.518 86.2473ZM872.391 80.0836V63.209C872.391 43.5779 856.861 58.5976 856.273 64.7271C856.045 67.087 855.519 71.8639 855.24 74.3607C857.388 76.1499 859.406 78.1175 861.31 80.2262C865.024 79.7183 868.733 79.6513 872.296 80.0707L872.391 80.0836Z" fill="white"/>
</svg>
