<svg width="247" height="171" viewBox="0 0 247 171" fill="none" xmlns="http://www.w3.org/2000/svg">
<path d="M243.862 63.7779C241.413 59.5244 232.648 58.4932 231.617 56.302C230.586 54.1108 231.617 48.9551 231.617 48.9551H209.06H206.869H184.313C184.313 48.9551 185.344 53.9819 184.313 56.302C183.282 58.4932 174.517 59.6533 172.068 63.7779C169.619 68.0314 168.201 142.661 170.779 147.688C173.357 152.586 183.539 155.164 188.437 155.937C192.304 156.453 202.487 156.71 206.998 156.71C206.998 156.71 207.385 156.71 208.158 156.71C208.803 156.71 209.318 156.71 209.318 156.71C213.83 156.71 224.012 156.581 227.879 155.937C232.777 155.164 243.088 152.586 245.537 147.688C247.729 142.661 246.311 67.9025 243.862 63.7779Z" fill="#D8E1EA"/>
<path d="M183.411 42.7676C183.411 42.7676 181.736 43.7987 181.864 46.7633C182.509 55.2703 200.296 53.9813 208.417 54.1102C229.813 54.2391 232.778 51.1457 233.551 48.1811C234.582 44.5721 231.36 42.7676 231.36 42.7676H183.411Z" fill="#2E2A29"/>
<path d="M209.577 38.6432C194.239 38.2565 183.798 40.061 183.025 43.7989C182.252 47.5368 196.172 48.3102 210.222 48.1813C221.951 48.0524 236 48.0524 232.52 43.7989C229.169 39.5454 220.017 38.9009 209.577 38.6432Z" fill="#423D3C"/>
<path d="M174.516 65.8398C172.969 85.045 172.325 140.469 174.258 144.723C176.578 149.75 185.73 152.328 190.112 153.101C193.463 153.745 202.615 153.874 206.611 153.874C206.611 153.874 206.997 153.874 207.642 153.874C208.286 153.874 208.673 153.874 208.673 153.874C212.669 153.874 221.82 153.745 225.171 153.101C229.554 152.328 238.705 149.75 241.025 144.723C242.959 140.469 242.314 85.045 240.767 65.8398H174.516Z" fill="#AA0E25"/>
<path d="M207.643 67.5153C225.938 67.5153 240.769 66.7074 240.769 65.7108C240.769 64.7142 225.938 63.9062 207.643 63.9062C189.348 63.9062 174.518 64.7142 174.518 65.7108C174.518 66.7074 189.348 67.5153 207.643 67.5153Z" fill="#CE5F74"/>
<path d="M229.296 122.424H185.988C184.055 122.424 182.508 120.877 182.508 118.944V89.0407C182.508 87.1073 184.055 85.5605 185.988 85.5605H229.296C231.23 85.5605 232.776 87.1073 232.776 89.0407V119.073C232.776 120.877 231.23 122.424 229.296 122.424ZM185.988 86.7206C184.699 86.7206 183.668 87.7517 183.668 89.0407V119.073C183.668 120.362 184.699 121.393 185.988 121.393H229.296C230.585 121.393 231.616 120.362 231.616 119.073V89.0407C231.616 87.7517 230.585 86.7206 229.296 86.7206H185.988Z" fill="#D66B73"/>
<path opacity="0.2" d="M243.604 63.3912C241.155 59.1377 232.391 58.1065 231.359 55.9153C230.328 53.7241 231.359 48.5684 231.359 48.5684H218.986C218.728 49.7284 218.212 53.5952 219.115 55.5286C220.146 57.7198 228.91 58.8799 231.359 63.0045C233.808 67.258 235.226 141.888 232.648 146.914C230.07 151.812 219.888 154.39 214.99 155.164C211.123 155.679 200.941 155.937 196.429 155.937C196.429 155.937 196.043 155.937 195.269 155.937C194.625 155.937 194.109 155.937 194.109 155.937C193.465 155.937 192.562 155.937 191.66 155.937C196.3 156.195 203.003 156.324 206.354 156.324C206.354 156.324 206.741 156.324 207.514 156.324C208.159 156.324 208.674 156.324 208.674 156.324C213.185 156.324 223.368 156.195 227.235 155.55C232.133 154.777 242.444 152.199 244.893 147.301C247.6 142.403 246.053 67.6447 243.604 63.3912Z" fill="#47332F"/>
<path d="M198.232 100.642C198.232 100.9 198.361 101.158 198.49 101.287C198.748 101.416 199.006 101.416 199.264 101.287C199.006 102.06 198.748 102.962 198.748 103.994C198.748 109.278 205.837 116.11 208.415 116.11C211.508 116.11 218.082 109.149 218.082 103.994C218.082 103.22 217.953 102.447 217.824 101.802C217.953 101.802 218.211 101.673 218.34 101.545C218.469 101.416 218.469 101.158 218.469 101.029C217.824 99.4823 216.922 98.1934 215.504 97.2911L216.406 96.7755C216.664 96.6466 216.793 96.3888 216.793 96.131C216.793 95.8733 216.535 95.6155 216.278 95.6155C213.184 94.8421 210.22 94.8421 208.931 95.2288C209.188 93.1665 210.22 92.2642 210.348 92.1353C210.606 91.8776 210.606 91.4909 210.477 91.2331C210.22 90.9753 209.833 90.9753 209.575 91.1042C209.446 91.1042 208.028 92.3931 207.771 95.2288C206.739 95.3577 205.966 95.2288 205.45 95.2288C204.935 95.2288 204.548 95.0999 204.033 95.2288C203.259 95.3577 201.97 95.8733 200.939 96.3888C200.424 96.6466 200.037 96.7755 199.779 96.9044C199.521 97.0333 199.392 97.2911 199.392 97.5489C199.392 97.8067 199.65 98.0645 199.908 98.0645C200.424 98.1933 200.681 98.1934 200.939 98.3222L198.748 100.256C198.232 100.256 198.232 100.385 198.232 100.642ZM208.415 114.95C206.611 114.95 199.908 108.634 199.908 103.994C199.908 102.576 200.295 101.545 200.939 100.642C201.713 100.385 202.744 100.256 203.775 100.513C204.419 100.771 204.548 102.834 204.548 103.607V103.865C204.548 104.122 205.064 104.509 205.45 104.38C206.353 103.994 206.997 102.834 207.642 101.802C207.771 101.545 208.028 101.158 208.157 101.029C208.544 101.029 209.317 101.802 209.833 102.189C210.606 102.834 211.38 103.478 212.153 103.736C212.282 103.736 212.54 103.736 212.669 103.607C212.797 103.478 212.926 103.349 212.926 103.22C212.926 102.318 212.926 101.416 212.926 100.642C213.442 100.771 214.086 100.9 214.731 101.158C215.375 101.287 216.02 101.545 216.664 101.673C216.922 102.447 217.18 103.22 217.18 104.122C216.922 108.763 210.348 114.95 208.415 114.95ZM201.713 97.9356C201.584 97.6778 201.455 97.5489 201.326 97.42C202.228 97.0333 203.388 96.6466 203.904 96.5177C204.29 96.5177 204.548 96.5177 205.064 96.5177C205.708 96.5177 206.353 96.6466 207.513 96.5177C207.513 97.0333 207.513 97.5489 207.642 98.0645C207.642 98.3222 207.899 98.58 208.286 98.58H208.415C208.802 98.58 208.931 98.1934 208.931 97.9356C208.802 97.42 208.802 96.9044 208.802 96.5177C208.931 96.5177 209.059 96.5177 209.188 96.3888C209.188 96.3888 209.188 96.3888 209.317 96.3888C209.833 96.2599 211.766 96.1311 214.344 96.5177L213.957 96.6466C213.7 96.7755 213.571 96.9044 213.571 97.1622C213.571 97.42 213.7 97.5489 213.957 97.6778C215.246 98.3222 216.149 99.0956 216.793 100.256H216.664C216.149 100.127 215.504 99.9979 214.989 99.7401C213.957 99.4823 212.926 99.0956 212.153 99.0956C212.024 99.0956 211.766 99.0956 211.637 99.2245C211.508 99.3534 211.508 99.4823 211.508 99.7401C211.637 100.385 211.637 101.158 211.637 102.06C211.251 101.802 210.864 101.545 210.477 101.158C209.446 100.256 208.415 99.3534 207.513 99.869C207.255 99.9979 206.997 100.385 206.482 101.158C206.224 101.545 205.966 102.06 205.708 102.447C205.579 101.158 205.322 99.7401 204.162 99.3534C203.646 99.2245 203.13 99.0956 202.744 99.0956C202.228 99.0956 201.455 99.2245 201.455 99.2245C201.841 98.7089 201.841 98.1934 201.713 97.9356Z" fill="#D66B73"/>
<path d="M203.13 105.798C203.517 105.798 203.645 105.411 203.645 105.153C203.645 104.896 203.517 104.767 203.517 104.509C203.388 104.251 203.13 103.993 202.743 104.122C202.485 104.251 202.228 104.509 202.357 104.896C202.357 105.024 202.485 105.153 202.485 105.411C202.485 105.54 202.743 105.798 203.13 105.798Z" fill="#D66B73"/>
<path d="M204.033 107.732C203.904 107.474 203.517 107.345 203.26 107.474C203.002 107.603 202.873 107.99 203.002 108.248C203.131 108.506 203.26 108.763 203.517 108.892C203.646 109.021 203.775 109.021 203.904 109.021C204.033 109.021 204.162 109.021 204.291 108.892C204.548 108.634 204.548 108.248 204.291 107.99C204.162 107.99 204.162 107.861 204.033 107.732Z" fill="#D66B73"/>
<path d="M207.771 107.346C207.771 107.088 207.642 106.83 207.642 106.572C207.514 106.314 207.514 106.185 207.514 106.057C207.514 105.67 207.256 105.412 206.998 105.412C206.611 105.412 206.354 105.67 206.354 105.928C206.354 106.314 206.482 106.572 206.482 106.959C206.482 107.088 206.611 107.346 206.611 107.474C206.611 107.732 206.869 107.99 207.256 107.99C207.514 107.99 207.771 107.603 207.771 107.346Z" fill="#D66B73"/>
<path d="M208.674 110.439C208.674 110.31 208.674 110.31 208.674 110.182C208.674 109.795 208.416 109.537 208.029 109.537C207.643 109.537 207.385 109.795 207.385 110.182C207.385 110.31 207.385 110.31 207.385 110.439C207.385 110.826 207.385 111.213 207.643 111.599C207.771 111.857 207.9 111.857 208.158 111.857C208.287 111.857 208.416 111.857 208.416 111.728C208.674 111.599 208.803 111.213 208.674 110.955C208.545 110.955 208.545 110.697 208.674 110.439Z" fill="#D66B73"/>
<path d="M211.509 106.313C211.509 106.184 211.509 105.926 211.509 105.668C211.638 105.282 211.38 105.024 210.993 104.895C210.606 104.766 210.349 105.024 210.22 105.41C210.091 105.668 210.091 106.184 210.22 106.699C210.349 106.957 210.477 107.086 210.735 107.086H210.864C211.509 107.086 211.638 106.699 211.509 106.313Z" fill="#D66B73"/>
<path d="M214.086 103.348C213.699 103.348 213.441 103.605 213.441 103.992V105.023C213.441 105.41 213.699 105.668 214.086 105.668C214.473 105.668 214.73 105.41 214.73 105.023V103.992C214.601 103.734 214.344 103.348 214.086 103.348Z" fill="#D66B73"/>
<path d="M213.055 108.376C212.797 108.247 212.411 108.247 212.282 108.634C212.153 108.763 212.153 109.02 212.024 109.149C211.895 109.407 211.766 109.665 211.637 109.923C211.509 110.18 211.509 110.567 211.766 110.825C211.895 110.954 212.024 110.954 212.153 110.954C212.282 110.954 212.54 110.825 212.669 110.696C212.926 110.438 213.055 110.052 213.184 109.794C213.313 109.665 213.313 109.536 213.442 109.278C213.442 108.891 213.313 108.505 213.055 108.376Z" fill="#D66B73"/>
<path d="M187.408 36.7089C183.927 30.6509 171.167 29.1041 169.749 25.8818C168.331 22.6594 169.749 15.3125 169.749 15.3125H137.139H133.917H101.307C101.307 15.3125 102.724 22.6594 101.307 25.8818C99.8887 29.1041 87.1282 30.6509 83.6481 36.7089C80.168 42.7669 77.9768 150.522 81.7147 157.611C85.4526 164.7 100.147 168.438 107.236 169.47C112.778 170.243 127.343 170.501 133.917 170.501C133.917 170.501 134.561 170.501 135.463 170.501C136.495 170.501 137.01 170.501 137.01 170.501C143.455 170.501 158.149 170.243 163.691 169.47C170.78 168.438 185.474 164.7 189.212 157.611C192.95 150.393 190.888 42.7669 187.408 36.7089Z" fill="#D8E1EA"/>
<path d="M100.275 6.41992C100.275 6.41992 97.8257 7.96665 98.0835 12.0912C98.9857 24.4651 124.636 22.5316 136.365 22.6605C167.171 22.7894 171.424 18.407 172.584 14.1535C174.002 8.8689 169.362 6.41992 169.362 6.41992H100.275Z" fill="#2E2A29"/>
<path d="M137.912 0.490378C115.871 -0.0251973 100.661 2.55268 99.6303 7.96622C98.5991 13.3798 118.449 14.5398 138.943 14.282C155.828 14.0242 176.064 14.0242 171.166 7.96622C166.139 1.77932 152.992 0.87706 137.912 0.490378Z" fill="#423D3C"/>
<path d="M87.3865 39.6738C85.1953 67.386 84.1641 147.3 86.9998 153.358C90.351 160.576 103.498 164.314 109.814 165.474C114.712 166.377 127.859 166.505 133.659 166.505C133.659 166.505 134.175 166.505 135.077 166.505C135.979 166.505 136.495 166.505 136.495 166.505C142.295 166.505 155.442 166.248 160.34 165.474C166.785 164.314 179.932 160.576 183.155 153.358C185.99 147.171 184.959 67.386 182.768 39.6738H87.3865V39.6738Z" fill="#59287C"/>
<path d="M135.077 42.1226C161.416 42.1226 182.768 40.9684 182.768 39.5447C182.768 38.121 161.416 36.9668 135.077 36.9668C108.739 36.9668 87.3867 38.121 87.3867 39.5447C87.3867 40.9684 108.739 42.1226 135.077 42.1226Z" fill="#6D38A5"/>
<path d="M166.269 121.264H103.884C101.178 121.264 98.8574 119.073 98.8574 116.238V73.0581C98.8574 70.3513 101.049 68.0312 103.884 68.0312H166.269C168.976 68.0312 171.296 70.2224 171.296 73.0581V116.238C171.296 119.073 169.105 121.264 166.269 121.264ZM103.884 69.7069C102.08 69.7069 100.533 71.2536 100.533 73.0581V116.238C100.533 118.042 102.08 119.589 103.884 119.589H166.269C168.073 119.589 169.62 118.042 169.62 116.238V73.0581C169.62 71.2536 168.073 69.7069 166.269 69.7069H103.884Z" fill="#9560C4"/>
<path opacity="0.2" d="M187.02 36.3222C183.54 30.2642 170.78 28.7174 169.362 25.4951C167.944 22.2727 169.362 14.9258 169.362 14.9258H151.445C151.188 16.7303 150.285 22.2727 151.574 24.9795C152.992 28.2018 165.753 29.7486 169.233 35.8066C172.713 41.8646 174.904 149.62 171.166 156.709C167.428 163.798 152.734 167.536 145.645 168.567C140.103 169.341 125.538 169.598 118.964 169.598C118.964 169.598 118.32 169.598 117.417 169.598C116.386 169.598 115.871 169.598 115.871 169.598C114.84 169.598 113.68 169.598 112.391 169.598C119.093 169.985 128.76 170.114 133.658 170.114C133.658 170.114 134.303 170.114 135.205 170.114C136.236 170.114 136.752 170.114 136.752 170.114C143.196 170.114 157.89 169.856 163.433 169.083C170.522 168.052 185.216 164.314 188.954 157.225C192.692 150.007 190.5 42.2513 187.02 36.3222Z" fill="#47332F"/>
<path d="M135.978 92.1348C134.818 92.1348 133.787 93.037 133.787 94.326C133.787 95.486 134.689 96.5172 135.978 96.5172C137.138 96.5172 138.17 95.6149 138.17 94.326C138.17 93.037 137.138 92.1348 135.978 92.1348ZM135.978 94.9705C135.592 94.9705 135.334 94.7127 135.334 94.326C135.334 93.9393 135.592 93.6815 135.978 93.6815C136.365 93.6815 136.623 93.9393 136.623 94.326C136.752 94.5838 136.365 94.9705 135.978 94.9705Z" fill="#9560C4"/>
<path d="M133.918 85.8199C135.078 85.8199 136.109 84.9176 136.109 83.6287C136.109 82.4686 135.207 81.4375 133.918 81.4375C132.758 81.4375 131.727 82.3398 131.727 83.6287C131.727 84.7887 132.758 85.8199 133.918 85.8199ZM133.918 82.9842C134.304 82.9842 134.562 83.242 134.562 83.6287C134.562 84.0154 134.304 84.2732 133.918 84.2732C133.531 84.2732 133.273 84.0154 133.273 83.6287C133.273 83.242 133.531 82.9842 133.918 82.9842Z" fill="#9560C4"/>
<path d="M128.246 92.7791C128.246 91.619 127.343 90.5879 126.054 90.5879C124.894 90.5879 123.863 91.4901 123.863 92.7791C123.863 93.9391 124.766 94.9703 126.054 94.9703C127.343 94.9703 128.246 94.068 128.246 92.7791ZM126.183 93.5524C125.797 93.5524 125.539 93.2947 125.539 92.908C125.539 92.5213 125.797 92.2635 126.183 92.2635C126.57 92.2635 126.828 92.5213 126.828 92.908C126.828 93.1658 126.57 93.5524 126.183 93.5524Z" fill="#9560C4"/>
<path d="M142.552 83.1106C141.263 83.1106 139.974 83.3684 138.685 83.7551C138.17 81.1772 135.85 79.3727 133.143 79.3727C131.725 79.3727 130.436 79.8883 129.405 80.7905C129.147 80.5327 128.889 80.2749 128.632 80.0171C124.507 75.8925 118.191 75.6348 117.934 75.6348C117.676 75.6348 117.547 75.7637 117.418 75.8925C117.289 76.0214 117.16 76.2792 117.16 76.4081C117.16 76.6659 117.418 82.9817 121.543 87.1063C122.058 87.6219 122.574 88.0086 123.089 88.3952C122.187 89.4264 121.671 90.7153 121.671 92.1332C121.671 95.0977 123.863 97.4178 126.698 97.8045C126.44 98.8356 126.312 99.7379 126.312 100.769C126.312 106.569 130.565 111.209 130.694 111.467C130.823 111.596 131.081 111.725 131.21 111.725C131.338 111.725 131.596 111.596 131.725 111.467C131.854 111.209 136.108 106.569 136.108 100.769C136.108 99.9957 135.979 99.2223 135.85 98.449C138.557 98.0623 140.49 95.7422 140.619 93.0354C141.134 93.1643 141.65 93.1643 142.166 93.1643C147.966 93.1643 152.606 88.9108 152.864 88.7819C152.993 88.653 153.122 88.3952 153.122 88.2663C153.122 88.0086 152.993 87.8797 152.864 87.7508C152.993 87.3641 148.352 83.1106 142.552 83.1106ZM133.143 80.9194C135.334 80.9194 137.139 82.7239 137.396 84.9151C137.396 84.9151 137.396 84.9151 137.396 85.044C137.396 85.044 137.396 85.1729 137.396 85.3018C137.396 86.3329 137.01 87.2352 136.494 87.8797C135.592 89.0397 134.045 89.6842 132.37 89.2975C131.725 88.2663 130.694 87.3641 129.534 86.9774C129.534 86.8485 129.405 86.8485 129.405 86.7196L129.276 86.5907C129.147 86.2041 129.018 85.6885 129.018 85.3018C129.018 84.2706 129.405 83.3684 129.921 82.595L130.05 82.4661C130.823 81.435 131.983 80.9194 133.143 80.9194ZM118.836 77.0526C120.64 77.3104 124.894 78.0837 127.729 80.9194C127.987 81.1772 128.245 81.435 128.503 81.8217C127.987 82.595 127.601 83.6262 127.472 84.6573L125.925 83.1106V81.0483C125.925 80.6616 125.538 80.2749 125.152 80.2749C124.765 80.2749 124.378 80.6616 124.378 81.0483V81.6928L122.058 79.3727C121.8 79.1149 121.285 79.1149 121.027 79.3727C120.769 79.6305 120.769 80.146 121.027 80.4038L123.347 82.7239H122.703C122.316 82.7239 121.929 83.1106 121.929 83.4973C121.929 83.884 122.316 84.2706 122.703 84.2706H124.765L126.956 86.4618C125.925 86.4618 125.023 86.8485 124.249 87.3641C123.605 86.9774 123.089 86.5907 122.574 85.9463C119.867 83.1106 119.094 78.8571 118.836 77.0526ZM123.347 92.1332C123.347 90.8442 123.992 89.6842 124.894 88.9108C125.023 88.9108 125.023 88.7819 125.152 88.7819C125.796 88.2663 126.698 88.0086 127.601 88.0086C129.921 88.0086 131.854 89.942 131.854 92.262C131.854 94.4532 130.178 96.2578 128.116 96.5155C127.987 96.5155 127.987 96.5155 127.987 96.5155C127.858 96.5155 127.858 96.5155 127.729 96.5155C125.28 96.3867 123.347 94.4532 123.347 92.1332ZM131.467 109.792C130.307 108.374 127.987 104.765 127.987 100.769C127.987 99.7379 128.116 98.7067 128.503 97.6756C129.405 97.5467 130.178 97.16 130.823 96.7733V100.382L129.276 101.929C129.018 102.187 129.018 102.702 129.276 102.96C129.405 103.089 129.663 103.218 129.792 103.218C129.921 103.218 130.178 103.089 130.307 102.96L130.823 102.445V105.796C130.823 106.183 131.21 106.569 131.596 106.569C131.983 106.569 132.37 106.183 132.37 105.796V102.445L132.885 102.96C133.014 103.089 133.272 103.218 133.401 103.218C133.53 103.218 133.787 103.089 133.916 102.96C134.174 102.702 134.174 102.187 133.916 101.929L132.37 100.382V97.4178C133.143 97.9334 134.045 98.1912 134.947 98.3201C135.076 99.0934 135.205 99.8668 135.205 100.64C135.076 104.894 132.627 108.374 131.467 109.792ZM135.334 97.0311C134.174 97.0311 133.014 96.5155 132.241 95.6133C132.241 95.4844 132.241 95.4844 132.241 95.3555C132.885 94.4532 133.272 93.2932 133.272 92.1332C133.272 91.6176 133.143 91.2309 133.143 90.7153H133.272C134.819 90.7153 136.236 90.0709 137.268 89.0397C138.685 89.6842 139.588 91.2309 139.588 92.7776C139.588 95.0977 137.654 97.0311 135.334 97.0311ZM140.748 91.4887C140.49 90.4575 139.974 89.5553 139.201 88.9108H142.166L143.712 90.4575C143.841 90.5864 144.099 90.7153 144.228 90.7153C144.357 90.7153 144.615 90.5864 144.743 90.4575C145.001 90.1998 145.001 89.6842 144.743 89.4264L144.228 88.9108H147.579C147.966 88.9108 148.352 88.5241 148.352 88.1375C148.352 87.7508 147.966 87.3641 147.579 87.3641H144.228L144.743 86.8485C145.001 86.5907 145.001 86.0751 144.743 85.8174C144.486 85.5596 143.97 85.5596 143.712 85.8174L142.166 87.3641H138.299C138.557 86.7196 138.814 86.0752 138.814 85.3018C139.974 84.7862 141.263 84.5284 142.552 84.5284C146.677 84.5284 150.157 86.9774 151.575 88.0086C150.028 89.4264 145.517 92.262 140.748 91.4887Z" fill="#9560C4"/>
<path d="M97.5671 64.037C95.6337 56.5612 86.2245 57.3345 84.2911 54.6278C82.7444 52.5654 83.3888 47.1519 83.3888 47.1519L50.2631 42.6406L17.1374 47.1519C17.1374 47.1519 17.653 52.5654 16.2351 54.6278C14.3017 57.3345 4.89247 56.5612 2.95906 64.037C1.41233 69.7083 -1.29444 151.685 2.31459 156.841C11.0794 169.472 92.6692 169.214 98.4694 156.841C100.918 150.911 99.1139 69.7083 97.5671 64.037Z" fill="#D8E1EA"/>
<path d="M93.8298 64.9375C92.1541 57.8483 83.776 58.6217 82.1004 56.0438C80.8115 53.9815 81.3271 48.9547 81.3271 48.9547L52.197 44.7012L20.1025 48.9547C20.1025 48.9547 19.9736 53.8526 18.5558 55.786C16.8801 58.3639 9.2754 57.8483 7.47089 64.9375C6.18195 70.3511 3.73297 147.43 6.95531 152.328C14.6889 164.186 89.3185 164.057 94.3453 152.328C96.7943 146.785 95.1187 70.3511 93.8298 64.9375Z" fill="#844D03"/>
<path opacity="0.42" d="M94.0865 64.8086C92.282 57.8484 83.5172 58.6217 81.8416 56.0438C80.4238 54.1104 80.9394 49.0836 80.9394 49.0836L50.2626 44.959L42.6579 45.9901L65.7299 49.0836C65.7299 49.0836 65.7299 49.4703 65.601 50.1147L19.7148 49.9858L19.1992 55.1416L66.8899 56.3016C69.21 58.3639 77.0725 58.1062 78.8771 64.6797C80.2949 69.9644 81.9705 146.914 79.3926 152.328C77.0725 157.354 61.0897 160.19 43.4313 160.835C66.3744 161.608 91.6375 158.772 94.731 152.328C97.3089 147.043 95.5043 70.0933 94.0865 64.8086Z" fill="#47332F"/>
<path d="M15.5898 26.2695V49.3415H15.7187C17.3944 50.6305 32.2171 51.5327 50.2623 51.5327C68.3074 51.5327 83.1302 50.5016 84.8058 49.3415H84.9347V26.2695H15.5898Z" fill="#E03822"/>
<path d="M74.753 26.2695V49.3415H74.4952C72.9485 50.5016 60.7036 51.4038 45.1074 51.5327C46.783 51.5327 48.4587 51.5327 50.2632 51.5327C68.3083 51.5327 83.1311 50.5016 84.8067 49.3415H84.9356V26.2695H74.753Z" fill="#B7281D"/>
<path d="M50.2623 28.7182C69.4113 28.7182 84.9347 27.5064 84.9347 26.0115C84.9347 24.5165 69.4113 23.3047 50.2623 23.3047C31.1132 23.3047 15.5898 24.5165 15.5898 26.0115C15.5898 27.5064 31.1132 28.7182 50.2623 28.7182Z" fill="#EA6132"/>
<path d="M97.0497 120.877H4.50391L5.79284 80.2754H95.7607L97.0497 120.877Z" fill="#E5DCA8"/>
<path d="M44.4607 100.898C43.3007 100.898 42.3984 101.801 42.3984 102.961C42.3984 104.121 43.3007 105.023 44.4607 105.023C45.6208 105.023 46.5231 104.121 46.5231 102.961C46.3942 101.801 45.4919 100.898 44.4607 100.898Z" fill="white"/>
<path d="M54.5154 100.898C53.3554 100.898 52.4531 101.801 52.4531 102.961C52.4531 104.121 53.3554 105.023 54.5154 105.023C55.6755 105.023 56.5778 104.121 56.5778 102.961C56.4489 101.801 55.5466 100.898 54.5154 100.898Z" fill="white"/>
<path d="M63.4091 102.574C62.6357 100.512 61.9912 98.9653 60.4445 97.2897C60.4445 96.7741 60.4445 96.3875 60.4445 95.8719V95.743L59.4133 89.685C59.2845 89.2983 59.0267 88.9116 58.64 88.9116C58.2533 88.7827 57.8666 88.9116 57.6088 89.2983L55.1598 92.5206C51.293 90.3295 47.4262 90.3295 43.6883 92.5206L41.2393 89.2983C40.9815 89.0405 40.5948 88.7827 40.2081 88.9116C39.8215 89.0405 39.5637 89.2983 39.4348 89.685L38.4036 95.743V95.8719C38.4036 96.3875 38.4036 96.7741 38.4036 97.2897C36.8569 98.9653 36.2124 100.512 35.4391 102.574C35.3102 103.09 35.4391 103.605 35.9546 103.734C36.9858 104.25 37.8881 104.637 38.9192 104.766C39.9504 111.597 42.6571 115.979 49.2307 116.882C49.3596 116.882 49.3596 116.882 49.4885 116.882C56.0621 115.979 58.7689 111.726 59.8 104.766C60.8312 104.637 61.7334 104.25 62.7646 103.734C63.4091 103.477 63.5379 102.961 63.4091 102.574ZM37.6303 102.317C37.8881 101.672 38.1458 101.028 38.5325 100.383C38.5325 101.157 38.6614 101.93 38.6614 102.574C38.4036 102.574 38.017 102.445 37.6303 102.317ZM57.9955 103.734C57.0932 110.437 54.7732 113.659 50.3908 114.561V110.437L51.8086 109.664C52.3242 109.406 52.4531 108.761 52.1953 108.375C51.9375 107.859 51.293 107.73 50.9063 107.988L49.3596 108.761L47.8129 107.988C47.2973 107.73 46.6528 107.988 46.524 108.375C46.2662 108.89 46.5239 109.406 46.9106 109.664L48.3285 110.437V114.561C43.9461 113.53 41.626 110.437 40.7237 103.606C40.4659 101.157 40.337 98.192 40.337 95.743L40.9815 92.134L42.5282 94.3252C42.786 94.7118 43.4305 94.8407 43.9461 94.5829C47.5551 92.134 51.1641 92.134 54.9021 94.5829C55.2887 94.8407 55.9332 94.7118 56.3199 94.3252L57.8666 92.134L58.5111 95.743C58.5111 98.3209 58.3822 101.285 57.9955 103.734ZM60.1867 102.703C60.3156 101.93 60.3156 101.285 60.3156 100.512C60.7023 101.028 60.9601 101.672 61.2179 102.445C60.8312 102.445 60.4445 102.574 60.1867 102.703Z" fill="white"/>
</svg>
