<svg width="183" height="142" viewBox="0 0 183 142" fill="none" xmlns="http://www.w3.org/2000/svg">
<path d="M140.126 82.3588C135.239 82.4872 129.837 82.1021 125.979 79.7916C121.35 76.9677 120.192 72.0901 119.549 67.084C119.163 64.0034 119.678 60.7944 121.607 58.4839C124.822 54.2481 130.866 53.863 135.496 52.066C141.026 49.8838 145.399 46.8032 148.485 41.6688C151.829 36.4061 156.459 24.4687 164.818 28.4478C167.133 29.603 168.934 31.6568 170.348 33.7105C177.55 43.8509 179.479 56.6869 170.863 66.699C162.503 76.3259 152.729 82.1021 140.126 82.3588Z" fill="#E5A80E"/>
<path d="M138.323 77.2245C133.822 77.3529 128.935 77.0962 125.334 75.0424C121.09 72.6036 119.933 68.2394 119.418 63.8751C119.161 61.1796 119.547 58.3557 121.219 56.3019C124.177 52.5795 129.707 52.1944 133.951 50.6541C138.966 48.7287 142.953 46.0332 145.911 41.5406C148.869 36.9196 153.242 26.3941 160.829 29.9882C163.016 31.0151 164.559 32.8121 165.974 34.6091C172.661 43.466 174.462 54.89 166.488 63.6184C158.9 71.9618 149.898 77.0962 138.323 77.2245Z" fill="#F7C128"/>
<path d="M128.551 59.1256C124.565 62.0778 119.935 64.7734 115.434 65.1585C110.032 65.5435 106.303 62.2062 102.83 58.3554C100.773 56.0449 99.358 53.0927 99.4866 50.1404C99.7438 44.7493 104.502 41.0269 107.203 36.9194C110.547 32.0417 112.347 27.0357 111.961 21.0028C111.576 14.7132 108.618 2.39065 117.749 0.850334C120.321 0.465255 122.893 1.10705 125.336 2.00557C137.039 6.24144 146.042 15.74 144.627 28.7044C143.47 41.4119 138.84 51.8091 128.551 59.1256Z" fill="#F2B316"/>
<path d="M127.78 59.6383C124.05 62.4622 119.549 65.1578 115.176 65.2861C109.904 65.5428 106.174 62.2055 102.83 58.3547C100.773 56.0442 99.358 53.092 99.4866 50.1397C99.6152 44.8769 104.116 41.2829 106.689 37.1754C109.775 32.4261 111.447 27.42 111.061 21.5155C110.547 15.3542 107.46 3.03173 116.334 1.74813C118.777 1.36305 121.35 2.13321 123.664 3.03173C135.11 7.39595 144.113 16.8946 142.955 29.7305C142.055 42.4381 137.682 52.5785 127.78 59.6383Z" fill="#F7C128"/>
<path d="M3.03156 55.6607C1.23109 51.0397 -0.183571 45.9053 0.845273 41.4128C2.00272 36.15 6.2467 33.4545 10.7479 31.144C13.4486 29.8604 16.6638 29.2186 19.6217 30.2455C24.6373 31.9141 27.0808 37.4336 30.2959 41.2844C34.1541 45.777 38.5267 48.8576 44.3139 50.1412C50.3584 51.5532 63.219 52.0666 62.1901 61.1801C61.9329 63.7473 60.5182 66.0578 59.1036 68.1115C51.9017 78.2519 40.3272 84.2848 28.1096 79.4072C16.0207 74.7862 7.27555 67.5981 3.03156 55.6607Z" fill="#F2B316"/>
<path d="M6.24607 54.6336C4.44559 50.0126 3.03093 44.8782 3.93116 40.514C4.96001 35.2513 8.81818 32.6841 13.1908 30.502C15.7629 29.2184 18.8494 28.7049 21.5501 29.7318C26.3085 31.5289 28.752 37.0483 31.8386 40.8991C35.5681 45.3917 39.6835 48.6007 45.3421 50.0126C51.1294 51.4246 63.2183 52.1948 62.4467 61.3083C62.1895 63.8755 61.032 66.0576 59.6174 68.1113C52.9299 78.1234 42.127 83.8996 30.5525 78.7652C18.8494 73.8875 10.49 66.4427 6.24607 54.6336Z" fill="#F7C128"/>
<path d="M40.7132 36.9185C38.9127 32.2975 37.4981 27.1632 38.5269 22.6706C39.6844 17.4078 43.9283 14.7123 48.4295 12.4018C51.1303 11.1182 54.3454 10.4764 57.3033 11.5033C62.3189 13.172 64.7624 18.6914 67.9776 22.5422C71.8357 27.0348 76.2083 30.1154 81.9956 31.399C88.04 32.811 100.901 33.3244 99.8718 42.438C99.6145 45.0051 98.1999 47.3156 96.7852 49.3694C89.5833 59.5098 78.0088 65.5427 65.7913 60.665C53.7024 56.0441 44.9572 48.7276 40.7132 36.9185Z" fill="#EAAA0A"/>
<path d="M45.0847 35.3792C43.2842 30.7582 41.8696 25.6238 42.6412 21.2596C43.5414 16.1252 47.3996 13.4297 51.515 11.3759C53.9585 10.0923 57.045 9.70724 59.7457 10.7341C64.5041 12.5312 66.819 18.0506 69.9056 21.9014C73.6351 26.394 77.6219 29.603 83.1519 31.1433C88.8106 32.6836 100.642 33.4538 99.8707 42.5673C99.6134 45.1345 98.456 47.3166 97.1699 49.3703C90.7397 59.254 80.194 64.9019 68.7481 59.7675C57.5594 54.7614 49.3287 47.3166 45.0847 35.3792Z" fill="#F7C128"/>
<path d="M99.1001 72.2175C96.0136 75.94 92.1554 79.7907 87.7828 81.0743C82.6386 82.6147 78.1374 80.3042 74.022 77.4803C71.5785 75.6832 69.3922 73.2444 68.8778 70.2921C67.849 65.0294 71.5785 60.2801 73.2504 55.6591C75.3081 50.1397 75.8225 44.7486 74.1507 39.1008C72.3502 33.0679 66.5629 21.7722 75.0509 18.1781C77.3658 17.1513 80.0665 17.2796 82.6386 17.5363C95.1134 18.8199 106.045 26.0081 107.717 38.9724C109.517 51.5516 107.46 62.7189 99.1001 72.2175Z" fill="#E2C205"/>
<path d="M97.9421 73.6317C95.1128 77.0974 91.5119 80.5631 87.3965 81.5899C82.5095 82.8735 78.1369 80.4347 74.0215 77.4824C71.578 75.6854 69.3917 73.2466 68.7487 70.4227C67.5912 65.4166 70.935 61.0524 72.3496 56.6882C74.0215 51.5538 74.4073 46.5478 72.4782 40.9C70.4206 35.1238 64.3761 24.0849 72.4782 21.0042C74.6645 20.1057 77.2366 20.3624 79.8088 20.7475C91.7691 22.5446 102.572 29.7327 104.887 42.1836C106.945 54.3777 105.401 64.9032 97.9421 73.6317Z" fill="#F8D800"/>
<path d="M112.602 31.2728C118.132 27.8071 123.92 24.3414 130.35 23.1862C136.78 21.9026 144.111 23.4429 148.355 28.4489C152.599 33.5833 152.342 41.4132 149.384 47.3178C146.426 53.2223 141.024 57.5865 135.366 61.309C129.707 64.903 123.405 67.9837 116.718 68.4971C110.03 69.0105 102.7 66.4434 98.9702 60.9239C95.1121 55.1477 95.8837 47.0611 99.8705 41.4132C103.857 35.7654 108.101 32.4281 113.117 31.0161" fill="#F4CE11"/>
<path d="M112.474 30.7581C118.133 27.6774 123.92 24.4684 130.35 23.0565C136.781 21.7729 143.983 22.7998 147.969 26.9073C151.956 31.1431 151.442 37.8178 148.227 43.0806C145.011 48.215 139.481 52.1941 133.823 55.5315C128.036 58.8688 121.734 61.6927 115.046 62.4629C108.359 63.1047 101.286 61.3076 97.8133 56.5583C94.2123 51.6807 95.2412 44.7492 99.4852 39.7432C103.729 34.7372 107.973 31.7849 112.989 30.373" fill="#FFE133"/>
<path d="M82.6376 48.2143C88.1676 44.7485 93.9549 41.2828 100.385 40.1276C106.815 38.844 114.146 40.3843 118.39 45.3903C122.634 50.5247 122.377 58.3547 119.419 64.2592C116.461 70.1638 111.059 74.528 105.401 78.2504C99.7421 81.8445 93.4405 84.9251 86.753 85.4385C80.0655 85.952 72.735 83.3848 69.0054 77.8653C65.1472 72.0892 65.9189 64.0025 69.9056 58.3547C73.8924 52.7068 78.1364 49.3695 83.152 47.9575" fill="#EDAE0F"/>
<path d="M79.4222 48.9856C84.052 45.7766 88.9391 42.5676 94.4691 41.5407C99.9991 40.5138 106.301 42.3109 110.159 47.4453C114.017 52.708 114.017 60.4096 111.702 66.1857C109.387 71.9619 104.886 76.0694 100.256 79.4068C95.4979 82.8725 90.2251 85.6964 84.4379 85.8248C78.6506 86.0815 72.3489 83.2576 68.8766 77.6098C65.4042 71.7052 65.6615 63.7469 69.0052 58.2275C72.2203 52.8364 75.8213 49.6274 80.0653 48.4721" fill="#F7C128"/>
<path d="M58.0751 72.0898C52.5451 68.6241 46.7578 65.1583 42.7711 59.8956C38.7843 54.7612 36.7266 47.4447 39.4273 41.5402C42.128 35.5073 49.2013 32.1699 55.7602 32.1699C62.4477 32.1699 68.7494 34.9938 74.5366 38.3312C80.3239 41.6685 85.9825 45.9044 89.4549 51.6806C92.9272 57.4568 93.9561 65.03 90.6123 70.9345C87.14 76.9674 79.5522 80.0481 72.7362 79.0212C65.9201 77.9943 61.0331 75.6838 57.4321 71.833" fill="#F4CE11"/>
<path d="M57.8178 72.2196C52.4164 68.6255 46.7578 65.0315 42.771 59.8971C38.7842 54.7627 36.4693 47.7029 38.7842 42.0551C41.0991 36.4073 47.5294 33.455 53.8311 33.8401C60.1327 34.0968 66.3058 37.0491 71.9644 40.6431C77.6231 44.1089 83.1531 48.4731 86.7541 54.1209C90.355 59.7687 91.6411 67.0852 88.8117 72.6047C85.8538 78.2525 78.7805 80.8197 72.2216 79.5361C65.6628 78.2525 60.9044 75.8137 57.432 71.9629" fill="#FFE133"/>
<path d="M61.8038 49.6266C65.662 49.6266 65.662 43.5938 61.8038 43.5938C57.9456 43.5938 57.9456 49.6266 61.8038 49.6266Z" fill="#FFD576"/>
<path d="M70.1636 59.8952C75.3078 59.8952 75.3078 51.8086 70.1636 51.8086C64.8908 51.8086 64.8908 59.8952 70.1636 59.8952Z" fill="#FFD576"/>
<path d="M54.6031 57.5839C58.204 57.5839 58.204 52.0645 54.6031 52.0645C51.0021 52.0645 51.0021 57.5839 54.6031 57.5839Z" fill="#FFD576"/>
<path d="M24.5081 50.9119C24.7654 50.9119 24.7654 50.3984 24.5081 50.3984C24.1223 50.3984 24.1223 50.9119 24.5081 50.9119Z" fill="#FFD576"/>
<path d="M14.8639 44.6199C15.2497 44.8766 15.6355 45.1333 16.0213 45.39C16.1499 45.5184 16.4071 45.5184 16.5357 45.6467C16.793 45.7751 17.1788 45.7751 17.436 45.6467C17.9504 45.5184 18.4648 45.39 18.722 45.0049C18.9792 44.7482 19.2365 44.3632 19.3651 43.9781C19.4937 43.7214 19.4937 43.3363 19.3651 43.0795C19.3651 42.8228 19.2365 42.4378 19.1079 42.181C18.8506 41.796 18.5934 41.4109 18.3362 41.0258C17.8218 40.2556 17.0502 39.7422 16.0213 39.7422C15.3783 39.7422 14.6067 39.9989 14.2208 40.5123C13.7064 41.0258 13.4492 41.6676 13.4492 42.3094C13.5778 43.3363 14.0922 44.1064 14.8639 44.6199Z" fill="#FFD576"/>
<path d="M23.4799 55.5317C24.2515 55.5317 24.2515 54.248 23.4799 54.248C22.5796 54.248 22.5796 55.5317 23.4799 55.5317Z" fill="#FFD576"/>
<path d="M48.3011 24.3413C50.4874 24.3413 50.4874 21.0039 48.3011 21.0039C46.2434 21.1323 46.2434 24.3413 48.3011 24.3413Z" fill="#FFD576"/>
<path d="M56.66 29.9874C60.6468 29.9874 60.6468 23.8262 56.66 23.8262C52.6732 23.8262 52.6732 29.9874 56.66 29.9874Z" fill="#FFD576"/>
<path d="M130.351 44.6206C134.595 44.6206 134.595 38.0742 130.351 38.0742C126.107 38.0742 126.107 44.6206 130.351 44.6206Z" fill="#FFD576"/>
<path d="M140.64 38.2033C145.913 38.2033 145.913 29.9883 140.64 29.9883C135.367 29.9883 135.367 38.2033 140.64 38.2033Z" fill="#FFD576"/>
<path d="M127.135 13.301C130.993 13.301 130.993 7.39648 127.135 7.39648C123.405 7.39648 123.405 13.301 127.135 13.301Z" fill="#FFD576"/>
<path d="M159.415 53.9907C164.945 53.9907 164.945 45.3906 159.415 45.3906C153.885 45.3906 153.885 53.9907 159.415 53.9907Z" fill="#FFD576"/>
<path d="M138.583 65.9287C138.84 65.9287 139.097 66.0571 139.483 66.0571C140.255 66.3138 141.026 66.3138 141.669 66.0571C142.441 65.8004 142.955 65.5436 143.47 65.0302C144.242 64.2601 144.756 63.2332 144.756 62.0779C144.756 61.5645 144.627 60.9227 144.37 60.4093C144.242 59.8958 143.856 59.3824 143.47 59.1257C142.955 58.6122 142.312 58.2271 141.669 58.0988C140.898 57.8421 140.126 57.8421 139.483 58.0988C139.226 58.0988 138.969 58.2271 138.583 58.2271C138.326 58.3555 137.94 58.4839 137.683 58.6122C137.168 58.8689 136.782 59.254 136.525 59.6391C136.268 59.8958 136.139 60.1525 136.011 60.5376C135.754 61.0511 135.625 61.5645 135.625 62.0779C135.625 62.463 135.754 62.8481 135.754 63.1048C135.882 63.3615 136.011 63.7466 136.139 64.0033C136.397 64.5168 136.782 64.9018 137.168 65.1586C137.554 65.672 138.068 65.8004 138.583 65.9287Z" fill="#FFD576"/>
<path d="M106.431 62.2065C110.675 62.2065 110.675 55.6602 106.431 55.6602C102.187 55.7885 102.187 62.2065 106.431 62.2065Z" fill="#FFD576"/>
<path d="M105.402 52.3213C108.746 52.3213 108.746 47.0586 105.402 47.0586C102.059 47.0586 102.059 52.3213 105.402 52.3213Z" fill="#FFD576"/>
<path d="M5.21875 63.3613H181.923C181.923 63.3613 196.455 138.452 96.9145 141.276C96.9145 141.147 11.006 150.517 5.21875 63.3613Z" fill="#EA5226"/>
<path d="M5.21875 63.3613H171.12C171.12 63.3613 184.752 138.452 91.2558 141.276C91.3845 141.147 10.6202 150.517 5.21875 63.3613Z" fill="#FF7F4D"/>
<path d="M20.1367 63.3613H171.248C171.248 63.3613 183.723 138.452 98.5861 141.276C98.4575 141.147 25.0237 150.517 20.1367 63.3613Z" fill="#F75D39"/>
<path d="M45.0853 50.0122C46.7572 51.9376 48.4291 54.2481 48.8149 56.5585C49.2007 59.3825 47.6575 61.4362 45.857 63.3616C44.6995 64.5168 43.2849 65.4154 41.613 65.4154C38.7837 65.5437 36.5974 63.2332 34.2825 61.9496C31.5818 60.4093 28.881 59.7675 25.7945 60.1526C22.5794 60.5377 16.1491 62.7198 14.9916 57.9705C14.6058 56.6869 14.863 55.2749 15.2488 53.9914C16.9207 47.7017 21.5505 42.5674 28.4952 42.6957C35.1827 42.9524 40.8413 44.8778 45.0853 50.0122Z" fill="#F8D800"/>
</svg>
