<svg width="309" height="166" viewBox="0 0 309 166" fill="none" xmlns="http://www.w3.org/2000/svg">
<path d="M152.823 28.121C107.032 28.5655 70.133 39.9021 65.1316 57.4626C60.1302 75.1343 75.1345 107.699 161.27 107.366C236.514 107.143 248.073 80.5803 247.406 65.4649C246.628 46.5707 201.837 27.6764 152.823 28.121Z" fill="#A2E3ED"/>
<path d="M83.2483 60.4605C79.0249 69.9076 82.5815 78.2433 91.1395 83.5781C98.3637 88.135 107.366 91.3581 115.146 93.6921C133.707 99.2493 155.047 100.361 174.497 98.249C180.387 97.5821 179.276 95.0258 180.276 90.1356C180.943 86.579 181.943 81.5776 184.055 78.4656C189.501 70.5744 201.726 77.1319 207.839 80.5773C211.729 82.8001 214.619 85.023 219.287 84.3561C223.955 83.5781 225.956 81.3553 229.401 78.2433C232.513 75.4647 235.292 73.7976 236.848 69.7965C238.626 65.3507 238.404 60.6827 234.958 57.1262C231.624 53.7919 226.289 52.9028 221.732 52.2359C212.507 50.9022 202.282 51.6802 193.057 51.9025C169.717 52.4582 146.711 55.9036 123.593 58.6822C114.368 59.7936 104.365 62.6833 95.0295 62.0165L83.2483 60.4605Z" fill="#92CDD3"/>
<path d="M222.287 18.8921C210.395 13.0015 197.058 11.8901 183.832 11.5567C164.493 11.001 144.598 10.5564 125.927 16.0024C123.593 16.6692 115.257 20.1147 113.923 19.1144L86.4708 20.7815C80.9137 26.8944 81.136 36.5638 81.136 44.5661C81.136 49.3452 81.5806 53.9021 81.914 58.57C82.2474 62.9046 82.4697 67.906 83.5811 72.0183C86.4708 82.0212 99.2522 85.5777 107.921 89.1343C117.035 92.802 127.594 94.6914 137.263 95.5806C149.822 96.8031 162.715 97.0254 175.274 95.5806L174.162 67.128L216.063 84.244C222.176 80.7986 227.844 76.0195 230.401 69.6843C233.957 60.7929 234.291 52.0126 234.291 42.2321C234.291 33.0072 231.068 23.2267 222.287 18.8921Z" fill="#EFE8C5"/>
<path d="M135.818 95.4716C135.707 95.2493 135.707 95.027 135.485 94.8047C134.596 93.471 131.373 93.1376 130.039 92.693C121.37 90.1367 120.37 76.7996 121.592 69.0196C122.37 64.4627 124.482 60.4616 126.371 56.127C130.039 47.5691 124.371 38.0108 118.48 31.7868C115.146 28.2302 109.033 23.1177 102.476 19.8945L86.5822 20.8948C81.025 27.0077 81.2473 36.6771 81.2473 44.6794C81.2473 49.4585 81.6919 54.0153 82.0253 58.6833C82.3587 63.0179 82.581 68.0193 83.6925 72.1316C86.5822 82.1344 99.3636 85.691 108.033 89.2476C116.591 92.5819 126.594 94.4713 135.818 95.4716Z" fill="#EFEEBF"/>
<path d="M136.485 88.3569C135.374 84.8003 135.374 80.7992 135.151 77.0203C134.929 72.2412 135.04 67.1286 136.263 62.4606C136.707 61.0158 139.264 55.3475 136.152 55.4586C135.262 55.4586 134.596 56.3478 134.151 56.9035L134.484 56.7924C132.484 59.9044 132.373 64.1278 132.484 67.6843C132.706 72.3523 132.15 76.798 132.15 81.466C132.15 84.578 132.817 87.8012 134.262 90.6909C134.818 91.8023 136.818 95.9146 138.597 95.1366C140.153 94.5809 136.93 89.6906 136.485 88.3569Z" fill="#EFEEBF"/>
<path d="M152.267 91.2473C151.378 84.4676 152.489 77.2433 152.823 70.4636C152.934 67.1293 152.156 63.6839 151.934 60.3496C151.934 59.4605 152.823 57.0153 152.489 56.4596C151.711 55.1259 150.711 56.4596 150.378 57.4599C149.266 58.1267 149.489 59.7939 149.6 61.0165C149.933 63.017 150.267 64.6842 150.378 66.7959C150.6 72.4641 150.378 78.1324 150.378 83.6896C150.378 85.8013 150.267 87.913 150.044 89.9136C149.933 91.2473 149.711 92.8033 150.378 94.0258C150.822 94.8038 152.378 96.1375 152.934 95.1373C153.49 94.2481 152.378 92.0253 152.267 91.2473Z" fill="#EFEEBF"/>
<path d="M167.939 60.7942C167.939 59.4605 167.716 58.5713 167.161 57.4599C166.827 56.7931 165.938 55.4593 165.382 56.0151L165.493 55.9039C164.271 56.6819 164.827 58.7936 165.049 59.9051C165.382 62.1279 165.271 64.4619 165.271 66.6848C165.271 71.575 165.382 76.4653 165.716 81.2445C165.938 84.6899 165.716 88.3576 165.716 91.803C165.716 92.6921 165.271 94.5816 166.271 94.915C167.716 95.3596 167.383 93.2479 167.383 92.581C167.383 85.4679 167.494 78.4659 167.827 71.4639C167.827 67.7962 168.05 64.2396 167.939 60.7942Z" fill="#EFEEBF"/>
<path d="M222.065 49.5698C221.954 48.4584 221.842 42.4567 220.064 45.1241L220.509 44.7907C218.842 46.9024 219.731 49.7921 219.842 52.3484C219.953 55.7938 219.953 59.2392 220.064 62.6847C220.175 65.6855 220.398 68.6864 220.398 71.6872C220.398 74.7992 219.842 77.9112 219.731 80.9121C222.176 81.4678 221.954 68.5752 221.954 66.7969C221.954 61.0175 222.398 55.2381 222.065 49.5698Z" fill="#EFEEBF"/>
<path d="M229.51 46.2343C229.177 44.2337 228.399 42.6777 228.399 40.4549C228.399 39.6769 228.621 38.1209 227.843 37.6763C226.621 37.0094 226.065 38.4543 226.176 39.3434L226.398 39.2323C225.62 40.2326 227.732 45.7897 227.843 46.79C228.399 50.68 227.954 55.0146 227.51 58.9045C227.176 61.9054 227.065 64.7951 226.954 67.796C226.843 69.1297 225.731 73.6865 226.732 74.5757C227.287 73.7977 227.287 72.6863 227.399 71.7971C227.621 70.4634 228.177 69.1297 228.399 67.796C228.732 65.462 228.732 62.7945 228.843 60.3494C229.177 55.7926 230.177 50.68 229.51 46.2343Z" fill="#EFEEBF"/>
<path d="M173.606 58.7945C173.606 58.7945 95.2504 61.2396 83.8027 36.1214C78.9125 25.4517 86.9147 0 155.379 0C216.618 0 232.623 19.5611 231.511 31.0088C230.4 42.4565 214.618 49.4585 214.618 49.4585L164.492 27.4522L173.606 58.7945Z" fill="#F4F3C3"/>
<path d="M216.841 62.6836C216.73 60.2384 216.063 57.7933 215.84 55.4593C215.729 53.4587 217.508 50.4579 216.285 48.6796C215.063 46.9013 206.06 43.9005 204.171 42.9002C200.392 40.8996 196.168 39.5659 192.278 37.8988C188.166 36.1205 184.054 34.1199 179.83 32.4528C177.385 31.4525 174.829 30.4522 172.495 29.4519C170.161 28.4516 164.493 25.6731 164.493 27.2291C164.159 28.0071 172.161 53.0142 173.606 58.6824C173.94 60.2384 170.939 61.6833 171.495 63.1281C171.828 64.1284 173.051 65.7956 172.717 66.907C176.051 70.3524 181.942 71.7973 186.277 73.7978C192.056 76.3541 197.724 79.1327 203.281 81.3555C206.06 82.467 208.95 83.245 211.728 84.023C213.84 84.5787 216.841 85.4678 217.063 82.467C217.508 76.0207 217.174 69.241 216.841 62.6836Z" fill="#E2DFB5"/>
<path d="M164.492 27.4512L214.618 49.5686L214.506 83.356L174.162 67.1291L173.606 58.7934L164.492 27.4512Z" fill="#FCE886"/>
<path d="M171.051 36.0102C171.717 36.677 172.384 37.2328 173.162 37.7885C173.718 38.233 174.607 37.455 173.94 37.0105C173.273 36.4548 172.495 35.7879 171.829 35.2322C171.273 34.6765 170.495 35.4545 171.051 36.0102C171.717 36.5659 172.495 37.2328 173.162 37.7885C173.385 37.5662 173.718 37.2328 173.94 37.0105C173.273 36.4548 172.495 35.7879 171.829 35.2322C171.384 34.6765 170.495 35.4545 171.051 36.0102Z" fill="#E0CD79"/>
<path d="M171.274 40.4536C171.052 41.1204 171.052 41.7873 171.163 42.4541C171.274 43.121 172.274 42.8987 172.274 42.343C172.274 41.7873 172.274 41.3427 172.274 40.787C172.274 40.009 171.163 40.009 171.163 40.787C171.163 41.3427 171.163 41.7873 171.163 42.343C171.496 42.343 171.941 42.2319 172.274 42.2319C172.274 42.0096 172.163 41.7873 172.163 41.565C172.163 41.4539 172.163 41.3427 172.163 41.2316C172.163 41.2316 172.274 41.0093 172.163 41.1204C172.274 40.787 172.274 40.4536 171.941 40.3424C171.83 40.1201 171.385 40.1201 171.274 40.4536Z" fill="#E0CD79"/>
<path d="M172.939 48.1257C173.05 48.348 173.162 48.6814 173.162 48.9037C173.495 48.9037 173.94 48.7925 174.273 48.7925C174.162 48.4591 174.051 48.0145 173.94 47.6811C173.717 46.9031 172.606 47.2365 172.828 48.0145C172.939 48.3479 173.05 48.7925 173.162 49.1259C173.273 49.7928 174.273 49.6817 174.273 49.0148C174.273 48.5702 174.162 48.0145 173.94 47.57C173.828 47.2365 173.384 47.2365 173.162 47.3477C172.828 47.57 172.828 47.9034 172.939 48.1257Z" fill="#E0CD79"/>
<path d="M178.054 47.57C178.498 47.6812 178.943 47.9035 179.276 48.0146C179.61 48.1257 179.943 47.9035 179.943 47.57C180.054 47.2366 179.832 46.9032 179.498 46.9032C179.054 46.792 178.609 46.5697 178.276 46.4586C177.942 46.3475 177.609 46.5697 177.609 46.9032C177.498 47.2366 177.72 47.4589 178.054 47.57C178.498 47.6812 178.943 47.9035 179.276 48.0146C179.387 47.6812 179.498 47.2366 179.61 46.9032C179.165 46.792 178.72 46.5697 178.387 46.4586C178.054 46.3475 177.72 46.5697 177.72 46.9032C177.498 47.2366 177.72 47.4589 178.054 47.57Z" fill="#E0CD79"/>
<path d="M183.497 41.3454C183.942 41.4566 184.386 41.6788 184.942 41.6788C185.609 41.6788 185.72 40.6786 185.053 40.5674C184.608 40.4563 184.164 40.3451 183.83 40.234C183.497 40.1228 183.164 40.3451 183.164 40.6786C183.052 40.9008 183.164 41.2343 183.497 41.3454C183.942 41.4566 184.386 41.5677 184.72 41.6788C184.72 41.3454 184.831 40.9008 184.831 40.5674C184.497 40.5674 184.053 40.4563 183.719 40.3451C183.386 40.234 183.052 40.4563 183.052 40.7897C182.941 40.9008 183.164 41.2343 183.497 41.3454Z" fill="#E0CD79"/>
<path d="M193.391 47.5693C193.502 47.5693 193.502 47.5693 193.391 47.5693C193.502 47.5693 193.502 47.5693 193.502 47.6805C193.502 47.6805 193.613 47.6805 193.613 47.7916C193.502 47.6805 193.613 47.7916 193.613 47.7916C193.724 47.9028 193.835 48.0139 193.946 48.125C194.28 47.9028 194.502 47.6805 194.836 47.4582C194.502 47.1248 194.169 46.9025 193.835 46.5691C193.613 46.3468 193.28 46.3468 193.057 46.5691C192.835 46.7913 192.835 47.2359 193.057 47.3471C193.391 47.6805 193.724 47.9028 194.058 48.2362C194.28 48.4585 194.502 48.4585 194.724 48.3473C194.947 48.2362 195.058 47.7916 194.947 47.5693C194.613 47.0136 194.169 46.6802 193.613 46.4579C193.28 46.3468 192.946 46.5691 192.946 46.9025C192.946 47.2359 193.168 47.4582 193.391 47.5693Z" fill="#E0CD79"/>
<path d="M191.612 54.681C191.945 55.0145 192.279 55.3479 192.612 55.6813C192.835 55.9036 193.168 55.9036 193.39 55.6813C193.613 55.459 193.613 55.1256 193.39 54.9033C193.057 54.5699 192.723 54.2365 192.39 53.903C192.168 53.6808 191.834 53.6808 191.612 53.903C191.39 54.1253 191.39 54.4588 191.612 54.681C191.945 55.0145 192.279 55.3479 192.612 55.6813C192.835 55.459 193.168 55.1256 193.39 54.9033C193.057 54.5699 192.723 54.2365 192.39 53.903C192.168 53.6808 191.834 53.6808 191.612 53.903C191.39 54.1253 191.39 54.4588 191.612 54.681Z" fill="#E0CD79"/>
<path d="M180.496 57.1284C180.496 57.7953 180.496 58.351 180.607 58.9067C180.718 59.5736 181.83 59.4624 181.719 58.7956C181.719 58.2398 181.608 57.6841 181.608 57.1284C181.608 56.3504 180.496 56.3504 180.496 57.1284C180.496 57.6841 180.607 58.2398 180.607 58.7956C180.941 58.7956 181.385 58.6844 181.719 58.6844C181.608 58.1287 181.608 57.6841 181.608 57.1284C181.719 56.3504 180.496 56.3504 180.496 57.1284Z" fill="#E0CD79"/>
<path d="M185.611 61.5735C185.722 62.1293 185.722 62.5738 185.722 63.1295C186.056 63.1295 186.5 63.1295 186.834 63.1295C186.834 62.5738 186.723 62.0181 186.723 61.4624C186.612 60.6844 185.5 60.6844 185.611 61.4624C185.611 62.0181 185.722 62.5738 185.722 63.1295C185.834 63.9075 186.834 63.9075 186.834 63.1295C186.834 62.4627 186.834 61.907 186.723 61.3513C186.5 60.5733 185.389 60.9067 185.611 61.5735Z" fill="#E0CD79"/>
<path d="M178.497 65.4637C178.719 65.9083 178.83 66.2417 179.164 66.5751C179.608 67.0197 180.386 66.464 180.053 65.9083C179.83 65.5749 179.719 65.2414 179.497 64.908C179.164 64.2411 178.163 64.908 178.497 65.4637C178.719 65.7971 178.83 66.1306 179.052 66.464C179.386 66.2417 179.608 66.0194 179.942 65.7971C179.942 65.7971 179.942 65.686 179.83 65.686C179.719 65.5749 179.719 65.4637 179.719 65.4637C179.608 65.3526 179.608 65.1303 179.497 65.0191C179.386 64.6857 178.941 64.6857 178.719 64.7969C178.497 64.908 178.386 65.2414 178.497 65.4637Z" fill="#E0CD79"/>
<path d="M197.613 73.9102C198.168 74.0213 198.835 74.2436 199.391 74.3548C200.169 74.4659 200.391 73.3545 199.724 73.2433C199.169 73.1322 198.502 72.9099 197.946 72.7988C197.168 72.5765 196.835 73.6879 197.613 73.9102C198.168 74.0213 198.835 74.2436 199.391 74.3548C199.502 74.0213 199.613 73.5768 199.724 73.2433C199.169 73.1322 198.502 73.021 197.946 72.7988C197.168 72.5765 196.835 73.6879 197.613 73.9102Z" fill="#E0CD79"/>
<path d="M206.839 75.0201C207.283 75.0201 207.728 75.0201 208.061 74.6867C208.283 74.4644 208.283 74.2421 208.172 74.0198C208.061 73.7975 207.728 73.6864 207.505 73.7975C207.172 73.7975 206.95 73.9087 206.616 73.9087C206.283 73.9087 206.172 74.3532 206.172 74.5755C206.283 74.9089 206.616 75.0201 206.839 75.0201C207.172 75.0201 207.394 74.9089 207.728 74.9089C207.505 74.5755 207.394 74.2421 207.172 73.9087C207.283 73.7975 207.283 73.7975 207.172 73.9087C207.283 73.9087 207.283 73.9087 207.172 73.9087H207.061C207.172 73.9087 207.172 73.9087 207.061 73.9087C206.95 73.9087 206.727 73.9087 206.616 73.9087C206.283 73.9087 206.061 74.1309 206.061 74.4644C206.283 74.7978 206.505 75.0201 206.839 75.0201Z" fill="#E0CD79"/>
<path d="M197.168 65.3496C197.835 65.5719 198.502 65.7942 199.28 65.9054C200.058 66.0165 200.28 65.0162 199.613 64.7939C198.947 64.5716 198.169 64.4605 197.502 64.2382C196.724 64.0159 196.501 65.1274 197.168 65.3496C197.835 65.5719 198.613 65.6831 199.28 65.9054C199.391 65.5719 199.502 65.1274 199.613 64.7939C198.947 64.6828 198.169 64.4605 197.502 64.2382C196.835 64.0159 196.501 65.1274 197.168 65.3496Z" fill="#E0CD79"/>
<path d="M205.727 62.1304C206.061 62.0193 206.394 61.797 206.728 61.797C206.728 61.4635 206.616 61.019 206.616 60.6855C206.172 60.7967 205.727 61.019 205.394 61.1301C205.06 61.2413 204.949 61.5747 204.949 61.797C205.06 62.1304 205.394 62.3527 205.616 62.2415C206.061 62.1304 206.505 61.9081 206.839 61.797C207.394 61.5747 207.394 60.6855 206.728 60.6855C206.172 60.6855 205.616 60.9078 205.172 61.1301C204.838 61.2413 204.838 61.6858 204.949 61.9081C205.172 62.1304 205.505 62.2415 205.727 62.1304Z" fill="#E0CD79"/>
<path d="M202.059 59.4599C202.503 59.0153 202.726 58.4596 203.17 58.015C202.948 57.7927 202.614 57.4593 202.392 57.237C202.059 57.6816 201.614 58.1262 201.281 58.6819C201.058 58.9042 201.058 59.2376 201.281 59.4599C201.503 59.6822 201.948 59.6822 202.059 59.4599C202.392 59.0153 202.837 58.5707 203.17 58.015C203.392 57.7927 203.392 57.4593 203.17 57.237C202.948 57.0147 202.614 57.0147 202.392 57.237C201.948 57.6816 201.725 58.2373 201.281 58.6819C200.725 59.2376 201.614 60.0156 202.059 59.4599Z" fill="#E0CD79"/>
<path d="M204.393 50.3472C204.504 50.2361 204.615 50.2361 204.727 50.2361C204.949 50.1249 205.171 50.1249 205.282 50.0138C205.616 49.9026 205.616 49.4581 205.505 49.2358C205.282 48.9023 204.949 48.9023 204.727 49.0135C204.393 49.1246 204.06 49.3469 203.726 49.4581C203.393 49.5692 203.393 50.0138 203.504 50.2361C203.726 50.4584 204.06 50.4584 204.393 50.3472C204.727 50.2361 205.06 50.0138 205.393 49.9026C205.171 49.5692 204.949 49.2358 204.838 48.9023C204.727 49.0135 204.615 49.0135 204.504 49.0135C204.282 49.1246 204.06 49.1246 203.949 49.2358C203.615 49.3469 203.615 49.7915 203.726 50.0138C203.726 50.4584 204.06 50.4584 204.393 50.3472Z" fill="#E0CD79"/>
<path d="M209.95 50.5698C210.395 50.681 210.728 51.0144 211.173 51.1255C211.84 51.3478 212.173 50.3475 211.617 50.0141C211.173 49.7918 210.728 49.6807 210.395 49.4584C210.061 49.3473 209.728 49.3473 209.617 49.6807C209.506 49.903 209.506 50.3476 209.839 50.4587C210.284 50.681 210.728 50.7921 211.062 51.0144C211.173 50.681 211.395 50.3476 211.506 49.903C211.062 49.7918 210.728 49.4584 210.284 49.3473C209.95 49.2361 209.617 49.4584 209.617 49.7918C209.395 50.1253 209.617 50.4587 209.95 50.5698Z" fill="#E0CD79"/>
<path d="M211.061 55.4598C211.061 56.0155 211.283 56.4601 211.616 56.7935C211.839 57.0158 212.061 57.0158 212.283 56.9047C212.617 56.6824 212.617 56.349 212.505 56.1267C212.394 55.7933 212.172 55.4598 212.061 55.1264C211.95 54.793 211.505 54.793 211.283 54.9041C210.949 55.1264 210.949 55.4598 211.061 55.6821C211.172 56.0155 211.394 56.349 211.505 56.6824C211.839 56.4601 212.061 56.2378 212.394 56.0155C212.394 56.0155 212.283 55.7933 212.283 55.9044C212.283 55.7933 212.172 55.7933 212.172 55.6821C212.283 55.7933 212.172 55.571 212.172 55.571C212.172 55.4598 212.172 55.4598 212.172 55.571C212.172 55.4598 212.172 55.4598 212.172 55.3487C212.172 55.0153 211.95 54.793 211.616 54.793C211.283 54.793 211.061 55.1264 211.061 55.4598Z" fill="#E0CD79"/>
<path d="M211.173 65.1296C211.285 65.463 211.396 65.9076 211.396 66.241C211.729 66.241 212.174 66.1298 212.507 66.1298C212.396 65.6853 212.285 65.2407 212.174 64.9073C212.063 64.5738 211.729 64.4627 211.507 64.4627C211.285 64.4627 211.173 64.7961 211.173 65.1296C211.285 65.5741 211.396 66.0187 211.507 66.3521C211.618 67.019 212.618 66.7967 212.618 66.241C212.618 65.7964 212.507 65.2407 212.285 64.7961C212.174 64.4627 211.84 64.3516 211.618 64.3516C211.285 64.4627 211.062 64.7961 211.173 65.1296Z" fill="#E0CD79"/>
<path d="M211.063 78.9118C211.174 78.9118 211.397 79.023 211.063 78.9118C211.174 78.9118 211.285 78.9118 211.285 78.9118C211.397 78.9118 211.285 78.9118 211.174 78.9118C211.174 78.9118 211.285 79.023 211.174 78.9118C211.397 78.5784 211.508 78.245 211.73 77.9115C211.508 77.9115 211.397 77.8004 211.174 77.8004C210.841 77.6893 210.507 77.9115 210.507 78.245C210.396 78.5784 210.619 78.9118 210.952 78.9118C211.174 78.9118 211.285 79.023 211.508 79.023C211.73 79.1341 212.063 79.023 212.175 78.8007C212.286 78.5784 212.286 78.245 212.063 78.1338C211.841 77.9115 211.397 77.8004 211.063 77.8004C210.73 77.8004 210.507 78.0227 210.507 78.3561C210.507 78.6896 210.73 78.9118 211.063 78.9118Z" fill="#E0CD79"/>
<path d="M188.721 70.0199C189.277 70.0199 189.944 69.7976 190.388 69.4642C190.833 69.1308 190.388 68.3528 189.833 68.4639C189.388 68.575 188.944 68.7973 188.61 68.9085C188.277 69.0196 188.166 69.353 188.166 69.5753C188.277 69.9088 188.61 70.131 188.832 70.0199C189.277 69.9088 189.722 69.6865 190.055 69.5753C189.833 69.2419 189.722 68.9085 189.499 68.575C189.277 68.7973 188.944 68.7973 188.61 68.7973C187.943 68.7973 187.943 70.0199 188.721 70.0199Z" fill="#E0CD79"/>
<path d="M186.721 51.3492C187.166 51.1269 187.611 50.9047 187.944 50.5712C188.166 50.3489 188.277 50.0155 188.166 49.7932C188.055 49.5709 187.611 49.4598 187.388 49.5709C187.055 49.7932 186.61 50.0155 186.277 50.2378C185.61 50.6824 186.277 51.6827 186.833 51.2381C187.166 51.0158 187.611 50.7935 187.944 50.5712C187.722 50.2378 187.499 49.9044 187.388 49.5709C187.055 49.7932 186.721 50.1267 186.388 50.2378C186.054 50.3489 185.943 50.6824 185.943 50.9047C186.055 51.2381 186.388 51.4604 186.721 51.3492Z" fill="#E0CD79"/>
<path d="M191.611 43.5684C192.055 43.6795 192.5 43.7907 193.056 44.013C193.167 43.6795 193.278 43.235 193.389 42.9015C192.945 42.7904 192.5 42.5681 191.944 42.457C191.166 42.2347 190.833 43.3461 191.611 43.5684C192.055 43.6795 192.5 43.9018 193.056 44.013C193.723 44.2353 194.056 43.1238 193.389 42.9015C192.945 42.7904 192.5 42.5681 191.944 42.457C191.166 42.2347 190.833 43.3461 191.611 43.5684Z" fill="#E0CD79"/>
<path opacity="0.4" d="M242.405 69.9083C240.738 69.4637 238.849 73.1314 238.182 74.1317C235.737 77.7994 233.291 81.1337 229.29 83.4677C221.733 87.8023 212.841 89.5805 204.617 92.5814C202.394 93.3594 197.17 95.5822 197.059 98.472C196.837 102.584 202.616 101.251 204.95 100.473C208.618 99.3611 212.397 97.694 215.731 95.9157C218.51 94.8043 221.288 93.6928 223.955 92.3591C230.624 89.0248 240.405 83.3566 242.739 75.91C243.072 74.5763 244.072 70.464 242.405 69.9083Z" fill="white"/>
<path d="M122.813 113.699C121.479 120.59 117.478 144.486 92.693 155.933C87.247 158.378 80.9119 160.379 73.3542 161.379C68.7973 162.046 63.7959 162.268 58.3499 162.157C55.6825 162.157 53.2374 161.935 50.7922 161.713C40.2337 160.601 31.7868 157.6 25.2294 153.488C1.33371 138.928 0 111.254 0 111.254H0.333428C1.00028 116.589 3.66771 122.035 12.448 126.036C12.7814 126.147 13.1148 126.369 13.4483 126.48C18.0051 128.37 24.0068 129.926 32.0091 130.926C40.5671 132.038 51.3479 132.482 65.1296 132.038C70.6868 131.815 75.7993 131.593 80.3562 131.148C92.5819 129.926 101.251 127.925 107.586 125.591C108.364 125.258 109.142 125.036 109.809 124.702C117.922 121.146 121.146 116.922 122.368 113.699H122.813Z" fill="url(#paint0_linear)"/>
<path opacity="0.4" d="M50.9028 161.712C40.3443 160.601 31.8974 157.6 25.34 153.487C16.8932 143.04 13.5589 130.925 12.5586 126.035C12.892 126.146 13.2255 126.369 13.5589 126.48C18.1157 128.369 24.1174 129.925 32.1197 130.925C34.1203 143.262 43.1228 154.265 50.9028 161.712Z" fill="#A6D8DD"/>
<path opacity="0.3" d="M122.814 113.699C121.147 122.146 115.59 155.711 73.4668 161.379C78.1348 152.488 80.0242 142.04 80.3577 131.148C94.0282 129.815 103.364 127.481 109.81 124.591C117.924 121.034 121.147 116.922 122.37 113.588L122.814 113.699Z" fill="url(#paint1_linear)"/>
<path opacity="0.3" d="M122.813 113.697C121.479 120.588 117.478 144.484 92.6934 155.932C102.252 146.929 106.03 133.592 107.475 125.59C108.253 125.256 109.031 125.034 109.698 124.7C117.812 121.144 121.035 116.92 122.257 113.697H122.813Z" fill="url(#paint2_linear)"/>
<path d="M61.3508 136.149C95.2339 136.149 122.702 125.202 122.702 111.697C122.702 98.1933 95.2339 87.2461 61.3508 87.2461C27.4677 87.2461 0 98.1933 0 111.697C0 125.202 27.4677 136.149 61.3508 136.149Z" fill="url(#paint3_linear)"/>
<path d="M118.034 111.254C118.034 114.254 116.033 117.144 112.476 119.923C112.032 120.256 111.587 120.59 111.032 120.923C110.031 121.59 108.809 122.257 107.586 122.924C106.808 123.368 105.919 123.813 105.03 124.146C104.141 124.48 103.252 124.924 102.362 125.258C102.251 125.258 102.251 125.258 102.14 125.369C98.5835 126.814 94.5824 128.036 90.1367 129.036C81.6898 131.037 71.9093 132.148 61.3507 132.148C47.2356 132.148 34.3431 130.037 24.4514 126.813C24.0068 126.702 23.5622 126.48 23.1177 126.369C21.7839 125.924 20.5614 125.48 19.4499 124.924C16.338 123.59 13.6705 122.257 11.4477 120.701C11.1142 120.478 10.7808 120.256 10.5585 120.034C6.77968 117.255 4.66797 114.254 4.66797 111.254C4.66797 105.363 12.5591 99.8058 24.8959 96.1381C27.1188 95.4713 29.4528 94.8044 32.0091 94.2487C33.8985 93.8041 35.8991 93.4707 37.8996 93.1373C38.4553 93.0261 39.1222 92.915 39.6779 92.8039C39.7891 92.8039 39.9002 92.8039 40.1225 92.6927C44.5682 92.0259 49.3473 91.5813 54.2376 91.359C54.7933 91.359 55.2379 91.359 55.7936 91.2479C56.5716 91.2479 57.3496 91.1367 58.1276 91.1367C58.7945 91.1367 59.5725 91.1367 60.2393 91.1367C60.6839 91.1367 61.0173 91.1367 61.4619 91.1367C65.2407 91.1367 68.9084 91.2479 72.465 91.5813C76.355 91.8036 80.1339 92.2481 83.6904 92.8039C84.4684 92.915 85.2464 93.0261 86.0244 93.1373C86.6913 93.2484 87.247 93.3596 87.9138 93.4707C89.8033 93.8041 91.6927 94.2487 93.471 94.6933C93.9155 94.8044 94.3601 94.9156 94.8047 95.0267C108.809 98.9167 118.034 104.918 118.034 111.254Z" fill="#86C3CE"/>
<path opacity="0.4" d="M118.034 111.256C118.034 118.258 106.808 125.26 90.1367 129.039C90.2479 116.257 89.3587 103.253 87.8027 93.584C105.697 97.1406 118.034 103.92 118.034 111.256Z" fill="#A6D8DD"/>
<path opacity="0.3" d="M23.1175 126.369C11.7809 122.368 4.55664 116.811 4.55664 111.254C4.55664 105.364 12.4478 99.8064 24.7846 96.1387C22.6729 104.363 21.0058 114.922 23.1175 126.369Z" fill="url(#paint4_linear)"/>
<path d="M107.476 122.923C108.698 122.256 109.921 121.589 110.921 120.923C110.477 118.144 108.698 116.143 107.254 115.477C106.253 115.032 105.253 115.032 104.364 115.254C103.919 115.365 103.364 115.477 103.03 115.699C102.919 115.699 102.919 115.699 102.808 115.81C101.696 116.255 100.918 116.921 100.807 117.033C101.03 116.699 104.142 112.253 101.919 109.03C100.918 107.585 99.5847 107.585 98.4732 108.141C100.807 105.918 103.475 102.362 101.03 100.139C97.3618 96.5823 92.0269 101.25 91.8047 101.473C91.9158 101.25 93.9164 97.6937 93.1384 94.9151C92.9161 94.1371 92.3604 93.3591 91.4712 92.8034C89.4707 91.5808 87.359 92.2477 85.6918 93.3591C84.0247 94.3594 82.9132 95.6931 82.691 95.9154C82.8021 95.6931 83.2467 94.4706 83.3578 92.9146C83.5801 90.6917 83.3578 87.5797 80.9127 85.3569C76.8004 81.2446 69.465 87.1351 69.465 87.1351C69.465 87.1351 69.1315 82.356 66.0196 79.9109C65.3527 79.4663 64.797 79.4663 64.3524 79.9109C62.463 81.578 61.4627 86.3571 61.4627 86.3571C61.4627 86.3571 61.4627 83.912 59.5733 79.9109C58.2396 77.0212 56.0167 74.576 52.5713 74.9094C49.3481 75.2429 48.2367 77.7991 48.1256 80.6889C48.1256 81.4669 48.1256 82.2449 48.2367 83.0229C48.5701 86.1349 49.4593 88.8023 49.6816 89.358C49.237 88.3577 45.9027 83.5786 42.1239 85.3569C42.0127 85.3569 41.9016 85.468 41.7904 85.468C40.1233 86.4683 39.6787 88.6911 39.7899 90.8029C39.7899 91.4697 39.901 92.1366 40.0122 92.6923C40.2344 94.026 40.5679 95.1374 40.679 95.3597C40.3456 94.9151 37.0113 91.3586 32.0099 95.0263C30.7873 95.9154 30.0093 97.138 29.4536 98.3606C29.4536 98.3606 29.4536 98.3606 29.4536 98.4717C28.8979 99.8054 28.5644 101.25 28.4533 102.362C28.3422 103.584 28.3422 104.362 28.3422 104.362C23.563 104.14 21.6736 106.585 21.0067 109.253C20.8956 109.808 20.7845 110.475 20.6733 111.031C20.5622 112.587 20.6733 114.032 20.8956 114.81C20.5622 113.254 19.7842 109.919 18.2282 108.363C17.8947 108.03 17.5613 107.808 17.1167 107.585C16.6722 107.363 16.1165 107.363 15.5608 107.585C14.5605 107.919 14.227 108.808 14.3382 110.142C14.4493 111.809 15.2273 114.032 16.1165 116.032C15.6719 115.477 15.2273 115.032 14.6716 114.81C13.8936 114.365 12.8933 114.365 11.893 115.143C10.8928 115.921 10.6705 117.366 11.0039 119.033C11.115 119.589 11.2262 120.033 11.4485 120.589C13.6713 122.145 16.3388 123.479 19.4507 124.813C20.6733 125.257 21.8959 125.813 23.1185 126.257C23.563 126.369 24.0076 126.591 24.4522 126.702C34.3439 129.925 47.2364 132.037 61.3516 132.037C71.799 132.037 81.6907 130.925 90.1375 128.925C94.5832 127.925 98.5844 126.702 102.141 125.257L107.476 122.923Z" fill="#FFFEEC"/>
<path d="M88.3594 119.367C88.3594 119.367 88.6928 120.145 88.8039 121.257C88.3594 120.256 88.3594 119.367 88.3594 119.367Z" fill="#F7EFCD"/>
<path d="M107.475 122.924C108.698 122.257 109.921 121.591 110.921 120.924C110.476 118.145 108.698 116.145 107.253 115.478C106.253 115.033 105.253 115.033 104.363 115.255C104.363 118.812 103.141 122.591 98.8063 124.258C92.0266 126.925 89.5814 123.702 88.6923 121.368C89.0257 124.036 88.6923 128.704 82.246 129.371C81.0234 129.482 80.0232 129.371 79.0229 129.148C78.4672 129.037 78.0226 128.815 77.4669 128.593C72.132 126.259 69.9092 119.479 69.6869 118.812C69.9092 119.701 71.9097 130.26 60.9066 130.371C49.4589 130.593 41.5678 122.257 41.5678 122.257C41.5678 122.257 40.6786 123.925 39.0115 125.592C38.7892 125.814 38.4558 126.147 38.1224 126.37C36.0106 128.148 33.0098 129.371 29.1198 127.926C21.4509 125.036 34.2324 117.256 34.8992 116.811C34.0101 117.034 16.6718 120.59 18.0055 108.365C17.6721 108.031 17.3387 107.809 16.8941 107.587C16.4495 107.364 15.8938 107.364 15.3381 107.587C14.3378 107.92 14.0044 108.809 14.1155 110.143C14.2267 111.81 15.0047 114.033 15.8938 116.033C15.4492 115.478 15.0047 115.033 14.449 114.811C13.671 114.366 12.6707 114.366 11.6704 115.144C10.6701 115.922 10.4478 117.367 10.7812 119.034C10.8924 119.59 11.0035 120.035 11.2258 120.59C13.4487 122.146 16.1161 123.48 19.2281 124.814C20.4507 125.258 21.6732 125.814 22.8958 126.259C23.3404 126.37 23.7849 126.592 24.2295 126.703C34.1212 129.926 47.0138 132.038 61.1289 132.038C71.5763 132.038 81.468 130.927 89.9149 128.926C94.3606 127.926 98.3617 126.703 101.918 125.258L107.475 122.924Z" fill="#F7EFCD"/>
<path d="M44.0154 108.474C44.0154 108.474 40.0143 105.584 41.5703 102.472C43.1263 99.3599 46.5717 102.916 46.5717 102.916C46.5717 102.916 44.1266 101.583 42.904 103.694C42.0148 105.362 44.0154 108.474 44.0154 108.474Z" fill="#F7EFCD"/>
<path d="M66.9082 102.029C66.9082 102.029 70.2425 105.252 73.2433 103.251C76.2442 101.251 71.7985 96.916 71.7985 96.916C71.7985 96.916 74.0213 100.028 71.3539 101.695C68.6865 103.251 66.9082 102.029 66.9082 102.029Z" fill="#F7EFCD"/>
<path d="M54.7963 95.1364C54.7963 95.1364 52.3512 90.0239 56.3523 89.2459C60.3534 88.3568 60.4646 92.9136 60.4646 92.9136C60.4646 92.9136 59.0197 91.1353 56.6857 91.1353C54.2406 91.0242 54.7963 95.1364 54.7963 95.1364Z" fill="#F7EFCD"/>
<path d="M48.459 117.81C48.459 117.81 49.6816 121.811 52.5713 121.923C55.461 122.034 55.6833 117.699 55.6833 117.699C55.6833 117.699 53.6827 120.589 51.6821 120.367C49.7927 120.144 48.459 117.81 48.459 117.81Z" fill="#F7EFCD"/>
<path d="M78.1355 116.255C78.1355 116.255 77.2463 113.809 80.0249 112.809C82.8034 111.809 83.8037 114.254 83.8037 114.254C83.8037 114.254 83.1369 110.364 79.5803 111.253C75.6903 112.253 78.1355 116.255 78.1355 116.255Z" fill="#F7EFCD"/>
<path d="M21.451 119.811C21.3404 119.811 21.2298 119.921 21.1191 119.921C21.2298 119.921 21.3404 119.811 21.451 119.811Z" fill="#F7EFCD"/>
<path d="M25.4532 126.588C25.4532 126.588 25.0087 126.7 24.453 126.811C24.0084 126.7 23.5638 126.477 23.1192 126.366C21.7855 125.922 20.563 125.477 19.4515 124.921C18.229 121.698 20.2295 120.364 21.1187 119.92C20.6741 120.253 20.0072 121.031 20.6741 123.365C21.5632 126.811 25.4532 126.588 25.4532 126.588Z" fill="#F7EFCD"/>
<path d="M102.143 125.367L105.032 124.033L104.921 124.144C104.032 124.589 103.143 124.922 102.143 125.367C102.254 125.367 102.254 125.367 102.143 125.367Z" fill="#F7EFCD"/>
<path d="M107.475 122.923L105.03 124.034C106.364 122.367 104.586 119.922 104.475 119.811C104.697 119.922 107.475 121.255 107.475 122.923Z" fill="#F7EFCD"/>
<path d="M28.6743 108.475C28.6743 108.475 28.0075 109.919 29.0077 111.142C30.008 112.365 32.4532 111.475 32.4532 111.475C32.4532 111.475 30.786 114.032 28.0075 112.253C26.2292 111.031 28.6743 108.475 28.6743 108.475Z" fill="#F7EFCD"/>
<path d="M57.1288 109.697C57.1288 109.697 57.351 107.808 59.685 107.586C62.019 107.363 62.3525 109.475 62.3525 109.475C62.3525 109.475 63.2416 106.586 59.5739 106.363C55.795 106.03 57.1288 109.697 57.1288 109.697Z" fill="#F7EFCD"/>
<path d="M85.6912 102.472C85.6912 102.472 86.2469 100.027 87.914 99.9156C89.5812 99.8044 90.8037 102.472 90.8037 102.472C90.8037 102.472 90.8037 98.2484 87.6917 98.3596C84.3575 98.4707 85.6912 102.472 85.6912 102.472Z" fill="#F7EFCD"/>
<path d="M35.4555 95.8047C35.4555 95.8047 33.2327 97.1384 33.7884 98.2498C34.3441 99.4724 36.4558 99.6947 37.6784 99.4724C37.6784 99.4724 35.789 99.139 35.1221 98.2498C34.5664 97.4718 35.4555 95.8047 35.4555 95.8047Z" fill="#F7EFCD"/>
<path d="M50.3488 79.1348C50.3488 79.1348 49.5708 81.4688 51.1268 82.2468C52.6828 83.0248 54.4611 80.6908 54.4611 80.6908C54.4611 80.6908 52.4605 81.6911 51.3491 81.1353C50.1265 80.5796 50.3488 79.1348 50.3488 79.1348Z" fill="#F7EFCD"/>
<path d="M72.2424 91.6929C72.2424 91.6929 72.2424 91.4706 72.2424 91.1372C72.3536 90.3592 72.687 89.0255 74.1319 88.692C76.2436 88.1363 76.3547 90.248 76.3547 90.248C76.3547 90.248 76.1325 86.5803 73.6873 87.3583C71.3533 88.0252 72.2424 91.6929 72.2424 91.6929Z" fill="#F7EFCD"/>
<path d="M62.3501 123.367C62.3501 123.367 61.5721 126.146 63.4615 126.924C65.3509 127.702 66.9069 124.812 66.9069 124.812C66.9069 124.812 65.3509 126.146 64.1284 125.479C62.7947 125.034 62.3501 123.367 62.3501 123.367Z" fill="#F7EFCD"/>
<path d="M68.0201 114.254C67.5755 114.254 65.9084 118.255 69.1315 118.366C69.1315 118.366 66.9087 118.588 66.0195 117.032C65.1304 115.476 68.0201 114.254 68.0201 114.254Z" fill="#F7EFCD"/>
<path d="M87.3594 120.589C87.3594 120.589 89.9157 117.699 91.0271 121.367C91.0271 121.367 92.0273 118.588 89.6934 118.366C87.4705 118.144 87.3594 120.589 87.3594 120.589Z" fill="#F7EFCD"/>
<path d="M74.2422 129.592C74.2422 129.592 78.799 129.704 78.2433 126.48C78.2433 126.48 80.1327 129.148 78.2433 130.259C76.465 131.371 74.2422 129.592 74.2422 129.592Z" fill="#F7EFCD"/>
<path d="M39.0114 123.367C39.0114 123.367 38.0111 125.368 39.7894 126.479C41.5677 127.591 43.1237 125.923 43.1237 125.923C43.1237 125.923 40.7897 128.813 38.9003 127.368C36.8997 126.035 39.0114 123.367 39.0114 123.367Z" fill="#F7EFCD"/>
<path d="M37.1236 118.367C37.1236 118.367 36.4568 115.7 38.5685 115.255C40.6802 114.81 41.4582 116.033 41.4582 116.033C41.4582 116.033 39.7911 112.921 37.6794 113.81C35.6788 114.477 37.1236 118.367 37.1236 118.367Z" fill="#F7EFCD"/>
<path d="M43.2342 97.247C43.2342 97.247 42.9008 94.913 44.4568 93.9127C46.0128 92.9124 47.013 94.3573 47.013 94.3573C47.013 94.3573 45.2348 91.5787 43.6788 92.6902C42.1228 93.8016 43.2342 97.247 43.2342 97.247Z" fill="#F7EFCD"/>
<path d="M88.0254 108.476C87.9143 108.365 92.5822 109.254 91.2485 112.921C91.2485 112.921 93.6937 109.365 91.4708 108.031C89.3591 106.697 88.0254 108.476 88.0254 108.476Z" fill="#F7EFCD"/>
<path d="M53.6815 99.25C53.6815 99.25 52.6812 102.695 56.46 102.473C56.46 102.473 54.126 103.918 52.6812 102.695C51.3475 101.473 53.6815 99.25 53.6815 99.25Z" fill="#F7EFCD"/>
<path opacity="0.7" d="M1.44531 113.697C1.44531 113.697 4.0016 127.812 37.6778 132.147C37.6778 132.147 29.3421 130.813 17.2276 124.812C5.22416 118.921 1.44531 113.697 1.44531 113.697Z" fill="url(#paint5_linear)"/>
<path d="M306.865 102.809C306.642 100.253 305.198 98.2521 303.864 96.2515C302.308 93.9175 299.974 92.4727 298.196 90.4721C297.862 87.0267 295.973 84.8038 293.194 83.0255C292.75 82.2475 292.083 81.9141 291.305 81.4695C285.859 78.3575 279.968 76.9127 273.855 76.4681C271.744 76.357 269.632 76.0235 267.52 76.8015C266.965 76.8015 266.52 76.8015 265.964 76.6904C264.408 73.245 261.63 71.1333 257.962 70.6887C252.738 70.133 247.515 70.4664 242.735 73.0227C242.513 73.0227 242.18 73.0227 241.957 73.0227C241.513 72.2447 240.846 72.1335 240.068 71.8001C236.511 70.3553 232.733 70.7998 229.065 71.1333C226.397 71.4667 223.841 72.6893 222.507 75.4678C222.174 76.0235 221.952 76.5793 221.618 77.135C220.396 77.135 219.173 77.135 217.951 77.135C213.171 77.5795 209.17 79.6913 205.503 82.6921C204.836 83.2478 204.613 84.0258 204.725 84.915C204.836 84.915 205.058 84.915 205.169 84.915C205.169 85.0261 205.169 85.1372 205.169 85.2484C205.169 85.1372 205.169 85.0261 205.169 84.915C205.058 84.915 204.836 84.915 204.725 84.915C204.28 86.2487 203.391 87.1378 202.279 87.8047C201.39 88.3604 200.39 88.805 199.834 89.8052C198.612 90.1387 197.945 91.2501 196.945 91.917C190.054 92.8061 185.386 98.3632 185.386 105.476C185.275 106.81 184.385 107.81 183.719 108.811C182.718 108.922 181.829 109.033 180.829 109.144C179.606 109.7 178.384 109.478 177.161 109.7V109.589C174.383 109.922 171.715 108.699 168.937 108.811C168.825 108.699 168.603 108.588 168.492 108.477C168.048 108.477 167.714 108.477 167.27 108.588C166.825 108.588 166.38 108.477 166.047 108.477C165.269 108.477 164.38 108.477 163.602 108.477C163.157 108.477 162.713 108.588 162.379 108.588C161.935 108.588 161.601 108.477 161.157 108.477C161.046 108.477 160.934 108.588 160.823 108.588C157.934 109.033 155.044 109.366 152.154 109.811C152.154 109.922 152.154 110.033 152.154 110.256C152.154 110.922 152.154 111.589 152.154 112.256C152.154 111.589 152.154 110.922 152.154 110.256C151.043 110.033 150.154 110.7 149.264 111.033C148.931 111.033 148.598 111.145 148.486 111.478C140.706 114.479 134.371 119.48 128.925 125.593C127.925 126.705 126.702 127.816 126.591 129.594C126.48 129.705 126.369 129.705 126.258 129.817C123.035 134.485 123.035 139.708 124.035 145.043C124.146 145.71 124.368 146.266 125.258 146.155C128.258 145.821 131.259 146.71 134.26 146.488C137.483 146.266 140.484 145.377 141.707 141.709C142.929 137.93 144.819 134.373 147.375 131.261C147.375 131.15 147.486 131.039 147.375 130.817C147.486 130.706 147.708 130.483 147.82 130.372C149.487 129.261 151.265 128.372 152.376 126.705C152.599 126.705 152.821 126.705 153.154 126.593C153.377 126.371 153.599 126.149 153.932 125.815C155.155 125.482 156.489 125.149 157.711 124.815C158.045 124.371 158.489 124.482 158.934 124.482C159.712 124.259 160.601 123.926 161.379 124.037C161.49 124.037 161.601 123.926 161.712 123.926C164.046 123.926 166.38 124.037 168.714 124.037C168.714 123.926 168.714 123.815 168.714 123.704C170.826 123.704 172.827 123.593 174.938 123.593C175.161 123.593 175.494 123.593 175.716 123.593C176.272 123.593 176.828 123.593 177.383 123.481C178.717 123.481 180.162 123.481 181.496 123.481C182.941 123.37 184.497 123.148 185.941 123.037C186.275 121.925 186.497 120.703 186.831 119.591C186.497 120.703 186.275 121.925 185.941 123.037C186.275 123.037 186.497 123.037 186.831 123.148C186.831 123.593 186.831 124.037 187.275 124.371C187.275 124.593 187.275 124.926 187.275 125.149C187.942 128.816 188.275 132.595 190.387 135.818C193.055 140.153 196.278 144.043 200.057 147.377C204.169 151.489 208.726 155.046 213.394 158.491C215.172 159.825 217.173 160.381 219.284 160.492C222.619 160.825 225.953 160.381 229.287 159.936C230.732 159.714 231.51 160.047 232.399 161.159C234.066 163.159 236.289 164.715 238.845 164.938C245.181 165.493 251.405 165.049 257.184 161.826C258.184 161.27 258.74 160.492 258.629 159.381C259.073 159.381 259.407 159.381 259.851 159.381C265.075 160.825 270.188 160.047 275.411 158.825C286.97 156.157 293.75 144.487 294.639 136.596C294.75 136.485 294.861 136.374 294.972 136.263C297.418 136.041 299.307 134.707 301.085 133.151C305.976 128.927 307.532 123.259 308.087 117.257C308.087 115.146 308.087 113.145 308.198 111.033C308.087 108.477 307.643 105.588 306.865 102.809ZM165.825 116.368C165.936 116.368 166.158 116.368 166.269 116.368C166.158 116.368 165.936 116.368 165.825 116.368ZM193.833 124.593C194.055 124.815 194.277 125.037 194.499 125.26C194.277 125.037 194.055 124.815 193.833 124.593ZM196.722 118.035C196.167 117.924 195.722 117.813 195.277 117.591C195.722 117.813 196.278 117.924 196.722 118.035ZM207.503 116.368C208.17 116.146 208.837 116.035 209.393 116.035C208.726 116.035 208.17 116.146 207.503 116.368ZM215.728 124.593C215.283 124.593 214.95 124.593 214.505 124.593C214.95 124.593 215.283 124.593 215.728 124.593C215.728 124.259 215.728 123.815 215.728 123.481C215.728 123.815 215.728 124.259 215.728 124.593C215.728 124.815 215.728 125.149 215.728 125.371C215.728 125.149 215.728 124.926 215.728 124.593ZM222.73 119.925C222.73 119.258 222.507 118.591 222.285 118.035C223.063 118.035 223.952 118.035 224.73 118.035C223.952 118.035 223.063 118.035 222.285 118.035C222.507 118.702 222.73 119.369 222.73 119.925ZM225.286 125.593C225.508 125.371 225.619 125.149 225.619 124.704C225.397 124.482 225.286 124.259 225.175 124.148C225.286 124.371 225.508 124.593 225.619 124.704C225.619 125.037 225.508 125.371 225.286 125.593ZM229.287 125.927C229.287 125.815 229.398 125.704 229.398 125.482C228.731 125.593 228.065 125.482 227.509 125.371C228.176 125.482 228.731 125.482 229.398 125.482C229.287 125.593 229.287 125.704 229.287 125.927ZM237.623 123.815C237.956 123.926 238.401 124.037 238.734 124.148C238.29 124.037 237.956 123.926 237.623 123.815ZM252.071 106.032C252.627 105.81 253.183 105.699 253.739 105.588C253.183 105.699 252.627 105.81 252.071 106.032C251.96 106.143 251.849 106.143 251.849 106.143C251.849 106.143 251.96 106.143 252.071 106.032ZM251.738 125.037C251.96 125.037 252.294 124.815 252.516 124.593C252.183 124.815 251.96 124.926 251.738 125.037ZM253.294 118.035C253.072 118.035 252.849 118.035 252.627 118.035C252.849 118.035 253.072 118.035 253.294 118.035C253.739 117.257 254.517 116.813 255.183 116.813C254.405 116.813 253.739 117.146 253.294 118.035ZM257.629 157.936C258.073 158.269 258.407 158.714 258.629 159.269C258.407 158.714 258.073 158.38 257.629 157.936ZM259.073 121.925V121.814C259.073 121.814 259.073 121.814 259.073 121.925ZM261.963 124.593C261.741 124.482 261.63 124.371 261.519 124.259C261.63 124.482 261.741 124.593 261.963 124.593ZM266.075 134.151C265.964 134.818 266.075 135.485 266.187 136.041C266.075 135.374 265.964 134.707 266.075 134.151C265.964 134.151 265.853 134.04 265.742 134.04C265.853 134.04 265.964 134.04 266.075 134.151ZM265.631 144.376C265.742 146.377 265.075 148.266 264.408 150.045C265.186 148.266 265.742 146.488 265.631 144.376C266.075 144.043 266.075 143.598 266.075 143.043C266.075 143.598 266.075 144.043 265.631 144.376ZM266.075 113.034C266.853 113.034 267.409 113.256 267.965 113.479C267.409 113.256 266.853 113.145 266.075 113.034ZM278.857 111.811C278.968 111.811 279.079 111.811 279.301 111.811C279.079 111.811 278.968 111.811 278.857 111.811Z" fill="#F4DBA8"/>
<path d="M266.187 76.6895C266.743 76.6895 267.188 76.6895 267.743 76.8006C267.188 78.2454 267.41 79.5792 268.855 79.9126C270.966 80.4683 273.078 81.2463 275.412 81.3575C278.858 81.4686 282.303 82.1354 285.748 82.3577C288.305 82.4689 290.75 83.358 293.306 82.9134C295.974 84.6917 297.974 86.9146 298.308 90.36C297.418 90.1377 296.529 90.0266 295.751 89.6932C286.749 85.3586 277.413 86.2477 268.077 88.2483C267.521 88.3594 266.743 88.3594 266.632 89.1374C266.41 90.1377 267.41 90.0266 267.854 90.2489C270.633 91.3603 273.523 91.138 276.301 91.138C281.97 91.2491 287.749 91.2491 293.306 92.9163C298.308 94.3611 302.642 96.6951 305.31 101.474C305.643 102.141 306.088 102.808 306.977 102.808C307.755 105.698 308.088 108.587 308.199 111.477C307.532 111.477 307.31 112.033 307.088 112.477C305.532 114.923 303.309 116.479 300.419 116.701C296.196 117.145 291.972 116.479 287.971 115.034C285.86 114.367 283.97 113.367 281.747 113.033C281.525 112.7 281.303 112.589 280.969 112.589C280.858 112.477 280.747 112.366 280.525 112.144C280.302 111.811 280.08 111.699 279.747 111.699C279.524 111.699 279.191 111.699 278.969 111.699C275.857 109.365 272.3 108.143 268.632 107.143C265.632 105.809 262.297 105.809 259.185 105.587C256.851 105.475 254.517 105.031 252.183 105.92C251.405 106.365 250.516 106.365 249.738 106.365C246.515 106.587 246.182 107.031 246.848 109.699C243.959 108.921 243.959 108.81 245.292 106.142C245.848 105.031 247.182 104.475 247.293 103.141C249.071 102.808 248.96 100.919 249.738 99.8071C253.072 96.9174 256.073 93.5831 259.963 91.4714C260.964 90.9157 260.852 90.4712 259.852 89.9154C257.852 88.6929 256.851 86.6923 256.518 84.5806C256.296 83.1357 256.629 81.5797 256.74 80.1349C257.407 79.468 258.296 79.1346 259.185 78.8012C261.408 78.1343 263.742 77.4675 266.187 76.6895Z" fill="#F4E1B9"/>
<path d="M183.941 109.034C184.608 108.034 185.497 107.034 185.608 105.7C186.942 105.589 187.276 104.366 187.72 103.366C188.387 101.588 189.498 100.254 190.943 99.0313C192.388 98.5868 193.388 97.5865 193.833 96.1416C194.722 96.1416 194.611 95.4748 194.611 94.9191C195.945 94.8079 196.612 94.0299 197.056 92.8073C198.501 92.2516 199.501 91.3625 199.946 89.9176C200.502 88.9173 201.502 88.4728 202.391 87.9171C203.502 87.1391 204.392 86.2499 204.836 85.0273C204.947 85.0273 205.17 85.0273 205.281 85.0273C205.392 85.6942 205.058 86.4722 205.614 87.0279C207.392 88.5839 208.837 90.5845 210.838 91.8071C213.061 93.1408 215.061 94.6968 217.173 96.1416C216.728 97.1419 215.617 97.4753 214.728 97.9199C211.06 99.9205 207.17 101.476 203.947 104.366C203.169 104.477 202.613 104.922 201.946 105.255C198.723 107.478 195.611 109.59 192.388 111.702C188.72 110.146 187.164 110.701 185.72 114.258C185.386 115.147 184.942 116.147 184.497 117.036C183.941 116.814 183.83 116.37 183.608 115.814C183.274 113.591 183.497 111.257 183.941 109.034Z" fill="#F4E1B9"/>
<path d="M265.629 144.376C266.296 143.82 265.963 142.931 266.407 142.264C270.631 143.487 274.743 142.931 278.855 141.82C283.524 140.597 286.969 137.819 288.303 132.928C289.303 129.261 289.525 125.482 289.525 121.592C289.748 121.703 290.081 121.814 290.303 122.036C293.082 126.482 295.194 131.15 294.86 136.596C294.749 136.707 294.638 136.818 294.527 136.929C293.971 137.041 293.86 137.485 293.638 137.93C291.526 141.597 289.525 145.265 286.302 148.377C282.412 152.045 278.078 153.712 272.854 153.934C269.631 154.045 266.63 153.267 263.629 152.601C264.407 149.933 265.852 147.377 265.629 144.376Z" fill="#F4E1B9"/>
<path d="M217.395 96.1403C215.283 94.6955 213.171 93.1395 211.06 91.8058C208.948 90.4721 207.614 88.5826 205.836 87.0266C205.169 86.4709 205.614 85.6929 205.503 85.0261C207.614 84.2481 209.948 84.4704 211.949 83.4701C214.727 82.0252 217.617 80.6915 218.284 77.2461C219.507 77.2461 220.729 77.2461 221.952 77.2461C222.063 77.6907 221.952 78.1352 222.174 78.3575C224.286 80.9138 225.731 83.9146 227.731 86.6932C228.287 88.3604 229.509 89.6941 230.176 91.2501C230.287 92.3615 230.51 93.4729 230.51 94.6955C230.51 96.2515 229.732 97.3629 228.065 97.3629C225.286 97.3629 222.507 97.8075 219.729 97.0295C218.84 97.2518 218.284 96.2515 217.395 96.1403Z" fill="#F8E7C4"/>
<path d="M227.731 86.692C225.73 84.0246 224.285 81.0238 222.173 78.3563C221.951 78.134 221.951 77.5783 221.951 77.2449C222.285 76.6892 222.507 76.1335 222.84 75.5778C225.174 78.4675 228.175 78.3563 231.398 77.356C233.399 76.6892 235.288 75.6889 237.289 75.3555C239.178 75.0221 240.734 74.2441 242.179 73.0215C242.401 73.0215 242.735 73.0215 242.957 73.0215C243.624 77.3561 244.624 81.8018 244.958 86.1363C244.291 86.1363 243.735 86.5809 243.513 87.1366C243.068 88.4703 242.068 89.3595 241.29 90.582C240.512 91.8046 239.289 92.916 237.956 92.5826C234.399 91.8046 230.62 91.2489 228.953 87.3589C228.842 86.9143 228.731 85.914 227.731 86.692Z" fill="#F4E1B9"/>
<path d="M263.63 152.601C266.631 153.268 269.632 154.046 272.855 153.935C278.079 153.712 282.413 152.045 286.303 148.377C289.526 145.377 291.527 141.709 293.639 137.93C293.861 137.485 294.083 137.041 294.528 136.93C293.639 144.821 286.859 156.491 275.3 159.158C270.188 160.381 264.964 161.159 259.74 159.714C261.074 157.38 262.408 155.046 263.63 152.601Z" fill="#F2DEB4"/>
<path d="M263.631 152.6C262.408 154.934 261.074 157.379 259.852 159.713C259.407 159.713 259.074 159.713 258.629 159.713C258.518 158.49 257.518 158.046 256.851 157.268C256.073 156.49 255.851 155.823 256.74 155.045C260.296 151.933 262.63 147.932 265.631 144.375C265.854 147.376 264.409 149.932 263.631 152.6Z" fill="#E7D0A0"/>
<path d="M281.748 113.032C283.193 115.254 285.749 116.366 287.416 118.478C288.194 119.478 289.194 120.367 289.528 121.701C289.528 125.48 289.305 129.258 288.305 133.037C286.971 137.928 283.526 140.595 278.858 141.929C274.746 143.04 270.633 143.596 266.41 142.373C266.299 141.706 266.188 141.039 265.965 140.261C266.966 138.15 265.632 136.149 265.965 134.038C266.521 133.593 266.299 133.148 266.077 132.593C265.521 131.481 265.076 130.37 264.632 129.258C264.187 128.258 264.187 127.702 265.632 127.48C267.966 127.147 270.189 126.369 272.523 126.702C273.634 126.813 274.523 126.369 275.079 125.48C275.635 125.48 275.857 125.146 275.857 124.702C276.524 124.59 276.746 124.146 276.635 123.59C275.968 121.59 276.635 119.256 275.413 117.366C278.525 117.588 279.747 117.366 278.858 113.032C278.747 112.698 278.747 112.365 278.747 112.031C278.969 112.031 279.303 112.031 279.525 112.031C279.747 112.365 279.969 112.476 280.303 112.476C280.414 112.587 280.525 112.698 280.747 112.92C281.081 113.032 281.414 113.032 281.748 113.032Z" fill="#F8E7C4"/>
<path d="M237.179 100.696C240.403 99.918 243.515 100.251 246.404 102.03C246.849 102.363 247.071 102.697 247.071 103.141C246.96 104.475 245.626 105.031 245.071 106.142C243.848 108.809 243.737 108.921 246.627 109.699C247.96 111.699 250.072 112.81 251.961 114.255C252.295 115.033 253.295 115.367 253.184 116.367C252.962 116.478 252.628 116.589 252.406 116.812C250.405 116.367 249.405 114.366 247.405 113.922C247.405 113.366 247.071 113.144 246.627 113.144C245.182 113.255 244.07 112.255 242.848 111.81C241.736 111.477 242.07 110.588 242.737 109.921C243.07 109.587 243.626 109.032 243.07 108.587C242.625 108.143 242.181 108.698 241.736 108.921C238.624 110.476 235.846 112.477 232.511 113.7C231.845 113.811 231.178 114.033 230.289 113.7C228.621 113.033 226.843 112.699 224.954 113.588C223.175 114.366 221.619 113.922 220.063 112.366C216.951 109.254 215.284 109.365 211.839 112.255C210.616 113.255 209.283 113.7 207.727 112.922C209.171 111.588 210.95 110.588 212.617 109.699C218.507 106.475 225.065 104.586 231.4 102.585C232.623 102.252 234.179 102.474 234.957 101.029C235.846 100.696 236.513 100.696 237.179 100.696Z" fill="#F2DEB4"/>
<path d="M249.516 99.9182C247.515 98.1399 247.293 95.5836 246.737 93.2496C246.293 91.2491 246.515 89.1373 246.737 87.1368C246.848 85.2473 247.849 83.9136 249.738 83.2468C252.072 82.4688 254.073 80.6905 256.518 80.1348C256.407 81.5796 256.073 83.1356 256.295 84.5805C256.629 86.8033 257.629 88.6928 259.63 89.9153C260.519 90.4711 260.741 90.9156 259.741 91.4713C255.851 93.5831 252.85 96.9173 249.516 99.9182Z" fill="#F0DBAF"/>
<path d="M249.515 106.475C249.959 108.475 251.738 108.475 253.071 108.92C256.517 110.031 259.962 110.809 263.519 111.809C264.408 112.032 265.297 112.365 266.075 113.143C264.074 114.588 261.74 115.144 259.295 114.81C256.85 114.477 254.405 114.477 251.96 114.477C250.07 113.143 247.959 111.921 246.625 109.92C245.958 107.141 246.403 106.697 249.515 106.475Z" fill="#F8E7C4"/>
<path d="M245.071 86.25C245.96 88.8063 245.627 91.5849 246.293 94.2523C247.183 97.5866 245.96 98.698 242.515 98.1423C240.292 97.6977 238.069 97.3643 235.957 97.0308C235.624 97.0308 235.179 97.2531 234.846 97.3643C233.845 95.8083 232.845 94.1411 231.845 92.5851C231.511 91.9183 231.289 91.1403 230.289 91.1403C229.622 89.5843 228.288 88.2506 227.844 86.5834C228.844 85.8054 229.066 86.8057 229.177 87.3614C230.845 91.3626 234.623 91.9183 238.18 92.5851C239.514 92.9186 240.736 91.696 241.514 90.5846C242.292 89.4731 243.293 88.4729 243.737 87.1391C243.737 86.6946 244.293 86.3611 245.071 86.25Z" fill="#F0DBAF"/>
<path d="M230.178 91.25C231.178 91.25 231.289 92.028 231.734 92.6949C232.734 94.2509 233.735 95.918 234.735 97.474C234.735 97.5851 234.735 97.6963 234.735 97.9186C231.956 100.808 228.733 101.809 224.843 100.808C222.954 99.808 220.953 99.03 219.842 97.1406C222.62 97.9186 225.399 97.474 228.177 97.474C229.733 97.474 230.623 96.3626 230.623 94.8066C230.511 93.4729 230.289 92.3614 230.178 91.25Z" fill="#F2DEB4"/>
<path d="M225.619 102.364C228.842 102.031 231.843 100.808 235.066 100.697C234.288 102.142 232.732 101.92 231.509 102.253C225.063 104.254 218.617 106.143 212.726 109.366C211.059 110.256 209.281 111.256 207.836 112.59C207.391 112.59 207.058 112.59 206.613 112.59C209.281 108.922 213.393 107.366 217.394 105.588C220.173 104.476 222.84 103.476 225.619 102.364Z" fill="#F8E7C4"/>
<defs>
<linearGradient id="paint0_linear" x1="77.0963" y1="89.9662" x2="40.3631" y2="152.937" gradientUnits="userSpaceOnUse">
<stop stop-color="#B4D4CD"/>
<stop offset="1" stop-color="#B9E0E4"/>
</linearGradient>
<linearGradient id="paint1_linear" x1="111.562" y1="109.696" x2="76.1626" y2="170.381" gradientUnits="userSpaceOnUse">
<stop stop-color="#B4D4CD"/>
<stop offset="1" stop-color="#B9E0E4"/>
</linearGradient>
<linearGradient id="paint2_linear" x1="92.7125" y1="134.836" x2="122.79" y2="134.836" gradientUnits="userSpaceOnUse">
<stop stop-color="#B4D4CD"/>
<stop offset="1" stop-color="#B9E0E4"/>
</linearGradient>
<linearGradient id="paint3_linear" x1="0.00577942" y1="111.719" x2="122.789" y2="111.719" gradientUnits="userSpaceOnUse">
<stop stop-color="#B4D4CD"/>
<stop offset="1" stop-color="#B9E0E4"/>
</linearGradient>
<linearGradient id="paint4_linear" x1="4.60388" y1="111.234" x2="24.8066" y2="111.234" gradientUnits="userSpaceOnUse">
<stop stop-color="#B4D4CD"/>
<stop offset="1" stop-color="#B9E0E4"/>
</linearGradient>
<linearGradient id="paint5_linear" x1="1.47788" y1="122.947" x2="37.7608" y2="122.947" gradientUnits="userSpaceOnUse">
<stop stop-color="#B4D4CD"/>
<stop offset="1" stop-color="#B9E0E4"/>
</linearGradient>
</defs>
</svg>
