<svg width="236" height="188" viewBox="0 0 236 188" fill="none" xmlns="http://www.w3.org/2000/svg">
<path d="M73.8872 177.055H86.7696C93.477 176.949 95.3934 167.793 91.9865 162.895C87.9408 157.252 89.3248 147.671 89.1119 144.902C89.0054 142.134 92.0929 121.267 93.0511 103.7C94.3287 80.8098 86.1308 66.4369 83.895 62.0718C80.1687 54.6192 80.2752 37.904 80.2752 34.3906H73.7808H67.2863C67.2863 38.0105 67.3928 54.6192 63.6665 62.0718C61.5372 66.4369 53.3393 80.8098 54.5104 103.7C55.4686 121.267 58.5561 142.134 58.4497 144.902C58.3432 147.671 59.6208 157.252 55.5751 162.895C52.1682 167.793 54.0845 176.949 60.7919 177.055H73.8872V177.055Z" fill="#DDDDDD"/>
<path d="M91.9869 162.895C87.9412 157.252 89.3253 147.671 89.1124 144.902C89.0059 142.134 92.0934 121.267 93.0516 103.7C94.3292 80.8098 86.1313 66.4369 83.8955 62.0718C80.1692 54.6192 80.2757 37.904 80.2757 34.3906H73.7812V177.162H86.6636C93.4775 176.949 95.5003 167.793 91.9869 162.895Z" fill="#D1D1D1"/>
<path d="M79.6364 34.6023H68.2445C67.1798 34.6023 66.3281 33.7506 66.3281 32.6859C66.3281 31.6213 67.1798 30.7695 68.2445 30.7695H79.6364C80.7011 30.7695 81.5528 31.6213 81.5528 32.6859C81.5528 33.7506 80.7011 34.6023 79.6364 34.6023Z" fill="#D1D1D1"/>
<path d="M73.8887 34.6023H79.5314C80.596 34.6023 81.4478 33.7506 81.4478 32.6859C81.4478 31.6213 80.596 30.7695 79.5314 30.7695H73.8887V34.6023Z" fill="#C1C1C1"/>
<path d="M73.6748 107.533H54.7238C54.7238 107.533 53.9785 99.3347 54.7238 90.1786C55.4691 81.0225 57.7049 75.9121 57.7049 75.9121H73.6748H89.6447C89.6447 75.9121 91.774 81.0225 92.6257 90.1786C93.371 99.3347 92.6257 107.533 92.6257 107.533H73.6748Z" fill="#FF5B57"/>
<path d="M73.6738 107.533H92.6248C92.6248 107.533 93.3701 99.3347 92.6248 90.1786C91.8795 81.0225 89.6437 75.9121 89.6437 75.9121H73.6738V107.533Z" fill="#FF4C4C"/>
<path d="M58.3443 110.406C58.3443 110.406 60.4736 133.084 61.3254 138.3C62.1771 143.411 62.9224 159.381 59.6219 163.32C56.7473 166.833 56.8538 173.647 61.4318 173.647C66.0099 173.647 73.9948 173.647 73.9948 173.647V110.406H58.3443V110.406Z" fill="#744F3C"/>
<path d="M88.1542 163.108C84.8537 159.062 85.8119 143.412 86.5572 138.195C87.4089 133.085 89.5382 110.301 89.5382 110.301H89.4318H73.8877H73.7812V173.542C73.7812 173.542 81.7662 173.542 86.3443 173.542C86.3443 173.542 86.3443 173.542 86.4507 173.542C91.0288 173.648 91.0288 166.621 88.1542 163.108Z" fill="#523428"/>
<path d="M69.4146 51.1035C69.4146 51.1035 68.6693 59.5143 66.7529 62.7083C64.8365 65.9023 61.8555 73.3549 61.8555 73.3549H73.7797V51.1035H69.4146Z" fill="#744F3C"/>
<path d="M81.02 62.7083C79.1036 59.5143 78.3583 51.1035 78.3583 51.1035H73.8867V73.2484H85.8109C85.8109 73.3549 82.9364 65.7958 81.02 62.7083Z" fill="#523428"/>
<path d="M81.8722 157.252C81.8722 158.849 80.5946 160.126 78.9976 160.126C77.4006 160.126 76.123 158.849 76.123 157.252C76.123 155.655 77.4006 154.377 78.9976 154.377C80.5946 154.377 81.8722 155.655 81.8722 157.252Z" fill="#DDDDDD"/>
<path d="M76.7612 136.171C77.996 136.171 78.997 135.17 78.997 133.935C78.997 132.7 77.996 131.699 76.7612 131.699C75.5264 131.699 74.5254 132.7 74.5254 133.935C74.5254 135.17 75.5264 136.171 76.7612 136.171Z" fill="#DDDDDD"/>
<path d="M73.2476 146.712C74.8352 146.712 76.1222 145.425 76.1222 143.838C76.1222 142.25 74.8352 140.963 73.2476 140.963C71.66 140.963 70.373 142.25 70.373 143.838C70.373 145.425 71.66 146.712 73.2476 146.712Z" fill="#DDDDDD"/>
<path d="M59.0887 63.8803C59.0887 63.2415 60.6857 61.0057 60.6857 59.6217C60.6857 45.3552 53.3395 33.3245 45.5675 27.5754C38.4343 22.3585 38.6472 11.6055 38.6472 11.6055H22.0385C22.0385 11.6055 22.0385 22.7844 15.1182 27.5754C7.23969 33.2181 0 45.3552 0 59.6217C0 61.0057 1.59699 63.135 1.59699 63.8803C1.59699 73.6752 1.59699 100.292 1.59699 126.482C1.59699 127.866 0 129.25 0 130.634C0 154.057 0 174.179 0 174.179C0 174.179 2.76812 187.594 12.4565 187.594C18.8445 187.594 20.9738 182.696 20.9738 182.696C20.9738 182.696 22.8902 187.807 30.4493 187.807C38.0084 187.807 39.9248 182.696 39.9248 182.696C39.9248 182.696 42.0541 187.594 48.4421 187.594C58.1305 187.594 60.8986 174.179 60.8986 174.179C60.8986 174.179 60.8986 154.057 60.8986 130.634C60.8986 129.25 59.3016 127.866 59.3016 126.482C59.0887 100.292 59.0887 73.6752 59.0887 63.8803Z" fill="#DDDDDD"/>
<path d="M59.0887 63.8803C59.0887 63.2415 60.6857 61.0057 60.6857 59.6217C60.6857 45.3552 53.3395 33.3246 45.5675 27.5754C38.4343 22.3585 38.6472 11.6055 38.6472 11.6055H30.0234V187.7C37.4761 187.7 39.7119 182.59 39.7119 182.59C39.7119 182.59 41.8412 187.487 48.2291 187.487C57.9176 187.487 60.6857 174.073 60.6857 174.073C60.6857 174.073 60.6857 153.951 60.6857 130.528C60.6857 129.144 59.0887 127.76 59.0887 126.376C59.0887 100.292 59.0887 73.6752 59.0887 63.8803Z" fill="#D1D1D1"/>
<path d="M59.0894 65.1562H1.59766V124.777H59.0894V65.1562Z" fill="#FF5B57"/>
<path d="M59.0887 65.1562H30.0234V124.777H59.0887V65.1562Z" fill="#FF4C4C"/>
<path d="M30.3431 62.4966H55.5755C55.5755 62.0707 57.1725 60.1543 57.1725 58.5573C57.1725 56.9604 57.8113 53.234 54.2979 44.1844C50.7845 35.1348 45.5677 31.9408 44.6095 30.8762C43.6513 29.8115 40.1379 28.321 38.1151 23.2106C37.1569 20.8683 37.1569 19.9102 37.1569 19.9102H30.3431H23.5292C23.5292 19.9102 23.6357 20.7619 22.571 23.2106C20.5482 28.321 17.0348 29.8115 16.0766 30.8762C15.1184 31.9408 9.68863 35.3477 6.28172 44.2909C2.8748 53.234 3.40713 57.0668 3.40713 58.6638C3.40713 60.2608 5.00412 62.1772 5.00412 62.6031H30.3431V62.4966Z" fill="#744F3C"/>
<path d="M30.3418 62.4966H55.5743C55.5743 62.0707 57.1712 60.1543 57.1712 58.5573C57.1712 56.9604 57.81 53.234 54.2967 44.1844C50.7833 35.1348 45.5664 31.9408 44.6083 30.8762C43.6501 29.8115 40.1367 28.321 38.1138 23.2106C37.1556 20.8683 37.1556 19.9102 37.1556 19.9102H30.3418V62.4966Z" fill="#523428"/>
<path d="M37.9011 15.3301H22.57C20.7601 15.3301 19.2695 13.8396 19.2695 12.0297V3.40592C19.2695 1.59599 20.7601 0.105469 22.57 0.105469H37.9011C39.711 0.105469 41.2016 1.59599 41.2016 3.40592V12.0297C41.2016 13.8396 39.711 15.3301 37.9011 15.3301Z" fill="#FF5B57"/>
<path d="M39.711 17.6744H20.7601C19.9083 17.6744 19.2695 17.0356 19.2695 16.1839C19.2695 15.3322 19.9083 14.6934 20.7601 14.6934H39.711C40.5628 14.6934 41.2016 15.3322 41.2016 16.1839C41.2016 16.9292 40.5628 17.6744 39.711 17.6744Z" fill="#FF5B57"/>
<path d="M30.2363 15.3311H38.6471C40.0312 15.3311 41.2023 14.16 41.2023 12.7759V2.55519C41.2023 1.17113 40.0312 0 38.6471 0H30.2363V15.3311Z" fill="#FF4C4C"/>
<path d="M30.2363 17.6744H39.9247C40.67 17.6744 41.2023 17.1421 41.2023 16.3968V15.971C41.2023 15.2257 40.67 14.6934 39.9247 14.6934H30.2363V17.6744Z" fill="#FF4C4C"/>
<path d="M5.11074 127.867C5.11074 128.932 3.08789 131.487 3.08789 132.552V173.754C3.08789 173.754 6.4948 184.933 12.5634 184.933C18.6319 184.933 21.2936 178.439 21.2936 178.439C21.2936 178.439 24.1682 184.933 30.2368 184.933V127.867H5.11074Z" fill="#744F3C"/>
<path d="M55.5743 127.867H30.3418V184.933C36.5168 184.933 39.285 178.439 39.285 178.439C39.285 178.439 41.9466 184.933 48.0152 184.933C54.0837 184.933 57.4907 173.754 57.4907 173.754V132.552C57.5971 131.487 55.5743 128.932 55.5743 127.867Z" fill="#523428"/>
<path d="M49.1869 160.444C49.1869 162.36 47.6963 163.851 45.78 163.851C43.8636 163.851 42.373 162.36 42.373 160.444C42.373 158.528 43.8636 157.037 45.78 157.037C47.5899 157.037 49.1869 158.528 49.1869 160.444Z" fill="#DDDDDD"/>
<path d="M42.267 143.517C42.267 145.434 40.67 147.031 38.7536 147.031C36.8372 147.031 35.2402 145.434 35.2402 143.517C35.2402 141.601 36.8372 140.004 38.7536 140.004C40.67 140.004 42.267 141.601 42.267 143.517Z" fill="#DDDDDD"/>
<path d="M47.5908 131.485C47.5908 132.762 46.5261 133.827 45.2485 133.827C43.9709 133.827 42.9062 132.762 42.9062 131.485C42.9062 130.207 43.9709 129.143 45.2485 129.143C46.5261 129.143 47.5908 130.207 47.5908 131.485Z" fill="#DDDDDD"/>
<path d="M27.6827 175.135C30.6227 175.135 33.006 172.752 33.006 169.812C33.006 166.872 30.6227 164.488 27.6827 164.488C24.7427 164.488 22.3594 166.872 22.3594 169.812C22.3594 172.752 24.7427 175.135 27.6827 175.135Z" fill="#DDDDDD"/>
<path d="M168.855 74.5254H139.364C138.299 74.5254 135.744 78.8905 135.744 79.9552V83.575V157.462V161.295V161.402C135.744 162.892 138.086 167.257 139.364 167.257H168.855C169.92 167.257 172.475 162.573 172.475 161.402V161.295V157.462V83.575V79.9552C172.475 78.5711 170.133 74.5254 168.855 74.5254Z" fill="#DDDDDD"/>
<path d="M154.057 167.151H168.855C169.92 167.151 172.475 162.466 172.475 161.295V161.189V157.356V83.575V79.9552C172.475 78.5711 170.133 74.5254 168.855 74.5254H154.057V167.151Z" fill="#D1D1D1"/>
<path d="M168.11 74.8444H140.003C139.152 74.8444 138.406 74.0991 138.406 73.2474C138.406 72.3957 139.152 71.6504 140.003 71.6504H168.11C168.962 71.6504 169.707 72.3957 169.707 73.2474C169.707 74.2056 169.068 74.8444 168.11 74.8444Z" fill="#D1D1D1"/>
<path d="M154.057 74.8444H168.11C168.962 74.8444 169.707 74.0991 169.707 73.2474C169.707 72.3957 168.962 71.6504 168.11 71.6504H154.057V74.8444Z" fill="#C1C1C1"/>
<path d="M172.475 80.8066H135.744V160.656H172.475V80.8066Z" fill="#FF5B57"/>
<path d="M172.475 80.8066H154.057V160.656H172.475V80.8066Z" fill="#FF4C4C"/>
<path d="M228.903 166.085H190.575L187.381 78.7832H232.097L228.903 166.085Z" fill="#744F3C"/>
<path d="M231.99 169.28H187.487L184.08 75.5898H235.397L231.99 169.28ZM193.662 162.892H225.815L228.796 81.9778H190.681L193.662 162.892Z" fill="#DDDDDD"/>
<path d="M228.903 166.085H190.575L187.381 78.7832H232.097L228.903 166.085Z" fill="#744F3C"/>
<path d="M209.738 166.085H228.902L232.096 78.7832H209.738V166.085Z" fill="#523428"/>
<path d="M222.726 130.313C222.726 132.23 221.235 133.72 219.319 133.72C217.403 133.72 215.912 132.23 215.912 130.313C215.912 128.397 217.403 126.906 219.319 126.906C221.235 126.906 222.726 128.397 222.726 130.313Z" fill="#DDDDDD"/>
<path d="M215.913 113.386C215.913 115.303 214.316 116.9 212.4 116.9C210.484 116.9 208.887 115.303 208.887 113.386C208.887 111.47 210.484 109.873 212.4 109.873C214.316 109.98 215.913 111.47 215.913 113.386Z" fill="#DDDDDD"/>
<path d="M221.237 101.354C221.237 102.632 220.173 103.696 218.895 103.696C217.617 103.696 216.553 102.632 216.553 101.354C216.553 100.076 217.617 99.0117 218.895 99.0117C220.173 99.0117 221.237 100.076 221.237 101.354Z" fill="#DDDDDD"/>
<path d="M201.222 145.008C204.162 145.008 206.545 142.625 206.545 139.685C206.545 136.745 204.162 134.361 201.222 134.361C198.282 134.361 195.898 136.745 195.898 139.685C195.898 142.625 198.282 145.008 201.222 145.008Z" fill="#DDDDDD"/>
</svg>
