<svg width="296" height="220" viewBox="0 0 296 220" fill="none" xmlns="http://www.w3.org/2000/svg">
<path d="M153.858 129.29C152.957 145.645 174.434 143.713 186.009 143.713H217.774C229.735 143.713 251.984 147.576 266.645 142.941C279.119 141.524 289.151 136.631 289.536 123.624C290.051 111.648 280.405 58.8504 290.179 48.0333C311.271 17.256 263.687 0.386455 227.549 0.386455C227.291 0.386455 227.034 0.386455 226.777 0.386455C224.205 0.25768 221.633 0.128906 219.189 0.128906C177.007 0.128906 131.866 17.256 157.716 49.1922C162.088 57.0475 155.144 105.982 153.858 129.29Z" fill="#A06210"/>
<path d="M226.261 0.257551C223.689 0.128776 221.117 0 218.674 0C176.491 0 131.35 17.1271 157.2 49.0633C161.573 56.9186 154.628 105.853 153.342 129.161C152.442 145.516 173.919 143.584 185.493 143.584H217.259C229.219 143.584 251.468 147.448 266.129 142.812C278.604 141.395 288.506 136.502 289.021 123.495C289.407 111.519 279.89 58.7215 289.664 47.9044C310.755 17.1271 263.171 0.257551 227.033 0.257551C226.776 0.257551 226.518 0.257551 226.261 0.257551Z" fill="#A16210"/>
<path d="M225.748 0.386455C223.175 0.25768 220.603 0.128906 218.16 0.128906C175.977 0.128906 130.837 17.256 156.686 49.1922C161.059 57.0475 154.114 105.982 152.828 129.29C151.928 145.645 173.405 143.713 184.98 143.713H216.745C228.706 143.713 250.954 147.576 265.615 142.941C278.09 141.524 287.993 136.631 288.507 123.624C288.893 111.648 279.376 58.8504 289.15 48.0333C310.241 17.256 262.657 0.386455 226.519 0.386455C226.262 0.25768 226.005 0.25768 225.748 0.386455Z" fill="#A16310"/>
<path d="M225.105 0.386455C222.533 0.25768 219.961 0.128906 217.517 0.128906C175.335 0.128906 130.194 17.256 156.044 49.1922C160.416 57.0475 153.472 105.982 152.186 129.29C151.285 145.645 172.763 143.713 184.337 143.713H216.103C228.063 143.713 250.312 147.576 264.973 142.941C277.447 141.524 287.35 136.631 287.864 123.624C288.25 111.648 278.733 58.8504 288.508 48.0333C309.599 17.256 262.015 0.386455 225.877 0.386455C225.619 0.386455 225.362 0.386455 225.105 0.386455Z" fill="#A26310"/>
<path d="M224.589 0.386455C222.017 0.25768 219.445 0.128906 217.002 0.128906C174.819 0.128906 129.678 17.256 155.528 49.1922C159.901 57.0475 152.956 105.982 151.67 129.29C150.77 145.645 172.247 143.713 183.821 143.713H215.587C227.547 143.713 249.796 147.576 264.457 142.941C276.932 141.524 286.834 136.631 287.349 123.624C287.735 111.648 278.218 58.8504 287.992 48.0333C309.083 17.256 261.499 0.386455 225.361 0.386455C225.104 0.386455 224.847 0.386455 224.589 0.386455Z" fill="#A26410"/>
<path d="M223.947 0.386455C221.375 0.25768 218.803 0.128906 216.359 0.128906C174.176 0.128906 129.036 17.256 154.886 49.1922C159.258 57.0475 152.314 105.982 151.027 129.29C150.127 145.645 171.604 143.713 183.179 143.713H214.944C226.905 143.713 249.153 147.576 263.814 142.941C276.289 141.524 286.192 136.631 286.706 123.624C287.092 111.648 277.575 58.8504 287.349 48.0333C308.441 17.256 260.857 0.386455 224.718 0.386455C224.59 0.386455 224.333 0.386455 223.947 0.386455Z" fill="#A36411"/>
<path d="M223.433 0.386455C220.861 0.25768 218.289 0.128906 215.845 0.128906C173.663 0.128906 128.522 17.256 154.372 49.1922C158.745 57.0475 151.8 105.982 150.514 129.29C149.614 145.645 171.091 143.713 182.665 143.713H214.431C226.391 143.713 248.64 147.576 263.301 142.941C275.776 141.524 285.678 136.631 286.193 123.624C286.578 111.648 277.062 58.8504 286.836 48.0333C307.927 17.256 260.343 0.386455 224.205 0.386455C223.948 0.386455 223.69 0.386455 223.433 0.386455Z" fill="#A36411"/>
<path d="M222.918 0.386455C220.345 0.25768 217.773 0.128906 215.33 0.128906C173.147 0.128906 128.007 17.256 153.856 49.1922C158.229 57.0475 151.284 105.982 149.998 129.29C149.098 145.645 170.575 143.713 182.15 143.713H213.915C225.875 143.713 248.124 147.576 262.785 142.941C275.26 141.524 285.163 136.631 285.677 123.624C286.063 111.648 276.546 58.8504 286.32 48.0333C307.411 17.256 259.827 0.386455 223.689 0.386455C223.432 0.386455 223.175 0.386455 222.918 0.386455Z" fill="#A46511"/>
<path d="M222.275 0.386455C219.703 0.25768 217.131 0.128906 214.687 0.128906C172.505 0.128906 127.364 17.256 153.214 49.1922C157.586 57.0475 150.642 105.982 149.356 129.29C148.455 145.645 169.932 143.713 181.507 143.713H213.144C225.104 143.713 247.353 147.576 262.014 142.941C274.489 141.524 284.391 136.631 284.906 123.624C285.292 111.648 275.775 58.8504 285.549 48.0333C306.64 17.256 259.056 0.386455 222.918 0.386455C222.789 0.386455 222.532 0.386455 222.275 0.386455Z" fill="#A46511"/>
<path d="M221.761 0.386455C219.189 0.25768 216.617 0.128906 214.174 0.128906C171.991 0.128906 126.85 17.256 152.7 49.1922C157.073 57.0475 150.128 105.982 148.842 129.29C147.942 145.645 169.419 143.713 180.993 143.713H212.759C224.719 143.713 246.968 147.576 261.629 142.941C274.104 141.524 284.006 136.631 284.521 123.624C284.907 111.648 275.39 58.8504 285.164 48.0333C306.255 17.256 258.671 0.386455 222.533 0.386455C222.276 0.386455 222.018 0.386455 221.761 0.386455Z" fill="#A56611"/>
<path d="M221.246 0.515361C218.674 0.386586 216.101 0.257812 213.658 0.257812C171.475 0.257812 126.335 17.3849 152.184 49.3211C156.557 57.1764 149.612 106.111 148.326 129.419C147.426 145.774 168.903 143.842 180.478 143.842H212.243C224.204 143.842 246.452 147.705 261.113 143.069C273.588 141.653 283.491 136.759 284.005 123.753C284.391 111.777 274.874 58.9793 284.648 48.1622C305.739 17.3849 258.155 0.515361 222.017 0.515361C221.76 0.386586 221.503 0.386586 221.246 0.515361Z" fill="#A56611"/>
<path d="M220.603 0.515361C218.031 0.386586 215.459 0.257812 213.015 0.257812C170.833 0.257812 125.692 17.3849 151.542 49.3211C155.914 57.1764 148.97 106.111 147.684 129.419C146.783 145.774 168.261 143.842 179.835 143.842H211.601C223.561 143.842 245.81 147.705 260.471 143.069C272.946 141.653 282.848 136.759 283.363 123.753C283.748 111.777 274.232 58.9793 284.006 48.1622C305.097 17.3849 257.513 0.515361 221.375 0.515361C221.117 0.515361 220.86 0.515361 220.603 0.515361Z" fill="#A66611"/>
<path d="M220.089 0.515361C217.517 0.386586 214.945 0.257812 212.502 0.257812C170.319 0.257812 125.178 17.3849 151.028 49.3211C155.401 57.1764 148.456 106.111 147.17 129.419C146.27 145.774 167.747 143.842 179.321 143.842H211.087C223.047 143.842 245.296 147.705 259.957 143.069C272.432 141.653 282.334 136.759 282.849 123.753C283.235 111.777 273.718 58.9793 283.492 48.1622C304.583 17.3849 256.999 0.515361 220.861 0.515361C220.604 0.515361 220.347 0.515361 220.089 0.515361Z" fill="#A66711"/>
<path d="M219.447 0.515361C216.875 0.386586 214.303 0.257812 211.859 0.257812C169.676 0.257812 124.536 17.3849 150.386 49.3211C154.758 57.1764 147.814 106.111 146.527 129.419C145.627 145.774 167.104 143.842 178.679 143.842H210.444C222.405 143.842 244.653 147.705 259.314 143.069C271.789 141.653 281.692 136.759 282.206 123.753C282.592 111.777 273.075 58.9793 282.849 48.1622C303.941 17.3849 256.357 0.515361 220.218 0.515361C220.09 0.515361 219.833 0.515361 219.447 0.515361Z" fill="#A76711"/>
<path d="M218.931 0.515361C216.359 0.386586 213.787 0.257812 211.343 0.257812C169.161 0.257812 124.02 17.3849 149.87 49.3211C154.243 57.1764 147.298 106.111 146.012 129.419C145.112 145.774 166.589 143.842 178.163 143.842H209.929C221.889 143.842 244.138 147.705 258.799 143.069C271.274 141.653 281.176 136.759 281.691 123.753C282.076 111.777 272.56 58.9793 282.334 48.1622C303.425 17.3849 255.841 0.515361 219.703 0.515361C219.446 0.515361 219.188 0.515361 218.931 0.515361Z" fill="#A76812"/>
<path d="M218.418 0.515361C215.845 0.386586 213.273 0.257812 210.83 0.257812C168.647 0.257812 123.507 17.3849 149.356 49.3211C153.729 57.1764 146.784 106.111 145.498 129.419C144.598 145.774 166.075 143.842 177.65 143.842H209.287C221.247 143.842 243.496 147.705 258.157 143.069C270.631 141.653 280.534 136.759 281.048 123.753C281.434 111.777 271.917 58.9793 281.691 48.1622C302.783 17.3849 255.199 0.515361 219.061 0.515361C218.932 0.515361 218.675 0.515361 218.418 0.515361Z" fill="#A86812"/>
<path d="M217.775 0.515361C215.203 0.386586 212.631 0.257812 210.187 0.257812C168.005 0.257812 122.864 17.3849 148.714 49.3211C153.086 57.1764 146.142 106.111 144.856 129.419C143.955 145.774 165.432 143.842 177.007 143.842H208.773C220.733 143.842 242.982 147.705 257.643 143.069C270.117 141.653 280.02 136.759 280.534 123.753C280.92 111.777 271.403 58.9793 281.178 48.1622C302.269 17.3849 254.685 0.515361 218.547 0.515361C218.289 0.515361 218.032 0.515361 217.775 0.515361Z" fill="#A96812"/>
<path d="M217.259 0.515361C214.687 0.386586 212.115 0.257812 209.672 0.257812C167.489 0.257812 122.348 17.3849 148.198 49.3211C152.571 57.1764 145.626 106.111 144.34 129.419C143.44 145.774 164.917 143.842 176.491 143.842H208.257C220.217 143.842 242.466 147.705 257.127 143.069C269.602 141.653 279.504 136.759 280.019 123.753C280.405 111.777 270.888 58.9793 280.662 48.1622C301.753 17.3849 254.169 0.515361 218.031 0.515361C217.774 0.515361 217.517 0.515361 217.259 0.515361Z" fill="#A96912"/>
<path d="M216.746 0.64427C214.174 0.515495 211.601 0.386719 209.158 0.386719C166.975 0.386719 121.835 17.5138 147.684 49.45C152.057 57.3053 145.112 106.24 143.826 129.548C142.926 145.903 164.403 143.971 175.978 143.971H207.743C219.704 143.971 241.952 147.834 256.613 143.198C269.088 141.782 278.991 136.888 279.505 123.882C279.891 111.906 270.374 59.1082 280.148 48.2911C301.24 17.5138 253.655 0.64427 217.517 0.64427C217.26 0.515495 217.003 0.515495 216.746 0.64427Z" fill="#AA6912"/>
<path d="M216.103 0.64427C213.531 0.515495 210.959 0.386719 208.515 0.386719C166.333 0.386719 121.192 17.5138 147.042 49.45C151.414 57.3053 144.47 106.24 143.184 129.548C142.283 145.903 163.761 143.971 175.335 143.971H207.101C219.061 143.971 241.31 147.834 255.971 143.198C268.445 141.782 278.348 136.888 278.863 123.882C279.248 111.906 269.732 59.1082 279.506 48.2911C300.597 17.5138 253.013 0.64427 216.875 0.64427C216.617 0.64427 216.36 0.64427 216.103 0.64427Z" fill="#AA6A12"/>
<path d="M215.587 0.64427C213.015 0.515495 210.443 0.386719 208 0.386719C165.817 0.386719 120.677 17.5138 146.526 49.45C150.899 57.3053 143.954 106.24 142.668 129.548C141.768 145.903 163.245 143.971 174.819 143.971H206.585C218.545 143.971 240.794 147.834 255.455 143.198C267.93 141.782 277.832 136.888 278.347 123.882C278.733 111.906 269.216 59.1082 278.99 48.2911C300.081 17.5138 252.497 0.64427 216.359 0.64427C216.102 0.64427 215.845 0.64427 215.587 0.64427Z" fill="#AB6A12"/>
<path d="M214.945 0.64427C212.373 0.515495 209.801 0.386719 207.357 0.386719C165.175 0.386719 120.034 17.5138 145.884 49.45C150.256 57.3053 143.312 106.24 142.026 129.548C141.125 145.903 162.602 143.971 174.177 143.971H205.942C217.903 143.971 240.152 147.834 254.813 143.198C267.287 141.782 277.19 136.888 277.704 123.882C278.09 111.906 268.573 59.1082 278.347 48.2911C299.439 17.5138 251.855 0.64427 215.716 0.64427C215.588 0.64427 215.331 0.64427 214.945 0.64427Z" fill="#AB6B12"/>
<path d="M214.431 0.64427C211.859 0.515495 209.287 0.386719 206.843 0.386719C164.661 0.386719 119.52 17.5138 145.37 49.45C149.743 57.3053 142.798 106.24 141.512 129.548C140.612 145.903 162.089 143.971 173.663 143.971H205.429C217.389 143.971 239.638 147.834 254.299 143.198C266.774 141.782 276.676 136.888 277.191 123.882C277.576 111.906 268.06 59.1082 277.834 48.2911C298.925 17.5138 251.341 0.64427 215.203 0.64427C214.946 0.64427 214.688 0.64427 214.431 0.64427Z" fill="#AC6B12"/>
<path d="M213.916 0.64427C211.343 0.515495 208.771 0.386719 206.328 0.386719C164.145 0.386719 119.005 17.5138 144.854 49.45C149.227 57.3053 142.282 106.24 140.996 129.548C140.096 145.903 161.573 143.971 173.148 143.971H204.913C216.874 143.971 239.122 147.834 253.783 143.198C266.258 141.782 276.161 136.888 276.675 123.882C277.061 111.906 267.544 59.1082 277.318 48.2911C298.409 17.5138 250.825 0.64427 214.687 0.64427C214.43 0.64427 214.173 0.64427 213.916 0.64427Z" fill="#AC6B13"/>
<path d="M213.273 0.64427C210.701 0.515495 208.129 0.386719 205.685 0.386719C163.503 0.386719 118.362 17.5138 144.212 49.45C148.584 57.3053 141.64 106.24 140.354 129.548C139.453 145.903 160.931 143.971 172.505 143.971H204.142C216.102 143.971 238.351 147.834 253.012 143.198C265.487 141.782 275.389 136.888 275.904 123.882C276.29 111.906 266.773 59.1082 276.547 48.2911C297.638 17.5138 250.054 0.64427 213.916 0.64427C213.787 0.64427 213.53 0.64427 213.273 0.64427Z" fill="#AD6C13"/>
<path d="M212.759 0.64427C210.187 0.515495 207.615 0.386719 205.172 0.386719C162.989 0.386719 117.848 17.5138 143.698 49.45C148.071 57.3053 141.126 106.24 139.84 129.548C138.94 145.903 160.417 143.971 171.991 143.971H203.757C215.717 143.971 237.966 147.834 252.627 143.198C265.102 141.782 275.004 136.888 275.519 123.882C275.905 111.906 266.388 59.1082 276.162 48.2911C297.253 17.5138 249.669 0.64427 213.531 0.64427C213.274 0.64427 213.016 0.64427 212.759 0.64427Z" fill="#AD6C13"/>
<path d="M212.115 0.773176C209.543 0.644401 206.971 0.515625 204.527 0.515625C162.344 0.515625 117.204 17.6427 143.054 49.5789C147.426 57.4342 140.481 106.369 139.195 129.677C138.295 146.032 159.772 144.1 171.347 144.1H203.112C215.073 144.1 237.321 147.963 251.982 143.327C264.457 141.911 274.36 137.017 274.874 124.011C275.26 112.035 265.743 59.2371 275.517 48.42C296.609 17.6427 249.025 0.773176 212.886 0.773176C212.758 0.644401 212.501 0.644401 212.115 0.773176Z" fill="#AE6D13"/>
<path d="M211.601 0.773176C209.029 0.644401 206.457 0.515625 204.013 0.515625C161.831 0.515625 116.69 17.6427 142.54 49.5789C146.913 57.4342 139.968 106.369 138.682 129.677C137.782 146.032 159.259 144.1 170.833 144.1H202.599C214.559 144.1 236.808 147.963 251.469 143.327C263.944 141.911 273.846 137.017 274.361 124.011C274.746 112.035 265.23 59.2371 275.004 48.42C296.095 17.6427 248.511 0.773176 212.373 0.773176C212.115 0.773176 211.858 0.773176 211.601 0.773176Z" fill="#AE6D13"/>
<path d="M211.085 0.773176C208.513 0.644401 205.941 0.515625 203.498 0.515625C161.315 0.515625 116.175 17.6427 142.024 49.5789C146.397 57.4342 139.452 106.369 138.166 129.677C137.266 146.032 158.743 144.1 170.318 144.1H202.083C214.043 144.1 236.292 147.963 250.953 143.327C263.428 141.911 273.331 137.017 273.845 124.011C274.231 112.035 264.714 59.2371 274.488 48.42C295.579 17.6427 247.995 0.773176 211.857 0.773176C211.6 0.773176 211.343 0.773176 211.085 0.773176Z" fill="#AF6D13"/>
<path d="M210.443 0.773176C207.871 0.644401 205.299 0.515625 202.855 0.515625C160.673 0.515625 115.532 17.6427 141.382 49.5789C145.754 57.4342 138.81 106.369 137.524 129.677C136.623 146.032 158.1 144.1 169.675 144.1H201.44C213.401 144.1 235.65 147.963 250.311 143.327C262.785 141.911 272.688 137.017 273.202 124.011C273.588 112.035 264.071 59.2371 273.845 48.42C294.937 17.6427 247.353 0.773176 211.215 0.773176C211.086 0.773176 210.829 0.773176 210.443 0.773176Z" fill="#B06E13"/>
<path d="M209.929 0.773176C207.357 0.644401 204.785 0.515625 202.341 0.515625C160.159 0.515625 115.018 17.6427 140.868 49.5789C145.241 57.4342 138.296 106.369 137.01 129.677C136.11 146.032 157.587 144.1 169.161 144.1H200.927C212.887 144.1 235.136 147.963 249.797 143.327C262.272 141.911 272.174 137.017 272.689 124.011C273.075 112.035 263.558 59.2371 273.332 48.42C294.423 17.6427 246.839 0.773176 210.701 0.773176C210.444 0.773176 210.186 0.773176 209.929 0.773176Z" fill="#B06E13"/>
<path d="M209.416 0.773176C206.843 0.644401 204.271 0.515625 201.828 0.515625C159.645 0.515625 114.505 17.6427 140.354 49.5789C144.727 57.4342 137.782 106.369 136.496 129.677C135.596 146.032 157.073 144.1 168.648 144.1H200.285C212.245 144.1 234.494 147.963 249.155 143.327C261.629 141.911 271.532 137.017 272.046 124.011C272.432 112.035 262.915 59.2371 272.689 48.42C293.781 17.6427 246.197 0.773176 210.059 0.773176C209.93 0.773176 209.673 0.773176 209.416 0.773176Z" fill="#B16F13"/>
<path d="M208.771 0.773176C206.199 0.644401 203.627 0.515625 201.183 0.515625C159.001 0.515625 113.86 17.6427 139.71 49.5789C144.082 57.4342 137.138 106.369 135.852 129.677C134.951 146.032 156.429 144.1 168.003 144.1H199.769C211.729 144.1 233.978 147.963 248.639 143.327C261.113 141.911 271.016 137.017 271.531 124.011C271.916 112.035 262.4 59.2371 272.174 48.42C293.265 17.6427 245.681 0.773176 209.543 0.773176C209.285 0.773176 209.028 0.773176 208.771 0.773176Z" fill="#B16F13"/>
<path d="M208.257 0.773176C205.685 0.644401 203.113 0.515625 200.67 0.515625C158.487 0.515625 113.346 17.6427 139.196 49.5789C143.569 57.4342 136.624 106.369 135.338 129.677C134.438 146.032 155.915 144.1 167.489 144.1H199.255C211.215 144.1 233.464 147.963 248.125 143.327C260.6 141.911 270.502 137.017 271.017 124.011C271.403 112.035 261.886 59.2371 271.66 48.42C292.751 17.6427 245.167 0.773176 209.029 0.773176C208.772 0.773176 208.515 0.773176 208.257 0.773176Z" fill="#B26F14"/>
<path d="M207.615 0.902082C205.043 0.773307 202.471 0.644531 200.027 0.644531C157.844 0.644531 112.704 17.7716 138.554 49.7078C142.926 57.5631 135.981 106.498 134.695 129.806C133.795 146.16 155.272 144.229 166.847 144.229H198.612C210.573 144.229 232.821 148.092 247.482 143.456C259.957 142.04 269.86 137.146 270.374 124.14C270.76 112.164 261.243 59.366 271.017 48.5489C292.109 17.7716 244.525 0.902082 208.386 0.902082C208.258 0.773307 208.001 0.773307 207.615 0.902082Z" fill="#B27014"/>
<path d="M207.099 0.902082C204.527 0.773307 201.955 0.644531 199.511 0.644531C157.329 0.644531 112.188 17.7716 138.038 49.7078C142.411 57.5631 135.466 106.498 134.18 129.806C133.28 146.16 154.757 144.229 166.331 144.229H198.097C210.057 144.229 232.306 148.092 246.967 143.456C259.442 142.04 269.344 137.146 269.859 124.14C270.244 112.164 260.728 59.366 270.502 48.5489C291.593 17.7716 244.009 0.902082 207.871 0.902082C207.614 0.902082 207.356 0.902082 207.099 0.902082Z" fill="#B37014"/>
<path d="M206.585 0.902082C204.013 0.773307 201.441 0.644531 198.998 0.644531C156.815 0.644531 111.675 17.7716 137.524 49.7078C141.897 57.5631 134.952 106.498 133.666 129.806C132.766 146.16 154.243 144.229 165.818 144.229H197.583C209.543 144.229 231.792 148.092 246.453 143.456C258.928 142.04 268.831 137.146 269.345 124.14C269.731 112.164 260.214 59.366 269.988 48.5489C291.079 17.7716 243.495 0.902082 207.357 0.902082C207.1 0.902082 206.843 0.902082 206.585 0.902082Z" fill="#B37114"/>
<path d="M205.943 0.902082C203.371 0.773307 200.799 0.644531 198.355 0.644531C156.173 0.644531 111.032 17.7716 136.882 49.7078C141.254 57.5631 134.31 106.498 133.024 129.806C132.123 146.16 153.6 144.229 165.175 144.229H196.94C208.901 144.229 231.15 148.092 245.811 143.456C258.285 142.04 268.188 137.146 268.702 124.14C269.088 112.164 259.571 59.366 269.345 48.5489C290.437 17.7716 242.853 0.902082 206.715 0.902082C206.457 0.902082 206.2 0.902082 205.943 0.902082Z" fill="#B47114"/>
<path d="M205.427 0.902082C202.855 0.773307 200.283 0.644531 197.84 0.644531C155.657 0.644531 110.516 17.7716 136.366 49.7078C140.739 57.5631 133.794 106.498 132.508 129.806C131.608 146.16 153.085 144.229 164.659 144.229H196.425C208.385 144.229 230.634 148.092 245.295 143.456C257.77 142.04 267.672 137.146 268.187 124.14C268.573 112.164 259.056 59.366 268.83 48.5489C289.921 17.7716 242.337 0.902082 206.199 0.902082C205.942 0.902082 205.684 0.902082 205.427 0.902082Z" fill="#B47114"/>
<path d="M204.914 0.902082C202.341 0.773307 199.769 0.644531 197.326 0.644531C155.143 0.644531 110.003 17.7716 135.852 49.7078C140.225 57.5631 133.28 106.498 131.994 129.806C131.094 146.16 152.571 144.229 164.146 144.229H195.911C207.872 144.229 230.12 148.092 244.781 143.456C257.256 142.04 267.159 137.146 267.673 124.14C268.059 112.164 258.542 59.366 268.316 48.5489C289.407 17.7716 241.823 0.902082 205.685 0.902082C205.428 0.902082 205.171 0.902082 204.914 0.902082Z" fill="#B57214"/>
<path d="M204.271 0.902082C201.699 0.773307 199.127 0.644531 196.683 0.644531C154.501 0.644531 109.36 17.7716 135.21 49.7078C139.582 57.5631 132.638 106.498 131.352 129.806C130.451 146.16 151.929 144.229 163.503 144.229H195.14C207.1 144.229 229.349 148.092 244.01 143.456C256.485 142.04 266.387 137.146 266.902 124.14C267.288 112.164 257.771 59.366 267.545 48.5489C288.636 17.7716 241.052 0.902082 204.914 0.902082C204.785 0.902082 204.528 0.902082 204.271 0.902082Z" fill="#B57214"/>
<path d="M203.755 0.902082C201.183 0.773307 198.611 0.644531 196.168 0.644531C153.985 0.644531 108.845 17.7716 134.694 49.7078C139.067 57.5631 132.122 106.498 130.836 129.806C129.936 146.16 151.413 144.229 162.987 144.229H194.753C206.713 144.229 228.962 148.092 243.623 143.456C256.098 142.04 266 137.146 266.515 124.14C266.901 112.164 257.384 59.366 267.158 48.5489C288.249 17.7716 240.665 0.902082 204.527 0.902082C204.27 0.902082 204.013 0.902082 203.755 0.902082Z" fill="#B67314"/>
<path d="M203.113 1.02903C200.541 0.900258 197.969 0.771484 195.525 0.771484C153.342 0.771484 108.202 17.8986 134.052 49.8348C138.424 57.6901 131.48 106.625 130.193 129.933C129.293 146.287 150.77 144.356 162.345 144.356H194.11C206.071 144.356 228.319 148.219 242.98 143.583C255.455 142.167 265.358 137.273 265.872 124.267C266.258 112.291 256.741 59.4929 266.515 48.6758C287.607 17.8986 240.023 1.02903 203.884 1.02903C203.756 0.900258 203.499 0.900258 203.113 1.02903Z" fill="#B67315"/>
<path d="M202.599 1.02903C200.027 0.900258 197.455 0.771484 195.011 0.771484C152.829 0.771484 107.688 17.8986 133.538 49.8348C137.911 57.6901 130.966 106.625 129.68 129.933C128.78 146.287 150.257 144.356 161.831 144.356H193.597C205.557 144.356 227.806 148.219 242.467 143.583C254.942 142.167 264.844 137.273 265.359 124.267C265.744 112.291 256.228 59.4929 266.002 48.6758C287.093 17.8986 239.509 1.02903 203.371 1.02903C203.114 1.02903 202.856 1.02903 202.599 1.02903Z" fill="#B77315"/>
<path d="M202.084 1.02903C199.511 0.900258 196.939 0.771484 194.496 0.771484C152.313 0.771484 107.173 17.8986 133.022 49.8348C137.395 57.6901 130.45 106.625 129.164 129.933C128.264 146.287 149.741 144.356 161.316 144.356H193.081C205.041 144.356 227.29 148.219 241.951 143.583C254.426 142.167 264.329 137.273 264.843 124.267C265.229 112.291 255.712 59.4929 265.486 48.6758C286.577 17.8986 238.993 1.02903 202.855 1.02903C202.598 1.02903 202.341 1.02903 202.084 1.02903Z" fill="#B87415"/>
<path d="M201.441 1.02903C198.869 0.900258 196.297 0.771484 193.853 0.771484C151.671 0.771484 106.53 17.8986 132.38 49.8348C136.752 57.6901 129.808 106.625 128.522 129.933C127.621 146.287 149.098 144.356 160.673 144.356H192.439C204.399 144.356 226.648 148.219 241.309 143.583C253.783 142.167 263.686 137.273 264.2 124.267C264.586 112.291 255.069 59.4929 264.843 48.6758C285.935 17.8986 238.351 1.02903 202.213 1.02903C201.955 1.02903 201.698 1.02903 201.441 1.02903Z" fill="#B87415"/>
<path d="M200.927 1.02903C198.355 0.900258 195.783 0.771484 193.34 0.771484C151.157 0.771484 106.016 17.8986 131.866 49.8348C136.239 57.6901 129.294 106.625 128.008 129.933C127.108 146.287 148.585 144.356 160.159 144.356H191.925C203.885 144.356 226.134 148.219 240.795 143.583C253.27 142.167 263.172 137.273 263.687 124.267C264.073 112.291 254.556 59.4929 264.33 48.6758C285.421 17.8986 237.837 1.02903 201.699 1.02903C201.442 1.02903 201.184 1.02903 200.927 1.02903Z" fill="#B97515"/>
<path d="M200.285 1.02903C197.713 0.900258 195.14 0.771484 192.697 0.771484C150.514 0.771484 105.374 17.8986 131.224 49.8348C135.596 57.6901 128.651 106.625 127.365 129.933C126.465 146.287 147.942 144.356 159.517 144.356H191.282C203.243 144.356 225.491 148.219 240.152 143.583C252.627 142.167 262.53 137.273 263.044 124.267C263.43 112.291 253.913 59.4929 263.687 48.6758C284.778 17.8986 237.194 1.02903 201.056 1.02903C200.928 1.02903 200.67 1.02903 200.285 1.02903Z" fill="#B97515"/>
<path d="M199.769 1.02903C197.197 0.900258 194.625 0.771484 192.181 0.771484C149.999 0.771484 104.858 17.8986 130.708 49.8348C135.08 57.6901 128.136 106.625 126.85 129.933C125.949 146.287 147.427 144.356 159.001 144.356H190.767C202.727 144.356 224.976 148.219 239.637 143.583C252.112 142.167 262.014 137.273 262.529 124.267C262.914 112.291 253.398 59.4929 263.172 48.6758C284.263 17.8986 236.679 1.02903 200.541 1.02903C200.284 1.02903 200.026 1.02903 199.769 1.02903Z" fill="#BA7515"/>
<path d="M199.255 1.02903C196.683 0.900258 194.111 0.771484 191.668 0.771484C149.485 0.771484 104.345 17.8986 130.194 49.8348C134.567 57.6901 127.622 106.625 126.336 129.933C125.436 146.287 146.913 144.356 158.487 144.356H190.253C202.213 144.356 224.462 148.219 239.123 143.583C251.598 142.167 261.5 137.273 262.015 124.267C262.401 112.291 252.884 59.4929 262.658 48.6758C283.749 17.8986 236.165 1.02903 200.027 1.02903C199.77 1.02903 199.513 1.02903 199.255 1.02903Z" fill="#BA7615"/>
<path d="M198.613 1.15794C196.041 1.02916 193.469 0.900391 191.025 0.900391C148.842 0.900391 103.702 18.0275 129.552 49.9637C133.924 57.819 126.98 106.754 125.693 130.062C124.793 146.416 146.27 144.485 157.845 144.485H189.61C201.571 144.485 223.819 148.348 238.481 143.712C250.955 142.296 260.858 137.402 261.372 124.396C261.758 112.42 252.241 59.6219 262.015 48.8047C283.107 18.0275 235.523 1.15794 199.384 1.15794C199.256 1.02916 198.999 1.02916 198.613 1.15794Z" fill="#BB7615"/>
<path d="M198.097 1.15794C195.525 1.02916 192.953 0.900391 190.509 0.900391C148.327 0.900391 103.186 18.0275 129.036 49.9637C133.409 57.819 126.464 106.754 125.178 130.062C124.278 146.416 145.755 144.485 157.329 144.485H189.095C201.055 144.485 223.304 148.348 237.965 143.712C250.44 142.296 260.342 137.402 260.857 124.396C261.242 112.42 251.726 59.6219 261.5 48.8047C282.591 18.0275 235.007 1.15794 198.869 1.15794C198.612 1.15794 198.354 1.15794 198.097 1.15794Z" fill="#BB7716"/>
<path d="M197.583 1.15794C195.011 1.02916 192.439 0.900391 189.996 0.900391C147.813 0.900391 102.673 18.0275 128.522 49.9637C132.895 57.819 125.95 106.754 124.664 130.062C123.764 146.416 145.241 144.485 156.816 144.485H188.581C200.541 144.485 222.79 148.348 237.451 143.712C249.926 142.296 259.829 137.402 260.343 124.396C260.729 112.42 251.212 59.6219 260.986 48.8047C282.077 18.0275 234.493 1.15794 198.355 1.15794C198.098 1.15794 197.841 1.15794 197.583 1.15794Z" fill="#BC7716"/>
<path d="M196.939 1.15794C194.367 1.02916 191.795 0.900391 189.351 0.900391C147.169 0.900391 102.028 18.0275 127.878 49.9637C132.25 57.819 125.306 106.754 124.02 130.062C123.119 146.416 144.597 144.485 156.171 144.485H187.937C199.897 144.485 222.146 148.348 236.807 143.712C249.281 142.296 259.184 137.402 259.698 124.396C260.084 112.42 250.567 59.6219 260.341 48.8047C281.433 18.0275 233.849 1.15794 197.711 1.15794C197.453 1.15794 197.196 1.15794 196.939 1.15794Z" fill="#BC7816"/>
<path d="M196.425 1.15794C193.853 1.02916 191.281 0.900391 188.838 0.900391C146.655 0.900391 101.514 18.0275 127.364 49.9637C131.737 57.819 124.792 106.754 123.506 130.062C122.606 146.416 144.083 144.485 155.657 144.485H187.423C199.383 144.485 221.632 148.348 236.293 143.712C248.768 142.296 258.67 137.402 259.185 124.396C259.571 112.42 250.054 59.6219 259.828 48.8047C280.919 18.0275 233.335 1.15794 197.197 1.15794C196.94 1.15794 196.682 1.15794 196.425 1.15794Z" fill="#BD7816"/>
<path d="M195.783 1.15794C193.211 1.02916 190.639 0.900391 188.195 0.900391C146.012 0.900391 100.872 18.0275 126.722 49.9637C131.094 57.819 124.149 106.754 122.863 130.062C121.963 146.416 143.44 144.485 155.015 144.485H186.78C198.741 144.485 220.989 148.348 235.65 143.712C248.125 142.296 258.028 137.402 258.542 124.396C258.928 112.42 249.411 59.6219 259.185 48.8047C280.277 18.0275 232.693 1.15794 196.554 1.15794C196.426 1.15794 196.169 1.15794 195.783 1.15794Z" fill="#BD7816"/>
<path d="M195.267 1.15794C192.695 1.02916 190.123 0.900391 187.679 0.900391C145.497 0.900391 100.356 18.0275 126.206 49.9637C130.579 57.819 123.634 106.754 122.348 130.062C121.448 146.416 142.925 144.485 154.499 144.485H186.136C198.096 144.485 220.345 148.348 235.006 143.712C247.481 142.296 257.384 137.402 257.898 124.396C258.284 112.42 248.767 59.6219 258.541 48.8047C279.632 18.0275 232.048 1.15794 195.91 1.15794C195.782 1.15794 195.524 1.15794 195.267 1.15794Z" fill="#BE7916"/>
<path d="M194.753 1.15794C192.181 1.02916 189.609 0.900391 187.166 0.900391C144.983 0.900391 99.8426 18.0275 125.692 49.9637C130.065 57.819 123.12 106.754 121.834 130.062C120.934 146.416 142.411 144.485 153.985 144.485H185.751C197.711 144.485 219.96 148.348 234.621 143.712C247.096 142.296 256.999 137.402 257.513 124.396C257.899 112.42 248.382 59.6219 258.156 48.8047C279.247 18.0275 231.663 1.15794 195.525 1.15794C195.268 1.15794 195.011 1.15794 194.753 1.15794Z" fill="#BE7916"/>
<path d="M194.111 1.2888C191.539 1.16003 188.967 1.03125 186.523 1.03125C144.341 1.03125 99.2 18.1584 125.05 50.0946C129.422 57.9499 122.478 106.884 121.192 130.193C120.291 146.547 141.768 144.616 153.343 144.616H185.108C197.069 144.616 219.318 148.479 233.979 143.843C246.453 142.426 256.356 137.533 256.87 124.527C257.256 112.551 247.739 59.7527 257.513 48.9356C278.605 18.1584 231.021 1.2888 194.882 1.2888C194.754 1.16003 194.368 1.16003 194.111 1.2888Z" fill="#BF7A16"/>
<path d="M193.597 1.2888C191.025 1.16003 188.453 1.03125 186.009 1.03125C143.827 1.03125 98.6863 18.1584 124.536 50.0946C128.909 57.9499 121.964 106.884 120.678 130.193C119.778 146.547 141.255 144.616 152.829 144.616H184.595C196.555 144.616 218.804 148.479 233.465 143.843C245.94 142.426 255.842 137.533 256.357 124.527C256.743 112.551 247.226 59.7527 257 48.9356C278.091 18.1584 230.507 1.2888 194.369 1.2888C194.112 1.2888 193.854 1.2888 193.597 1.2888Z" fill="#C07A16"/>
<path d="M193.082 1.2888C190.509 1.16003 187.937 1.03125 185.494 1.03125C143.311 1.03125 98.1707 18.1584 124.02 50.0946C128.393 57.9499 121.448 106.884 120.162 130.193C119.262 146.547 140.739 144.616 152.314 144.616H184.079C196.039 144.616 218.288 148.479 232.949 143.843C245.424 142.426 255.327 137.533 255.841 124.527C256.227 112.551 246.71 59.7527 256.484 48.9356C277.575 18.1584 229.991 1.2888 193.853 1.2888C193.596 1.2888 193.339 1.2888 193.082 1.2888Z" fill="#C07A17"/>
<path d="M192.439 1.2888C189.867 1.16003 187.295 1.03125 184.851 1.03125C142.669 1.03125 97.5281 18.1584 123.378 50.0946C127.75 57.9499 120.806 106.884 119.52 130.193C118.619 146.547 140.097 144.616 151.671 144.616H183.437C195.397 144.616 217.646 148.479 232.307 143.843C244.781 142.426 254.684 137.533 255.198 124.527C255.584 112.551 246.067 59.7527 255.841 48.9356C276.933 18.1584 229.349 1.2888 193.211 1.2888C192.953 1.2888 192.696 1.2888 192.439 1.2888Z" fill="#C17B17"/>
<path d="M191.925 1.2888C189.353 1.16003 186.781 1.03125 184.338 1.03125C142.155 1.03125 97.0144 18.1584 122.864 50.0946C127.237 57.9499 120.292 106.884 119.006 130.193C118.106 146.547 139.583 144.616 151.157 144.616H182.923C194.883 144.616 217.132 148.479 231.793 143.843C244.268 142.426 254.17 137.533 254.685 124.527C255.071 112.551 245.554 59.7527 255.328 48.9356C276.419 18.1584 228.835 1.2888 192.697 1.2888C192.44 1.2888 192.183 1.2888 191.925 1.2888Z" fill="#C17B17"/>
<path d="M191.281 1.2888C188.709 1.16003 186.137 1.03125 183.693 1.03125C141.51 1.03125 96.3699 18.1584 122.22 50.0946C126.592 57.9499 119.648 106.884 118.361 130.193C117.461 146.547 138.938 144.616 150.513 144.616H182.278C194.239 144.616 216.487 148.479 231.149 143.843C243.623 142.426 253.526 137.533 254.04 124.527C254.426 112.551 244.909 59.7527 254.683 48.9356C275.775 18.1584 228.191 1.2888 192.052 1.2888C191.924 1.2888 191.667 1.2888 191.281 1.2888Z" fill="#C27C17"/>
<path d="M190.767 1.2888C188.195 1.16003 185.623 1.03125 183.179 1.03125C140.997 1.03125 95.8562 18.1584 121.706 50.0946C126.079 57.9499 119.134 106.884 117.848 130.193C116.948 146.547 138.425 144.616 149.999 144.616H181.765C193.725 144.616 215.974 148.479 230.635 143.843C243.11 142.426 253.012 137.533 253.527 124.527C253.912 112.551 244.396 59.7527 254.17 48.9356C275.261 18.1584 227.677 1.2888 191.539 1.2888C191.282 1.2888 191.024 1.2888 190.767 1.2888Z" fill="#C27C17"/>
<path d="M190.253 1.2888C187.681 1.16003 185.109 1.03125 182.666 1.03125C140.483 1.03125 95.3426 18.1584 121.192 50.0946C125.565 57.9499 118.62 106.884 117.334 130.193C116.434 146.547 137.911 144.616 149.485 144.616H181.251C193.211 144.616 215.46 148.479 230.121 143.843C242.596 142.426 252.498 137.533 253.013 124.527C253.399 112.551 243.882 59.7527 253.656 48.9356C274.747 18.1584 227.163 1.2888 191.025 1.2888C190.768 1.2888 190.511 1.2888 190.253 1.2888Z" fill="#C37C17"/>
<path d="M189.609 1.41575C187.037 1.28698 184.465 1.1582 182.021 1.1582C139.839 1.1582 94.698 18.2853 120.548 50.2215C124.92 58.0768 117.976 107.011 116.69 130.32C115.789 146.674 137.266 144.742 148.841 144.742H180.607C192.567 144.742 214.816 148.606 229.477 143.97C241.951 142.553 251.854 137.66 252.368 124.654C252.754 112.677 243.237 59.8797 253.011 49.0625C274.103 18.2853 226.519 1.41575 190.381 1.41575C190.123 1.28698 189.866 1.28698 189.609 1.41575Z" fill="#C37D17"/>
<path d="M189.095 1.41575C186.523 1.28698 183.951 1.1582 181.508 1.1582C139.325 1.1582 94.1844 18.2853 120.034 50.2215C124.407 58.0768 117.462 107.011 116.176 130.32C115.276 146.674 136.753 144.742 148.327 144.742H180.093C192.053 144.742 214.302 148.606 228.963 143.97C241.438 142.553 251.34 137.66 251.855 124.654C252.241 112.677 242.724 59.8797 252.498 49.0625C273.589 18.2853 226.005 1.41575 189.867 1.41575C189.61 1.41575 189.352 1.41575 189.095 1.41575Z" fill="#C47D17"/>
<path d="M188.58 1.41575C186.008 1.28698 183.435 1.1582 180.992 1.1582C138.809 1.1582 93.6687 18.2853 119.518 50.2215C123.891 58.0768 116.946 107.011 115.66 130.32C114.76 146.674 136.237 144.742 147.812 144.742H179.577C191.538 144.742 213.786 148.606 228.447 143.97C240.922 142.553 250.825 137.66 251.339 124.654C251.725 112.677 242.208 59.8797 251.982 49.0625C273.073 18.2853 225.489 1.41575 189.351 1.41575C189.094 1.41575 188.837 1.41575 188.58 1.41575Z" fill="#C47E17"/>
<path d="M187.937 1.41575C185.365 1.28698 182.793 1.1582 180.349 1.1582C138.167 1.1582 93.0261 18.2853 118.876 50.2215C123.248 58.0768 116.304 107.011 115.018 130.32C114.117 146.674 135.595 144.742 147.169 144.742H178.935C190.895 144.742 213.144 148.606 227.805 143.97C240.28 142.553 250.182 137.66 250.697 124.654C251.082 112.677 241.566 59.8797 251.34 49.0625C272.431 18.2853 224.847 1.41575 188.709 1.41575C188.451 1.41575 188.194 1.41575 187.937 1.41575Z" fill="#C57E18"/>
<path d="M187.423 1.41575C184.851 1.28698 182.279 1.1582 179.836 1.1582C137.653 1.1582 92.5125 18.2853 118.362 50.2215C122.735 58.0768 115.79 107.011 114.504 130.32C113.604 146.674 135.081 144.742 146.655 144.742H178.421C190.381 144.742 212.63 148.606 227.291 143.97C239.766 142.553 249.668 137.66 250.183 124.654C250.569 112.677 241.052 59.8797 250.826 49.0625C271.917 18.2853 224.333 1.41575 188.195 1.41575C187.938 1.41575 187.681 1.41575 187.423 1.41575Z" fill="#C57E18"/>
<path d="M186.781 1.41575C184.209 1.28698 181.637 1.1582 179.193 1.1582C137.01 1.1582 91.8699 18.2853 117.72 50.2215C122.092 58.0768 115.148 107.011 113.861 130.32C112.961 146.674 134.438 144.742 146.013 144.742H177.778C189.739 144.742 211.987 148.606 226.649 143.97C239.123 142.553 249.026 137.66 249.54 124.654C249.926 112.677 240.409 59.8797 250.183 49.0625C271.275 18.2853 223.691 1.41575 187.552 1.41575C187.424 1.41575 187.167 1.41575 186.781 1.41575Z" fill="#C67F18"/>
<path d="M186.265 1.41575C183.693 1.28698 181.121 1.1582 178.677 1.1582C136.495 1.1582 91.3543 18.2853 117.204 50.2215C121.577 58.0768 114.632 107.011 113.346 130.32C112.446 146.674 133.923 144.742 145.497 144.742H177.134C189.094 144.742 211.343 148.606 226.004 143.97C238.479 142.553 248.382 137.66 248.896 124.654C249.282 112.677 239.765 59.8797 249.539 49.0625C270.63 18.2853 223.046 1.41575 186.908 1.41575C186.78 1.41575 186.522 1.41575 186.265 1.41575Z" fill="#C67F18"/>
<path d="M185.751 1.41575C183.179 1.28698 180.607 1.1582 178.164 1.1582C135.981 1.1582 90.8406 18.2853 116.69 50.2215C121.063 58.0768 114.118 107.011 112.832 130.32C111.932 146.674 133.409 144.742 144.984 144.742H176.749C188.709 144.742 210.958 148.606 225.619 143.97C238.094 142.553 247.997 137.66 248.511 124.654C248.897 112.677 239.38 59.8797 249.154 49.0625C270.245 18.2853 222.661 1.41575 186.523 1.41575C186.266 1.41575 186.009 1.41575 185.751 1.41575Z" fill="#C78018"/>
<path d="M185.109 1.54466C182.537 1.41589 179.965 1.28711 177.521 1.28711C135.339 1.28711 90.198 18.4142 116.048 50.3504C120.42 58.2057 113.476 107.14 112.19 130.449C111.289 146.803 132.766 144.871 144.341 144.871H176.107C188.067 144.871 210.316 148.735 224.977 144.099C237.451 142.682 247.354 137.789 247.868 124.782C248.254 112.806 238.737 60.0086 248.511 49.1915C269.603 18.4142 222.019 1.54466 185.881 1.54466C185.623 1.41589 185.366 1.41589 185.109 1.54466Z" fill="#C88018"/>
<path d="M184.594 1.54466C182.022 1.41589 179.45 1.28711 177.007 1.28711C134.695 1.28711 89.6834 18.4142 115.533 50.3504C119.906 58.2057 112.961 107.14 111.675 130.449C110.775 146.803 132.252 144.871 143.826 144.871H175.592C187.552 144.871 209.801 148.735 224.462 144.099C236.937 142.682 246.839 137.789 247.354 124.782C247.74 112.806 238.223 60.0086 247.997 49.1915C269.088 18.4142 221.504 1.54466 185.366 1.54466C185.109 1.54466 184.852 1.54466 184.594 1.54466Z" fill="#C88018"/>
<path d="M183.951 1.54466C181.379 1.41589 178.806 1.28711 176.363 1.28711C134.18 1.28711 89.0398 18.4142 114.89 50.3504C119.262 58.2057 112.317 107.14 111.031 130.449C110.131 146.803 131.608 144.871 143.183 144.871H174.948C186.909 144.871 209.157 148.735 223.818 144.099C236.293 142.682 246.196 137.789 246.71 124.782C247.096 112.806 237.579 60.0086 247.353 49.1915C268.445 18.4142 220.86 1.54466 184.722 1.54466C184.594 1.54466 184.337 1.54466 183.951 1.54466Z" fill="#C98118"/>
<path d="M183.437 1.54466C180.865 1.41589 178.293 1.28711 175.849 1.28711C133.667 1.28711 88.5261 18.4142 114.376 50.3504C118.748 58.2057 111.804 107.14 110.518 130.449C109.617 146.803 131.095 144.871 142.669 144.871H174.435C186.395 144.871 208.644 148.735 223.305 144.099C235.779 142.682 245.682 137.789 246.197 124.782C246.582 112.806 237.066 60.0086 246.84 49.1915C267.931 18.4142 220.347 1.54466 184.209 1.54466C183.951 1.54466 183.694 1.54466 183.437 1.54466Z" fill="#C98118"/>
<path d="M182.921 1.54466C180.349 1.41589 177.777 1.28711 175.334 1.28711C133.151 1.28711 88.0105 18.4142 113.86 50.3504C118.233 58.2057 111.288 107.14 110.002 130.449C109.102 146.803 130.579 144.871 142.153 144.871H173.919C185.879 144.871 208.128 148.735 222.789 144.099C235.264 142.682 245.166 137.789 245.681 124.782C246.067 112.806 236.55 60.0086 246.324 49.1915C267.415 18.4142 219.831 1.54466 183.693 1.54466C183.436 1.54466 183.179 1.54466 182.921 1.54466Z" fill="#CA8218"/>
<path d="M182.279 1.54466C179.707 1.41589 177.135 1.28711 174.691 1.28711C132.508 1.28711 87.3679 18.4142 113.218 50.3504C117.59 58.2057 110.646 107.14 109.359 130.449C108.459 146.803 129.936 144.871 141.511 144.871H173.276C185.237 144.871 207.485 148.735 222.147 144.099C234.621 142.682 244.524 137.789 245.038 124.782C245.424 112.806 235.907 60.0086 245.681 49.1915C266.773 18.4142 219.189 1.54466 183.05 1.54466C182.922 1.54466 182.665 1.54466 182.279 1.54466Z" fill="#CA8219"/>
<path d="M181.765 1.54466C179.193 1.41589 176.621 1.28711 174.177 1.28711C131.995 1.28711 86.8543 18.4142 112.704 50.3504C117.077 58.2057 110.132 107.14 108.846 130.449C107.946 146.803 129.423 144.871 140.997 144.871H172.763C184.723 144.871 206.972 148.735 221.633 144.099C234.108 142.682 244.01 137.789 244.525 124.782C244.91 112.806 235.394 60.0086 245.168 49.1915C266.259 18.4142 218.675 1.54466 182.537 1.54466C182.28 1.54466 182.022 1.54466 181.765 1.54466Z" fill="#CB8219"/>
<path d="M181.25 1.54466C178.677 1.41589 176.105 1.28711 173.662 1.28711C131.479 1.28711 86.3387 18.4142 112.188 50.3504C116.561 58.2057 109.616 107.14 108.33 130.449C107.43 146.803 128.907 144.871 140.482 144.871H172.247C184.207 144.871 206.456 148.735 221.117 144.099C233.592 142.682 243.495 137.789 244.009 124.782C244.395 112.806 234.878 60.0086 244.652 49.1915C265.743 18.4142 218.159 1.54466 182.021 1.54466C181.764 1.54466 181.507 1.54466 181.25 1.54466Z" fill="#CB8319"/>
<path d="M180.607 1.67356C178.035 1.54479 175.463 1.41602 173.019 1.41602C130.837 1.41602 85.6961 18.5431 111.546 50.4794C115.918 58.3346 108.974 107.269 107.688 130.578C106.787 146.932 128.265 145 139.839 145H171.605C183.565 145 205.814 148.864 220.475 144.228C232.949 142.811 242.852 137.918 243.366 124.911C243.752 112.935 234.235 60.1375 244.009 49.3204C265.101 18.5431 217.517 1.67356 181.379 1.67356C181.121 1.54479 180.864 1.54479 180.607 1.67356Z" fill="#CC8319"/>
<path d="M180.093 1.67356C177.521 1.54479 174.949 1.41602 172.506 1.41602C130.323 1.41602 85.1824 18.5431 111.032 50.4794C115.405 58.3346 108.46 107.269 107.174 130.578C106.274 146.932 127.751 145 139.325 145H171.091C183.051 145 205.3 148.864 219.961 144.228C232.436 142.811 242.338 137.918 242.853 124.911C243.239 112.935 233.722 60.1375 243.496 49.3204C264.587 18.5431 217.003 1.67356 180.865 1.67356C180.608 1.67356 180.351 1.67356 180.093 1.67356Z" fill="#CC8419"/>
<path d="M179.449 1.67356C176.877 1.54479 174.305 1.41602 171.861 1.41602C129.678 1.41602 84.5379 18.5431 110.388 50.4794C114.76 58.3346 107.815 107.269 106.529 130.578C105.629 146.932 127.106 145 138.681 145H170.446C182.407 145 204.655 148.864 219.316 144.228C231.791 142.811 241.694 137.918 242.208 124.911C242.594 112.935 233.077 60.1375 242.851 49.3204C263.943 18.5431 216.359 1.67356 180.22 1.67356C180.092 1.67356 179.835 1.67356 179.449 1.67356Z" fill="#CD8419"/>
<path d="M178.935 1.67356C176.363 1.54479 173.791 1.41602 171.347 1.41602C129.165 1.41602 84.0242 18.5431 109.874 50.4794C114.246 58.3346 107.302 107.269 106.016 130.578C105.116 146.932 126.593 145 138.167 145H169.933C181.893 145 204.142 148.864 218.803 144.228C231.278 142.811 241.18 137.918 241.695 124.911C242.08 112.935 232.564 60.1375 242.338 49.3204C263.429 18.5431 215.845 1.67356 179.707 1.67356C179.449 1.67356 179.192 1.67356 178.935 1.67356Z" fill="#CD8519"/>
<path d="M178.421 1.67356C175.849 1.54479 173.277 1.41602 170.834 1.41602C128.651 1.41602 83.5105 18.5431 109.36 50.4794C113.733 58.3346 106.788 107.269 105.502 130.578C104.602 146.932 126.079 145 137.653 145H169.419C181.379 145 203.628 148.864 218.289 144.228C230.764 142.811 240.666 137.918 241.181 124.911C241.567 112.935 232.05 60.1375 241.824 49.3204C262.915 18.5431 215.331 1.67356 179.193 1.67356C178.936 1.67356 178.679 1.67356 178.421 1.67356Z" fill="#CE8519"/>
<path d="M177.779 1.67356C175.207 1.54479 172.635 1.41602 170.191 1.41602C128.008 1.41602 82.8679 18.5431 108.718 50.4794C113.09 58.3346 106.146 107.269 104.859 130.578C103.959 146.932 125.436 145 137.011 145H168.776C180.737 145 202.986 148.864 217.647 144.228C230.121 142.811 240.024 137.918 240.538 124.911C240.924 112.935 231.407 60.1375 241.181 49.3204C262.273 18.5431 214.689 1.67356 178.55 1.67356C178.293 1.67356 178.036 1.67356 177.779 1.67356Z" fill="#CF8519"/>
<path d="M177.263 1.67356C174.691 1.54479 172.119 1.41602 169.675 1.41602C127.493 1.41602 82.3523 18.5431 108.202 50.4794C112.575 58.3346 105.63 107.269 104.344 130.578C103.444 146.932 124.921 145 136.495 145H168.132C180.093 145 202.341 148.864 217.002 144.228C229.477 142.811 239.38 137.918 239.894 124.911C240.28 112.935 230.763 60.1375 240.537 49.3204C261.628 18.5431 214.044 1.67356 177.906 1.67356C177.778 1.67356 177.52 1.67356 177.263 1.67356Z" fill="#CF861A"/>
<path d="M176.75 1.67356C174.177 1.54479 171.605 1.41602 169.162 1.41602C126.979 1.41602 81.8387 18.5431 107.688 50.4794C112.061 58.3346 105.116 107.269 103.83 130.578C102.93 146.932 124.407 145 135.982 145H167.747C179.707 145 201.956 148.864 216.617 144.228C229.092 142.811 238.995 137.918 239.509 124.911C239.895 112.935 230.378 60.1375 240.152 49.3204C261.243 18.5431 213.659 1.67356 177.521 1.67356C177.264 1.67356 177.007 1.67356 176.75 1.67356Z" fill="#D0861A"/>
<path d="M176.107 1.80247C173.535 1.6737 170.963 1.54492 168.519 1.54492C126.337 1.54492 81.1961 18.672 107.046 50.6083C111.418 58.4635 104.474 107.398 103.188 130.706C102.287 147.061 123.765 145.129 135.339 145.129H167.105C179.065 145.129 201.314 148.992 215.975 144.357C228.449 142.94 238.352 138.047 238.866 125.04C239.252 113.064 229.735 60.2664 239.51 49.4493C260.601 18.672 213.017 1.80247 176.879 1.80247C176.621 1.6737 176.364 1.6737 176.107 1.80247Z" fill="#D0871A"/>
<path d="M175.591 1.80247C173.019 1.6737 170.447 1.54492 168.003 1.54492C125.692 1.54492 80.68 18.672 106.401 50.6083C110.774 58.4635 103.829 107.398 102.543 130.706C101.643 147.061 123.12 145.129 134.694 145.129H166.46C178.42 145.129 200.669 148.992 215.33 144.357C227.805 142.94 237.707 138.047 238.222 125.04C238.608 113.064 229.091 60.2664 238.865 49.4493C259.956 18.672 212.372 1.80247 176.234 1.80247C176.105 1.80247 175.848 1.80247 175.591 1.80247Z" fill="#D1871A"/>
<path d="M174.949 1.80247C172.377 1.6737 169.805 1.54492 167.361 1.54492C125.178 1.54492 80.0379 18.672 105.888 50.6083C110.26 58.4635 103.315 107.398 102.029 130.706C101.129 147.061 122.606 145.129 134.181 145.129H165.946C177.907 145.129 200.155 148.992 214.816 144.357C227.291 142.94 237.194 138.047 237.708 125.04C238.094 113.064 228.577 60.2664 238.351 49.4493C259.443 18.672 211.858 1.80247 175.72 1.80247C175.592 1.80247 175.335 1.80247 174.949 1.80247Z" fill="#D1871A"/>
<path d="M174.433 1.80247C171.861 1.6737 169.289 1.54492 166.845 1.54492C124.663 1.54492 79.5222 18.672 105.372 50.6083C109.745 58.4635 102.8 107.398 101.514 130.706C100.614 147.061 122.091 145.129 133.665 145.129H165.431C177.391 145.129 199.64 148.992 214.301 144.357C226.776 142.94 236.678 138.047 237.193 125.04C237.578 113.064 228.062 60.2664 237.836 49.4493C258.927 18.672 211.343 1.80247 175.205 1.80247C174.948 1.80247 174.69 1.80247 174.433 1.80247Z" fill="#D2881A"/>
<path d="M173.919 1.80247C171.347 1.6737 168.775 1.54492 166.332 1.54492C124.149 1.54492 79.0086 18.672 104.858 50.6083C109.231 58.4635 102.286 107.398 101 130.706C100.1 147.061 121.577 145.129 133.152 145.129H164.917C176.877 145.129 199.126 148.992 213.787 144.357C226.262 142.94 236.165 138.047 236.679 125.04C237.065 113.064 227.548 60.2664 237.322 49.4493C258.413 18.672 210.829 1.80247 174.691 1.80247C174.434 1.80247 174.177 1.80247 173.919 1.80247Z" fill="#D2881A"/>
<path d="M173.277 1.80247C170.705 1.6737 168.133 1.54492 165.689 1.54492C123.507 1.54492 78.366 18.672 104.216 50.6083C108.588 58.4635 101.644 107.398 100.358 130.706C99.4573 147.061 120.934 145.129 132.509 145.129H164.274C176.235 145.129 198.484 148.992 213.145 144.357C225.619 142.94 235.522 138.047 236.036 125.04C236.422 113.064 226.905 60.2664 236.679 49.4493C257.771 18.672 210.187 1.80247 174.049 1.80247C173.791 1.80247 173.534 1.80247 173.277 1.80247Z" fill="#D3891A"/>
<path d="M172.761 1.80247C170.189 1.6737 167.617 1.54492 165.174 1.54492C122.991 1.54492 77.8504 18.672 103.7 50.6083C108.073 58.4635 101.128 107.398 99.8419 130.706C98.9417 147.061 120.419 145.129 131.993 145.129H163.759C175.719 145.129 197.968 148.992 212.629 144.357C225.104 142.94 235.006 138.047 235.521 125.04C235.907 113.064 226.39 60.2664 236.164 49.4493C257.255 18.672 209.671 1.80247 173.533 1.80247C173.276 1.80247 173.018 1.80247 172.761 1.80247Z" fill="#D3891A"/>
<path d="M172.248 1.80247C169.675 1.6737 167.103 1.54492 164.66 1.54492C122.477 1.54492 77.3367 18.672 103.186 50.6083C107.559 58.4635 100.614 107.398 99.3282 130.706C98.428 147.061 119.905 145.129 131.48 145.129H163.245C175.205 145.129 197.454 148.992 212.115 144.357C224.59 142.94 234.493 138.047 235.007 125.04C235.393 113.064 225.876 60.2664 235.65 49.4493C256.741 18.672 209.157 1.80247 173.019 1.80247C172.762 1.80247 172.505 1.80247 172.248 1.80247Z" fill="#D4891B"/>
<path d="M171.605 1.93138C169.033 1.8026 166.461 1.67383 164.017 1.67383C121.835 1.67383 76.6941 18.8009 102.544 50.7372C106.916 58.5924 99.9717 107.527 98.6857 130.835C97.7854 147.19 119.263 145.258 130.837 145.258H162.603C174.563 145.258 196.812 149.121 211.473 144.485C223.947 143.069 233.85 138.175 234.364 125.169C234.75 113.193 225.234 60.3953 235.008 49.5782C256.099 18.8009 208.515 1.93138 172.377 1.93138C172.119 1.8026 171.862 1.8026 171.605 1.93138Z" fill="#D48A1B"/>
<path d="M171.089 1.93138C168.517 1.8026 165.945 1.67383 163.502 1.67383C121.319 1.67383 76.1785 18.8009 102.028 50.7372C106.401 58.5924 99.4561 107.527 98.17 130.835C97.2698 147.19 118.747 145.258 130.321 145.258H162.087C174.047 145.258 196.296 149.121 210.957 144.485C223.432 143.069 233.334 138.175 233.849 125.169C234.235 113.193 224.718 60.3953 234.492 49.5782C255.583 18.8009 207.999 1.93138 171.861 1.93138C171.604 1.93138 171.347 1.93138 171.089 1.93138Z" fill="#D58A1B"/>
<path d="M170.447 1.93138C167.875 1.8026 165.303 1.67383 162.859 1.67383C120.676 1.67383 75.5359 18.8009 101.386 50.7372C105.758 58.5924 98.8135 107.527 97.5275 130.835C96.6272 147.19 118.104 145.258 129.679 145.258H161.444C173.405 145.258 195.653 149.121 210.314 144.485C222.789 143.069 232.692 138.175 233.206 125.169C233.592 113.193 224.075 60.3953 233.849 49.5782C254.941 18.8009 207.357 1.93138 171.218 1.93138C171.09 1.93138 170.833 1.93138 170.447 1.93138Z" fill="#D58B1B"/>
<path d="M96.8849 130.964C95.9846 147.319 117.462 145.387 129.036 145.387H160.802C172.762 145.387 195.011 149.25 209.672 144.614C222.147 143.198 232.178 138.304 232.564 125.298C233.078 113.322 223.433 60.5242 233.207 49.7071C254.298 18.9298 206.714 2.06029 170.576 2.06029C170.319 2.06029 170.061 2.06029 169.804 2.06029C167.232 1.93151 164.66 1.80273 162.217 1.80273C120.034 1.80273 74.8933 18.9298 100.743 50.8661C105.116 58.5926 98.2995 107.527 96.8849 130.964Z" fill="#D68B1B"/>
<path d="M82.9943 134.185C82.094 150.539 103.571 148.608 115.146 148.608H146.911C158.871 148.608 181.12 152.471 195.781 147.835C208.256 146.419 218.287 141.525 218.673 128.519C219.187 116.543 209.542 63.7449 219.316 52.9278C240.407 22.1505 192.823 5.28099 156.685 5.28099C156.428 5.28099 156.171 5.28099 155.914 5.28099C153.341 5.15221 150.769 5.02344 148.326 5.02344C106.143 5.02344 61.0027 22.1505 86.8524 54.0868C91.225 61.9421 84.4089 110.877 82.9943 134.185ZM96.6264 51.1249L96.2406 50.4811L95.5976 49.8372C87.8813 39.6639 90.7106 31.4223 91.6108 29.7483C97.1409 19.0599 122.862 11.8485 151.284 12.8787C151.798 12.8787 152.313 12.8787 152.698 13.0075C177.905 14.1665 202.469 23.9534 207.87 34.8993C208.642 36.5733 211.085 41.4668 205.041 49.8372C196.81 59.109 197.582 82.1598 199.511 111.134C200.025 118.217 200.411 125.042 200.282 127.875C200.154 130.579 199.768 135.215 192.18 137.791C188.451 139.078 182.921 139.851 174.69 139.465C169.031 139.207 162.987 138.563 157.714 138.048C153.213 137.533 148.969 137.147 145.368 137.018L114.503 135.988C113.474 135.988 112.316 135.859 111.159 135.859C110.001 135.859 108.715 135.859 107.301 135.73C98.5555 135.473 93.1541 134.185 91.3536 132.125C91.3536 132.125 91.225 131.996 91.225 131.867C90.9678 131.481 90.4534 130.579 90.7106 128.648C91.3536 122.209 92.5111 113.581 93.6685 104.567C93.7971 103.923 93.7971 103.279 93.9257 102.506V102.377C98.4269 70.4412 99.9702 57.8212 96.6264 51.1249Z" fill="#D68B1B"/>
<path d="M195.782 147.964C208.257 146.548 218.288 141.654 218.674 128.648C219.188 116.672 209.543 63.8741 219.317 53.057C240.408 22.2797 192.824 5.41016 156.686 5.41016C156.428 5.41016 156.171 5.41016 155.914 5.41016C181.507 6.95546 209.8 16.4848 215.201 33.0968C217.002 38.5054 216.23 44.5578 212.243 51.3829C211.986 51.898 211.6 52.5419 211.214 53.057C211.086 53.1857 210.957 53.4433 210.829 53.5721C206.07 58.8518 205.813 73.9185 206.842 89.5003C206.842 89.6291 206.842 89.6291 206.842 89.7579C207.871 106.627 210.443 124.012 210.186 130.322C210.057 140.109 204.141 145.389 195.782 147.964Z" fill="#915A10"/>
<path d="M90.839 128.777C90.5818 131.095 91.3534 131.868 91.6106 132.125C93.4111 134.186 98.8126 135.473 107.558 135.731C108.844 135.731 110.13 135.86 111.416 135.86C112.573 135.86 113.731 135.86 114.76 135.989L145.625 137.019C149.097 137.148 153.47 137.534 157.971 138.049C163.244 138.564 169.16 139.208 174.947 139.466C199.639 140.367 200.282 131.868 200.54 127.876C200.797 125.043 200.282 118.346 199.768 111.135C197.839 82.0318 197.067 58.981 205.298 49.838C211.342 41.4676 208.899 36.5742 208.127 34.9001C202.469 23.5679 177.133 13.781 151.412 12.8795C122.99 11.8493 97.2693 19.1895 91.7392 29.7491C90.839 31.4232 88.0097 39.6648 95.726 49.838L96.369 50.4819L96.7549 51.1257C100.227 57.8221 98.4267 70.9571 93.9255 104.696C92.6395 113.839 91.482 122.467 90.839 128.777Z" fill="#FECC75"/>
<path d="M148.84 48.8069C148.84 51.8975 151.283 54.3442 154.37 54.3442C157.456 54.3442 159.9 51.8975 159.9 48.8069C159.9 45.7163 157.456 43.2695 154.37 43.2695C151.283 43.2695 148.84 45.7163 148.84 48.8069Z" fill="#E4A84F"/>
<path d="M134.436 64.2604C134.436 66.0632 135.85 67.4798 137.651 67.4798C139.451 67.4798 140.866 66.0632 140.866 64.2604C140.866 62.4575 139.451 61.041 137.651 61.041C135.85 61.041 134.436 62.4575 134.436 64.2604Z" fill="#E4A84F"/>
<path d="M130.578 91.6894C130.578 93.7498 132.25 95.5527 134.436 95.5527C136.494 95.5527 138.294 93.8786 138.294 91.6894C138.294 89.629 136.623 87.8262 134.436 87.8262C132.25 87.8262 130.578 89.629 130.578 91.6894Z" fill="#E4A84F"/>
<path d="M172.117 114.612C172.117 116.415 173.532 117.831 175.332 117.831C177.133 117.831 178.547 116.415 178.547 114.612C178.547 112.809 177.133 111.392 175.332 111.392C173.532 111.264 172.117 112.809 172.117 114.612Z" fill="#E4A84F"/>
<path d="M162.73 57.5644C162.73 58.5946 163.502 59.4961 164.66 59.4961C165.688 59.4961 166.589 58.7234 166.589 57.5644C166.589 56.5342 165.817 55.6328 164.66 55.6328C163.631 55.7616 162.73 56.5342 162.73 57.5644Z" fill="#E4A84F"/>
<path d="M116.561 31.4235C116.561 34.7717 119.261 37.476 122.605 37.476C125.949 37.476 128.649 34.7717 128.649 31.4235C128.649 28.0754 125.949 25.3711 122.605 25.3711C119.261 25.3711 116.561 28.0754 116.561 31.4235Z" fill="#E4A84F"/>
<path d="M111.416 55.7613C111.416 57.0491 112.445 58.0793 113.731 58.0793C115.017 58.0793 116.046 57.0491 116.046 55.7613C116.046 54.4736 115.017 53.4434 113.731 53.4434C112.573 53.4434 111.416 54.4736 111.416 55.7613Z" fill="#E4A84F"/>
<path d="M105.887 114.612C105.887 116.415 107.301 117.831 109.102 117.831C110.902 117.831 112.317 116.415 112.317 114.612C112.317 112.809 110.902 111.392 109.102 111.392C107.301 111.264 105.887 112.809 105.887 114.612Z" fill="#E4A84F"/>
<path d="M180.992 37.4742C180.992 38.762 182.021 39.7922 183.307 39.7922C184.593 39.7922 185.622 38.762 185.622 37.4742C185.622 36.1865 184.593 35.1562 183.307 35.1562C182.021 35.1562 180.992 36.1865 180.992 37.4742Z" fill="#E4A84F"/>
<path d="M160.801 29.4902C160.801 31.5506 162.473 33.3535 164.659 33.3535C166.717 33.3535 168.517 31.6794 168.517 29.4902C168.517 27.4298 166.845 25.627 164.659 25.627C162.601 25.627 160.801 27.4298 160.801 29.4902Z" fill="#E4A84F"/>
<path d="M180.992 64.2609C180.992 66.8364 183.05 68.8968 185.622 68.8968C188.194 68.8968 190.252 66.8364 190.252 64.2609C190.252 61.6854 188.194 59.625 185.622 59.625C183.05 59.625 180.992 61.6854 180.992 64.2609Z" fill="#E4A84F"/>
<path d="M161.959 95.5519C161.959 97.0972 163.116 98.2562 164.66 98.2562C166.203 98.2562 167.36 97.0972 167.36 95.5519C167.36 94.0066 166.203 92.8477 164.66 92.8477C163.116 92.8477 161.959 94.0066 161.959 95.5519Z" fill="#E4A84F"/>
<path d="M137.008 122.596C137.008 124.656 138.68 126.33 140.737 126.33C142.795 126.33 144.467 124.656 144.467 122.596C144.467 120.535 142.795 118.861 140.737 118.861C138.68 118.861 137.008 120.535 137.008 122.596Z" fill="#E4A84F"/>
<path d="M181.893 130.322C181.893 131.481 182.793 132.383 183.95 132.383C185.108 132.383 186.008 131.481 186.008 130.322C186.008 129.163 185.108 128.262 183.95 128.262C182.793 128.262 181.893 129.163 181.893 130.322Z" fill="#E4A84F"/>
<path d="M75.1496 214.798C85.8238 227.289 99.9705 211.064 108.458 202.951L131.35 180.93C139.967 172.689 158.743 160.069 166.202 146.547C174.176 136.889 178.034 126.459 169.417 116.672C161.444 107.657 117.975 76.2362 117.589 61.5558C111.545 24.7261 65.5042 45.4589 39.3972 70.4413C39.2686 70.5701 39.0114 70.8276 38.8828 70.9564C36.9537 72.6305 35.0247 74.3046 33.2242 75.9786C2.74466 105.211 -18.0894 148.865 22.6785 154.016C31.1665 156.849 59.9741 196.899 75.1496 214.798ZM27.5655 145.26L26.7939 145.002H26.0223C13.4189 142.942 9.81797 134.958 9.30355 133.284C5.95981 121.694 19.4634 98.7719 40.6833 79.7131C41.0691 79.4556 41.4549 79.0693 41.8407 78.6829C60.8744 62.0709 85.3094 52.0265 96.8839 56.276C98.5558 56.9199 103.7 58.7228 105.243 69.0248C105.629 81.3872 122.219 97.4841 143.696 117.187C148.969 121.951 153.856 126.587 155.785 128.776C157.586 130.837 160.544 134.443 156.814 141.525C155.014 145.002 151.541 149.38 145.368 154.918C141.124 158.781 136.366 162.387 132.122 165.606C128.521 168.439 125.177 171.015 122.476 173.333L99.456 193.937C98.6844 194.581 97.9128 195.353 97.0125 196.126C96.1123 196.899 95.212 197.8 94.1832 198.701C87.6243 204.496 82.8659 207.458 80.1652 207.201C80.0366 207.201 80.0366 207.201 79.908 207.201C79.3936 207.072 78.4933 206.814 77.3359 205.269C73.3491 200.247 68.2049 193.164 62.8034 185.824C62.4176 185.309 62.0318 184.665 61.646 184.15C61.646 184.15 61.646 184.021 61.5174 184.021C42.2266 158.008 34.6388 147.706 27.5655 145.26Z" fill="#D68B1B"/>
<path d="M77.0784 205.398C78.4931 207.201 79.5219 207.33 79.9077 207.33C82.7371 207.587 87.3669 204.754 93.9258 198.831C94.9546 197.929 95.8548 197.028 96.7551 196.255C97.6553 195.483 98.4269 194.71 99.1986 194.066L122.219 173.462C124.92 171.144 128.263 168.44 131.864 165.735C136.108 162.516 140.867 158.782 145.111 155.047C163.501 138.564 158.1 131.996 155.528 128.906C153.727 126.717 148.712 122.209 143.439 117.316C121.962 97.6134 105.5 81.6453 104.986 69.1541C103.571 58.9809 98.4269 57.0493 96.6265 56.4054C84.7948 52.1558 59.5881 62.5866 40.4258 79.7137C19.2059 98.6436 5.70236 121.694 9.0461 133.284C9.56052 135.087 13.1615 143.071 25.7648 145.003H26.5365L27.3081 145.26C34.51 147.707 42.2263 158.395 62.2888 185.824C67.9474 193.293 73.0916 200.376 77.0784 205.398Z" fill="#FECC75"/>
<path d="M63.7038 107.528C65.8901 109.717 69.3624 109.846 71.5487 107.657C73.735 105.468 73.8636 101.991 71.6773 99.8014C69.491 97.6123 66.0187 97.4835 63.8324 99.6727C61.6461 101.733 61.5175 105.21 63.7038 107.528Z" fill="#E4A84F"/>
<path d="M63.9612 128.648C65.1187 129.936 67.1764 129.936 68.4624 128.777C69.7485 127.618 69.7485 125.557 68.591 124.27C67.4336 122.982 65.3759 122.982 64.0898 124.141C62.8038 125.3 62.6752 127.36 63.9612 128.648Z" fill="#E4A84F"/>
<path d="M80.1655 151.055C81.5801 152.6 84.0236 152.6 85.5669 151.184C87.1102 149.767 87.1102 147.321 85.6955 145.775C84.2808 144.23 81.8373 144.23 80.2941 145.646C78.7508 147.063 78.6222 149.51 80.1655 151.055Z" fill="#E4A84F"/>
<path d="M125.949 138.822C127.235 140.109 129.293 140.109 130.579 138.95C131.865 137.663 131.865 135.602 130.707 134.315C129.421 133.027 127.364 133.027 126.078 134.186C124.663 135.474 124.663 137.534 125.949 138.822Z" fill="#E4A84F"/>
<path d="M79.7791 104.18C80.5508 104.953 81.7082 104.953 82.4798 104.18C83.2515 103.408 83.2515 102.249 82.4798 101.476C81.7082 100.703 80.5508 100.703 79.7791 101.476C79.1361 102.249 79.1361 103.408 79.7791 104.18Z" fill="#E4A84F"/>
<path d="M28.4665 117.315C30.7814 119.762 34.6396 119.762 37.0831 117.444C39.5266 115.126 39.5266 111.263 37.2117 108.816C34.8968 106.37 31.0386 106.37 28.5951 108.688C26.1516 111.005 26.1516 114.869 28.4665 117.315Z" fill="#E4A84F"/>
<path d="M41.4548 138.305C42.3551 139.206 43.7697 139.206 44.7986 138.434C45.6988 137.532 45.6988 136.116 44.9272 135.086C44.0269 134.184 42.6123 134.055 41.5834 134.957C40.5546 135.987 40.5546 137.404 41.4548 138.305Z" fill="#E4A84F"/>
<path d="M78.1072 184.794C79.3933 186.082 81.451 186.082 82.737 184.923C84.0231 183.635 84.0231 181.575 82.8656 180.287C81.5796 178.999 79.5219 178.999 78.2358 180.158C76.8212 181.317 76.8212 183.378 78.1072 184.794Z" fill="#E4A84F"/>
<path d="M79.1365 77.0082C80.0367 77.9096 81.4514 77.9096 82.4802 77.137C83.3805 76.2355 83.3805 74.819 82.6088 73.7888C81.7086 72.8874 80.2939 72.8874 79.2651 73.66C78.2362 74.6902 78.2362 76.1068 79.1365 77.0082Z" fill="#E4A84F"/>
<path d="M58.9461 85.2503C60.3608 86.7956 62.8043 86.7956 64.3476 85.3791C65.8908 83.9625 65.8908 81.5158 64.4762 79.9705C63.0615 78.4252 60.618 78.4252 59.0748 79.8417C57.6601 81.2583 57.5315 83.705 58.9461 85.2503Z" fill="#E4A84F"/>
<path d="M97.528 96.3258C99.3285 98.1286 102.286 98.2574 104.087 96.4545C105.887 94.6517 106.016 91.6899 104.216 89.887C102.415 88.0842 99.4571 87.9554 97.6566 89.7582C95.8561 91.5611 95.7275 94.5229 97.528 96.3258Z" fill="#E4A84F"/>
<path d="M105.372 132.125C106.401 133.155 108.073 133.284 109.231 132.254C110.259 131.224 110.388 129.55 109.359 128.391C108.33 127.361 106.658 127.232 105.501 128.262C104.472 129.292 104.344 131.095 105.372 132.125Z" fill="#E4A84F"/>
<path d="M106.015 168.954C107.429 170.499 109.744 170.499 111.287 169.082C112.831 167.666 112.831 165.348 111.416 163.803C110.001 162.257 107.686 162.257 106.143 163.674C104.728 165.09 104.6 167.408 106.015 168.954Z" fill="#E4A84F"/>
<path d="M143.825 143.457C144.596 144.23 145.883 144.23 146.654 143.457C147.426 142.684 147.426 141.397 146.654 140.624C145.883 139.851 144.596 139.851 143.825 140.495C143.053 141.397 143.053 142.684 143.825 143.457Z" fill="#E4A84F"/>
<path d="M266.514 142.941C278.989 141.524 289.02 136.631 289.406 123.625C289.92 111.648 280.275 58.8506 290.049 48.0335C311.14 17.2563 263.556 0.386719 227.418 0.386719C227.161 0.386719 226.904 0.386719 226.646 0.386719C252.239 1.93202 280.532 11.4614 285.934 28.0734C287.734 33.4819 286.963 39.5344 282.976 46.3595C282.719 46.8746 282.333 47.5184 281.947 48.0335C281.818 48.1623 281.69 48.4199 281.561 48.5486C276.803 53.8284 276.545 68.8951 277.574 84.4769C277.574 84.6057 277.574 84.6057 277.574 84.7344C278.603 101.604 281.175 118.989 280.918 125.299C280.661 135.086 274.745 140.365 266.514 142.941Z" fill="#915A10"/>
</svg>
