<svg width="783" height="379" viewBox="0 0 783 379" fill="none" xmlns="http://www.w3.org/2000/svg">
<g clip-path="url(#clip0)">
<path d="M630.925 92.3556L504.526 49.7393C503.076 49.2559 501.626 49.3365 500.256 49.9004C499.289 49.7393 498.242 49.9004 497.356 50.2226L429.686 77.2103C425.819 78.7409 423.321 82.3661 423.321 86.4747V282.236C423.321 286.103 426.221 289.325 430.008 289.808L497.114 298.348C497.437 298.348 497.678 298.428 498.001 298.428C498.806 298.428 499.612 298.267 500.337 298.026C500.82 298.187 501.384 298.267 501.948 298.267C502.109 298.267 502.351 298.267 502.512 298.267L628.589 284.25C632.375 283.847 635.194 280.705 635.194 276.919L636 99.5254C636 96.2225 633.986 93.4029 630.925 92.3556ZM505.09 202.078L627.461 211.907L627.3 241.231L505.09 241.956V202.078ZM505.09 194.022V154.145L627.622 173.721L627.461 203.851L505.09 194.022ZM505.09 146.009V106.292L627.783 137.55L627.622 165.585L505.09 146.009ZM627.783 129.252L505.09 97.9948V58.4398L627.944 99.8477L627.783 129.252ZM431.377 86.4747C431.377 85.6691 431.861 85.0246 432.586 84.7024L496.631 59.1648V290.131L431.377 281.914V86.4747ZM505.09 289.808V250.012L627.3 249.287L627.219 276.274L505.09 289.808Z" fill="white"/>
</g>
<path d="M438.065 141.609L416.466 107.119C414.717 104.329 411.04 103.484 408.251 105.231C405.462 106.981 404.617 110.656 406.363 113.447L406.364 113.445L420.766 136.446C387.596 125.065 360.117 124.171 337.994 128.822C311.989 134.273 293.606 147.274 281.823 158.863C270.022 170.468 264.706 180.679 264.498 181.069C262.987 183.993 264.129 187.589 267.051 189.103C268.32 189.761 269.717 189.915 271.012 189.644C272.703 189.289 274.228 188.203 275.085 186.55L275.085 186.548C275.085 186.548 275.085 186.548 275.104 186.514C275.503 185.758 280.585 176.516 291.185 166.388C301.802 156.25 317.827 145.237 340.441 140.489C360.37 136.317 385.583 136.944 417.161 147.813L394.67 162.155C391.894 163.924 391.077 167.611 392.848 170.386C394.222 172.537 396.744 173.51 399.102 173.014C399.785 172.871 400.455 172.604 401.083 172.206L436.219 149.797C438.977 148.035 439.801 144.381 438.065 141.609Z" fill="white"/>
<g clip-path="url(#clip1)">
<path d="M193.59 111.411V92.9646C193.59 92.4284 193.377 91.9994 193.164 91.4632L190.931 86.5298C190.718 85.9936 190.186 85.6719 189.654 85.6719C189.122 85.6719 188.484 85.8864 188.271 86.4226L186.357 90.069L184.761 86.5298C184.548 85.9936 184.017 85.6719 183.485 85.6719C182.953 85.6719 182.315 85.8864 182.102 86.4226L179.974 90.069L178.379 86.5298C178.166 85.9936 177.741 85.6719 177.209 85.6719C176.677 85.6719 176.039 85.8864 175.826 86.4226L173.805 90.069L172.209 86.5298C171.997 85.9936 171.571 85.6719 171.039 85.6719C170.508 85.6719 169.869 85.8864 169.657 86.4226L167.635 90.069L166.04 86.5298C165.827 85.9936 165.402 85.6719 164.87 85.6719C164.338 85.6719 163.7 85.8864 163.487 86.4226L161.998 89.3183L160.721 86.4226C160.509 85.8864 159.977 85.6719 159.445 85.6719C158.913 85.6719 158.275 85.8864 158.062 86.4226L155.403 90.927C155.19 91.1414 155.19 91.2487 155.19 91.4632C154.977 91.7849 154.871 92.3212 154.765 92.7501L154.977 134.898V135.756V154.202C154.977 154.739 155.19 155.275 155.509 155.704C155.509 155.918 155.616 156.026 155.722 156.24L158.169 160.744C158.381 161.281 158.913 161.495 159.551 161.495C160.083 161.495 160.615 161.173 160.828 160.744L162.104 157.849L163.593 160.744C163.806 161.281 164.338 161.495 164.976 161.495C165.508 161.495 166.04 161.173 166.253 160.744L167.848 157.205L169.869 160.852C170.082 161.388 170.614 161.602 171.252 161.602C171.784 161.602 172.316 161.281 172.529 160.852L174.124 157.313L175.72 160.852C175.932 161.388 176.464 161.602 177.102 161.602C177.634 161.602 178.166 161.281 178.379 160.852L179.974 157.313L181.996 160.852C182.208 161.388 182.74 161.602 183.378 161.602C183.91 161.602 184.442 161.281 184.655 160.852L186.25 157.313L188.271 160.959C188.484 161.495 189.016 161.71 189.654 161.71C190.186 161.71 190.718 161.388 190.931 160.959L193.164 156.026C193.377 155.597 193.59 155.168 193.59 154.524V135.756V111.411ZM190.718 156.991L189.548 159.672L188.059 156.991H190.718ZM184.548 156.991L183.378 159.672L181.889 156.991H184.548ZM178.273 156.991L177.102 159.672L175.613 156.991H178.273ZM172.103 156.991L170.933 159.672L169.444 156.991H172.103ZM165.827 156.991L164.657 159.672L163.168 156.991H165.827ZM160.402 156.991L159.232 159.672L157.743 156.991H160.402ZM189.548 94.2516V153.023H158.807V94.2516H189.548ZM189.548 87.3878L190.824 90.1762H188.165L189.548 87.3878ZM183.272 87.4951L184.442 90.1762H181.783L183.272 87.4951ZM177.102 87.4951L178.273 90.1762H175.613L177.102 87.4951ZM170.827 87.4951L171.997 90.1762H169.337L170.827 87.4951ZM164.657 87.4951L165.827 90.1762H163.168L164.657 87.4951ZM160.402 90.1762H157.743L159.232 87.4951L160.402 90.1762Z" fill="white"/>
<path d="M193.59 191.524V172.97C193.59 172.434 193.377 172.005 193.165 171.469L190.931 166.536C190.718 165.999 190.186 165.678 189.654 165.678C189.123 165.678 188.484 165.892 188.272 166.428L186.357 170.075L184.761 166.536C184.549 165.999 184.017 165.678 183.485 165.678C182.953 165.678 182.315 165.892 182.102 166.428L180.081 170.075L178.486 166.536C178.273 165.999 177.847 165.678 177.315 165.678C176.784 165.678 176.145 165.892 175.933 166.428L173.912 170.075L172.316 166.536C172.103 165.999 171.678 165.678 171.146 165.678C170.614 165.678 169.976 165.892 169.763 166.428L167.742 170.075L166.147 166.536C165.934 165.999 165.508 165.678 164.976 165.678C164.445 165.678 163.806 165.892 163.594 166.428L162.104 169.324L160.828 166.428C160.615 165.892 160.083 165.678 159.552 165.678C159.02 165.678 158.381 165.892 158.169 166.428L155.722 170.933C155.509 171.147 155.509 171.255 155.509 171.469C155.297 171.791 155.19 172.327 155.084 172.756L155.19 215.011V215.869V234.315C155.19 234.852 155.403 235.388 155.722 235.817C155.722 236.031 155.829 236.139 155.935 236.353L158.381 240.857C158.594 241.394 159.126 241.608 159.764 241.608C160.296 241.608 160.828 241.286 161.041 240.857L162.317 237.962L163.806 240.857C164.019 241.394 164.551 241.608 165.189 241.608C165.721 241.608 166.253 241.286 166.466 240.857L168.061 237.318L170.082 240.965C170.295 241.501 170.827 241.715 171.465 241.715C171.997 241.715 172.529 241.394 172.742 240.965L174.337 237.426L175.933 240.965C176.145 241.501 176.677 241.715 177.315 241.715C177.847 241.715 178.379 241.394 178.592 240.965L180.187 237.426L182.208 240.965C182.421 241.501 182.953 241.715 183.591 241.715C184.123 241.715 184.655 241.394 184.868 240.965L186.463 237.426L188.484 241.072C188.697 241.608 189.229 241.823 189.867 241.823C190.399 241.823 190.931 241.501 191.144 241.072L193.377 236.139C193.59 235.71 193.803 235.281 193.803 234.637V215.869L193.59 191.524ZM190.718 237.104L189.548 239.785L188.059 237.104H190.718ZM184.549 237.104L183.379 239.785L181.889 237.104H184.549ZM178.273 237.104L177.103 239.785L175.614 237.104H178.273ZM172.103 237.104L170.933 239.785L169.444 237.104H172.103ZM165.827 237.104L164.657 239.785L163.168 237.104H165.827ZM160.403 237.104L159.232 239.785L157.743 237.104H160.403ZM189.548 174.365V233.136H158.807V174.365H189.548ZM189.548 167.501L190.825 170.289H188.165L189.548 167.501ZM183.272 167.608L184.442 170.289H181.783L183.272 167.608ZM177.103 167.608L178.273 170.289H175.614L177.103 167.608ZM170.827 167.608L171.997 170.289H169.338L170.827 167.608ZM164.657 167.608L165.827 170.289H163.168L164.657 167.608ZM160.403 170.289H157.743L159.232 167.608L160.403 170.289Z" fill="white"/>
<path d="M193.59 272.389V253.836C193.59 253.299 193.377 252.871 193.164 252.334L190.931 247.401C190.718 246.865 190.186 246.543 189.654 246.543C189.122 246.543 188.484 246.757 188.271 247.294L186.357 250.94L184.761 247.401C184.548 246.865 184.017 246.543 183.485 246.543C182.953 246.543 182.315 246.757 182.102 247.294L180.081 250.94L178.485 247.401C178.273 246.865 177.847 246.543 177.315 246.543C176.783 246.543 176.145 246.757 175.932 247.294L173.911 250.94L172.316 247.401C172.103 246.865 171.678 246.543 171.146 246.543C170.614 246.543 169.976 246.757 169.763 247.294L167.742 250.94L166.146 247.401C165.934 246.865 165.508 246.543 164.976 246.543C164.444 246.543 163.806 246.757 163.593 247.294L162.104 250.189L160.828 247.294C160.615 246.757 160.083 246.543 159.551 246.543C159.019 246.543 158.381 246.757 158.169 247.294L155.403 251.798C155.19 252.013 155.19 252.12 155.19 252.334C154.977 252.656 154.871 253.192 154.765 253.621L154.871 295.876V296.734V315.181C154.871 315.717 155.084 316.253 155.403 316.682C155.403 316.897 155.509 317.004 155.616 317.218L158.062 321.723C158.275 322.259 158.807 322.473 159.445 322.473C159.977 322.473 160.509 322.152 160.721 321.723L161.998 318.827L163.487 321.723C163.7 322.259 164.232 322.473 164.87 322.473C165.402 322.473 165.934 322.152 166.146 321.723L167.742 318.184L169.763 321.83C169.976 322.366 170.508 322.581 171.146 322.581C171.678 322.581 172.209 322.259 172.422 321.83L174.018 318.291L175.613 321.83C175.826 322.366 176.358 322.581 176.996 322.581C177.528 322.581 178.06 322.259 178.273 321.83L179.868 318.291L181.889 321.83C182.102 322.366 182.634 322.581 183.272 322.581C183.804 322.581 184.336 322.259 184.548 321.83L186.144 318.291L188.165 321.937C188.378 322.473 188.91 322.688 189.548 322.688C190.08 322.688 190.612 322.366 190.824 321.937L193.058 317.004C193.271 316.575 193.484 316.146 193.484 315.502V296.734L193.59 272.389ZM190.718 317.969L189.548 320.65L188.059 317.969H190.718ZM184.548 317.969L183.378 320.65L181.889 317.969H184.548ZM178.273 317.969L177.102 320.65L175.613 317.969H178.273ZM172.103 317.969L170.933 320.65L169.444 317.969H172.103ZM165.827 317.969L164.657 320.65L163.168 317.969H165.827ZM160.402 317.969L159.232 320.65L157.743 317.969H160.402ZM189.548 255.23V314.001H158.807V255.23H189.548ZM189.548 248.366L190.824 251.155H188.165L189.548 248.366ZM183.272 248.366L184.442 251.047H181.783L183.272 248.366ZM177.102 248.366L178.273 251.047H175.613L177.102 248.366ZM170.827 248.366L171.997 251.047H169.337L170.827 248.366ZM164.657 248.366L165.827 251.047H163.168L164.657 248.366ZM160.402 251.155H157.743L159.232 248.473L160.402 251.155Z" fill="white"/>
<path d="M189.335 362.797H159.551C152.637 362.797 147.106 357.113 147.106 350.25V30.5478C147 23.6841 152.637 18 159.445 18H189.229C196.143 18 201.674 23.6841 201.674 30.5478V350.25C201.78 357.113 196.143 362.797 189.335 362.797ZM159.445 21.2174C154.339 21.2174 150.191 25.4 150.191 30.5478V350.25C150.191 355.397 154.339 359.58 159.445 359.58H189.229C194.335 359.58 198.483 355.397 198.483 350.25V30.5478C198.483 25.4 194.335 21.2174 189.229 21.2174H159.445Z" fill="white"/>
<path d="M165.402 39.7715H158.382C156.68 39.7715 155.297 41.1657 155.297 42.8816V45.7773C155.297 47.4932 156.68 48.8874 158.382 48.8874H165.402C167.104 48.8874 168.487 47.4932 168.487 45.7773V42.8816C168.487 41.1657 167.104 39.7715 165.402 39.7715Z" fill="white"/>
<path d="M190.825 39.7715H183.804C182.103 39.7715 180.72 41.1657 180.72 42.8816V45.7773C180.72 47.4932 182.103 48.8874 183.804 48.8874H190.825C192.527 48.8874 193.91 47.4932 193.91 45.7773V42.8816C193.91 41.1657 192.527 39.7715 190.825 39.7715Z" fill="white"/>
</g>
<defs>
<clipPath id="clip0">
<rect width="212.679" height="248.931" fill="white" transform="translate(423.321 49.418)"/>
</clipPath>
<clipPath id="clip1">
<rect width="54.7809" height="344.797" fill="white" transform="translate(147 18)"/>
</clipPath>
</defs>
</svg>
