<svg width="783" height="388" viewBox="0 0 783 388" fill="none" xmlns="http://www.w3.org/2000/svg">
<path d="M348.692 306.799L339.58 337.013C338.841 339.457 336.263 340.84 333.82 340.103C331.376 339.363 329.993 336.787 330.729 334.343L330.73 334.344L336.805 314.196C314.317 329.485 293.943 335.767 276.443 336.807C255.876 338.041 239.468 332.07 228.286 325.808C217.088 319.537 211.025 312.984 210.79 312.735C209.062 310.856 209.182 307.933 211.058 306.203C211.874 305.452 212.887 305.051 213.911 304.99C215.248 304.91 216.612 305.411 217.59 306.472L217.59 306.474C217.59 306.474 217.59 306.474 217.612 306.495C218.064 306.979 223.754 312.855 233.753 318.266C243.766 323.681 258.003 328.647 275.89 327.579C291.651 326.629 310.384 321.01 331.787 306.428L312.032 300.294C309.594 299.537 308.23 296.946 308.988 294.508C309.576 292.619 311.264 291.376 313.13 291.265C313.67 291.233 314.226 291.295 314.776 291.465L345.638 301.051C348.062 301.806 349.425 304.372 348.692 306.799Z" fill="white"/>
<g clip-path="url(#clip0)">
<path d="M496.979 87.0545V71.1466C496.979 70.6842 496.796 70.3142 496.613 69.8518L494.689 65.5973C494.505 65.1349 494.047 64.8574 493.589 64.8574C493.131 64.8574 492.581 65.0424 492.398 65.5048L490.749 68.6494L489.375 65.5973C489.192 65.1349 488.733 64.8574 488.275 64.8574C487.817 64.8574 487.268 65.0424 487.084 65.5048L485.252 68.6494L483.878 65.5973C483.694 65.1349 483.328 64.8574 482.87 64.8574C482.412 64.8574 481.862 65.0424 481.679 65.5048L479.938 68.6494L478.564 65.5973C478.38 65.1349 478.014 64.8574 477.556 64.8574C477.098 64.8574 476.548 65.0424 476.365 65.5048L474.624 68.6494L473.25 65.5973C473.067 65.1349 472.7 64.8574 472.242 64.8574C471.784 64.8574 471.234 65.0424 471.051 65.5048L469.768 68.002L468.669 65.5048C468.486 65.0424 468.027 64.8574 467.569 64.8574C467.111 64.8574 466.562 65.0424 466.378 65.5048L464.088 69.3893C463.905 69.5743 463.905 69.6668 463.905 69.8518C463.721 70.1292 463.63 70.5917 463.538 70.9616L463.721 107.309V108.049V123.957C463.721 124.42 463.905 124.882 464.179 125.252C464.179 125.437 464.271 125.529 464.363 125.714L466.47 129.599C466.653 130.061 467.111 130.246 467.661 130.246C468.119 130.246 468.577 129.969 468.76 129.599L469.86 127.102L471.143 129.599C471.326 130.061 471.784 130.246 472.334 130.246C472.792 130.246 473.25 129.969 473.433 129.599L474.807 126.547L476.548 129.691C476.731 130.154 477.189 130.339 477.739 130.339C478.197 130.339 478.655 130.061 478.839 129.691L480.213 126.639L481.587 129.691C481.77 130.154 482.228 130.339 482.778 130.339C483.236 130.339 483.694 130.061 483.878 129.691L485.252 126.639L486.993 129.691C487.176 130.154 487.634 130.339 488.184 130.339C488.642 130.339 489.1 130.061 489.283 129.691L490.657 126.639L492.398 129.784C492.581 130.246 493.04 130.431 493.589 130.431C494.047 130.431 494.505 130.154 494.689 129.784L496.613 125.53C496.796 125.16 496.979 124.79 496.979 124.235V108.049V87.0545ZM494.505 126.362L493.498 128.674L492.215 126.362H494.505ZM489.192 126.362L488.184 128.674L486.901 126.362H489.192ZM483.786 126.362L482.778 128.674L481.496 126.362H483.786ZM478.472 126.362L477.464 128.674L476.182 126.362H478.472ZM473.067 126.362L472.059 128.674L470.776 126.362H473.067ZM468.394 126.362L467.386 128.674L466.103 126.362H468.394ZM493.498 72.2565V122.94H467.02V72.2565H493.498ZM493.498 66.3372L494.597 68.7419H492.307L493.498 66.3372ZM488.092 66.4297L489.1 68.7419H486.809L488.092 66.4297ZM482.778 66.4297L483.786 68.7419H481.496L482.778 66.4297ZM477.373 66.4297L478.38 68.7419H476.09L477.373 66.4297ZM472.059 66.4297L473.067 68.7419H470.776L472.059 66.4297ZM468.394 68.7419H466.103L467.386 66.4297L468.394 68.7419Z" fill="white"/>
<path d="M496.98 156.143V140.143C496.98 139.68 496.797 139.31 496.613 138.848L494.689 134.593C494.506 134.131 494.048 133.854 493.59 133.854C493.132 133.854 492.582 134.038 492.399 134.501L490.75 137.646L489.375 134.593C489.192 134.131 488.734 133.854 488.276 133.854C487.818 133.854 487.268 134.038 487.085 134.501L485.344 137.646L483.97 134.593C483.787 134.131 483.42 133.854 482.962 133.854C482.504 133.854 481.954 134.038 481.771 134.501L480.03 137.646L478.656 134.593C478.473 134.131 478.106 133.854 477.648 133.854C477.19 133.854 476.64 134.038 476.457 134.501L474.716 137.646L473.342 134.593C473.159 134.131 472.792 133.854 472.334 133.854C471.876 133.854 471.326 134.038 471.143 134.501L469.86 136.998L468.761 134.501C468.578 134.038 468.12 133.854 467.661 133.854C467.203 133.854 466.654 134.038 466.47 134.501L464.363 138.385C464.18 138.57 464.18 138.663 464.18 138.848C463.997 139.125 463.905 139.588 463.813 139.958L463.905 176.398V177.138V193.046C463.905 193.508 464.088 193.971 464.363 194.341C464.363 194.526 464.455 194.618 464.546 194.803L466.654 198.688C466.837 199.15 467.295 199.335 467.845 199.335C468.303 199.335 468.761 199.057 468.944 198.688L470.044 196.19L471.326 198.688C471.51 199.15 471.968 199.335 472.517 199.335C472.975 199.335 473.434 199.057 473.617 198.688L474.991 195.635L476.732 198.78C476.915 199.242 477.373 199.427 477.923 199.427C478.381 199.427 478.839 199.15 479.022 198.78L480.397 195.728L481.771 198.78C481.954 199.242 482.412 199.427 482.962 199.427C483.42 199.427 483.878 199.15 484.061 198.78L485.436 195.728L487.176 198.78C487.36 199.242 487.818 199.427 488.368 199.427C488.826 199.427 489.284 199.15 489.467 198.78L490.841 195.728L492.582 198.873C492.765 199.335 493.223 199.52 493.773 199.52C494.231 199.52 494.689 199.242 494.873 198.873L496.797 194.618C496.98 194.248 497.163 193.878 497.163 193.323V177.138L496.98 156.143ZM494.506 195.45L493.498 197.763L492.216 195.45H494.506ZM489.192 195.45L488.184 197.763L486.902 195.45H489.192ZM483.787 195.45L482.779 197.763L481.496 195.45H483.787ZM478.473 195.45L477.465 197.763L476.182 195.45H478.473ZM473.067 195.45L472.059 197.763L470.777 195.45H473.067ZM468.394 195.45L467.387 197.763L466.104 195.45H468.394ZM493.498 141.345V192.028H467.02V141.345H493.498ZM493.498 135.426L494.598 137.83H492.307L493.498 135.426ZM488.093 135.518L489.1 137.83H486.81L488.093 135.518ZM482.779 135.518L483.787 137.83H481.496L482.779 135.518ZM477.373 135.518L478.381 137.83H476.09L477.373 135.518ZM472.059 135.518L473.067 137.83H470.777L472.059 135.518ZM468.394 137.83H466.104L467.387 135.518L468.394 137.83Z" fill="white"/>
<path d="M496.979 225.879V209.879C496.979 209.417 496.796 209.047 496.613 208.584L494.689 204.33C494.505 203.867 494.047 203.59 493.589 203.59C493.131 203.59 492.581 203.775 492.398 204.237L490.749 207.382L489.375 204.33C489.192 203.867 488.733 203.59 488.275 203.59C487.817 203.59 487.268 203.775 487.084 204.237L485.344 207.382L483.969 204.33C483.786 203.867 483.42 203.59 482.961 203.59C482.503 203.59 481.954 203.775 481.77 204.237L480.03 207.382L478.655 204.33C478.472 203.867 478.106 203.59 477.647 203.59C477.189 203.59 476.64 203.775 476.456 204.237L474.716 207.382L473.341 204.33C473.158 203.867 472.792 203.59 472.334 203.59C471.875 203.59 471.326 203.775 471.143 204.237L469.86 206.734L468.76 204.237C468.577 203.775 468.119 203.59 467.661 203.59C467.203 203.59 466.653 203.775 466.47 204.237L464.088 208.122C463.905 208.307 463.905 208.399 463.905 208.584C463.721 208.862 463.63 209.324 463.538 209.694L463.63 246.134V246.874V262.782C463.63 263.245 463.813 263.707 464.088 264.077C464.088 264.262 464.179 264.354 464.271 264.539L466.378 268.424C466.562 268.886 467.02 269.071 467.569 269.071C468.027 269.071 468.486 268.794 468.669 268.424L469.768 265.927L471.051 268.424C471.234 268.886 471.692 269.071 472.242 269.071C472.7 269.071 473.158 268.794 473.341 268.424L474.716 265.372L476.456 268.516C476.64 268.979 477.098 269.164 477.647 269.164C478.106 269.164 478.564 268.886 478.747 268.516L480.121 265.464L481.496 268.516C481.679 268.979 482.137 269.164 482.687 269.164C483.145 269.164 483.603 268.886 483.786 268.516L485.16 265.464L486.901 268.516C487.084 268.979 487.542 269.164 488.092 269.164C488.55 269.164 489.008 268.886 489.192 268.516L490.566 265.464L492.307 268.609C492.49 269.071 492.948 269.256 493.498 269.256C493.956 269.256 494.414 268.979 494.597 268.609L496.521 264.354C496.704 263.984 496.888 263.614 496.888 263.06V246.874L496.979 225.879ZM494.505 265.187L493.498 267.499L492.215 265.187H494.505ZM489.192 265.187L488.184 267.499L486.901 265.187H489.192ZM483.786 265.187L482.778 267.499L481.496 265.187H483.786ZM478.472 265.187L477.464 267.499L476.182 265.187H478.472ZM473.067 265.187L472.059 267.499L470.776 265.187H473.067ZM468.394 265.187L467.386 267.499L466.103 265.187H468.394ZM493.498 211.081V261.765H467.02V211.081H493.498ZM493.498 205.162L494.597 207.567H492.307L493.498 205.162ZM488.092 205.162L489.1 207.474H486.809L488.092 205.162ZM482.778 205.162L483.786 207.474H481.496L482.778 205.162ZM477.373 205.162L478.38 207.474H476.09L477.373 205.162ZM472.059 205.162L473.067 207.474H470.776L472.059 205.162ZM468.394 207.567H466.103L467.386 205.255L468.394 207.567Z" fill="white"/>
<path d="M493.315 303.847H467.661C461.706 303.847 456.942 298.945 456.942 293.026V17.3191C456.85 11.3999 461.706 6.49805 467.57 6.49805H493.223C499.178 6.49805 503.943 11.3999 503.943 17.3191V293.026C504.034 298.945 499.178 303.847 493.315 303.847ZM467.57 9.27268C463.172 9.27268 459.599 12.8797 459.599 17.3191V293.026C459.599 297.465 463.172 301.072 467.57 301.072H493.223C497.621 301.072 501.194 297.465 501.194 293.026V17.3191C501.194 12.8797 497.621 9.27268 493.223 9.27268H467.57Z" fill="white"/>
<path d="M472.7 25.2734H466.653C465.187 25.2734 463.996 26.4758 463.996 27.9556V30.4528C463.996 31.9326 465.187 33.1349 466.653 33.1349H472.7C474.166 33.1349 475.357 31.9326 475.357 30.4528V27.9556C475.357 26.4758 474.166 25.2734 472.7 25.2734Z" fill="white"/>
<path d="M494.597 25.2734H488.551C487.085 25.2734 485.894 26.4758 485.894 27.9556V30.4528C485.894 31.9326 487.085 33.1349 488.551 33.1349H494.597C496.063 33.1349 497.254 31.9326 497.254 30.4528V27.9556C497.254 26.4758 496.063 25.2734 494.597 25.2734Z" fill="white"/>
</g>
<path d="M530.741 290.913V74.95C530.741 73.6756 531.546 72.5403 532.749 72.1188L622.007 40.8366C623.958 40.153 626 41.6007 626 43.6678V300.507C626 302.29 624.453 303.68 622.679 303.489L533.421 293.896C531.897 293.732 530.741 292.446 530.741 290.913Z" stroke="white" stroke-width="5" stroke-dasharray="9 5"/>
<mask id="mask0" mask-type="alpha" maskUnits="userSpaceOnUse" x="379" y="220" width="95" height="100">
<path d="M473.483 271.659C462.868 236.8 436.793 223.717 423.424 220.162L412.87 234.179C398.998 232.046 395.276 240.976 394.776 241.797C392.364 245.758 392.665 247.282 391.459 251.243L385.578 270.136L379.396 289.028L425.837 319.5C442.483 321.694 464.537 288.52 473.483 271.659Z" fill="white"/>
</mask>
<g mask="url(#mask0)">
<path d="M471.677 268.209C470.149 259.182 466 250.804 459.748 244.116C455.274 239.037 450.234 234.485 444.727 230.55L454.993 215.623C456.644 213.033 457.203 209.893 456.546 206.892C455.89 203.89 454.071 201.271 451.489 199.607C449.011 197.79 445.914 197.029 442.876 197.49C439.839 197.951 437.107 199.595 435.279 202.065L415.909 230.228L414.463 222.679C413.818 219.366 411.898 216.44 409.118 214.527C406.337 212.615 402.918 211.87 399.593 212.452C397.938 212.729 396.355 213.335 394.938 214.234C393.522 215.134 392.3 216.309 391.345 217.689C389.449 220.335 388.679 223.624 389.203 226.836L391.635 251.408C389.536 255.815 388.274 260.574 387.914 265.443C387.559 269.133 387.8 272.856 388.627 276.47L384.908 281.877C384.369 282.642 384.144 283.585 384.278 284.511C384.413 285.437 384.898 286.276 385.632 286.856L424.807 313.799C425.611 314.277 426.568 314.43 427.481 314.224C428.394 314.019 429.194 313.471 429.715 312.694L434.945 305.09C445.011 302.307 453.75 296.017 459.587 287.357L471.208 270.459C471.619 269.786 471.785 268.991 471.677 268.209ZM453.857 283.624C448.887 291.235 441.266 296.728 432.473 299.034C431.503 299.113 430.6 299.561 429.952 300.287L425.768 306.37L392.367 283.398L395.233 279.23C395.551 278.769 395.751 278.237 395.815 277.681C395.88 277.125 395.806 276.561 395.602 276.04C394.681 272.858 394.407 269.524 394.796 266.234C395.091 261.963 396.261 257.797 398.234 253.997C398.623 253.367 398.797 252.627 398.729 251.89L396.146 225.969C396.001 225.213 396.008 224.436 396.165 223.683C396.323 222.93 396.629 222.216 397.065 221.582C397.501 220.947 398.059 220.406 398.706 219.99C399.352 219.573 400.076 219.289 400.833 219.154C402.389 218.878 403.99 219.226 405.292 220.121C406.593 221.016 407.49 222.387 407.79 223.938L410.428 238.198L404.346 247.041L411.915 248.098L440.911 205.939C441.72 204.977 442.871 204.366 444.122 204.236C445.372 204.105 446.624 204.465 447.615 205.239C448.692 205.887 449.476 206.928 449.802 208.142C450.127 209.356 449.969 210.65 449.36 211.749L426.504 244.982L431.304 250.066L440.833 236.21C443.165 237.882 445.408 239.674 447.554 241.579L437.423 256.308L441.252 260.393L451.614 245.326C452.614 246.345 453.622 247.412 454.62 248.555C455.818 249.941 456.939 251.391 457.98 252.898L448.005 267.402L451.833 271.487L461.072 258.053C462.744 261.106 463.985 264.375 464.762 267.768L453.857 283.624Z" fill="#FCB527"/>
<path d="M393.618 255.898C394.124 245.786 396.652 233.752 413.944 237.089" stroke="#FCB527" stroke-width="9"/>
<path d="M443.674 234.057C441.55 231.427 435.119 225.32 426.382 221.922" stroke="#FCB527" stroke-width="10"/>
</g>
<defs>
<clipPath id="clip0">
<rect width="47.1841" height="297.349" fill="white" transform="translate(456.85 6.49805)"/>
</clipPath>
</defs>
</svg>
