<?xml version="1.0" encoding="utf-8"?>
<!-- Generator: Adobe Illustrator 25.2.3, SVG Export Plug-In . SVG Version: 6.00 Build 0)  -->
<svg version="1.1" id="Capa_1" xmlns="http://www.w3.org/2000/svg" xmlns:xlink="http://www.w3.org/1999/xlink" x="0px" y="0px"
	 viewBox="0 0 206.7 203.5" style="enable-background:new 0 0 206.7 203.5;" xml:space="preserve">
<style type="text/css">
	.st0{fill:#EAEAEA;}
	.st1{fill-rule:evenodd;clip-rule:evenodd;fill:#FFFFFF;}
	.st2{fill-rule:evenodd;clip-rule:evenodd;fill:#3D438B;}
	.st3{fill-rule:evenodd;clip-rule:evenodd;fill:#DA243C;}
</style>
<path class="st0" d="M188.9,0h-171C8,0,0,8,0,17.8v185.7h206.7V17.8C206.7,8,198.7,0,188.9,0z"/>
<g>
	<path class="st1" d="M103.8,59c-15.7-2-28-1.8-35.1,3.1c-2-8-2.8-15.3-1.4-21.5c2.5-10.8,9.2-13.2,15.6-13.6
		c7.9-0.4,20.4,2.2,30.5,3.6c13.1,1.8,24.8,2.2,32.8-2.4c2.5,6.6,3,13.3,1.8,20c-1.1,7.7-5.7,11.7-13.2,12.6
		C125.1,62,114.3,60.3,103.8,59z"/>
	<path class="st2" d="M98.2,31.1c1.2,0,1.7,1,1.8,1.9c0,1.1-0.6,2-1.7,2c-1.2,0-1.8-0.8-1.8-1.9C96.4,32.1,96.9,31.1,98.2,31.1
		 M98.2,30.3c-1.7,0-2.9,0.9-2.9,2.7s1.1,2.8,2.9,2.8c1.8,0,2.9-1,2.9-2.7C101,31.3,99.9,30.3,98.2,30.3z M91.9,32.8v-1.6
		c0.7,0,1.7-0.2,1.7,0.8C93.6,32.8,92.6,32.8,91.9,32.8z M90.8,35.7h1.1v-2.1c0.9,0,2,0,2.6-0.8s0.3-2.2-1.2-2.3h-2.4v5.2H90.8z
		 M85.4,30.5h1c0,0.5,0,3.1,0,3.6c0.2,1.1,2.2,1.1,2.4-0.1c0.1-0.7,0-2.7,0-3.5h1c0,0.6,0.1,3.4-0.1,4c-0.3,1.5-2.4,1.5-3.4,1.1
		c-0.9-0.4-1-1.1-1-2L85.4,30.5L85.4,30.5z M81.8,32.7v-1.5c0.8,0,1.7-0.2,1.7,0.7C83.6,32.8,82.5,32.7,81.8,32.7z M80.7,35.7h1.1
		v-2.3h0.6l1.2,2.2h1.3l-1.4-2.4c0.7-0.3,1.2-0.7,1.2-1.4c0-1-0.8-1.4-1.7-1.4h-2.3L80.7,35.7L80.7,35.7z M77.9,32.8v0.7h0.8v1.1
		c-0.9,0.3-2.3,0.4-2.7-0.8c-0.4-1.1,0-2.8,1.6-2.8c0.6,0,1,0.2,1.3,0.7l0.6-0.7c-0.5-0.5-1-0.7-1.9-0.7c-3.4,0-3.4,3.6-2.1,4.7
		c1.1,0.8,2.8,0.6,4.1,0.3v-2.5H77.9L77.9,32.8z M97.2,59.8C87.8,58.9,78.6,59.4,73,64c-1.8-0.3-3.5-0.6-5.3-0.9
		C65.5,56,65,48.5,66,40.7c1.6-7.6,5.5-14.3,15.1-14.8c9.9-0.6,23.3,1.8,36.7,3.2c9.5,1,17.9,0.1,23.5-4.1c2,0.6,4.1,1.2,6.1,1.8
		c2.6,7.3,2.7,14.6,1.6,21.7c-1.7,10.1-8.2,13.7-17,13.8C119.7,62.4,107,60.8,97.2,59.8z M103.8,59c-15.7-2-28-1.8-35.1,3.1
		c-2-8-2.8-15.3-1.4-21.5c2.5-10.8,9.2-13.2,15.6-13.6c7.9-0.4,20.4,2.2,30.5,3.6c13.1,1.8,24.8,2.2,32.8-2.4c2.5,6.6,3,13.3,1.8,20
		c-1.1,7.7-5.7,11.7-13.2,12.6C125.1,62,114.3,60.3,103.8,59z"/>
	<path class="st3" d="M120.7,50.4h-3.3v-9.8h2.8c1.5,0,2,0.4,2.1,1.2c0.1,1.2-0.6,1.8-1.7,1.8h-1l-1.3,2.9h2.6c1.2,0,2.4,0.9,2.3,2
		C122.9,49.7,122,50.4,120.7,50.4 M121.3,53.7h-7.9V37.4h7.5c2.6,0,4.9,0.8,5.3,3.3c0.3,1.8-0.3,3.2-1.7,4.1c2.1,0.9,3,3.5,2.2,5.8
		C126,52.9,123.2,53.7,121.3,53.7z M135.8,41c2.4,0,4.3,2,4.3,4.4s-1.9,4.4-4.3,4.4c-2.4,0-4.3-2-4.3-4.4S133.4,41,135.8,41z
		 M135.8,37.1c4.5,0,8.2,3.7,8.2,8.3s-3.7,8.3-8.2,8.3s-8.2-3.7-8.2-8.3S131.3,37.1,135.8,37.1z M111.8,37.4v16.3h-4V43.4l-2.6,10.3
		h-3.9l-2.5-10.2v10.2h-3.9V37.4h6.3l2.1,9.1l2.1-9.1H111.8z M89.3,37.4h4v16.3h-4V37.4z M82,50.4h-3.3v-9.8h2.8
		c1.5,0,2,0.4,2.1,1.2c0.1,1.2-0.6,1.8-1.7,1.8h-1l-1.3,2.9h2.6c1.2,0,2.4,0.9,2.3,2C84.2,49.7,83.2,50.4,82,50.4z M82.6,53.7h-7.9
		V37.4h7.5c2.6,0,4.9,0.8,5.3,3.3c0.3,1.8-0.3,3.2-1.7,4.1c2.1,0.9,3,3.5,2.2,5.8C87.3,52.9,84.5,53.7,82.6,53.7z"/>
</g>
</svg>
