<svg width="38" height="38" viewBox="0 0 38 38" fill="none" xmlns="http://www.w3.org/2000/svg">
<path d="M3.99345 14.974C4.09035 14.6886 4.26871 14.4378 4.50652 14.2526C4.74432 14.0674 5.03116 13.9559 5.33161 13.9318L14.1207 13.2334L17.9239 4.8144C18.0451 4.54324 18.2421 4.31292 18.4912 4.15126C18.7403 3.98959 19.0309 3.90348 19.3279 3.90332C19.6249 3.90316 19.9156 3.98895 20.1649 4.15034C20.4142 4.31173 20.6114 4.54183 20.7329 4.81285L24.5362 13.2334L33.3252 13.9318C33.6205 13.9552 33.9028 14.0632 34.1383 14.2428C34.3739 14.4225 34.5527 14.6661 34.6534 14.9447C34.754 15.2233 34.7723 15.525 34.706 15.8137C34.6397 16.1024 34.4916 16.3659 34.2795 16.5727L27.7845 22.9043L30.0815 32.8512C30.1513 33.1522 30.1289 33.4673 30.0174 33.7556C29.9058 34.0438 29.7102 34.2918 29.4559 34.4675C29.2016 34.6432 28.9004 34.7384 28.5914 34.7407C28.2823 34.7431 27.9797 34.6525 27.7228 34.4807L19.3284 28.8844L10.934 34.4807C10.6714 34.6551 10.3617 34.7448 10.0466 34.7379C9.73146 34.731 9.426 34.6277 9.1713 34.442C8.91659 34.2563 8.72486 33.9971 8.62189 33.6992C8.51892 33.4013 8.50965 33.079 8.59532 32.7756L11.415 22.9089L4.42203 16.6159C3.96415 16.2027 3.79611 15.5583 3.99345 14.974Z" fill="#FCB527"/>
</svg>
