<svg width="1920" height="1080" viewBox="0 0 1920 1080" fill="none" xmlns="http://www.w3.org/2000/svg">
<g style="mix-blend-mode:screen" opacity="0.2" clip-path="url(#clip0)">
<path d="M754.5 -210L-405.4 624.3L-480.6 519.8L679.3 -314.5L754.5 -210Z" fill="#866EEA"/>
<path d="M953.6 -40.6002L-206.3 793.7L-281.5 689.1L878.5 -145.2L953.6 -40.6002Z" fill="#866EEA"/>
<path d="M1374.3 -29.2002L-27.7004 979.2L-102.9 874.7L1299.1 -133.7L1374.3 -29.2002Z" fill="#866EEA"/>
<path d="M1878.6 -74.5996L102.6 1202.8L27.4004 1098.3L1803.4 -179.1L1878.6 -74.5996Z" fill="#866EEA"/>
<path d="M2071.8 98.7002L359.3 1330.5L284.1 1226L1996.6 -5.7998L2071.8 98.7002Z" fill="#866EEA"/>
<path d="M2286.8 263.2L574.301 1494.9L499.201 1390.4L2211.6 158.6L2286.8 263.2Z" fill="#866EEA"/>
<path d="M2563.8 384.2L851.301 1615.9L776.201 1511.4L2488.6 279.6L2563.8 384.2Z" fill="#866EEA"/>
<path d="M2775.3 553.7L1062.8 1785.4L987.701 1680.9L2700.1 449.1L2775.3 553.7Z" fill="#866EEA"/>
</g>
<defs>
<clipPath id="clip0">
<rect width="1920" height="1080" fill="white"/>
</clipPath>
</defs>
</svg>
