<?xml version="1.0" encoding="utf-8"?>
<!-- Generator: Adobe Illustrator 25.2.3, SVG Export Plug-In . SVG Version: 6.00 Build 0)  -->
<svg version="1.1" id="Capa_1" xmlns="http://www.w3.org/2000/svg" xmlns:xlink="http://www.w3.org/1999/xlink" x="0px" y="0px"
	 viewBox="0 0 47.2 150.3" style="enable-background:new 0 0 47.2 150.3;" xml:space="preserve">
<style type="text/css">
	.st0{fill:#6B6A6A;}
	.st1{fill:#ADADAD;}
	.st2{fill:#E06969;}
	.st3{fill:#FFFFFF;}
	.st4{fill:#1F4F10;}
	.st5{fill:#28AD07;}
	.st6{fill:#287C11;}
	.st7{fill:#DD0E0E;}
	.st8{fill-rule:evenodd;clip-rule:evenodd;fill:#FFFFFF;}
	.st9{fill-rule:evenodd;clip-rule:evenodd;fill:#3D438B;}
	.st10{fill-rule:evenodd;clip-rule:evenodd;fill:#DA243C;}
	.st11{fill:#4F256B;}
	.st12{fill:#8309B5;}
	.st13{fill:#620E8E;}
	.st14{fill:#7C670F;}
	.st15{fill:#DDBF0A;}
	.st16{fill:#AD8D09;}
	.st17{fill:#0F396B;}
	.st18{fill:#0556D8;}
	.st19{fill:#0D479B;}
	.st20{fill:#913737;}
	.st21{fill:#AA0F0F;}
	.st22{fill:url(#SVGID_1_);}
</style>
<g>
	<g>
		<g>
			<g>
				<g>
					<g>
						<rect x="1.7" y="1.8" class="st0" width="43" height="146.8"/>
						<g>
							<rect x="1.7" y="8.3" class="st1" width="43" height="1.6"/>
							<rect x="1.7" y="14.7" class="st1" width="43" height="1.6"/>
							<rect x="1.7" y="21.2" class="st1" width="43" height="1.6"/>
							<rect x="1.7" y="27.6" class="st1" width="43" height="1.6"/>
							<rect x="1.7" y="34.1" class="st1" width="43" height="1.6"/>
							<rect x="1.7" y="40.5" class="st1" width="43" height="1.6"/>
							<rect x="1.7" y="47" class="st1" width="43" height="1.6"/>
							<rect x="1.7" y="53.4" class="st1" width="43" height="1.6"/>
							<rect x="1.7" y="59.9" class="st1" width="43" height="1.6"/>
							<rect x="1.7" y="66.3" class="st1" width="43" height="1.6"/>
							<rect x="1.7" y="72.8" class="st1" width="43" height="1.6"/>
							<rect x="1.7" y="79.2" class="st1" width="43" height="1.6"/>
							<rect x="1.7" y="85.7" class="st1" width="43" height="1.6"/>
							<rect x="1.7" y="92.1" class="st1" width="43" height="1.6"/>
							<rect x="1.7" y="98.6" class="st1" width="43" height="1.6"/>
							<rect x="1.7" y="105" class="st1" width="43" height="1.6"/>
							<rect x="1.7" y="111.5" class="st1" width="43" height="1.6"/>
							<rect x="1.7" y="117.9" class="st1" width="43" height="1.6"/>
							<rect x="1.7" y="124.4" class="st1" width="43" height="1.6"/>
							<rect x="1.7" y="130.8" class="st1" width="43" height="1.6"/>
							<rect x="1.7" y="137.3" class="st1" width="43" height="1.6"/>
							<rect x="1.7" y="143.7" class="st1" width="43" height="1.6"/>
						</g>
						<rect class="st2" width="44.7" height="3.4"/>
						<rect y="146.9" class="st2" width="44.7" height="3.4"/>
					</g>
				</g>
			</g>
		</g>
		
			<rect x="-13.1" y="75.4" transform="matrix(-1.836970e-16 1 -1 -1.836970e-16 122.5904 31.6631)" class="st3" width="117.2" height="3.5"/>
		<g>
			<g>
				<g>
					<polygon class="st4" points="6.7,24.6 14.6,24.6 11.8,21.6 9.8,22.6 					"/>
					<path class="st5" d="M10.8,4.4v18.2c0,0-3,2-4.1,2c0,0-1-12.4,0-20.9C6.7,3.7,8.8,3.3,10.8,4.4z"/>
					<path class="st6" d="M10.8,4.4v18.2c0,0,3,2,4.1,2c0,0,1-12.4,0-20.9C14.8,3.7,12.8,3.3,10.8,4.4z"/>
					<path class="st4" d="M6.7,3.7l4.1,1.7l4.1-1.7C14.8,3.7,11.8,3.1,6.7,3.7z"/>
					<polygon class="st7" points="9.6,8.4 8.9,8.4 8.6,6.6 9.7,6.1 					"/>
					<g>
						<path class="st8" d="M7.2,14c0.1-1.5,0.1-2.8-0.1-3.5c0.4-0.2,0.7-0.3,1-0.1c0.5,0.2,0.6,0.9,0.6,1.5c0,0.8-0.1,2-0.2,3
							c-0.1,1.3-0.1,2.4,0.1,3.2c-0.3,0.2-0.6,0.3-0.9,0.2c-0.4-0.1-0.5-0.6-0.6-1.3C7,16.1,7.1,15,7.2,14z"/>
						<path class="st9" d="M8.5,13.5c0,0.1,0,0.2-0.1,0.2c0,0-0.1-0.1-0.1-0.2c0-0.1,0-0.2,0.1-0.2C8.4,13.3,8.5,13.3,8.5,13.5
							 M8.5,13.5c0-0.2,0-0.3-0.1-0.3c-0.1,0-0.1,0.1-0.1,0.3c0,0.2,0,0.3,0.1,0.3C8.5,13.7,8.5,13.6,8.5,13.5z M8.4,12.8L8.4,12.8
							c0.1,0.1,0.1,0.2,0,0.2C8.4,13,8.4,12.9,8.4,12.8z M8.3,12.7v0.1h0.1c0,0.1,0,0.2,0,0.3c0,0.1,0.1,0,0.1-0.1l0-0.2H8.3z
							 M8.5,12.2L8.5,12.2c0,0.1-0.1,0.1-0.2,0.1c-0.1,0-0.1,0.2,0,0.2c0,0,0.1,0,0.2,0v0.1c0,0-0.2,0-0.2,0c-0.1,0-0.1-0.2-0.1-0.3
							c0-0.1,0.1-0.1,0.1-0.1L8.5,12.2L8.5,12.2z M8.4,11.8L8.4,11.8c0.1,0.1,0.1,0.2,0,0.2C8.4,12,8.4,11.9,8.4,11.8z M8.3,11.7
							v0.1h0.1v0.1L8.3,12v0.1L8.4,12c0,0.1,0,0.1,0.1,0.1c0,0,0.1-0.1,0.1-0.2l0-0.2L8.3,11.7L8.3,11.7z M8.4,11.5L8.4,11.5
							L8.4,11.5L8.4,11.5c-0.1,0-0.1-0.1,0-0.2C8.4,11.2,8.5,11.3,8.4,11.5c0.1,0,0.1,0.1,0,0.1l0,0.1c0,0,0-0.1,0-0.2
							c0-0.3-0.2-0.3-0.2-0.2c0,0.1,0,0.3,0,0.4h0.1L8.4,11.5L8.4,11.5z M7.1,13.4c0-0.9,0-1.8-0.2-2.4c0-0.2,0-0.3,0-0.5
							c0.3-0.2,0.7-0.3,1.1-0.2c0.4,0.2,0.7,0.5,0.7,1.5c0,1-0.1,2.3-0.2,3.6c0,0.9,0,1.8,0.2,2.3c0,0.2-0.1,0.4-0.1,0.6
							c-0.3,0.3-0.7,0.3-1,0.2C7.2,18.3,7,17.6,7,16.8C7,15.6,7.1,14.3,7.1,13.4z M7.2,14c0.1-1.5,0.1-2.8-0.1-3.5
							c0.4-0.2,0.7-0.3,1-0.1c0.5,0.2,0.6,0.9,0.6,1.5c0,0.8-0.1,2-0.2,3c-0.1,1.3-0.1,2.4,0.1,3.2c-0.3,0.2-0.6,0.3-0.9,0.2
							c-0.4-0.1-0.5-0.6-0.6-1.3C7,16.1,7.1,15,7.2,14z"/>
						<path class="st10" d="M7.6,15.7v-0.3H8v0.3c0,0.1,0,0.2-0.1,0.2c-0.1,0-0.1-0.1-0.1-0.2v-0.1l-0.1-0.1v0.3
							c0,0.1,0,0.2-0.1,0.2C7.6,15.9,7.6,15.8,7.6,15.7 M7.4,15.7V15h0.8v0.7c0,0.3,0,0.5-0.2,0.5c-0.1,0-0.1,0-0.2-0.2
							c0,0.2-0.2,0.3-0.3,0.2C7.4,16.2,7.4,15.9,7.4,15.7z M8,17.2c0,0.2-0.1,0.4-0.2,0.4c-0.1,0-0.2-0.2-0.2-0.4s0.1-0.4,0.2-0.4
							C7.9,16.7,8,16.9,8,17.2z M8.2,17.2C8.2,17.6,8,18,7.8,18c-0.2,0-0.4-0.4-0.4-0.8s0.2-0.8,0.4-0.8C8,16.4,8.2,16.7,8.2,17.2z
							 M8.2,14.8H7.4v-0.4h0.5l-0.5-0.3v-0.4l0.5-0.2H7.4v-0.4h0.8v0.6L7.7,14l0.4,0.2V14.8z M8.2,12.6V13H7.4v-0.4H8.2z M7.6,11.9
							v-0.3H8v0.3C8,11.9,8,12,8,12c-0.1,0-0.1-0.1-0.1-0.2v-0.1l-0.1-0.1v0.3c0,0.1,0,0.2-0.1,0.2C7.6,12.1,7.6,12,7.6,11.9z
							 M7.4,11.9v-0.8h0.8v0.7c0,0.3,0,0.5-0.2,0.5c-0.1,0-0.1,0-0.2-0.2c0,0.2-0.2,0.3-0.3,0.2C7.4,12.4,7.4,12.1,7.4,11.9z"/>
					</g>
				</g>
				<g>
					<polygon class="st4" points="6.7,45.9 14.6,45.9 11.8,42.9 9.8,43.9 					"/>
					<path class="st5" d="M10.8,25.6v18.2c0,0-3,2-4.1,2c0,0-1-12.4,0-20.9C6.7,25,8.8,24.6,10.8,25.6z"/>
					<path class="st6" d="M10.8,25.6v18.2c0,0,3,2,4.1,2c0,0,1-12.4,0-20.9C14.8,25,12.8,24.6,10.8,25.6z"/>
					<path class="st4" d="M6.7,25l4.1,1.7l4.1-1.7C14.8,25,11.8,24.3,6.7,25z"/>
					<polygon class="st7" points="9.6,29.7 8.9,29.7 8.6,27.9 9.7,27.3 					"/>
					<g>
						<path class="st8" d="M7.2,35.3c0.1-1.5,0.1-2.8-0.1-3.5c0.4-0.2,0.7-0.3,1-0.1c0.5,0.2,0.6,0.9,0.6,1.5c0,0.8-0.1,2-0.2,3
							c-0.1,1.3-0.1,2.4,0.1,3.2c-0.3,0.2-0.6,0.3-0.9,0.2c-0.4-0.1-0.5-0.6-0.6-1.3C7,37.4,7.1,36.3,7.2,35.3z"/>
						<path class="st9" d="M8.5,34.7c0,0.1,0,0.2-0.1,0.2c0,0-0.1-0.1-0.1-0.2c0-0.1,0-0.2,0.1-0.2C8.4,34.6,8.5,34.6,8.5,34.7
							 M8.5,34.7c0-0.2,0-0.3-0.1-0.3c-0.1,0-0.1,0.1-0.1,0.3c0,0.2,0,0.3,0.1,0.3C8.5,35,8.5,34.9,8.5,34.7z M8.4,34.1L8.4,34.1
							c0.1,0.1,0.1,0.2,0,0.2C8.4,34.3,8.4,34.2,8.4,34.1z M8.3,34v0.1h0.1c0,0.1,0,0.2,0,0.3c0,0.1,0.1,0,0.1-0.1l0-0.2H8.3z
							 M8.5,33.5L8.5,33.5c0,0.1-0.1,0.1-0.2,0.1c-0.1,0-0.1,0.2,0,0.2c0,0,0.1,0,0.2,0v0.1c0,0-0.2,0-0.2,0c-0.1,0-0.1-0.2-0.1-0.3
							c0-0.1,0.1-0.1,0.1-0.1L8.5,33.5L8.5,33.5z M8.4,33.1L8.4,33.1c0.1,0.1,0.1,0.2,0,0.2C8.4,33.3,8.4,33.2,8.4,33.1z M8.3,33
							v0.1h0.1v0.1l-0.1,0.1v0.1l0.1-0.1c0,0.1,0,0.1,0.1,0.1c0,0,0.1-0.1,0.1-0.2l0-0.2L8.3,33L8.3,33z M8.4,32.7L8.4,32.7
							L8.4,32.7L8.4,32.7c-0.1,0-0.1-0.1,0-0.2C8.4,32.5,8.5,32.5,8.4,32.7c0.1,0,0.1,0.1,0,0.1l0,0.1c0,0,0-0.1,0-0.2
							c0-0.3-0.2-0.3-0.2-0.2c0,0.1,0,0.3,0,0.4h0.1L8.4,32.7L8.4,32.7z M7.1,34.6c0-0.9,0-1.8-0.2-2.4c0-0.2,0-0.3,0-0.5
							c0.3-0.2,0.7-0.3,1.1-0.2c0.4,0.2,0.7,0.5,0.7,1.5c0,1-0.1,2.3-0.2,3.6c0,0.9,0,1.8,0.2,2.3c0,0.2-0.1,0.4-0.1,0.6
							c-0.3,0.3-0.7,0.3-1,0.2C7.2,39.6,7,38.9,7,38.1C7,36.9,7.1,35.6,7.1,34.6z M7.2,35.3c0.1-1.5,0.1-2.8-0.1-3.5
							c0.4-0.2,0.7-0.3,1-0.1c0.5,0.2,0.6,0.9,0.6,1.5c0,0.8-0.1,2-0.2,3c-0.1,1.3-0.1,2.4,0.1,3.2c-0.3,0.2-0.6,0.3-0.9,0.2
							c-0.4-0.1-0.5-0.6-0.6-1.3C7,37.4,7.1,36.3,7.2,35.3z"/>
						<path class="st10" d="M7.6,37v-0.3H8v0.3C8,37,8,37.1,8,37.1c-0.1,0-0.1-0.1-0.1-0.2v-0.1l-0.1-0.1V37c0,0.1,0,0.2-0.1,0.2
							C7.6,37.2,7.6,37.1,7.6,37 M7.4,37v-0.8h0.8V37c0,0.3,0,0.5-0.2,0.5c-0.1,0-0.1,0-0.2-0.2c0,0.2-0.2,0.3-0.3,0.2
							C7.4,37.5,7.4,37.2,7.4,37z M8,38.4c0,0.2-0.1,0.4-0.2,0.4c-0.1,0-0.2-0.2-0.2-0.4S7.7,38,7.8,38C7.9,38,8,38.2,8,38.4z
							 M8.2,38.4c0,0.4-0.2,0.8-0.4,0.8c-0.2,0-0.4-0.4-0.4-0.8c0-0.4,0.2-0.8,0.4-0.8C8,37.6,8.2,38,8.2,38.4z M8.2,36.1H7.4v-0.4
							h0.5l-0.5-0.3V35l0.5-0.2H7.4v-0.4h0.8V35l-0.4,0.2l0.4,0.2V36.1z M8.2,33.9v0.4H7.4v-0.4H8.2z M7.6,33.1v-0.3H8v0.3
							c0,0.1,0,0.2-0.1,0.2c-0.1,0-0.1-0.1-0.1-0.2V33l-0.1-0.1v0.3c0,0.1,0,0.2-0.1,0.2C7.6,33.4,7.6,33.3,7.6,33.1z M7.4,33.2
							v-0.8h0.8v0.7c0,0.3,0,0.5-0.2,0.5c-0.1,0-0.1,0-0.2-0.2c0,0.2-0.2,0.3-0.3,0.2C7.4,33.7,7.4,33.4,7.4,33.2z"/>
					</g>
				</g>
				<g>
					<polygon class="st11" points="6.7,67.2 14.6,67.1 11.8,64.1 9.8,65.1 					"/>
					<path class="st12" d="M10.8,46.9v18.2c0,0-3,2-4.1,2c0,0-1-12.4,0-20.9C6.7,46.3,8.8,45.9,10.8,46.9z"/>
					<path class="st13" d="M10.8,46.9v18.2c0,0,3,2,4.1,2c0,0,1-12.4,0-20.9C14.8,46.3,12.8,45.9,10.8,46.9z"/>
					<path class="st11" d="M6.7,46.3l4.1,1.7l4.1-1.7C14.8,46.3,11.8,45.6,6.7,46.3z"/>
					<polygon class="st7" points="9.6,51 8.9,51 8.6,49.2 9.7,48.6 					"/>
					<g>
						<path class="st8" d="M7.2,56.6C7.3,55,7.2,53.8,7,53.1c0.4-0.2,0.7-0.3,1-0.1c0.5,0.2,0.6,0.9,0.6,1.5c0,0.8-0.1,2-0.2,3
							c-0.1,1.3-0.1,2.4,0.1,3.2C8.3,61,8,61,7.7,60.9c-0.4-0.1-0.5-0.6-0.6-1.3C7,58.7,7.1,57.6,7.2,56.6z"/>
						<path class="st9" d="M8.5,56c0,0.1,0,0.2-0.1,0.2c0,0-0.1-0.1-0.1-0.2c0-0.1,0-0.2,0.1-0.2C8.4,55.8,8.5,55.9,8.5,56 M8.5,56
							c0-0.2,0-0.3-0.1-0.3c-0.1,0-0.1,0.1-0.1,0.3c0,0.2,0,0.3,0.1,0.3C8.5,56.3,8.5,56.2,8.5,56z M8.4,55.4L8.4,55.4
							c0.1,0.1,0.1,0.2,0,0.2C8.4,55.6,8.4,55.5,8.4,55.4z M8.3,55.3v0.1h0.1c0,0.1,0,0.2,0,0.3c0,0.1,0.1,0,0.1-0.1l0-0.2H8.3z
							 M8.5,54.7L8.5,54.7c0,0.1-0.1,0.1-0.2,0.1c-0.1,0-0.1,0.2,0,0.2c0,0,0.1,0,0.2,0v0.1c0,0-0.2,0-0.2,0c-0.1,0-0.1-0.2-0.1-0.3
							c0-0.1,0.1-0.1,0.1-0.1L8.5,54.7L8.5,54.7z M8.4,54.4L8.4,54.4c0.1,0.1,0.1,0.2,0,0.2C8.4,54.6,8.4,54.5,8.4,54.4z M8.3,54.3
							v0.1h0.1v0.1l-0.1,0.1v0.1l0.1-0.1c0,0.1,0,0.1,0.1,0.1c0,0,0.1-0.1,0.1-0.2l0-0.2L8.3,54.3L8.3,54.3z M8.4,54L8.4,54L8.4,54
							L8.4,54c-0.1,0-0.1-0.1,0-0.2C8.4,53.8,8.5,53.8,8.4,54c0.1,0,0.1,0.1,0,0.1l0,0.1c0,0,0-0.1,0-0.2c0-0.3-0.2-0.3-0.2-0.2
							c0,0.1,0,0.3,0,0.4h0.1L8.4,54L8.4,54z M7.1,55.9c0-0.9,0-1.8-0.2-2.4c0-0.2,0-0.3,0-0.5c0.3-0.2,0.7-0.3,1.1-0.2
							c0.4,0.2,0.7,0.5,0.7,1.5c0,1-0.1,2.3-0.2,3.6c0,0.9,0,1.8,0.2,2.3c0,0.2-0.1,0.4-0.1,0.6c-0.3,0.3-0.7,0.3-1,0.2
							C7.2,60.8,7,60.2,7,59.3C7,58.1,7.1,56.9,7.1,55.9z M7.2,56.6C7.3,55,7.2,53.8,7,53.1c0.4-0.2,0.7-0.3,1-0.1
							c0.5,0.2,0.6,0.9,0.6,1.5c0,0.8-0.1,2-0.2,3c-0.1,1.3-0.1,2.4,0.1,3.2C8.3,61,8,61,7.7,60.9c-0.4-0.1-0.5-0.6-0.6-1.3
							C7,58.7,7.1,57.6,7.2,56.6z"/>
						<path class="st10" d="M7.6,58.2v-0.3H8v0.3c0,0.1,0,0.2-0.1,0.2c-0.1,0-0.1-0.1-0.1-0.2v-0.1L7.7,58v0.3c0,0.1,0,0.2-0.1,0.2
							C7.6,58.4,7.6,58.4,7.6,58.2 M7.4,58.3v-0.8h0.8v0.7c0,0.3,0,0.5-0.2,0.5c-0.1,0-0.1,0-0.2-0.2c0,0.2-0.2,0.3-0.3,0.2
							C7.4,58.8,7.4,58.5,7.4,58.3z M8,59.7c0,0.2-0.1,0.4-0.2,0.4c-0.1,0-0.2-0.2-0.2-0.4s0.1-0.4,0.2-0.4C7.9,59.3,8,59.5,8,59.7z
							 M8.2,59.7c0,0.4-0.2,0.8-0.4,0.8c-0.2,0-0.4-0.4-0.4-0.8c0-0.4,0.2-0.8,0.4-0.8C8,58.9,8.2,59.3,8.2,59.7z M8.2,57.4H7.4V57
							h0.5l-0.5-0.3v-0.4l0.5-0.2H7.4v-0.4h0.8v0.6l-0.4,0.2l0.4,0.2V57.4z M8.2,55.1v0.4H7.4v-0.4H8.2z M7.6,54.4v-0.3H8v0.3
							c0,0.1,0,0.2-0.1,0.2c-0.1,0-0.1-0.1-0.1-0.2v-0.1l-0.1-0.1v0.3c0,0.1,0,0.2-0.1,0.2C7.6,54.6,7.6,54.5,7.6,54.4z M7.4,54.5
							v-0.8h0.8v0.7c0,0.3,0,0.5-0.2,0.5c-0.1,0-0.1,0-0.2-0.2c0,0.2-0.2,0.3-0.3,0.2C7.4,54.9,7.4,54.7,7.4,54.5z"/>
					</g>
				</g>
				<g>
					<polygon class="st14" points="6.7,88.4 14.6,88.4 11.8,85.4 9.8,86.4 					"/>
					<path class="st15" d="M10.8,68.2v18.2c0,0-3,2-4.1,2c0,0-1-12.4,0-20.9C6.7,67.5,8.8,67.2,10.8,68.2z"/>
					<path class="st16" d="M10.8,68.2v18.2c0,0,3,2,4.1,2c0,0,1-12.4,0-20.9C14.8,67.5,12.8,67.2,10.8,68.2z"/>
					<path class="st14" d="M6.7,67.5l4.1,1.7l4.1-1.7C14.8,67.5,11.8,66.9,6.7,67.5z"/>
					<polygon class="st7" points="9.6,72.2 8.9,72.2 8.6,70.5 9.7,69.9 					"/>
					<g>
						<path class="st8" d="M7.2,77.8c0.1-1.5,0.1-2.8-0.1-3.5c0.4-0.2,0.7-0.3,1-0.1c0.5,0.2,0.6,0.9,0.6,1.5c0,0.8-0.1,2-0.2,3
							c-0.1,1.3-0.1,2.4,0.1,3.2c-0.3,0.2-0.6,0.3-0.9,0.2c-0.4-0.1-0.5-0.6-0.6-1.3C7,79.9,7.1,78.9,7.2,77.8z"/>
						<path class="st9" d="M8.5,77.3c0,0.1,0,0.2-0.1,0.2c0,0-0.1-0.1-0.1-0.2c0-0.1,0-0.2,0.1-0.2C8.4,77.1,8.5,77.2,8.5,77.3
							 M8.5,77.3c0-0.2,0-0.3-0.1-0.3c-0.1,0-0.1,0.1-0.1,0.3c0,0.2,0,0.3,0.1,0.3C8.5,77.6,8.5,77.5,8.5,77.3z M8.4,76.7L8.4,76.7
							c0.1,0.1,0.1,0.2,0,0.2C8.4,76.8,8.4,76.7,8.4,76.7z M8.3,76.6v0.1h0.1c0,0.1,0,0.2,0,0.3c0,0.1,0.1,0,0.1-0.1l0-0.2H8.3z
							 M8.5,76L8.5,76c0,0.1-0.1,0.1-0.2,0.1c-0.1,0-0.1,0.2,0,0.2c0,0,0.1,0,0.2,0v0.1c0,0-0.2,0-0.2,0c-0.1,0-0.1-0.2-0.1-0.3
							C8.3,76,8.3,76,8.4,76L8.5,76L8.5,76z M8.4,75.7L8.4,75.7c0.1,0.1,0.1,0.2,0,0.2C8.4,75.8,8.4,75.7,8.4,75.7z M8.3,75.6v0.1
							h0.1v0.1l-0.1,0.1V76l0.1-0.1c0,0.1,0,0.1,0.1,0.1c0,0,0.1-0.1,0.1-0.2l0-0.2L8.3,75.6L8.3,75.6z M8.4,75.3L8.4,75.3L8.4,75.3
							L8.4,75.3c-0.1,0-0.1-0.1,0-0.2C8.4,75.1,8.5,75.1,8.4,75.3c0.1,0,0.1,0.1,0,0.1l0,0.1c0,0,0-0.1,0-0.2c0-0.3-0.2-0.3-0.2-0.2
							c0,0.1,0,0.3,0,0.4h0.1L8.4,75.3L8.4,75.3z M7.1,77.2c0-0.9,0-1.8-0.2-2.4c0-0.2,0-0.3,0-0.5C7.3,74.1,7.7,74,8,74.1
							c0.4,0.2,0.7,0.5,0.7,1.5c0,1-0.1,2.3-0.2,3.6c0,0.9,0,1.8,0.2,2.3c0,0.2-0.1,0.4-0.1,0.6c-0.3,0.3-0.7,0.3-1,0.2
							C7.2,82.1,7,81.5,7,80.6C7,79.4,7.1,78.2,7.1,77.2z M7.2,77.8c0.1-1.5,0.1-2.8-0.1-3.5c0.4-0.2,0.7-0.3,1-0.1
							c0.5,0.2,0.6,0.9,0.6,1.5c0,0.8-0.1,2-0.2,3c-0.1,1.3-0.1,2.4,0.1,3.2c-0.3,0.2-0.6,0.3-0.9,0.2c-0.4-0.1-0.5-0.6-0.6-1.3
							C7,79.9,7.1,78.9,7.2,77.8z"/>
						<path class="st10" d="M7.6,79.5v-0.3H8v0.3c0,0.1,0,0.2-0.1,0.2c-0.1,0-0.1-0.1-0.1-0.2v-0.1l-0.1-0.1v0.3
							c0,0.1,0,0.2-0.1,0.2C7.6,79.7,7.6,79.6,7.6,79.5 M7.4,79.6v-0.8h0.8v0.7c0,0.3,0,0.5-0.2,0.5c-0.1,0-0.1,0-0.2-0.2
							c0,0.2-0.2,0.3-0.3,0.2C7.4,80,7.4,79.8,7.4,79.6z M8,81c0,0.2-0.1,0.4-0.2,0.4c-0.1,0-0.2-0.2-0.2-0.4c0-0.2,0.1-0.4,0.2-0.4
							C7.9,80.6,8,80.8,8,81z M8.2,81c0,0.4-0.2,0.8-0.4,0.8c-0.2,0-0.4-0.4-0.4-0.8c0-0.4,0.2-0.8,0.4-0.8C8,80.2,8.2,80.5,8.2,81z
							 M8.2,78.6H7.4v-0.4h0.5L7.4,78v-0.4l0.5-0.2H7.4V77h0.8v0.6l-0.4,0.2L8.2,78V78.6z M8.2,76.4v0.4H7.4v-0.4H8.2z M7.6,75.7
							v-0.3H8v0.3c0,0.1,0,0.2-0.1,0.2c-0.1,0-0.1-0.1-0.1-0.2v-0.1l-0.1-0.1v0.3c0,0.1,0,0.2-0.1,0.2C7.6,75.9,7.6,75.8,7.6,75.7z
							 M7.4,75.7V75h0.8v0.7c0,0.3,0,0.5-0.2,0.5c-0.1,0-0.1,0-0.2-0.2c0,0.2-0.2,0.3-0.3,0.2C7.4,76.2,7.4,75.9,7.4,75.7z"/>
					</g>
				</g>
				<g>
					<polygon class="st17" points="6.7,124.9 14.6,124.9 11.8,121.9 9.8,122.9 					"/>
					<path class="st18" d="M10.8,104.7v18.2c0,0-3,2-4.1,2c0,0-1-12.4,0-20.9C6.7,104,8.8,103.6,10.8,104.7z"/>
					<path class="st19" d="M10.8,104.7v18.2c0,0,3,2,4.1,2c0,0,1-12.4,0-20.9C14.8,104,12.8,103.6,10.8,104.7z"/>
					<path class="st17" d="M6.7,104l4.1,1.7l4.1-1.7C14.8,104,11.8,103.4,6.7,104z"/>
					<polygon class="st7" points="9.6,108.7 8.9,108.7 8.6,106.9 9.7,106.4 					"/>
					<g>
						<path class="st8" d="M7.2,114.3c0.1-1.5,0.1-2.8-0.1-3.5c0.4-0.2,0.7-0.3,1-0.1c0.5,0.2,0.6,0.9,0.6,1.5c0,0.8-0.1,2-0.2,3
							c-0.1,1.3-0.1,2.4,0.1,3.2c-0.3,0.2-0.6,0.3-0.9,0.2c-0.4-0.1-0.5-0.6-0.6-1.3C7,116.4,7.1,115.4,7.2,114.3z"/>
						<path class="st9" d="M8.5,113.8c0,0.1,0,0.2-0.1,0.2c0,0-0.1-0.1-0.1-0.2c0-0.1,0-0.2,0.1-0.2C8.4,113.6,8.5,113.6,8.5,113.8
							 M8.5,113.8c0-0.2,0-0.3-0.1-0.3c-0.1,0-0.1,0.1-0.1,0.3c0,0.2,0,0.3,0.1,0.3C8.5,114,8.5,113.9,8.5,113.8z M8.4,113.1
							L8.4,113.1c0.1,0.1,0.1,0.2,0,0.2C8.4,113.3,8.4,113.2,8.4,113.1z M8.3,113v0.1h0.1c0,0.1,0,0.2,0,0.3c0,0.1,0.1,0,0.1-0.1
							l0-0.2H8.3z M8.5,112.5L8.5,112.5c0,0.1-0.1,0.1-0.2,0.1c-0.1,0-0.1,0.2,0,0.2c0,0,0.1,0,0.2,0v0.1c0,0-0.2,0-0.2,0
							c-0.1,0-0.1-0.2-0.1-0.3c0-0.1,0.1-0.1,0.1-0.1L8.5,112.5L8.5,112.5z M8.4,112.1L8.4,112.1c0.1,0.1,0.1,0.2,0,0.2
							C8.4,112.3,8.4,112.2,8.4,112.1z M8.3,112v0.1h0.1v0.1l-0.1,0.1v0.1l0.1-0.1c0,0.1,0,0.1,0.1,0.1c0,0,0.1-0.1,0.1-0.2l0-0.2
							L8.3,112L8.3,112z M8.4,111.8L8.4,111.8L8.4,111.8L8.4,111.8c-0.1,0-0.1-0.1,0-0.2C8.4,111.5,8.5,111.6,8.4,111.8
							c0.1,0,0.1,0.1,0,0.1l0,0.1c0,0,0-0.1,0-0.2c0-0.3-0.2-0.3-0.2-0.2c0,0.1,0,0.3,0,0.4h0.1L8.4,111.8L8.4,111.8z M7.1,113.7
							c0-0.9,0-1.8-0.2-2.4c0-0.2,0-0.3,0-0.5c0.3-0.2,0.7-0.3,1.1-0.2c0.4,0.2,0.7,0.5,0.7,1.5c0,1-0.1,2.3-0.2,3.6
							c0,0.9,0,1.8,0.2,2.3c0,0.2-0.1,0.4-0.1,0.6c-0.3,0.3-0.7,0.3-1,0.2C7.2,118.6,7,118,7,117.1C7,115.9,7.1,114.6,7.1,113.7z
							 M7.2,114.3c0.1-1.5,0.1-2.8-0.1-3.5c0.4-0.2,0.7-0.3,1-0.1c0.5,0.2,0.6,0.9,0.6,1.5c0,0.8-0.1,2-0.2,3
							c-0.1,1.3-0.1,2.4,0.1,3.2c-0.3,0.2-0.6,0.3-0.9,0.2c-0.4-0.1-0.5-0.6-0.6-1.3C7,116.4,7.1,115.4,7.2,114.3z"/>
						<path class="st10" d="M7.6,116v-0.3H8v0.3c0,0.1,0,0.2-0.1,0.2c-0.1,0-0.1-0.1-0.1-0.2v-0.1l-0.1-0.1v0.3c0,0.1,0,0.2-0.1,0.2
							C7.6,116.2,7.6,116.1,7.6,116 M7.4,116v-0.8h0.8v0.7c0,0.3,0,0.5-0.2,0.5c-0.1,0-0.1,0-0.2-0.2c0,0.2-0.2,0.3-0.3,0.2
							C7.4,116.5,7.4,116.2,7.4,116z M8,117.5c0,0.2-0.1,0.4-0.2,0.4c-0.1,0-0.2-0.2-0.2-0.4c0-0.2,0.1-0.4,0.2-0.4
							C7.9,117,8,117.2,8,117.5z M8.2,117.5c0,0.4-0.2,0.8-0.4,0.8c-0.2,0-0.4-0.4-0.4-0.8c0-0.4,0.2-0.8,0.4-0.8
							C8,116.7,8.2,117,8.2,117.5z M8.2,115.1H7.4v-0.4h0.5l-0.5-0.3v-0.4l0.5-0.2H7.4v-0.4h0.8v0.6l-0.4,0.2l0.4,0.2V115.1z
							 M8.2,112.9v0.4H7.4v-0.4H8.2z M7.6,112.2v-0.3H8v0.3c0,0.1,0,0.2-0.1,0.2c-0.1,0-0.1-0.1-0.1-0.2V112l-0.1-0.1v0.3
							c0,0.1,0,0.2-0.1,0.2C7.6,112.4,7.6,112.3,7.6,112.2z M7.4,112.2v-0.8h0.8v0.7c0,0.3,0,0.5-0.2,0.5c-0.1,0-0.1,0-0.2-0.2
							c0,0.2-0.2,0.3-0.3,0.2C7.4,112.7,7.4,112.4,7.4,112.2z"/>
					</g>
				</g>
				<g>
					<polygon class="st17" points="6.7,146.2 14.6,146.2 11.8,143.2 9.8,144.2 					"/>
					<path class="st18" d="M10.8,125.9v18.2c0,0-3,2-4.1,2c0,0-1-12.4,0-20.9C6.7,125.3,8.8,124.9,10.8,125.9z"/>
					<path class="st19" d="M10.8,125.9v18.2c0,0,3,2,4.1,2c0,0,1-12.4,0-20.9C14.8,125.3,12.8,124.9,10.8,125.9z"/>
					<path class="st17" d="M6.7,125.3l4.1,1.7l4.1-1.7C14.8,125.3,11.8,124.6,6.7,125.3z"/>
					<polygon class="st7" points="9.6,130 8.9,130 8.6,128.2 9.7,127.7 					"/>
					<g>
						<path class="st8" d="M7.2,135.6c0.1-1.5,0.1-2.8-0.1-3.5c0.4-0.2,0.7-0.3,1-0.1c0.5,0.2,0.6,0.9,0.6,1.5c0,0.8-0.1,2-0.2,3
							c-0.1,1.3-0.1,2.4,0.1,3.2c-0.3,0.2-0.6,0.3-0.9,0.2c-0.4-0.1-0.5-0.6-0.6-1.3C7,137.7,7.1,136.6,7.2,135.6z"/>
						<path class="st9" d="M8.5,135c0,0.1,0,0.2-0.1,0.2c0,0-0.1-0.1-0.1-0.2c0-0.1,0-0.2,0.1-0.2C8.4,134.9,8.5,134.9,8.5,135
							 M8.5,135c0-0.2,0-0.3-0.1-0.3c-0.1,0-0.1,0.1-0.1,0.3c0,0.2,0,0.3,0.1,0.3C8.5,135.3,8.5,135.2,8.5,135z M8.4,134.4
							L8.4,134.4c0.1,0.1,0.1,0.2,0,0.2C8.4,134.6,8.4,134.5,8.4,134.4z M8.3,134.3v0.1h0.1c0,0.1,0,0.2,0,0.3c0,0.1,0.1,0,0.1-0.1
							l0-0.2H8.3z M8.5,133.8L8.5,133.8c0,0.1-0.1,0.1-0.2,0.1c-0.1,0-0.1,0.2,0,0.2c0,0,0.1,0,0.2,0v0.1c0,0-0.2,0-0.2,0
							c-0.1,0-0.1-0.2-0.1-0.3c0-0.1,0.1-0.1,0.1-0.1L8.5,133.8L8.5,133.8z M8.4,133.4L8.4,133.4c0.1,0.1,0.1,0.2,0,0.2
							C8.4,133.6,8.4,133.5,8.4,133.4z M8.3,133.3v0.1h0.1v0.1l-0.1,0.1v0.1l0.1-0.1c0,0.1,0,0.1,0.1,0.1c0,0,0.1-0.1,0.1-0.2l0-0.2
							L8.3,133.3L8.3,133.3z M8.4,133L8.4,133L8.4,133L8.4,133c-0.1,0-0.1-0.1,0-0.2C8.4,132.8,8.5,132.9,8.4,133
							c0.1,0,0.1,0.1,0,0.1l0,0.1c0,0,0-0.1,0-0.2c0-0.3-0.2-0.3-0.2-0.2c0,0.1,0,0.3,0,0.4h0.1L8.4,133L8.4,133z M7.1,134.9
							c0-0.9,0-1.8-0.2-2.4c0-0.2,0-0.3,0-0.5c0.3-0.2,0.7-0.3,1.1-0.2c0.4,0.2,0.7,0.5,0.7,1.5c0,1-0.1,2.3-0.2,3.6
							c0,0.9,0,1.8,0.2,2.3c0,0.2-0.1,0.4-0.1,0.6c-0.3,0.3-0.7,0.3-1,0.2c-0.5-0.2-0.6-0.8-0.6-1.7C7,137.2,7.1,135.9,7.1,134.9z
							 M7.2,135.6c0.1-1.5,0.1-2.8-0.1-3.5c0.4-0.2,0.7-0.3,1-0.1c0.5,0.2,0.6,0.9,0.6,1.5c0,0.8-0.1,2-0.2,3
							c-0.1,1.3-0.1,2.4,0.1,3.2c-0.3,0.2-0.6,0.3-0.9,0.2c-0.4-0.1-0.5-0.6-0.6-1.3C7,137.7,7.1,136.6,7.2,135.6z"/>
						<path class="st10" d="M7.6,137.3v-0.3H8v0.3c0,0.1,0,0.2-0.1,0.2c-0.1,0-0.1-0.1-0.1-0.2v-0.1L7.7,137v0.3
							c0,0.1,0,0.2-0.1,0.2C7.6,137.5,7.6,137.4,7.6,137.3 M7.4,137.3v-0.8h0.8v0.7c0,0.3,0,0.5-0.2,0.5c-0.1,0-0.1,0-0.2-0.2
							c0,0.2-0.2,0.3-0.3,0.2C7.4,137.8,7.4,137.5,7.4,137.3z M8,138.7c0,0.2-0.1,0.4-0.2,0.4c-0.1,0-0.2-0.2-0.2-0.4
							c0-0.2,0.1-0.4,0.2-0.4C7.9,138.3,8,138.5,8,138.7z M8.2,138.7c0,0.4-0.2,0.8-0.4,0.8c-0.2,0-0.4-0.4-0.4-0.8s0.2-0.8,0.4-0.8
							C8,137.9,8.2,138.3,8.2,138.7z M8.2,136.4H7.4V136h0.5l-0.5-0.3v-0.4l0.5-0.2H7.4v-0.4h0.8v0.6l-0.4,0.2l0.4,0.2V136.4z
							 M8.2,134.2v0.4H7.4v-0.4H8.2z M7.6,133.4v-0.3H8v0.3c0,0.1,0,0.2-0.1,0.2c-0.1,0-0.1-0.1-0.1-0.2v-0.1l-0.1-0.1v0.3
							c0,0.1,0,0.2-0.1,0.2C7.6,133.7,7.6,133.6,7.6,133.4z M7.4,133.5v-0.8h0.8v0.7c0,0.3,0,0.5-0.2,0.5c-0.1,0-0.1,0-0.2-0.2
							c0,0.2-0.2,0.3-0.3,0.2C7.4,134,7.4,133.7,7.4,133.5z"/>
					</g>
				</g>
				<g>
					<g>
						<polygon class="st20" points="6.6,103.9 12.3,103.9 10.3,101.7 8.8,102.4 						"/>
						<path class="st7" d="M9.5,89.2v13.2c0,0-2.2,1.5-2.9,1.5c0,0-0.7-9,0-15.2C6.6,88.7,8.1,88.5,9.5,89.2z"/>
						<path class="st21" d="M9.5,89.2v13.2c0,0,2.2,1.5,2.9,1.5c0,0,0.7-9,0-15.2C12.5,88.7,11,88.5,9.5,89.2z"/>
						<path class="st20" d="M6.6,88.7l2.9,1.2l2.9-1.2C12.5,88.7,10.3,88.3,6.6,88.7z"/>
						<g>
							<path class="st3" d="M8.7,92.2H8.1l0,0l-0.2-1.3l0.8-0.5L8.7,92.2z M8.2,92.1h0.4l0-1.6L8,90.9L8.2,92.1z"/>
						</g>
					</g>
					<path class="st15" d="M8.5,93.2c0,0,0.3,1.8,0.2,7.2l-2.2-0.6v-6.6C6.6,93.2,6.3,92.8,8.5,93.2z"/>
					<g>
						<path class="st8" d="M6.9,96.2c0.1-1.1,0.1-2-0.1-2.5c0.3-0.1,0.5-0.2,0.7-0.1C7.9,93.8,8,94.3,8,94.7c0,0.6-0.1,1.5-0.1,2.2
							c-0.1,0.9-0.1,1.8,0.1,2.3c-0.2,0.2-0.5,0.2-0.7,0.1C7,99.3,6.9,99,6.9,98.4C6.8,97.7,6.9,97,6.9,96.2z"/>
						<path class="st9" d="M7.9,95.8c0,0.1,0,0.1-0.1,0.1c0,0-0.1,0-0.1-0.1c0-0.1,0-0.1,0.1-0.1C7.8,95.7,7.9,95.7,7.9,95.8
							 M7.9,95.8c0-0.1,0-0.2-0.1-0.2c-0.1,0-0.1,0.1-0.1,0.2c0,0.1,0,0.2,0.1,0.2C7.9,96,7.9,95.9,7.9,95.8z M7.8,95.4L7.8,95.4
							c0.1,0.1,0.1,0.1,0,0.1C7.8,95.5,7.8,95.4,7.8,95.4z M7.7,95.3L7.7,95.3L7.7,95.3c0.1,0.1,0.1,0.2,0.1,0.3c0,0,0.1,0,0.1-0.1
							l0-0.2H7.7z M7.9,94.9L7.9,94.9C7.9,95,7.8,95,7.8,95c0,0,0,0.2,0,0.2c0,0,0.1,0,0.1,0v0.1c0,0-0.1,0-0.1,0c0,0-0.1-0.2,0-0.2
							c0-0.1,0-0.1,0.1-0.1L7.9,94.9L7.9,94.9z M7.8,94.6L7.8,94.6c0.1,0.1,0.1,0.1,0,0.1C7.8,94.8,7.8,94.7,7.8,94.6z M7.7,94.6
							L7.7,94.6L7.7,94.6l0.1,0.1l-0.1,0.1v0.1l0.1-0.1c0,0,0,0.1,0,0.1c0,0,0-0.1,0-0.1l0-0.2L7.7,94.6L7.7,94.6z M7.8,94.4
							L7.8,94.4L7.8,94.4L7.8,94.4c-0.1,0-0.1-0.1,0-0.1C7.8,94.2,7.9,94.2,7.8,94.4C7.9,94.4,7.9,94.4,7.8,94.4l0.1,0.1
							C7.9,94.4,7.9,94.4,7.8,94.4c0.1-0.3,0-0.3-0.1-0.2c0,0.1,0,0.2,0,0.3h0.1L7.8,94.4L7.8,94.4z M6.9,95.7c0-0.7,0-1.3-0.1-1.7
							c0-0.1,0-0.3,0-0.4c0.2-0.2,0.5-0.2,0.8-0.1C7.8,93.6,8,93.9,8,94.6c0,0.7-0.1,1.7-0.1,2.6c0,0.7,0,1.3,0.1,1.7
							c0,0.1,0,0.3-0.1,0.4c-0.3,0.2-0.5,0.2-0.7,0.1c-0.3-0.1-0.5-0.6-0.5-1.2C6.8,97.3,6.9,96.4,6.9,95.7z M6.9,96.2
							c0.1-1.1,0.1-2-0.1-2.5c0.3-0.1,0.5-0.2,0.7-0.1C7.9,93.8,8,94.3,8,94.7c0,0.6-0.1,1.5-0.1,2.2c-0.1,0.9-0.1,1.8,0.1,2.3
							c-0.2,0.2-0.5,0.2-0.7,0.1C7,99.3,6.9,99,6.9,98.4C6.8,97.7,6.9,97,6.9,96.2z"/>
						<path class="st10" d="M7.2,97.4v-0.2h0.3v0.2c0,0.1,0,0.1,0,0.1c0,0-0.1,0-0.1-0.1v-0.1l-0.1-0.1v0.2c0,0.1,0,0.2-0.1,0.2
							C7.2,97.6,7.2,97.5,7.2,97.4 M7.1,97.5v-0.6h0.6v0.5c0,0.2,0,0.3-0.1,0.4c-0.1,0-0.1,0-0.1-0.1c0,0.1-0.1,0.2-0.2,0.2
							C7.1,97.8,7.1,97.6,7.1,97.5z M7.5,98.5c0,0.2-0.1,0.3-0.1,0.3c-0.1,0-0.1-0.1-0.1-0.3c0-0.2,0.1-0.3,0.1-0.3
							C7.5,98.2,7.5,98.3,7.5,98.5z M7.7,98.5c0,0.3-0.1,0.6-0.3,0.6c-0.2,0-0.3-0.3-0.3-0.6c0-0.3,0.1-0.6,0.3-0.6
							C7.5,97.9,7.7,98.2,7.7,98.5z M7.7,96.8H7.1v-0.3h0.4l-0.4-0.2V96l0.3-0.2H7.1v-0.3h0.6V96l-0.3,0.2l0.3,0.1V96.8z M7.7,95.2
							v0.3H7.1v-0.3H7.7z M7.2,94.6v-0.2h0.3v0.2c0,0.1,0,0.1,0,0.1c0,0-0.1,0-0.1-0.1v-0.1l-0.1-0.1v0.2c0,0.1,0,0.2-0.1,0.2
							C7.2,94.8,7.2,94.7,7.2,94.6z M7.1,94.7v-0.6h0.6v0.5c0,0.2,0,0.3-0.1,0.4c-0.1,0-0.1,0-0.1-0.1c0,0.1-0.1,0.2-0.2,0.2
							C7.1,95,7.1,94.8,7.1,94.7z"/>
					</g>
				</g>
			</g>
			<g>
				<g>
					<polygon class="st4" points="14.8,24.6 22.7,24.6 19.9,21.6 17.9,22.6 					"/>
					<path class="st5" d="M18.9,4.4v18.2c0,0-3,2-4.1,2c0,0-1-12.4,0-20.9C14.8,3.7,16.9,3.3,18.9,4.4z"/>
					<path class="st6" d="M18.9,4.4v18.2c0,0,3,2,4.1,2c0,0,1-12.4,0-20.9C22.9,3.7,20.9,3.3,18.9,4.4z"/>
					<path class="st4" d="M14.8,3.7l4.1,1.7l4.1-1.7C22.9,3.7,19.9,3.1,14.8,3.7z"/>
					<polygon class="st7" points="17.7,8.4 17,8.4 16.7,6.6 17.8,6.1 					"/>
					<g>
						<path class="st8" d="M15.3,14c0.1-1.5,0.1-2.8-0.1-3.5c0.4-0.2,0.7-0.3,1-0.1c0.5,0.2,0.6,0.9,0.6,1.5c0,0.8-0.1,2-0.2,3
							c-0.1,1.3-0.1,2.4,0.1,3.2c-0.3,0.2-0.6,0.3-0.9,0.2c-0.4-0.1-0.5-0.6-0.6-1.3C15.1,16.1,15.2,15,15.3,14z"/>
						<path class="st9" d="M16.6,13.5c0,0.1,0,0.2-0.1,0.2c0,0-0.1-0.1-0.1-0.2c0-0.1,0-0.2,0.1-0.2C16.5,13.3,16.6,13.3,16.6,13.5
							 M16.6,13.5c0-0.2,0-0.3-0.1-0.3c-0.1,0-0.1,0.1-0.1,0.3c0,0.2,0,0.3,0.1,0.3C16.6,13.7,16.6,13.6,16.6,13.5z M16.5,12.8
							L16.5,12.8c0.1,0.1,0.1,0.2,0,0.2C16.5,13,16.5,12.9,16.5,12.8z M16.4,12.7v0.1h0.1c0,0.1,0,0.2,0,0.3c0,0.1,0.1,0,0.1-0.1
							l0-0.2H16.4z M16.6,12.2L16.6,12.2c0,0.1-0.1,0.1-0.2,0.1c-0.1,0-0.1,0.2,0,0.2c0,0,0.1,0,0.2,0v0.1c0,0-0.2,0-0.2,0
							c-0.1,0-0.1-0.2-0.1-0.3c0-0.1,0.1-0.1,0.1-0.1L16.6,12.2L16.6,12.2z M16.5,11.8L16.5,11.8c0.1,0.1,0.1,0.2,0,0.2
							C16.5,12,16.5,11.9,16.5,11.8z M16.4,11.7v0.1h0.1v0.1L16.4,12v0.1l0.1-0.1c0,0.1,0,0.1,0.1,0.1c0,0,0.1-0.1,0.1-0.2l0-0.2
							L16.4,11.7L16.4,11.7z M16.5,11.5L16.5,11.5L16.5,11.5L16.5,11.5c-0.1,0-0.1-0.1,0-0.2C16.5,11.2,16.6,11.3,16.5,11.5
							c0.1,0,0.1,0.1,0,0.1l0,0.1c0,0,0-0.1,0-0.2c0-0.3-0.2-0.3-0.2-0.2c0,0.1,0,0.3,0,0.4h0.1L16.5,11.5L16.5,11.5z M15.2,13.4
							c0-0.9,0-1.8-0.2-2.4c0-0.2,0-0.3,0-0.5c0.3-0.2,0.7-0.3,1.1-0.2c0.4,0.2,0.7,0.5,0.7,1.5c0,1-0.1,2.3-0.2,3.6
							c0,0.9,0,1.8,0.2,2.3c0,0.2-0.1,0.4-0.1,0.6c-0.3,0.3-0.7,0.3-1,0.2c-0.5-0.2-0.6-0.8-0.6-1.7C15.1,15.6,15.2,14.3,15.2,13.4z
							 M15.3,14c0.1-1.5,0.1-2.8-0.1-3.5c0.4-0.2,0.7-0.3,1-0.1c0.5,0.2,0.6,0.9,0.6,1.5c0,0.8-0.1,2-0.2,3
							c-0.1,1.3-0.1,2.4,0.1,3.2c-0.3,0.2-0.6,0.3-0.9,0.2c-0.4-0.1-0.5-0.6-0.6-1.3C15.1,16.1,15.2,15,15.3,14z"/>
						<path class="st10" d="M15.7,15.7v-0.3h0.5v0.3c0,0.1,0,0.2-0.1,0.2c-0.1,0-0.1-0.1-0.1-0.2v-0.1l-0.1-0.1v0.3
							c0,0.1,0,0.2-0.1,0.2C15.7,15.9,15.7,15.8,15.7,15.7 M15.5,15.7V15h0.8v0.7c0,0.3,0,0.5-0.2,0.5c-0.1,0-0.1,0-0.2-0.2
							c0,0.2-0.2,0.3-0.3,0.2C15.6,16.2,15.5,15.9,15.5,15.7z M16.1,17.2c0,0.2-0.1,0.4-0.2,0.4s-0.2-0.2-0.2-0.4s0.1-0.4,0.2-0.4
							S16.1,16.9,16.1,17.2z M16.3,17.2c0,0.4-0.2,0.8-0.4,0.8c-0.2,0-0.4-0.4-0.4-0.8s0.2-0.8,0.4-0.8
							C16.1,16.4,16.3,16.7,16.3,17.2z M16.3,14.8h-0.8v-0.4H16l-0.5-0.3v-0.4l0.5-0.2h-0.5v-0.4h0.8v0.6L15.9,14l0.4,0.2V14.8z
							 M16.3,12.6V13h-0.8v-0.4H16.3z M15.7,11.9v-0.3h0.5v0.3c0,0.1,0,0.2-0.1,0.2C16,12,16,12,16,11.8v-0.1l-0.1-0.1v0.3
							c0,0.1,0,0.2-0.1,0.2C15.7,12.1,15.7,12,15.7,11.9z M15.5,11.9v-0.8h0.8v0.7c0,0.3,0,0.5-0.2,0.5c-0.1,0-0.1,0-0.2-0.2
							c0,0.2-0.2,0.3-0.3,0.2C15.6,12.4,15.5,12.1,15.5,11.9z"/>
					</g>
				</g>
				<g>
					<polygon class="st4" points="14.8,45.9 22.7,45.9 19.9,42.9 17.9,43.9 					"/>
					<path class="st5" d="M18.9,25.6v18.2c0,0-3,2-4.1,2c0,0-1-12.4,0-20.9C14.8,25,16.9,24.6,18.9,25.6z"/>
					<path class="st6" d="M18.9,25.6v18.2c0,0,3,2,4.1,2c0,0,1-12.4,0-20.9C22.9,25,20.9,24.6,18.9,25.6z"/>
					<path class="st4" d="M14.8,25l4.1,1.7l4.1-1.7C22.9,25,19.9,24.3,14.8,25z"/>
					<polygon class="st7" points="17.7,29.7 17,29.7 16.7,27.9 17.8,27.3 					"/>
					<g>
						<path class="st8" d="M15.3,35.3c0.1-1.5,0.1-2.8-0.1-3.5c0.4-0.2,0.7-0.3,1-0.1c0.5,0.2,0.6,0.9,0.6,1.5c0,0.8-0.1,2-0.2,3
							c-0.1,1.3-0.1,2.4,0.1,3.2c-0.3,0.2-0.6,0.3-0.9,0.2c-0.4-0.1-0.5-0.6-0.6-1.3C15.1,37.4,15.2,36.3,15.3,35.3z"/>
						<path class="st9" d="M16.6,34.7c0,0.1,0,0.2-0.1,0.2c0,0-0.1-0.1-0.1-0.2c0-0.1,0-0.2,0.1-0.2C16.5,34.6,16.6,34.6,16.6,34.7
							 M16.6,34.7c0-0.2,0-0.3-0.1-0.3c-0.1,0-0.1,0.1-0.1,0.3c0,0.2,0,0.3,0.1,0.3C16.6,35,16.6,34.9,16.6,34.7z M16.5,34.1
							L16.5,34.1c0.1,0.1,0.1,0.2,0,0.2C16.5,34.3,16.5,34.2,16.5,34.1z M16.4,34v0.1h0.1c0,0.1,0,0.2,0,0.3c0,0.1,0.1,0,0.1-0.1
							l0-0.2H16.4z M16.6,33.5L16.6,33.5c0,0.1-0.1,0.1-0.2,0.1c-0.1,0-0.1,0.2,0,0.2c0,0,0.1,0,0.2,0v0.1c0,0-0.2,0-0.2,0
							c-0.1,0-0.1-0.2-0.1-0.3c0-0.1,0.1-0.1,0.1-0.1L16.6,33.5L16.6,33.5z M16.5,33.1L16.5,33.1c0.1,0.1,0.1,0.2,0,0.2
							C16.5,33.3,16.5,33.2,16.5,33.1z M16.4,33v0.1h0.1v0.1l-0.1,0.1v0.1l0.1-0.1c0,0.1,0,0.1,0.1,0.1c0,0,0.1-0.1,0.1-0.2l0-0.2
							L16.4,33L16.4,33z M16.5,32.7L16.5,32.7L16.5,32.7L16.5,32.7c-0.1,0-0.1-0.1,0-0.2C16.5,32.5,16.6,32.5,16.5,32.7
							c0.1,0,0.1,0.1,0,0.1l0,0.1c0,0,0-0.1,0-0.2c0-0.3-0.2-0.3-0.2-0.2c0,0.1,0,0.3,0,0.4h0.1L16.5,32.7L16.5,32.7z M15.2,34.6
							c0-0.9,0-1.8-0.2-2.4c0-0.2,0-0.3,0-0.5c0.3-0.2,0.7-0.3,1.1-0.2c0.4,0.2,0.7,0.5,0.7,1.5c0,1-0.1,2.3-0.2,3.6
							c0,0.9,0,1.8,0.2,2.3c0,0.2-0.1,0.4-0.1,0.6c-0.3,0.3-0.7,0.3-1,0.2c-0.5-0.2-0.6-0.8-0.6-1.7C15.1,36.9,15.2,35.6,15.2,34.6z
							 M15.3,35.3c0.1-1.5,0.1-2.8-0.1-3.5c0.4-0.2,0.7-0.3,1-0.1c0.5,0.2,0.6,0.9,0.6,1.5c0,0.8-0.1,2-0.2,3
							c-0.1,1.3-0.1,2.4,0.1,3.2c-0.3,0.2-0.6,0.3-0.9,0.2c-0.4-0.1-0.5-0.6-0.6-1.3C15.1,37.4,15.2,36.3,15.3,35.3z"/>
						<path class="st10" d="M15.7,37v-0.3h0.5v0.3c0,0.1,0,0.2-0.1,0.2c-0.1,0-0.1-0.1-0.1-0.2v-0.1l-0.1-0.1V37
							c0,0.1,0,0.2-0.1,0.2C15.7,37.2,15.7,37.1,15.7,37 M15.5,37v-0.8h0.8V37c0,0.3,0,0.5-0.2,0.5c-0.1,0-0.1,0-0.2-0.2
							c0,0.2-0.2,0.3-0.3,0.2C15.6,37.5,15.5,37.2,15.5,37z M16.1,38.4c0,0.2-0.1,0.4-0.2,0.4s-0.2-0.2-0.2-0.4s0.1-0.4,0.2-0.4
							S16.1,38.2,16.1,38.4z M16.3,38.4c0,0.4-0.2,0.8-0.4,0.8c-0.2,0-0.4-0.4-0.4-0.8c0-0.4,0.2-0.8,0.4-0.8
							C16.1,37.6,16.3,38,16.3,38.4z M16.3,36.1h-0.8v-0.4H16l-0.5-0.3V35l0.5-0.2h-0.5v-0.4h0.8V35l-0.4,0.2l0.4,0.2V36.1z
							 M16.3,33.9v0.4h-0.8v-0.4H16.3z M15.7,33.1v-0.3h0.5v0.3c0,0.1,0,0.2-0.1,0.2c-0.1,0-0.1-0.1-0.1-0.2V33l-0.1-0.1v0.3
							c0,0.1,0,0.2-0.1,0.2C15.7,33.4,15.7,33.3,15.7,33.1z M15.5,33.2v-0.8h0.8v0.7c0,0.3,0,0.5-0.2,0.5c-0.1,0-0.1,0-0.2-0.2
							c0,0.2-0.2,0.3-0.3,0.2C15.6,33.7,15.5,33.4,15.5,33.2z"/>
					</g>
				</g>
				<g>
					<polygon class="st11" points="14.8,67.2 22.7,67.1 19.9,64.1 17.9,65.1 					"/>
					<path class="st12" d="M18.9,46.9v18.2c0,0-3,2-4.1,2c0,0-1-12.4,0-20.9C14.8,46.3,16.9,45.9,18.9,46.9z"/>
					<path class="st13" d="M18.9,46.9v18.2c0,0,3,2,4.1,2c0,0,1-12.4,0-20.9C22.9,46.3,20.9,45.9,18.9,46.9z"/>
					<path class="st11" d="M14.8,46.3l4.1,1.7l4.1-1.7C22.9,46.3,19.9,45.6,14.8,46.3z"/>
					<polygon class="st7" points="17.7,51 17,51 16.7,49.2 17.8,48.6 					"/>
					<g>
						<path class="st8" d="M15.3,56.6c0.1-1.5,0.1-2.8-0.1-3.5c0.4-0.2,0.7-0.3,1-0.1c0.5,0.2,0.6,0.9,0.6,1.5c0,0.8-0.1,2-0.2,3
							c-0.1,1.3-0.1,2.4,0.1,3.2c-0.3,0.2-0.6,0.3-0.9,0.2c-0.4-0.1-0.5-0.6-0.6-1.3C15.1,58.7,15.2,57.6,15.3,56.6z"/>
						<path class="st9" d="M16.6,56c0,0.1,0,0.2-0.1,0.2c0,0-0.1-0.1-0.1-0.2c0-0.1,0-0.2,0.1-0.2C16.5,55.8,16.6,55.9,16.6,56
							 M16.6,56c0-0.2,0-0.3-0.1-0.3c-0.1,0-0.1,0.1-0.1,0.3c0,0.2,0,0.3,0.1,0.3C16.6,56.3,16.6,56.2,16.6,56z M16.5,55.4
							L16.5,55.4c0.1,0.1,0.1,0.2,0,0.2C16.5,55.6,16.5,55.5,16.5,55.4z M16.4,55.3v0.1h0.1c0,0.1,0,0.2,0,0.3c0,0.1,0.1,0,0.1-0.1
							l0-0.2H16.4z M16.6,54.7L16.6,54.7c0,0.1-0.1,0.1-0.2,0.1c-0.1,0-0.1,0.2,0,0.2c0,0,0.1,0,0.2,0v0.1c0,0-0.2,0-0.2,0
							c-0.1,0-0.1-0.2-0.1-0.3c0-0.1,0.1-0.1,0.1-0.1L16.6,54.7L16.6,54.7z M16.5,54.4L16.5,54.4c0.1,0.1,0.1,0.2,0,0.2
							C16.5,54.6,16.5,54.5,16.5,54.4z M16.4,54.3v0.1h0.1v0.1l-0.1,0.1v0.1l0.1-0.1c0,0.1,0,0.1,0.1,0.1c0,0,0.1-0.1,0.1-0.2l0-0.2
							L16.4,54.3L16.4,54.3z M16.5,54L16.5,54L16.5,54L16.5,54c-0.1,0-0.1-0.1,0-0.2C16.5,53.8,16.6,53.8,16.5,54
							c0.1,0,0.1,0.1,0,0.1l0,0.1c0,0,0-0.1,0-0.2c0-0.3-0.2-0.3-0.2-0.2c0,0.1,0,0.3,0,0.4h0.1L16.5,54L16.5,54z M15.2,55.9
							c0-0.9,0-1.8-0.2-2.4c0-0.2,0-0.3,0-0.5c0.3-0.2,0.7-0.3,1.1-0.2c0.4,0.2,0.7,0.5,0.7,1.5c0,1-0.1,2.3-0.2,3.6
							c0,0.9,0,1.8,0.2,2.3c0,0.2-0.1,0.4-0.1,0.6c-0.3,0.3-0.7,0.3-1,0.2c-0.5-0.2-0.6-0.8-0.6-1.7C15.1,58.1,15.2,56.9,15.2,55.9z
							 M15.3,56.6c0.1-1.5,0.1-2.8-0.1-3.5c0.4-0.2,0.7-0.3,1-0.1c0.5,0.2,0.6,0.9,0.6,1.5c0,0.8-0.1,2-0.2,3
							c-0.1,1.3-0.1,2.4,0.1,3.2c-0.3,0.2-0.6,0.3-0.9,0.2c-0.4-0.1-0.5-0.6-0.6-1.3C15.1,58.7,15.2,57.6,15.3,56.6z"/>
						<path class="st10" d="M15.7,58.2v-0.3h0.5v0.3c0,0.1,0,0.2-0.1,0.2c-0.1,0-0.1-0.1-0.1-0.2v-0.1L15.9,58v0.3
							c0,0.1,0,0.2-0.1,0.2C15.7,58.4,15.7,58.4,15.7,58.2 M15.5,58.3v-0.8h0.8v0.7c0,0.3,0,0.5-0.2,0.5c-0.1,0-0.1,0-0.2-0.2
							c0,0.2-0.2,0.3-0.3,0.2C15.6,58.8,15.5,58.5,15.5,58.3z M16.1,59.7c0,0.2-0.1,0.4-0.2,0.4s-0.2-0.2-0.2-0.4s0.1-0.4,0.2-0.4
							S16.1,59.5,16.1,59.7z M16.3,59.7c0,0.4-0.2,0.8-0.4,0.8c-0.2,0-0.4-0.4-0.4-0.8c0-0.4,0.2-0.8,0.4-0.8
							C16.1,58.9,16.3,59.3,16.3,59.7z M16.3,57.4h-0.8V57H16l-0.5-0.3v-0.4l0.5-0.2h-0.5v-0.4h0.8v0.6l-0.4,0.2l0.4,0.2V57.4z
							 M16.3,55.1v0.4h-0.8v-0.4H16.3z M15.7,54.4v-0.3h0.5v0.3c0,0.1,0,0.2-0.1,0.2c-0.1,0-0.1-0.1-0.1-0.2v-0.1l-0.1-0.1v0.3
							c0,0.1,0,0.2-0.1,0.2C15.7,54.6,15.7,54.5,15.7,54.4z M15.5,54.5v-0.8h0.8v0.7c0,0.3,0,0.5-0.2,0.5c-0.1,0-0.1,0-0.2-0.2
							c0,0.2-0.2,0.3-0.3,0.2C15.6,54.9,15.5,54.7,15.5,54.5z"/>
					</g>
				</g>
				<g>
					<polygon class="st14" points="14.8,88.4 22.7,88.4 19.9,85.4 17.9,86.4 					"/>
					<path class="st15" d="M18.9,68.2v18.2c0,0-3,2-4.1,2c0,0-1-12.4,0-20.9C14.8,67.5,16.9,67.2,18.9,68.2z"/>
					<path class="st16" d="M18.9,68.2v18.2c0,0,3,2,4.1,2c0,0,1-12.4,0-20.9C22.9,67.5,20.9,67.2,18.9,68.2z"/>
					<path class="st14" d="M14.8,67.5l4.1,1.7l4.1-1.7C22.9,67.5,19.9,66.9,14.8,67.5z"/>
					<polygon class="st7" points="17.7,72.2 17,72.2 16.7,70.5 17.8,69.9 					"/>
					<g>
						<path class="st8" d="M15.3,77.8c0.1-1.5,0.1-2.8-0.1-3.5c0.4-0.2,0.7-0.3,1-0.1c0.5,0.2,0.6,0.9,0.6,1.5c0,0.8-0.1,2-0.2,3
							c-0.1,1.3-0.1,2.4,0.1,3.2c-0.3,0.2-0.6,0.3-0.9,0.2c-0.4-0.1-0.5-0.6-0.6-1.3C15.1,79.9,15.2,78.9,15.3,77.8z"/>
						<path class="st9" d="M16.6,77.3c0,0.1,0,0.2-0.1,0.2c0,0-0.1-0.1-0.1-0.2c0-0.1,0-0.2,0.1-0.2C16.5,77.1,16.6,77.2,16.6,77.3
							 M16.6,77.3c0-0.2,0-0.3-0.1-0.3c-0.1,0-0.1,0.1-0.1,0.3c0,0.2,0,0.3,0.1,0.3C16.6,77.6,16.6,77.5,16.6,77.3z M16.5,76.7
							L16.5,76.7c0.1,0.1,0.1,0.2,0,0.2C16.5,76.8,16.5,76.7,16.5,76.7z M16.4,76.6v0.1h0.1c0,0.1,0,0.2,0,0.3c0,0.1,0.1,0,0.1-0.1
							l0-0.2H16.4z M16.6,76L16.6,76c0,0.1-0.1,0.1-0.2,0.1c-0.1,0-0.1,0.2,0,0.2c0,0,0.1,0,0.2,0v0.1c0,0-0.2,0-0.2,0
							c-0.1,0-0.1-0.2-0.1-0.3c0-0.1,0.1-0.1,0.1-0.1L16.6,76L16.6,76z M16.5,75.7L16.5,75.7c0.1,0.1,0.1,0.2,0,0.2
							C16.5,75.8,16.5,75.7,16.5,75.7z M16.4,75.6v0.1h0.1v0.1l-0.1,0.1V76l0.1-0.1c0,0.1,0,0.1,0.1,0.1c0,0,0.1-0.1,0.1-0.2l0-0.2
							L16.4,75.6L16.4,75.6z M16.5,75.3L16.5,75.3L16.5,75.3L16.5,75.3c-0.1,0-0.1-0.1,0-0.2C16.5,75.1,16.6,75.1,16.5,75.3
							c0.1,0,0.1,0.1,0,0.1l0,0.1c0,0,0-0.1,0-0.2c0-0.3-0.2-0.3-0.2-0.2c0,0.1,0,0.3,0,0.4h0.1L16.5,75.3L16.5,75.3z M15.2,77.2
							c0-0.9,0-1.8-0.2-2.4c0-0.2,0-0.3,0-0.5c0.3-0.2,0.7-0.3,1.1-0.2c0.4,0.2,0.7,0.5,0.7,1.5c0,1-0.1,2.3-0.2,3.6
							c0,0.9,0,1.8,0.2,2.3c0,0.2-0.1,0.4-0.1,0.6c-0.3,0.3-0.7,0.3-1,0.2c-0.5-0.2-0.6-0.8-0.6-1.7C15.1,79.4,15.2,78.2,15.2,77.2z
							 M15.3,77.8c0.1-1.5,0.1-2.8-0.1-3.5c0.4-0.2,0.7-0.3,1-0.1c0.5,0.2,0.6,0.9,0.6,1.5c0,0.8-0.1,2-0.2,3
							c-0.1,1.3-0.1,2.4,0.1,3.2c-0.3,0.2-0.6,0.3-0.9,0.2c-0.4-0.1-0.5-0.6-0.6-1.3C15.1,79.9,15.2,78.9,15.3,77.8z"/>
						<path class="st10" d="M15.7,79.5v-0.3h0.5v0.3c0,0.1,0,0.2-0.1,0.2c-0.1,0-0.1-0.1-0.1-0.2v-0.1l-0.1-0.1v0.3
							c0,0.1,0,0.2-0.1,0.2C15.7,79.7,15.7,79.6,15.7,79.5 M15.5,79.6v-0.8h0.8v0.7c0,0.3,0,0.5-0.2,0.5c-0.1,0-0.1,0-0.2-0.2
							c0,0.2-0.2,0.3-0.3,0.2C15.6,80,15.5,79.8,15.5,79.6z M16.1,81c0,0.2-0.1,0.4-0.2,0.4s-0.2-0.2-0.2-0.4c0-0.2,0.1-0.4,0.2-0.4
							S16.1,80.8,16.1,81z M16.3,81c0,0.4-0.2,0.8-0.4,0.8c-0.2,0-0.4-0.4-0.4-0.8c0-0.4,0.2-0.8,0.4-0.8
							C16.1,80.2,16.3,80.5,16.3,81z M16.3,78.6h-0.8v-0.4H16L15.5,78v-0.4l0.5-0.2h-0.5V77h0.8v0.6l-0.4,0.2l0.4,0.2V78.6z
							 M16.3,76.4v0.4h-0.8v-0.4H16.3z M15.7,75.7v-0.3h0.5v0.3c0,0.1,0,0.2-0.1,0.2c-0.1,0-0.1-0.1-0.1-0.2v-0.1l-0.1-0.1v0.3
							c0,0.1,0,0.2-0.1,0.2C15.7,75.9,15.7,75.8,15.7,75.7z M15.5,75.7V75h0.8v0.7c0,0.3,0,0.5-0.2,0.5c-0.1,0-0.1,0-0.2-0.2
							c0,0.2-0.2,0.3-0.3,0.2C15.6,76.2,15.5,75.9,15.5,75.7z"/>
					</g>
				</g>
				<g>
					<polygon class="st17" points="14.8,124.9 22.7,124.9 19.9,121.9 17.9,122.9 					"/>
					<path class="st18" d="M18.9,104.7v18.2c0,0-3,2-4.1,2c0,0-1-12.4,0-20.9C14.8,104,16.9,103.6,18.9,104.7z"/>
					<path class="st19" d="M18.9,104.7v18.2c0,0,3,2,4.1,2c0,0,1-12.4,0-20.9C22.9,104,20.9,103.6,18.9,104.7z"/>
					<path class="st17" d="M14.8,104l4.1,1.7l4.1-1.7C22.9,104,19.9,103.4,14.8,104z"/>
					<polygon class="st7" points="17.7,108.7 17,108.7 16.7,106.9 17.8,106.4 					"/>
					<g>
						<path class="st8" d="M15.3,114.3c0.1-1.5,0.1-2.8-0.1-3.5c0.4-0.2,0.7-0.3,1-0.1c0.5,0.2,0.6,0.9,0.6,1.5c0,0.8-0.1,2-0.2,3
							c-0.1,1.3-0.1,2.4,0.1,3.2c-0.3,0.2-0.6,0.3-0.9,0.2c-0.4-0.1-0.5-0.6-0.6-1.3C15.1,116.4,15.2,115.4,15.3,114.3z"/>
						<path class="st9" d="M16.6,113.8c0,0.1,0,0.2-0.1,0.2c0,0-0.1-0.1-0.1-0.2c0-0.1,0-0.2,0.1-0.2
							C16.5,113.6,16.6,113.6,16.6,113.8 M16.6,113.8c0-0.2,0-0.3-0.1-0.3c-0.1,0-0.1,0.1-0.1,0.3c0,0.2,0,0.3,0.1,0.3
							C16.6,114,16.6,113.9,16.6,113.8z M16.5,113.1L16.5,113.1c0.1,0.1,0.1,0.2,0,0.2C16.5,113.3,16.5,113.2,16.5,113.1z M16.4,113
							v0.1h0.1c0,0.1,0,0.2,0,0.3c0,0.1,0.1,0,0.1-0.1l0-0.2H16.4z M16.6,112.5L16.6,112.5c0,0.1-0.1,0.1-0.2,0.1
							c-0.1,0-0.1,0.2,0,0.2c0,0,0.1,0,0.2,0v0.1c0,0-0.2,0-0.2,0c-0.1,0-0.1-0.2-0.1-0.3c0-0.1,0.1-0.1,0.1-0.1L16.6,112.5
							L16.6,112.5z M16.5,112.1L16.5,112.1c0.1,0.1,0.1,0.2,0,0.2C16.5,112.3,16.5,112.2,16.5,112.1z M16.4,112v0.1h0.1v0.1
							l-0.1,0.1v0.1l0.1-0.1c0,0.1,0,0.1,0.1,0.1c0,0,0.1-0.1,0.1-0.2l0-0.2L16.4,112L16.4,112z M16.5,111.8L16.5,111.8L16.5,111.8
							L16.5,111.8c-0.1,0-0.1-0.1,0-0.2C16.5,111.5,16.6,111.6,16.5,111.8c0.1,0,0.1,0.1,0,0.1l0,0.1c0,0,0-0.1,0-0.2
							c0-0.3-0.2-0.3-0.2-0.2c0,0.1,0,0.3,0,0.4h0.1L16.5,111.8L16.5,111.8z M15.2,113.7c0-0.9,0-1.8-0.2-2.4c0-0.2,0-0.3,0-0.5
							c0.3-0.2,0.7-0.3,1.1-0.2c0.4,0.2,0.7,0.5,0.7,1.5c0,1-0.1,2.3-0.2,3.6c0,0.9,0,1.8,0.2,2.3c0,0.2-0.1,0.4-0.1,0.6
							c-0.3,0.3-0.7,0.3-1,0.2c-0.5-0.2-0.6-0.8-0.6-1.7C15.1,115.9,15.2,114.6,15.2,113.7z M15.3,114.3c0.1-1.5,0.1-2.8-0.1-3.5
							c0.4-0.2,0.7-0.3,1-0.1c0.5,0.2,0.6,0.9,0.6,1.5c0,0.8-0.1,2-0.2,3c-0.1,1.3-0.1,2.4,0.1,3.2c-0.3,0.2-0.6,0.3-0.9,0.2
							c-0.4-0.1-0.5-0.6-0.6-1.3C15.1,116.4,15.2,115.4,15.3,114.3z"/>
						<path class="st10" d="M15.7,116v-0.3h0.5v0.3c0,0.1,0,0.2-0.1,0.2c-0.1,0-0.1-0.1-0.1-0.2v-0.1l-0.1-0.1v0.3
							c0,0.1,0,0.2-0.1,0.2C15.7,116.2,15.7,116.1,15.7,116 M15.5,116v-0.8h0.8v0.7c0,0.3,0,0.5-0.2,0.5c-0.1,0-0.1,0-0.2-0.2
							c0,0.2-0.2,0.3-0.3,0.2C15.6,116.5,15.5,116.2,15.5,116z M16.1,117.5c0,0.2-0.1,0.4-0.2,0.4s-0.2-0.2-0.2-0.4
							c0-0.2,0.1-0.4,0.2-0.4S16.1,117.2,16.1,117.5z M16.3,117.5c0,0.4-0.2,0.8-0.4,0.8c-0.2,0-0.4-0.4-0.4-0.8
							c0-0.4,0.2-0.8,0.4-0.8C16.1,116.7,16.3,117,16.3,117.5z M16.3,115.1h-0.8v-0.4H16l-0.5-0.3v-0.4l0.5-0.2h-0.5v-0.4h0.8v0.6
							l-0.4,0.2l0.4,0.2V115.1z M16.3,112.9v0.4h-0.8v-0.4H16.3z M15.7,112.2v-0.3h0.5v0.3c0,0.1,0,0.2-0.1,0.2
							c-0.1,0-0.1-0.1-0.1-0.2V112l-0.1-0.1v0.3c0,0.1,0,0.2-0.1,0.2C15.7,112.4,15.7,112.3,15.7,112.2z M15.5,112.2v-0.8h0.8v0.7
							c0,0.3,0,0.5-0.2,0.5c-0.1,0-0.1,0-0.2-0.2c0,0.2-0.2,0.3-0.3,0.2C15.6,112.7,15.5,112.4,15.5,112.2z"/>
					</g>
				</g>
				<g>
					<polygon class="st17" points="14.8,146.2 22.7,146.2 19.9,143.2 17.9,144.2 					"/>
					<path class="st18" d="M18.9,125.9v18.2c0,0-3,2-4.1,2c0,0-1-12.4,0-20.9C14.8,125.3,16.9,124.9,18.9,125.9z"/>
					<path class="st19" d="M18.9,125.9v18.2c0,0,3,2,4.1,2c0,0,1-12.4,0-20.9C22.9,125.3,20.9,124.9,18.9,125.9z"/>
					<path class="st17" d="M14.8,125.3l4.1,1.7l4.1-1.7C22.9,125.3,19.9,124.6,14.8,125.3z"/>
					<polygon class="st7" points="17.7,130 17,130 16.7,128.2 17.8,127.7 					"/>
					<g>
						<path class="st8" d="M15.3,135.6c0.1-1.5,0.1-2.8-0.1-3.5c0.4-0.2,0.7-0.3,1-0.1c0.5,0.2,0.6,0.9,0.6,1.5c0,0.8-0.1,2-0.2,3
							c-0.1,1.3-0.1,2.4,0.1,3.2c-0.3,0.2-0.6,0.3-0.9,0.2c-0.4-0.1-0.5-0.6-0.6-1.3C15.1,137.7,15.2,136.6,15.3,135.6z"/>
						<path class="st9" d="M16.6,135c0,0.1,0,0.2-0.1,0.2c0,0-0.1-0.1-0.1-0.2c0-0.1,0-0.2,0.1-0.2C16.5,134.9,16.6,134.9,16.6,135
							 M16.6,135c0-0.2,0-0.3-0.1-0.3c-0.1,0-0.1,0.1-0.1,0.3c0,0.2,0,0.3,0.1,0.3C16.6,135.3,16.6,135.2,16.6,135z M16.5,134.4
							L16.5,134.4c0.1,0.1,0.1,0.2,0,0.2C16.5,134.6,16.5,134.5,16.5,134.4z M16.4,134.3v0.1h0.1c0,0.1,0,0.2,0,0.3
							c0,0.1,0.1,0,0.1-0.1l0-0.2H16.4z M16.6,133.8L16.6,133.8c0,0.1-0.1,0.1-0.2,0.1c-0.1,0-0.1,0.2,0,0.2c0,0,0.1,0,0.2,0v0.1
							c0,0-0.2,0-0.2,0c-0.1,0-0.1-0.2-0.1-0.3c0-0.1,0.1-0.1,0.1-0.1L16.6,133.8L16.6,133.8z M16.5,133.4L16.5,133.4
							c0.1,0.1,0.1,0.2,0,0.2C16.5,133.6,16.5,133.5,16.5,133.4z M16.4,133.3v0.1h0.1v0.1l-0.1,0.1v0.1l0.1-0.1c0,0.1,0,0.1,0.1,0.1
							c0,0,0.1-0.1,0.1-0.2l0-0.2L16.4,133.3L16.4,133.3z M16.5,133L16.5,133L16.5,133L16.5,133c-0.1,0-0.1-0.1,0-0.2
							C16.5,132.8,16.6,132.9,16.5,133c0.1,0,0.1,0.1,0,0.1l0,0.1c0,0,0-0.1,0-0.2c0-0.3-0.2-0.3-0.2-0.2c0,0.1,0,0.3,0,0.4h0.1
							L16.5,133L16.5,133z M15.2,134.9c0-0.9,0-1.8-0.2-2.4c0-0.2,0-0.3,0-0.5c0.3-0.2,0.7-0.3,1.1-0.2c0.4,0.2,0.7,0.5,0.7,1.5
							c0,1-0.1,2.3-0.2,3.6c0,0.9,0,1.8,0.2,2.3c0,0.2-0.1,0.4-0.1,0.6c-0.3,0.3-0.7,0.3-1,0.2c-0.5-0.2-0.6-0.8-0.6-1.7
							C15.1,137.2,15.2,135.9,15.2,134.9z M15.3,135.6c0.1-1.5,0.1-2.8-0.1-3.5c0.4-0.2,0.7-0.3,1-0.1c0.5,0.2,0.6,0.9,0.6,1.5
							c0,0.8-0.1,2-0.2,3c-0.1,1.3-0.1,2.4,0.1,3.2c-0.3,0.2-0.6,0.3-0.9,0.2c-0.4-0.1-0.5-0.6-0.6-1.3
							C15.1,137.7,15.2,136.6,15.3,135.6z"/>
						<path class="st10" d="M15.7,137.3v-0.3h0.5v0.3c0,0.1,0,0.2-0.1,0.2c-0.1,0-0.1-0.1-0.1-0.2v-0.1l-0.1-0.1v0.3
							c0,0.1,0,0.2-0.1,0.2C15.7,137.5,15.7,137.4,15.7,137.3 M15.5,137.3v-0.8h0.8v0.7c0,0.3,0,0.5-0.2,0.5c-0.1,0-0.1,0-0.2-0.2
							c0,0.2-0.2,0.3-0.3,0.2C15.6,137.8,15.5,137.5,15.5,137.3z M16.1,138.7c0,0.2-0.1,0.4-0.2,0.4s-0.2-0.2-0.2-0.4
							c0-0.2,0.1-0.4,0.2-0.4S16.1,138.5,16.1,138.7z M16.3,138.7c0,0.4-0.2,0.8-0.4,0.8c-0.2,0-0.4-0.4-0.4-0.8s0.2-0.8,0.4-0.8
							C16.1,137.9,16.3,138.3,16.3,138.7z M16.3,136.4h-0.8V136H16l-0.5-0.3v-0.4l0.5-0.2h-0.5v-0.4h0.8v0.6l-0.4,0.2l0.4,0.2V136.4
							z M16.3,134.2v0.4h-0.8v-0.4H16.3z M15.7,133.4v-0.3h0.5v0.3c0,0.1,0,0.2-0.1,0.2c-0.1,0-0.1-0.1-0.1-0.2v-0.1l-0.1-0.1v0.3
							c0,0.1,0,0.2-0.1,0.2C15.7,133.7,15.7,133.6,15.7,133.4z M15.5,133.5v-0.8h0.8v0.7c0,0.3,0,0.5-0.2,0.5c-0.1,0-0.1,0-0.2-0.2
							c0,0.2-0.2,0.3-0.3,0.2C15.6,134,15.5,133.7,15.5,133.5z"/>
					</g>
				</g>
				<g>
					<g>
						<polygon class="st20" points="14.7,103.9 20.4,103.9 18.4,101.7 16.9,102.4 						"/>
						<path class="st7" d="M17.7,89.2v13.2c0,0-2.2,1.5-2.9,1.5c0,0-0.7-9,0-15.2C14.7,88.7,16.2,88.5,17.7,89.2z"/>
						<path class="st21" d="M17.7,89.2v13.2c0,0,2.2,1.5,2.9,1.5c0,0,0.7-9,0-15.2C20.6,88.7,19.1,88.5,17.7,89.2z"/>
						<path class="st20" d="M14.7,88.7l2.9,1.2l2.9-1.2C20.6,88.7,18.4,88.3,14.7,88.7z"/>
						<g>
							<path class="st3" d="M16.8,92.2h-0.6l0,0L16,90.8l0.8-0.5L16.8,92.2z M16.3,92.1h0.4l0-1.6l-0.6,0.4L16.3,92.1z"/>
						</g>
					</g>
					<path class="st15" d="M16.6,93.2c0,0,0.3,1.8,0.2,7.2l-2.2-0.6v-6.6C14.7,93.2,14.4,92.8,16.6,93.2z"/>
					<g>
						<path class="st8" d="M15,96.2c0.1-1.1,0.1-2-0.1-2.5c0.3-0.1,0.5-0.2,0.7-0.1c0.4,0.2,0.5,0.7,0.5,1.1c0,0.6-0.1,1.5-0.1,2.2
							c-0.1,0.9-0.1,1.8,0.1,2.3c-0.2,0.2-0.5,0.2-0.7,0.1C15.1,99.3,15,99,15,98.4C14.9,97.7,15,97,15,96.2z"/>
						<path class="st9" d="M16,95.8c0,0.1,0,0.1-0.1,0.1c0,0-0.1,0-0.1-0.1c0-0.1,0-0.1,0.1-0.1C15.9,95.7,16,95.7,16,95.8 M16,95.8
							c0-0.1,0-0.2-0.1-0.2c-0.1,0-0.1,0.1-0.1,0.2c0,0.1,0,0.2,0.1,0.2C16,96,16,95.9,16,95.8z M15.9,95.4L15.9,95.4
							c0.1,0.1,0.1,0.1,0,0.1C15.9,95.5,15.9,95.4,15.9,95.4z M15.8,95.3L15.8,95.3L15.8,95.3c0.1,0.1,0.1,0.2,0.1,0.3
							c0,0,0.1,0,0.1-0.1l0-0.2H15.8z M16,94.9L16,94.9c0,0.1-0.1,0.1-0.1,0.1c0,0,0,0.2,0,0.2c0,0,0.1,0,0.1,0v0.1c0,0-0.1,0-0.1,0
							c0,0-0.1-0.2,0-0.2c0-0.1,0-0.1,0.1-0.1L16,94.9L16,94.9z M15.9,94.6L15.9,94.6c0.1,0.1,0.1,0.1,0,0.1
							C15.9,94.8,15.9,94.7,15.9,94.6z M15.8,94.6L15.8,94.6L15.8,94.6l0.1,0.1l-0.1,0.1v0.1l0.1-0.1c0,0,0,0.1,0,0.1
							c0,0,0-0.1,0-0.1l0-0.2L15.8,94.6L15.8,94.6z M15.9,94.4L15.9,94.4L15.9,94.4L15.9,94.4c-0.1,0-0.1-0.1,0-0.1
							C15.9,94.2,16,94.2,15.9,94.4C16,94.4,16,94.4,15.9,94.4l0.1,0.1C16,94.4,16,94.4,15.9,94.4c0.1-0.3,0-0.3-0.1-0.2
							c0,0.1,0,0.2,0,0.3h0.1L15.9,94.4L15.9,94.4z M15,95.7c0-0.7,0-1.3-0.1-1.7c0-0.1,0-0.3,0-0.4c0.2-0.2,0.5-0.2,0.8-0.1
							c0.3,0.1,0.5,0.4,0.5,1.1c0,0.7-0.1,1.7-0.1,2.6c0,0.7,0,1.3,0.1,1.7c0,0.1,0,0.3-0.1,0.4c-0.3,0.2-0.5,0.2-0.7,0.1
							c-0.3-0.1-0.5-0.6-0.5-1.2C14.9,97.3,15,96.4,15,95.7z M15,96.2c0.1-1.1,0.1-2-0.1-2.5c0.3-0.1,0.5-0.2,0.7-0.1
							c0.4,0.2,0.5,0.7,0.5,1.1c0,0.6-0.1,1.5-0.1,2.2c-0.1,0.9-0.1,1.8,0.1,2.3c-0.2,0.2-0.5,0.2-0.7,0.1C15.1,99.3,15,99,15,98.4
							C14.9,97.7,15,97,15,96.2z"/>
						<path class="st10" d="M15.3,97.4v-0.2h0.3v0.2c0,0.1,0,0.1,0,0.1c0,0-0.1,0-0.1-0.1v-0.1l-0.1-0.1v0.2c0,0.1,0,0.2-0.1,0.2
							C15.3,97.6,15.3,97.5,15.3,97.4 M15.2,97.5v-0.6h0.6v0.5c0,0.2,0,0.3-0.1,0.4c-0.1,0-0.1,0-0.1-0.1c0,0.1-0.1,0.2-0.2,0.2
							C15.2,97.8,15.2,97.6,15.2,97.5z M15.6,98.5c0,0.2-0.1,0.3-0.1,0.3c-0.1,0-0.1-0.1-0.1-0.3c0-0.2,0.1-0.3,0.1-0.3
							C15.6,98.2,15.6,98.3,15.6,98.5z M15.8,98.5c0,0.3-0.1,0.6-0.3,0.6c-0.2,0-0.3-0.3-0.3-0.6c0-0.3,0.1-0.6,0.3-0.6
							C15.6,97.9,15.8,98.2,15.8,98.5z M15.8,96.8h-0.6v-0.3h0.4l-0.4-0.2V96l0.3-0.2h-0.3v-0.3h0.6V96l-0.3,0.2l0.3,0.1V96.8z
							 M15.8,95.2v0.3h-0.6v-0.3H15.8z M15.3,94.6v-0.2h0.3v0.2c0,0.1,0,0.1,0,0.1c0,0-0.1,0-0.1-0.1v-0.1l-0.1-0.1v0.2
							c0,0.1,0,0.2-0.1,0.2C15.3,94.8,15.3,94.7,15.3,94.6z M15.2,94.7v-0.6h0.6v0.5c0,0.2,0,0.3-0.1,0.4c-0.1,0-0.1,0-0.1-0.1
							c0,0.1-0.1,0.2-0.2,0.2C15.2,95,15.2,94.8,15.2,94.7z"/>
					</g>
				</g>
			</g>
			<g>
				<g>
					<polygon class="st4" points="22.9,24.6 30.8,24.6 28,21.6 26,22.6 					"/>
					<path class="st5" d="M27,4.4v18.2c0,0-3,2-4.1,2c0,0-1-12.4,0-20.9C22.9,3.7,25,3.3,27,4.4z"/>
					<path class="st6" d="M27,4.4v18.2c0,0,3,2,4.1,2c0,0,1-12.4,0-20.9C31,3.7,29,3.3,27,4.4z"/>
					<path class="st4" d="M22.9,3.7L27,5.4L31,3.7C31,3.7,28,3.1,22.9,3.7z"/>
					<polygon class="st7" points="25.8,8.4 25.1,8.4 24.9,6.6 25.9,6.1 					"/>
					<g>
						<path class="st8" d="M23.4,14c0.1-1.5,0.1-2.8-0.1-3.5c0.4-0.2,0.7-0.3,1-0.1c0.5,0.2,0.6,0.9,0.6,1.5c0,0.8-0.1,2-0.2,3
							c-0.1,1.3-0.1,2.4,0.1,3.2c-0.3,0.2-0.6,0.3-0.9,0.2c-0.4-0.1-0.5-0.6-0.6-1.3C23.2,16.1,23.3,15,23.4,14z"/>
						<path class="st9" d="M24.7,13.5c0,0.1,0,0.2-0.1,0.2c0,0-0.1-0.1-0.1-0.2c0-0.1,0-0.2,0.1-0.2C24.6,13.3,24.7,13.3,24.7,13.5
							 M24.7,13.5c0-0.2,0-0.3-0.1-0.3c-0.1,0-0.1,0.1-0.1,0.3c0,0.2,0,0.3,0.1,0.3C24.7,13.7,24.7,13.6,24.7,13.5z M24.6,12.8
							L24.6,12.8c0.1,0.1,0.1,0.2,0,0.2C24.6,13,24.6,12.9,24.6,12.8z M24.5,12.7v0.1h0.1c0,0.1,0,0.2,0,0.3c0,0.1,0.1,0,0.1-0.1
							l0-0.2H24.5z M24.7,12.2L24.7,12.2c0,0.1-0.1,0.1-0.2,0.1c-0.1,0-0.1,0.2,0,0.2c0,0,0.1,0,0.2,0v0.1c0,0-0.2,0-0.2,0
							c-0.1,0-0.1-0.2-0.1-0.3c0-0.1,0.1-0.1,0.1-0.1L24.7,12.2L24.7,12.2z M24.6,11.8L24.6,11.8c0.1,0.1,0.1,0.2,0,0.2
							C24.6,12,24.6,11.9,24.6,11.8z M24.5,11.7v0.1h0.1v0.1L24.5,12v0.1l0.1-0.1c0,0.1,0,0.1,0.1,0.1c0,0,0.1-0.1,0.1-0.2l0-0.2
							L24.5,11.7L24.5,11.7z M24.6,11.5L24.6,11.5L24.6,11.5L24.6,11.5c-0.1,0-0.1-0.1,0-0.2C24.6,11.2,24.7,11.3,24.6,11.5
							c0.1,0,0.1,0.1,0,0.1l0,0.1c0,0,0-0.1,0-0.2c0-0.3-0.2-0.3-0.2-0.2c0,0.1,0,0.3,0,0.4h0.1L24.6,11.5L24.6,11.5z M23.3,13.4
							c0-0.9,0-1.8-0.2-2.4c0-0.2,0-0.3,0-0.5c0.3-0.2,0.7-0.3,1.1-0.2c0.4,0.2,0.7,0.5,0.7,1.5c0,1-0.1,2.3-0.2,3.6
							c0,0.9,0,1.8,0.2,2.3c0,0.2-0.1,0.4-0.1,0.6c-0.3,0.3-0.7,0.3-1,0.2c-0.5-0.2-0.6-0.8-0.6-1.7C23.2,15.6,23.3,14.3,23.3,13.4z
							 M23.4,14c0.1-1.5,0.1-2.8-0.1-3.5c0.4-0.2,0.7-0.3,1-0.1c0.5,0.2,0.6,0.9,0.6,1.5c0,0.8-0.1,2-0.2,3
							c-0.1,1.3-0.1,2.4,0.1,3.2c-0.3,0.2-0.6,0.3-0.9,0.2c-0.4-0.1-0.5-0.6-0.6-1.3C23.2,16.1,23.3,15,23.4,14z"/>
						<path class="st10" d="M23.8,15.7v-0.3h0.5v0.3c0,0.1,0,0.2-0.1,0.2c-0.1,0-0.1-0.1-0.1-0.2v-0.1L24,15.4v0.3
							c0,0.1,0,0.2-0.1,0.2C23.8,15.9,23.8,15.8,23.8,15.7 M23.6,15.7V15h0.8v0.7c0,0.3,0,0.5-0.2,0.5c-0.1,0-0.1,0-0.2-0.2
							c0,0.2-0.2,0.3-0.3,0.2C23.7,16.2,23.6,15.9,23.6,15.7z M24.2,17.2c0,0.2-0.1,0.4-0.2,0.4s-0.2-0.2-0.2-0.4s0.1-0.4,0.2-0.4
							S24.2,16.9,24.2,17.2z M24.4,17.2c0,0.4-0.2,0.8-0.4,0.8c-0.2,0-0.4-0.4-0.4-0.8s0.2-0.8,0.4-0.8
							C24.2,16.4,24.4,16.7,24.4,17.2z M24.4,14.8h-0.8v-0.4h0.5l-0.5-0.3v-0.4l0.5-0.2h-0.5v-0.4h0.8v0.6L24,14l0.4,0.2V14.8z
							 M24.4,12.6V13h-0.8v-0.4H24.4z M23.8,11.9v-0.3h0.5v0.3c0,0.1,0,0.2-0.1,0.2c-0.1,0-0.1-0.1-0.1-0.2v-0.1L24,11.6v0.3
							c0,0.1,0,0.2-0.1,0.2C23.8,12.1,23.8,12,23.8,11.9z M23.6,11.9v-0.8h0.8v0.7c0,0.3,0,0.5-0.2,0.5c-0.1,0-0.1,0-0.2-0.2
							c0,0.2-0.2,0.3-0.3,0.2C23.7,12.4,23.6,12.1,23.6,11.9z"/>
					</g>
				</g>
				<g>
					<polygon class="st4" points="22.9,45.9 30.8,45.9 28,42.9 26,43.9 					"/>
					<path class="st5" d="M27,25.6v18.2c0,0-3,2-4.1,2c0,0-1-12.4,0-20.9C22.9,25,25,24.6,27,25.6z"/>
					<path class="st6" d="M27,25.6v18.2c0,0,3,2,4.1,2c0,0,1-12.4,0-20.9C31,25,29,24.6,27,25.6z"/>
					<path class="st4" d="M22.9,25l4.1,1.7L31,25C31,25,28,24.3,22.9,25z"/>
					<polygon class="st7" points="25.8,29.7 25.1,29.7 24.9,27.9 25.9,27.3 					"/>
					<g>
						<path class="st8" d="M23.4,35.3c0.1-1.5,0.1-2.8-0.1-3.5c0.4-0.2,0.7-0.3,1-0.1c0.5,0.2,0.6,0.9,0.6,1.5c0,0.8-0.1,2-0.2,3
							c-0.1,1.3-0.1,2.4,0.1,3.2c-0.3,0.2-0.6,0.3-0.9,0.2c-0.4-0.1-0.5-0.6-0.6-1.3C23.2,37.4,23.3,36.3,23.4,35.3z"/>
						<path class="st9" d="M24.7,34.7c0,0.1,0,0.2-0.1,0.2c0,0-0.1-0.1-0.1-0.2c0-0.1,0-0.2,0.1-0.2C24.6,34.6,24.7,34.6,24.7,34.7
							 M24.7,34.7c0-0.2,0-0.3-0.1-0.3c-0.1,0-0.1,0.1-0.1,0.3c0,0.2,0,0.3,0.1,0.3C24.7,35,24.7,34.9,24.7,34.7z M24.6,34.1
							L24.6,34.1c0.1,0.1,0.1,0.2,0,0.2C24.6,34.3,24.6,34.2,24.6,34.1z M24.5,34v0.1h0.1c0,0.1,0,0.2,0,0.3c0,0.1,0.1,0,0.1-0.1
							l0-0.2H24.5z M24.7,33.5L24.7,33.5c0,0.1-0.1,0.1-0.2,0.1c-0.1,0-0.1,0.2,0,0.2c0,0,0.1,0,0.2,0v0.1c0,0-0.2,0-0.2,0
							c-0.1,0-0.1-0.2-0.1-0.3c0-0.1,0.1-0.1,0.1-0.1L24.7,33.5L24.7,33.5z M24.6,33.1L24.6,33.1c0.1,0.1,0.1,0.2,0,0.2
							C24.6,33.3,24.6,33.2,24.6,33.1z M24.5,33v0.1h0.1v0.1l-0.1,0.1v0.1l0.1-0.1c0,0.1,0,0.1,0.1,0.1c0,0,0.1-0.1,0.1-0.2l0-0.2
							L24.5,33L24.5,33z M24.6,32.7L24.6,32.7L24.6,32.7L24.6,32.7c-0.1,0-0.1-0.1,0-0.2C24.6,32.5,24.7,32.5,24.6,32.7
							c0.1,0,0.1,0.1,0,0.1l0,0.1c0,0,0-0.1,0-0.2c0-0.3-0.2-0.3-0.2-0.2c0,0.1,0,0.3,0,0.4h0.1L24.6,32.7L24.6,32.7z M23.3,34.6
							c0-0.9,0-1.8-0.2-2.4c0-0.2,0-0.3,0-0.5c0.3-0.2,0.7-0.3,1.1-0.2c0.4,0.2,0.7,0.5,0.7,1.5c0,1-0.1,2.3-0.2,3.6
							c0,0.9,0,1.8,0.2,2.3c0,0.2-0.1,0.4-0.1,0.6c-0.3,0.3-0.7,0.3-1,0.2c-0.5-0.2-0.6-0.8-0.6-1.7C23.2,36.9,23.3,35.6,23.3,34.6z
							 M23.4,35.3c0.1-1.5,0.1-2.8-0.1-3.5c0.4-0.2,0.7-0.3,1-0.1c0.5,0.2,0.6,0.9,0.6,1.5c0,0.8-0.1,2-0.2,3
							c-0.1,1.3-0.1,2.4,0.1,3.2c-0.3,0.2-0.6,0.3-0.9,0.2c-0.4-0.1-0.5-0.6-0.6-1.3C23.2,37.4,23.3,36.3,23.4,35.3z"/>
						<path class="st10" d="M23.8,37v-0.3h0.5v0.3c0,0.1,0,0.2-0.1,0.2c-0.1,0-0.1-0.1-0.1-0.2v-0.1L24,36.7V37c0,0.1,0,0.2-0.1,0.2
							C23.8,37.2,23.8,37.1,23.8,37 M23.6,37v-0.8h0.8V37c0,0.3,0,0.5-0.2,0.5c-0.1,0-0.1,0-0.2-0.2c0,0.2-0.2,0.3-0.3,0.2
							C23.7,37.5,23.6,37.2,23.6,37z M24.2,38.4c0,0.2-0.1,0.4-0.2,0.4s-0.2-0.2-0.2-0.4S23.9,38,24,38S24.2,38.2,24.2,38.4z
							 M24.4,38.4c0,0.4-0.2,0.8-0.4,0.8c-0.2,0-0.4-0.4-0.4-0.8c0-0.4,0.2-0.8,0.4-0.8C24.2,37.6,24.4,38,24.4,38.4z M24.4,36.1
							h-0.8v-0.4h0.5l-0.5-0.3V35l0.5-0.2h-0.5v-0.4h0.8V35L24,35.2l0.4,0.2V36.1z M24.4,33.9v0.4h-0.8v-0.4H24.4z M23.8,33.1v-0.3
							h0.5v0.3c0,0.1,0,0.2-0.1,0.2c-0.1,0-0.1-0.1-0.1-0.2V33L24,32.9v0.3c0,0.1,0,0.2-0.1,0.2C23.8,33.4,23.8,33.3,23.8,33.1z
							 M23.6,33.2v-0.8h0.8v0.7c0,0.3,0,0.5-0.2,0.5c-0.1,0-0.1,0-0.2-0.2c0,0.2-0.2,0.3-0.3,0.2C23.7,33.7,23.6,33.4,23.6,33.2z"/>
					</g>
				</g>
				<g>
					<polygon class="st11" points="22.9,67.2 30.8,67.1 28,64.1 26,65.1 					"/>
					<path class="st12" d="M27,46.9v18.2c0,0-3,2-4.1,2c0,0-1-12.4,0-20.9C22.9,46.3,25,45.9,27,46.9z"/>
					<path class="st13" d="M27,46.9v18.2c0,0,3,2,4.1,2c0,0,1-12.4,0-20.9C31,46.3,29,45.9,27,46.9z"/>
					<path class="st11" d="M22.9,46.3l4.1,1.7l4.1-1.7C31,46.3,28,45.6,22.9,46.3z"/>
					<polygon class="st7" points="25.8,51 25.1,51 24.9,49.2 25.9,48.6 					"/>
					<g>
						<path class="st8" d="M23.4,56.6c0.1-1.5,0.1-2.8-0.1-3.5c0.4-0.2,0.7-0.3,1-0.1c0.5,0.2,0.6,0.9,0.6,1.5c0,0.8-0.1,2-0.2,3
							c-0.1,1.3-0.1,2.4,0.1,3.2c-0.3,0.2-0.6,0.3-0.9,0.2c-0.4-0.1-0.5-0.6-0.6-1.3C23.2,58.7,23.3,57.6,23.4,56.6z"/>
						<path class="st9" d="M24.7,56c0,0.1,0,0.2-0.1,0.2c0,0-0.1-0.1-0.1-0.2c0-0.1,0-0.2,0.1-0.2C24.6,55.8,24.7,55.9,24.7,56
							 M24.7,56c0-0.2,0-0.3-0.1-0.3c-0.1,0-0.1,0.1-0.1,0.3c0,0.2,0,0.3,0.1,0.3C24.7,56.3,24.7,56.2,24.7,56z M24.6,55.4
							L24.6,55.4c0.1,0.1,0.1,0.2,0,0.2C24.6,55.6,24.6,55.5,24.6,55.4z M24.5,55.3v0.1h0.1c0,0.1,0,0.2,0,0.3c0,0.1,0.1,0,0.1-0.1
							l0-0.2H24.5z M24.7,54.7L24.7,54.7c0,0.1-0.1,0.1-0.2,0.1c-0.1,0-0.1,0.2,0,0.2c0,0,0.1,0,0.2,0v0.1c0,0-0.2,0-0.2,0
							c-0.1,0-0.1-0.2-0.1-0.3c0-0.1,0.1-0.1,0.1-0.1L24.7,54.7L24.7,54.7z M24.6,54.4L24.6,54.4c0.1,0.1,0.1,0.2,0,0.2
							C24.6,54.6,24.6,54.5,24.6,54.4z M24.5,54.3v0.1h0.1v0.1l-0.1,0.1v0.1l0.1-0.1c0,0.1,0,0.1,0.1,0.1c0,0,0.1-0.1,0.1-0.2l0-0.2
							L24.5,54.3L24.5,54.3z M24.6,54L24.6,54L24.6,54L24.6,54c-0.1,0-0.1-0.1,0-0.2C24.6,53.8,24.7,53.8,24.6,54
							c0.1,0,0.1,0.1,0,0.1l0,0.1c0,0,0-0.1,0-0.2c0-0.3-0.2-0.3-0.2-0.2c0,0.1,0,0.3,0,0.4h0.1L24.6,54L24.6,54z M23.3,55.9
							c0-0.9,0-1.8-0.2-2.4c0-0.2,0-0.3,0-0.5c0.3-0.2,0.7-0.3,1.1-0.2c0.4,0.2,0.7,0.5,0.7,1.5c0,1-0.1,2.3-0.2,3.6
							c0,0.9,0,1.8,0.2,2.3c0,0.2-0.1,0.4-0.1,0.6c-0.3,0.3-0.7,0.3-1,0.2c-0.5-0.2-0.6-0.8-0.6-1.7C23.2,58.1,23.3,56.9,23.3,55.9z
							 M23.4,56.6c0.1-1.5,0.1-2.8-0.1-3.5c0.4-0.2,0.7-0.3,1-0.1c0.5,0.2,0.6,0.9,0.6,1.5c0,0.8-0.1,2-0.2,3
							c-0.1,1.3-0.1,2.4,0.1,3.2c-0.3,0.2-0.6,0.3-0.9,0.2c-0.4-0.1-0.5-0.6-0.6-1.3C23.2,58.7,23.3,57.6,23.4,56.6z"/>
						<path class="st10" d="M23.8,58.2v-0.3h0.5v0.3c0,0.1,0,0.2-0.1,0.2c-0.1,0-0.1-0.1-0.1-0.2v-0.1L24,58v0.3
							c0,0.1,0,0.2-0.1,0.2C23.8,58.4,23.8,58.4,23.8,58.2 M23.6,58.3v-0.8h0.8v0.7c0,0.3,0,0.5-0.2,0.5c-0.1,0-0.1,0-0.2-0.2
							c0,0.2-0.2,0.3-0.3,0.2C23.7,58.8,23.6,58.5,23.6,58.3z M24.2,59.7c0,0.2-0.1,0.4-0.2,0.4s-0.2-0.2-0.2-0.4s0.1-0.4,0.2-0.4
							S24.2,59.5,24.2,59.7z M24.4,59.7c0,0.4-0.2,0.8-0.4,0.8c-0.2,0-0.4-0.4-0.4-0.8c0-0.4,0.2-0.8,0.4-0.8
							C24.2,58.9,24.4,59.3,24.4,59.7z M24.4,57.4h-0.8V57h0.5l-0.5-0.3v-0.4l0.5-0.2h-0.5v-0.4h0.8v0.6L24,56.5l0.4,0.2V57.4z
							 M24.4,55.1v0.4h-0.8v-0.4H24.4z M23.8,54.4v-0.3h0.5v0.3c0,0.1,0,0.2-0.1,0.2c-0.1,0-0.1-0.1-0.1-0.2v-0.1L24,54.2v0.3
							c0,0.1,0,0.2-0.1,0.2C23.8,54.6,23.8,54.5,23.8,54.4z M23.6,54.5v-0.8h0.8v0.7c0,0.3,0,0.5-0.2,0.5c-0.1,0-0.1,0-0.2-0.2
							c0,0.2-0.2,0.3-0.3,0.2C23.7,54.9,23.6,54.7,23.6,54.5z"/>
					</g>
				</g>
				<g>
					<polygon class="st14" points="22.9,88.4 30.8,88.4 28,85.4 26,86.4 					"/>
					<path class="st15" d="M27,68.2v18.2c0,0-3,2-4.1,2c0,0-1-12.4,0-20.9C22.9,67.5,25,67.2,27,68.2z"/>
					<path class="st16" d="M27,68.2v18.2c0,0,3,2,4.1,2c0,0,1-12.4,0-20.9C31,67.5,29,67.2,27,68.2z"/>
					<path class="st14" d="M22.9,67.5l4.1,1.7l4.1-1.7C31,67.5,28,66.9,22.9,67.5z"/>
					<polygon class="st7" points="25.8,72.2 25.1,72.2 24.9,70.5 25.9,69.9 					"/>
					<g>
						<path class="st8" d="M23.4,77.8c0.1-1.5,0.1-2.8-0.1-3.5c0.4-0.2,0.7-0.3,1-0.1c0.5,0.2,0.6,0.9,0.6,1.5c0,0.8-0.1,2-0.2,3
							c-0.1,1.3-0.1,2.4,0.1,3.2c-0.3,0.2-0.6,0.3-0.9,0.2c-0.4-0.1-0.5-0.6-0.6-1.3C23.2,79.9,23.3,78.9,23.4,77.8z"/>
						<path class="st9" d="M24.7,77.3c0,0.1,0,0.2-0.1,0.2c0,0-0.1-0.1-0.1-0.2c0-0.1,0-0.2,0.1-0.2C24.6,77.1,24.7,77.2,24.7,77.3
							 M24.7,77.3c0-0.2,0-0.3-0.1-0.3c-0.1,0-0.1,0.1-0.1,0.3c0,0.2,0,0.3,0.1,0.3C24.7,77.6,24.7,77.5,24.7,77.3z M24.6,76.7
							L24.6,76.7c0.1,0.1,0.1,0.2,0,0.2C24.6,76.8,24.6,76.7,24.6,76.7z M24.5,76.6v0.1h0.1c0,0.1,0,0.2,0,0.3c0,0.1,0.1,0,0.1-0.1
							l0-0.2H24.5z M24.7,76L24.7,76c0,0.1-0.1,0.1-0.2,0.1c-0.1,0-0.1,0.2,0,0.2c0,0,0.1,0,0.2,0v0.1c0,0-0.2,0-0.2,0
							c-0.1,0-0.1-0.2-0.1-0.3c0-0.1,0.1-0.1,0.1-0.1L24.7,76L24.7,76z M24.6,75.7L24.6,75.7c0.1,0.1,0.1,0.2,0,0.2
							C24.6,75.8,24.6,75.7,24.6,75.7z M24.5,75.6v0.1h0.1v0.1l-0.1,0.1V76l0.1-0.1c0,0.1,0,0.1,0.1,0.1c0,0,0.1-0.1,0.1-0.2l0-0.2
							L24.5,75.6L24.5,75.6z M24.6,75.3L24.6,75.3L24.6,75.3L24.6,75.3c-0.1,0-0.1-0.1,0-0.2C24.6,75.1,24.7,75.1,24.6,75.3
							c0.1,0,0.1,0.1,0,0.1l0,0.1c0,0,0-0.1,0-0.2c0-0.3-0.2-0.3-0.2-0.2c0,0.1,0,0.3,0,0.4h0.1L24.6,75.3L24.6,75.3z M23.3,77.2
							c0-0.9,0-1.8-0.2-2.4c0-0.2,0-0.3,0-0.5c0.3-0.2,0.7-0.3,1.1-0.2c0.4,0.2,0.7,0.5,0.7,1.5c0,1-0.1,2.3-0.2,3.6
							c0,0.9,0,1.8,0.2,2.3c0,0.2-0.1,0.4-0.1,0.6c-0.3,0.3-0.7,0.3-1,0.2c-0.5-0.2-0.6-0.8-0.6-1.7C23.2,79.4,23.3,78.2,23.3,77.2z
							 M23.4,77.8c0.1-1.5,0.1-2.8-0.1-3.5c0.4-0.2,0.7-0.3,1-0.1c0.5,0.2,0.6,0.9,0.6,1.5c0,0.8-0.1,2-0.2,3
							c-0.1,1.3-0.1,2.4,0.1,3.2c-0.3,0.2-0.6,0.3-0.9,0.2c-0.4-0.1-0.5-0.6-0.6-1.3C23.2,79.9,23.3,78.9,23.4,77.8z"/>
						<path class="st10" d="M23.8,79.5v-0.3h0.5v0.3c0,0.1,0,0.2-0.1,0.2c-0.1,0-0.1-0.1-0.1-0.2v-0.1L24,79.3v0.3
							c0,0.1,0,0.2-0.1,0.2C23.8,79.7,23.8,79.6,23.8,79.5 M23.6,79.6v-0.8h0.8v0.7c0,0.3,0,0.5-0.2,0.5c-0.1,0-0.1,0-0.2-0.2
							c0,0.2-0.2,0.3-0.3,0.2C23.7,80,23.6,79.8,23.6,79.6z M24.2,81c0,0.2-0.1,0.4-0.2,0.4s-0.2-0.2-0.2-0.4c0-0.2,0.1-0.4,0.2-0.4
							S24.2,80.8,24.2,81z M24.4,81c0,0.4-0.2,0.8-0.4,0.8c-0.2,0-0.4-0.4-0.4-0.8c0-0.4,0.2-0.8,0.4-0.8
							C24.2,80.2,24.4,80.5,24.4,81z M24.4,78.6h-0.8v-0.4h0.5L23.6,78v-0.4l0.5-0.2h-0.5V77h0.8v0.6L24,77.8l0.4,0.2V78.6z
							 M24.4,76.4v0.4h-0.8v-0.4H24.4z M23.8,75.7v-0.3h0.5v0.3c0,0.1,0,0.2-0.1,0.2c-0.1,0-0.1-0.1-0.1-0.2v-0.1L24,75.4v0.3
							c0,0.1,0,0.2-0.1,0.2C23.8,75.9,23.8,75.8,23.8,75.7z M23.6,75.7V75h0.8v0.7c0,0.3,0,0.5-0.2,0.5c-0.1,0-0.1,0-0.2-0.2
							c0,0.2-0.2,0.3-0.3,0.2C23.7,76.2,23.6,75.9,23.6,75.7z"/>
					</g>
				</g>
				<g>
					<polygon class="st17" points="22.9,124.9 30.8,124.9 28,121.9 26,122.9 					"/>
					<path class="st18" d="M27,104.7v18.2c0,0-3,2-4.1,2c0,0-1-12.4,0-20.9C22.9,104,25,103.6,27,104.7z"/>
					<path class="st19" d="M27,104.7v18.2c0,0,3,2,4.1,2c0,0,1-12.4,0-20.9C31,104,29,103.6,27,104.7z"/>
					<path class="st17" d="M22.9,104l4.1,1.7L31,104C31,104,28,103.4,22.9,104z"/>
					<polygon class="st7" points="25.8,108.7 25.1,108.7 24.9,106.9 25.9,106.4 					"/>
					<g>
						<path class="st8" d="M23.4,114.3c0.1-1.5,0.1-2.8-0.1-3.5c0.4-0.2,0.7-0.3,1-0.1c0.5,0.2,0.6,0.9,0.6,1.5c0,0.8-0.1,2-0.2,3
							c-0.1,1.3-0.1,2.4,0.1,3.2c-0.3,0.2-0.6,0.3-0.9,0.2c-0.4-0.1-0.5-0.6-0.6-1.3C23.2,116.4,23.3,115.4,23.4,114.3z"/>
						<path class="st9" d="M24.7,113.8c0,0.1,0,0.2-0.1,0.2c0,0-0.1-0.1-0.1-0.2c0-0.1,0-0.2,0.1-0.2
							C24.6,113.6,24.7,113.6,24.7,113.8 M24.7,113.8c0-0.2,0-0.3-0.1-0.3c-0.1,0-0.1,0.1-0.1,0.3c0,0.2,0,0.3,0.1,0.3
							C24.7,114,24.7,113.9,24.7,113.8z M24.6,113.1L24.6,113.1c0.1,0.1,0.1,0.2,0,0.2C24.6,113.3,24.6,113.2,24.6,113.1z M24.5,113
							v0.1h0.1c0,0.1,0,0.2,0,0.3c0,0.1,0.1,0,0.1-0.1l0-0.2H24.5z M24.7,112.5L24.7,112.5c0,0.1-0.1,0.1-0.2,0.1
							c-0.1,0-0.1,0.2,0,0.2c0,0,0.1,0,0.2,0v0.1c0,0-0.2,0-0.2,0c-0.1,0-0.1-0.2-0.1-0.3c0-0.1,0.1-0.1,0.1-0.1L24.7,112.5
							L24.7,112.5z M24.6,112.1L24.6,112.1c0.1,0.1,0.1,0.2,0,0.2C24.6,112.3,24.6,112.2,24.6,112.1z M24.5,112v0.1h0.1v0.1
							l-0.1,0.1v0.1l0.1-0.1c0,0.1,0,0.1,0.1,0.1c0,0,0.1-0.1,0.1-0.2l0-0.2L24.5,112L24.5,112z M24.6,111.8L24.6,111.8L24.6,111.8
							L24.6,111.8c-0.1,0-0.1-0.1,0-0.2C24.6,111.5,24.7,111.6,24.6,111.8c0.1,0,0.1,0.1,0,0.1l0,0.1c0,0,0-0.1,0-0.2
							c0-0.3-0.2-0.3-0.2-0.2c0,0.1,0,0.3,0,0.4h0.1L24.6,111.8L24.6,111.8z M23.3,113.7c0-0.9,0-1.8-0.2-2.4c0-0.2,0-0.3,0-0.5
							c0.3-0.2,0.7-0.3,1.1-0.2c0.4,0.2,0.7,0.5,0.7,1.5c0,1-0.1,2.3-0.2,3.6c0,0.9,0,1.8,0.2,2.3c0,0.2-0.1,0.4-0.1,0.6
							c-0.3,0.3-0.7,0.3-1,0.2c-0.5-0.2-0.6-0.8-0.6-1.7C23.2,115.9,23.3,114.6,23.3,113.7z M23.4,114.3c0.1-1.5,0.1-2.8-0.1-3.5
							c0.4-0.2,0.7-0.3,1-0.1c0.5,0.2,0.6,0.9,0.6,1.5c0,0.8-0.1,2-0.2,3c-0.1,1.3-0.1,2.4,0.1,3.2c-0.3,0.2-0.6,0.3-0.9,0.2
							c-0.4-0.1-0.5-0.6-0.6-1.3C23.2,116.4,23.3,115.4,23.4,114.3z"/>
						<path class="st10" d="M23.8,116v-0.3h0.5v0.3c0,0.1,0,0.2-0.1,0.2c-0.1,0-0.1-0.1-0.1-0.2v-0.1l-0.1-0.1v0.3
							c0,0.1,0,0.2-0.1,0.2C23.8,116.2,23.8,116.1,23.8,116 M23.6,116v-0.8h0.8v0.7c0,0.3,0,0.5-0.2,0.5c-0.1,0-0.1,0-0.2-0.2
							c0,0.2-0.2,0.3-0.3,0.2C23.7,116.5,23.6,116.2,23.6,116z M24.2,117.5c0,0.2-0.1,0.4-0.2,0.4s-0.2-0.2-0.2-0.4
							c0-0.2,0.1-0.4,0.2-0.4S24.2,117.2,24.2,117.5z M24.4,117.5c0,0.4-0.2,0.8-0.4,0.8c-0.2,0-0.4-0.4-0.4-0.8
							c0-0.4,0.2-0.8,0.4-0.8C24.2,116.7,24.4,117,24.4,117.5z M24.4,115.1h-0.8v-0.4h0.5l-0.5-0.3v-0.4l0.5-0.2h-0.5v-0.4h0.8v0.6
							l-0.4,0.2l0.4,0.2V115.1z M24.4,112.9v0.4h-0.8v-0.4H24.4z M23.8,112.2v-0.3h0.5v0.3c0,0.1,0,0.2-0.1,0.2
							c-0.1,0-0.1-0.1-0.1-0.2V112l-0.1-0.1v0.3c0,0.1,0,0.2-0.1,0.2C23.8,112.4,23.8,112.3,23.8,112.2z M23.6,112.2v-0.8h0.8v0.7
							c0,0.3,0,0.5-0.2,0.5c-0.1,0-0.1,0-0.2-0.2c0,0.2-0.2,0.3-0.3,0.2C23.7,112.7,23.6,112.4,23.6,112.2z"/>
					</g>
				</g>
				<g>
					<polygon class="st17" points="22.9,146.2 30.8,146.2 28,143.2 26,144.2 					"/>
					<path class="st18" d="M27,125.9v18.2c0,0-3,2-4.1,2c0,0-1-12.4,0-20.9C22.9,125.3,25,124.9,27,125.9z"/>
					<path class="st19" d="M27,125.9v18.2c0,0,3,2,4.1,2c0,0,1-12.4,0-20.9C31,125.3,29,124.9,27,125.9z"/>
					<path class="st17" d="M22.9,125.3l4.1,1.7l4.1-1.7C31,125.3,28,124.6,22.9,125.3z"/>
					<polygon class="st7" points="25.8,130 25.1,130 24.9,128.2 25.9,127.7 					"/>
					<g>
						<path class="st8" d="M23.4,135.6c0.1-1.5,0.1-2.8-0.1-3.5c0.4-0.2,0.7-0.3,1-0.1c0.5,0.2,0.6,0.9,0.6,1.5c0,0.8-0.1,2-0.2,3
							c-0.1,1.3-0.1,2.4,0.1,3.2c-0.3,0.2-0.6,0.3-0.9,0.2c-0.4-0.1-0.5-0.6-0.6-1.3C23.2,137.7,23.3,136.6,23.4,135.6z"/>
						<path class="st9" d="M24.7,135c0,0.1,0,0.2-0.1,0.2c0,0-0.1-0.1-0.1-0.2c0-0.1,0-0.2,0.1-0.2C24.6,134.9,24.7,134.9,24.7,135
							 M24.7,135c0-0.2,0-0.3-0.1-0.3c-0.1,0-0.1,0.1-0.1,0.3c0,0.2,0,0.3,0.1,0.3C24.7,135.3,24.7,135.2,24.7,135z M24.6,134.4
							L24.6,134.4c0.1,0.1,0.1,0.2,0,0.2C24.6,134.6,24.6,134.5,24.6,134.4z M24.5,134.3v0.1h0.1c0,0.1,0,0.2,0,0.3
							c0,0.1,0.1,0,0.1-0.1l0-0.2H24.5z M24.7,133.8L24.7,133.8c0,0.1-0.1,0.1-0.2,0.1c-0.1,0-0.1,0.2,0,0.2c0,0,0.1,0,0.2,0v0.1
							c0,0-0.2,0-0.2,0c-0.1,0-0.1-0.2-0.1-0.3c0-0.1,0.1-0.1,0.1-0.1L24.7,133.8L24.7,133.8z M24.6,133.4L24.6,133.4
							c0.1,0.1,0.1,0.2,0,0.2C24.6,133.6,24.6,133.5,24.6,133.4z M24.5,133.3v0.1h0.1v0.1l-0.1,0.1v0.1l0.1-0.1c0,0.1,0,0.1,0.1,0.1
							c0,0,0.1-0.1,0.1-0.2l0-0.2L24.5,133.3L24.5,133.3z M24.6,133L24.6,133L24.6,133L24.6,133c-0.1,0-0.1-0.1,0-0.2
							C24.6,132.8,24.7,132.9,24.6,133c0.1,0,0.1,0.1,0,0.1l0,0.1c0,0,0-0.1,0-0.2c0-0.3-0.2-0.3-0.2-0.2c0,0.1,0,0.3,0,0.4h0.1
							L24.6,133L24.6,133z M23.3,134.9c0-0.9,0-1.8-0.2-2.4c0-0.2,0-0.3,0-0.5c0.3-0.2,0.7-0.3,1.1-0.2c0.4,0.2,0.7,0.5,0.7,1.5
							c0,1-0.1,2.3-0.2,3.6c0,0.9,0,1.8,0.2,2.3c0,0.2-0.1,0.4-0.1,0.6c-0.3,0.3-0.7,0.3-1,0.2c-0.5-0.2-0.6-0.8-0.6-1.7
							C23.2,137.2,23.3,135.9,23.3,134.9z M23.4,135.6c0.1-1.5,0.1-2.8-0.1-3.5c0.4-0.2,0.7-0.3,1-0.1c0.5,0.2,0.6,0.9,0.6,1.5
							c0,0.8-0.1,2-0.2,3c-0.1,1.3-0.1,2.4,0.1,3.2c-0.3,0.2-0.6,0.3-0.9,0.2c-0.4-0.1-0.5-0.6-0.6-1.3
							C23.2,137.7,23.3,136.6,23.4,135.6z"/>
						<path class="st10" d="M23.8,137.3v-0.3h0.5v0.3c0,0.1,0,0.2-0.1,0.2c-0.1,0-0.1-0.1-0.1-0.2v-0.1L24,137v0.3
							c0,0.1,0,0.2-0.1,0.2C23.8,137.5,23.8,137.4,23.8,137.3 M23.6,137.3v-0.8h0.8v0.7c0,0.3,0,0.5-0.2,0.5c-0.1,0-0.1,0-0.2-0.2
							c0,0.2-0.2,0.3-0.3,0.2C23.7,137.8,23.6,137.5,23.6,137.3z M24.2,138.7c0,0.2-0.1,0.4-0.2,0.4s-0.2-0.2-0.2-0.4
							c0-0.2,0.1-0.4,0.2-0.4S24.2,138.5,24.2,138.7z M24.4,138.7c0,0.4-0.2,0.8-0.4,0.8c-0.2,0-0.4-0.4-0.4-0.8s0.2-0.8,0.4-0.8
							C24.2,137.9,24.4,138.3,24.4,138.7z M24.4,136.4h-0.8V136h0.5l-0.5-0.3v-0.4l0.5-0.2h-0.5v-0.4h0.8v0.6l-0.4,0.2l0.4,0.2
							V136.4z M24.4,134.2v0.4h-0.8v-0.4H24.4z M23.8,133.4v-0.3h0.5v0.3c0,0.1,0,0.2-0.1,0.2c-0.1,0-0.1-0.1-0.1-0.2v-0.1l-0.1-0.1
							v0.3c0,0.1,0,0.2-0.1,0.2C23.8,133.7,23.8,133.6,23.8,133.4z M23.6,133.5v-0.8h0.8v0.7c0,0.3,0,0.5-0.2,0.5
							c-0.1,0-0.1,0-0.2-0.2c0,0.2-0.2,0.3-0.3,0.2C23.7,134,23.6,133.7,23.6,133.5z"/>
					</g>
				</g>
				<g>
					<g>
						<polygon class="st20" points="22.8,103.9 28.5,103.9 26.5,101.7 25,102.4 						"/>
						<path class="st7" d="M25.8,89.2v13.2c0,0-2.2,1.5-2.9,1.5c0,0-0.7-9,0-15.2C22.8,88.7,24.3,88.5,25.8,89.2z"/>
						<path class="st21" d="M25.8,89.2v13.2c0,0,2.2,1.5,2.9,1.5c0,0,0.7-9,0-15.2C28.7,88.7,27.2,88.5,25.8,89.2z"/>
						<path class="st20" d="M22.8,88.7l2.9,1.2l2.9-1.2C28.7,88.7,26.5,88.3,22.8,88.7z"/>
						<g>
							<path class="st3" d="M24.9,92.2h-0.6l0,0l-0.2-1.3l0.8-0.5L24.9,92.2z M24.4,92.1h0.4l0-1.6l-0.6,0.4L24.4,92.1z"/>
						</g>
					</g>
					<path class="st15" d="M24.7,93.2c0,0,0.3,1.8,0.2,7.2l-2.2-0.6v-6.6C22.8,93.2,22.5,92.8,24.7,93.2z"/>
					<g>
						<path class="st8" d="M23.1,96.2c0.1-1.1,0.1-2-0.1-2.5c0.3-0.1,0.5-0.2,0.7-0.1c0.4,0.2,0.5,0.7,0.5,1.1
							c0,0.6-0.1,1.5-0.1,2.2c-0.1,0.9-0.1,1.8,0.1,2.3c-0.2,0.2-0.5,0.2-0.7,0.1c-0.3-0.1-0.4-0.4-0.4-0.9
							C23,97.7,23.1,97,23.1,96.2z"/>
						<path class="st9" d="M24.1,95.8c0,0.1,0,0.1-0.1,0.1c0,0-0.1,0-0.1-0.1c0-0.1,0-0.1,0.1-0.1C24,95.7,24.1,95.7,24.1,95.8
							 M24.1,95.8c0-0.1,0-0.2-0.1-0.2c-0.1,0-0.1,0.1-0.1,0.2c0,0.1,0,0.2,0.1,0.2C24.1,96,24.1,95.9,24.1,95.8z M24,95.4L24,95.4
							c0.1,0.1,0.1,0.1,0,0.1C24,95.5,24,95.4,24,95.4z M23.9,95.3L23.9,95.3L23.9,95.3c0.1,0.1,0.1,0.2,0.1,0.3c0,0,0.1,0,0.1-0.1
							l0-0.2H23.9z M24.1,94.9L24.1,94.9C24.1,95,24,95,24,95c0,0,0,0.2,0,0.2c0,0,0.1,0,0.1,0v0.1c0,0-0.1,0-0.1,0
							c0,0-0.1-0.2,0-0.2c0-0.1,0-0.1,0.1-0.1L24.1,94.9L24.1,94.9z M24,94.6L24,94.6c0.1,0.1,0.1,0.1,0,0.1
							C24,94.8,24,94.7,24,94.6z M23.9,94.6L23.9,94.6L23.9,94.6l0.1,0.1l-0.1,0.1v0.1l0.1-0.1c0,0,0,0.1,0,0.1c0,0,0-0.1,0-0.1
							l0-0.2L23.9,94.6L23.9,94.6z M24,94.4L24,94.4L24,94.4L24,94.4c-0.1,0-0.1-0.1,0-0.1C24,94.2,24.1,94.2,24,94.4
							C24.1,94.4,24.1,94.4,24,94.4l0.1,0.1C24.1,94.4,24.1,94.4,24,94.4c0.1-0.3,0-0.3-0.1-0.2c0,0.1,0,0.2,0,0.3H24L24,94.4
							L24,94.4z M23.1,95.7c0-0.7,0-1.3-0.1-1.7c0-0.1,0-0.3,0-0.4c0.2-0.2,0.5-0.2,0.8-0.1c0.3,0.1,0.5,0.4,0.5,1.1
							c0,0.7-0.1,1.7-0.1,2.6c0,0.7,0,1.3,0.1,1.7c0,0.1,0,0.3-0.1,0.4c-0.3,0.2-0.5,0.2-0.7,0.1c-0.3-0.1-0.5-0.6-0.5-1.2
							C23,97.3,23.1,96.4,23.1,95.7z M23.1,96.2c0.1-1.1,0.1-2-0.1-2.5c0.3-0.1,0.5-0.2,0.7-0.1c0.4,0.2,0.5,0.7,0.5,1.1
							c0,0.6-0.1,1.5-0.1,2.2c-0.1,0.9-0.1,1.8,0.1,2.3c-0.2,0.2-0.5,0.2-0.7,0.1c-0.3-0.1-0.4-0.4-0.4-0.9
							C23,97.7,23.1,97,23.1,96.2z"/>
						<path class="st10" d="M23.4,97.4v-0.2h0.3v0.2c0,0.1,0,0.1,0,0.1c0,0-0.1,0-0.1-0.1v-0.1l-0.1-0.1v0.2c0,0.1,0,0.2-0.1,0.2
							C23.4,97.6,23.4,97.5,23.4,97.4 M23.3,97.5v-0.6h0.6v0.5c0,0.2,0,0.3-0.1,0.4c-0.1,0-0.1,0-0.1-0.1c0,0.1-0.1,0.2-0.2,0.2
							C23.3,97.8,23.3,97.6,23.3,97.5z M23.7,98.5c0,0.2-0.1,0.3-0.1,0.3c-0.1,0-0.1-0.1-0.1-0.3c0-0.2,0.1-0.3,0.1-0.3
							C23.7,98.2,23.7,98.3,23.7,98.5z M23.9,98.5c0,0.3-0.1,0.6-0.3,0.6c-0.2,0-0.3-0.3-0.3-0.6c0-0.3,0.1-0.6,0.3-0.6
							C23.7,97.9,23.9,98.2,23.9,98.5z M23.9,96.8h-0.6v-0.3h0.4l-0.4-0.2V96l0.3-0.2h-0.3v-0.3h0.6V96l-0.3,0.2l0.3,0.1V96.8z
							 M23.9,95.2v0.3h-0.6v-0.3H23.9z M23.4,94.6v-0.2h0.3v0.2c0,0.1,0,0.1,0,0.1c0,0-0.1,0-0.1-0.1v-0.1l-0.1-0.1v0.2
							c0,0.1,0,0.2-0.1,0.2C23.4,94.8,23.4,94.7,23.4,94.6z M23.3,94.7v-0.6h0.6v0.5c0,0.2,0,0.3-0.1,0.4c-0.1,0-0.1,0-0.1-0.1
							c0,0.1-0.1,0.2-0.2,0.2C23.3,95,23.3,94.8,23.3,94.7z"/>
					</g>
				</g>
			</g>
			<g>
				<g>
					<polygon class="st4" points="31,24.6 38.9,24.6 36.1,21.6 34.1,22.6 					"/>
					<path class="st5" d="M35.1,4.4v18.2c0,0-3,2-4.1,2c0,0-1-12.4,0-20.9C31,3.7,33.1,3.3,35.1,4.4z"/>
					<path class="st6" d="M35.1,4.4v18.2c0,0,3,2,4.1,2c0,0,1-12.4,0-20.9C39.2,3.7,37.1,3.3,35.1,4.4z"/>
					<path class="st4" d="M31,3.7l4.1,1.7l4.1-1.7C39.2,3.7,36.1,3.1,31,3.7z"/>
					<polygon class="st7" points="33.9,8.4 33.2,8.4 33,6.6 34,6.1 					"/>
					<g>
						<path class="st8" d="M31.5,14c0.1-1.5,0.1-2.8-0.1-3.5c0.4-0.2,0.7-0.3,1-0.1c0.5,0.2,0.6,0.9,0.6,1.5c0,0.8-0.1,2-0.2,3
							c-0.1,1.3-0.1,2.4,0.1,3.2c-0.3,0.2-0.6,0.3-0.9,0.2c-0.4-0.1-0.5-0.6-0.6-1.3C31.3,16.1,31.4,15,31.5,14z"/>
						<path class="st9" d="M32.8,13.5c0,0.1,0,0.2-0.1,0.2c0,0-0.1-0.1-0.1-0.2c0-0.1,0-0.2,0.1-0.2C32.7,13.3,32.8,13.3,32.8,13.5
							 M32.8,13.5c0-0.2,0-0.3-0.1-0.3c-0.1,0-0.1,0.1-0.1,0.3c0,0.2,0,0.3,0.1,0.3C32.8,13.7,32.8,13.6,32.8,13.5z M32.7,12.8
							L32.7,12.8c0.1,0.1,0.1,0.2,0,0.2C32.7,13,32.7,12.9,32.7,12.8z M32.6,12.7v0.1h0.1c0,0.1,0,0.2,0,0.3c0,0.1,0.1,0,0.1-0.1
							l0-0.2H32.6z M32.8,12.2L32.8,12.2c0,0.1-0.1,0.1-0.2,0.1c-0.1,0-0.1,0.2,0,0.2c0,0,0.1,0,0.2,0v0.1c0,0-0.2,0-0.2,0
							c-0.1,0-0.1-0.2-0.1-0.3c0-0.1,0.1-0.1,0.1-0.1L32.8,12.2L32.8,12.2z M32.7,11.8L32.7,11.8c0.1,0.1,0.1,0.2,0,0.2
							C32.7,12,32.7,11.9,32.7,11.8z M32.6,11.7v0.1h0.1v0.1L32.6,12v0.1l0.1-0.1c0,0.1,0,0.1,0.1,0.1c0,0,0.1-0.1,0.1-0.2l0-0.2
							L32.6,11.7L32.6,11.7z M32.7,11.5L32.7,11.5L32.7,11.5L32.7,11.5c-0.1,0-0.1-0.1,0-0.2C32.7,11.2,32.8,11.3,32.7,11.5
							c0.1,0,0.1,0.1,0,0.1l0,0.1c0,0,0-0.1,0-0.2c0-0.3-0.2-0.3-0.2-0.2c0,0.1,0,0.3,0,0.4h0.1L32.7,11.5L32.7,11.5z M31.4,13.4
							c0-0.9,0-1.8-0.2-2.4c0-0.2,0-0.3,0-0.5c0.3-0.2,0.7-0.3,1.1-0.2c0.4,0.2,0.7,0.5,0.7,1.5c0,1-0.1,2.3-0.2,3.6
							c0,0.9,0,1.8,0.2,2.3c0,0.2-0.1,0.4-0.1,0.6c-0.3,0.3-0.7,0.3-1,0.2c-0.5-0.2-0.6-0.8-0.6-1.7C31.3,15.6,31.4,14.3,31.4,13.4z
							 M31.5,14c0.1-1.5,0.1-2.8-0.1-3.5c0.4-0.2,0.7-0.3,1-0.1c0.5,0.2,0.6,0.9,0.6,1.5c0,0.8-0.1,2-0.2,3
							c-0.1,1.3-0.1,2.4,0.1,3.2c-0.3,0.2-0.6,0.3-0.9,0.2c-0.4-0.1-0.5-0.6-0.6-1.3C31.3,16.1,31.4,15,31.5,14z"/>
						<path class="st10" d="M31.9,15.7v-0.3h0.5v0.3c0,0.1,0,0.2-0.1,0.2c-0.1,0-0.1-0.1-0.1-0.2v-0.1l-0.1-0.1v0.3
							c0,0.1,0,0.2-0.1,0.2C31.9,15.9,31.9,15.8,31.9,15.7 M31.7,15.7V15h0.8v0.7c0,0.3,0,0.5-0.2,0.5c-0.1,0-0.1,0-0.2-0.2
							c0,0.2-0.2,0.3-0.3,0.2C31.8,16.2,31.7,15.9,31.7,15.7z M32.3,17.2c0,0.2-0.1,0.4-0.2,0.4c-0.1,0-0.2-0.2-0.2-0.4
							s0.1-0.4,0.2-0.4C32.2,16.7,32.3,16.9,32.3,17.2z M32.5,17.2c0,0.4-0.2,0.8-0.4,0.8c-0.2,0-0.4-0.4-0.4-0.8s0.2-0.8,0.4-0.8
							C32.3,16.4,32.5,16.7,32.5,17.2z M32.5,14.8h-0.8v-0.4h0.5l-0.5-0.3v-0.4l0.5-0.2h-0.5v-0.4h0.8v0.6L32.1,14l0.4,0.2V14.8z
							 M32.5,12.6V13h-0.8v-0.4H32.5z M31.9,11.9v-0.3h0.5v0.3c0,0.1,0,0.2-0.1,0.2c-0.1,0-0.1-0.1-0.1-0.2v-0.1l-0.1-0.1v0.3
							c0,0.1,0,0.2-0.1,0.2C31.9,12.1,31.9,12,31.9,11.9z M31.7,11.9v-0.8h0.8v0.7c0,0.3,0,0.5-0.2,0.5c-0.1,0-0.1,0-0.2-0.2
							c0,0.2-0.2,0.3-0.3,0.2C31.8,12.4,31.7,12.1,31.7,11.9z"/>
					</g>
				</g>
				<g>
					<polygon class="st4" points="31,45.9 38.9,45.9 36.1,42.9 34.1,43.9 					"/>
					<path class="st5" d="M35.1,25.6v18.2c0,0-3,2-4.1,2c0,0-1-12.4,0-20.9C31,25,33.1,24.6,35.1,25.6z"/>
					<path class="st6" d="M35.1,25.6v18.2c0,0,3,2,4.1,2c0,0,1-12.4,0-20.9C39.2,25,37.1,24.6,35.1,25.6z"/>
					<path class="st4" d="M31,25l4.1,1.7l4.1-1.7C39.2,25,36.1,24.3,31,25z"/>
					<polygon class="st7" points="33.9,29.7 33.2,29.7 33,27.9 34,27.3 					"/>
					<g>
						<path class="st8" d="M31.5,35.3c0.1-1.5,0.1-2.8-0.1-3.5c0.4-0.2,0.7-0.3,1-0.1c0.5,0.2,0.6,0.9,0.6,1.5c0,0.8-0.1,2-0.2,3
							c-0.1,1.3-0.1,2.4,0.1,3.2c-0.3,0.2-0.6,0.3-0.9,0.2c-0.4-0.1-0.5-0.6-0.6-1.3C31.3,37.4,31.4,36.3,31.5,35.3z"/>
						<path class="st9" d="M32.8,34.7c0,0.1,0,0.2-0.1,0.2c0,0-0.1-0.1-0.1-0.2c0-0.1,0-0.2,0.1-0.2C32.7,34.6,32.8,34.6,32.8,34.7
							 M32.8,34.7c0-0.2,0-0.3-0.1-0.3c-0.1,0-0.1,0.1-0.1,0.3c0,0.2,0,0.3,0.1,0.3C32.8,35,32.8,34.9,32.8,34.7z M32.7,34.1
							L32.7,34.1c0.1,0.1,0.1,0.2,0,0.2C32.7,34.3,32.7,34.2,32.7,34.1z M32.6,34v0.1h0.1c0,0.1,0,0.2,0,0.3c0,0.1,0.1,0,0.1-0.1
							l0-0.2H32.6z M32.8,33.5L32.8,33.5c0,0.1-0.1,0.1-0.2,0.1c-0.1,0-0.1,0.2,0,0.2c0,0,0.1,0,0.2,0v0.1c0,0-0.2,0-0.2,0
							c-0.1,0-0.1-0.2-0.1-0.3c0-0.1,0.1-0.1,0.1-0.1L32.8,33.5L32.8,33.5z M32.7,33.1L32.7,33.1c0.1,0.1,0.1,0.2,0,0.2
							C32.7,33.3,32.7,33.2,32.7,33.1z M32.6,33v0.1h0.1v0.1l-0.1,0.1v0.1l0.1-0.1c0,0.1,0,0.1,0.1,0.1c0,0,0.1-0.1,0.1-0.2l0-0.2
							L32.6,33L32.6,33z M32.7,32.7L32.7,32.7L32.7,32.7L32.7,32.7c-0.1,0-0.1-0.1,0-0.2C32.7,32.5,32.8,32.5,32.7,32.7
							c0.1,0,0.1,0.1,0,0.1l0,0.1c0,0,0-0.1,0-0.2c0-0.3-0.2-0.3-0.2-0.2c0,0.1,0,0.3,0,0.4h0.1L32.7,32.7L32.7,32.7z M31.4,34.6
							c0-0.9,0-1.8-0.2-2.4c0-0.2,0-0.3,0-0.5c0.3-0.2,0.7-0.3,1.1-0.2c0.4,0.2,0.7,0.5,0.7,1.5c0,1-0.1,2.3-0.2,3.6
							c0,0.9,0,1.8,0.2,2.3c0,0.2-0.1,0.4-0.1,0.6c-0.3,0.3-0.7,0.3-1,0.2c-0.5-0.2-0.6-0.8-0.6-1.7C31.3,36.9,31.4,35.6,31.4,34.6z
							 M31.5,35.3c0.1-1.5,0.1-2.8-0.1-3.5c0.4-0.2,0.7-0.3,1-0.1c0.5,0.2,0.6,0.9,0.6,1.5c0,0.8-0.1,2-0.2,3
							c-0.1,1.3-0.1,2.4,0.1,3.2c-0.3,0.2-0.6,0.3-0.9,0.2c-0.4-0.1-0.5-0.6-0.6-1.3C31.3,37.4,31.4,36.3,31.5,35.3z"/>
						<path class="st10" d="M31.9,37v-0.3h0.5v0.3c0,0.1,0,0.2-0.1,0.2c-0.1,0-0.1-0.1-0.1-0.2v-0.1l-0.1-0.1V37
							c0,0.1,0,0.2-0.1,0.2C31.9,37.2,31.9,37.1,31.9,37 M31.7,37v-0.8h0.8V37c0,0.3,0,0.5-0.2,0.5c-0.1,0-0.1,0-0.2-0.2
							c0,0.2-0.2,0.3-0.3,0.2C31.8,37.5,31.7,37.2,31.7,37z M32.3,38.4c0,0.2-0.1,0.4-0.2,0.4c-0.1,0-0.2-0.2-0.2-0.4S32,38,32.1,38
							C32.2,38,32.3,38.2,32.3,38.4z M32.5,38.4c0,0.4-0.2,0.8-0.4,0.8c-0.2,0-0.4-0.4-0.4-0.8c0-0.4,0.2-0.8,0.4-0.8
							C32.3,37.6,32.5,38,32.5,38.4z M32.5,36.1h-0.8v-0.4h0.5l-0.5-0.3V35l0.5-0.2h-0.5v-0.4h0.8V35l-0.4,0.2l0.4,0.2V36.1z
							 M32.5,33.9v0.4h-0.8v-0.4H32.5z M31.9,33.1v-0.3h0.5v0.3c0,0.1,0,0.2-0.1,0.2c-0.1,0-0.1-0.1-0.1-0.2V33l-0.1-0.1v0.3
							c0,0.1,0,0.2-0.1,0.2C31.9,33.4,31.9,33.3,31.9,33.1z M31.7,33.2v-0.8h0.8v0.7c0,0.3,0,0.5-0.2,0.5c-0.1,0-0.1,0-0.2-0.2
							c0,0.2-0.2,0.3-0.3,0.2C31.8,33.7,31.7,33.4,31.7,33.2z"/>
					</g>
				</g>
				<g>
					<polygon class="st11" points="31,67.2 38.9,67.1 36.1,64.1 34.1,65.1 					"/>
					<path class="st12" d="M35.1,46.9v18.2c0,0-3,2-4.1,2c0,0-1-12.4,0-20.9C31,46.3,33.1,45.9,35.1,46.9z"/>
					<path class="st13" d="M35.1,46.9v18.2c0,0,3,2,4.1,2c0,0,1-12.4,0-20.9C39.2,46.3,37.1,45.9,35.1,46.9z"/>
					<path class="st11" d="M31,46.3l4.1,1.7l4.1-1.7C39.2,46.3,36.1,45.6,31,46.3z"/>
					<polygon class="st7" points="33.9,51 33.2,51 33,49.2 34,48.6 					"/>
					<g>
						<path class="st8" d="M31.5,56.6c0.1-1.5,0.1-2.8-0.1-3.5c0.4-0.2,0.7-0.3,1-0.1c0.5,0.2,0.6,0.9,0.6,1.5c0,0.8-0.1,2-0.2,3
							c-0.1,1.3-0.1,2.4,0.1,3.2C32.6,61,32.3,61,32,60.9c-0.4-0.1-0.5-0.6-0.6-1.3C31.3,58.7,31.4,57.6,31.5,56.6z"/>
						<path class="st9" d="M32.8,56c0,0.1,0,0.2-0.1,0.2c0,0-0.1-0.1-0.1-0.2c0-0.1,0-0.2,0.1-0.2C32.7,55.8,32.8,55.9,32.8,56
							 M32.8,56c0-0.2,0-0.3-0.1-0.3c-0.1,0-0.1,0.1-0.1,0.3c0,0.2,0,0.3,0.1,0.3C32.8,56.3,32.8,56.2,32.8,56z M32.7,55.4
							L32.7,55.4c0.1,0.1,0.1,0.2,0,0.2C32.7,55.6,32.7,55.5,32.7,55.4z M32.6,55.3v0.1h0.1c0,0.1,0,0.2,0,0.3c0,0.1,0.1,0,0.1-0.1
							l0-0.2H32.6z M32.8,54.7L32.8,54.7c0,0.1-0.1,0.1-0.2,0.1c-0.1,0-0.1,0.2,0,0.2c0,0,0.1,0,0.2,0v0.1c0,0-0.2,0-0.2,0
							c-0.1,0-0.1-0.2-0.1-0.3c0-0.1,0.1-0.1,0.1-0.1L32.8,54.7L32.8,54.7z M32.7,54.4L32.7,54.4c0.1,0.1,0.1,0.2,0,0.2
							C32.7,54.6,32.7,54.5,32.7,54.4z M32.6,54.3v0.1h0.1v0.1l-0.1,0.1v0.1l0.1-0.1c0,0.1,0,0.1,0.1,0.1c0,0,0.1-0.1,0.1-0.2l0-0.2
							L32.6,54.3L32.6,54.3z M32.7,54L32.7,54L32.7,54L32.7,54c-0.1,0-0.1-0.1,0-0.2C32.7,53.8,32.8,53.8,32.7,54
							c0.1,0,0.1,0.1,0,0.1l0,0.1c0,0,0-0.1,0-0.2c0-0.3-0.2-0.3-0.2-0.2c0,0.1,0,0.3,0,0.4h0.1L32.7,54L32.7,54z M31.4,55.9
							c0-0.9,0-1.8-0.2-2.4c0-0.2,0-0.3,0-0.5c0.3-0.2,0.7-0.3,1.1-0.2c0.4,0.2,0.7,0.5,0.7,1.5c0,1-0.1,2.3-0.2,3.6
							c0,0.9,0,1.8,0.2,2.3c0,0.2-0.1,0.4-0.1,0.6c-0.3,0.3-0.7,0.3-1,0.2c-0.5-0.2-0.6-0.8-0.6-1.7C31.3,58.1,31.4,56.9,31.4,55.9z
							 M31.5,56.6c0.1-1.5,0.1-2.8-0.1-3.5c0.4-0.2,0.7-0.3,1-0.1c0.5,0.2,0.6,0.9,0.6,1.5c0,0.8-0.1,2-0.2,3
							c-0.1,1.3-0.1,2.4,0.1,3.2C32.6,61,32.3,61,32,60.9c-0.4-0.1-0.5-0.6-0.6-1.3C31.3,58.7,31.4,57.6,31.5,56.6z"/>
						<path class="st10" d="M31.9,58.2v-0.3h0.5v0.3c0,0.1,0,0.2-0.1,0.2c-0.1,0-0.1-0.1-0.1-0.2v-0.1L32.1,58v0.3
							c0,0.1,0,0.2-0.1,0.2C31.9,58.4,31.9,58.4,31.9,58.2 M31.7,58.3v-0.8h0.8v0.7c0,0.3,0,0.5-0.2,0.5c-0.1,0-0.1,0-0.2-0.2
							c0,0.2-0.2,0.3-0.3,0.2C31.8,58.8,31.7,58.5,31.7,58.3z M32.3,59.7c0,0.2-0.1,0.4-0.2,0.4c-0.1,0-0.2-0.2-0.2-0.4
							s0.1-0.4,0.2-0.4C32.2,59.3,32.3,59.5,32.3,59.7z M32.5,59.7c0,0.4-0.2,0.8-0.4,0.8c-0.2,0-0.4-0.4-0.4-0.8
							c0-0.4,0.2-0.8,0.4-0.8C32.3,58.9,32.5,59.3,32.5,59.7z M32.5,57.4h-0.8V57h0.5l-0.5-0.3v-0.4l0.5-0.2h-0.5v-0.4h0.8v0.6
							l-0.4,0.2l0.4,0.2V57.4z M32.5,55.1v0.4h-0.8v-0.4H32.5z M31.9,54.4v-0.3h0.5v0.3c0,0.1,0,0.2-0.1,0.2c-0.1,0-0.1-0.1-0.1-0.2
							v-0.1l-0.1-0.1v0.3c0,0.1,0,0.2-0.1,0.2C31.9,54.6,31.9,54.5,31.9,54.4z M31.7,54.5v-0.8h0.8v0.7c0,0.3,0,0.5-0.2,0.5
							c-0.1,0-0.1,0-0.2-0.2c0,0.2-0.2,0.3-0.3,0.2C31.8,54.9,31.7,54.7,31.7,54.5z"/>
					</g>
				</g>
				<g>
					<polygon class="st14" points="31,88.4 38.9,88.4 36.1,85.4 34.1,86.4 					"/>
					<path class="st15" d="M35.1,68.2v18.2c0,0-3,2-4.1,2c0,0-1-12.4,0-20.9C31,67.5,33.1,67.2,35.1,68.2z"/>
					<path class="st16" d="M35.1,68.2v18.2c0,0,3,2,4.1,2c0,0,1-12.4,0-20.9C39.2,67.5,37.1,67.2,35.1,68.2z"/>
					<path class="st14" d="M31,67.5l4.1,1.7l4.1-1.7C39.2,67.5,36.1,66.9,31,67.5z"/>
					<polygon class="st7" points="33.9,72.2 33.2,72.2 33,70.5 34,69.9 					"/>
					<g>
						<path class="st8" d="M31.5,77.8c0.1-1.5,0.1-2.8-0.1-3.5c0.4-0.2,0.7-0.3,1-0.1c0.5,0.2,0.6,0.9,0.6,1.5c0,0.8-0.1,2-0.2,3
							c-0.1,1.3-0.1,2.4,0.1,3.2c-0.3,0.2-0.6,0.3-0.9,0.2c-0.4-0.1-0.5-0.6-0.6-1.3C31.3,79.9,31.4,78.9,31.5,77.8z"/>
						<path class="st9" d="M32.8,77.3c0,0.1,0,0.2-0.1,0.2c0,0-0.1-0.1-0.1-0.2c0-0.1,0-0.2,0.1-0.2C32.7,77.1,32.8,77.2,32.8,77.3
							 M32.8,77.3c0-0.2,0-0.3-0.1-0.3c-0.1,0-0.1,0.1-0.1,0.3c0,0.2,0,0.3,0.1,0.3C32.8,77.6,32.8,77.5,32.8,77.3z M32.7,76.7
							L32.7,76.7c0.1,0.1,0.1,0.2,0,0.2C32.7,76.8,32.7,76.7,32.7,76.7z M32.6,76.6v0.1h0.1c0,0.1,0,0.2,0,0.3c0,0.1,0.1,0,0.1-0.1
							l0-0.2H32.6z M32.8,76L32.8,76c0,0.1-0.1,0.1-0.2,0.1c-0.1,0-0.1,0.2,0,0.2c0,0,0.1,0,0.2,0v0.1c0,0-0.2,0-0.2,0
							c-0.1,0-0.1-0.2-0.1-0.3c0-0.1,0.1-0.1,0.1-0.1L32.8,76L32.8,76z M32.7,75.7L32.7,75.7c0.1,0.1,0.1,0.2,0,0.2
							C32.7,75.8,32.7,75.7,32.7,75.7z M32.6,75.6v0.1h0.1v0.1l-0.1,0.1V76l0.1-0.1c0,0.1,0,0.1,0.1,0.1c0,0,0.1-0.1,0.1-0.2l0-0.2
							L32.6,75.6L32.6,75.6z M32.7,75.3L32.7,75.3L32.7,75.3L32.7,75.3c-0.1,0-0.1-0.1,0-0.2C32.7,75.1,32.8,75.1,32.7,75.3
							c0.1,0,0.1,0.1,0,0.1l0,0.1c0,0,0-0.1,0-0.2c0-0.3-0.2-0.3-0.2-0.2c0,0.1,0,0.3,0,0.4h0.1L32.7,75.3L32.7,75.3z M31.4,77.2
							c0-0.9,0-1.8-0.2-2.4c0-0.2,0-0.3,0-0.5c0.3-0.2,0.7-0.3,1.1-0.2c0.4,0.2,0.7,0.5,0.7,1.5c0,1-0.1,2.3-0.2,3.6
							c0,0.9,0,1.8,0.2,2.3c0,0.2-0.1,0.4-0.1,0.6c-0.3,0.3-0.7,0.3-1,0.2c-0.5-0.2-0.6-0.8-0.6-1.7C31.3,79.4,31.4,78.2,31.4,77.2z
							 M31.5,77.8c0.1-1.5,0.1-2.8-0.1-3.5c0.4-0.2,0.7-0.3,1-0.1c0.5,0.2,0.6,0.9,0.6,1.5c0,0.8-0.1,2-0.2,3
							c-0.1,1.3-0.1,2.4,0.1,3.2c-0.3,0.2-0.6,0.3-0.9,0.2c-0.4-0.1-0.5-0.6-0.6-1.3C31.3,79.9,31.4,78.9,31.5,77.8z"/>
						<path class="st10" d="M31.9,79.5v-0.3h0.5v0.3c0,0.1,0,0.2-0.1,0.2c-0.1,0-0.1-0.1-0.1-0.2v-0.1l-0.1-0.1v0.3
							c0,0.1,0,0.2-0.1,0.2C31.9,79.7,31.9,79.6,31.9,79.5 M31.7,79.6v-0.8h0.8v0.7c0,0.3,0,0.5-0.2,0.5c-0.1,0-0.1,0-0.2-0.2
							c0,0.2-0.2,0.3-0.3,0.2C31.8,80,31.7,79.8,31.7,79.6z M32.3,81c0,0.2-0.1,0.4-0.2,0.4c-0.1,0-0.2-0.2-0.2-0.4
							c0-0.2,0.1-0.4,0.2-0.4C32.2,80.6,32.3,80.8,32.3,81z M32.5,81c0,0.4-0.2,0.8-0.4,0.8c-0.2,0-0.4-0.4-0.4-0.8
							c0-0.4,0.2-0.8,0.4-0.8C32.3,80.2,32.5,80.5,32.5,81z M32.5,78.6h-0.8v-0.4h0.5L31.7,78v-0.4l0.5-0.2h-0.5V77h0.8v0.6
							l-0.4,0.2l0.4,0.2V78.6z M32.5,76.4v0.4h-0.8v-0.4H32.5z M31.9,75.7v-0.3h0.5v0.3c0,0.1,0,0.2-0.1,0.2c-0.1,0-0.1-0.1-0.1-0.2
							v-0.1l-0.1-0.1v0.3c0,0.1,0,0.2-0.1,0.2C31.9,75.9,31.9,75.8,31.9,75.7z M31.7,75.7V75h0.8v0.7c0,0.3,0,0.5-0.2,0.5
							c-0.1,0-0.1,0-0.2-0.2c0,0.2-0.2,0.3-0.3,0.2C31.8,76.2,31.7,75.9,31.7,75.7z"/>
					</g>
				</g>
				<g>
					<polygon class="st17" points="31,124.9 38.9,124.9 36.1,121.9 34.1,122.9 					"/>
					<path class="st18" d="M35.1,104.7v18.2c0,0-3,2-4.1,2c0,0-1-12.4,0-20.9C31,104,33.1,103.6,35.1,104.7z"/>
					<path class="st19" d="M35.1,104.7v18.2c0,0,3,2,4.1,2c0,0,1-12.4,0-20.9C39.2,104,37.1,103.6,35.1,104.7z"/>
					<path class="st17" d="M31,104l4.1,1.7l4.1-1.7C39.2,104,36.1,103.4,31,104z"/>
					<polygon class="st7" points="33.9,108.7 33.2,108.7 33,106.9 34,106.4 					"/>
					<g>
						<path class="st8" d="M31.5,114.3c0.1-1.5,0.1-2.8-0.1-3.5c0.4-0.2,0.7-0.3,1-0.1c0.5,0.2,0.6,0.9,0.6,1.5c0,0.8-0.1,2-0.2,3
							c-0.1,1.3-0.1,2.4,0.1,3.2c-0.3,0.2-0.6,0.3-0.9,0.2c-0.4-0.1-0.5-0.6-0.6-1.3C31.3,116.4,31.4,115.4,31.5,114.3z"/>
						<path class="st9" d="M32.8,113.8c0,0.1,0,0.2-0.1,0.2c0,0-0.1-0.1-0.1-0.2c0-0.1,0-0.2,0.1-0.2
							C32.7,113.6,32.8,113.6,32.8,113.8 M32.8,113.8c0-0.2,0-0.3-0.1-0.3c-0.1,0-0.1,0.1-0.1,0.3c0,0.2,0,0.3,0.1,0.3
							C32.8,114,32.8,113.9,32.8,113.8z M32.7,113.1L32.7,113.1c0.1,0.1,0.1,0.2,0,0.2C32.7,113.3,32.7,113.2,32.7,113.1z M32.6,113
							v0.1h0.1c0,0.1,0,0.2,0,0.3c0,0.1,0.1,0,0.1-0.1l0-0.2H32.6z M32.8,112.5L32.8,112.5c0,0.1-0.1,0.1-0.2,0.1
							c-0.1,0-0.1,0.2,0,0.2c0,0,0.1,0,0.2,0v0.1c0,0-0.2,0-0.2,0c-0.1,0-0.1-0.2-0.1-0.3c0-0.1,0.1-0.1,0.1-0.1L32.8,112.5
							L32.8,112.5z M32.7,112.1L32.7,112.1c0.1,0.1,0.1,0.2,0,0.2C32.7,112.3,32.7,112.2,32.7,112.1z M32.6,112v0.1h0.1v0.1
							l-0.1,0.1v0.1l0.1-0.1c0,0.1,0,0.1,0.1,0.1c0,0,0.1-0.1,0.1-0.2l0-0.2L32.6,112L32.6,112z M32.7,111.8L32.7,111.8L32.7,111.8
							L32.7,111.8c-0.1,0-0.1-0.1,0-0.2C32.7,111.5,32.8,111.6,32.7,111.8c0.1,0,0.1,0.1,0,0.1l0,0.1c0,0,0-0.1,0-0.2
							c0-0.3-0.2-0.3-0.2-0.2c0,0.1,0,0.3,0,0.4h0.1L32.7,111.8L32.7,111.8z M31.4,113.7c0-0.9,0-1.8-0.2-2.4c0-0.2,0-0.3,0-0.5
							c0.3-0.2,0.7-0.3,1.1-0.2c0.4,0.2,0.7,0.5,0.7,1.5c0,1-0.1,2.3-0.2,3.6c0,0.9,0,1.8,0.2,2.3c0,0.2-0.1,0.4-0.1,0.6
							c-0.3,0.3-0.7,0.3-1,0.2c-0.5-0.2-0.6-0.8-0.6-1.7C31.3,115.9,31.4,114.6,31.4,113.7z M31.5,114.3c0.1-1.5,0.1-2.8-0.1-3.5
							c0.4-0.2,0.7-0.3,1-0.1c0.5,0.2,0.6,0.9,0.6,1.5c0,0.8-0.1,2-0.2,3c-0.1,1.3-0.1,2.4,0.1,3.2c-0.3,0.2-0.6,0.3-0.9,0.2
							c-0.4-0.1-0.5-0.6-0.6-1.3C31.3,116.4,31.4,115.4,31.5,114.3z"/>
						<path class="st10" d="M31.9,116v-0.3h0.5v0.3c0,0.1,0,0.2-0.1,0.2c-0.1,0-0.1-0.1-0.1-0.2v-0.1l-0.1-0.1v0.3
							c0,0.1,0,0.2-0.1,0.2C31.9,116.2,31.9,116.1,31.9,116 M31.7,116v-0.8h0.8v0.7c0,0.3,0,0.5-0.2,0.5c-0.1,0-0.1,0-0.2-0.2
							c0,0.2-0.2,0.3-0.3,0.2C31.8,116.5,31.7,116.2,31.7,116z M32.3,117.5c0,0.2-0.1,0.4-0.2,0.4c-0.1,0-0.2-0.2-0.2-0.4
							c0-0.2,0.1-0.4,0.2-0.4C32.2,117,32.3,117.2,32.3,117.5z M32.5,117.5c0,0.4-0.2,0.8-0.4,0.8c-0.2,0-0.4-0.4-0.4-0.8
							c0-0.4,0.2-0.8,0.4-0.8C32.3,116.7,32.5,117,32.5,117.5z M32.5,115.1h-0.8v-0.4h0.5l-0.5-0.3v-0.4l0.5-0.2h-0.5v-0.4h0.8v0.6
							l-0.4,0.2l0.4,0.2V115.1z M32.5,112.9v0.4h-0.8v-0.4H32.5z M31.9,112.2v-0.3h0.5v0.3c0,0.1,0,0.2-0.1,0.2
							c-0.1,0-0.1-0.1-0.1-0.2V112l-0.1-0.1v0.3c0,0.1,0,0.2-0.1,0.2C31.9,112.4,31.9,112.3,31.9,112.2z M31.7,112.2v-0.8h0.8v0.7
							c0,0.3,0,0.5-0.2,0.5c-0.1,0-0.1,0-0.2-0.2c0,0.2-0.2,0.3-0.3,0.2C31.8,112.7,31.7,112.4,31.7,112.2z"/>
					</g>
				</g>
				<g>
					<polygon class="st17" points="31,146.2 38.9,146.2 36.1,143.2 34.1,144.2 					"/>
					<path class="st18" d="M35.1,125.9v18.2c0,0-3,2-4.1,2c0,0-1-12.4,0-20.9C31,125.3,33.1,124.9,35.1,125.9z"/>
					<path class="st19" d="M35.1,125.9v18.2c0,0,3,2,4.1,2c0,0,1-12.4,0-20.9C39.2,125.3,37.1,124.9,35.1,125.9z"/>
					<path class="st17" d="M31,125.3l4.1,1.7l4.1-1.7C39.2,125.3,36.1,124.6,31,125.3z"/>
					<polygon class="st7" points="33.9,130 33.2,130 33,128.2 34,127.7 					"/>
					<g>
						<path class="st8" d="M31.5,135.6c0.1-1.5,0.1-2.8-0.1-3.5c0.4-0.2,0.7-0.3,1-0.1c0.5,0.2,0.6,0.9,0.6,1.5c0,0.8-0.1,2-0.2,3
							c-0.1,1.3-0.1,2.4,0.1,3.2c-0.3,0.2-0.6,0.3-0.9,0.2c-0.4-0.1-0.5-0.6-0.6-1.3C31.3,137.7,31.4,136.6,31.5,135.6z"/>
						<path class="st9" d="M32.8,135c0,0.1,0,0.2-0.1,0.2c0,0-0.1-0.1-0.1-0.2c0-0.1,0-0.2,0.1-0.2C32.7,134.9,32.8,134.9,32.8,135
							 M32.8,135c0-0.2,0-0.3-0.1-0.3c-0.1,0-0.1,0.1-0.1,0.3c0,0.2,0,0.3,0.1,0.3C32.8,135.3,32.8,135.2,32.8,135z M32.7,134.4
							L32.7,134.4c0.1,0.1,0.1,0.2,0,0.2C32.7,134.6,32.7,134.5,32.7,134.4z M32.6,134.3v0.1h0.1c0,0.1,0,0.2,0,0.3
							c0,0.1,0.1,0,0.1-0.1l0-0.2H32.6z M32.8,133.8L32.8,133.8c0,0.1-0.1,0.1-0.2,0.1c-0.1,0-0.1,0.2,0,0.2c0,0,0.1,0,0.2,0v0.1
							c0,0-0.2,0-0.2,0c-0.1,0-0.1-0.2-0.1-0.3c0-0.1,0.1-0.1,0.1-0.1L32.8,133.8L32.8,133.8z M32.7,133.4L32.7,133.4
							c0.1,0.1,0.1,0.2,0,0.2C32.7,133.6,32.7,133.5,32.7,133.4z M32.6,133.3v0.1h0.1v0.1l-0.1,0.1v0.1l0.1-0.1c0,0.1,0,0.1,0.1,0.1
							c0,0,0.1-0.1,0.1-0.2l0-0.2L32.6,133.3L32.6,133.3z M32.7,133L32.7,133L32.7,133L32.7,133c-0.1,0-0.1-0.1,0-0.2
							C32.7,132.8,32.8,132.9,32.7,133c0.1,0,0.1,0.1,0,0.1l0,0.1c0,0,0-0.1,0-0.2c0-0.3-0.2-0.3-0.2-0.2c0,0.1,0,0.3,0,0.4h0.1
							L32.7,133L32.7,133z M31.4,134.9c0-0.9,0-1.8-0.2-2.4c0-0.2,0-0.3,0-0.5c0.3-0.2,0.7-0.3,1.1-0.2c0.4,0.2,0.7,0.5,0.7,1.5
							c0,1-0.1,2.3-0.2,3.6c0,0.9,0,1.8,0.2,2.3c0,0.2-0.1,0.4-0.1,0.6c-0.3,0.3-0.7,0.3-1,0.2c-0.5-0.2-0.6-0.8-0.6-1.7
							C31.3,137.2,31.4,135.9,31.4,134.9z M31.5,135.6c0.1-1.5,0.1-2.8-0.1-3.5c0.4-0.2,0.7-0.3,1-0.1c0.5,0.2,0.6,0.9,0.6,1.5
							c0,0.8-0.1,2-0.2,3c-0.1,1.3-0.1,2.4,0.1,3.2c-0.3,0.2-0.6,0.3-0.9,0.2c-0.4-0.1-0.5-0.6-0.6-1.3
							C31.3,137.7,31.4,136.6,31.5,135.6z"/>
						<path class="st10" d="M31.9,137.3v-0.3h0.5v0.3c0,0.1,0,0.2-0.1,0.2c-0.1,0-0.1-0.1-0.1-0.2v-0.1l-0.1-0.1v0.3
							c0,0.1,0,0.2-0.1,0.2C31.9,137.5,31.9,137.4,31.9,137.3 M31.7,137.3v-0.8h0.8v0.7c0,0.3,0,0.5-0.2,0.5c-0.1,0-0.1,0-0.2-0.2
							c0,0.2-0.2,0.3-0.3,0.2C31.8,137.8,31.7,137.5,31.7,137.3z M32.3,138.7c0,0.2-0.1,0.4-0.2,0.4c-0.1,0-0.2-0.2-0.2-0.4
							c0-0.2,0.1-0.4,0.2-0.4C32.2,138.3,32.3,138.5,32.3,138.7z M32.5,138.7c0,0.4-0.2,0.8-0.4,0.8c-0.2,0-0.4-0.4-0.4-0.8
							s0.2-0.8,0.4-0.8C32.3,137.9,32.5,138.3,32.5,138.7z M32.5,136.4h-0.8V136h0.5l-0.5-0.3v-0.4l0.5-0.2h-0.5v-0.4h0.8v0.6
							l-0.4,0.2l0.4,0.2V136.4z M32.5,134.2v0.4h-0.8v-0.4H32.5z M31.9,133.4v-0.3h0.5v0.3c0,0.1,0,0.2-0.1,0.2
							c-0.1,0-0.1-0.1-0.1-0.2v-0.1l-0.1-0.1v0.3c0,0.1,0,0.2-0.1,0.2C31.9,133.7,31.9,133.6,31.9,133.4z M31.7,133.5v-0.8h0.8v0.7
							c0,0.3,0,0.5-0.2,0.5c-0.1,0-0.1,0-0.2-0.2c0,0.2-0.2,0.3-0.3,0.2C31.8,134,31.7,133.7,31.7,133.5z"/>
					</g>
				</g>
				<g>
					<g>
						<polygon class="st20" points="30.9,103.9 36.6,103.9 34.6,101.7 33.1,102.4 						"/>
						<path class="st7" d="M33.9,89.2v13.2c0,0-2.2,1.5-2.9,1.5c0,0-0.7-9,0-15.2C30.9,88.7,32.4,88.5,33.9,89.2z"/>
						<path class="st21" d="M33.9,89.2v13.2c0,0,2.2,1.5,2.9,1.5c0,0,0.7-9,0-15.2C36.8,88.7,35.3,88.5,33.9,89.2z"/>
						<path class="st20" d="M30.9,88.7l2.9,1.2l2.9-1.2C36.8,88.7,34.6,88.3,30.9,88.7z"/>
						<g>
							<path class="st3" d="M33.1,92.2h-0.6l0,0l-0.2-1.3l0.8-0.5L33.1,92.2z M32.5,92.1H33l0-1.6l-0.6,0.4L32.5,92.1z"/>
						</g>
					</g>
					<path class="st15" d="M32.8,93.2c0,0,0.3,1.8,0.2,7.2l-2.2-0.6v-6.6C30.9,93.2,30.6,92.8,32.8,93.2z"/>
					<g>
						<path class="st8" d="M31.2,96.2c0.1-1.1,0.1-2-0.1-2.5c0.3-0.1,0.5-0.2,0.7-0.1c0.4,0.2,0.5,0.7,0.5,1.1
							c0,0.6-0.1,1.5-0.1,2.2c-0.1,0.9-0.1,1.8,0.1,2.3c-0.2,0.2-0.5,0.2-0.7,0.1c-0.3-0.1-0.4-0.4-0.4-0.9
							C31.1,97.7,31.2,97,31.2,96.2z"/>
						<path class="st9" d="M32.2,95.8c0,0.1,0,0.1-0.1,0.1c0,0-0.1,0-0.1-0.1c0-0.1,0-0.1,0.1-0.1C32.2,95.7,32.2,95.7,32.2,95.8
							 M32.2,95.8c0-0.1,0-0.2-0.1-0.2c-0.1,0-0.1,0.1-0.1,0.2c0,0.1,0,0.2,0.1,0.2C32.2,96,32.2,95.9,32.2,95.8z M32.1,95.4
							L32.1,95.4c0.1,0.1,0.1,0.1,0,0.1C32.1,95.5,32.1,95.4,32.1,95.4z M32,95.3L32,95.3L32,95.3c0.1,0.1,0.1,0.2,0.1,0.3
							c0,0,0.1,0,0.1-0.1l0-0.2H32z M32.2,94.9L32.2,94.9c0,0.1-0.1,0.1-0.1,0.1c0,0,0,0.2,0,0.2c0,0,0.1,0,0.1,0v0.1
							c0,0-0.1,0-0.1,0c0,0-0.1-0.2,0-0.2c0-0.1,0-0.1,0.1-0.1L32.2,94.9L32.2,94.9z M32.1,94.6L32.1,94.6c0.1,0.1,0.1,0.1,0,0.1
							C32.1,94.8,32.1,94.7,32.1,94.6z M32,94.6L32,94.6L32,94.6l0.1,0.1L32,94.8v0.1l0.1-0.1c0,0,0,0.1,0,0.1c0,0,0-0.1,0-0.1
							l0-0.2L32,94.6L32,94.6z M32.1,94.4L32.1,94.4L32.1,94.4L32.1,94.4c-0.1,0-0.1-0.1,0-0.1C32.1,94.2,32.2,94.2,32.1,94.4
							C32.2,94.4,32.2,94.4,32.1,94.4l0.1,0.1C32.2,94.4,32.2,94.4,32.1,94.4c0.1-0.3,0-0.3-0.1-0.2c0,0.1,0,0.2,0,0.3h0.1
							L32.1,94.4L32.1,94.4z M31.2,95.7c0-0.7,0-1.3-0.1-1.7c0-0.1,0-0.3,0-0.4c0.2-0.2,0.5-0.2,0.8-0.1c0.3,0.1,0.5,0.4,0.5,1.1
							c0,0.7-0.1,1.7-0.1,2.6c0,0.7,0,1.3,0.1,1.7c0,0.1,0,0.3-0.1,0.4c-0.3,0.2-0.5,0.2-0.7,0.1c-0.3-0.1-0.5-0.6-0.5-1.2
							C31.1,97.3,31.2,96.4,31.2,95.7z M31.2,96.2c0.1-1.1,0.1-2-0.1-2.5c0.3-0.1,0.5-0.2,0.7-0.1c0.4,0.2,0.5,0.7,0.5,1.1
							c0,0.6-0.1,1.5-0.1,2.2c-0.1,0.9-0.1,1.8,0.1,2.3c-0.2,0.2-0.5,0.2-0.7,0.1c-0.3-0.1-0.4-0.4-0.4-0.9
							C31.1,97.7,31.2,97,31.2,96.2z"/>
						<path class="st10" d="M31.5,97.4v-0.2h0.3v0.2c0,0.1,0,0.1,0,0.1c0,0-0.1,0-0.1-0.1v-0.1l-0.1-0.1v0.2c0,0.1,0,0.2-0.1,0.2
							C31.6,97.6,31.5,97.5,31.5,97.4 M31.4,97.5v-0.6H32v0.5c0,0.2,0,0.3-0.1,0.4c-0.1,0-0.1,0-0.1-0.1c0,0.1-0.1,0.2-0.2,0.2
							C31.4,97.8,31.4,97.6,31.4,97.5z M31.8,98.5c0,0.2-0.1,0.3-0.1,0.3c-0.1,0-0.1-0.1-0.1-0.3c0-0.2,0.1-0.3,0.1-0.3
							C31.8,98.2,31.8,98.3,31.8,98.5z M32,98.5c0,0.3-0.1,0.6-0.3,0.6c-0.2,0-0.3-0.3-0.3-0.6c0-0.3,0.1-0.6,0.3-0.6
							C31.9,97.9,32,98.2,32,98.5z M32,96.8h-0.6v-0.3h0.4l-0.4-0.2V96l0.3-0.2h-0.3v-0.3H32V96l-0.3,0.2l0.3,0.1V96.8z M32,95.2
							v0.3h-0.6v-0.3H32z M31.5,94.6v-0.2h0.3v0.2c0,0.1,0,0.1,0,0.1c0,0-0.1,0-0.1-0.1v-0.1l-0.1-0.1v0.2c0,0.1,0,0.2-0.1,0.2
							C31.6,94.8,31.5,94.7,31.5,94.6z M31.4,94.7v-0.6H32v0.5c0,0.2,0,0.3-0.1,0.4c-0.1,0-0.1,0-0.1-0.1c0,0.1-0.1,0.2-0.2,0.2
							C31.4,95,31.4,94.8,31.4,94.7z"/>
					</g>
				</g>
			</g>
		</g>
	</g>
	
		<radialGradient id="SVGID_1_" cx="-256.5846" cy="-919.0829" r="41.4395" gradientTransform="matrix(0 1.2239 -0.5 0 -458.6672 389.1769)" gradientUnits="userSpaceOnUse">
		<stop  offset="0" style="stop-color:#3F56FF"/>
		<stop  offset="0.7019" style="stop-color:#2E4C9B"/>
	</radialGradient>
	<polygon class="st22" points="1.7,146.8 1.7,3.5 0,3.5 0,146.8 	"/>
</g>
</svg>
