<svg width="924" height="364" viewBox="0 0 924 364" fill="none" xmlns="http://www.w3.org/2000/svg">
<path d="M541.81 186.48L505.033 123.883C496.562 110.507 482.038 102.52 466.182 102.52H443.346C427.488 102.52 412.964 110.507 404.388 124.062L368.432 186.398C364.565 192.499 365.191 200.237 369.95 205.219C372.919 208.324 376.811 209.967 381.151 209.958C385.339 209.908 389.355 208.104 392.17 205.015C392.307 204.866 392.434 204.707 392.554 204.54L413.919 174.526V306.029C413.919 314.595 420.905 321.565 429.491 321.565C437.8 321.565 444.63 315.081 445.017 307.113L454.695 220.504C454.742 220.501 454.787 220.507 454.824 220.501L464.482 306.805C464.901 315.081 471.732 321.565 480.039 321.565C488.624 321.565 495.61 314.595 495.61 306.029V174.27L517.005 203.735C517.114 203.887 517.234 204.033 517.364 204.172C522.16 209.438 529.729 210.997 535.767 207.951C539.581 206.02 542.418 202.568 543.55 198.479C544.672 194.417 544.039 190.049 541.81 186.48ZM533.708 195.77C533.334 197.118 532.426 198.218 531.15 198.862C529.31 199.802 526.782 199.225 525.082 197.494L494.637 155.564C493.341 153.781 491.032 153.025 488.928 153.708C486.825 154.39 485.399 156.346 485.399 158.554V306.029C485.399 308.979 482.995 311.377 480.039 311.377C477.177 311.377 474.823 309.143 474.659 305.984L464.971 219.427C464.702 214.147 460.414 210.313 454.765 210.313C449.118 210.313 444.825 214.146 444.586 219.118L434.845 306.295C434.704 309.146 432.35 311.377 429.491 311.377C426.534 311.377 424.131 308.979 424.131 306.029V158.554C424.131 156.338 422.695 154.376 420.576 153.702C418.459 153.02 416.148 153.797 414.862 155.604L384.437 198.347C383.535 199.24 382.308 199.755 381.029 199.77C379.703 199.792 378.332 199.225 377.339 198.188C375.844 196.621 375.727 193.952 377.173 191.661L413.132 129.326C419.718 118.918 431.014 112.708 443.347 112.708H466.183C478.518 112.708 489.811 118.918 496.313 129.181L533.04 191.696C533.066 191.743 533.095 191.791 533.125 191.838C533.872 193.021 534.082 194.417 533.708 195.77Z" fill="white"/>
<path d="M454.433 96.8439C471.331 96.8439 485.076 83.0982 485.076 66.2003C485.076 49.3024 471.331 35.5566 454.433 35.5566C437.535 35.5566 423.789 49.3024 423.789 66.2003C423.789 83.0982 437.535 96.8439 454.433 96.8439ZM454.433 45.7712C465.7 45.7712 474.862 54.9357 474.862 66.2003C474.862 77.4649 465.7 86.6294 454.433 86.6294C443.168 86.6294 434.004 77.4649 434.004 66.2003C434.004 54.9357 443.168 45.7712 454.433 45.7712Z" fill="white"/>
<path d="M729.716 186.48L692.94 123.883C684.468 110.507 669.944 102.52 654.089 102.52H631.253C615.394 102.52 600.87 110.507 592.294 124.062L556.338 186.398C552.471 192.499 553.097 200.237 557.856 205.219C560.825 208.324 564.717 209.967 569.057 209.958C573.245 209.908 577.261 208.104 580.076 205.015C580.213 204.866 580.341 204.707 580.46 204.54L601.826 174.526V306.029C601.826 314.595 608.811 321.565 617.397 321.565C625.706 321.565 632.537 315.081 632.923 307.113L642.601 220.504C642.648 220.501 642.693 220.507 642.731 220.501L652.389 306.805C652.808 315.081 659.638 321.565 667.945 321.565C676.531 321.565 683.516 314.595 683.516 306.029V174.27L704.911 203.735C705.021 203.887 705.14 204.033 705.27 204.172C710.067 209.438 717.635 210.997 723.673 207.951C727.488 206.02 730.324 202.568 731.456 198.479C732.578 194.417 731.945 190.049 729.716 186.48ZM721.614 195.77C721.24 197.118 720.333 198.218 719.056 198.862C717.216 199.802 714.688 199.225 712.988 197.494L682.544 155.564C681.247 153.781 678.938 153.025 676.834 153.708C674.731 154.39 673.305 156.346 673.305 158.554V306.029C673.305 308.979 670.902 311.377 667.945 311.377C665.083 311.377 662.73 309.143 662.565 305.984L652.877 219.427C652.608 214.147 648.32 210.313 642.671 210.313C637.024 210.313 632.731 214.146 632.492 219.118L622.752 306.295C622.61 309.146 620.257 311.377 617.397 311.377C614.44 311.377 612.037 308.979 612.037 306.029V158.554C612.037 156.338 610.601 154.376 608.482 153.702C606.365 153.02 604.054 153.797 602.768 155.604L572.344 198.347C571.441 199.24 570.215 199.755 568.936 199.77C567.609 199.792 566.238 199.225 565.246 198.188C563.75 196.621 563.633 193.952 565.079 191.661L601.038 129.326C607.624 118.918 618.92 112.708 631.253 112.708H654.089C666.424 112.708 677.718 118.918 684.22 129.181L720.947 191.696C720.972 191.743 721.001 191.791 721.032 191.838C721.778 193.021 721.988 194.417 721.614 195.77Z" fill="white"/>
<path d="M642.339 96.8439C659.237 96.8439 672.983 83.0982 672.983 66.2003C672.983 49.3024 659.237 35.5566 642.339 35.5566C625.441 35.5566 611.695 49.3024 611.695 66.2003C611.695 83.0982 625.441 96.8439 642.339 96.8439ZM642.339 45.7712C653.606 45.7712 662.768 54.9357 662.768 66.2003C662.768 77.4649 653.606 86.6294 642.339 86.6294C631.074 86.6294 621.91 77.4649 621.91 66.2003C621.91 54.9357 631.074 45.7712 642.339 45.7712Z" fill="white"/>
<path d="M353.904 186.48L317.127 123.883C308.656 110.507 294.132 102.52 278.276 102.52H255.44C239.582 102.52 225.058 110.507 216.482 124.062L180.525 186.398C176.659 192.499 177.284 200.237 182.044 205.219C185.013 208.324 188.905 209.967 193.245 209.958C197.433 209.908 201.449 208.104 204.264 205.015C204.401 204.866 204.528 204.707 204.648 204.54L226.013 174.526V306.029C226.013 314.595 232.999 321.565 241.584 321.565C249.893 321.565 256.724 315.081 257.111 307.113L266.788 220.504C266.836 220.501 266.881 220.507 266.918 220.501L276.576 306.805C276.995 315.081 283.826 321.565 292.132 321.565C300.718 321.565 307.704 314.595 307.704 306.029V174.27L329.098 203.735C329.208 203.887 329.328 204.033 329.457 204.172C334.254 209.438 341.823 210.997 347.861 207.951C351.675 206.02 354.512 202.568 355.644 198.479C356.766 194.417 356.133 190.049 353.904 186.48ZM345.802 195.77C345.428 197.118 344.52 198.218 343.244 198.862C341.404 199.802 338.876 199.225 337.176 197.494L306.731 155.564C305.435 153.781 303.126 153.025 301.022 153.708C298.918 154.39 297.492 156.346 297.492 158.554V306.029C297.492 308.979 295.089 311.377 292.132 311.377C289.271 311.377 286.917 309.143 286.753 305.984L277.065 219.427C276.796 214.147 272.507 210.313 266.858 210.313C261.212 210.313 256.919 214.146 256.679 219.118L246.939 306.295C246.797 309.146 244.444 311.377 241.584 311.377C238.628 311.377 236.225 308.979 236.225 306.029V158.554C236.225 156.338 234.788 154.376 232.669 153.702C230.553 153.02 228.242 153.797 226.956 155.604L196.531 198.347C195.628 199.24 194.402 199.755 193.123 199.77C191.797 199.792 190.426 199.225 189.433 198.188C187.937 196.621 187.82 193.952 189.266 191.661L225.225 129.326C231.812 118.918 243.107 112.708 255.441 112.708H278.277C290.612 112.708 301.905 118.918 308.407 129.181L345.134 191.696C345.159 191.743 345.189 191.791 345.219 191.838C345.966 193.021 346.176 194.417 345.802 195.77Z" fill="white"/>
<path d="M266.526 96.8439C283.424 96.8439 297.17 83.0982 297.17 66.2003C297.17 49.3024 283.424 35.5566 266.526 35.5566C249.629 35.5566 235.883 49.3024 235.883 66.2003C235.883 83.0982 249.629 96.8439 266.526 96.8439ZM266.526 45.7712C277.794 45.7712 286.956 54.9357 286.956 66.2003C286.956 77.4649 277.794 86.6294 266.526 86.6294C255.262 86.6294 246.097 77.4649 246.097 66.2003C246.097 54.9357 255.262 45.7712 266.526 45.7712Z" fill="white"/>
<path d="M149.5 195.991C149.451 194.74 148.936 193.293 148.078 192.381L120.078 162.63C118.181 160.925 114.543 160.221 112.422 162.192C110.333 164.134 110.395 167.9 112.476 169.849L132.164 190.741L39.25 190.741C36.3506 190.741 34 193.091 34 195.991C34 198.89 36.3506 201.241 39.25 201.241L132.164 201.241L112.476 222.133C110.685 223.927 110.354 227.825 112.422 229.789C114.49 231.753 118.259 231.126 120.078 229.352L148.078 199.6C149.036 198.582 149.503 197.388 149.5 195.991Z" fill="white"/>
<path d="M761 195.991C761.049 194.74 761.564 193.293 762.422 192.381L790.422 162.63C792.319 160.925 795.957 160.221 798.078 162.192C800.167 164.134 800.105 167.9 798.024 169.849L778.336 190.741L871.25 190.741C874.149 190.741 876.5 193.091 876.5 195.991C876.5 198.89 874.149 201.241 871.25 201.241L778.336 201.241L798.024 222.133C799.815 223.927 800.146 227.825 798.078 229.789C796.01 231.753 792.241 231.126 790.422 229.352L762.422 199.6C761.464 198.582 760.997 197.388 761 195.991Z" fill="white"/>
</svg>
