<svg width="924" height="364" viewBox="0 0 924 364" fill="none" xmlns="http://www.w3.org/2000/svg">
<path d="M750.339 78.0721L733.751 49.8389C729.93 43.8056 723.38 40.2031 716.228 40.2031H705.928C698.776 40.2031 692.225 43.8056 688.357 49.9197L672.139 78.0352C670.395 80.7872 670.677 84.2773 672.824 86.5244C674.163 87.9245 675.918 88.666 677.876 88.6616C679.765 88.6391 681.576 87.8257 682.846 86.4325C682.908 86.3651 682.965 86.2935 683.019 86.2181L692.656 72.6806V131.993C692.656 135.857 695.806 139 699.679 139C703.426 139 706.507 136.076 706.682 132.482L711.047 93.4183C711.068 93.4172 711.088 93.4195 711.105 93.4172L715.461 132.343C715.65 136.076 718.731 139 722.478 139C726.35 139 729.501 135.857 729.501 131.993V72.565L739.151 85.8548C739.2 85.9233 739.254 85.9895 739.313 86.0522C741.476 88.4272 744.89 89.1305 747.613 87.7563C749.334 86.8858 750.613 85.3287 751.124 83.4842C751.63 81.652 751.344 79.6821 750.339 78.0721ZM746.685 82.2625C746.516 82.8705 746.107 83.3665 745.531 83.6569C744.701 84.0811 743.561 83.8208 742.794 83.0398L729.062 64.1282C728.478 63.3238 727.436 62.9828 726.487 63.2911C725.539 63.5988 724.895 64.4806 724.895 65.4769V131.993C724.895 133.324 723.811 134.405 722.478 134.405C721.187 134.405 720.125 133.398 720.051 131.973L715.682 92.9326C715.56 90.5509 713.626 88.822 711.078 88.822C708.531 88.822 706.595 90.5507 706.487 92.7934L702.094 132.113C702.03 133.399 700.969 134.405 699.679 134.405C698.345 134.405 697.261 133.324 697.261 131.993V65.4769C697.261 64.4772 696.614 63.5921 695.658 63.2882C694.703 62.9807 693.661 63.3309 693.081 64.1463L679.358 83.4247C678.951 83.8274 678.398 84.0597 677.821 84.0664C677.223 84.0765 676.604 83.8208 676.157 83.353C675.482 82.6462 675.429 81.4425 676.082 80.409L692.3 52.2936C695.271 47.5996 700.366 44.7983 705.929 44.7983H716.228C721.792 44.7983 726.886 47.5996 729.818 52.2286L746.384 80.4249C746.395 80.4463 746.408 80.4676 746.422 80.4888C746.759 81.0227 746.853 81.652 746.685 82.2625Z" fill="white"/>
<path d="M710.929 37.6428C718.55 37.6428 724.75 31.443 724.75 23.8214C724.75 16.1998 718.55 10 710.929 10C703.307 10 697.107 16.1998 697.107 23.8214C697.107 31.443 703.307 37.6428 710.929 37.6428ZM710.929 14.6071C716.011 14.6071 720.143 18.7406 720.143 23.8214C720.143 28.9021 716.011 33.0356 710.929 33.0356C705.848 33.0356 701.715 28.9021 701.715 23.8214C701.715 18.7406 705.848 14.6071 710.929 14.6071Z" fill="white"/>
<path d="M836.339 180.072L819.751 151.839C815.93 145.806 809.38 142.203 802.228 142.203H791.928C784.776 142.203 778.225 145.806 774.357 151.92L758.139 180.035C756.395 182.787 756.677 186.277 758.824 188.524C760.163 189.925 761.918 190.666 763.876 190.662C765.765 190.639 767.576 189.826 768.846 188.432C768.908 188.365 768.965 188.293 769.019 188.218L778.656 174.681V233.993C778.656 237.857 781.806 241 785.679 241C789.426 241 792.507 238.076 792.682 234.482L797.047 195.418C797.068 195.417 797.088 195.419 797.105 195.417L801.461 234.343C801.65 238.076 804.731 241 808.478 241C812.35 241 815.501 237.857 815.501 233.993V174.565L825.151 187.855C825.2 187.923 825.254 187.989 825.313 188.052C827.476 190.427 830.89 191.131 833.613 189.756C835.334 188.886 836.613 187.329 837.124 185.484C837.63 183.652 837.344 181.682 836.339 180.072ZM832.685 184.263C832.516 184.87 832.107 185.367 831.531 185.657C830.701 186.081 829.561 185.821 828.794 185.04L815.062 166.128C814.478 165.324 813.436 164.983 812.487 165.291C811.539 165.599 810.895 166.481 810.895 167.477V233.993C810.895 235.324 809.811 236.405 808.478 236.405C807.187 236.405 806.125 235.398 806.051 233.973L801.682 194.933C801.56 192.551 799.626 190.822 797.078 190.822C794.531 190.822 792.595 192.551 792.487 194.793L788.094 234.113C788.03 235.399 786.969 236.405 785.679 236.405C784.345 236.405 783.261 235.324 783.261 233.993V167.477C783.261 166.477 782.614 165.592 781.658 165.288C780.703 164.981 779.661 165.331 779.081 166.146L765.358 185.425C764.951 185.827 764.398 186.06 763.821 186.066C763.223 186.076 762.604 185.821 762.157 185.353C761.482 184.646 761.429 183.443 762.082 182.409L778.3 154.294C781.271 149.6 786.366 146.798 791.929 146.798H802.228C807.792 146.798 812.886 149.6 815.818 154.229L832.384 182.425C832.395 182.446 832.408 182.468 832.422 182.489C832.759 183.023 832.853 183.652 832.685 184.263Z" fill="white"/>
<path d="M796.929 139.643C804.55 139.643 810.75 133.443 810.75 125.821C810.75 118.2 804.55 112 796.929 112C789.307 112 783.107 118.2 783.107 125.821C783.107 133.443 789.307 139.643 796.929 139.643ZM796.929 116.607C802.011 116.607 806.143 120.741 806.143 125.821C806.143 130.902 802.011 135.036 796.929 135.036C791.848 135.036 787.715 130.902 787.715 125.821C787.715 120.741 791.848 116.607 796.929 116.607Z" fill="white"/>
<path d="M750.339 281.072L733.751 252.839C729.93 246.806 723.38 243.203 716.228 243.203H705.928C698.776 243.203 692.225 246.806 688.357 252.92L672.139 281.035C670.395 283.787 670.677 287.277 672.824 289.524C674.163 290.925 675.918 291.666 677.876 291.662C679.765 291.639 681.576 290.826 682.846 289.432C682.908 289.365 682.965 289.293 683.019 289.218L692.656 275.681V334.993C692.656 338.857 695.806 342 699.679 342C703.426 342 706.507 339.076 706.682 335.482L711.047 296.418C711.068 296.417 711.088 296.419 711.105 296.417L715.461 335.343C715.65 339.076 718.731 342 722.478 342C726.35 342 729.501 338.857 729.501 334.993V275.565L739.151 288.855C739.2 288.923 739.254 288.989 739.313 289.052C741.476 291.427 744.89 292.131 747.613 290.756C749.334 289.886 750.613 288.329 751.124 286.484C751.63 284.652 751.344 282.682 750.339 281.072ZM746.685 285.263C746.516 285.87 746.107 286.367 745.531 286.657C744.701 287.081 743.561 286.821 742.794 286.04L729.062 267.128C728.478 266.324 727.436 265.983 726.487 266.291C725.539 266.599 724.895 267.481 724.895 268.477V334.993C724.895 336.324 723.811 337.405 722.478 337.405C721.187 337.405 720.125 336.398 720.051 334.973L715.682 295.933C715.56 293.551 713.626 291.822 711.078 291.822C708.531 291.822 706.595 293.551 706.487 295.793L702.094 335.113C702.03 336.399 700.969 337.405 699.679 337.405C698.345 337.405 697.261 336.324 697.261 334.993V268.477C697.261 267.477 696.614 266.592 695.658 266.288C694.703 265.981 693.661 266.331 693.081 267.146L679.358 286.425C678.951 286.827 678.398 287.06 677.821 287.066C677.223 287.076 676.604 286.821 676.157 286.353C675.482 285.646 675.429 284.443 676.082 283.409L692.3 255.294C695.271 250.6 700.366 247.798 705.929 247.798H716.228C721.792 247.798 726.886 250.6 729.818 255.229L746.384 283.425C746.395 283.446 746.408 283.468 746.422 283.489C746.759 284.023 746.853 284.652 746.685 285.263Z" fill="white"/>
<path d="M710.929 240.643C718.55 240.643 724.75 234.443 724.75 226.821C724.75 219.2 718.55 213 710.929 213C703.307 213 697.107 219.2 697.107 226.821C697.107 234.443 703.307 240.643 710.929 240.643ZM710.929 217.607C716.011 217.607 720.143 221.741 720.143 226.821C720.143 231.902 716.011 236.036 710.929 236.036C705.848 236.036 701.715 231.902 701.715 226.821C701.715 221.741 705.848 217.607 710.929 217.607Z" fill="white"/>
<g clip-path="url(#clip0)">
<path d="M108.033 82.1534L208.473 48.2564C209.625 47.8719 210.777 47.936 211.866 48.3845C212.634 48.2564 213.466 48.3845 214.17 48.6408L267.943 70.1068C271.016 71.3243 273 74.2078 273 77.4758V233.184C273 236.26 270.695 238.823 267.687 239.208L214.362 246C214.106 246 213.914 246.064 213.658 246.064C213.018 246.064 212.378 245.936 211.802 245.744C211.417 245.872 210.969 245.936 210.521 245.936C210.393 245.936 210.201 245.936 210.073 245.936L109.889 234.786C106.881 234.466 104.64 231.967 104.64 228.955L104 87.8564C104 85.2292 105.6 82.9865 108.033 82.1534ZM208.025 169.427L110.786 177.245L110.914 200.569L208.025 201.146V169.427ZM208.025 163.019V131.301L110.658 146.872L110.786 170.837L208.025 163.019ZM208.025 124.829V93.2389L110.53 118.101L110.658 140.4L208.025 124.829ZM110.53 111.501L208.025 86.6389V55.1767L110.402 88.1127L110.53 111.501ZM266.598 77.4758C266.598 76.835 266.214 76.3224 265.638 76.0661L214.746 55.7534V239.464L266.598 232.928V77.4758ZM208.025 239.208V207.553L110.914 206.977L110.978 228.443L208.025 239.208Z" fill="white"/>
</g>
<path d="M471.549 253.844L459.697 293.142C458.736 296.322 455.383 298.121 452.205 297.162C449.026 296.2 447.227 292.849 448.185 289.67L448.186 289.671L456.088 263.464C426.837 283.351 400.337 291.522 377.576 292.875C350.824 294.48 329.482 286.714 314.938 278.569C300.373 270.412 292.487 261.889 292.181 261.565C289.934 259.121 290.089 255.318 292.53 253.069C293.591 252.092 294.908 251.57 296.241 251.491C297.98 251.387 299.753 252.038 301.026 253.418L301.026 253.421C301.026 253.421 301.026 253.421 301.054 253.448C301.643 254.078 309.043 261.721 322.048 268.759C335.073 275.802 353.591 282.261 376.857 280.872C397.357 279.636 421.722 272.328 449.56 253.362L423.866 245.382C420.695 244.398 418.92 241.028 419.906 237.857C420.671 235.4 422.867 233.783 425.293 233.639C425.996 233.597 426.719 233.678 427.435 233.899L467.577 246.368C470.729 247.349 472.502 250.686 471.549 253.844Z" fill="white"/>
<mask id="mask0" mask-type="alpha" maskUnits="userSpaceOnUse" x="39" y="213" width="95" height="100">
<path d="M133.087 264.497C122.472 229.638 96.3969 216.555 83.0278 213L72.4732 227.017C58.6014 224.884 54.8794 233.814 54.3796 234.635C51.9671 238.596 52.2686 240.12 51.0624 244.081L45.182 262.974L39 281.866L85.4403 312.338C102.086 314.532 124.14 281.358 133.087 264.497Z" fill="white"/>
</mask>
<g mask="url(#mask0)">
<path d="M131.28 261.047C129.752 252.02 125.604 243.642 119.351 236.954C114.877 231.875 109.837 227.323 104.33 223.388L114.596 208.461C116.248 205.871 116.807 202.731 116.15 199.73C115.493 196.728 113.675 194.109 111.092 192.445C108.614 190.628 105.518 189.867 102.48 190.328C99.442 190.788 96.7103 192.433 94.8821 194.903L75.5126 223.065L74.067 215.517C73.4211 212.204 71.5018 209.278 68.7213 207.365C65.9408 205.453 62.5211 204.708 59.197 205.29C57.5417 205.566 55.9587 206.173 54.5419 207.072C53.1251 207.972 51.9032 209.147 50.9486 210.527C49.053 213.173 48.2827 216.461 48.8063 219.674L51.2383 244.246C49.1396 248.653 47.878 253.412 47.5178 258.281C47.1629 261.971 47.4036 265.694 48.2305 269.308L44.5116 274.715C43.9724 275.48 43.747 276.423 43.8818 277.349C44.0165 278.275 44.5012 279.114 45.236 279.694L84.4105 306.637C85.2146 307.115 86.1716 307.268 87.0847 307.062C87.9977 306.857 88.7972 306.309 89.3187 305.532L94.5484 297.928C104.614 295.145 113.354 288.855 119.19 280.195L130.812 263.297C131.223 262.624 131.388 261.829 131.28 261.047ZM113.461 276.462C108.491 284.073 100.869 289.565 92.0761 291.872C91.1062 291.951 90.2036 292.399 89.555 293.125L85.3712 299.208L51.9701 276.236L54.8368 272.068C55.1548 271.607 55.3547 271.075 55.4189 270.519C55.4832 269.962 55.4098 269.399 55.2053 268.878C54.2848 265.696 54.0107 262.362 54.399 259.072C54.6944 254.801 55.8648 250.635 57.8375 246.835C58.2264 246.204 58.4002 245.465 58.3326 244.728L55.7495 218.807C55.6045 218.051 55.6111 217.274 55.7688 216.521C55.9266 215.768 56.2324 215.053 56.6684 214.419C57.1045 213.785 57.6622 213.244 58.3091 212.827C58.956 212.411 59.6793 212.127 60.4369 211.992C61.9923 211.716 63.5936 212.063 64.8952 212.959C66.1967 213.854 67.0939 215.225 67.3931 216.776L70.0311 231.036L63.9491 239.879L71.5186 240.936L100.515 198.776C101.324 197.814 102.475 197.204 103.725 197.073C104.976 196.943 106.228 197.303 107.218 198.077C108.296 198.725 109.08 199.766 109.405 200.98C109.731 202.194 109.572 203.487 108.963 204.587L86.1076 237.819L90.9072 242.904L100.437 229.048C102.768 230.72 105.011 232.512 107.157 234.417L97.027 249.146L100.855 253.231L111.218 238.164C112.217 239.183 113.226 240.25 114.224 241.393C115.421 242.779 116.543 244.229 117.584 245.736L107.609 260.24L111.437 264.325L120.676 250.891C122.347 253.944 123.589 257.213 124.366 260.606L113.461 276.462Z" fill="#FCB527"/>
<path d="M53.2217 248.736C53.7273 238.624 56.2554 226.59 73.5473 229.927" stroke="#FCB527" stroke-width="9"/>
<path d="M103.277 226.894C101.154 224.265 94.7224 218.157 85.9854 214.76" stroke="#FCB527" stroke-width="10"/>
</g>
<rect x="535.5" y="122.5" width="118" height="118" rx="5.5" stroke="white" stroke-width="11"/>
<defs>
<clipPath id="clip0">
<rect width="169" height="198" fill="white" transform="matrix(-1 0 0 1 273 48)"/>
</clipPath>
</defs>
</svg>
