<svg width="58" height="58" viewBox="0 0 58 58" fill="none" xmlns="http://www.w3.org/2000/svg">
<path d="M42.5858 19.6997C43.3668 18.9187 43.3668 17.6523 42.5858 16.8713L41.1287 15.4142C40.3477 14.6332 39.0813 14.6332 38.3003 15.4142L30.4142 23.3003C29.6332 24.0813 28.3668 24.0813 27.5858 23.3003L19.6997 15.4142C18.9187 14.6332 17.6523 14.6332 16.8713 15.4142L15.4142 16.8713C14.6332 17.6523 14.6332 18.9187 15.4142 19.6997L23.3003 27.5858C24.0813 28.3668 24.0813 29.6332 23.3003 30.4142L15.4142 38.3003C14.6332 39.0813 14.6332 40.3477 15.4142 41.1287L16.8713 42.5858C17.6523 43.3668 18.9187 43.3668 19.6997 42.5858L27.5858 34.6997C28.3668 33.9187 29.6332 33.9187 30.4142 34.6997L38.3003 42.5858C39.0813 43.3668 40.3477 43.3668 41.1287 42.5858L42.5858 41.1287C43.3668 40.3477 43.3668 39.0813 42.5858 38.3003L34.6997 30.4142C33.9187 29.6332 33.9187 28.3668 34.6997 27.5858L42.5858 19.6997Z" fill="#E61B1B"/>
<circle cx="29" cy="29" r="26" stroke="#E61B1B" stroke-width="6"/>
</svg>
