<?xml version="1.0" encoding="utf-8"?>
<!-- Generator: Adobe Illustrator 25.2.3, SVG Export Plug-In . SVG Version: 6.00 Build 0)  -->
<svg version="1.1" id="Capa_1" xmlns="http://www.w3.org/2000/svg" xmlns:xlink="http://www.w3.org/1999/xlink" x="0px" y="0px"
	 viewBox="0 0 83.5 74.5" style="enable-background:new 0 0 83.5 74.5;" xml:space="preserve">
<style type="text/css">
	.st0{fill:#C4BA02;}
	.st1{fill:#827E04;}
	.st2{fill:#A8A309;}
	.st3{fill:#938F09;}
	.st4{fill:#ADA80B;}
	.st5{fill:#D1D102;}
	.st6{fill:#D68B13;}
</style>
<g>
	<g>
		<rect x="51" y="54.7" transform="matrix(0.7071 -0.7071 0.7071 0.7071 -31.585 55.747)" class="st0" width="1" height="22.6"/>
	</g>
	<g>
		<rect x="40.2" y="22.5" transform="matrix(0.7071 -0.7071 0.7071 0.7071 -1.1795 43.1525)" class="st0" width="22.6" height="1"/>
	</g>
	<g>
		<path class="st0" d="M60,74.5H0v-60h60V74.5z M1,73.5h58v-58H1V73.5z"/>
	</g>
	<g>
		<path class="st0" d="M44.5,59h-29V30h29V59z M16.5,58h27V31h-27V58z"/>
	</g>
	<g>
		<path class="st1" d="M54.5,59h-34V25h34V59z M22.5,57h30V27h-30V57z"/>
	</g>
	<g>
		<path class="st2" d="M58.5,57h-34V23h34V57z M26.5,55h30V25h-30V55z"/>
	</g>
	<g>
		<path class="st3" d="M62.5,54h-34V20h34V54z M30.5,52h30V22h-30V52z"/>
	</g>
	<g>
		<path class="st4" d="M66,51.5H32v-34h34V51.5z M34,49.5h30v-30H34V49.5z"/>
	</g>
	<g>
		<path class="st5" d="M70.5,48h-34V14h34V48z M38.5,46h30V16h-30V46z"/>
	</g>
	<g>
		<path class="st5" d="M76,45H38.5V7.5H76V45z M41.5,42H73V10.5H41.5V42z"/>
	</g>
	<g>
		<rect x="8" y="11.7" transform="matrix(0.7071 -0.7071 0.7071 0.7071 -13.7739 12.747)" class="st0" width="1" height="22.6"/>
	</g>
	<g>
		
			<rect x="-2.8" y="65.5" transform="matrix(0.7071 -0.7071 0.7071 0.7071 -44.1795 25.3414)" class="st0" width="22.6" height="1"/>
	</g>
	<g>
		<rect x="44.5" y="15" class="st6" width="2" height="32"/>
	</g>
	<g>
		<rect x="49" y="15.5" class="st6" width="2" height="32"/>
	</g>
	<g>
		<rect x="55" y="15.5" class="st6" width="2" height="32"/>
	</g>
	<g>
		<rect x="60" y="15.5" class="st6" width="2" height="32"/>
	</g>
	<g>
		<rect x="65" y="15.5" class="st6" width="2" height="32"/>
	</g>
	<g>
		<rect x="69" y="15.5" class="st6" width="2" height="32"/>
	</g>
	<g>
		<path d="M83.5,45h-45V0h45V45z M41.5,42h39V3h-39V42z"/>
	</g>
</g>
</svg>
