<svg width="1920" height="1080" viewBox="0 0 1920 1080" fill="none" xmlns="http://www.w3.org/2000/svg">
<g clip-path="url(#clip0)">
<path d="M739.041 595.316C736.541 592.616 733.941 589.816 731.441 587.116C724.541 579.616 717.641 572.216 710.841 564.716C700.641 553.716 690.441 542.616 680.341 531.616C672.441 523.016 664.541 514.516 656.641 505.916C655.041 504.116 656.341 501.216 658.741 501.316C663.141 501.416 667.641 499.816 670.541 496.516C670.641 496.416 670.641 496.416 670.741 496.316C675.741 490.516 684.741 490.316 689.941 495.916C692.641 498.916 695.441 501.916 698.141 504.816C705.941 513.216 713.741 521.716 721.441 530.116C725.141 534.116 728.741 538.116 732.441 542.116C732.641 542.316 732.741 542.416 732.941 542.616C737.441 547.516 746.541 547.216 750.841 542.316C755.641 536.916 755.341 529.616 750.541 524.416C748.041 521.716 745.441 518.916 742.941 516.216C741.741 514.816 740.441 513.516 739.241 512.116C734.441 506.916 734.841 499.116 739.841 494.116C739.941 494.016 740.141 493.816 740.241 493.716C745.041 488.316 744.741 481.016 739.941 475.816C737.441 473.116 734.841 470.316 732.341 467.616C725.441 460.116 718.541 452.716 711.741 445.216C701.541 434.216 691.341 423.116 681.241 412.116C668.841 398.716 656.541 385.216 644.141 371.816C630.541 357.016 616.941 342.316 603.341 327.516C589.641 312.716 575.941 297.816 562.341 283.016C549.541 269.116 536.741 255.216 523.941 241.316C513.041 229.416 502.241 217.716 491.341 206.016C483.541 197.616 475.741 189.116 468.041 180.716C464.341 176.716 460.741 172.716 457.041 168.716C456.841 168.516 456.741 168.416 456.541 168.216C452.041 163.316 443.041 163.516 438.641 168.516C433.841 173.916 434.141 181.216 438.941 186.416C441.441 189.116 444.041 191.916 446.541 194.616C447.841 196.016 449.041 197.316 450.341 198.716C455.041 203.916 454.641 211.716 449.741 216.716C449.641 216.816 449.441 217.016 449.341 217.116L449.241 217.216C445.241 221.816 438.141 222.016 433.941 217.516C429.841 213.116 425.741 208.616 421.641 204.216C413.841 195.816 406.041 187.316 398.241 178.916C394.541 174.916 390.941 170.916 387.241 166.916C387.041 166.716 386.941 166.616 386.741 166.416C381.141 160.316 369.741 160.616 364.341 166.816C358.341 173.516 358.641 182.716 364.741 189.216C367.241 191.916 369.841 194.716 372.341 197.416C379.241 204.916 386.141 212.316 392.941 219.816C403.141 230.916 413.341 242.016 423.541 253.016C431.441 261.616 439.341 270.116 447.241 278.716C448.841 280.516 447.541 283.416 445.141 283.316C440.741 283.216 436.241 284.816 433.341 288.116C427.341 294.816 427.641 304.016 433.741 310.516C436.241 313.216 438.841 316.016 441.341 318.716C448.241 326.216 455.141 333.616 461.941 341.116C472.141 352.116 482.341 363.216 492.441 374.216C504.841 387.616 517.141 401.116 529.541 414.516C543.141 429.316 556.741 444.016 570.341 458.816C584.041 473.616 597.741 488.516 611.341 503.316C624.141 517.216 636.941 531.116 649.741 545.016C660.541 556.716 671.341 568.516 682.141 580.216C689.941 588.616 697.741 597.116 705.441 605.516C709.141 609.516 712.741 613.516 716.441 617.516C716.641 617.716 716.741 617.816 716.941 618.016C722.541 624.116 733.941 623.816 739.341 617.616C745.441 611.016 745.041 601.916 739.041 595.316Z" fill="#EF5899"/>
<path d="M615.2 1136.41C611.5 1132.41 607.8 1128.41 604.1 1124.41C594 1113.51 583.9 1102.61 573.8 1091.71C558.9 1075.71 544 1059.61 529.1 1043.61C526.3 1040.51 523.4 1037.51 520.6 1034.41C517 1030.61 519.1 1024.31 524.3 1023.51C529 1022.71 533.5 1020.61 536.8 1017.11C545.6 1007.51 545.6 993.813 536.8 984.213C533.1 980.213 529.4 976.213 525.7 972.213C515.6 961.313 505.5 950.413 495.4 939.513C480.5 923.513 465.6 907.413 450.7 891.413C432.5 871.813 414.4 852.313 396.2 832.713C376.3 811.313 356.4 789.813 336.5 768.413C316.4 746.813 296.3 725.113 276.3 703.513C257.5 683.313 238.7 663.113 220 642.813C204.1 625.713 188.3 608.613 172.4 591.513C161 579.313 149.7 567.013 138.3 554.813C132.9 549.013 127.6 543.213 122.2 537.413C122 537.213 121.7 536.913 121.5 536.713C113.2 527.813 96.9 527.713 88.6 536.713C79.8 546.313 79.8 560.013 88.6 569.613C92.3 573.613 96 577.613 99.7 581.613C109.8 592.513 119.9 603.413 130 614.313C144.9 630.313 159.8 646.413 174.7 662.413C177.5 665.513 180.4 668.513 183.2 671.613C186.8 675.413 184.7 681.713 179.5 682.513C174.8 683.313 170.3 685.413 167 688.913C158.2 698.513 158.2 712.213 167 721.813C170.7 725.813 174.4 729.813 178.1 733.813C188.2 744.713 198.3 755.613 208.4 766.513C223.3 782.513 238.2 798.613 253.1 814.613C271.3 834.213 289.4 853.713 307.6 873.313C327.5 894.713 347.4 916.213 367.3 937.613C387.4 959.213 407.5 980.913 427.5 1002.51C446.3 1022.71 465.1 1042.91 483.8 1063.21C499.7 1080.31 515.5 1097.41 531.4 1114.51C542.8 1126.71 554.1 1139.01 565.5 1151.21C570.9 1157.01 576.2 1162.81 581.6 1168.61C581.8 1168.81 582.1 1169.11 582.3 1169.31C590.6 1178.21 606.9 1178.31 615.2 1169.31C624 1159.71 624 1145.91 615.2 1136.41Z" fill="#EF5899"/>
<path d="M2256.51 1202.66C2251.51 1197.26 2246.51 1191.86 2241.51 1186.46C2227.91 1171.76 2214.21 1157.06 2200.61 1142.36C2180.41 1120.66 2160.31 1098.86 2140.11 1077.16C2115.51 1050.66 2090.91 1024.06 2066.21 997.562C2039.21 968.463 2012.31 939.462 1985.31 910.362C1984.31 909.263 1983.21 908.163 1982.21 906.963C1978.51 902.963 1981.01 896.263 1986.51 895.963C1993.91 895.463 2001.21 892.562 2006.21 887.062C2017.91 874.362 2018.01 856.062 2006.21 843.362C2001.21 837.962 1996.21 832.563 1991.21 827.163C1977.61 812.463 1963.91 797.763 1950.31 783.062C1930.11 761.362 1910.01 739.563 1889.81 717.863C1865.21 691.363 1840.61 664.763 1815.91 638.263C1788.91 609.163 1762.01 580.163 1735.01 551.063C1707.81 521.763 1680.61 492.363 1653.31 463.063C1627.91 435.663 1602.51 408.363 1577.11 380.963C1555.61 357.863 1534.21 334.763 1512.71 311.563C1497.31 294.963 1481.81 278.263 1466.41 261.663C1459.11 253.763 1451.81 245.763 1444.41 237.963C1444.11 237.663 1443.81 237.263 1443.51 236.963C1432.51 225.063 1410.81 224.963 1399.81 236.963C1388.11 249.663 1388.01 267.963 1399.81 280.663C1404.81 286.063 1409.81 291.463 1414.81 296.863C1428.41 311.563 1442.11 326.263 1455.71 340.963C1475.91 362.663 1496.01 384.463 1516.21 406.163C1540.81 432.663 1565.41 459.263 1590.11 485.763C1617.11 514.863 1644.01 543.863 1671.01 572.963C1671.51 573.463 1671.91 573.963 1672.41 574.463C1676.31 578.663 1673.31 585.563 1667.61 585.463C1657.81 585.463 1648.01 588.963 1641.41 596.163C1634.91 603.263 1631.41 611.763 1630.91 620.363C1630.61 626.163 1623.51 628.763 1619.51 624.463C1619.41 624.363 1619.41 624.363 1619.31 624.263C1597.81 601.163 1576.41 578.063 1554.91 554.863C1539.51 538.263 1524.01 521.563 1508.61 504.963C1501.31 497.063 1494.01 489.063 1486.61 481.263C1486.31 480.963 1486.01 480.563 1485.71 480.263C1474.71 468.363 1453.01 468.263 1442.01 480.263C1430.31 492.963 1430.21 511.263 1442.01 523.963C1447.01 529.363 1452.01 534.763 1457.01 540.163C1470.61 554.863 1484.31 569.563 1497.91 584.263C1518.11 605.963 1538.21 627.763 1558.41 649.463C1583.01 675.963 1607.61 702.563 1632.31 729.063C1659.31 758.163 1686.21 787.163 1713.21 816.263C1740.41 845.562 1767.61 874.963 1794.91 904.263C1820.31 931.663 1845.71 958.962 1871.11 986.362C1892.61 1009.46 1914.01 1032.56 1935.51 1055.76C1950.91 1072.36 1966.41 1089.06 1981.81 1105.66C1989.11 1113.56 1996.41 1121.56 2003.81 1129.36C2004.11 1129.66 2004.41 1130.06 2004.71 1130.36C2015.71 1142.26 2037.41 1142.36 2048.41 1130.36C2053.31 1125.06 2056.21 1118.66 2057.01 1112.16C2057.71 1106.66 2064.61 1104.56 2068.31 1108.56C2069.01 1109.36 2069.71 1110.16 2070.51 1110.86C2092.01 1133.96 2113.41 1157.06 2134.91 1180.26C2150.31 1196.86 2165.81 1213.56 2181.21 1230.16C2188.51 1238.06 2195.81 1245.96 2203.21 1253.86C2203.51 1254.16 2203.81 1254.56 2204.11 1254.86C2217.31 1269.16 2243.31 1269.26 2256.51 1254.86C2270.51 1239.86 2270.61 1217.96 2256.51 1202.66Z" fill="#EF5899"/>
</g>
<defs>
<clipPath id="clip0">
<rect width="1920" height="1080" fill="white"/>
</clipPath>
</defs>
</svg>
