<svg width="138" height="180" viewBox="0 0 138 180" fill="none" xmlns="http://www.w3.org/2000/svg">
<path d="M137.22 74.1177C137.22 30.4941 108.844 0 68.61 0C28.3757 0 0 30.4941 0 74.1177C0 113.506 23.2935 157.129 56.328 166.024L53.7868 172.376C52.0928 175.765 54.6339 179.576 58.4456 179.576H62.2572L74.9628 180H78.7744C82.5861 180 84.7037 176.188 83.4331 172.8L80.892 166.447C113.926 157.129 137.22 113.506 137.22 74.1177Z" fill="#9AC906"/>
<path fill-rule="evenodd" clip-rule="evenodd" d="M64.7824 94.9354C47.6718 92.7411 34.2711 92.9681 26.5486 98.3403C24.3908 89.6011 23.4823 81.6564 24.9965 74.9602C27.6842 63.2323 35.066 60.5462 41.9935 60.1301C50.6624 59.6383 64.2146 62.5135 75.2683 64.0646C89.5397 66.0318 102.297 66.4102 110.966 61.4542C113.691 68.6422 114.184 75.9438 112.934 83.2454C111.723 91.644 106.688 95.9947 98.5493 96.9783C88.0255 98.2646 76.2525 96.4108 64.7824 94.9354Z" fill="white"/>
<path fill-rule="evenodd" clip-rule="evenodd" d="M58.6446 64.5581C59.9317 64.5581 60.5374 65.6174 60.5374 66.6767C60.5374 67.8495 59.8938 68.8709 58.6824 68.8709C57.3954 68.9087 56.7518 67.9629 56.714 66.7523C56.714 65.693 57.2439 64.5581 58.6446 64.5581ZM58.6446 63.7636C56.7897 63.7636 55.5404 64.7472 55.5404 66.6767C55.5404 68.6061 56.714 69.6654 58.6824 69.6654C60.6131 69.6654 61.7866 68.6061 61.7866 66.7145C61.7487 64.7851 60.5374 63.7636 58.6446 63.7636ZM51.7928 66.4118V64.6716C52.5877 64.6716 53.6098 64.5202 53.6098 65.5039C53.6098 66.4497 52.6256 66.4118 51.7928 66.4118ZM50.6193 69.5519H51.8306V67.2063C52.8149 67.2063 54.0262 67.2441 54.6319 66.374C55.2376 65.5039 54.9726 64.0284 53.2691 63.8771H50.6193V69.5519V69.5519ZM44.7138 63.8771H45.7738C45.7738 64.4446 45.7359 67.282 45.8116 67.736C46.0388 68.9844 48.2344 68.9087 48.3858 67.6225C48.4615 66.8658 48.4237 64.7094 48.4237 63.8393H49.4836C49.4836 64.5581 49.5593 67.5468 49.4079 68.1899C49.0293 69.7789 46.7959 69.8545 45.7359 69.3627C44.7896 68.9087 44.676 68.1143 44.676 67.1685L44.7138 63.8771ZM40.8147 66.3362V64.6716C41.6476 64.6716 42.7075 64.5202 42.7075 65.4282C42.7075 66.4875 41.534 66.3362 40.8147 66.3362ZM39.6034 69.5519H40.8147V67.1306H41.534L42.8589 69.5519H44.2974L42.7454 66.9415C43.4646 66.6767 44.0324 66.2227 44.0324 65.3525C44.0324 64.2554 43.1239 63.8771 42.1775 63.8393H39.6412L39.6034 69.5519ZM36.5371 66.4118V67.1685H37.4456V68.3791C36.4614 68.7196 34.9472 68.7952 34.4929 67.5468C34.0387 66.3362 34.4929 64.4824 36.2721 64.4824C36.9535 64.4824 37.4078 64.7094 37.7106 65.2769L38.3542 64.4824C37.8242 63.9149 37.2564 63.7258 36.31 63.7258C32.5623 63.7258 32.6002 67.6603 34.0765 68.8331C35.25 69.741 37.1428 69.4762 38.5056 69.1357V66.4118H36.5371ZM57.5846 95.845C47.288 94.8614 37.3699 95.3532 31.1995 100.385C29.2689 100.082 27.3383 99.7417 25.4077 99.4391C23.0228 91.6835 22.5306 83.5497 23.5906 75.0753C25.2941 66.828 29.6096 59.5643 40.0198 58.9211C50.7707 58.278 65.4586 60.8884 79.995 62.4017C90.4052 63.4988 99.5283 62.553 105.585 57.9375C107.819 58.5806 110.014 59.2616 112.248 59.9048C115.049 67.8873 115.238 75.7563 113.951 83.5118C112.134 94.4831 105.017 98.4176 95.4021 98.4933C82.077 98.6446 68.2598 96.8665 57.5846 95.845ZM64.7771 94.9371C47.6666 92.7428 34.2658 92.9698 26.5433 98.3419C24.3856 89.6028 23.477 81.6581 24.9912 74.9618C27.679 63.234 35.0607 60.5479 41.9883 60.1317C50.6571 59.6399 64.2093 62.5152 75.2631 64.0663C89.5345 66.0335 102.292 66.4118 110.961 61.4559C113.686 68.6439 114.178 75.9455 112.929 83.247C111.718 91.6457 106.683 95.9964 98.5441 96.98C88.0203 98.2663 76.2473 96.4125 64.7771 94.9371Z" fill="#3D438B"/>
<path fill-rule="evenodd" clip-rule="evenodd" d="M83.2117 85.6312H79.5776V75.0005H82.606C84.196 75.0005 84.8395 75.4544 84.8774 76.3246C84.9531 77.6487 84.196 78.3297 82.9846 78.3297H81.8489L80.4104 81.4319H83.2496C84.6124 81.4319 85.8995 82.4155 85.7102 83.6261C85.5966 84.7989 84.5745 85.6312 83.2117 85.6312ZM83.8553 89.1496H75.2243V71.4064H83.4389C86.3159 71.4064 88.7386 72.2387 89.1929 74.9626C89.5336 76.9677 88.89 78.4053 87.3758 79.4268C89.6471 80.4482 90.5935 83.21 89.7985 85.7069C89.0036 88.2794 85.9373 89.1496 83.8553 89.1496ZM99.6031 75.3409C102.215 75.3409 104.335 77.4974 104.335 80.1456C104.335 82.7938 102.215 84.9502 99.6031 84.9502C96.9911 84.9502 94.8712 82.7938 94.8712 80.1456C94.8712 77.4974 96.9911 75.3409 99.6031 75.3409ZM99.6031 71.1416C104.524 71.1416 108.499 75.1896 108.499 80.1456C108.499 85.1394 104.524 89.1496 99.6031 89.1496C94.6819 89.1496 90.7071 85.1016 90.7071 80.1456C90.7071 75.1518 94.6819 71.1416 99.6031 71.1416ZM73.4451 71.4064V89.1496H69.0917V77.9135L66.2526 89.1496H62.0128L59.2872 78.0648V89.1496H55.0474V71.4064H61.8614L64.1705 81.3562L66.4418 71.4064H73.4451V71.4064ZM48.9148 71.4064H53.2304V89.1496H48.9148V71.4064ZM41.0031 85.6312H37.369V75.0005H40.3974C41.9873 75.0005 42.6309 75.4544 42.6687 76.3246C42.7444 77.6487 41.9873 78.3297 40.776 78.3297H39.6403L38.2018 81.4319H41.0409C42.4037 81.4319 43.6908 82.4155 43.5015 83.6261C43.388 84.7989 42.3659 85.6312 41.0031 85.6312ZM41.6466 89.1496H33.0156V71.4064H41.2302C44.1072 71.4064 46.53 72.2387 46.9842 74.9626C47.3249 76.9677 46.6814 78.4053 45.1672 79.4268C47.4385 80.4482 48.3849 83.21 47.5899 85.7069C46.7571 88.2794 43.7287 89.1496 41.6466 89.1496Z" fill="#DA243C"/>
</svg>
