<svg width="820" height="348" viewBox="0 0 820 348" fill="none" xmlns="http://www.w3.org/2000/svg">
<path d="M181 140.077C181 95.8889 152.256 65 111.5 65C70.7438 65 42 95.8889 42 140.077C42 179.975 65.5957 224.164 99.0586 233.173L96.4846 239.608C94.7685 243.04 97.3426 246.901 101.204 246.901H105.065L117.935 247.33H121.796C125.657 247.33 127.802 243.469 126.515 240.037L123.941 233.602C157.404 224.164 181 179.975 181 140.077ZM111.5 222.018C82.3272 222.018 54.8704 182.12 54.8704 140.077C54.8704 103.182 77.608 77.8704 111.5 77.8704C145.392 77.8704 168.13 102.753 168.13 140.077C168.13 182.12 140.673 222.018 111.5 222.018Z" fill="white"/>
<path d="M142.817 150.373C141.959 156.808 139.814 158.953 133.379 159.382C128.231 159.811 121.367 158.953 114.503 158.095C101.203 156.808 88.7618 155.521 80.6106 159.811C80.1816 157.237 79.3236 152.947 80.1816 149.086C81.0396 141.364 84.9007 139.648 90.0489 139.648C90.4779 139.648 90.4779 139.648 90.9069 139.648C96.055 139.648 102.061 140.506 108.067 140.935C121.367 142.651 134.237 143.938 141.959 139.219C142.388 142.222 143.246 146.083 142.817 150.373Z" fill="white"/>
<path d="M148.826 131.495C148.397 131.066 147.968 131.066 147.539 130.637L142.391 128.921C140.675 128.492 138.959 128.921 137.672 129.779C133.381 133.64 119.653 131.924 108.928 130.637C102.493 129.779 95.6283 128.921 90.0512 129.35C78.8968 129.35 71.6036 135.785 70.3166 147.798C69.0296 156.378 71.6036 166.674 73.3197 168.39C74.1777 169.248 75.0357 169.677 76.3228 170.106L80.6129 170.964C81.0419 170.964 81.0419 170.964 81.4709 170.964C82.758 170.964 84.045 170.535 84.903 169.677C89.1931 165.816 102.922 167.103 114.076 168.39C120.94 169.248 128.233 169.677 134.239 169.677C148.826 169.248 152.687 159.381 153.545 151.659C153.545 144.795 152.258 133.64 148.826 131.495ZM144.965 150.801C144.107 158.094 140.675 161.526 133.381 161.526C127.804 161.955 121.369 161.097 114.505 160.239C101.634 158.952 89.1931 157.665 81.8999 161.526L79.3259 162.813L78.8968 159.81C78.4678 156.807 77.6098 152.517 78.4678 148.227C79.7549 138.36 85.332 137.072 90.4802 137.072H91.3382C96.4863 137.072 102.922 137.93 108.499 138.36C121.369 140.076 133.81 141.363 141.104 137.072L141.962 136.643L144.107 137.072L144.536 138.36C144.536 141.792 145.394 146.082 144.965 150.801Z" fill="white"/>
<path d="M379 140.077C379 95.8889 350.256 65 309.5 65C268.744 65 240 95.8889 240 140.077C240 179.975 263.596 224.164 297.059 233.173L294.485 239.608C292.769 243.04 295.343 246.901 299.204 246.901H303.065L315.935 247.33H319.796C323.657 247.33 325.802 243.469 324.515 240.037L321.941 233.602C355.404 224.164 379 179.975 379 140.077ZM309.5 222.018C280.327 222.018 252.87 182.12 252.87 140.077C252.87 103.182 275.608 77.8704 309.5 77.8704C343.392 77.8704 366.13 102.753 366.13 140.077C366.13 182.12 338.673 222.018 309.5 222.018Z" fill="white"/>
<path d="M340.817 150.373C339.959 156.808 337.814 158.953 331.379 159.382C326.231 159.811 319.367 158.953 312.503 158.095C299.203 156.808 286.762 155.521 278.611 159.811C278.182 157.237 277.324 152.947 278.182 149.086C279.04 141.364 282.901 139.648 288.049 139.648C288.478 139.648 288.478 139.648 288.907 139.648C294.055 139.648 300.061 140.506 306.067 140.935C319.367 142.651 332.237 143.938 339.959 139.219C340.388 142.222 341.246 146.083 340.817 150.373Z" fill="white"/>
<path d="M346.826 131.495C346.397 131.066 345.968 131.066 345.539 130.637L340.391 128.921C338.675 128.492 336.959 128.921 335.672 129.779C331.381 133.64 317.653 131.924 306.928 130.637C300.493 129.779 293.628 128.921 288.051 129.35C276.897 129.35 269.604 135.785 268.317 147.798C267.03 156.378 269.604 166.674 271.32 168.39C272.178 169.248 273.036 169.677 274.323 170.106L278.613 170.964C279.042 170.964 279.042 170.964 279.471 170.964C280.758 170.964 282.045 170.535 282.903 169.677C287.193 165.816 300.922 167.103 312.076 168.39C318.94 169.248 326.233 169.677 332.239 169.677C346.826 169.248 350.687 159.381 351.545 151.659C351.545 144.795 350.258 133.64 346.826 131.495ZM342.965 150.801C342.107 158.094 338.675 161.526 331.381 161.526C325.804 161.955 319.369 161.097 312.505 160.239C299.634 158.952 287.193 157.665 279.9 161.526L277.326 162.813L276.897 159.81C276.468 156.807 275.61 152.517 276.468 148.227C277.755 138.36 283.332 137.072 288.48 137.072H289.338C294.486 137.072 300.922 137.93 306.499 138.36C319.369 140.076 331.81 141.363 339.104 137.072L339.962 136.643L342.107 137.072L342.536 138.36C342.536 141.792 343.394 146.082 342.965 150.801Z" fill="white"/>
<path d="M577 140.077C577 95.8889 548.256 65 507.5 65C466.744 65 438 95.8889 438 140.077C438 179.975 461.596 224.164 495.059 233.173L492.485 239.608C490.769 243.04 493.343 246.901 497.204 246.901H501.065L513.935 247.33H517.796C521.657 247.33 523.802 243.469 522.515 240.037L519.941 233.602C553.404 224.164 577 179.975 577 140.077ZM507.5 222.018C478.327 222.018 450.87 182.12 450.87 140.077C450.87 103.182 473.608 77.8704 507.5 77.8704C541.392 77.8704 564.13 102.753 564.13 140.077C564.13 182.12 536.673 222.018 507.5 222.018Z" fill="white"/>
<path d="M538.817 150.373C537.959 156.808 535.814 158.953 529.379 159.382C524.231 159.811 517.367 158.953 510.503 158.095C497.203 156.808 484.762 155.521 476.611 159.811C476.182 157.237 475.324 152.947 476.182 149.086C477.04 141.364 480.901 139.648 486.049 139.648C486.478 139.648 486.478 139.648 486.907 139.648C492.055 139.648 498.061 140.506 504.067 140.935C517.367 142.651 530.237 143.938 537.959 139.219C538.388 142.222 539.246 146.083 538.817 150.373Z" fill="white"/>
<path d="M544.826 131.495C544.397 131.066 543.968 131.066 543.539 130.637L538.391 128.921C536.675 128.492 534.959 128.921 533.672 129.779C529.381 133.64 515.653 131.924 504.928 130.637C498.493 129.779 491.628 128.921 486.051 129.35C474.897 129.35 467.604 135.785 466.317 147.798C465.03 156.378 467.604 166.674 469.32 168.39C470.178 169.248 471.036 169.677 472.323 170.106L476.613 170.964C477.042 170.964 477.042 170.964 477.471 170.964C478.758 170.964 480.045 170.535 480.903 169.677C485.193 165.816 498.922 167.103 510.076 168.39C516.94 169.248 524.233 169.677 530.239 169.677C544.826 169.248 548.687 159.381 549.545 151.659C549.545 144.795 548.258 133.64 544.826 131.495ZM540.965 150.801C540.107 158.094 536.675 161.526 529.381 161.526C523.804 161.955 517.369 161.097 510.505 160.239C497.634 158.952 485.193 157.665 477.9 161.526L475.326 162.813L474.897 159.81C474.468 156.807 473.61 152.517 474.468 148.227C475.755 138.36 481.332 137.072 486.48 137.072H487.338C492.486 137.072 498.922 137.93 504.499 138.36C517.369 140.076 529.81 141.363 537.104 137.072L537.962 136.643L540.107 137.072L540.536 138.36C540.536 141.792 541.394 146.082 540.965 150.801Z" fill="white"/>
<path d="M775 140.077C775 95.8889 746.256 65 705.5 65C664.744 65 636 95.8889 636 140.077C636 179.975 659.596 224.164 693.059 233.173L690.485 239.608C688.769 243.04 691.343 246.901 695.204 246.901H699.065L711.935 247.33H715.796C719.657 247.33 721.802 243.469 720.515 240.037L717.941 233.602C751.404 224.164 775 179.975 775 140.077ZM705.5 222.018C676.327 222.018 648.87 182.12 648.87 140.077C648.87 103.182 671.608 77.8704 705.5 77.8704C739.392 77.8704 762.13 102.753 762.13 140.077C762.13 182.12 734.673 222.018 705.5 222.018Z" fill="white"/>
<path d="M736.817 150.373C735.959 156.808 733.814 158.953 727.379 159.382C722.231 159.811 715.367 158.953 708.503 158.095C695.203 156.808 682.762 155.521 674.611 159.811C674.182 157.237 673.324 152.947 674.182 149.086C675.04 141.364 678.901 139.648 684.049 139.648C684.478 139.648 684.478 139.648 684.907 139.648C690.055 139.648 696.061 140.506 702.067 140.935C715.367 142.651 728.237 143.938 735.959 139.219C736.388 142.222 737.246 146.083 736.817 150.373Z" fill="white"/>
<path d="M742.826 131.495C742.397 131.066 741.968 131.066 741.539 130.637L736.391 128.921C734.675 128.492 732.959 128.921 731.672 129.779C727.381 133.64 713.653 131.924 702.928 130.637C696.493 129.779 689.628 128.921 684.051 129.35C672.897 129.35 665.604 135.785 664.317 147.798C663.03 156.378 665.604 166.674 667.32 168.39C668.178 169.248 669.036 169.677 670.323 170.106L674.613 170.964C675.042 170.964 675.042 170.964 675.471 170.964C676.758 170.964 678.045 170.535 678.903 169.677C683.193 165.816 696.922 167.103 708.076 168.39C714.94 169.248 722.233 169.677 728.239 169.677C742.826 169.248 746.687 159.381 747.545 151.659C747.545 144.795 746.258 133.64 742.826 131.495ZM738.965 150.801C738.107 158.094 734.675 161.526 727.381 161.526C721.804 161.955 715.369 161.097 708.505 160.239C695.634 158.952 683.193 157.665 675.9 161.526L673.326 162.813L672.897 159.81C672.468 156.807 671.61 152.517 672.468 148.227C673.755 138.36 679.332 137.072 684.48 137.072H685.338C690.486 137.072 696.922 137.93 702.499 138.36C715.369 140.076 727.81 141.363 735.104 137.072L735.962 136.643L738.107 137.072L738.536 138.36C738.536 141.792 739.394 146.082 738.965 150.801Z" fill="white"/>
</svg>
