<svg width="820" height="348" viewBox="0 0 820 348" fill="none" xmlns="http://www.w3.org/2000/svg">
<path d="M516 144.827C516 74.8889 470.506 26 406 26C341.494 26 296 74.8889 296 144.827C296 207.975 333.346 277.914 386.309 292.173L382.235 302.358C379.519 307.79 383.593 313.901 389.704 313.901H395.815L416.185 314.58H422.296C428.407 314.58 431.802 308.469 429.765 303.037L425.691 292.852C478.654 277.914 516 207.975 516 144.827ZM406 274.518C359.827 274.518 316.37 211.37 316.37 144.827C316.37 86.4321 352.358 46.3704 406 46.3704C459.642 46.3704 495.63 85.7531 495.63 144.827C495.63 211.37 452.173 274.518 406 274.518Z" fill="white"/>
<path d="M455.568 161.123C454.21 171.308 450.815 174.703 440.63 175.382C432.482 176.061 421.618 174.703 410.754 173.345C389.704 171.308 370.013 169.271 357.112 176.061C356.433 171.987 355.075 165.197 356.433 159.086C357.791 146.864 363.902 144.148 372.05 144.148C372.729 144.148 372.729 144.148 373.408 144.148C381.556 144.148 391.062 145.506 400.568 146.185C421.618 148.901 441.988 150.938 454.21 143.469C454.889 148.222 456.247 154.333 455.568 161.123Z" fill="white"/>
<path d="M465.077 131.245C464.398 130.566 463.719 130.566 463.04 129.887L454.892 127.171C452.176 126.492 449.46 127.171 447.423 128.529C440.633 134.64 418.905 131.924 401.929 129.887C391.744 128.529 380.88 127.171 372.053 127.85C354.398 127.85 342.855 138.035 340.818 157.047C338.781 170.627 342.855 186.924 345.571 189.64C346.929 190.998 348.287 191.677 350.324 192.356L357.114 193.714C357.793 193.714 357.793 193.714 358.472 193.714C360.509 193.714 362.547 193.035 363.905 191.677C370.695 185.566 392.423 187.603 410.077 189.64C420.942 190.998 432.485 191.677 441.991 191.677C465.077 190.998 471.188 175.381 472.547 163.158C472.547 152.294 470.509 134.64 465.077 131.245ZM458.966 161.8C457.608 173.344 452.176 178.776 440.633 178.776C431.806 179.455 421.621 178.097 410.756 176.739C390.386 174.702 370.695 172.665 359.151 178.776L355.077 180.813L354.398 176.06C353.719 171.306 352.361 164.516 353.719 157.726C355.756 142.109 364.584 140.072 372.732 140.072H374.09C382.238 140.072 392.423 141.43 401.25 142.109C421.621 144.825 441.312 146.862 452.855 140.072L454.213 139.393L457.608 140.072L458.287 142.109C458.287 147.541 459.645 154.331 458.966 161.8Z" fill="white"/>
<path d="M550.121 221.113C539.519 217.071 527.962 216.234 516.889 218.708C508.651 220.293 500.621 222.814 492.955 226.222L483.467 205.874C481.738 202.481 478.737 199.911 475.118 198.725C471.499 197.539 467.558 197.835 464.157 199.547C460.659 201.052 457.9 203.881 456.482 207.415C455.064 210.949 455.104 214.901 456.592 218.406L474.495 256.799L465.523 253.597C461.579 252.205 457.247 252.415 453.456 254.182C449.666 255.95 446.72 259.134 445.252 263.05C444.507 264.992 444.159 267.064 444.229 269.143C444.299 271.222 444.786 273.265 445.66 275.153C447.294 278.84 450.323 281.731 454.083 283.191L481.856 296.041C485.244 301.053 489.534 305.393 494.508 308.838C498.226 311.537 502.354 313.621 506.733 315.009L510.171 322.381C510.649 323.438 511.514 324.271 512.588 324.709C513.662 325.147 514.863 325.157 515.944 324.737L569.348 299.834C570.365 299.276 571.13 298.35 571.484 297.245C571.839 296.141 571.756 294.943 571.254 293.897L566.42 283.531C569.776 271.03 568.552 257.742 562.971 246.064L552.229 223.028C551.769 222.166 551.024 221.489 550.121 221.113ZM555.382 249.836C560.387 259.93 561.462 271.523 558.398 282.364C557.872 283.45 557.784 284.696 558.151 285.845L562.018 294.138L516.484 315.371L513.834 309.688C513.542 309.059 513.099 308.511 512.546 308.093C511.992 307.675 511.344 307.399 510.659 307.289C506.682 306.272 502.948 304.469 499.679 301.986C495.302 298.985 491.589 295.116 488.77 290.62C488.342 289.809 487.661 289.158 486.831 288.767L457.522 275.23C456.624 274.91 455.798 274.415 455.093 273.773C454.387 273.131 453.817 272.355 453.413 271.49C453.01 270.626 452.783 269.69 452.745 268.737C452.706 267.784 452.857 266.833 453.189 265.939C453.873 264.105 455.251 262.613 457.025 261.785C458.799 260.958 460.828 260.862 462.673 261.517L479.561 267.664L485.183 279.72L491.071 272.3L464.27 214.826C463.752 213.356 463.823 211.743 464.47 210.326C465.117 208.908 466.288 207.797 467.738 207.226C469.107 206.482 470.711 206.299 472.213 206.715C473.715 207.131 474.996 208.113 475.788 209.455L496.914 254.758L505.362 252.829L496.554 233.939C499.806 232.5 503.13 231.231 506.513 230.137L515.876 250.216L522.646 248.696L513.067 228.155C514.785 227.728 516.558 227.322 518.406 226.975C520.64 226.567 522.893 226.281 525.158 226.117L534.378 245.889L541.147 244.368L532.607 226.055C536.919 226.189 541.191 226.918 545.303 228.221L555.382 249.836Z" fill="#FCB527"/>
</svg>
