<svg width="180" height="502" viewBox="0 0 180 502" fill="none" xmlns="http://www.w3.org/2000/svg">
<g clip-path="url(#clip0)">
<path d="M179.9 214.6L179.6 157.1C179.7 110.3 140.1 97.5002 91 97.2002C40.8 97.2002 -0.2 109.5 0.1 157.1L0 214.6V897.7H179.9V232.5V214.6Z" fill="#FCB527"/>
<path d="M124.3 99.2C124.3 103.4 120.9 106.9 116.6 106.9H63.2996C59.0996 106.9 55.5996 103.5 55.5996 99.2C55.5996 95 58.9996 91.5 63.2996 91.5H116.6C120.9 91.5 124.3 94.9 124.3 99.2Z" fill="#D39C22"/>
<path d="M103.9 100H123.7C126.4 96.3 121.9 91.5 119.8 91.5H103.9V100Z" fill="#AF7222"/>
<path d="M179.8 214.6L179.6 157.1C179.7 110.3 137.9 100.1 108.9 97.9001C104.7 97.6001 108 97.0001 104 97.2001C131.4 100.1 156.8 113.7 156.7 157.1L156.9 214.6H157V232.5V897.7H180V232.5L179.8 214.6Z" fill="#AF7222"/>
<path d="M55.6004 143.9H23.4004V897.1H55.6004V143.9Z" fill="#D89825"/>
<path d="M23.4004 127.3H139.9L120.9 106.8H41.9004L23.4004 127.3Z" fill="#D89825"/>
<path d="M63.3008 93.5H87.4008L85.9008 99.2H59.8008L63.3008 93.5Z" fill="#DDCA43"/>
<path d="M81.4004 29.7998V39.6998L62.4004 39.3998V52.7998H81.4004V91.4998H105.8L104.7 29.7998H81.4004Z" fill="#9B7F31"/>
<path d="M81.4004 29.7998V33.3998L104.7 40.4998V29.7998H81.4004Z" fill="#776026"/>
<path d="M96.5996 29.7998L97.9996 91.4998H105.8L104.7 29.7998H96.5996Z" fill="#776026"/>
<path d="M116.301 0H69.7012V29.8H116.301V0Z" fill="#A5A58E"/>
<path d="M77.4012 0H73.2012V29.8H77.4012V0Z" fill="#D3D2B8"/>
<path d="M93.102 0H86.502V29.8H93.102V0Z" fill="#D3D2B8"/>
<path d="M115.902 0H113.002V29.8H115.902V0Z" fill="#7A7A6A"/>
<path d="M102.902 0H99.002V29.8H102.902V0Z" fill="#7A7A6A"/>
<path d="M62.4004 52.8V48.5H83.8004L81.6004 52.8H62.4004Z" fill="#776026"/>
<path d="M63.7996 45.1C63.7996 60.6 51.1996 73.2 35.6996 73.2C20.1996 73.2 7.59961 60.6 7.59961 45.1C7.59961 29.6 20.1996 17 35.7996 17C51.2996 17 63.7996 29.6 63.7996 45.1Z" fill="#9B7F31"/>
<path d="M58.6008 28.7002C61.2008 32.9002 62.7008 37.9002 62.7008 43.2002C62.7008 58.7002 50.1008 71.3002 34.6008 71.3002C25.2008 71.3002 16.9008 66.7002 11.8008 59.6002C16.7008 67.7002 25.6008 73.1002 35.8008 73.1002C51.3008 73.1002 63.9008 60.5002 63.9008 45.0002C63.8008 39.0002 61.9008 33.3002 58.6008 28.7002Z" fill="#776026"/>
<path d="M57.6008 45.1002C57.6008 57.2002 47.8008 67.0002 35.7008 67.0002C23.6008 67.0002 13.8008 57.2002 13.8008 45.1002C13.8008 33.0002 23.6008 23.2002 35.7008 23.2002C47.8008 23.2002 57.6008 33.0002 57.6008 45.1002Z" fill="#D3D2B8"/>
<path d="M17.9004 47.5002C17.9004 35.4002 27.7004 25.6002 39.8004 25.6002C43.0004 25.6002 46.1004 26.3002 48.9004 27.6002C45.2004 24.8002 40.7004 23.2002 35.8004 23.2002C23.7004 23.2002 13.9004 33.0002 13.9004 45.1002C13.9004 53.9002 19.2004 61.6002 26.7004 65.0002C21.4004 61.0002 17.9004 54.7002 17.9004 47.5002Z" fill="#A5A58E"/>
<path d="M39 44.0996C39 45.1996 38.1 46.0996 37 46.0996C35.9 46.0996 35 45.1996 35 44.0996C35 42.9996 35.9 42.0996 37 42.0996C38.1 42.0996 39 42.9996 39 44.0996Z" fill="#776026"/>
<path d="M37 43.2998L46.9 29.7998L48.4 30.9998L37.8 45.0998L37 43.2998Z" fill="#776026"/>
<path d="M37.7008 24.7002H36.3008V28.1002H37.7008V24.7002Z" fill="#776026"/>
<path d="M37.7008 62.5996H36.3008V65.9996H37.7008V62.5996Z" fill="#776026"/>
<path d="M18.2008 43.5996H14.8008V44.9996H18.2008V43.5996Z" fill="#776026"/>
<path d="M56.0992 43.5996H52.6992V44.9996H56.0992V43.5996Z" fill="#776026"/>
<path d="M22.2967 56.0968L19.8926 58.501L20.8825 59.4909L23.2867 57.0868L22.2967 56.0968Z" fill="#776026"/>
<path d="M49.1225 29.3113L46.7188 31.7158L47.7088 32.7056L50.1126 30.3011L49.1225 29.3113Z" fill="#776026"/>
<path d="M48.8792 55.866L47.8887 56.8555L50.2918 59.261L51.2823 58.2715L48.8792 55.866Z" fill="#776026"/>
<path d="M22.0859 29.0406L21.0957 30.0303L23.4992 32.4351L24.4894 31.4454L22.0859 29.0406Z" fill="#776026"/>
<path d="M103.2 49.4002C103.2 53.9002 99.2004 57.6002 94.3004 57.6002C89.4004 57.6002 85.4004 53.9002 85.4004 49.4002C85.4004 44.9002 89.4004 41.2002 94.3004 41.2002C99.2004 41.2002 103.2 44.9002 103.2 49.4002Z" fill="#776026"/>
<path d="M103.189 45.8666C103.328 40.5662 99.1444 36.1565 93.844 36.0171C88.5437 35.8777 84.1339 40.0615 83.9946 45.3619C83.8552 50.6622 88.039 55.072 93.3393 55.2113C98.6396 55.3507 103.049 51.1669 103.189 45.8666Z" fill="#D8AE45"/>
<path d="M101.3 45.5994C101.3 49.8994 97.8004 53.2994 93.6004 53.2994C89.3004 53.2994 85.9004 49.7994 85.9004 45.5994C85.9004 41.3994 89.4004 37.8994 93.6004 37.8994C97.9004 37.8994 101.3 41.3994 101.3 45.5994Z" fill="#16313A"/>
</g>
<defs>
<clipPath id="clip0">
<rect width="179.9" height="926.9" fill="white"/>
</clipPath>
</defs>
</svg>
