<svg width="1838" height="918" viewBox="0 0 1838 918" fill="none" xmlns="http://www.w3.org/2000/svg">
<path d="M657.041 433.316C654.541 430.616 651.941 427.816 649.441 425.116C642.541 417.616 635.641 410.216 628.841 402.716C618.641 391.716 608.441 380.616 598.341 369.616C590.441 361.016 582.541 352.516 574.641 343.916C573.041 342.116 574.341 339.216 576.741 339.316C581.141 339.416 585.641 337.816 588.541 334.516C588.641 334.416 588.641 334.416 588.741 334.316C593.741 328.516 602.741 328.316 607.941 333.916C610.641 336.916 613.441 339.916 616.141 342.816C623.941 351.216 631.741 359.716 639.441 368.116C643.141 372.116 646.741 376.116 650.441 380.116C650.641 380.316 650.741 380.416 650.941 380.616C655.441 385.516 664.541 385.216 668.841 380.316C673.641 374.916 673.341 367.616 668.541 362.416C666.041 359.716 663.441 356.916 660.941 354.216C659.741 352.816 658.441 351.516 657.241 350.116C652.441 344.916 652.841 337.116 657.841 332.116C657.941 332.016 658.141 331.816 658.241 331.716C663.041 326.316 662.741 319.016 657.941 313.816C655.441 311.116 652.841 308.316 650.341 305.616C643.441 298.116 636.541 290.716 629.741 283.216C619.541 272.216 609.341 261.116 599.241 250.116C586.841 236.716 574.541 223.216 562.141 209.816C548.541 195.016 534.941 180.316 521.341 165.516C507.641 150.716 493.941 135.816 480.341 121.016C467.541 107.116 454.741 93.2162 441.941 79.3162C431.041 67.4162 420.241 55.7162 409.341 44.0162C401.541 35.6162 393.741 27.1162 386.041 18.7162C382.341 14.7162 378.741 10.7162 375.041 6.71623C374.841 6.51623 374.741 6.41623 374.541 6.21623C370.041 1.31623 361.041 1.51623 356.641 6.51623C351.841 11.9162 352.141 19.2162 356.941 24.4162C359.441 27.1162 362.041 29.9162 364.541 32.6162C365.841 34.0162 367.041 35.3162 368.341 36.7162C373.041 41.9162 372.641 49.7162 367.741 54.7162C367.641 54.8162 367.441 55.0162 367.341 55.1162L367.241 55.2162C363.241 59.8162 356.141 60.0162 351.941 55.5162C347.841 51.1162 343.741 46.6162 339.641 42.2162C331.841 33.8162 324.041 25.3162 316.241 16.9162C312.541 12.9162 308.941 8.91623 305.241 4.91623C305.041 4.71623 304.941 4.61623 304.741 4.41623C299.141 -1.68377 287.741 -1.38377 282.341 4.81623C276.341 11.5162 276.641 20.7162 282.741 27.2162C285.241 29.9162 287.841 32.7162 290.341 35.4162C297.241 42.9162 304.141 50.3162 310.941 57.8162C321.141 68.9162 331.341 80.0162 341.541 91.0162C349.441 99.6162 357.341 108.116 365.241 116.716C366.841 118.516 365.541 121.416 363.141 121.316C358.741 121.216 354.241 122.816 351.341 126.116C345.341 132.816 345.641 142.016 351.741 148.516C354.241 151.216 356.841 154.016 359.341 156.716C366.241 164.216 373.141 171.616 379.941 179.116C390.141 190.116 400.341 201.216 410.441 212.216C422.841 225.616 435.141 239.116 447.541 252.516C461.141 267.316 474.741 282.016 488.341 296.816C502.041 311.616 515.741 326.516 529.341 341.316C542.141 355.216 554.941 369.116 567.741 383.016C578.541 394.716 589.341 406.516 600.141 418.216C607.941 426.616 615.741 435.116 623.441 443.516C627.141 447.516 630.741 451.516 634.441 455.516C634.641 455.716 634.741 455.816 634.941 456.016C640.541 462.116 651.941 461.816 657.341 455.616C663.441 449.016 663.041 439.916 657.041 433.316Z" fill="#5A3AE0"/>
<path d="M533.2 974.412C529.5 970.412 525.8 966.412 522.1 962.412C512 951.512 501.9 940.613 491.8 929.713C476.9 913.713 462 897.613 447.1 881.613C444.3 878.513 441.4 875.513 438.6 872.413C435 868.613 437.1 862.313 442.3 861.513C447 860.713 451.5 858.613 454.8 855.113C463.6 845.513 463.6 831.813 454.8 822.213C451.1 818.213 447.4 814.213 443.7 810.213C433.6 799.313 423.5 788.413 413.4 777.513C398.5 761.513 383.6 745.413 368.7 729.413C350.5 709.813 332.4 690.313 314.2 670.713C294.3 649.313 274.4 627.813 254.5 606.413C234.4 584.813 214.3 563.113 194.3 541.513C175.5 521.313 156.7 501.113 138 480.813C122.1 463.713 106.3 446.613 90.4 429.513C79 417.313 67.7 405.013 56.3 392.813C50.9 387.013 45.6 381.213 40.2 375.413C40 375.213 39.7 374.913 39.5 374.713C31.2 365.813 14.9 365.713 6.6 374.713C-2.2 384.313 -2.2 398.013 6.6 407.613C10.3 411.613 14 415.613 17.7 419.613C27.8 430.513 37.9 441.413 48 452.313C62.9 468.313 77.8 484.413 92.7 500.413C95.5 503.513 98.4 506.513 101.2 509.613C104.8 513.413 102.7 519.713 97.5 520.513C92.8 521.313 88.3 523.413 85 526.913C76.2 536.513 76.2 550.213 85 559.813C88.7 563.813 92.4 567.813 96.1 571.813C106.2 582.713 116.3 593.613 126.4 604.513C141.3 620.513 156.2 636.613 171.1 652.613C189.3 672.213 207.4 691.713 225.6 711.313C245.5 732.713 265.4 754.213 285.3 775.613C305.4 797.213 325.5 818.913 345.5 840.513C364.3 860.713 383.1 880.913 401.8 901.213C417.7 918.312 433.5 935.413 449.4 952.513C460.8 964.713 472.1 977.013 483.5 989.213C488.9 995.013 494.2 1000.81 499.6 1006.61C499.8 1006.81 500.1 1007.11 500.3 1007.31C508.6 1016.21 524.9 1016.31 533.2 1007.31C542 997.713 542 983.912 533.2 974.412Z" fill="#5A3AE0"/>
<path d="M2174.51 1040.66C2169.51 1035.26 2164.51 1029.86 2159.51 1024.46C2145.91 1009.76 2132.21 995.062 2118.61 980.362C2098.41 958.662 2078.31 936.863 2058.11 915.163C2033.51 888.663 2008.91 862.062 1984.21 835.562C1957.21 806.463 1930.31 777.462 1903.31 748.362C1902.31 747.263 1901.21 746.163 1900.21 744.963C1896.51 740.963 1899.01 734.263 1904.51 733.963C1911.91 733.463 1919.21 730.562 1924.21 725.062C1935.91 712.362 1936.01 694.062 1924.21 681.362C1919.21 675.962 1914.21 670.563 1909.21 665.163C1895.61 650.463 1881.91 635.763 1868.31 621.062C1848.11 599.362 1828.01 577.563 1807.81 555.863C1783.21 529.363 1758.61 502.763 1733.91 476.263C1706.91 447.163 1680.01 418.163 1653.01 389.063C1625.81 359.763 1598.61 330.363 1571.31 301.063C1545.91 273.663 1520.51 246.363 1495.11 218.963C1473.61 195.863 1452.21 172.763 1430.71 149.563C1415.31 132.963 1399.81 116.263 1384.41 99.6625C1377.11 91.7625 1369.81 83.7625 1362.41 75.9625C1362.11 75.6625 1361.81 75.2625 1361.51 74.9625C1350.51 63.0625 1328.81 62.9625 1317.81 74.9625C1306.11 87.6625 1306.01 105.963 1317.81 118.663C1322.81 124.063 1327.81 129.463 1332.81 134.863C1346.41 149.563 1360.11 164.263 1373.71 178.963C1393.91 200.663 1414.01 222.463 1434.21 244.163C1458.81 270.663 1483.41 297.263 1508.11 323.763C1535.11 352.863 1562.01 381.863 1589.01 410.963C1589.51 411.463 1589.91 411.963 1590.41 412.463C1594.31 416.663 1591.31 423.563 1585.61 423.463C1575.81 423.463 1566.01 426.963 1559.41 434.163C1552.91 441.263 1549.41 449.763 1548.91 458.363C1548.61 464.163 1541.51 466.763 1537.51 462.463C1537.41 462.363 1537.41 462.363 1537.31 462.263C1515.81 439.163 1494.41 416.063 1472.91 392.863C1457.51 376.263 1442.01 359.563 1426.61 342.963C1419.31 335.063 1412.01 327.063 1404.61 319.263C1404.31 318.963 1404.01 318.563 1403.71 318.263C1392.71 306.363 1371.01 306.263 1360.01 318.263C1348.31 330.963 1348.21 349.263 1360.01 361.963C1365.01 367.363 1370.01 372.763 1375.01 378.163C1388.61 392.863 1402.31 407.563 1415.91 422.263C1436.11 443.963 1456.21 465.763 1476.41 487.463C1501.01 513.963 1525.61 540.563 1550.31 567.063C1577.31 596.163 1604.21 625.163 1631.21 654.263C1658.41 683.562 1685.61 712.963 1712.91 742.263C1738.31 769.663 1763.71 796.962 1789.11 824.362C1810.61 847.462 1832.01 870.562 1853.51 893.763C1868.91 910.362 1884.41 927.063 1899.81 943.663C1907.11 951.563 1914.41 959.562 1921.81 967.362C1922.11 967.662 1922.41 968.062 1922.71 968.362C1933.71 980.263 1955.41 980.362 1966.41 968.362C1971.31 963.062 1974.21 956.663 1975.01 950.163C1975.71 944.663 1982.61 942.563 1986.31 946.563C1987.01 947.363 1987.71 948.162 1988.51 948.862C2010.01 971.962 2031.41 995.062 2052.91 1018.26C2068.31 1034.86 2083.81 1051.56 2099.21 1068.16C2106.51 1076.06 2113.81 1083.96 2121.21 1091.86C2121.51 1092.16 2121.81 1092.56 2122.11 1092.86C2135.31 1107.16 2161.31 1107.26 2174.51 1092.86C2188.51 1077.86 2188.61 1055.96 2174.51 1040.66Z" fill="#5A3AE0"/>
</svg>
