<?xml version="1.0" encoding="utf-8"?>
<!-- Generator: Adobe Illustrator 24.0.2, SVG Export Plug-In . SVG Version: 6.00 Build 0)  -->
<svg version="1.1" id="Layer_1" xmlns="http://www.w3.org/2000/svg" xmlns:xlink="http://www.w3.org/1999/xlink" x="0px" y="0px"
	 viewBox="0 0 1069 634" style="enable-background:new 0 0 1069 634;" xml:space="preserve">
<style type="text/css">
	.st0{fill:#7F9199;}
	.st1{fill:url(#SVGID_1_);}
	.st2{fill:#DC5B56;}
	.st3{fill:#FFFFFF;}
	.st4{fill:#00008B;}
	.st5{fill:none;stroke:#00008B;stroke-width:5.144;stroke-linejoin:round;stroke-miterlimit:10;}
	.st6{fill:#FD0000;}
</style>
<path class="st0" d="M1045.4,633.3H36c-12.8,0-23.3-9.7-23.3-22.2v-583c0-4.2,10.3-7.7,23.3-7.7h1009.4c12.8,0,23.3,12,23.3,16.2
	v580.5C1068.7,627.6,1058.2,633.3,1045.4,633.3z"/>
<linearGradient id="SVGID_1_" gradientUnits="userSpaceOnUse" x1="385.2069" y1="-195.9862" x2="670.2175" y2="664.6666" gradientTransform="matrix(1 0 0 1 0 74)">
	<stop  offset="0" style="stop-color:#D1E2EF"/>
	<stop  offset="0.7904" style="stop-color:#A5B8C4"/>
</linearGradient>
<path class="st1" d="M1032.6,615.4H23.3c-12.8,0-23.3-6.1-23.3-16.3V17C0.2,12.9,7,0,19.8,0h1016.9c12.8,0,19.2,13.7,19.2,18v584.4
	C1055.9,613.7,1045.4,615.4,1032.6,615.4z"/>
<path class="st2" d="M1023.5,331.6H33V59c0-16,13.1-29.1,29.2-29.1h932.2c16.1,0,29.2,13.1,29.2,29.2v272.5H1023.5z"/>
<path class="st3" d="M380.1,232.7l-1-1c-1.6-2.3-12.8-37.9-8.2-73c5.4-40.5,27.8-61.3,66.8-61.8c1,0,2.1,0,3.1,0
	c22.7,0,49.1,3.1,74.8,6.1c25.9,3,52.6,6.1,75.5,6.1c27.8,0,46.5-4.5,57.5-14.2l1.9-1.6l24.8,7.5l0.9,0.9
	c1.9,2.6,12.6,33.2,8.9,68.1c-4.2,39-25.5,58.7-64.8,60.4c-0.9,0-1.6,0-2.4,0c-1.2,0-2.6,0-3.8,0c-1.4,0-2.8,0-4.2,0
	c-21.7,0-47.2-2.3-71.7-4.5c-25.9-2.6-51-4.9-73.1-4.9c-30.1,0-50.3,4.7-61.7,14.5l-1.6,1.4L380.1,232.7z"/>
<path class="st4" d="M673.1,104.5L651.8,98c-38.1,32.8-144,2.1-214.1,3c-32,0.3-56.6,15.2-62.4,58.2c-4.7,35.3,7,69.7,7,69.7
	l18.2,3.1c38.1-32.8,149.6-3,219.5-5.9c30.6-1.2,55.9-13.6,60.7-56.8C684.8,133.5,673.1,104.5,673.1,104.5z"/>
<path class="st5" d="M673.1,104.5L651.8,98c-38.1,32.8-144,2.1-214.1,3c-32,0.3-56.6,15.2-62.4,58.2c-4.7,35.3,7,69.7,7,69.7
	l18.2,3.1c38.1-32.8,149.6-3,219.5-5.9c30.6-1.2,55.9-13.6,60.7-56.8C684.8,133.5,673.1,104.5,673.1,104.5z"/>
<path class="st3" d="M671.2,108.8c0,0,27.8,82.6-22,107.8c-50.2,25.5-201.4-29.9-263.8,9.4c0.2-1.9-27.6-86.3,21.5-115
	C454.6,83.5,594.4,145.4,671.2,108.8z"/>
<path class="st6" d="M448.3,165.8c4-2.6,6.1-6.3,6.1-11.2c0-9.8-6.5-14.8-19.4-14.8h-28.1v57.5h28.8c9.8,0,21.3-4.5,21.3-17.1
	C457,173.1,453.9,168.2,448.3,165.8z M434,185.2h-12.2v-33.7h10.5c6.5,0,7.3,2.6,7.3,5.1c0,3.5-2.1,5.4-6.5,5.4h-3.5l-5.2,10.7h9.6
	c5.2,0,7.7,2.1,7.7,6.6C442,181.9,441.1,185.2,434,185.2z"/>
<path class="st6" d="M475.6,139.6h-15v57.5h15V139.6z"/>
<path class="st6" d="M511.9,172.3l-7.3-32.7h-23.9v57.3h15v-35.1l8.9,35.1h15l8.9-35.3v35.3h15v-57.3h-23.9L511.9,172.3z"/>
<path class="st6" d="M590.6,166.1c4-2.6,6.1-6.3,6.1-11.2c0-9.8-6.5-14.9-19.4-14.9h-28.1v57.3h28.7c9.8,0,21.3-4.5,21.3-17.1
	C599.3,173.5,596.2,168.6,590.6,166.1z M576.2,185.5H564v-33.7h10.5c6.5,0,7.3,2.6,7.3,5.1c0,3.5-2.1,5.4-6.5,5.4h-3.5l-5.2,10.7
	h9.6c5.2,0,7.7,2.1,7.7,6.6C584.3,182,583.4,185.5,576.2,185.5z"/>
<path class="st6" d="M631.5,139.1c-16.6,0-30.2,12.9-30.2,28.8s13.6,28.8,30.2,28.8c16.8,0,30.2-12.9,30.2-28.8
	C661.9,152,648.3,139.1,631.5,139.1z M631.5,183.1c-8.6,0-15.9-7-15.9-15.2s7.3-15.2,15.9-15.2c8.7,0,15.7,6.8,15.7,15.2
	S640.2,183.1,631.5,183.1z"/>
<path class="st4" d="M426.1,132.6c-1.2,0.7-2.6,1-4,1.4c-1.4,0.3-2.8,0.3-4.4,0.3s-3-0.2-4.4-0.7s-2.4-1-3.5-1.9
	c-1-0.9-1.7-1.9-2.3-3c-0.5-1.2-0.9-2.4-0.9-4c0-1.4,0.4-2.8,0.9-4s1.2-2.3,2.3-3c1-0.9,2.1-1.4,3.5-1.9s2.8-0.7,4.4-0.7
	s3.1,0.2,4.4,0.5c1.2,0.3,2.6,0.9,3.5,1.7l-3.1,3.1c-0.5-0.5-1.2-1-2.1-1.2c-0.7-0.3-1.7-0.5-2.8-0.5c-0.9,0-1.7,0.2-2.6,0.5
	c-0.7,0.3-1.4,0.7-1.9,1.2s-1,1.2-1.2,1.9c-0.3,0.7-0.5,1.6-0.5,2.3c0,0.9,0.2,1.6,0.5,2.3c0.4,0.7,0.7,1.4,1.2,1.9s1.2,0.9,1.9,1.2
	c0.7,0.3,1.6,0.5,2.6,0.5s1.7-0.2,2.4-0.3c0.7-0.2,1.2-0.4,1.7-0.5v-3H418V123h7.9L426.1,132.6z"/>
<path class="st4" d="M428.9,115.7h7.7c1,0,1.9,0.2,3,0.3c1,0.2,1.7,0.5,2.4,0.9c0.7,0.3,1.2,1,1.6,1.7c0.3,0.7,0.5,1.6,0.5,2.6
	c0,1.2-0.3,2.4-1,3.3s-1.7,1.4-3.3,1.7l5.1,7.7h-5.2l-4.2-7.3h-2.3v7.3h-4.4L428.9,115.7z M433.3,123.2h2.6c0.4,0,0.9,0,1.2,0
	c0.5,0,0.9-0.2,1.2-0.2c0.4-0.2,0.7-0.3,0.9-0.5c0.2-0.4,0.4-0.7,0.4-1.2s-0.2-0.9-0.4-1c-0.2-0.3-0.5-0.5-0.9-0.7s-0.7-0.2-1-0.3
	c-0.3,0-0.9,0-1.2,0h-3L433.3,123.2z"/>
<path class="st4" d="M463.2,126.8c0,1-0.2,2.1-0.5,3s-0.9,1.7-1.6,2.4s-1.6,1.2-2.6,1.6c-1,0.4-2.3,0.5-3.7,0.5s-2.6-0.2-3.7-0.5
	c-1-0.3-1.9-0.9-2.6-1.6c-0.7-0.7-1.2-1.4-1.6-2.4c-0.3-0.9-0.5-1.9-0.5-3v-11.2h4.4v11c0,0.5,0.2,1,0.3,1.6
	c0.2,0.5,0.5,0.9,0.9,1.2s0.9,0.7,1.2,0.9c0.5,0.2,1,0.4,1.6,0.4s1-0.2,1.6-0.4c0.5-0.2,0.9-0.5,1.2-0.9c0.3-0.3,0.7-0.7,0.9-1.2
	c0.2-0.5,0.3-1,0.3-1.6v-11h4.4L463.2,126.8L463.2,126.8z"/>
<path class="st4" d="M466.1,115.7h7.5c1,0,2.1,0,3,0.2s1.7,0.5,2.4,0.9c0.7,0.3,1.2,1,1.6,1.7c0.3,0.7,0.5,1.6,0.5,2.6
	s-0.2,1.9-0.5,2.6c-0.4,0.7-0.9,1.2-1.6,1.7c-0.7,0.3-1.4,0.7-2.3,0.9c-0.9,0.2-1.9,0.3-3,0.3h-3.3v7.2H466L466.1,115.7L466.1,115.7
	z M470.5,123.3h3c0.4,0,0.7,0,1.2-0.2c0.3,0,0.7-0.2,1-0.3c0.4-0.2,0.5-0.3,0.7-0.7c0.2-0.3,0.3-0.7,0.3-1c0-0.5-0.2-0.9-0.3-1
	c-0.2-0.3-0.5-0.5-0.9-0.7s-0.7-0.2-1.2-0.3c-0.5,0-0.9,0-1.2,0h-2.3v4.4h-0.3V123.3z"/>
<path class="st4" d="M482.7,124.7c0-1.4,0.4-2.8,0.9-4s1.2-2.3,2.3-3c1-0.9,2.1-1.4,3.5-1.9s2.8-0.7,4.4-0.7s3,0.2,4.4,0.7
	s2.4,1,3.5,1.9c1,0.9,1.7,1.9,2.3,3c0.5,1.2,0.9,2.4,0.9,4c0,1.4-0.4,2.8-0.9,4s-1.2,2.3-2.3,3c-1,0.9-2.1,1.4-3.5,1.9
	s-2.8,0.7-4.4,0.7s-3-0.2-4.4-0.7s-2.4-1-3.5-1.9c-1-0.9-1.7-1.9-2.3-3C483.1,127.5,482.7,126.1,482.7,124.7z M487.5,124.7
	c0,0.9,0.2,1.6,0.5,2.3c0.3,0.7,0.7,1.4,1.2,1.9s1.2,0.9,1.9,1.2c0.7,0.3,1.6,0.5,2.6,0.5s1.7-0.2,2.6-0.5c0.7-0.4,1.4-0.7,1.9-1.2
	s1-1.2,1.2-1.9c0.4-0.7,0.5-1.6,0.5-2.3c0-0.9-0.2-1.6-0.5-2.3c-0.3-0.7-0.7-1.4-1.2-1.9s-1.2-0.9-1.9-1.2c-0.7-0.3-1.6-0.5-2.6-0.5
	s-1.7,0.2-2.6,0.5c-0.7,0.3-1.4,0.7-1.9,1.2s-1,1.2-1.2,1.9C487.6,123.2,487.5,123.9,487.5,124.7z"/>
<path class="st4" d="M671,218.9c0-1,0.2-2.1,0.7-3c0.3-0.9,1-1.7,1.7-2.4s1.6-1.2,2.4-1.6c0.9-0.3,1.9-0.5,3-0.5c1,0,2.1,0.2,3,0.5
	s1.7,0.9,2.4,1.6c0.7,0.7,1.2,1.4,1.7,2.3c0.4,0.9,0.7,1.9,0.7,3s-0.2,2.1-0.7,3c-0.3,0.9-1,1.7-1.7,2.4s-1.6,1.2-2.4,1.6
	c-0.9,0.3-1.9,0.5-3,0.5c-1,0-2.1-0.2-3-0.5s-1.7-0.9-2.4-1.6c-0.7-0.7-1.2-1.4-1.7-2.3C671.2,221,671,219.9,671,218.9z
	 M672.4,218.9c0,0.9,0.2,1.7,0.5,2.4c0.4,0.7,0.9,1.4,1.4,1.9s1.2,1,2.1,1.4c0.9,0.4,1.6,0.5,2.6,0.5s1.7-0.2,2.6-0.5
	c0.9-0.3,1.6-0.7,2.1-1.4s1-1.2,1.4-2.1c0.3-0.7,0.5-1.6,0.5-2.4c0-0.9-0.2-1.7-0.5-2.4s-0.9-1.4-1.4-1.9s-1.2-1-2.1-1.4
	c-0.9-0.3-1.6-0.5-2.6-0.5c-0.9,0-1.7,0.2-2.6,0.5c-0.9,0.3-1.6,0.7-2.1,1.4c-0.5,0.5-1,1.2-1.4,2.1
	C672.6,217.2,672.4,218,672.4,218.9z M676.1,214.7h3.3c1,0,1.9,0.2,2.4,0.5c0.5,0.4,0.7,1,0.7,1.9c0,0.7-0.2,1.4-0.7,1.7
	s-1,0.5-1.7,0.7l2.6,3.8h-1.4l-2.4-3.7h-1.6v3.7h-1.2L676.1,214.7L676.1,214.7z M677.3,218.6h1.6c0.3,0,0.5,0,0.9,0
	c0.3,0,0.5,0,0.9-0.2c0.2-0.2,0.3-0.2,0.5-0.4s0.2-0.5,0.2-0.9s0-0.5-0.2-0.7s-0.3-0.3-0.5-0.3c-0.2-0.2-0.4-0.2-0.7-0.2
	c-0.2,0-0.5,0-0.7,0h-1.9L677.3,218.6L677.3,218.6z"/>
</svg>
