<svg width="802" height="319" viewBox="0 0 802 319" fill="none" xmlns="http://www.w3.org/2000/svg">
<path d="M774.988 249.576H27.1321C12.2485 249.576 0.121094 257.609 0.121094 267.467V300.692C0.121094 310.55 12.2485 318.583 27.1321 318.583H774.988C789.872 318.583 801.999 310.55 801.999 300.692V267.467C801.816 257.609 789.688 249.576 774.988 249.576ZM783.441 300.692C783.441 303.856 779.582 306.412 774.805 306.412H26.9484C22.1709 306.412 18.3122 303.856 18.3122 300.692V267.467C18.3122 264.302 22.1709 261.747 26.9484 261.747H774.805C779.582 261.747 783.441 264.302 783.441 267.467V300.692Z" fill="white"/>
<path d="M505.018 120.336H297.06C289.982 120.336 284.191 117.302 284.191 113.594V11.1151C284.191 7.40695 289.982 4.37305 297.06 4.37305H505.018C512.096 4.37305 517.887 7.40695 517.887 11.1151V113.594C517.887 117.302 512.096 120.336 505.018 120.336Z" stroke="white" stroke-width="7" stroke-miterlimit="10"/>
<path d="M488.926 112.897H421.877C421.741 112.897 411.457 111.544 412.066 100.177C412.472 92.3967 412.472 67.2955 412.54 61.1386C409.495 58.6352 402.526 51.1928 405.165 36.5786C408.954 15.2662 434.055 12.4922 455.503 12.4922C476.951 12.4922 502.052 15.1985 505.841 36.5786C508.412 51.1928 501.443 58.6352 498.466 61.1386C498.466 67.2955 498.534 92.3967 498.94 100.177C499.481 111.544 489.197 112.897 489.129 112.897H488.926ZM422.35 107.485H488.588C489.67 107.282 493.797 106.199 493.527 100.448C493.053 91.5172 493.053 61.0709 493.053 59.7854V58.2969L494.339 57.485C494.677 57.282 503.067 51.8017 500.496 37.5258C498.06 23.9941 484.19 17.9049 455.435 17.9049C426.68 17.9049 412.81 23.9265 410.375 37.5258C407.804 51.8017 416.193 57.282 416.532 57.485L417.817 58.2969V59.7854C417.817 61.0709 417.817 91.4495 417.344 100.448C417.141 106.334 421.403 107.349 422.35 107.485Z" fill="white"/>
<path d="M379.387 112.897H312.338C312.202 112.897 301.918 111.544 302.527 100.177C302.933 92.3964 302.933 67.2952 303.001 61.1383C299.956 58.6349 292.987 51.1925 295.626 36.5783C299.347 15.2659 324.448 12.5596 345.964 12.5596C367.479 12.5596 392.513 15.2659 396.302 36.6459C398.873 51.2602 391.904 58.7026 388.927 61.2059C388.927 67.3629 388.994 92.4641 389.4 100.245C389.942 111.611 379.658 112.965 379.59 112.965L379.387 112.897ZM312.811 107.484H379.049C380.131 107.281 384.258 106.199 383.988 100.448C383.514 91.5169 383.514 61.0706 383.514 59.7851V58.2966L384.8 57.4847C385.138 57.2818 393.528 51.8014 390.957 37.5255C388.521 23.9938 374.651 17.9046 345.896 17.9046C317.141 17.9046 303.271 23.9262 300.836 37.5255C298.265 51.8014 306.654 57.2818 306.993 57.4847L308.278 58.2966V59.7851C308.278 61.0706 308.278 91.4492 307.804 100.448C307.601 106.334 311.864 107.349 312.811 107.484Z" fill="white"/>
<path d="M392.629 88.0255C315.793 118.123 287.732 56.3055 283.306 21.6348V110.156C282.598 119.008 291.863 120.926 296.584 120.778H399.268H500.182C512.575 122.549 516.854 116.205 517.444 112.811V37.5685C453.709 20.307 439.545 68.5509 392.629 88.0255Z" fill="white"/>
<mask id="mask0" mask-type="alpha" maskUnits="userSpaceOnUse" x="470" y="117" width="67" height="67">
<path d="M517.654 117.697C492.252 114.942 476.636 128.154 470.662 135.796L476.795 146.462C471.6 154.819 476.333 159.678 476.725 160.227C478.615 162.873 479.68 163.098 481.903 164.967L492.466 173.961L502.946 183.149L535.383 161.594C541.381 151.464 526.063 128.108 517.654 117.697Z" fill="white"/>
</mask>
<g mask="url(#mask0)">
<path d="M514.931 117.912C508.689 116.412 502.144 116.78 496.11 118.97C491.603 120.456 487.28 122.453 483.226 124.92L476.427 114.191C475.212 112.412 473.341 111.187 471.225 110.784C469.109 110.381 466.919 110.832 465.135 112.04C463.281 113.137 461.938 114.925 461.398 117.01C460.859 119.096 461.167 121.31 462.256 123.169L475.083 143.414L469.817 142.268C467.503 141.772 465.088 142.204 463.089 143.47C461.09 144.737 459.668 146.737 459.128 149.04C458.85 150.184 458.805 151.372 458.995 152.533C459.185 153.694 459.606 154.806 460.234 155.801C461.418 157.752 463.326 159.154 465.542 159.701L482.056 164.899C484.321 167.466 487.042 169.59 490.082 171.163C492.364 172.408 494.831 173.278 497.389 173.74L499.852 177.627C500.197 178.185 500.742 178.59 501.377 178.758C502.011 178.926 502.685 178.845 503.262 178.531L531.422 160.689C531.952 160.302 532.314 159.727 532.433 159.081C532.552 158.436 532.419 157.77 532.061 157.219L528.598 151.753C529.575 144.496 527.926 137.129 523.948 130.981L516.252 118.834C515.931 118.383 515.465 118.057 514.931 117.912ZM519.964 133.647C523.503 138.948 524.946 145.375 524.012 151.68C523.796 152.327 523.837 153.033 524.126 153.651L526.896 158.024L502.886 173.236L500.988 170.24C500.778 169.908 500.49 169.632 500.149 169.438C499.808 169.243 499.425 169.135 499.032 169.124C496.727 168.841 494.502 168.1 492.487 166.944C489.814 165.577 487.45 163.675 485.543 161.357C485.244 160.932 484.815 160.617 484.321 160.457L466.895 154.986C466.368 154.871 465.868 154.653 465.426 154.344C464.984 154.034 464.607 153.641 464.319 153.185C464.03 152.729 463.834 152.22 463.744 151.688C463.653 151.157 463.669 150.612 463.791 150.086C464.041 149.007 464.706 148.07 465.642 147.478C466.578 146.885 467.709 146.684 468.791 146.918L478.713 149.143L482.74 155.5L485.507 150.911L466.305 120.604C465.907 119.817 465.831 118.907 466.091 118.065C466.351 117.222 466.928 116.514 467.7 116.089C468.414 115.572 469.301 115.353 470.174 115.478C471.047 115.602 471.837 116.06 472.378 116.756L487.514 140.645L492.115 138.95L485.804 128.99C487.524 127.947 489.297 126.994 491.116 126.134L497.825 136.723L501.513 135.379L494.65 124.548C495.583 124.184 496.549 123.827 497.56 123.498C498.784 123.108 500.028 122.784 501.286 122.528L507.892 132.954L511.58 131.61L505.462 121.954C507.891 121.717 510.341 121.816 512.742 122.249L519.964 133.647Z" fill="#FCB527"/>
<path d="M485.498 164.857C479.117 161.746 472.054 156.803 478.967 146.571" stroke="#FCB527" stroke-width="9"/>
<path d="M485.198 126.565C482.918 127.21 477.208 129.676 472.611 134.374" stroke="#FCB527" stroke-width="10"/>
</g>
<mask id="mask1" mask-type="alpha" maskUnits="userSpaceOnUse" x="0" y="152" width="802" height="90">
<rect y="152" width="802" height="90" fill="#C4C4C4"/>
</mask>
<g mask="url(#mask1)">
<path d="M256.274 291.181H48.316C41.2382 291.181 35.4473 288.147 35.4473 284.439V181.961C35.4473 178.253 41.2382 175.219 48.316 175.219H256.274C263.352 175.219 269.143 178.253 269.143 181.961V284.439C269.143 288.147 263.352 291.181 256.274 291.181Z" stroke="white" stroke-width="7" stroke-miterlimit="10"/>
<path d="M240.18 283.743H173.131C172.995 283.743 162.711 282.39 163.32 271.023C163.726 263.242 163.726 238.141 163.794 231.984C160.749 229.481 153.78 222.038 156.419 207.424C160.208 186.112 185.309 183.338 206.757 183.338C228.204 183.338 253.306 186.044 257.095 207.424C259.666 222.038 252.697 229.481 249.72 231.984C249.72 238.141 249.787 263.242 250.193 271.023C250.735 282.39 240.451 283.743 240.383 283.743H240.18ZM173.604 278.33H239.842C240.924 278.127 245.051 277.045 244.781 271.294C244.307 262.363 244.307 231.917 244.307 230.631V229.143L245.593 228.331C245.931 228.128 254.321 222.647 251.75 208.371C249.314 194.84 235.444 188.751 206.689 188.751C177.934 188.751 164.064 194.772 161.629 208.371C159.058 222.647 167.447 228.128 167.786 228.331L169.071 229.143V230.631C169.071 231.917 169.071 262.295 168.597 271.294C168.394 277.18 172.657 278.195 173.604 278.33Z" fill="white"/>
<path d="M130.641 283.743H63.5915C63.4562 283.743 53.1721 282.389 53.781 271.023C54.187 263.242 54.187 238.141 54.2546 231.984C51.21 229.481 44.2412 222.038 46.8799 207.424C50.6011 186.112 75.7023 183.405 97.2177 183.405C118.733 183.405 143.767 186.112 147.556 207.492C150.127 222.106 143.158 229.548 140.181 232.052C140.181 238.209 140.248 263.31 140.654 271.091C141.196 282.457 130.912 283.81 130.844 283.81L130.641 283.743ZM64.0651 278.33H130.303C131.385 278.127 135.512 277.044 135.242 271.293C134.768 262.363 134.768 231.916 134.768 230.631V229.142L136.054 228.33C136.392 228.127 144.782 222.647 142.211 208.371C139.775 194.84 125.905 188.75 97.15 188.75C68.3952 188.75 54.5253 194.772 52.0896 208.371C49.5185 222.647 57.9082 228.127 58.2465 228.33L59.532 229.142V230.631C59.532 231.916 59.532 262.295 59.0584 271.293C58.8554 277.18 63.1179 278.195 64.0651 278.33Z" fill="white"/>
<path d="M143.885 258.871C67.049 288.968 38.9879 227.151 34.5618 192.48V281.001C33.8537 289.854 43.1189 291.771 47.84 291.624H150.524H251.438C263.831 293.394 268.11 287.05 268.7 283.657V208.414C204.965 191.153 190.801 239.397 143.885 258.871Z" fill="white"/>
<path d="M753.762 291.181H545.804C538.726 291.181 532.936 288.147 532.936 284.439V181.961C532.936 178.253 538.726 175.219 545.804 175.219H753.762C760.84 175.219 766.631 178.253 766.631 181.961V284.439C766.631 288.147 760.84 291.181 753.762 291.181Z" stroke="white" stroke-width="7" stroke-miterlimit="10"/>
<path d="M737.67 283.743H670.621C670.485 283.743 660.201 282.39 660.81 271.023C661.216 263.242 661.216 238.141 661.284 231.984C658.239 229.481 651.27 222.038 653.909 207.424C657.698 186.112 682.799 183.338 704.247 183.338C725.695 183.338 750.796 186.044 754.585 207.424C757.156 222.038 750.187 229.481 747.21 231.984C747.21 238.141 747.278 263.242 747.684 271.023C748.225 282.39 737.941 283.743 737.873 283.743H737.67ZM671.094 278.33H737.332C738.414 278.127 742.542 277.045 742.271 271.294C741.797 262.363 741.797 231.917 741.797 230.631V229.143L743.083 228.331C743.421 228.128 751.811 222.647 749.24 208.371C746.804 194.84 732.934 188.751 704.179 188.751C675.425 188.751 661.555 194.772 659.119 208.371C656.548 222.647 664.937 228.128 665.276 228.331L666.561 229.143V230.631C666.561 231.917 666.561 262.295 666.088 271.294C665.885 277.18 670.147 278.195 671.094 278.33Z" fill="white"/>
<path d="M628.131 283.743H561.082C560.946 283.743 550.662 282.389 551.271 271.023C551.677 263.242 551.677 238.141 551.745 231.984C548.7 229.481 541.731 222.038 544.37 207.424C548.091 186.112 573.193 183.405 594.708 183.405C616.223 183.405 641.257 186.112 645.046 207.492C647.617 222.106 640.648 229.548 637.671 232.052C637.671 238.209 637.739 263.31 638.145 271.091C638.686 282.457 628.402 283.81 628.334 283.81L628.131 283.743ZM561.555 278.33H627.793C628.875 278.127 633.003 277.044 632.732 271.293C632.258 262.363 632.258 231.916 632.258 230.631V229.142L633.544 228.33C633.882 228.127 642.272 222.647 639.701 208.371C637.265 194.84 623.395 188.75 594.64 188.75C565.885 188.75 552.015 194.772 549.58 208.371C547.009 222.647 555.398 228.127 555.737 228.33L557.022 229.142V230.631C557.022 231.916 557.022 262.295 556.549 271.293C556.346 277.18 560.608 278.195 561.555 278.33Z" fill="white"/>
<path d="M641.374 258.871C564.537 288.968 536.476 227.151 532.05 192.48V281.001C531.342 289.854 540.607 291.771 545.328 291.624H648.013H748.926C761.319 293.394 765.598 287.05 766.188 283.657V208.414C702.453 191.153 688.29 239.397 641.374 258.871Z" fill="white"/>
<path d="M401.006 228C401.864 227.966 402.856 227.614 403.481 227.027L423.882 207.876C425.052 206.578 425.534 204.09 424.182 202.639C422.851 201.21 420.269 201.253 418.932 202.676L404.606 216.142V152.591C404.606 150.608 402.995 149 401.006 149C399.018 149 397.406 150.608 397.406 152.591V216.142L383.08 202.676C381.85 201.451 379.177 201.224 377.83 202.639C376.484 204.054 376.914 206.631 378.13 207.876L398.531 227.027C399.229 227.683 400.048 228.002 401.006 228Z" fill="white"/>
</g>
</svg>
