<?xml version="1.0" encoding="utf-8"?>
<!-- Generator: Adobe Illustrator 24.0.2, SVG Export Plug-In . SVG Version: 6.00 Build 0)  -->
<svg version="1.1" id="Layer_1" xmlns="http://www.w3.org/2000/svg" xmlns:xlink="http://www.w3.org/1999/xlink" x="0px" y="0px"
	 viewBox="0 0 585.7 324.7" style="enable-background:new 0 0 585.7 324.7;" xml:space="preserve">
<style type="text/css">
	.st0{fill:#00BAE7;}
	.st1{fill:#EFD0A3;}
	.st2{fill:#DDA54A;}
	.st3{opacity:0.15;fill:#FFFFFF;}
	.st4{fill:#0058CF;}
	.st5{fill-rule:evenodd;clip-rule:evenodd;fill:#FFFFFF;}
	.st6{fill-rule:evenodd;clip-rule:evenodd;fill:#3D438B;}
	.st7{fill-rule:evenodd;clip-rule:evenodd;fill:#DA243C;}
	.st8{clip-path:url(#SVGID_2_);}
	.st9{opacity:0.15;fill-rule:evenodd;clip-rule:evenodd;fill:#FFFFFF;}
</style>
<g>
	<path class="st0" d="M568.9,195.8c-11.8-45.4,4.5-93.4,0.3-140.1c-0.4-4.7-1.1-9.6-3-13.9c-2.5-5.5-7-10.6-6.5-16.6
		c0.2-2.1,1-4.1,0.7-6.2c-2.1-12.6-17.8-0.9-25,6c-1.5,1.4-3.5,2.1-5.6,1.8c-0.9-0.1-1.7-0.2-2.6-0.2H57.3c-0.1,0-0.3,0-0.4,0
		c-1.8,0.1-3.5-0.4-5.1-1.4c-2.4-1.5-4.8-2.9-6.9-4.4c-1.6-1.1-9.8-4.6-15.6-7.1c-2-0.9-4.2,0.7-4.1,2.9c0.2,2.8-0.5,5.7-2.1,8.1
		c-1.7,2.5-4.2,4.3-6.2,6.6C12,37.1,10.4,45,9.5,52.6c-1,8.7-1.2,17.5-0.7,26.2c1.2,21.6,6.9,42.9,7.8,64.5
		c1.3,33.6-9,67.5-2.5,100.5c1.7,8.4,4.4,17,2.8,25.4c-0.7,3.9-2.4,7.5-3.3,11.4c-2.5,11.1,2.6,23.2,11.6,29.8
		c2.3,1.7,5.6,0.8,6.8-1.8c0.8-1.7,2.1-3.2,3.4-4.5c6.4-6.1,15.2-9.6,24.1-9.7c1.7,0,3.5,0.1,5.2-0.2h462.4c1,0,2-0.1,2.9-0.2
		c2-0.3,4.1-0.2,5.9,0.7c3.8,1.8,7.5,3.8,10.8,6.4c5.5,4.3,11.7,10.3,18.1,7.7c-1.3-16.7-2.5-34.2,4-49.7c2.2-5.2,5.2-10,6.8-15.4
		C580.4,227.9,573,211.6,568.9,195.8z"/>
	<g>
		<g>
			<g>
				<path class="st1" d="M504.1,282H324.7c-13.5,0-24.4-10.9-24.4-24.4V64.9c0-13.5,10.9-24.4,24.4-24.4h179.5
					c13.5,0,24.4,10.9,24.4,24.4v192.8C528.5,271.1,517.6,282,504.1,282z"/>
				<g>
					<path class="st2" d="M506.5,286.5H322.3c-14.6,0-26.5-11.9-26.5-26.5V62.5c0-14.6,11.9-26.5,26.5-26.5h184.2
						c14.6,0,26.5,11.9,26.5,26.5V260C533,274.6,521.1,286.5,506.5,286.5z M322.3,45c-9.6,0-17.5,7.8-17.5,17.5V260
						c0,9.6,7.8,17.5,17.5,17.5h184.2c9.6,0,17.5-7.8,17.5-17.5V62.5c0-9.6-7.8-17.5-17.5-17.5H322.3z"/>
				</g>
			</g>
			<ellipse class="st2" cx="332.1" cy="143.6" rx="4.4" ry="4.6"/>
			<ellipse class="st2" cx="374.1" cy="129.4" rx="4.4" ry="4.6"/>
			<ellipse class="st2" cx="370.7" cy="89.1" rx="4.4" ry="4.6"/>
			<ellipse class="st2" cx="361.8" cy="189.1" rx="4.4" ry="4.6"/>
			<ellipse class="st2" cx="437.8" cy="163.7" rx="4.4" ry="4.6"/>
			<ellipse class="st2" cx="394.3" cy="159.1" rx="4.4" ry="4.6"/>
			<ellipse class="st2" cx="433.3" cy="104.4" rx="4.4" ry="4.6"/>
			<ellipse class="st2" cx="384.9" cy="198.2" rx="4.4" ry="4.6"/>
			<ellipse class="st2" cx="426.9" cy="184" rx="4.4" ry="4.6"/>
			<ellipse class="st2" cx="423.4" cy="143.8" rx="4.4" ry="4.6"/>
			<ellipse class="st2" cx="414.6" cy="243.8" rx="4.4" ry="4.6"/>
			<ellipse class="st2" cx="490.5" cy="218.3" rx="4.4" ry="4.6"/>
			<ellipse class="st2" cx="447" cy="213.8" rx="4.4" ry="4.6"/>
			<ellipse class="st2" cx="486.1" cy="159" rx="4.4" ry="4.6"/>
		</g>
		<g>
			<g>
				<path class="st1" d="M261.4,282H81.9c-13.5,0-24.4-10.9-24.4-24.4V64.9c0-13.5,10.9-24.4,24.4-24.4h179.5
					c13.5,0,24.4,10.9,24.4,24.4v192.8C285.7,271.1,274.8,282,261.4,282z"/>
				<g>
					<path class="st2" d="M263.7,286.5H79.5C64.9,286.5,53,274.6,53,260V62.5C53,47.9,64.9,36,79.5,36h184.2
						c14.6,0,26.5,11.9,26.5,26.5V260C290.2,274.6,278.3,286.5,263.7,286.5z M79.5,45C69.9,45,62,52.9,62,62.5V260
						c0,9.6,7.8,17.5,17.5,17.5h184.2c9.6,0,17.5-7.8,17.5-17.5V62.5c0-9.6-7.8-17.5-17.5-17.5H79.5z"/>
				</g>
			</g>
			<ellipse class="st2" cx="89.3" cy="143.6" rx="4.4" ry="4.6"/>
			<ellipse class="st2" cx="131.4" cy="129.4" rx="4.4" ry="4.6"/>
			<ellipse class="st2" cx="127.9" cy="89.1" rx="4.4" ry="4.6"/>
			<ellipse class="st2" cx="119.1" cy="189.1" rx="4.4" ry="4.6"/>
			<ellipse class="st2" cx="195" cy="163.7" rx="4.4" ry="4.6"/>
			<ellipse class="st2" cx="151.5" cy="159.1" rx="4.4" ry="4.6"/>
			<ellipse class="st2" cx="190.6" cy="104.4" rx="4.4" ry="4.6"/>
			<ellipse class="st2" cx="142.1" cy="198.2" rx="4.4" ry="4.6"/>
			<ellipse class="st2" cx="184.1" cy="184" rx="4.4" ry="4.6"/>
			<ellipse class="st2" cx="180.7" cy="143.8" rx="4.4" ry="4.6"/>
			<ellipse class="st2" cx="171.8" cy="243.8" rx="4.4" ry="4.6"/>
			<ellipse class="st2" cx="247.7" cy="218.3" rx="4.4" ry="4.6"/>
			<ellipse class="st2" cx="204.3" cy="213.8" rx="4.4" ry="4.6"/>
			<ellipse class="st2" cx="243.3" cy="159" rx="4.4" ry="4.6"/>
		</g>
	</g>
	<path class="st3" d="M568.9,195.8c-11.8-45.4,4.5-93.4,0.3-140.1c-0.4-4.7-1.1-9.6-3-13.9c-2.5-5.5-7-10.6-6.5-16.6
		c0.2-2.1,1-4.1,0.7-6.2c-2.1-12.6-17.8-0.9-25,6c-1.5,1.4-3.5,2.1-5.6,1.8c-0.9-0.1-1.7-0.2-2.6-0.2H57.3c-0.1,0-0.3,0-0.4,0
		c-1.8,0.1-3.5-0.4-5.1-1.4c-2.4-1.5-4.8-2.9-6.9-4.4c-1.6-1.1-9.8-4.6-15.6-7.1c-2-0.9-4.2,0.7-4.1,2.9c0.2,2.8-0.5,5.7-2.1,8.1
		c-1.7,2.5-4.2,4.3-6.2,6.6C12,37.1,10.4,45,9.5,52.6c-1,8.7-1.2,17.5-0.7,26.2c1.2,21.6,6.9,42.9,7.8,64.5
		c1.3,33.6-9,67.5-2.5,100.5c1.7,8.4,4.4,17,2.8,25.4c-0.7,3.9-2.4,7.5-3.3,11.4c-2.5,11.1,2.6,23.2,11.6,29.8
		c2.3,1.7,5.6,0.8,6.8-1.8c0.8-1.7,2.1-3.2,3.4-4.5c6.4-6.1,15.2-9.6,24.1-9.7c1.7,0,3.5,0.1,5.2-0.2h462.4c1,0,2-0.1,2.9-0.2
		c2-0.3,4.1-0.2,5.9,0.7c3.8,1.8,7.5,3.8,10.8,6.4c5.5,4.3,11.7,10.3,18.1,7.7c-1.3-16.7-2.5-34.2,4-49.7c2.2-5.2,5.2-10,6.8-15.4
		C580.4,227.9,573,211.6,568.9,195.8z"/>
	<path class="st4" d="M530,293.9c2-0.3,4.1-0.2,5.9,0.7c3.8,1.8,7.5,3.8,10.8,6.4c5.5,4.3,11.7,10.3,18.1,7.7
		c-1.3-16.7-2.5-34.2,4-49.7c2.2-5.2,5.2-10,6.8-15.4c4.7-15.6-2.7-31.9-6.9-47.7c-10.4-39.8,0.9-81.6,1-122.8
		c-15.9,2-31.7,7.2-45.9,14.5c-34.2,17.6-61.6,45.7-90.6,70.9c-48.2,41.9-104.1,77.7-166.9,89.1c-62.8,11.4-133.3-5.3-174.8-53.8
		c-29.9-35-38.9-85.6-24.6-129.1c3.5-10.6,12.4-25,12.8-38.1H57.3c-0.1,0-0.3,0-0.4,0c-1.8,0.1-3.5-0.4-5.1-1.4
		c-2.4-1.5-4.8-2.9-6.9-4.4c-1.6-1.1-9.8-4.6-15.6-7.1c-2-0.9-4.2,0.7-4.1,2.9c0.2,2.8-0.5,5.7-2.1,8.1c-1.7,2.5-4.2,4.3-6.2,6.6
		C12,37.1,10.4,45,9.5,52.6c-1,8.7-1.2,17.5-0.7,26.2c1.2,21.6,6.9,42.9,7.8,64.5c1.3,33.6-9,67.5-2.5,100.5
		c1.7,8.4,4.4,17,2.8,25.4c-0.7,3.9-2.4,7.5-3.3,11.4c-2.5,11.1,2.6,23.2,11.6,29.8c2.3,1.7,5.6,0.8,6.8-1.8
		c0.8-1.7,2.1-3.2,3.4-4.5c6.4-6.1,15.2-9.6,24.1-9.7c1.7,0,3.5,0.1,5.2-0.2h462.4C528.1,294.2,529.1,294.1,530,293.9z"/>
	<g>
		<path class="st5" d="M439.8,190.9c-31.9-4.1-57-3.7-71.4,6.4c-4.1-16.3-5.8-31.2-2.9-43.7c5.1-21.9,18.8-26.9,31.7-27.7
			c16.1-0.9,41.4,4.5,62.1,7.3c26.6,3.7,50.4,4.4,66.6-4.8c5.1,13.4,6,27,3.7,40.7c-2.3,15.7-11.7,23.8-26.8,25.6
			C483.2,197.2,461.2,193.7,439.8,190.9z"/>
		<path class="st6" d="M428.3,134.2c2.4,0,3.5,2,3.6,3.9c0,2.2-1.2,4.1-3.5,4.1c-2.4,0.1-3.6-1.7-3.7-3.9
			C424.7,136.3,425.7,134.2,428.3,134.2 M428.3,132.7c-3.4,0-5.8,1.9-5.8,5.4c0,3.6,2.2,5.6,5.8,5.6c3.6,0,5.8-2,5.8-5.5
			C434.1,134.6,431.9,132.7,428.3,132.7z M415.6,137.7v-3.3c1.5,0,3.4-0.3,3.4,1.6C419,137.8,417.1,137.7,415.6,137.7z M413.3,143.5
			h2.2v-4.4c1.8,0,4.1,0.1,5.2-1.6c1.1-1.6,0.6-4.4-2.5-4.6l-4.9,0V143.5z M402.3,132.9h2c0,1-0.1,6.4,0.1,7.2
			c0.4,2.3,4.5,2.2,4.8-0.2c0.1-1.4,0.1-5.5,0.1-7h2c0,1.3,0.1,7-0.1,8.1c-0.7,3-4.9,3.1-6.8,2.2c-1.8-0.8-2-2.3-2-4.1L402.3,132.9
			L402.3,132.9z M395.1,137.6v-3.1c1.5,0,3.5-0.3,3.5,1.4C398.6,137.8,396.4,137.6,395.1,137.6z M392.8,143.5h2.3V139h1.3l2.5,4.5
			h2.7l-2.9-4.8c1.3-0.5,2.4-1.4,2.4-2.9c0-2.1-1.7-2.7-3.5-2.8l-4.8,0L392.8,143.5L392.8,143.5z M387,137.7v1.4h1.7v2.3
			c-1.8,0.6-4.7,0.7-5.5-1.6c-0.8-2.3,0-5.7,3.3-5.7c1.3,0,2.1,0.4,2.7,1.5l1.2-1.5c-1-1.1-2-1.4-3.8-1.4c-7,0-6.9,7.4-4.2,9.5
			c2.2,1.7,5.7,1.2,8.3,0.6v-5.1L387,137.7L387,137.7z M426.4,192.7c-19.2-1.8-37.7-0.9-49.2,8.5c-3.6-0.6-7.2-1.2-10.8-1.8
			c-4.4-14.5-5.4-29.7-3.4-45.5c3.2-15.4,11.3-29,30.6-30.2c20.1-1.2,47.5,3.7,74.6,6.5c19.4,2,36.5,0.3,47.7-8.4
			c4.1,1.2,8.3,2.5,12.4,3.7c5.2,14.9,5.6,29.6,3.2,44.1c-3.4,20.5-16.7,27.8-34.6,28C472.1,197.9,446.3,194.6,426.4,192.7z
			 M439.8,190.9c-31.9-4.1-57-3.7-71.4,6.4c-4.1-16.3-5.8-31.2-2.9-43.7c5.1-21.9,18.8-26.9,31.7-27.7c16.1-0.9,41.4,4.5,62.1,7.3
			c26.6,3.7,50.4,4.4,66.6-4.8c5.1,13.4,6,27,3.7,40.7c-2.3,15.7-11.7,23.8-26.8,25.6C483.2,197.2,461.2,193.7,439.8,190.9z"/>
		<path class="st7" d="M474.2,173.6h-6.8v-19.9h5.6c3,0,4.2,0.8,4.3,2.5c0.1,2.5-1.2,3.7-3.5,3.7h-2.1l-2.7,5.8h5.3
			c2.5,0,4.9,1.8,4.6,4.1C478.7,172,476.8,173.6,474.2,173.6 M475.4,180.2h-16.1V147h15.4c5.3,0,9.9,1.5,10.7,6.7
			c0.6,3.8-0.6,6.4-3.4,8.3c4.2,1.9,6,7,4.5,11.7C485,178.5,479.3,180.2,475.4,180.2z M504.8,154.4c4.9,0,8.8,4,8.8,9s-4,9-8.8,9
			s-8.8-4-8.8-9S499.9,154.4,504.8,154.4z M504.8,146.5c9.2,0,16.6,7.5,16.6,16.8c0,9.3-7.4,16.8-16.6,16.8
			c-9.2,0-16.6-7.5-16.6-16.8C488.2,154,495.6,146.5,504.8,146.5z M456,147v33.1h-8.1v-21l-5.3,21h-7.9l-5.1-20.7v20.7h-7.9V147
			h12.7l4.3,18.6L443,147H456z M410.2,147h8v33.1h-8V147z M395.4,173.6h-6.8v-19.9h5.6c3,0,4.2,0.8,4.3,2.5c0.1,2.5-1.2,3.7-3.5,3.7
			h-2.1l-2.7,5.8h5.3c2.5,0,4.9,1.8,4.6,4.1C399.8,172,398,173.6,395.4,173.6z M396.6,180.2h-16.1V147h15.4c5.3,0,9.9,1.5,10.7,6.7
			c0.6,3.8-0.6,6.4-3.4,8.3c4.2,1.9,6,7,4.5,11.7C406.2,178.5,400.5,180.2,396.6,180.2z"/>
	</g>
	<g>
		<defs>
			<path id="SVGID_1_" d="M568.9,195.8c-11.8-45.4,4.5-93.4,0.3-140.1c-0.4-4.7-1.1-9.6-3-13.9c-2.5-5.5-7-10.6-6.5-16.6
				c0.2-2.1,1-4.1,0.7-6.2c-2.1-12.6-17.8-0.9-25,6c-1.5,1.4-3.5,2.1-5.6,1.8c-0.9-0.1-1.7-0.2-2.6-0.2H57.3c-0.1,0-0.3,0-0.4,0
				c-1.8,0.1-3.5-0.4-5.1-1.4c-2.4-1.5-4.8-2.9-6.9-4.4c-1.6-1.1-9.8-4.6-15.6-7.1c-2-0.9-4.2,0.7-4.1,2.9c0.2,2.8-0.5,5.7-2.1,8.1
				c-1.7,2.5-4.2,4.3-6.2,6.6C12,37.1,10.4,45,9.5,52.6c-1,8.7-1.2,17.5-0.7,26.2c1.2,21.6,6.9,42.9,7.8,64.5
				c1.3,33.6-9,67.5-2.5,100.5c1.7,8.4,4.4,17,2.8,25.4c-0.7,3.9-2.4,7.5-3.3,11.4c-2.5,11.1,2.6,23.2,11.6,29.8
				c2.3,1.7,5.6,0.8,6.8-1.8c0.8-1.7,2.1-3.2,3.4-4.5c6.4-6.1,15.2-9.6,24.1-9.7c1.7,0,3.5,0.1,5.2-0.2h462.4c1,0,2-0.1,2.9-0.2
				c2-0.3,4.1-0.2,5.9,0.7c3.8,1.8,7.5,3.8,10.8,6.4c5.5,4.3,11.7,10.3,18.1,7.7c-1.3-16.7-2.5-34.2,4-49.7c2.2-5.2,5.2-10,6.8-15.4
				C580.4,227.9,573,211.6,568.9,195.8z"/>
		</defs>
		<clipPath id="SVGID_2_">
			<use xlink:href="#SVGID_1_"  style="overflow:visible;"/>
		</clipPath>
		<g class="st8">
			<g>
				
					<rect x="56" y="165.1" transform="matrix(-0.35 0.9368 -0.9368 -0.35 515.1265 -17.0676)" class="st9" width="415" height="10.2"/>
				
					<rect x="91.5" y="195.9" transform="matrix(-0.35 0.9368 -0.9368 -0.35 589.4754 -12.1356)" class="st9" width="415" height="5.1"/>
				
					<rect x="76.9" y="171.3" transform="matrix(-0.35 0.9368 -0.9368 -0.35 554.7285 -20.2491)" class="st9" width="415" height="22"/>
			</g>
			<g>
				
					<rect x="-164.9" y="153.1" transform="matrix(-0.35 0.9368 -0.9368 -0.35 205.6478 173.7605)" class="st9" width="415" height="10.2"/>
				
					<rect x="-129.5" y="184" transform="matrix(-0.35 0.9368 -0.9368 -0.35 279.9966 178.6925)" class="st9" width="415" height="5.1"/>
				
					<rect x="-144" y="159.4" transform="matrix(-0.35 0.9368 -0.9368 -0.35 245.2498 170.579)" class="st9" width="415" height="22"/>
			</g>
			<g>
				
					<rect x="222.5" y="193.6" transform="matrix(-0.35 0.9368 -0.9368 -0.35 772.1465 -126.6796)" class="st9" width="415" height="22"/>
				
					<rect x="203" y="186.5" transform="matrix(-0.35 0.9368 -0.9368 -0.35 733.5659 -125.8591)" class="st9" width="415" height="10.2"/>
			</g>
			<g>
				
					<rect x="28.5" y="158.2" transform="matrix(-0.35 0.9368 -0.9368 -0.35 477.0135 7.3306)" class="st9" width="415" height="22"/>
				
					<rect x="8.9" y="151.1" transform="matrix(-0.35 0.9368 -0.9368 -0.35 438.4329 8.1511)" class="st9" width="415" height="10.2"/>
			</g>
		</g>
	</g>
</g>
</svg>
