<?xml version="1.0" encoding="utf-8"?>
<!-- Generator: Adobe Illustrator 24.0.2, SVG Export Plug-In . SVG Version: 6.00 Build 0)  -->
<svg version="1.1" id="Layer_1" xmlns="http://www.w3.org/2000/svg" xmlns:xlink="http://www.w3.org/1999/xlink" x="0px" y="0px"
	 viewBox="0 0 585.7 649.2" style="enable-background:new 0 0 585.7 649.2;" xml:space="preserve">
<style type="text/css">
	.st0{fill:#00BAE7;}
	.st1{fill:#EFD0A3;}
	.st2{fill:#DDA54A;}
	.st3{opacity:0.15;fill:#FFFFFF;enable-background:new    ;}
	.st4{fill:#0058CF;}
	.st5{fill-rule:evenodd;clip-rule:evenodd;fill:#FFFFFF;}
	.st6{fill-rule:evenodd;clip-rule:evenodd;fill:#3D438B;}
	.st7{fill-rule:evenodd;clip-rule:evenodd;fill:#DA243C;}
	.st8{clip-path:url(#SVGID_2_);}
	.st9{opacity:0.15;fill-rule:evenodd;clip-rule:evenodd;fill:#FFFFFF;enable-background:new    ;}
	.st10{fill:#B27D44;}
	.st11{clip-path:url(#SVGID_4_);}
</style>
<g>
	<path class="st0" d="M568.9,520.3c-11.8-45.4,4.5-93.4,0.3-140.1c-0.4-4.7-1.1-9.6-3-13.9c-2.5-5.5-7-10.6-6.5-16.6
		c0.2-2.1,1-4.1,0.7-6.2c-2.1-12.6-17.8-0.9-25,6c-1.5,1.4-3.5,2.1-5.6,1.8c-0.9-0.1-1.7-0.2-2.6-0.2H57.3c-0.1,0-0.3,0-0.4,0
		c-1.8,0.1-3.5-0.4-5.1-1.4c-2.4-1.5-4.8-2.9-6.9-4.4c-1.6-1.1-9.8-4.6-15.6-7.1c-2-0.9-4.2,0.7-4.1,2.9c0.2,2.8-0.5,5.7-2.1,8.1
		c-1.7,2.5-4.2,4.3-6.2,6.6c-4.9,5.8-6.5,13.7-7.4,21.3c-1,8.7-1.2,17.5-0.7,26.2c1.2,21.6,6.9,42.9,7.8,64.5
		c1.3,33.6-9,67.5-2.5,100.5c1.7,8.4,4.4,17,2.8,25.4c-0.7,3.9-2.4,7.5-3.3,11.4c-2.5,11.1,2.6,23.2,11.6,29.8
		c2.3,1.7,5.6,0.8,6.8-1.8c0.8-1.7,2.1-3.2,3.4-4.5c6.4-6.1,15.2-9.6,24.1-9.7c1.7,0,3.5,0.1,5.2-0.2h462.4c1,0,2-0.1,2.9-0.2
		c2-0.3,4.1-0.2,5.9,0.7c3.8,1.8,7.5,3.8,10.8,6.4c5.5,4.3,11.7,10.3,18.1,7.7c-1.3-16.7-2.5-34.2,4-49.7c2.2-5.2,5.2-10,6.8-15.4
		C580.4,552.4,573,536.1,568.9,520.3z"/>
	<g>
		<g>
			<g>
				<path class="st1" d="M504.1,606.5H324.7c-13.5,0-24.4-10.9-24.4-24.4V389.4c0-13.5,10.9-24.4,24.4-24.4h179.5
					c13.5,0,24.4,10.9,24.4,24.4v192.8C528.5,595.6,517.6,606.5,504.1,606.5z"/>
				<g>
					<path class="st2" d="M506.5,611H322.3c-14.6,0-26.5-11.9-26.5-26.5V387c0-14.6,11.9-26.5,26.5-26.5h184.2
						c14.6,0,26.5,11.9,26.5,26.5v197.5C533,599.1,521.1,611,506.5,611z M322.3,369.5c-9.6,0-17.5,7.8-17.5,17.5v197.5
						c0,9.6,7.8,17.5,17.5,17.5h184.2c9.6,0,17.5-7.8,17.5-17.5V387c0-9.6-7.8-17.5-17.5-17.5H322.3z"/>
				</g>
			</g>
			<ellipse class="st2" cx="332.1" cy="468.1" rx="4.4" ry="4.6"/>
			<ellipse class="st2" cx="374.1" cy="453.9" rx="4.4" ry="4.6"/>
			<ellipse class="st2" cx="370.7" cy="413.6" rx="4.4" ry="4.6"/>
			<ellipse class="st2" cx="361.8" cy="513.6" rx="4.4" ry="4.6"/>
			<ellipse class="st2" cx="437.8" cy="488.2" rx="4.4" ry="4.6"/>
			<ellipse class="st2" cx="394.3" cy="483.6" rx="4.4" ry="4.6"/>
			<ellipse class="st2" cx="433.3" cy="428.9" rx="4.4" ry="4.6"/>
			<ellipse class="st2" cx="384.9" cy="522.7" rx="4.4" ry="4.6"/>
			<ellipse class="st2" cx="426.9" cy="508.5" rx="4.4" ry="4.6"/>
			<ellipse class="st2" cx="423.4" cy="468.3" rx="4.4" ry="4.6"/>
			<ellipse class="st2" cx="414.6" cy="568.3" rx="4.4" ry="4.6"/>
			<ellipse class="st2" cx="490.5" cy="542.8" rx="4.4" ry="4.6"/>
			<ellipse class="st2" cx="447" cy="538.3" rx="4.4" ry="4.6"/>
			<ellipse class="st2" cx="486.1" cy="483.5" rx="4.4" ry="4.6"/>
		</g>
		<g>
			<g>
				<path class="st1" d="M261.4,606.5H81.9c-13.5,0-24.4-10.9-24.4-24.4V389.4c0-13.5,10.9-24.4,24.4-24.4h179.5
					c13.5,0,24.4,10.9,24.4,24.4v192.8C285.7,595.6,274.8,606.5,261.4,606.5z"/>
				<g>
					<path class="st2" d="M263.7,611H79.5C64.9,611,53,599.1,53,584.5V387c0-14.6,11.9-26.5,26.5-26.5h184.2
						c14.6,0,26.5,11.9,26.5,26.5v197.5C290.2,599.1,278.3,611,263.7,611z M79.5,369.5c-9.6,0-17.5,7.9-17.5,17.5v197.5
						c0,9.6,7.8,17.5,17.5,17.5h184.2c9.6,0,17.5-7.8,17.5-17.5V387c0-9.6-7.8-17.5-17.5-17.5H79.5z"/>
				</g>
			</g>
			<ellipse class="st2" cx="89.3" cy="468.1" rx="4.4" ry="4.6"/>
			<ellipse class="st2" cx="131.4" cy="453.9" rx="4.4" ry="4.6"/>
			<ellipse class="st2" cx="127.9" cy="413.6" rx="4.4" ry="4.6"/>
			<ellipse class="st2" cx="119.1" cy="513.6" rx="4.4" ry="4.6"/>
			<ellipse class="st2" cx="195" cy="488.2" rx="4.4" ry="4.6"/>
			<ellipse class="st2" cx="151.5" cy="483.6" rx="4.4" ry="4.6"/>
			<ellipse class="st2" cx="190.6" cy="428.9" rx="4.4" ry="4.6"/>
			<ellipse class="st2" cx="142.1" cy="522.7" rx="4.4" ry="4.6"/>
			<ellipse class="st2" cx="184.1" cy="508.5" rx="4.4" ry="4.6"/>
			<ellipse class="st2" cx="180.7" cy="468.3" rx="4.4" ry="4.6"/>
			<ellipse class="st2" cx="171.8" cy="568.3" rx="4.4" ry="4.6"/>
			<ellipse class="st2" cx="247.7" cy="542.8" rx="4.4" ry="4.6"/>
			<ellipse class="st2" cx="204.3" cy="538.3" rx="4.4" ry="4.6"/>
			<ellipse class="st2" cx="243.3" cy="483.5" rx="4.4" ry="4.6"/>
		</g>
	</g>
	<path class="st3" d="M568.9,520.3c-11.8-45.4,4.5-93.4,0.3-140.1c-0.4-4.7-1.1-9.6-3-13.9c-2.5-5.5-7-10.6-6.5-16.6
		c0.2-2.1,1-4.1,0.7-6.2c-2.1-12.6-17.8-0.9-25,6c-1.5,1.4-3.5,2.1-5.6,1.8c-0.9-0.1-1.7-0.2-2.6-0.2H57.3c-0.1,0-0.3,0-0.4,0
		c-1.8,0.1-3.5-0.4-5.1-1.4c-2.4-1.5-4.8-2.9-6.9-4.4c-1.6-1.1-9.8-4.6-15.6-7.1c-2-0.9-4.2,0.7-4.1,2.9c0.2,2.8-0.5,5.7-2.1,8.1
		c-1.7,2.5-4.2,4.3-6.2,6.6c-4.9,5.8-6.5,13.7-7.4,21.3c-1,8.7-1.2,17.5-0.7,26.2c1.2,21.6,6.9,42.9,7.8,64.5
		c1.3,33.6-9,67.5-2.5,100.5c1.7,8.4,4.4,17,2.8,25.4c-0.7,3.9-2.4,7.5-3.3,11.4c-2.5,11.1,2.6,23.2,11.6,29.8
		c2.3,1.7,5.6,0.8,6.8-1.8c0.8-1.7,2.1-3.2,3.4-4.5c6.4-6.1,15.2-9.6,24.1-9.7c1.7,0,3.5,0.1,5.2-0.2h462.4c1,0,2-0.1,2.9-0.2
		c2-0.3,4.1-0.2,5.9,0.7c3.8,1.8,7.5,3.8,10.8,6.4c5.5,4.3,11.7,10.3,18.1,7.7c-1.3-16.7-2.5-34.2,4-49.7c2.2-5.2,5.2-10,6.8-15.4
		C580.4,552.4,573,536.1,568.9,520.3z"/>
	<path class="st4" d="M530,618.4c2-0.3,4.1-0.2,5.9,0.7c3.8,1.8,7.5,3.8,10.8,6.4c5.5,4.3,11.7,10.3,18.1,7.7
		c-1.3-16.7-2.5-34.2,4-49.7c2.2-5.2,5.2-10,6.8-15.4c4.7-15.6-2.7-31.9-6.9-47.7c-10.4-39.8,0.9-81.6,1-122.8
		c-15.9,2-31.7,7.2-45.9,14.5c-34.2,17.6-61.6,45.7-90.6,70.9c-48.2,41.9-104.1,77.7-166.9,89.1S133,566.8,91.5,518.3
		c-29.9-35-38.9-85.6-24.6-129.1c3.5-10.6,12.4-25,12.8-38.1H57.3c-0.1,0-0.3,0-0.4,0c-1.8,0.1-3.5-0.4-5.1-1.4
		c-2.4-1.5-4.8-2.9-6.9-4.4c-1.6-1.1-9.8-4.6-15.6-7.1c-2-0.9-4.2,0.7-4.1,2.9c0.2,2.8-0.5,5.7-2.1,8.1c-1.7,2.5-4.2,4.3-6.2,6.6
		c-4.9,5.8-6.5,13.7-7.4,21.3c-1,8.7-1.2,17.5-0.7,26.2c1.2,21.6,6.9,42.9,7.8,64.5c1.3,33.6-9,67.5-2.5,100.5
		c1.7,8.4,4.4,17,2.8,25.4c-0.7,3.9-2.4,7.5-3.3,11.4c-2.5,11.1,2.6,23.2,11.6,29.8c2.3,1.7,5.6,0.8,6.8-1.8
		c0.8-1.7,2.1-3.2,3.4-4.5c6.4-6.1,15.2-9.6,24.1-9.7c1.7,0,3.5,0.1,5.2-0.2h462.4C528.1,618.7,529.1,618.6,530,618.4z"/>
	<g>
		<path class="st5" d="M439.8,515.4c-31.9-4.1-57-3.7-71.4,6.4c-4.1-16.3-5.8-31.2-2.9-43.7c5.1-21.9,18.8-26.9,31.7-27.7
			c16.1-0.9,41.4,4.5,62.1,7.3c26.6,3.7,50.4,4.4,66.6-4.8c5.1,13.4,6,27,3.7,40.7c-2.3,15.7-11.7,23.8-26.8,25.6
			C483.2,521.7,461.2,518.2,439.8,515.4z"/>
		<path class="st6" d="M428.3,458.7c2.4,0,3.5,2,3.6,3.9c0,2.2-1.2,4.1-3.5,4.1c-2.4,0.1-3.6-1.7-3.7-3.9
			C424.7,460.8,425.7,458.7,428.3,458.7 M428.3,457.2c-3.4,0-5.8,1.9-5.8,5.4c0,3.6,2.2,5.6,5.8,5.6c3.6,0,5.8-2,5.8-5.5
			C434.1,459.1,431.9,457.2,428.3,457.2z M415.6,462.2v-3.3c1.5,0,3.4-0.3,3.4,1.6C419,462.3,417.1,462.2,415.6,462.2z M413.3,468
			h2.2v-4.4c1.8,0,4.1,0.1,5.2-1.6c1.1-1.6,0.6-4.4-2.5-4.6h-4.9L413.3,468L413.3,468z M402.3,457.4h2c0,1-0.1,6.4,0.1,7.2
			c0.4,2.3,4.5,2.2,4.8-0.2c0.1-1.4,0.1-5.5,0.1-7h2c0,1.3,0.1,7-0.1,8.1c-0.7,3-4.9,3.1-6.8,2.2c-1.8-0.8-2-2.3-2-4.1L402.3,457.4
			L402.3,457.4z M395.1,462.1V459c1.5,0,3.5-0.3,3.5,1.4C398.6,462.3,396.4,462.1,395.1,462.1z M392.8,468h2.3v-4.5h1.3l2.5,4.5h2.7
			l-2.9-4.8c1.3-0.5,2.4-1.4,2.4-2.9c0-2.1-1.7-2.7-3.5-2.8h-4.8V468L392.8,468z M387,462.2v1.4h1.7v2.3c-1.8,0.6-4.7,0.7-5.5-1.6
			c-0.8-2.3,0-5.7,3.3-5.7c1.3,0,2.1,0.4,2.7,1.5l1.2-1.5c-1-1.1-2-1.4-3.8-1.4c-7,0-6.9,7.4-4.2,9.5c2.2,1.7,5.7,1.2,8.3,0.6v-5.1
			H387L387,462.2z M426.4,517.2c-19.2-1.8-37.7-0.9-49.2,8.5c-3.6-0.6-7.2-1.2-10.8-1.8c-4.4-14.5-5.4-29.7-3.4-45.5
			c3.2-15.4,11.3-29,30.6-30.2c20.1-1.2,47.5,3.7,74.6,6.5c19.4,2,36.5,0.3,47.7-8.4c4.1,1.2,8.3,2.5,12.4,3.7
			c5.2,14.9,5.6,29.6,3.2,44.1c-3.4,20.5-16.7,27.8-34.6,28C472.1,522.4,446.3,519.1,426.4,517.2z M439.8,515.4
			c-31.9-4.1-57-3.7-71.4,6.4c-4.1-16.3-5.8-31.2-2.9-43.7c5.1-21.9,18.8-26.9,31.7-27.7c16.1-0.9,41.4,4.5,62.1,7.3
			c26.6,3.7,50.4,4.4,66.6-4.8c5.1,13.4,6,27,3.7,40.7c-2.3,15.7-11.7,23.8-26.8,25.6C483.2,521.7,461.2,518.2,439.8,515.4z"/>
		<path class="st7" d="M474.2,498.1h-6.8v-19.9h5.6c3,0,4.2,0.8,4.3,2.5c0.1,2.5-1.2,3.7-3.5,3.7h-2.1l-2.7,5.8h5.3
			c2.5,0,4.9,1.8,4.6,4.1C478.7,496.5,476.8,498.1,474.2,498.1 M475.4,504.7h-16.1v-33.2h15.4c5.3,0,9.9,1.5,10.7,6.7
			c0.6,3.8-0.6,6.4-3.4,8.3c4.2,1.9,6,7,4.5,11.7C485,503,479.3,504.7,475.4,504.7z M504.8,478.9c4.9,0,8.8,4,8.8,9s-4,9-8.8,9
			s-8.8-4-8.8-9S499.9,478.9,504.8,478.9z M504.8,471c9.2,0,16.6,7.5,16.6,16.8c0,9.3-7.4,16.8-16.6,16.8c-9.2,0-16.6-7.5-16.6-16.8
			C488.2,478.5,495.6,471,504.8,471z M456,471.5v33.1h-8.1v-21l-5.3,21h-7.9l-5.1-20.7v20.7h-7.9v-33.1h12.7l4.3,18.6l4.3-18.6H456z
			 M410.2,471.5h8v33.1h-8V471.5z M395.4,498.1h-6.8v-19.9h5.6c3,0,4.2,0.8,4.3,2.5c0.1,2.5-1.2,3.7-3.5,3.7h-2.1l-2.7,5.8h5.3
			c2.5,0,4.9,1.8,4.6,4.1C399.8,496.5,398,498.1,395.4,498.1z M396.6,504.7h-16.1v-33.2h15.4c5.3,0,9.9,1.5,10.7,6.7
			c0.6,3.8-0.6,6.4-3.4,8.3c4.2,1.9,6,7,4.5,11.7C406.2,503,400.5,504.7,396.6,504.7z"/>
	</g>
	<g>
		<g>
			<defs>
				<path id="SVGID_1_" d="M568.9,520.3c-11.8-45.4,4.5-93.4,0.3-140.1c-0.4-4.7-1.1-9.6-3-13.9c-2.5-5.5-7-10.6-6.5-16.6
					c0.2-2.1,1-4.1,0.7-6.2c-2.1-12.6-17.8-0.9-25,6c-1.5,1.4-3.5,2.1-5.6,1.8c-0.9-0.1-1.7-0.2-2.6-0.2H57.3c-0.1,0-0.3,0-0.4,0
					c-1.8,0.1-3.5-0.4-5.1-1.4c-2.4-1.5-4.8-2.9-6.9-4.4c-1.6-1.1-9.8-4.6-15.6-7.1c-2-0.9-4.2,0.7-4.1,2.9c0.2,2.8-0.5,5.7-2.1,8.1
					c-1.7,2.5-4.2,4.3-6.2,6.6c-4.9,5.8-6.5,13.7-7.4,21.3c-1,8.7-1.2,17.5-0.7,26.2c1.2,21.6,6.9,42.9,7.8,64.5
					c1.3,33.6-9,67.5-2.5,100.5c1.7,8.4,4.4,17,2.8,25.4c-0.7,3.9-2.4,7.5-3.3,11.4c-2.5,11.1,2.6,23.2,11.6,29.8
					c2.3,1.7,5.6,0.8,6.8-1.8c0.8-1.7,2.1-3.2,3.4-4.5c6.4-6.1,15.2-9.6,24.1-9.7c1.7,0,3.5,0.1,5.2-0.2h462.4c1,0,2-0.1,2.9-0.2
					c2-0.3,4.1-0.2,5.9,0.7c3.8,1.8,7.5,3.8,10.8,6.4c5.5,4.3,11.7,10.3,18.1,7.7c-1.3-16.7-2.5-34.2,4-49.7
					c2.2-5.2,5.2-10,6.8-15.4C580.4,552.4,573,536.1,568.9,520.3z"/>
			</defs>
			<clipPath id="SVGID_2_">
				<use xlink:href="#SVGID_1_"  style="overflow:visible;"/>
			</clipPath>
			<g class="st8">
				<g>
					
						<rect x="55.9" y="489.6" transform="matrix(0.35 -0.9368 0.9368 0.35 -292.1284 568.3365)" class="st9" width="415" height="10.2"/>
					
						<rect x="91.4" y="520.4" transform="matrix(0.35 -0.9368 0.9368 0.35 -295.5903 619.9493)" class="st9" width="415" height="5.1"/>
					
						<rect x="76.9" y="495.8" transform="matrix(0.35 -0.9368 0.9368 0.35 -289.9029 595.8691)" class="st9" width="415" height="22"/>
				</g>
				<g>
					
						<rect x="-165" y="477.7" transform="matrix(0.35 -0.9368 0.9368 0.35 -424.5737 353.6441)" class="st9" width="415" height="10.2"/>
					
						<rect x="-129.6" y="508.4" transform="matrix(0.35 -0.9368 0.9368 0.35 -427.9533 405.1182)" class="st9" width="415" height="5.1"/>
					
						<rect x="-144.1" y="483.9" transform="matrix(0.35 -0.9368 0.9368 0.35 -422.3763 381.0661)" class="st9" width="415" height="22"/>
				</g>
				<g>
					
						<rect x="222.5" y="518" transform="matrix(0.35 -0.9368 0.9368 0.35 -216.0426 746.6362)" class="st9" width="415" height="22"/>
					
						<rect x="202.9" y="511" transform="matrix(0.35 -0.9368 0.9368 0.35 -216.6867 719.9138)" class="st9" width="415" height="10.2"/>
				</g>
				<g>
					
						<rect x="28.4" y="482.7" transform="matrix(0.35 -0.9368 0.9368 0.35 -309.0875 541.8688)" class="st9" width="415" height="22"/>
					
						<rect x="8.9" y="475.6" transform="matrix(0.35 -0.9368 0.9368 0.35 -309.621 515.1183)" class="st9" width="415" height="10.2"/>
				</g>
			</g>
		</g>
	</g>
</g>
<g>
	<path class="st0" d="M32.8,53.2c-3.2,7-15.4,6.4-17.8,13.8c-3.2,9.9,15.7,19.2,9.5,27.5c-1.3,1.8-3.6,2.8-4.9,4.6
		c-1.4,1.9-1.5,4.5-1.5,6.9c-0.3,18.4-0.5,37,4.3,54.8c1.8,6.7,4.3,13.5,3.2,20.3c-1.8,10.2-10.6,17.3-17.2,25.2S-2.4,226.9,5,234
		c2.4,2.3,5.6,3.5,8.4,5.2c12.9,7.7,17.3,23.7,20.5,38.4c0.2,0.7,0.1,1.5-0.3,2.2l0,0c-1.4,2.9-1.6,6.2-0.9,9.3
		c1.5,7.1-7.3,17.1-3.5,24.6c3.1,6.1,12.4,5.4,17.9,1.4c5.5-4.1,9-10.4,14.6-14.4c8.3-6,20.8,0.8,30.7,3.7
		c8.4,2.5,15.4,1.8,23.3,3.7c21.6,5.1,43.8,7.5,65.9,6l77.8-5.1c5.7-0.4,11.6-0.8,16.7-3.4c3.7-1.9,6.7-4.9,10.5-6.7
		c9.2-4.4,20-0.7,29.8,2.2c27.1,7.8,55.8,8.2,83.8,5.4c12.7-1.2,25.3-3.1,38.1-3.9c26.9-1.6,53.7,1.8,80.4,5.2
		c15.8,2,32.1,4.2,45.9,12.3c1.3,0.8,2.8,1.4,4.3,1.6c10,1.6,11.6-11.8,7.6-19.7c-3.7-7.2-9.9-14.6-7.6-22.5
		c2.3-8,12.3-11.7,14.9-19.5c2.3-6.9-1.9-14.2-5.6-20.5c-9.3-16.1-15.7-33.9-18.9-52.2c10.6-2.7,13.2-16.8,10.9-27.5
		s-7.3-21.6-4.2-32c1.1-3.8,3.3-7.2,3.9-11.1c1.9-12.3-12.3-24.2-7.3-35.6c1.4-3.2,4.1-5.6,5.5-8.7c1.9-4.3,1.2-9.2,0.7-13.9
		c-1.9-18,0.5-36.5,7-53.5c-6.7-4.1-15.5-1.2-22,3.3s-11.8,10.6-19,13.8c-9.1,4-19.6,2.6-29.6,2c-21.9-1.4-43.9,1.3-65.8,3.2
		c-30,2.7-60.2,4-90.3,5.4c-24.2,1.1-48.4,2.2-72.6,3.3c-2.1,0.1-4.7-0.3-6-1.6c-1.9-1.9-4.5-3-7.1-3.5c-22.9-4.5-46.6-4.8-69.6-0.7
		c-13,2.3-25.9,6-39.1,5.6c-9.9-0.3-19.5-2.9-29.2-5c-13.2-2.9-27.2-4.8-40.7-3.1c-12.1,1.5-22.1,8.4-34,3.5
		c-7-2.9-22.2-18.2-25.2-2.7C24.3,37.2,37,44.1,32.8,53.2z"/>
	<g>
		<g>
			<g>
				<g>
					<path class="st1" d="M265,292.3H85.6c-13.5,0-24.4-10.9-24.4-24.4V75.2c0-13.5,10.9-24.4,24.4-24.4H265
						c13.5,0,24.4,10.9,24.4,24.4V268C289.4,281.4,278.5,292.3,265,292.3z"/>
					<g>
						<path class="st2" d="M267.4,296.9H83.2c-14.6,0-26.5-11.9-26.5-26.5V72.8c0-14.6,11.9-26.5,26.5-26.5h184.2
							c14.6,0,26.5,11.9,26.5,26.5v197.5C293.9,285,282,296.9,267.4,296.9z M83.2,55.4c-9.6,0-17.5,7.8-17.5,17.5v197.5
							c0,9.6,7.8,17.5,17.5,17.5h184.2c9.6,0,17.5-7.8,17.5-17.5V72.8c0-9.6-7.8-17.5-17.5-17.5L83.2,55.4L83.2,55.4z"/>
					</g>
				</g>
				<ellipse class="st2" cx="93" cy="153.9" rx="4.4" ry="4.6"/>
				<ellipse class="st2" cx="135" cy="139.7" rx="4.4" ry="4.6"/>
				<ellipse class="st2" cx="131.6" cy="99.5" rx="4.4" ry="4.6"/>
				<ellipse class="st2" cx="122.8" cy="199.5" rx="4.4" ry="4.6"/>
				<ellipse class="st2" cx="198.7" cy="174" rx="4.4" ry="4.6"/>
				<ellipse class="st2" cx="155.2" cy="169.4" rx="4.4" ry="4.6"/>
				<ellipse class="st2" cx="194.2" cy="114.7" rx="4.4" ry="4.6"/>
				<ellipse class="st2" cx="145.8" cy="208.6" rx="4.4" ry="4.6"/>
				<ellipse class="st2" cx="187.8" cy="194.4" rx="4.4" ry="4.6"/>
				<ellipse class="st2" cx="184.4" cy="154.1" rx="4.4" ry="4.6"/>
				<ellipse class="st2" cx="175.5" cy="254.1" rx="4.4" ry="4.6"/>
				<ellipse class="st2" cx="251.4" cy="228.7" rx="4.4" ry="4.6"/>
				<ellipse class="st2" cx="207.9" cy="224.1" rx="4.4" ry="4.6"/>
				<ellipse class="st2" cx="247" cy="169.4" rx="4.4" ry="4.6"/>
			</g>
			<path class="st10" d="M202.6,147.7c-8.2-0.1-16.5-0.7-24.6-2c-4.1-0.7-8.3-1.5-12.4-2.5c-0.8-0.2-1.8-0.7-2.7-0.7
				c-0.1-0.3-0.2-0.8-0.2-0.9c-0.5-2-0.9-4.1-1.2-6.2c-0.3-1.9-0.6-3.9-0.8-5.9c-0.1-0.6-0.2-1.3,0.2-1.9s1.2-1.1,1.7-1.5
				c3-2.3,5.8-4.9,8.4-7.8c2.5-2.8,4.5-5.9,7-8.7c2.3-2.6,5.1-4.2,8.3-5.6c3.4-1.5,9.9-3.3,9.7-8c0-1.3-0.7-2.5-1.2-3.7
				c-0.5-1.1-0.9-2.2-1.4-3.2c-0.8-1.9-1.7-3.8-2.5-5.7c0.1-0.2,0.1-0.4,0.1-0.7c0.5-10.4,0.7-20.8,0.5-31.3c-0.1-3.5-5.5-3.5-5.4,0
				c0.2,9.5,0.1,18.9-0.3,28.4c-4.4-0.3-8.8-0.8-13.1-1.6c-1.2-0.2-2.4,0.1-3.1,1.2c-5.4,9.3-14.6,16-24.9,19
				c-5.3,1.5-10.4,2.1-15.9,1.5c-1.3-0.1-2.3-0.3-3.7-0.6c-2-0.4-3.9-0.8-5.8,0.3c-1.6,0.9-2.8,2.5-4.1,3.7c-1.4,1.3-2.8,2.7-4.2,4
				c-6,5.7-12,11.5-18,17.2c-1.7-0.3-3.5-0.6-5.2-1c-1.4-0.3-2.9,0.4-3.3,1.9c-0.4,1.3,0.4,3.1,1.9,3.3c2,0.4,4,0.7,6,1.1
				c1.6,0.3,2.6,0.3,3.8-0.8c0.8-0.7,1.5-1.5,2.3-2.2c3-2.9,6.1-5.8,9.1-8.7c3-2.9,6.1-5.8,9.1-8.7c1.5-1.4,3-2.9,4.5-4.3
				c0.3-0.3,0.6-0.8,1.1-0.9c0.7-0.1,1.8,0.4,2.4,0.5c12.2,2.3,25.2-0.6,35.4-7.6c5.3-3.6,9.9-8.1,13.3-13.5
				c4.2,0.7,8.4,1.1,12.6,1.4c0.9,2,1.7,4,2.6,6c0.4,0.9,0.8,1.9,1.2,2.8c0.2,0.5,0.4,0.9,0.6,1.4c0,0.1,0.1,0.4,0.2,0.5
				c-0.1,0.1-0.2,0.1-0.2,0.2c-0.2,0.2-0.7,0.4-0.9,0.5c-0.8,0.5-1.7,0.9-2.5,1.3c-1.7,0.7-3.4,1.4-5,2.2c-3.5,1.6-6.4,4-8.8,7.1
				c-2.4,3-4.6,6.1-7.3,8.9c-1.4,1.4-2.8,2.8-4.4,4.1c-1.4,1.2-3.1,2.2-4.3,3.7c-1.4,1.7-1.8,3.8-1.6,6c0.2,2.2,0.5,4.3,0.9,6.5
				c0.4,2.1,0.8,4.3,1.3,6.4c0.2,0.9,0.4,1.9,0.9,2.8c0.6,1.1,1.7,1.7,2.8,2c4,1.3,8.3,2,12.4,2.8c8.4,1.5,16.9,2.4,25.4,2.7
				c-0.8,2.4-1.6,4.9-2.3,7.3c-4.6,0.1-9.3,0-13.9-0.5c-1.9-0.2-2.9,1.9-2.6,3.4c0.4,2,0.6,4,0.6,6c0.1,3.5,5.5,3.5,5.4,0
				c0-1.2-0.1-2.5-0.2-3.7c4.2,0.3,8.5,0.4,12.7,0.2c1.2-0.1,2.2-0.8,2.6-2c1.3-4.2,2.7-8.4,4-12.6
				C205.8,149.4,204.3,147.7,202.6,147.7z M190.5,96.1L190.5,96.1C190.7,96.2,190.3,96.5,190.5,96.1z M162.7,142.5L162.7,142.5
				C162.3,142.4,162.7,142.3,162.7,142.5z"/>
		</g>
		<g>
			<g>
				<g>
					<path class="st1" d="M507.8,292.3H328.4c-13.5,0-24.4-10.9-24.4-24.4V75.2c0-13.5,10.9-24.4,24.4-24.4h179.5
						c13.5,0,24.4,10.9,24.4,24.4V268C532.2,281.4,521.3,292.3,507.8,292.3z"/>
					<g>
						<path class="st2" d="M510.2,296.9H326c-14.6,0-26.5-11.9-26.5-26.5V72.8c0-14.6,11.9-26.5,26.5-26.5h184.2
							c14.6,0,26.5,11.9,26.5,26.5v197.5C536.7,285,524.8,296.9,510.2,296.9z M326,55.4c-9.6,0-17.5,7.8-17.5,17.5v197.5
							c0,9.6,7.8,17.5,17.5,17.5h184.2c9.6,0,17.5-7.8,17.5-17.5V72.8c0-9.6-7.8-17.5-17.5-17.5L326,55.4L326,55.4z"/>
					</g>
				</g>
				<ellipse class="st2" cx="335.8" cy="153.9" rx="4.4" ry="4.6"/>
				<ellipse class="st2" cx="377.8" cy="139.7" rx="4.4" ry="4.6"/>
				<ellipse class="st2" cx="374.4" cy="99.5" rx="4.4" ry="4.6"/>
				<ellipse class="st2" cx="365.5" cy="199.5" rx="4.4" ry="4.6"/>
				<ellipse class="st2" cx="441.4" cy="174" rx="4.4" ry="4.6"/>
				<ellipse class="st2" cx="398" cy="169.4" rx="4.4" ry="4.6"/>
				<ellipse class="st2" cx="437" cy="114.7" rx="4.4" ry="4.6"/>
				<ellipse class="st2" cx="388.6" cy="208.6" rx="4.4" ry="4.6"/>
				<ellipse class="st2" cx="430.6" cy="194.4" rx="4.4" ry="4.6"/>
				<ellipse class="st2" cx="427.1" cy="154.1" rx="4.4" ry="4.6"/>
				<ellipse class="st2" cx="418.3" cy="254.1" rx="4.4" ry="4.6"/>
				<ellipse class="st2" cx="494.2" cy="228.7" rx="4.4" ry="4.6"/>
				<ellipse class="st2" cx="450.7" cy="224.1" rx="4.4" ry="4.6"/>
				<ellipse class="st2" cx="489.8" cy="169.4" rx="4.4" ry="4.6"/>
			</g>
			<path class="st10" d="M459,71.6c-1-1-2.2-1.9-3.3-2.8c-0.3-0.3-0.6-0.5-0.8-0.8c7.4-2.3,12.9-10.1,12.1-17.9
				c-0.1-1.5-1.1-2.7-2.7-2.7c-1.4,0-2.9,1.2-2.7,2.7c0.6,5.9-3.5,11.8-9.5,13c-1.2,0.2-2.1,0.5-2.7,1.7c-0.5,1.1-0.7,2.3-0.4,3.4
				c0.4,1.8,1.7,3.3,3,4.5s2.8,2.1,3.9,3.5c1,1.2,1.7,2.6,2.2,4c1.3,3.6,1.3,7.4,0.8,11.2c-0.3,2.1-0.8,4.2-1.3,6.3
				c-0.3,1.4-0.6,3.8-1.5,4.9c-0.9,0.9-2.9,0.6-4.2,0.6c-2.3-0.1-4.6-0.1-6.8-0.2c-4.3-0.1-8.7-0.4-13-0.3
				c-4.7,0.2-9.4,1.1-13.1,4.2c-2.3,1.9-3.9,4.4-4.5,7.2c-7.8-2.1-16.2-1.8-23.8,0.9c-6.5-1.3-12.5-4.8-16.6-10
				c1.4-0.9,2.8-1.9,4.1-2.9c0.9-0.8,2-1.5,2.4-2.6s0.6-2.3,0.6-3.5c0-2.2-0.6-4.3-1.5-6.3c-1.8-3.9-4.8-6.9-7.4-10.2
				c-1.3-1.7-2.5-3.5-3.2-5.5c-0.5-1.3-0.7-2.6-0.5-3.9c9,0,18-0.1,27-0.1c1.5,0,2.7-1.2,2.7-2.7c0-4.7,0.1-9.4,0.1-14.2
				c0-3.5-5.4-3.5-5.4,0c0,3.8,0,7.6-0.1,11.5c-8.7,0-17.5,0.1-26.2,0.1c-0.9,0-1.9,0.5-2.3,1.3c-3,6.3,0.4,12.7,4.4,17.7
				c3,3.8,8,8.5,6.9,13.6c-6.2,5.3-13.7,8.6-21.7,9.7c-1.5,0.2-2.2,2.1-1.9,3.3c1.2,4.8,1.6,9.9,0.1,14.7c-1.1,3.6-3.5,7-6.8,8.9
				c-1.6,0.9-3.4,1.4-5.4,1.5c-2.6,0.1-5.2,0.1-7.6,1c-3.8,1.4-6.7,4.3-8.8,7.7c-1.7,2.8-2.9,6-3.8,9.2c-4.1-2.2-8.8-3.1-13.3-2.7
				c-1.5,0.1-2.7,1.1-2.7,2.7c0,1.4,1.2,2.8,2.7,2.7c4.9-0.5,9.7,0.9,13.6,3.9c1.4,1.1,3.6-0.1,4-1.6c0.9-3.9,2-7.6,3.9-10.9
				c1.7-3,3.9-5.4,7.1-6.1c2.6-0.6,5.4-0.3,8.1-0.8c2.2-0.4,4.3-1.4,6.1-2.6c3.8-2.6,6.5-6.4,8-10.7c1.7-5,1.6-10.3,0.7-15.5
				c4-0.8,7.9-2.2,11.6-4c3.7,4.9,8.6,8.6,14.3,10.9c1.4,0.6,2.9,1.1,4.5,1.4c0.9,0.2,1.9,0.5,2.8,0.5c1,0,2-0.6,3-0.9
				c3.4-1,6.9-1.5,10.4-1.5c4.1,0,8.1,0.8,11.9,2.2c2.2,0.8,3.6-1.5,3.3-3.3c-0.1-0.7,0.1-1.9,0.4-2.6c0.5-1.2,1.2-2.1,2.1-2.9
				c1.9-1.8,4.5-2.7,7-3c3.1-0.4,6.3-0.2,9.4-0.1c3.5,0.1,7.1,0.2,10.6,0.3c3,0.1,6.5,0.6,9.3-0.9c3.1-1.7,3.7-5.1,4.5-8.3
				c1.5-6.3,2.7-13.1,0.9-19.5C462.8,76.9,461.3,73.9,459,71.6z M454.3,67.1c0,0,0-0.1,0-0.2C454.3,67,454.3,67.1,454.3,67.1z"/>
		</g>
	</g>
	<path class="st3" d="M32.8,53.2c-3.2,7-15.4,6.4-17.8,13.8c-3.2,9.9,15.7,19.2,9.5,27.5c-1.3,1.8-3.6,2.8-4.9,4.6
		c-1.4,1.9-1.5,4.5-1.5,6.9c-0.3,18.4-0.5,37,4.3,54.8c1.8,6.7,4.3,13.5,3.2,20.3c-1.8,10.2-10.6,17.3-17.2,25.2S-2.4,226.9,5,234
		c2.4,2.3,5.6,3.5,8.4,5.2c12.9,7.7,17.3,23.7,20.5,38.4c0.2,0.7,0.1,1.5-0.3,2.2l0,0c-1.4,2.9-1.6,6.2-0.9,9.3
		c1.5,7.1-7.3,17.1-3.5,24.6c3.1,6.1,12.4,5.4,17.9,1.4c5.5-4.1,9-10.4,14.6-14.4c8.3-6,20.8,0.8,30.7,3.7
		c8.4,2.5,15.4,1.8,23.3,3.7c21.6,5.1,43.8,7.5,65.9,6l77.8-5.1c5.7-0.4,11.6-0.8,16.7-3.4c3.7-1.9,6.7-4.9,10.5-6.7
		c9.2-4.4,20-0.7,29.8,2.2c27.1,7.8,55.8,8.2,83.8,5.4c12.7-1.2,25.3-3.1,38.1-3.9c26.9-1.6,53.7,1.8,80.4,5.2
		c15.8,2,32.1,4.2,45.9,12.3c1.3,0.8,2.8,1.4,4.3,1.6c10,1.6,11.6-11.8,7.6-19.7c-3.7-7.2-9.9-14.6-7.6-22.5
		c2.3-8,12.3-11.7,14.9-19.5c2.3-6.9-1.9-14.2-5.6-20.5c-9.3-16.1-15.7-33.9-18.9-52.2c10.6-2.7,13.2-16.8,10.9-27.5
		s-7.3-21.6-4.2-32c1.1-3.8,3.3-7.2,3.9-11.1c1.9-12.3-12.3-24.2-7.3-35.6c1.4-3.2,4.1-5.6,5.5-8.7c1.9-4.3,1.2-9.2,0.7-13.9
		c-1.9-18,0.5-36.5,7-53.5c-6.7-4.1-15.5-1.2-22,3.3s-11.8,10.6-19,13.8c-9.1,4-19.6,2.6-29.6,2c-21.9-1.4-43.9,1.3-65.8,3.2
		c-30,2.7-60.2,4-90.3,5.4c-24.2,1.1-48.4,2.2-72.6,3.3c-2.1,0.1-4.7-0.3-6-1.6c-1.9-1.9-4.5-3-7.1-3.5c-22.9-4.5-46.6-4.8-69.6-0.7
		c-13,2.3-25.9,6-39.1,5.6c-9.9-0.3-19.5-2.9-29.2-5c-13.2-2.9-27.2-4.8-40.7-3.1c-12.1,1.5-22.1,8.4-34,3.5
		c-7-2.9-22.2-18.2-25.2-2.7C24.3,37.2,37,44.1,32.8,53.2z"/>
	<path class="st4" d="M400.3,306.6c12.7-1.2,25.3-3.1,38.1-3.9c26.9-1.6,53.7,1.8,80.4,5.2c15.8,2,32.1,4.2,45.9,12.3
		c1.3,0.8,2.8,1.4,4.3,1.6c10,1.6,11.6-11.8,7.6-19.7c-3.7-7.2-9.9-14.6-7.6-22.5c2.3-8,12.3-11.7,14.9-19.5
		c2.3-6.9-1.9-14.2-5.6-20.5c-9.3-16.1-15.7-33.9-18.9-52.2c10.6-2.7,13.2-16.8,10.9-27.5s-7.3-21.6-4.2-32
		c1.1-3.8,3.3-7.2,3.9-11.1c1.5-10.1-7.7-19.9-8.3-29.4c-11.8,2.7-23.4,6.9-34,12.4c-34.4,17.6-61.9,45.7-91.1,70.9
		c-48.5,41.9-104.7,77.7-167.9,89.1S134.6,254.5,92.8,206c-30.1-35-39.1-85.6-24.7-129.1C72.5,63.5,85.6,44.1,79.4,29
		C69.7,31.3,61,35.6,51,31.4c-7-2.9-22.2-18.2-25.2-2.7c-1.6,8.4,11.1,15.3,6.8,24.5c-3.2,7-15.4,6.4-17.8,13.8
		c-3.2,9.9,15.7,19.2,9.5,27.5c-1.3,1.8-3.6,2.8-4.9,4.6c-1.4,1.9-1.5,4.5-1.5,6.9c-0.3,18.4-0.5,37,4.3,54.8
		c1.8,6.7,4.3,13.5,3.2,20.3c-1.6,10.2-10.4,17.3-17,25.2S-2.4,226.9,5,234c2.4,2.3,5.6,3.5,8.4,5.2c12.9,7.7,17.3,23.7,20.5,38.4
		c0.2,0.7,0.1,1.5-0.3,2.2c-1.4,2.9-1.6,6.2-0.9,9.3c1.5,7.1-7.3,17.1-3.5,24.6c3.1,6.1,12.4,5.4,17.9,1.4s9-10.4,14.6-14.4
		c8.3-6,20.8,0.8,30.7,3.7c8.4,2.5,15.4,1.8,23.3,3.7c21.6,5.1,43.8,7.5,65.9,6l77.8-5.1c5.7-0.4,11.6-0.8,16.7-3.4
		c3.7-1.9,6.7-4.9,10.5-6.7c9.2-4.4,20-0.7,29.8,2.2C343.6,309,372.3,309.4,400.3,306.6z"/>
	<g>
		<path class="st5" d="M446.6,199.8c-31.9-4.1-57-3.7-71.4,6.4c-4.1-16.3-5.8-31.2-2.9-43.7c5.1-21.9,18.8-26.9,31.7-27.7
			c16.1-0.9,41.4,4.5,62.1,7.3c26.6,3.7,50.4,4.4,66.6-4.8c5.1,13.4,6,27,3.7,40.7c-2.3,15.7-11.7,23.8-26.8,25.6
			C489.9,206.1,468,202.6,446.6,199.8z"/>
		<path class="st6" d="M435.1,143.1c2.4,0,3.5,2,3.6,3.9c0,2.2-1.2,4.1-3.5,4.1c-2.4,0.1-3.6-1.7-3.7-3.9
			C431.5,145.2,432.5,143.1,435.1,143.1 M435.1,141.6c-3.4,0-5.8,1.9-5.8,5.4c0,3.6,2.2,5.6,5.8,5.6c3.6,0,5.8-2,5.8-5.5
			C440.9,143.5,438.7,141.6,435.1,141.6z M422.3,146.6v-3.3c1.5,0,3.4-0.3,3.4,1.6C425.7,146.7,423.8,146.6,422.3,146.6z
			 M420.1,152.4h2.2V148c1.8,0,4.1,0.1,5.2-1.6c1.1-1.6,0.6-4.4-2.5-4.6h-4.9L420.1,152.4L420.1,152.4z M409.1,141.8h2
			c0,1-0.1,6.4,0.1,7.2c0.4,2.3,4.5,2.2,4.8-0.2c0.1-1.4,0.1-5.5,0.1-7h2c0,1.3,0.1,7-0.1,8.1c-0.7,3-4.9,3.1-6.8,2.2
			c-1.8-0.8-2-2.3-2-4.1L409.1,141.8L409.1,141.8z M401.8,146.4v-3.1c1.5,0,3.5-0.3,3.5,1.4C405.4,146.7,403.1,146.4,401.8,146.4z
			 M399.6,152.4h2.3v-4.5h1.3l2.5,4.5h2.7l-2.9-4.8c1.3-0.5,2.4-1.4,2.4-2.9c0-2.1-1.7-2.7-3.5-2.8h-4.8V152.4L399.6,152.4z
			 M393.8,146.6v1.4h1.7v2.3c-1.8,0.6-4.7,0.7-5.5-1.6s0-5.7,3.3-5.7c1.3,0,2.1,0.4,2.7,1.5l1.2-1.5c-1-1.1-2-1.4-3.8-1.4
			c-7,0-6.9,7.4-4.2,9.5c2.2,1.7,5.7,1.2,8.3,0.6v-5.1H393.8L393.8,146.6z M433.1,201.6c-19.2-1.8-37.7-0.9-49.2,8.5
			c-3.6-0.6-7.2-1.2-10.8-1.8c-4.4-14.5-5.4-29.7-3.4-45.5c3.2-15.4,11.3-29,30.6-30.2c20.1-1.2,47.5,3.7,74.6,6.5
			c19.4,2,36.5,0.3,47.7-8.4c4.1,1.2,8.3,2.5,12.4,3.7c5.2,14.9,5.6,29.6,3.2,44.1c-3.4,20.5-16.7,27.8-34.6,28
			C478.9,206.8,453.1,203.4,433.1,201.6z M446.6,199.8c-31.9-4.1-57-3.7-71.4,6.4c-4.1-16.3-5.8-31.2-2.9-43.7
			c5.1-21.9,18.8-26.9,31.7-27.7c16.1-0.9,41.4,4.5,62.1,7.3c26.6,3.7,50.4,4.4,66.6-4.8c5.1,13.4,6,27,3.7,40.7
			c-2.3,15.7-11.7,23.8-26.8,25.6C489.9,206.1,468,202.6,446.6,199.8z"/>
		<path class="st7" d="M481,182.5h-6.8v-19.9h5.6c3,0,4.2,0.8,4.3,2.5c0.1,2.5-1.2,3.7-3.5,3.7h-2.1l-2.7,5.8h5.3
			c2.5,0,4.9,1.8,4.6,4.1C485.4,180.9,483.5,182.5,481,182.5 M482.2,189h-16.1v-33.1h15.4c5.3,0,9.9,1.5,10.7,6.7
			c0.6,3.8-0.6,6.4-3.4,8.3c4.2,1.9,6,7,4.5,11.7C491.8,187.4,486.1,189,482.2,189z M511.6,163.2c4.9,0,8.8,4,8.8,9s-4,9-8.8,9
			c-4.9,0-8.8-4-8.8-9S506.7,163.2,511.6,163.2z M511.6,155.4c9.2,0,16.6,7.5,16.6,16.8s-7.4,16.8-16.6,16.8
			c-9.2,0-16.6-7.5-16.6-16.8S502.4,155.4,511.6,155.4z M462.8,155.9V189h-8.1v-21l-5.3,21h-7.9l-5.1-20.7V189h-7.9v-33.1h12.7
			l4.3,18.6l4.3-18.6H462.8z M417,155.9h8V189h-8V155.9z M402.2,182.5h-6.8v-19.9h5.6c3,0,4.2,0.8,4.3,2.5c0.1,2.5-1.2,3.7-3.5,3.7
			h-2.1l-2.7,5.8h5.3c2.5,0,4.9,1.8,4.6,4.1C406.6,180.9,404.7,182.5,402.2,182.5z M403.4,189h-16.1v-33.1h15.4
			c5.3,0,9.9,1.5,10.7,6.7c0.6,3.8-0.6,6.4-3.4,8.3c4.2,1.9,6,7,4.5,11.7C412.9,187.4,407.3,189,403.4,189z"/>
	</g>
	<g>
		<g>
			<defs>
				<path id="SVGID_3_" d="M32.8,53.2c-3.2,7-15.4,6.4-17.8,13.8c-3.2,9.9,15.7,19.2,9.5,27.5c-1.3,1.8-3.6,2.8-4.9,4.6
					c-1.4,1.9-1.5,4.5-1.5,6.9c-0.3,18.4-0.5,37,4.3,54.8c1.8,6.7,4.3,13.5,3.2,20.3c-1.8,10.2-10.6,17.3-17.2,25.2
					S-2.4,226.9,5,234c2.4,2.3,5.6,3.5,8.4,5.2c12.9,7.7,17.3,23.7,20.5,38.4c0.2,0.7,0.1,1.5-0.3,2.2l0,0c-1.4,2.9-1.6,6.2-0.9,9.3
					c1.5,7.1-7.3,17.1-3.5,24.6c3.1,6.1,12.4,5.4,17.9,1.4c5.5-4.1,9-10.4,14.6-14.4c8.3-6,20.8,0.8,30.7,3.7
					c8.4,2.5,15.4,1.8,23.3,3.7c21.6,5.1,43.8,7.5,65.9,6l77.8-5.1c5.7-0.4,11.6-0.8,16.7-3.4c3.7-1.9,6.7-4.9,10.5-6.7
					c9.2-4.4,20-0.7,29.8,2.2c27.1,7.8,55.8,8.2,83.8,5.4c12.7-1.2,25.3-3.1,38.1-3.9c26.9-1.6,53.7,1.8,80.4,5.2
					c15.8,2,32.1,4.2,45.9,12.3c1.3,0.8,2.8,1.4,4.3,1.6c10,1.6,11.6-11.8,7.6-19.7c-3.7-7.2-9.9-14.6-7.6-22.5
					c2.3-8,12.3-11.7,14.9-19.5c2.3-6.9-1.9-14.2-5.6-20.5c-9.3-16.1-15.7-33.9-18.9-52.2c10.6-2.7,13.2-16.8,10.9-27.5
					s-7.3-21.6-4.2-32c1.1-3.8,3.3-7.2,3.9-11.1c1.9-12.3-12.3-24.2-7.3-35.6c1.4-3.2,4.1-5.6,5.5-8.7c1.9-4.3,1.2-9.2,0.7-13.9
					c-1.9-18,0.5-36.5,7-53.5c-6.7-4.1-15.5-1.2-22,3.3s-11.8,10.6-19,13.8c-9.1,4-19.6,2.6-29.6,2c-21.9-1.4-43.9,1.3-65.8,3.2
					c-30,2.7-60.2,4-90.3,5.4c-24.2,1.1-48.4,2.2-72.6,3.3c-2.1,0.1-4.7-0.3-6-1.6c-1.9-1.9-4.5-3-7.1-3.5
					c-22.9-4.5-46.6-4.8-69.6-0.7c-13,2.3-25.9,6-39.1,5.6c-9.9-0.3-19.5-2.9-29.2-5c-13.2-2.9-27.2-4.8-40.7-3.1
					c-12.1,1.5-22.1,8.4-34,3.5c-7-2.9-22.2-18.2-25.2-2.7C24.3,37.2,37,44.1,32.8,53.2z"/>
			</defs>
			<clipPath id="SVGID_4_">
				<use xlink:href="#SVGID_3_"  style="overflow:visible;"/>
			</clipPath>
			<g class="st11">
				<g>
					
						<rect x="65.8" y="149.2" transform="matrix(0.35 -0.9368 0.9368 0.35 33.1103 356.2619)" class="st9" width="415" height="10.2"/>
					
						<rect x="101.2" y="179.9" transform="matrix(0.35 -0.9368 0.9368 0.35 29.7589 407.8466)" class="st9" width="415" height="5.1"/>
					
						<rect x="86.6" y="155.4" transform="matrix(0.35 -0.9368 0.9368 0.35 35.3077 383.6839)" class="st9" width="415" height="22"/>
				</g>
				<g>
					
						<rect x="-155.2" y="137.1" transform="matrix(0.35 -0.9368 0.9368 0.35 -99.2527 141.4309)" class="st9" width="415" height="10.2"/>
					
						<rect x="-119.8" y="168" transform="matrix(0.35 -0.9368 0.9368 0.35 -102.7146 193.0435)" class="st9" width="415" height="5.1"/>
					
						<rect x="-134.3" y="143.4" transform="matrix(0.35 -0.9368 0.9368 0.35 -97.027 168.9634)" class="st9" width="415" height="22"/>
				</g>
				<g>
					
						<rect x="232.3" y="177.6" transform="matrix(0.35 -0.9368 0.9368 0.35 109.1961 534.5616)" class="st9" width="415" height="22"/>
					
						<rect x="212.7" y="170.5" transform="matrix(0.35 -0.9368 0.9368 0.35 108.6625 507.8111)" class="st9" width="415" height="10.2"/>
				</g>
				<g>
					
						<rect x="38.2" y="142.3" transform="matrix(0.35 -0.9368 0.9368 0.35 16.1512 329.7941)" class="st9" width="415" height="22"/>
					
						<rect x="18.7" y="135.2" transform="matrix(0.35 -0.9368 0.9368 0.35 15.6177 303.0437)" class="st9" width="415" height="10.2"/>
				</g>
			</g>
		</g>
	</g>
</g>
</svg>
