<svg width="1920" height="935" viewBox="0 0 1920 935" fill="none" xmlns="http://www.w3.org/2000/svg">
<path d="M636.041 433.316C633.541 430.616 630.941 427.816 628.441 425.116C621.541 417.616 614.641 410.216 607.841 402.716C597.641 391.716 587.441 380.616 577.341 369.616C569.441 361.016 561.541 352.516 553.641 343.916C552.041 342.116 553.341 339.216 555.741 339.316C560.141 339.416 564.641 337.816 567.541 334.516C567.641 334.416 567.641 334.416 567.741 334.316C572.741 328.516 581.741 328.316 586.941 333.916C589.641 336.916 592.441 339.916 595.141 342.816C602.941 351.216 610.741 359.716 618.441 368.116C622.141 372.116 625.741 376.116 629.441 380.116C629.641 380.316 629.741 380.416 629.941 380.616C634.441 385.516 643.541 385.216 647.841 380.316C652.641 374.916 652.341 367.616 647.541 362.416C645.041 359.716 642.441 356.916 639.941 354.216C638.741 352.816 637.441 351.516 636.241 350.116C631.441 344.916 631.841 337.116 636.841 332.116C636.941 332.016 637.141 331.816 637.241 331.716C642.041 326.316 641.741 319.016 636.941 313.816C634.441 311.116 631.841 308.316 629.341 305.616C622.441 298.116 615.541 290.716 608.741 283.216C598.541 272.216 588.341 261.116 578.241 250.116C565.841 236.716 553.541 223.216 541.141 209.816C527.541 195.016 513.941 180.316 500.341 165.516C486.641 150.716 472.941 135.816 459.341 121.016C446.541 107.116 433.741 93.2162 420.941 79.3162C410.041 67.4162 399.241 55.7162 388.341 44.0162C380.541 35.6162 372.741 27.1162 365.041 18.7162C361.341 14.7162 357.741 10.7162 354.041 6.71623C353.841 6.51623 353.741 6.41623 353.541 6.21623C349.041 1.31623 340.041 1.51623 335.641 6.51623C330.841 11.9162 331.141 19.2162 335.941 24.4162C338.441 27.1162 341.041 29.9162 343.541 32.6162C344.841 34.0162 346.041 35.3162 347.341 36.7162C352.041 41.9162 351.641 49.7162 346.741 54.7162C346.641 54.8162 346.441 55.0162 346.341 55.1162L346.241 55.2162C342.241 59.8162 335.141 60.0162 330.941 55.5162C326.841 51.1162 322.741 46.6162 318.641 42.2162C310.841 33.8162 303.041 25.3162 295.241 16.9162C291.541 12.9162 287.941 8.91623 284.241 4.91623C284.041 4.71623 283.941 4.61623 283.741 4.41623C278.141 -1.68377 266.741 -1.38377 261.341 4.81623C255.341 11.5162 255.641 20.7162 261.741 27.2162C264.241 29.9162 266.841 32.7162 269.341 35.4162C276.241 42.9162 283.141 50.3162 289.941 57.8162C300.141 68.9162 310.341 80.0162 320.541 91.0162C328.441 99.6162 336.341 108.116 344.241 116.716C345.841 118.516 344.541 121.416 342.141 121.316C337.741 121.216 333.241 122.816 330.341 126.116C324.341 132.816 324.641 142.016 330.741 148.516C333.241 151.216 335.841 154.016 338.341 156.716C345.241 164.216 352.141 171.616 358.941 179.116C369.141 190.116 379.341 201.216 389.441 212.216C401.841 225.616 414.141 239.116 426.541 252.516C440.141 267.316 453.741 282.016 467.341 296.816C481.041 311.616 494.741 326.516 508.341 341.316C521.141 355.216 533.941 369.116 546.741 383.016C557.541 394.716 568.341 406.516 579.141 418.216C586.941 426.616 594.741 435.116 602.441 443.516C606.141 447.516 609.741 451.516 613.441 455.516C613.641 455.716 613.741 455.816 613.941 456.016C619.541 462.116 630.941 461.816 636.341 455.616C642.441 449.016 642.041 439.916 636.041 433.316Z" fill="#9AC906"/>
<path d="M512.2 974.412C508.5 970.412 504.8 966.412 501.1 962.412C491 951.512 480.9 940.613 470.8 929.713C455.9 913.713 441 897.613 426.1 881.613C423.3 878.513 420.4 875.513 417.6 872.413C414 868.613 416.1 862.313 421.3 861.513C426 860.713 430.5 858.613 433.8 855.113C442.6 845.513 442.6 831.813 433.8 822.213C430.1 818.213 426.4 814.213 422.7 810.213C412.6 799.313 402.5 788.413 392.4 777.513C377.5 761.513 362.6 745.413 347.7 729.413C329.5 709.813 311.4 690.313 293.2 670.713C273.3 649.313 253.4 627.813 233.5 606.413C213.4 584.813 193.3 563.113 173.3 541.513C154.5 521.313 135.7 501.113 117 480.813C101.1 463.713 85.3 446.613 69.4 429.513C58 417.313 46.7 405.013 35.3 392.813C29.9 387.013 24.6 381.213 19.2 375.413C19 375.213 18.7 374.913 18.5 374.713C10.2 365.813 -6.1 365.713 -14.4 374.713C-23.2 384.313 -23.2 398.013 -14.4 407.613C-10.7 411.613 -6.99999 415.613 -3.29999 419.613C6.80001 430.513 16.9 441.413 27 452.313C41.9 468.313 56.8 484.413 71.7 500.413C74.5 503.513 77.4 506.513 80.2 509.613C83.8 513.413 81.7 519.713 76.5 520.513C71.8 521.313 67.3 523.413 64 526.913C55.2 536.513 55.2 550.213 64 559.813C67.7 563.813 71.4 567.813 75.1 571.813C85.2 582.713 95.3 593.613 105.4 604.513C120.3 620.513 135.2 636.613 150.1 652.613C168.3 672.213 186.4 691.713 204.6 711.313C224.5 732.713 244.4 754.213 264.3 775.613C284.4 797.213 304.5 818.913 324.5 840.513C343.3 860.713 362.1 880.913 380.8 901.213C396.7 918.312 412.5 935.413 428.4 952.513C439.8 964.713 451.1 977.013 462.5 989.213C467.9 995.013 473.2 1000.81 478.6 1006.61C478.8 1006.81 479.1 1007.11 479.3 1007.31C487.6 1016.21 503.9 1016.31 512.2 1007.31C521 997.713 521 983.912 512.2 974.412Z" fill="#9AC906"/>
<path d="M2153.51 1040.66C2148.51 1035.26 2143.51 1029.86 2138.51 1024.46C2124.91 1009.76 2111.21 995.062 2097.61 980.362C2077.41 958.662 2057.31 936.863 2037.11 915.163C2012.51 888.663 1987.91 862.062 1963.21 835.562C1936.21 806.463 1909.31 777.462 1882.31 748.362C1881.31 747.263 1880.21 746.163 1879.21 744.963C1875.51 740.963 1878.01 734.263 1883.51 733.963C1890.91 733.463 1898.21 730.562 1903.21 725.062C1914.91 712.362 1915.01 694.062 1903.21 681.362C1898.21 675.962 1893.21 670.563 1888.21 665.163C1874.61 650.463 1860.91 635.763 1847.31 621.062C1827.11 599.362 1807.01 577.563 1786.81 555.863C1762.21 529.363 1737.61 502.763 1712.91 476.263C1685.91 447.163 1659.01 418.163 1632.01 389.063C1604.81 359.763 1577.61 330.363 1550.31 301.063C1524.91 273.663 1499.51 246.363 1474.11 218.963C1452.61 195.863 1431.21 172.763 1409.71 149.563C1394.31 132.963 1378.81 116.263 1363.41 99.6625C1356.11 91.7625 1348.81 83.7625 1341.41 75.9625C1341.11 75.6625 1340.81 75.2625 1340.51 74.9625C1329.51 63.0625 1307.81 62.9625 1296.81 74.9625C1285.11 87.6625 1285.01 105.963 1296.81 118.663C1301.81 124.063 1306.81 129.463 1311.81 134.863C1325.41 149.563 1339.11 164.263 1352.71 178.963C1372.91 200.663 1393.01 222.463 1413.21 244.163C1437.81 270.663 1462.41 297.263 1487.11 323.763C1514.11 352.863 1541.01 381.863 1568.01 410.963C1568.51 411.463 1568.91 411.963 1569.41 412.463C1573.31 416.663 1570.31 423.563 1564.61 423.463C1554.81 423.463 1545.01 426.963 1538.41 434.163C1531.91 441.263 1528.41 449.763 1527.91 458.363C1527.61 464.163 1520.51 466.763 1516.51 462.463C1516.41 462.363 1516.41 462.363 1516.31 462.263C1494.81 439.163 1473.41 416.063 1451.91 392.863C1436.51 376.263 1421.01 359.563 1405.61 342.963C1398.31 335.063 1391.01 327.063 1383.61 319.263C1383.31 318.963 1383.01 318.563 1382.71 318.263C1371.71 306.363 1350.01 306.263 1339.01 318.263C1327.31 330.963 1327.21 349.263 1339.01 361.963C1344.01 367.363 1349.01 372.763 1354.01 378.163C1367.61 392.863 1381.31 407.563 1394.91 422.263C1415.11 443.963 1435.21 465.763 1455.41 487.463C1480.01 513.963 1504.61 540.563 1529.31 567.063C1556.31 596.163 1583.21 625.163 1610.21 654.263C1637.41 683.562 1664.61 712.963 1691.91 742.263C1717.31 769.663 1742.71 796.962 1768.11 824.362C1789.61 847.462 1811.01 870.562 1832.51 893.763C1847.91 910.362 1863.41 927.063 1878.81 943.663C1886.11 951.563 1893.41 959.562 1900.81 967.362C1901.11 967.662 1901.41 968.062 1901.71 968.362C1912.71 980.263 1934.41 980.362 1945.41 968.362C1950.31 963.062 1953.21 956.663 1954.01 950.163C1954.71 944.663 1961.61 942.563 1965.31 946.563C1966.01 947.363 1966.71 948.162 1967.51 948.862C1989.01 971.962 2010.41 995.062 2031.91 1018.26C2047.31 1034.86 2062.81 1051.56 2078.21 1068.16C2085.51 1076.06 2092.81 1083.96 2100.21 1091.86C2100.51 1092.16 2100.81 1092.56 2101.11 1092.86C2114.31 1107.16 2140.31 1107.26 2153.51 1092.86C2167.51 1077.86 2167.61 1055.96 2153.51 1040.66Z" fill="url(#paint0_linear)"/>
<defs>
<linearGradient id="paint0_linear" x1="1726.08" y1="1058.22" x2="1726.08" y2="111.838" gradientUnits="userSpaceOnUse">
<stop stop-color="#DAE5A2"/>
<stop offset="0.3451" stop-color="#B8D166"/>
<stop offset="0.6781" stop-color="#92BE27"/>
<stop offset="1" stop-color="#80B300"/>
</linearGradient>
</defs>
</svg>
