<svg width="511" height="59" viewBox="0 0 511 59" fill="none" xmlns="http://www.w3.org/2000/svg">
<g filter="url(#filter0_d)">
<g clip-path="url(#clip0)">
<path d="M38.7908 22.9961L8.8023 0.5998C6.79846 -0.881528 4 0.56453 4 3.06868V25.4649V47.8612C4 50.3654 6.79846 51.8467 8.8023 50.3301L38.7908 27.9338C40.4146 26.7347 40.4146 24.2305 38.7908 22.9961Z" fill="#E61B72"/>
</g>
<path d="M472.209 22.9961L502.198 0.5998C504.202 -0.881528 507 0.56453 507 3.06868V25.4649V47.8612C507 50.3654 504.202 51.8467 502.198 50.3301L472.209 27.9338C470.585 26.7347 470.585 24.2305 472.209 22.9961Z" fill="#E61B72"/>
<path fill-rule="evenodd" clip-rule="evenodd" d="M424.499 34.6164H86.7878C83.5574 34.6164 81 31.9934 81 28.8323V17.6005C81 14.3722 83.6247 11.8164 86.7878 11.8164H424.432C427.662 11.8164 430.22 14.4394 430.22 17.6005V28.8323C430.287 31.9934 427.662 34.6164 424.499 34.6164Z" fill="url(#paint0_radial)"/>
<path d="M141.099 35.6256C147.896 31.1194 149.646 22.107 145.002 15.4486C140.359 8.79018 131.139 6.97426 124.409 11.4804C117.611 15.9866 115.862 24.999 120.505 31.6574C125.149 38.3158 134.369 40.1318 141.099 35.6256Z" fill="#E59F39"/>
<path d="M140.023 34.0113C145.878 30.1104 147.358 22.3087 143.388 16.5246C139.417 10.7405 131.408 9.19363 125.553 13.0945C119.698 16.9954 118.217 24.7971 122.188 30.5812C126.159 36.298 134.167 37.8449 140.023 34.0113Z" fill="#F7CC7F"/>
<path opacity="0.3" d="M125.889 12.8931C122.524 14.978 120.505 18.3408 120.034 21.9054C120.842 18.9462 122.726 16.2559 125.553 14.5072C131.542 10.8081 139.484 12.624 143.253 18.5426C144.935 21.0984 145.541 24.0577 145.137 26.8824C146.012 23.6541 145.541 20.0223 143.522 16.9285C139.82 10.9426 131.879 9.19396 125.889 12.8931Z" fill="#F7CC7F"/>
<path d="M133.898 15.4487L135.177 19.2823C135.312 19.7531 135.783 20.0894 136.321 20.0894H140.494C141.638 20.0894 142.109 21.5018 141.167 22.1743L137.802 24.5956C137.398 24.8646 137.196 25.4027 137.398 25.8735L138.677 29.7071C139.013 30.7832 137.802 31.6575 136.86 30.985L133.495 28.5637C133.091 28.2947 132.552 28.2947 132.081 28.5637L128.716 30.985C127.774 31.6575 126.563 30.7832 126.899 29.7071L128.178 25.8735C128.313 25.4027 128.178 24.8646 127.774 24.5956L124.409 22.1743C123.467 21.5018 123.938 20.0894 125.082 20.0894H129.255C129.793 20.0894 130.197 19.7531 130.399 19.2823L131.678 15.4487C132.014 14.3726 133.562 14.3726 133.898 15.4487Z" fill="#E59F39"/>
<path d="M263.921 35.6256C270.719 31.1194 272.468 22.107 267.825 15.4486C263.181 8.79018 253.961 6.97426 247.231 11.4804C240.434 15.9866 238.684 24.999 243.328 31.6574C247.971 38.3158 257.191 40.1318 263.921 35.6256Z" fill="#E59F39"/>
<path d="M262.845 34.0113C268.7 30.1104 270.181 22.3087 266.21 16.5246C262.239 10.7405 254.23 9.19363 248.375 13.0945C242.52 16.9954 241.04 24.7971 245.01 30.5812C248.981 36.298 256.99 37.8449 262.845 34.0113Z" fill="#F7CC7F"/>
<path opacity="0.3" d="M248.712 12.8931C245.347 14.978 243.328 18.3408 242.856 21.9054C243.664 18.9462 245.548 16.2559 248.375 14.5072C254.365 10.8081 262.306 12.624 266.075 18.5426C267.757 21.0984 268.363 24.0577 267.959 26.8824C268.834 23.6541 268.363 20.0223 266.344 16.9285C262.643 10.9426 254.701 9.19396 248.712 12.8931Z" fill="#F7CC7F"/>
<path d="M256.721 15.4487L257.999 19.2823C258.134 19.7531 258.605 20.0894 259.144 20.0894H263.316C264.46 20.0894 264.931 21.5018 263.989 22.1743L260.624 24.5956C260.22 24.8646 260.018 25.4027 260.22 25.8735L261.499 29.7071C261.836 30.7832 260.624 31.6575 259.682 30.985L256.317 28.5637C255.913 28.2947 255.375 28.2947 254.904 28.5637L251.539 30.985C250.596 31.6575 249.385 30.7832 249.722 29.7071L251 25.8735C251.135 25.4027 251 24.8646 250.596 24.5956L247.231 22.1743C246.289 21.5018 246.76 20.0894 247.904 20.0894H252.077C252.615 20.0894 253.019 19.7531 253.221 19.2823L254.5 15.4487C254.836 14.3726 256.384 14.3726 256.721 15.4487Z" fill="#E59F39"/>
<path d="M386.744 35.6256C393.541 31.1194 395.291 22.107 390.647 15.4486C386.003 8.79018 376.783 6.97426 370.053 11.4804C363.256 15.9866 361.506 24.999 366.15 31.6574C370.794 38.3158 380.014 40.1318 386.744 35.6256Z" fill="#E59F39"/>
<path d="M385.667 34.0113C391.522 30.1104 393.003 22.3087 389.032 16.5246C385.061 10.7405 377.053 9.19363 371.198 13.0945C365.343 16.9954 363.862 24.7971 367.833 30.5812C371.803 36.298 379.812 37.8449 385.667 34.0113Z" fill="#F7CC7F"/>
<path opacity="0.3" d="M371.534 12.8931C368.169 14.978 366.15 18.3408 365.679 21.9054C366.486 18.9462 368.371 16.2559 371.197 14.5072C377.187 10.8081 385.128 12.624 388.897 18.5426C390.58 21.0984 391.185 24.0577 390.782 26.8824C391.657 23.6541 391.185 20.0223 389.166 16.9285C385.465 10.9426 377.524 9.19396 371.534 12.8931Z" fill="#F7CC7F"/>
<path d="M379.543 15.4487L380.822 19.2823C380.956 19.7531 381.427 20.0894 381.966 20.0894H386.138C387.282 20.0894 387.754 21.5018 386.811 22.1743L383.446 24.5956C383.043 24.8646 382.841 25.4027 383.043 25.8735L384.321 29.7071C384.658 30.7832 383.446 31.6575 382.504 30.985L379.139 28.5637C378.735 28.2947 378.197 28.2947 377.726 28.5637L374.361 30.985C373.419 31.6575 372.207 30.7832 372.544 29.7071L373.822 25.8735C373.957 25.4027 373.822 24.8646 373.419 24.5956L370.054 22.1743C369.111 21.5018 369.583 20.0894 370.727 20.0894H374.899C375.438 20.0894 375.841 19.7531 376.043 19.2823L377.322 15.4487C377.659 14.3726 379.206 14.3726 379.543 15.4487Z" fill="#E59F39"/>
</g>
<defs>
<filter id="filter0_d" x="0" y="0" width="511" height="59" filterUnits="userSpaceOnUse" color-interpolation-filters="sRGB">
<feFlood flood-opacity="0" result="BackgroundImageFix"/>
<feColorMatrix in="SourceAlpha" type="matrix" values="0 0 0 0 0 0 0 0 0 0 0 0 0 0 0 0 0 0 127 0"/>
<feOffset dy="4"/>
<feGaussianBlur stdDeviation="2"/>
<feColorMatrix type="matrix" values="0 0 0 0 0 0 0 0 0 0 0 0 0 0 0 0 0 0 0.25 0"/>
<feBlend mode="normal" in2="BackgroundImageFix" result="effect1_dropShadow"/>
<feBlend mode="normal" in="SourceGraphic" in2="effect1_dropShadow" result="shape"/>
</filter>
<radialGradient id="paint0_radial" cx="0" cy="0" r="1" gradientUnits="userSpaceOnUse" gradientTransform="translate(255.644 23.1828) scale(123.756 123.676)">
<stop stop-color="white"/>
<stop offset="0.42" stop-color="#3FA9F5"/>
<stop offset="1" stop-color="#004FA3"/>
</radialGradient>
<clipPath id="clip0">
<rect width="36" height="51" fill="white" transform="translate(4)"/>
</clipPath>
</defs>
</svg>
