<svg width="868" height="238" viewBox="0 0 868 238" fill="none" xmlns="http://www.w3.org/2000/svg">
<path d="M739.908 131H128.23C116.057 131 106.138 142.413 106.138 156.419V203.626C106.138 217.632 116.057 229.045 128.23 229.045H739.908C752.081 229.045 762 217.632 762 203.626V156.419C761.85 142.413 751.931 131 739.908 131ZM746.821 203.626C746.821 208.122 743.665 211.753 739.757 211.753H128.08C124.172 211.753 121.016 208.122 121.016 203.626V156.419C121.016 151.923 124.172 148.292 128.08 148.292H739.757C743.665 148.292 746.821 151.923 746.821 156.419V203.626Z" fill="white"/>
<path d="M205.744 214.424C224.607 201.658 229.468 175.899 216.602 156.888C203.736 137.878 178.016 132.815 159.153 145.58C140.291 158.346 135.43 184.105 148.295 203.116C161.161 222.127 186.882 227.189 205.744 214.424Z" fill="#866EEA"/>
<path d="M202.58 209.754C218.882 198.724 223.083 176.46 211.963 160.026C200.843 143.593 178.614 139.213 162.312 150.243C146.01 161.274 141.809 183.538 152.929 199.971C164.049 216.405 186.278 220.785 202.58 209.754Z" fill="white"/>
<path d="M185.58 156.924L189.162 167.922C189.612 169.29 190.872 170.208 192.294 170.208H203.868C207.072 170.208 208.404 174.294 205.812 176.184L196.452 182.988C195.3 183.834 194.814 185.328 195.246 186.678L198.828 197.676C199.818 200.718 196.326 203.256 193.752 201.366L184.392 194.562C183.24 193.716 181.674 193.716 180.504 194.562L171.144 201.366C168.552 203.238 165.078 200.718 166.068 197.676L169.65 186.678C170.1 185.31 169.614 183.834 168.444 182.988L159.084 176.184C156.492 174.312 157.824 170.208 161.028 170.208H172.602C174.024 170.208 175.302 169.29 175.734 167.922L179.316 156.924C180.288 153.882 184.608 153.882 185.58 156.924Z" fill="#866EEA"/>
<path d="M457.744 214.424C476.607 201.658 481.468 175.899 468.602 156.888C455.736 137.878 430.016 132.815 411.153 145.58C392.291 158.346 387.43 184.105 400.295 203.116C413.161 222.127 438.882 227.189 457.744 214.424Z" fill="#866EEA"/>
<path d="M454.58 209.754C470.882 198.724 475.083 176.46 463.963 160.026C452.843 143.593 430.614 139.213 414.312 150.243C398.01 161.274 393.809 183.538 404.929 199.971C416.049 216.405 438.278 220.785 454.58 209.754Z" fill="white"/>
<path d="M437.58 156.924L441.162 167.922C441.612 169.29 442.872 170.208 444.294 170.208H455.868C459.072 170.208 460.404 174.294 457.812 176.184L448.452 182.988C447.3 183.834 446.814 185.328 447.246 186.678L450.828 197.676C451.818 200.718 448.326 203.256 445.752 201.366L436.392 194.562C435.24 193.716 433.674 193.716 432.504 194.562L423.144 201.366C420.552 203.238 417.078 200.718 418.068 197.676L421.65 186.678C422.1 185.31 421.614 183.834 420.444 182.988L411.084 176.184C408.492 174.312 409.824 170.208 413.028 170.208H424.602C426.024 170.208 427.302 169.29 427.734 167.922L431.316 156.924C432.288 153.882 436.608 153.882 437.58 156.924Z" fill="#866EEA"/>
<path d="M707.744 214.424C726.607 201.658 731.468 175.899 718.602 156.888C705.736 137.878 680.016 132.815 661.153 145.58C642.291 158.346 637.43 184.105 650.295 203.116C663.161 222.127 688.882 227.189 707.744 214.424Z" fill="#866EEA"/>
<path d="M704.58 209.754C720.882 198.724 725.083 176.46 713.963 160.026C702.843 143.593 680.614 139.213 664.312 150.243C648.01 161.274 643.809 183.538 654.929 199.971C666.049 216.405 688.278 220.785 704.58 209.754Z" fill="white"/>
<path d="M687.58 156.924L691.162 167.922C691.612 169.29 692.872 170.208 694.294 170.208H705.868C709.072 170.208 710.404 174.294 707.812 176.184L698.452 182.988C697.3 183.834 696.814 185.328 697.246 186.678L700.828 197.676C701.818 200.718 698.326 203.256 695.752 201.366L686.392 194.562C685.24 193.716 683.674 193.716 682.504 194.562L673.144 201.366C670.552 203.238 667.078 200.718 668.068 197.676L671.65 186.678C672.1 185.31 671.614 183.834 670.444 182.988L661.084 176.184C658.492 174.312 659.824 170.208 663.028 170.208H674.602C676.024 170.208 677.302 169.29 677.734 167.922L681.316 156.924C682.288 153.882 686.608 153.882 687.58 156.924Z" fill="#866EEA"/>
<path d="M9.59263 9.09591L85.893 53.1481C97.3748 59.998 105.014 73.42 93.3498 91.5336C86.5033 102.165 88.0649 111.142 90.5198 122.871C90.7227 123.845 89.6862 124.448 88.6428 124.448C88.2081 124.448 87.7717 124.343 87.4256 124.118L34.7914 89.7708C28.47 86.1208 26.3049 78.0383 29.9548 71.7186C29.9548 71.7186 48.1315 82.2134 56.231 86.8948C56.9249 87.2954 57.6818 87.4864 58.4285 87.4864C59.9543 87.4864 61.4409 86.6902 62.2644 85.2616L62.3206 85.1661C63.5037 83.1186 62.8014 80.5001 60.7522 79.3169L24.4006 58.3359C18.0792 54.6876 15.9123 46.6051 19.5623 40.2854L67.2509 67.818C67.9448 68.2186 68.7017 68.4096 69.4501 68.4096C70.9725 68.4096 72.454 67.6202 73.2689 66.2069C74.4861 64.0998 73.7633 61.4062 71.6561 60.189L14.4309 27.1498C8.10945 23.4981 5.94264 15.4156 9.59263 9.09591ZM3.68718 5.6863C-1.84492 15.269 1.43854 27.5215 11.0213 33.0553L14.6525 35.1522L13.962 36.349C11.3094 40.9451 10.2848 46.392 11.5225 51.5524C12.8198 56.955 16.2005 61.4778 20.9927 64.243L25.0467 66.5837L24.3494 67.7924C21.7121 72.3596 20.6858 77.7707 21.8945 82.9055C23.1612 88.2774 26.4839 92.7883 31.2062 95.5774L83.6972 129.83C85.1412 130.771 86.8511 131.271 88.6411 131.271C91.3756 131.271 93.9738 130.081 95.5933 128.088C97.1004 126.232 97.6851 123.823 97.1941 121.479C94.8415 110.239 93.7709 103.477 99.0831 95.2296C105.217 85.7031 107.287 76.4307 105.231 67.668C103.311 59.4798 97.6834 52.2446 89.3861 47.2955L89.3435 47.27L89.3009 47.2461L10.0495 1.48565C8.41802 0.544599 6.33304 1.10207 5.39198 2.73357L3.68718 5.6863Z" fill="white" stroke="white" stroke-width="2"/>
<path d="M858.407 9.06759L782.107 53.1198C770.625 59.9697 762.986 73.3917 774.65 91.5052C781.497 102.136 779.935 111.114 777.48 122.843C777.277 123.816 778.314 124.42 779.357 124.42C779.792 124.42 780.228 124.314 780.574 124.089L833.209 89.7425C839.53 86.0925 841.695 78.01 838.045 71.6903C838.045 71.6903 819.869 82.1851 811.769 86.8665C811.075 87.2671 810.318 87.458 809.571 87.458C808.046 87.458 806.559 86.6619 805.736 85.2333L805.679 85.1378C804.496 83.0903 805.199 80.4717 807.248 79.2886L843.599 58.3075C849.921 54.6593 852.088 46.5768 848.438 40.257L800.749 67.7897C800.055 68.1903 799.298 68.3812 798.55 68.3812C797.027 68.3812 795.546 67.5919 794.731 66.1786C793.514 64.0715 794.237 61.3779 796.344 60.1607L853.569 27.1215C859.891 23.4698 862.057 15.3873 858.407 9.06759ZM864.313 5.65798C869.845 15.2407 866.561 27.4931 856.979 33.027L853.348 35.1239L854.038 36.3206C856.691 40.9168 857.715 46.3637 856.478 51.5241C855.18 56.9266 851.8 61.4495 847.007 64.2147L842.953 66.5554L843.651 67.7641C846.288 72.3313 847.314 77.7423 846.105 82.8772C844.839 88.2491 841.516 92.76 836.794 95.549L784.303 129.802C782.859 130.743 781.149 131.243 779.359 131.243C776.624 131.243 774.026 130.053 772.407 128.06C770.9 126.203 770.315 123.794 770.806 121.45C773.158 110.21 774.229 103.449 768.917 95.2013C762.783 85.6748 760.713 76.4024 762.769 67.6396C764.689 59.4515 770.317 52.2163 778.614 47.2672L778.656 47.2416L778.699 47.2178L857.95 1.45733C859.582 0.516278 861.667 1.07375 862.608 2.70525L864.313 5.65798Z" fill="white" stroke="white" stroke-width="2"/>
</svg>
