<svg width="1037" height="414" viewBox="0 0 1037 414" fill="none" xmlns="http://www.w3.org/2000/svg">
<rect opacity="0.5" x="65" y="217" width="656" height="97" rx="15" fill="white"/>
<g clip-path="url(#clip0)">
<path opacity="0.5" d="M739.579 261.211L778.73 231.788C781.346 229.842 785 231.742 785 235.031V264.454V293.877C785 297.166 781.346 299.112 778.73 297.12L739.579 267.697C737.459 266.122 737.459 262.832 739.579 261.211Z" fill="white"/>
</g>
<path opacity="0.5" d="M45.4213 261.211L6.26967 231.788C3.65355 229.842 0 231.742 0 235.031V264.454V293.877C0 297.166 3.65355 299.112 6.26967 297.12L45.4213 267.697C47.5413 266.122 47.5413 262.832 45.4213 261.211Z" fill="white"/>
<path d="M945.407 225.338C930.669 228.577 917.208 236.076 906.699 246.905C898.695 254.676 891.605 263.337 885.567 272.718L860.174 257.012C855.777 254.5 850.564 253.832 845.675 255.153C840.787 256.474 836.62 259.677 834.087 264.062C831.295 268.287 830.29 273.445 831.292 278.409C832.293 283.373 835.219 287.738 839.431 290.551L887.343 320.183L875.031 323.167C869.63 324.496 864.966 327.889 862.04 332.62C859.115 337.35 858.161 343.039 859.385 348.465C859.973 351.168 861.098 353.725 862.692 355.986C864.287 358.246 866.318 360.163 868.667 361.624C873.174 364.533 878.65 365.538 883.896 364.419L924.152 358.45C931.576 361.552 939.511 363.248 947.555 363.451C953.658 363.74 959.768 363.046 965.651 361.396L974.85 367.085C976.152 367.912 977.722 368.207 979.236 367.911C980.75 367.615 982.092 366.75 982.988 365.494L1024.21 298.849C1024.93 297.487 1025.11 295.899 1024.69 294.413C1024.28 292.926 1023.32 291.654 1022 290.857L1009.06 282.856C1003.67 266.508 992.619 252.624 977.895 243.71L949.148 225.93C948.007 225.307 946.685 225.098 945.407 225.338ZM972.208 253.44C985.136 261.013 994.787 273.12 999.288 287.411C999.495 289.001 1000.31 290.451 1001.55 291.461L1011.9 297.862L976.756 354.685L969.665 350.3C968.881 349.813 967.99 349.527 967.069 349.465C966.148 349.404 965.226 349.57 964.385 349.948C959.22 351.718 953.754 352.436 948.307 352.06C941.251 351.916 934.301 350.322 927.886 347.379C926.818 346.789 925.587 346.562 924.378 346.732L881.914 353.059C880.681 353.358 879.402 353.409 878.149 353.21C876.896 353.01 875.696 352.564 874.617 351.897C873.539 351.23 872.603 350.355 871.865 349.323C871.128 348.292 870.602 347.124 870.319 345.888C869.741 343.349 870.185 340.685 871.554 338.471C872.924 336.257 875.109 334.67 877.638 334.053L900.902 328.57L915.946 337.874L917.082 325.329L845.357 280.968C843.709 279.713 842.612 277.867 842.297 275.819C841.982 273.771 842.474 271.681 843.67 269.988C844.65 268.163 846.3 266.789 848.273 266.156C850.246 265.523 852.388 265.68 854.247 266.595L910.783 301.561L918.77 293.253L895.197 278.674C897.764 274.702 900.534 270.866 903.498 267.181L928.556 282.679L934.974 276.051L909.341 260.197C910.939 258.47 912.615 256.724 914.416 254.99C916.603 252.908 918.9 250.945 921.298 249.111L945.972 264.372L952.391 257.743L929.537 243.608C934.429 240.613 939.711 238.307 945.234 236.757L972.208 253.44Z" fill="#FCB527"/>
<path d="M695.77 143.533H84.0925C71.9191 143.533 62 154.946 62 168.952V216.159C62 230.166 71.9191 241.578 84.0925 241.578H695.77C707.943 241.578 717.862 230.166 717.862 216.159V168.952C717.712 154.946 707.793 143.533 695.77 143.533ZM702.683 216.159C702.683 220.655 699.527 224.286 695.62 224.286H83.9422C80.0347 224.286 76.8786 220.655 76.8786 216.159V168.952C76.8786 164.456 80.0347 160.825 83.9422 160.825H695.62C699.527 160.825 702.683 164.456 702.683 168.952V216.159Z" fill="white"/>
<path d="M161.607 226.957C180.469 214.191 185.33 188.432 172.464 169.421C159.599 150.411 133.878 145.348 115.016 158.114C96.1533 170.879 91.2921 196.639 104.158 215.649C117.024 234.66 142.744 239.722 161.607 226.957Z" fill="#866EEA"/>
<path d="M158.442 222.288C174.744 211.257 178.945 188.993 167.825 172.559C156.706 156.126 134.476 151.746 118.174 162.776C101.872 173.807 97.6715 196.071 108.791 212.505C119.911 228.938 142.141 233.318 158.442 222.288Z" fill="white"/>
<path d="M141.442 169.457L145.024 180.455C145.474 181.823 146.734 182.741 148.156 182.741H159.73C162.934 182.741 164.266 186.827 161.674 188.717L152.314 195.521C151.162 196.367 150.676 197.861 151.108 199.211L154.69 210.209C155.68 213.251 152.188 215.789 149.614 213.899L140.254 207.095C139.102 206.249 137.536 206.249 136.366 207.095L127.006 213.899C124.414 215.771 120.94 213.251 121.93 210.209L125.512 199.211C125.962 197.843 125.476 196.367 124.306 195.521L114.946 188.717C112.354 186.845 113.686 182.741 116.89 182.741H128.464C129.886 182.741 131.164 181.823 131.596 180.455L135.178 169.457C136.15 166.415 140.47 166.415 141.442 169.457Z" fill="#866EEA"/>
<path d="M413.607 226.957C432.469 214.191 437.33 188.432 424.464 169.421C411.599 150.411 385.878 145.348 367.016 158.114C348.153 170.879 343.292 196.639 356.158 215.649C369.024 234.66 394.744 239.722 413.607 226.957Z" fill="#866EEA"/>
<path d="M410.442 222.288C426.744 211.257 430.945 188.993 419.825 172.559C408.706 156.126 386.476 151.746 370.174 162.776C353.872 173.807 349.672 196.071 360.791 212.505C371.911 228.938 394.141 233.318 410.442 222.288Z" fill="white"/>
<path d="M393.442 169.457L397.024 180.455C397.474 181.823 398.734 182.741 400.156 182.741H411.73C414.934 182.741 416.266 186.827 413.674 188.717L404.314 195.521C403.162 196.367 402.676 197.861 403.108 199.211L406.69 210.209C407.68 213.251 404.188 215.789 401.614 213.899L392.254 207.095C391.102 206.249 389.536 206.249 388.366 207.095L379.006 213.899C376.414 215.771 372.94 213.251 373.93 210.209L377.512 199.211C377.962 197.843 377.476 196.367 376.306 195.521L366.946 188.717C364.354 186.845 365.686 182.741 368.89 182.741H380.464C381.886 182.741 383.164 181.823 383.596 180.455L387.178 169.457C388.15 166.415 392.47 166.415 393.442 169.457Z" fill="#866EEA"/>
<path d="M663.607 226.957C682.469 214.191 687.33 188.432 674.464 169.421C661.599 150.411 635.878 145.348 617.016 158.114C598.153 170.879 593.292 196.639 606.158 215.649C619.024 234.66 644.744 239.722 663.607 226.957Z" fill="#866EEA"/>
<path d="M660.442 222.288C676.744 211.257 680.945 188.993 669.825 172.559C658.706 156.126 636.476 151.746 620.174 162.776C603.872 173.807 599.672 196.071 610.791 212.505C621.911 228.938 644.141 233.318 660.442 222.288Z" fill="white"/>
<path d="M643.442 169.457L647.024 180.455C647.474 181.823 648.734 182.741 650.156 182.741H661.73C664.934 182.741 666.266 186.827 663.674 188.717L654.314 195.521C653.162 196.367 652.676 197.861 653.108 199.211L656.69 210.209C657.68 213.251 654.188 215.789 651.614 213.899L642.254 207.095C641.102 206.249 639.536 206.249 638.366 207.095L629.006 213.899C626.414 215.771 622.94 213.251 623.93 210.209L627.512 199.211C627.962 197.843 627.476 196.367 626.306 195.521L616.946 188.717C614.354 186.845 615.686 182.741 618.89 182.741H630.464C631.886 182.741 633.164 181.823 633.596 180.455L637.178 169.457C638.15 166.415 642.47 166.415 643.442 169.457Z" fill="#866EEA"/>
<path d="M394.009 115.5C395.26 115.451 396.707 114.936 397.619 114.078L427.37 86.0783C429.075 84.1809 429.779 80.5427 427.808 78.422C425.866 76.3332 422.1 76.3953 420.151 78.4763L399.259 98.1638V5.25001C399.259 2.3506 396.909 0 394.009 0C391.11 0 388.759 2.3506 388.759 5.25001V98.1638L367.867 78.4763C366.073 76.6848 362.175 76.3537 360.211 78.422C358.247 80.4898 358.874 84.2588 360.648 86.0783L390.4 114.078C391.418 115.036 392.612 115.503 394.009 115.5Z" fill="white"/>
<defs>
<clipPath id="clip0">
<rect width="47" height="67" fill="white" transform="matrix(-1 0 0 1 785 231)"/>
</clipPath>
</defs>
</svg>
