<svg width="634" height="73" viewBox="0 0 634 73" fill="none" xmlns="http://www.w3.org/2000/svg">
<rect x="2.5" y="2.5" width="541" height="68" rx="12.5" stroke="#E61B1B" stroke-width="5"/>
<path d="M618.586 27.6997C619.367 26.9187 619.367 25.6523 618.586 24.8713L617.129 23.4142C616.348 22.6332 615.081 22.6332 614.3 23.4142L606.414 31.3003C605.633 32.0813 604.367 32.0813 603.586 31.3003L595.7 23.4142C594.919 22.6332 593.652 22.6332 592.871 23.4142L591.414 24.8713C590.633 25.6523 590.633 26.9187 591.414 27.6997L599.3 35.5858C600.081 36.3668 600.081 37.6332 599.3 38.4142L591.414 46.3003C590.633 47.0813 590.633 48.3477 591.414 49.1287L592.871 50.5858C593.652 51.3668 594.919 51.3668 595.7 50.5858L603.586 42.6997C604.367 41.9187 605.633 41.9187 606.414 42.6997L614.3 50.5858C615.081 51.3668 616.348 51.3668 617.129 50.5858L618.586 49.1287C619.367 48.3477 619.367 47.0813 618.586 46.3003L610.7 38.4142C609.919 37.6332 609.919 36.3668 610.7 35.5858L618.586 27.6997Z" fill="#E61B1B"/>
<circle cx="605" cy="37" r="26" stroke="#E61B1B" stroke-width="6"/>
</svg>
