<svg width="504" height="51" viewBox="0 0 504 51" fill="none" xmlns="http://www.w3.org/2000/svg">
<path fill-rule="evenodd" clip-rule="evenodd" d="M420.693 36.9817H82.9812C79.7508 36.9817 77.1934 34.3587 77.1934 31.1976V19.9657C77.1934 16.7374 79.8181 14.1816 82.9812 14.1816H420.625C423.856 14.1816 426.413 16.8047 426.413 19.9657V31.1976C426.48 34.3587 423.856 36.9817 420.693 36.9817Z" fill="#CCCCCC"/>
<g clip-path="url(#clip0)">
<path d="M34.7908 22.9961L4.8023 0.5998C2.79846 -0.881528 0 0.56453 0 3.06868V25.4649V47.8612C0 50.3654 2.79846 51.8467 4.8023 50.3301L34.7908 27.9338C36.4146 26.7347 36.4146 24.2305 34.7908 22.9961Z" fill="white" fill-opacity="0.5"/>
</g>
<g clip-path="url(#clip1)">
<path d="M468.209 22.9961L498.198 0.5998C500.202 -0.881528 503 0.56453 503 3.06868V25.4649V47.8612C503 50.3654 500.202 51.8467 498.198 50.3301L468.209 27.9338C466.585 26.7347 466.585 24.2305 468.209 22.9961Z" fill="white" fill-opacity="0.5"/>
</g>
<defs>
<clipPath id="clip0">
<rect width="36" height="51" fill="white"/>
</clipPath>
<clipPath id="clip1">
<rect width="36" height="51" fill="white" transform="matrix(-1 0 0 1 503 0)"/>
</clipPath>
</defs>
</svg>
