<svg width="504" height="51" viewBox="0 0 504 51" fill="none" xmlns="http://www.w3.org/2000/svg">
<g filter="url(#filter0_d)">
<g clip-path="url(#clip0)">
<path d="M38.7908 22.9961L8.8023 0.5998C6.79846 -0.881528 4 0.56453 4 3.06868V25.4649V47.8612C4 50.3654 6.79846 51.8467 8.8023 50.3301L38.7908 27.9338C40.4146 26.7347 40.4146 24.2305 38.7908 22.9961Z" fill="#E61B72"/>
</g>
<path d="M472.218 22.9931L502.206 0.59687C504.21 -0.884458 507.009 0.5616 507.009 3.06575V25.462V47.8583C507.009 50.3624 504.21 51.8438 502.206 50.3272L472.218 27.9309C470.594 26.7317 470.594 24.2276 472.218 22.9931Z" fill="#E61B72"/>
<path fill-rule="evenodd" clip-rule="evenodd" d="M424.499 37.4036H86.7878C83.5574 37.4036 81 34.7 81 31.4419V19.865C81 16.5376 83.6247 13.9033 86.7878 13.9033H424.432C427.662 13.9033 430.22 16.6069 430.22 19.865V31.4419C430.287 34.7 427.662 37.4036 424.499 37.4036Z" fill="url(#paint0_radial)"/>
<path d="M141.099 38.4434C147.896 33.7988 149.646 24.5096 145.002 17.6467C140.359 10.7837 131.139 8.91204 124.409 13.5566C117.611 18.2012 115.862 27.4904 120.505 34.3534C125.149 41.2163 134.369 43.088 141.099 38.4434Z" fill="#E59F39"/>
<path d="M140.023 36.7795C145.878 32.7588 147.358 24.7174 143.388 18.7557C139.417 12.794 131.408 11.1995 125.553 15.2202C119.698 19.2409 118.217 27.2823 122.188 33.244C126.159 39.1364 134.167 40.7309 140.023 36.7795Z" fill="#F7CC7F"/>
<path opacity="0.3" d="M125.889 15.013C122.524 17.162 120.505 20.6281 120.034 24.3022C120.842 21.252 122.726 18.4791 125.553 16.6768C131.542 12.864 139.484 14.7357 143.253 20.8361C144.935 23.4703 145.541 26.5205 145.137 29.4321C146.012 26.1046 145.541 22.3612 143.522 19.1724C139.82 13.0027 131.879 11.2003 125.889 15.013Z" fill="#F7CC7F"/>
<path d="M133.898 17.6463L135.177 21.5977C135.312 22.083 135.783 22.4296 136.321 22.4296H140.494C141.638 22.4296 142.109 23.8853 141.167 24.5786L137.802 27.0742C137.398 27.3515 137.196 27.906 137.398 28.3913L138.677 32.3427C139.013 33.4518 137.802 34.353 136.86 33.6598L133.495 31.1642C133.091 30.8869 132.552 30.8869 132.081 31.1642L128.716 33.6598C127.774 34.353 126.563 33.4518 126.899 32.3427L128.178 28.3913C128.313 27.906 128.178 27.3515 127.774 27.0742L124.409 24.5786C123.467 23.8853 123.938 22.4296 125.082 22.4296H129.255C129.793 22.4296 130.197 22.083 130.399 21.5977L131.678 17.6463C132.014 16.5372 133.562 16.5372 133.898 17.6463Z" fill="#E59F39"/>
<path d="M263.921 38.4434C270.719 33.7988 272.468 24.5096 267.825 17.6467C263.181 10.7837 253.961 8.91204 247.231 13.5566C240.434 18.2012 238.684 27.4904 243.328 34.3534C247.971 41.2163 257.191 43.088 263.921 38.4434Z" fill="#E59F39"/>
<path d="M262.845 36.7795C268.7 32.7588 270.181 24.7174 266.21 18.7557C262.239 12.794 254.23 11.1995 248.375 15.2202C242.52 19.2409 241.04 27.2823 245.01 33.244C248.981 39.1364 256.99 40.7309 262.845 36.7795Z" fill="#F7CC7F"/>
<path opacity="0.3" d="M248.712 15.013C245.347 17.162 243.328 20.6281 242.856 24.3022C243.664 21.252 245.548 18.4791 248.375 16.6768C254.365 12.864 262.306 14.7357 266.075 20.8361C267.757 23.4703 268.363 26.5205 267.959 29.4321C268.834 26.1046 268.363 22.3612 266.344 19.1724C262.643 13.0027 254.701 11.2003 248.712 15.013Z" fill="#F7CC7F"/>
<path d="M256.721 17.6463L257.999 21.5977C258.134 22.083 258.605 22.4296 259.144 22.4296H263.316C264.46 22.4296 264.931 23.8853 263.989 24.5786L260.624 27.0742C260.22 27.3515 260.018 27.906 260.22 28.3913L261.499 32.3427C261.836 33.4518 260.624 34.353 259.682 33.6598L256.317 31.1642C255.913 30.8869 255.375 30.8869 254.904 31.1642L251.539 33.6598C250.596 34.353 249.385 33.4518 249.722 32.3427L251 28.3913C251.135 27.906 251 27.3515 250.596 27.0742L247.231 24.5786C246.289 23.8853 246.76 22.4296 247.904 22.4296H252.077C252.615 22.4296 253.019 22.083 253.221 21.5977L254.5 17.6463C254.836 16.5372 256.384 16.5372 256.721 17.6463Z" fill="#E59F39"/>
<path d="M386.744 38.4434C393.541 33.7988 395.291 24.5096 390.647 17.6467C386.003 10.7837 376.783 8.91204 370.053 13.5566C363.256 18.2012 361.506 27.4904 366.15 34.3534C370.794 41.2163 380.014 43.088 386.744 38.4434Z" fill="#E59F39"/>
<path d="M385.667 36.7795C391.522 32.7588 393.003 24.7174 389.032 18.7557C385.061 12.794 377.053 11.1995 371.198 15.2202C365.343 19.2409 363.862 27.2823 367.833 33.244C371.803 39.1364 379.812 40.7309 385.667 36.7795Z" fill="#F7CC7F"/>
<path opacity="0.3" d="M371.534 15.013C368.169 17.162 366.15 20.6281 365.679 24.3022C366.486 21.252 368.371 18.4791 371.197 16.6768C377.187 12.864 385.128 14.7357 388.897 20.8361C390.58 23.4703 391.185 26.5205 390.782 29.4321C391.657 26.1046 391.185 22.3612 389.166 19.1724C385.465 13.0027 377.524 11.2003 371.534 15.013Z" fill="#F7CC7F"/>
<path d="M379.543 17.6463L380.822 21.5977C380.956 22.083 381.427 22.4296 381.966 22.4296H386.138C387.282 22.4296 387.754 23.8853 386.811 24.5786L383.446 27.0742C383.043 27.3515 382.841 27.906 383.043 28.3913L384.321 32.3427C384.658 33.4518 383.446 34.353 382.504 33.6598L379.139 31.1642C378.735 30.8869 378.197 30.8869 377.726 31.1642L374.361 33.6598C373.419 34.353 372.207 33.4518 372.544 32.3427L373.822 28.3913C373.957 27.906 373.822 27.3515 373.419 27.0742L370.054 24.5786C369.111 23.8853 369.583 22.4296 370.727 22.4296H374.899C375.438 22.4296 375.841 22.083 376.043 21.5977L377.322 17.6463C377.659 16.5372 379.206 16.5372 379.543 17.6463Z" fill="#E59F39"/>
</g>
<defs>
<filter id="filter0_d" x="0" y="0" width="511.009" height="59" filterUnits="userSpaceOnUse" color-interpolation-filters="sRGB">
<feFlood flood-opacity="0" result="BackgroundImageFix"/>
<feColorMatrix in="SourceAlpha" type="matrix" values="0 0 0 0 0 0 0 0 0 0 0 0 0 0 0 0 0 0 127 0"/>
<feOffset dy="4"/>
<feGaussianBlur stdDeviation="2"/>
<feColorMatrix type="matrix" values="0 0 0 0 0 0 0 0 0 0 0 0 0 0 0 0 0 0 0.25 0"/>
<feBlend mode="normal" in2="BackgroundImageFix" result="effect1_dropShadow"/>
<feBlend mode="normal" in="SourceGraphic" in2="effect1_dropShadow" result="shape"/>
</filter>
<radialGradient id="paint0_radial" cx="0" cy="0" r="1" gradientUnits="userSpaceOnUse" gradientTransform="translate(255.644 25.6188) scale(123.756 127.475)">
<stop stop-color="white"/>
<stop offset="0.42" stop-color="#3FA9F5"/>
<stop offset="1" stop-color="#004FA3"/>
</radialGradient>
<clipPath id="clip0">
<rect width="36" height="51" fill="white" transform="translate(4)"/>
</clipPath>
</defs>
</svg>
