<svg width="591" height="677" viewBox="0 0 591 677" fill="none" xmlns="http://www.w3.org/2000/svg">
<path d="M0 15C0 6.71571 6.71573 0 15 0H575.842C584.126 0 590.842 6.71573 590.842 15V661.243C590.842 669.528 584.126 676.243 575.842 676.243H15C6.71573 676.243 0 669.528 0 661.243V15Z" fill="#9AC906"/>
<mask id="mask0" mask-type="alpha" maskUnits="userSpaceOnUse" x="0" y="0" width="591" height="665">
<rect width="590.842" height="664.043" rx="15" fill="#9AC906"/>
</mask>
<g mask="url(#mask0)">
<path d="M129.936 95.5453C119.341 69.5213 103.16 44.3217 78.3674 31.0511C38.5933 9.73478 -13.544 23.9334 -52.5576 1.26565C-61.589 -3.99297 -69.4466 -10.9956 -77.9455 -17.1007C-86.4444 -23.2059 -95.9331 -28.4494 -106.364 -29.4698C-116.794 -30.4903 -128.216 -26.4019 -133.475 -17.3706C-139.519 -7.04219 -136.093 6.08305 -132.516 17.5455C-120.74 55.1586 -108.965 92.7717 -97.1632 130.439C-85.6608 167.185 -72.6052 206.256 -42.1899 229.832C-11.6692 253.491 32.2686 256.071 67.5861 240.526C89.201 231.001 110.828 219.944 125.018 201.222C132.059 191.887 139.247 182.018 141.794 169.745C144.279 157.767 145.58 151.053 142.971 138.54C139.964 123.759 135.574 109.426 129.936 95.5453Z" fill="#93BB13"/>
<path d="M380.895 -46.0067C327.204 -56.0946 267.948 -42.0788 229.115 -3.72219C190.281 34.6345 176.123 98.1938 200.84 146.865C222.977 190.308 269.715 215.728 297.859 255.562C329.373 300.187 334.326 357.517 342.051 411.558C349.776 465.599 363.932 523.595 406.493 557.805C437.255 582.546 478.873 590.657 518.226 587.555C591.842 581.676 661.188 536.926 696.853 472.252C732.518 407.578 733.477 325.186 699.245 259.739C678.129 219.467 645.476 186.721 613.318 154.606C572.799 114.131 537.549 77.8237 507.185 30.2713C483.074 -7.47031 425.854 -42.3793 380.895 -46.0067Z" fill="#93BB13"/>
<path d="M130.389 271.461C120.295 288.729 118.654 309.734 120.158 329.665C121.662 349.595 125.969 369.275 126.907 389.272C127.845 409.268 125.075 430.272 113.659 446.699C104.195 460.353 88.6446 471.351 86.8229 487.863C84.6635 507.055 103.573 523.346 122.732 525.72C141.89 528.093 160.716 520.405 178.49 512.878C196.887 505.124 215.448 497.295 231.84 485.969C248.287 474.617 262.656 459.395 269.535 440.647C275.43 424.616 275.479 407.011 273.442 390.05C268.126 345.829 248.241 303.653 218.198 270.813C207.87 259.526 194.064 242.371 177.449 242.455C158.954 242.491 139.359 256.047 130.389 271.461Z" fill="#93BB13"/>
</g>
</svg>
