<svg width="1251" height="299" viewBox="0 0 1251 299" fill="none" xmlns="http://www.w3.org/2000/svg">
<path d="M236.005 62.25C236.72 62.2236 237.547 61.946 238.068 61.4837L255.069 46.3928C256.043 45.3702 256.445 43.4093 255.319 42.2663C254.209 41.1406 252.057 41.174 250.943 42.2956L239.005 52.9064V2.82955C239.005 1.26688 237.662 0 236.005 0C234.348 0 233.005 1.26688 233.005 2.82955V52.9064L221.067 42.2956C220.042 41.33 217.814 41.1516 216.692 42.2663C215.57 43.3808 215.928 45.4121 216.942 46.3928L233.943 61.4837C234.524 62.0001 235.207 62.2517 236.005 62.25Z" fill="white"/>
<path d="M568.121 176.959C557.519 172.916 545.962 172.08 534.889 174.554C526.651 176.139 518.621 178.66 510.955 182.068L501.467 161.72C499.738 158.327 496.737 155.756 493.118 154.571C489.499 153.385 485.558 153.681 482.157 155.393C478.659 156.898 475.9 159.727 474.482 163.261C473.064 166.795 473.104 170.747 474.592 174.252L492.495 212.645L483.523 209.443C479.579 208.051 475.247 208.261 471.456 210.028C467.666 211.796 464.72 214.98 463.252 218.896C462.507 220.838 462.159 222.91 462.229 224.989C462.299 227.067 462.786 229.111 463.66 230.998C465.294 234.686 468.323 237.576 472.083 239.037L499.856 251.887C503.244 256.899 507.534 261.239 512.508 264.684C516.226 267.383 520.354 269.466 524.733 270.855L528.171 278.227C528.649 279.283 529.514 280.117 530.588 280.555C531.662 280.993 532.863 281.003 533.944 280.583L587.348 255.68C588.365 255.122 589.13 254.195 589.484 253.091C589.839 251.987 589.756 250.788 589.254 249.743L584.42 239.377C587.776 226.876 586.552 213.588 580.971 201.909L570.229 178.874C569.769 178.011 569.024 177.335 568.121 176.959ZM573.382 205.682C578.387 215.775 579.462 227.369 576.398 238.21C575.872 239.296 575.784 240.542 576.151 241.69L580.018 249.983L534.484 271.216L531.834 265.534C531.542 264.905 531.099 264.357 530.546 263.939C529.992 263.52 529.344 263.244 528.659 263.135C524.682 262.118 520.948 260.315 517.679 257.832C513.302 254.831 509.589 250.962 506.77 246.466C506.342 245.654 505.661 245.004 504.831 244.613L475.522 231.076C474.624 230.756 473.798 230.26 473.093 229.618C472.387 228.976 471.817 228.201 471.413 227.336C471.01 226.472 470.783 225.536 470.745 224.583C470.706 223.63 470.857 222.679 471.189 221.785C471.873 219.95 473.251 218.458 475.025 217.631C476.799 216.804 478.828 216.707 480.673 217.363L497.561 223.51L503.183 235.565L509.071 228.145L482.27 170.671C481.752 169.202 481.823 167.589 482.47 166.171C483.117 164.754 484.288 163.643 485.738 163.071C487.107 162.328 488.711 162.145 490.213 162.561C491.715 162.976 492.996 163.959 493.788 165.3L514.914 210.604L523.362 208.674L514.554 189.785C517.806 188.346 521.13 187.077 524.513 185.982L533.876 206.062L540.646 204.541L531.067 184.001C532.785 183.574 534.558 183.168 536.406 182.82C538.64 182.413 540.893 182.127 543.158 181.962L552.378 201.735L559.147 200.214L550.607 181.901C554.919 182.035 559.191 182.764 563.303 184.067L573.382 205.682Z" fill="#FCB527"/>
<path d="M803.596 175.557L805.095 216.883C805.215 220.228 802.604 223.035 799.261 223.156C795.918 223.274 793.111 220.665 792.989 217.322L792.991 217.323L791.989 189.764C770.578 218.25 747.975 234.671 726.715 243.373C701.734 253.616 678.857 253.163 662.339 250.134C645.796 247.101 635.502 241.544 635.104 241.334C632.166 239.737 631.076 236.06 632.671 233.121C633.364 231.844 634.45 230.918 635.694 230.408C637.319 229.742 639.221 229.786 640.884 230.687L640.885 230.69C640.885 230.69 640.885 230.69 640.921 230.707C641.687 231.115 651.231 235.991 665.922 238.466C680.634 240.939 700.392 241.066 722.12 232.164C741.263 224.31 762.112 209.407 782.475 182.259L755.38 183.02C752.036 183.114 749.247 180.479 749.154 177.135C749.083 174.543 750.65 172.286 752.916 171.359C753.573 171.09 754.288 170.932 755.043 170.909L797.374 169.723C800.699 169.632 803.476 172.237 803.596 175.557Z" fill="white"/>
<path d="M935.157 153.463H811.643C807.439 153.463 804 150.024 804 145.82V29.6432C804 25.4394 807.439 22 811.643 22H935.157C939.361 22 942.801 25.4394 942.801 29.6432V145.82C942.801 150.024 939.361 153.463 935.157 153.463Z" stroke="white" stroke-width="7" stroke-miterlimit="10"/>
<path d="M911.539 144.597H835.795C835.642 144.597 824.025 143.068 824.713 130.228C825.171 121.438 825.171 93.0816 825.248 86.1262C821.808 83.2983 813.936 74.8907 816.917 58.3814C821.12 34.3053 849.477 31.248 873.782 31.248C898.087 31.248 926.367 34.3053 930.647 58.4578C933.552 74.9672 925.679 83.3747 922.316 86.2027C922.316 93.158 922.393 121.514 922.851 130.304C923.463 143.145 911.845 144.673 911.769 144.673L911.539 144.597ZM836.33 138.482H911.157C912.38 138.253 917.043 137.03 916.737 130.533C916.202 120.444 916.202 86.0498 916.202 84.5976V82.9161L917.654 81.9989C918.036 81.7696 927.514 75.5786 924.609 59.4515C921.858 44.1651 906.189 37.2862 873.706 37.2862C841.222 37.2862 825.553 44.0886 822.802 59.4515C819.897 75.5786 829.375 81.7696 829.757 81.9989L831.209 82.9161V84.5976C831.209 86.0498 831.209 120.368 830.674 130.533C830.445 137.183 835.26 138.329 836.33 138.482Z" fill="white"/>
<path d="M896.33 90.7129C896.024 90.4071 895.795 90.4071 895.489 90.1778L892.356 89.1078C891.286 88.8021 890.216 89.1078 889.375 89.6428C886.776 92.0886 878.369 91.0186 871.719 90.1778C867.745 89.6428 863.541 89.1078 860.178 89.3371C853.375 89.3371 848.789 93.3115 848.102 100.649C847.261 105.923 848.942 112.19 850.012 113.26C850.547 113.795 851.082 114.101 851.923 114.33L854.522 114.865C854.828 114.865 854.828 114.865 855.057 114.865C855.898 114.865 856.662 114.56 857.197 114.025C859.796 111.579 868.203 112.42 875.082 113.184C879.286 113.719 883.795 114.025 887.464 114.025C896.407 113.719 898.852 107.757 899.311 103.018C899.235 98.8911 898.47 92.0886 896.33 90.7129ZM893.961 102.56C893.426 107.069 891.362 109.209 886.776 109.209C883.337 109.515 879.439 108.904 875.235 108.369C867.362 107.528 859.643 106.764 855.286 109.209L853.681 110.05L853.375 108.139C853.07 106.229 852.535 103.63 853.07 101.031C853.91 94.9166 857.273 94.2287 860.407 94.2287H860.942C864.076 94.2287 868.127 94.7637 871.49 95.0695C879.362 96.1395 887.082 96.9803 891.439 94.2287L891.974 93.923L893.349 94.2287L893.655 95.0695C893.732 97.0567 894.267 99.6554 893.961 102.56Z" fill="white"/>
<path d="M1087.26 153.463H963.743C959.539 153.463 956.1 150.024 956.1 145.82V29.6432C956.1 25.4394 959.539 22 963.743 22H1087.26C1091.46 22 1094.9 25.4394 1094.9 29.6432V145.82C1094.9 150.024 1091.46 153.463 1087.26 153.463Z" stroke="white" stroke-width="7" stroke-miterlimit="10"/>
<path d="M1063.64 144.597H987.895C987.742 144.597 976.124 143.068 976.812 130.228C977.271 121.438 977.271 93.0818 977.347 86.1265C973.908 83.2985 966.035 74.891 969.016 58.3817C973.296 34.3056 1001.65 31.1719 1025.88 31.1719C1050.11 31.1719 1078.47 34.2292 1082.75 58.3817C1085.65 74.891 1077.78 83.2985 1074.42 86.1265C1074.42 93.0818 1074.49 121.438 1074.95 130.228C1075.56 143.068 1063.94 144.597 1063.87 144.597H1063.64ZM988.43 138.482H1063.26C1064.48 138.253 1069.14 137.03 1068.84 130.534C1068.3 120.444 1068.3 86.0501 1068.3 84.5979V82.9164L1069.75 81.9992C1070.14 81.7699 1079.61 75.5789 1076.71 59.4517C1073.96 44.1653 1058.29 37.2864 1025.81 37.2864C993.322 37.2864 977.653 44.0889 974.902 59.4517C971.997 75.5789 981.475 81.7699 981.857 81.9992L983.309 82.9164V84.5979C983.309 86.0501 983.309 120.368 982.774 130.534C982.545 137.183 987.36 138.33 988.43 138.482Z" fill="white"/>
<path d="M1048.43 90.7129C1048.12 90.4071 1047.89 90.4071 1047.59 90.1778L1044.46 89.1078C1043.39 88.8021 1042.32 89.1078 1041.47 89.6428C1038.88 92.0886 1030.47 91.0186 1023.82 90.1778C1019.84 89.6428 1015.64 89.1078 1012.28 89.3371C1005.48 89.3371 1000.89 93.3115 1000.2 100.649C999.36 105.923 1001.04 112.19 1002.11 113.26C1002.65 113.795 1003.18 114.101 1004.02 114.33L1006.62 114.865C1006.93 114.865 1006.93 114.865 1007.16 114.865C1008 114.865 1008.76 114.56 1009.3 114.025C1011.9 111.579 1020.3 112.42 1027.18 113.184C1031.39 113.719 1035.89 114.025 1039.56 114.025C1048.51 113.719 1050.95 107.757 1051.41 103.018C1051.33 98.8911 1050.57 92.0886 1048.43 90.7129ZM1046.06 102.56C1045.53 107.069 1043.46 109.209 1038.88 109.209C1035.44 109.515 1031.54 108.904 1027.33 108.369C1019.46 107.528 1011.74 106.764 1007.39 109.209L1005.78 110.05L1005.48 108.139C1005.17 106.229 1004.63 103.63 1005.17 101.031C1006.01 94.9166 1009.37 94.2287 1012.51 94.2287H1013.04C1016.18 94.2287 1020.23 94.7637 1023.59 95.0695C1031.46 96.1395 1039.18 96.9803 1043.54 94.2287L1044.07 93.923L1045.45 94.2287L1045.75 95.0695C1045.83 97.0567 1046.37 99.6554 1046.06 102.56Z" fill="white"/>
<path d="M1239.36 153.463H1115.84C1111.64 153.463 1108.2 150.024 1108.2 145.82V29.6432C1108.2 25.4394 1111.64 22 1115.84 22H1239.36C1243.56 22 1247 25.4394 1247 29.6432V145.82C1247 150.024 1243.56 153.463 1239.36 153.463Z" stroke="white" stroke-width="7" stroke-miterlimit="10"/>
<path d="M1215.74 144.597H1139.99C1139.84 144.597 1128.22 143.068 1128.91 130.228C1129.37 121.438 1129.37 93.0818 1129.45 86.1265C1126.01 83.2985 1118.14 74.891 1121.12 58.3817C1125.4 34.3056 1153.75 31.1719 1177.98 31.1719C1202.21 31.1719 1230.57 34.2292 1234.85 58.3817C1237.75 74.891 1229.88 83.2985 1226.52 86.1265C1226.52 93.0818 1226.59 121.438 1227.05 130.228C1227.66 143.068 1216.04 144.597 1215.97 144.597H1215.74ZM1140.53 138.482H1215.36C1216.58 138.253 1221.24 137.03 1220.94 130.534C1220.4 120.444 1220.4 86.0501 1220.4 84.5979V82.9164L1221.85 81.9992C1222.24 81.7699 1231.71 75.5789 1228.81 59.4517C1226.06 44.1653 1210.39 37.2864 1177.9 37.2864C1145.42 37.2864 1129.75 44.0889 1127 59.4517C1124.1 75.5789 1133.57 81.7699 1133.96 81.9992L1135.41 82.9164V84.5979C1135.41 86.0501 1135.41 120.368 1134.87 130.534C1134.64 137.183 1139.46 138.33 1140.53 138.482Z" fill="white"/>
<path d="M1200.53 90.7129C1200.22 90.4071 1199.99 90.4071 1199.69 90.1778L1196.55 89.1078C1195.48 88.8021 1194.41 89.1078 1193.57 89.6428C1190.98 92.0886 1182.57 91.0186 1175.92 90.1778C1171.94 89.6428 1167.74 89.1078 1164.38 89.3371C1157.57 89.3371 1152.99 93.3115 1152.3 100.649C1151.46 105.923 1153.14 112.19 1154.21 113.26C1154.75 113.795 1155.28 114.101 1156.12 114.33L1158.72 114.865C1159.03 114.865 1159.03 114.865 1159.26 114.865C1160.1 114.865 1160.86 114.56 1161.4 114.025C1163.99 111.579 1172.4 112.42 1179.28 113.184C1183.49 113.719 1187.99 114.025 1191.66 114.025C1200.61 113.719 1203.05 107.757 1203.51 103.018C1203.43 98.8911 1202.67 92.0886 1200.53 90.7129ZM1198.16 102.56C1197.63 107.069 1195.56 109.209 1190.98 109.209C1187.54 109.515 1183.64 108.904 1179.43 108.369C1171.56 107.528 1163.84 106.764 1159.49 109.209L1157.88 110.05L1157.57 108.139C1157.27 106.229 1156.73 103.63 1157.27 101.031C1158.11 94.9166 1161.47 94.2287 1164.61 94.2287H1165.14C1168.28 94.2287 1172.33 94.7637 1175.69 95.0695C1183.56 96.1395 1191.28 96.9803 1195.64 94.2287L1196.17 93.923L1197.55 94.2287L1197.85 95.0695C1197.93 97.0567 1198.47 99.6554 1198.16 102.56Z" fill="white"/>
<path d="M135.157 107H11.6432C7.43944 107 4 110.439 4 114.643V230.82C4 235.023 7.43944 238.463 11.6432 238.463H135.157C139.361 238.463 142.801 235.023 142.801 230.82V114.643C142.801 110.439 139.361 107 135.157 107Z" stroke="white" stroke-width="7" stroke-miterlimit="10"/>
<path d="M111.539 115.866H35.7954C35.6425 115.866 24.0248 117.395 24.7127 130.235C25.1713 139.025 25.1713 167.381 25.2477 174.337C21.8083 177.165 13.9358 185.572 16.9166 202.081C21.1204 226.158 49.4767 229.215 73.7821 229.215C98.0875 229.215 126.367 226.158 130.647 202.005C133.552 185.496 125.679 177.088 122.316 174.26C122.316 167.305 122.393 138.949 122.851 130.159C123.463 117.318 111.845 115.79 111.769 115.79L111.539 115.866ZM36.3304 121.981H111.157C112.38 122.21 117.043 123.433 116.737 129.93C116.202 140.019 116.202 174.413 116.202 175.865V177.547L117.654 178.464C118.036 178.693 127.514 184.884 124.609 201.011C121.858 216.298 106.189 223.177 73.7056 223.177C41.222 223.177 25.5535 216.374 22.8019 201.011C19.8975 184.884 29.3751 178.693 29.7572 178.464L31.2094 177.547V175.865C31.2094 174.413 31.2094 140.095 30.6744 129.93C30.4451 123.28 35.2603 122.134 36.3304 121.981Z" fill="white"/>
<path d="M96.3302 169.75C96.0245 170.056 95.7952 170.056 95.4894 170.285L92.3557 171.355C91.2857 171.661 90.2156 171.355 89.3749 170.82C86.7762 168.374 78.3687 169.444 71.7191 170.285C67.7446 170.82 63.5409 171.355 60.1779 171.126C53.3754 171.126 48.7895 167.151 48.1016 159.814C47.2608 154.54 48.9423 148.273 50.0124 147.203C50.5474 146.668 51.0824 146.362 51.9232 146.133L54.5219 145.598C54.8276 145.598 54.8276 145.598 55.0569 145.598C55.8977 145.598 56.662 145.903 57.197 146.438C59.7957 148.884 68.2032 148.043 75.0821 147.279C79.2859 146.744 83.7953 146.438 87.4641 146.438C96.4066 146.744 98.8525 152.706 99.311 157.444C99.2346 161.572 98.4703 168.374 96.3302 169.75ZM93.9608 157.903C93.4258 153.394 91.3621 151.253 86.7762 151.253C83.3368 150.948 79.4387 151.559 75.235 152.094C67.3625 152.935 59.6428 153.699 55.2862 151.253L53.6811 150.413L53.3754 152.324C53.0697 154.234 52.5346 156.833 53.0697 159.432C53.9104 165.546 57.2734 166.234 60.4072 166.234H60.9422C64.0759 166.234 68.1268 165.699 71.4898 165.393C79.3623 164.323 87.0819 163.483 91.4386 166.234L91.9736 166.54L93.3494 166.234L93.6551 165.393C93.7315 163.406 94.2665 160.807 93.9608 157.903Z" fill="white"/>
<path d="M287.257 107H163.743C159.539 107 156.1 110.439 156.1 114.643V230.82C156.1 235.023 159.539 238.463 163.743 238.463H287.257C291.461 238.463 294.9 235.023 294.9 230.82V114.643C294.9 110.439 291.461 107 287.257 107Z" stroke="white" stroke-width="7" stroke-miterlimit="10"/>
<path d="M263.639 115.866H187.895C187.742 115.866 176.124 117.395 176.812 130.235C177.271 139.025 177.271 167.381 177.347 174.336C173.908 177.164 166.035 185.572 169.016 202.081C173.296 226.157 201.653 229.291 225.882 229.291C250.111 229.291 278.467 226.234 282.747 202.081C285.652 185.572 277.779 177.164 274.416 174.336C274.416 167.381 274.492 139.025 274.951 130.235C275.563 117.395 263.945 115.866 263.868 115.866H263.639ZM188.43 121.98H263.257C264.48 122.21 269.142 123.433 268.836 129.929C268.301 140.018 268.301 174.413 268.301 175.865V177.547L269.754 178.464C270.136 178.693 279.613 184.884 276.709 201.011C273.957 216.298 258.289 223.176 225.805 223.176C193.322 223.176 177.653 216.374 174.902 201.011C171.997 184.884 181.475 178.693 181.857 178.464L183.309 177.547V175.865C183.309 174.413 183.309 140.095 182.774 129.929C182.545 123.28 187.36 122.133 188.43 121.98Z" fill="white"/>
<path d="M248.43 169.75C248.124 170.056 247.895 170.056 247.589 170.285L244.455 171.355C243.385 171.661 242.315 171.355 241.474 170.82C238.876 168.374 230.468 169.444 223.819 170.285C219.844 170.82 215.64 171.355 212.277 171.126C205.475 171.126 200.889 167.151 200.201 159.814C199.36 154.54 201.042 148.273 202.112 147.203C202.647 146.668 203.182 146.362 204.023 146.133L206.621 145.598C206.927 145.598 206.927 145.598 207.156 145.598C207.997 145.598 208.762 145.903 209.297 146.438C211.895 148.884 220.303 148.043 227.182 147.279C231.385 146.744 235.895 146.438 239.564 146.438C248.506 146.744 250.952 152.706 251.411 157.444C251.334 161.572 250.57 168.374 248.43 169.75ZM246.06 157.903C245.525 153.394 243.462 151.253 238.876 151.253C235.436 150.948 231.538 151.559 227.335 152.094C219.462 152.935 211.742 153.699 207.386 151.253L205.781 150.413L205.475 152.324C205.169 154.234 204.634 156.833 205.169 159.432C206.01 165.546 209.373 166.234 212.507 166.234H213.042C216.175 166.234 220.226 165.699 223.589 165.393C231.462 164.323 239.182 163.483 243.538 166.234L244.073 166.54L245.449 166.234L245.755 165.393C245.831 163.406 246.366 160.807 246.06 157.903Z" fill="white"/>
<path d="M439.357 107H315.842C311.639 107 308.199 110.439 308.199 114.643V230.82C308.199 235.023 311.639 238.463 315.842 238.463H439.357C443.56 238.463 447 235.023 447 230.82V114.643C447 110.439 443.56 107 439.357 107Z" stroke="white" stroke-width="7" stroke-miterlimit="10"/>
<path d="M415.739 115.866H339.995C339.842 115.866 328.224 117.395 328.912 130.235C329.371 139.025 329.371 167.381 329.447 174.336C326.008 177.164 318.135 185.572 321.116 202.081C325.396 226.157 353.752 229.291 377.981 229.291C402.21 229.291 430.567 226.234 434.847 202.081C437.751 185.572 429.879 177.164 426.516 174.336C426.516 167.381 426.592 139.025 427.051 130.235C427.662 117.395 416.044 115.866 415.968 115.866H415.739ZM340.53 121.98H415.357C416.579 122.21 421.242 123.433 420.936 129.929C420.401 140.018 420.401 174.413 420.401 175.865V177.547L421.853 178.464C422.235 178.693 431.713 184.884 428.809 201.011C426.057 216.298 410.388 223.176 377.905 223.176C345.421 223.176 329.753 216.374 327.001 201.011C324.097 184.884 333.574 178.693 333.956 178.464L335.409 177.547V175.865C335.409 174.413 335.409 140.095 334.874 129.929C334.644 123.28 339.46 122.133 340.53 121.98Z" fill="white"/>
<path d="M400.529 169.75C400.224 170.056 399.994 170.056 399.689 170.285L396.555 171.355C395.485 171.661 394.415 171.355 393.574 170.82C390.975 168.374 382.568 169.444 375.918 170.285C371.944 170.82 367.74 171.355 364.377 171.126C357.575 171.126 352.989 167.151 352.301 159.814C351.46 154.54 353.142 148.273 354.212 147.203C354.747 146.668 355.282 146.362 356.122 146.133L358.721 145.598C359.027 145.598 359.027 145.598 359.256 145.598C360.097 145.598 360.861 145.903 361.396 146.438C363.995 148.884 372.402 148.043 379.281 147.279C383.485 146.744 387.995 146.438 391.663 146.438C400.606 146.744 403.052 152.706 403.51 157.444C403.434 161.572 402.669 168.374 400.529 169.75ZM398.16 157.903C397.625 153.394 395.561 151.253 390.975 151.253C387.536 150.948 383.638 151.559 379.434 152.094C371.562 152.935 363.842 153.699 359.485 151.253L357.88 150.413L357.575 152.324C357.269 154.234 356.734 156.833 357.269 159.432C358.11 165.546 361.473 166.234 364.606 166.234H365.141C368.275 166.234 372.326 165.699 375.689 165.393C383.561 164.323 391.281 163.483 395.638 166.234L396.173 166.54L397.549 166.234L397.854 165.393C397.931 163.406 398.466 160.807 398.16 157.903Z" fill="white"/>
</svg>
