<svg width="1393" height="185" viewBox="0 0 1393 185" fill="none" xmlns="http://www.w3.org/2000/svg">
<path d="M1371.72 75.7129H808.375C797.146 75.7129 788 84.8591 788 96.088V133.85C788 145.079 797.146 154.225 808.375 154.225H1371.72C1382.95 154.225 1392.1 145.079 1392.1 133.85V96.088C1391.92 84.8591 1382.77 75.7129 1371.72 75.7129ZM1378.15 133.85C1378.15 137.472 1375.26 140.37 1371.63 140.37H808.194C804.572 140.37 801.674 137.472 801.674 133.85V96.088C801.674 92.4658 804.572 89.568 808.194 89.568H1371.54C1375.17 89.568 1378.06 92.4658 1378.06 96.088V133.85H1378.15Z" fill="white"/>
<mask id="mask0" mask-type="alpha" maskUnits="userSpaceOnUse" x="789" y="0" width="603" height="66">
<rect x="789" width="603" height="66" fill="#C4C4C4"/>
</mask>
<g mask="url(#mask0)">
<path d="M887.883 91.56H809.643C805.206 91.56 801.674 87.9378 801.674 83.5911V9.96894C801.674 5.53169 805.296 2 809.643 2H887.883C892.321 2 895.852 5.62224 895.852 9.96894V83.5911C895.943 87.9378 892.321 91.56 887.883 91.56ZM809.643 8.24837C808.737 8.24837 808.013 8.97282 808.013 9.87838V83.5005C808.013 84.4061 808.737 85.1305 809.643 85.1305H887.883C888.789 85.1305 889.513 84.4061 889.513 83.5005V9.96894C889.513 9.06338 888.789 8.33893 887.883 8.33893H809.643V8.24837Z" fill="white"/>
<path d="M872.941 82.7759H824.946C824.856 82.7759 817.52 81.7797 817.883 73.6297C818.154 68.1058 818.154 50.0851 818.245 45.7384C816.072 43.9273 811.091 38.5845 812.993 28.1705C815.709 12.8665 833.73 10.9648 849.034 10.9648C864.338 10.9648 882.359 12.9571 885.075 28.1705C886.977 38.5845 881.906 43.9273 879.823 45.7384C879.823 50.0851 879.823 68.1058 880.185 73.6297C880.638 81.7797 873.213 82.7759 873.122 82.7759H872.941ZM825.308 78.882H872.76C873.575 78.7914 876.473 77.9764 876.291 73.8108C875.929 67.3813 875.929 45.6478 875.929 44.7423V43.6556L876.835 43.1123C877.106 42.9312 883.083 39.0372 881.272 28.8044C879.551 19.1149 869.59 14.7682 849.034 14.7682C828.478 14.7682 818.517 19.1149 816.796 28.8044C814.985 39.0372 820.962 42.9312 821.233 43.1123L822.139 43.6556V44.7423C822.139 45.6478 822.139 67.3813 821.777 73.8108C821.596 78.0669 824.584 78.7914 825.308 78.882Z" fill="white"/>
<path d="M863.342 48.6375C863.161 48.4564 862.98 48.4564 862.799 48.2753L860.807 47.6414C860.173 47.4603 859.448 47.6414 858.905 48.0036C857.275 49.543 851.932 48.9092 847.676 48.3658C845.14 48.0036 842.514 47.7319 840.341 47.8225C835.994 47.8225 833.187 50.358 832.644 54.9764C832.1 58.327 833.187 62.3115 833.821 62.9454C834.183 63.3076 834.455 63.4887 834.998 63.5792L836.628 63.9415C836.809 63.9415 836.809 63.9415 836.99 63.9415C837.534 63.9415 837.986 63.7604 838.349 63.3981C839.979 61.8587 845.321 62.402 849.668 62.8548C852.294 63.217 855.192 63.3981 857.546 63.3981C863.252 63.217 864.7 59.4137 865.063 56.4253C865.153 53.7992 864.7 49.543 863.342 48.6375ZM861.803 56.1536C861.44 59.0514 860.173 60.3192 857.275 60.3192C855.101 60.5003 852.656 60.1381 849.94 59.7759C844.959 59.2326 840.069 58.7798 837.262 60.3192L836.266 60.8626L836.085 59.6853C835.904 58.5081 835.541 56.7875 835.904 55.1575C836.447 51.2636 838.53 50.8108 840.522 50.8108H840.884C842.876 50.8108 845.412 51.1731 847.585 51.3542C852.566 51.9881 857.456 52.5314 860.263 50.8108L860.625 50.6297L861.531 50.8108L861.712 51.3542C861.622 52.622 861.984 54.3425 861.803 56.1536Z" fill="white"/>
<path d="M984.326 91.56H906.085C901.648 91.56 898.116 87.9378 898.116 83.5911V9.96894C898.116 5.53169 901.738 2 906.085 2H984.326C988.763 2 992.295 5.62224 992.295 9.96894V83.5911C992.295 87.9378 988.763 91.56 984.326 91.56ZM905.995 8.24837C905.089 8.24837 904.365 8.97282 904.365 9.87838V83.5005C904.365 84.4061 905.089 85.1305 905.995 85.1305H984.235C985.141 85.1305 985.865 84.4061 985.865 83.5005V9.96894C985.865 9.06338 985.141 8.33893 984.235 8.33893H905.995V8.24837Z" fill="white"/>
<path d="M969.293 82.7759H921.299C921.208 82.7759 913.873 81.7797 914.235 73.6297C914.507 68.1058 914.507 50.0851 914.597 45.7384C912.424 43.9273 907.444 38.5845 909.345 28.1705C912.062 12.8665 930.083 10.9648 945.387 10.9648C960.691 10.9648 978.711 12.9571 981.428 28.1705C983.33 38.5845 978.258 43.9273 976.176 45.7384C976.176 50.0851 976.176 68.1058 976.538 73.6297C976.991 81.7797 969.565 82.7759 969.474 82.7759H969.293ZM921.661 78.882H969.112C969.927 78.7914 972.825 77.9764 972.644 73.8108C972.282 67.3813 972.282 45.6478 972.282 44.7423V43.6556L973.187 43.1123C973.459 42.9312 979.436 39.0372 977.625 28.8044C975.904 19.1149 965.943 14.7682 945.387 14.7682C924.83 14.7682 914.869 19.1149 913.149 28.8044C911.337 39.0372 917.314 42.9312 917.586 43.1123L918.491 43.6556V44.7423C918.491 45.6478 918.491 67.3813 918.129 73.8108C917.948 78.0669 921.027 78.7914 921.661 78.882Z" fill="white"/>
<path d="M959.695 48.6375C959.514 48.4564 959.332 48.4564 959.151 48.2753L957.159 47.6414C956.525 47.4603 955.801 47.6414 955.257 48.0036C953.627 49.543 948.285 48.9092 944.028 48.3658C941.493 48.0036 938.867 47.7319 936.693 47.8225C932.347 47.8225 929.539 50.358 928.996 54.9764C928.453 58.327 929.539 62.3115 930.173 62.9454C930.536 63.3076 930.807 63.4887 931.351 63.5792L932.981 63.9415C933.162 63.9415 933.162 63.9415 933.343 63.9415C933.886 63.9415 934.339 63.7604 934.701 63.3981C936.331 61.8587 941.674 62.402 946.021 62.8548C948.647 63.217 951.545 63.3981 953.899 63.3981C959.604 63.217 961.053 59.4137 961.415 56.4253C961.506 53.7992 961.053 49.543 959.695 48.6375ZM958.155 56.1536C957.793 59.0514 956.525 60.3192 953.627 60.3192C951.454 60.5003 949.009 60.1381 946.292 59.7759C941.312 59.2326 936.422 58.7798 933.614 60.3192L932.618 60.8626L932.437 59.6853C932.256 58.5081 931.894 56.7875 932.256 55.1575C932.799 51.2636 934.882 50.8108 936.874 50.8108H937.237C939.229 50.8108 941.765 51.1731 943.938 51.3542C948.918 51.9881 953.808 52.5314 956.616 50.8108L956.978 50.6297L957.884 50.8108L958.065 51.3542C958.065 52.622 958.336 54.3425 958.155 56.1536Z" fill="white"/>
<path d="M1080.68 91.56H1002.44C997.999 91.56 994.468 87.9378 994.468 83.5911V9.96894C994.468 5.53169 998.09 2 1002.44 2H1080.68C1085.11 2 1088.65 5.62224 1088.65 9.96894V83.5911C1088.74 87.9378 1085.11 91.56 1080.68 91.56ZM1002.44 8.24837C1001.53 8.24837 1000.81 8.97282 1000.81 9.87838V83.5005C1000.81 84.4061 1001.53 85.1305 1002.44 85.1305H1080.68C1081.58 85.1305 1082.31 84.4061 1082.31 83.5005V9.96894C1082.31 9.06338 1081.58 8.33893 1080.68 8.33893H1002.44V8.24837Z" fill="white"/>
<path d="M1065.74 82.7759H1017.74C1017.65 82.7759 1010.32 81.7797 1010.68 73.6297C1010.95 68.1058 1010.95 50.0851 1011.04 45.7384C1008.87 43.9273 1003.89 38.5845 1005.79 28.1705C1008.5 12.8665 1026.52 10.9648 1041.83 10.9648C1057.13 10.9648 1075.15 12.9571 1077.87 28.1705C1079.77 38.5845 1074.7 43.9273 1072.62 45.7384C1072.62 50.0851 1072.62 68.1058 1072.98 73.6297C1073.43 81.7797 1066.01 82.7759 1065.92 82.7759H1065.74ZM1018.01 78.882H1065.46C1066.28 78.7914 1069.18 77.9764 1069 73.8108C1068.63 67.3813 1068.63 45.6478 1068.63 44.7423V43.6556L1069.54 43.1123C1069.81 42.9312 1075.79 39.0372 1073.98 28.8044C1072.26 19.1149 1062.29 14.7682 1041.74 14.7682C1021.18 14.7682 1011.22 19.1149 1009.5 28.8044C1007.69 39.0372 1013.67 42.9312 1013.94 43.1123L1014.84 43.6556V44.7423C1014.84 45.6478 1014.84 67.3813 1014.48 73.8108C1014.3 78.0669 1017.38 78.7914 1018.01 78.882Z" fill="white"/>
<path d="M1056.05 48.6375C1055.87 48.4564 1055.68 48.4564 1055.5 48.2753L1053.51 47.6414C1052.88 47.4603 1052.15 47.6414 1051.61 48.0036C1049.98 49.543 1044.64 48.9092 1040.38 48.3658C1037.84 48.0036 1035.22 47.7319 1033.04 47.8225C1028.7 47.8225 1025.89 50.358 1025.35 54.9764C1024.8 58.327 1025.89 62.3115 1026.52 62.9454C1026.89 63.3076 1027.16 63.4887 1027.7 63.5792L1029.33 63.9415C1029.51 63.9415 1029.51 63.9415 1029.69 63.9415C1030.24 63.9415 1030.69 63.7604 1031.05 63.3981C1032.68 61.8587 1038.03 62.402 1042.37 62.8548C1045 63.217 1047.9 63.3981 1050.25 63.3981C1055.96 63.217 1057.4 59.4137 1057.77 56.4253C1057.86 53.7992 1057.4 49.543 1056.05 48.6375ZM1054.6 56.1536C1054.24 59.0514 1052.97 60.3192 1050.07 60.3192C1047.9 60.5003 1045.45 60.1381 1042.73 59.7759C1037.75 59.2326 1032.86 58.7798 1030.06 60.3192L1029.06 60.8626L1028.88 59.6853C1028.7 58.5081 1028.34 56.7875 1028.7 55.1575C1029.24 51.2636 1031.32 50.8108 1033.32 50.8108H1033.68C1035.67 50.8108 1038.21 51.1731 1040.38 51.3542C1045.36 51.9881 1050.25 52.5314 1053.06 50.8108L1053.42 50.6297L1054.33 50.8108L1054.51 51.3542C1054.42 52.622 1054.78 54.3425 1054.6 56.1536Z" fill="white"/>
<path d="M1176.76 91.56H1098.52C1094.08 91.56 1090.55 87.9378 1090.55 83.5911V9.96894C1090.55 5.53169 1094.17 2 1098.52 2H1176.76C1181.19 2 1184.73 5.62224 1184.73 9.96894V83.5911C1184.82 87.9378 1181.19 91.56 1176.76 91.56ZM1098.52 8.24837C1097.61 8.24837 1096.89 8.97282 1096.89 9.87838V83.5005C1096.89 84.4061 1097.61 85.1305 1098.52 85.1305H1176.76C1177.66 85.1305 1178.39 84.4061 1178.39 83.5005V9.96894C1178.39 9.06338 1177.66 8.33893 1176.76 8.33893H1098.52V8.24837Z" fill="white"/>
<path d="M1161.81 82.7759H1113.82C1113.73 82.7759 1106.39 81.7797 1106.76 73.6297C1107.03 68.1058 1107.03 50.0851 1107.12 45.7384C1104.95 43.9273 1099.97 38.5845 1101.87 28.1705C1104.58 12.8665 1122.6 10.9648 1137.91 10.9648C1153.21 10.9648 1171.23 12.9571 1173.95 28.1705C1175.85 38.5845 1170.78 43.9273 1168.7 45.7384C1168.7 50.0851 1168.7 68.1058 1169.06 73.6297C1169.51 81.7797 1162.09 82.7759 1162 82.7759H1161.81ZM1114.18 78.882H1161.63C1162.45 78.7914 1165.35 77.9764 1165.17 73.8108C1164.8 67.3813 1164.8 45.6478 1164.8 44.7423V43.6556L1165.71 43.1123C1165.98 42.9312 1171.96 39.0372 1170.15 28.8044C1168.43 19.1149 1158.46 14.7682 1137.91 14.7682C1117.35 14.7682 1107.39 19.1149 1105.67 28.8044C1103.86 39.0372 1109.84 42.9312 1110.11 43.1123L1111.01 43.6556V44.7423C1111.01 45.6478 1111.01 67.3813 1110.65 73.8108C1110.47 78.0669 1113.46 78.7914 1114.18 78.882Z" fill="white"/>
<path d="M1152.22 48.6375C1152.04 48.4564 1151.85 48.4564 1151.67 48.2753L1149.68 47.6414C1149.05 47.4603 1148.32 47.6414 1147.78 48.0036C1146.15 49.543 1140.81 48.9092 1136.55 48.3658C1134.01 48.0036 1131.39 47.7319 1129.21 47.8225C1124.87 47.8225 1122.06 50.358 1121.52 54.9764C1120.97 58.327 1122.06 62.3115 1122.69 62.9454C1123.06 63.3076 1123.33 63.4887 1123.87 63.5792L1125.5 63.9415C1125.68 63.9415 1125.68 63.9415 1125.86 63.9415C1126.41 63.9415 1126.86 63.7604 1127.22 63.3981C1128.85 61.8587 1134.2 62.402 1138.54 62.8548C1141.17 63.217 1144.07 63.3981 1146.42 63.3981C1152.13 63.217 1153.57 59.4137 1153.94 56.4253C1154.03 53.7992 1153.57 49.543 1152.22 48.6375ZM1150.68 56.1536C1150.31 59.0514 1149.05 60.3192 1146.15 60.3192C1143.98 60.5003 1141.53 60.1381 1138.81 59.7759C1133.83 59.2326 1128.94 58.7798 1126.14 60.3192L1125.14 60.8626L1124.96 59.6853C1124.78 58.5081 1124.42 56.7875 1124.78 55.1575C1125.32 51.2636 1127.4 50.8108 1129.4 50.8108H1129.76C1131.75 50.8108 1134.29 51.1731 1136.46 51.3542C1141.44 51.9881 1146.33 52.5314 1149.14 50.8108L1149.5 50.6297L1150.41 50.8108L1150.59 51.3542C1150.5 52.622 1150.86 54.3425 1150.68 56.1536Z" fill="white"/>
<path d="M1273.2 91.56H1194.96C1190.52 91.56 1186.99 87.9378 1186.99 83.5911V9.96894C1186.99 5.53169 1190.61 2 1194.96 2H1273.2C1277.64 2 1281.17 5.62224 1281.17 9.96894V83.5911C1281.17 87.9378 1277.64 91.56 1273.2 91.56ZM1194.87 8.24837C1193.96 8.24837 1193.24 8.97282 1193.24 9.87838V83.5005C1193.24 84.4061 1193.96 85.1305 1194.87 85.1305H1273.11C1274.01 85.1305 1274.74 84.4061 1274.74 83.5005V9.96894C1274.74 9.06338 1274.01 8.33893 1273.11 8.33893H1194.87V8.24837Z" fill="white"/>
<path d="M1258.17 82.7759H1210.17C1210.08 82.7759 1202.75 81.7797 1203.11 73.6297C1203.38 68.1058 1203.38 50.0851 1203.47 45.7384C1201.3 43.9273 1196.32 38.5845 1198.22 28.1705C1200.94 12.8665 1218.96 10.9648 1234.26 10.9648C1249.56 10.9648 1267.59 12.9571 1270.3 28.1705C1272.2 38.5845 1267.13 43.9273 1265.05 45.7384C1265.05 50.0851 1265.05 68.1058 1265.41 73.6297C1265.86 81.7797 1258.44 82.7759 1258.35 82.7759H1258.17ZM1210.53 78.882H1257.99C1258.8 78.7914 1261.7 77.9764 1261.52 73.8108C1261.16 67.3813 1261.16 45.6478 1261.16 44.7423V43.6556L1262.06 43.1123C1262.33 42.9312 1268.31 39.0372 1266.5 28.8044C1264.78 19.1149 1254.82 14.7682 1234.26 14.7682C1213.7 14.7682 1203.74 19.1149 1202.02 28.8044C1200.21 39.0372 1206.19 42.9312 1206.46 43.1123L1207.37 43.6556V44.7423C1207.37 45.6478 1207.37 67.3813 1207 73.8108C1206.82 78.0669 1209.9 78.7914 1210.53 78.882Z" fill="white"/>
<path d="M1248.57 48.6375C1248.39 48.4564 1248.21 48.4564 1248.03 48.2753L1246.03 47.6414C1245.4 47.4603 1244.67 47.6414 1244.13 48.0036C1242.5 49.543 1237.16 48.9092 1232.9 48.3658C1230.37 48.0036 1227.74 47.7319 1225.57 47.8225C1221.22 47.8225 1218.41 50.358 1217.87 54.9764C1217.33 58.327 1218.41 62.3115 1219.05 62.9454C1219.41 63.3076 1219.68 63.4887 1220.22 63.5792L1221.85 63.9415C1222.04 63.9415 1222.04 63.9415 1222.22 63.9415C1222.76 63.9415 1223.21 63.7604 1223.58 63.3981C1225.21 61.8587 1230.55 62.402 1234.89 62.8548C1237.52 63.217 1240.42 63.3981 1242.77 63.3981C1248.48 63.217 1249.93 59.4137 1250.29 56.4253C1250.38 53.7992 1249.93 49.543 1248.57 48.6375ZM1247.03 56.1536C1246.67 59.0514 1245.4 60.3192 1242.5 60.3192C1240.33 60.5003 1237.88 60.1381 1235.17 59.7759C1230.19 59.2326 1225.3 58.7798 1222.49 60.3192L1221.49 60.8626L1221.31 59.6853C1221.13 58.5081 1220.77 56.7875 1221.13 55.1575C1221.67 51.2636 1223.76 50.8108 1225.75 50.8108H1226.11C1228.1 50.8108 1230.64 51.1731 1232.81 51.3542C1237.79 51.9881 1242.68 52.5314 1245.49 50.8108L1245.85 50.6297L1246.76 50.8108L1246.94 51.3542C1246.94 52.622 1247.21 54.3425 1247.03 56.1536Z" fill="white"/>
<path d="M1369.55 91.56H1291.31C1286.87 91.56 1283.34 87.9378 1283.34 83.5911V9.96894C1283.34 5.53169 1286.96 2 1291.31 2H1369.55C1373.99 2 1377.52 5.62224 1377.52 9.96894V83.5911C1377.61 87.9378 1373.99 91.56 1369.55 91.56ZM1291.31 8.24837C1290.41 8.24837 1289.68 8.97282 1289.68 9.87838V83.5005C1289.68 84.4061 1290.41 85.1305 1291.31 85.1305H1369.55C1370.46 85.1305 1371.18 84.4061 1371.18 83.5005V9.96894C1371.18 9.06338 1370.46 8.33893 1369.55 8.33893H1291.31V8.24837Z" fill="white"/>
<path d="M1354.61 82.7759H1306.62C1306.52 82.7759 1299.19 81.7797 1299.55 73.6297C1299.82 68.1058 1299.82 50.0851 1299.91 45.7384C1297.74 43.9273 1292.76 38.5845 1294.66 28.1705C1297.38 12.8665 1315.4 10.9648 1330.7 10.9648C1346.01 10.9648 1364.03 12.9571 1366.74 28.1705C1368.65 38.5845 1363.57 43.9273 1361.49 45.7384C1361.49 50.0851 1361.49 68.1058 1361.85 73.6297C1362.31 81.7797 1354.88 82.7759 1354.79 82.7759H1354.61ZM1306.89 78.882H1354.34C1355.15 78.7914 1358.05 77.9764 1357.87 73.8108C1357.51 67.3813 1357.51 45.6478 1357.51 44.7423V43.6556L1358.41 43.1123C1358.68 42.9312 1364.66 39.0372 1362.85 28.8044C1361.13 19.1149 1351.17 14.7682 1330.61 14.7682C1310.06 14.7682 1300.09 19.1149 1298.37 28.8044C1296.56 39.0372 1302.54 42.9312 1302.81 43.1123L1303.72 43.6556V44.7423C1303.72 45.6478 1303.72 67.3813 1303.35 73.8108C1303.17 78.0669 1306.25 78.7914 1306.89 78.882Z" fill="white"/>
<path d="M1344.92 48.6375C1344.74 48.4564 1344.56 48.4564 1344.38 48.2753L1342.38 47.6414C1341.75 47.4603 1341.03 47.6414 1340.48 48.0036C1338.85 49.543 1333.51 48.9092 1329.25 48.3658C1326.72 48.0036 1324.09 47.7319 1321.92 47.8225C1317.57 47.8225 1314.77 50.358 1314.22 54.9764C1313.68 58.327 1314.77 62.3115 1315.4 62.9454C1315.76 63.3076 1316.03 63.4887 1316.58 63.5792L1318.21 63.9415C1318.39 63.9415 1318.39 63.9415 1318.57 63.9415C1319.11 63.9415 1319.56 63.7604 1319.93 63.3981C1321.56 61.8587 1326.9 62.402 1331.25 62.8548C1333.87 63.217 1336.77 63.3981 1339.12 63.3981C1344.83 63.217 1346.28 59.4137 1346.64 56.4253C1346.73 53.7992 1346.28 49.543 1344.92 48.6375ZM1343.47 56.1536C1343.11 59.0514 1341.84 60.3192 1338.94 60.3192C1336.77 60.5003 1334.33 60.1381 1331.61 59.7759C1326.63 59.2326 1321.74 58.7798 1318.93 60.3192L1317.93 60.8626L1317.75 59.6853C1317.57 58.5081 1317.21 56.7875 1317.57 55.1575C1318.12 51.2636 1320.2 50.8108 1322.19 50.8108H1322.55C1324.55 50.8108 1327.08 51.1731 1329.25 51.3542C1334.23 51.9881 1339.12 52.5314 1341.93 50.8108L1342.29 50.6297L1343.2 50.8108L1343.38 51.3542C1343.29 52.622 1343.65 54.3425 1343.47 56.1536Z" fill="white"/>
</g>
<path d="M754.619 118.578L748.602 142.631C748.114 144.577 746.143 145.759 744.198 145.272C742.252 144.783 741.07 142.813 741.556 140.867L741.557 140.868L745.569 124.829C728.494 137.671 712.741 143.365 699.047 144.838C682.953 146.578 669.853 142.508 660.843 138.013C651.82 133.512 646.816 128.597 646.622 128.411C645.196 127.001 645.18 124.702 646.588 123.275C647.199 122.655 647.979 122.302 648.781 122.216C649.827 122.103 650.916 122.444 651.724 123.241L651.724 123.242C651.724 123.242 651.724 123.242 651.742 123.258C652.115 123.621 656.8 128.018 664.85 131.89C672.911 135.764 684.27 139.126 698.267 137.617C710.6 136.28 725.09 131.168 741.339 118.922L725.606 114.849C723.664 114.347 722.496 112.365 723 110.423C723.391 108.918 724.669 107.879 726.128 107.722C726.551 107.677 726.99 107.705 727.428 107.817L752.007 114.182C753.937 114.684 755.103 116.646 754.619 118.578Z" fill="white"/>
<path d="M91.3897 135.593H9.09264C6.29169 135.593 4 133.302 4 130.501V53.0926C4 50.2917 6.29169 48 9.09264 48H91.3897C94.1906 48 96.4823 50.2917 96.4823 53.0926V130.501C96.4823 133.302 94.1906 135.593 91.3897 135.593Z" stroke="white" stroke-width="7" stroke-miterlimit="10"/>
<path d="M75.6531 129.686H25.1851C25.0833 129.686 17.3424 128.667 17.8008 120.112C18.1063 114.255 18.1063 95.3615 18.1573 90.7272C15.8656 88.843 10.6202 83.2411 12.6063 72.241C15.4072 56.1992 34.3009 54.1621 50.4955 54.1621C66.6901 54.1621 85.5329 56.1992 88.3847 72.2919C90.3199 83.292 85.0745 88.8939 82.8338 90.7782C82.8338 95.4125 82.8847 114.306 83.1902 120.163C83.5977 128.718 75.8569 129.737 75.8059 129.737L75.6531 129.686ZM25.5416 125.612H75.3985C76.2133 125.459 79.3198 124.644 79.1161 120.315C78.7597 113.593 78.7597 90.6763 78.7597 89.7087V88.5883L79.7273 87.9772C79.9819 87.8244 86.2968 83.6994 84.3616 72.9539C82.5282 62.7687 72.0883 58.1853 50.4446 58.1853C28.8009 58.1853 18.361 62.7177 16.5276 72.9539C14.5924 83.6994 20.9073 87.8244 21.1619 87.9772L22.1295 88.5883V89.7087C22.1295 90.6763 22.1295 113.542 21.773 120.315C21.6203 124.746 24.8286 125.51 25.5416 125.612Z" fill="white"/>
<path d="M65.5186 93.7832C65.3149 93.5795 65.1621 93.5795 64.9584 93.4267L62.8704 92.7137C62.1575 92.51 61.4445 92.7137 60.8843 93.0702C59.1528 94.6999 53.5509 93.9869 49.1203 93.4267C46.4721 93.0702 43.6712 92.7137 41.4304 92.8665C36.898 92.8665 33.8424 95.5147 33.3841 100.404C32.8239 103.918 33.9442 108.094 34.6572 108.806C35.0137 109.163 35.3702 109.367 35.9304 109.519L37.6619 109.876C37.8656 109.876 37.8656 109.876 38.0184 109.876C38.5785 109.876 39.0878 109.672 39.4443 109.316C41.1758 107.686 46.7777 108.246 51.3611 108.756C54.162 109.112 57.1667 109.316 59.6111 109.316C65.5695 109.112 67.1992 105.14 67.5047 101.982C67.4538 99.2323 66.9445 94.6999 65.5186 93.7832ZM63.9399 101.677C63.5834 104.681 62.2084 106.107 59.1528 106.107C56.8611 106.311 54.2639 105.904 51.4629 105.547C46.2175 104.987 41.0739 104.478 38.1711 106.107L37.1017 106.668L36.898 105.394C36.6943 104.121 36.3378 102.39 36.6943 100.658C37.2545 96.5841 39.4952 96.1258 41.5832 96.1258H41.9397C44.0277 96.1258 46.7268 96.4823 48.9675 96.686C54.2129 97.399 59.3565 97.9592 62.2593 96.1258L62.6158 95.9221L63.5325 96.1258L63.7362 96.686C63.7871 98.0101 64.1436 99.7416 63.9399 101.677Z" fill="white"/>
<path d="M192.733 135.593H110.436C107.635 135.593 105.344 133.302 105.344 130.501V53.0926C105.344 50.2917 107.635 48 110.436 48H192.733C195.534 48 197.826 50.2917 197.826 53.0926V130.501C197.826 133.302 195.534 135.593 192.733 135.593Z" stroke="white" stroke-width="7" stroke-miterlimit="10"/>
<path d="M176.996 129.686H126.528C126.426 129.686 118.685 128.668 119.144 120.112C119.449 114.255 119.449 95.3617 119.5 90.7274C117.208 88.8431 111.963 83.2412 113.949 72.2411C116.801 56.1993 135.695 54.1113 151.838 54.1113C167.982 54.1113 186.876 56.1484 189.728 72.2411C191.663 83.2412 186.417 88.8431 184.177 90.7274C184.177 95.3617 184.227 114.255 184.533 120.112C184.94 128.668 177.2 129.686 177.149 129.686H176.996ZM126.884 125.612H176.741C177.556 125.459 180.663 124.644 180.459 120.316C180.102 113.593 180.102 90.6765 180.102 89.7089V88.5885L181.07 87.9774C181.325 87.8246 187.64 83.6996 185.704 72.9541C183.871 62.7688 173.431 58.1854 151.787 58.1854C130.144 58.1854 119.704 62.7179 117.87 72.9541C115.935 83.6996 122.25 87.8246 122.505 87.9774L123.472 88.5885V89.7089C123.472 90.6765 123.472 113.542 123.116 120.316C122.963 124.746 126.171 125.51 126.884 125.612Z" fill="white"/>
<path d="M166.862 93.7832C166.659 93.5795 166.506 93.5795 166.302 93.4267L164.214 92.7137C163.501 92.51 162.788 92.7137 162.228 93.0702C160.497 94.6999 154.895 93.9869 150.464 93.4267C147.816 93.0702 145.015 92.7137 142.774 92.8665C138.242 92.8665 135.186 95.5147 134.728 100.404C134.168 103.918 135.288 108.094 136.001 108.806C136.357 109.163 136.714 109.367 137.274 109.519L139.006 109.876C139.209 109.876 139.209 109.876 139.362 109.876C139.922 109.876 140.432 109.672 140.788 109.316C142.52 107.686 148.121 108.246 152.705 108.756C155.506 109.112 158.51 109.316 160.955 109.316C166.913 109.112 168.543 105.14 168.848 101.982C168.798 99.2323 168.288 94.6999 166.862 93.7832ZM165.284 101.677C164.927 104.681 163.552 106.107 160.497 106.107C158.205 106.311 155.608 105.904 152.807 105.547C147.561 104.987 142.418 104.478 139.515 106.107L138.445 106.668L138.242 105.394C138.038 104.121 137.682 102.39 138.038 100.658C138.598 96.5841 140.839 96.1258 142.927 96.1258H143.283C145.371 96.1258 148.071 96.4823 150.311 96.686C155.557 97.399 160.7 97.9592 163.603 96.1258L163.96 95.9221L164.876 96.1258L165.08 96.686C165.131 98.0101 165.487 99.7416 165.284 101.677Z" fill="white"/>
<path d="M294.076 135.593H211.779C208.978 135.593 206.687 133.302 206.687 130.501V53.0926C206.687 50.2917 208.978 48 211.779 48H294.076C296.877 48 299.169 50.2917 299.169 53.0926V130.501C299.169 133.302 296.877 135.593 294.076 135.593Z" stroke="white" stroke-width="7" stroke-miterlimit="10"/>
<path d="M278.34 129.686H227.872C227.77 129.686 220.029 128.668 220.487 120.112C220.793 114.255 220.793 95.3617 220.844 90.7274C218.552 88.8431 213.307 83.2412 215.293 72.2411C218.145 56.1993 237.038 54.1113 253.182 54.1113C269.326 54.1113 288.219 56.1484 291.071 72.2411C293.006 83.2412 287.761 88.8431 285.52 90.7274C285.52 95.3617 285.571 114.255 285.877 120.112C286.284 128.668 278.543 129.686 278.492 129.686H278.34ZM228.228 125.612H278.085C278.9 125.459 282.006 124.644 281.803 120.316C281.446 113.593 281.446 90.6765 281.446 89.7089V88.5885L282.414 87.9774C282.668 87.8246 288.983 83.6996 287.048 72.9541C285.215 62.7688 274.775 58.1854 253.131 58.1854C231.487 58.1854 221.048 62.7179 219.214 72.9541C217.279 83.6996 223.594 87.8246 223.848 87.9774L224.816 88.5885V89.7089C224.816 90.6765 224.816 113.542 224.46 120.316C224.307 124.746 227.515 125.51 228.228 125.612Z" fill="white"/>
<path d="M268.206 93.7832C268.002 93.5795 267.85 93.5795 267.646 93.4267L265.558 92.7137C264.845 92.51 264.132 92.7137 263.572 93.0702C261.84 94.6999 256.238 93.9869 251.808 93.4267C249.16 93.0702 246.359 92.7137 244.118 92.8665C239.585 92.8665 236.53 95.5147 236.072 100.404C235.511 103.918 236.632 108.094 237.345 108.806C237.701 109.163 238.058 109.367 238.618 109.519L240.349 109.876C240.553 109.876 240.553 109.876 240.706 109.876C241.266 109.876 241.775 109.672 242.132 109.316C243.863 107.686 249.465 108.246 254.049 108.756C256.85 109.112 259.854 109.316 262.299 109.316C268.257 109.112 269.887 105.14 270.192 101.982C270.141 99.2323 269.632 94.6999 268.206 93.7832ZM266.627 101.677C266.271 104.681 264.896 106.107 261.84 106.107C259.549 106.311 256.951 105.904 254.15 105.547C248.905 104.987 243.761 104.478 240.859 106.107L239.789 106.668L239.585 105.394C239.382 104.121 239.025 102.39 239.382 100.658C239.942 96.5841 242.183 96.1258 244.271 96.1258H244.627C246.715 96.1258 249.414 96.4823 251.655 96.686C256.9 97.399 262.044 97.9592 264.947 96.1258L265.303 95.9221L266.22 96.1258L266.424 96.686C266.475 98.0101 266.831 99.7416 266.627 101.677Z" fill="white"/>
<path d="M395.221 135.593H312.924C310.123 135.593 307.831 133.302 307.831 130.501V53.0926C307.831 50.2917 310.123 48 312.924 48H395.221C398.022 48 400.313 50.2917 400.313 53.0926V130.501C400.313 133.302 398.022 135.593 395.221 135.593Z" stroke="white" stroke-width="7" stroke-miterlimit="10"/>
<path d="M379.484 129.686H329.016C328.914 129.686 321.174 128.667 321.632 120.112C321.937 114.255 321.937 95.3615 321.988 90.7272C319.697 88.843 314.451 83.2411 316.437 72.241C319.238 56.1992 338.132 54.1621 354.327 54.1621C370.521 54.1621 389.364 56.1992 392.216 72.2919C394.151 83.292 388.906 88.8939 386.665 90.7782C386.665 95.4125 386.716 114.306 387.021 120.163C387.429 128.718 379.688 129.737 379.637 129.737L379.484 129.686ZM329.373 125.612H379.23C380.044 125.459 383.151 124.644 382.947 120.315C382.591 113.593 382.591 90.6763 382.591 89.7087V88.5883L383.558 87.9772C383.813 87.8244 390.128 83.6994 388.193 72.9539C386.359 62.7687 375.919 58.1853 354.276 58.1853C332.632 58.1853 322.192 62.7177 320.359 72.9539C318.423 83.6994 324.738 87.8244 324.993 87.9772L325.961 88.5883V89.7087C325.961 90.6763 325.961 113.542 325.604 120.315C325.451 124.746 328.66 125.51 329.373 125.612Z" fill="white"/>
<path d="M369.35 93.7832C369.146 93.5795 368.993 93.5795 368.789 93.4267L366.701 92.7137C365.989 92.51 365.276 92.7137 364.715 93.0702C362.984 94.6999 357.382 93.9869 352.951 93.4267C350.303 93.0702 347.502 92.7137 345.261 92.8665C340.729 92.8665 337.673 95.5147 337.215 100.404C336.655 103.918 337.775 108.094 338.488 108.806C338.845 109.163 339.201 109.367 339.761 109.519L341.493 109.876C341.697 109.876 341.697 109.876 341.849 109.876C342.41 109.876 342.919 109.672 343.275 109.316C345.007 107.686 350.609 108.246 355.192 108.756C357.993 109.112 360.998 109.316 363.442 109.316C369.401 109.112 371.03 105.14 371.336 101.982C371.285 99.2323 370.776 94.6999 369.35 93.7832ZM367.771 101.677C367.414 104.681 366.039 106.107 362.984 106.107C360.692 106.311 358.095 105.904 355.294 105.547C350.049 104.987 344.905 104.478 342.002 106.107L340.933 106.668L340.729 105.394C340.525 104.121 340.169 102.39 340.525 100.658C341.086 96.5841 343.326 96.1258 345.414 96.1258H345.771C347.859 96.1258 350.558 96.4823 352.799 96.686C358.044 97.399 363.188 97.9592 366.09 96.1258L366.447 95.9221L367.364 96.1258L367.567 96.686C367.618 98.0101 367.975 99.7416 367.771 101.677Z" fill="white"/>
<path d="M496.563 135.593H414.266C411.466 135.593 409.174 133.302 409.174 130.501V53.0926C409.174 50.2917 411.466 48 414.266 48H496.563C499.364 48 501.656 50.2917 501.656 53.0926V130.501C501.656 133.302 499.364 135.593 496.563 135.593Z" stroke="white" stroke-width="7" stroke-miterlimit="10"/>
<path d="M480.828 129.686H430.36C430.258 129.686 422.517 128.668 422.976 120.112C423.281 114.255 423.281 95.3617 423.332 90.7274C421.04 88.8431 415.795 83.2412 417.781 72.2411C420.633 56.1993 439.527 54.1113 455.67 54.1113C471.814 54.1113 490.708 56.1484 493.56 72.2411C495.495 83.2412 490.249 88.8431 488.009 90.7274C488.009 95.3617 488.06 114.255 488.365 120.112C488.772 128.668 481.032 129.686 480.981 129.686H480.828ZM430.716 125.612H480.573C481.388 125.459 484.495 124.644 484.291 120.316C483.934 113.593 483.934 90.6765 483.934 89.7089V88.5885L484.902 87.9774C485.157 87.8246 491.472 83.6996 489.536 72.9541C487.703 62.7688 477.263 58.1854 455.619 58.1854C433.976 58.1854 423.536 62.7179 421.702 72.9541C419.767 83.6996 426.082 87.8246 426.337 87.9774L427.304 88.5885V89.7089C427.304 90.6765 427.304 113.542 426.948 120.316C426.795 124.746 430.003 125.51 430.716 125.612Z" fill="white"/>
<path d="M470.693 93.7832C470.49 93.5795 470.337 93.5795 470.133 93.4267L468.045 92.7137C467.332 92.51 466.619 92.7137 466.059 93.0702C464.328 94.6999 458.726 93.9869 454.295 93.4267C451.647 93.0702 448.846 92.7137 446.605 92.8665C442.073 92.8665 439.017 95.5147 438.559 100.404C437.999 103.918 439.119 108.094 439.832 108.806C440.189 109.163 440.545 109.367 441.105 109.519L442.837 109.876C443.04 109.876 443.04 109.876 443.193 109.876C443.753 109.876 444.263 109.672 444.619 109.316C446.351 107.686 451.952 108.246 456.536 108.756C459.337 109.112 462.341 109.316 464.786 109.316C470.744 109.112 472.374 105.14 472.68 101.982C472.629 99.2323 472.119 94.6999 470.693 93.7832ZM469.115 101.677C468.758 104.681 467.383 106.107 464.328 106.107C462.036 106.311 459.439 105.904 456.638 105.547C451.392 104.987 446.249 104.478 443.346 106.107L442.276 106.668L442.073 105.394C441.869 104.121 441.513 102.39 441.869 100.658C442.429 96.5841 444.67 96.1258 446.758 96.1258H447.114C449.202 96.1258 451.902 96.4823 454.142 96.686C459.388 97.399 464.531 97.9592 467.434 96.1258L467.791 95.9221L468.707 96.1258L468.911 96.686C468.962 98.0101 469.318 99.7416 469.115 101.677Z" fill="white"/>
<path d="M597.907 135.593H515.61C512.809 135.593 510.518 133.302 510.518 130.501V53.0926C510.518 50.2917 512.809 48 515.61 48H597.907C600.708 48 603 50.2917 603 53.0926V130.501C603 133.302 600.708 135.593 597.907 135.593Z" stroke="white" stroke-width="7" stroke-miterlimit="10"/>
<path d="M582.171 129.686H531.703C531.601 129.686 523.86 128.668 524.318 120.112C524.624 114.255 524.624 95.3617 524.675 90.7274C522.383 88.8431 517.138 83.2412 519.124 72.2411C521.976 56.1993 540.869 54.1113 557.013 54.1113C573.157 54.1113 592.05 56.1484 594.902 72.2411C596.838 83.2412 591.592 88.8431 589.351 90.7274C589.351 95.3617 589.402 114.255 589.708 120.112C590.115 128.668 582.374 129.686 582.324 129.686H582.171ZM532.059 125.612H581.916C582.731 125.459 585.837 124.644 585.634 120.316C585.277 113.593 585.277 90.6765 585.277 89.7089V88.5885L586.245 87.9774C586.499 87.8246 592.814 83.6996 590.879 72.9541C589.046 62.7688 578.606 58.1854 556.962 58.1854C535.318 58.1854 524.879 62.7179 523.045 72.9541C521.11 83.6996 527.425 87.8246 527.68 87.9774L528.647 88.5885V89.7089C528.647 90.6765 528.647 113.542 528.291 120.316C528.138 124.746 531.346 125.51 532.059 125.612Z" fill="white"/>
<path d="M572.037 93.7832C571.833 93.5795 571.681 93.5795 571.477 93.4267L569.389 92.7137C568.676 92.51 567.963 92.7137 567.403 93.0702C565.671 94.6999 560.069 93.9869 555.639 93.4267C552.991 93.0702 550.19 92.7137 547.949 92.8665C543.417 92.8665 540.361 95.5147 539.903 100.404C539.342 103.918 540.463 108.094 541.176 108.806C541.532 109.163 541.889 109.367 542.449 109.519L544.18 109.876C544.384 109.876 544.384 109.876 544.537 109.876C545.097 109.876 545.606 109.672 545.963 109.316C547.694 107.686 553.296 108.246 557.88 108.756C560.681 109.112 563.685 109.316 566.13 109.316C572.088 109.112 573.718 105.14 574.023 101.982C573.972 99.2323 573.463 94.6999 572.037 93.7832ZM570.458 101.677C570.102 104.681 568.727 106.107 565.671 106.107C563.38 106.311 560.782 105.904 557.981 105.547C552.736 104.987 547.592 104.478 544.69 106.107L543.62 106.668L543.417 105.394C543.213 104.121 542.856 102.39 543.213 100.658C543.773 96.5841 546.014 96.1258 548.102 96.1258H548.458C550.546 96.1258 553.245 96.4823 555.486 96.686C560.731 97.399 565.875 97.9592 568.778 96.1258L569.134 95.9221L570.051 96.1258L570.255 96.686C570.306 98.0101 570.662 99.7416 570.458 101.677Z" fill="white"/>
<path d="M628.281 25.5717L625.422 22.8859L622.333 25.9077L628.299 31.5013L638.666 21.6729L635.564 18.668L628.281 25.5717Z" fill="white"/>
<circle cx="630.5" cy="24.5" r="15.5" stroke="white" stroke-width="4"/>
</svg>
