<svg width="278" height="90" viewBox="0 0 278 90" fill="none" xmlns="http://www.w3.org/2000/svg">
<rect opacity="0.5" width="89.8776" height="89.8776" rx="15" fill="white"/>
<rect opacity="0.5" x="93.5713" width="89.8776" height="89.8776" rx="15" fill="white"/>
<rect opacity="0.5" x="187.143" width="89.8776" height="89.8776" rx="15" fill="white"/>
<path d="M78.1043 19.1202C74.3357 13.6179 68.042 10 60.8439 10H25.833C18.5218 10 12.7934 13.5802 9.77849 19.6101C9.66543 19.8362 9.21319 20.7407 8.98707 20.9291C7.51729 23.0019 6.61281 24.2832 5.59527 25.753C4.91691 26.7329 4.23855 27.7504 4.05012 28.9187C3.86169 30.087 4.23855 31.2553 4.61542 32.3859C5.67065 35.7023 6.72587 38.981 7.7811 42.2974C7.85647 42.5989 7.93184 42.9004 7.93184 43.2019V75.537C7.93184 77.949 9.89155 79.9087 12.3035 79.9087H77.5014C79.8379 79.9087 81.7599 77.9867 81.7599 75.6501V40.6015C82.6267 37.8504 83.4935 35.137 84.398 32.3859C84.7749 31.2553 85.1141 30.087 84.9633 28.9187C84.7749 27.7504 84.0965 26.7329 83.4182 25.753" fill="#00BAE7"/>
<path d="M79.3481 27.3742C77.313 15.8044 65.1025 11.998 45.7316 11.998C26.3607 11.998 14.1879 15.8044 12.1152 27.3742C10.0424 38.944 17.3536 43.391 17.3536 43.391C17.3536 43.391 17.3536 65.5884 17.0521 71.9198C16.7506 78.2511 22.2905 78.8918 22.2905 78.8918H45.7693H69.2481C69.2481 78.8918 74.788 78.2511 74.4865 71.9198C74.185 65.5884 74.185 43.391 74.185 43.391C74.185 43.391 81.4209 38.944 79.3481 27.3742Z" fill="#934114"/>
<path d="M76.6346 26.9972C74.5996 15.4274 62.3891 11.6211 43.0182 11.6211C23.6472 11.6211 11.4745 15.4274 9.43939 26.9972C7.40431 38.567 14.6778 43.0141 14.6778 43.0141C14.6778 43.0141 14.6778 65.2115 14.3763 71.5428C14.0748 77.8742 19.6148 78.5148 19.6148 78.5148H43.0935H66.5723C66.5723 78.5148 72.1122 77.8742 71.8108 71.5428C71.5093 65.2115 71.5093 43.0141 71.5093 43.0141C71.5093 43.0141 78.7074 38.567 76.6346 26.9972Z" fill="#CEA267"/>
<path d="M22.5167 40.7912C23.2244 40.7912 23.798 40.2175 23.798 39.5099C23.798 38.8022 23.2244 38.2285 22.5167 38.2285C21.809 38.2285 21.2354 38.8022 21.2354 39.5099C21.2354 40.2175 21.809 40.7912 22.5167 40.7912Z" fill="#A06E27"/>
<path d="M34.5763 36.8713C35.2839 36.8713 35.8576 36.2976 35.8576 35.5899C35.8576 34.8823 35.2839 34.3086 34.5763 34.3086C33.8686 34.3086 33.2949 34.8823 33.2949 35.5899C33.2949 36.2976 33.8686 36.8713 34.5763 36.8713Z" fill="#A06E27"/>
<path d="M33.5963 25.717C34.304 25.717 34.8776 25.1433 34.8776 24.4356C34.8776 23.728 34.304 23.1543 33.5963 23.1543C32.8886 23.1543 32.3149 23.728 32.3149 24.4356C32.3149 25.1433 32.8886 25.717 33.5963 25.717Z" fill="#A06E27"/>
<path d="M31.0719 53.4162C31.7795 53.4162 32.3532 52.8425 32.3532 52.1349C32.3532 51.4272 31.7795 50.8535 31.0719 50.8535C30.3642 50.8535 29.7905 51.4272 29.7905 52.1349C29.7905 52.8425 30.3642 53.4162 31.0719 53.4162Z" fill="#A06E27"/>
<path d="M52.8165 46.3693C53.5242 46.3693 54.0978 45.7957 54.0978 45.088C54.0978 44.3803 53.5242 43.8066 52.8165 43.8066C52.1088 43.8066 51.5352 44.3803 51.5352 45.088C51.5352 45.7957 52.1088 46.3693 52.8165 46.3693Z" fill="#A06E27"/>
<path d="M40.3424 45.0881C41.05 45.0881 41.6237 44.5144 41.6237 43.8067C41.6237 43.0991 41.05 42.5254 40.3424 42.5254C39.6347 42.5254 39.061 43.0991 39.061 43.8067C39.061 44.5144 39.6347 45.0881 40.3424 45.0881Z" fill="#A06E27"/>
<path d="M51.5733 29.9377C52.281 29.9377 52.8547 29.364 52.8547 28.6563C52.8547 27.9487 52.281 27.375 51.5733 27.375C50.8657 27.375 50.292 27.9487 50.292 28.6563C50.292 29.364 50.8657 29.9377 51.5733 29.9377Z" fill="#A06E27"/>
<path d="M42.9806 15.3521C52.7792 15.3521 59.9019 16.3696 64.8389 18.4047C69.5874 20.4021 72.1501 23.3416 72.9415 27.6379C73.6199 31.3689 73.2053 34.5346 71.7732 37.0972C70.7934 38.8308 69.6251 39.6976 69.4367 39.8484L67.6654 40.8282V43.0141C67.6654 43.9185 67.6654 65.3622 68.0046 71.7313C68.0799 73.5402 67.4393 74.0678 67.2131 74.2563C66.8363 74.5578 66.4217 74.7085 66.1579 74.7839H43.056H19.8787C19.6149 74.7085 19.2004 74.5578 18.8235 74.2563C18.5974 74.0678 17.919 73.5402 18.0321 71.7313C18.3336 65.3622 18.3713 43.9185 18.3713 43.0141V40.9036L16.6 39.8107C16.6 39.8107 15.4694 39.0193 14.4519 37.3987C12.869 34.7984 12.4168 31.5196 13.0952 27.6379C13.8489 23.3039 16.4493 20.4021 21.1978 18.4047C26.0594 16.3319 33.2198 15.3521 42.9806 15.3521ZM42.9806 11.6211C23.6474 11.6211 11.4369 15.4274 9.36418 26.9972C7.29141 38.567 14.6026 43.0141 14.6026 43.0141C14.6026 43.0141 14.6026 65.2115 14.3011 71.5428C13.9996 77.8742 19.5396 78.5148 19.5396 78.5148H43.0183H66.4971C66.4971 78.5148 72.037 77.8742 71.7355 71.5428C71.434 65.2115 71.434 43.0141 71.434 43.0141C71.434 43.0141 78.7452 38.567 76.6725 26.9972C74.5243 15.4274 62.3516 11.6211 42.9806 11.6211Z" fill="#A06E27"/>
<path opacity="0.15" d="M84.8879 28.881C84.6995 27.7127 84.0211 26.6952 83.3428 25.7153L78.1043 19.1202C74.3357 13.6179 68.042 10 60.8439 10H25.833C18.5218 10 12.7934 13.5802 9.77849 19.6101C9.66543 19.8362 9.21319 20.7407 8.98707 20.9291C7.51729 23.0019 6.61281 24.2832 5.59527 25.753C4.91691 26.7329 4.23855 27.7504 4.05012 28.9187C3.86169 30.087 4.23855 31.2553 4.61542 32.3859C5.67065 35.7023 6.72587 38.981 7.7811 42.2974C7.85647 42.5989 7.93184 42.9004 7.93184 43.2019V75.537C7.93184 77.949 9.89155 79.9087 12.3035 79.9087H77.5014C79.8379 79.9087 81.7599 77.9867 81.7599 75.6501V40.6015C82.6267 37.8504 83.4935 35.137 84.398 32.3859C84.6995 31.2553 85.0764 30.0493 84.8879 28.881Z" fill="white"/>
<path d="M57.3771 47.9883C57.3771 47.9883 56.2465 50.4002 51.7241 50.4379C49.6513 50.4379 40.3804 50.5133 39.1368 50.7017C32.127 51.7569 33.22 59.0305 33.22 59.0305C33.22 59.0305 34.3506 56.6185 38.873 56.5808C40.9457 56.5808 50.2166 56.5055 51.4603 56.317C58.5077 55.2618 57.3771 47.9883 57.3771 47.9883Z" fill="#DA733B"/>
<path fill-rule="evenodd" clip-rule="evenodd" d="M43.2065 44.4465C36.4606 43.5797 31.1468 43.655 28.0942 45.8032C27.2274 42.3737 26.8882 39.208 27.4912 36.57C28.5841 31.9345 31.486 30.8416 34.1994 30.6908C37.6289 30.5024 42.9804 31.633 47.3521 32.236C52.9674 33.0274 58.0174 33.1782 61.4469 31.2185C62.5398 34.045 62.7282 36.9468 62.2383 39.8487C61.7484 43.1651 59.7887 44.8987 56.5476 45.2756C52.4021 45.7655 47.7289 45.0118 43.2065 44.4465Z" fill="white"/>
<path fill-rule="evenodd" clip-rule="evenodd" d="M40.7948 32.4234C41.3225 32.4234 41.5486 32.838 41.5486 33.2525C41.5486 33.7048 41.2848 34.1193 40.8325 34.1193C40.3426 34.1193 40.0788 33.7425 40.0411 33.2902C40.0411 32.8757 40.2295 32.4234 40.7948 32.4234ZM40.7948 32.1219C40.0788 32.1219 39.5512 32.4988 39.5512 33.2525C39.5512 34.0063 40.0034 34.4208 40.7948 34.4208C41.5486 34.4208 42.0385 34.0063 42.0385 33.2525C42.0385 32.5365 41.5486 32.1219 40.7948 32.1219ZM38.0814 33.1772V32.4988C38.3829 32.4988 38.7975 32.4234 38.7975 32.838C38.7975 33.2149 38.4206 33.1772 38.0814 33.1772ZM37.6292 34.4208H38.1191V33.4787C38.496 33.4787 38.9859 33.4787 39.212 33.1395C39.4381 32.8003 39.3628 32.1973 38.6844 32.1596H37.6292V34.4208ZM35.2926 32.1596H35.7071C35.7071 32.3858 35.7071 33.5164 35.7071 33.7048C35.8202 34.1947 36.687 34.157 36.7247 33.6671C36.7624 33.3656 36.7247 32.4988 36.7247 32.1596H37.1392C37.1392 32.4234 37.1769 33.6294 37.1016 33.8932C36.9508 34.5339 36.084 34.5339 35.6695 34.3455C35.2926 34.157 35.2549 33.8555 35.2549 33.4787L35.2926 32.1596ZM33.7474 33.1395V32.4611C34.0866 32.4611 34.5012 32.3858 34.5012 32.7626C34.5012 33.2149 34.0489 33.1395 33.7474 33.1395ZM33.2952 34.4208H33.7474V33.4787H34.0113L34.5389 34.4208H35.1042L34.5012 33.4033C34.8027 33.2902 34.9911 33.1018 34.9911 32.8003C34.9911 32.3481 34.6142 32.235 34.2751 32.1973H33.2575L33.2952 34.4208ZM32.0515 33.1772V33.4787H32.4284V33.9686C32.0515 34.0817 31.4486 34.1193 31.2601 33.6294C31.0717 33.1395 31.2601 32.4234 31.9762 32.4234C32.24 32.4234 32.4284 32.4988 32.5415 32.7249L32.8053 32.4234C32.6168 32.1973 32.3907 32.1219 32.0139 32.1219C30.5441 32.1219 30.5441 33.6671 31.1471 34.1193C31.5993 34.4962 32.353 34.3831 32.9183 34.2324V33.1395L32.0515 33.1772ZM40.3803 44.8223C36.3101 44.4455 32.3907 44.6339 29.9788 46.6313C29.2251 46.5182 28.4713 46.3675 27.6799 46.2544C26.7377 43.2018 26.5493 39.9608 26.9639 36.6443C27.6422 33.4033 29.3381 30.5014 33.446 30.2753C37.7045 30.0115 43.4706 31.0667 49.2367 31.6697C53.3445 32.0843 56.9624 31.7451 59.3367 29.8984C60.2035 30.1622 61.0702 30.426 61.9747 30.6899C63.0676 33.8555 63.143 36.9458 62.6531 39.9985C61.937 44.3324 59.1105 45.8776 55.3419 45.9153C50.0658 45.9153 44.6012 45.1992 40.3803 44.8223ZM43.2068 44.4455C36.4609 43.5787 31.1471 43.6541 28.0945 45.8022C27.2277 42.3727 26.8885 39.207 27.4915 36.569C28.5844 31.9335 31.4862 30.8406 34.1997 30.6899C37.6292 30.5014 42.9807 31.632 47.3523 32.235C52.9676 33.0264 58.0176 33.1772 61.4471 31.2175C62.54 34.044 62.7285 36.9458 62.2385 39.8477C61.7486 43.1641 59.7889 44.8977 56.5479 45.2746C52.4023 45.7645 47.7292 45.0108 43.2068 44.4455Z" fill="#3D438B"/>
<path fill-rule="evenodd" clip-rule="evenodd" d="M50.5175 40.7895H49.0854V36.5686H50.2914C50.932 36.5686 51.1582 36.757 51.1959 37.0962C51.2335 37.6238 50.9321 37.8876 50.4421 37.8876H49.9899L49.4246 39.1313H50.5552C51.0828 39.1313 51.6104 39.5081 51.535 39.9981C51.4597 40.4503 51.0451 40.7895 50.5175 40.7895ZM50.7436 42.1462H47.3518V35.1742H50.5929C51.7235 35.1742 52.7033 35.5134 52.8541 36.5686C52.9671 37.36 52.741 37.9253 52.138 38.3399C53.0425 38.7544 53.4194 39.8096 53.0802 40.8272C52.7787 41.807 51.5727 42.1462 50.7436 42.1462ZM56.9619 36.7193C57.9795 36.7193 58.8462 37.5861 58.8462 38.6037C58.8462 39.6589 58.0171 40.488 56.9619 40.488C55.9444 40.488 55.0776 39.6212 55.0776 38.6037C55.1153 37.5484 55.9444 36.7193 56.9619 36.7193ZM56.9619 35.0234C58.8839 35.0234 60.4668 36.6063 60.4668 38.6037C60.4668 40.5634 58.8839 42.1839 56.9619 42.1839C55.0399 42.1839 53.4571 40.6011 53.4571 38.6037C53.4571 36.644 55.0399 35.0234 56.9619 35.0234ZM46.6358 35.1742V42.1462H44.9022V37.7369L43.7716 42.1839H42.1134L41.0205 37.8122V42.1462H39.3623V35.1742H42.038L42.9425 39.0936L43.847 35.1742H46.6358ZM36.9503 35.1742H38.6462V42.1462H36.9503V35.1742ZM33.8223 40.7895H32.3902V36.5686H33.5962C34.2369 36.5686 34.463 36.757 34.5007 37.0962C34.5384 37.6238 34.2369 37.8876 33.747 37.8876H33.2947L32.7294 39.1313H33.86C34.3876 39.1313 34.9152 39.5081 34.8399 39.9981C34.7645 40.4503 34.3499 40.7895 33.8223 40.7895ZM34.0861 42.1462H30.6943V35.1742H33.9354C35.066 35.1742 36.0458 35.5134 36.1966 36.5686C36.3096 37.36 36.0835 37.9253 35.4805 38.3399C36.385 38.7544 36.7619 39.8096 36.4227 40.8272C36.1212 41.807 34.9152 42.1462 34.0861 42.1462Z" fill="#DA243C"/>
<mask id="mask0" mask-type="alpha" maskUnits="userSpaceOnUse" x="4" y="10" width="81" height="70">
<path d="M78.1043 19.1202C74.3357 13.6179 68.042 10 60.8439 10H25.833C18.5218 10 12.7934 13.5802 9.77849 19.6101C9.66543 19.8362 9.21319 20.7407 8.98707 20.9291C7.51729 23.0019 6.61281 24.2832 5.59527 25.753C4.91691 26.7329 4.23855 27.7504 4.05012 28.9187C3.86169 30.087 4.23855 31.2553 4.61542 32.3859C5.67065 35.7023 6.72587 38.981 7.7811 42.2974C7.85647 42.5989 7.93184 42.9004 7.93184 43.2019V75.537C7.93184 77.949 9.89155 79.9087 12.3035 79.9087H77.5014C79.8379 79.9087 81.7599 77.9867 81.7599 75.6501V40.6015C82.6267 37.8504 83.4935 35.137 84.398 32.3859C84.7749 31.2553 85.1141 30.087 84.9633 28.9187C84.7749 27.7504 84.0965 26.7329 83.4182 25.753" fill="#00BAE7"/>
</mask>
<g mask="url(#mask0)">
<path opacity="0.15" d="M-10.6237 105.449L31.8228 -8.16211L28.4688 -9.41519L-13.9776 104.196L-10.6237 105.449Z" fill="white"/>
<path opacity="0.15" d="M1.32553 114.32L43.772 0.708984L42.1126 0.0890399L-0.333798 113.7L1.32553 114.32Z" fill="white"/>
<path opacity="0.15" d="M-1.2482 110.228L41.1982 -3.38281L33.9254 -6.10002L-8.521 107.511L-1.2482 110.228Z" fill="white"/>
<path opacity="0.15" d="M49.4749 119.773L91.9214 6.16211L84.6486 3.4449L42.2021 117.056L49.4749 119.773Z" fill="white"/>
<path opacity="0.15" d="M40.5081 114.769L82.9546 1.1582L79.6006 -0.0948771L37.1542 113.516L40.5081 114.769Z" fill="white"/>
<path opacity="0.15" d="M-18.1901 105.349L24.2563 -8.26172L16.9836 -10.9789L-25.4629 102.632L-18.1901 105.349Z" fill="white"/>
<path opacity="0.15" d="M-27.1569 100.345L15.2896 -13.2656L11.9356 -14.5187L-30.5109 99.0922L-27.1569 100.345Z" fill="white"/>
</g>
<path d="M172.104 19.1202C168.336 13.6179 162.042 10 154.844 10H119.833C112.522 10 106.793 13.5802 103.778 19.6101C103.665 19.8362 103.213 20.7407 102.987 20.9291C101.517 23.0019 100.613 24.2832 99.5953 25.753C98.9169 26.7329 98.2386 27.7504 98.0501 28.9187C97.8617 30.087 98.2386 31.2553 98.6154 32.3859C99.6706 35.7023 100.726 38.981 101.781 42.2974C101.856 42.5989 101.932 42.9004 101.932 43.2019V75.537C101.932 77.949 103.892 79.9087 106.303 79.9087H171.501C173.838 79.9087 175.76 77.9867 175.76 75.6501V40.6015C176.627 37.8504 177.494 35.137 178.398 32.3859C178.775 31.2553 179.114 30.087 178.963 28.9187C178.775 27.7504 178.097 26.7329 177.418 25.753" fill="#00BAE7"/>
<path d="M173.348 27.3742C171.313 15.8044 159.103 11.998 139.732 11.998C120.361 11.998 108.188 15.8044 106.115 27.3742C104.042 38.944 111.354 43.391 111.354 43.391C111.354 43.391 111.354 65.5884 111.052 71.9198C110.751 78.2511 116.291 78.8918 116.291 78.8918H139.769H163.248C163.248 78.8918 168.788 78.2511 168.487 71.9198C168.185 65.5884 168.185 43.391 168.185 43.391C168.185 43.391 175.421 38.944 173.348 27.3742Z" fill="#934114"/>
<path d="M170.635 26.9972C168.6 15.4274 156.389 11.6211 137.018 11.6211C117.647 11.6211 105.474 15.4274 103.439 26.9972C101.404 38.567 108.678 43.0141 108.678 43.0141C108.678 43.0141 108.678 65.2115 108.376 71.5428C108.075 77.8742 113.615 78.5148 113.615 78.5148H137.094H160.572C160.572 78.5148 166.112 77.8742 165.811 71.5428C165.509 65.2115 165.509 43.0141 165.509 43.0141C165.509 43.0141 172.707 38.567 170.635 26.9972Z" fill="#CEA267"/>
<path d="M116.517 40.7912C117.224 40.7912 117.798 40.2175 117.798 39.5099C117.798 38.8022 117.224 38.2285 116.517 38.2285C115.809 38.2285 115.235 38.8022 115.235 39.5099C115.235 40.2175 115.809 40.7912 116.517 40.7912Z" fill="#A06E27"/>
<path d="M128.576 36.8713C129.284 36.8713 129.858 36.2976 129.858 35.5899C129.858 34.8823 129.284 34.3086 128.576 34.3086C127.869 34.3086 127.295 34.8823 127.295 35.5899C127.295 36.2976 127.869 36.8713 128.576 36.8713Z" fill="#A06E27"/>
<path d="M127.596 25.717C128.304 25.717 128.878 25.1433 128.878 24.4356C128.878 23.728 128.304 23.1543 127.596 23.1543C126.889 23.1543 126.315 23.728 126.315 24.4356C126.315 25.1433 126.889 25.717 127.596 25.717Z" fill="#A06E27"/>
<path d="M125.072 53.4162C125.78 53.4162 126.353 52.8425 126.353 52.1349C126.353 51.4272 125.78 50.8535 125.072 50.8535C124.364 50.8535 123.791 51.4272 123.791 52.1349C123.791 52.8425 124.364 53.4162 125.072 53.4162Z" fill="#A06E27"/>
<path d="M146.817 46.3693C147.524 46.3693 148.098 45.7957 148.098 45.088C148.098 44.3803 147.524 43.8066 146.817 43.8066C146.109 43.8066 145.535 44.3803 145.535 45.088C145.535 45.7957 146.109 46.3693 146.817 46.3693Z" fill="#A06E27"/>
<path d="M134.342 45.0881C135.05 45.0881 135.624 44.5144 135.624 43.8067C135.624 43.0991 135.05 42.5254 134.342 42.5254C133.635 42.5254 133.061 43.0991 133.061 43.8067C133.061 44.5144 133.635 45.0881 134.342 45.0881Z" fill="#A06E27"/>
<path d="M145.573 29.9377C146.281 29.9377 146.855 29.364 146.855 28.6563C146.855 27.9487 146.281 27.375 145.573 27.375C144.866 27.375 144.292 27.9487 144.292 28.6563C144.292 29.364 144.866 29.9377 145.573 29.9377Z" fill="#A06E27"/>
<path d="M136.981 15.3521C146.779 15.3521 153.902 16.3696 158.839 18.4047C163.587 20.4021 166.15 23.3416 166.942 27.6379C167.62 31.3689 167.205 34.5346 165.773 37.0972C164.793 38.8308 163.625 39.6976 163.437 39.8484L161.665 40.8282V43.0141C161.665 43.9185 161.665 65.3622 162.005 71.7313C162.08 73.5402 161.439 74.0678 161.213 74.2563C160.836 74.5578 160.422 74.7085 160.158 74.7839H137.056H113.879C113.615 74.7085 113.2 74.5578 112.824 74.2563C112.597 74.0678 111.919 73.5402 112.032 71.7313C112.334 65.3622 112.371 43.9185 112.371 43.0141V40.9036L110.6 39.8107C110.6 39.8107 109.469 39.0193 108.452 37.3987C106.869 34.7984 106.417 31.5196 107.095 27.6379C107.849 23.3039 110.449 20.4021 115.198 18.4047C120.059 16.3319 127.22 15.3521 136.981 15.3521ZM136.981 11.6211C117.647 11.6211 105.437 15.4274 103.364 26.9972C101.291 38.567 108.603 43.0141 108.603 43.0141C108.603 43.0141 108.603 65.2115 108.301 71.5428C108 77.8742 113.54 78.5148 113.54 78.5148H137.018H160.497C160.497 78.5148 166.037 77.8742 165.736 71.5428C165.434 65.2115 165.434 43.0141 165.434 43.0141C165.434 43.0141 172.745 38.567 170.672 26.9972C168.524 15.4274 156.352 11.6211 136.981 11.6211Z" fill="#A06E27"/>
<path opacity="0.15" d="M178.888 28.881C178.699 27.7127 178.021 26.6952 177.343 25.7153L172.104 19.1202C168.336 13.6179 162.042 10 154.844 10H119.833C112.522 10 106.793 13.5802 103.778 19.6101C103.665 19.8362 103.213 20.7407 102.987 20.9291C101.517 23.0019 100.613 24.2832 99.5953 25.753C98.9169 26.7329 98.2386 27.7504 98.0501 28.9187C97.8617 30.087 98.2386 31.2553 98.6154 32.3859C99.6706 35.7023 100.726 38.981 101.781 42.2974C101.856 42.5989 101.932 42.9004 101.932 43.2019V75.537C101.932 77.949 103.892 79.9087 106.303 79.9087H171.501C173.838 79.9087 175.76 77.9867 175.76 75.6501V40.6015C176.627 37.8504 177.494 35.137 178.398 32.3859C178.699 31.2553 179.076 30.0493 178.888 28.881Z" fill="white"/>
<path d="M151.377 47.9883C151.377 47.9883 150.246 50.4002 145.724 50.4379C143.651 50.4379 134.38 50.5133 133.137 50.7017C126.127 51.7569 127.22 59.0305 127.22 59.0305C127.22 59.0305 128.351 56.6185 132.873 56.5808C134.946 56.5808 144.217 56.5055 145.46 56.317C152.508 55.2618 151.377 47.9883 151.377 47.9883Z" fill="#DA733B"/>
<path fill-rule="evenodd" clip-rule="evenodd" d="M137.207 44.4465C130.461 43.5797 125.147 43.655 122.094 45.8032C121.227 42.3737 120.888 39.208 121.491 36.57C122.584 31.9345 125.486 30.8416 128.199 30.6908C131.629 30.5024 136.98 31.633 141.352 32.236C146.967 33.0274 152.017 33.1782 155.447 31.2185C156.54 34.045 156.728 36.9468 156.238 39.8487C155.748 43.1651 153.789 44.8987 150.548 45.2756C146.402 45.7655 141.729 45.0118 137.207 44.4465Z" fill="white"/>
<path fill-rule="evenodd" clip-rule="evenodd" d="M134.795 32.4234C135.322 32.4234 135.549 32.838 135.549 33.2525C135.549 33.7048 135.285 34.1193 134.833 34.1193C134.343 34.1193 134.079 33.7425 134.041 33.2902C134.041 32.8757 134.23 32.4234 134.795 32.4234ZM134.795 32.1219C134.079 32.1219 133.551 32.4988 133.551 33.2525C133.551 34.0063 134.003 34.4208 134.795 34.4208C135.549 34.4208 136.039 34.0063 136.039 33.2525C136.039 32.5365 135.549 32.1219 134.795 32.1219ZM132.081 33.1772V32.4988C132.383 32.4988 132.797 32.4234 132.797 32.838C132.797 33.2149 132.421 33.1772 132.081 33.1772ZM131.629 34.4208H132.119V33.4787C132.496 33.4787 132.986 33.4787 133.212 33.1395C133.438 32.8003 133.363 32.1973 132.684 32.1596H131.629V34.4208ZM129.293 32.1596H129.707C129.707 32.3858 129.707 33.5164 129.707 33.7048C129.82 34.1947 130.687 34.157 130.725 33.6671C130.762 33.3656 130.725 32.4988 130.725 32.1596H131.139C131.139 32.4234 131.177 33.6294 131.102 33.8932C130.951 34.5339 130.084 34.5339 129.669 34.3455C129.293 34.157 129.255 33.8555 129.255 33.4787L129.293 32.1596ZM127.747 33.1395V32.4611C128.087 32.4611 128.501 32.3858 128.501 32.7626C128.501 33.2149 128.049 33.1395 127.747 33.1395ZM127.295 34.4208H127.747V33.4787H128.011L128.539 34.4208H129.104L128.501 33.4033C128.803 33.2902 128.991 33.1018 128.991 32.8003C128.991 32.3481 128.614 32.235 128.275 32.1973H127.258L127.295 34.4208ZM126.052 33.1772V33.4787H126.428V33.9686C126.052 34.0817 125.449 34.1193 125.26 33.6294C125.072 33.1395 125.26 32.4234 125.976 32.4234C126.24 32.4234 126.428 32.4988 126.541 32.7249L126.805 32.4234C126.617 32.1973 126.391 32.1219 126.014 32.1219C124.544 32.1219 124.544 33.6671 125.147 34.1193C125.599 34.4962 126.353 34.3831 126.918 34.2324V33.1395L126.052 33.1772ZM134.38 44.8223C130.31 44.4455 126.391 44.6339 123.979 46.6313C123.225 46.5182 122.471 46.3675 121.68 46.2544C120.738 43.2018 120.549 39.9608 120.964 36.6443C121.642 33.4033 123.338 30.5014 127.446 30.2753C131.705 30.0115 137.471 31.0667 143.237 31.6697C147.344 32.0843 150.962 31.7451 153.337 29.8984C154.203 30.1622 155.07 30.426 155.975 30.6899C157.068 33.8555 157.143 36.9458 156.653 39.9985C155.937 44.3324 153.111 45.8776 149.342 45.9153C144.066 45.9153 138.601 45.1992 134.38 44.8223ZM137.207 44.4455C130.461 43.5787 125.147 43.6541 122.094 45.8022C121.228 42.3727 120.888 39.207 121.491 36.569C122.584 31.9335 125.486 30.8406 128.2 30.6899C131.629 30.5014 136.981 31.632 141.352 32.235C146.968 33.0264 152.018 33.1772 155.447 31.2175C156.54 34.044 156.728 36.9458 156.239 39.8477C155.749 43.1641 153.789 44.8977 150.548 45.2746C146.402 45.7645 141.729 45.0108 137.207 44.4455Z" fill="#3D438B"/>
<path fill-rule="evenodd" clip-rule="evenodd" d="M144.517 40.7895H143.085V36.5686H144.291C144.932 36.5686 145.158 36.757 145.196 37.0962C145.234 37.6238 144.932 37.8876 144.442 37.8876H143.99L143.425 39.1313H144.555C145.083 39.1313 145.61 39.5081 145.535 39.9981C145.46 40.4503 145.045 40.7895 144.517 40.7895ZM144.744 42.1462H141.352V35.1742H144.593C145.723 35.1742 146.703 35.5134 146.854 36.5686C146.967 37.36 146.741 37.9253 146.138 38.3399C147.043 38.7544 147.419 39.8096 147.08 40.8272C146.779 41.807 145.573 42.1462 144.744 42.1462ZM150.962 36.7193C151.979 36.7193 152.846 37.5861 152.846 38.6037C152.846 39.6589 152.017 40.488 150.962 40.488C149.944 40.488 149.078 39.6212 149.078 38.6037C149.115 37.5484 149.944 36.7193 150.962 36.7193ZM150.962 35.0234C152.884 35.0234 154.467 36.6063 154.467 38.6037C154.467 40.5634 152.884 42.1839 150.962 42.1839C149.04 42.1839 147.457 40.6011 147.457 38.6037C147.457 36.644 149.04 35.0234 150.962 35.0234ZM140.636 35.1742V42.1462H138.902V37.7369L137.772 42.1839H136.113L135.02 37.8122V42.1462H133.362V35.1742H136.038L136.942 39.0936L137.847 35.1742H140.636ZM130.95 35.1742H132.646V42.1462H130.95V35.1742ZM127.822 40.7895H126.39V36.5686H127.596C128.237 36.5686 128.463 36.757 128.501 37.0962C128.538 37.6238 128.237 37.8876 127.747 37.8876H127.295L126.729 39.1313H127.86C128.388 39.1313 128.915 39.5081 128.84 39.9981C128.764 40.4503 128.35 40.7895 127.822 40.7895ZM128.086 42.1462H124.694V35.1742H127.935C129.066 35.1742 130.046 35.5134 130.197 36.5686C130.31 37.36 130.084 37.9253 129.481 38.3399C130.385 38.7544 130.762 39.8096 130.423 40.8272C130.121 41.807 128.915 42.1462 128.086 42.1462Z" fill="#DA243C"/>
<mask id="mask1" mask-type="alpha" maskUnits="userSpaceOnUse" x="98" y="10" width="81" height="70">
<path d="M172.104 19.1202C168.336 13.6179 162.042 10 154.844 10H119.833C112.522 10 106.793 13.5802 103.778 19.6101C103.665 19.8362 103.213 20.7407 102.987 20.9291C101.517 23.0019 100.613 24.2832 99.5953 25.753C98.9169 26.7329 98.2386 27.7504 98.0501 28.9187C97.8617 30.087 98.2386 31.2553 98.6154 32.3859C99.6706 35.7023 100.726 38.981 101.781 42.2974C101.856 42.5989 101.932 42.9004 101.932 43.2019V75.537C101.932 77.949 103.892 79.9087 106.303 79.9087H171.501C173.838 79.9087 175.76 77.9867 175.76 75.6501V40.6015C176.627 37.8504 177.494 35.137 178.398 32.3859C178.775 31.2553 179.114 30.087 178.963 28.9187C178.775 27.7504 178.097 26.7329 177.418 25.753" fill="#00BAE7"/>
</mask>
<g mask="url(#mask1)">
<path opacity="0.15" d="M83.3763 105.449L125.823 -8.16211L122.469 -9.41519L80.0224 104.196L83.3763 105.449Z" fill="white"/>
<path opacity="0.15" d="M95.3255 114.32L137.772 0.708984L136.113 0.0890399L93.6662 113.7L95.3255 114.32Z" fill="white"/>
<path opacity="0.15" d="M92.7518 110.228L135.198 -3.38281L127.925 -6.10002L85.479 107.511L92.7518 110.228Z" fill="white"/>
<path opacity="0.15" d="M143.475 119.773L185.921 6.16211L178.649 3.4449L136.202 117.056L143.475 119.773Z" fill="white"/>
<path opacity="0.15" d="M134.508 114.769L176.955 1.1582L173.601 -0.0948771L131.154 113.516L134.508 114.769Z" fill="white"/>
<path opacity="0.15" d="M75.8099 105.349L118.256 -8.26172L110.984 -10.9789L68.5371 102.632L75.8099 105.349Z" fill="white"/>
<path opacity="0.15" d="M66.8431 100.345L109.29 -13.2656L105.936 -14.5187L63.4891 99.0922L66.8431 100.345Z" fill="white"/>
</g>
<path d="M266.104 19.1202C262.336 13.6179 256.042 10 248.844 10H213.833C206.522 10 200.793 13.5802 197.778 19.6101C197.665 19.8362 197.213 20.7407 196.987 20.9291C195.517 23.0019 194.613 24.2832 193.595 25.753C192.917 26.7329 192.239 27.7504 192.05 28.9187C191.862 30.087 192.239 31.2553 192.615 32.3859C193.671 35.7023 194.726 38.981 195.781 42.2974C195.856 42.5989 195.932 42.9004 195.932 43.2019V75.537C195.932 77.949 197.892 79.9087 200.303 79.9087H265.501C267.838 79.9087 269.76 77.9867 269.76 75.6501V40.6015C270.627 37.8504 271.494 35.137 272.398 32.3859C272.775 31.2553 273.114 30.087 272.963 28.9187C272.775 27.7504 272.097 26.7329 271.418 25.753" fill="#00BAE7"/>
<path d="M267.348 27.3742C265.313 15.8044 253.103 11.998 233.732 11.998C214.361 11.998 202.188 15.8044 200.115 27.3742C198.042 38.944 205.354 43.391 205.354 43.391C205.354 43.391 205.354 65.5884 205.052 71.9198C204.751 78.2511 210.291 78.8918 210.291 78.8918H233.769H257.248C257.248 78.8918 262.788 78.2511 262.487 71.9198C262.185 65.5884 262.185 43.391 262.185 43.391C262.185 43.391 269.421 38.944 267.348 27.3742Z" fill="#934114"/>
<path d="M264.635 26.9972C262.6 15.4274 250.389 11.6211 231.018 11.6211C211.647 11.6211 199.474 15.4274 197.439 26.9972C195.404 38.567 202.678 43.0141 202.678 43.0141C202.678 43.0141 202.678 65.2115 202.376 71.5428C202.075 77.8742 207.615 78.5148 207.615 78.5148H231.094H254.572C254.572 78.5148 260.112 77.8742 259.811 71.5428C259.509 65.2115 259.509 43.0141 259.509 43.0141C259.509 43.0141 266.707 38.567 264.635 26.9972Z" fill="#CEA267"/>
<path d="M210.517 40.7912C211.224 40.7912 211.798 40.2175 211.798 39.5099C211.798 38.8022 211.224 38.2285 210.517 38.2285C209.809 38.2285 209.235 38.8022 209.235 39.5099C209.235 40.2175 209.809 40.7912 210.517 40.7912Z" fill="#A06E27"/>
<path d="M222.576 36.8713C223.284 36.8713 223.858 36.2976 223.858 35.5899C223.858 34.8823 223.284 34.3086 222.576 34.3086C221.869 34.3086 221.295 34.8823 221.295 35.5899C221.295 36.2976 221.869 36.8713 222.576 36.8713Z" fill="#A06E27"/>
<path d="M221.596 25.717C222.304 25.717 222.878 25.1433 222.878 24.4356C222.878 23.728 222.304 23.1543 221.596 23.1543C220.889 23.1543 220.315 23.728 220.315 24.4356C220.315 25.1433 220.889 25.717 221.596 25.717Z" fill="#A06E27"/>
<path d="M219.072 53.4162C219.78 53.4162 220.353 52.8425 220.353 52.1349C220.353 51.4272 219.78 50.8535 219.072 50.8535C218.364 50.8535 217.791 51.4272 217.791 52.1349C217.791 52.8425 218.364 53.4162 219.072 53.4162Z" fill="#A06E27"/>
<path d="M240.817 46.3693C241.524 46.3693 242.098 45.7957 242.098 45.088C242.098 44.3803 241.524 43.8066 240.817 43.8066C240.109 43.8066 239.535 44.3803 239.535 45.088C239.535 45.7957 240.109 46.3693 240.817 46.3693Z" fill="#A06E27"/>
<path d="M228.342 45.0881C229.05 45.0881 229.624 44.5144 229.624 43.8067C229.624 43.0991 229.05 42.5254 228.342 42.5254C227.635 42.5254 227.061 43.0991 227.061 43.8067C227.061 44.5144 227.635 45.0881 228.342 45.0881Z" fill="#A06E27"/>
<path d="M239.573 29.9377C240.281 29.9377 240.855 29.364 240.855 28.6563C240.855 27.9487 240.281 27.375 239.573 27.375C238.866 27.375 238.292 27.9487 238.292 28.6563C238.292 29.364 238.866 29.9377 239.573 29.9377Z" fill="#A06E27"/>
<path d="M230.981 15.3521C240.779 15.3521 247.902 16.3696 252.839 18.4047C257.587 20.4021 260.15 23.3416 260.942 27.6379C261.62 31.3689 261.205 34.5346 259.773 37.0972C258.793 38.8308 257.625 39.6976 257.437 39.8484L255.665 40.8282V43.0141C255.665 43.9185 255.665 65.3622 256.005 71.7313C256.08 73.5402 255.439 74.0678 255.213 74.2563C254.836 74.5578 254.422 74.7085 254.158 74.7839H231.056H207.879C207.615 74.7085 207.2 74.5578 206.824 74.2563C206.597 74.0678 205.919 73.5402 206.032 71.7313C206.334 65.3622 206.371 43.9185 206.371 43.0141V40.9036L204.6 39.8107C204.6 39.8107 203.469 39.0193 202.452 37.3987C200.869 34.7984 200.417 31.5196 201.095 27.6379C201.849 23.3039 204.449 20.4021 209.198 18.4047C214.059 16.3319 221.22 15.3521 230.981 15.3521ZM230.981 11.6211C211.647 11.6211 199.437 15.4274 197.364 26.9972C195.291 38.567 202.603 43.0141 202.603 43.0141C202.603 43.0141 202.603 65.2115 202.301 71.5428C202 77.8742 207.54 78.5148 207.54 78.5148H231.018H254.497C254.497 78.5148 260.037 77.8742 259.736 71.5428C259.434 65.2115 259.434 43.0141 259.434 43.0141C259.434 43.0141 266.745 38.567 264.672 26.9972C262.524 15.4274 250.352 11.6211 230.981 11.6211Z" fill="#A06E27"/>
<path opacity="0.15" d="M272.888 28.881C272.699 27.7127 272.021 26.6952 271.343 25.7153L266.104 19.1202C262.336 13.6179 256.042 10 248.844 10H213.833C206.522 10 200.793 13.5802 197.778 19.6101C197.665 19.8362 197.213 20.7407 196.987 20.9291C195.517 23.0019 194.613 24.2832 193.595 25.753C192.917 26.7329 192.239 27.7504 192.05 28.9187C191.862 30.087 192.239 31.2553 192.615 32.3859C193.671 35.7023 194.726 38.981 195.781 42.2974C195.856 42.5989 195.932 42.9004 195.932 43.2019V75.537C195.932 77.949 197.892 79.9087 200.303 79.9087H265.501C267.838 79.9087 269.76 77.9867 269.76 75.6501V40.6015C270.627 37.8504 271.494 35.137 272.398 32.3859C272.699 31.2553 273.076 30.0493 272.888 28.881Z" fill="white"/>
<path d="M245.377 47.9883C245.377 47.9883 244.246 50.4002 239.724 50.4379C237.651 50.4379 228.38 50.5133 227.137 50.7017C220.127 51.7569 221.22 59.0305 221.22 59.0305C221.22 59.0305 222.351 56.6185 226.873 56.5808C228.946 56.5808 238.217 56.5055 239.46 56.317C246.508 55.2618 245.377 47.9883 245.377 47.9883Z" fill="#DA733B"/>
<path fill-rule="evenodd" clip-rule="evenodd" d="M231.207 44.4465C224.461 43.5797 219.147 43.655 216.094 45.8032C215.227 42.3737 214.888 39.208 215.491 36.57C216.584 31.9345 219.486 30.8416 222.199 30.6908C225.629 30.5024 230.98 31.633 235.352 32.236C240.967 33.0274 246.017 33.1782 249.447 31.2185C250.54 34.045 250.728 36.9468 250.238 39.8487C249.748 43.1651 247.789 44.8987 244.548 45.2756C240.402 45.7655 235.729 45.0118 231.207 44.4465Z" fill="white"/>
<path fill-rule="evenodd" clip-rule="evenodd" d="M228.795 32.4234C229.322 32.4234 229.549 32.838 229.549 33.2525C229.549 33.7048 229.285 34.1193 228.833 34.1193C228.343 34.1193 228.079 33.7425 228.041 33.2902C228.041 32.8757 228.23 32.4234 228.795 32.4234ZM228.795 32.1219C228.079 32.1219 227.551 32.4988 227.551 33.2525C227.551 34.0063 228.003 34.4208 228.795 34.4208C229.549 34.4208 230.039 34.0063 230.039 33.2525C230.039 32.5365 229.549 32.1219 228.795 32.1219ZM226.081 33.1772V32.4988C226.383 32.4988 226.797 32.4234 226.797 32.838C226.797 33.2149 226.421 33.1772 226.081 33.1772ZM225.629 34.4208H226.119V33.4787C226.496 33.4787 226.986 33.4787 227.212 33.1395C227.438 32.8003 227.363 32.1973 226.684 32.1596H225.629V34.4208ZM223.293 32.1596H223.707C223.707 32.3858 223.707 33.5164 223.707 33.7048C223.82 34.1947 224.687 34.157 224.725 33.6671C224.762 33.3656 224.725 32.4988 224.725 32.1596H225.139C225.139 32.4234 225.177 33.6294 225.102 33.8932C224.951 34.5339 224.084 34.5339 223.669 34.3455C223.293 34.157 223.255 33.8555 223.255 33.4787L223.293 32.1596ZM221.747 33.1395V32.4611C222.087 32.4611 222.501 32.3858 222.501 32.7626C222.501 33.2149 222.049 33.1395 221.747 33.1395ZM221.295 34.4208H221.747V33.4787H222.011L222.539 34.4208H223.104L222.501 33.4033C222.803 33.2902 222.991 33.1018 222.991 32.8003C222.991 32.3481 222.614 32.235 222.275 32.1973H221.258L221.295 34.4208ZM220.052 33.1772V33.4787H220.428V33.9686C220.052 34.0817 219.449 34.1193 219.26 33.6294C219.072 33.1395 219.26 32.4234 219.976 32.4234C220.24 32.4234 220.428 32.4988 220.541 32.7249L220.805 32.4234C220.617 32.1973 220.391 32.1219 220.014 32.1219C218.544 32.1219 218.544 33.6671 219.147 34.1193C219.599 34.4962 220.353 34.3831 220.918 34.2324V33.1395L220.052 33.1772ZM228.38 44.8223C224.31 44.4455 220.391 44.6339 217.979 46.6313C217.225 46.5182 216.471 46.3675 215.68 46.2544C214.738 43.2018 214.549 39.9608 214.964 36.6443C215.642 33.4033 217.338 30.5014 221.446 30.2753C225.705 30.0115 231.471 31.0667 237.237 31.6697C241.344 32.0843 244.962 31.7451 247.337 29.8984C248.203 30.1622 249.07 30.426 249.975 30.6899C251.068 33.8555 251.143 36.9458 250.653 39.9985C249.937 44.3324 247.111 45.8776 243.342 45.9153C238.066 45.9153 232.601 45.1992 228.38 44.8223ZM231.207 44.4455C224.461 43.5787 219.147 43.6541 216.094 45.8022C215.228 42.3727 214.888 39.207 215.491 36.569C216.584 31.9335 219.486 30.8406 222.2 30.6899C225.629 30.5014 230.981 31.632 235.352 32.235C240.968 33.0264 246.018 33.1772 249.447 31.2175C250.54 34.044 250.728 36.9458 250.239 39.8477C249.749 43.1641 247.789 44.8977 244.548 45.2746C240.402 45.7645 235.729 45.0108 231.207 44.4455Z" fill="#3D438B"/>
<path fill-rule="evenodd" clip-rule="evenodd" d="M238.517 40.7895H237.085V36.5686H238.291C238.932 36.5686 239.158 36.757 239.196 37.0962C239.234 37.6238 238.932 37.8876 238.442 37.8876H237.99L237.425 39.1313H238.555C239.083 39.1313 239.61 39.5081 239.535 39.9981C239.46 40.4503 239.045 40.7895 238.517 40.7895ZM238.744 42.1462H235.352V35.1742H238.593C239.723 35.1742 240.703 35.5134 240.854 36.5686C240.967 37.36 240.741 37.9253 240.138 38.3399C241.043 38.7544 241.419 39.8096 241.08 40.8272C240.779 41.807 239.573 42.1462 238.744 42.1462ZM244.962 36.7193C245.979 36.7193 246.846 37.5861 246.846 38.6037C246.846 39.6589 246.017 40.488 244.962 40.488C243.944 40.488 243.078 39.6212 243.078 38.6037C243.115 37.5484 243.944 36.7193 244.962 36.7193ZM244.962 35.0234C246.884 35.0234 248.467 36.6063 248.467 38.6037C248.467 40.5634 246.884 42.1839 244.962 42.1839C243.04 42.1839 241.457 40.6011 241.457 38.6037C241.457 36.644 243.04 35.0234 244.962 35.0234ZM234.636 35.1742V42.1462H232.902V37.7369L231.772 42.1839H230.113L229.02 37.8122V42.1462H227.362V35.1742H230.038L230.942 39.0936L231.847 35.1742H234.636ZM224.95 35.1742H226.646V42.1462H224.95V35.1742ZM221.822 40.7895H220.39V36.5686H221.596C222.237 36.5686 222.463 36.757 222.501 37.0962C222.538 37.6238 222.237 37.8876 221.747 37.8876H221.295L220.729 39.1313H221.86C222.388 39.1313 222.915 39.5081 222.84 39.9981C222.764 40.4503 222.35 40.7895 221.822 40.7895ZM222.086 42.1462H218.694V35.1742H221.935C223.066 35.1742 224.046 35.5134 224.197 36.5686C224.31 37.36 224.084 37.9253 223.481 38.3399C224.385 38.7544 224.762 39.8096 224.423 40.8272C224.121 41.807 222.915 42.1462 222.086 42.1462Z" fill="#DA243C"/>
<mask id="mask2" mask-type="alpha" maskUnits="userSpaceOnUse" x="192" y="10" width="81" height="70">
<path d="M266.104 19.1202C262.336 13.6179 256.042 10 248.844 10H213.833C206.522 10 200.793 13.5802 197.778 19.6101C197.665 19.8362 197.213 20.7407 196.987 20.9291C195.517 23.0019 194.613 24.2832 193.595 25.753C192.917 26.7329 192.239 27.7504 192.05 28.9187C191.862 30.087 192.239 31.2553 192.615 32.3859C193.671 35.7023 194.726 38.981 195.781 42.2974C195.856 42.5989 195.932 42.9004 195.932 43.2019V75.537C195.932 77.949 197.892 79.9087 200.303 79.9087H265.501C267.838 79.9087 269.76 77.9867 269.76 75.6501V40.6015C270.627 37.8504 271.494 35.137 272.398 32.3859C272.775 31.2553 273.114 30.087 272.963 28.9187C272.775 27.7504 272.097 26.7329 271.418 25.753" fill="#00BAE7"/>
</mask>
<g mask="url(#mask2)">
<path opacity="0.15" d="M177.376 105.449L219.823 -8.16211L216.469 -9.41519L174.022 104.196L177.376 105.449Z" fill="white"/>
<path opacity="0.15" d="M189.326 114.32L231.772 0.708984L230.113 0.0890399L187.666 113.7L189.326 114.32Z" fill="white"/>
<path opacity="0.15" d="M186.752 110.228L229.198 -3.38281L221.925 -6.10002L179.479 107.511L186.752 110.228Z" fill="white"/>
<path opacity="0.15" d="M237.475 119.773L279.921 6.16211L272.649 3.4449L230.202 117.056L237.475 119.773Z" fill="white"/>
<path opacity="0.15" d="M228.508 114.769L270.955 1.1582L267.601 -0.0948771L225.154 113.516L228.508 114.769Z" fill="white"/>
<path opacity="0.15" d="M169.81 105.349L212.256 -8.26172L204.984 -10.9789L162.537 102.632L169.81 105.349Z" fill="white"/>
<path opacity="0.15" d="M160.843 100.345L203.29 -13.2656L199.936 -14.5187L157.489 99.0922L160.843 100.345Z" fill="white"/>
</g>
</svg>
