<svg width="278" height="90" viewBox="0 0 278 90" fill="none" xmlns="http://www.w3.org/2000/svg">
<rect opacity="0.5" width="89.8776" height="89.8776" rx="15" fill="white"/>
<rect opacity="0.5" x="93.5713" width="89.8776" height="89.8776" rx="15" fill="white"/>
<rect opacity="0.5" x="187.143" width="89.8776" height="89.8776" rx="15" fill="white"/>
<path d="M82.9637 61.0178H8.03617C6.35884 61.0178 5 59.6589 5 57.9816V32.0362C5 30.3588 6.35884 29 8.03617 29H82.9637C84.6411 29 85.9999 30.3588 85.9999 32.0362V57.9816C85.9999 59.6589 84.6411 61.0178 82.9637 61.0178Z" fill="#77D9FE"/>
<path d="M21.6671 45.6242H8.77934C6.7623 45.6242 5.12744 43.5222 5.12744 40.9319V39.0635C5.12744 36.4732 5.80686 30.4434 14.7031 30.4434C23.9602 30.4434 25.319 36.4732 25.319 39.0635V40.9319C25.319 43.5222 23.6842 45.6242 21.6671 45.6242Z" fill="#DB964B"/>
<mask id="mask0" mask-type="alpha" maskUnits="userSpaceOnUse" x="5" y="30" width="21" height="16">
<path d="M21.6671 45.6242H8.77934C6.7623 45.6242 5.12744 43.5222 5.12744 40.9319V39.0635C5.12744 36.4732 5.80686 30.4434 14.7031 30.4434C23.9602 30.4434 25.319 36.4732 25.319 39.0635V40.9319C25.319 43.5222 23.6842 45.6242 21.6671 45.6242Z" fill="#DB964B"/>
</mask>
<g mask="url(#mask0)">
<path d="M15.2126 52.2284C9.62862 52.2284 5.12744 51.4852 5.12744 50.5723V42.2069C5.12744 41.2939 9.64985 40.5508 15.2126 40.5508C20.7754 40.5508 25.2978 41.2939 25.2978 42.2069V50.551C25.319 51.464 20.7966 52.2284 15.2126 52.2284Z" fill="#D6B05B"/>
</g>
<path d="M41.8375 45.6242H28.9497C26.9327 45.6242 25.2979 43.5222 25.2979 40.9319V39.0635C25.2979 36.4732 25.9773 30.4434 34.8735 30.4434C44.1306 30.4434 45.4894 36.4732 45.4894 39.0635V40.9319C45.4894 43.5222 43.8546 45.6242 41.8375 45.6242Z" fill="#DB964B"/>
<mask id="mask1" mask-type="alpha" maskUnits="userSpaceOnUse" x="25" y="30" width="21" height="16">
<path d="M41.8375 45.6242H28.9497C26.9327 45.6242 25.2979 43.5222 25.2979 40.9319V39.0635C25.2979 36.4732 25.9773 30.4434 34.8735 30.4434C44.1306 30.4434 45.4894 36.4732 45.4894 39.0635V40.9319C45.4894 43.5222 43.8546 45.6242 41.8375 45.6242Z" fill="#DB964B"/>
</mask>
<g mask="url(#mask1)">
<path d="M35.404 52.2284C29.82 52.2284 25.3188 51.4852 25.3188 50.5723V42.2069C25.3188 41.2939 29.8413 40.5508 35.404 40.5508C40.9668 40.5508 45.4892 41.2939 45.4892 42.2069V50.551C45.4892 51.464 40.988 52.2284 35.404 52.2284Z" fill="#D6B05B"/>
</g>
<path d="M62.0289 45.6242H49.1412C47.1241 45.6242 45.4893 43.5222 45.4893 40.9319V39.0635C45.4893 36.4732 46.1687 30.4434 55.0649 30.4434C64.322 30.4434 65.6808 36.4732 65.6808 39.0635V40.9319C65.6808 43.5222 64.046 45.6242 62.0289 45.6242Z" fill="#DB964B"/>
<mask id="mask2" mask-type="alpha" maskUnits="userSpaceOnUse" x="45" y="30" width="21" height="16">
<path d="M62.0289 45.6242H49.1412C47.1241 45.6242 45.4893 43.5222 45.4893 40.9319V39.0635C45.4893 36.4732 46.1687 30.4434 55.0649 30.4434C64.322 30.4434 65.6808 36.4732 65.6808 39.0635V40.9319C65.6808 43.5222 64.046 45.6242 62.0289 45.6242Z" fill="#DB964B"/>
</mask>
<g mask="url(#mask2)">
<path d="M55.5959 52.2284C50.0119 52.2284 45.5107 51.4852 45.5107 50.5723V42.2069C45.5107 41.2939 50.0331 40.5508 55.5959 40.5508C61.1587 40.5508 65.6811 41.2939 65.6811 42.2069V50.551C65.6811 51.464 61.1587 52.2284 55.5959 52.2284Z" fill="#D6B05B"/>
</g>
<path d="M82.2208 45.6242H69.333C67.316 45.6242 65.6812 43.5222 65.6812 40.9319V39.0635C65.6812 36.4732 66.3606 30.4434 75.2568 30.4434C84.5139 30.4434 85.8727 36.4732 85.8727 39.0635V40.9319C85.8727 43.5222 84.2379 45.6242 82.2208 45.6242Z" fill="#DB964B"/>
<mask id="mask3" mask-type="alpha" maskUnits="userSpaceOnUse" x="65" y="30" width="21" height="16">
<path d="M82.2208 45.6242H69.333C67.316 45.6242 65.6812 43.5222 65.6812 40.9319V39.0635C65.6812 36.4732 66.3606 30.4434 75.2568 30.4434C84.5139 30.4434 85.8727 36.4732 85.8727 39.0635V40.9319C85.8727 43.5222 84.2379 45.6242 82.2208 45.6242Z" fill="#DB964B"/>
</mask>
<g mask="url(#mask3)">
<path d="M75.7873 52.2284C70.2033 52.2284 65.7021 51.4852 65.7021 50.5723V42.2069C65.7021 41.2939 70.2246 40.5508 75.7873 40.5508C81.3501 40.5508 85.8725 41.2939 85.8725 42.2069V50.551C85.8725 51.464 81.3501 52.2284 75.7873 52.2284Z" fill="#D6B05B"/>
</g>
<path d="M21.6671 60.8058H8.77934C6.7623 60.8058 5.12744 58.7039 5.12744 56.1136V54.2452C5.12744 51.6549 5.80686 45.625 14.7031 45.625C23.9602 45.625 25.319 51.6549 25.319 54.2452V56.1136C25.319 58.7039 23.6842 60.8058 21.6671 60.8058Z" fill="#DB964B"/>
<mask id="mask4" mask-type="alpha" maskUnits="userSpaceOnUse" x="5" y="45" width="21" height="16">
<path d="M21.6671 60.8058H8.77934C6.7623 60.8058 5.12744 58.7039 5.12744 56.1136V54.2452C5.12744 51.6549 5.80686 45.625 14.7031 45.625C23.9602 45.625 25.319 51.6549 25.319 54.2452V56.1136C25.319 58.7039 23.6842 60.8058 21.6671 60.8058Z" fill="#DB964B"/>
</mask>
<g mask="url(#mask4)">
<path d="M15.2126 67.4083C9.62862 67.4083 5.12744 66.6652 5.12744 65.7522V57.408C5.12744 56.4951 9.64985 55.752 15.2126 55.752C20.7754 55.752 25.2978 56.4951 25.2978 57.408V65.7522C25.319 66.6439 20.7966 67.4083 15.2126 67.4083Z" fill="#D6B05B"/>
</g>
<path d="M41.8375 60.8058H28.9497C26.9327 60.8058 25.2979 58.7039 25.2979 56.1136V54.2452C25.2979 51.6549 25.9773 45.625 34.8735 45.625C44.1306 45.625 45.4894 51.6549 45.4894 54.2452V56.1136C45.4894 58.7039 43.8546 60.8058 41.8375 60.8058Z" fill="#DB964B"/>
<mask id="mask5" mask-type="alpha" maskUnits="userSpaceOnUse" x="25" y="45" width="21" height="16">
<path d="M41.8375 60.8058H28.9497C26.9327 60.8058 25.2979 58.7039 25.2979 56.1136V54.2452C25.2979 51.6549 25.9773 45.625 34.8735 45.625C44.1306 45.625 45.4894 51.6549 45.4894 54.2452V56.1136C45.4894 58.7039 43.8546 60.8058 41.8375 60.8058Z" fill="#DB964B"/>
</mask>
<g mask="url(#mask5)">
<path d="M35.404 67.4083C29.82 67.4083 25.3188 66.6652 25.3188 65.7522V57.408C25.3188 56.4951 29.8413 55.752 35.404 55.752C40.9668 55.752 45.4892 56.4951 45.4892 57.408V65.7522C45.4892 66.6439 40.988 67.4083 35.404 67.4083Z" fill="#D6B05B"/>
</g>
<path d="M62.0289 60.8058H49.1412C47.1241 60.8058 45.4893 58.7039 45.4893 56.1136V54.2452C45.4893 51.6549 46.1687 45.625 55.0649 45.625C64.322 45.625 65.6808 51.6549 65.6808 54.2452V56.1136C65.6808 58.7039 64.046 60.8058 62.0289 60.8058Z" fill="#DB964B"/>
<mask id="mask6" mask-type="alpha" maskUnits="userSpaceOnUse" x="45" y="45" width="21" height="16">
<path d="M62.0289 60.8058H49.1412C47.1241 60.8058 45.4893 58.7039 45.4893 56.1136V54.2452C45.4893 51.6549 46.1687 45.625 55.0649 45.625C64.322 45.625 65.6808 51.6549 65.6808 54.2452V56.1136C65.6808 58.7039 64.046 60.8058 62.0289 60.8058Z" fill="#DB964B"/>
</mask>
<g mask="url(#mask6)">
<path d="M55.5959 67.4083C50.0119 67.4083 45.5107 66.6652 45.5107 65.7522V57.408C45.5107 56.4951 50.0331 55.752 55.5959 55.752C61.1587 55.752 65.6811 56.4951 65.6811 57.408V65.7522C65.6811 66.6439 61.1587 67.4083 55.5959 67.4083Z" fill="#D6B05B"/>
</g>
<path d="M82.2208 60.8058H69.333C67.316 60.8058 65.6812 58.7039 65.6812 56.1136V54.2452C65.6812 51.6549 66.3606 45.625 75.2568 45.625C84.5139 45.625 85.8727 51.6549 85.8727 54.2452V56.1136C85.8727 58.7039 84.2379 60.8058 82.2208 60.8058Z" fill="#DB964B"/>
<mask id="mask7" mask-type="alpha" maskUnits="userSpaceOnUse" x="65" y="45" width="21" height="16">
<path d="M82.2208 60.8058H69.333C67.316 60.8058 65.6812 58.7039 65.6812 56.1136V54.2452C65.6812 51.6549 66.3606 45.625 75.2568 45.625C84.5139 45.625 85.8727 51.6549 85.8727 54.2452V56.1136C85.8727 58.7039 84.2379 60.8058 82.2208 60.8058Z" fill="#DB964B"/>
</mask>
<g mask="url(#mask7)">
<path d="M75.7873 67.4083C70.2033 67.4083 65.7021 66.6652 65.7021 65.7522V57.408C65.7021 56.4951 70.2246 55.752 75.7873 55.752C81.3501 55.752 85.8725 56.4951 85.8725 57.408V65.7522C85.8725 66.6439 81.3501 67.4083 75.7873 67.4083Z" fill="#D6B05B"/>
</g>
<path opacity="0.3" d="M84.0253 61.0823H6.95334C5.87051 61.0823 5 60.2118 5 59.129V31.1877C5 30.1049 5.87051 29.2344 6.95334 29.2344H84.0253C85.1082 29.2344 85.9787 30.1049 85.9787 31.1877V59.1077C85.9999 60.1906 85.1082 61.0823 84.0253 61.0823Z" fill="white"/>
<mask id="mask8" mask-type="alpha" maskUnits="userSpaceOnUse" x="5" y="29" width="81" height="33">
<path d="M82.9637 61.0178H8.03617C6.35884 61.0178 5 59.6589 5 57.9816V32.0362C5 30.3588 6.35884 29 8.03617 29H82.9637C84.6411 29 85.9999 30.3588 85.9999 32.0362V57.9816C85.9999 59.6589 84.6411 61.0178 82.9637 61.0178Z" fill="#77D9FE"/>
</mask>
<g mask="url(#mask8)">
<path d="M90.2037 25.5605H2.1123V33.6287H90.2037V25.5605Z" fill="#DE565B"/>
<path opacity="0.15" d="M39.0694 75.4712L62.9829 11.4648L61.0934 10.7589L37.1798 74.7652L39.0694 75.4712Z" fill="white"/>
<path opacity="0.15" d="M45.8013 80.4712L69.7148 16.4648L68.78 16.1156L44.8665 80.1219L45.8013 80.4712Z" fill="white"/>
<path opacity="0.15" d="M44.3511 78.1645L68.2646 14.1582L64.1673 12.6274L40.2537 76.6337L44.3511 78.1645Z" fill="white"/>
<path opacity="0.15" d="M-4.01316 71.0024L19.9004 6.99609L18.0108 6.29013L-5.90272 70.2965L-4.01316 71.0024Z" fill="white"/>
<path opacity="0.15" d="M2.70608 75.9751L26.6196 11.9688L25.6848 11.6195L1.77125 75.6258L2.70608 75.9751Z" fill="white"/>
<path opacity="0.15" d="M1.26858 73.6958L25.1821 9.68945L21.0848 8.15863L-2.82878 72.165L1.26858 73.6958Z" fill="white"/>
<path opacity="0.15" d="M72.9278 83.5415L96.8413 19.5352L92.744 18.0043L68.8304 82.0107L72.9278 83.5415Z" fill="white"/>
<path opacity="0.15" d="M67.876 80.7212L91.7896 16.7148L89.9 16.0089L65.9864 80.0152L67.876 80.7212Z" fill="white"/>
<path opacity="0.15" d="M34.8067 75.4145L58.7202 11.4082L54.6229 9.87738L30.7093 73.8837L34.8067 75.4145Z" fill="white"/>
<path opacity="0.15" d="M29.7549 72.5942L53.6685 8.58789L51.7789 7.88193L27.8654 71.8882L29.7549 72.5942Z" fill="white"/>
<path fill-rule="evenodd" clip-rule="evenodd" d="M44.4913 52.2725C40.351 51.7417 37.0813 51.7841 35.2129 53.1005C34.6821 50.9773 34.4698 49.0452 34.8307 47.4316C35.4889 44.5865 37.2724 43.9283 38.9497 43.8434C41.0517 43.716 44.3427 44.4167 47.0179 44.7988C50.4787 45.2872 53.5786 45.3721 55.6805 44.1619C56.3387 45.9029 56.4661 47.6651 56.1688 49.4486C55.8716 51.4869 54.6614 52.5485 52.6868 52.782C50.139 53.0793 47.2727 52.6334 44.4913 52.2725Z" fill="white"/>
<path fill-rule="evenodd" clip-rule="evenodd" d="M43.0051 44.9046C43.3236 44.9046 43.4722 45.1594 43.4722 45.4142C43.4722 45.6902 43.3236 45.945 43.0263 45.945C42.7079 45.945 42.5592 45.7327 42.5592 45.4354C42.538 45.1594 42.6654 44.9046 43.0051 44.9046ZM43.0051 44.6923C42.5592 44.6923 42.2408 44.9259 42.2408 45.393C42.2408 45.8601 42.5168 46.1149 43.0051 46.1149C43.4722 46.1149 43.7695 45.8601 43.7695 45.393C43.7695 44.9471 43.4722 44.6923 43.0051 44.6923ZM41.349 45.3505V44.9259C41.5401 44.9259 41.7949 44.8834 41.7949 45.1382C41.7949 45.3505 41.5401 45.3505 41.349 45.3505ZM41.0518 46.1149H41.349V45.5416C41.5826 45.5416 41.8798 45.5416 42.0284 45.3293C42.1771 45.117 42.1134 44.756 41.6887 44.7348H41.0518V46.1149ZM39.6292 44.7348H39.884C39.884 44.8622 39.884 45.5628 39.9052 45.669C39.9689 45.9662 40.4997 45.9662 40.521 45.6478C40.5422 45.4567 40.521 44.9471 40.521 44.7348H40.7758C40.7758 44.9046 40.797 45.6478 40.7545 45.7964C40.6696 46.1786 40.1176 46.1998 39.8628 46.0724C39.6292 45.9662 39.608 45.7752 39.608 45.5416L39.6292 44.7348ZM38.6738 45.3293V44.9259C38.8649 44.9259 39.1409 44.8834 39.1409 45.117C39.1409 45.3717 38.8436 45.3293 38.6738 45.3293ZM38.3978 46.1149H38.695V45.5204H38.8649L39.1834 46.1149H39.5231L39.1409 45.4779C39.3108 45.4142 39.4594 45.3081 39.4594 45.0957C39.4594 44.8197 39.2258 44.7348 39.0135 44.7348H38.3978V46.1149ZM37.6334 45.3505V45.5416H37.867V45.8388C37.6334 45.9238 37.2513 45.945 37.1451 45.6478C37.0389 45.3505 37.1451 44.9046 37.5697 44.9046C37.7396 44.9046 37.8457 44.9471 37.9307 45.0957L38.0793 44.9046C37.9519 44.756 37.8245 44.7136 37.591 44.7136C36.678 44.7136 36.6992 45.669 37.0389 45.945C37.3149 46.1786 37.7821 46.1149 38.1218 46.0299V45.3717L37.6334 45.3505ZM42.7503 52.4844C40.245 52.2509 37.8457 52.3571 36.3595 53.5885C35.8924 53.5036 35.4253 53.4399 34.9582 53.355C34.3849 51.4653 34.2575 49.4907 34.5123 47.4525C34.9157 45.4567 35.9773 43.6944 38.4827 43.5246C41.0942 43.3759 44.64 44.0129 48.1857 44.3738C50.7123 44.6286 52.9204 44.4163 54.3854 43.291C54.9162 43.4609 55.4683 43.6095 55.9991 43.7793C56.6785 45.7115 56.721 47.6223 56.4025 49.512C55.9566 52.1872 54.2368 53.1214 51.9013 53.1426C48.6953 53.1639 45.3406 52.7392 42.7503 52.4844ZM44.4914 52.2721C40.3511 51.7413 37.0814 51.7838 35.213 53.1002C34.6822 50.977 34.4699 49.0449 34.8308 47.4312C35.489 44.5862 37.2725 43.928 38.9498 43.843C41.0518 43.7157 44.3427 44.4163 47.018 44.7985C50.4788 45.2868 53.5786 45.3717 55.6806 44.1615C56.3388 45.9025 56.4662 47.6648 56.1689 49.4483C55.8717 51.4865 54.6615 52.5481 52.6869 52.7817C50.139 53.0789 47.2727 52.6331 44.4914 52.2721Z" fill="#3D438B"/>
<path fill-rule="evenodd" clip-rule="evenodd" d="M48.9713 50.0226H48.1008V47.4323H48.8439C49.2261 47.4323 49.396 47.5384 49.396 47.7507C49.4172 48.0692 49.2261 48.2391 48.9289 48.2391H48.6528L48.3131 49.0034H48.9926C49.3323 49.0034 49.6295 49.237 49.587 49.5342C49.5446 49.8102 49.2898 50.0226 48.9713 50.0226ZM49.1199 50.8718H47.018V46.5617H49.0138C49.7144 46.5617 50.3089 46.7528 50.4151 47.4323C50.5 47.9206 50.3302 48.2603 49.9692 48.5151C50.5213 48.7699 50.7548 49.4281 50.5637 50.0438C50.3726 50.6595 49.6295 50.8718 49.1199 50.8718ZM52.9417 47.5172C53.5787 47.5172 54.0882 48.048 54.0882 48.6849C54.0882 49.3219 53.5787 49.8527 52.9417 49.8527C52.3047 49.8527 51.7952 49.3219 51.7952 48.6849C51.7952 48.048 52.3047 47.5172 52.9417 47.5172ZM52.9417 46.498C54.1307 46.498 55.1074 47.4747 55.1074 48.6849C55.1074 49.8952 54.1519 50.8718 52.9417 50.8718C51.7315 50.8718 50.776 49.8952 50.776 48.6849C50.776 47.4747 51.7527 46.498 52.9417 46.498ZM46.5933 46.5617V50.8718H45.5317V48.1541L44.8311 50.8718H43.812L43.1538 48.1754V50.8718H42.1346V46.5617H43.7907L44.3428 48.9822L44.8948 46.5617H46.5933ZM40.6484 46.5617H41.6888V50.8718H40.6484V46.5617ZM38.7375 50.0226H37.867V47.4323H38.6101C38.9923 47.4323 39.1622 47.5384 39.1622 47.7507C39.1834 48.0692 38.9923 48.2391 38.6951 48.2391H38.419L38.0793 49.0034H38.7588C39.0985 49.0034 39.3957 49.237 39.3532 49.5342C39.3108 49.8102 39.056 50.0226 38.7375 50.0226ZM38.8861 50.8718H36.7842V46.5617H38.78C39.4806 46.5617 40.0751 46.7528 40.1813 47.4323C40.2662 47.9206 40.0964 48.2603 39.7354 48.5151C40.2875 48.7699 40.521 49.4281 40.3299 50.0438C40.1176 50.6595 39.3957 50.8718 38.8861 50.8718Z" fill="#DA243C"/>
</g>
<path d="M175.964 61.0178H101.036C99.3588 61.0178 98 59.6589 98 57.9816V32.0362C98 30.3588 99.3588 29 101.036 29H175.964C177.641 29 179 30.3588 179 32.0362V57.9816C179 59.6589 177.641 61.0178 175.964 61.0178Z" fill="#77D9FE"/>
<path d="M114.667 45.6242H101.779C99.7623 45.6242 98.1274 43.5222 98.1274 40.9319V39.0635C98.1274 36.4732 98.8069 30.4434 107.703 30.4434C116.96 30.4434 118.319 36.4732 118.319 39.0635V40.9319C118.319 43.5222 116.684 45.6242 114.667 45.6242Z" fill="#DB964B"/>
<mask id="mask9" mask-type="alpha" maskUnits="userSpaceOnUse" x="98" y="30" width="21" height="16">
<path d="M114.667 45.6242H101.779C99.7623 45.6242 98.1274 43.5222 98.1274 40.9319V39.0635C98.1274 36.4732 98.8069 30.4434 107.703 30.4434C116.96 30.4434 118.319 36.4732 118.319 39.0635V40.9319C118.319 43.5222 116.684 45.6242 114.667 45.6242Z" fill="#DB964B"/>
</mask>
<g mask="url(#mask9)">
<path d="M108.213 52.2284C102.629 52.2284 98.1274 51.4852 98.1274 50.5723V42.2069C98.1274 41.2939 102.65 40.5508 108.213 40.5508C113.775 40.5508 118.298 41.2939 118.298 42.2069V50.551C118.319 51.464 113.797 52.2284 108.213 52.2284Z" fill="#D6B05B"/>
</g>
<path d="M134.838 45.6242H121.95C119.933 45.6242 118.298 43.5222 118.298 40.9319V39.0635C118.298 36.4732 118.977 30.4434 127.873 30.4434C137.131 30.4434 138.489 36.4732 138.489 39.0635V40.9319C138.489 43.5222 136.855 45.6242 134.838 45.6242Z" fill="#DB964B"/>
<mask id="mask10" mask-type="alpha" maskUnits="userSpaceOnUse" x="118" y="30" width="21" height="16">
<path d="M134.838 45.6242H121.95C119.933 45.6242 118.298 43.5222 118.298 40.9319V39.0635C118.298 36.4732 118.977 30.4434 127.873 30.4434C137.131 30.4434 138.489 36.4732 138.489 39.0635V40.9319C138.489 43.5222 136.855 45.6242 134.838 45.6242Z" fill="#DB964B"/>
</mask>
<g mask="url(#mask10)">
<path d="M128.404 52.2284C122.82 52.2284 118.319 51.4852 118.319 50.5723V42.2069C118.319 41.2939 122.841 40.5508 128.404 40.5508C133.967 40.5508 138.489 41.2939 138.489 42.2069V50.551C138.489 51.464 133.988 52.2284 128.404 52.2284Z" fill="#D6B05B"/>
</g>
<path d="M155.029 45.6242H142.141C140.124 45.6242 138.489 43.5222 138.489 40.9319V39.0635C138.489 36.4732 139.169 30.4434 148.065 30.4434C157.322 30.4434 158.681 36.4732 158.681 39.0635V40.9319C158.681 43.5222 157.046 45.6242 155.029 45.6242Z" fill="#DB964B"/>
<mask id="mask11" mask-type="alpha" maskUnits="userSpaceOnUse" x="138" y="30" width="21" height="16">
<path d="M155.029 45.6242H142.141C140.124 45.6242 138.489 43.5222 138.489 40.9319V39.0635C138.489 36.4732 139.169 30.4434 148.065 30.4434C157.322 30.4434 158.681 36.4732 158.681 39.0635V40.9319C158.681 43.5222 157.046 45.6242 155.029 45.6242Z" fill="#DB964B"/>
</mask>
<g mask="url(#mask11)">
<path d="M148.596 52.2284C143.012 52.2284 138.511 51.4852 138.511 50.5723V42.2069C138.511 41.2939 143.033 40.5508 148.596 40.5508C154.159 40.5508 158.681 41.2939 158.681 42.2069V50.551C158.681 51.464 154.159 52.2284 148.596 52.2284Z" fill="#D6B05B"/>
</g>
<path d="M175.221 45.6242H162.333C160.316 45.6242 158.681 43.5222 158.681 40.9319V39.0635C158.681 36.4732 159.361 30.4434 168.257 30.4434C177.514 30.4434 178.873 36.4732 178.873 39.0635V40.9319C178.873 43.5222 177.238 45.6242 175.221 45.6242Z" fill="#DB964B"/>
<mask id="mask12" mask-type="alpha" maskUnits="userSpaceOnUse" x="158" y="30" width="21" height="16">
<path d="M175.221 45.6242H162.333C160.316 45.6242 158.681 43.5222 158.681 40.9319V39.0635C158.681 36.4732 159.361 30.4434 168.257 30.4434C177.514 30.4434 178.873 36.4732 178.873 39.0635V40.9319C178.873 43.5222 177.238 45.6242 175.221 45.6242Z" fill="#DB964B"/>
</mask>
<g mask="url(#mask12)">
<path d="M168.787 52.2284C163.203 52.2284 158.702 51.4852 158.702 50.5723V42.2069C158.702 41.2939 163.225 40.5508 168.787 40.5508C174.35 40.5508 178.873 41.2939 178.873 42.2069V50.551C178.873 51.464 174.35 52.2284 168.787 52.2284Z" fill="#D6B05B"/>
</g>
<path d="M114.667 60.8058H101.779C99.7623 60.8058 98.1274 58.7039 98.1274 56.1136V54.2452C98.1274 51.6549 98.8069 45.625 107.703 45.625C116.96 45.625 118.319 51.6549 118.319 54.2452V56.1136C118.319 58.7039 116.684 60.8058 114.667 60.8058Z" fill="#DB964B"/>
<mask id="mask13" mask-type="alpha" maskUnits="userSpaceOnUse" x="98" y="45" width="21" height="16">
<path d="M114.667 60.8058H101.779C99.7623 60.8058 98.1274 58.7039 98.1274 56.1136V54.2452C98.1274 51.6549 98.8069 45.625 107.703 45.625C116.96 45.625 118.319 51.6549 118.319 54.2452V56.1136C118.319 58.7039 116.684 60.8058 114.667 60.8058Z" fill="#DB964B"/>
</mask>
<g mask="url(#mask13)">
<path d="M108.213 67.4083C102.629 67.4083 98.1274 66.6652 98.1274 65.7522V57.408C98.1274 56.4951 102.65 55.752 108.213 55.752C113.775 55.752 118.298 56.4951 118.298 57.408V65.7522C118.319 66.6439 113.797 67.4083 108.213 67.4083Z" fill="#D6B05B"/>
</g>
<path d="M134.838 60.8058H121.95C119.933 60.8058 118.298 58.7039 118.298 56.1136V54.2452C118.298 51.6549 118.977 45.625 127.873 45.625C137.131 45.625 138.489 51.6549 138.489 54.2452V56.1136C138.489 58.7039 136.855 60.8058 134.838 60.8058Z" fill="#DB964B"/>
<mask id="mask14" mask-type="alpha" maskUnits="userSpaceOnUse" x="118" y="45" width="21" height="16">
<path d="M134.838 60.8058H121.95C119.933 60.8058 118.298 58.7039 118.298 56.1136V54.2452C118.298 51.6549 118.977 45.625 127.873 45.625C137.131 45.625 138.489 51.6549 138.489 54.2452V56.1136C138.489 58.7039 136.855 60.8058 134.838 60.8058Z" fill="#DB964B"/>
</mask>
<g mask="url(#mask14)">
<path d="M128.404 67.4083C122.82 67.4083 118.319 66.6652 118.319 65.7522V57.408C118.319 56.4951 122.841 55.752 128.404 55.752C133.967 55.752 138.489 56.4951 138.489 57.408V65.7522C138.489 66.6439 133.988 67.4083 128.404 67.4083Z" fill="#D6B05B"/>
</g>
<path d="M155.029 60.8058H142.141C140.124 60.8058 138.489 58.7039 138.489 56.1136V54.2452C138.489 51.6549 139.169 45.625 148.065 45.625C157.322 45.625 158.681 51.6549 158.681 54.2452V56.1136C158.681 58.7039 157.046 60.8058 155.029 60.8058Z" fill="#DB964B"/>
<mask id="mask15" mask-type="alpha" maskUnits="userSpaceOnUse" x="138" y="45" width="21" height="16">
<path d="M155.029 60.8058H142.141C140.124 60.8058 138.489 58.7039 138.489 56.1136V54.2452C138.489 51.6549 139.169 45.625 148.065 45.625C157.322 45.625 158.681 51.6549 158.681 54.2452V56.1136C158.681 58.7039 157.046 60.8058 155.029 60.8058Z" fill="#DB964B"/>
</mask>
<g mask="url(#mask15)">
<path d="M148.596 67.4083C143.012 67.4083 138.511 66.6652 138.511 65.7522V57.408C138.511 56.4951 143.033 55.752 148.596 55.752C154.159 55.752 158.681 56.4951 158.681 57.408V65.7522C158.681 66.6439 154.159 67.4083 148.596 67.4083Z" fill="#D6B05B"/>
</g>
<path d="M175.221 60.8058H162.333C160.316 60.8058 158.681 58.7039 158.681 56.1136V54.2452C158.681 51.6549 159.361 45.625 168.257 45.625C177.514 45.625 178.873 51.6549 178.873 54.2452V56.1136C178.873 58.7039 177.238 60.8058 175.221 60.8058Z" fill="#DB964B"/>
<mask id="mask16" mask-type="alpha" maskUnits="userSpaceOnUse" x="158" y="45" width="21" height="16">
<path d="M175.221 60.8058H162.333C160.316 60.8058 158.681 58.7039 158.681 56.1136V54.2452C158.681 51.6549 159.361 45.625 168.257 45.625C177.514 45.625 178.873 51.6549 178.873 54.2452V56.1136C178.873 58.7039 177.238 60.8058 175.221 60.8058Z" fill="#DB964B"/>
</mask>
<g mask="url(#mask16)">
<path d="M168.787 67.4083C163.203 67.4083 158.702 66.6652 158.702 65.7522V57.408C158.702 56.4951 163.225 55.752 168.787 55.752C174.35 55.752 178.873 56.4951 178.873 57.408V65.7522C178.873 66.6439 174.35 67.4083 168.787 67.4083Z" fill="#D6B05B"/>
</g>
<path opacity="0.3" d="M177.025 61.0823H99.9533C98.8705 61.0823 98 60.2118 98 59.129V31.1877C98 30.1049 98.8705 29.2344 99.9533 29.2344H177.025C178.108 29.2344 178.979 30.1049 178.979 31.1877V59.1077C179 60.1906 178.108 61.0823 177.025 61.0823Z" fill="white"/>
<mask id="mask17" mask-type="alpha" maskUnits="userSpaceOnUse" x="98" y="29" width="81" height="33">
<path d="M175.964 61.0178H101.036C99.3588 61.0178 98 59.6589 98 57.9816V32.0362C98 30.3588 99.3588 29 101.036 29H175.964C177.641 29 179 30.3588 179 32.0362V57.9816C179 59.6589 177.641 61.0178 175.964 61.0178Z" fill="#77D9FE"/>
</mask>
<g mask="url(#mask17)">
<path d="M183.204 25.5605H95.1123V33.6287H183.204V25.5605Z" fill="#DE565B"/>
<path opacity="0.15" d="M132.069 75.4712L155.983 11.4648L154.093 10.7589L130.18 74.7652L132.069 75.4712Z" fill="white"/>
<path opacity="0.15" d="M138.801 80.4712L162.715 16.4648L161.78 16.1156L137.866 80.1219L138.801 80.4712Z" fill="white"/>
<path opacity="0.15" d="M137.351 78.1645L161.265 14.1582L157.167 12.6274L133.254 76.6337L137.351 78.1645Z" fill="white"/>
<path opacity="0.15" d="M88.9868 71.0024L112.9 6.99609L111.011 6.29013L87.0973 70.2965L88.9868 71.0024Z" fill="white"/>
<path opacity="0.15" d="M95.7061 75.9751L119.62 11.9688L118.685 11.6195L94.7712 75.6258L95.7061 75.9751Z" fill="white"/>
<path opacity="0.15" d="M94.2686 73.6958L118.182 9.68945L114.085 8.15863L90.1712 72.165L94.2686 73.6958Z" fill="white"/>
<path opacity="0.15" d="M165.928 83.5415L189.841 19.5352L185.744 18.0043L161.83 82.0107L165.928 83.5415Z" fill="white"/>
<path opacity="0.15" d="M160.876 80.7212L184.79 16.7148L182.9 16.0089L158.986 80.0152L160.876 80.7212Z" fill="white"/>
<path opacity="0.15" d="M127.807 75.4145L151.72 11.4082L147.623 9.87738L123.709 73.8837L127.807 75.4145Z" fill="white"/>
<path opacity="0.15" d="M122.755 72.5942L146.668 8.58789L144.779 7.88193L120.865 71.8882L122.755 72.5942Z" fill="white"/>
<path fill-rule="evenodd" clip-rule="evenodd" d="M137.491 52.2725C133.351 51.7417 130.081 51.7841 128.213 53.1005C127.682 50.9773 127.47 49.0452 127.831 47.4316C128.489 44.5865 130.272 43.9283 131.95 43.8434C134.052 43.716 137.343 44.4167 140.018 44.7988C143.479 45.2872 146.579 45.3721 148.681 44.1619C149.339 45.9029 149.466 47.6651 149.169 49.4486C148.872 51.4869 147.661 52.5485 145.687 52.782C143.139 53.0793 140.273 52.6334 137.491 52.2725Z" fill="white"/>
<path fill-rule="evenodd" clip-rule="evenodd" d="M136.005 44.9046C136.324 44.9046 136.472 45.1594 136.472 45.4142C136.472 45.6902 136.324 45.945 136.026 45.945C135.708 45.945 135.559 45.7327 135.559 45.4354C135.538 45.1594 135.665 44.9046 136.005 44.9046ZM136.005 44.6923C135.559 44.6923 135.241 44.9259 135.241 45.393C135.241 45.8601 135.517 46.1149 136.005 46.1149C136.472 46.1149 136.769 45.8601 136.769 45.393C136.769 44.9471 136.472 44.6923 136.005 44.6923ZM134.349 45.3505V44.9259C134.54 44.9259 134.795 44.8834 134.795 45.1382C134.795 45.3505 134.54 45.3505 134.349 45.3505ZM134.052 46.1149H134.349V45.5416C134.583 45.5416 134.88 45.5416 135.028 45.3293C135.177 45.117 135.113 44.756 134.689 44.7348H134.052V46.1149ZM132.629 44.7348H132.884C132.884 44.8622 132.884 45.5628 132.905 45.669C132.969 45.9662 133.5 45.9662 133.521 45.6478C133.542 45.4567 133.521 44.9471 133.521 44.7348H133.776C133.776 44.9046 133.797 45.6478 133.755 45.7964C133.67 46.1786 133.118 46.1998 132.863 46.0724C132.629 45.9662 132.608 45.7752 132.608 45.5416L132.629 44.7348ZM131.674 45.3293V44.9259C131.865 44.9259 132.141 44.8834 132.141 45.117C132.141 45.3717 131.844 45.3293 131.674 45.3293ZM131.398 46.1149H131.695V45.5204H131.865L132.183 46.1149H132.523L132.141 45.4779C132.311 45.4142 132.459 45.3081 132.459 45.0957C132.459 44.8197 132.226 44.7348 132.014 44.7348H131.398V46.1149ZM130.633 45.3505V45.5416H130.867V45.8388C130.633 45.9238 130.251 45.945 130.145 45.6478C130.039 45.3505 130.145 44.9046 130.57 44.9046C130.74 44.9046 130.846 44.9471 130.931 45.0957L131.079 44.9046C130.952 44.756 130.825 44.7136 130.591 44.7136C129.678 44.7136 129.699 45.669 130.039 45.945C130.315 46.1786 130.782 46.1149 131.122 46.0299V45.3717L130.633 45.3505ZM135.75 52.4844C133.245 52.2509 130.846 52.3571 129.36 53.5885C128.892 53.5036 128.425 53.4399 127.958 53.355C127.385 51.4653 127.258 49.4907 127.512 47.4525C127.916 45.4567 128.977 43.6944 131.483 43.5246C134.094 43.3759 137.64 44.0129 141.186 44.3738C143.712 44.6286 145.92 44.4163 147.385 43.291C147.916 43.4609 148.468 43.6095 148.999 43.7793C149.678 45.7115 149.721 47.6223 149.402 49.512C148.957 52.1872 147.237 53.1214 144.901 53.1426C141.695 53.1639 138.341 52.7392 135.75 52.4844ZM137.491 52.2721C133.351 51.7413 130.081 51.7838 128.213 53.1002C127.682 50.977 127.47 49.0449 127.831 47.4312C128.489 44.5862 130.272 43.928 131.95 43.843C134.052 43.7157 137.343 44.4163 140.018 44.7985C143.479 45.2868 146.579 45.3717 148.681 44.1615C149.339 45.9025 149.466 47.6648 149.169 49.4483C148.872 51.4865 147.661 52.5481 145.687 52.7817C143.139 53.0789 140.273 52.6331 137.491 52.2721Z" fill="#3D438B"/>
<path fill-rule="evenodd" clip-rule="evenodd" d="M141.971 50.0226H141.101V47.4323H141.844C142.226 47.4323 142.396 47.5384 142.396 47.7507C142.417 48.0692 142.226 48.2391 141.929 48.2391H141.653L141.313 49.0034H141.993C142.332 49.0034 142.63 49.237 142.587 49.5342C142.545 49.8102 142.29 50.0226 141.971 50.0226ZM142.12 50.8718H140.018V46.5617H142.014C142.714 46.5617 143.309 46.7528 143.415 47.4323C143.5 47.9206 143.33 48.2603 142.969 48.5151C143.521 48.7699 143.755 49.4281 143.564 50.0438C143.373 50.6595 142.63 50.8718 142.12 50.8718ZM145.942 47.5172C146.579 47.5172 147.088 48.048 147.088 48.6849C147.088 49.3219 146.579 49.8527 145.942 49.8527C145.305 49.8527 144.795 49.3219 144.795 48.6849C144.795 48.048 145.305 47.5172 145.942 47.5172ZM145.942 46.498C147.131 46.498 148.107 47.4747 148.107 48.6849C148.107 49.8952 147.152 50.8718 145.942 50.8718C144.731 50.8718 143.776 49.8952 143.776 48.6849C143.776 47.4747 144.753 46.498 145.942 46.498ZM139.593 46.5617V50.8718H138.532V48.1541L137.831 50.8718H136.812L136.154 48.1754V50.8718H135.135V46.5617H136.791L137.343 48.9822L137.895 46.5617H139.593ZM133.648 46.5617H134.689V50.8718H133.648V46.5617ZM131.738 50.0226H130.867V47.4323H131.61C131.992 47.4323 132.162 47.5384 132.162 47.7507C132.183 48.0692 131.992 48.2391 131.695 48.2391H131.419L131.079 49.0034H131.759C132.098 49.0034 132.396 49.237 132.353 49.5342C132.311 49.8102 132.056 50.0226 131.738 50.0226ZM131.886 50.8718H129.784V46.5617H131.78C132.481 46.5617 133.075 46.7528 133.181 47.4323C133.266 47.9206 133.096 48.2603 132.735 48.5151C133.287 48.7699 133.521 49.4281 133.33 50.0438C133.118 50.6595 132.396 50.8718 131.886 50.8718Z" fill="#DA243C"/>
</g>
<path d="M268.964 61.0178H194.036C192.359 61.0178 191 59.6589 191 57.9816V32.0362C191 30.3588 192.359 29 194.036 29H268.964C270.641 29 272 30.3588 272 32.0362V57.9816C272 59.6589 270.641 61.0178 268.964 61.0178Z" fill="#77D9FE"/>
<path d="M207.667 45.6242H194.779C192.762 45.6242 191.127 43.5222 191.127 40.9319V39.0635C191.127 36.4732 191.807 30.4434 200.703 30.4434C209.96 30.4434 211.319 36.4732 211.319 39.0635V40.9319C211.319 43.5222 209.684 45.6242 207.667 45.6242Z" fill="#DB964B"/>
<mask id="mask18" mask-type="alpha" maskUnits="userSpaceOnUse" x="191" y="30" width="21" height="16">
<path d="M207.667 45.6242H194.779C192.762 45.6242 191.127 43.5222 191.127 40.9319V39.0635C191.127 36.4732 191.807 30.4434 200.703 30.4434C209.96 30.4434 211.319 36.4732 211.319 39.0635V40.9319C211.319 43.5222 209.684 45.6242 207.667 45.6242Z" fill="#DB964B"/>
</mask>
<g mask="url(#mask18)">
<path d="M201.213 52.2284C195.629 52.2284 191.127 51.4852 191.127 50.5723V42.2069C191.127 41.2939 195.65 40.5508 201.213 40.5508C206.775 40.5508 211.298 41.2939 211.298 42.2069V50.551C211.319 51.464 206.797 52.2284 201.213 52.2284Z" fill="#D6B05B"/>
</g>
<path d="M227.838 45.6242H214.95C212.933 45.6242 211.298 43.5222 211.298 40.9319V39.0635C211.298 36.4732 211.977 30.4434 220.873 30.4434C230.131 30.4434 231.489 36.4732 231.489 39.0635V40.9319C231.489 43.5222 229.855 45.6242 227.838 45.6242Z" fill="#DB964B"/>
<mask id="mask19" mask-type="alpha" maskUnits="userSpaceOnUse" x="211" y="30" width="21" height="16">
<path d="M227.838 45.6242H214.95C212.933 45.6242 211.298 43.5222 211.298 40.9319V39.0635C211.298 36.4732 211.977 30.4434 220.873 30.4434C230.131 30.4434 231.489 36.4732 231.489 39.0635V40.9319C231.489 43.5222 229.855 45.6242 227.838 45.6242Z" fill="#DB964B"/>
</mask>
<g mask="url(#mask19)">
<path d="M221.404 52.2284C215.82 52.2284 211.319 51.4852 211.319 50.5723V42.2069C211.319 41.2939 215.841 40.5508 221.404 40.5508C226.967 40.5508 231.489 41.2939 231.489 42.2069V50.551C231.489 51.464 226.988 52.2284 221.404 52.2284Z" fill="#D6B05B"/>
</g>
<path d="M248.029 45.6242H235.141C233.124 45.6242 231.489 43.5222 231.489 40.9319V39.0635C231.489 36.4732 232.169 30.4434 241.065 30.4434C250.322 30.4434 251.681 36.4732 251.681 39.0635V40.9319C251.681 43.5222 250.046 45.6242 248.029 45.6242Z" fill="#DB964B"/>
<mask id="mask20" mask-type="alpha" maskUnits="userSpaceOnUse" x="231" y="30" width="21" height="16">
<path d="M248.029 45.6242H235.141C233.124 45.6242 231.489 43.5222 231.489 40.9319V39.0635C231.489 36.4732 232.169 30.4434 241.065 30.4434C250.322 30.4434 251.681 36.4732 251.681 39.0635V40.9319C251.681 43.5222 250.046 45.6242 248.029 45.6242Z" fill="#DB964B"/>
</mask>
<g mask="url(#mask20)">
<path d="M241.596 52.2284C236.012 52.2284 231.511 51.4852 231.511 50.5723V42.2069C231.511 41.2939 236.033 40.5508 241.596 40.5508C247.159 40.5508 251.681 41.2939 251.681 42.2069V50.551C251.681 51.464 247.159 52.2284 241.596 52.2284Z" fill="#D6B05B"/>
</g>
<path d="M268.221 45.6242H255.333C253.316 45.6242 251.681 43.5222 251.681 40.9319V39.0635C251.681 36.4732 252.361 30.4434 261.257 30.4434C270.514 30.4434 271.873 36.4732 271.873 39.0635V40.9319C271.873 43.5222 270.238 45.6242 268.221 45.6242Z" fill="#DB964B"/>
<mask id="mask21" mask-type="alpha" maskUnits="userSpaceOnUse" x="251" y="30" width="21" height="16">
<path d="M268.221 45.6242H255.333C253.316 45.6242 251.681 43.5222 251.681 40.9319V39.0635C251.681 36.4732 252.361 30.4434 261.257 30.4434C270.514 30.4434 271.873 36.4732 271.873 39.0635V40.9319C271.873 43.5222 270.238 45.6242 268.221 45.6242Z" fill="#DB964B"/>
</mask>
<g mask="url(#mask21)">
<path d="M261.787 52.2284C256.203 52.2284 251.702 51.4852 251.702 50.5723V42.2069C251.702 41.2939 256.225 40.5508 261.787 40.5508C267.35 40.5508 271.873 41.2939 271.873 42.2069V50.551C271.873 51.464 267.35 52.2284 261.787 52.2284Z" fill="#D6B05B"/>
</g>
<path d="M207.667 60.8058H194.779C192.762 60.8058 191.127 58.7039 191.127 56.1136V54.2452C191.127 51.6549 191.807 45.625 200.703 45.625C209.96 45.625 211.319 51.6549 211.319 54.2452V56.1136C211.319 58.7039 209.684 60.8058 207.667 60.8058Z" fill="#DB964B"/>
<mask id="mask22" mask-type="alpha" maskUnits="userSpaceOnUse" x="191" y="45" width="21" height="16">
<path d="M207.667 60.8058H194.779C192.762 60.8058 191.127 58.7039 191.127 56.1136V54.2452C191.127 51.6549 191.807 45.625 200.703 45.625C209.96 45.625 211.319 51.6549 211.319 54.2452V56.1136C211.319 58.7039 209.684 60.8058 207.667 60.8058Z" fill="#DB964B"/>
</mask>
<g mask="url(#mask22)">
<path d="M201.213 67.4083C195.629 67.4083 191.127 66.6652 191.127 65.7522V57.408C191.127 56.4951 195.65 55.752 201.213 55.752C206.775 55.752 211.298 56.4951 211.298 57.408V65.7522C211.319 66.6439 206.797 67.4083 201.213 67.4083Z" fill="#D6B05B"/>
</g>
<path d="M227.838 60.8058H214.95C212.933 60.8058 211.298 58.7039 211.298 56.1136V54.2452C211.298 51.6549 211.977 45.625 220.873 45.625C230.131 45.625 231.489 51.6549 231.489 54.2452V56.1136C231.489 58.7039 229.855 60.8058 227.838 60.8058Z" fill="#DB964B"/>
<mask id="mask23" mask-type="alpha" maskUnits="userSpaceOnUse" x="211" y="45" width="21" height="16">
<path d="M227.838 60.8058H214.95C212.933 60.8058 211.298 58.7039 211.298 56.1136V54.2452C211.298 51.6549 211.977 45.625 220.873 45.625C230.131 45.625 231.489 51.6549 231.489 54.2452V56.1136C231.489 58.7039 229.855 60.8058 227.838 60.8058Z" fill="#DB964B"/>
</mask>
<g mask="url(#mask23)">
<path d="M221.404 67.4083C215.82 67.4083 211.319 66.6652 211.319 65.7522V57.408C211.319 56.4951 215.841 55.752 221.404 55.752C226.967 55.752 231.489 56.4951 231.489 57.408V65.7522C231.489 66.6439 226.988 67.4083 221.404 67.4083Z" fill="#D6B05B"/>
</g>
<path d="M248.029 60.8058H235.141C233.124 60.8058 231.489 58.7039 231.489 56.1136V54.2452C231.489 51.6549 232.169 45.625 241.065 45.625C250.322 45.625 251.681 51.6549 251.681 54.2452V56.1136C251.681 58.7039 250.046 60.8058 248.029 60.8058Z" fill="#DB964B"/>
<mask id="mask24" mask-type="alpha" maskUnits="userSpaceOnUse" x="231" y="45" width="21" height="16">
<path d="M248.029 60.8058H235.141C233.124 60.8058 231.489 58.7039 231.489 56.1136V54.2452C231.489 51.6549 232.169 45.625 241.065 45.625C250.322 45.625 251.681 51.6549 251.681 54.2452V56.1136C251.681 58.7039 250.046 60.8058 248.029 60.8058Z" fill="#DB964B"/>
</mask>
<g mask="url(#mask24)">
<path d="M241.596 67.4083C236.012 67.4083 231.511 66.6652 231.511 65.7522V57.408C231.511 56.4951 236.033 55.752 241.596 55.752C247.159 55.752 251.681 56.4951 251.681 57.408V65.7522C251.681 66.6439 247.159 67.4083 241.596 67.4083Z" fill="#D6B05B"/>
</g>
<path d="M268.221 60.8058H255.333C253.316 60.8058 251.681 58.7039 251.681 56.1136V54.2452C251.681 51.6549 252.361 45.625 261.257 45.625C270.514 45.625 271.873 51.6549 271.873 54.2452V56.1136C271.873 58.7039 270.238 60.8058 268.221 60.8058Z" fill="#DB964B"/>
<mask id="mask25" mask-type="alpha" maskUnits="userSpaceOnUse" x="251" y="45" width="21" height="16">
<path d="M268.221 60.8058H255.333C253.316 60.8058 251.681 58.7039 251.681 56.1136V54.2452C251.681 51.6549 252.361 45.625 261.257 45.625C270.514 45.625 271.873 51.6549 271.873 54.2452V56.1136C271.873 58.7039 270.238 60.8058 268.221 60.8058Z" fill="#DB964B"/>
</mask>
<g mask="url(#mask25)">
<path d="M261.787 67.4083C256.203 67.4083 251.702 66.6652 251.702 65.7522V57.408C251.702 56.4951 256.225 55.752 261.787 55.752C267.35 55.752 271.873 56.4951 271.873 57.408V65.7522C271.873 66.6439 267.35 67.4083 261.787 67.4083Z" fill="#D6B05B"/>
</g>
<path opacity="0.3" d="M270.025 61.0823H192.953C191.871 61.0823 191 60.2118 191 59.129V31.1877C191 30.1049 191.871 29.2344 192.953 29.2344H270.025C271.108 29.2344 271.979 30.1049 271.979 31.1877V59.1077C272 60.1906 271.108 61.0823 270.025 61.0823Z" fill="white"/>
<mask id="mask26" mask-type="alpha" maskUnits="userSpaceOnUse" x="191" y="29" width="81" height="33">
<path d="M268.964 61.0178H194.036C192.359 61.0178 191 59.6589 191 57.9816V32.0362C191 30.3588 192.359 29 194.036 29H268.964C270.641 29 272 30.3588 272 32.0362V57.9816C272 59.6589 270.641 61.0178 268.964 61.0178Z" fill="#77D9FE"/>
</mask>
<g mask="url(#mask26)">
<path d="M276.204 25.5605H188.112V33.6287H276.204V25.5605Z" fill="#DE565B"/>
<path opacity="0.15" d="M225.069 75.4712L248.983 11.4648L247.093 10.7589L223.18 74.7652L225.069 75.4712Z" fill="white"/>
<path opacity="0.15" d="M231.801 80.4712L255.715 16.4648L254.78 16.1156L230.866 80.1219L231.801 80.4712Z" fill="white"/>
<path opacity="0.15" d="M230.351 78.1645L254.265 14.1582L250.167 12.6274L226.254 76.6337L230.351 78.1645Z" fill="white"/>
<path opacity="0.15" d="M181.987 71.0024L205.9 6.99609L204.011 6.29013L180.097 70.2965L181.987 71.0024Z" fill="white"/>
<path opacity="0.15" d="M188.706 75.9751L212.62 11.9688L211.685 11.6195L187.771 75.6258L188.706 75.9751Z" fill="white"/>
<path opacity="0.15" d="M187.269 73.6958L211.182 9.68945L207.085 8.15863L183.171 72.165L187.269 73.6958Z" fill="white"/>
<path opacity="0.15" d="M258.928 83.5415L282.841 19.5352L278.744 18.0043L254.83 82.0107L258.928 83.5415Z" fill="white"/>
<path opacity="0.15" d="M253.876 80.7212L277.79 16.7148L275.9 16.0089L251.986 80.0152L253.876 80.7212Z" fill="white"/>
<path opacity="0.15" d="M220.807 75.4145L244.72 11.4082L240.623 9.87738L216.709 73.8837L220.807 75.4145Z" fill="white"/>
<path opacity="0.15" d="M215.755 72.5942L239.668 8.58789L237.779 7.88193L213.865 71.8882L215.755 72.5942Z" fill="white"/>
<path fill-rule="evenodd" clip-rule="evenodd" d="M230.491 52.2725C226.351 51.7417 223.081 51.7841 221.213 53.1005C220.682 50.9773 220.47 49.0452 220.831 47.4316C221.489 44.5865 223.272 43.9283 224.95 43.8434C227.052 43.716 230.343 44.4167 233.018 44.7988C236.479 45.2872 239.579 45.3721 241.681 44.1619C242.339 45.9029 242.466 47.6651 242.169 49.4486C241.872 51.4869 240.661 52.5485 238.687 52.782C236.139 53.0793 233.273 52.6334 230.491 52.2725Z" fill="white"/>
<path fill-rule="evenodd" clip-rule="evenodd" d="M229.005 44.9046C229.324 44.9046 229.472 45.1594 229.472 45.4142C229.472 45.6902 229.324 45.945 229.026 45.945C228.708 45.945 228.559 45.7327 228.559 45.4354C228.538 45.1594 228.665 44.9046 229.005 44.9046ZM229.005 44.6923C228.559 44.6923 228.241 44.9259 228.241 45.393C228.241 45.8601 228.517 46.1149 229.005 46.1149C229.472 46.1149 229.769 45.8601 229.769 45.393C229.769 44.9471 229.472 44.6923 229.005 44.6923ZM227.349 45.3505V44.9259C227.54 44.9259 227.795 44.8834 227.795 45.1382C227.795 45.3505 227.54 45.3505 227.349 45.3505ZM227.052 46.1149H227.349V45.5416C227.583 45.5416 227.88 45.5416 228.028 45.3293C228.177 45.117 228.113 44.756 227.689 44.7348H227.052V46.1149ZM225.629 44.7348H225.884C225.884 44.8622 225.884 45.5628 225.905 45.669C225.969 45.9662 226.5 45.9662 226.521 45.6478C226.542 45.4567 226.521 44.9471 226.521 44.7348H226.776C226.776 44.9046 226.797 45.6478 226.755 45.7964C226.67 46.1786 226.118 46.1998 225.863 46.0724C225.629 45.9662 225.608 45.7752 225.608 45.5416L225.629 44.7348ZM224.674 45.3293V44.9259C224.865 44.9259 225.141 44.8834 225.141 45.117C225.141 45.3717 224.844 45.3293 224.674 45.3293ZM224.398 46.1149H224.695V45.5204H224.865L225.183 46.1149H225.523L225.141 45.4779C225.311 45.4142 225.459 45.3081 225.459 45.0957C225.459 44.8197 225.226 44.7348 225.014 44.7348H224.398V46.1149ZM223.633 45.3505V45.5416H223.867V45.8388C223.633 45.9238 223.251 45.945 223.145 45.6478C223.039 45.3505 223.145 44.9046 223.57 44.9046C223.74 44.9046 223.846 44.9471 223.931 45.0957L224.079 44.9046C223.952 44.756 223.825 44.7136 223.591 44.7136C222.678 44.7136 222.699 45.669 223.039 45.945C223.315 46.1786 223.782 46.1149 224.122 46.0299V45.3717L223.633 45.3505ZM228.75 52.4844C226.245 52.2509 223.846 52.3571 222.36 53.5885C221.892 53.5036 221.425 53.4399 220.958 53.355C220.385 51.4653 220.258 49.4907 220.512 47.4525C220.916 45.4567 221.977 43.6944 224.483 43.5246C227.094 43.3759 230.64 44.0129 234.186 44.3738C236.712 44.6286 238.92 44.4163 240.385 43.291C240.916 43.4609 241.468 43.6095 241.999 43.7793C242.678 45.7115 242.721 47.6223 242.402 49.512C241.957 52.1872 240.237 53.1214 237.901 53.1426C234.695 53.1639 231.341 52.7392 228.75 52.4844ZM230.491 52.2721C226.351 51.7413 223.081 51.7838 221.213 53.1002C220.682 50.977 220.47 49.0449 220.831 47.4312C221.489 44.5862 223.272 43.928 224.95 43.843C227.052 43.7157 230.343 44.4163 233.018 44.7985C236.479 45.2868 239.579 45.3717 241.681 44.1615C242.339 45.9025 242.466 47.6648 242.169 49.4483C241.872 51.4865 240.661 52.5481 238.687 52.7817C236.139 53.0789 233.273 52.6331 230.491 52.2721Z" fill="#3D438B"/>
<path fill-rule="evenodd" clip-rule="evenodd" d="M234.971 50.0226H234.101V47.4323H234.844C235.226 47.4323 235.396 47.5384 235.396 47.7507C235.417 48.0692 235.226 48.2391 234.929 48.2391H234.653L234.313 49.0034H234.993C235.332 49.0034 235.63 49.237 235.587 49.5342C235.545 49.8102 235.29 50.0226 234.971 50.0226ZM235.12 50.8718H233.018V46.5617H235.014C235.714 46.5617 236.309 46.7528 236.415 47.4323C236.5 47.9206 236.33 48.2603 235.969 48.5151C236.521 48.7699 236.755 49.4281 236.564 50.0438C236.373 50.6595 235.63 50.8718 235.12 50.8718ZM238.942 47.5172C239.579 47.5172 240.088 48.048 240.088 48.6849C240.088 49.3219 239.579 49.8527 238.942 49.8527C238.305 49.8527 237.795 49.3219 237.795 48.6849C237.795 48.048 238.305 47.5172 238.942 47.5172ZM238.942 46.498C240.131 46.498 241.107 47.4747 241.107 48.6849C241.107 49.8952 240.152 50.8718 238.942 50.8718C237.731 50.8718 236.776 49.8952 236.776 48.6849C236.776 47.4747 237.753 46.498 238.942 46.498ZM232.593 46.5617V50.8718H231.532V48.1541L230.831 50.8718H229.812L229.154 48.1754V50.8718H228.135V46.5617H229.791L230.343 48.9822L230.895 46.5617H232.593ZM226.648 46.5617H227.689V50.8718H226.648V46.5617ZM224.738 50.0226H223.867V47.4323H224.61C224.992 47.4323 225.162 47.5384 225.162 47.7507C225.183 48.0692 224.992 48.2391 224.695 48.2391H224.419L224.079 49.0034H224.759C225.098 49.0034 225.396 49.237 225.353 49.5342C225.311 49.8102 225.056 50.0226 224.738 50.0226ZM224.886 50.8718H222.784V46.5617H224.78C225.481 46.5617 226.075 46.7528 226.181 47.4323C226.266 47.9206 226.096 48.2603 225.735 48.5151C226.287 48.7699 226.521 49.4281 226.33 50.0438C226.118 50.6595 225.396 50.8718 224.886 50.8718Z" fill="#DA243C"/>
</g>
</svg>
