<svg width="86" height="118" viewBox="0 0 86 118" fill="none" xmlns="http://www.w3.org/2000/svg">
<path d="M28.2566 23.215C24.9031 19.4581 21.5748 15.7012 18.2213 11.9443C17.0111 10.608 15.7251 8.86817 16.3303 7.15361C16.7085 6.04419 17.8179 5.31298 18.9778 5.06083C20.1124 4.80869 21.2975 4.93476 22.4825 5.01041C29.4417 5.51469 36.4764 4.75827 43.1329 2.71592C46.3351 1.78299 49.5373 0.49707 52.8908 0.49707C56.446 0.49707 59.8752 1.93428 62.8 3.9262C65.7248 5.91812 68.221 8.51518 70.6668 11.0618C71.3728 11.793 72.104 12.6251 72.0536 13.6337C72.0032 14.6422 71.1711 15.4239 70.3895 16.0542C63.2034 22.0552 56.0426 28.0562 48.8566 34.0823C47.6967 35.0657 46.5116 36.0238 45.2761 36.8811C44.3432 37.5115 43.3094 38.0914 42.2 38.167C39.4769 38.3435 37.2328 33.5781 35.6948 31.7122C33.2742 28.863 30.7528 26.039 28.2566 23.215Z" fill="#00BAE7"/>
<path opacity="0.2" d="M39.9824 37.3353C40.3606 37.6379 40.7388 37.8901 41.1171 38.0413C46.3616 32.2673 64.3897 16.5841 70.7185 11.1378C70.6933 11.1126 70.6933 11.1126 70.6681 11.0874C69.6847 10.0788 68.7266 9.07027 67.718 8.08691C60.3555 11.9951 43.0586 33.4524 39.9824 37.3353Z" fill="#1996A3"/>
<path opacity="0.2" d="M30.3501 5.061C27.7278 5.2375 25.0803 5.21229 22.458 5.03579C21.2982 4.96015 20.1131 4.83408 18.9533 5.08622C17.8186 5.33836 16.7092 6.06957 16.3058 7.17899C15.7258 8.89356 17.0118 10.6081 18.1968 11.9697C21.5503 15.7266 24.8786 19.4835 28.2321 23.2404C30.7283 26.0644 33.2497 28.8632 35.6702 31.7628C36.2502 32.4688 36.931 33.5782 37.7126 34.7129L42.2007 38.2176C42.2007 38.1924 36.6536 14.365 30.3501 5.061Z" fill="#1996A3"/>
<path d="M39.6794 36.7042C39.6794 36.7042 9.01896 29.8207 3.5727 56.1947C-1.87356 82.5688 -1.4197 101.429 7.20354 112.296C11.4143 117.516 23.1641 119.331 42.6547 116.709C52.5134 116.129 59.5481 117.364 59.5481 117.364C59.5481 117.364 87.7376 122.357 84.7119 93.5874C83.7033 78.9379 83.8294 68.6505 83.8294 68.6505C83.8294 68.6505 93.3351 37.6119 61.7166 38.6457C55.1105 39.6543 39.6794 36.7042 39.6794 36.7042Z" fill="#00BAE7"/>
<path d="M36.6054 72.8368C28.9403 79.7959 17.0896 79.2412 10.1053 71.5761C3.1462 63.911 3.70091 52.0603 11.366 45.076C19.0311 38.1169 30.8818 38.6716 37.8661 46.3367C44.8252 54.0018 44.2705 65.8777 36.6054 72.8368Z" fill="#CE8D6B"/>
<path d="M37.3378 71.6767C29.6727 78.6358 17.8221 78.0811 10.8377 70.4159C3.87862 62.7508 4.43334 50.9002 12.0984 43.9159C19.7635 36.9567 31.6142 37.5115 38.5985 45.1766C45.5576 52.8669 45.0029 64.7175 37.3378 71.6767Z" fill="#E8AD8D"/>
<path d="M34.3616 54.1536C34.7903 54.0779 35.1937 54.2796 35.2693 54.6074C35.345 54.9352 35.0172 55.2882 34.5886 55.3639C34.1599 55.4395 33.2774 55.3386 33.2018 54.9856C33.1766 54.6579 33.933 54.2292 34.3616 54.1536Z" fill="#F9E3C5"/>
<path d="M16.6348 48.9078C16.3827 48.5548 16.4079 48.1009 16.7104 47.8992C17.013 47.6723 17.4417 47.7984 17.6938 48.1261C17.9459 48.4539 18.1729 49.3112 17.8955 49.5129C17.5929 49.7399 16.8869 49.2608 16.6348 48.9078Z" fill="#F9E3C5"/>
<path d="M21.1236 69.206C21.0479 69.559 20.7958 69.8112 20.5689 69.7607C20.342 69.7103 20.2159 69.3825 20.2915 69.0295C20.3672 68.6765 20.6949 68.0462 20.9471 68.0966C21.1488 68.1722 21.1992 68.8782 21.1236 69.206Z" fill="#F9E3C5"/>
<path d="M25.864 60.4558C26.0152 60.7836 25.9396 61.1366 25.7379 61.2375C25.511 61.3383 25.2084 61.1366 25.0823 60.8088C24.9563 60.481 24.8302 59.775 25.0571 59.6742C25.284 59.5733 25.7127 60.128 25.864 60.4558Z" fill="#F9E3C5"/>
<path d="M16.0046 61.6168C15.7777 61.7681 15.5255 61.7933 15.4247 61.642C15.3238 61.4908 15.3995 61.2386 15.6264 61.0873C15.8533 60.936 16.3324 60.7343 16.4585 60.8856C16.5593 61.0369 16.2315 61.4655 16.0046 61.6168Z" fill="#F9E3C5"/>
<path d="M18.6037 55.6905C18.2508 55.5896 18.049 55.3123 18.0995 55.0854C18.1751 54.8584 18.5029 54.7576 18.8559 54.8584C19.2089 54.9593 19.7888 55.3627 19.7132 55.5896C19.6375 55.7914 18.9315 55.7914 18.6037 55.6905Z" fill="#F9E3C5"/>
<path d="M28.4106 55.3886C28.7636 55.2877 29.0914 55.3633 29.1671 55.5903C29.2427 55.8172 29.0158 56.0946 28.688 56.2206C28.335 56.3215 27.6542 56.3719 27.5534 56.145C27.4777 55.8928 28.0829 55.5146 28.4106 55.3886Z" fill="#F9E3C5"/>
<path d="M21.7051 60.5315C21.5286 60.8593 21.226 61.0106 21.0243 60.9097C20.7974 60.8089 20.7722 60.4559 20.9235 60.1281C21.0748 59.8003 21.579 59.296 21.7808 59.3969C22.0077 59.4977 21.8816 60.2037 21.7051 60.5315Z" fill="#F9E3C5"/>
<path d="M29.9242 61.818C30.252 61.9441 30.4537 62.2467 30.3529 62.4736C30.252 62.7005 29.9242 62.7762 29.5964 62.6249C29.2687 62.4736 28.714 62.045 28.8148 61.818C28.8905 61.5911 29.5712 61.6667 29.9242 61.818Z" fill="#F9E3C5"/>
<path d="M26.9474 64.7425C27.0483 65.0955 26.9474 65.4233 26.7205 65.4989C26.4935 65.5746 26.2162 65.3476 26.1153 64.9946C26.0145 64.6416 26.0145 63.9356 26.2414 63.8852C26.4683 63.7844 26.8465 64.3895 26.9474 64.7425Z" fill="#F9E3C5"/>
<path d="M25.1082 54.0523C25.1586 53.8254 25.3099 53.6741 25.4612 53.7246C25.6125 53.7498 25.6881 53.9515 25.6377 54.1784C25.5873 54.4053 25.3856 54.7836 25.2343 54.7583C25.083 54.7331 25.083 54.2793 25.1082 54.0523Z" fill="#F9E3C5"/>
<path d="M29.3954 50.4205C29.4458 50.0675 29.6728 49.8154 29.9249 49.8406C30.1518 49.8658 30.3283 50.1936 30.2779 50.5466C30.2275 50.8996 29.9501 51.5552 29.698 51.5047C29.4458 51.4543 29.345 50.7987 29.3954 50.4205Z" fill="#F9E3C5"/>
<path d="M32.8247 64.9202C33.102 65.2227 33.1525 65.6262 32.9508 65.8027C32.7491 65.9792 32.3456 65.9035 32.0683 65.5757C31.7909 65.248 31.4379 64.542 31.6396 64.3655C31.8413 64.189 32.5473 64.6176 32.8247 64.9202Z" fill="#F9E3C5"/>
<path d="M22.2582 50.8251C22.1321 50.5477 22.1825 50.2451 22.3843 50.1443C22.586 50.0686 22.8381 50.2199 22.9642 50.5225C23.0903 50.7998 23.1659 51.4302 22.9894 51.5058C22.7877 51.6067 22.3843 51.1276 22.2582 50.8251Z" fill="#F9E3C5"/>
<path d="M25.9646 46.2104C26.0151 45.8322 26.2924 45.58 26.595 45.6052C26.8976 45.6305 27.0993 45.9835 27.0488 46.3365C26.9984 46.7147 26.6706 47.3702 26.3681 47.345C26.0655 47.3198 25.9142 46.5886 25.9646 46.2104Z" fill="#F9E3C5"/>
<path d="M13.1805 58.993C12.7266 59.1191 12.2728 58.9678 12.1971 58.64C12.1215 58.3375 12.4241 57.9845 12.8779 57.8584C13.3318 57.7323 14.2647 57.7575 14.3655 58.0853C14.4412 58.3879 13.6343 58.867 13.1805 58.993Z" fill="#F9E3C5"/>
<path d="M63.9605 77.3253C53.5975 77.3253 45.2012 68.929 45.2012 58.566C45.2012 48.203 53.5975 39.8066 63.9605 39.8066C74.3235 39.8066 82.7199 48.203 82.7199 58.566C82.7199 68.929 74.3235 77.3253 63.9605 77.3253Z" fill="#CE8D6B"/>
<path d="M65.2711 76.9718C54.908 76.9718 46.5117 68.5755 46.5117 58.2125C46.5117 47.8494 54.908 39.4531 65.2711 39.4531C75.6341 39.4531 84.0304 47.8494 84.0304 58.2125C84.0304 68.5755 75.6341 76.9718 65.2711 76.9718Z" fill="#E8AD8D"/>
<path d="M74.878 61.995C75.2562 62.2219 75.4075 62.6505 75.231 62.9531C75.0545 63.2305 74.6007 63.2809 74.2225 63.054C73.8442 62.827 73.2643 62.1462 73.4408 61.8689C73.6425 61.5663 74.4998 61.768 74.878 61.995Z" fill="#F9E3C5"/>
<path d="M65.298 46.185C65.3484 45.7564 65.6762 45.4538 66.0292 45.479C66.3822 45.5042 66.6596 45.9076 66.6091 46.3111C66.5587 46.7397 66.1805 47.4961 65.8275 47.4709C65.4745 47.4457 65.2476 46.6136 65.298 46.185Z" fill="#F9E3C5"/>
<path d="M54.9336 64.213C54.6311 64.4147 54.2781 64.4399 54.152 64.2382C54.0007 64.0365 54.1268 63.7087 54.4294 63.507C54.7319 63.3053 55.3875 63.0531 55.5388 63.2548C55.6901 63.4565 55.2362 64.0112 54.9336 64.213Z" fill="#F9E3C5"/>
<path d="M64.3635 60.9363C64.2627 61.2893 63.9853 61.491 63.7332 61.4154C63.5063 61.3397 63.4054 61.0119 63.5315 60.6589C63.6323 60.3059 64.0358 59.726 64.2627 59.8016C64.4896 59.8773 64.4644 60.5833 64.3635 60.9363Z" fill="#F9E3C5"/>
<path d="M56.2704 55.1617C55.9931 55.1365 55.7914 54.96 55.8166 54.7835C55.8418 54.607 56.0687 54.4809 56.3461 54.5061C56.6234 54.5314 57.1025 54.7331 57.0773 54.9096C57.0521 55.1113 56.5478 55.1869 56.2704 55.1617Z" fill="#F9E3C5"/>
<path d="M62.1708 52.5137C61.9943 52.2112 62.0195 51.8582 62.2212 51.7321C62.4229 51.606 62.7507 51.7573 62.9272 52.0599C63.1037 52.3624 63.2802 53.0432 63.0785 53.1693C62.8768 53.2954 62.3725 52.8163 62.1708 52.5137Z" fill="#F9E3C5"/>
<path d="M69.6341 58.893C69.9619 59.0443 70.1384 59.3469 70.0628 59.5486C69.9871 59.7503 69.6089 59.8259 69.2811 59.6747C68.9533 59.5234 68.4238 59.0695 68.4995 58.8426C68.5751 58.6157 69.3063 58.767 69.6341 58.893Z" fill="#F9E3C5"/>
<path d="M61.2371 58.1875C60.9094 58.3135 60.5564 58.2379 60.4807 58.011C60.4051 57.784 60.6068 57.5067 60.9346 57.3806C61.2624 57.2545 61.9684 57.2041 62.0692 57.431C62.1196 57.6327 61.5649 58.0614 61.2371 58.1875Z" fill="#F9E3C5"/>
<path d="M66.4304 64.6674C66.5817 64.9952 66.5312 65.3482 66.3043 65.4491C66.0774 65.5499 65.7748 65.3734 65.6235 65.0456C65.4722 64.7179 65.3462 64.0119 65.5731 63.911C65.8 63.8101 66.2791 64.3396 66.4304 64.6674Z" fill="#F9E3C5"/>
<path d="M62.2706 64.8433C62.1193 65.1711 61.8167 65.3476 61.5898 65.2467C61.3629 65.1459 61.3124 64.7929 61.4889 64.4651C61.6654 64.1373 62.1193 63.6078 62.3462 63.7339C62.5479 63.8095 62.4219 64.5155 62.2706 64.8433Z" fill="#F9E3C5"/>
<path d="M68.0961 55.6907C68.2726 55.5647 68.4995 55.5647 68.5751 55.6655C68.6508 55.7916 68.5751 55.9933 68.3986 56.1194C68.2221 56.2455 67.8187 56.3967 67.7179 56.2707C67.6422 56.1698 67.9196 55.8168 68.0961 55.6907Z" fill="#F9E3C5"/>
<path d="M73.6933 55.8924C73.9706 55.6655 74.3236 55.6151 74.4749 55.8168C74.6262 55.9933 74.5254 56.3463 74.248 56.5732C73.9707 56.8001 73.3151 57.0775 73.1638 56.901C73.0125 56.6993 73.4159 56.1194 73.6933 55.8924Z" fill="#F9E3C5"/>
<path d="M66.4812 68.9292C66.4812 69.3326 66.2543 69.6856 65.9769 69.6856C65.6996 69.6856 65.4727 69.3578 65.4727 68.9292C65.4727 68.5006 65.6996 67.7441 65.9769 67.7441C66.2795 67.7441 66.4812 68.5258 66.4812 68.9292Z" fill="#F9E3C5"/>
<path d="M68.1468 51.405C68.2476 51.1024 68.4998 50.9259 68.7015 50.9763C68.9032 51.052 68.9788 51.3293 68.878 51.6319C68.7771 51.9345 68.4241 52.4387 68.2224 52.3631C68.0207 52.2875 68.0459 51.6823 68.1468 51.405Z" fill="#F9E3C5"/>
<path d="M73.9971 50.4717C74.2744 50.2195 74.6779 50.2195 74.8796 50.4465C75.0813 50.6734 75.0057 51.0516 74.7283 51.3037C74.4509 51.5559 73.7449 51.808 73.5432 51.5811C73.3415 51.3542 73.7197 50.6986 73.9971 50.4717Z" fill="#F9E3C5"/>
<path d="M55.9418 51.3038C55.5132 51.0769 55.2862 50.6735 55.4375 50.3961C55.5888 50.1188 56.0427 50.0683 56.4713 50.2953C56.9 50.5222 57.5555 51.1525 57.4294 51.4551C57.2782 51.7073 56.3705 51.5308 55.9418 51.3038Z" fill="#F9E3C5"/>
<path d="M8.23827 107.431C2.48944 98.8329 4.80914 87.1839 13.4072 81.4099C22.0052 75.661 33.6541 77.9555 39.4282 86.5788C45.177 95.1768 42.8825 106.826 34.2593 112.6C25.6613 118.349 14.0123 116.054 8.23827 107.431Z" fill="#CE8D6B"/>
<path d="M9.27023 108.338C3.5214 99.7401 5.81589 88.0911 14.4391 82.3171C23.0372 76.5683 34.6861 78.8628 40.4602 87.486C46.209 96.084 43.9145 107.733 35.2913 113.507C26.6932 119.256 15.0443 116.936 9.27023 108.338Z" fill="#E8AD8D"/>
<path d="M27.0478 107.985C27.073 108.439 26.7956 108.792 26.4679 108.817C26.1401 108.843 25.8375 108.49 25.8123 108.036C25.7871 107.582 26.0392 106.75 26.367 106.725C26.7452 106.725 27.0478 107.557 27.0478 107.985Z" fill="#F9E3C5"/>
<path d="M34.8647 91.2181C35.2429 91.0164 35.6968 91.1173 35.848 91.445C35.9993 91.7728 35.848 92.2015 35.4698 92.4032C35.0916 92.6049 34.2343 92.7057 34.0578 92.378C33.9065 92.0754 34.4865 91.4198 34.8647 91.2181Z" fill="#F9E3C5"/>
<path d="M14.1123 92.6557C13.7845 92.5296 13.5828 92.2522 13.6585 92.0253C13.7341 91.7984 14.0871 91.7227 14.4149 91.8488C14.7427 91.9749 15.3226 92.4035 15.2217 92.6305C15.1209 92.8574 14.4653 92.7817 14.1123 92.6557Z" fill="#F9E3C5"/>
<path d="M22.0785 98.6568C21.7255 98.7577 21.3977 98.6316 21.3221 98.4047C21.2465 98.1778 21.4986 97.9004 21.8264 97.7995C22.1794 97.6987 22.8854 97.7239 22.9358 97.9508C23.0367 98.1778 22.4315 98.556 22.0785 98.6568Z" fill="#F9E3C5"/>
<path d="M22.3815 88.722C22.2554 88.4951 22.2806 88.2178 22.4319 88.1421C22.5832 88.0665 22.8354 88.1925 22.9614 88.4195C23.0875 88.6464 23.1884 89.1759 23.0371 89.2515C22.8858 89.3524 22.5076 88.9742 22.3815 88.722Z" fill="#F9E3C5"/>
<path d="M27.8794 92.1769C28.0307 91.8491 28.3332 91.6726 28.5602 91.7734C28.7871 91.8743 28.8375 92.2273 28.661 92.5551C28.4845 92.8829 28.0307 93.4124 27.829 93.3115C27.602 93.1854 27.7281 92.5046 27.8794 92.1769Z" fill="#F9E3C5"/>
<path d="M26.7197 101.909C26.7701 102.262 26.6441 102.59 26.3919 102.615C26.165 102.666 25.9128 102.414 25.8372 102.061C25.7868 101.708 25.8624 101.002 26.0893 100.976C26.3415 100.926 26.6441 101.556 26.7197 101.909Z" fill="#F9E3C5"/>
<path d="M22.6351 94.5209C22.3326 94.3192 22.2317 93.9914 22.3578 93.7897C22.5091 93.5879 22.8621 93.6132 23.1394 93.8149C23.4168 94.0166 23.8706 94.5713 23.7193 94.773C23.5933 94.9747 22.9377 94.7478 22.6351 94.5209Z" fill="#F9E3C5"/>
<path d="M20.1381 102.463C19.9616 102.766 19.6338 102.917 19.4321 102.791C19.2304 102.665 19.2052 102.312 19.3817 102.009C19.5582 101.707 20.0877 101.228 20.2894 101.354C20.5163 101.455 20.3146 102.135 20.1381 102.463Z" fill="#F9E3C5"/>
<path d="M17.6921 99.0855C17.3391 99.136 17.0113 98.9847 16.9861 98.7325C16.9609 98.4804 17.213 98.2535 17.566 98.203C17.919 98.1526 18.625 98.2535 18.6502 98.5056C18.7007 98.7578 18.0451 99.0351 17.6921 99.0855Z" fill="#F9E3C5"/>
<path d="M28.5354 98.858C28.7371 98.9336 28.8632 99.1101 28.8128 99.2614C28.7623 99.4127 28.5606 99.4631 28.3337 99.3622C28.1068 99.2614 27.779 99.0345 27.8294 98.8832C27.8798 98.7571 28.3085 98.7823 28.5354 98.858Z" fill="#F9E3C5"/>
<path d="M31.4833 103.623C31.8363 103.724 32.0633 104.001 31.9876 104.228C31.912 104.455 31.5842 104.556 31.2312 104.455C30.8782 104.354 30.2983 103.976 30.3739 103.749C30.4496 103.522 31.1303 103.522 31.4833 103.623Z" fill="#F9E3C5"/>
<path d="M16.6341 104.885C16.2811 105.112 15.8777 105.112 15.7264 104.885C15.5751 104.658 15.7264 104.28 16.0794 104.053C16.4324 103.826 17.1888 103.574 17.3401 103.801C17.4914 104.028 16.9871 104.658 16.6341 104.885Z" fill="#F9E3C5"/>
<path d="M32.1405 96.5124C32.443 96.4368 32.7456 96.5376 32.796 96.7394C32.8465 96.9411 32.6447 97.168 32.3422 97.2436C32.0396 97.3193 31.4093 97.3193 31.3588 97.1176C31.3084 96.9159 31.8379 96.5881 32.1405 96.5124Z" fill="#F9E3C5"/>
<path d="M36.1509 100.85C36.5039 100.951 36.7309 101.278 36.6552 101.556C36.5796 101.833 36.2266 102.01 35.8484 101.909C35.4954 101.808 34.865 101.379 34.9659 101.077C35.0415 100.799 35.7979 100.749 36.1509 100.85Z" fill="#F9E3C5"/>
<path d="M25.4094 86.327C25.359 85.8479 25.5859 85.4445 25.8885 85.4192C26.2162 85.394 26.4936 85.747 26.544 86.2261C26.5944 86.7052 26.4432 87.6129 26.1154 87.6633C25.8128 87.6633 25.4598 86.806 25.4094 86.327Z" fill="#F9E3C5"/>
<path d="M64.6176 116.407C54.2546 116.76 45.5809 108.666 45.2279 98.3285C44.8749 87.9655 52.9687 79.2919 63.3065 78.9389C73.6695 78.5859 82.3432 86.6796 82.6962 97.0174C83.0744 107.355 74.9806 116.054 64.6176 116.407Z" fill="#CE8D6B"/>
<path d="M65.9282 116.004C55.5651 116.357 46.8915 108.263 46.5385 97.9252C46.1855 87.5622 54.2792 78.8885 64.617 78.5355C74.98 78.1825 83.6537 86.2763 84.0067 96.6141C84.3849 106.952 76.2912 115.626 65.9282 116.004Z" fill="#E8AD8D"/>
<path d="M75.0051 100.699C75.3833 100.926 75.5598 101.329 75.4085 101.632C75.232 101.935 74.8034 101.985 74.4 101.758C73.9965 101.531 73.4166 100.876 73.5931 100.598C73.7444 100.321 74.6269 100.497 75.0051 100.699Z" fill="#F9E3C5"/>
<path d="M64.8697 85.2423C64.8949 84.8137 65.2227 84.4859 65.5757 84.5111C65.9287 84.5363 66.2061 84.9146 66.1808 85.3432C66.1556 85.7718 65.8026 86.5535 65.4244 86.5283C65.0714 86.503 64.8193 85.671 64.8697 85.2423Z" fill="#F9E3C5"/>
<path d="M55.1608 103.624C54.8835 103.851 54.5305 103.876 54.3792 103.674C54.2279 103.473 54.354 103.145 54.6313 102.943C54.9087 102.741 55.5642 102.464 55.7155 102.666C55.8668 102.842 55.4382 103.422 55.1608 103.624Z" fill="#F9E3C5"/>
<path d="M64.4415 100.018C64.3406 100.371 64.0633 100.598 63.8363 100.522C63.6094 100.446 63.5086 100.118 63.6094 99.7655C63.7103 99.4125 64.0885 98.8325 64.3154 98.883C64.5423 98.9586 64.5423 99.6646 64.4415 100.018Z" fill="#F9E3C5"/>
<path d="M56.1708 94.5208C55.8935 94.4956 55.6918 94.3443 55.717 94.1678C55.717 93.9913 55.9691 93.8652 56.2213 93.8652C56.4734 93.8652 56.9777 94.0669 56.9777 94.2434C56.9777 94.4199 56.423 94.546 56.1708 94.5208Z" fill="#F9E3C5"/>
<path d="M61.9693 91.6729C61.7676 91.3704 61.7928 91.0174 61.9946 90.8913C62.1963 90.7652 62.5241 90.8913 62.7258 91.1939C62.9275 91.4964 63.1292 92.1772 62.9275 92.3033C62.7258 92.4294 62.1711 91.9755 61.9693 91.6729Z" fill="#F9E3C5"/>
<path d="M69.6612 97.7991C69.989 97.9252 70.1907 98.2278 70.0898 98.4547C69.989 98.6816 69.6612 98.7573 69.3334 98.606C69.0056 98.4799 68.4509 98.0261 68.5265 97.8244C68.6274 97.5974 69.3334 97.6731 69.6612 97.7991Z" fill="#F9E3C5"/>
<path d="M61.2122 97.3705C60.8844 97.4966 60.5314 97.4462 60.4558 97.2193C60.3549 96.9923 60.5566 96.715 60.8844 96.5637C61.2122 96.4376 61.9182 96.3368 62.0191 96.5637C62.0947 96.7906 61.5652 97.2445 61.2122 97.3705Z" fill="#F9E3C5"/>
<path d="M66.634 103.674C66.8105 104.002 66.76 104.355 66.5331 104.456C66.3062 104.557 66.0036 104.405 65.8523 104.077C65.6758 103.75 65.5498 103.069 65.7767 102.943C66.0036 102.817 66.4827 103.346 66.634 103.674Z" fill="#F9E3C5"/>
<path d="M62.5009 103.977C62.3496 104.305 62.0471 104.481 61.8454 104.406C61.6184 104.305 61.568 103.952 61.7193 103.624C61.8706 103.296 62.3244 102.767 62.5514 102.842C62.7531 102.943 62.6522 103.649 62.5009 103.977Z" fill="#F9E3C5"/>
<path d="M67.9973 94.6481C68.1738 94.5221 68.3755 94.4969 68.4764 94.6229C68.5773 94.749 68.5016 94.9507 68.3251 95.0768C68.1486 95.2029 67.7452 95.3793 67.6695 95.2533C67.5687 95.1272 67.8208 94.7742 67.9973 94.6481Z" fill="#F9E3C5"/>
<path d="M73.5938 94.6474C73.8711 94.4205 74.1989 94.3701 74.3754 94.5466C74.5267 94.7231 74.4511 95.0761 74.1737 95.303C73.8964 95.5299 73.266 95.8577 73.1147 95.656C72.9634 95.4795 73.3416 94.8743 73.5938 94.6474Z" fill="#F9E3C5"/>
<path d="M66.8623 107.935C66.8875 108.338 66.6605 108.691 66.3832 108.691C66.1058 108.691 65.8789 108.364 65.8537 107.96C65.8285 107.557 66.0302 106.775 66.3075 106.75C66.6101 106.75 66.837 107.506 66.8623 107.935Z" fill="#F9E3C5"/>
<path d="M67.9198 90.3352C68.0206 90.0326 68.2476 89.8309 68.4493 89.9066C68.651 89.9822 68.7518 90.2596 68.651 90.5621C68.5501 90.8647 68.2223 91.3942 68.0206 91.3186C67.8189 91.2429 67.8189 90.6378 67.9198 90.3352Z" fill="#F9E3C5"/>
<path d="M73.7198 89.2011C73.9971 88.949 74.3753 88.9237 74.6023 89.1507C74.804 89.3776 74.7536 89.7558 74.4762 90.008C74.1988 90.2601 73.5181 90.5627 73.3163 90.3357C73.1146 90.1088 73.4424 89.4532 73.7198 89.2011Z" fill="#F9E3C5"/>
<path d="M55.7165 90.6886C55.2879 90.4869 55.061 90.0834 55.187 89.7809C55.3383 89.5035 55.7922 89.4279 56.2208 89.6296C56.6495 89.8313 57.3554 90.4617 57.2042 90.739C57.0529 91.0416 56.1452 90.8903 55.7165 90.6886Z" fill="#F9E3C5"/>
<path d="M37.7371 36.5786C37.7876 36.5029 37.8128 36.4273 37.8632 36.3516C37.8632 36.3516 37.8884 36.3012 37.9136 36.3012C37.9136 36.3516 37.838 36.3769 37.8884 36.3264C37.9136 36.276 37.9641 36.2508 37.9893 36.2004C38.0397 36.1247 38.1154 36.0743 38.191 36.0239C38.2162 35.9986 38.2162 35.9986 38.2414 35.9734C38.2919 35.923 38.2666 35.9734 38.2162 35.9987C38.2666 35.9987 38.3171 35.923 38.3423 35.8978C38.4179 35.8474 38.4936 35.7969 38.5692 35.7717C38.6196 35.7465 38.6449 35.7213 38.6953 35.7213C38.7205 35.7213 38.7457 35.6961 38.7457 35.6961C38.8466 35.6457 38.6701 35.7213 38.7205 35.6961C38.897 35.6204 39.0735 35.57 39.25 35.5448C39.3256 35.5196 39.4265 35.5196 39.5274 35.4944C39.3761 35.5448 39.5021 35.4944 39.5526 35.4944C39.603 35.4944 39.6534 35.4944 39.7291 35.4944C39.9812 35.4944 40.2334 35.4944 40.4603 35.5196C40.4855 35.5196 40.5107 35.5196 40.5359 35.5196C40.5107 35.5196 40.4098 35.4944 40.5107 35.5196C40.5611 35.5196 40.6368 35.5448 40.6872 35.5448C40.8133 35.57 40.9393 35.5952 41.0402 35.6204C41.2671 35.6709 41.5193 35.7465 41.7462 35.7969C42.7043 36.0743 43.6373 36.4273 44.6458 36.5786C45.1249 36.629 45.5788 36.629 46.0578 36.5786C46.5369 36.5281 47.016 36.4273 47.495 36.3516C47.5959 36.3264 47.495 36.3516 47.4698 36.3516C47.495 36.3516 47.5202 36.3516 47.5455 36.3516C47.5959 36.3516 47.6463 36.3516 47.6967 36.3264C47.8228 36.3264 47.9489 36.3012 48.0497 36.3012C48.1506 36.3012 48.2515 36.3012 48.3775 36.3012C48.428 36.3012 48.4784 36.3012 48.5288 36.3264C48.6297 36.3264 48.5036 36.3264 48.5036 36.3264C48.5288 36.3516 48.6045 36.3516 48.6297 36.3516C48.7305 36.3769 48.8314 36.4021 48.9322 36.4273C48.9827 36.4525 49.0331 36.4525 49.0835 36.4777C49.134 36.5029 49.1592 36.4777 49.0583 36.4777C49.0835 36.4777 49.1087 36.5029 49.1339 36.5281C49.3357 36.629 49.5122 36.7299 49.6887 36.8559C50.0921 37.1081 50.4703 37.3602 50.9242 37.5367C51.3528 37.7132 51.8571 37.7889 52.3361 37.6628C52.7648 37.5619 53.1178 37.2846 53.3951 36.9316C53.496 36.8055 53.5969 36.6794 53.7229 36.5534C53.7734 36.5029 53.849 36.4525 53.8994 36.3769C53.9499 36.3264 53.7986 36.4525 53.849 36.4021C53.8742 36.4021 53.8742 36.3769 53.8994 36.3769C53.9499 36.3516 53.9751 36.3264 54.0255 36.3012C54.0759 36.276 53.9246 36.3264 53.9751 36.3264C54.0003 36.3264 54.0255 36.3012 54.0255 36.3012C54.0507 36.3012 54.202 36.2508 54.1011 36.276C54.0255 36.3012 54.0759 36.276 54.1011 36.276C54.1264 36.276 54.1516 36.276 54.1768 36.276C54.202 36.276 54.2272 36.276 54.2524 36.276C54.3281 36.276 54.1264 36.2508 54.2272 36.276C54.2776 36.276 54.3029 36.3012 54.3533 36.3012C54.3785 36.3012 54.4037 36.3264 54.4289 36.3264C54.5046 36.3516 54.4037 36.3264 54.4037 36.3012C54.5046 36.3516 54.5802 36.4021 54.6811 36.4525C55.0341 36.6542 55.3366 36.9316 55.7148 37.1081C56.5469 37.5367 57.5555 37.6376 58.438 37.335C59.2448 37.0576 59.976 36.4777 60.3795 35.6961C60.4803 35.4944 60.5812 35.2927 60.6316 35.0909C60.7325 34.8136 60.5308 34.4858 60.2534 34.4102C59.9508 34.3345 59.6735 34.511 59.5726 34.7884C59.5474 34.8388 59.5474 34.864 59.5222 34.9144L59.497 34.9649C59.497 34.8892 59.5474 34.864 59.5222 34.9397C59.4718 35.0405 59.4213 35.1162 59.3709 35.217C59.3205 35.2927 59.27 35.3683 59.2196 35.4439C59.1944 35.4692 59.1944 35.4692 59.1692 35.4944C59.1692 35.4944 59.2448 35.3935 59.1944 35.4692C59.1692 35.5196 59.1188 35.5448 59.0935 35.5952C59.0431 35.6709 58.9675 35.7213 58.8918 35.7969C58.8666 35.8222 58.8162 35.8474 58.791 35.8978C58.7658 35.923 58.7658 35.923 58.7405 35.9482C58.6649 35.9987 58.7153 35.9734 58.7658 35.9482C58.5893 36.0491 58.4632 36.1751 58.2867 36.2508C58.2615 36.2508 58.2363 36.276 58.2363 36.276C58.1606 36.3264 58.2615 36.276 58.2615 36.2508C58.2111 36.276 58.1858 36.276 58.1354 36.3012C58.0346 36.3264 57.9337 36.3769 57.8076 36.4021C57.7572 36.4021 57.7068 36.4273 57.6563 36.4273C57.6311 36.4273 57.6059 36.4273 57.5807 36.4273C57.6059 36.4273 57.7068 36.4021 57.6059 36.4273C57.5051 36.4273 57.4042 36.4525 57.2781 36.4525C57.1773 36.4525 57.0764 36.4525 56.9756 36.4273C56.9503 36.4273 56.8747 36.4273 56.9503 36.4273C57.026 36.4273 56.9503 36.4273 56.9251 36.4273C56.8747 36.4273 56.8243 36.4021 56.7486 36.4021C56.6478 36.3769 56.5469 36.3516 56.4713 36.3264C56.4208 36.3012 56.3704 36.3012 56.32 36.276C56.2948 36.276 56.2696 36.2508 56.2443 36.2508C56.3704 36.3264 56.2696 36.2508 56.2443 36.2508C55.4627 35.8726 54.8323 35.0909 53.8994 35.217C53.4456 35.2674 53.0926 35.5196 52.8152 35.8474C52.6891 35.9734 52.5883 36.1247 52.4874 36.2508C52.437 36.3012 52.3866 36.3769 52.3109 36.4273C52.2857 36.4525 52.2353 36.4777 52.2101 36.5029C52.2101 36.5029 52.3109 36.4273 52.2353 36.4777C52.2101 36.5029 52.1849 36.5029 52.1596 36.5281C52.1344 36.5281 52.1092 36.5534 52.1092 36.5534C52.1092 36.5534 52.1092 36.5534 52.084 36.5534C52.0336 36.5786 52.0336 36.5786 52.084 36.5534C52.084 36.5534 52.1092 36.5534 52.1092 36.5281C52.084 36.5281 52.084 36.5534 52.0588 36.5534C52.0336 36.5534 52.0084 36.5786 51.9832 36.5786C51.9327 36.6038 51.8823 36.6038 51.8319 36.6038C51.7562 36.629 51.9327 36.6038 51.8823 36.6038C51.8571 36.6038 51.8319 36.6038 51.7814 36.6038C51.731 36.6038 51.6806 36.6038 51.6301 36.6038C51.6049 36.6038 51.5797 36.6038 51.5545 36.6038C51.4537 36.6038 51.5797 36.6038 51.5797 36.6038C51.5293 36.5786 51.4789 36.5786 51.4284 36.5786C51.378 36.5534 51.3024 36.5534 51.2519 36.5281C51.2015 36.5029 51.1511 36.5029 51.1007 36.4777C51.0754 36.4777 51.0502 36.4525 51.025 36.4525C51.0502 36.4525 51.1259 36.5029 51.0502 36.4525C50.9494 36.4021 50.8485 36.3516 50.7729 36.3012C50.5964 36.2004 50.3947 36.0743 50.2182 35.9482C49.8147 35.6961 49.4113 35.4439 48.9322 35.3179C48.4784 35.1918 47.9993 35.1666 47.5202 35.217C47.0412 35.2674 46.5369 35.3683 46.0578 35.4439C46.0074 35.4439 45.957 35.4692 45.9065 35.4692C45.8813 35.4692 45.8561 35.4692 45.8309 35.4692C45.7552 35.4692 45.9318 35.4692 45.8561 35.4692C45.73 35.4944 45.6292 35.4944 45.5031 35.4944C45.2762 35.5196 45.024 35.5196 44.7971 35.4944C44.7467 35.4944 44.671 35.4944 44.6206 35.4692C44.5702 35.4692 44.4189 35.4439 44.545 35.4692C44.4189 35.4692 44.2928 35.4187 44.1668 35.3935C43.9398 35.3431 43.7129 35.2927 43.486 35.217C43.0321 35.0909 42.5531 34.9397 42.0992 34.7884C41.1915 34.511 40.2081 34.2589 39.2248 34.3849C38.3927 34.4858 37.5354 34.8136 36.9807 35.4692C36.8294 35.6204 36.7034 35.7969 36.6025 35.9987C36.4764 36.2508 36.5269 36.6038 36.8042 36.7551C37.2581 36.9064 37.6111 36.8559 37.7371 36.5786Z" fill="#FF7676"/>
<path d="M45.0513 37.5359C45.8077 38.1158 46.9171 38.0654 47.7744 37.7124C48.7073 37.3342 49.489 36.6786 50.4219 36.2499C50.5227 36.1995 50.3462 36.2752 50.4471 36.2499C50.4723 36.2499 50.4975 36.2247 50.548 36.2247C50.5984 36.1995 50.6488 36.1995 50.6992 36.1743C50.8253 36.1239 50.9514 36.0987 51.0775 36.0734C51.1027 36.0734 51.1531 36.0482 51.1783 36.0482C51.2035 36.0482 51.3044 36.023 51.1783 36.0482C51.2287 36.0482 51.2792 36.0482 51.3296 36.023C51.4557 36.023 51.5817 36.023 51.7078 36.023C51.8087 36.023 51.607 35.9978 51.7078 36.023C51.733 36.023 51.7582 36.023 51.7835 36.0482C51.8339 36.0482 51.8843 36.0734 51.9347 36.0734C51.9852 36.0987 52.0356 36.0987 52.086 36.1239C52.1112 36.1239 52.1365 36.1491 52.1617 36.1491C52.1869 36.1491 52.313 36.1995 52.1869 36.1491C52.2877 36.1743 52.3886 36.2499 52.4895 36.3004C52.5903 36.3508 52.6912 36.4264 52.792 36.5021C52.8425 36.5273 52.8677 36.5525 52.9181 36.5777C52.9433 36.6029 52.9685 36.6029 52.9937 36.6282C53.0189 36.6534 53.0946 36.7038 52.9937 36.6282C53.0694 36.7038 53.1702 36.7794 53.2711 36.8551C53.4476 37.0064 53.6241 37.1577 53.8006 37.3089C54.1788 37.6367 54.557 37.9645 54.9857 38.2166C55.4395 38.4688 55.9438 38.6453 56.4733 38.6453C57.0028 38.6453 57.5323 38.4688 57.9105 38.0906C58.0618 37.9393 58.087 37.6367 57.9105 37.4854C57.734 37.3341 57.4566 37.3089 57.3054 37.4854C57.2801 37.5106 57.2297 37.5611 57.1793 37.5863C57.2297 37.5107 57.2297 37.5359 57.2045 37.5611C57.1793 37.5611 57.1793 37.5863 57.1541 37.5863C57.1036 37.6115 57.0784 37.6367 57.028 37.6619C57.0028 37.6619 56.9776 37.6871 56.9776 37.6871C57.0532 37.6619 57.0532 37.6619 57.0028 37.6619C56.9776 37.6619 56.9776 37.6619 56.9524 37.6871C56.8767 37.7124 56.7759 37.7376 56.7002 37.7628C56.675 37.7628 56.6498 37.7628 56.6246 37.7628C56.7254 37.7376 56.675 37.7628 56.6498 37.7628C56.5994 37.7628 56.5489 37.7628 56.4985 37.7628C56.3977 37.7628 56.2968 37.7628 56.2211 37.7376C56.1203 37.7376 56.322 37.7628 56.2211 37.7376C56.1959 37.7376 56.1959 37.7376 56.1707 37.7376C56.1203 37.7376 56.0699 37.7124 55.9942 37.7124C55.8934 37.6872 55.8177 37.6619 55.7421 37.6367C55.7169 37.6367 55.6916 37.6115 55.6664 37.6115C55.7925 37.6367 55.6916 37.6115 55.6664 37.6115C55.616 37.5863 55.5656 37.5611 55.4899 37.5359C55.2882 37.435 55.1117 37.3089 54.91 37.1576C54.8344 37.082 54.9857 37.2081 54.91 37.1576C54.8848 37.1324 54.8596 37.1072 54.8344 37.1072C54.7839 37.082 54.7587 37.0316 54.7083 37.0064C54.6074 36.9307 54.5066 36.8551 54.4309 36.7542C54.0779 36.4264 53.7249 36.1239 53.3215 35.8465C52.9433 35.5692 52.4895 35.3422 52.0356 35.2414C51.5061 35.1153 50.9766 35.1657 50.4471 35.317C49.489 35.6196 48.7073 36.2499 47.85 36.729C47.724 36.8047 47.5979 36.8551 47.4718 36.9055C47.371 36.9559 47.5475 36.8803 47.4718 36.9055C47.4466 36.9307 47.3962 36.9307 47.371 36.9559C47.3205 36.9812 47.2701 37.0064 47.2197 37.0064C47.0936 37.0316 46.9928 37.082 46.8667 37.1072C46.8415 37.1072 46.8163 37.1072 46.791 37.1324H46.7658C46.7154 37.1324 46.7406 37.1324 46.791 37.1324C46.7406 37.1324 46.665 37.1576 46.6146 37.1576C46.4885 37.1576 46.3624 37.1576 46.2616 37.1576C46.2363 37.1576 46.2111 37.1576 46.1859 37.1576C46.1103 37.1576 46.2868 37.1829 46.1859 37.1576C46.1355 37.1576 46.0598 37.1324 46.0094 37.1324C45.959 37.1072 45.8833 37.1072 45.8329 37.082C45.8077 37.082 45.8077 37.0568 45.7825 37.0568C45.7321 37.0316 45.7573 37.0316 45.8077 37.0568C45.7825 37.0568 45.7825 37.0316 45.7573 37.0316C45.6564 36.9812 45.5556 36.9055 45.4547 36.8551C45.3791 36.7794 45.2026 36.7794 45.1269 36.8047C45.0261 36.8299 44.9252 36.9055 44.8748 37.0064C44.8243 37.1072 44.7991 37.2333 44.8243 37.3342C44.9 37.3846 44.9504 37.4602 45.0513 37.5359Z" fill="#D85555"/>
<path opacity="0.3" d="M39.6794 36.7804C39.6794 36.7804 9.01896 29.8969 3.5727 56.2709C-1.87356 82.6449 -1.4197 101.53 7.20354 112.398C11.4143 117.617 23.1641 119.432 42.6547 116.81C52.5134 116.23 59.5481 117.466 59.5481 117.466C59.5481 117.466 87.7376 122.458 84.7119 93.6887C83.7033 79.0393 83.8294 68.7519 83.8294 68.7519C83.8294 68.7519 93.3351 37.7133 61.7166 38.7471C55.1105 39.7556 39.6794 36.7804 39.6794 36.7804Z" fill="white"/>
<path fill-rule="evenodd" clip-rule="evenodd" d="M43.3356 85.2924C35.6957 84.3091 29.6947 84.41 26.2656 86.8053C25.3074 82.8971 24.8788 79.3419 25.5848 76.3414C26.7951 71.0969 30.0729 69.8866 33.1743 69.7101C37.032 69.4832 43.0834 70.7691 48.0254 71.4499C54.4046 72.3324 60.103 72.5089 63.9608 70.29C65.171 73.5174 65.398 76.7701 64.8433 80.0227C64.2885 83.7796 62.0445 85.7211 58.4389 86.1497C53.6986 86.7801 48.454 85.948 43.3356 85.2924Z" fill="white"/>
<path fill-rule="evenodd" clip-rule="evenodd" d="M40.5867 71.7274C41.1667 71.7274 41.444 72.2065 41.444 72.6603C41.444 73.1646 41.1666 73.6437 40.6119 73.6437C40.032 73.6689 39.7547 73.2403 39.7294 72.7108C39.7294 72.2317 39.9816 71.7274 40.5867 71.7274ZM40.5867 71.3492C39.7547 71.3492 39.1999 71.803 39.1999 72.6603C39.1999 73.5176 39.7294 73.9967 40.5867 73.9967C41.444 73.9967 41.9735 73.5176 41.9735 72.6855C41.9735 71.8283 41.444 71.3492 40.5867 71.3492ZM37.5358 72.5595V71.7778C37.8888 71.7778 38.3427 71.7022 38.3427 72.156C38.3427 72.5595 37.8888 72.5595 37.5358 72.5595ZM37.0063 73.9462H37.5358V72.9125C37.9645 72.9125 38.5192 72.9125 38.7713 72.5343C39.0487 72.156 38.9226 71.4753 38.1662 71.4248H36.9811V73.9462H37.0063ZM34.384 71.4248H34.8631C34.8631 71.677 34.8379 72.9629 34.8883 73.1646C34.9892 73.7193 35.9725 73.6941 36.0482 73.1142C36.0734 72.7864 36.0734 71.803 36.0734 71.4248H36.5525C36.5525 71.7274 36.5777 73.089 36.5272 73.3663C36.376 74.0723 35.3674 74.1228 34.8883 73.8958C34.4597 73.6941 34.4093 73.3411 34.4093 72.9125L34.384 71.4248ZM32.619 72.5343V71.7778C32.972 71.7778 33.4763 71.7022 33.4763 72.1056C33.4763 72.5847 32.9468 72.5343 32.619 72.5343ZM32.0895 73.9462H32.6443V72.862H32.9468L33.5268 73.9462H34.1823L33.5015 72.7864C33.8293 72.6603 34.0815 72.4586 34.0815 72.0804C34.0815 71.5761 33.678 71.4248 33.2494 71.3996H32.1148L32.0895 73.9462ZM30.7028 72.5595V72.9125H31.1062V73.442C30.6776 73.5932 29.9968 73.6185 29.7951 73.0638C29.5933 72.5343 29.7951 71.7022 30.6019 71.7022C30.9045 71.7022 31.1062 71.803 31.2575 72.0552L31.5601 71.7022C31.3331 71.45 31.081 71.3492 30.6523 71.3492C28.9882 71.3492 28.9882 73.1142 29.6438 73.6185C30.1733 74.0219 31.0053 73.921 31.6357 73.7698V72.5595H30.7028ZM40.1329 85.7213C35.5439 85.2926 31.1062 85.4943 28.3579 87.7384C27.5006 87.5871 26.6433 87.461 25.7608 87.3098C24.7018 83.8302 24.4749 80.1994 24.9539 76.4172C25.7104 72.736 27.6519 69.4833 32.2913 69.206C37.1072 68.9034 43.6376 70.0885 50.1429 70.7693C54.7823 71.2483 58.867 70.8449 61.5649 68.7773C62.5483 69.0799 63.5316 69.3573 64.5402 69.6598C65.8009 73.2403 65.8765 76.745 65.2966 80.1994C64.4898 85.1161 61.3128 86.8559 57.0264 86.9063C51.0506 86.9568 44.8983 86.1499 40.1329 85.7213ZM43.3351 85.2926C35.6952 84.3093 29.6942 84.4101 26.2651 86.8055C25.3069 82.8973 24.8783 79.3421 25.5843 76.3416C26.7946 71.097 30.0724 69.8868 33.1738 69.7103C37.0315 69.4833 43.0829 70.7693 48.0249 71.45C54.4041 72.3325 60.1025 72.509 63.9603 70.2902C65.1705 73.5176 65.3975 76.7702 64.8427 80.0229C64.288 83.7798 62.044 85.7213 58.4384 86.1499C53.6981 86.7803 48.4535 85.9482 43.3351 85.2926Z" fill="#3D438B"/>
<path fill-rule="evenodd" clip-rule="evenodd" d="M51.5812 81.1324H49.9675V76.3921H51.3291C52.0351 76.3921 52.3377 76.5938 52.3377 76.972C52.3629 77.552 52.0351 77.8798 51.5056 77.8798H51.0013L50.371 79.2665H51.6317C52.2368 79.2665 52.8167 79.6952 52.7411 80.2499C52.6402 80.7794 52.1864 81.1324 51.5812 81.1324ZM51.8586 82.7209H48.0008V74.8036H51.6821C52.968 74.8036 54.0522 75.1818 54.2539 76.3921C54.4052 77.2998 54.1279 77.9302 53.4471 78.384C54.4557 78.8379 54.8843 80.0734 54.5313 81.1828C54.1531 82.3174 52.7915 82.7209 51.8586 82.7209ZM58.8933 76.5434C60.0532 76.5434 61.0113 77.5015 61.0113 78.6866C61.0113 79.8717 60.0532 80.8298 58.8933 80.8298C57.7335 80.8298 56.7753 79.8717 56.7753 78.6866C56.7753 77.5015 57.7083 76.5434 58.8933 76.5434ZM58.8933 74.6523C61.087 74.6523 62.8772 76.4678 62.8772 78.6866C62.8772 80.9055 61.087 82.7209 58.8933 82.7209C56.6997 82.7209 54.9095 80.9055 54.9095 78.6866C54.9095 76.4678 56.6997 74.6523 58.8933 74.6523ZM47.2192 74.7784V82.6957H45.2777V77.678L43.9918 82.6957H42.1007L40.8904 77.7285V82.6957H38.9994V74.7784H42.0503L43.0841 79.2161L44.0926 74.7784H47.2192ZM36.251 74.7784H38.1673V82.6957H36.251V74.7784ZM32.721 81.1324H31.1073V76.3921H32.4689C33.1749 76.3921 33.4775 76.5938 33.4775 76.972C33.5027 77.552 33.1749 77.8798 32.6454 77.8798H32.1411L31.5108 79.2665H32.7715C33.3766 79.2665 33.9565 79.6952 33.8809 80.2499C33.78 80.7794 33.3262 81.1324 32.721 81.1324ZM32.9984 82.7209H29.1406V74.8036H32.8219C34.1078 74.8036 35.192 75.1818 35.3937 76.3921C35.545 77.2998 35.2677 77.9302 34.5869 78.384C35.5955 78.8379 36.0241 80.0734 35.6711 81.1828C35.2929 82.3174 33.9313 82.7209 32.9984 82.7209Z" fill="#DA243C"/>
<path d="M61.717 38.7471C55.1109 39.7556 39.6799 36.7804 39.6799 36.7804C39.6799 36.7804 9.01943 29.8969 3.57317 56.2709C3.42189 57.0021 3.2706 57.7081 3.14453 58.4393C6.80059 60.28 11.6669 59.4983 15.9029 58.6915C35.8221 54.9598 56.4725 55.2119 76.2908 59.3975C79.1652 60.0026 82.2666 60.6582 85.141 60.4313C85.5192 51.3289 82.5691 38.0663 61.717 38.7471Z" fill="#00BAE7"/>
<path d="M67.4159 54.3803C73.3665 55.1872 79.2918 56.2462 85.1415 57.5573C85.0406 55.3637 84.6876 53.0692 83.9564 50.8503C82.0402 50.4469 80.1239 50.0687 78.2076 49.7409C71.7023 48.5811 65.1467 47.6986 58.591 47.0934C52.2118 46.5135 45.7822 46.2362 39.3778 46.2109C32.9986 46.2109 26.6194 46.4883 20.2655 47.043C15.5756 47.4464 10.8858 48.0264 6.24638 48.7324C5.2126 50.6991 4.38053 52.9179 3.77539 55.4898C6.14552 55.0863 8.54087 54.7081 10.9362 54.3803C18.2483 53.4222 25.6109 52.817 32.9734 52.6153C40.462 52.3884 47.9506 52.5649 55.3888 53.1448C59.3978 53.4222 63.4069 53.8508 67.4159 54.3803Z" fill="white"/>
<path d="M84.7634 101.101C74.6777 99.8658 64.2643 102.16 54.0273 103.118C41.2942 104.304 28.3593 103.396 15.9287 100.395C13.2056 99.7398 10.4825 98.9833 7.7089 98.9329C5.74219 98.9077 3.69985 99.2607 1.96007 100.194C1.80878 100.269 1.68271 100.345 1.55664 100.421C2.74171 105.136 4.58234 109.119 7.1794 112.397C11.3902 117.617 23.14 119.432 42.6305 116.81C52.4893 116.23 59.524 117.465 59.524 117.465C59.524 117.465 82.5698 121.55 84.7634 101.101Z" fill="#00BAE7"/>
<mask id="mask0" mask-type="alpha" maskUnits="userSpaceOnUse" x="0" y="35" width="86" height="83">
<path d="M39.6794 36.7042C39.6794 36.7042 9.01896 29.8207 3.5727 56.1947C-1.87356 82.5688 -1.4197 101.429 7.20354 112.296C11.4143 117.516 23.1641 119.331 42.6547 116.709C52.5134 116.129 59.5481 117.364 59.5481 117.364C59.5481 117.364 87.7376 122.357 84.7119 93.5874C83.7033 78.9379 83.8294 68.6505 83.8294 68.6505C83.8294 68.6505 93.3351 37.6119 61.7166 38.6457C55.1105 39.6543 39.6794 36.7042 39.6794 36.7042Z" fill="#00BAE7"/>
</mask>
<g mask="url(#mask0)">
<path opacity="0.15" d="M88.5357 116.009L-10.293 79.085L-11.3873 82.0139L87.4414 118.938L88.5357 116.009Z" fill="white"/>
<path opacity="0.15" d="M96.2506 105.626L-2.57812 68.7021L-3.12527 70.1666L95.7034 107.09L96.2506 105.626Z" fill="white"/>
<path opacity="0.15" d="M92.6998 107.829L-6.12891 70.9053L-8.48517 77.212L90.3435 114.136L92.6998 107.829Z" fill="white"/>
<path opacity="0.15" d="M100.997 63.7293L2.16797 26.8057L-0.188295 33.1124L98.6404 70.036L100.997 63.7293Z" fill="white"/>
<path opacity="0.15" d="M96.6529 71.5359L-2.17578 34.6123L-3.27008 37.5413L95.5586 74.4649L96.6529 71.5359Z" fill="white"/>
</g>
</svg>
