<svg width="600" height="259" viewBox="0 0 600 259" fill="none" xmlns="http://www.w3.org/2000/svg">
<g clip-path="url(#clip0)">
<path d="M579.922 181.183H20.2155C9.07632 181.183 0 190.257 0 201.393V238.927C0 250.063 9.07632 259.138 20.2155 259.138H579.922C591.061 259.138 600.138 250.063 600.138 238.927V201.393C600 190.257 590.924 181.183 579.922 181.183ZM586.248 238.927C586.248 242.502 583.36 245.389 579.785 245.389H20.0779C16.5024 245.389 13.6145 242.502 13.6145 238.927V201.393C13.6145 197.818 16.5024 194.931 20.0779 194.931H579.785C583.36 194.931 586.248 197.818 586.248 201.393V238.927Z" fill="white"/>
</g>
<mask id="mask0" mask-type="alpha" maskUnits="userSpaceOnUse" x="21" y="0" width="562" height="172">
<rect x="21" width="562" height="172" fill="#C4C4C4"/>
</mask>
<g mask="url(#mask0)">
<path d="M169.348 67.8043H147.895L149.133 66.9794C152.158 65.0546 156.009 62.5798 158.484 58.5927C161.235 54.1932 161.922 47.3188 157.659 42.9193C153.671 38.7947 148.033 39.0696 143.907 39.2071C143.495 39.2071 143.082 39.2071 142.669 39.2071C132.768 39.4821 122.867 34.8075 116.816 26.9708C116.541 26.5584 116.266 26.1459 115.991 25.7334C114.34 23.5336 112.415 20.9214 109.39 19.2716C106.639 17.7592 103.064 17.6217 100.176 18.7216C97.7004 19.684 95.9126 21.6088 95.0875 23.9461C94.1248 26.9708 95.0875 29.858 95.6376 31.5079L101.413 48.2812C100.726 48.2812 100.176 48.1437 99.4881 47.8688C98.8005 47.5938 97.9754 47.0439 97.0128 46.4939C95.0875 45.394 92.7496 43.8817 89.7242 43.6067C85.5986 43.1942 81.3355 45.119 78.8601 48.5562C76.5223 51.7184 75.9722 55.9805 77.0724 59.8301C78.035 62.9923 80.0978 65.4671 82.2981 67.3919H67.8585C51.9062 67.3919 38.8418 80.4531 38.8418 96.4015V192.78C38.8418 208.728 51.9062 221.789 67.8585 221.789H169.486C185.438 221.789 198.503 208.728 198.503 192.78V96.814C198.503 80.8656 185.438 67.8043 169.348 67.8043ZM188.876 108.088V181.231H48.3307V108.088H188.876ZM104.851 27.9332C105.952 28.6207 107.052 29.9955 108.289 31.6454C108.564 32.0578 108.977 32.4703 109.252 33.0202C117.091 43.3317 130.018 49.3811 142.944 48.9687C143.357 48.9687 143.907 48.9687 144.32 48.9687C146.795 48.8312 149.683 48.6937 150.646 49.6561C151.196 50.206 151.196 52.1309 150.233 53.5057C148.858 55.568 146.382 57.2179 143.77 58.8677L130.018 67.8043H118.191L104.851 28.6207C104.851 28.4832 104.714 28.0707 104.576 27.7957C104.714 27.9332 104.714 27.9332 104.851 27.9332ZM92.7496 63.5422C89.8617 61.6174 87.1113 59.6926 86.5612 57.4928C86.2862 56.5304 86.4237 55.293 86.9738 54.6056C87.3864 53.9182 88.349 53.5057 89.0366 53.6432C89.8617 53.7807 91.0994 54.4681 92.3371 55.1556C93.4372 55.843 94.6749 56.5304 96.0501 57.0804C98.8005 58.1803 101.963 58.4552 104.851 58.0428L108.289 67.9418H99.4881L92.7496 63.5422ZM67.8585 77.4284H169.486C180.212 77.4284 188.876 86.09 188.876 96.814H48.3307C48.3307 86.2275 57.132 77.4284 67.8585 77.4284ZM169.348 212.715H67.8585C57.132 212.715 48.4682 204.054 48.4682 193.33V192.505H188.876V193.33C188.876 203.916 180.075 212.715 169.348 212.715Z" fill="white"/>
<path d="M77.8974 165.832C78.86 166.795 79.6852 167.207 81.0604 167.619L85.5985 168.582C86.0111 168.582 86.0111 168.582 86.5612 168.582C87.9364 168.582 89.3116 168.169 90.1367 167.207C94.6748 163.082 109.252 164.457 121.079 165.832C128.367 166.795 136.068 167.207 142.394 167.207C157.797 166.795 161.922 156.346 162.885 148.096C162.885 140.81 161.51 128.986 157.934 126.786C157.521 126.373 156.971 126.373 156.559 125.824L151.058 124.036C149.27 123.624 147.483 124.036 146.107 124.999C141.569 129.123 126.992 127.336 115.578 125.961C108.702 124.999 101.413 124.174 95.5 124.586C83.6732 124.586 75.9721 131.46 74.5969 144.109C73.3592 153.183 75.9721 164.045 77.8974 165.832ZM83.2607 144.522C84.6359 134.073 90.5492 132.698 96.05 132.698H97.0127C102.513 132.698 109.252 133.66 115.165 134.073C128.78 135.86 141.982 137.235 149.683 132.698L150.645 132.285L152.983 132.698L153.396 134.073C153.396 137.647 154.359 142.322 153.808 147.271C152.846 154.971 149.27 158.683 141.569 158.683C135.656 159.095 128.78 158.27 121.491 157.308C107.877 155.933 94.6748 154.558 86.9737 158.683L84.2233 160.058L83.8108 156.895C83.2607 153.596 82.4355 149.059 83.2607 144.522Z" fill="white"/>
<path d="M241.821 141.085H367.102C373.153 141.085 378.653 138.335 382.504 133.66C386.217 128.986 387.592 122.936 386.217 117.024L379.341 87.7397C377.278 78.8031 369.44 72.6162 360.226 72.6162H248.56C239.346 72.6162 231.507 78.8031 229.444 87.7397L222.568 117.024C221.193 122.936 222.568 128.986 226.281 133.66C230.269 138.472 235.908 141.085 241.821 141.085ZM232.195 119.224L239.071 89.9395C240.171 85.4025 244.159 82.2403 248.835 82.2403H360.501C365.177 82.2403 369.165 85.4025 370.265 89.9395L377.141 119.224C377.828 122.249 377.141 125.274 375.215 127.748C373.29 130.086 370.402 131.46 367.377 131.46H242.096C239.071 131.46 236.183 130.086 234.257 127.748C232.195 125.274 231.507 122.249 232.195 119.224Z" fill="white"/>
<path d="M282.115 119.774L284.865 120.324C285.14 120.324 285.14 120.324 285.415 120.324C286.24 120.324 287.065 120.049 287.615 119.499C290.366 117.025 299.03 117.849 306.043 118.674C310.444 119.224 314.982 119.499 318.832 119.499C328.046 119.224 330.522 113.037 331.072 108.088C331.072 103.688 330.247 96.6765 328.046 95.3017C327.771 95.0267 327.496 95.0267 327.221 94.7517L323.921 93.6518C322.821 93.3768 321.72 93.6518 320.895 94.2018C318.145 96.6765 309.481 95.5766 302.743 94.7517C298.617 94.2018 294.354 93.6518 290.778 93.9268C283.765 93.9268 279.089 98.0514 278.264 105.613C277.439 110.975 279.089 117.574 280.189 118.674C280.739 119.224 281.289 119.499 282.115 119.774ZM283.49 105.888C284.315 99.7012 287.89 98.8763 291.053 98.8763H291.603C294.904 98.8763 298.892 99.4263 302.468 99.7012C310.581 100.801 318.42 101.626 323.096 98.8763L323.646 98.6013L325.021 98.8763L325.296 99.7012C325.296 101.901 325.846 104.651 325.571 107.538C325.021 112.213 322.821 114.275 318.282 114.275C314.707 114.55 310.719 114 306.318 113.45C298.204 112.625 290.366 111.8 285.69 114.275L284.04 115.1L283.765 113.175C283.49 111.25 282.94 108.638 283.49 105.888Z" fill="white"/>
<path d="M379.479 161.57C377.416 152.633 369.577 146.446 360.364 146.446H248.697C239.483 146.446 231.645 152.633 229.582 161.57L222.706 190.854C221.331 196.766 222.706 202.816 226.419 207.49C230.132 212.165 235.77 214.915 241.821 214.915H367.102C373.153 214.915 378.654 212.165 382.504 207.49C386.217 202.816 387.592 196.766 386.217 190.854L379.479 161.57ZM374.941 201.441C373.015 203.778 370.127 205.153 367.102 205.153H241.821C238.796 205.153 235.908 203.778 233.983 201.441C232.057 199.104 231.37 195.941 232.057 192.917L238.933 163.632C240.033 159.095 244.022 155.933 248.697 155.933H360.364C365.039 155.933 369.027 159.095 370.127 163.632L377.003 192.917C377.554 196.079 376.866 199.104 374.941 201.441Z" fill="white"/>
<path d="M327.909 169.132C327.634 168.857 327.359 168.857 327.083 168.582L323.783 167.482C322.683 167.207 321.583 167.482 320.758 168.032C318.007 170.507 309.343 169.407 302.605 168.582C298.479 168.032 294.216 167.482 290.641 167.757C283.627 167.757 278.951 171.881 278.126 179.443C277.301 184.805 278.951 191.405 280.052 192.504C280.602 193.054 281.152 193.329 281.977 193.604L284.727 194.154C285.002 194.154 285.002 194.154 285.277 194.154C286.102 194.154 286.928 193.879 287.478 193.329C290.228 190.855 298.892 191.68 305.905 192.504C310.306 193.054 314.844 193.329 318.695 193.329C327.909 193.054 330.384 186.867 330.934 181.918C330.934 177.518 330.109 170.369 327.909 169.132ZM325.571 181.231C325.021 185.905 322.82 187.967 318.282 187.967C314.707 188.242 310.719 187.692 306.318 187.142C298.204 186.318 290.366 185.493 285.69 187.967L284.04 188.792L283.765 186.868C283.49 184.943 282.94 182.193 283.49 179.581C284.315 173.394 287.89 172.569 291.053 172.569H291.603C294.904 172.569 298.892 173.119 302.467 173.394C310.581 174.494 318.42 175.319 323.095 172.569L323.645 172.294L325.021 172.569L325.296 173.394C325.296 175.594 325.846 178.343 325.571 181.231Z" fill="white"/>
<path d="M546.566 44.8438H437.925C425.823 44.8438 415.922 54.7428 415.922 66.8416V104.788C415.922 116.887 425.823 126.786 437.925 126.786H546.566C558.668 126.786 568.569 116.887 568.569 104.788V66.8416C568.707 54.7428 558.805 44.8438 546.566 44.8438ZM560.455 104.788C560.455 112.35 554.267 118.537 546.703 118.537H438.063C430.499 118.537 424.311 112.35 424.311 104.788V66.8416C424.311 59.2798 430.499 53.0929 438.063 53.0929H546.703C554.267 53.0929 560.455 59.2798 560.455 66.8416V104.788Z" fill="white"/>
<path d="M523.049 69.7288C522.637 69.3164 522.362 69.3164 521.949 69.0414L517.824 67.6665C516.449 67.2541 515.073 67.6665 513.973 68.3539C510.535 71.5161 499.534 70.1413 490.87 69.0414C485.644 68.3539 480.143 67.6665 475.743 67.9415C466.804 67.9415 460.89 73.166 459.928 82.79C458.828 89.6644 461.028 97.9136 462.403 99.2884C463.091 99.9759 463.778 100.388 464.879 100.663L468.317 101.351C468.729 101.351 468.729 101.351 469.004 101.351C470.104 101.351 471.067 100.938 471.755 100.251C475.193 97.0886 486.194 98.1885 495.133 99.1509C500.634 99.8384 506.547 100.251 511.36 100.251C523.049 99.8384 526.212 92.0016 526.9 85.8147C526.763 80.4528 525.8 71.5161 523.049 69.7288ZM519.887 85.2648C519.199 91.1767 516.449 93.9265 510.535 93.9265C505.997 94.3389 500.909 93.514 495.408 92.8266C485.094 91.7267 475.055 90.7643 469.279 93.9265L467.216 95.0263L466.804 92.5516C466.391 90.0768 465.704 86.6397 466.391 83.2025C467.491 75.2283 471.892 74.2659 476.018 74.2659H476.705C480.831 74.2659 486.057 74.9533 490.457 75.3658C500.771 76.7406 510.81 77.8405 516.586 74.2659L517.274 73.8534L519.061 74.2659L519.474 75.3658C519.612 77.978 520.299 81.4152 519.887 85.2648Z" fill="white"/>
<path d="M546.566 132.698H437.925C425.823 132.698 415.922 142.597 415.922 154.696V192.642C415.922 204.741 425.823 214.64 437.925 214.64H546.566C558.668 214.64 568.569 204.741 568.569 192.642V154.696C568.707 142.597 558.805 132.698 546.566 132.698ZM560.455 192.642C560.455 200.204 554.267 206.391 546.703 206.391H438.063C430.499 206.391 424.311 200.204 424.311 192.642V154.696C424.311 147.134 430.499 140.947 438.063 140.947H546.703C554.267 140.947 560.455 147.134 560.455 154.696V192.642Z" fill="white"/>
<path d="M523.049 157.582C522.637 157.17 522.362 157.17 521.949 156.895L517.824 155.52C516.449 155.108 515.073 155.52 513.973 156.207C510.535 159.37 499.534 157.995 490.87 156.895C485.644 156.207 480.143 155.52 475.743 155.795C466.804 155.795 460.89 161.019 459.928 170.644C458.828 177.518 461.028 185.767 462.403 187.142C463.091 187.829 463.778 188.242 464.879 188.517L468.317 189.204C468.729 189.204 468.729 189.204 469.004 189.204C470.104 189.204 471.067 188.792 471.755 188.104C475.193 184.942 486.194 186.042 495.133 187.004C500.634 187.692 506.547 188.104 511.36 188.104C523.049 187.692 526.212 179.855 526.9 173.668C526.763 168.306 525.8 159.37 523.049 157.582ZM519.887 173.118C519.199 179.03 516.449 181.78 510.535 181.78C505.997 182.192 500.909 181.368 495.408 180.68C485.094 179.58 475.055 178.618 469.279 181.78L467.216 182.88L466.804 180.405C466.391 177.93 465.704 174.493 466.391 171.056C467.491 163.082 471.892 162.119 476.018 162.119H476.705C480.831 162.119 486.057 162.807 490.457 163.219C500.771 164.594 510.81 165.694 516.586 162.119L517.274 161.707L519.061 162.119L519.474 163.219C519.612 165.832 520.299 169.269 519.887 173.118Z" fill="white"/>
</g>
<defs>
<clipPath id="clip0">
<rect width="600" height="256" fill="white" transform="translate(0 3)"/>
</clipPath>
</defs>
</svg>
