<svg width="660" height="404" viewBox="0 0 660 404" fill="none" xmlns="http://www.w3.org/2000/svg">
<path d="M233.826 90.3909L192.818 95.7222C189.5 96.1551 187.161 99.1931 187.593 102.51C188.027 105.827 191.063 108.165 194.381 107.735L194.38 107.733L221.726 104.18C197.158 129.992 184.687 154.992 179.606 177.395C173.62 203.724 177.837 226.212 183.547 242.006C189.264 257.823 196.442 267.06 196.714 267.418C198.774 270.053 202.579 270.522 205.216 268.465C206.361 267.571 207.096 266.347 207.394 265.036C207.783 263.324 207.426 261.454 206.263 259.963L206.261 259.962C206.261 259.962 206.261 259.962 206.238 259.93C205.709 259.242 199.326 250.631 194.465 236.549C189.601 222.446 186.22 202.979 191.419 180.08C196.012 159.906 207.276 136.886 230.697 112.327L234.412 139.177C234.869 142.491 237.928 144.808 241.242 144.348C243.81 143.991 245.778 142.073 246.319 139.686C246.476 138.994 246.514 138.262 246.412 137.514L240.606 95.5657C240.148 92.2718 237.122 89.9619 233.826 90.3909Z" fill="white"/>
<path d="M644.73 157.919H245.519C237.574 157.919 231.101 164.391 231.101 172.334V199.105C231.101 207.048 237.574 213.52 245.519 213.52H644.73C652.675 213.52 659.149 207.048 659.149 199.105V172.334C659.051 164.391 652.577 157.919 644.73 157.919ZM649.242 199.105C649.242 201.655 647.182 203.714 644.632 203.714H245.421C242.871 203.714 240.811 201.655 240.811 199.105V172.334C240.811 169.784 242.871 167.725 245.421 167.725H644.632C647.182 167.725 649.242 169.784 649.242 172.334V199.105Z" fill="white"/>
<mask id="mask0" mask-type="alpha" maskUnits="userSpaceOnUse" x="246" y="28" width="401" height="124">
<rect x="246.079" y="28.6904" width="400.847" height="122.679" fill="#C4C4C4"/>
</mask>
<g mask="url(#mask0)">
<path d="M483.169 77.0513H467.867L468.75 76.4629C470.908 75.09 473.654 73.3249 475.42 70.4811C477.382 67.3431 477.872 62.44 474.831 59.302C471.987 56.3601 467.965 56.5562 465.023 56.6543C464.729 56.6543 464.434 56.6543 464.14 56.6543C457.078 56.8504 450.016 53.5163 445.7 47.9268C445.504 47.6326 445.308 47.3384 445.111 47.0442C443.934 45.4752 442.561 43.612 440.403 42.4353C438.441 41.3566 435.891 41.2585 433.831 42.043C432.066 42.7295 430.791 44.1023 430.202 45.7694C429.516 47.9268 430.202 49.9861 430.595 51.1628L434.714 63.1264C434.224 63.1264 433.831 63.0284 433.341 62.8322C432.851 62.6361 432.262 62.2439 431.575 61.8516C430.202 61.0671 428.535 59.9884 426.377 59.7923C423.434 59.4981 420.394 60.871 418.628 63.3226C416.961 65.578 416.568 68.6179 417.353 71.3637C418.04 73.6191 419.511 75.3842 421.08 76.7571H410.781C399.403 76.7571 390.085 86.073 390.085 97.4483V166.19C390.085 177.565 399.403 186.881 410.781 186.881H483.267C494.645 186.881 503.963 177.565 503.963 166.19V97.7424C503.963 86.3672 494.645 77.0513 483.169 77.0513ZM497.097 105.784V157.953H396.853V105.784H497.097ZM437.166 48.6132C437.951 49.1035 438.736 50.0841 439.619 51.2609C439.815 51.5551 440.109 51.8493 440.305 52.2415C445.896 59.5962 455.116 63.9109 464.336 63.6167C464.631 63.6167 465.023 63.6167 465.317 63.6167C467.083 63.5187 469.142 63.4206 469.829 64.107C470.221 64.4993 470.221 65.8722 469.535 66.8528C468.554 68.3237 466.788 69.5005 464.925 70.6772L455.116 77.0513H446.681L437.166 49.1035C437.166 49.0054 437.068 48.7113 436.97 48.5151C437.068 48.6132 437.068 48.6132 437.166 48.6132ZM428.535 74.0113C426.475 72.6385 424.513 71.2656 424.121 69.6966C423.925 69.0102 424.023 68.1276 424.415 67.6373C424.709 67.147 425.396 66.8528 425.886 66.9509C426.475 67.0489 427.358 67.5392 428.241 68.0295C429.025 68.5199 429.908 69.0102 430.889 69.4024C432.851 70.1869 435.107 70.383 437.166 70.0889L439.619 77.1493H433.341L428.535 74.0113ZM410.781 83.9156H483.267C490.918 83.9156 497.097 90.0936 497.097 97.7424H396.853C396.853 90.1916 403.13 83.9156 410.781 83.9156ZM483.169 180.409H410.781C403.13 180.409 396.951 174.231 396.951 166.582V165.994H497.097V166.582C497.097 174.133 490.82 180.409 483.169 180.409Z" fill="white"/>
<path d="M417.942 146.97C418.629 147.657 419.217 147.951 420.198 148.245L423.435 148.932C423.729 148.932 423.729 148.932 424.122 148.932C425.102 148.932 426.083 148.638 426.672 147.951C429.909 145.009 440.306 145.99 448.741 146.97C453.94 147.657 459.433 147.951 463.945 147.951C474.93 147.657 477.873 140.204 478.559 134.32C478.559 129.123 477.579 120.69 475.028 119.121C474.734 118.827 474.342 118.827 474.047 118.434L470.124 117.159C468.849 116.865 467.574 117.159 466.593 117.846C463.356 120.788 452.959 119.513 444.818 118.532C439.913 117.846 434.715 117.258 430.497 117.552C422.062 117.552 416.569 122.455 415.588 131.477C414.705 137.949 416.569 145.696 417.942 146.97ZM421.767 131.771C422.748 124.318 426.966 123.337 430.889 123.337H431.576C435.5 123.337 440.306 124.024 444.523 124.318C454.234 125.593 463.65 126.573 469.143 123.337L469.83 123.043L471.497 123.337L471.791 124.318C471.791 126.868 472.478 130.202 472.086 133.732C471.399 139.224 468.849 141.871 463.356 141.871C459.138 142.165 454.234 141.577 449.035 140.891C439.325 139.91 429.909 138.929 424.416 141.871L422.454 142.852L422.16 140.596C421.767 138.243 421.179 135.007 421.767 131.771Z" fill="white"/>
<path d="M609.474 77.0513H594.173L595.056 76.4629C597.214 75.09 599.96 73.3249 601.726 70.4811C603.687 67.3431 604.178 62.44 601.137 59.302C598.293 56.3601 594.271 56.5562 591.329 56.6543C591.034 56.6543 590.74 56.6543 590.446 56.6543C583.384 56.8504 576.321 53.5163 572.006 47.9268C571.809 47.6326 571.613 47.3384 571.417 47.0442C570.24 45.4752 568.867 43.612 566.709 42.4353C564.747 41.3566 562.197 41.2585 560.137 42.043C558.372 42.7295 557.096 44.1023 556.508 45.7694C555.821 47.9268 556.508 49.9861 556.9 51.1628L561.02 63.1264C560.529 63.1264 560.137 63.0284 559.647 62.8322C559.156 62.6361 558.568 62.2439 557.881 61.8516C556.508 61.0671 554.84 59.9884 552.683 59.7923C549.74 59.4981 546.699 60.871 544.934 63.3226C543.266 65.578 542.874 68.6179 543.659 71.3637C544.345 73.6191 545.816 75.3842 547.386 76.7571H537.087C525.709 76.7571 516.391 86.073 516.391 97.4483V166.19C516.391 177.565 525.709 186.881 537.087 186.881H609.573C620.951 186.881 630.269 177.565 630.269 166.19V97.7424C630.269 86.3672 620.951 77.0513 609.474 77.0513ZM623.403 105.784V157.953H523.159V105.784H623.403ZM563.472 48.6132C564.257 49.1035 565.041 50.0841 565.924 51.2609C566.12 51.5551 566.415 51.8493 566.611 52.2415C572.202 59.5962 581.422 63.9109 590.642 63.6167C590.936 63.6167 591.329 63.6167 591.623 63.6167C593.388 63.5187 595.448 63.4206 596.135 64.107C596.527 64.4993 596.527 65.8722 595.84 66.8528C594.86 68.3237 593.094 69.5005 591.23 70.6772L581.422 77.0513H572.986L563.472 49.1035C563.472 49.0054 563.374 48.7113 563.276 48.5151C563.374 48.6132 563.374 48.6132 563.472 48.6132ZM554.84 74.0113C552.781 72.6385 550.819 71.2656 550.427 69.6966C550.23 69.0102 550.328 68.1276 550.721 67.6373C551.015 67.147 551.702 66.8528 552.192 66.9509C552.781 67.0489 553.663 67.5392 554.546 68.0295C555.331 68.5199 556.214 69.0102 557.194 69.4024C559.156 70.1869 561.412 70.383 563.472 70.0889L565.924 77.1493H559.647L554.84 74.0113ZM537.087 83.9156H609.573C617.223 83.9156 623.403 90.0936 623.403 97.7424H523.159C523.159 90.1916 529.436 83.9156 537.087 83.9156ZM609.474 180.409H537.087C529.436 180.409 523.257 174.231 523.257 166.582V165.994H623.403V166.582C623.403 174.133 617.125 180.409 609.474 180.409Z" fill="white"/>
<path d="M544.248 146.97C544.934 147.657 545.523 147.951 546.504 148.245L549.741 148.932C550.035 148.932 550.035 148.932 550.427 148.932C551.408 148.932 552.389 148.638 552.977 147.951C556.214 145.009 566.611 145.99 575.047 146.97C580.245 147.657 585.738 147.951 590.25 147.951C601.236 147.657 604.178 140.204 604.865 134.32C604.865 129.123 603.884 120.69 601.334 119.121C601.04 118.827 600.647 118.827 600.353 118.434L596.43 117.159C595.155 116.865 593.879 117.159 592.899 117.846C589.662 120.788 579.265 119.513 571.123 118.532C566.219 117.846 561.02 117.258 556.803 117.552C548.367 117.552 542.875 122.455 541.894 131.477C541.011 137.949 542.875 145.696 544.248 146.97ZM548.073 131.771C549.054 124.318 553.272 123.337 557.195 123.337H557.882C561.805 123.337 566.611 124.024 570.829 124.318C580.54 125.593 589.956 126.573 595.449 123.337L596.135 123.043L597.803 123.337L598.097 124.318C598.097 126.868 598.784 130.202 598.391 133.732C597.705 139.224 595.155 141.871 589.662 141.871C585.444 142.165 580.54 141.577 575.341 140.891C565.631 139.91 556.214 138.929 550.721 141.871L548.76 142.852L548.465 140.596C548.073 138.243 547.485 135.007 548.073 131.771Z" fill="white"/>
</g>
<g clip-path="url(#clip0)">
<path d="M644.73 347.807H245.519C237.574 347.807 231.101 354.279 231.101 362.222V388.993C231.101 396.936 237.574 403.408 245.519 403.408H644.73C652.675 403.408 659.149 396.936 659.149 388.993V362.222C659.051 354.279 652.577 347.807 644.73 347.807ZM649.242 388.993C649.242 391.542 647.183 393.602 644.632 393.602H245.421C242.871 393.602 240.811 391.542 240.811 388.993V362.222C240.811 359.672 242.871 357.613 245.421 357.613H644.632C647.183 357.613 649.242 359.672 649.242 362.222V388.993Z" fill="white"/>
</g>
<mask id="mask1" mask-type="alpha" maskUnits="userSpaceOnUse" x="246" y="218" width="401" height="124">
<rect x="246.079" y="218.578" width="400.847" height="122.679" fill="#C4C4C4"/>
</mask>
<g mask="url(#mask1)">
<path d="M403.579 319.206H492.936C497.252 319.206 501.175 317.245 503.921 313.911C506.57 310.577 507.551 306.262 506.57 302.045L501.665 281.158C500.194 274.784 494.603 270.371 488.031 270.371H408.385C401.814 270.371 396.223 274.784 394.751 281.158L389.847 302.045C388.866 306.262 389.847 310.577 392.495 313.911C395.34 317.343 399.362 319.206 403.579 319.206ZM396.713 303.614L401.618 282.727C402.402 279.491 405.247 277.235 408.582 277.235H488.228C491.563 277.235 494.407 279.491 495.192 282.727L500.096 303.614C500.587 305.772 500.096 307.929 498.723 309.694C497.35 311.361 495.29 312.342 493.132 312.342H403.775C401.618 312.342 399.558 311.361 398.184 309.694C396.713 307.929 396.223 305.772 396.713 303.614Z" fill="white"/>
<path d="M432.319 304.007L434.28 304.399C434.476 304.399 434.476 304.399 434.673 304.399C435.261 304.399 435.85 304.203 436.242 303.811C438.204 302.045 444.383 302.634 449.386 303.222C452.524 303.614 455.761 303.811 458.508 303.811C465.079 303.614 466.845 299.202 467.237 295.671C467.237 292.533 466.649 287.532 465.079 286.552C464.883 286.355 464.687 286.355 464.491 286.159L462.137 285.375C461.352 285.179 460.567 285.375 459.979 285.767C458.017 287.532 451.838 286.748 447.032 286.159C444.089 285.767 441.048 285.375 438.498 285.571C433.496 285.571 430.161 288.513 429.572 293.906C428.984 297.731 430.161 302.438 430.945 303.222C431.338 303.614 431.73 303.811 432.319 304.007ZM433.299 294.102C433.888 289.69 436.438 289.101 438.694 289.101H439.087C441.441 289.101 444.285 289.493 446.835 289.69C452.622 290.474 458.213 291.062 461.548 289.101L461.941 288.905L462.921 289.101L463.118 289.69C463.118 291.259 463.51 293.22 463.314 295.279C462.921 298.613 461.352 300.084 458.115 300.084C455.565 300.28 452.721 299.888 449.582 299.496C443.795 298.907 438.204 298.319 434.869 300.084L433.692 300.673L433.496 299.3C433.299 297.927 432.907 296.064 433.299 294.102Z" fill="white"/>
<path d="M501.763 333.817C500.292 327.443 494.701 323.03 488.129 323.03H408.483C401.911 323.03 396.32 327.443 394.849 333.817L389.945 354.704C388.964 358.921 389.945 363.236 392.593 366.57C395.241 369.904 399.263 371.865 403.579 371.865H492.935C497.251 371.865 501.175 369.904 503.921 366.57C506.569 363.236 507.55 358.921 506.569 354.704L501.763 333.817ZM498.526 362.255C497.153 363.922 495.093 364.903 492.935 364.903H403.579C401.421 364.903 399.361 363.922 397.988 362.255C396.615 360.588 396.124 358.333 396.615 356.175L401.519 335.288C402.304 332.052 405.148 329.797 408.483 329.797H488.129C491.464 329.797 494.309 332.052 495.093 335.288L499.998 356.175C500.39 358.431 499.9 360.588 498.526 362.255Z" fill="white"/>
<path d="M464.982 339.211C464.786 339.015 464.589 339.015 464.393 338.818L462.039 338.034C461.254 337.838 460.47 338.034 459.881 338.426C457.92 340.191 451.74 339.407 446.934 338.818C443.991 338.426 440.951 338.034 438.4 338.23C433.398 338.23 430.063 341.172 429.474 346.565C428.886 350.39 430.063 355.097 430.848 355.881C431.24 356.274 431.632 356.47 432.221 356.666L434.183 357.058C434.379 357.058 434.379 357.058 434.575 357.058C435.163 357.058 435.752 356.862 436.144 356.47C438.106 354.705 444.286 355.293 449.288 355.881C452.427 356.274 455.664 356.47 458.41 356.47C464.982 356.274 466.747 351.861 467.14 348.331C467.14 345.193 466.551 340.093 464.982 339.211ZM463.314 347.84C462.922 351.174 461.353 352.645 458.116 352.645C455.565 352.841 452.721 352.449 449.582 352.057C443.795 351.469 438.204 350.88 434.869 352.645L433.692 353.234L433.496 351.861C433.3 350.488 432.908 348.527 433.3 346.663C433.888 342.251 436.439 341.662 438.695 341.662H439.087C441.441 341.662 444.286 342.055 446.836 342.251C452.623 343.035 458.214 343.624 461.549 341.662L461.941 341.466L462.922 341.662L463.118 342.251C463.118 343.82 463.51 345.781 463.314 347.84Z" fill="white"/>
<path d="M531.355 319.206H620.711C625.027 319.206 628.95 317.245 631.697 313.911C634.345 310.577 635.326 306.262 634.345 302.045L629.441 281.158C627.97 274.784 622.379 270.371 615.807 270.371H536.161C529.589 270.371 523.998 274.784 522.527 281.158L517.623 302.045C516.642 306.262 517.623 310.577 520.271 313.911C523.115 317.343 527.137 319.206 531.355 319.206ZM524.489 303.614L529.393 282.727C530.178 279.491 533.022 277.235 536.357 277.235H616.003C619.338 277.235 622.183 279.491 622.967 282.727L627.872 303.614C628.362 305.772 627.871 307.929 626.498 309.694C625.125 311.361 623.065 312.342 620.907 312.342H531.551C529.393 312.342 527.333 311.361 525.96 309.694C524.489 307.929 523.998 305.772 524.489 303.614Z" fill="white"/>
<path d="M560.094 304.007L562.056 304.399C562.252 304.399 562.252 304.399 562.448 304.399C563.037 304.399 563.625 304.203 564.017 303.811C565.979 302.045 572.159 302.634 577.161 303.222C580.3 303.614 583.537 303.811 586.283 303.811C592.855 303.614 594.62 299.202 595.013 295.671C595.013 292.533 594.424 287.532 592.855 286.552C592.659 286.355 592.462 286.355 592.266 286.159L589.912 285.375C589.127 285.179 588.343 285.375 587.754 285.767C585.793 287.532 579.613 286.748 574.807 286.159C571.864 285.767 568.824 285.375 566.273 285.571C561.271 285.571 557.936 288.513 557.348 293.906C556.759 297.731 557.936 302.438 558.721 303.222C559.113 303.614 559.505 303.811 560.094 304.007ZM561.075 294.102C561.663 289.69 564.214 289.101 566.47 289.101H566.862C569.216 289.101 572.06 289.493 574.611 289.69C580.398 290.474 585.989 291.062 589.324 289.101L589.716 288.905L590.697 289.101L590.893 289.69C590.893 291.259 591.285 293.22 591.089 295.279C590.697 298.613 589.127 300.084 585.891 300.084C583.34 300.28 580.496 299.888 577.357 299.496C571.57 298.907 565.979 298.319 562.644 300.084L561.467 300.673L561.271 299.3C561.075 297.927 560.682 296.064 561.075 294.102Z" fill="white"/>
<path d="M629.539 333.817C628.067 327.443 622.476 323.03 615.905 323.03H536.259C529.687 323.03 524.096 327.443 522.625 333.817L517.72 354.704C516.739 358.921 517.72 363.236 520.369 366.57C523.017 369.904 527.038 371.865 531.354 371.865H620.711C625.027 371.865 628.95 369.904 631.696 366.57C634.345 363.236 635.326 358.921 634.345 354.704L629.539 333.817ZM626.302 362.255C624.929 363.922 622.869 364.903 620.711 364.903H531.354C529.196 364.903 527.137 363.922 525.763 362.255C524.39 360.588 523.9 358.333 524.39 356.175L529.294 335.288C530.079 332.052 532.924 329.797 536.259 329.797H615.905C619.239 329.797 622.084 332.052 622.869 335.288L627.773 356.175C628.165 358.431 627.675 360.588 626.302 362.255Z" fill="white"/>
<path d="M592.756 339.211C592.56 339.015 592.364 339.015 592.168 338.818L589.814 338.034C589.029 337.838 588.244 338.034 587.656 338.426C585.694 340.191 579.514 339.407 574.708 338.818C571.766 338.426 568.725 338.034 566.175 338.23C561.172 338.23 557.837 341.172 557.249 346.565C556.66 350.39 557.837 355.097 558.622 355.881C559.014 356.274 559.407 356.47 559.995 356.666L561.957 357.058C562.153 357.058 562.153 357.058 562.349 357.058C562.938 357.058 563.526 356.862 563.919 356.47C565.88 354.705 572.06 355.293 577.062 355.881C580.201 356.274 583.438 356.47 586.184 356.47C592.756 356.274 594.522 351.861 594.914 348.331C594.914 345.193 594.326 340.093 592.756 339.211ZM591.089 347.84C590.696 351.174 589.127 352.645 585.89 352.645C583.34 352.841 580.495 352.449 577.357 352.057C571.569 351.469 565.979 350.88 562.644 352.645L561.467 353.234L561.27 351.861C561.074 350.488 560.682 348.527 561.074 346.663C561.663 342.251 564.213 341.662 566.469 341.662H566.861C569.215 341.662 572.06 342.055 574.61 342.251C580.397 343.035 585.988 343.624 589.323 341.662L589.715 341.466L590.696 341.662L590.892 342.251C590.892 343.82 591.285 345.781 591.089 347.84Z" fill="white"/>
</g>
<path d="M69.0993 206.306C69.7859 206.993 70.3744 207.287 71.3553 207.581L74.5921 208.268C74.8864 208.268 74.8864 208.268 75.2787 208.268C76.2596 208.268 77.2405 207.973 77.829 207.287C81.0658 204.345 91.463 205.326 99.8984 206.306C105.097 206.993 110.59 207.287 115.102 207.287C126.087 206.993 129.03 199.54 129.717 193.656C129.717 188.459 128.736 180.026 126.186 178.457C125.891 178.162 125.499 178.162 125.205 177.77L121.281 176.495C120.006 176.201 118.731 176.495 117.75 177.182C114.513 180.124 104.116 178.849 95.9749 177.868C91.0706 177.182 85.872 176.593 81.6543 176.888C73.2189 176.888 67.7261 181.791 66.7452 190.813C65.8625 197.285 67.7261 205.032 69.0993 206.306ZM72.9247 191.107C73.9055 183.654 78.1232 182.673 82.0467 182.673H82.7333C86.6567 182.673 91.463 183.36 95.6807 183.654C105.391 184.929 114.807 185.909 120.3 182.673L120.987 182.379L122.654 182.673L122.949 183.654C122.949 186.204 123.635 189.538 123.243 193.068C122.556 198.559 120.006 201.207 114.513 201.207C110.296 201.501 105.391 200.913 100.193 200.227C90.4821 199.246 81.0658 198.265 75.573 201.207L73.6113 202.188L73.317 199.932C72.9247 197.579 72.3361 194.343 72.9247 191.107Z" fill="white"/>
<path d="M134.326 136.387H119.025L119.907 135.799C122.065 134.426 124.812 132.661 126.577 129.817C128.539 126.679 129.029 121.776 125.989 118.638C123.144 115.696 119.123 115.892 116.18 115.99C115.886 115.99 115.592 115.99 115.297 115.99C108.235 116.186 101.173 112.852 96.8571 107.263C96.6609 106.969 96.4647 106.674 96.2686 106.38C95.0915 104.811 93.7183 102.948 91.5604 101.771C89.5987 100.693 87.0485 100.594 84.9887 101.379C83.2231 102.065 81.948 103.438 81.3595 105.105C80.6729 107.263 81.3595 109.322 81.7518 110.499L85.8714 122.462C85.381 122.462 84.9887 122.364 84.4982 122.168C84.0078 121.972 83.4193 121.58 82.7327 121.188C81.3595 120.403 79.692 119.324 77.5341 119.128C74.5915 118.834 71.5508 120.207 69.7853 122.658C68.1178 124.914 67.7255 127.954 68.5102 130.7C69.1968 132.955 70.6681 134.72 72.2374 136.093H61.9384C50.5604 136.093 41.2422 145.409 41.2422 156.784V225.526C41.2422 236.901 50.5604 246.217 61.9384 246.217H134.424C145.802 246.217 155.12 236.901 155.12 225.526V157.078C155.12 145.703 145.802 136.387 134.326 136.387ZM148.254 165.119V217.289H48.0101V165.119H148.254ZM88.3236 107.949C89.1083 108.439 89.893 109.42 90.7757 110.597C90.9719 110.891 91.2662 111.185 91.4623 111.577C97.0533 118.932 106.273 123.247 115.493 122.953C115.788 122.953 116.18 122.953 116.474 122.953C118.24 122.855 120.3 122.757 120.986 123.443C121.379 123.835 121.379 125.208 120.692 126.189C119.711 127.66 117.946 128.836 116.082 130.013L106.273 136.387H97.838L88.3236 108.439C88.3236 108.341 88.2255 108.047 88.1274 107.851C88.2255 107.949 88.2255 107.949 88.3236 107.949ZM79.692 133.347C77.6322 131.974 75.6705 130.602 75.2781 129.033C75.0819 128.346 75.18 127.464 75.5724 126.973C75.8666 126.483 76.5532 126.189 77.0437 126.287C77.6322 126.385 78.515 126.875 79.3977 127.365C80.1824 127.856 81.0652 128.346 82.0461 128.738C84.0078 129.523 86.2638 129.719 88.3236 129.425L90.7757 136.485H84.4982L79.692 133.347ZM61.9384 143.252H134.424C142.075 143.252 148.254 149.43 148.254 157.078H48.0101C48.0101 149.528 54.2877 143.252 61.9384 143.252ZM134.326 239.745H61.9384C54.2877 239.745 48.1082 233.567 48.1082 225.918V225.33H148.254V225.918C148.254 233.469 141.977 239.745 134.326 239.745Z" fill="white"/>
<mask id="mask2" mask-type="alpha" maskUnits="userSpaceOnUse" x="0" y="234" width="106" height="112">
<path d="M105.684 291.888C93.7606 252.731 64.4717 238.036 49.4547 234.043L37.5991 249.788C22.0175 247.392 17.8367 257.423 17.2753 258.345C14.5654 262.794 14.9041 264.506 13.5492 268.955L6.94398 290.176L0 311.397L52.1645 345.625C70.8624 348.089 95.6349 310.827 105.684 291.888Z" fill="white"/>
</mask>
<g mask="url(#mask2)">
<path d="M103.654 288.012C101.938 277.873 97.2778 268.461 90.2545 260.949C85.2291 255.244 79.5683 250.131 73.3823 245.711L84.9134 228.944C86.7689 226.034 87.3964 222.508 86.6589 219.137C85.9213 215.765 83.8787 212.823 80.9777 210.953C78.1941 208.913 74.7159 208.058 71.3037 208.576C67.8915 209.093 64.8231 210.941 62.7695 213.715L41.0126 245.349L39.3887 236.869C38.6633 233.149 36.5073 229.861 33.3841 227.713C30.2609 225.565 26.4197 224.728 22.6858 225.382C20.8265 225.693 19.0484 226.374 17.457 227.384C15.8655 228.395 14.493 229.714 13.4208 231.265C11.2915 234.237 10.4263 237.931 11.0144 241.539L13.7461 269.14C11.3887 274.09 9.97168 279.436 9.56706 284.905C9.16845 289.05 9.43876 293.232 10.3676 297.291L6.19032 303.365C5.58472 304.224 5.33154 305.283 5.4829 306.323C5.63426 307.363 6.17864 308.306 7.004 308.957L51.0072 339.221C51.9104 339.759 52.9854 339.93 54.011 339.699C55.0365 339.468 55.9346 338.853 56.5203 337.98L62.3947 329.439C73.7013 326.313 83.5181 319.248 90.0737 309.52L103.128 290.539C103.59 289.783 103.776 288.89 103.654 288.012ZM83.6381 305.327C78.0556 313.876 69.4944 320.046 59.6177 322.636C58.5282 322.725 57.5144 323.229 56.7858 324.044L52.0863 330.877L14.5682 305.073L17.7882 300.391C18.1454 299.873 18.3699 299.276 18.4421 298.651C18.5143 298.026 18.4319 297.393 18.2021 296.808C17.1682 293.234 16.8602 289.489 17.2965 285.794C17.6283 280.996 18.9429 276.317 21.1588 272.048C21.5957 271.34 21.7908 270.509 21.7149 269.681L18.8134 240.565C18.6505 239.717 18.6579 238.844 18.8351 237.998C19.0123 237.152 19.3558 236.349 19.8456 235.637C20.3354 234.925 20.9619 234.317 21.6885 233.849C22.4152 233.381 23.2276 233.062 24.0785 232.91C25.8257 232.601 27.6244 232.991 29.0864 233.996C30.5483 235.002 31.5561 236.542 31.8922 238.284L34.8554 254.301L28.0237 264.234L36.5262 265.422L69.0963 218.066C70.0053 216.985 71.2982 216.3 72.7027 216.153C74.1072 216.006 75.5138 216.411 76.6263 217.28C77.8365 218.008 78.7171 219.177 79.0827 220.541C79.4484 221.905 79.2705 223.358 78.5866 224.593L52.9134 261.921L58.3047 267.633L69.0091 252.069C71.6279 253.947 74.1475 255.96 76.5577 258.099L65.1788 274.644L69.4788 279.232L81.1187 262.308C82.2417 263.453 83.3745 264.652 84.4954 265.935C85.8404 267.492 87.1002 269.121 88.2694 270.814L77.0646 287.106L81.3646 291.694L91.7426 276.605C93.6199 280.034 95.0146 283.706 95.8872 287.516L83.6381 305.327Z" fill="#FCB527"/>
<path d="M15.9746 274.184C16.5425 262.825 19.3822 249.308 38.8056 253.057" stroke="#FCB527" stroke-width="9"/>
<path d="M72.1998 249.65C69.8144 246.697 62.5903 239.836 52.7764 236.02" stroke="#FCB527" stroke-width="10"/>
</g>
<defs>
<clipPath id="clip0">
<rect width="427.95" height="182.592" fill="white" transform="translate(231.101 220.718)"/>
</clipPath>
</defs>
</svg>
