<svg width="87" height="70" viewBox="0 0 87 70" fill="none" xmlns="http://www.w3.org/2000/svg">
<path d="M83.7389 69.3133H3.26107C1.4595 69.3133 0 67.8538 0 66.0522V38.1849C0 36.3833 1.4595 34.9238 3.26107 34.9238H83.7389C85.5404 34.9238 86.9999 36.3833 86.9999 38.1849V66.0522C86.9999 67.8538 85.5404 69.3133 83.7389 69.3133Z" fill="#77D9FE"/>
<path d="M17.9016 52.779H4.05913C1.89268 52.779 0.136719 50.5213 0.136719 47.7392V45.7323C0.136719 42.9502 0.866468 36.4736 10.4216 36.4736C20.3645 36.4736 21.824 42.9502 21.824 45.7323V47.7392C21.824 50.5213 20.068 52.779 17.9016 52.779Z" fill="#DB964B"/>
<mask id="mask0" mask-type="alpha" maskUnits="userSpaceOnUse" x="0" y="36" width="22" height="17">
<path d="M17.9016 52.779H4.05913C1.89268 52.779 0.136719 50.5213 0.136719 47.7392V45.7323C0.136719 42.9502 0.866468 36.4736 10.4216 36.4736C20.3645 36.4736 21.824 42.9502 21.824 45.7323V47.7392C21.824 50.5213 20.068 52.779 17.9016 52.779Z" fill="#DB964B"/>
</mask>
<g mask="url(#mask0)">
<path d="M10.969 59.8717C4.97131 59.8717 0.136719 59.0735 0.136719 58.0929V49.1079C0.136719 48.1273 4.99412 47.3291 10.969 47.3291C16.9438 47.3291 21.8012 48.1273 21.8012 49.1079V58.0701C21.824 59.0507 16.9666 59.8717 10.969 59.8717Z" fill="#D6B05B"/>
</g>
<path d="M39.5656 52.779H25.7232C23.5567 52.779 21.8008 50.5213 21.8008 47.7392V45.7323C21.8008 42.9502 22.5305 36.4736 32.0857 36.4736C42.0285 36.4736 43.488 42.9502 43.488 45.7323V47.7392C43.488 50.5213 41.7321 52.779 39.5656 52.779Z" fill="#DB964B"/>
<mask id="mask1" mask-type="alpha" maskUnits="userSpaceOnUse" x="21" y="36" width="23" height="17">
<path d="M39.5656 52.779H25.7232C23.5567 52.779 21.8008 50.5213 21.8008 47.7392V45.7323C21.8008 42.9502 22.5305 36.4736 32.0857 36.4736C42.0285 36.4736 43.488 42.9502 43.488 45.7323V47.7392C43.488 50.5213 41.7321 52.779 39.5656 52.779Z" fill="#DB964B"/>
</mask>
<g mask="url(#mask1)">
<path d="M32.6565 59.8717C26.6588 59.8717 21.8242 59.0735 21.8242 58.0929V49.1079C21.8242 48.1273 26.6816 47.3291 32.6565 47.3291C38.6313 47.3291 43.4887 48.1273 43.4887 49.1079V58.0701C43.4887 59.0507 38.6541 59.8717 32.6565 59.8717Z" fill="#D6B05B"/>
</g>
<path d="M61.2531 52.779H47.4107C45.2442 52.779 43.4883 50.5213 43.4883 47.7392V45.7323C43.4883 42.9502 44.218 36.4736 53.7732 36.4736C63.7161 36.4736 65.1756 42.9502 65.1756 45.7323V47.7392C65.1756 50.5213 63.4196 52.779 61.2531 52.779Z" fill="#DB964B"/>
<mask id="mask2" mask-type="alpha" maskUnits="userSpaceOnUse" x="43" y="36" width="23" height="17">
<path d="M61.2531 52.779H47.4107C45.2442 52.779 43.4883 50.5213 43.4883 47.7392V45.7323C43.4883 42.9502 44.218 36.4736 53.7732 36.4736C63.7161 36.4736 65.1756 42.9502 65.1756 45.7323V47.7392C65.1756 50.5213 63.4196 52.779 61.2531 52.779Z" fill="#DB964B"/>
</mask>
<g mask="url(#mask2)">
<path d="M54.342 59.8717C48.3444 59.8717 43.5098 59.0735 43.5098 58.0929V49.1079C43.5098 48.1273 48.3672 47.3291 54.342 47.3291C60.3168 47.3291 65.1742 48.1273 65.1742 49.1079V58.0701C65.1742 59.0507 60.3168 59.8717 54.342 59.8717Z" fill="#D6B05B"/>
</g>
<path d="M82.9406 52.779H69.0982C66.9317 52.779 65.1758 50.5213 65.1758 47.7392V45.7323C65.1758 42.9502 65.9055 36.4736 75.4607 36.4736C85.4036 36.4736 86.8631 42.9502 86.8631 45.7323V47.7392C86.8631 50.5213 85.1071 52.779 82.9406 52.779Z" fill="#DB964B"/>
<mask id="mask3" mask-type="alpha" maskUnits="userSpaceOnUse" x="65" y="36" width="22" height="17">
<path d="M82.9406 52.779H69.0982C66.9317 52.779 65.1758 50.5213 65.1758 47.7392V45.7323C65.1758 42.9502 65.9055 36.4736 75.4607 36.4736C85.4036 36.4736 86.8631 42.9502 86.8631 45.7323V47.7392C86.8631 50.5213 85.1071 52.779 82.9406 52.779Z" fill="#DB964B"/>
</mask>
<g mask="url(#mask3)">
<path d="M76.0315 59.8717C70.0338 59.8717 65.1992 59.0735 65.1992 58.0929V49.1079C65.1992 48.1273 70.0566 47.3291 76.0315 47.3291C82.0063 47.3291 86.8637 48.1273 86.8637 49.1079V58.0701C86.8637 59.0507 82.0063 59.8717 76.0315 59.8717Z" fill="#D6B05B"/>
</g>
<path d="M17.9016 69.0847H4.05913C1.89268 69.0847 0.136719 66.827 0.136719 64.0448V62.038C0.136719 59.2558 0.866468 52.7793 10.4216 52.7793C20.3645 52.7793 21.824 59.2558 21.824 62.038V64.0448C21.824 66.827 20.068 69.0847 17.9016 69.0847Z" fill="#DB964B"/>
<mask id="mask4" mask-type="alpha" maskUnits="userSpaceOnUse" x="0" y="52" width="22" height="18">
<path d="M17.9016 69.0847H4.05913C1.89268 69.0847 0.136719 66.827 0.136719 64.0448V62.038C0.136719 59.2558 0.866468 52.7793 10.4216 52.7793C20.3645 52.7793 21.824 59.2558 21.824 62.038V64.0448C21.824 66.827 20.068 69.0847 17.9016 69.0847Z" fill="#DB964B"/>
</mask>
<g mask="url(#mask4)">
<path d="M10.969 76.177C4.97131 76.177 0.136719 75.3788 0.136719 74.3982V65.436C0.136719 64.4554 4.99412 63.6572 10.969 63.6572C16.9438 63.6572 21.8012 64.4554 21.8012 65.436V74.3982C21.824 75.356 16.9666 76.177 10.969 76.177Z" fill="#D6B05B"/>
</g>
<path d="M39.5656 69.0847H25.7232C23.5567 69.0847 21.8008 66.827 21.8008 64.0448V62.038C21.8008 59.2558 22.5305 52.7793 32.0857 52.7793C42.0285 52.7793 43.488 59.2558 43.488 62.038V64.0448C43.488 66.827 41.7321 69.0847 39.5656 69.0847Z" fill="#DB964B"/>
<mask id="mask5" mask-type="alpha" maskUnits="userSpaceOnUse" x="21" y="52" width="23" height="18">
<path d="M39.5656 69.0847H25.7232C23.5567 69.0847 21.8008 66.827 21.8008 64.0448V62.038C21.8008 59.2558 22.5305 52.7793 32.0857 52.7793C42.0285 52.7793 43.488 59.2558 43.488 62.038V64.0448C43.488 66.827 41.7321 69.0847 39.5656 69.0847Z" fill="#DB964B"/>
</mask>
<g mask="url(#mask5)">
<path d="M32.6565 76.177C26.6588 76.177 21.8242 75.3788 21.8242 74.3982V65.436C21.8242 64.4554 26.6816 63.6572 32.6565 63.6572C38.6313 63.6572 43.4887 64.4554 43.4887 65.436V74.3982C43.4887 75.356 38.6541 76.177 32.6565 76.177Z" fill="#D6B05B"/>
</g>
<path d="M61.2531 69.0847H47.4107C45.2442 69.0847 43.4883 66.827 43.4883 64.0448V62.038C43.4883 59.2558 44.218 52.7793 53.7732 52.7793C63.7161 52.7793 65.1756 59.2558 65.1756 62.038V64.0448C65.1756 66.827 63.4196 69.0847 61.2531 69.0847Z" fill="#DB964B"/>
<mask id="mask6" mask-type="alpha" maskUnits="userSpaceOnUse" x="43" y="52" width="23" height="18">
<path d="M61.2531 69.0847H47.4107C45.2442 69.0847 43.4883 66.827 43.4883 64.0448V62.038C43.4883 59.2558 44.218 52.7793 53.7732 52.7793C63.7161 52.7793 65.1756 59.2558 65.1756 62.038V64.0448C65.1756 66.827 63.4196 69.0847 61.2531 69.0847Z" fill="#DB964B"/>
</mask>
<g mask="url(#mask6)">
<path d="M54.342 76.177C48.3444 76.177 43.5098 75.3788 43.5098 74.3982V65.436C43.5098 64.4554 48.3672 63.6572 54.342 63.6572C60.3168 63.6572 65.1742 64.4554 65.1742 65.436V74.3982C65.1742 75.356 60.3168 76.177 54.342 76.177Z" fill="#D6B05B"/>
</g>
<path d="M82.9406 69.0847H69.0982C66.9317 69.0847 65.1758 66.827 65.1758 64.0448V62.038C65.1758 59.2558 65.9055 52.7793 75.4607 52.7793C85.4036 52.7793 86.8631 59.2558 86.8631 62.038V64.0448C86.8631 66.827 85.1071 69.0847 82.9406 69.0847Z" fill="#DB964B"/>
<mask id="mask7" mask-type="alpha" maskUnits="userSpaceOnUse" x="65" y="52" width="22" height="18">
<path d="M82.9406 69.0847H69.0982C66.9317 69.0847 65.1758 66.827 65.1758 64.0448V62.038C65.1758 59.2558 65.9055 52.7793 75.4607 52.7793C85.4036 52.7793 86.8631 59.2558 86.8631 62.038V64.0448C86.8631 66.827 85.1071 69.0847 82.9406 69.0847Z" fill="#DB964B"/>
</mask>
<g mask="url(#mask7)">
<path d="M76.0315 76.177C70.0338 76.177 65.1992 75.3788 65.1992 74.3982V65.436C65.1992 64.4554 70.0566 63.6572 76.0315 63.6572C82.0063 63.6572 86.8637 64.4554 86.8637 65.436V74.3982C86.8637 75.356 82.0063 76.177 76.0315 76.177Z" fill="#D6B05B"/>
</g>
<path opacity="0.3" d="M84.8791 69.3809H2.09803C0.934993 69.3809 0 68.4459 0 67.2828V37.2719C0 36.1088 0.934993 35.1738 2.09803 35.1738H84.8791C86.0421 35.1738 86.9771 36.1088 86.9771 37.2719V67.26C86.9999 68.4231 86.0421 69.3809 84.8791 69.3809Z" fill="white"/>
<mask id="mask8" mask-type="alpha" maskUnits="userSpaceOnUse" x="0" y="34" width="87" height="36">
<path d="M83.7389 69.3123H3.26107C1.4595 69.3123 0 67.8528 0 66.0513V38.1839C0 36.3824 1.4595 34.9229 3.26107 34.9229H83.7389C85.5404 34.9229 86.9999 36.3824 86.9999 38.1839V66.0513C86.9999 67.8528 85.5404 69.3123 83.7389 69.3123Z" fill="#77D9FE"/>
</mask>
<g mask="url(#mask8)">
<path d="M91.5171 31.2275H-3.09961V39.8933H91.5171V31.2275Z" fill="#DE565B"/>
<path opacity="0.15" d="M36.5944 84.8354L62.2793 16.0879L60.2498 15.3296L34.5648 84.0772L36.5944 84.8354Z" fill="white"/>
<path opacity="0.15" d="M43.8248 90.2046L69.5098 21.457L68.5057 21.0819L42.8208 89.8295L43.8248 90.2046Z" fill="white"/>
<path opacity="0.15" d="M42.2662 87.728L67.9512 18.9805L63.5503 17.3363L37.8654 86.0838L42.2662 87.728Z" fill="white"/>
<path opacity="0.15" d="M-9.67908 80.0347L16.0059 11.2871L13.9763 10.5289L-11.7086 79.2764L-9.67908 80.0347Z" fill="white"/>
<path opacity="0.15" d="M-2.46228 85.3745L23.2227 16.627L22.2186 16.2518L-3.46636 84.9994L-2.46228 85.3745Z" fill="white"/>
<path opacity="0.15" d="M-4.0072 82.9272L21.6777 14.1797L17.2769 12.5355L-8.40807 81.283L-4.0072 82.9272Z" fill="white"/>
<path opacity="0.15" d="M72.9616 93.5034L98.6465 24.7559L94.2456 23.1116L68.5607 91.8592L72.9616 93.5034Z" fill="white"/>
<path opacity="0.15" d="M67.5358 90.4741L93.2207 21.7266L91.1912 20.9683L65.5062 89.7159L67.5358 90.4741Z" fill="white"/>
<path opacity="0.15" d="M32.0162 84.7749L57.7012 16.0273L53.3003 14.3831L27.6154 83.1307L32.0162 84.7749Z" fill="white"/>
<path opacity="0.15" d="M26.5905 81.7456L52.2754 12.998L50.2459 12.2398L24.5609 80.9873L26.5905 81.7456Z" fill="white"/>
<path fill-rule="evenodd" clip-rule="evenodd" d="M42.4184 59.9165C37.9715 59.3464 34.4596 59.392 32.4528 60.8059C31.8826 58.5255 31.6546 56.4502 32.0423 54.7171C32.7492 51.6612 34.6648 50.9543 36.4664 50.8631C38.724 50.7263 42.2588 51.4788 45.1322 51.8893C48.8493 52.4138 52.1788 52.505 54.4365 51.2051C55.1434 53.0751 55.2802 54.9679 54.961 56.8835C54.6417 59.0728 53.3419 60.213 51.221 60.4639C48.4844 60.7831 45.4058 60.3042 42.4184 59.9165Z" fill="white"/>
<path fill-rule="evenodd" clip-rule="evenodd" d="M40.8227 52.0027C41.1648 52.0027 41.3244 52.2763 41.3244 52.55C41.3244 52.8465 41.1647 53.1201 40.8455 53.1201C40.5034 53.1201 40.3438 52.8921 40.3438 52.5728C40.321 52.2763 40.4578 52.0027 40.8227 52.0027ZM40.8227 51.7746C40.3438 51.7746 40.0017 52.0255 40.0017 52.5272C40.0017 53.0289 40.2982 53.3026 40.8227 53.3026C41.3244 53.3026 41.6436 53.0289 41.6436 52.5272C41.6436 52.0483 41.3244 51.7746 40.8227 51.7746ZM39.0439 52.4816V52.0255C39.2492 52.0255 39.5228 51.9799 39.5228 52.2535C39.5228 52.4816 39.2492 52.4816 39.0439 52.4816ZM38.7246 53.3026H39.0439V52.6868C39.2948 52.6868 39.614 52.6868 39.7737 52.4588C39.9333 52.2307 39.8649 51.8431 39.4088 51.8202H38.7246V53.3026ZM37.1967 51.8202H37.4704C37.4704 51.9571 37.4704 52.7096 37.4932 52.8237C37.5616 53.1429 38.1317 53.1429 38.1545 52.8009C38.1773 52.5956 38.1545 52.0483 38.1545 51.8202H38.4282C38.4282 52.0027 38.451 52.8009 38.4054 52.9605C38.3142 53.371 37.7212 53.3938 37.4476 53.2569C37.1967 53.1429 37.1739 52.9377 37.1739 52.6868L37.1967 51.8202ZM36.1705 52.4588V52.0255C36.3758 52.0255 36.6722 51.9799 36.6722 52.2307C36.6722 52.5044 36.353 52.4588 36.1705 52.4588ZM35.8741 53.3026H36.1933V52.664H36.3758L36.7178 53.3026H37.0827L36.6722 52.6184C36.8547 52.55 37.0143 52.436 37.0143 52.2079C37.0143 51.9115 36.7634 51.8202 36.5354 51.8202H35.8741V53.3026ZM35.0531 52.4816V52.6868H35.3039V53.0061C35.0531 53.0973 34.6426 53.1201 34.5286 52.8009C34.4146 52.4816 34.5286 52.0027 34.9847 52.0027C35.1671 52.0027 35.2811 52.0483 35.3724 52.2079L35.532 52.0027C35.3952 51.8431 35.2583 51.7974 35.0075 51.7974C34.0269 51.7974 34.0497 52.8237 34.4146 53.1201C34.711 53.371 35.2127 53.3026 35.5776 53.2113V52.5044L35.0531 52.4816ZM40.549 60.144C37.8581 59.8931 35.2811 60.0071 33.6848 61.3298C33.1831 61.2386 32.6814 61.1702 32.1797 61.079C31.564 59.0493 31.4271 56.9285 31.7008 54.7393C32.1341 52.5956 33.2743 50.7028 35.9653 50.5204C38.7703 50.3607 42.5786 51.0449 46.387 51.4326C49.1008 51.7062 51.4725 51.4782 53.046 50.2695C53.6161 50.452 54.209 50.6116 54.7792 50.794C55.5089 52.8693 55.5545 54.9217 55.2124 56.9513C54.7335 59.8247 52.8864 60.8281 50.3778 60.8509C46.9343 60.8737 43.3312 60.4176 40.549 60.144ZM42.419 59.9159C37.9721 59.3458 34.4602 59.3914 32.4534 60.8053C31.8832 58.5248 31.6552 56.4496 32.0429 54.7164C32.7498 51.6606 34.6654 50.9537 36.467 50.8625C38.7246 50.7256 42.2594 51.4782 45.1328 51.8887C48.8499 52.4132 52.1794 52.5044 54.4371 51.2045C55.144 53.0745 55.2809 54.9673 54.9616 56.8829C54.6423 59.0721 53.3425 60.2124 51.2216 60.4632C48.4851 60.7825 45.4064 60.3036 42.419 59.9159Z" fill="#3D438B"/>
<path fill-rule="evenodd" clip-rule="evenodd" d="M47.2305 57.4985H46.2955V54.7163H47.0937C47.5042 54.7163 47.6866 54.8303 47.6866 55.0584C47.7094 55.4004 47.5042 55.5829 47.1849 55.5829H46.8885L46.5236 56.4038H47.2533C47.6182 56.4038 47.9375 56.6547 47.8919 56.974C47.8463 57.2704 47.5726 57.4985 47.2305 57.4985ZM47.3902 58.4107H45.1325V53.7813H47.2761C48.0287 53.7813 48.6672 53.9865 48.7812 54.7163C48.8725 55.2408 48.69 55.6057 48.3023 55.8793C48.8953 56.153 49.1461 56.8599 48.9409 57.5213C48.7356 58.1826 47.9375 58.4107 47.3902 58.4107ZM51.495 54.8075C52.1791 54.8075 52.7265 55.3776 52.7265 56.0618C52.7265 56.7459 52.1791 57.316 51.495 57.316C50.8109 57.316 50.2635 56.7459 50.2635 56.0618C50.2635 55.3776 50.8109 54.8075 51.495 54.8075ZM51.495 53.7129C52.7721 53.7129 53.8211 54.7619 53.8211 56.0618C53.8211 57.3616 52.7949 58.4107 51.495 58.4107C50.1951 58.4107 49.1689 57.3616 49.1689 56.0618C49.1689 54.7619 50.2179 53.7129 51.495 53.7129ZM44.6764 53.7813V58.4107H43.5362V55.4917L42.7836 58.4107H41.689L40.982 55.5145V58.4107H39.8874V53.7813H41.6662L42.2591 56.381L42.852 53.7813H44.6764ZM38.2911 53.7813H39.4085V58.4107H38.2911V53.7813ZM36.2387 57.4985H35.3037V54.7163H36.1018C36.5123 54.7163 36.6948 54.8303 36.6948 55.0584C36.7176 55.4004 36.5123 55.5829 36.193 55.5829H35.8966L35.5317 56.4038H36.2615C36.6263 56.4038 36.9456 56.6547 36.9 56.974C36.8544 57.2704 36.5807 57.4985 36.2387 57.4985ZM36.3983 58.4107H34.1406V53.7813H36.2843C37.0368 53.7813 37.6754 53.9865 37.7894 54.7163C37.8806 55.2408 37.6982 55.6057 37.3105 55.8793C37.9034 56.153 38.1543 56.8599 37.949 57.5213C37.721 58.1826 36.9456 58.4107 36.3983 58.4107Z" fill="#DA243C"/>
</g>
<path d="M83.7389 34.6502H3.26107C1.4595 34.6502 0 33.1907 0 31.3892V3.52182C0 1.72024 1.4595 0.260742 3.26107 0.260742H83.7389C85.5404 0.260742 86.9999 1.72024 86.9999 3.52182V31.3892C86.9999 33.1907 85.5404 34.6502 83.7389 34.6502Z" fill="#77D9FE"/>
<path d="M17.9016 18.1159H4.05913C1.89268 18.1159 0.136719 15.8582 0.136719 13.0761V11.0693C0.136719 8.28708 0.866468 1.81055 10.4216 1.81055C20.3645 1.81055 21.824 8.28708 21.824 11.0693V13.0761C21.824 15.8582 20.068 18.1159 17.9016 18.1159Z" fill="#DB964B"/>
<mask id="mask9" mask-type="alpha" maskUnits="userSpaceOnUse" x="0" y="1" width="22" height="18">
<path d="M17.9016 18.1159H4.05913C1.89268 18.1159 0.136719 15.8582 0.136719 13.0761V11.0693C0.136719 8.28708 0.866468 1.81055 10.4216 1.81055C20.3645 1.81055 21.824 8.28708 21.824 11.0693V13.0761C21.824 15.8582 20.068 18.1159 17.9016 18.1159Z" fill="#DB964B"/>
</mask>
<g mask="url(#mask9)">
<path d="M10.969 25.2086C4.97131 25.2086 0.136719 24.4104 0.136719 23.4298V14.4448C0.136719 13.4642 4.99412 12.666 10.969 12.666C16.9438 12.666 21.8012 13.4642 21.8012 14.4448V23.407C21.824 24.3876 16.9666 25.2086 10.969 25.2086Z" fill="#D6B05B"/>
</g>
<path d="M39.5656 18.1159H25.7232C23.5567 18.1159 21.8008 15.8582 21.8008 13.0761V11.0693C21.8008 8.28708 22.5305 1.81055 32.0857 1.81055C42.0285 1.81055 43.488 8.28708 43.488 11.0693V13.0761C43.488 15.8582 41.7321 18.1159 39.5656 18.1159Z" fill="#DB964B"/>
<mask id="mask10" mask-type="alpha" maskUnits="userSpaceOnUse" x="21" y="1" width="23" height="18">
<path d="M39.5656 18.1159H25.7232C23.5567 18.1159 21.8008 15.8582 21.8008 13.0761V11.0693C21.8008 8.28708 22.5305 1.81055 32.0857 1.81055C42.0285 1.81055 43.488 8.28708 43.488 11.0693V13.0761C43.488 15.8582 41.7321 18.1159 39.5656 18.1159Z" fill="#DB964B"/>
</mask>
<g mask="url(#mask10)">
<path d="M32.6565 25.2086C26.6588 25.2086 21.8242 24.4104 21.8242 23.4298V14.4448C21.8242 13.4642 26.6816 12.666 32.6565 12.666C38.6313 12.666 43.4887 13.4642 43.4887 14.4448V23.407C43.4887 24.3876 38.6541 25.2086 32.6565 25.2086Z" fill="#D6B05B"/>
</g>
<path d="M61.2531 18.1159H47.4107C45.2442 18.1159 43.4883 15.8582 43.4883 13.0761V11.0693C43.4883 8.28708 44.218 1.81055 53.7732 1.81055C63.7161 1.81055 65.1756 8.28708 65.1756 11.0693V13.0761C65.1756 15.8582 63.4196 18.1159 61.2531 18.1159Z" fill="#DB964B"/>
<mask id="mask11" mask-type="alpha" maskUnits="userSpaceOnUse" x="43" y="1" width="23" height="18">
<path d="M61.2531 18.1159H47.4107C45.2442 18.1159 43.4883 15.8582 43.4883 13.0761V11.0693C43.4883 8.28708 44.218 1.81055 53.7732 1.81055C63.7161 1.81055 65.1756 8.28708 65.1756 11.0693V13.0761C65.1756 15.8582 63.4196 18.1159 61.2531 18.1159Z" fill="#DB964B"/>
</mask>
<g mask="url(#mask11)">
<path d="M54.342 25.2086C48.3444 25.2086 43.5098 24.4104 43.5098 23.4298V14.4448C43.5098 13.4642 48.3672 12.666 54.342 12.666C60.3168 12.666 65.1742 13.4642 65.1742 14.4448V23.407C65.1742 24.3876 60.3168 25.2086 54.342 25.2086Z" fill="#D6B05B"/>
</g>
<path d="M82.9406 18.1159H69.0982C66.9317 18.1159 65.1758 15.8582 65.1758 13.0761V11.0693C65.1758 8.28708 65.9055 1.81055 75.4607 1.81055C85.4036 1.81055 86.8631 8.28708 86.8631 11.0693V13.0761C86.8631 15.8582 85.1071 18.1159 82.9406 18.1159Z" fill="#DB964B"/>
<mask id="mask12" mask-type="alpha" maskUnits="userSpaceOnUse" x="65" y="1" width="22" height="18">
<path d="M82.9406 18.1159H69.0982C66.9317 18.1159 65.1758 15.8582 65.1758 13.0761V11.0693C65.1758 8.28708 65.9055 1.81055 75.4607 1.81055C85.4036 1.81055 86.8631 8.28708 86.8631 11.0693V13.0761C86.8631 15.8582 85.1071 18.1159 82.9406 18.1159Z" fill="#DB964B"/>
</mask>
<g mask="url(#mask12)">
<path d="M76.0315 25.2086C70.0338 25.2086 65.1992 24.4104 65.1992 23.4298V14.4448C65.1992 13.4642 70.0566 12.666 76.0315 12.666C82.0063 12.666 86.8637 13.4642 86.8637 14.4448V23.407C86.8637 24.3876 82.0063 25.2086 76.0315 25.2086Z" fill="#D6B05B"/>
</g>
<path d="M17.9016 34.4216H4.05913C1.89268 34.4216 0.136719 32.1639 0.136719 29.3817V27.3749C0.136719 24.5927 0.866468 18.1162 10.4216 18.1162C20.3645 18.1162 21.824 24.5927 21.824 27.3749V29.3817C21.824 32.1639 20.068 34.4216 17.9016 34.4216Z" fill="#DB964B"/>
<mask id="mask13" mask-type="alpha" maskUnits="userSpaceOnUse" x="0" y="18" width="22" height="17">
<path d="M17.9016 34.4216H4.05913C1.89268 34.4216 0.136719 32.1639 0.136719 29.3817V27.3749C0.136719 24.5927 0.866468 18.1162 10.4216 18.1162C20.3645 18.1162 21.824 24.5927 21.824 27.3749V29.3817C21.824 32.1639 20.068 34.4216 17.9016 34.4216Z" fill="#DB964B"/>
</mask>
<g mask="url(#mask13)">
<path d="M10.969 41.5139C4.97131 41.5139 0.136719 40.7158 0.136719 39.7352V30.7729C0.136719 29.7923 4.99412 28.9941 10.969 28.9941C16.9438 28.9941 21.8012 29.7923 21.8012 30.7729V39.7352C21.824 40.6929 16.9666 41.5139 10.969 41.5139Z" fill="#D6B05B"/>
</g>
<path d="M39.5656 34.4216H25.7232C23.5567 34.4216 21.8008 32.1639 21.8008 29.3817V27.3749C21.8008 24.5927 22.5305 18.1162 32.0857 18.1162C42.0285 18.1162 43.488 24.5927 43.488 27.3749V29.3817C43.488 32.1639 41.7321 34.4216 39.5656 34.4216Z" fill="#DB964B"/>
<mask id="mask14" mask-type="alpha" maskUnits="userSpaceOnUse" x="21" y="18" width="23" height="17">
<path d="M39.5656 34.4216H25.7232C23.5567 34.4216 21.8008 32.1639 21.8008 29.3817V27.3749C21.8008 24.5927 22.5305 18.1162 32.0857 18.1162C42.0285 18.1162 43.488 24.5927 43.488 27.3749V29.3817C43.488 32.1639 41.7321 34.4216 39.5656 34.4216Z" fill="#DB964B"/>
</mask>
<g mask="url(#mask14)">
<path d="M32.6565 41.5139C26.6588 41.5139 21.8242 40.7158 21.8242 39.7352V30.7729C21.8242 29.7923 26.6816 28.9941 32.6565 28.9941C38.6313 28.9941 43.4887 29.7923 43.4887 30.7729V39.7352C43.4887 40.6929 38.6541 41.5139 32.6565 41.5139Z" fill="#D6B05B"/>
</g>
<path d="M61.2531 34.4216H47.4107C45.2442 34.4216 43.4883 32.1639 43.4883 29.3817V27.3749C43.4883 24.5927 44.218 18.1162 53.7732 18.1162C63.7161 18.1162 65.1756 24.5927 65.1756 27.3749V29.3817C65.1756 32.1639 63.4196 34.4216 61.2531 34.4216Z" fill="#DB964B"/>
<mask id="mask15" mask-type="alpha" maskUnits="userSpaceOnUse" x="43" y="18" width="23" height="17">
<path d="M61.2531 34.4216H47.4107C45.2442 34.4216 43.4883 32.1639 43.4883 29.3817V27.3749C43.4883 24.5927 44.218 18.1162 53.7732 18.1162C63.7161 18.1162 65.1756 24.5927 65.1756 27.3749V29.3817C65.1756 32.1639 63.4196 34.4216 61.2531 34.4216Z" fill="#DB964B"/>
</mask>
<g mask="url(#mask15)">
<path d="M54.342 41.5139C48.3444 41.5139 43.5098 40.7158 43.5098 39.7352V30.7729C43.5098 29.7923 48.3672 28.9941 54.342 28.9941C60.3168 28.9941 65.1742 29.7923 65.1742 30.7729V39.7352C65.1742 40.6929 60.3168 41.5139 54.342 41.5139Z" fill="#D6B05B"/>
</g>
<path d="M82.9406 34.4216H69.0982C66.9317 34.4216 65.1758 32.1639 65.1758 29.3817V27.3749C65.1758 24.5927 65.9055 18.1162 75.4607 18.1162C85.4036 18.1162 86.8631 24.5927 86.8631 27.3749V29.3817C86.8631 32.1639 85.1071 34.4216 82.9406 34.4216Z" fill="#DB964B"/>
<mask id="mask16" mask-type="alpha" maskUnits="userSpaceOnUse" x="65" y="18" width="22" height="17">
<path d="M82.9406 34.4216H69.0982C66.9317 34.4216 65.1758 32.1639 65.1758 29.3817V27.3749C65.1758 24.5927 65.9055 18.1162 75.4607 18.1162C85.4036 18.1162 86.8631 24.5927 86.8631 27.3749V29.3817C86.8631 32.1639 85.1071 34.4216 82.9406 34.4216Z" fill="#DB964B"/>
</mask>
<g mask="url(#mask16)">
<path d="M76.0315 41.5139C70.0338 41.5139 65.1992 40.7158 65.1992 39.7352V30.7729C65.1992 29.7923 70.0566 28.9941 76.0315 28.9941C82.0063 28.9941 86.8637 29.7923 86.8637 30.7729V39.7352C86.8637 40.6929 82.0063 41.5139 76.0315 41.5139Z" fill="#D6B05B"/>
</g>
<path opacity="0.3" d="M84.8791 34.7178H2.09803C0.934993 34.7178 0 33.7828 0 32.6198V2.60877C0 1.44574 0.934993 0.510742 2.09803 0.510742H84.8791C86.0421 0.510742 86.9771 1.44574 86.9771 2.60877V32.597C86.9999 33.76 86.0421 34.7178 84.8791 34.7178Z" fill="white"/>
<mask id="mask17" mask-type="alpha" maskUnits="userSpaceOnUse" x="0" y="0" width="87" height="35">
<path d="M83.7389 34.6493H3.26107C1.4595 34.6493 0 33.1898 0 31.3882V3.52084C0 1.71927 1.4595 0.259766 3.26107 0.259766H83.7389C85.5404 0.259766 86.9999 1.71927 86.9999 3.52084V31.3882C86.9999 33.1898 85.5404 34.6493 83.7389 34.6493Z" fill="#77D9FE"/>
</mask>
<g mask="url(#mask17)">
<path d="M91.5171 -3.43457H-3.09961V5.23122H91.5171V-3.43457Z" fill="#DE565B"/>
<path opacity="0.15" d="M36.5944 50.1733L62.2793 -18.5742L60.2498 -19.3325L34.5648 49.4151L36.5944 50.1733Z" fill="white"/>
<path opacity="0.15" d="M43.8248 55.5425L69.5098 -13.2051L68.5057 -13.5802L42.8208 55.1673L43.8248 55.5425Z" fill="white"/>
<path opacity="0.15" d="M42.2662 53.0659L67.9512 -15.6816L63.5503 -17.3259L37.8654 51.4217L42.2662 53.0659Z" fill="white"/>
<path opacity="0.15" d="M-9.67908 45.3726L16.0059 -23.375L13.9763 -24.1333L-11.7086 44.6143L-9.67908 45.3726Z" fill="white"/>
<path opacity="0.15" d="M-2.46228 50.7124L23.2227 -18.0352L22.2186 -18.4103L-3.46636 50.3373L-2.46228 50.7124Z" fill="white"/>
<path opacity="0.15" d="M-4.0072 48.2651L21.6777 -20.4824L17.2769 -22.1266L-8.40807 46.6209L-4.0072 48.2651Z" fill="white"/>
<path opacity="0.15" d="M72.9616 58.8413L98.6465 -9.90625L94.2456 -11.5505L68.5607 57.1971L72.9616 58.8413Z" fill="white"/>
<path opacity="0.15" d="M67.5358 55.812L93.2207 -12.9355L91.1912 -13.6938L65.5062 55.0538L67.5358 55.812Z" fill="white"/>
<path opacity="0.15" d="M32.0162 50.1128L57.7012 -18.6348L53.3003 -20.279L27.6154 48.4686L32.0162 50.1128Z" fill="white"/>
<path opacity="0.15" d="M26.5905 47.0835L52.2754 -21.6641L50.2459 -22.4223L24.5609 46.3252L26.5905 47.0835Z" fill="white"/>
<path fill-rule="evenodd" clip-rule="evenodd" d="M42.4184 25.2535C37.9715 24.6833 34.4596 24.729 32.4528 26.1428C31.8826 23.8624 31.6546 21.7871 32.0423 20.054C32.7492 16.9982 34.6648 16.2912 36.4664 16.2C38.724 16.0632 42.2588 16.8157 45.1322 17.2262C48.8493 17.7507 52.1788 17.8419 54.4365 16.5421C55.1434 18.412 55.2802 20.3048 54.961 22.2204C54.6417 24.4097 53.3419 25.5499 51.221 25.8008C48.4844 26.12 45.4058 25.6411 42.4184 25.2535Z" fill="white"/>
<path fill-rule="evenodd" clip-rule="evenodd" d="M40.8227 17.3406C41.1648 17.3406 41.3244 17.6142 41.3244 17.8879C41.3244 18.1844 41.1647 18.458 40.8455 18.458C40.5034 18.458 40.3438 18.23 40.3438 17.9107C40.321 17.6142 40.4578 17.3406 40.8227 17.3406ZM40.8227 17.1125C40.3438 17.1125 40.0017 17.3634 40.0017 17.8651C40.0017 18.3668 40.2982 18.6404 40.8227 18.6404C41.3244 18.6404 41.6436 18.3668 41.6436 17.8651C41.6436 17.3862 41.3244 17.1125 40.8227 17.1125ZM39.0439 17.8195V17.3634C39.2492 17.3634 39.5228 17.3178 39.5228 17.5914C39.5228 17.8195 39.2492 17.8195 39.0439 17.8195ZM38.7246 18.6404H39.0439V18.0247C39.2948 18.0247 39.614 18.0247 39.7737 17.7967C39.9333 17.5686 39.8649 17.1809 39.4088 17.1581H38.7246V18.6404ZM37.1967 17.1581H37.4704C37.4704 17.295 37.4704 18.0475 37.4932 18.1615C37.5616 18.4808 38.1317 18.4808 38.1545 18.1387C38.1773 17.9335 38.1545 17.3862 38.1545 17.1581H38.4282C38.4282 17.3406 38.451 18.1387 38.4054 18.2984C38.3142 18.7089 37.7212 18.7317 37.4476 18.5948C37.1967 18.4808 37.1739 18.2756 37.1739 18.0247L37.1967 17.1581ZM36.1705 17.7967V17.3634C36.3758 17.3634 36.6722 17.3178 36.6722 17.5686C36.6722 17.8423 36.353 17.7967 36.1705 17.7967ZM35.8741 18.6404H36.1933V18.0019H36.3758L36.7178 18.6404H37.0827L36.6722 17.9563C36.8547 17.8879 37.0143 17.7739 37.0143 17.5458C37.0143 17.2494 36.7634 17.1581 36.5354 17.1581H35.8741V18.6404ZM35.0531 17.8195V18.0247H35.3039V18.344C35.0531 18.4352 34.6426 18.458 34.5286 18.1387C34.4146 17.8195 34.5286 17.3406 34.9847 17.3406C35.1671 17.3406 35.2811 17.3862 35.3724 17.5458L35.532 17.3406C35.3952 17.1809 35.2583 17.1353 35.0075 17.1353C34.0269 17.1353 34.0497 18.1615 34.4146 18.458C34.711 18.7089 35.2127 18.6404 35.5776 18.5492V17.8423L35.0531 17.8195ZM40.549 25.4819C37.8581 25.231 35.2811 25.345 33.6848 26.6677C33.1831 26.5765 32.6814 26.5081 32.1797 26.4168C31.564 24.3872 31.4271 22.2664 31.7008 20.0771C32.1341 17.9335 33.2743 16.0407 35.9653 15.8583C38.7703 15.6986 42.5786 16.3828 46.387 16.7705C49.1008 17.0441 51.4725 16.8161 53.046 15.6074C53.6161 15.7899 54.209 15.9495 54.7792 16.1319C55.5089 18.2072 55.5545 20.2596 55.2124 22.2892C54.7335 25.1626 52.8864 26.166 50.3778 26.1888C46.9343 26.2116 43.3312 25.7555 40.549 25.4819ZM42.419 25.2538C37.9721 24.6837 34.4602 24.7293 32.4534 26.1432C31.8832 23.8627 31.6552 21.7875 32.0429 20.0543C32.7498 16.9985 34.6654 16.2916 36.467 16.2003C38.7246 16.0635 42.2594 16.8161 45.1328 17.2266C48.8499 17.7511 52.1794 17.8423 54.4371 16.5424C55.144 18.4124 55.2809 20.3052 54.9616 22.2208C54.6423 24.41 53.3425 25.5503 51.2216 25.8011C48.4851 26.1204 45.4064 25.6415 42.419 25.2538Z" fill="#3D438B"/>
<path fill-rule="evenodd" clip-rule="evenodd" d="M47.2305 22.8364H46.2955V20.0542H47.0937C47.5042 20.0542 47.6866 20.1682 47.6866 20.3963C47.7094 20.7383 47.5042 20.9208 47.1849 20.9208H46.8885L46.5236 21.7417H47.2533C47.6182 21.7417 47.9375 21.9926 47.8919 22.3119C47.8463 22.6083 47.5726 22.8364 47.2305 22.8364ZM47.3902 23.7486H45.1325V19.1192H47.2761C48.0287 19.1192 48.6672 19.3244 48.7812 20.0542C48.8725 20.5787 48.69 20.9436 48.3023 21.2172C48.8953 21.4909 49.1461 22.1978 48.9409 22.8592C48.7356 23.5205 47.9375 23.7486 47.3902 23.7486ZM51.495 20.1454C52.1791 20.1454 52.7265 20.7155 52.7265 21.3997C52.7265 22.0838 52.1791 22.6539 51.495 22.6539C50.8109 22.6539 50.2635 22.0838 50.2635 21.3997C50.2635 20.7155 50.8109 20.1454 51.495 20.1454ZM51.495 19.0508C52.7721 19.0508 53.8211 20.0998 53.8211 21.3997C53.8211 22.6995 52.7949 23.7486 51.495 23.7486C50.1951 23.7486 49.1689 22.6995 49.1689 21.3997C49.1689 20.0998 50.2179 19.0508 51.495 19.0508ZM44.6764 19.1192V23.7486H43.5362V20.8295L42.7836 23.7486H41.689L40.982 20.8524V23.7486H39.8874V19.1192H41.6662L42.2591 21.7189L42.852 19.1192H44.6764ZM38.2911 19.1192H39.4085V23.7486H38.2911V19.1192ZM36.2387 22.8364H35.3037V20.0542H36.1018C36.5123 20.0542 36.6948 20.1682 36.6948 20.3963C36.7176 20.7383 36.5123 20.9208 36.193 20.9208H35.8966L35.5317 21.7417H36.2615C36.6263 21.7417 36.9456 21.9926 36.9 22.3119C36.8544 22.6083 36.5807 22.8364 36.2387 22.8364ZM36.3983 23.7486H34.1406V19.1192H36.2843C37.0368 19.1192 37.6754 19.3244 37.7894 20.0542C37.8806 20.5787 37.6982 20.9436 37.3105 21.2172C37.9034 21.4909 38.1543 22.1978 37.949 22.8592C37.721 23.5205 36.9456 23.7486 36.3983 23.7486Z" fill="#DA243C"/>
</g>
</svg>
