<svg width="67" height="91" viewBox="0 0 67 91" fill="none" xmlns="http://www.w3.org/2000/svg">
<path d="M65.9719 54.543C64.4834 52.8837 62.8486 51.9809 60.9209 50.3461C60.8965 50.3217 60.8721 50.3217 60.8477 50.2973C58.188 47.4424 54.3815 45.6611 50.1602 45.6611H16.9509C12.8516 45.6611 9.11831 47.3692 6.48304 50.0777L1.01729 54.543C0.456074 55.1774 -0.105141 55.9338 0.0168618 56.7878C0.0656632 57.1782 0.285269 57.5443 0.480474 57.9103C1.62731 60.0087 2.28612 62.3756 2.33492 64.7913V84.751C2.33492 88.0939 5.0434 90.8024 8.38629 90.8024H58.7249C62.0677 90.8024 64.7762 88.0939 64.7762 84.751V63.0344C65.0446 61.2288 65.6059 59.4963 66.4843 57.8859C66.6795 57.5199 66.8991 57.1782 66.9479 56.7634C67.0943 55.9338 66.5331 55.153 65.9719 54.543Z" fill="#00BAE7"/>
<path d="M63.7513 56.9096C61.97 49.4186 51.4045 46.9541 34.6413 46.9541C17.878 46.9541 7.31253 49.4186 5.53128 56.9096C3.75004 64.4006 10.0698 67.2799 10.0698 67.2799C10.0698 67.2799 10.0698 81.6518 9.8014 85.7512C9.53299 89.8505 14.3399 90.2653 14.3399 90.2653H34.6657H54.967C54.967 90.2653 59.774 89.8505 59.5056 85.7512C59.2371 81.6518 59.2371 67.2799 59.2371 67.2799C59.2371 67.2799 65.5325 64.425 63.7513 56.9096Z" fill="#934114"/>
<path d="M61.7289 56.6898C59.9477 49.1988 49.3822 46.7344 32.6189 46.7344C15.8557 46.7344 5.3146 49.1744 3.50895 56.6898C1.70331 64.2052 8.04748 67.0601 8.04748 67.0601C8.04748 67.0601 8.04748 81.4321 7.77907 85.5314C7.51066 89.6307 12.3176 90.0455 12.3176 90.0455H32.6433H52.9691C52.9691 90.0455 57.776 89.6307 57.5076 85.5314C57.2392 81.4321 57.2392 67.0601 57.2392 67.0601C57.2392 67.0601 63.5102 64.1808 61.7289 56.6898Z" fill="#CEA267"/>
<path d="M13.6343 63.668C14.0925 63.668 14.4639 63.2966 14.4639 62.8384C14.4639 62.3802 14.0925 62.0088 13.6343 62.0088C13.1761 62.0088 12.8047 62.3802 12.8047 62.8384C12.8047 63.2966 13.1761 63.668 13.6343 63.668Z" fill="#A06E27"/>
<path d="M21.4175 61.1065C21.8757 61.1065 22.2471 60.7351 22.2471 60.2769C22.2471 59.8187 21.8757 59.4473 21.4175 59.4473C20.9593 59.4473 20.5879 59.8187 20.5879 60.2769C20.5879 60.7351 20.9593 61.1065 21.4175 61.1065Z" fill="#A06E27"/>
<path d="M20.7847 53.8839C21.2429 53.8839 21.6143 53.5124 21.6143 53.0542C21.6143 52.596 21.2429 52.2246 20.7847 52.2246C20.3265 52.2246 19.9551 52.596 19.9551 53.0542C19.9551 53.5124 20.3265 53.8839 20.7847 53.8839Z" fill="#A06E27"/>
<path d="M19.148 71.8194C19.6062 71.8194 19.9776 71.448 19.9776 70.9898C19.9776 70.5316 19.6062 70.1602 19.148 70.1602C18.6898 70.1602 18.3184 70.5316 18.3184 70.9898C18.3184 71.448 18.6898 71.8194 19.148 71.8194Z" fill="#A06E27"/>
<path d="M33.2534 67.2549C33.7116 67.2549 34.0831 66.8835 34.0831 66.4253C34.0831 65.9671 33.7116 65.5957 33.2534 65.5957C32.7953 65.5957 32.4238 65.9671 32.4238 66.4253C32.4238 66.8835 32.7953 67.2549 33.2534 67.2549Z" fill="#A06E27"/>
<path d="M25.1753 66.4503C25.6335 66.4503 26.0049 66.0788 26.0049 65.6206C26.0049 65.1625 25.6335 64.791 25.1753 64.791C24.7171 64.791 24.3457 65.1625 24.3457 65.6206C24.3457 66.0788 24.7171 66.4503 25.1753 66.4503Z" fill="#A06E27"/>
<path d="M32.4234 56.6407C32.8816 56.6407 33.253 56.2693 33.253 55.8111C33.253 55.3529 32.8816 54.9814 32.4234 54.9814C31.9652 54.9814 31.5938 55.3529 31.5938 55.8111C31.5938 56.2693 31.9652 56.6407 32.4234 56.6407Z" fill="#A06E27"/>
<path d="M50.8218 76.211C51.28 76.211 51.6514 75.8396 51.6514 75.3814C51.6514 74.9232 51.28 74.5518 50.8218 74.5518C50.3636 74.5518 49.9922 74.9232 49.9922 75.3814C49.9922 75.8396 50.3636 76.211 50.8218 76.211Z" fill="#A06E27"/>
<path d="M43.0132 78.7491C43.4714 78.7491 43.8428 78.3777 43.8428 77.9195C43.8428 77.4613 43.4714 77.0898 43.0132 77.0898C42.555 77.0898 42.1836 77.4613 42.1836 77.9195C42.1836 78.3777 42.555 78.7491 43.0132 78.7491Z" fill="#A06E27"/>
<path d="M43.646 85.9727C44.1042 85.9727 44.4757 85.6013 44.4757 85.1431C44.4757 84.6849 44.1042 84.3135 43.646 84.3135C43.1878 84.3135 42.8164 84.6849 42.8164 85.1431C42.8164 85.6013 43.1878 85.9727 43.646 85.9727Z" fill="#A06E27"/>
<path d="M45.2827 68.0372C45.7409 68.0372 46.1124 67.6657 46.1124 67.2076C46.1124 66.7494 45.7409 66.3779 45.2827 66.3779C44.8246 66.3779 44.4531 66.7494 44.4531 67.2076C44.4531 67.6657 44.8246 68.0372 45.2827 68.0372Z" fill="#A06E27"/>
<path d="M39.4253 62.1807C39.8835 62.1807 40.2549 61.8093 40.2549 61.3511C40.2549 60.8929 39.8835 60.5215 39.4253 60.5215C38.9671 60.5215 38.5957 60.8929 38.5957 61.3511C38.5957 61.8093 38.9671 62.1807 39.4253 62.1807Z" fill="#A06E27"/>
<path d="M49.6753 58.7647C50.1335 58.7647 50.5049 58.3933 50.5049 57.9351C50.5049 57.4769 50.1335 57.1055 49.6753 57.1055C49.2171 57.1055 48.8457 57.4769 48.8457 57.9351C48.8457 58.3933 49.2171 58.7647 49.6753 58.7647Z" fill="#A06E27"/>
<path d="M49.6753 63.1563C50.1335 63.1563 50.5049 62.7849 50.5049 62.3267C50.5049 61.8685 50.1335 61.4971 49.6753 61.4971C49.2171 61.4971 48.8457 61.8685 48.8457 62.3267C48.8457 62.7849 49.2171 63.1563 49.6753 63.1563Z" fill="#A06E27"/>
<path d="M43.3316 54.3731C43.7898 54.3731 44.1612 54.0017 44.1612 53.5435C44.1612 53.0853 43.7898 52.7139 43.3316 52.7139C42.8734 52.7139 42.502 53.0853 42.502 53.5435C42.502 54.0017 42.8734 54.3731 43.3316 54.3731Z" fill="#A06E27"/>
<path d="M31.2027 72.6007C31.6609 72.6007 32.0323 72.2292 32.0323 71.771C32.0323 71.3128 31.6609 70.9414 31.2027 70.9414C30.7445 70.9414 30.373 71.3128 30.373 71.771C30.373 72.2292 30.7445 72.6007 31.2027 72.6007Z" fill="#A06E27"/>
<path d="M28.2749 79.4327C28.7331 79.4327 29.1046 79.0612 29.1046 78.6031C29.1046 78.1449 28.7331 77.7734 28.2749 77.7734C27.8167 77.7734 27.4453 78.1449 27.4453 78.6031C27.4453 79.0612 27.8167 79.4327 28.2749 79.4327Z" fill="#A06E27"/>
<path d="M14.1226 76.504C14.5808 76.504 14.9522 76.1325 14.9522 75.6743C14.9522 75.2162 14.5808 74.8447 14.1226 74.8447C13.6644 74.8447 13.293 75.2162 13.293 75.6743C13.293 76.1325 13.6644 76.504 14.1226 76.504Z" fill="#A06E27"/>
<path d="M17.0503 84.3116C17.5085 84.3116 17.8799 83.9402 17.8799 83.482C17.8799 83.0238 17.5085 82.6523 17.0503 82.6523C16.5921 82.6523 16.2207 83.0238 16.2207 83.482C16.2207 83.9402 16.5921 84.3116 17.0503 84.3116Z" fill="#A06E27"/>
<path d="M23.8843 85.2901C24.3425 85.2901 24.7139 84.9187 24.7139 84.4605C24.7139 84.0023 24.3425 83.6309 23.8843 83.6309C23.4261 83.6309 23.0547 84.0023 23.0547 84.4605C23.0547 84.9187 23.4261 85.2901 23.8843 85.2901Z" fill="#A06E27"/>
<path d="M25.1031 75.7725C25.5612 75.7725 25.9327 75.4011 25.9327 74.9429C25.9327 74.4847 25.5612 74.1133 25.1031 74.1133C24.6449 74.1133 24.2734 74.4847 24.2734 74.9429C24.2734 75.4011 24.6449 75.7725 25.1031 75.7725Z" fill="#A06E27"/>
<path d="M39.2788 73.4298C39.737 73.4298 40.1085 73.0583 40.1085 72.6001C40.1085 72.1419 39.737 71.7705 39.2788 71.7705C38.8207 71.7705 38.4492 72.1419 38.4492 72.6001C38.4492 73.0583 38.8207 73.4298 39.2788 73.4298Z" fill="#A06E27"/>
<path d="M32.0074 83.2383C32.4655 83.2383 32.837 82.8669 32.837 82.4087C32.837 81.9505 32.4655 81.5791 32.0074 81.5791C31.5492 81.5791 31.1777 81.9505 31.1777 82.4087C31.1777 82.8669 31.5492 83.2383 32.0074 83.2383Z" fill="#A06E27"/>
<path d="M32.5924 49.1256C41.0595 49.1256 47.2572 49.7844 51.503 51.1021C55.6267 52.3953 57.8471 54.2986 58.506 57.0802C59.0672 59.4959 58.7256 61.5456 57.4811 63.2048C56.6271 64.3272 55.6023 64.8885 55.4315 64.9861L53.8942 65.6205V67.0357C53.8942 67.6213 53.8942 81.5053 54.1626 85.629C54.2358 86.8002 53.6746 87.1419 53.455 87.2639C53.1378 87.4591 52.7718 87.5567 52.5522 87.6055H32.5436H12.5351C12.3155 87.5567 11.9251 87.4591 11.6323 87.2639C11.4127 87.1419 10.8515 86.8002 10.9247 85.629C11.1931 81.5053 11.1931 67.6213 11.1931 67.0357V65.6693L9.63142 64.9617C9.63142 64.9617 8.6554 64.4492 7.77697 63.4C6.41053 61.7164 6.02012 59.5935 6.60574 57.0802C7.26456 54.2742 9.50942 52.3953 13.6087 51.1021C17.9276 49.7844 24.101 49.1256 32.5924 49.1256ZM32.5924 46.71C15.8536 46.71 5.2637 49.1744 3.48246 56.6654C1.70121 64.1564 8.02098 67.0357 8.02098 67.0357C8.02098 67.0357 8.02098 81.4077 7.75257 85.507C7.45976 89.6307 12.2667 90.0455 12.2667 90.0455H32.5924H52.9182C52.9182 90.0455 57.7251 89.6307 57.4567 85.5314C57.1883 81.4321 57.1883 67.0601 57.1883 67.0601C57.1883 67.0601 63.5081 64.1808 61.7268 56.6898C59.8968 49.1744 49.3313 46.71 32.5924 46.71Z" fill="#A06E27"/>
<path opacity="0.15" d="M65.9719 54.543C64.4834 52.8837 62.8486 51.9809 60.9209 50.3461C60.8965 50.3217 60.8721 50.3217 60.8477 50.2973C58.188 47.4424 54.3815 45.6611 50.1602 45.6611H16.9509C12.8516 45.6611 9.11831 47.3692 6.48304 50.0777L1.01729 54.543C0.456074 55.1774 -0.105141 55.9338 0.0168618 56.7878C0.0656632 57.1782 0.285269 57.5443 0.480474 57.9103C1.62731 60.0087 2.28612 62.3756 2.33492 64.7913V84.751C2.33492 88.0939 5.0434 90.8024 8.38629 90.8024H58.7249C62.0677 90.8024 64.7762 88.0939 64.7762 84.751V63.0344C65.0446 61.2288 65.6059 59.4963 66.4843 57.8859C66.6795 57.5199 66.8991 57.1782 66.9479 56.7634C67.0943 55.9338 66.5331 55.153 65.9719 54.543Z" fill="white"/>
<path d="M43.5743 61.498H22.2969C17.4656 61.498 13.5371 65.4266 13.5371 70.2579V90.7788H52.3342V70.2579C52.3586 65.4266 48.4301 61.498 43.5743 61.498Z" fill="#461136"/>
<path d="M43.8677 62.4736H22.0291C17.9298 62.4736 14.6113 65.7921 14.6113 69.8914V90.7784H15.0993V69.8914C15.0993 66.0605 18.1982 62.9616 22.0291 62.9616H43.8921C47.723 62.9616 50.8219 66.0605 50.8219 69.8914V90.7784H51.3099V69.8914C51.3099 65.8165 47.967 62.4736 43.8677 62.4736Z" fill="white"/>
<path fill-rule="evenodd" clip-rule="evenodd" d="M32.4964 80.53C28.0555 79.9444 24.5662 80.0176 22.5653 81.4085C22.0041 79.1392 21.7601 77.0652 22.1749 75.3327C22.8825 72.2826 24.7858 71.575 26.5914 71.4774C28.8363 71.3554 32.3744 72.0874 35.2293 72.5022C38.9382 73.0146 42.2567 73.1122 44.5015 71.819C45.2091 73.6979 45.3311 75.5767 45.0139 77.48C44.6967 79.676 43.3791 80.7985 41.2806 81.0425C38.5478 81.3841 35.4733 80.8961 32.4964 80.53Z" fill="white"/>
<path fill-rule="evenodd" clip-rule="evenodd" d="M30.91 72.626C31.2516 72.626 31.398 72.8944 31.398 73.1628C31.398 73.4556 31.2272 73.724 30.91 73.7484C30.5684 73.7484 30.3976 73.5044 30.3976 73.2116C30.3976 72.9188 30.544 72.626 30.91 72.626ZM30.91 72.4064C30.422 72.4064 30.1048 72.6748 30.1048 73.1628C30.1048 73.6752 30.3976 73.9436 30.91 73.9436C31.398 73.9436 31.7153 73.6752 31.7153 73.1628C31.7153 72.6748 31.398 72.4064 30.91 72.4064ZM29.1288 73.114V72.6504C29.324 72.6504 29.5924 72.6016 29.5924 72.87C29.5924 73.114 29.324 73.114 29.1288 73.114ZM28.8116 73.9192H29.1288V73.3092C29.3728 73.3092 29.69 73.3092 29.8608 73.0896C30.0072 72.87 29.9584 72.4796 29.4948 72.4552H28.8116V73.9192ZM27.2743 72.4552H27.5427C27.5427 72.6016 27.5427 73.3336 27.5427 73.4556C27.6159 73.7728 28.1772 73.7728 28.2016 73.4312C28.226 73.236 28.2016 72.6748 28.2016 72.4552H28.47C28.47 72.6504 28.4944 73.4312 28.4456 73.5776C28.348 73.9924 27.7623 74.0168 27.4939 73.8948C27.2499 73.7728 27.2255 73.5776 27.2255 73.3336L27.2743 72.4552ZM26.2739 73.0896V72.6504C26.4935 72.6504 26.7619 72.6016 26.7619 72.8456C26.7619 73.114 26.4447 73.0896 26.2739 73.0896ZM25.9567 73.9192H26.2739V73.2848H26.4691L26.8107 73.9192H27.1767L26.7863 73.236C26.9815 73.1628 27.1279 73.0408 27.1279 72.8212C27.1279 72.5284 26.8839 72.4308 26.6399 72.4308H25.9811L25.9567 73.9192ZM25.1515 73.114V73.3092H25.3955V73.6264C25.1515 73.724 24.7367 73.724 24.6391 73.4068C24.5171 73.0896 24.6391 72.6016 25.1027 72.6016C25.2735 72.6016 25.3955 72.6504 25.4687 72.8212L25.6395 72.6016C25.4931 72.4552 25.3467 72.4064 25.1027 72.4064C24.1266 72.4064 24.1266 73.4312 24.5171 73.724C24.8343 73.968 25.3223 73.8948 25.6639 73.7972V73.114H25.1515ZM30.6172 80.7758C27.9332 80.5318 25.3711 80.6538 23.7606 81.9471C23.2482 81.8739 22.7602 81.7762 22.2478 81.703C21.6378 79.6778 21.4914 77.5549 21.7842 75.3589C22.2234 73.2116 23.3458 71.3328 26.0543 71.162C28.8604 70.9912 32.6669 71.6744 36.449 72.0648C39.1575 72.3576 41.5243 72.1136 43.086 70.8936C43.6716 71.0644 44.2328 71.2352 44.8184 71.406C45.5504 73.48 45.5992 75.5297 45.2576 77.5549C44.794 80.4098 42.9396 81.4346 40.4507 81.459C36.9858 81.4834 33.3989 81.0198 30.6172 80.7758ZM32.4961 80.5318C28.0552 79.9462 24.5659 80.0194 22.565 81.4102C22.0038 79.141 21.7598 77.0669 22.1746 75.3345C22.8822 72.2844 24.7855 71.5768 26.5911 71.4792C28.836 71.3572 32.3741 72.0892 35.229 72.504C38.9379 73.0164 42.2563 73.114 44.5012 71.8208C45.2088 73.6996 45.3308 75.5785 45.0136 77.4817C44.6964 79.6778 43.3788 80.8002 41.2803 81.0442C38.5474 81.3858 35.473 80.8978 32.4961 80.5318Z" fill="#3D438B"/>
<path fill-rule="evenodd" clip-rule="evenodd" d="M37.3024 78.1141H36.3508V75.3325H37.1316C37.5464 75.3325 37.7172 75.4545 37.7172 75.6741C37.7416 76.0157 37.5464 76.1865 37.2292 76.1865H36.9364L36.5704 76.9917H37.3024C37.644 76.9917 37.9856 77.2357 37.9368 77.5529C37.9124 77.8945 37.644 78.1141 37.3024 78.1141ZM37.4488 79.017H35.2039V74.4052H37.3512C38.0832 74.4052 38.742 74.6248 38.8396 75.3325C38.9128 75.8449 38.7664 76.2353 38.3516 76.5037C38.9372 76.7721 39.1813 77.4797 38.986 78.1385C38.7908 78.7974 38.01 79.017 37.4488 79.017ZM41.5481 75.4301C42.2313 75.4301 42.7682 75.9913 42.7682 76.6745C42.7682 77.3577 42.2069 77.9189 41.5481 77.9189C40.8649 77.9189 40.3281 77.3577 40.3281 76.6745C40.3281 75.9913 40.8649 75.4301 41.5481 75.4301ZM41.5481 74.332C42.817 74.332 43.8662 75.3813 43.8662 76.6745C43.8662 77.9677 42.8414 79.017 41.5481 79.017C40.2549 79.017 39.2301 77.9677 39.2301 76.6745C39.2301 75.3813 40.2793 74.332 41.5481 74.332ZM34.7647 74.4052V79.017H33.6423V76.0889L32.9103 79.017H31.7879L31.0802 76.1377V79.017H29.9822V74.4052H31.7635L32.3735 76.9917L32.9591 74.4052H34.7647ZM28.3718 74.4052H29.4942V79.017H28.3718V74.4052ZM26.3221 78.1141H25.3705V75.3325H26.1513C26.5661 75.3325 26.7369 75.4545 26.7369 75.6741C26.7613 76.0157 26.5661 76.1865 26.2489 76.1865H25.9561L25.5901 76.9917H26.3221C26.6637 76.9917 27.0053 77.2357 26.9565 77.5529C26.9321 77.8945 26.6637 78.1141 26.3221 78.1141ZM26.4929 79.017H24.248V74.4052H26.3953C27.1273 74.4052 27.7861 74.6248 27.8837 75.3325C27.9569 75.8449 27.8105 76.2353 27.3957 76.5037C27.9813 76.7721 28.2254 77.4797 28.0302 78.1385C27.8105 78.7974 27.0297 79.017 26.4929 79.017Z" fill="#DA243C"/>
<mask id="mask0" mask-type="alpha" maskUnits="userSpaceOnUse" x="0" y="45" width="67" height="46">
<path d="M65.9719 54.543C64.4834 52.8837 62.8486 51.9809 60.9209 50.3461C60.8965 50.3217 60.8721 50.3217 60.8477 50.2973C58.188 47.4424 54.3815 45.6611 50.1602 45.6611H16.9509C12.8516 45.6611 9.11831 47.3692 6.48304 50.0777L1.01729 54.543C0.456074 55.1774 -0.105141 55.9338 0.0168618 56.7878C0.0656632 57.1782 0.285269 57.5443 0.480474 57.9103C1.62731 60.0087 2.28612 62.3756 2.33492 64.7913V84.751C2.33492 88.0939 5.0434 90.8024 8.38629 90.8024H58.7249C62.0677 90.8024 64.7762 88.0939 64.7762 84.751V63.0344C65.0446 61.2288 65.6059 59.4963 66.4843 57.8859C66.6795 57.5199 66.8991 57.1782 66.9479 56.7634C67.0943 55.9338 66.5331 55.153 65.9719 54.543Z" fill="#00BAE7"/>
</mask>
<g mask="url(#mask0)">
<path opacity="0.15" d="M4.71871 100.511L32.2012 26.9521L30.0296 26.1408L2.54715 99.6996L4.71871 100.511Z" fill="white"/>
<path opacity="0.15" d="M12.4628 106.233L39.9453 32.6738L38.871 32.2724L11.3885 105.831L12.4628 106.233Z" fill="white"/>
<path opacity="0.15" d="M10.8203 103.591L38.3027 30.0322L33.5939 28.2729L6.11141 101.832L10.8203 103.591Z" fill="white"/>
<path opacity="0.15" d="M43.6406 109.762L71.123 36.2031L66.4142 34.4438L38.9317 108.003L43.6406 109.762Z" fill="white"/>
<path opacity="0.15" d="M37.8339 106.522L65.3164 32.9629L63.1448 32.1516L35.6624 105.71L37.8339 106.522Z" fill="white"/>
<path opacity="0.15" d="M-0.169963 100.423L27.3125 26.8643L22.6036 25.105L-4.87882 98.6637L-0.169963 100.423Z" fill="white"/>
<path opacity="0.15" d="M-5.9766 97.1828L21.5059 23.624L19.3343 22.8127L-8.14816 96.3715L-5.9766 97.1828Z" fill="white"/>
</g>
<path d="M65.9719 9.15821C64.4834 7.49896 62.8486 6.59614 60.9209 4.96129C60.8965 4.93689 60.8721 4.93689 60.8477 4.91249C58.188 2.05762 54.3815 0.276367 50.1602 0.276367H16.9509C12.8516 0.276367 9.11831 1.98441 6.48304 4.69289L1.01729 9.15821C0.456074 9.79263 -0.105141 10.549 0.0168618 11.4031C0.0656632 11.7935 0.285269 12.1595 0.480474 12.5255C1.62731 14.624 2.28612 16.9908 2.33492 19.4065V39.3662C2.33492 42.7091 5.0434 45.4176 8.38629 45.4176H58.7249C62.0677 45.4176 64.7762 42.7091 64.7762 39.3662V17.6496C65.0446 15.844 65.6059 14.1115 66.4843 12.5011C66.6795 12.1351 66.8991 11.7935 66.9479 11.3787C67.0943 10.549 66.5331 9.76823 65.9719 9.15821Z" fill="#00BAE7"/>
<path d="M63.7513 11.5248C61.97 4.0338 51.4045 1.56934 34.6413 1.56934C17.878 1.56934 7.31253 4.0338 5.53128 11.5248C3.75004 19.0158 10.0698 21.8951 10.0698 21.8951C10.0698 21.8951 10.0698 36.2671 9.8014 40.3664C9.53299 44.4657 14.3399 44.8805 14.3399 44.8805H34.6657H54.967C54.967 44.8805 59.774 44.4657 59.5056 40.3664C59.2371 36.2671 59.2371 21.8951 59.2371 21.8951C59.2371 21.8951 65.5325 19.0402 63.7513 11.5248Z" fill="#934114"/>
<path d="M61.7289 11.3051C59.9477 3.81408 49.3822 1.34961 32.6189 1.34961C15.8557 1.34961 5.3146 3.78968 3.50895 11.3051C1.70331 18.8205 8.04748 21.6754 8.04748 21.6754C8.04748 21.6754 8.04748 36.0473 7.77907 40.1467C7.51066 44.246 12.3176 44.6608 12.3176 44.6608H32.6433H52.9691C52.9691 44.6608 57.776 44.246 57.5076 40.1467C57.2392 36.0473 57.2392 21.6754 57.2392 21.6754C57.2392 21.6754 63.5102 18.7961 61.7289 11.3051Z" fill="#CEA267"/>
<path d="M13.6343 18.2842C14.0925 18.2842 14.4639 17.9128 14.4639 17.4546C14.4639 16.9964 14.0925 16.625 13.6343 16.625C13.1761 16.625 12.8047 16.9964 12.8047 17.4546C12.8047 17.9128 13.1761 18.2842 13.6343 18.2842Z" fill="#A06E27"/>
<path d="M21.4175 15.7227C21.8757 15.7227 22.2471 15.3513 22.2471 14.8931C22.2471 14.4349 21.8757 14.0635 21.4175 14.0635C20.9593 14.0635 20.5879 14.4349 20.5879 14.8931C20.5879 15.3513 20.9593 15.7227 21.4175 15.7227Z" fill="#A06E27"/>
<path d="M20.7847 8.50007C21.2429 8.50007 21.6143 8.12863 21.6143 7.67044C21.6143 7.21225 21.2429 6.84082 20.7847 6.84082C20.3265 6.84082 19.9551 7.21225 19.9551 7.67044C19.9551 8.12863 20.3265 8.50007 20.7847 8.50007Z" fill="#A06E27"/>
<path d="M19.148 26.4356C19.6062 26.4356 19.9776 26.0642 19.9776 25.606C19.9776 25.1478 19.6062 24.7764 19.148 24.7764C18.6898 24.7764 18.3184 25.1478 18.3184 25.606C18.3184 26.0642 18.6898 26.4356 19.148 26.4356Z" fill="#A06E27"/>
<path d="M33.2554 21.8712C33.7136 21.8712 34.085 21.4997 34.085 21.0415C34.085 20.5833 33.7136 20.2119 33.2554 20.2119C32.7972 20.2119 32.4258 20.5833 32.4258 21.0415C32.4258 21.4997 32.7972 21.8712 33.2554 21.8712Z" fill="#A06E27"/>
<path d="M25.1753 21.0665C25.6335 21.0665 26.0049 20.695 26.0049 20.2368C26.0049 19.7787 25.6335 19.4072 25.1753 19.4072C24.7171 19.4072 24.3457 19.7787 24.3457 20.2368C24.3457 20.695 24.7171 21.0665 25.1753 21.0665Z" fill="#A06E27"/>
<path d="M32.4234 11.2569C32.8816 11.2569 33.253 10.8855 33.253 10.4273C33.253 9.96909 32.8816 9.59766 32.4234 9.59766C31.9652 9.59766 31.5938 9.96909 31.5938 10.4273C31.5938 10.8855 31.9652 11.2569 32.4234 11.2569Z" fill="#A06E27"/>
<path d="M50.8218 30.8262C51.28 30.8262 51.6514 30.4548 51.6514 29.9966C51.6514 29.5384 51.28 29.167 50.8218 29.167C50.3636 29.167 49.9922 29.5384 49.9922 29.9966C49.9922 30.4548 50.3636 30.8262 50.8218 30.8262Z" fill="#A06E27"/>
<path d="M43.0132 33.3643C43.4714 33.3643 43.8428 32.9929 43.8428 32.5347C43.8428 32.0765 43.4714 31.7051 43.0132 31.7051C42.555 31.7051 42.1836 32.0765 42.1836 32.5347C42.1836 32.9929 42.555 33.3643 43.0132 33.3643Z" fill="#A06E27"/>
<path d="M43.646 40.588C44.1042 40.588 44.4757 40.2165 44.4757 39.7583C44.4757 39.3001 44.1042 38.9287 43.646 38.9287C43.1878 38.9287 42.8164 39.3001 42.8164 39.7583C42.8164 40.2165 43.1878 40.588 43.646 40.588Z" fill="#A06E27"/>
<path d="M45.2827 22.6524C45.7409 22.6524 46.1124 22.281 46.1124 21.8228C46.1124 21.3646 45.7409 20.9932 45.2827 20.9932C44.8246 20.9932 44.4531 21.3646 44.4531 21.8228C44.4531 22.281 44.8246 22.6524 45.2827 22.6524Z" fill="#A06E27"/>
<path d="M39.4253 16.796C39.8835 16.796 40.2549 16.4245 40.2549 15.9663C40.2549 15.5082 39.8835 15.1367 39.4253 15.1367C38.9671 15.1367 38.5957 15.5082 38.5957 15.9663C38.5957 16.4245 38.9671 16.796 39.4253 16.796Z" fill="#A06E27"/>
<path d="M49.6753 13.3799C50.1335 13.3799 50.5049 13.0085 50.5049 12.5503C50.5049 12.0921 50.1335 11.7207 49.6753 11.7207C49.2171 11.7207 48.8457 12.0921 48.8457 12.5503C48.8457 13.0085 49.2171 13.3799 49.6753 13.3799Z" fill="#A06E27"/>
<path d="M49.6753 17.7715C50.1335 17.7715 50.5049 17.4001 50.5049 16.9419C50.5049 16.4837 50.1335 16.1123 49.6753 16.1123C49.2171 16.1123 48.8457 16.4837 48.8457 16.9419C48.8457 17.4001 49.2171 17.7715 49.6753 17.7715Z" fill="#A06E27"/>
<path d="M43.3316 8.98835C43.7898 8.98835 44.1612 8.61691 44.1612 8.15872C44.1612 7.70054 43.7898 7.3291 43.3316 7.3291C42.8734 7.3291 42.502 7.70054 42.502 8.15872C42.502 8.61691 42.8734 8.98835 43.3316 8.98835Z" fill="#A06E27"/>
<path d="M31.2027 27.2159C31.6609 27.2159 32.0323 26.8445 32.0323 26.3863C32.0323 25.9281 31.6609 25.5566 31.2027 25.5566C30.7445 25.5566 30.373 25.9281 30.373 26.3863C30.373 26.8445 30.7445 27.2159 31.2027 27.2159Z" fill="#A06E27"/>
<path d="M28.2749 34.0479C28.7331 34.0479 29.1046 33.6765 29.1046 33.2183C29.1046 32.7601 28.7331 32.3887 28.2749 32.3887C27.8167 32.3887 27.4453 32.7601 27.4453 33.2183C27.4453 33.6765 27.8167 34.0479 28.2749 34.0479Z" fill="#A06E27"/>
<path d="M14.1226 31.1192C14.5808 31.1192 14.9522 30.7478 14.9522 30.2896C14.9522 29.8314 14.5808 29.46 14.1226 29.46C13.6644 29.46 13.293 29.8314 13.293 30.2896C13.293 30.7478 13.6644 31.1192 14.1226 31.1192Z" fill="#A06E27"/>
<path d="M17.0503 38.9268C17.5085 38.9268 17.8799 38.5554 17.8799 38.0972C17.8799 37.639 17.5085 37.2676 17.0503 37.2676C16.5921 37.2676 16.2207 37.639 16.2207 38.0972C16.2207 38.5554 16.5921 38.9268 17.0503 38.9268Z" fill="#A06E27"/>
<path d="M23.8843 39.9053C24.3425 39.9053 24.7139 39.5339 24.7139 39.0757C24.7139 38.6175 24.3425 38.2461 23.8843 38.2461C23.4261 38.2461 23.0547 38.6175 23.0547 39.0757C23.0547 39.5339 23.4261 39.9053 23.8843 39.9053Z" fill="#A06E27"/>
<path d="M25.1031 30.3878C25.5612 30.3878 25.9327 30.0163 25.9327 29.5581C25.9327 29.0999 25.5612 28.7285 25.1031 28.7285C24.6449 28.7285 24.2734 29.0999 24.2734 29.5581C24.2734 30.0163 24.6449 30.3878 25.1031 30.3878Z" fill="#A06E27"/>
<path d="M39.2788 28.045C39.737 28.045 40.1085 27.6736 40.1085 27.2154C40.1085 26.7572 39.737 26.3857 39.2788 26.3857C38.8207 26.3857 38.4492 26.7572 38.4492 27.2154C38.4492 27.6736 38.8207 28.045 39.2788 28.045Z" fill="#A06E27"/>
<path d="M32.0074 37.8536C32.4655 37.8536 32.837 37.4821 32.837 37.024C32.837 36.5658 32.4655 36.1943 32.0074 36.1943C31.5492 36.1943 31.1777 36.5658 31.1777 37.024C31.1777 37.4821 31.5492 37.8536 32.0074 37.8536Z" fill="#A06E27"/>
<path d="M32.5924 3.74086C41.0595 3.74086 47.2572 4.39968 51.503 5.71731C55.6267 7.01055 57.8471 8.9138 58.506 11.6955C59.0672 14.1111 58.7256 16.1608 57.4811 17.82C56.6271 18.9425 55.6023 19.5037 55.4315 19.6013L53.8942 20.2357V21.6509C53.8942 22.2366 53.8942 36.1205 54.1626 40.2442C54.2358 41.4155 53.6746 41.7571 53.455 41.8791C53.1378 42.0743 52.7718 42.1719 52.5522 42.2207H32.5436H12.5351C12.3155 42.1719 11.9251 42.0743 11.6323 41.8791C11.4127 41.7571 10.8515 41.4155 10.9247 40.2442C11.1931 36.1205 11.1931 22.2366 11.1931 21.6509V20.2845L9.63142 19.5769C9.63142 19.5769 8.6554 19.0645 7.77697 18.0152C6.41053 16.3316 6.02012 14.2087 6.60574 11.6955C7.26456 8.8894 9.50942 7.01055 13.6087 5.71731C17.9276 4.39968 24.101 3.74086 32.5924 3.74086ZM32.5924 1.3252C15.8536 1.3252 5.2637 3.78966 3.48246 11.2807C1.70121 18.7717 8.02098 21.6509 8.02098 21.6509C8.02098 21.6509 8.02098 36.0229 7.75257 40.1222C7.45976 44.246 12.2667 44.6608 12.2667 44.6608H32.5924H52.9182C52.9182 44.6608 57.7251 44.246 57.4567 40.1466C57.1883 36.0473 57.1883 21.6753 57.1883 21.6753C57.1883 21.6753 63.5081 18.7961 61.7268 11.3051C59.8968 3.78966 49.3313 1.3252 32.5924 1.3252Z" fill="#A06E27"/>
<path opacity="0.15" d="M65.9719 9.15821C64.4834 7.49896 62.8486 6.59614 60.9209 4.96129C60.8965 4.93689 60.8721 4.93689 60.8477 4.91249C58.188 2.05762 54.3815 0.276367 50.1602 0.276367H16.9509C12.8516 0.276367 9.11831 1.98441 6.48304 4.69289L1.01729 9.15821C0.456074 9.79263 -0.105141 10.549 0.0168618 11.4031C0.0656632 11.7935 0.285269 12.1595 0.480474 12.5255C1.62731 14.624 2.28612 16.9908 2.33492 19.4065V39.3662C2.33492 42.7091 5.0434 45.4176 8.38629 45.4176H58.7249C62.0677 45.4176 64.7762 42.7091 64.7762 39.3662V17.6496C65.0446 15.844 65.6059 14.1115 66.4843 12.5011C66.6795 12.1351 66.8991 11.7935 66.9479 11.3787C67.0943 10.549 66.5331 9.76823 65.9719 9.15821Z" fill="white"/>
<path d="M43.5743 16.1123H22.2969C17.4656 16.1123 13.5371 20.0408 13.5371 24.8721V45.3931H52.3342V24.8721C52.3586 20.0408 48.4301 16.1123 43.5743 16.1123Z" fill="#461136"/>
<path d="M43.8677 17.0889H22.0291C17.9298 17.0889 14.6113 20.4074 14.6113 24.5067V45.3936H15.0993V24.5067C15.0993 20.6758 18.1982 17.5769 22.0291 17.5769H43.8921C47.723 17.5769 50.8219 20.6758 50.8219 24.5067V45.3936H51.3099V24.5067C51.3099 20.4318 47.967 17.0889 43.8677 17.0889Z" fill="white"/>
<path fill-rule="evenodd" clip-rule="evenodd" d="M32.4964 35.1443C28.0555 34.5587 24.5662 34.6319 22.5653 36.0227C22.0041 33.7535 21.7601 31.6794 22.1749 29.947C22.8825 26.8969 24.7858 26.1893 26.5914 26.0917C28.8363 25.9697 32.3744 26.7017 35.2293 27.1165C38.9382 27.6289 42.2567 27.7265 44.5015 26.4333C45.2091 28.3121 45.3311 30.191 45.0139 32.0942C44.6967 34.2903 43.3791 35.4127 41.2806 35.6567C38.5478 35.9983 35.4733 35.5103 32.4964 35.1443Z" fill="white"/>
<path fill-rule="evenodd" clip-rule="evenodd" d="M30.91 27.2393C31.2516 27.2393 31.398 27.5077 31.398 27.7761C31.398 28.0689 31.2272 28.3373 30.91 28.3617C30.5684 28.3617 30.3976 28.1177 30.3976 27.8249C30.3976 27.5321 30.544 27.2393 30.91 27.2393ZM30.91 27.0197C30.422 27.0197 30.1048 27.2881 30.1048 27.7761C30.1048 28.2885 30.3976 28.5569 30.91 28.5569C31.398 28.5569 31.7153 28.2885 31.7153 27.7761C31.7153 27.2881 31.398 27.0197 30.91 27.0197ZM29.1288 27.7273V27.2637C29.324 27.2637 29.5924 27.2149 29.5924 27.4833C29.5924 27.7273 29.324 27.7273 29.1288 27.7273ZM28.8116 28.5325H29.1288V27.9225C29.3728 27.9225 29.69 27.9225 29.8608 27.7029C30.0072 27.4833 29.9584 27.0929 29.4948 27.0685H28.8116V28.5325ZM27.2743 27.0685H27.5427C27.5427 27.2149 27.5427 27.9469 27.5427 28.0689C27.6159 28.3861 28.1772 28.3861 28.2016 28.0445C28.226 27.8493 28.2016 27.2881 28.2016 27.0685H28.47C28.47 27.2637 28.4944 28.0445 28.4456 28.1909C28.348 28.6057 27.7623 28.6301 27.4939 28.5081C27.2499 28.3861 27.2255 28.1909 27.2255 27.9469L27.2743 27.0685ZM26.2739 27.7029V27.2637C26.4935 27.2637 26.7619 27.2149 26.7619 27.4589C26.7619 27.7273 26.4447 27.7029 26.2739 27.7029ZM25.9567 28.5325H26.2739V27.8981H26.4691L26.8107 28.5325H27.1767L26.7863 27.8493C26.9815 27.7761 27.1279 27.6541 27.1279 27.4345C27.1279 27.1417 26.8839 27.0441 26.6399 27.0441H25.9811L25.9567 28.5325ZM25.1515 27.7273V27.9225H25.3955V28.2397C25.1515 28.3373 24.7367 28.3373 24.6391 28.0201C24.5171 27.7029 24.6391 27.2149 25.1027 27.2149C25.2735 27.2149 25.3955 27.2637 25.4687 27.4345L25.6395 27.2149C25.4931 27.0685 25.3467 27.0197 25.1027 27.0197C24.1266 27.0197 24.1266 28.0445 24.5171 28.3373C24.8343 28.5813 25.3223 28.5081 25.6639 28.4105V27.7273H25.1515ZM30.6172 35.3891C27.9332 35.1451 25.3711 35.2671 23.7606 36.5603C23.2482 36.4871 22.7602 36.3895 22.2478 36.3163C21.6378 34.2911 21.4914 32.1682 21.7842 29.9722C22.2234 27.8249 23.3458 25.946 26.0543 25.7752C28.8604 25.6044 32.6669 26.2877 36.449 26.6781C39.1575 26.9709 41.5243 26.7269 43.086 25.5068C43.6716 25.6776 44.2328 25.8484 44.8184 26.0192C45.5504 28.0933 45.5992 30.143 45.2576 32.1682C44.794 35.0231 42.9396 36.0479 40.4507 36.0723C36.9858 36.0967 33.3989 35.6331 30.6172 35.3891ZM32.4961 35.1451C28.0552 34.5595 24.5659 34.6327 22.565 36.0235C22.0038 33.7543 21.7598 31.6802 22.1746 29.9478C22.8822 26.8977 24.7855 26.1901 26.5911 26.0925C28.836 25.9704 32.3741 26.7025 35.229 27.1173C38.9379 27.6297 42.2563 27.7273 44.5012 26.4341C45.2088 28.3129 45.3308 30.1918 45.0136 32.095C44.6964 34.2911 43.3788 35.4135 41.2803 35.6575C38.5474 35.9991 35.473 35.5111 32.4961 35.1451Z" fill="#3D438B"/>
<path fill-rule="evenodd" clip-rule="evenodd" d="M37.3024 32.7294H36.3508V29.9477H37.1316C37.5464 29.9477 37.7172 30.0697 37.7172 30.2893C37.7416 30.6309 37.5464 30.8017 37.2292 30.8017H36.9364L36.5704 31.6069H37.3024C37.644 31.6069 37.9856 31.8509 37.9368 32.1682C37.9124 32.5098 37.644 32.7294 37.3024 32.7294ZM37.4488 33.6322H35.2039V29.0205H37.3512C38.0832 29.0205 38.742 29.2401 38.8396 29.9477C38.9128 30.4601 38.7664 30.8505 38.3516 31.1189C38.9372 31.3873 39.1813 32.095 38.986 32.7538C38.7908 33.4126 38.01 33.6322 37.4488 33.6322ZM41.5481 30.0453C42.2313 30.0453 42.7682 30.6065 42.7682 31.2897C42.7682 31.9729 42.2069 32.5342 41.5481 32.5342C40.8649 32.5342 40.3281 31.9729 40.3281 31.2897C40.3281 30.6065 40.8649 30.0453 41.5481 30.0453ZM41.5481 28.9473C42.817 28.9473 43.8662 29.9965 43.8662 31.2897C43.8662 32.583 42.8414 33.6322 41.5481 33.6322C40.2549 33.6322 39.2301 32.583 39.2301 31.2897C39.2301 29.9965 40.2793 28.9473 41.5481 28.9473ZM34.7647 29.0205V33.6322H33.6423V30.7041L32.9103 33.6322H31.7879L31.0802 30.7529V33.6322H29.9822V29.0205H31.7635L32.3735 31.6069L32.9591 29.0205H34.7647ZM28.3718 29.0205H29.4942V33.6322H28.3718V29.0205ZM26.3221 32.7294H25.3705V29.9477H26.1513C26.5661 29.9477 26.7369 30.0697 26.7369 30.2893C26.7613 30.6309 26.5661 30.8017 26.2489 30.8017H25.9561L25.5901 31.6069H26.3221C26.6637 31.6069 27.0053 31.8509 26.9565 32.1682C26.9321 32.5098 26.6637 32.7294 26.3221 32.7294ZM26.4929 33.6322H24.248V29.0205H26.3953C27.1273 29.0205 27.7861 29.2401 27.8837 29.9477C27.9569 30.4601 27.8105 30.8505 27.3957 31.1189C27.9813 31.3873 28.2254 32.095 28.0302 32.7538C27.8105 33.4126 27.0297 33.6322 26.4929 33.6322Z" fill="#DA243C"/>
<mask id="mask1" mask-type="alpha" maskUnits="userSpaceOnUse" x="0" y="0" width="67" height="46">
<path d="M65.9719 9.15821C64.4834 7.49896 62.8486 6.59614 60.9209 4.96129C60.8965 4.93689 60.8721 4.93689 60.8477 4.91249C58.188 2.05762 54.3815 0.276367 50.1602 0.276367H16.9509C12.8516 0.276367 9.11831 1.98441 6.48304 4.69289L1.01729 9.15821C0.456074 9.79263 -0.105141 10.549 0.0168618 11.4031C0.0656632 11.7935 0.285269 12.1595 0.480474 12.5255C1.62731 14.624 2.28612 16.9908 2.33492 19.4065V39.3662C2.33492 42.7091 5.0434 45.4176 8.38629 45.4176H58.7249C62.0677 45.4176 64.7762 42.7091 64.7762 39.3662V17.6496C65.0446 15.844 65.6059 14.1115 66.4843 12.5011C66.6795 12.1351 66.8991 11.7935 66.9479 11.3787C67.0943 10.549 66.5331 9.76823 65.9719 9.15821Z" fill="#00BAE7"/>
</mask>
<g mask="url(#mask1)">
<path opacity="0.15" d="M4.71871 55.1262L32.2012 -18.4326L30.0296 -19.2439L2.54715 54.3148L4.71871 55.1262Z" fill="white"/>
<path opacity="0.15" d="M12.4628 60.8478L39.9453 -12.7109L38.871 -13.1123L11.3885 60.4464L12.4628 60.8478Z" fill="white"/>
<path opacity="0.15" d="M10.8203 58.2062L38.3027 -15.3525L33.5939 -17.1118L6.11141 56.447L10.8203 58.2062Z" fill="white"/>
<path opacity="0.15" d="M43.6406 64.3762L71.123 -9.18262L66.4142 -10.9419L38.9317 62.6169L43.6406 64.3762Z" fill="white"/>
<path opacity="0.15" d="M37.8339 61.1359L65.3164 -12.4229L63.1448 -13.2342L35.6624 60.3246L37.8339 61.1359Z" fill="white"/>
<path opacity="0.15" d="M-0.169963 55.0383L27.3125 -18.5205L22.6036 -20.2798L-4.87882 53.279L-0.169963 55.0383Z" fill="white"/>
<path opacity="0.15" d="M-5.9766 51.798L21.5059 -21.7607L19.3343 -22.5721L-8.14816 50.9867L-5.9766 51.798Z" fill="white"/>
</g>
</svg>
