<svg width="67" height="91" viewBox="0 0 67 91" fill="none" xmlns="http://www.w3.org/2000/svg">
<path d="M65.9718 54.5442C64.4834 52.885 62.8486 51.9821 60.9209 50.3473C60.8965 50.3229 60.8721 50.3229 60.8477 50.2985C58.188 47.4436 54.3815 45.6624 50.1602 45.6624H16.9753C12.8516 45.638 9.14271 47.346 6.48304 50.0789L1.01729 54.5442C0.456074 55.1786 -0.105141 55.935 0.0168618 56.7891C0.0656632 57.1795 0.285269 57.5455 0.480474 57.9115C1.62731 60.01 2.28612 62.3768 2.33492 64.7925V84.7522C2.33492 88.0951 5.0434 90.8036 8.38629 90.8036H58.7249C62.0678 90.8036 64.7762 88.0951 64.7762 84.7522V63.0356C65.0446 61.23 65.6058 59.4975 66.4843 57.8871C66.6795 57.5211 66.8991 57.1795 66.9479 56.7647C67.0943 55.935 66.5331 55.1542 65.9718 54.5442Z" fill="#00BAE7"/>
<path d="M63.7523 56.935C61.971 49.444 51.4055 46.9795 34.6423 46.9795C17.879 46.9795 7.33792 49.4196 5.55667 56.935C3.77543 64.4504 10.0952 67.3052 10.0952 67.3052C10.0952 67.3052 10.0952 81.6772 9.82679 85.7765C9.53398 89.8759 14.3409 90.2907 14.3409 90.2907H34.6667H54.9924C54.9924 90.2907 59.7993 89.8759 59.5309 85.7765C59.2625 81.6772 59.2625 67.3052 59.2625 67.3052C59.2625 67.3052 65.5335 64.426 63.7523 56.935Z" fill="#934114"/>
<path d="M61.7249 56.6918C59.9437 49.2008 49.3782 46.7363 32.6149 46.7363C15.8517 46.7363 5.31058 49.2008 3.52933 56.6918C1.74808 64.1828 8.06785 67.0621 8.06785 67.0621C8.06785 67.0621 8.06785 81.4341 7.79945 85.5334C7.50664 89.6327 12.3136 90.0475 12.3136 90.0475H32.6393H52.9651C52.9651 90.0475 57.772 89.6327 57.5036 85.5334C57.2352 81.4341 57.2352 67.0621 57.2352 67.0621C57.2352 67.0621 63.5062 64.1828 61.7249 56.6918Z" fill="#CEA267"/>
<path d="M13.6324 63.669C14.0905 63.669 14.462 63.2976 14.462 62.8394C14.462 62.3812 14.0905 62.0098 13.6324 62.0098C13.1742 62.0098 12.8027 62.3812 12.8027 62.8394C12.8027 63.2976 13.1742 63.669 13.6324 63.669Z" fill="#A06E27"/>
<path d="M21.441 61.1075C21.8991 61.1075 22.2706 60.7361 22.2706 60.2779C22.2706 59.8197 21.8991 59.4482 21.441 59.4482C20.9828 59.4482 20.6113 59.8197 20.6113 60.2779C20.6113 60.7361 20.9828 61.1075 21.441 61.1075Z" fill="#A06E27"/>
<path d="M20.8062 53.8848C21.2644 53.8848 21.6358 53.5134 21.6358 53.0552C21.6358 52.597 21.2644 52.2256 20.8062 52.2256C20.348 52.2256 19.9766 52.597 19.9766 53.0552C19.9766 53.5134 20.348 53.8848 20.8062 53.8848Z" fill="#A06E27"/>
<path d="M19.146 71.8204C19.6042 71.8204 19.9757 71.4489 19.9757 70.9908C19.9757 70.5326 19.6042 70.1611 19.146 70.1611C18.6878 70.1611 18.3164 70.5326 18.3164 70.9908C18.3164 71.4489 18.6878 71.8204 19.146 71.8204Z" fill="#A06E27"/>
<path d="M33.2534 67.2559C33.7116 67.2559 34.0831 66.8845 34.0831 66.4263C34.0831 65.9681 33.7116 65.5967 33.2534 65.5967C32.7953 65.5967 32.4238 65.9681 32.4238 66.4263C32.4238 66.8845 32.7953 67.2559 33.2534 67.2559Z" fill="#A06E27"/>
<path d="M25.1734 66.4512C25.6316 66.4512 26.003 66.0798 26.003 65.6216C26.003 65.1634 25.6316 64.792 25.1734 64.792C24.7152 64.792 24.3438 65.1634 24.3438 65.6216C24.3438 66.0798 24.7152 66.4512 25.1734 66.4512Z" fill="#A06E27"/>
<path d="M32.4214 56.6417C32.8796 56.6417 33.251 56.2702 33.251 55.812C33.251 55.3539 32.8796 54.9824 32.4214 54.9824C31.9632 54.9824 31.5918 55.3539 31.5918 55.812C31.5918 56.2702 31.9632 56.6417 32.4214 56.6417Z" fill="#A06E27"/>
<path d="M50.8199 76.211C51.278 76.211 51.6495 75.8396 51.6495 75.3814C51.6495 74.9232 51.278 74.5518 50.8199 74.5518C50.3617 74.5518 49.9902 74.9232 49.9902 75.3814C49.9902 75.8396 50.3617 76.211 50.8199 76.211Z" fill="#A06E27"/>
<path d="M43.0113 78.7491C43.4694 78.7491 43.8409 78.3777 43.8409 77.9195C43.8409 77.4613 43.4694 77.0898 43.0113 77.0898C42.5531 77.0898 42.1816 77.4613 42.1816 77.9195C42.1816 78.3777 42.5531 78.7491 43.0113 78.7491Z" fill="#A06E27"/>
<path d="M43.6441 85.9727C44.1023 85.9727 44.4737 85.6013 44.4737 85.1431C44.4737 84.6849 44.1023 84.3135 43.6441 84.3135C43.1859 84.3135 42.8145 84.6849 42.8145 85.1431C42.8145 85.6013 43.1859 85.9727 43.6441 85.9727Z" fill="#A06E27"/>
<path d="M45.3042 68.0372C45.7624 68.0372 46.1339 67.6657 46.1339 67.2076C46.1339 66.7494 45.7624 66.3779 45.3042 66.3779C44.846 66.3779 44.4746 66.7494 44.4746 67.2076C44.4746 67.6657 44.846 68.0372 45.3042 68.0372Z" fill="#A06E27"/>
<path d="M39.4488 62.1807C39.907 62.1807 40.2784 61.8093 40.2784 61.3511C40.2784 60.8929 39.907 60.5215 39.4488 60.5215C38.9906 60.5215 38.6191 60.8929 38.6191 61.3511C38.6191 61.8093 38.9906 62.1807 39.4488 62.1807Z" fill="#A06E27"/>
<path d="M49.6949 58.7647C50.153 58.7647 50.5245 58.3933 50.5245 57.9351C50.5245 57.4769 50.153 57.1055 49.6949 57.1055C49.2367 57.1055 48.8652 57.4769 48.8652 57.9351C48.8652 58.3933 49.2367 58.7647 49.6949 58.7647Z" fill="#A06E27"/>
<path d="M49.6949 63.1563C50.153 63.1563 50.5245 62.7849 50.5245 62.3267C50.5245 61.8685 50.153 61.4971 49.6949 61.4971C49.2367 61.4971 48.8652 61.8685 48.8652 62.3267C48.8652 62.7849 49.2367 63.1563 49.6949 63.1563Z" fill="#A06E27"/>
<path d="M43.3531 54.3731C43.8113 54.3731 44.1827 54.0017 44.1827 53.5435C44.1827 53.0853 43.8113 52.7139 43.3531 52.7139C42.8949 52.7139 42.5234 53.0853 42.5234 53.5435C42.5234 54.0017 42.8949 54.3731 43.3531 54.3731Z" fill="#A06E27"/>
<path d="M31.2007 72.6007C31.6589 72.6007 32.0303 72.2292 32.0303 71.771C32.0303 71.3128 31.6589 70.9414 31.2007 70.9414C30.7425 70.9414 30.3711 71.3128 30.3711 71.771C30.3711 72.2292 30.7425 72.6007 31.2007 72.6007Z" fill="#A06E27"/>
<path d="M28.273 79.4327C28.7312 79.4327 29.1026 79.0613 29.1026 78.6031C29.1026 78.1449 28.7312 77.7734 28.273 77.7734C27.8148 77.7734 27.4434 78.1449 27.4434 78.6031C27.4434 79.0613 27.8148 79.4327 28.273 79.4327Z" fill="#A06E27"/>
<path d="M14.1206 76.504C14.5788 76.504 14.9503 76.1325 14.9503 75.6744C14.9503 75.2162 14.5788 74.8447 14.1206 74.8447C13.6625 74.8447 13.291 75.2162 13.291 75.6744C13.291 76.1325 13.6625 76.504 14.1206 76.504Z" fill="#A06E27"/>
<path d="M17.0484 84.3116C17.5066 84.3116 17.878 83.9402 17.878 83.482C17.878 83.0238 17.5066 82.6523 17.0484 82.6523C16.5902 82.6523 16.2188 83.0238 16.2188 83.482C16.2188 83.9402 16.5902 84.3116 17.0484 84.3116Z" fill="#A06E27"/>
<path d="M23.8824 85.2901C24.3405 85.2901 24.712 84.9187 24.712 84.4605C24.712 84.0023 24.3405 83.6309 23.8824 83.6309C23.4242 83.6309 23.0527 84.0023 23.0527 84.4605C23.0527 84.9187 23.4242 85.2901 23.8824 85.2901Z" fill="#A06E27"/>
<path d="M25.1011 75.7725C25.5593 75.7725 25.9307 75.4011 25.9307 74.9429C25.9307 74.4847 25.5593 74.1133 25.1011 74.1133C24.6429 74.1133 24.2715 74.4847 24.2715 74.9429C24.2715 75.4011 24.6429 75.7725 25.1011 75.7725Z" fill="#A06E27"/>
<path d="M39.2769 73.4298C39.7351 73.4298 40.1065 73.0583 40.1065 72.6001C40.1065 72.1419 39.7351 71.7705 39.2769 71.7705C38.8187 71.7705 38.4473 72.1419 38.4473 72.6001C38.4473 73.0583 38.8187 73.4298 39.2769 73.4298Z" fill="#A06E27"/>
<path d="M32.0308 83.2383C32.489 83.2383 32.8604 82.8669 32.8604 82.4087C32.8604 81.9505 32.489 81.5791 32.0308 81.5791C31.5726 81.5791 31.2012 81.9505 31.2012 82.4087C31.2012 82.8669 31.5726 83.2383 32.0308 83.2383Z" fill="#A06E27"/>
<path d="M32.5905 49.1276C41.0575 49.1276 47.2553 49.7864 51.501 51.104C55.6247 52.3973 57.8452 54.3005 58.504 57.0822C59.0652 59.4979 58.7236 61.5475 57.4792 63.2068C56.6251 64.3292 55.6003 64.8904 55.4295 64.988L53.8923 65.6224V67.0377C53.8923 67.6233 53.8923 81.5073 54.1607 85.631C54.2339 86.8022 53.6727 87.1438 53.4531 87.2658C53.1359 87.461 52.7698 87.5586 52.5502 87.6074H32.5417H12.5819C12.3623 87.5586 11.9719 87.461 11.6791 87.2658C11.4595 87.1438 10.8983 86.8022 10.9715 85.631C11.2399 81.5073 11.2399 67.6233 11.2399 67.0377V65.6712L9.67827 64.9636C9.67827 64.9636 8.70224 64.4512 7.82382 63.402C6.45738 61.7427 6.06697 59.6199 6.67699 57.1066C7.33581 54.3005 9.58067 52.4217 13.68 51.1284C17.9257 49.7864 24.1235 49.1276 32.5905 49.1276ZM32.5905 46.7119C15.8516 46.7119 5.26175 49.1764 3.4805 56.6674C1.69925 64.1584 8.01903 67.0377 8.01903 67.0377C8.01903 67.0377 8.01903 81.4097 7.75062 85.509C7.45781 89.6327 12.2647 90.0475 12.2647 90.0475H32.5905H52.9162C52.9162 90.0475 57.7232 89.6327 57.4548 85.5334C57.1864 81.4341 57.1864 67.0621 57.1864 67.0621C57.1864 67.0621 63.5061 64.1828 61.7249 56.6918C59.9192 49.1764 49.3293 46.7119 32.5905 46.7119Z" fill="#A06E27"/>
<path opacity="0.15" d="M65.9718 54.5442C64.4834 52.885 62.8486 51.9821 60.9209 50.3473C60.8965 50.3229 60.8721 50.3229 60.8477 50.2985C58.188 47.4436 54.3815 45.6624 50.1602 45.6624H16.9753C12.8516 45.638 9.14271 47.346 6.48304 50.0789L1.01729 54.5442C0.456074 55.1786 -0.105141 55.935 0.0168618 56.7891C0.0656632 57.1795 0.285269 57.5455 0.480474 57.9115C1.62731 60.01 2.28612 62.3768 2.33492 64.7925V84.7522C2.33492 88.0951 5.0434 90.8036 8.38629 90.8036H58.7249C62.0678 90.8036 64.7762 88.0951 64.7762 84.7522V63.0356C65.0446 61.23 65.6058 59.4975 66.4843 57.8871C66.6795 57.5211 66.8991 57.1795 66.9479 56.7647C67.0943 55.935 66.5331 55.1542 65.9718 54.5442Z" fill="white"/>
<path d="M43.5958 61.498H22.3184C17.4871 61.498 13.5586 65.4266 13.5586 70.2579V90.7788H52.3556V70.2579C52.3556 65.4266 48.4271 61.498 43.5958 61.498Z" fill="#731F33"/>
<path d="M15.0974 90.7794V69.8924C15.0974 66.0615 18.1963 62.9626 22.0272 62.9626H43.8902C47.7211 62.9626 50.82 66.0615 50.82 69.8924V90.7794H51.308V69.8924C51.308 65.7931 47.9895 62.4746 43.8902 62.4746H22.0272C17.9523 62.4746 14.6094 65.8175 14.6094 69.8924V90.7794H15.0974Z" fill="#CE9A0B"/>
<path fill-rule="evenodd" clip-rule="evenodd" d="M32.5179 80.531C28.077 79.9454 24.5877 80.0186 22.5868 81.4094C22.0256 79.1402 21.7816 77.0661 22.1964 75.3337C22.904 72.2836 24.8073 71.576 26.6129 71.4784C28.8578 71.3564 32.3959 72.0884 35.2507 72.5032C38.9596 73.0156 42.2781 73.1132 44.523 71.82C45.2306 73.6988 45.3526 75.5777 45.0354 77.4809C44.7182 79.677 43.4006 80.7994 41.3021 81.0434C38.5448 81.4094 35.4948 80.9214 32.5179 80.531Z" fill="white"/>
<path fill-rule="evenodd" clip-rule="evenodd" d="M30.9091 72.626C31.2507 72.626 31.3971 72.8944 31.3971 73.1628C31.3971 73.4556 31.2263 73.724 30.9091 73.7484C30.5675 73.7484 30.3967 73.5044 30.3967 73.2116C30.4211 72.9188 30.5431 72.626 30.9091 72.626ZM30.9091 72.4064C30.4211 72.4064 30.1038 72.6748 30.1038 73.1628C30.1038 73.6752 30.3967 73.9436 30.9091 73.9436C31.3971 73.9436 31.7143 73.6752 31.7143 73.1628C31.7143 72.6748 31.4215 72.4064 30.9091 72.4064ZM29.1278 73.114V72.6504C29.323 72.6504 29.5914 72.6016 29.5914 72.87C29.6158 73.114 29.3474 73.114 29.1278 73.114ZM28.835 73.9192H29.1522V73.3092C29.3962 73.3092 29.7134 73.3092 29.8842 73.0896C30.0306 72.87 29.9818 72.4796 29.5182 72.4552H28.835V73.9192ZM27.2978 72.4552H27.5662C27.5662 72.6016 27.5662 73.3336 27.5662 73.4556C27.6394 73.7728 28.2006 73.7728 28.225 73.4312C28.2494 73.236 28.225 72.6748 28.225 72.4552H28.4934C28.4934 72.6504 28.5178 73.4312 28.469 73.5776C28.3714 73.9924 27.7858 74.0168 27.5174 73.8948C27.2734 73.7728 27.249 73.5776 27.249 73.3336L27.2978 72.4552ZM26.2729 73.0896V72.6504C26.4925 72.6504 26.761 72.6016 26.761 72.8456C26.7854 73.1384 26.4681 73.0896 26.2729 73.0896ZM25.9557 73.9192H26.2729V73.2848H26.4681L26.8098 73.9192H27.1758L26.7854 73.236C26.9806 73.1628 27.127 73.0408 27.127 72.8212C27.127 72.5284 26.883 72.4308 26.639 72.4308H25.9801L25.9557 73.9192ZM25.1749 73.114V73.3092H25.4189V73.6264C25.1749 73.724 24.7601 73.724 24.6625 73.4068C24.5405 73.0896 24.6625 72.6016 25.1261 72.6016C25.2969 72.6016 25.4189 72.6504 25.4921 72.8212L25.6629 72.6016C25.5165 72.4552 25.3701 72.4064 25.1261 72.4064C24.1501 72.4064 24.1501 73.4312 24.5405 73.724C24.8577 73.968 25.3457 73.8948 25.6873 73.7972V73.0896L25.1749 73.114ZM30.6407 80.7758C27.9566 80.5318 25.3945 80.6538 23.7841 81.9471C23.2717 81.8739 22.7836 81.7763 22.2712 81.703C21.6612 79.6778 21.5148 77.5549 21.8076 75.3589C22.2468 73.2116 23.3693 71.3328 26.0777 71.162C28.8838 70.9912 32.6903 71.6744 36.4724 72.0648C39.1809 72.3576 41.5478 72.1136 43.1094 70.8936C43.695 71.0644 44.2562 71.2352 44.8418 71.406C45.5739 73.48 45.6227 75.5297 45.2811 77.5549C44.8174 80.4098 42.963 81.4346 40.4741 81.459C37.0092 81.5078 33.4223 81.0442 30.6407 80.7758ZM32.5195 80.5318C28.0786 79.9462 24.5893 80.0194 22.5884 81.4102C22.0272 79.141 21.7832 77.0669 22.198 75.3345C22.9057 72.2844 24.8089 71.5768 26.6146 71.4792C28.8594 71.3572 32.3975 72.0892 35.2524 72.504C38.9613 73.0164 42.2798 73.114 44.5246 71.8208C45.2323 73.6996 45.3543 75.5785 45.0371 77.4817C44.7198 79.6778 43.4022 80.8002 41.3037 81.0442C38.5465 81.4102 35.4964 80.9222 32.5195 80.5318Z" fill="#3D438B"/>
<path fill-rule="evenodd" clip-rule="evenodd" d="M37.2985 78.1141H36.3469V75.3325H37.1277C37.5425 75.3325 37.7133 75.4545 37.7133 75.6741C37.7377 76.0157 37.5425 76.1865 37.2253 76.1865H36.9325L36.5665 76.9917H37.2985C37.6401 76.9917 37.9817 77.2357 37.9329 77.5529C37.9085 77.8945 37.6645 78.1141 37.2985 78.1141ZM37.4693 79.017H35.2244V74.4052H37.3717C38.1037 74.4052 38.7625 74.6248 38.8601 75.3325C38.9333 75.8449 38.7869 76.2353 38.3721 76.5037C38.9577 76.7721 39.2017 77.4797 39.0065 78.1385C38.7869 78.7974 38.0061 79.017 37.4693 79.017ZM41.5686 75.4301C42.2518 75.4301 42.7886 75.9913 42.7886 76.6745C42.7886 77.3577 42.2274 77.9189 41.5686 77.9189C40.9098 77.9189 40.3486 77.3577 40.3486 76.6745C40.3242 75.9913 40.8854 75.4301 41.5686 75.4301ZM41.5686 74.332C42.8374 74.332 43.8867 75.3813 43.8867 76.6745C43.8867 77.9677 42.8618 79.017 41.5686 79.017C40.2998 79.017 39.2505 77.9677 39.2505 76.6745C39.2505 75.3813 40.2754 74.332 41.5686 74.332ZM34.7608 74.4052V79.017H33.6384V76.0889L32.9064 79.017H31.8083L31.1007 76.1377V79.017H30.0027V74.4052H31.7839L32.394 76.9917L32.9796 74.4052H34.7608ZM28.3923 74.4052H29.5147V79.017H28.3923V74.4052ZM26.3182 78.1141H25.3666V75.3325H26.1474C26.5622 75.3325 26.733 75.4545 26.733 75.6741C26.7574 76.0157 26.5622 76.1865 26.245 76.1865H25.9522L25.5862 76.9917H26.3182C26.6598 76.9917 27.0014 77.2357 26.9526 77.5529C26.9526 77.8945 26.6842 78.1141 26.3182 78.1141ZM26.489 79.017H24.2441V74.4052H26.3914C27.1234 74.4052 27.7822 74.6248 27.8798 75.3325C27.953 75.8449 27.8066 76.2353 27.3918 76.5037C27.9774 76.7721 28.2214 77.4797 28.0262 78.1385C27.831 78.7974 27.0258 79.017 26.489 79.017Z" fill="#DA243C"/>
<mask id="mask0" mask-type="alpha" maskUnits="userSpaceOnUse" x="0" y="45" width="67" height="46">
<path d="M65.9718 54.5442C64.4834 52.885 62.8486 51.9821 60.9209 50.3473C60.8965 50.3229 60.8721 50.3229 60.8477 50.2985C58.188 47.4436 54.3815 45.6624 50.1602 45.6624H16.9753C12.8516 45.638 9.14271 47.346 6.48304 50.0789L1.01729 54.5442C0.456074 55.1786 -0.105141 55.935 0.0168618 56.7891C0.0656632 57.1795 0.285269 57.5455 0.480474 57.9115C1.62731 60.01 2.28612 62.3768 2.33492 64.7925V84.7522C2.33492 88.0951 5.0434 90.8036 8.38629 90.8036H58.7249C62.0678 90.8036 64.7762 88.0951 64.7762 84.7522V63.0356C65.0446 61.23 65.6058 59.4975 66.4843 57.8871C66.6795 57.5211 66.8991 57.1795 66.9479 56.7647C67.0943 55.935 66.5331 55.1542 65.9718 54.5442Z" fill="#00BAE7"/>
</mask>
<g mask="url(#mask0)">
<path opacity="0.15" d="M4.73629 100.505L32.2188 26.9463L30.0472 26.135L2.56473 99.6937L4.73629 100.505Z" fill="white"/>
<path opacity="0.15" d="M12.4726 106.249L39.9551 32.6904L38.8807 32.289L11.3983 105.848L12.4726 106.249Z" fill="white"/>
<path opacity="0.15" d="M10.8281 103.609L38.3105 30.0498L33.6017 28.2905L6.11922 101.849L10.8281 103.609Z" fill="white"/>
<path opacity="0.15" d="M43.6484 109.778L71.1309 36.2188L66.422 34.4595L38.9395 108.018L43.6484 109.778Z" fill="white"/>
<path opacity="0.15" d="M37.8418 106.537L65.3242 32.9785L63.1527 32.1672L35.6702 105.726L37.8418 106.537Z" fill="white"/>
<path opacity="0.15" d="M-0.158244 100.442L27.3242 26.8828L22.6154 25.1235L-4.8671 98.6823L-0.158244 100.442Z" fill="white"/>
<path opacity="0.15" d="M-5.96488 97.2014L21.5176 23.6426L19.346 22.8313L-8.13645 96.39L-5.96488 97.2014Z" fill="white"/>
</g>
<path d="M65.9718 9.15847C64.4834 7.49922 62.8486 6.5964 60.9209 4.96155C60.8965 4.93715 60.8721 4.93715 60.8477 4.91275C58.188 2.05787 54.3815 0.276625 50.1602 0.276625H16.9753C12.8516 0.252225 9.14271 1.96027 6.48304 4.69314L1.01729 9.15847C0.456074 9.79288 -0.105141 10.5493 0.0168618 11.4033C0.0656632 11.7937 0.285269 12.1597 0.480474 12.5258C1.62731 14.6242 2.28612 16.9911 2.33492 19.4067V39.3665C2.33492 42.7094 5.0434 45.4179 8.38629 45.4179H58.7249C62.0678 45.4179 64.7762 42.7094 64.7762 39.3665V17.6499C65.0446 15.8442 65.6058 14.1118 66.4843 12.5014C66.6795 12.1353 66.8991 11.7937 66.9479 11.3789C67.0943 10.5493 66.5331 9.76848 65.9718 9.15847Z" fill="#00BAE7"/>
<path d="M63.7523 11.5482C61.971 4.05724 51.4055 1.59277 34.6423 1.59277C17.879 1.59277 7.33792 4.03284 5.55667 11.5482C3.77543 19.0636 10.0952 21.9185 10.0952 21.9185C10.0952 21.9185 10.0952 36.2905 9.82679 40.3898C9.53398 44.4891 14.3409 44.9039 14.3409 44.9039H34.6667H54.9924C54.9924 44.9039 59.7993 44.4891 59.5309 40.3898C59.2625 36.2905 59.2625 21.9185 59.2625 21.9185C59.2625 21.9185 65.5335 19.0392 63.7523 11.5482Z" fill="#934114"/>
<path d="M61.7269 11.3051C59.9456 3.81408 49.3801 1.34961 32.6169 1.34961C15.8536 1.34961 5.31253 3.81408 3.53128 11.3051C1.75004 18.7961 8.06981 21.6754 8.06981 21.6754C8.06981 21.6754 8.06981 36.0473 7.8014 40.1467C7.50859 44.246 12.3155 44.6608 12.3155 44.6608H32.6413H52.967C52.967 44.6608 57.774 44.246 57.5056 40.1467C57.2371 36.0473 57.2371 21.6754 57.2371 21.6754C57.2371 21.6754 63.5081 18.7961 61.7269 11.3051Z" fill="#CEA267"/>
<path d="M13.6324 18.2823C14.0905 18.2823 14.462 17.9109 14.462 17.4527C14.462 16.9945 14.0905 16.623 13.6324 16.623C13.1742 16.623 12.8027 16.9945 12.8027 17.4527C12.8027 17.9109 13.1742 18.2823 13.6324 18.2823Z" fill="#A06E27"/>
<path d="M21.441 15.7208C21.8991 15.7208 22.2706 15.3493 22.2706 14.8911C22.2706 14.433 21.8991 14.0615 21.441 14.0615C20.9828 14.0615 20.6113 14.433 20.6113 14.8911C20.6113 15.3493 20.9828 15.7208 21.441 15.7208Z" fill="#A06E27"/>
<path d="M20.8062 8.49811C21.2644 8.49811 21.6358 8.12668 21.6358 7.66849C21.6358 7.2103 21.2644 6.83887 20.8062 6.83887C20.348 6.83887 19.9766 7.2103 19.9766 7.66849C19.9766 8.12668 20.348 8.49811 20.8062 8.49811Z" fill="#A06E27"/>
<path d="M19.146 26.4337C19.6042 26.4337 19.9757 26.0622 19.9757 25.604C19.9757 25.1458 19.6042 24.7744 19.146 24.7744C18.6878 24.7744 18.3164 25.1458 18.3164 25.604C18.3164 26.0622 18.6878 26.4337 19.146 26.4337Z" fill="#A06E27"/>
<path d="M33.2534 21.8692C33.7116 21.8692 34.0831 21.4978 34.0831 21.0396C34.0831 20.5814 33.7116 20.21 33.2534 20.21C32.7953 20.21 32.4238 20.5814 32.4238 21.0396C32.4238 21.4978 32.7953 21.8692 33.2534 21.8692Z" fill="#A06E27"/>
<path d="M25.1734 21.0645C25.6316 21.0645 26.003 20.6931 26.003 20.2349C26.003 19.7767 25.6316 19.4053 25.1734 19.4053C24.7152 19.4053 24.3438 19.7767 24.3438 20.2349C24.3438 20.6931 24.7152 21.0645 25.1734 21.0645Z" fill="#A06E27"/>
<path d="M32.4214 11.2549C32.8796 11.2549 33.251 10.8835 33.251 10.4253C33.251 9.96714 32.8796 9.5957 32.4214 9.5957C31.9632 9.5957 31.5918 9.96714 31.5918 10.4253C31.5918 10.8835 31.9632 11.2549 32.4214 11.2549Z" fill="#A06E27"/>
<path d="M50.8199 30.8262C51.278 30.8262 51.6495 30.4548 51.6495 29.9966C51.6495 29.5384 51.278 29.167 50.8199 29.167C50.3617 29.167 49.9902 29.5384 49.9902 29.9966C49.9902 30.4548 50.3617 30.8262 50.8199 30.8262Z" fill="#A06E27"/>
<path d="M43.0113 33.3643C43.4694 33.3643 43.8409 32.9929 43.8409 32.5347C43.8409 32.0765 43.4694 31.7051 43.0113 31.7051C42.5531 31.7051 42.1816 32.0765 42.1816 32.5347C42.1816 32.9929 42.5531 33.3643 43.0113 33.3643Z" fill="#A06E27"/>
<path d="M43.6441 40.588C44.1023 40.588 44.4737 40.2165 44.4737 39.7583C44.4737 39.3001 44.1023 38.9287 43.6441 38.9287C43.1859 38.9287 42.8145 39.3001 42.8145 39.7583C42.8145 40.2165 43.1859 40.588 43.6441 40.588Z" fill="#A06E27"/>
<path d="M45.3042 22.6524C45.7624 22.6524 46.1339 22.281 46.1339 21.8228C46.1339 21.3646 45.7624 20.9932 45.3042 20.9932C44.846 20.9932 44.4746 21.3646 44.4746 21.8228C44.4746 22.281 44.846 22.6524 45.3042 22.6524Z" fill="#A06E27"/>
<path d="M39.4488 16.796C39.907 16.796 40.2784 16.4245 40.2784 15.9663C40.2784 15.5082 39.907 15.1367 39.4488 15.1367C38.9906 15.1367 38.6191 15.5082 38.6191 15.9663C38.6191 16.4245 38.9906 16.796 39.4488 16.796Z" fill="#A06E27"/>
<path d="M49.6949 13.3799C50.153 13.3799 50.5245 13.0085 50.5245 12.5503C50.5245 12.0921 50.153 11.7207 49.6949 11.7207C49.2367 11.7207 48.8652 12.0921 48.8652 12.5503C48.8652 13.0085 49.2367 13.3799 49.6949 13.3799Z" fill="#A06E27"/>
<path d="M49.6949 17.7716C50.153 17.7716 50.5245 17.4001 50.5245 16.9419C50.5245 16.4837 50.153 16.1123 49.6949 16.1123C49.2367 16.1123 48.8652 16.4837 48.8652 16.9419C48.8652 17.4001 49.2367 17.7716 49.6949 17.7716Z" fill="#A06E27"/>
<path d="M43.3531 8.98835C43.8113 8.98835 44.1827 8.61691 44.1827 8.15872C44.1827 7.70054 43.8113 7.3291 43.3531 7.3291C42.8949 7.3291 42.5234 7.70054 42.5234 8.15872C42.5234 8.61691 42.8949 8.98835 43.3531 8.98835Z" fill="#A06E27"/>
<path d="M31.2007 27.2159C31.6589 27.2159 32.0303 26.8445 32.0303 26.3863C32.0303 25.9281 31.6589 25.5566 31.2007 25.5566C30.7425 25.5566 30.3711 25.9281 30.3711 26.3863C30.3711 26.8445 30.7425 27.2159 31.2007 27.2159Z" fill="#A06E27"/>
<path d="M28.273 34.0479C28.7312 34.0479 29.1026 33.6765 29.1026 33.2183C29.1026 32.7601 28.7312 32.3887 28.273 32.3887C27.8148 32.3887 27.4434 32.7601 27.4434 33.2183C27.4434 33.6765 27.8148 34.0479 28.273 34.0479Z" fill="#A06E27"/>
<path d="M14.1206 31.1192C14.5788 31.1192 14.9503 30.7478 14.9503 30.2896C14.9503 29.8314 14.5788 29.46 14.1206 29.46C13.6625 29.46 13.291 29.8314 13.291 30.2896C13.291 30.7478 13.6625 31.1192 14.1206 31.1192Z" fill="#A06E27"/>
<path d="M17.0484 38.9268C17.5066 38.9268 17.878 38.5554 17.878 38.0972C17.878 37.639 17.5066 37.2676 17.0484 37.2676C16.5902 37.2676 16.2188 37.639 16.2188 38.0972C16.2188 38.5554 16.5902 38.9268 17.0484 38.9268Z" fill="#A06E27"/>
<path d="M23.8824 39.9053C24.3405 39.9053 24.712 39.5339 24.712 39.0757C24.712 38.6175 24.3405 38.2461 23.8824 38.2461C23.4242 38.2461 23.0527 38.6175 23.0527 39.0757C23.0527 39.5339 23.4242 39.9053 23.8824 39.9053Z" fill="#A06E27"/>
<path d="M25.1011 30.3878C25.5593 30.3878 25.9307 30.0163 25.9307 29.5581C25.9307 29.1 25.5593 28.7285 25.1011 28.7285C24.6429 28.7285 24.2715 29.1 24.2715 29.5581C24.2715 30.0163 24.6429 30.3878 25.1011 30.3878Z" fill="#A06E27"/>
<path d="M39.2769 28.045C39.7351 28.045 40.1065 27.6736 40.1065 27.2154C40.1065 26.7572 39.7351 26.3857 39.2769 26.3857C38.8187 26.3857 38.4473 26.7572 38.4473 27.2154C38.4473 27.6736 38.8187 28.045 39.2769 28.045Z" fill="#A06E27"/>
<path d="M32.0308 37.8536C32.489 37.8536 32.8604 37.4821 32.8604 37.024C32.8604 36.5658 32.489 36.1943 32.0308 36.1943C31.5726 36.1943 31.2012 36.5658 31.2012 37.024C31.2012 37.4821 31.5726 37.8536 32.0308 37.8536Z" fill="#A06E27"/>
<path d="M32.5905 3.74086C41.0575 3.74086 47.2553 4.39968 51.501 5.71732C55.6247 7.01055 57.8452 8.9138 58.504 11.6955C59.0652 14.1111 58.7236 16.1608 57.4792 17.82C56.6251 18.9425 55.6003 19.5037 55.4295 19.6013L53.8923 20.2357V21.6509C53.8923 22.2366 53.8923 36.1205 54.1607 40.2443C54.2339 41.4155 53.6727 41.7571 53.4531 41.8791C53.1359 42.0743 52.7698 42.1719 52.5502 42.2207H32.5417H12.5819C12.3623 42.1719 11.9719 42.0743 11.6791 41.8791C11.4595 41.7571 10.8983 41.4155 10.9715 40.2443C11.2399 36.1205 11.2399 22.2366 11.2399 21.6509V20.2845L9.67827 19.5769C9.67827 19.5769 8.70224 19.0645 7.82382 18.0152C6.45738 16.356 6.06697 14.2331 6.67699 11.7199C7.33581 8.9138 9.58067 7.03495 13.68 5.74172C17.9257 4.39968 24.1235 3.74086 32.5905 3.74086ZM32.5905 1.3252C15.8516 1.3252 5.26175 3.78966 3.4805 11.2807C1.69925 18.7717 8.01903 21.6509 8.01903 21.6509C8.01903 21.6509 8.01903 36.0229 7.75062 40.1222C7.45781 44.246 12.2647 44.6608 12.2647 44.6608H32.5905H52.9162C52.9162 44.6608 57.7232 44.246 57.4548 40.1467C57.1864 36.0473 57.1864 21.6753 57.1864 21.6753C57.1864 21.6753 63.5061 18.7961 61.7249 11.3051C59.9192 3.78966 49.3293 1.3252 32.5905 1.3252Z" fill="#A06E27"/>
<path opacity="0.15" d="M65.9718 9.15847C64.4834 7.49922 62.8486 6.5964 60.9209 4.96155C60.8965 4.93715 60.8721 4.93715 60.8477 4.91275C58.188 2.05787 54.3815 0.276625 50.1602 0.276625H16.9753C12.8516 0.252225 9.14271 1.96027 6.48304 4.69314L1.01729 9.15847C0.456074 9.79288 -0.105141 10.5493 0.0168618 11.4033C0.0656632 11.7937 0.285269 12.1597 0.480474 12.5258C1.62731 14.6242 2.28612 16.9911 2.33492 19.4067V39.3665C2.33492 42.7094 5.0434 45.4179 8.38629 45.4179H58.7249C62.0678 45.4179 64.7762 42.7094 64.7762 39.3665V17.6499C65.0446 15.8442 65.6058 14.1118 66.4843 12.5014C66.6795 12.1353 66.8991 11.7937 66.9479 11.3789C67.0943 10.5493 66.5331 9.76848 65.9718 9.15847Z" fill="white"/>
<path d="M43.5958 16.1133H22.3184C17.4871 16.1133 13.5586 20.0418 13.5586 24.8731V45.3941H52.3556V24.8731C52.3556 20.0418 48.4271 16.1133 43.5958 16.1133Z" fill="#731F33"/>
<path d="M15.0974 45.3936V24.5067C15.0974 20.6758 18.1963 17.5769 22.0272 17.5769H43.8902C47.7211 17.5769 50.82 20.6758 50.82 24.5067V45.3936H51.308V24.5067C51.308 20.4074 47.9895 17.0889 43.8902 17.0889H22.0272C17.9523 17.0889 14.6094 20.4318 14.6094 24.5067V45.3936H15.0974Z" fill="#CE9A0B"/>
<path fill-rule="evenodd" clip-rule="evenodd" d="M32.5179 35.1443C28.077 34.5587 24.5877 34.6319 22.5868 36.0227C22.0256 33.7535 21.7816 31.6794 22.1964 29.947C22.904 26.8969 24.8073 26.1893 26.6129 26.0917C28.8578 25.9697 32.3959 26.7017 35.2507 27.1165C38.9596 27.6289 42.2781 27.7265 44.523 26.4333C45.2306 28.3121 45.3526 30.191 45.0354 32.0942C44.7182 34.2903 43.4006 35.4127 41.3021 35.6567C38.5448 36.0227 35.4948 35.5347 32.5179 35.1443Z" fill="white"/>
<path fill-rule="evenodd" clip-rule="evenodd" d="M30.9091 27.2403C31.2507 27.2403 31.3971 27.5087 31.3971 27.7771C31.3971 28.0699 31.2263 28.3383 30.9091 28.3627C30.5675 28.3627 30.3967 28.1187 30.3967 27.8259C30.4211 27.5331 30.5431 27.2403 30.9091 27.2403ZM30.9091 27.0207C30.4211 27.0207 30.1038 27.2891 30.1038 27.7771C30.1038 28.2895 30.3967 28.5579 30.9091 28.5579C31.3971 28.5579 31.7143 28.2895 31.7143 27.7771C31.7143 27.2891 31.4215 27.0207 30.9091 27.0207ZM29.1278 27.7283V27.2647C29.323 27.2647 29.5914 27.2159 29.5914 27.4843C29.6158 27.7283 29.3474 27.7283 29.1278 27.7283ZM28.835 28.5335H29.1522V27.9235C29.3962 27.9235 29.7134 27.9235 29.8842 27.7039C30.0306 27.4843 29.9818 27.0939 29.5182 27.0695H28.835V28.5335ZM27.2978 27.0695H27.5662C27.5662 27.2159 27.5662 27.9479 27.5662 28.0699C27.6394 28.3871 28.2006 28.3871 28.225 28.0455C28.2494 27.8503 28.225 27.2891 28.225 27.0695H28.4934C28.4934 27.2647 28.5178 28.0455 28.469 28.1919C28.3714 28.6067 27.7858 28.6311 27.5174 28.5091C27.2734 28.3871 27.249 28.1919 27.249 27.9479L27.2978 27.0695ZM26.2729 27.7039V27.2647C26.4925 27.2647 26.761 27.2159 26.761 27.4599C26.7854 27.7527 26.4681 27.7039 26.2729 27.7039ZM25.9557 28.5335H26.2729V27.8991H26.4681L26.8098 28.5335H27.1758L26.7854 27.8503C26.9806 27.7771 27.127 27.6551 27.127 27.4355C27.127 27.1427 26.883 27.0451 26.639 27.0451H25.9801L25.9557 28.5335ZM25.1749 27.7283V27.9235H25.4189V28.2407C25.1749 28.3383 24.7601 28.3383 24.6625 28.0211C24.5405 27.7039 24.6625 27.2159 25.1261 27.2159C25.2969 27.2159 25.4189 27.2647 25.4921 27.4355L25.6629 27.2159C25.5165 27.0695 25.3701 27.0207 25.1261 27.0207C24.1501 27.0207 24.1501 28.0455 24.5405 28.3383C24.8577 28.5823 25.3457 28.5091 25.6873 28.4115V27.7039L25.1749 27.7283ZM30.6407 35.3901C27.9566 35.1461 25.3945 35.2681 23.7841 36.5613C23.2717 36.4881 22.7836 36.3905 22.2712 36.3173C21.6612 34.2921 21.5148 32.1692 21.8076 29.9731C22.2468 27.8259 23.3693 25.947 26.0777 25.7762C28.8838 25.6054 32.6903 26.2886 36.4724 26.679C39.1809 26.9719 41.5478 26.7278 43.1094 25.5078C43.695 25.6786 44.2562 25.8494 44.8418 26.0202C45.5739 28.0943 45.6227 30.1439 45.2811 32.1692C44.8174 35.0241 42.963 36.0489 40.4741 36.0733C37.0092 36.1221 33.4223 35.6585 30.6407 35.3901ZM32.5195 35.1461C28.0786 34.5605 24.5893 34.6337 22.5884 36.0245C22.0272 33.7552 21.7832 31.6812 22.198 29.9487C22.9057 26.8986 24.8089 26.191 26.6146 26.0934C28.8594 25.9714 32.3975 26.7034 35.2524 27.1183C38.9613 27.6307 42.2798 27.7283 44.5246 26.435C45.2323 28.3139 45.3543 30.1927 45.0371 32.096C44.7198 34.2921 43.4022 35.4145 41.3037 35.6585C38.5465 36.0245 35.4964 35.5365 32.5195 35.1461Z" fill="#3D438B"/>
<path fill-rule="evenodd" clip-rule="evenodd" d="M37.2985 32.7294H36.3469V29.9477H37.1277C37.5425 29.9477 37.7133 30.0697 37.7133 30.2893C37.7377 30.6309 37.5425 30.8017 37.2253 30.8017H36.9325L36.5665 31.6069H37.2985C37.6401 31.6069 37.9817 31.8509 37.9329 32.1682C37.9085 32.5098 37.6645 32.7294 37.2985 32.7294ZM37.4693 33.6322H35.2244V29.0205H37.3717C38.1037 29.0205 38.7625 29.2401 38.8601 29.9477C38.9333 30.4601 38.7869 30.8505 38.3721 31.1189C38.9577 31.3873 39.2017 32.0949 39.0065 32.7538C38.7869 33.4126 38.0061 33.6322 37.4693 33.6322ZM41.5686 30.0453C42.2518 30.0453 42.7886 30.6065 42.7886 31.2897C42.7886 31.9729 42.2274 32.5342 41.5686 32.5342C40.9098 32.5342 40.3486 31.9729 40.3486 31.2897C40.3242 30.6065 40.8854 30.0453 41.5686 30.0453ZM41.5686 28.9473C42.8374 28.9473 43.8867 29.9965 43.8867 31.2897C43.8867 32.583 42.8618 33.6322 41.5686 33.6322C40.2998 33.6322 39.2505 32.583 39.2505 31.2897C39.2505 29.9965 40.2754 28.9473 41.5686 28.9473ZM34.7608 29.0205V33.6322H33.6384V30.7041L32.9064 33.6322H31.8083L31.1007 30.7529V33.6322H30.0027V29.0205H31.7839L32.394 31.6069L32.9796 29.0205H34.7608ZM28.3923 29.0205H29.5147V33.6322H28.3923V29.0205ZM26.3182 32.7294H25.3666V29.9477H26.1474C26.5622 29.9477 26.733 30.0697 26.733 30.2893C26.7574 30.6309 26.5622 30.8017 26.245 30.8017H25.9522L25.5862 31.6069H26.3182C26.6598 31.6069 27.0014 31.8509 26.9526 32.1682C26.9526 32.5098 26.6842 32.7294 26.3182 32.7294ZM26.489 33.6322H24.2441V29.0205H26.3914C27.1234 29.0205 27.7822 29.2401 27.8798 29.9477C27.953 30.4601 27.8066 30.8505 27.3918 31.1189C27.9774 31.3873 28.2214 32.0949 28.0262 32.7538C27.831 33.4126 27.0258 33.6322 26.489 33.6322Z" fill="#DA243C"/>
<mask id="mask1" mask-type="alpha" maskUnits="userSpaceOnUse" x="0" y="0" width="67" height="46">
<path d="M65.9718 9.15847C64.4834 7.49922 62.8486 6.5964 60.9209 4.96155C60.8965 4.93715 60.8721 4.93715 60.8477 4.91275C58.188 2.05787 54.3815 0.276625 50.1602 0.276625H16.9753C12.8516 0.252225 9.14271 1.96027 6.48304 4.69314L1.01729 9.15847C0.456074 9.79288 -0.105141 10.5493 0.0168618 11.4033C0.0656632 11.7937 0.285269 12.1597 0.480474 12.5258C1.62731 14.6242 2.28612 16.9911 2.33492 19.4067V39.3665C2.33492 42.7094 5.0434 45.4179 8.38629 45.4179H58.7249C62.0678 45.4179 64.7762 42.7094 64.7762 39.3665V17.6499C65.0446 15.8442 65.6058 14.1118 66.4843 12.5014C66.6795 12.1353 66.8991 11.7937 66.9479 11.3789C67.0943 10.5493 66.5331 9.76848 65.9718 9.15847Z" fill="#00BAE7"/>
</mask>
<g mask="url(#mask1)">
<path opacity="0.15" d="M4.73629 55.1193L32.2188 -18.4395L30.0472 -19.2508L2.56473 54.308L4.73629 55.1193Z" fill="white"/>
<path opacity="0.15" d="M12.4726 60.8635L39.9551 -12.6953L38.8807 -13.0967L11.3983 60.4621L12.4726 60.8635Z" fill="white"/>
<path opacity="0.15" d="M10.8281 58.2228L38.3105 -15.3359L33.6017 -17.0952L6.11922 56.4636L10.8281 58.2228Z" fill="white"/>
<path opacity="0.15" d="M43.6484 64.3918L71.1309 -9.16699L66.422 -10.9263L38.9395 62.6325L43.6484 64.3918Z" fill="white"/>
<path opacity="0.15" d="M37.8418 61.1525L65.3242 -12.4062L63.1527 -13.2176L35.6702 60.3412L37.8418 61.1525Z" fill="white"/>
<path opacity="0.15" d="M-0.160197 55.0539L27.3223 -18.5049L22.6134 -20.2642L-4.86906 53.2946L-0.160197 55.0539Z" fill="white"/>
<path opacity="0.15" d="M-5.96684 51.8137L21.5156 -21.7451L19.3441 -22.5564L-8.1384 51.0023L-5.96684 51.8137Z" fill="white"/>
</g>
</svg>
