<svg width="67" height="91" viewBox="0 0 67 91" fill="none" xmlns="http://www.w3.org/2000/svg">
<path d="M65.9719 54.544C64.4834 52.8847 62.8486 51.9819 60.9209 50.347C60.8965 50.3226 60.8721 50.3226 60.8477 50.2982C58.188 47.4434 54.3815 45.6621 50.1602 45.6621H16.9509C12.8516 45.6621 9.11831 47.3702 6.48304 50.0786L1.01729 54.544C0.456074 55.1784 -0.105141 55.9348 0.0168618 56.7888C0.0656632 57.1792 0.285269 57.5452 0.480474 57.9112C1.62731 60.0097 2.28612 62.3766 2.33492 64.7922V84.752C2.33492 88.0949 5.0434 90.8033 8.38629 90.8033H58.7249C62.0677 90.8033 64.7762 88.0949 64.7762 84.752V63.0354C65.0446 61.2297 65.6059 59.4973 66.4843 57.8868C66.6795 57.5208 66.8991 57.1792 66.9479 56.7644C67.0943 55.9348 66.5331 55.154 65.9719 54.544Z" fill="#00BAE7"/>
<path d="M63.7513 56.9105C61.97 49.4195 51.4045 46.9551 34.6413 46.9551C17.878 46.9551 7.31253 49.4195 5.53128 56.9105C3.75004 64.4016 10.0698 67.2808 10.0698 67.2808C10.0698 67.2808 10.0698 81.6528 9.8014 85.7521C9.53299 89.8514 14.3399 90.2663 14.3399 90.2663H34.6657H54.967C54.967 90.2663 59.774 89.8514 59.5056 85.7521C59.2371 81.6528 59.2371 67.2808 59.2371 67.2808C59.2371 67.2808 65.5325 64.426 63.7513 56.9105Z" fill="#934114"/>
<path d="M61.7289 56.6928C59.9477 49.2018 49.3822 46.7373 32.6189 46.7373C15.8557 46.7373 5.3146 49.1774 3.50895 56.6928C1.70331 64.2082 8.04748 67.0631 8.04748 67.0631C8.04748 67.0631 8.04748 81.435 7.77907 85.5344C7.51066 89.6337 12.3176 90.0485 12.3176 90.0485H32.6433H52.9691C52.9691 90.0485 57.776 89.6337 57.5076 85.5344C57.2392 81.435 57.2392 67.0631 57.2392 67.0631C57.2392 67.0631 63.5102 64.1838 61.7289 56.6928Z" fill="#CEA267"/>
<path d="M13.6363 63.669C14.0945 63.669 14.4659 63.2976 14.4659 62.8394C14.4659 62.3812 14.0945 62.0098 13.6363 62.0098C13.1781 62.0098 12.8066 62.3812 12.8066 62.8394C12.8066 63.2976 13.1781 63.669 13.6363 63.669Z" fill="#A06E27"/>
<path d="M21.4195 61.1075C21.8777 61.1075 22.2491 60.7361 22.2491 60.2779C22.2491 59.8197 21.8777 59.4482 21.4195 59.4482C20.9613 59.4482 20.5898 59.8197 20.5898 60.2779C20.5898 60.7361 20.9613 61.1075 21.4195 61.1075Z" fill="#A06E27"/>
<path d="M20.7867 53.8848C21.2448 53.8848 21.6163 53.5134 21.6163 53.0552C21.6163 52.597 21.2448 52.2256 20.7867 52.2256C20.3285 52.2256 19.957 52.597 19.957 53.0552C19.957 53.5134 20.3285 53.8848 20.7867 53.8848Z" fill="#A06E27"/>
<path d="M19.1499 71.8204C19.6081 71.8204 19.9796 71.4489 19.9796 70.9908C19.9796 70.5326 19.6081 70.1611 19.1499 70.1611C18.6917 70.1611 18.3203 70.5326 18.3203 70.9908C18.3203 71.4489 18.6917 71.8204 19.1499 71.8204Z" fill="#A06E27"/>
<path d="M33.2574 67.2559C33.7155 67.2559 34.087 66.8845 34.087 66.4263C34.087 65.9681 33.7155 65.5967 33.2574 65.5967C32.7992 65.5967 32.4277 65.9681 32.4277 66.4263C32.4277 66.8845 32.7992 67.2559 33.2574 67.2559Z" fill="#A06E27"/>
<path d="M25.1773 66.4512C25.6355 66.4512 26.0069 66.0798 26.0069 65.6216C26.0069 65.1634 25.6355 64.792 25.1773 64.792C24.7191 64.792 24.3477 65.1634 24.3477 65.6216C24.3477 66.0798 24.7191 66.4512 25.1773 66.4512Z" fill="#A06E27"/>
<path d="M32.4253 56.6417C32.8835 56.6417 33.2549 56.2702 33.2549 55.812C33.2549 55.3539 32.8835 54.9824 32.4253 54.9824C31.9671 54.9824 31.5957 55.3539 31.5957 55.812C31.5957 56.2702 31.9671 56.6417 32.4253 56.6417Z" fill="#A06E27"/>
<path d="M50.8218 76.21C51.28 76.21 51.6514 75.8386 51.6514 75.3804C51.6514 74.9222 51.28 74.5508 50.8218 74.5508C50.3636 74.5508 49.9922 74.9222 49.9922 75.3804C49.9922 75.8386 50.3636 76.21 50.8218 76.21Z" fill="#A06E27"/>
<path d="M43.0132 78.7481C43.4714 78.7481 43.8428 78.3767 43.8428 77.9185C43.8428 77.4603 43.4714 77.0889 43.0132 77.0889C42.555 77.0889 42.1836 77.4603 42.1836 77.9185C42.1836 78.3767 42.555 78.7481 43.0132 78.7481Z" fill="#A06E27"/>
<path d="M43.646 85.9717C44.1042 85.9717 44.4757 85.6003 44.4757 85.1421C44.4757 84.6839 44.1042 84.3125 43.646 84.3125C43.1878 84.3125 42.8164 84.6839 42.8164 85.1421C42.8164 85.6003 43.1878 85.9717 43.646 85.9717Z" fill="#A06E27"/>
<path d="M45.2827 68.0362C45.7409 68.0362 46.1124 67.6648 46.1124 67.2066C46.1124 66.7484 45.7409 66.377 45.2827 66.377C44.8246 66.377 44.4531 66.7484 44.4531 67.2066C44.4531 67.6648 44.8246 68.0362 45.2827 68.0362Z" fill="#A06E27"/>
<path d="M39.4253 62.1798C39.8835 62.1798 40.2549 61.8083 40.2549 61.3501C40.2549 60.8919 39.8835 60.5205 39.4253 60.5205C38.9671 60.5205 38.5957 60.8919 38.5957 61.3501C38.5957 61.8083 38.9671 62.1798 39.4253 62.1798Z" fill="#A06E27"/>
<path d="M49.6753 58.7637C50.1335 58.7637 50.5049 58.3923 50.5049 57.9341C50.5049 57.4759 50.1335 57.1045 49.6753 57.1045C49.2171 57.1045 48.8457 57.4759 48.8457 57.9341C48.8457 58.3923 49.2171 58.7637 49.6753 58.7637Z" fill="#A06E27"/>
<path d="M49.6753 63.1553C50.1335 63.1553 50.5049 62.7839 50.5049 62.3257C50.5049 61.8675 50.1335 61.4961 49.6753 61.4961C49.2171 61.4961 48.8457 61.8675 48.8457 62.3257C48.8457 62.7839 49.2171 63.1553 49.6753 63.1553Z" fill="#A06E27"/>
<path d="M43.3316 54.3721C43.7898 54.3721 44.1612 54.0007 44.1612 53.5425C44.1612 53.0843 43.7898 52.7129 43.3316 52.7129C42.8734 52.7129 42.502 53.0843 42.502 53.5425C42.502 54.0007 42.8734 54.3721 43.3316 54.3721Z" fill="#A06E27"/>
<path d="M31.2027 72.5997C31.6609 72.5997 32.0323 72.2282 32.0323 71.7701C32.0323 71.3119 31.6609 70.9404 31.2027 70.9404C30.7445 70.9404 30.373 71.3119 30.373 71.7701C30.373 72.2282 30.7445 72.5997 31.2027 72.5997Z" fill="#A06E27"/>
<path d="M28.2749 79.4317C28.7331 79.4317 29.1046 79.0603 29.1046 78.6021C29.1046 78.1439 28.7331 77.7725 28.2749 77.7725C27.8167 77.7725 27.4453 78.1439 27.4453 78.6021C27.4453 79.0603 27.8167 79.4317 28.2749 79.4317Z" fill="#A06E27"/>
<path d="M14.1226 76.503C14.5808 76.503 14.9522 76.1316 14.9522 75.6734C14.9522 75.2152 14.5808 74.8438 14.1226 74.8438C13.6644 74.8438 13.293 75.2152 13.293 75.6734C13.293 76.1316 13.6644 76.503 14.1226 76.503Z" fill="#A06E27"/>
<path d="M17.0503 84.3106C17.5085 84.3106 17.8799 83.9392 17.8799 83.481C17.8799 83.0228 17.5085 82.6514 17.0503 82.6514C16.5921 82.6514 16.2207 83.0228 16.2207 83.481C16.2207 83.9392 16.5921 84.3106 17.0503 84.3106Z" fill="#A06E27"/>
<path d="M23.8843 85.2891C24.3425 85.2891 24.7139 84.9177 24.7139 84.4595C24.7139 84.0013 24.3425 83.6299 23.8843 83.6299C23.4261 83.6299 23.0547 84.0013 23.0547 84.4595C23.0547 84.9177 23.4261 85.2891 23.8843 85.2891Z" fill="#A06E27"/>
<path d="M25.1031 75.7715C25.5612 75.7715 25.9327 75.4001 25.9327 74.9419C25.9327 74.4837 25.5612 74.1123 25.1031 74.1123C24.6449 74.1123 24.2734 74.4837 24.2734 74.9419C24.2734 75.4001 24.6449 75.7715 25.1031 75.7715Z" fill="#A06E27"/>
<path d="M39.2788 73.4288C39.737 73.4288 40.1085 73.0573 40.1085 72.5992C40.1085 72.141 39.737 71.7695 39.2788 71.7695C38.8207 71.7695 38.4492 72.141 38.4492 72.5992C38.4492 73.0573 38.8207 73.4288 39.2788 73.4288Z" fill="#A06E27"/>
<path d="M32.0074 83.2374C32.4655 83.2374 32.837 82.8659 32.837 82.4077C32.837 81.9496 32.4655 81.5781 32.0074 81.5781C31.5492 81.5781 31.1777 81.9496 31.1777 82.4077C31.1777 82.8659 31.5492 83.2374 32.0074 83.2374Z" fill="#A06E27"/>
<path d="M32.5924 49.1266C41.0595 49.1266 47.2572 49.7854 51.503 51.1031C55.6267 52.3963 57.8471 54.2995 58.506 57.0812C59.0672 59.4969 58.7256 61.5465 57.4811 63.2058C56.6271 64.3282 55.6023 64.8894 55.4315 64.987L53.8942 65.6214V67.0367C53.8942 67.6223 53.8942 81.5063 54.1626 85.63C54.2358 86.8012 53.6746 87.1428 53.455 87.2648C53.1378 87.46 52.7718 87.5576 52.5522 87.6064H32.5436H12.5351C12.3155 87.5576 11.9251 87.46 11.6323 87.2648C11.4127 87.1428 10.8515 86.8012 10.9247 85.63C11.1931 81.5063 11.1931 67.6223 11.1931 67.0367V65.6702L9.63142 64.9626C9.63142 64.9626 8.6554 64.4502 7.77697 63.401C6.41053 61.7173 6.02012 59.5945 6.60574 57.0812C7.26456 54.2751 9.50942 52.3963 13.6087 51.1031C17.9276 49.7854 24.101 49.1266 32.5924 49.1266ZM32.5924 46.7109C15.8536 46.7109 5.2637 49.1754 3.48246 56.6664C1.70121 64.1574 8.02098 67.0367 8.02098 67.0367C8.02098 67.0367 8.02098 81.4087 7.75257 85.508C7.45976 89.6317 12.2667 90.0465 12.2667 90.0465H32.5924H52.9182C52.9182 90.0465 57.7251 89.6317 57.4567 85.5324C57.1883 81.4331 57.1883 67.0611 57.1883 67.0611C57.1883 67.0611 63.5081 64.1818 61.7268 56.6908C59.8968 49.1754 49.3313 46.7109 32.5924 46.7109Z" fill="#A06E27"/>
<path opacity="0.15" d="M65.9719 54.544C64.4834 52.8847 62.8486 51.9819 60.9209 50.347C60.8965 50.3226 60.8721 50.3226 60.8477 50.2982C58.188 47.4434 54.3815 45.6621 50.1602 45.6621H16.9509C12.8516 45.6621 9.11831 47.3702 6.48304 50.0786L1.01729 54.544C0.456074 55.1784 -0.105141 55.9348 0.0168618 56.7888C0.0656632 57.1792 0.285269 57.5452 0.480474 57.9112C1.62731 60.0097 2.28612 62.3766 2.33492 64.7922V84.752C2.33492 88.0949 5.0434 90.8033 8.38629 90.8033H58.7249C62.0677 90.8033 64.7762 88.0949 64.7762 84.752V63.0354C65.0446 61.2297 65.6059 59.4973 66.4843 57.8868C66.6795 57.5208 66.8991 57.1792 66.9479 56.7644C67.0943 55.9348 66.5331 55.154 65.9719 54.544Z" fill="white"/>
<path d="M43.5743 61.498H22.2969C17.4656 61.498 13.5371 65.4266 13.5371 70.2579V90.7788H52.3342V70.2579C52.3586 65.4266 48.4301 61.498 43.5743 61.498Z" fill="#269170"/>
<path d="M43.8658 62.4736H22.0272C17.9279 62.4736 14.6094 65.7921 14.6094 69.8914V90.7784H15.0974V69.8914C15.0974 66.0605 18.1963 62.9616 22.0272 62.9616H43.8902C47.7211 62.9616 50.82 66.0605 50.82 69.8914V90.7784H51.308V69.8914C51.308 65.8165 47.9651 62.4736 43.8658 62.4736Z" fill="#CE9A0B"/>
<path fill-rule="evenodd" clip-rule="evenodd" d="M32.4964 80.53C28.0555 79.9444 24.5662 80.0176 22.5653 81.4085C22.0041 79.1392 21.7601 77.0652 22.1749 75.3327C22.8825 72.2826 24.7858 71.575 26.5914 71.4774C28.8363 71.3554 32.3744 72.0874 35.2293 72.5022C38.9382 73.0146 42.2567 73.1122 44.5015 71.819C45.2091 73.6979 45.3311 75.5767 45.0139 77.48C44.6967 79.676 43.3791 80.7985 41.2806 81.0425C38.5478 81.3841 35.4733 80.8961 32.4964 80.53Z" fill="white"/>
<path fill-rule="evenodd" clip-rule="evenodd" d="M30.91 72.626C31.2516 72.626 31.398 72.8944 31.398 73.1628C31.398 73.4556 31.2272 73.724 30.91 73.7484C30.5684 73.7484 30.3976 73.5044 30.3976 73.2116C30.3976 72.9188 30.544 72.626 30.91 72.626ZM30.91 72.4064C30.422 72.4064 30.1048 72.6748 30.1048 73.1628C30.1048 73.6752 30.3976 73.9436 30.91 73.9436C31.398 73.9436 31.7153 73.6752 31.7153 73.1628C31.7153 72.6748 31.398 72.4064 30.91 72.4064ZM29.1288 73.114V72.6504C29.324 72.6504 29.5924 72.6016 29.5924 72.87C29.5924 73.114 29.324 73.114 29.1288 73.114ZM28.8116 73.9192H29.1288V73.3092C29.3728 73.3092 29.69 73.3092 29.8608 73.0896C30.0072 72.87 29.9584 72.4796 29.4948 72.4552H28.8116V73.9192ZM27.2743 72.4552H27.5427C27.5427 72.6016 27.5427 73.3336 27.5427 73.4556C27.6159 73.7728 28.1772 73.7728 28.2016 73.4312C28.226 73.236 28.2016 72.6748 28.2016 72.4552H28.47C28.47 72.6504 28.4944 73.4312 28.4456 73.5776C28.348 73.9924 27.7623 74.0168 27.4939 73.8948C27.2499 73.7728 27.2255 73.5776 27.2255 73.3336L27.2743 72.4552ZM26.2739 73.0896V72.6504C26.4935 72.6504 26.7619 72.6016 26.7619 72.8456C26.7619 73.114 26.4447 73.0896 26.2739 73.0896ZM25.9567 73.9192H26.2739V73.2848H26.4691L26.8107 73.9192H27.1767L26.7863 73.236C26.9815 73.1628 27.1279 73.0408 27.1279 72.8212C27.1279 72.5284 26.8839 72.4308 26.6399 72.4308H25.9811L25.9567 73.9192ZM25.1515 73.114V73.3092H25.3955V73.6264C25.1515 73.724 24.7367 73.724 24.6391 73.4068C24.5171 73.0896 24.6391 72.6016 25.1027 72.6016C25.2735 72.6016 25.3955 72.6504 25.4687 72.8212L25.6395 72.6016C25.4931 72.4552 25.3467 72.4064 25.1027 72.4064C24.1266 72.4064 24.1266 73.4312 24.5171 73.724C24.8343 73.968 25.3223 73.8948 25.6639 73.7972V73.114H25.1515ZM30.6172 80.7758C27.9332 80.5318 25.3711 80.6538 23.7606 81.9471C23.2482 81.8739 22.7602 81.7762 22.2478 81.703C21.6378 79.6778 21.4914 77.5549 21.7842 75.3589C22.2234 73.2116 23.3458 71.3328 26.0543 71.162C28.8604 70.9912 32.6669 71.6744 36.449 72.0648C39.1575 72.3576 41.5243 72.1136 43.086 70.8936C43.6716 71.0644 44.2328 71.2352 44.8184 71.406C45.5504 73.48 45.5992 75.5297 45.2576 77.5549C44.794 80.4098 42.9396 81.4346 40.4507 81.459C36.9858 81.4834 33.3989 81.0198 30.6172 80.7758ZM32.4961 80.5318C28.0552 79.9462 24.5659 80.0194 22.565 81.4102C22.0038 79.141 21.7598 77.0669 22.1746 75.3345C22.8822 72.2844 24.7855 71.5768 26.5911 71.4792C28.836 71.3572 32.3741 72.0892 35.229 72.504C38.9379 73.0164 42.2563 73.114 44.5012 71.8208C45.2088 73.6996 45.3308 75.5785 45.0136 77.4817C44.6964 79.6778 43.3788 80.8002 41.2803 81.0442C38.5474 81.3858 35.473 80.8978 32.4961 80.5318Z" fill="#3D438B"/>
<path fill-rule="evenodd" clip-rule="evenodd" d="M37.3024 78.1141H36.3508V75.3325H37.1316C37.5464 75.3325 37.7172 75.4545 37.7172 75.6741C37.7416 76.0157 37.5464 76.1865 37.2292 76.1865H36.9364L36.5704 76.9917H37.3024C37.644 76.9917 37.9856 77.2357 37.9368 77.5529C37.9124 77.8945 37.644 78.1141 37.3024 78.1141ZM37.4488 79.017H35.2039V74.4052H37.3512C38.0832 74.4052 38.742 74.6248 38.8396 75.3325C38.9128 75.8449 38.7664 76.2353 38.3516 76.5037C38.9372 76.7721 39.1813 77.4797 38.986 78.1385C38.7908 78.7974 38.01 79.017 37.4488 79.017ZM41.5481 75.4301C42.2313 75.4301 42.7682 75.9913 42.7682 76.6745C42.7682 77.3577 42.2069 77.9189 41.5481 77.9189C40.8649 77.9189 40.3281 77.3577 40.3281 76.6745C40.3281 75.9913 40.8649 75.4301 41.5481 75.4301ZM41.5481 74.332C42.817 74.332 43.8662 75.3813 43.8662 76.6745C43.8662 77.9677 42.8414 79.017 41.5481 79.017C40.2549 79.017 39.2301 77.9677 39.2301 76.6745C39.2301 75.3813 40.2793 74.332 41.5481 74.332ZM34.7647 74.4052V79.017H33.6423V76.0889L32.9103 79.017H31.7879L31.0802 76.1377V79.017H29.9822V74.4052H31.7635L32.3735 76.9917L32.9591 74.4052H34.7647ZM28.3718 74.4052H29.4942V79.017H28.3718V74.4052ZM26.3221 78.1141H25.3705V75.3325H26.1513C26.5661 75.3325 26.7369 75.4545 26.7369 75.6741C26.7613 76.0157 26.5661 76.1865 26.2489 76.1865H25.9561L25.5901 76.9917H26.3221C26.6637 76.9917 27.0053 77.2357 26.9565 77.5529C26.9321 77.8945 26.6637 78.1141 26.3221 78.1141ZM26.4929 79.017H24.248V74.4052H26.3953C27.1273 74.4052 27.7861 74.6248 27.8837 75.3325C27.9569 75.8449 27.8105 76.2353 27.3957 76.5037C27.9813 76.7721 28.2254 77.4797 28.0302 78.1385C27.8105 78.7974 27.0297 79.017 26.4929 79.017Z" fill="#DA243C"/>
<mask id="mask0" mask-type="alpha" maskUnits="userSpaceOnUse" x="0" y="45" width="67" height="46">
<path d="M65.9719 54.544C64.4834 52.8847 62.8486 51.9819 60.9209 50.347C60.8965 50.3226 60.8721 50.3226 60.8477 50.2982C58.188 47.4434 54.3815 45.6621 50.1602 45.6621H16.9509C12.8516 45.6621 9.11831 47.3702 6.48304 50.0786L1.01729 54.544C0.456074 55.1784 -0.105141 55.9348 0.0168618 56.7888C0.0656632 57.1792 0.285269 57.5452 0.480474 57.9112C1.62731 60.0097 2.28612 62.3766 2.33492 64.7922V84.752C2.33492 88.0949 5.0434 90.8033 8.38629 90.8033H58.7249C62.0677 90.8033 64.7762 88.0949 64.7762 84.752V63.0354C65.0446 61.2297 65.6059 59.4973 66.4843 57.8868C66.6795 57.5208 66.8991 57.1792 66.9479 56.7644C67.0943 55.9348 66.5331 55.154 65.9719 54.544Z" fill="#00BAE7"/>
</mask>
<g mask="url(#mask0)">
<path opacity="0.15" d="M4.72066 100.511L32.2031 26.9521L30.0316 26.1408L2.5491 99.6996L4.72066 100.511Z" fill="white"/>
<path opacity="0.15" d="M12.4648 106.233L39.9473 32.6738L38.8729 32.2724L11.3905 105.831L12.4648 106.233Z" fill="white"/>
<path opacity="0.15" d="M10.8222 103.591L38.3047 30.0322L33.5958 28.2729L6.11336 101.832L10.8222 103.591Z" fill="white"/>
<path opacity="0.15" d="M43.6425 109.76L71.125 36.2012L66.4161 34.4419L38.9337 108.001L43.6425 109.76Z" fill="white"/>
<path opacity="0.15" d="M37.8359 106.52L65.3184 32.9609L63.1468 32.1496L35.6643 105.708L37.8359 106.52Z" fill="white"/>
<path opacity="0.15" d="M-0.169963 100.422L27.3125 26.8633L22.6036 25.104L-4.87882 98.6628L-0.169963 100.422Z" fill="white"/>
<path opacity="0.15" d="M-5.9766 97.1818L21.5059 23.623L19.3343 22.8117L-8.14816 96.3705L-5.9766 97.1818Z" fill="white"/>
</g>
<path d="M65.9719 9.15821C64.4834 7.49896 62.8486 6.59614 60.9209 4.96129C60.8965 4.93689 60.8721 4.93689 60.8477 4.91249C58.188 2.05762 54.3815 0.276367 50.1602 0.276367H16.9509C12.8516 0.276367 9.11831 1.98441 6.48304 4.69289L1.01729 9.15821C0.456074 9.79263 -0.105141 10.549 0.0168618 11.4031C0.0656632 11.7935 0.285269 12.1595 0.480474 12.5255C1.62731 14.624 2.28612 16.9908 2.33492 19.4065V39.3662C2.33492 42.7091 5.0434 45.4176 8.38629 45.4176H58.7249C62.0677 45.4176 64.7762 42.7091 64.7762 39.3662V17.6496C65.0446 15.844 65.6059 14.1115 66.4843 12.5011C66.6795 12.1351 66.8991 11.7935 66.9479 11.3787C67.0943 10.549 66.5331 9.76823 65.9719 9.15821Z" fill="#00BAE7"/>
<path d="M63.7513 11.5258C61.97 4.03478 51.4045 1.57031 34.6413 1.57031C17.878 1.57031 7.31253 4.03478 5.53128 11.5258C3.75004 19.0168 10.0698 21.8961 10.0698 21.8961C10.0698 21.8961 10.0698 36.2681 9.8014 40.3674C9.53299 44.4667 14.3399 44.8815 14.3399 44.8815H34.6657H54.967C54.967 44.8815 59.774 44.4667 59.5056 40.3674C59.2371 36.2681 59.2371 21.8961 59.2371 21.8961C59.2371 21.8961 65.5325 19.0412 63.7513 11.5258Z" fill="#934114"/>
<path d="M61.7289 11.307C59.9477 3.81603 49.3822 1.35156 32.6189 1.35156C15.8557 1.35156 5.3146 3.79163 3.50895 11.307C1.70331 18.8224 8.04748 21.6773 8.04748 21.6773C8.04748 21.6773 8.04748 36.0493 7.77907 40.1486C7.51066 44.2479 12.3176 44.6627 12.3176 44.6627H32.6433H52.9691C52.9691 44.6627 57.776 44.2479 57.5076 40.1486C57.2392 36.0493 57.2392 21.6773 57.2392 21.6773C57.2392 21.6773 63.5102 18.798 61.7289 11.307Z" fill="#CEA267"/>
<path d="M13.6363 18.2823C14.0945 18.2823 14.4659 17.9109 14.4659 17.4527C14.4659 16.9945 14.0945 16.623 13.6363 16.623C13.1781 16.623 12.8066 16.9945 12.8066 17.4527C12.8066 17.9109 13.1781 18.2823 13.6363 18.2823Z" fill="#A06E27"/>
<path d="M21.4195 15.7208C21.8777 15.7208 22.2491 15.3493 22.2491 14.8911C22.2491 14.433 21.8777 14.0615 21.4195 14.0615C20.9613 14.0615 20.5898 14.433 20.5898 14.8911C20.5898 15.3493 20.9613 15.7208 21.4195 15.7208Z" fill="#A06E27"/>
<path d="M20.7867 8.49811C21.2448 8.49811 21.6163 8.12668 21.6163 7.66849C21.6163 7.2103 21.2448 6.83887 20.7867 6.83887C20.3285 6.83887 19.957 7.2103 19.957 7.66849C19.957 8.12668 20.3285 8.49811 20.7867 8.49811Z" fill="#A06E27"/>
<path d="M19.1499 26.4337C19.6081 26.4337 19.9796 26.0622 19.9796 25.604C19.9796 25.1458 19.6081 24.7744 19.1499 24.7744C18.6917 24.7744 18.3203 25.1458 18.3203 25.604C18.3203 26.0622 18.6917 26.4337 19.1499 26.4337Z" fill="#A06E27"/>
<path d="M33.2574 21.8692C33.7155 21.8692 34.087 21.4978 34.087 21.0396C34.087 20.5814 33.7155 20.21 33.2574 20.21C32.7992 20.21 32.4277 20.5814 32.4277 21.0396C32.4277 21.4978 32.7992 21.8692 33.2574 21.8692Z" fill="#A06E27"/>
<path d="M25.1773 21.0645C25.6355 21.0645 26.0069 20.6931 26.0069 20.2349C26.0069 19.7767 25.6355 19.4053 25.1773 19.4053C24.7191 19.4053 24.3477 19.7767 24.3477 20.2349C24.3477 20.6931 24.7191 21.0645 25.1773 21.0645Z" fill="#A06E27"/>
<path d="M32.4253 11.2549C32.8835 11.2549 33.2549 10.8835 33.2549 10.4253C33.2549 9.96714 32.8835 9.5957 32.4253 9.5957C31.9671 9.5957 31.5957 9.96714 31.5957 10.4253C31.5957 10.8835 31.9671 11.2549 32.4253 11.2549Z" fill="#A06E27"/>
<path d="M50.8218 30.8253C51.28 30.8253 51.6514 30.4538 51.6514 29.9956C51.6514 29.5375 51.28 29.166 50.8218 29.166C50.3636 29.166 49.9922 29.5375 49.9922 29.9956C49.9922 30.4538 50.3636 30.8253 50.8218 30.8253Z" fill="#A06E27"/>
<path d="M43.0132 33.3633C43.4714 33.3633 43.8428 32.9919 43.8428 32.5337C43.8428 32.0755 43.4714 31.7041 43.0132 31.7041C42.555 31.7041 42.1836 32.0755 42.1836 32.5337C42.1836 32.9919 42.555 33.3633 43.0132 33.3633Z" fill="#A06E27"/>
<path d="M43.646 40.587C44.1042 40.587 44.4757 40.2155 44.4757 39.7574C44.4757 39.2992 44.1042 38.9277 43.646 38.9277C43.1878 38.9277 42.8164 39.2992 42.8164 39.7574C42.8164 40.2155 43.1878 40.587 43.646 40.587Z" fill="#A06E27"/>
<path d="M45.2827 22.6514C45.7409 22.6514 46.1124 22.28 46.1124 21.8218C46.1124 21.3636 45.7409 20.9922 45.2827 20.9922C44.8246 20.9922 44.4531 21.3636 44.4531 21.8218C44.4531 22.28 44.8246 22.6514 45.2827 22.6514Z" fill="#A06E27"/>
<path d="M39.4253 16.795C39.8835 16.795 40.2549 16.4236 40.2549 15.9654C40.2549 15.5072 39.8835 15.1357 39.4253 15.1357C38.9671 15.1357 38.5957 15.5072 38.5957 15.9654C38.5957 16.4236 38.9671 16.795 39.4253 16.795Z" fill="#A06E27"/>
<path d="M49.6753 13.379C50.1335 13.379 50.5049 13.0075 50.5049 12.5493C50.5049 12.0912 50.1335 11.7197 49.6753 11.7197C49.2171 11.7197 48.8457 12.0912 48.8457 12.5493C48.8457 13.0075 49.2171 13.379 49.6753 13.379Z" fill="#A06E27"/>
<path d="M49.6753 17.7706C50.1335 17.7706 50.5049 17.3991 50.5049 16.941C50.5049 16.4828 50.1335 16.1113 49.6753 16.1113C49.2171 16.1113 48.8457 16.4828 48.8457 16.941C48.8457 17.3991 49.2171 17.7706 49.6753 17.7706Z" fill="#A06E27"/>
<path d="M43.3316 8.98737C43.7898 8.98737 44.1612 8.61593 44.1612 8.15775C44.1612 7.69956 43.7898 7.32812 43.3316 7.32812C42.8734 7.32812 42.502 7.69956 42.502 8.15775C42.502 8.61593 42.8734 8.98737 43.3316 8.98737Z" fill="#A06E27"/>
<path d="M31.2027 27.2149C31.6609 27.2149 32.0323 26.8435 32.0323 26.3853C32.0323 25.9271 31.6609 25.5557 31.2027 25.5557C30.7445 25.5557 30.373 25.9271 30.373 26.3853C30.373 26.8435 30.7445 27.2149 31.2027 27.2149Z" fill="#A06E27"/>
<path d="M28.2749 34.0469C28.7331 34.0469 29.1046 33.6755 29.1046 33.2173C29.1046 32.7591 28.7331 32.3877 28.2749 32.3877C27.8167 32.3877 27.4453 32.7591 27.4453 33.2173C27.4453 33.6755 27.8167 34.0469 28.2749 34.0469Z" fill="#A06E27"/>
<path d="M14.1226 31.1182C14.5808 31.1182 14.9522 30.7468 14.9522 30.2886C14.9522 29.8304 14.5808 29.459 14.1226 29.459C13.6644 29.459 13.293 29.8304 13.293 30.2886C13.293 30.7468 13.6644 31.1182 14.1226 31.1182Z" fill="#A06E27"/>
<path d="M17.0503 38.9258C17.5085 38.9258 17.8799 38.5544 17.8799 38.0962C17.8799 37.638 17.5085 37.2666 17.0503 37.2666C16.5921 37.2666 16.2207 37.638 16.2207 38.0962C16.2207 38.5544 16.5921 38.9258 17.0503 38.9258Z" fill="#A06E27"/>
<path d="M23.8843 39.9044C24.3425 39.9044 24.7139 39.5329 24.7139 39.0747C24.7139 38.6166 24.3425 38.2451 23.8843 38.2451C23.4261 38.2451 23.0547 38.6166 23.0547 39.0747C23.0547 39.5329 23.4261 39.9044 23.8843 39.9044Z" fill="#A06E27"/>
<path d="M25.1031 30.3868C25.5612 30.3868 25.9327 30.0153 25.9327 29.5572C25.9327 29.099 25.5612 28.7275 25.1031 28.7275C24.6449 28.7275 24.2734 29.099 24.2734 29.5572C24.2734 30.0153 24.6449 30.3868 25.1031 30.3868Z" fill="#A06E27"/>
<path d="M39.2788 28.044C39.737 28.044 40.1085 27.6726 40.1085 27.2144C40.1085 26.7562 39.737 26.3848 39.2788 26.3848C38.8207 26.3848 38.4492 26.7562 38.4492 27.2144C38.4492 27.6726 38.8207 28.044 39.2788 28.044Z" fill="#A06E27"/>
<path d="M32.0074 37.8526C32.4655 37.8526 32.837 37.4812 32.837 37.023C32.837 36.5648 32.4655 36.1934 32.0074 36.1934C31.5492 36.1934 31.1777 36.5648 31.1777 37.023C31.1777 37.4812 31.5492 37.8526 32.0074 37.8526Z" fill="#A06E27"/>
<path d="M32.5924 3.74086C41.0595 3.74086 47.2572 4.39968 51.503 5.71731C55.6267 7.01055 57.8471 8.9138 58.506 11.6955C59.0672 14.1111 58.7256 16.1608 57.4811 17.82C56.6271 18.9425 55.6023 19.5037 55.4315 19.6013L53.8942 20.2357V21.6509C53.8942 22.2366 53.8942 36.1205 54.1626 40.2442C54.2358 41.4155 53.6746 41.7571 53.455 41.8791C53.1378 42.0743 52.7718 42.1719 52.5522 42.2207H32.5436H12.5351C12.3155 42.1719 11.9251 42.0743 11.6323 41.8791C11.4127 41.7571 10.8515 41.4155 10.9247 40.2442C11.1931 36.1205 11.1931 22.2366 11.1931 21.6509V20.2845L9.63142 19.5769C9.63142 19.5769 8.6554 19.0645 7.77697 18.0152C6.41053 16.3316 6.02012 14.2087 6.60574 11.6955C7.26456 8.8894 9.50942 7.01055 13.6087 5.71731C17.9276 4.39968 24.101 3.74086 32.5924 3.74086ZM32.5924 1.3252C15.8536 1.3252 5.2637 3.78966 3.48246 11.2807C1.70121 18.7717 8.02098 21.6509 8.02098 21.6509C8.02098 21.6509 8.02098 36.0229 7.75257 40.1222C7.45976 44.246 12.2667 44.6608 12.2667 44.6608H32.5924H52.9182C52.9182 44.6608 57.7251 44.246 57.4567 40.1466C57.1883 36.0473 57.1883 21.6753 57.1883 21.6753C57.1883 21.6753 63.5081 18.7961 61.7268 11.3051C59.8968 3.78966 49.3313 1.3252 32.5924 1.3252Z" fill="#A06E27"/>
<path opacity="0.15" d="M65.9719 9.15821C64.4834 7.49896 62.8486 6.59614 60.9209 4.96129C60.8965 4.93689 60.8721 4.93689 60.8477 4.91249C58.188 2.05762 54.3815 0.276367 50.1602 0.276367H16.9509C12.8516 0.276367 9.11831 1.98441 6.48304 4.69289L1.01729 9.15821C0.456074 9.79263 -0.105141 10.549 0.0168618 11.4031C0.0656632 11.7935 0.285269 12.1595 0.480474 12.5255C1.62731 14.624 2.28612 16.9908 2.33492 19.4065V39.3662C2.33492 42.7091 5.0434 45.4176 8.38629 45.4176H58.7249C62.0677 45.4176 64.7762 42.7091 64.7762 39.3662V17.6496C65.0446 15.844 65.6059 14.1115 66.4843 12.5011C66.6795 12.1351 66.8991 11.7935 66.9479 11.3787C67.0943 10.549 66.5331 9.76823 65.9719 9.15821Z" fill="white"/>
<path d="M43.5743 16.1123H22.2969C17.4656 16.1123 13.5371 20.0408 13.5371 24.8721V45.3931H52.3342V24.8721C52.3586 20.0408 48.4301 16.1123 43.5743 16.1123Z" fill="#269170"/>
<path d="M43.8658 17.0889H22.0272C17.9279 17.0889 14.6094 20.4074 14.6094 24.5067V45.3936H15.0974V24.5067C15.0974 20.6758 18.1963 17.5769 22.0272 17.5769H43.8902C47.7211 17.5769 50.82 20.6758 50.82 24.5067V45.3936H51.308V24.5067C51.308 20.4318 47.9651 17.0889 43.8658 17.0889Z" fill="#CE9A0B"/>
<path fill-rule="evenodd" clip-rule="evenodd" d="M32.4964 35.1443C28.0555 34.5587 24.5662 34.6319 22.5653 36.0227C22.0041 33.7535 21.7601 31.6794 22.1749 29.947C22.8825 26.8969 24.7858 26.1893 26.5914 26.0917C28.8363 25.9697 32.3744 26.7017 35.2293 27.1165C38.9382 27.6289 42.2567 27.7265 44.5015 26.4333C45.2091 28.3121 45.3311 30.191 45.0139 32.0942C44.6967 34.2903 43.3791 35.4127 41.2806 35.6567C38.5478 35.9983 35.4733 35.5103 32.4964 35.1443Z" fill="white"/>
<path fill-rule="evenodd" clip-rule="evenodd" d="M30.91 27.2393C31.2516 27.2393 31.398 27.5077 31.398 27.7761C31.398 28.0689 31.2272 28.3373 30.91 28.3617C30.5684 28.3617 30.3976 28.1177 30.3976 27.8249C30.3976 27.5321 30.544 27.2393 30.91 27.2393ZM30.91 27.0197C30.422 27.0197 30.1048 27.2881 30.1048 27.7761C30.1048 28.2885 30.3976 28.5569 30.91 28.5569C31.398 28.5569 31.7153 28.2885 31.7153 27.7761C31.7153 27.2881 31.398 27.0197 30.91 27.0197ZM29.1288 27.7273V27.2637C29.324 27.2637 29.5924 27.2149 29.5924 27.4833C29.5924 27.7273 29.324 27.7273 29.1288 27.7273ZM28.8116 28.5325H29.1288V27.9225C29.3728 27.9225 29.69 27.9225 29.8608 27.7029C30.0072 27.4833 29.9584 27.0929 29.4948 27.0685H28.8116V28.5325ZM27.2743 27.0685H27.5427C27.5427 27.2149 27.5427 27.9469 27.5427 28.0689C27.6159 28.3861 28.1772 28.3861 28.2016 28.0445C28.226 27.8493 28.2016 27.2881 28.2016 27.0685H28.47C28.47 27.2637 28.4944 28.0445 28.4456 28.1909C28.348 28.6057 27.7623 28.6301 27.4939 28.5081C27.2499 28.3861 27.2255 28.1909 27.2255 27.9469L27.2743 27.0685ZM26.2739 27.7029V27.2637C26.4935 27.2637 26.7619 27.2149 26.7619 27.4589C26.7619 27.7273 26.4447 27.7029 26.2739 27.7029ZM25.9567 28.5325H26.2739V27.8981H26.4691L26.8107 28.5325H27.1767L26.7863 27.8493C26.9815 27.7761 27.1279 27.6541 27.1279 27.4345C27.1279 27.1417 26.8839 27.0441 26.6399 27.0441H25.9811L25.9567 28.5325ZM25.1515 27.7273V27.9225H25.3955V28.2397C25.1515 28.3373 24.7367 28.3373 24.6391 28.0201C24.5171 27.7029 24.6391 27.2149 25.1027 27.2149C25.2735 27.2149 25.3955 27.2637 25.4687 27.4345L25.6395 27.2149C25.4931 27.0685 25.3467 27.0197 25.1027 27.0197C24.1266 27.0197 24.1266 28.0445 24.5171 28.3373C24.8343 28.5813 25.3223 28.5081 25.6639 28.4105V27.7273H25.1515ZM30.6172 35.3891C27.9332 35.1451 25.3711 35.2671 23.7606 36.5603C23.2482 36.4871 22.7602 36.3895 22.2478 36.3163C21.6378 34.2911 21.4914 32.1682 21.7842 29.9722C22.2234 27.8249 23.3458 25.946 26.0543 25.7752C28.8604 25.6044 32.6669 26.2877 36.449 26.6781C39.1575 26.9709 41.5243 26.7269 43.086 25.5068C43.6716 25.6776 44.2328 25.8484 44.8184 26.0192C45.5504 28.0933 45.5992 30.143 45.2576 32.1682C44.794 35.0231 42.9396 36.0479 40.4507 36.0723C36.9858 36.0967 33.3989 35.6331 30.6172 35.3891ZM32.4961 35.1451C28.0552 34.5595 24.5659 34.6327 22.565 36.0235C22.0038 33.7543 21.7598 31.6802 22.1746 29.9478C22.8822 26.8977 24.7855 26.1901 26.5911 26.0925C28.836 25.9704 32.3741 26.7025 35.229 27.1173C38.9379 27.6297 42.2563 27.7273 44.5012 26.4341C45.2088 28.3129 45.3308 30.1918 45.0136 32.095C44.6964 34.2911 43.3788 35.4135 41.2803 35.6575C38.5474 35.9991 35.473 35.5111 32.4961 35.1451Z" fill="#3D438B"/>
<path fill-rule="evenodd" clip-rule="evenodd" d="M37.3024 32.7294H36.3508V29.9477H37.1316C37.5464 29.9477 37.7172 30.0697 37.7172 30.2893C37.7416 30.6309 37.5464 30.8017 37.2292 30.8017H36.9364L36.5704 31.6069H37.3024C37.644 31.6069 37.9856 31.8509 37.9368 32.1682C37.9124 32.5098 37.644 32.7294 37.3024 32.7294ZM37.4488 33.6322H35.2039V29.0205H37.3512C38.0832 29.0205 38.742 29.2401 38.8396 29.9477C38.9128 30.4601 38.7664 30.8505 38.3516 31.1189C38.9372 31.3873 39.1813 32.095 38.986 32.7538C38.7908 33.4126 38.01 33.6322 37.4488 33.6322ZM41.5481 30.0453C42.2313 30.0453 42.7682 30.6065 42.7682 31.2897C42.7682 31.9729 42.2069 32.5342 41.5481 32.5342C40.8649 32.5342 40.3281 31.9729 40.3281 31.2897C40.3281 30.6065 40.8649 30.0453 41.5481 30.0453ZM41.5481 28.9473C42.817 28.9473 43.8662 29.9965 43.8662 31.2897C43.8662 32.583 42.8414 33.6322 41.5481 33.6322C40.2549 33.6322 39.2301 32.583 39.2301 31.2897C39.2301 29.9965 40.2793 28.9473 41.5481 28.9473ZM34.7647 29.0205V33.6322H33.6423V30.7041L32.9103 33.6322H31.7879L31.0802 30.7529V33.6322H29.9822V29.0205H31.7635L32.3735 31.6069L32.9591 29.0205H34.7647ZM28.3718 29.0205H29.4942V33.6322H28.3718V29.0205ZM26.3221 32.7294H25.3705V29.9477H26.1513C26.5661 29.9477 26.7369 30.0697 26.7369 30.2893C26.7613 30.6309 26.5661 30.8017 26.2489 30.8017H25.9561L25.5901 31.6069H26.3221C26.6637 31.6069 27.0053 31.8509 26.9565 32.1682C26.9321 32.5098 26.6637 32.7294 26.3221 32.7294ZM26.4929 33.6322H24.248V29.0205H26.3953C27.1273 29.0205 27.7861 29.2401 27.8837 29.9477C27.9569 30.4601 27.8105 30.8505 27.3957 31.1189C27.9813 31.3873 28.2254 32.095 28.0302 32.7538C27.8105 33.4126 27.0297 33.6322 26.4929 33.6322Z" fill="#DA243C"/>
<mask id="mask1" mask-type="alpha" maskUnits="userSpaceOnUse" x="0" y="0" width="67" height="46">
<path d="M65.9719 9.15821C64.4834 7.49896 62.8486 6.59614 60.9209 4.96129C60.8965 4.93689 60.8721 4.93689 60.8477 4.91249C58.188 2.05762 54.3815 0.276367 50.1602 0.276367H16.9509C12.8516 0.276367 9.11831 1.98441 6.48304 4.69289L1.01729 9.15821C0.456074 9.79263 -0.105141 10.549 0.0168618 11.4031C0.0656632 11.7935 0.285269 12.1595 0.480474 12.5255C1.62731 14.624 2.28612 16.9908 2.33492 19.4065V39.3662C2.33492 42.7091 5.0434 45.4176 8.38629 45.4176H58.7249C62.0677 45.4176 64.7762 42.7091 64.7762 39.3662V17.6496C65.0446 15.844 65.6059 14.1115 66.4843 12.5011C66.6795 12.1351 66.8991 11.7935 66.9479 11.3787C67.0943 10.549 66.5331 9.76823 65.9719 9.15821Z" fill="#00BAE7"/>
</mask>
<g mask="url(#mask1)">
<path opacity="0.15" d="M4.72066 55.1271L32.2031 -18.4316L30.0316 -19.243L2.5491 54.3158L4.72066 55.1271Z" fill="white"/>
<path opacity="0.15" d="M12.4648 60.8488L39.9473 -12.71L38.8729 -13.1114L11.3905 60.4474L12.4648 60.8488Z" fill="white"/>
<path opacity="0.15" d="M10.8222 58.2072L38.3047 -15.3516L33.5958 -17.1109L6.11336 56.4479L10.8222 58.2072Z" fill="white"/>
<path opacity="0.15" d="M43.6425 64.3762L71.125 -9.18262L66.4161 -10.9419L38.9337 62.6169L43.6425 64.3762Z" fill="white"/>
<path opacity="0.15" d="M37.8359 61.1359L65.3184 -12.4229L63.1468 -13.2342L35.6643 60.3246L37.8359 61.1359Z" fill="white"/>
<path opacity="0.15" d="M-0.169963 55.0373L27.3125 -18.5215L22.6036 -20.2808L-4.87882 53.278L-0.169963 55.0373Z" fill="white"/>
<path opacity="0.15" d="M-5.9766 51.7971L21.5059 -21.7617L19.3343 -22.573L-8.14816 50.9857L-5.9766 51.7971Z" fill="white"/>
</g>
</svg>
