<svg width="69" height="80" viewBox="0 0 69 80" fill="none" xmlns="http://www.w3.org/2000/svg">
<rect y="11.4286" width="68.5714" height="68.5714" rx="18" fill="#6550E2"/>
<rect opacity="0.5" width="68.5714" height="68.5714" rx="18" fill="#FA9128"/>
<rect y="5.71428" width="68.5714" height="68.5714" rx="18" fill="#FA9128"/>
<path d="M32.16 51V44.664H21.216V42.036H31.908V35.7H21.216V33.324H32.16V26.988H13.944V51H32.16ZM44.7133 51.432C51.1573 51.432 55.0813 48.372 55.0813 43.08C55.0813 34.152 41.7253 36.096 41.7253 33.828C41.7253 33.216 42.1213 32.748 43.5613 32.748C45.8293 32.748 48.5293 33.54 50.6173 35.124L54.5053 29.976C51.7693 27.744 48.2413 26.628 44.3173 26.628C37.7293 26.628 34.3453 30.516 34.3453 34.584C34.3453 44.052 47.7373 41.712 47.7373 44.016C47.7373 44.952 46.4413 45.312 45.0733 45.312C41.8333 45.312 39.1333 43.944 37.3333 42.216L33.5533 47.616C36.1093 49.92 39.6013 51.432 44.7133 51.432Z" fill="white"/>
</svg>
