<svg width="69" height="80" viewBox="0 0 69 80" fill="none" xmlns="http://www.w3.org/2000/svg">
<rect y="11.4286" width="68.5714" height="68.5714" rx="18" fill="#6550E2"/>
<rect opacity="0.5" width="68.5714" height="68.5714" rx="18" fill="#FA9128"/>
<rect y="5.71428" width="68.5714" height="68.5714" rx="18" fill="#FA9128"/>
<path d="M20.216 51V42.036H30.908V35.7H20.216V33.324H31.16V26.988H12.944V51H20.216ZM55.7407 51L51.3847 42.504C53.2927 41.568 55.7047 39.372 55.7047 35.232C55.7047 30.732 52.6807 26.988 47.0647 26.988H34.2487V51H41.5207V43.44H44.1487L47.4607 51H55.7407ZM45.9487 37.104H41.5207V33.324H45.9487C47.1727 33.324 48.3247 33.9 48.3247 35.196C48.3247 36.528 47.1727 37.104 45.9487 37.104Z" fill="white"/>
</svg>
