<svg width="72" height="64" viewBox="0 0 72 64" fill="none" xmlns="http://www.w3.org/2000/svg">
<path fill-rule="evenodd" clip-rule="evenodd" d="M0 31.5022C0 30.3089 0.474054 29.1644 1.31787 28.3206C2.16169 27.4768 3.30616 27.0027 4.4995 27.0027H56.6307L37.3098 7.69089C36.8915 7.27254 36.5596 6.7759 36.3332 6.2293C36.1068 5.68271 35.9903 5.09687 35.9903 4.50524C35.9903 3.91361 36.1068 3.32778 36.3332 2.78118C36.5596 2.23459 36.8915 1.73794 37.3098 1.3196C37.7282 0.901253 38.2248 0.569405 38.7714 0.342995C39.318 0.116589 39.9038 6.48499e-05 40.4955 6.48499e-05C41.0871 6.48499e-05 41.6729 0.116589 42.2195 0.342995C42.7661 0.569405 43.2628 0.901253 43.6811 1.3196L70.6781 28.3166C71.0971 28.7345 71.4296 29.2311 71.6564 29.7777C71.8832 30.3244 72 30.9104 72 31.5022C72 32.0941 71.8832 32.6801 71.6564 33.2267C71.4296 33.7734 71.0971 34.2699 70.6781 34.6879L43.6811 61.6849C43.2628 62.1032 42.7661 62.4351 42.2195 62.6615C41.6729 62.8879 41.0871 63.0044 40.4955 63.0044C39.9038 63.0044 39.318 62.8879 38.7714 62.6615C38.2248 62.4351 37.7282 62.1032 37.3098 61.6849C36.4649 60.84 35.9903 59.6941 35.9903 58.4992C35.9903 57.9076 36.1068 57.3217 36.3332 56.7752C36.5596 56.2286 36.8915 55.7319 37.3098 55.3136L56.6307 36.0017H4.4995C3.30616 36.0017 2.16169 35.5277 1.31787 34.6839C0.474054 33.84 0 32.6956 0 31.5022Z" fill="white"/>
</svg>
