<svg width="50" height="50" viewBox="0 0 50 50" fill="none" xmlns="http://www.w3.org/2000/svg">
<path d="M4.19954 38.4999C6.59954 36.3999 9.39954 34.8999 12.4995 34.1999C14.1995 33.6999 15.7995 32.9999 17.3995 32.1999C18.2995 31.6999 19.1995 31.0999 20.0995 30.4999C19.4995 30.6999 18.7995 30.7999 18.0995 30.7999H17.8995C15.9995 30.7999 14.3995 29.2999 14.2995 27.2999C14.2995 27.1999 14.2995 27.0999 14.2995 26.9999C14.4995 24.6999 15.4995 22.5999 17.0995 21.0999C20.2995 17.7999 25.0995 16.5999 29.3995 18.1999C29.3995 18.1999 29.3995 18.1999 29.3995 18.0999C30.5995 15.9999 31.4995 13.7999 32.0995 11.4999C32.7995 8.29995 34.1995 5.29995 36.1995 2.69995C37.5995 0.699946 40.1995 -5.3823e-05 42.4995 0.899946C47.3995 3.39995 46.1995 12.0999 45.6995 14.8999C45.0995 18.9999 43.9995 22.8999 42.5995 26.7999C43.6995 27.5999 44.6995 28.5999 45.3995 29.6999C48.1995 34.3999 48.0995 40.1999 44.9995 44.6999C43.5995 46.9999 41.3995 48.5999 38.7995 49.2999C38.3995 49.3999 38.0995 49.3999 37.6995 49.3999C36.8995 49.3999 36.0995 49.1999 35.3995 48.6999C34.5995 48.0999 33.9995 47.1999 33.7995 46.1999C33.3995 43.8999 33.7995 41.5999 34.9995 39.5999C32.3995 41.9999 29.4995 44.0999 26.3995 45.7999C22.3995 48.0999 17.8995 49.2999 13.2995 49.3999C12.8995 49.3999 12.4995 49.3999 11.9995 49.3999C10.0995 49.2999 8.19954 48.8999 6.49954 47.9999C4.49954 47.0999 2.99954 45.1999 2.49954 42.9999C2.29954 41.3999 2.89954 39.5999 4.19954 38.4999ZM28.3995 20.6999C25.0995 19.5999 21.4995 20.4999 19.0995 22.9999C17.9995 24.0999 17.1995 25.4999 17.0995 27.0999C16.9995 27.4999 17.1995 27.8999 17.6995 28.0999C17.7995 28.0999 17.8995 28.0999 17.9995 28.0999C19.4995 27.8999 20.8995 27.1999 21.9995 26.1999C23.4995 24.7999 25.3995 23.8999 27.4995 23.6999C27.5995 23.6999 27.6995 23.6999 27.7995 23.6999C29.1995 23.7999 30.4995 24.2999 31.4995 25.1999C31.6995 25.3999 31.9995 25.6999 32.1995 25.9999L32.3995 26.1999C32.2995 23.7999 30.6995 21.5999 28.3995 20.6999ZM42.9995 14.4999C44.1995 6.59995 42.6995 4.09995 41.2995 3.39995C40.4995 2.99995 39.1995 3.69995 38.3995 4.59995C36.6995 6.89995 35.3995 9.49995 34.7995 12.2999C34.1995 14.7999 33.0995 17.2999 31.7995 19.5999C32.8995 20.4999 33.6995 21.5999 34.2995 22.7999C34.5995 23.5999 34.8995 24.2999 34.9995 25.1999C36.2995 24.9999 37.6995 24.9999 38.9995 25.2999C39.3995 25.3999 39.7995 25.4999 40.0995 25.5999C41.3995 21.8999 42.3995 18.2999 42.9995 14.4999ZM36.5995 45.5999C36.6995 45.9999 36.7995 46.2999 37.0995 46.4999C37.4995 46.6999 37.8995 46.6999 38.2995 46.5999C40.1995 45.9999 41.7995 44.7999 42.7995 43.0999C45.1995 39.5999 45.2995 34.9999 43.1995 31.1999C42.0995 29.4999 40.3995 28.2999 38.3995 27.8999C37.8995 27.7999 37.3995 27.6999 36.8995 27.6999C36.1995 27.6999 35.4995 27.7999 34.7995 27.9999C35.0995 28.1999 35.4995 28.3999 35.6995 28.4999C36.0995 28.6999 36.3995 28.7999 36.6995 29.0999C37.9995 29.9999 38.8995 31.3999 39.2995 32.8999C39.6995 35.3999 39.1995 37.9999 37.7995 40.1999C36.7995 41.7999 36.2995 43.6999 36.5995 45.5999ZM7.89954 45.5999C9.29954 46.2999 10.7995 46.5999 12.2995 46.6999C16.7995 46.8999 21.1995 45.6999 25.0995 43.4999C29.4995 41.0999 33.3995 37.7999 36.5995 33.8999C36.5995 33.7999 36.5995 33.7999 36.5995 33.6999C36.3995 32.7999 35.7995 31.9999 34.9995 31.3999C34.7995 31.2999 34.5995 31.1999 34.3995 31.0999C33.8995 30.8999 33.4995 30.6999 33.0995 30.3999C30.1995 34.3999 26.5995 37.7999 22.3995 40.4999C18.3995 42.8999 13.7995 44.2999 9.09954 44.5999C8.59954 44.5999 8.19954 44.5999 7.69954 44.5999C7.19954 44.5999 6.69954 44.5999 6.29954 44.5999C6.79954 44.8999 7.29954 45.2999 7.89954 45.5999ZM9.09954 41.6999C13.2995 41.3999 17.3995 40.0999 21.0995 37.9999C24.8995 35.4999 28.1995 32.3999 30.8995 28.7999C30.5995 28.4999 30.2995 28.0999 29.9995 27.6999C29.8995 27.5999 29.7995 27.3999 29.6995 27.2999C29.2995 26.8999 28.6995 26.6999 28.1995 26.4999C25.6995 29.7999 22.4995 32.5999 18.7995 34.5999C17.0995 35.4999 15.2995 36.1999 13.3995 36.7999C10.7995 37.3999 8.29954 38.6999 6.19954 40.3999C5.89954 40.6999 5.59954 41.0999 5.39954 41.5999C6.59954 41.6999 7.89954 41.7999 9.09954 41.6999Z" fill="#866EEA"/>
</svg>
