<svg width="48" height="48" viewBox="0 0 48 48" fill="none" xmlns="http://www.w3.org/2000/svg">
<path d="M24 0C9.644 0 0 8.86 0 17.136C0 20.028 1.55 22.384 4 23.426V40C4 44.412 7.588 48 12 48H36C40.412 48 44 44.412 44 40V23.426C46.45 22.384 48 20.028 48 17.136C48 8.86 38.356 0 24 0ZM24 4C36.876 4 44 11.766 44 17.136C44 18.672 43.134 19.726 41.688 19.954L40 20.22V40C40 42.206 38.206 44 36 44H12C9.794 44 8 42.206 8 40V20.222L6.312 19.958C4.866 19.728 4 18.672 4 17.138C4 11.764 11.124 4 24 4Z" fill="white"/>
</svg>
