<svg width="103" height="96" viewBox="0 0 103 96" fill="none" xmlns="http://www.w3.org/2000/svg">
<g style="mix-blend-mode:multiply">
<path fill-rule="evenodd" clip-rule="evenodd" d="M16 13.7139C7.16344 13.7139 0 20.8773 0 29.7139V79.9996C0 88.8361 7.16344 95.9996 16 95.9996L36 95.9996H102.857V79.9996V29.7139V13.7139H86.8985C86.8847 13.7139 86.8709 13.7139 86.8571 13.7139H16Z" fill="#D1E1EE"/>
</g>
<path opacity="0.5" fill-rule="evenodd" clip-rule="evenodd" d="M16 0C7.16344 0 0 7.16346 0 16V66.2857C0 75.1223 7.16344 82.2857 16 82.2857H36H86.8571H102.857V66.2857V16V0H86.8571H36H16Z" fill="#FCB527"/>
<path fill-rule="evenodd" clip-rule="evenodd" d="M102.857 6.85742H36V6.85746H16C7.16344 6.85746 0 14.0209 0 22.8575V73.1432C0 81.9797 7.16344 89.1432 16 89.1432H86.8571C86.8689 89.1432 86.8807 89.1432 86.8925 89.1431H102.857V73.1432V22.8575V6.85742Z" fill="#FCB527"/>
<path d="M61.8917 22.225C61.075 21.4083 60.0542 21 59.0333 21H32.0833C29.8375 21 28 22.8375 28 25.0833V65.9167C28 68.1625 29.8375 70 32.0833 70H72.9167C75.1625 70 77 68.1625 77 65.9167V38.9667C77 37.9458 76.5917 36.925 75.775 36.1083L61.8917 22.225ZM42.2917 65.9167V49.5833H62.7083V65.9167H42.2917ZM72.9167 65.9167H66.7917V49.5833C66.7917 47.3375 64.9542 45.5 62.7083 45.5H42.2917C40.0458 45.5 38.2083 47.3375 38.2083 49.5833V65.9167H32.0833V25.0833H59.0333L72.9167 38.9667V65.9167Z" fill="white"/>
<path d="M58.6247 55.708H46.3747C45.1497 55.708 44.333 56.5247 44.333 57.7497C44.333 58.9747 45.1497 59.7913 46.3747 59.7913H58.6247C59.8497 59.7913 60.6663 58.9747 60.6663 57.7497C60.6663 56.5247 59.8497 55.708 58.6247 55.708Z" fill="white"/>
<path d="M44.333 27.125C40.8622 27.125 38.208 29.7792 38.208 33.25C38.208 36.7208 40.8622 39.375 44.333 39.375C47.8038 39.375 50.458 36.7208 50.458 33.25C50.458 29.7792 47.8038 27.125 44.333 27.125ZM44.333 35.2917C43.108 35.2917 42.2913 34.475 42.2913 33.25C42.2913 32.025 43.108 31.2083 44.333 31.2083C45.558 31.2083 46.3747 32.025 46.3747 33.25C46.3747 34.475 45.558 35.2917 44.333 35.2917Z" fill="white"/>
</svg>
