<?xml version="1.0" encoding="utf-8"?>
<!-- Generator: Adobe Illustrator 24.1.2, SVG Export Plug-In . SVG Version: 6.00 Build 0)  -->
<svg version="1.1" id="Capa_1" xmlns="http://www.w3.org/2000/svg" xmlns:xlink="http://www.w3.org/1999/xlink" x="0px" y="0px"
	 viewBox="0 0 103 96" style="enable-background:new 0 0 103 96;" xml:space="preserve">
<style type="text/css">
	.st0{fill-rule:evenodd;clip-rule:evenodd;fill:#6550E2;}
	.st1{opacity:0.5;fill-rule:evenodd;clip-rule:evenodd;fill:#FCB527;enable-background:new    ;}
	.st2{fill-rule:evenodd;clip-rule:evenodd;fill:#FCB527;}
	.st3{fill:#FFFFFF;}
</style>
<g>
	<path class="st0" d="M16,13.7c-8.8,0-16,7.2-16,16V80c0,8.8,7.2,16,16,16l20,0h66.9V80V29.7v-16h-16c0,0,0,0,0,0H16z"/>
</g>
<path class="st1" d="M16,0C7.2,0,0,7.2,0,16v50.3c0,8.8,7.2,16,16,16h20h50.9h16v-16V16V0h-16H36H16z"/>
<path class="st2" d="M102.9,6.9H36v0H16c-8.8,0-16,7.2-16,16v50.3c0,8.8,7.2,16,16,16h70.9c0,0,0,0,0,0h16v-16V22.9V6.9z"/>
<path class="st3" d="M48.8,56.3l7-2c-0.6-0.6-1.2-1.7-1.2-2.7c0-5.4,10.7-6.1,10.7-15.4c0-6-5.1-10.1-13.3-10.1
	c-5.5,0-10.6,2.2-14,6.2l5.2,5.8c2-2.4,4.7-4,7.9-4c3.5,0,5,1.7,5,3.6c0,4.4-9.3,5.3-9.3,12.9C46.7,52.9,47.5,54.8,48.8,56.3z
	 M51.9,70c2.8,0,5.2-2.4,5.2-5.2c0-2.8-2.4-5.2-5.2-5.2c-2.8,0-5.2,2.4-5.2,5.2C46.7,67.7,49.1,70,51.9,70z"/>
</svg>
