<svg width="96" height="96" viewBox="0 0 96 96" fill="none" xmlns="http://www.w3.org/2000/svg">
<g clip-path="url(#clip0)">
<g style="mix-blend-mode:multiply">
<circle cx="48.2731" cy="57.727" r="38.2731" fill="#D1E1EE"/>
</g>
<circle opacity="0.5" cx="48.2731" cy="38.2731" r="38.2731" fill="#FCB527"/>
<circle cx="48.2731" cy="47.9999" r="38.2731" fill="#FCB527"/>
</g>
<path d="M57.8993 36.3018C56.9202 35.6037 55.867 35.0163 54.7586 34.5499L53.5059 37.5383C54.3914 37.9115 55.2333 38.3811 56.0162 38.9385L57.8993 36.3018Z" fill="white"/>
<path d="M62.6625 41.6187C62.0775 40.5721 61.3779 39.5938 60.5768 38.7017L58.1621 40.8635C58.8032 41.5805 59.3635 42.3658 59.8329 43.2053L62.6625 41.6187Z" fill="white"/>
<path d="M60.943 45.8442C62.9515 52.7058 59.0173 59.8963 52.1557 61.9047C45.2941 63.9132 38.1035 59.979 36.0951 53.1174C34.0867 46.2558 38.0209 39.0652 44.8825 37.0568C46.7888 36.4988 48.7979 36.387 50.7544 36.73L51.3135 33.5358C50.3843 33.3755 49.4431 33.2947 48.5001 33.2943C39.5597 33.3059 32.3215 40.5629 32.333 49.5034C32.3446 58.4439 39.6016 65.682 48.5421 65.6705C57.4825 65.6589 64.7207 58.4019 64.7092 49.4614C64.7072 47.93 64.4879 46.4065 64.0578 44.9366L60.943 45.8442Z" fill="white"/>
<path d="M74 49.5L69.848 43.7793L70.5854 36.7492L64.129 33.871L61.2508 27.4146L54.2207 28.152L48.5 24L42.7793 28.152L35.7492 27.4146L32.871 33.871L26.4146 36.7492L27.152 43.7793L23 49.5L27.152 55.2207L26.4146 62.2508L32.871 65.129L35.7492 71.5854L42.7793 70.848L48.5 75L54.2207 70.848L61.2508 71.5854L64.129 65.129L70.5854 62.2508L69.848 55.2207L74 49.5ZM61.6722 62.6722L59.2413 68.1157L53.3229 67.4886L48.5 70.9971L43.6771 67.4886L37.7522 68.1092L35.3214 62.6657L29.8778 60.2348L30.5114 54.3229L27.0029 49.5L30.5114 44.6771L29.8843 38.7522L35.3278 36.3214L37.7587 30.8778L43.6836 31.4985L48.5 28.0029L53.3229 31.5114L59.2478 30.8908L61.6786 36.3343L67.1222 38.7652L66.4886 44.6771L69.9971 49.5L66.4886 54.3229L67.1092 60.2478L61.6722 62.6722Z" fill="white"/>
<path d="M41.5425 48.354L39.251 50.6455L45.2585 56.653L56.1278 45.7837L53.8363 43.4922L45.2585 52.07L41.5425 48.354Z" fill="white"/>
<defs>
<clipPath id="clip0">
<rect width="96" height="96" fill="white"/>
</clipPath>
</defs>
</svg>
