<svg width="103" height="96" viewBox="0 0 103 96" fill="none" xmlns="http://www.w3.org/2000/svg">
<g style="mix-blend-mode:multiply">
<path fill-rule="evenodd" clip-rule="evenodd" d="M16 13.7143C7.16344 13.7143 0 20.8778 0 29.7143V80C0 88.8366 7.16344 96 16 96L36 96.0001H102.857V80V29.7143V13.7143H86.8985C86.8847 13.7143 86.8709 13.7143 86.8571 13.7143H16Z" fill="#6550E2"/>
</g>
<path opacity="0.5" fill-rule="evenodd" clip-rule="evenodd" d="M16 0C7.16344 0 0 7.16346 0 16V66.2857C0 75.1223 7.16344 82.2857 16 82.2857H36H86.8571H102.857V66.2857V16V0H86.8571H36H16Z" fill="#FA9128"/>
<path fill-rule="evenodd" clip-rule="evenodd" d="M102.857 6.85714H36V6.85718H16C7.16344 6.85718 0 14.0206 0 22.8572V73.1429C0 81.9794 7.16344 89.1429 16 89.1429H86.8571C86.8689 89.1429 86.8807 89.1429 86.8925 89.1429H102.857V73.1429V22.8572V6.85714Z" fill="#FA9128"/>
<path d="M48.816 56.272L55.792 54.224C55.152 53.648 54.64 52.56 54.64 51.536C54.64 46.16 65.328 45.456 65.328 36.112C65.328 30.16 60.272 26 52.016 26C46.512 26 41.392 28.24 38 32.208L43.184 38.032C45.168 35.664 47.856 34.064 51.056 34.064C54.576 34.064 56.048 35.728 56.048 37.712C56.048 42.128 46.704 43.024 46.704 50.64C46.704 52.88 47.472 54.8 48.816 56.272ZM51.888 70.032C54.704 70.032 57.072 67.664 57.072 64.848C57.072 62.032 54.704 59.664 51.888 59.664C49.072 59.664 46.704 62.032 46.704 64.848C46.704 67.664 49.072 70.032 51.888 70.032Z" fill="white"/>
</svg>
