<svg width="103" height="96" viewBox="0 0 103 96" fill="none" xmlns="http://www.w3.org/2000/svg">
<g style="mix-blend-mode:multiply">
<path fill-rule="evenodd" clip-rule="evenodd" d="M16 13.7143C7.16344 13.7143 0 20.8778 0 29.7143V80C0 88.8366 7.16344 96 16 96L36 96.0001H102.857V80V29.7143V13.7143H86.8985C86.8847 13.7143 86.8709 13.7143 86.8571 13.7143H16Z" fill="#6550E2"/>
</g>
<path opacity="0.5" fill-rule="evenodd" clip-rule="evenodd" d="M16 0C7.16344 0 0 7.16346 0 16V66.2857C0 75.1223 7.16344 82.2857 16 82.2857H36H86.8571H102.857V66.2857V16V0H86.8571H36H16Z" fill="#FA9128"/>
<path fill-rule="evenodd" clip-rule="evenodd" d="M102.857 6.85708H36V6.85712H16C7.16344 6.85712 0 14.0206 0 22.8571V73.1428C0 81.9794 7.16344 89.1428 16 89.1428H86.8571C86.8689 89.1428 86.8807 89.1428 86.8925 89.1428H102.857V73.1428V22.8571V6.85708Z" fill="#FA9128"/>
<path d="M61.8917 22.225C61.075 21.4083 60.0542 21 59.0333 21H32.0833C29.8375 21 28 22.8375 28 25.0833V65.9167C28 68.1625 29.8375 70 32.0833 70H72.9167C75.1625 70 77 68.1625 77 65.9167V38.9667C77 37.9458 76.5917 36.925 75.775 36.1083L61.8917 22.225ZM42.2917 65.9167V49.5833H62.7083V65.9167H42.2917ZM72.9167 65.9167H66.7917V49.5833C66.7917 47.3375 64.9542 45.5 62.7083 45.5H42.2917C40.0458 45.5 38.2083 47.3375 38.2083 49.5833V65.9167H32.0833V25.0833H59.0333L72.9167 38.9667V65.9167Z" fill="white"/>
<path d="M58.625 55.7084H46.375C45.15 55.7084 44.3334 56.525 44.3334 57.75C44.3334 58.975 45.15 59.7917 46.375 59.7917H58.625C59.85 59.7917 60.6667 58.975 60.6667 57.75C60.6667 56.525 59.85 55.7084 58.625 55.7084Z" fill="white"/>
<path d="M44.3334 27.125C40.8625 27.125 38.2084 29.7792 38.2084 33.25C38.2084 36.7208 40.8625 39.375 44.3334 39.375C47.8042 39.375 50.4584 36.7208 50.4584 33.25C50.4584 29.7792 47.8042 27.125 44.3334 27.125ZM44.3334 35.2917C43.1084 35.2917 42.2917 34.475 42.2917 33.25C42.2917 32.025 43.1084 31.2083 44.3334 31.2083C45.5584 31.2083 46.375 32.025 46.375 33.25C46.375 34.475 45.5584 35.2917 44.3334 35.2917Z" fill="white"/>
</svg>
