<svg width="103" height="96" viewBox="0 0 103 96" fill="none" xmlns="http://www.w3.org/2000/svg">
<g style="mix-blend-mode:multiply">
<path fill-rule="evenodd" clip-rule="evenodd" d="M16 13.7139C7.16344 13.7139 0 20.8773 0 29.7139V79.9996C0 88.8361 7.16344 95.9996 16 95.9996L36 95.9996H102.857V79.9996V29.7139V13.7139H86.8985C86.8847 13.7139 86.8709 13.7139 86.8571 13.7139H16Z" fill="#D1E1EE"/>
</g>
<path opacity="0.5" fill-rule="evenodd" clip-rule="evenodd" d="M16 0C7.16344 0 0 7.16346 0 16V66.2857C0 75.1223 7.16344 82.2857 16 82.2857H36H86.8571H102.857V66.2857V16V0H86.8571H36H16Z" fill="#9AC906"/>
<path fill-rule="evenodd" clip-rule="evenodd" d="M102.857 6.85742H36V6.85746H16C7.16344 6.85746 0 14.0209 0 22.8575V73.1432C0 81.9797 7.16344 89.1432 16 89.1432H86.8571C86.8689 89.1432 86.8807 89.1432 86.8925 89.1431H102.857V73.1432V22.8575V6.85742Z" fill="#9AC906"/>
<path d="M50.9496 39.3058C52.8629 39.3058 54.4139 37.7512 54.4139 35.8336C54.4139 33.9159 52.8629 32.3613 50.9496 32.3613C49.0364 32.3613 47.4854 33.9159 47.4854 35.8336C47.4854 37.7512 49.0364 39.3058 50.9496 39.3058Z" fill="white"/>
<path d="M53.8319 45.3469V56.7913C53.8319 57.5575 53.5282 58.2923 52.9877 58.8341C52.4472 59.3759 51.7141 59.6802 50.9496 59.6802C50.1852 59.6802 49.4521 59.3759 48.9116 58.8341C48.371 58.2923 48.0674 57.5575 48.0674 56.7913V45.3469C48.0674 44.5807 48.371 43.8459 48.9116 43.3041C49.4521 42.7624 50.1852 42.458 50.9496 42.458C51.7141 42.458 52.4472 42.7624 52.9877 43.3041C53.5282 43.8459 53.8319 44.5807 53.8319 45.3469Z" fill="white"/>
<path d="M50.9495 21C37.1745 21 26.0068 32.1933 26.0068 46C26.0068 59.8067 37.1745 71 50.9495 71C64.7245 71 75.8922 59.8067 75.8922 46C75.8922 32.1933 64.7245 21 50.9495 21ZM65.4506 60.5344C63.5522 62.4699 61.2902 64.0094 58.7951 65.0641C56.3 66.1188 53.6212 66.6677 50.9133 66.6793C48.2054 66.6909 45.522 66.1648 43.018 65.1315C40.514 64.0982 38.239 62.5781 36.3242 60.6589C34.4094 58.7397 32.8928 56.4594 31.8619 53.9497C30.8309 51.4399 30.3061 48.7504 30.3176 46.0363C30.3292 43.3222 30.8769 40.6372 31.9291 38.1364C32.9814 35.6355 34.5173 33.3683 36.4484 31.4656C38.3468 29.5301 40.6088 27.9906 43.1039 26.9359C45.599 25.8812 48.2778 25.3323 50.9857 25.3207C53.6936 25.3091 56.377 25.8352 58.881 26.8685C61.3849 27.9018 63.66 29.4219 65.5748 31.3411C67.4896 33.2603 69.0062 35.5406 70.0371 38.0503C71.0681 40.5601 71.5929 43.2496 71.5814 45.9637C71.5698 48.6778 71.0221 51.3628 69.9699 53.8636C68.9176 56.3645 67.3816 58.6317 65.4506 60.5344Z" fill="white"/>
<path d="M50.9495 21C37.1745 21 26.0068 32.1933 26.0068 46C26.0068 59.8067 37.1745 71 50.9495 71C64.7245 71 75.8922 59.8067 75.8922 46C75.8922 32.1933 64.7245 21 50.9495 21ZM65.4506 60.5344C63.5522 62.4699 61.2902 64.0094 58.7951 65.0641C56.3 66.1188 53.6212 66.6677 50.9133 66.6793C48.2054 66.6909 45.522 66.1648 43.018 65.1315C40.514 64.0982 38.239 62.5781 36.3242 60.6589C34.4094 58.7397 32.8928 56.4594 31.8619 53.9497C30.8309 51.4399 30.3061 48.7504 30.3176 46.0363C30.3292 43.3222 30.8769 40.6372 31.9291 38.1364C32.9814 35.6355 34.5173 33.3683 36.4484 31.4656C38.3468 29.5301 40.6088 27.9906 43.1039 26.9359C45.599 25.8812 48.2778 25.3323 50.9857 25.3207C53.6936 25.3091 56.377 25.8352 58.881 26.8685C61.3849 27.9018 63.66 29.4219 65.5748 31.3411C67.4896 33.2603 69.0062 35.5406 70.0371 38.0503C71.0681 40.5601 71.5929 43.2496 71.5814 45.9637C71.5698 48.6778 71.0221 51.3628 69.9699 53.8636C68.9176 56.3645 67.3816 58.6317 65.4506 60.5344Z" fill="white"/>
</svg>
