<svg width="103" height="96" viewBox="0 0 103 96" fill="none" xmlns="http://www.w3.org/2000/svg">
<g style="mix-blend-mode:multiply">
<path fill-rule="evenodd" clip-rule="evenodd" d="M16 13.7143C7.16344 13.7143 0 20.8778 0 29.7143V80C0 88.8366 7.16344 96 16 96L36 96.0001H102.857V80V29.7143V13.7143H86.8985C86.8847 13.7143 86.8709 13.7143 86.8571 13.7143H16Z" fill="#6550E2"/>
</g>
<path opacity="0.5" fill-rule="evenodd" clip-rule="evenodd" d="M16 0C7.16344 0 0 7.16346 0 16V66.2857C0 75.1223 7.16344 82.2857 16 82.2857H36H86.8571H102.857V66.2857V16V0H86.8571H36H16Z" fill="#FA9128"/>
<path fill-rule="evenodd" clip-rule="evenodd" d="M102.857 6.85708H36V6.85712H16C7.16344 6.85712 0 14.0206 0 22.8571V73.1428C0 81.9794 7.16344 89.1428 16 89.1428H86.8571C86.8689 89.1428 86.8807 89.1428 86.8925 89.1428H102.857V73.1428V22.8571V6.85708Z" fill="#FA9128"/>
<path d="M72.5906 62.402H67.7916V55.2035C67.7916 54.5671 67.5388 53.9567 67.0888 53.5067C66.6388 53.0567 66.0285 52.8039 65.3921 52.8039H53.3946V46.3013L56.106 47.717C56.5014 47.9238 56.9467 48.0163 57.3918 47.984C57.8369 47.9518 58.2641 47.796 58.6256 47.5343C58.987 47.2726 59.2683 46.9152 59.4379 46.5024C59.6074 46.0896 59.6585 45.6377 59.5853 45.1975L58.6255 39.5107L62.7527 35.4555C63.0652 35.1503 63.2886 34.7654 63.3985 34.3426C63.5085 33.9197 63.5009 33.4749 63.3765 33.056C63.2375 32.6295 62.9816 32.2506 62.6381 31.9622C62.2945 31.6738 61.877 31.4875 61.4329 31.4243L55.7941 30.5365L53.1546 25.3536C52.9581 24.9479 52.6514 24.6058 52.2694 24.3664C51.8875 24.127 51.4458 24 50.9951 24C50.5443 24 50.1027 24.127 49.7207 24.3664C49.3388 24.6058 49.032 24.9479 48.8355 25.3536L46.1961 30.5365L40.4612 31.3763C40.0171 31.4395 39.5996 31.6258 39.2561 31.9142C38.9125 32.2026 38.6567 32.5816 38.5176 33.008C38.3933 33.4269 38.3857 33.8717 38.4957 34.2946C38.6056 34.7174 38.8289 35.1023 39.1415 35.4075L43.3646 39.5107L42.4048 45.1975C42.3317 45.6377 42.3827 46.0896 42.5523 46.5024C42.7218 46.9152 43.0031 47.2726 43.3646 47.5343C43.726 47.796 44.1533 47.9518 44.5983 47.984C45.0434 48.0163 45.4887 47.9238 45.8841 47.717L48.5956 46.3013V52.8039H36.598C35.9616 52.8039 35.3513 53.0567 34.9013 53.5067C34.4513 53.9567 34.1985 54.5671 34.1985 55.2035V62.402H29.3995C28.7631 62.402 28.1528 62.6548 27.7028 63.1048C27.2528 63.5548 27 64.1651 27 64.8015V69.6005C27 70.2369 27.2528 70.8472 27.7028 71.2972C28.1528 71.7472 28.7631 72 29.3995 72C30.0359 72 30.6462 71.7472 31.0962 71.2972C31.5462 70.8472 31.799 70.2369 31.799 69.6005V67.201H41.397V69.6005C41.397 70.2369 41.6498 70.8472 42.0998 71.2972C42.5498 71.7472 43.1602 72 43.7965 72C44.4329 72 45.0433 71.7472 45.4933 71.2972C45.9433 70.8472 46.1961 70.2369 46.1961 69.6005V64.8015C46.1961 64.1651 45.9433 63.5548 45.4933 63.1048C45.0433 62.6548 44.4329 62.402 43.7965 62.402H38.9975V57.603H62.9926V62.402H58.1936C57.5572 62.402 56.9469 62.6548 56.4969 63.1048C56.0469 63.5548 55.7941 64.1651 55.7941 64.8015V69.6005C55.7941 70.2369 56.0469 70.8472 56.4969 71.2972C56.9469 71.7472 57.5572 72 58.1936 72C58.83 72 59.4403 71.7472 59.8903 71.2972C60.3403 70.8472 60.5931 70.2369 60.5931 69.6005V67.201H70.1911V69.6005C70.1911 70.2369 70.4439 70.8472 70.8939 71.2972C71.3439 71.7472 71.9542 72 72.5906 72C73.227 72 73.8373 71.7472 74.2873 71.2972C74.7373 70.8472 74.9901 70.2369 74.9901 69.6005V64.8015C74.9901 64.1651 74.7373 63.5548 74.2873 63.1048C73.8373 62.6548 73.227 62.402 72.5906 62.402ZM50.9951 39.9186C50.6012 39.9206 50.2139 40.0195 49.8673 40.2065L47.9477 41.2143L48.3076 39.0548C48.3706 38.6728 48.3402 38.2812 48.219 37.9135C48.0978 37.5458 47.8895 37.2129 47.6118 36.9432L46.0521 35.4075L48.2116 35.0956C48.598 35.044 48.966 34.899 49.2837 34.6732C49.6014 34.4475 49.8594 34.1477 50.0353 33.7999L50.9951 31.8323L51.9549 33.7999C52.1307 34.1477 52.3887 34.4475 52.7064 34.6732C53.0242 34.899 53.3921 35.044 53.7785 35.0956L55.9381 35.4075L54.3784 36.9432C54.1006 37.2129 53.8923 37.5458 53.7711 37.9135C53.65 38.2812 53.6196 38.6728 53.6825 39.0548L54.0424 41.2143L52.1228 40.2065C51.7762 40.0195 51.3889 39.9206 50.9951 39.9186Z" fill="white"/>
</svg>
