<svg width="120" height="154" viewBox="0 0 120 154" fill="none" xmlns="http://www.w3.org/2000/svg">
<path opacity="0.3" fill-rule="evenodd" clip-rule="evenodd" d="M16 13C7.16344 13 0 20.1634 0 29V117C0 125.837 7.16344 133 16 133H36.85C37.0907 133.329 37.3596 133.644 37.6569 133.941L54.6274 150.912C57.7516 154.036 62.8169 154.036 65.9411 150.912L82.9117 133.941C83.2089 133.644 83.4779 133.329 83.7185 133H104C112.837 133 120 125.837 120 117V29C120 20.1634 112.837 13 104 13H16Z" fill="#6550E2"/>
<path fill-rule="evenodd" clip-rule="evenodd" d="M16 0C7.16344 0 0 7.16344 0 16V104C0 112.837 7.16344 120 16 120H36.85C37.0907 120.329 37.3596 120.644 37.6569 120.941L54.6274 137.912C57.7516 141.036 62.8169 141.036 65.9411 137.912L82.9117 120.941C83.2089 120.644 83.4779 120.329 83.7185 120H104C112.837 120 120 112.837 120 104V16C120 7.16344 112.837 0 104 0H16Z" fill="#D1E1EE"/>
</svg>
