<svg width="49" height="48" viewBox="0 0 49 48" fill="none" xmlns="http://www.w3.org/2000/svg">
<path d="M47.9981 15.4276C48.106 19.2616 46.7473 22.9924 44.1991 25.8591C41.6509 28.7258 38.1051 30.5126 34.2849 30.855C34.2567 29.6811 34.0247 28.5211 33.5992 27.4267C36.5811 27.12 39.3463 25.7282 41.3691 23.5158C43.3918 21.3035 44.5309 18.4249 44.5698 15.4276C44.5586 12.3356 43.3565 9.36677 41.2133 7.13797C39.0702 4.90917 36.1508 3.59172 33.0616 3.45933C29.9724 3.32694 26.951 4.38978 24.625 6.42705C22.2991 8.46431 20.8474 11.3194 20.5716 14.3991C19.4678 14.0068 18.3131 13.7759 17.1433 13.7134C17.6523 9.96144 19.4879 6.51574 22.3179 4.00023C25.1478 1.48473 28.785 0.0657159 32.5707 0.000138698C34.5991 -0.00848024 36.6091 0.384678 38.4847 1.15693C40.3604 1.92917 42.0645 3.06522 43.4988 4.49951C44.9331 5.9338 46.0691 7.63793 46.8414 9.51356C47.6136 11.3892 48.0068 13.3992 47.9981 15.4276ZM15.4291 17.1417C11.3371 17.1417 7.41261 18.7673 4.51909 21.6608C1.62556 24.5543 0 28.4788 0 32.5709C0 36.6629 1.62556 40.5874 4.51909 43.4809C7.41261 46.3744 11.3371 48 15.4291 48C19.5207 48 23.4448 46.3746 26.338 43.4814C29.2312 40.5882 30.8566 36.6642 30.8566 32.5726C30.8566 28.481 29.2312 24.5569 26.338 21.6637C23.4448 18.7705 19.5207 17.1451 15.4291 17.1451V17.1417Z" fill="#FCB527"/>
</svg>
