<svg width="64" height="64" viewBox="0 0 64 64" fill="none" xmlns="http://www.w3.org/2000/svg">
<g clip-path="url(#clip0)">
<path d="M17.5543 41.89H49.1783C51.1883 41.89 52.6623 40.282 52.6623 38.406V36.932C52.6623 34.922 51.0543 33.448 49.1783 33.448H49.0443L37.3863 10.936C39.6643 9.99805 41.2723 7.58605 41.2723 5.04005V3.56605C41.2723 2.36005 40.3343 1.42205 39.1283 1.42205H37.7883C37.6543 1.42205 37.5203 1.42205 37.5203 1.42205C37.2523 0.484047 36.7163 -0.319953 35.9123 -0.989953L34.8403 -2.06195C34.0363 -2.73195 32.6963 -2.73195 31.8923 -2.06195L30.8203 -0.989953C30.1503 -0.319953 29.6143 0.618047 29.2123 1.42205C29.0783 1.42205 29.0783 1.42205 28.9443 1.42205H27.4703C26.3983 1.42205 25.4603 2.36005 25.4603 3.56605V5.04005C25.4603 7.58605 27.0683 9.86405 29.3463 10.936L17.6883 33.448H17.5543C15.5443 33.448 14.0703 35.056 14.0703 36.932V38.406C13.9363 40.282 15.5443 41.89 17.5543 41.89ZM33.3663 19.646L30.1503 18.44L33.3663 12.142L36.5823 18.44L33.3663 19.646ZM38.8603 23.934C38.4583 23.8 37.9223 23.8 37.3863 23.934L33.3663 25.408L29.3463 23.934C29.0783 23.8 28.8103 23.8 28.6763 23.8C28.4083 23.8 28.1403 23.8 28.0063 23.934L27.3363 24.202L28.1403 22.594L28.6763 22.326L32.6963 23.8C33.0983 23.934 33.6343 23.934 34.1703 23.8L38.1903 22.326L38.8603 22.594L39.6643 24.202L38.8603 23.934ZM24.2543 29.696L28.5423 28.222L32.5623 29.696C32.9643 29.83 33.5003 29.83 34.0363 29.696L38.0563 28.222L42.0763 29.696H42.2103C42.2103 29.696 42.2103 29.696 42.3443 29.696L44.2203 33.314H22.3783L24.2543 29.696Z" fill="#866EEA"/>
<path d="M54.6714 52.6101C54.6714 51.9401 54.5374 51.2701 54.4034 50.6001C54.2694 50.3321 54.2694 50.0641 54.2694 50.0641C54.1354 49.7961 54.0014 49.3941 53.8674 49.1261C52.3934 45.9101 49.3114 43.7661 45.5594 43.3641C41.2714 42.8281 37.2514 44.1681 35.1074 45.5081C34.1694 46.1781 33.6334 46.3121 32.2934 45.3741C28.8094 42.9621 23.8514 42.2921 19.0274 43.4981C16.6154 44.1681 14.3374 46.0441 12.9974 48.3221C12.0594 50.0641 11.7914 51.8061 12.0594 53.6821C12.1934 54.0841 12.3274 54.3521 12.3274 54.4861L12.4614 54.6201C13.5334 57.4341 14.2034 58.3721 14.2034 58.3721C15.8114 60.7841 17.9554 62.3921 20.5014 63.0621C21.5734 63.3301 23.0474 63.5981 24.7894 63.5981C27.7374 63.5981 30.2834 62.6601 32.4274 60.5161C33.2314 59.8461 33.4994 59.5781 34.8394 60.6501C35.9114 61.4541 37.2514 62.2581 38.4574 62.6601C44.2194 64.4021 48.5074 63.3301 52.1254 59.3101C52.3934 59.0421 52.5274 58.7741 52.6614 58.6401C54.4034 56.4961 54.6714 54.2181 54.6714 52.6101ZM39.7974 59.0421C38.9934 58.7741 38.0554 58.2381 37.2514 57.5681C35.5094 56.3621 32.9634 55.0221 29.8814 57.7021C27.7374 59.7121 25.3254 60.1141 21.5734 59.3101C18.7594 58.5061 17.2854 56.4961 15.9454 53.2801C15.6774 52.4761 15.8114 51.4041 16.3474 50.3321C17.1514 48.8581 18.4914 47.7861 19.9654 47.3841C21.3054 46.9821 22.5114 46.8481 23.8514 46.8481C26.2634 46.8481 28.4074 47.3841 30.0154 48.5901C32.4274 50.3321 34.7054 50.4661 37.1174 48.8581C38.3234 48.0541 41.4054 46.8481 45.0234 47.2501C47.4354 47.5181 49.4454 48.8581 50.2494 50.7341C51.0534 52.4761 50.9194 54.6201 49.5794 56.3621C49.4454 56.4961 49.3114 56.6301 49.3114 56.7641C46.7654 59.5781 43.9514 60.2481 39.7974 59.0421Z" fill="#866EEA"/>
<path d="M27.3347 49.26C27.2007 49.26 19.4287 47.384 17.8207 51.002C16.6147 53.682 20.0987 56.362 21.8407 57.3C23.0467 57.97 24.3867 58.372 25.8607 58.372C27.3347 58.372 28.6747 57.97 29.7467 57.166C29.8807 57.166 29.8807 57.032 30.0147 56.898C30.6847 56.228 31.6227 55.29 31.6227 53.682C31.6227 52.878 31.2207 51.94 30.6847 51.27C29.8807 50.466 28.6747 49.662 27.3347 49.26ZM27.6027 53.816C27.6027 53.816 27.4687 53.95 27.3347 54.084C26.3967 54.62 24.9227 54.62 23.8507 53.95C23.1807 53.548 22.5107 53.012 22.1087 52.61C23.3147 52.476 25.3247 52.61 26.1287 52.878C26.7987 53.146 27.3347 53.414 27.6027 53.816C27.6027 53.816 27.4687 53.816 27.6027 53.816Z" fill="#866EEA"/>
<path d="M49.311 50.198C48.909 49.528 48.105 48.59 46.229 48.322C43.415 48.054 38.725 49.394 37.385 51.002L37.251 51.136C36.313 52.476 36.179 53.95 36.983 55.29C38.055 57.166 40.601 58.104 42.477 58.104C42.745 58.104 42.879 58.104 43.013 58.104C45.291 58.104 47.703 56.496 49.043 54.486C49.847 53.012 49.981 51.538 49.311 50.198ZM45.827 52.208C45.827 52.342 45.693 52.342 45.693 52.476C45.157 53.414 43.817 54.218 42.879 54.218C42.745 54.218 42.611 54.218 42.477 54.218C42.075 54.352 40.869 53.816 40.467 53.414C41.137 53.012 43.147 52.208 45.023 52.208C45.425 52.208 45.693 52.208 45.827 52.208Z" fill="#866EEA"/>
</g>
<defs>
<clipPath id="clip0">
<rect width="64" height="64" fill="white"/>
</clipPath>
</defs>
</svg>
