<svg width="22" height="22" viewBox="0 0 22 22" fill="none" xmlns="http://www.w3.org/2000/svg">
<path d="M22 11C22 4.93778 17.0622 0 11 0C4.93778 0 0 4.93778 0 11C0 17.0622 4.93778 22 11 22C17.0622 22 22 17.0622 22 11ZM19.5556 11C19.5556 15.7178 15.7178 19.5556 11 19.5556C6.28222 19.5556 2.44444 15.7178 2.44444 11C2.44444 6.28222 6.28222 2.44444 11 2.44444C15.7178 2.44444 19.5556 6.28222 19.5556 11ZM10.1444 16.1089L17.2822 8.97111C17.7711 8.48222 17.7711 7.72444 17.2822 7.23556C16.7933 6.74667 16.0356 6.74667 15.5467 7.23556L9.28889 13.5178L6.18444 10.4133C5.69556 9.92444 4.93778 9.92444 4.44889 10.4133C3.96 10.9022 3.96 11.66 4.44889 12.1489L8.40889 16.1089C8.65333 16.3533 8.97111 16.4756 9.26445 16.4756C9.55778 16.4756 9.92444 16.3289 10.1444 16.1089Z" fill="white"/>
</svg>
