<svg width="1920" height="820" viewBox="0 0 1920 820" fill="none" xmlns="http://www.w3.org/2000/svg">
<g clip-path="url(#clip0)">
<path d="M1655.42 467.48L1644.18 464.862L1650.64 447.428L1661.88 450.046L1655.42 467.48Z" fill="#00FFFF"/>
<path d="M1878.19 366.674L1892.65 360.575L1895.04 370.601L1880.58 376.7L1878.19 366.674Z" fill="#FCEE21"/>
<path d="M1824.15 496.119L1807.77 505.323L1800.96 499.001L1817.34 489.797L1824.15 496.119Z" fill="#FCEE21"/>
<path d="M1517.13 20.9739L1522.75 22.283L1520.84 25.3882L1517.13 20.9739Z" fill="#FBB03B"/>
<path d="M1660.6 288.754L1660.48 299.379L1659.29 294.366L1656.9 284.34L1660.6 288.754Z" fill="#FBB03B"/>
<path d="M1534.83 61.7894L1525.5 56.0659L1528.01 55.4672L1539.85 60.592L1534.83 61.7894Z" fill="#ED1E79"/>
<path d="M1857.51 368.955L1861.22 373.369L1856.68 387.698L1853.57 385.79L1857.51 368.955Z" fill="#FCEE21"/>
<path d="M1553.82 597.668L1565.53 613.418L1558.6 617.72L1549.99 603.878L1553.82 597.668Z" fill="#FBB03B"/>
<path d="M1568.16 713.456L1558.12 715.851L1547.6 705.114L1557.04 700.213L1568.16 713.456Z" fill="#00FFFF"/>
<path d="M1824.99 533.006L1833.71 536.223L1833 544.341L1823.67 538.618L1824.99 533.006Z" fill="#ED1C24"/>
<path d="M1574.84 639.727L1579.63 651.685L1584.43 649.765L1579.63 637.807L1574.84 639.727Z" fill="#ED1C24"/>
<path d="M1560.87 360.22L1560.27 357.713L1563.98 362.128L1564.58 364.634L1560.87 360.22Z" fill="#ED1E79"/>
<path d="M1838.11 365.637L1841.1 378.17L1836.67 381.873L1833.68 369.341L1838.11 365.637Z" fill="#FBB03B"/>
<path d="M1761.52 55.416L1773.59 39.2911L1783.52 47.5211L1771.44 63.646L1761.52 55.416Z" fill="#FCEE21"/>
<path d="M1654.74 30.5475L1658.56 24.337L1661.67 26.2448L1657.84 32.4553L1654.74 30.5475Z" fill="#00FFFF"/>
<path d="M1475.85 571.227L1473.94 574.333L1469.51 578.037L1471.43 574.931L1475.85 571.227Z" fill="#ED1C24"/>
<path d="M1596.03 685.619L1591.13 676.192L1596.75 677.501L1601.65 686.928L1596.03 685.619Z" fill="#39B54A"/>
<path d="M1433.29 348.257L1434.49 353.27L1428.27 349.455L1427.68 346.948L1433.29 348.257Z" fill="#ED1E79"/>
<path d="M1837.53 474.383L1838.25 466.265L1849.49 468.883L1848.17 474.495L1837.53 474.383Z" fill="#FBB03B"/>
<path d="M1431.74 319.489L1418.59 319.976L1404.96 307.332L1418.11 306.845L1431.74 319.489Z" fill="#00FFFF"/>
<path d="M1569.62 307.803L1554.08 298.264L1564.24 285.244L1579.78 294.783L1569.62 307.803Z" fill="#ED1C24"/>
<path d="M1475.76 25.5436L1476.36 28.0502L1459.86 47.879L1458.66 42.8659L1475.76 25.5436Z" fill="#FBB03B"/>
<path d="M1912 30.1279L1915.11 32.0358L1915.71 34.5423L1912.6 32.6345L1912 30.1279Z" fill="#ED1E79"/>
<path d="M1339.21 31.6105L1343.64 27.9066L1349.26 29.2157L1347.34 32.321L1339.21 31.6105Z" fill="#ED1E79"/>
<path d="M1834.78 440.604L1831.55 449.321L1820.31 446.703L1823.54 437.986L1834.78 440.604Z" fill="#ED1C24"/>
<path d="M1649.23 463.657L1663.82 446.933L1670.63 453.256L1656.05 469.979L1649.23 463.657Z" fill="#39B54A"/>
<path d="M1723.59 85.6533L1728.73 73.8311L1733.63 83.2585L1729.09 97.5873L1723.59 85.6533Z" fill="#ED1E79"/>
<path d="M1489.99 263.215L1480.06 254.985L1496.56 235.156L1506.49 243.386L1489.99 263.215Z" fill="#00FFFF"/>
<path d="M1594.57 256.818L1601.39 263.14L1601.98 265.646L1595.77 261.831L1594.57 256.818Z" fill="#FBB03B"/>
<path d="M1632.24 581.618L1629.73 582.216L1623.04 565.269L1626.14 567.177L1632.24 581.618Z" fill="#ED1C24"/>
<path d="M1574.13 70.9584L1569.71 74.6623L1563.49 70.8466L1567.92 67.1427L1574.13 70.9584Z" fill="#ED1E79"/>
<path d="M1457.94 106.614L1466.79 99.2057L1458.54 109.12L1449.69 116.528L1457.94 106.614Z" fill="#ED1C24"/>
<path d="M1779.29 586.287L1773.08 582.471L1783.12 580.076L1789.34 583.892L1779.29 586.287Z" fill="#FCEE21"/>
<path d="M1758.63 699.826L1760.9 720.477L1747.15 718.457L1745.48 700.313L1758.63 699.826Z" fill="#00FFFF"/>
<path d="M1582.64 484.833L1578.69 501.669L1564.34 497.143L1565.18 478.399L1582.64 484.833Z" fill="#ED1E79"/>
<path d="M1612.74 533.285L1610.83 536.39L1605.81 537.587L1607.12 531.976L1612.74 533.285Z" fill="#FBB03B"/>
<path d="M1810.97 162.831L1812.89 159.726L1820.3 168.555L1815.88 172.259L1810.97 162.831Z" fill="#39B54A"/>
<path d="M1653.76 4.28872L1655.2 -11.9479L1670.74 -2.40873L1669.3 13.8279L1653.76 4.28872Z" fill="#FBB03B"/>
<path d="M1860.03 201.464L1848.79 198.846L1858.35 183.32L1867.08 186.537L1860.03 201.464Z" fill="#FBB03B"/>
<path d="M1599.02 253.107L1597.71 258.719L1585.27 251.088L1586.59 245.476L1599.02 253.107Z" fill="#FBB03B"/>
<path d="M1511.87 -12.2081L1528.84 -18.9055L1536.85 -7.57025L1520.47 1.63374L1511.87 -12.2081Z" fill="#FCEE21"/>
<path d="M1694.08 206.6L1691.57 207.198L1674.24 190.14L1676.75 189.541L1694.08 206.6Z" fill="#00FFFF"/>
<path d="M1856.66 721.485L1853.55 719.577L1860.01 702.143L1862.52 701.544L1856.66 721.485Z" fill="#FCEE21"/>
<path d="M1914.65 463.943L1925.41 453.43L1942.15 467.982L1931.39 478.495L1914.65 463.943Z" fill="#ED1E79"/>
<path d="M1681.49 153.97L1687.71 157.786L1684.48 166.503L1678.27 162.687L1681.49 153.97Z" fill="#ED1E79"/>
<path d="M1711.86 292.429L1730.51 303.876L1728 304.474L1708.75 290.521L1711.86 292.429Z" fill="#ED1E79"/>
<path d="M1636.79 10.9851L1632.37 14.689L1625.55 8.36682L1626.87 2.75506L1636.79 10.9851Z" fill="#ED1C24"/>
<path d="M1667.41 295.08L1661.19 291.265L1662.63 275.028L1668.84 278.844L1667.41 295.08Z" fill="#ED1C24"/>
<path d="M1584.9 616.746L1577.25 629.167L1567.33 620.937L1572.47 609.114L1584.9 616.746Z" fill="#FCEE21"/>
<path d="M1585.64 274.842L1580.62 276.04L1571.41 259.691L1576.44 258.494L1585.64 274.842Z" fill="#ED1E79"/>
<path d="M1829.18 49.8793L1838.15 31.8466L1843.17 30.6492L1833.6 46.1754L1829.18 49.8793Z" fill="#FBB03B"/>
<path d="M1826.63 439.9L1822.32 432.979L1834.4 416.854L1836.79 426.88L1826.63 439.9Z" fill="#39B54A"/>
<path d="M1339.1 42.2356L1339.22 31.6108L1341.73 31.0121L1341.61 41.6369L1339.1 42.2356Z" fill="#00FFFF"/>
<path d="M1684.74 701.551L1677.21 703.348L1672.55 672.67L1680.68 673.381L1684.74 701.551Z" fill="#00FFFF"/>
<path d="M1635.03 114.72L1632.51 115.318L1628.81 110.904L1631.32 110.305L1635.03 114.72Z" fill="#00FFFF"/>
<path d="M1740.58 635.255L1745.12 620.926L1750.14 619.728L1746.2 636.564L1740.58 635.255Z" fill="#FBB03B"/>
<path d="M1827.59 466.159L1826.99 463.653L1828.91 460.548L1832.02 462.455L1827.59 466.159Z" fill="#ED1C24"/>
<path d="M1462.47 259.18L1457.57 249.752L1461.39 243.542L1465.7 250.463L1462.47 259.18Z" fill="#FCEE21"/>
<path d="M1792.34 485.161L1792.22 495.786L1776.56 496.872L1777.27 488.753L1792.34 485.161Z" fill="#FCEE21"/>
<path d="M1853.65 708.958L1872.42 709.78L1868.59 715.99L1846.71 713.26L1853.65 708.958Z" fill="#FBB03B"/>
<path d="M1662.86 253.78L1661.54 259.391L1656.52 260.589L1657.84 254.977L1662.86 253.78Z" fill="#FCEE21"/>
<path d="M1769.01 53.6294L1744.03 48.9916L1745.34 43.3798L1770.33 48.0176L1769.01 53.6294Z" fill="#FBB03B"/>
<path d="M1878.19 644.828L1901.26 652.571L1894.09 678.123L1867.9 668.472L1878.19 644.828Z" fill="#FBB03B"/>
<path d="M1718.48 97.4684L1722.3 91.2579L1723.5 96.271L1719.07 99.9749L1718.48 97.4684Z" fill="#ED1E79"/>
<path d="M1834.67 395.597L1829.77 386.169L1836.1 379.36L1840.41 386.281L1834.67 395.597Z" fill="#00FFFF"/>
<path d="M1575.71 544.766L1573.2 545.364L1571.4 537.845L1573.92 537.246L1575.71 544.766Z" fill="#39B54A"/>
<path d="M1521.55 295.424L1507.08 301.523L1489.03 292.582L1503.5 286.484L1521.55 295.424Z" fill="#FCEE21"/>
<path d="M1541.01 733.175L1544.72 737.589L1537.66 752.517L1533.96 748.102L1541.01 733.175Z" fill="#00FFFF"/>
<path d="M1942.59 536.751L1924.18 559.685L1901.82 543.824L1920.24 520.89L1942.59 536.751Z" fill="#39B54A"/>
<path d="M1546.86 490.716L1541.96 481.288L1553.2 483.907L1556.19 496.439L1546.86 490.716Z" fill="#00FFFF"/>
<path d="M1820.58 -19.5979L1834.81 -4.44701L1827.75 10.4805L1813.53 -4.67045L1820.58 -19.5979Z" fill="#FCEE21"/>
<path d="M1573.29 367.857L1567.07 364.042L1568.98 360.937L1577.71 364.154L1573.29 367.857Z" fill="#FBB03B"/>
<path d="M1893.73 264.952L1896.24 264.354L1899.95 268.768L1894.93 269.965L1893.73 264.952Z" fill="#ED1E79"/>
</g>
<g clip-path="url(#clip1)">
<path d="M744.163 65.4559L734.12 67.8507L723.6 57.1142L733.045 52.2129L744.163 65.4559Z" fill="#00FFFF"/>
<path d="M750.836 -8.27305L755.635 3.68481L760.427 1.76441L755.627 -10.1935L750.836 -8.27305Z" fill="#ED1C24"/>
<path d="M1145.03 -11.5903L1129.25 0.120258L1118.85 -21.2411L1132.12 -32.353L1145.03 -11.5903Z" fill="#39B54A"/>
<path d="M772.03 37.6191L767.129 28.1917L772.748 29.5008L777.65 38.9282L772.03 37.6191Z" fill="#39B54A"/>
<path d="M934.627 51.8257L936.898 72.4766L923.149 70.4572L921.476 52.3127L934.627 51.8257Z" fill="#00FFFF"/>
<path d="M1032.66 73.4847L1029.55 71.5769L1036.01 54.1428L1038.52 53.5441L1032.66 73.4847Z" fill="#FCEE21"/>
<path d="M860.74 53.5515L853.208 55.3476L848.546 24.6706L856.676 25.381L860.74 53.5515Z" fill="#00FFFF"/>
<path d="M1118.74 45.011L1130.69 39.5109L1135 46.4317" fill="#39B54A"/>
<path d="M1029.65 60.9576L1048.42 61.7797L1044.59 67.9901L1022.71 65.2601L1029.65 60.9576Z" fill="#FBB03B"/>
<path d="M1054.19 -3.17229L1077.26 4.57076L1070.09 30.1231L1043.9 20.4722L1054.19 -3.17229Z" fill="#FBB03B"/>
<path d="M717.012 85.1748L720.718 89.5891L713.663 104.517L709.957 100.102L717.012 85.1748Z" fill="#00FFFF"/>
</g>
<g clip-path="url(#clip2)">
<path d="M300.341 376.787L297.76 399.979L282.273 397.402L284.855 374.21L300.341 376.787Z" fill="#ED1E79"/>
<path d="M197.125 479.86L212.612 477.283V487.59L197.125 490.167V479.86Z" fill="#FCEE21"/>
<path d="M114.539 593.241L96.4708 598.395L91.3086 590.664L109.376 585.511L114.539 593.241Z" fill="#FCEE21"/>
<path d="M230.679 729.812H235.841L225.517 734.965H222.936L230.679 729.812Z" fill="#ED1C24"/>
<path d="M333.895 186.105L336.476 175.798L341.638 170.645L339.057 183.529L333.895 186.105Z" fill="#ED1C24"/>
<path d="M3.54985 353.596L0.96875 363.903V358.75V348.442L3.54985 353.596Z" fill="#FBB03B"/>
<path d="M176.486 477.283L179.067 482.436L171.323 495.321L168.742 492.744L176.486 477.283Z" fill="#FCEE21"/>
<path d="M106.796 629.315L114.539 634.469L111.958 642.199L104.215 634.469L106.796 629.315Z" fill="#ED1C24"/>
<path d="M439.721 240.217H442.302L424.234 250.525L439.721 240.217Z" fill="#39B54A"/>
<path d="M222.927 763.311L204.86 771.041L199.697 747.85L215.184 740.12L222.927 763.311Z" fill="#39B54A"/>
<path d="M158.379 469.554V482.438L153.217 485.015V472.131L158.379 469.554Z" fill="#FBB03B"/>
<path d="M155.836 150.029L171.323 137.145L179.066 147.452L163.579 160.336L155.836 150.029Z" fill="#FCEE21"/>
<path d="M517.164 745.272V750.425H512.002V745.272H517.164Z" fill="#ED1C24"/>
<path d="M57.7344 101.07L62.8966 95.9165L65.4778 98.4933L60.3155 103.647L57.7344 101.07Z" fill="#00FFFF"/>
<path d="M623 515.937L612.676 508.207L620.419 492.746" fill="#FBB03B"/>
<path d="M573.95 345.867L571.368 353.597L563.625 351.02L566.206 343.29L573.95 345.867Z" fill="#FBB03B"/>
<path d="M462.961 734.966L452.637 753.004L447.475 742.696L457.799 727.235L462.961 734.966Z" fill="#ED1C24"/>
<path d="M132.598 575.202L135.179 567.471L145.503 572.625L142.922 577.779L132.598 575.202Z" fill="#FBB03B"/>
<path d="M532.679 34.0719L504.287 31.4951V23.7646L532.679 26.3415V34.0719Z" fill="#39B54A"/>
<path d="M426.817 510.781L411.33 505.628L416.492 503.051L429.398 508.205L426.817 510.781Z" fill="#FBB03B"/>
<path d="M431.978 366.482L426.815 376.79L424.234 374.213L426.815 363.906L431.978 366.482Z" fill="#FCEE21"/>
<path d="M308.084 160.337L310.665 162.914V165.491L308.084 162.914V160.337Z" fill="#ED1E79"/>
<path d="M137.748 541.704L132.586 549.435L122.262 544.281L127.424 536.551L137.748 541.704Z" fill="#ED1C24"/>
<path d="M111.93 170.644L119.673 160.337L122.254 170.644L114.511 183.528L111.93 170.644Z" fill="#ED1E79"/>
<path d="M124.854 -7.15601L127.435 0.574425L122.273 3.15123L119.691 -2.00239L124.854 -7.15601Z" fill="#39B54A"/>
<path d="M576.549 613.854H573.968L571.387 608.7L576.549 606.124V613.854Z" fill="#00FFFF"/>
<path d="M506.841 157.758L504.26 168.065L499.098 165.489L501.679 155.181L506.841 157.758Z" fill="#00FFFF"/>
<path d="M421.662 253.101V237.64L424.243 229.91L426.824 242.794L421.662 253.101Z" fill="#FBB03B"/>
<path d="M49.9904 670.545L44.8281 665.391H55.1526L60.3149 670.545H49.9904Z" fill="#FCEE21"/>
<path d="M429.405 619.009H426.824L421.662 598.395L424.243 600.972L429.405 619.009Z" fill="#FCEE21"/>
<path d="M375.211 95.9171H354.562L359.725 93.3403H380.374L375.211 95.9171Z" fill="#ED1C24"/>
<path d="M3.55116 776.193L0.970057 796.807L-11.9355 791.654L-9.35444 773.616L3.55116 776.193Z" fill="#00FFFF"/>
<path d="M217.755 -2.00235L228.079 -20.04V-9.73279L215.174 8.3049L217.755 -2.00235Z" fill="#FCEE21"/>
<path d="M444.903 564.896L431.997 575.203L419.092 557.166L431.997 546.859L444.903 564.896Z" fill="#ED1E79"/>
<path d="M179.027 265.986L181.608 263.409L186.771 273.717L181.608 276.293L179.027 265.986Z" fill="#39B54A"/>
<path d="M246.176 613.854H233.271L220.365 606.124H233.271L246.176 613.854Z" fill="#39B54A"/>
<path d="M62.877 75.3015L68.0392 59.8406L80.9448 72.7246L75.7826 88.1855L62.877 75.3015Z" fill="#FBB03B"/>
<path d="M217.784 314.944L207.459 309.79L220.365 296.906L228.108 302.06L217.784 314.944Z" fill="#FBB03B"/>
<path d="M55.1723 281.448H52.5912L39.6855 260.833H42.2667L55.1723 281.448Z" fill="#00FFFF"/>
<path d="M429.435 693.737H426.854V688.583H429.435V693.737Z" fill="#00FFFF"/>
<path d="M93.8897 820.001L91.3086 817.424L101.633 801.963H104.214L93.8897 820.001Z" fill="#FCEE21"/>
<path d="M511.992 647.355L522.316 670.546L499.086 675.7L488.762 652.509L511.992 647.355Z" fill="#ED1C24"/>
<path d="M491.354 13.4568V21.1872H486.191V13.4568H491.354Z" fill="#FCEE21"/>
<path d="M385.537 634.47L380.375 629.316L385.537 626.739L390.699 629.316L385.537 634.47Z" fill="#FCEE21"/>
<path d="M210.031 582.933L222.937 575.203L235.842 593.241L222.937 600.971L210.031 582.933Z" fill="#ED1E79"/>
<path d="M408.786 796.808L416.53 801.962L411.368 804.539L401.043 801.962L408.786 796.808Z" fill="#FCEE21"/>
<path d="M55.1349 227.333L60.2972 232.487L55.1349 240.217L49.9727 235.064L55.1349 227.333Z" fill="#ED1E79"/>
<path d="M52.5538 369.059L68.0405 384.519H65.4594L49.9727 366.482L52.5538 369.059Z" fill="#ED1E79"/>
<path d="M44.8186 77.8795L39.6564 80.4563L34.4941 72.7259L37.0752 67.5723L44.8186 77.8795Z" fill="#ED1C24"/>
<path d="M310.704 90.7629L302.961 88.1861L297.799 83.0325L305.542 85.6093L310.704 90.7629Z" fill="#FBB03B"/>
<path d="M8.70329 361.328L3.54102 356.175L8.70329 340.714L13.8655 345.867L8.70329 361.328Z" fill="#ED1C24"/>
<path d="M470.713 356.174L481.037 340.714L496.524 351.021L483.619 366.482L470.713 356.174Z" fill="#39B54A"/>
<path d="M434.559 582.935L424.234 585.511L426.815 572.627L437.14 570.051L434.559 582.935Z" fill="#FBB03B"/>
<path d="M527.479 461.824L548.127 443.786H550.709L530.06 461.824H527.479Z" fill="#FBB03B"/>
<path d="M447.502 196.412L442.34 206.719L426.854 196.412L432.016 188.681L447.502 196.412Z" fill="#00FFFF"/>
<path d="M186.791 23.7653L189.372 8.30444H194.534L191.953 26.3421L186.791 23.7653Z" fill="#FBB03B"/>
<path d="M318.448 384.519L315.867 389.672L297.799 384.519V381.942L318.448 384.519Z" fill="#ED1C24"/>
<path d="M222.936 160.337L235.841 144.876H241.003L228.098 157.761L222.936 160.337Z" fill="#FBB03B"/>
<path d="M437.149 479.862L439.731 482.439L437.149 485.016L434.568 482.439L437.149 479.862Z" fill="#FBB03B"/>
<path d="M129.987 539.129L127.406 531.398L142.893 518.514V528.821L129.987 539.129Z" fill="#39B54A"/>
<path d="M13.8757 -7.1566L-1.61107 3.15064L-11.9355 -22.6175L6.1323 -30.3479L13.8757 -7.1566Z" fill="#00FFFF"/>
<path d="M468.113 521.09L465.532 523.667L462.951 521.09H468.113Z" fill="#39B54A"/>
<path d="M19.0372 178.375H16.4561L13.875 173.221H16.4561L19.0372 178.375Z" fill="#00FFFF"/>
<path d="M259.081 590.663L251.338 613.854H246.176L256.5 593.24L259.081 590.663Z" fill="#39B54A"/>
<path d="M0.96875 709.196L8.71211 696.312H13.8743L6.13098 711.773L0.96875 709.196Z" fill="#FBB03B"/>
<path d="M620.399 16.0349L617.818 8.30444H620.399L622.981 16.0349H620.399Z" fill="#FCEE21"/>
<path d="M372.621 250.525L367.459 260.832L357.135 250.525L364.878 240.217L372.621 250.525Z" fill="#ED1C24"/>
<path d="M124.834 564.896V562.319L127.415 559.743L129.996 562.319L124.834 564.896Z" fill="#ED1C24"/>
<path d="M444.922 124.262H439.76L442.341 119.108H447.503L444.922 124.262Z" fill="#FCEE21"/>
<path d="M362.297 763.311L364.878 765.888L362.297 768.465H357.135L362.297 763.311Z" fill="#ED1C24"/>
<path d="M434.568 284.022L439.731 271.138H444.893L442.312 284.022H434.568Z" fill="#39B54A"/>
<path d="M579.121 611.278L573.959 606.125L576.54 600.971L581.702 606.125L579.121 611.278Z" fill="#FCEE21"/>
<path d="M442.33 469.554H450.073L452.655 490.169H444.911L442.33 469.554Z" fill="#FCEE21"/>
<path d="M86.1362 575.203L83.555 585.51L68.0684 582.933L70.6495 575.203H86.1362Z" fill="#FCEE21"/>
<path d="M204.86 714.35L202.278 716.926L199.697 711.773L204.86 709.196V714.35Z" fill="#ED1C24"/>
<path d="M184.219 812.269L197.124 809.692L199.706 817.423" fill="#39B54A"/>
<path d="M93.8605 807.116L111.928 812.27L106.766 817.423L86.1172 809.693L93.8605 807.116Z" fill="#FBB03B"/>
<path d="M568.776 686.005L571.357 683.428L568.776 688.581H566.195L568.776 686.005Z" fill="#ED1E79"/>
<path d="M295.189 106.224L292.607 103.647L295.189 95.9165L297.77 98.4933L295.189 106.224Z" fill="#FCEE21"/>
<path d="M514.583 611.279L512.002 608.703L522.326 595.819L524.908 598.395L514.583 611.279Z" fill="#FCEE21"/>
<path d="M13.8567 320.098L11.2755 325.252H6.11328L8.69442 320.098H13.8567Z" fill="#FCEE21"/>
<path d="M339.057 88.1848L349.381 93.3384L346.8 101.069L333.895 95.9152L339.057 88.1848Z" fill="#00FFFF"/>
<path d="M478.456 397.402L488.781 420.594L478.456 425.747L470.713 402.556L478.456 397.402Z" fill="#FBB03B"/>
<path d="M163.541 150.029L140.311 139.722L142.892 134.569L166.122 144.876L163.541 150.029Z" fill="#FBB03B"/>
<path d="M357.135 387.096L377.784 379.366L380.365 381.943L359.716 389.673L357.135 387.096Z" fill="#FBB03B"/>
<path d="M132.606 750.427L153.255 763.311L140.349 786.503L117.119 771.042L132.606 750.427Z" fill="#FBB03B"/>
<path d="M380.374 299.484L367.469 296.907V291.754L380.374 296.907V299.484Z" fill="#00FFFF"/>
<path d="M104.215 180.951L109.377 175.797V180.951L104.215 183.528V180.951Z" fill="#ED1E79"/>
<path d="M148.083 497.899L145.502 487.592L153.245 482.438L155.826 490.169L148.083 497.899Z" fill="#00FFFF"/>
<path d="M506.859 206.72V196.413L514.603 206.72L512.022 217.027L506.859 206.72Z" fill="#ED1E79"/>
<path d="M488.762 206.718V204.141H501.667V206.718H488.762Z" fill="#39B54A"/>
<path d="M202.268 8.30384L204.849 -2.0034L217.754 -14.8875L215.173 -4.58021L202.268 8.30384Z" fill="#ED1C24"/>
<path d="M558.48 765.886L573.967 760.732L581.711 778.77L566.224 783.924L558.48 765.886Z" fill="#ED1C24"/>
<path d="M470.733 549.435L478.476 552.012L473.314 557.165L465.57 554.588L470.733 549.435Z" fill="#39B54A"/>
<path d="M553.291 613.854V606.124L555.872 611.277V616.431L553.291 613.854Z" fill="#FBB03B"/>
<path d="M426.854 567.471L429.435 570.048V588.086L426.854 585.509V567.471Z" fill="#FBB03B"/>
<path d="M486.191 546.858L491.354 536.551H493.935L488.772 546.858H486.191Z" fill="#ED1C24"/>
<path d="M220.325 660.238L197.095 678.275L179.027 657.661L202.257 639.623L220.325 660.238Z" fill="#39B54A"/>
<path d="M230.69 90.7612L241.014 108.799L230.69 121.683L220.365 103.645L230.69 90.7612Z" fill="#FCEE21"/>
<path d="M512.013 201.565H522.337V204.142H509.432L512.013 201.565Z" fill="#FBB03B"/>
<path d="M235.842 384.518H238.423L241.004 389.672H235.842V384.518Z" fill="#ED1E79"/>
</g>
<defs>
<clipPath id="clip0">
<rect width="875" height="889" fill="white" transform="translate(1314 -63.04) rotate(-13.4122)"/>
</clipPath>
<clipPath id="clip1">
<rect width="875" height="889" fill="white" transform="translate(490 -711.04) rotate(-13.4122)"/>
</clipPath>
<clipPath id="clip2">
<rect width="875" height="889" fill="white" transform="translate(-252 -69)"/>
</clipPath>
</defs>
</svg>
