<svg width="96" height="112" viewBox="0 0 96 112" fill="none" xmlns="http://www.w3.org/2000/svg">
<g style="mix-blend-mode:multiply">
<circle cx="48" cy="64" r="48" fill="#6550E2"/>
</g>
<circle opacity="0.5" cx="48" cy="48" r="48" fill="#866EEA"/>
<circle cx="48" cy="56" r="48" fill="#866EEA"/>
<path d="M48 63.996C48.4902 63.9961 48.9632 64.1762 49.3293 64.5022C49.6955 64.8281 49.9291 65.2771 49.986 65.764L50 65.996V69.164L50.586 68.584C50.9301 68.2394 51.3882 68.0321 51.8743 68.0012C52.3603 67.9703 52.841 68.1178 53.226 68.416L53.414 68.582C53.7584 68.9264 53.9652 69.3846 53.9958 69.8706C54.0263 70.3567 53.8785 70.8372 53.58 71.222L53.414 71.412L49.414 75.412L49.326 75.494L49.19 75.604L48.968 75.748L48.742 75.854L48.532 75.926L48.296 75.974L48.118 75.994H47.88L47.764 75.984L47.532 75.944L47.316 75.878L47.154 75.81L46.958 75.706L46.766 75.572C46.7029 75.5223 46.6428 75.4689 46.586 75.412L42.586 71.412C42.2235 71.0529 42.0119 70.5689 41.9946 70.0589C41.9773 69.5489 42.1556 69.0517 42.4929 68.6688C42.8303 68.286 43.3012 68.0466 43.8092 67.9996C44.3173 67.9526 44.8242 68.1016 45.226 68.416L45.414 68.582L46 69.168V65.996C45.9996 65.5058 46.1792 65.0325 46.5048 64.666C46.8303 64.2995 47.2792 64.0654 47.766 64.008L48 63.996ZM60.586 50.582C60.9304 50.2376 61.3886 50.0308 61.8746 50.0002C62.3607 49.9697 62.8412 50.1175 63.226 50.416L63.414 50.582L67.414 54.582L67.496 54.67L67.606 54.806L67.75 55.028L67.858 55.254L67.928 55.466L67.978 55.7L67.998 55.88V56.116L67.986 56.232L67.946 56.464L67.88 56.68L67.812 56.844L67.708 57.038L67.56 57.248L67.414 57.412L63.414 61.412C63.0549 61.7745 62.5709 61.9861 62.0609 62.0034C61.551 62.0207 61.0537 61.8424 60.6708 61.5051C60.288 61.1677 60.0486 60.6968 60.0016 60.1888C59.9546 59.6807 60.1036 59.1738 60.418 58.772L60.586 58.582L61.166 57.998H58C57.5095 57.9984 57.0359 57.8185 56.6694 57.4925C56.3029 57.1665 56.0689 56.7172 56.012 56.23L56 55.996C56.0001 55.5061 56.1799 55.0333 56.5054 54.6673C56.831 54.3012 57.2795 54.0673 57.766 54.01L58 53.998H61.17L60.586 53.412C60.2414 53.0679 60.0341 52.6098 60.0032 52.1237C59.9723 51.6377 60.1198 51.157 60.418 50.772L60.586 50.582ZM32.586 50.582C32.9459 50.2233 33.4289 50.0151 33.9368 49.9995C34.4447 49.984 34.9394 50.1624 35.3206 50.4985C35.7017 50.8346 35.9406 51.3031 35.9888 51.8089C36.037 52.3148 35.8908 52.82 35.58 53.222L35.414 53.412L34.828 53.998H38C38.4899 53.9981 38.9627 54.1779 39.3287 54.5034C39.6948 54.8289 39.9287 55.2775 39.986 55.764L40 55.996C39.9999 56.4862 39.8197 56.9592 39.4938 57.3253C39.1679 57.6915 38.7189 57.9251 38.232 57.982L38 57.996H34.83L35.414 58.58C35.7584 58.9244 35.9652 59.3826 35.9958 59.8686C36.0263 60.3547 35.8785 60.8352 35.58 61.22L35.414 61.41C35.0696 61.7544 34.6114 61.9612 34.1254 61.9918C33.6393 62.0223 33.1588 61.8745 32.774 61.576L32.586 61.41L28.586 57.41L28.392 57.186L28.248 56.964L28.142 56.738L28.072 56.528L28.022 56.292L28.006 56.166L28 55.956L28.008 55.816L28.04 55.594L28.1 55.37L28.186 55.15L28.292 54.954L28.426 54.762C28.4757 54.6988 28.5291 54.6387 28.586 54.582L32.586 50.582V50.582ZM48 50.496C49.4587 50.496 50.8576 51.0755 51.8891 52.1069C52.9205 53.1384 53.5 54.5373 53.5 55.996C53.5 57.4547 52.9205 58.8536 51.8891 59.8851C50.8576 60.9165 49.4587 61.496 48 61.496C46.5413 61.496 45.1424 60.9165 44.1109 59.8851C43.0795 58.8536 42.5 57.4547 42.5 55.996C42.5 54.5373 43.0795 53.1384 44.1109 52.1069C45.1424 51.0755 46.5413 50.496 48 50.496V50.496ZM47.702 36.018L47.85 36.002L48.11 36L48.35 36.028L48.624 36.096L48.846 36.184L49.042 36.288L49.25 36.436L49.414 36.582L53.414 40.582C53.7765 40.9411 53.9881 41.4251 54.0054 41.9351C54.0227 42.445 53.8444 42.9423 53.5071 43.3252C53.1697 43.708 52.6988 43.9474 52.1908 43.9944C51.6827 44.0414 51.1758 43.8924 50.774 43.578L50.586 43.412L50 42.826V45.996C50.0004 46.4865 49.8205 46.9601 49.4945 47.3266C49.1685 47.6931 48.7192 47.9271 48.232 47.984L48 47.996C47.5101 47.9959 47.0373 47.8161 46.6713 47.4906C46.3052 47.1651 46.0713 46.7165 46.014 46.23L46 45.996V42.824L45.414 43.412C45.0696 43.7564 44.6114 43.9632 44.1254 43.9938C43.6393 44.0243 43.1588 43.8765 42.774 43.578L42.586 43.412C42.2416 43.0676 42.0348 42.6094 42.0042 42.1234C41.9737 41.6373 42.1215 41.1568 42.42 40.772L42.586 40.582L46.586 36.582L46.81 36.39L47.03 36.246L47.258 36.14L47.468 36.068L47.702 36.018V36.018Z" fill="white"/>
</svg>
