<svg width="50" height="50" viewBox="0 0 50 50" fill="none" xmlns="http://www.w3.org/2000/svg">
<path d="M8.5 10.6V7.39998C8.5 5.89998 9.8 4.59998 11.3 4.59998H14.5C15.6 4.59998 16.5 3.69998 16.5 2.59998C16.5 1.49998 15.6 0.599976 14.5 0.599976H11.3C7.5 0.599976 4.5 3.59998 4.5 7.39998V10.5C4.5 11.6 5.4 12.5 6.5 12.5C7.6 12.6 8.5 11.7 8.5 10.6Z" fill="#866EEA"/>
<path d="M35.5 4.59998H38.7C40.2 4.59998 41.5 5.89998 41.5 7.39998V10.5C41.5 11.6 42.4 12.5 43.5 12.5C44.6 12.5 45.5 11.6 45.5 10.5V7.39998C45.5 3.59998 42.5 0.599976 38.7 0.599976H35.5C34.4 0.599976 33.5 1.49998 33.5 2.59998C33.5 3.69998 34.4 4.59998 35.5 4.59998Z" fill="#866EEA"/>
<path d="M41.5 39.4V42.5C41.5 44 40.2 45.3 38.7 45.3H35.5C34.4 45.3 33.5 46.2 33.5 47.3C33.5 48.4 34.4 49.3 35.5 49.3H38.7C42.5 49.3 45.5 46.3 45.5 42.5V39.4C45.5 38.3 44.6 37.4 43.5 37.4C42.4 37.4 41.5 38.3 41.5 39.4Z" fill="#866EEA"/>
<path d="M14.5 45.4H11.3C9.8 45.4 8.5 44.1 8.5 42.6V39.5C8.5 38.4 7.6 37.5 6.5 37.5C5.4 37.5 4.5 38.4 4.5 39.5V42.6C4.5 46.4 7.5 49.4 11.3 49.4H14.5C15.6 49.4 16.5 48.5 16.5 47.4C16.5 46.3 15.6 45.4 14.5 45.4Z" fill="#866EEA"/>
<path d="M24.9996 35.9C31.0195 35.9 35.8996 31.0199 35.8996 25C35.8996 18.9801 31.0195 14.1 24.9996 14.1C18.9797 14.1 14.0996 18.9801 14.0996 25C14.0996 31.0199 18.9797 35.9 24.9996 35.9Z" stroke="#866EEA" stroke-width="4" stroke-miterlimit="10"/>
</svg>
