<svg width="50" height="44" viewBox="0 0 50 44" fill="none" xmlns="http://www.w3.org/2000/svg">
<path d="M6.09916 17.2C5.59916 17.6 5.49916 18.3 5.89916 18.8C6.59916 19.8 7.29916 20.6 7.79916 21.2C10.2992 25.7 23.2992 25.9 24.8992 25.9C26.4992 25.9 39.4992 25.8 41.9992 21.2C42.4992 20.6 43.1992 19.8 43.8992 18.8C44.2992 18.3 44.1992 17.6 43.6992 17.2C39.8992 14.2 32.7992 12.1 24.7992 12.1C16.7992 12.1 9.89916 14.2 6.09916 17.2ZM38.0992 19.5C36.6992 20.4 32.0992 21.7 24.9992 21.7C17.8992 21.7 13.2992 20.4 11.8992 19.5C13.2992 18.6 17.8992 17.3 24.9992 17.3C32.0992 17.3 36.6992 18.6 38.0992 19.5Z" fill="#866EEA"/>
<path d="M25 1.90002C19.6 1.90002 2 2.30002 2 7.90002C2 8.30002 2.1 8.70002 2.3 9.10002C2.8 10.6 3.5 12 4.3 13.2C4.8 14 5.8 14.2 6.5 13.7C10.6 10.9 17.3 9.00002 25 9.00002C32.7 9.00002 39.4 10.8 43.5 13.7C44.2 14.2 45.3 14 45.7 13.2C46.4 11.9 47.1 10.5 47.7 9.10002C47.9 8.70002 48 8.30002 48 7.90002C48 2.40002 30.4 1.90002 25 1.90002Z" stroke="#866EEA" stroke-width="3" stroke-miterlimit="10"/>
<path d="M23 32.5C23 35.1 23 37.7 23 40.2C23 40.6 23 40.9 23 41.3C23 42.3 23.9 43.3 25 43.3C26.1 43.3 27 42.4 27 41.3C27 38.7 27 36.1 27 33.6C27 33.2 27 32.9 27 32.5C27 31.5 26.1 30.5 25 30.5C23.9 30.6 23 31.4 23 32.5Z" fill="#866EEA"/>
<path d="M10.2998 29.3C9.79979 31.8 9.29979 34.3 8.79979 36.9C8.69979 37.3 8.69979 37.6 8.59979 38C8.39979 39 8.89979 40.2 9.99979 40.4C10.9998 40.6 12.1998 40.1 12.3998 39C12.8998 36.5 13.3998 34 13.8998 31.4C13.9998 31 13.9998 30.7 14.0998 30.3C14.2998 29.3 13.7998 28.1 12.6998 27.9C11.6998 27.7 10.4998 28.2 10.2998 29.3Z" fill="#866EEA"/>
<path d="M35.9006 30.4C36.4006 32.9 36.9006 35.4 37.4006 38C37.5006 38.4 37.5006 38.7 37.6006 39.1C37.8006 40.1 39.1006 40.8 40.0006 40.5C41.1006 40.2 41.6006 39.2 41.4006 38.1C40.9006 35.6 40.4006 33.1 39.9006 30.5C39.8006 30.1 39.8006 29.8 39.7006 29.4C39.5006 28.4 38.2006 27.7 37.3006 28C36.2006 28.3 35.7006 29.3 35.9006 30.4Z" fill="#866EEA"/>
</svg>
