<svg width="26" height="26" viewBox="0 0 26 26" fill="none" xmlns="http://www.w3.org/2000/svg">
<path d="M13 0C5.832 0 0 5.832 0 13C0 20.168 5.832 26 13 26C20.168 26 26 20.168 26 13C26 5.832 20.168 0 13 0ZM13 2C19.065 2 24 6.935 24 13C24 19.065 19.065 24 13 24C6.935 24 2 19.065 2 13C2 6.935 6.935 2 13 2ZM11 6C10.7348 6 10.4804 6.10536 10.2929 6.29289C10.1054 6.48043 10 6.73478 10 7C10 7.26522 10.1054 7.51957 10.2929 7.70711C10.4804 7.89464 10.7348 8 11 8C11.2652 8 11.5196 7.89464 11.7071 7.70711C11.8946 7.51957 12 7.26522 12 7C12 6.73478 11.8946 6.48043 11.7071 6.29289C11.5196 6.10536 11.2652 6 11 6ZM16.5 7C16.1022 7 15.7206 7.15804 15.4393 7.43934C15.158 7.72064 15 8.10218 15 8.5C15 8.89782 15.158 9.27936 15.4393 9.56066C15.7206 9.84196 16.1022 10 16.5 10C16.8978 10 17.2794 9.84196 17.5607 9.56066C17.842 9.27936 18 8.89782 18 8.5C18 8.10218 17.842 7.72064 17.5607 7.43934C17.2794 7.15804 16.8978 7 16.5 7ZM8 10C7.46957 10 6.96086 10.2107 6.58579 10.5858C6.21071 10.9609 6 11.4696 6 12C6 12.5304 6.21071 13.0391 6.58579 13.4142C6.96086 13.7893 7.46957 14 8 14C8.53043 14 9.03914 13.7893 9.41421 13.4142C9.78929 13.0391 10 12.5304 10 12C10 11.4696 9.78929 10.9609 9.41421 10.5858C9.03914 10.2107 8.53043 10 8 10ZM14 12C13.7348 12 13.4804 12.1054 13.2929 12.2929C13.1054 12.4804 13 12.7348 13 13C13 13.2652 13.1054 13.5196 13.2929 13.7071C13.4804 13.8946 13.7348 14 14 14C14.2652 14 14.5196 13.8946 14.7071 13.7071C14.8946 13.5196 15 13.2652 15 13C15 12.7348 14.8946 12.4804 14.7071 12.2929C14.5196 12.1054 14.2652 12 14 12ZM19 13C18.7348 13 18.4804 13.1054 18.2929 13.2929C18.1054 13.4804 18 13.7348 18 14C18 14.2652 18.1054 14.5196 18.2929 14.7071C18.4804 14.8946 18.7348 15 19 15C19.2652 15 19.5196 14.8946 19.7071 14.7071C19.8946 14.5196 20 14.2652 20 14C20 13.7348 19.8946 13.4804 19.7071 13.2929C19.5196 13.1054 19.2652 13 19 13ZM9.5 16C9.10218 16 8.72064 16.158 8.43934 16.4393C8.15804 16.7206 8 17.1022 8 17.5C8 17.8978 8.15804 18.2794 8.43934 18.5607C8.72064 18.842 9.10218 19 9.5 19C9.89782 19 10.2794 18.842 10.5607 18.5607C10.842 18.2794 11 17.8978 11 17.5C11 17.1022 10.842 16.7206 10.5607 16.4393C10.2794 16.158 9.89782 16 9.5 16V16ZM16.5 17C16.1022 17 15.7206 17.158 15.4393 17.4393C15.158 17.7206 15 18.1022 15 18.5C15 18.8978 15.158 19.2794 15.4393 19.5607C15.7206 19.842 16.1022 20 16.5 20C16.8978 20 17.2794 19.842 17.5607 19.5607C17.842 19.2794 18 18.8978 18 18.5C18 18.1022 17.842 17.7206 17.5607 17.4393C17.2794 17.158 16.8978 17 16.5 17Z" fill="white"/>
</svg>
