<svg width="50" height="50" viewBox="0 0 50 50" fill="none" xmlns="http://www.w3.org/2000/svg">
<path d="M35.9996 18C35.9996 7.7 29.2996 0.5 19.7996 0.5C10.2996 0.5 3.59961 7.7 3.59961 18C3.59961 27.3 9.09961 37.6 16.8996 39.7L16.2996 41.2C15.8996 42 16.4996 42.9 17.3996 42.9H18.2996L21.2996 43H22.1996C23.0996 43 23.5996 42.1 23.2996 41.3L22.6996 39.8C30.4996 37.6 35.9996 27.3 35.9996 18ZM19.7996 37.1C12.9996 37.1 6.59961 27.8 6.59961 18C6.59961 9.4 11.8996 3.5 19.7996 3.5C27.6996 3.5 32.9996 9.3 32.9996 18C32.9996 27.8 26.5996 37.1 19.7996 37.1Z" fill="#866EEA"/>
<path d="M18.5996 41.1C18.6996 47.4 25.2996 51.5 30.9996 48.7C33.8996 47.3 35.5996 44.4 38.2996 42.7C41.2996 40.8 44.9996 41.9 45.7996 45.6C46.0996 47.2 48.4996 46.5 48.1996 44.9C47.5996 42 45.3996 39.8 42.3996 39.3C39.2996 38.8 36.6996 40.5 34.4996 42.6C32.2996 44.7 30.0996 47.4 26.6996 47.2C23.4996 47 21.1996 44.3 21.0996 41.2C21.0996 39.5 18.5996 39.5 18.5996 41.1Z" fill="#866EEA"/>
<path d="M27.0996 20.4C26.8996 21.9 26.3996 22.4 24.8996 22.5C23.6996 22.6 22.0996 22.4001 20.4996 22.2001C17.3996 21.9001 14.4996 21.6 12.5996 22.6C12.4996 22 12.2996 21 12.4996 20.1C12.6996 18.3001 13.5996 17.9 14.7996 17.9C14.8996 17.9 14.8996 17.9 14.9996 17.9C16.1996 17.9 17.5996 18.1001 18.9996 18.2001C22.0996 18.6001 25.0996 18.9 26.8996 17.8C26.9996 18.5 27.1996 19.4 27.0996 20.4Z" fill="#866EEA"/>
<path d="M28.5002 15.9999C28.4002 15.8999 28.3002 15.8999 28.2002 15.7999L27.0002 15.3999C26.6002 15.2999 26.2002 15.3999 25.9002 15.5999C24.9002 16.4999 21.7002 16.0999 19.2002 15.7999C17.7002 15.5999 16.1002 15.3999 14.8002 15.4999C12.2002 15.4999 10.5002 16.9999 10.2002 19.7999C9.90022 21.7999 10.5002 24.1999 10.9002 24.5999C11.1002 24.7999 11.3002 24.8999 11.6002 24.9999L12.6002 25.1999C12.7002 25.1999 12.7002 25.1999 12.8002 25.1999C13.1002 25.1999 13.4002 25.0999 13.6002 24.8999C14.6002 23.9999 17.8002 24.2999 20.4002 24.5999C22.0002 24.7999 23.7002 24.8999 25.1002 24.8999C28.5002 24.7999 29.4002 22.4999 29.6002 20.6999C29.6002 19.0999 29.3002 16.4999 28.5002 15.9999ZM27.6002 20.4999C27.4002 22.1999 26.6002 22.9999 24.9002 22.9999C23.6002 23.0999 22.1002 22.8999 20.5002 22.6999C17.5002 22.3999 14.6002 22.0999 12.9002 22.9999L12.3002 23.2999L12.2002 22.5999C12.1002 21.8999 11.9002 20.8999 12.1002 19.8999C12.4002 17.5999 13.7002 17.2999 14.9002 17.2999H15.1002C16.3002 17.2999 17.8002 17.4999 19.1002 17.5999C22.1002 17.9999 25.0002 18.2999 26.7002 17.2999L26.9002 17.1999L27.4002 17.2999L27.5002 17.5999C27.5002 18.3999 27.7002 19.3999 27.6002 20.4999Z" fill="#866EEA"/>
</svg>
