<svg width="48" height="48" viewBox="0 0 48 48" fill="none" xmlns="http://www.w3.org/2000/svg">
<path d="M48 13.5C48 15.3125 47.4531 17.7266 46.3594 20.7422C45.2656 23.7578 43.7969 26.6719 41.9531 29.4844C40.8594 31.2031 39.9922 32.5547 39.3516 33.5391C38.7109 34.5234 37.875 35.7578 36.8438 37.2422C35.8125 38.7266 34.9375 39.9063 34.2188 40.7812C33.5 41.6562 32.6641 42.6094 31.7109 43.6406C30.7578 44.6719 29.8906 45.4688 29.1094 46.0312C28.3281 46.5938 27.4922 47.0625 26.6016 47.4375C25.7109 47.8125 24.8438 48 24 48C23.1562 48 22.2891 47.8047 21.3984 47.4141C20.5078 47.0234 19.6719 46.5469 18.8906 45.9844C18.1094 45.4219 17.2344 44.6172 16.2656 43.5703C15.2969 42.5234 14.4531 41.5625 13.7344 40.6875C13.0156 39.8125 12.1406 38.6328 11.1094 37.1484C10.0781 35.6641 9.24219 34.4375 8.60156 33.4688C7.96094 32.5 7.10937 31.1719 6.04688 29.4844C4.10938 26.5156 2.61719 23.5703 1.57031 20.6484C0.523437 17.7266 0 15.3437 0 13.5C0 9.78125 1.32031 6.60156 3.96094 3.96094C6.60156 1.32031 9.78125 0 13.5 0C15.5938 0 17.5469 0.445312 19.3594 1.33594C21.1719 2.22656 22.7187 3.45313 24 5.01562C25.25 3.45313 26.7891 2.22656 28.6172 1.33594C30.4453 0.445312 32.4062 0 34.5 0C38.2188 0 41.3984 1.32031 44.0391 3.96094C46.6797 6.60156 48 9.78125 48 13.5ZM34.5 6C33.2187 6 31.8906 6.44531 30.5156 7.33594C29.1406 8.22656 27.9687 9.28125 27 10.5C26.9062 10.625 26.7266 10.9063 26.4609 11.3438C26.1953 11.7812 25.9766 12.1328 25.8047 12.3984C25.6328 12.6641 25.375 12.9141 25.0312 13.1484C24.6875 13.3828 24.3438 13.5 24 13.5C23.6562 13.5 23.3125 13.3828 22.9688 13.1484C22.625 12.9141 22.3672 12.6719 22.1953 12.4219C22.0234 12.1719 21.7969 11.8203 21.5156 11.3672C21.2344 10.9141 21.0625 10.625 21 10.5C20.0313 9.28125 18.8594 8.22656 17.4844 7.33594C16.1094 6.44531 14.7813 6 13.5 6C11.4375 6 9.67188 6.73437 8.20312 8.20312C6.73437 9.67188 6 11.4375 6 13.5C5.84375 15.4063 6.34375 17.75 7.5 20.5312C8.65625 23.3125 10.1563 26.0625 12 28.7812C12.5625 29.625 13.2578 30.7031 14.0859 32.0156C14.9141 33.3281 15.5859 34.3828 16.1016 35.1797C16.6172 35.9766 17.2344 36.8594 17.9531 37.8281C18.6719 38.7969 19.3203 39.5469 19.8984 40.0781C20.4766 40.6094 21.125 41.0625 21.8438 41.4375C22.5625 41.8125 23.2813 42 24 42C24.7187 42 25.4375 41.8203 26.1562 41.4609C26.875 41.1016 27.5156 40.6562 28.0781 40.125C28.6406 39.5938 29.2813 38.8437 30 37.875C30.7187 36.9063 31.3359 36.0234 31.8516 35.2266C32.3672 34.4297 33.0469 33.375 33.8906 32.0625L36 28.7812C37.8437 26.0625 39.3438 23.3125 40.5 20.5312C41.6562 17.75 42.1562 15.4063 42 13.5C42 11.4375 41.2656 9.67188 39.7969 8.20312C38.3281 6.73437 36.5625 6 34.5 6Z" fill="#FCB527"/>
</svg>
