<svg width="29" height="32" viewBox="0 0 29 32" fill="none" xmlns="http://www.w3.org/2000/svg">
<path d="M15.5063 3.43881V2.81357H15.944C16.6318 2.81357 17.132 2.25085 17.132 1.62562V1.18795C17.132 0.50019 16.5693 0 15.944 0H12.3176C11.6299 0 11.1297 0.562714 11.1297 1.18795V1.62562C11.1297 2.31338 11.6924 2.81357 12.3176 2.81357H12.9429V3.43881C5.75263 4.06404 0.00046031 10.0663 0.00046031 17.4441C-0.0620634 25.2596 6.25283 31.637 14.0683 31.6995C21.8838 31.7621 28.2612 25.4472 28.3237 17.6317C28.3237 10.2539 22.6966 4.12657 15.5063 3.43881ZM14.0683 27.2604C8.69126 27.2604 4.37712 22.8212 4.37712 17.4441C4.37712 12.0671 8.8163 7.75294 14.1933 7.75294C19.5704 7.75294 23.8845 12.1921 23.8845 17.5066C23.822 22.9462 19.4453 27.2604 14.0683 27.2604Z" fill="white"/>
<path d="M14.1305 10.2539C13.3177 10.3164 12.6299 10.8791 12.6299 11.692C12.6299 13.3801 12.6299 15.0682 12.6299 16.7564C12.6299 17.0065 12.6299 17.2566 12.6299 17.4441C12.6299 18.1944 13.3177 18.9447 14.0679 18.9447C14.8807 18.8822 15.5685 18.3195 15.5685 17.5067C15.5685 15.8185 15.5685 14.1304 15.5685 12.4422C15.5685 12.1921 15.5685 11.942 15.5685 11.7545C15.631 10.9417 14.9433 10.2539 14.1305 10.2539Z" fill="white"/>
</svg>
