<svg width="46" height="48" viewBox="0 0 46 48" fill="none" xmlns="http://www.w3.org/2000/svg">
<path d="M28.7 39.0001C30.8 39.0001 34.1 37.6001 34.1 33.8001C34.1 30.6001 30.5 26.3001 29.8 25.4001C29.2 24.8001 28 24.8001 27.3 25.4001C26.5 26.2001 23 30.6001 23 33.8001C23.2 37.6001 26.6 39.0001 28.7 39.0001ZM28.7 29.2001C29.9 30.9001 30.9 32.8001 30.9 33.8001C30.9 35.7001 28.7 35.7001 28.6 35.7001C28.5 35.7001 26.3 35.7001 26.3 33.8001C26.5 32.8001 27.5 30.9001 28.7 29.2001Z" fill="#866EEA"/>
<path d="M16.9988 26.6C19.0988 26.6 22.3988 25.2 22.3988 21.4C22.3988 18.2 18.7988 13.9 18.0988 13C17.4988 12.4 16.2988 12.4 15.5988 13C14.7988 13.8 11.2988 18.2 11.2988 21.4C11.4988 25.2 14.8988 26.6 16.9988 26.6ZM16.9988 16.7C18.1988 18.4 19.1988 20.3 19.1988 21.3C19.1988 23.2 16.9988 23.2 16.8988 23.2C16.7988 23.2 14.5988 23.2 14.5988 21.3C14.6988 20.3 15.8988 18.4 16.9988 16.7Z" fill="#866EEA"/>
<path d="M28.7 14.1C30.8 14.1 34.1 12.7 34.1 8.90005C34.1 5.70005 30.5 1.40005 29.8 0.500049C29.2 -0.0999512 28 -0.0999512 27.3 0.500049C26.5 1.30005 23 5.70005 23 8.90005C23.2 12.7 26.6 14.1 28.7 14.1ZM28.7 4.30005C29.8 6.00005 31 7.90005 31 8.90005C31 10.8 28.8 10.8 28.7 10.8C28.6 10.8 26.4 10.8 26.4 8.90005C26.5 7.90005 27.5 5.90005 28.7 4.30005Z" fill="#866EEA"/>
<path d="M44.3991 39.7C43.0991 37.4 40.0991 36.6 37.2991 36.2C36.3991 36.1 35.5991 36.6 35.4991 37.5C35.3991 38.4 35.8991 39.2 36.7991 39.3C39.4991 39.8 41.1991 40.5 41.5991 41.2C41.6991 41.5 41.9991 41.8 41.8991 42.1C41.3991 43.4 36.5991 44.2 34.3991 44.6C32.2991 45 29.9991 44.2 27.8991 43.6C25.2991 42.8 22.6991 41.9 21.3991 44C20.8991 44.5 17.3991 45 14.1991 44.3C12.0991 43.9 11.4991 43.3 11.3991 43C10.4991 40.9 8.19909 40.3 6.39909 39.9C5.79909 39.8 4.69909 39.5 4.29909 39.3V39C4.89909 37.2 9.29909 36.3 11.9991 36.2H12.0991H12.4991C14.7991 35.9 16.8991 35.6 19.1991 35.9C20.0991 36 20.8991 35.4 20.9991 34.5C21.0991 33.6 20.4991 32.8 19.5991 32.7C16.7991 32.3 14.3991 32.7 11.9991 33H11.6991C10.3991 33 2.69909 33.5 1.09909 37.9C0.699091 38.9 0.699091 39.8 1.19909 40.6C1.99909 42 3.69909 42.5 5.29909 42.9C6.49909 43.2 7.89909 43.5 8.09909 44.2C9.29909 47 13.9991 47.7 15.9991 47.8C17.3991 47.9 22.1991 48.1 23.6991 45.9C24.1991 45.9 25.5991 46.3 26.4991 46.7C28.2991 47.3 30.4991 48 32.7991 48C33.2991 48 33.9991 48 34.4991 47.9C39.3991 47 43.0991 46.1 44.2991 43.5C45.1991 42.8 45.3991 41.3 44.3991 39.7Z" fill="#866EEA"/>
</svg>
