<svg width="400" height="115" viewBox="0 0 400 115" fill="none" xmlns="http://www.w3.org/2000/svg">
<path d="M0 111.439H31.0255L27.1111 50.7157H3.62448L0 111.439ZM0 28.3973C0 36.803 6.959 43.9043 15.3678 43.9043C23.7766 43.9043 30.7356 36.803 30.7356 28.3973C30.7356 20.1366 23.7766 13.0353 15.3678 13.0353C6.959 13.0353 0 20.1366 0 28.3973Z" fill="white"/>
<path d="M137.624 107.092L157.922 37.0928H130.955L121.677 75.6428L109.498 37.0928H86.1568L73.8336 75.6428L64.5549 37.0928H37.7337L58.0308 107.092H86.4467L97.7551 67.9618L109.208 107.092H137.624Z" fill="white"/>
<path d="M197.89 108.831C222.827 108.831 237.325 91.5846 237.325 72.0197C237.325 52.4549 222.827 35.3537 197.89 35.3537C173.099 35.3537 158.601 52.4549 158.601 72.0197C158.601 91.5846 173.099 108.831 197.89 108.831ZM197.89 85.7876C189.917 85.7876 185.422 79.8457 185.422 72.0197C185.422 64.3387 189.917 58.3968 197.89 58.3968C206.009 58.3968 210.504 64.3387 210.504 72.0197C210.504 79.8457 206.009 85.7876 197.89 85.7876Z" fill="white"/>
<path d="M337.962 107.092L358.259 37.0928H331.293L322.014 75.6428L309.836 37.0928H286.494L274.171 75.6428L264.892 37.0928H238.071L258.368 107.092H286.784L298.093 67.9618L309.546 107.092H337.962Z" fill="white"/>
<path d="M396.376 76.7502L400 16.0267H368.974L372.889 76.7502H396.376ZM384.632 114.286C393.041 114.286 400 107.184 400 98.9237C400 90.5181 393.041 83.4168 384.632 83.4168C376.223 83.4168 369.264 90.5181 369.264 98.9237C369.264 107.184 376.223 114.286 384.632 114.286Z" fill="white"/>
<path d="M100.535 24.5648V23.4778H86.9069V12.6809H100.281V11.594H86.9069V1.48548H100.535V0.398543H85.7471V24.5648H100.535Z" fill="white"/>
<path d="M124.986 24.5648L114.983 12.1375L124.443 0.398543H122.884L114.33 11.2317L105.777 0.398543H104.218L113.678 12.1737L103.674 24.5648H105.197L114.33 13.0432L123.464 24.5648H124.986Z" fill="white"/>
<path d="M147.882 24.5648V0.398543H146.722V11.594H130.231V0.398543H129.071V24.5648H130.231V12.6809H146.722V24.5648H147.882Z" fill="white"/>
<path d="M155.432 24.5648V0.398543H154.272V24.5648H155.432Z" fill="white"/>
<path d="M171.054 24.5648C175.295 24.5648 177.977 22.1735 177.977 18.0431C177.977 15.2533 175.802 12.4998 173.229 12.1012C175.367 11.6665 177.506 9.60127 177.506 6.55785C177.506 2.57242 174.787 0.398543 170.909 0.398543H161.812V24.5648H171.054ZM170.909 11.594H162.971V1.48548H170.909C174.461 1.48548 176.237 3.80428 176.237 6.55785C176.237 9.34766 174.461 11.594 170.909 11.594ZM171.054 23.4778H162.971V12.6809H171.054C174.823 12.6809 176.708 15.3258 176.708 18.0794C176.708 21.3764 174.606 23.4778 171.054 23.4778Z" fill="white"/>
<path d="M184.704 24.5648V0.398543H183.544V24.5648H184.704Z" fill="white"/>
<path d="M202.319 24.9995C205.726 24.9995 208.481 23.7314 210.764 21.159L209.822 20.3982C208.119 22.5358 205.328 23.9126 202.319 23.9126C196.267 23.9126 191.518 19.2388 191.518 12.4998C191.518 5.6883 196.267 1.08694 202.319 1.08694C205.328 1.08694 208.119 2.46372 209.822 4.60137L210.728 3.80428C208.59 1.34056 205.726 0 202.319 0C195.614 0 190.25 5.07237 190.25 12.4998C190.25 19.9272 195.614 24.9995 202.319 24.9995Z" fill="white"/>
<path d="M216.418 24.5648V0.398543H215.259V24.5648H216.418Z" fill="white"/>
<path d="M233.454 24.9995C240.449 24.9995 244.943 19.4924 244.943 12.4998C244.943 5.50715 240.449 0 233.454 0C226.422 0 221.964 5.50715 221.964 12.4998C221.964 19.4924 226.422 24.9995 233.454 24.9995ZM233.454 23.9126C227.183 23.9126 223.233 19.0576 223.233 12.4998C223.233 5.86946 227.183 1.08694 233.454 1.08694C239.652 1.08694 243.675 5.86946 243.675 12.4998C243.675 19.0576 239.652 23.9126 233.454 23.9126Z" fill="white"/>
<path d="M269.107 24.5648V0.398543H267.947V22.4634L251.637 0.398543H250.477V24.5648H251.637V2.28257L267.947 24.5648H269.107Z" fill="white"/>
<path d="M290.289 24.5648V23.4778H276.661V12.6809H290.035V11.594H276.661V1.48548H290.289V0.398543H275.501V24.5648H290.289Z" fill="white"/>
<path d="M302.889 24.9995C309.413 24.9995 311.152 21.159 311.152 18.4417C311.152 9.42012 296.473 13.0432 296.473 6.15931C296.473 3.18835 299.264 1.08694 302.78 1.08694C305.571 1.08694 307.999 2.02895 309.703 4.23905L310.609 3.40573C308.905 1.30432 306.332 0 302.78 0C298.793 0 295.205 2.24634 295.205 6.15931C295.205 14.42 309.884 10.4708 309.884 18.4417C309.884 20.7243 308.47 23.9126 302.889 23.9126C299.409 23.9126 296.872 22.1373 295.386 20.3257L294.443 21.159C296.183 23.3691 299.119 24.9995 302.889 24.9995Z" fill="white"/>
</svg>
