<svg width="42" height="49" viewBox="0 0 42 49" fill="none" xmlns="http://www.w3.org/2000/svg">
<path d="M37.5 16.7C35.1 13.8 31.7 12.3 27.7 12.3C25.4 12.3 23.7 12.9 22.5 13.4C22.9 10.8 23.8 7.5 25.9 6.9C26.4 6.8 26.8 6.5 27 6C27.3 5.6 27.3 5.1 27.2 4.6C27.1 4.1 26.8 3.7 26.3 3.5C25.9 3.2 25.4 3.2 24.9 3.3C23.5 3.7 22.4 4.4 21.4 5.6C20.6 4.2 19.3 2.6 17.5 1.5C15.8 0.5 13.8 0 11.5 0C9.6 0 8.1 0.4 8 0.4C7 0.7 6.4 1.7 6.7 2.7C6.8 2.9 8.1 8.1 12.2 10.5C14 11.6 16.3 12.1 18.9 12C18.8 12.5 18.7 12.9 18.7 13.4C17.4 12.8 15.8 12.2 13.4 12.2C5.1 12.2 0 18.4 0 28.3C0 37.7 7 49 15.7 49C17.8 49 19.1 48.6 20.6 48.1C22.1 48.7 23.4 49 25.5 49C34.2 49 41.2 37.7 41.2 28.3C41.1 23.6 39.8 19.5 37.5 16.7ZM17.6 18C17.3 17.6 16.8 17.4 16.3 17.3C15.8 17.3 15.3 17.4 14.9 17.7C14.5 18 14.3 18.5 14.2 19C14.2 19.5 14.3 20 14.6 20.4C16 22.1 18.1 23.1 20.3 23.1C20.4 23.1 20.4 23.1 20.4 23.1H20.5C22.7 23 24.7 22.1 26 20.4C26.3 20 26.5 19.5 26.4 19C26.4 18.5 26.1 18 25.7 17.7C24.9 17 23.7 17.2 23 18C22.7 18.4 22.4 18.6 22 18.9C22 18.6 22 18.3 22 17.9C22.3 17.8 22.5 17.6 22.8 17.5C24 16.8 25.2 16.1 27.5 16.1C33.5 16.1 37.1 20.7 37.1 28.5C37.1 36.9 31.1 45.4 25.2 45.4C23.5 45.4 22.8 45.1 21 44.4C20.8 44.3 20.6 44.3 20.3 44.3C20.1 44.3 19.8 44.3 19.6 44.4C17.8 45.1 17.1 45.4 15.4 45.4C9.5 45.4 3.5 36.9 3.5 28.5C3.5 20.8 7.1 16.1 13.1 16.1C15.4 16.1 16.5 16.8 17.8 17.5C17.9 17.6 18 17.6 18.1 17.7C18.1 18.1 18.1 18.4 18.1 18.8C18.1 18.5 17.8 18.3 17.6 18ZM18.6 8.3C16.8 8.4 15.3 8 14.1 7.3C12.7 6.4 11.7 5 11.1 3.8C12.9 3.7 14.4 4.1 15.6 4.8C17 5.7 18 7.2 18.6 8.3Z" fill="#866EEA"/>
</svg>
