<svg width="26" height="26" viewBox="0 0 26 26" fill="none" xmlns="http://www.w3.org/2000/svg">
<path d="M26 9.75C26 10.4609 25.9238 11.1042 25.7715 11.6797C25.6191 12.2552 25.4329 12.7588 25.2129 13.1904C24.9928 13.6221 24.6543 13.9987 24.1973 14.3203C23.7402 14.6419 23.3298 14.9128 22.9658 15.1328C22.6019 15.3529 22.0645 15.5348 21.3535 15.6787C20.6426 15.8226 20.0544 15.9326 19.5889 16.0088C19.1234 16.085 18.4336 16.14 17.5195 16.1738C16.6055 16.2077 15.8861 16.2288 15.3613 16.2373C14.8366 16.2458 14.0495 16.25 13 16.25C11.9505 16.25 11.1634 16.2458 10.6387 16.2373C10.1139 16.2288 9.39453 16.2077 8.48047 16.1738C7.56641 16.14 6.87663 16.085 6.41113 16.0088C5.94564 15.9326 5.35742 15.8226 4.64648 15.6787C3.93555 15.5348 3.39811 15.3529 3.03418 15.1328C2.67025 14.9128 2.25977 14.6419 1.80273 14.3203C1.3457 13.9987 1.00716 13.6221 0.787109 13.1904C0.567057 12.7588 0.380859 12.2552 0.228516 11.6797C0.0761719 11.1042 0 10.4609 0 9.75C0 8.5651 0.330078 7.3929 0.990234 6.2334C1.65039 5.07389 2.56445 4.02865 3.73242 3.09766L3.25 1.625L7.92188 0.837891C9.54688 0.279297 11.2396 0 13 0C16.0469 0 18.7975 0.795573 21.252 2.38672L22.75 1.625L25.1875 6.5L25.1621 6.52539C25.7207 7.60872 26 8.68359 26 9.75ZM23.8926 7.36328L22.75 8.125L17.875 4.0625L19.6016 3.19922C17.5872 2.14974 15.3867 1.625 13 1.625C11.6628 1.625 10.3424 1.80273 9.03906 2.1582L9.75 3.25L4.875 6.5L4.24023 4.62109C3.41081 5.3151 2.76758 6.07682 2.31055 6.90625C1.85352 7.73568 1.625 8.57357 1.625 9.41992C1.625 10.8249 2.01432 11.9251 2.79297 12.7207L3.25 11.375L8.125 13L7.18555 14.4219C8.35352 14.5573 10.2917 14.625 13 14.625C14.5573 14.625 15.7083 14.6165 16.4531 14.5996L17.0625 12.1875L21.125 11.375L22.293 13.4316C23.681 12.6361 24.375 11.2988 24.375 9.41992C24.375 8.74284 24.2142 8.05729 23.8926 7.36328ZM9.75 8.9375L11.375 4.875L16.25 6.5L15.4375 9.75L9.75 8.9375ZM5.58594 24.8574C4.02865 24.248 3.25 23.5456 3.25 22.75L1.625 16.25C2.52214 16.707 3.63932 17.0625 4.97656 17.3164L5.58594 24.8574ZM9.75 25.8223C8.86979 25.7038 8.04036 25.5514 7.26172 25.3652L6.60156 17.5957C7.54948 17.7142 8.59896 17.7904 9.75 17.8242V25.8223ZM14.625 17.875V25.9492C14.0495 25.9831 13.5078 26 13 26C12.4922 26 11.9505 25.9831 11.375 25.9492V17.875H14.625ZM18.7383 25.3652C17.9596 25.5514 17.1302 25.7038 16.25 25.8223V17.8242C17.401 17.7904 18.4505 17.7142 19.3984 17.5957L18.7383 25.3652ZM24.375 16.25L22.75 22.75C22.75 23.5456 21.9714 24.248 20.4141 24.8574L21.0234 17.3164C22.3607 17.0625 23.4779 16.707 24.375 16.25Z" fill="white"/>
</svg>
