<svg width="96" height="112" viewBox="0 0 96 112" fill="none" xmlns="http://www.w3.org/2000/svg">
<g style="mix-blend-mode:multiply">
<circle cx="48" cy="64" r="48" fill="#D1E1EE"/>
</g>
<circle opacity="0.5" cx="48" cy="48" r="48" fill="#866EEA"/>
<circle cx="48" cy="56" r="48" fill="#866EEA"/>
<path d="M72 56C72 49.6348 69.4714 43.5303 64.9706 39.0294C60.4697 34.5286 54.3652 32 48 32C41.6348 32 35.5303 34.5286 31.0294 39.0294C26.5286 43.5303 24 49.6348 24 56C24 62.3652 26.5286 68.4697 31.0294 72.9706C35.5303 77.4714 41.6348 80 48 80C54.3652 80 60.4697 77.4714 64.9706 72.9706C69.4714 68.4697 72 62.3652 72 56V56ZM49.5 66.5C49.5 66.8978 49.342 67.2794 49.0607 67.5607C48.7794 67.842 48.3978 68 48 68C47.6022 68 47.2206 67.842 46.9393 67.5607C46.658 67.2794 46.5 66.8978 46.5 66.5V49.121L40.062 55.562C39.9225 55.7015 39.757 55.8121 39.5748 55.8876C39.3925 55.963 39.1972 56.0019 39 56.0019C38.8028 56.0019 38.6075 55.963 38.4252 55.8876C38.243 55.8121 38.0775 55.7015 37.938 55.562C37.7985 55.4225 37.6879 55.257 37.6124 55.0748C37.537 54.8925 37.4981 54.6972 37.4981 54.5C37.4981 54.3028 37.537 54.1075 37.6124 53.9252C37.6879 53.743 37.7985 53.5775 37.938 53.438L46.938 44.438C47.0773 44.2983 47.2429 44.1875 47.4251 44.1119C47.6073 44.0362 47.8027 43.9973 48 43.9973C48.1973 43.9973 48.3927 44.0362 48.5749 44.1119C48.7571 44.1875 48.9227 44.2983 49.062 44.438L58.062 53.438C58.3437 53.7197 58.5019 54.1017 58.5019 54.5C58.5019 54.8983 58.3437 55.2803 58.062 55.562C57.7803 55.8437 57.3983 56.0019 57 56.0019C56.6017 56.0019 56.2197 55.8437 55.938 55.562L49.5 49.121V66.5Z" fill="white"/>
</svg>
