<svg width="26" height="16" viewBox="0 0 26 16" fill="none" xmlns="http://www.w3.org/2000/svg">
<path d="M23.1168 2.17207C21.389 0.791679 19.0742 0 16.766 0C14.2362 0 12.1714 0.998054 10.4537 3.05119C9.62548 4.04112 8.94319 5.20493 8.34534 6.39194C5.02866 6.51031 3.03784 7.8551 1.93857 8.99143C0.599473 10.3758 0 12.0544 0 13.1038C0 13.8415 0.0776953 14.6721 0.654215 15.2389C1.2347 15.8096 2.09356 15.8866 2.85711 15.8866C2.85817 15.8866 2.85919 15.8866 2.8603 15.8866C2.97609 15.8865 3.09034 15.8813 3.20328 15.8711C4.14111 15.7912 5.3201 15.4156 6.56002 15.0206C7.98835 14.5655 9.46532 14.095 10.5093 14.095C12.1934 14.095 13.2421 14.3393 14.3524 14.5979C15.4059 14.8434 16.4952 15.0971 18.0719 15.0971C19.2094 15.0971 21.3942 14.9003 23.2468 13.5819C25.048 12.3003 26 10.3032 26 7.8067C26 5.6585 24.976 3.65742 23.1168 2.17207ZM2.89941 14.3628C2.88737 14.363 2.87589 14.3651 2.86355 14.3632C2.86254 14.3631 2.86173 14.3631 2.86071 14.3632C2.85949 14.3632 2.85827 14.3632 2.85711 14.3632C2.0962 14.3632 1.82 14.2487 1.72225 14.1526C1.59032 14.0229 1.52344 13.6701 1.52344 13.1038C1.52344 12.504 1.92562 11.1959 3.03357 10.0506C3.84561 9.21121 5.26612 8.23342 7.59368 7.97321C7.43676 8.31873 7.28472 8.66054 7.13603 8.99478C5.86427 11.8538 4.76455 14.3258 2.89941 14.3628ZM18.0719 13.5738C16.6703 13.5738 15.7122 13.3506 14.698 13.1143C13.5527 12.8475 12.3685 12.5716 10.5093 12.5716C9.37483 12.5716 7.99642 12.9695 6.6266 13.4012C7.31986 12.33 7.90877 11.0061 8.528 9.61396C8.8398 8.91307 9.15347 8.20782 9.48401 7.52177C9.50087 7.49216 9.5158 7.46139 9.52864 7.4295C11.0663 4.26116 12.9811 1.52339 16.766 1.52339C20.4897 1.52334 24.4766 4.04818 24.4766 7.8067C24.4766 13.2957 19.1414 13.5738 18.0719 13.5738Z" fill="white"/>
<path d="M15.9426 8.63091C15.8009 8.48923 15.6049 8.40793 15.4043 8.40793C15.2038 8.40793 15.0072 8.48923 14.8656 8.63091C14.7239 8.77259 14.6426 8.96911 14.6426 9.16965C14.6426 9.37023 14.7239 9.56676 14.8656 9.70844C15.0072 9.85012 15.2038 9.93137 15.4043 9.93137C15.6049 9.93137 15.8009 9.85012 15.9426 9.70844C16.0848 9.56676 16.166 9.37023 16.166 9.16965C16.166 8.96911 16.0848 8.7731 15.9426 8.63091Z" fill="white"/>
<path d="M19.5329 5.75677C19.3912 5.61504 19.1947 5.53384 18.9941 5.53384C18.7936 5.53384 18.5975 5.61509 18.4554 5.75677C18.3137 5.89901 18.2324 6.09498 18.2324 6.29556C18.2324 6.49615 18.3137 6.69267 18.4554 6.83435C18.5975 6.97603 18.7941 7.05728 18.9941 7.05728C19.1947 7.05728 19.3907 6.97603 19.5329 6.83435C19.6746 6.69211 19.7559 6.49615 19.7559 6.29556C19.7559 6.09543 19.6746 5.89896 19.5329 5.75677Z" fill="white"/>
</svg>
