<svg width="50" height="50" viewBox="0 0 50 50" fill="none" xmlns="http://www.w3.org/2000/svg">
<path d="M41.4004 24H34.2004L37.5004 14.6C37.9004 13.5 37.3004 12.3 36.2004 11.9C35.3004 11.6 34.4004 11.9 33.8004 12.6C33.2004 13.4 31.4004 14.4 30.2004 14.4C28.9004 14.4 27.8004 13.8 27.0004 12.7V5.89998C27.0004 2.99998 24.6004 0.599976 21.7004 0.599976C18.8004 0.599976 16.4004 2.99998 16.4004 5.89998V6.99998C16.4004 7.59998 16.6004 8.09998 17.0004 8.49998C17.4004 8.89998 17.9004 9.09998 18.5004 9.09998C19.7004 9.09998 20.6004 8.19998 20.6004 6.99998V5.89998C20.6004 5.29998 21.1004 4.79998 21.7004 4.79998C22.3004 4.79998 22.8004 5.29998 22.8004 5.89998V12.7C22.0004 13.8 20.8004 14.4 19.6004 14.4C18.3004 14.4 16.6004 13.4 16.0004 12.6C15.3004 11.7 14.0004 11.5 13.1004 12.2C12.4004 12.8 12.1004 13.7 12.4004 14.6L15.7004 24H8.50039C8.40039 24 8.40039 24 8.30039 24C7.20039 24.1 6.40039 25 6.40039 26.1V42.5C6.40039 43 6.60039 43.5 6.90039 43.9L11.1004 48.7C11.5004 49.2 12.1004 49.4 12.7004 49.4H37.1004C37.7004 49.4 38.3004 49.1 38.7004 48.7L42.9004 43.9C43.2004 43.5 43.4004 43 43.4004 42.5V26.1C43.5004 24.9 42.6004 24 41.4004 24ZM19.7004 18.6C21.6004 18.6 23.5004 17.9 25.0004 16.5C26.5004 17.8 28.4004 18.6 30.3004 18.6C30.8004 18.6 31.2004 18.6 31.8004 18.4L29.8004 23.9H20.2004L18.2004 18.4C18.8004 18.6 19.2004 18.6 19.7004 18.6ZM39.3004 41.7L36.2004 45.2H13.8004L10.7004 41.7V28.2H39.4004V41.7H39.3004Z" fill="#866EEA"/>
<path d="M25.0004 40.4C23.8004 40.4 22.9004 41.3 22.9004 42.5C22.9004 43.7 23.8004 44.6 25.0004 44.6C26.2004 44.6 27.1004 43.7 27.1004 42.5C27.1004 41.3 26.2004 40.4 25.0004 40.4Z" fill="#866EEA"/>
<path d="M21.2996 36.5999C22.4996 36.5999 23.3996 35.6999 23.3996 34.4999C23.3996 33.5999 24.0996 32.8999 24.9996 32.8999C25.8996 32.8999 26.5996 33.5999 26.5996 34.4999C26.5996 34.8999 26.4996 35.2999 26.1996 35.4999C25.6996 35.9999 25.1996 36.2999 24.8996 36.4999C23.8996 37.0999 23.5996 38.3999 24.1996 39.3999C24.5996 39.9999 25.2996 40.3999 25.9996 40.3999C26.3996 40.3999 26.7996 40.2999 27.0996 40.0999C27.7996 39.6999 28.4996 39.1999 28.9996 38.5999C30.0996 37.5999 30.6996 36.1999 30.6996 34.5999C30.6996 31.3999 28.0996 28.7999 24.8996 28.7999C21.6996 28.7999 19.0996 31.3999 19.0996 34.4999C19.0996 35.0999 19.2996 35.5999 19.6996 35.9999C20.1996 36.3999 20.6996 36.5999 21.2996 36.5999Z" fill="#866EEA"/>
</svg>
