<svg width="54" height="54" viewBox="0 0 54 54" fill="none" xmlns="http://www.w3.org/2000/svg">
<path d="M42.0117 24.084L46.7637 31.212C56.8077 46.44 32.9397 62.208 22.7877 46.98L18.0357 39.852C14.6877 34.776 15.1197 29.7 17.4957 25.704C12.9597 23.76 5.07573 23.76 5.07573 23.76C3.88773 23.76 3.45573 22.356 4.31973 21.6C4.85973 21.06 7.55973 18.792 11.2317 17.712C7.99173 16.416 4.64373 16.092 4.21173 16.092C3.13173 15.984 2.59173 14.688 3.45573 13.932C3.88773 13.608 4.31973 13.284 4.75173 12.96C6.80373 11.556 9.17973 10.908 11.5557 11.016L11.2317 5.40004C11.2317 4.75204 11.6637 4.10404 12.4197 4.10404C12.6357 4.10404 12.8517 4.10404 13.0677 4.21204L18.0357 6.69604C18.8997 4.53604 20.5197 2.59204 22.5717 1.18804C23.7597 0.432042 26.4597 -0.323958 25.5957 2.05204C25.3797 2.70004 24.4077 5.72404 24.2997 9.07204C26.5677 6.26404 29.5917 4.75204 30.4557 4.32004C31.6437 3.78004 32.7237 4.64404 32.2917 5.83204C32.2917 5.83204 29.2677 13.068 29.2677 18.036C33.8037 17.388 38.6637 19.008 42.0117 24.084ZM32.8317 20.52L29.5917 26.352L35.9637 25.596L37.5837 22.68C36.0717 21.492 34.4517 20.844 32.8317 20.52ZM39.3117 24.516L38.8797 25.272L39.7437 25.164C39.6357 24.948 39.4197 24.732 39.3117 24.516ZM41.2557 27.432L37.3677 27.864L34.1277 33.588L40.6077 32.832L42.5517 29.484L41.2557 27.432ZM44.1717 31.752L43.7397 32.508L44.6037 32.4L44.1717 31.752ZM45.7917 34.668L42.2277 35.1L39.0957 40.716L46.5477 39.852C46.7637 38.232 46.5477 36.504 45.7917 34.668ZM46.0077 42.336L37.6917 43.308L33.4797 50.652C38.7717 50.868 44.1717 47.304 46.0077 42.336ZM30.8877 50.22L34.6677 43.632L28.2957 44.388L26.4597 47.628C27.7557 48.924 29.2677 49.788 30.8877 50.22ZM24.8397 45.576L25.2717 44.712L24.2997 44.82L24.8397 45.576ZM22.7877 42.552L26.7837 42.12L30.0237 36.396L23.5437 37.152L21.5997 40.608L22.7877 42.552ZM19.9797 38.232L20.4117 37.368L19.5477 37.476C19.7637 37.8 19.8717 38.016 19.9797 38.232ZM18.5757 35.208L21.9237 34.776L25.0557 29.16L18.3597 30.024C18.0357 31.644 18.0357 33.372 18.5757 35.208ZM19.3317 27.432L26.5677 26.568L30.1317 20.304C25.7037 20.628 21.3837 23.544 19.3317 27.432ZM31.3197 33.804L34.4517 28.188L28.0797 28.944L24.9477 34.56L31.3197 33.804ZM36.0717 41.04L39.2037 35.424L32.8317 36.18L29.6997 41.796L36.0717 41.04ZM13.9317 11.232C15.0117 11.448 16.0917 11.88 17.0637 12.42C16.9557 11.34 16.9557 10.152 17.1717 9.07204L13.7157 7.34404L13.9317 11.232ZM17.3877 23.004C17.0637 22.464 16.6317 21.924 16.3077 21.384C15.8757 20.628 15.2277 19.98 14.5797 19.44C12.2037 19.548 10.1517 20.412 8.63973 21.384C11.1237 21.6 14.5797 22.032 17.3877 23.004ZM19.9797 22.464C20.4117 22.032 20.9517 21.6 21.3837 21.168L18.6837 17.064C16.3077 13.392 11.5557 12.42 7.55973 13.932C10.9077 14.58 15.7677 16.2 18.2517 19.98C18.8997 20.844 19.4397 21.708 19.9797 22.464ZM24.6237 12.852C24.8397 13.716 25.1637 14.472 25.7037 15.228L26.7837 16.848C26.9997 13.824 27.9717 10.476 28.7277 8.10004C27.3237 9.18004 25.7037 10.692 24.6237 12.852ZM23.5437 19.872C24.0837 19.548 24.7317 19.224 25.2717 19.008C24.7317 18.144 24.1917 17.388 23.6517 16.524C21.1677 12.852 21.5997 7.66804 22.2477 4.32004C19.2237 7.34404 18.3597 12.096 20.7357 15.768L23.5437 19.872Z" fill="#866EEA"/>
</svg>
