<svg width="58" height="58" viewBox="0 0 58 58" fill="none" xmlns="http://www.w3.org/2000/svg">
<path fill-rule="evenodd" clip-rule="evenodd" d="M4.36957 14.7895C4.20401 14.7895 4.04524 14.856 3.92817 14.9745C3.81111 15.0929 3.74534 15.2535 3.74534 15.4211V54.5789C3.74534 54.9276 4.02499 55.2105 4.36957 55.2105H12.3047L33.7081 32.4156C34.1098 31.9878 34.5921 31.6458 35.1265 31.4096C35.6609 31.1734 36.2367 31.0478 36.8198 31.0403C37.403 31.0328 37.9817 31.1434 38.5219 31.3657C39.0621 31.588 39.5529 31.9175 39.9653 32.3347L53.6832 46.2168V15.4211C53.6832 15.2535 53.6175 15.0929 53.5004 14.9745C53.3833 14.856 53.2246 14.7895 53.059 14.7895H4.36957ZM13.0987 59H53.059C54.2179 59 55.3293 58.5342 56.1488 57.7051C56.9682 56.876 57.4286 55.7515 57.4286 54.5789V15.4211C57.4286 14.2485 56.9682 13.124 56.1488 12.2949C55.3293 11.4658 54.2179 11 53.059 11H4.36957C3.21068 11 2.09927 11.4658 1.27982 12.2949C0.460364 13.124 0 14.2485 0 15.4211V54.5789C0 57.0194 1.95757 59 4.36957 59H13.0987ZM53.6832 54.5789V51.5726L37.3161 35.0152C37.2573 34.9555 37.1872 34.9083 37.1101 34.8764C37.033 34.8445 36.9503 34.8286 36.867 34.8295C36.7837 34.8305 36.7015 34.8483 36.6251 34.8819C36.5487 34.9155 36.4797 34.9643 36.4222 35.0253L17.4708 55.2105H53.059C53.2246 55.2105 53.3833 55.144 53.5004 55.0255C53.6175 54.9071 53.6832 54.7465 53.6832 54.5789ZM21.2236 28.0526C21.2236 28.6332 21.1106 29.2081 20.891 29.7445C20.6714 30.2809 20.3495 30.7683 19.9438 31.1788C19.538 31.5893 19.0563 31.915 18.5262 32.1371C17.9961 32.3593 17.4279 32.4737 16.854 32.4737C16.2802 32.4737 15.712 32.3593 15.1819 32.1371C14.6517 31.915 14.17 31.5893 13.7643 31.1788C13.3585 30.7683 13.0367 30.2809 12.8171 29.7445C12.5975 29.2081 12.4845 28.6332 12.4845 28.0526C12.4845 26.8801 12.9448 25.7556 13.7643 24.9265C14.5837 24.0974 15.6952 23.6316 16.854 23.6316C18.0129 23.6316 19.1243 24.0974 19.9438 24.9265C20.7632 25.7556 21.2236 26.8801 21.2236 28.0526ZM24.9689 28.0526C24.9689 30.2302 24.114 32.3186 22.5921 33.8583C21.0703 35.3981 19.0062 36.2632 16.854 36.2632C14.7018 36.2632 12.6378 35.3981 11.1159 33.8583C9.59409 32.3186 8.73913 30.2302 8.73913 28.0526C8.73913 25.8751 9.59409 23.7867 11.1159 22.2469C12.6378 20.7071 14.7018 19.8421 16.854 19.8421C19.0062 19.8421 21.0703 20.7071 22.5921 22.2469C24.114 23.7867 24.9689 25.8751 24.9689 28.0526Z" fill="#6550E2"/>
</svg>
