<svg width="64" height="64" viewBox="0 0 64 64" fill="none" xmlns="http://www.w3.org/2000/svg">
<g clip-path="url(#clip0)">
<path d="M39.1851 47.896L38.6571 47.368C38.5251 47.236 38.3931 46.972 38.3931 46.84V45.388C38.3931 44.992 38.3931 44.728 37.9971 44.728H37.2051C37.0731 44.728 37.0731 44.728 36.9411 44.728C36.8091 44.728 36.8091 44.728 36.6771 44.728H35.8851C35.4891 44.728 35.4891 44.992 35.4891 45.388V46.84C35.4891 46.972 35.3571 47.236 35.2251 47.368L34.5651 47.896C34.3011 48.292 34.0371 48.82 34.0371 49.348V53.44C34.0371 54.1 34.5651 54.76 35.2251 54.76H36.8091H37.0731H38.6571C39.3171 54.76 39.8451 54.1 39.8451 53.44V49.348C39.7131 48.82 39.4491 48.292 39.1851 47.896Z" fill="#866EEA"/>
<path d="M39.579 15.6879C39.447 15.5559 39.315 15.424 39.051 15.424H34.035C33.639 15.424 33.375 15.688 33.375 16.084V19.1199C33.375 20.1759 34.167 20.9679 35.223 20.9679H37.863C38.919 20.9679 39.711 20.1759 39.711 19.1199V16.084C39.843 15.952 39.711 15.8199 39.579 15.6879Z" fill="#866EEA"/>
<path d="M39.7124 33.9041H36.8084C36.4124 33.9041 36.1484 34.1681 36.1484 34.5641V37.4681C36.1484 37.8641 36.4124 38.1281 36.8084 38.1281H39.7124C40.1084 38.1281 40.3724 37.8641 40.3724 37.4681V34.5641C40.3724 34.3001 40.1084 33.9041 39.7124 33.9041Z" fill="#866EEA"/>
<path d="M34.6968 33.9041H31.7928C31.3968 33.9041 31.1328 34.1681 31.1328 34.5641V37.4681C31.1328 37.8641 31.3968 38.1281 31.7928 38.1281H34.6968C35.0928 38.1281 35.3568 37.8641 35.3568 37.4681V34.5641C35.4888 34.3001 35.0928 33.9041 34.6968 33.9041Z" fill="#866EEA"/>
<path d="M38.2593 29.02H35.3553C34.9593 29.02 34.6953 29.284 34.6953 29.68V32.584C34.6953 32.98 34.9593 33.244 35.3553 33.244H38.2593C38.6553 33.244 38.9193 32.98 38.9193 32.584V29.68C39.0513 29.284 38.6553 29.02 38.2593 29.02Z" fill="#866EEA"/>
<path d="M25.06 60.832L15.028 56.74C14.764 56.608 14.5 56.344 14.5 55.948V6.44802C14.5 6.05202 14.764 5.78802 15.028 5.65602L25.06 1.56402C25.588 1.30002 26.248 1.69602 26.248 2.35602V60.04C26.248 60.7 25.588 61.096 25.06 60.832Z" stroke="#866EEA" stroke-width="3" stroke-miterlimit="10"/>
<path d="M20.4395 25.588C20.4395 28.756 20.4395 31.924 20.4395 35.092C20.4395 35.488 20.4395 36.016 20.4395 36.412C20.4395 37.864 22.8154 37.864 22.8154 36.412C22.8154 33.244 22.8154 30.076 22.8154 26.908C22.8154 26.512 22.8154 25.984 22.8154 25.588C22.8154 24.136 20.4395 24.136 20.4395 25.588Z" fill="#866EEA"/>
<path d="M42.0881 57.268H27.304C26.776 57.268 26.248 56.872 26.248 56.212V7.89999C26.248 7.37199 26.644 6.84399 27.304 6.84399H42.0881C42.6161 6.84399 43.1441 7.23999 43.1441 7.89999V56.212C43.0121 56.74 42.6161 57.268 42.0881 57.268Z" stroke="#866EEA" stroke-width="3" stroke-miterlimit="10"/>
<path d="M26.248 23.08H43.012" stroke="#866EEA" stroke-width="2" stroke-miterlimit="10"/>
<path d="M26.248 40.504H43.012" stroke="#866EEA" stroke-width="2" stroke-miterlimit="10"/>
</g>
<defs>
<clipPath id="clip0">
<rect width="64" height="64" fill="white"/>
</clipPath>
</defs>
</svg>
