<svg width="52" height="52" viewBox="0 0 52 52" fill="none" xmlns="http://www.w3.org/2000/svg">
<path d="M32.8641 14.4953C32.6561 14.8073 32.7601 15.1193 33.0721 15.3273C33.3841 15.5353 33.6961 15.4313 33.9041 15.1193C34.1121 14.8073 34.0081 14.4953 33.6961 14.2873C33.3841 14.0793 33.0721 14.1833 32.8641 14.4953Z" fill="#866EEA"/>
<path d="M43.6804 0.663264C43.3684 0.455264 43.0564 0.559277 42.8484 0.871277C42.6404 1.18328 42.7444 1.49526 43.0564 1.70326C43.3684 1.91126 43.6804 1.80725 43.8884 1.49525C43.9924 1.18325 43.8884 0.767264 43.6804 0.663264Z" fill="#866EEA"/>
<path d="M33.4878 16.7833C32.9678 16.4713 32.2398 16.6793 31.9278 17.1993C31.6158 17.7193 31.8238 18.4473 32.3438 18.7593C32.8638 19.0713 33.5918 18.8633 33.9038 18.3433C34.2158 17.8233 34.1118 17.0953 33.4878 16.7833Z" fill="#866EEA"/>
<path d="M41.7035 7.52725C39.9355 6.48725 38.1675 5.55126 36.6075 4.61526C35.9835 4.30326 35.2555 4.0953 34.5275 4.1993C33.7995 4.3033 33.1755 4.82325 32.8635 5.44725C32.6555 5.86325 32.5515 6.17527 32.5515 6.38327C32.3435 6.59127 32.0315 6.79929 31.8235 7.11129C31.5115 7.63129 31.5115 8.25529 31.6155 8.67129C29.5355 12.1033 24.2315 16.7833 20.9035 20.2153C20.7995 20.3193 20.6955 20.4232 20.5915 20.5272C16.6395 27.3912 15.8075 28.6393 13.2075 35.5033C13.3115 35.2953 12.6875 35.9192 11.7515 36.6472C10.8155 37.3752 9.6715 38.2073 8.8395 39.5593C7.5915 41.7433 8.21551 44.0312 9.15151 45.4872C10.5035 47.0472 12.4795 48.0873 14.0395 49.0233C15.9115 49.8553 17.6795 51.3113 19.5515 51.5193C21.3195 51.6233 23.7115 50.9993 24.9595 48.8153C25.7915 47.4633 25.9995 46.0073 26.1035 44.8633C26.2075 43.7193 26.5195 42.7833 26.3115 42.9913C30.4715 37.0633 31.6155 36.1273 35.6715 29.1593C35.7755 29.0553 35.7755 28.8473 35.8795 28.7433C37.2315 24.1673 38.6875 17.4073 40.6635 13.8713C41.0795 13.6633 41.5995 13.4553 41.9115 12.8313C42.1195 12.5193 42.2235 12.2073 42.2235 11.8953C42.4315 11.7913 42.7435 11.4792 42.9515 11.1672C43.2635 10.6472 43.4715 9.81525 43.1595 9.08725C42.8475 8.35925 42.3275 7.83925 41.7035 7.52725ZM23.2955 41.2233C22.5675 42.4713 22.6715 43.4072 22.5675 44.4472C22.4635 45.4872 22.2555 46.4232 21.8395 47.0472C21.4235 47.7752 20.5915 47.9833 19.8635 47.9833C18.4075 47.4633 16.9515 46.6312 15.7035 46.0072C14.3515 45.1752 13.1035 44.4473 11.9595 43.5113C11.5435 42.8873 11.3355 42.0552 11.7515 41.3272C12.0635 40.7032 12.8955 40.0793 13.7275 39.4553C14.5595 38.8313 15.4955 38.5193 16.2235 37.2713C16.6395 36.3353 17.0555 35.2953 17.3675 34.3593L25.0635 38.7272C24.4395 39.5592 23.8155 40.3913 23.2955 41.2233ZM27.1435 35.8153L18.7195 31.0313C19.5515 29.1593 20.5915 27.3913 22.0475 24.8953L31.0955 30.0953C29.5355 32.5913 28.3915 34.1513 27.1435 35.8153ZM32.7595 27.0793L23.9195 22.0872C26.7275 19.3832 30.7835 15.7433 33.3835 12.1033L36.7115 13.9753C34.8395 18.0313 33.7995 23.3353 32.7595 27.0793ZM38.6875 10.9593C38.3755 11.1673 37.9595 11.3753 37.7515 11.7913L34.7355 10.0233C34.9435 9.60727 35.0475 9.19126 35.0475 8.77526C35.4635 8.67126 35.6715 8.35925 35.8795 8.04725L38.8955 9.81526C38.6875 10.2313 38.6875 10.6473 38.6875 10.9593Z" fill="#866EEA"/>
<path d="M40.1443 1.70333C39.3123 1.18333 38.1683 1.4953 37.7523 2.3273C37.2323 3.1593 37.5443 4.30335 38.3763 4.71935C39.2083 5.23935 40.3523 4.92731 40.7683 4.09531C41.2883 3.26331 40.9763 2.22333 40.1443 1.70333Z" fill="#866EEA"/>
<path d="M43.2641 3.0553C42.8481 2.8473 42.3281 2.95128 42.0161 3.36728C41.8081 3.78328 41.9121 4.3033 42.3281 4.6153C42.7441 4.8233 43.2641 4.71931 43.5761 4.30331C43.7841 3.78331 43.6801 3.2633 43.2641 3.0553Z" fill="#866EEA"/>
</svg>
