<?xml version="1.0" encoding="utf-8"?>
<!-- Generator: Adobe Illustrator 24.1.2, SVG Export Plug-In . SVG Version: 6.00 Build 0)  -->
<svg version="1.1" id="Capa_1" xmlns="http://www.w3.org/2000/svg" xmlns:xlink="http://www.w3.org/1999/xlink" x="0px" y="0px"
	 viewBox="0 0 609 609" style="enable-background:new 0 0 609 609;" xml:space="preserve">
<style type="text/css">
	.st0{fill:#FFFFFF;}
</style>
<g id="surface1">
	<path class="st0" d="M439.4,0H159.9C143.4,0,130,13.4,130,29.9V569c0,16.5,13.4,29.9,29.9,29.9h279.5c16.5,0,29.9-13.4,29.9-29.9
		V29.9C469.4,13.4,456,0,439.4,0z M374.4,20l-4.3,10H229.3L225,20H374.4z M449.4,569c0,5.5-4.5,10-10,10H159.9c-5.5,0-10-4.5-10-10
		V29.9c0-5.5,4.5-10,10-10h43.3l10.2,23.9c1.6,3.7,5.2,6,9.2,6h154c4,0,7.6-2.4,9.2-6L396.1,20h43.3c5.5,0,10,4.5,10,10V569z"/>
	<path class="st0" d="M389.5,549H209.8c-5.5,0-10,4.5-10,10c0,5.5,4.5,10,10,10h179.7c5.5,0,10-4.5,10-10
		C399.5,553.5,395,549,389.5,549z"/>
	<path class="st0" d="M120,139.8c0-5.5-4.5-10-10-10H30.2c-16.5,0-30,13.4-30,29.9v279.5c0,16.5,13.4,29.9,30,29.9H110
		c5.5,0,10-4.5,10-10c0-5.5-4.5-10-10-10H30.2c-5.5,0-10-4.5-10-10V159.7c0-5.5,4.5-10,10-10H110C115.5,149.7,120,145.3,120,139.8z"
		/>
	<path class="st0" d="M569.2,129.8h-79.9c-5.5,0-10,4.5-10,10c0,5.5,4.5,10,10,10h79.9c5.5,0,10,4.5,10,10v43.3l-23.9,10.2
		c-3.7,1.6-6,5.2-6,9.2v154c0,4,2.4,7.6,6,9.2l23.9,10.2v43.3c0,5.5-4.5,10-10,10h-79.9c-5.5,0-10,4.5-10,10c0,5.5,4.5,10,10,10
		h79.9c16.5,0,29.9-13.4,29.9-29.9V159.7C599.2,143.2,585.7,129.8,569.2,129.8z M569.2,369.9V229l10-4.3v149.4L569.2,369.9z"/>
	<path class="st0" d="M30.2,209.6v179.7c0,5.5,4.5,10,10,10s10-4.5,10-10V209.6c0-5.5-4.5-10-10-10S30.2,204.1,30.2,209.6z"/>
	<path class="st0" d="M606.2,72.8c-3.9-3.9-10.2-3.9-14.1,0l-13,13c-2.2-37-32.8-65.8-69.8-65.9h-20c-5.5,0-10,4.5-10,10
		s4.5,10,10,10h20c25.7,0.1,47.1,19.7,49.4,45.3l-12.4-12.4c-3.9-3.8-10.1-3.7-14,0.1c-3.9,3.9-3.9,10.1-0.1,14l29.9,29.9
		c0.1,0.1,0.2,0.1,0.3,0.2c0.8,0.8,1.8,1.5,2.9,2c3.7,1.5,8,0.7,10.9-2.2l29.9-29.9c1.9-1.9,2.9-4.4,3-7.1
		C609.1,77.2,608.1,74.7,606.2,72.8z"/>
	<path class="st0" d="M119.9,569.6c0-0.3,0.1-0.7,0.1-1c0-1.1-0.2-2.1-0.6-3.1c0-0.1,0-0.2-0.1-0.3c-0.5-1.1-1.2-2.1-2-2.9
		c-0.1-0.1-0.1-0.2-0.2-0.3l-29.9-29.9c-3.9-3.8-10.1-3.7-14,0.1c-3.9,3.9-3.9,10.1-0.1,14l12.4,12.4c-25.6-2.3-45.2-23.8-45.3-49.5
		v-20c0-5.5-4.5-10-10-10c-5.5,0-10,4.5-10,10v20c0,37,28.9,67.6,65.9,69.8l-13,13c-2.6,2.5-3.6,6.2-2.7,9.7
		c0.9,3.5,3.6,6.2,7.1,7.1c3.5,0.9,7.2-0.1,9.7-2.7l29.9-29.9c0.8-0.9,1.5-1.9,2-3c0.1-0.3,0.3-0.7,0.4-1
		C119.7,571.2,119.8,570.5,119.9,569.6z"/>
	<path class="st0" d="M402.4,262.5L386.9,278c-10.5-42.9-50.8-71.8-94.8-68.1c-44.1,3.7-78.9,38.9-82,83s26.2,84,69.2,94
		c43.1,10,87-12.8,103.6-53.7c1.5-3.3,1-7.2-1.2-10.1c-2.2-2.9-5.8-4.4-9.4-3.8c-3.6,0.5-6.6,3-7.9,6.4
		c-12.3,30.6-44.2,48.4-76.6,42.9c-32.5-5.5-56.7-32.9-58.2-65.8c-1.5-32.9,20.1-62.4,51.9-70.9c31.8-8.5,65.2,6.4,80.3,35.6
		l-5.1-5.1c-3.9-3.8-10.1-3.7-14,0.1c-3.9,3.9-3.9,10.1-0.1,14l29.9,29.9c0.1,0.1,0.2,0.1,0.3,0.2c0.9,0.8,1.9,1.5,2.9,2
		c0.1,0,0.2,0,0.3,0.1c1,0.4,2.1,0.6,3.1,0.6c0.1,0,0.2,0.1,0.4,0.1c0.1,0,0.4-0.1,0.6-0.1c0.8-0.1,1.6-0.2,2.4-0.5
		c0.3-0.1,0.7-0.2,1-0.4c1.1-0.5,2.1-1.2,3-2l29.9-29.9c3.8-3.9,3.7-10.1-0.1-14C412.5,258.7,406.3,258.7,402.4,262.5L402.4,262.5z"
		/>
</g>
</svg>
