<svg width="96" height="96" viewBox="0 0 96 96" fill="none" xmlns="http://www.w3.org/2000/svg">
<path d="M91.1813 76.8039H81.5832V62.4069C81.5832 61.1341 81.0776 59.9135 80.1776 59.0135C79.2777 58.1135 78.057 57.6079 76.7842 57.6079H52.7892V44.6026L58.212 47.434C59.0029 47.8477 59.8934 48.0326 60.7836 47.9681C61.6738 47.9035 62.5283 47.592 63.2512 47.0686C63.9741 46.5451 64.5366 45.8304 64.8757 45.0048C65.2148 44.1792 65.3169 43.2755 65.1706 42.395L63.251 31.0214L71.5053 22.911C72.1305 22.3005 72.5771 21.5309 72.797 20.6852C73.0169 19.8394 73.0017 18.9497 72.7531 18.112C72.4749 17.2591 71.9632 16.5012 71.2762 15.9244C70.5891 15.3476 69.754 14.9749 68.8659 14.8487L57.5882 13.073L52.3092 2.70717C51.9163 1.8958 51.3027 1.21152 50.5388 0.732731C49.775 0.253941 48.8917 0 47.9901 0C47.0886 0 46.2053 0.253941 45.4414 0.732731C44.6776 1.21152 44.064 1.8958 43.671 2.70717L38.3921 13.073L26.9225 14.7527C26.0343 14.8789 25.1993 15.2516 24.5122 15.8284C23.8251 16.4053 23.3134 17.1631 23.0353 18.016C22.7866 18.8537 22.7714 19.7434 22.9913 20.5892C23.2112 21.4349 23.6578 22.2045 24.283 22.815L32.7293 31.0214L30.8097 42.395C30.6634 43.2755 30.7655 44.1792 31.1046 45.0048C31.4436 45.8304 32.0062 46.5451 32.7291 47.0686C33.452 47.592 34.3065 47.9035 35.1967 47.9681C36.0869 48.0326 36.9774 47.8477 37.7682 47.434L43.1911 44.6026V57.6079H19.1961C17.9233 57.6079 16.7026 58.1135 15.8026 59.0135C14.9027 59.9135 14.397 61.1341 14.397 62.4069V76.8039H4.79901C3.52624 76.8039 2.30559 77.3095 1.4056 78.2095C0.505609 79.1095 0 80.3302 0 81.603V91.201C0 92.4738 0.505609 93.6944 1.4056 94.5944C2.30559 95.4944 3.52624 96 4.79901 96C6.07179 96 7.29244 95.4944 8.19243 94.5944C9.09242 93.6944 9.59803 92.4738 9.59803 91.201V86.402H28.7941V91.201C28.7941 92.4738 29.2997 93.6944 30.1997 94.5944C31.0997 95.4944 32.3203 96 33.5931 96C34.8659 96 36.0865 95.4944 36.9865 94.5944C37.8865 93.6944 38.3921 92.4738 38.3921 91.201V81.603C38.3921 80.3302 37.8865 79.1095 36.9865 78.2095C36.0865 77.3095 34.8659 76.8039 33.5931 76.8039H23.9951V67.2059H71.9852V76.8039H62.3872C61.1144 76.8039 59.8938 77.3095 58.9938 78.2095C58.0938 79.1095 57.5882 80.3302 57.5882 81.603V91.201C57.5882 92.4738 58.0938 93.6944 58.9938 94.5944C59.8938 95.4944 61.1144 96 62.3872 96C63.66 96 64.8806 95.4944 65.7806 94.5944C66.6806 93.6944 67.1862 92.4738 67.1862 91.201V86.402H86.3823V91.201C86.3823 92.4738 86.8879 93.6944 87.7878 94.5944C88.6878 95.4944 89.9085 96 91.1813 96C92.454 96 93.6747 95.4944 94.5747 94.5944C95.4747 93.6944 95.9803 92.4738 95.9803 91.201V81.603C95.9803 80.3302 95.4747 79.1095 94.5747 78.2095C93.6747 77.3095 92.454 76.8039 91.1813 76.8039ZM47.9901 31.8372C47.2024 31.8411 46.4278 32.0389 45.7346 32.4131L41.8954 34.4287L42.6152 30.1095C42.7412 29.3456 42.6804 28.5625 42.438 27.8271C42.1957 27.0917 41.779 26.4258 41.2235 25.8864L38.1042 22.815L42.4233 22.1912C43.196 22.0879 43.9319 21.798 44.5674 21.3465C45.2029 20.8949 45.7188 20.2954 46.0705 19.5997L47.9901 15.6645L49.9097 19.5997C50.2615 20.2954 50.7774 20.8949 51.4129 21.3465C52.0484 21.798 52.7843 22.0879 53.557 22.1912L57.8761 22.815L54.7567 25.8864C54.2013 26.4258 53.7846 27.0917 53.5423 27.8271C53.2999 28.5625 53.2391 29.3456 53.365 30.1095L54.0849 34.4287L50.2457 32.4131C49.5525 32.0389 48.7779 31.8411 47.9901 31.8372Z" fill="#FCB527"/>
</svg>
