<svg width="26" height="26" viewBox="0 0 26 26" fill="none" xmlns="http://www.w3.org/2000/svg">
<path d="M25.9998 13.022C25.9998 13.0146 26 13.0073 26 13C26 12.7591 25.9043 12.5282 25.734 12.358L13.642 0.26595C13.4717 0.0956307 13.2408 0 13 0C12.9624 0 12.925 0.000605258 12.8875 0.00127104L12.8391 0.00199735C12.839 0.00199735 12.839 0.00199735 12.8389 0.00199735C9.42671 0.0431549 6.22496 1.39034 3.80762 3.80762C1.35221 6.26303 0 9.52754 0 13C0 16.4724 1.35221 19.737 3.80762 22.1924C6.26297 24.6477 9.52754 26 13 26C16.4724 26 19.737 24.6477 22.1923 22.1924C24.6108 19.774 25.958 16.5704 25.9981 13.1565L25.9987 13.1146C25.9993 13.0838 25.9996 13.0529 25.9998 13.022ZM23.5351 12.7269C22.8471 12.9062 22.1373 12.9965 21.4135 12.9965C16.7762 12.9965 13.0035 9.22377 13.0035 4.58646C13.0035 3.86269 13.0939 3.15285 13.2731 2.46479L23.5351 12.7269ZM13 24.1842C6.833 24.1842 1.81577 19.167 1.81577 13C1.81577 7.32695 6.06148 2.62724 11.5422 1.91062C11.3071 2.77771 11.1877 3.67301 11.1877 4.58646C11.1877 10.225 15.775 14.8123 21.4135 14.8123C22.3271 14.8123 23.2224 14.6929 24.0894 14.4578C23.3728 19.9385 18.673 24.1842 13 24.1842Z" fill="white"/>
</svg>
