<?xml version="1.0" encoding="utf-8"?>
<!-- Generator: Adobe Illustrator 24.1.2, SVG Export Plug-In . SVG Version: 6.00 Build 0)  -->
<svg version="1.1" id="Capa_1" xmlns="http://www.w3.org/2000/svg" xmlns:xlink="http://www.w3.org/1999/xlink" x="0px" y="0px"
	 viewBox="0 0 1486 1080" style="enable-background:new 0 0 1486 1080;" xml:space="preserve">
<style type="text/css">
	.st0{fill:#6550E2;}
	.st1{clip-path:url(#SVGID_2_);}
	.st2{fill:#00FFFF;}
	.st3{fill:#FCEE21;}
	.st4{fill:#FBB03B;}
	.st5{fill:#ED1E79;}
	.st6{fill:#ED1C24;}
	.st7{fill:#39B54A;}
	.st8{clip-path:url(#SVGID_4_);}
	.st9{clip-path:url(#SVGID_6_);}
</style>
<path class="st0" d="M313.9,346.1c-17.6-43.3-44.6-85.2-85.8-107.3c-66.2-35.5-153-11.8-217.9-49.6c-15-8.8-28.1-20.4-42.3-30.6
	c-14.1-10.2-29.9-18.9-47.3-20.6c-17.4-1.7-36.4,5.1-45.1,20.1c-10.1,17.2-4.4,39,1.6,58.1c19.6,62.6,39.2,125.2,58.8,187.9
	c19.1,61.2,40.9,126.2,91.5,165.4c50.8,39.4,123.9,43.7,182.7,17.8c36-15.9,72-34.3,95.6-65.4c11.7-15.5,23.7-32,27.9-52.4
	c4.1-19.9,6.3-31.1,2-51.9C330.6,393.1,323.3,369.2,313.9,346.1z"/>
<path class="st0" d="M790.5-241.8c-89.4-16.8-188,6.5-252.6,70.4c-64.6,63.8-88.2,169.6-47.1,250.6
	c36.8,72.3,114.6,114.6,161.5,180.9c52.4,74.3,60.7,169.7,73.5,259.6c12.9,89.9,36.4,186.5,107.2,243.4
	c51.2,41.2,120.5,54.7,185.9,49.5c122.5-9.8,237.9-84.3,297.3-191.9c59.3-107.6,61-244.8,4-353.7c-35.1-67-89.5-121.5-143-175
	c-67.4-67.4-126.1-127.8-176.6-206.9C960.6-177.7,865.4-235.8,790.5-241.8z"/>
<path class="st0" d="M390.4,407c-16.8,28.7-19.5,63.7-17,96.9c2.5,33.2,9.7,65.9,11.2,99.2c1.6,33.3-3,68.2-22,95.6
	c-15.7,22.7-41.6,41-44.7,68.5c-3.6,31.9,27.9,59.1,59.8,63c31.9,4,63.2-8.8,92.8-21.4c30.6-12.9,61.5-25.9,88.8-44.8
	c27.4-18.9,51.3-44.2,62.7-75.4c9.8-26.7,9.9-56,6.5-84.2c-8.8-73.6-41.9-143.8-91.9-198.4c-17.2-18.8-40.2-47.3-67.8-47.2
	C438,358.8,405.4,381.3,390.4,407z"/>
<g>
	<defs>
		
			<rect id="SVGID_1_" x="1069.1" y="-107.9" transform="matrix(0.9727 -0.232 0.232 0.9727 -18.2872 335.3615)" width="695.6" height="706.8"/>
	</defs>
	<clipPath id="SVGID_2_">
		<use xlink:href="#SVGID_1_"  style="overflow:visible;"/>
	</clipPath>
	<g class="st1">
		<path class="st2" d="M1268.1,404.1l-8.9-2.1l5.1-13.9l8.9,2.1L1268.1,404.1z"/>
		<path class="st3" d="M1445.2,324l11.5-4.8l1.9,8l-11.5,4.8L1445.2,324z"/>
		<path class="st3" d="M1402.2,426.9l-13,7.3l-5.4-5l13-7.3L1402.2,426.9z"/>
		<path class="st4" d="M1158.1,49.2l4.5,1l-1.5,2.5L1158.1,49.2z"/>
		<path class="st4" d="M1272.2,262.1l-0.1,8.4l-0.9-4l-1.9-8L1272.2,262.1z"/>
		<path class="st5" d="M1172.2,81.6l-7.4-4.6l2-0.5l9.4,4.1L1172.2,81.6z"/>
		<path class="st3" d="M1428.7,325.8l2.9,3.5l-3.6,11.4l-2.5-1.5L1428.7,325.8z"/>
		<path class="st4" d="M1187.3,507.7l9.3,12.5l-5.5,3.4l-6.8-11L1187.3,507.7z"/>
		<path class="st2" d="M1198.7,599.7l-8,1.9l-8.4-8.5l7.5-3.9L1198.7,599.7z"/>
		<path class="st6" d="M1402.9,456.2l6.9,2.6l-0.6,6.5l-7.4-4.5L1402.9,456.2z"/>
		<path class="st6" d="M1204,541.1l3.8,9.5l3.8-1.5l-3.8-9.5L1204,541.1z"/>
		<path class="st5" d="M1192.9,318.9l-0.5-2l2.9,3.5l0.5,2L1192.9,318.9z"/>
		<path class="st4" d="M1413.3,323.2l2.4,10l-3.5,2.9l-2.4-10L1413.3,323.2z"/>
		<path class="st3" d="M1352.4,76.6l9.6-12.8l7.9,6.5l-9.6,12.8L1352.4,76.6z"/>
		<path class="st2" d="M1267.5,56.8l3-4.9l2.5,1.5l-3,4.9L1267.5,56.8z"/>
		<path class="st6" d="M1125.3,486.6l-1.5,2.5l-3.5,2.9l1.5-2.5L1125.3,486.6z"/>
		<path class="st7" d="M1220.9,577.6l-3.9-7.5l4.5,1l3.9,7.5L1220.9,577.6z"/>
		<path class="st5" d="M1091.5,309.4l1,4l-4.9-3l-0.5-2L1091.5,309.4z"/>
		<path class="st4" d="M1412.9,409.6l0.6-6.5l8.9,2.1l-1,4.5L1412.9,409.6z"/>
		<path class="st2" d="M1090.2,286.5l-10.5,0.4l-10.8-10.1l10.5-0.4L1090.2,286.5z"/>
		<path class="st6" d="M1199.9,277.2l-12.4-7.6l8.1-10.4l12.4,7.6L1199.9,277.2z"/>
		<path class="st4" d="M1125.2,52.8l0.5,2l-13.1,15.8l-1-4L1125.2,52.8z"/>
		<path class="st5" d="M1472.1,56.4l2.5,1.5l0.5,2l-2.5-1.5L1472.1,56.4z"/>
		<path class="st5" d="M1016.7,57.6l3.5-2.9l4.5,1l-1.5,2.5L1016.7,57.6z"/>
		<path class="st6" d="M1410.7,382.8l-2.6,6.9l-8.9-2.1l2.6-6.9L1410.7,382.8z"/>
		<path class="st7" d="M1263.2,401.1l11.6-13.3l5.4,5l-11.6,13.3L1263.2,401.1z"/>
		<path class="st5" d="M1322.3,100.6l4.1-9.4l3.9,7.5l-3.6,11.4L1322.3,100.6z"/>
		<path class="st2" d="M1136.6,241.8l-7.9-6.5l13.1-15.8l7.9,6.5L1136.6,241.8z"/>
		<path class="st4" d="M1219.7,236.7l5.4,5l0.5,2l-4.9-3L1219.7,236.7z"/>
		<path class="st6" d="M1249.6,494.9l-2,0.5l-5.3-13.5l2.5,1.5L1249.6,494.9z"/>
		<path class="st5" d="M1203.4,88.9l-3.5,2.9l-4.9-3l3.5-2.9L1203.4,88.9z"/>
		<path class="st6" d="M1111.1,117.3l7-5.9l-6.6,7.9l-7,5.9L1111.1,117.3z"/>
		<path class="st3" d="M1366.6,498.6l-4.9-3l8-1.9l4.9,3L1366.6,498.6z"/>
		<path class="st2" d="M1350.1,588.9l1.8,16.4l-10.9-1.6l-1.3-14.4L1350.1,588.9z"/>
		<path class="st5" d="M1210.2,417.9l-3.1,13.4l-11.4-3.6l0.7-14.9L1210.2,417.9z"/>
		<path class="st4" d="M1234.1,456.5l-1.5,2.5l-4,1l1-4.5L1234.1,456.5z"/>
		<path class="st7" d="M1391.7,161.9l1.5-2.5l5.9,7l-3.5,2.9L1391.7,161.9z"/>
		<path class="st4" d="M1266.8,35.9l1.1-12.9l12.4,7.6l-1.1,12.9L1266.8,35.9z"/>
		<path class="st4" d="M1430.7,192.7l-8.9-2.1l7.6-12.3l6.9,2.6L1430.7,192.7z"/>
		<path class="st4" d="M1223.2,233.7l-1,4.5l-9.9-6.1l1-4.5L1223.2,233.7z"/>
		<path class="st3" d="M1154,22.8l13.5-5.3l6.4,9l-13,7.3L1154,22.8z"/>
		<path class="st2" d="M1298.8,196.7l-2,0.5l-13.8-13.6l2-0.5L1298.8,196.7z"/>
		<path class="st3" d="M1428.1,606.1l-2.5-1.5l5.1-13.9l2-0.5L1428.1,606.1z"/>
		<path class="st5" d="M1474.2,401.3l8.6-8.4l13.3,11.6l-8.6,8.4L1474.2,401.3z"/>
		<path class="st5" d="M1288.8,154.9l4.9,3l-2.6,6.9l-4.9-3L1288.8,154.9z"/>
		<path class="st5" d="M1312.9,265l14.8,9.1l-2,0.5l-15.3-11.1L1312.9,265z"/>
		<path class="st6" d="M1253.3,41.2l-3.5,2.9l-5.4-5l1-4.5L1253.3,41.2z"/>
		<path class="st6" d="M1277.6,267.1l-4.9-3l1.1-12.9l4.9,3L1277.6,267.1z"/>
		<path class="st3" d="M1212,522.8l-6.1,9.9l-7.9-6.5l4.1-9.4L1212,522.8z"/>
		<path class="st5" d="M1212.6,251l-4,1l-7.3-13l4-1L1212.6,251z"/>
		<path class="st4" d="M1406.2,72.1l7.1-14.3l4-1l-7.6,12.3L1406.2,72.1z"/>
		<path class="st7" d="M1404.2,382.2l-3.4-5.5l9.6-12.8l1.9,8L1404.2,382.2z"/>
		<path class="st2" d="M1016.6,66.1l0.1-8.4l2-0.5l-0.1,8.4L1016.6,66.1z"/>
		<path class="st2" d="M1291.4,590.2l-6,1.4l-3.7-24.4l6.5,0.6L1291.4,590.2z"/>
		<path class="st2" d="M1251.9,123.7l-2,0.5l-2.9-3.5l2-0.5L1251.9,123.7z"/>
		<path class="st4" d="M1335.8,537.5l3.6-11.4l4-1l-3.1,13.4L1335.8,537.5z"/>
		<path class="st6" d="M1405,403.1l-0.5-2l1.5-2.5l2.5,1.5L1405,403.1z"/>
		<path class="st3" d="M1114.7,238.5l-3.9-7.5l3-4.9l3.4,5.5L1114.7,238.5z"/>
		<path class="st3" d="M1376.9,418.2l-0.1,8.4l-12.4,0.9l0.6-6.5L1376.9,418.2z"/>
		<path class="st4" d="M1425.7,596.1l14.9,0.7l-3,4.9l-17.4-2.2L1425.7,596.1z"/>
		<path class="st3" d="M1274,234.3l-1,4.5l-4,1l1-4.5L1274,234.3z"/>
		<path class="st4" d="M1358.4,75.1l-19.9-3.7l1-4.5l19.9,3.7L1358.4,75.1z"/>
		<path class="st4" d="M1445.2,545.1l18.3,6.2l-5.7,20.3l-20.8-7.7L1445.2,545.1z"/>
		<path class="st5" d="M1318.2,110l3-4.9l1,4l-3.5,2.9L1318.2,110z"/>
		<path class="st2" d="M1410.6,347l-3.9-7.5l5-5.4l3.4,5.5L1410.6,347z"/>
		<path class="st7" d="M1204.7,465.6l-2,0.5l-1.4-6l2-0.5L1204.7,465.6z"/>
		<path class="st3" d="M1161.6,267.4l-11.5,4.8l-14.3-7.1l11.5-4.8L1161.6,267.4z"/>
		<path class="st2" d="M1177.1,615.4l2.9,3.5l-5.6,11.9l-2.9-3.5L1177.1,615.4z"/>
		<path class="st7" d="M1496.4,459.2l-14.6,18.2l-17.8-12.6l14.6-18.2L1496.4,459.2z"/>
		<path class="st2" d="M1181.8,422.6l-3.9-7.5l8.9,2.1l2.4,10L1181.8,422.6z"/>
		<path class="st3" d="M1399.4,16.9l11.3,12l-5.6,11.9l-11.3-12L1399.4,16.9z"/>
		<path class="st4" d="M1202.8,324.9l-4.9-3l1.5-2.5l6.9,2.6L1202.8,324.9z"/>
		<path class="st5" d="M1457.5,243.1l2-0.5l2.9,3.5l-4,1L1457.5,243.1z"/>
	</g>
</g>
<g>
	<defs>
		
			<rect id="SVGID_3_" x="414" y="-623.1" transform="matrix(0.9727 -0.232 0.232 0.9727 83.3425 169.3589)" width="695.6" height="706.8"/>
	</defs>
	<clipPath id="SVGID_4_">
		<use xlink:href="#SVGID_3_"  style="overflow:visible;"/>
	</clipPath>
	<g class="st8">
		<path class="st2" d="M543.6,84.5l-8,1.9l-8.4-8.5l7.5-3.9L543.6,84.5z"/>
		<path class="st6" d="M548.9,25.9l3.8,9.5l3.8-1.5l-3.8-9.5L548.9,25.9z"/>
		<path class="st7" d="M862.3,23.3l-12.5,9.3l-8.3-17L852,6.8L862.3,23.3z"/>
		<path class="st7" d="M565.8,62.4l-3.9-7.5l4.5,1l3.9,7.5L565.8,62.4z"/>
		<path class="st2" d="M695,73.7l1.8,16.4l-10.9-1.6l-1.3-14.4L695,73.7z"/>
		<path class="st3" d="M773,90.9l-2.5-1.5l5.1-13.9l2-0.5L773,90.9z"/>
		<path class="st2" d="M636.3,75.1l-6,1.4l-3.7-24.4l6.5,0.6L636.3,75.1z"/>
		<path class="st7" d="M841.4,68.3l9.5-4.4l3.4,5.5"/>
		<path class="st4" d="M770.6,81l14.9,0.7l-3,4.9l-17.4-2.2L770.6,81z"/>
		<path class="st4" d="M790.1,30l18.3,6.2l-5.7,20.3l-20.8-7.7L790.1,30z"/>
		<path class="st2" d="M522,100.2l2.9,3.5l-5.6,11.9l-2.9-3.5L522,100.2z"/>
	</g>
</g>
<g>
	<defs>
		<rect id="SVGID_5_" x="-248.4" y="-22.4" width="695.6" height="706.8"/>
	</defs>
	<clipPath id="SVGID_6_">
		<use xlink:href="#SVGID_5_"  style="overflow:visible;"/>
	</clipPath>
	<g class="st9">
		<path class="st5" d="M190.8,332l-2.1,18.4l-12.3-2l2.1-18.4L190.8,332z"/>
		<path class="st3" d="M108.7,414l12.3-2v8.2l-12.3,2V414z"/>
		<path class="st3" d="M43.1,504.1l-14.4,4.1l-4.1-6.1l14.4-4.1L43.1,504.1z"/>
		<path class="st6" d="M135.4,612.7h4.1l-8.2,4.1h-2.1L135.4,612.7z"/>
		<path class="st6" d="M217.4,180.5l2.1-8.2l4.1-4.1l-2.1,10.2L217.4,180.5z"/>
		<path class="st4" d="M-45.2,313.6l-2.1,8.2v-4.1v-8.2L-45.2,313.6z"/>
		<path class="st3" d="M92.3,411.9l2.1,4.1l-6.2,10.2l-2.1-2L92.3,411.9z"/>
		<path class="st6" d="M36.9,532.8l6.2,4.1l-2.1,6.1l-6.2-6.1L36.9,532.8z"/>
		<path class="st7" d="M301.6,223.5h2.1l-14.4,8.2L301.6,223.5z"/>
		<path class="st7" d="M129.2,639.3l-14.4,6.1l-4.1-18.4l12.3-6.1L129.2,639.3z"/>
		<path class="st4" d="M77.9,405.8V416l-4.1,2v-10.2L77.9,405.8z"/>
		<path class="st3" d="M75.9,151.8l12.3-10.2l6.2,8.2L82,160L75.9,151.8z"/>
		<path class="st6" d="M363.1,625v4.1H359V625H363.1z"/>
		<path class="st2" d="M-2.1,112.8l4.1-4.1l2.1,2l-4.1,4.1L-2.1,112.8z"/>
		<path class="st4" d="M447.3,442.7l-8.2-6.1l6.2-12.3"/>
		<path class="st4" d="M408.3,307.5l-2.1,6.1l-6.2-2l2.1-6.1L408.3,307.5z"/>
		<path class="st6" d="M320.1,616.8l-8.2,14.3l-4.1-8.2l8.2-12.3L320.1,616.8z"/>
		<path class="st4" d="M57.4,489.8l2.1-6.1l8.2,4.1l-2.1,4.1L57.4,489.8z"/>
		<path class="st7" d="M375.5,59.6l-22.6-2v-6.1l22.6,2V59.6z"/>
		<path class="st4" d="M291.3,438.6l-12.3-4.1l4.1-2l10.3,4.1L291.3,438.6z"/>
		<path class="st3" d="M295.4,323.9l-4.1,8.2l-2.1-2l2.1-8.2L295.4,323.9z"/>
		<path class="st5" d="M196.9,160l2.1,2v2l-2.1-2V160z"/>
		<path class="st6" d="M61.5,463.2l-4.1,6.1l-8.2-4.1l4.1-6.1L61.5,463.2z"/>
		<path class="st5" d="M41,168.2l6.2-8.2l2.1,8.2L43,178.4L41,168.2z"/>
		<path class="st7" d="M51.3,26.8l2.1,6.1l-4.1,2l-2.1-4.1L51.3,26.8z"/>
		<path class="st2" d="M410.4,520.5h-2.1l-2.1-4.1l4.1-2V520.5z"/>
		<path class="st2" d="M354.9,157.9l-2.1,8.2l-4.1-2l2.1-8.2L354.9,157.9z"/>
		<path class="st4" d="M287.2,233.7v-12.3l2.1-6.1l2.1,10.2L287.2,233.7z"/>
		<path class="st3" d="M-8.3,565.6l-4.1-4.1h8.2l4.1,4.1H-8.3z"/>
		<path class="st3" d="M293.4,524.6h-2.1l-4.1-16.4l2.1,2L293.4,524.6z"/>
		<path class="st6" d="M250.3,108.8h-16.4l4.1-2h16.4L250.3,108.8z"/>
		<path class="st2" d="M-45.2,649.6l-2.1,16.4l-10.3-4.1l2.1-14.3L-45.2,649.6z"/>
		<path class="st3" d="M125.1,30.9l8.2-14.3v8.2l-10.3,14.3L125.1,30.9z"/>
		<path class="st5" d="M305.7,481.6l-10.3,8.2l-10.3-14.3l10.3-8.2L305.7,481.6z"/>
		<path class="st7" d="M94.3,244l2.1-2l4.1,8.2l-4.1,2L94.3,244z"/>
		<path class="st7" d="M147.7,520.5h-10.3l-10.3-6.1h10.3L147.7,520.5z"/>
		<path class="st4" d="M2,92.4l4.1-12.3l10.3,10.2l-4.1,12.3L2,92.4z"/>
		<path class="st4" d="M125.1,282.9l-8.2-4.1l10.3-10.2l6.2,4.1L125.1,282.9z"/>
		<path class="st2" d="M-4.1,256.3h-2.1l-10.3-16.4h2.1L-4.1,256.3z"/>
		<path class="st2" d="M293.4,584h-2.1v-4.1h2.1V584z"/>
		<path class="st3" d="M26.6,684.4l-2.1-2l8.2-12.3h2.1L26.6,684.4z"/>
		<path class="st6" d="M359,547.2l8.2,18.4l-18.5,4.1l-8.2-18.4L359,547.2z"/>
		<path class="st3" d="M342.6,43.2v6.1h-4.1v-6.1H342.6z"/>
		<path class="st3" d="M258.5,536.9l-4.1-4.1l4.1-2l4.1,2L258.5,536.9z"/>
		<path class="st5" d="M119,495.9l10.3-6.1l10.3,14.3l-10.3,6.1L119,495.9z"/>
		<path class="st3" d="M277,666l6.2,4.1l-4.1,2l-8.2-2L277,666z"/>
		<path class="st5" d="M-4.2,213.2l4.1,4.1l-4.1,6.1l-4.1-4.1L-4.2,213.2z"/>
		<path class="st5" d="M-6.2,325.9l12.3,12.3H4l-12.3-14.3L-6.2,325.9z"/>
		<path class="st6" d="M-12.4,94.4l-4.1,2l-4.1-6.1l2.1-4.1L-12.4,94.4z"/>
		<path class="st4" d="M199,104.7l-6.2-2l-4.1-4.1l6.2,2L199,104.7z"/>
		<path class="st6" d="M-41.1,319.8l-4.1-4.1l4.1-12.3l4.1,4.1L-41.1,319.8z"/>
		<path class="st7" d="M326.2,315.7l8.2-12.3l12.3,8.2l-10.3,12.3L326.2,315.7z"/>
		<path class="st4" d="M297.5,495.9l-8.2,2l2.1-10.2l8.2-2L297.5,495.9z"/>
		<path class="st4" d="M371.3,399.7l16.4-14.3h2.1l-16.4,14.3H371.3z"/>
		<path class="st2" d="M307.8,188.6l-4.1,8.2l-12.3-8.2l4.1-6.1L307.8,188.6z"/>
		<path class="st4" d="M100.5,51.4l2.1-12.3h4.1l-2.1,14.3L100.5,51.4z"/>
		<path class="st6" d="M205.2,338.2l-2.1,4.1l-14.4-4.1v-2L205.2,338.2z"/>
		<path class="st4" d="M129.2,160l10.3-12.3h4.1l-10.3,10.2L129.2,160z"/>
		<path class="st4" d="M299.5,414l2.1,2l-2.1,2l-2.1-2L299.5,414z"/>
		<path class="st7" d="M55.3,461.1l-2.1-6.1l12.3-10.2v8.2L55.3,461.1z"/>
		<path class="st2" d="M-37,26.8L-49.3,35l-8.2-20.5l14.4-6.1L-37,26.8z"/>
		<path class="st7" d="M324.1,446.8l-2.1,2l-2.1-2H324.1z"/>
		<path class="st2" d="M-32.9,174.3h-2.1l-2.1-4.1h2.1L-32.9,174.3z"/>
		<path class="st7" d="M158,502.1l-6.2,18.4h-4.1l8.2-16.4L158,502.1z"/>
		<path class="st4" d="M-47.2,596.3l6.2-10.2h4.1l-6.2,12.3L-47.2,596.3z"/>
		<path class="st3" d="M445.2,45.2l-2.1-6.1h2.1l2.1,6.1H445.2z"/>
		<path class="st6" d="M248.2,231.7l-4.1,8.2l-8.2-8.2l6.2-8.2L248.2,231.7z"/>
		<path class="st6" d="M51.2,481.6v-2l2.1-2l2.1,2L51.2,481.6z"/>
		<path class="st3" d="M305.7,131.3h-4.1l2.1-4.1h4.1L305.7,131.3z"/>
		<path class="st6" d="M240,639.3l2.1,2l-2.1,2h-4.1L240,639.3z"/>
		<path class="st7" d="M297.5,258.3l4.1-10.2h4.1l-2.1,10.2H297.5z"/>
		<path class="st3" d="M412.4,518.5l-4.1-4.1l2.1-4.1l4.1,4.1L412.4,518.5z"/>
		<path class="st3" d="M303.7,405.8h6.2l2.1,16.4h-6.2L303.7,405.8z"/>
		<path class="st3" d="M20.5,489.8l-2.1,8.2l-12.3-2l2.1-6.1H20.5z"/>
		<path class="st6" d="M114.9,600.4l-2.1,2l-2.1-4.1l4.1-2V600.4z"/>
		<path class="st7" d="M98.4,678.3l10.3-2l2.1,6.1"/>
		<path class="st4" d="M26.6,674.2l14.4,4.1l-4.1,4.1l-16.4-6.1L26.6,674.2z"/>
		<path class="st5" d="M404.2,577.9l2.1-2l-2.1,4.1h-2.1L404.2,577.9z"/>
		<path class="st3" d="M186.7,116.9l-2.1-2l2.1-6.1l2.1,2L186.7,116.9z"/>
		<path class="st3" d="M361.1,518.5l-2.1-2l8.2-10.2l2.1,2L361.1,518.5z"/>
		<path class="st3" d="M-37,287l-2.1,4.1h-4.1l2.1-4.1H-37z"/>
		<path class="st2" d="M221.5,102.6l8.2,4.1l-2.1,6.1l-10.3-4.1L221.5,102.6z"/>
		<path class="st4" d="M332.4,348.4l8.2,18.4l-8.2,4.1l-6.2-18.4L332.4,348.4z"/>
		<path class="st4" d="M82,151.8l-18.5-8.2l2.1-4.1l18.5,8.2L82,151.8z"/>
		<path class="st4" d="M235.9,340.2l16.4-6.1l2.1,2l-16.4,6.1L235.9,340.2z"/>
		<path class="st4" d="M57.4,629.1l16.4,10.2l-10.3,18.4l-18.5-12.3L57.4,629.1z"/>
		<path class="st2" d="M254.4,270.6l-10.3-2v-4.1l10.3,4.1V270.6z"/>
		<path class="st5" d="M34.8,176.4l4.1-4.1v4.1l-4.1,2V176.4z"/>
		<path class="st2" d="M69.7,428.3l-2.1-8.2l6.2-4.1l2.1,6.1L69.7,428.3z"/>
		<path class="st5" d="M355,196.8v-8.2l6.2,8.2l-2.1,8.2L355,196.8z"/>
		<path class="st7" d="M340.6,196.8v-2h10.3v2H340.6z"/>
		<path class="st6" d="M112.8,39.1l2.1-8.2l10.3-10.2l-2.1,8.2L112.8,39.1z"/>
		<path class="st6" d="M396,641.4l12.3-4.1l6.2,14.3l-12.3,4.1L396,641.4z"/>
		<path class="st7" d="M326.2,469.3l6.2,2l-4.1,4.1l-6.2-2L326.2,469.3z"/>
		<path class="st4" d="M391.9,520.5v-6.1l2.1,4.1v4.1L391.9,520.5z"/>
		<path class="st4" d="M291.3,483.6l2.1,2V500l-2.1-2V483.6z"/>
		<path class="st6" d="M338.5,467.3l4.1-8.2h2.1l-4.1,8.2H338.5z"/>
		<path class="st7" d="M127.2,557.4l-18.5,14.3l-14.4-16.4l18.5-14.3L127.2,557.4z"/>
		<path class="st3" d="M135.4,104.7l8.2,14.3l-8.2,10.2l-8.2-14.3L135.4,104.7z"/>
		<path class="st4" d="M359,192.7h8.2v2H357L359,192.7z"/>
		<path class="st5" d="M139.5,338.2h2.1l2.1,4.1h-4.1V338.2z"/>
	</g>
</g>
</svg>
