<svg width="1486" height="1080" viewBox="0 0 1486 1080" fill="none" xmlns="http://www.w3.org/2000/svg">
<path d="M313.893 346.106C296.26 302.796 269.332 260.858 228.071 238.773C161.878 203.298 75.1092 226.928 10.1815 189.203C-4.84881 180.452 -17.9256 168.798 -32.0698 158.637C-46.2139 148.477 -62.0054 139.751 -79.3641 138.052C-96.7229 136.354 -115.731 143.158 -124.483 158.188C-134.543 175.377 -128.84 197.221 -122.888 216.297C-103.29 278.894 -83.6927 341.49 -64.0525 404.178C-44.9098 465.332 -23.1823 530.354 27.4358 569.59C78.2292 608.964 151.352 613.258 210.128 587.388C246.101 571.536 282.093 553.134 305.709 521.978C317.426 506.442 329.39 490.018 333.627 469.593C337.763 449.657 339.928 438.484 335.587 417.66C330.582 393.06 323.276 369.207 313.893 346.106Z" fill="#6550E2"/>
<path d="M790.53 -241.835C701.176 -258.624 602.561 -235.298 537.933 -171.464C473.306 -107.63 449.743 -1.85234 490.878 79.1472C527.719 151.447 605.502 193.751 652.339 260.045C704.787 334.311 713.029 429.721 725.885 519.658C738.742 609.594 762.3 706.114 833.132 763.047C884.326 804.221 953.589 817.721 1019.08 812.557C1141.6 802.774 1257 728.299 1316.36 620.667C1375.71 513.035 1377.31 375.915 1320.34 266.996C1285.2 199.974 1230.86 145.477 1177.34 92.0299C1109.9 24.6708 1051.24 -35.7529 1000.71 -114.891C960.581 -177.702 865.353 -235.799 790.53 -241.835Z" fill="#6550E2"/>
<path d="M390.439 406.989C373.641 435.726 370.909 470.684 373.412 503.853C375.916 537.022 383.083 569.774 384.644 603.053C386.206 636.332 381.595 671.287 362.596 698.625C346.847 721.349 320.967 739.653 317.935 767.132C314.342 799.071 345.811 826.184 377.695 830.134C409.58 834.084 440.911 821.289 470.49 808.762C501.108 795.858 531.997 782.828 559.278 763.979C586.649 745.087 610.563 719.754 622.011 688.554C631.822 661.875 631.903 632.575 628.512 604.349C619.665 530.754 586.573 460.564 536.574 405.91C519.386 387.127 496.409 358.577 468.758 358.717C437.978 358.776 405.368 381.336 390.439 406.989Z" fill="#6550E2"/>
</svg>
