<svg id="Capa_1" data-name="Capa 1" xmlns="http://www.w3.org/2000/svg" xmlns:xlink="http://www.w3.org/1999/xlink" viewBox="0 0 1486 1080"><defs><style>.cls-1{fill:none;}.cls-2{fill:#6550e2;}.cls-3{clip-path:url(#clip-path);}.cls-4{fill:aqua;}.cls-5{fill:#fcee21;}.cls-6{fill:#fbb03b;}.cls-7{fill:#ed1e79;}.cls-8{fill:#ed1c24;}.cls-9{fill:#39b54a;}.cls-10{clip-path:url(#clip-path-2);}.cls-11{clip-path:url(#clip-path-3);}</style><clipPath id="clip-path"><rect class="cls-1" x="1069.12" y="-107.94" width="695.64" height="706.77" transform="translate(-18.29 335.36) rotate(-13.41)"/></clipPath><clipPath id="clip-path-2"><rect class="cls-1" x="414.03" y="-623.11" width="695.64" height="706.77" transform="translate(83.34 169.36) rotate(-13.41)"/></clipPath><clipPath id="clip-path-3"><rect class="cls-1" x="-248.35" y="-22.36" width="695.64" height="706.77"/></clipPath></defs><path class="cls-2" d="M313.89,346.11c-17.63-43.31-44.56-85.25-85.82-107.34-66.19-35.47-153-11.84-217.89-49.57-15-8.75-28.11-20.4-42.25-30.56S-62,139.75-79.36,138.05s-36.37,5.11-45.12,20.14c-10.06,17.19-4.36,39,1.59,58.11Q-93.49,310.18-64,404.18c19.14,61.15,40.87,126.17,91.49,165.41,50.79,39.37,123.91,43.67,182.69,17.8,36-15.85,72-34.26,95.58-65.41,11.72-15.54,23.68-32,27.92-52.39,4.13-19.93,6.3-31.11,2-51.93A403.61,403.61,0,0,0,313.89,346.11Z"/><path class="cls-2" d="M790.53-241.84c-89.35-16.78-188,6.54-252.6,70.38s-88.19,169.61-47,250.61c36.84,72.3,114.62,114.6,161.46,180.9,52.45,74.26,60.69,169.67,73.55,259.61S762.3,706.11,833.13,763.05c51.2,41.17,120.46,54.67,186,49.51,122.52-9.79,237.92-84.26,297.28-191.89s61-244.75,4-353.67c-35.14-67-89.48-121.52-143-175-67.44-67.36-126.1-127.78-176.63-206.92C960.58-177.7,865.35-235.8,790.53-241.84Z"/><path class="cls-2" d="M390.44,407c-16.8,28.74-19.53,63.69-17,96.86s9.67,65.92,11.23,99.2-3,68.24-22,95.58c-15.75,22.72-41.63,41-44.67,68.5-3.59,31.94,27.88,59,59.77,63s63.21-8.84,92.79-21.37c30.62-12.9,61.51-25.93,88.79-44.78s51.28-44.23,62.73-75.43c9.81-26.67,9.89-56,6.5-84.2-8.85-73.6-41.94-143.79-91.94-198.44-17.18-18.78-40.16-47.33-67.81-47.19C438,358.78,405.37,381.34,390.44,407Z"/><g class="cls-3"><path class="cls-4" d="M1268.08,404.15l-8.94-2.08,5.14-13.86,8.93,2.08Z"/><path class="cls-5" d="M1445.18,324l11.5-4.85,1.9,8-11.5,4.85Z"/><path class="cls-5" d="M1402.22,426.92l-13,7.31-5.42-5,13-7.32Z"/><path class="cls-6" d="M1158.13,49.17l4.47,1-1.52,2.47Z"/><path class="cls-6" d="M1272.19,262.06l-.09,8.45-.95-4-1.9-8Z"/><path class="cls-7" d="M1172.21,81.62l-7.42-4.55,2-.48,9.42,4.08Z"/><path class="cls-5" d="M1428.74,325.82l3,3.51-3.61,11.39-2.47-1.52Z"/><path class="cls-6" d="M1187.3,507.65l9.31,12.52-5.51,3.42-6.84-11Z"/><path class="cls-4" d="M1198.7,599.7l-8,1.91-8.36-8.54,7.5-3.89Z"/><path class="cls-8" d="M1402.89,456.24l6.93,2.56-.56,6.45-7.42-4.55Z"/><path class="cls-8" d="M1204,541.09l3.81,9.5,3.82-1.52-3.82-9.51Z"/><path class="cls-7" d="M1192.91,318.88l-.48-2,3,3.51.48,2Z"/><path class="cls-6" d="M1413.32,323.18l2.37,10-3.52,2.94-2.37-10Z"/><path class="cls-5" d="M1352.43,76.55,1362,63.73l7.9,6.54-9.61,12.82Z"/><path class="cls-4" d="M1267.54,56.78l3-4.94,2.48,1.52-3,4.94Z"/><path class="cls-8" d="M1125.32,486.63l-1.52,2.47-3.53,2.94,1.53-2.47Z"/><path class="cls-9" d="M1220.86,577.57l-3.9-7.49,4.47,1,3.9,7.49Z"/><path class="cls-7" d="M1091.48,309.36l1,4-4.94-3-.47-2Z"/><path class="cls-6" d="M1412.86,409.64l.57-6.46,8.93,2.08-1,4.47Z"/><path class="cls-4" d="M1090.25,286.49l-10.46.39L1069,276.83l10.45-.39Z"/><path class="cls-8" d="M1199.86,277.2l-12.35-7.58,8.08-10.35,12.35,7.58Z"/><path class="cls-6" d="M1125.24,52.8l.48,2L1112.6,70.56l-.95-4Z"/><path class="cls-7" d="M1472.06,56.45l2.47,1.51.48,2-2.47-1.52Z"/><path class="cls-7" d="M1016.68,57.63l3.53-3,4.46,1-1.52,2.47Z"/><path class="cls-8" d="M1410.67,382.78l-2.57,6.93-8.93-2.08,2.56-6.93Z"/><path class="cls-9" d="M1263.16,401.11l11.59-13.3,5.42,5-11.59,13.3Z"/><path class="cls-7" d="M1322.27,100.59l4.09-9.4,3.89,7.5-3.6,11.39Z"/><path class="cls-4" d="M1136.56,241.75l-7.9-6.54,13.12-15.76,7.89,6.54Z"/><path class="cls-6" d="M1219.7,236.67l5.42,5,.47,2-4.94-3Z"/><path class="cls-8" d="M1249.65,494.89l-2,.48-5.32-13.48,2.47,1.52Z"/><path class="cls-7" d="M1203.45,88.91l-3.51,2.94-5-3,3.52-2.95Z"/><path class="cls-8" d="M1111.08,117.25l7-5.89-6.56,7.89-7,5.89Z"/><path class="cls-5" d="M1366.55,498.6l-4.93-3,8-1.91,4.94,3Z"/><path class="cls-4" d="M1350.13,588.87l1.8,16.42L1341,603.68l-1.32-14.43Z"/><path class="cls-7" d="M1210.22,417.94l-3.15,13.39-11.4-3.6.66-14.9Z"/><path class="cls-6" d="M1234.14,456.46l-1.51,2.47-4,1,1-4.47Z"/><path class="cls-9" d="M1391.74,162l1.53-2.47,5.89,7-3.52,2.94Z"/><path class="cls-6" d="M1266.76,35.9,1267.9,23l12.36,7.58-1.15,12.91Z"/><path class="cls-6" d="M1430.74,192.66l-8.93-2.08,7.6-12.34,6.94,2.55Z"/><path class="cls-6" d="M1223.24,233.72l-1,4.46-9.89-6.07,1-4.46Z"/><path class="cls-5" d="M1154,22.79l13.49-5.33,6.37,9-13,7.31Z"/><path class="cls-4" d="M1298.81,196.75l-2,.47L1283,183.66l2-.48Z"/><path class="cls-5" d="M1428.07,606.09l-2.48-1.52,5.14-13.86,2-.48Z"/><path class="cls-7" d="M1474.17,401.34l8.55-8.36L1496,404.55l-8.55,8.36Z"/><path class="cls-7" d="M1288.8,154.9l5,3-2.57,6.93-4.94-3Z"/><path class="cls-7" d="M1313,265l14.82,9.1-2,.48-15.31-11.1Z"/><path class="cls-8" d="M1253.27,41.23l-3.52,2.94-5.42-5,1.05-4.46Z"/><path class="cls-8" d="M1277.61,267.09l-4.95-3,1.15-12.91,4.94,3Z"/><path class="cls-5" d="M1212,522.82l-6.08,9.87-7.89-6.54,4.09-9.4Z"/><path class="cls-7" d="M1212.6,251l-4,.95-7.32-13,4-.95Z"/><path class="cls-6" d="M1406.22,72.15l7.13-14.34,4-1-7.61,12.35Z"/><path class="cls-9" d="M1404.19,382.22l-3.43-5.5,9.61-12.82,1.9,8Z"/><path class="cls-4" d="M1016.6,66.07l.09-8.44,2-.48-.1,8.45Z"/><path class="cls-4" d="M1291.39,590.24l-6,1.43-3.71-24.39,6.47.56Z"/><path class="cls-4" d="M1251.87,123.7l-2,.47-2.94-3.5,2-.48Z"/><path class="cls-6" d="M1335.78,537.53l3.61-11.39,4-.95-3.13,13.38Z"/><path class="cls-8" d="M1405,403.1l-.47-2,1.52-2.47,2.48,1.51Z"/><path class="cls-5" d="M1114.68,238.55l-3.9-7.5,3-4.94,3.43,5.51Z"/><path class="cls-5" d="M1376.93,418.21l-.1,8.44-12.45.87.57-6.46Z"/><path class="cls-6" d="M1425.67,596.13l14.92.65-3,4.94-17.4-2.17Z"/><path class="cls-5" d="M1274,234.25l-1,4.46-4,1,1-4.46Z"/><path class="cls-6" d="M1358.38,75.13l-19.86-3.69,1-4.46,19.87,3.69Z"/><path class="cls-6" d="M1445.18,545.14l18.34,6.16-5.7,20.31L1437,563.94Z"/><path class="cls-7" d="M1318.21,110l3-4.93,1,4-3.52,3Z"/><path class="cls-4" d="M1410.58,347l-3.89-7.49,5-5.42,3.43,5.5Z"/><path class="cls-9" d="M1204.71,465.59l-2,.48-1.43-6,2-.48Z"/><path class="cls-5" d="M1161.65,267.36l-11.51,4.85-14.35-7.11,11.51-4.85Z"/><path class="cls-4" d="M1177.12,615.38l3,3.51-5.61,11.87-3-3.51Z"/><path class="cls-9" d="M1496.38,459.22l-14.64,18.23L1464,464.84l14.64-18.23Z"/><path class="cls-4" d="M1181.77,422.62l-3.9-7.49,8.94,2.08,2.38,10Z"/><path class="cls-5" d="M1399.38,16.91,1410.69,29l-5.61,11.87-11.3-12Z"/><path class="cls-6" d="M1202.78,325l-4.94-3,1.52-2.46,6.94,2.55Z"/><path class="cls-7" d="M1457.54,243.14l2-.48,3,3.51-4,1Z"/></g><g class="cls-10"><path class="cls-4" d="M543.61,84.53l-8,1.91-8.37-8.54,7.51-3.9Z"/><path class="cls-8" d="M548.92,25.92l3.81,9.5,3.81-1.52-3.81-9.51Z"/><path class="cls-9" d="M862.31,23.28l-12.55,9.31-8.27-17L852,6.77Z"/><path class="cls-9" d="M565.77,62.4l-3.9-7.49,4.47,1,3.9,7.49Z"/><path class="cls-4" d="M695,73.7l1.81,16.41-10.93-1.6-1.33-14.43Z"/><path class="cls-5" d="M773,90.92,770.5,89.4l5.14-13.86,2-.48Z"/><path class="cls-4" d="M636.29,75.07l-6,1.43-3.7-24.39,6.46.56Z"/><path class="cls-9" d="M841.41,68.28l9.5-4.37,3.42,5.5"/><path class="cls-6" d="M770.58,81l14.92.65-3,4.94-17.4-2.17Z"/><path class="cls-6" d="M790.09,30l18.34,6.16-5.7,20.31-20.82-7.67Z"/><path class="cls-4" d="M522,100.21l2.94,3.51-5.61,11.87-2.94-3.51Z"/></g><g class="cls-11"><path class="cls-7" d="M190.77,332.05l-2.06,18.43-12.31-2L178.46,330Z"/><path class="cls-5" d="M108.71,414,121,411.94v8.2l-12.31,2.05Z"/><path class="cls-5" d="M43.05,504.13l-14.36,4.1-4.11-6.15L39,498Z"/><path class="cls-8" d="M135.38,612.71h4.11l-8.21,4.09h-2.05Z"/><path class="cls-8" d="M217.44,180.45l2.05-8.19,4.11-4.1-2,10.24Z"/><path class="cls-5" d="M92.3,411.94l2,4.1L88.2,426.28l-2.06-2Z"/><path class="cls-8" d="M36.9,532.81l6.15,4.1-2,6.14-6.16-6.14Z"/><path class="cls-9" d="M301.58,223.47h2.05l-14.37,8.2Z"/><path class="cls-9" d="M129.22,639.34l-14.36,6.14-4.11-18.43,12.32-6.15Z"/><path class="cls-6" d="M77.9,405.8V416l-4.1,2V407.85Z"/><path class="cls-5" d="M75.88,151.77,88.2,141.53l6.15,8.19L82,160Z"/><path class="cls-8" d="M363.14,625v4.09H359V625Z"/><path class="cls-4" d="M-2.11,112.85l4.1-4.1,2.06,2-4.11,4.1Z"/><path class="cls-6" d="M447.29,442.67l-8.21-6.14,6.15-12.29"/><path class="cls-6" d="M408.29,307.46l-2.05,6.15-6.16-2.05,2.05-6.14Z"/><path class="cls-8" d="M320.05,616.8l-8.21,14.35-4.1-8.2L316,610.66Z"/><path class="cls-6" d="M57.41,489.79l2.05-6.15,8.21,4.1-2,4.1Z"/><path class="cls-9" d="M375.48,59.58l-22.57-2V51.39l22.57,2Z"/><path class="cls-6" d="M291.32,438.57,279,434.48l4.11-2.05,10.26,4.1Z"/><path class="cls-5" d="M295.42,323.85l-4.1,8.2L289.26,330l2.06-8.19Z"/><path class="cls-7" d="M196.92,160l2.05,2v2.05L196.92,162Z"/><path class="cls-8" d="M61.5,463.16l-4.1,6.14-8.21-4.09,4.11-6.15Z"/><path class="cls-7" d="M41,168.16,47.13,160l2,8.19L43,178.4Z"/><path class="cls-9" d="M51.25,26.81l2,6.14-4.1,2-2.05-4.1Z"/><path class="cls-4" d="M410.36,520.52H408.3l-2.05-4.1,4.11-2Z"/><path class="cls-4" d="M354.94,157.91l-2.05,8.2-4.11-2.05,2.05-8.19Z"/><path class="cls-6" d="M287.22,233.71V221.42l2-6.14,2.05,10.24Z"/><path class="cls-5" d="M293.37,524.62h-2.05l-4.1-16.39,2,2Z"/><path class="cls-8" d="M250.29,108.75H233.87l4.11-2h16.41Z"/><path class="cls-5" d="M125.11,30.9l8.21-14.34v8.2L123.06,39.1Z"/><path class="cls-7" d="M305.7,481.6l-10.26,8.19-10.26-14.34,10.26-8.19Z"/><path class="cls-9" d="M94.32,244l2.05-2.05,4.11,8.19-4.11,2.05Z"/><path class="cls-9" d="M147.7,520.52H137.45l-10.27-6.15h10.27Z"/><path class="cls-6" d="M2,92.36l4.1-12.29L16.34,90.31l-4.1,12.29Z"/><path class="cls-6" d="M125.13,282.88l-8.21-4.1,10.26-10.24,6.16,4.1Z"/><path class="cls-4" d="M293.4,584h-2v-4.1h2Z"/><path class="cls-5" d="M26.63,684.41l-2.05-2,8.21-12.29h2.05Z"/><path class="cls-8" d="M359,547.15l8.21,18.44-18.47,4.1-8.21-18.44Z"/><path class="cls-5" d="M342.63,43.19v6.15h-4.11V43.19Z"/><path class="cls-5" d="M258.5,536.91l-4.1-4.1,4.1-2,4.1,2Z"/><path class="cls-7" d="M119,495.94l10.26-6.15,10.26,14.34-10.26,6.15Z"/><path class="cls-5" d="M277,666l6.16,4.1-4.1,2-8.21-2Z"/><path class="cls-7" d="M-6.23,325.9,6.08,338.19H4L-8.28,323.85Z"/><path class="cls-6" d="M199,104.65l-6.16-2.05-4.1-4.09,6.15,2Z"/><path class="cls-9" d="M326.22,315.66l8.2-12.29,12.32,8.19-10.26,12.29Z"/><path class="cls-6" d="M297.47,495.94,289.26,498l2.06-10.25,8.2-2.05Z"/><path class="cls-6" d="M371.35,399.65l16.41-14.34h2.05L373.4,399.65Z"/><path class="cls-4" d="M307.76,188.65l-4.1,8.19-12.31-8.19,4.1-6.15Z"/><path class="cls-6" d="M100.49,51.39l2.05-12.29h4.11L104.6,53.44Z"/><path class="cls-8" d="M205.16,338.19l-2,4.1-14.36-4.1v-2.05Z"/><path class="cls-6" d="M129.23,160l10.26-12.3h4.1l-10.26,10.25Z"/><path class="cls-6" d="M299.53,414l2.05,2.05-2.05,2-2-2Z"/><path class="cls-9" d="M55.33,461.11l-2-6.15,12.31-10.24v8.2Z"/><path class="cls-9" d="M324.15,446.77l-2,2.05L320,446.77Z"/><path class="cls-9" d="M158,502.08l-6.15,18.44H147.7l8.21-16.39Z"/><path class="cls-5" d="M445.22,45.24l-2.05-6.14h2.05l2,6.14Z"/><path class="cls-8" d="M248.23,231.67l-4.1,8.19-8.21-8.19,6.15-8.2Z"/><path class="cls-8" d="M51.24,481.6v-2.05l2-2.05,2.05,2.05Z"/><path class="cls-5" d="M305.71,131.29h-4.1l2.05-4.1h4.1Z"/><path class="cls-8" d="M240,639.34l2,2-2,2.05h-4.1Z"/><path class="cls-9" d="M297.48,258.3l4.1-10.25h4.11l-2.05,10.25Z"/><path class="cls-5" d="M412.4,518.47l-4.1-4.1,2.05-4.09,4.1,4.09Z"/><path class="cls-5" d="M303.65,405.8h6.16l2.05,16.39H305.7Z"/><path class="cls-5" d="M20.47,489.79l-2,8.19-12.31-2,2.05-6.15Z"/><path class="cls-8" d="M114.86,600.41l-2,2.05-2.06-4.09,4.11-2Z"/><path class="cls-9" d="M98.45,678.26l10.26-2,2.05,6.15"/><path class="cls-6" d="M26.61,674.16,41,678.26l-4.11,4.1-16.41-6.15Z"/><path class="cls-7" d="M404.18,577.88l2.05-2-2.05,4.1h-2.05Z"/><path class="cls-5" d="M186.67,116.94l-2-2,2-6.15,2.05,2Z"/><path class="cls-5" d="M361.09,518.47l-2-2.05,8.21-10.24,2.05,2.05Z"/><path class="cls-4" d="M221.55,102.6l8.2,4.1-2.05,6.15-10.26-4.1Z"/><path class="cls-6" d="M332.37,348.44l8.21,18.43-8.21,4.1-6.15-18.44Z"/><path class="cls-6" d="M82,151.77l-18.47-8.19,2.05-4.1,18.47,8.19Z"/><path class="cls-6" d="M235.92,340.24l16.42-6.14,2,2L238,342.29Z"/><path class="cls-6" d="M57.41,629.1l16.42,10.24L63.57,657.78,45.1,645.49Z"/><path class="cls-4" d="M254.39,270.59l-10.26-2v-4.1l10.26,4.1Z"/><path class="cls-7" d="M34.84,176.35,39,172.26v4.09l-4.11,2.05Z"/><path class="cls-4" d="M69.72,428.33l-2-8.19,6.15-4.1,2.06,6.15Z"/><path class="cls-7" d="M355,196.84v-8.19l6.16,8.19L359.06,205Z"/><path class="cls-9" d="M340.56,196.84v-2.05h10.26v2.05Z"/><path class="cls-8" d="M112.8,39.1l2-8.2,10.26-10.24-2,8.19Z"/><path class="cls-8" d="M396,641.39l12.31-4.1,6.16,14.34-12.31,4.1Z"/><path class="cls-9" d="M326.23,469.3l6.16,2.05-4.11,4.1-6.15-2.05Z"/><path class="cls-6" d="M391.87,520.52v-6.15l2.05,4.1v4.1Z"/><path class="cls-6" d="M291.35,483.64l2,2.05V500l-2-2Z"/><path class="cls-8" d="M338.52,467.26l4.11-8.2h2.05l-4.11,8.2Z"/><path class="cls-9" d="M127.15,557.39l-18.47,14.34L94.32,555.35,112.79,541Z"/><path class="cls-5" d="M135.39,104.65,143.6,119l-8.21,10.24-8.21-14.34Z"/><path class="cls-6" d="M359.05,192.74h8.21v2H357Z"/><path class="cls-7" d="M139.49,338.19h2l2.05,4.1h-4.1Z"/></g></svg>