<svg width="632" height="796" viewBox="0 0 632 796" fill="none" xmlns="http://www.w3.org/2000/svg">
<path d="M173.269 207.787H115.229V230.075H173.269V207.787Z" fill="#E22323"/>
<path d="M118.312 207.787H115.229V230.075H128.115L118.312 207.787Z" fill="#AF1515"/>
<path d="M160.357 230.075H173.269V207.787H170.16L160.357 230.075Z" fill="#AF1515"/>
<path d="M285.013 435.005C301.334 387.796 258.963 273.824 258.963 273.824L217.119 257.678C235.572 298.694 255.378 406.7 255.378 406.7" fill="#CE7A63"/>
<path d="M98.7559 302.505C96.9508 334.922 88.6521 414.823 47.4598 409.758C7.74665 404.945 -55.9598 350.14 -60.3223 346.329C-55.4584 338.306 -49.8926 328.629 -44.2766 319.603C6.9193 351.168 39.7127 360.87 39.7127 360.87L50.0672 296.689C50.0421 296.714 100.586 270.139 98.7559 302.505Z" fill="#CE7A63"/>
<path d="M386.326 1087.05L345.008 1117.73C345.008 1117.73 230.332 963.022 199.594 907.014C168.856 851.006 158.276 615.389 158.276 615.389C157.324 621.883 156.396 651.492 155.468 684.71C154.34 729.437 153.312 780.983 152.334 793.493C141.178 942.79 146.242 1213.73 146.242 1213.73H98.1049C80.7806 1144.38 57.9906 876.302 55.4584 812.271C52.9262 748.24 85.0928 476.171 85.0928 476.171H227.824C269.192 569.56 237.176 748.29 259.916 820.294C282.681 892.297 386.326 1087.05 386.326 1087.05Z" fill="#263238"/>
<path d="M90.6089 144.258C90.6089 144.258 64.0833 110.813 92.0881 84.0876C92.0881 84.0876 92.4391 54.7547 116.157 52.3479C139.874 49.9411 160.282 67.6411 184 68.3933C211.428 69.0702 218.899 107.629 199.72 110.036C180.54 112.443 147.571 175.621 131.049 176.875C114.527 178.103 90.6089 144.258 90.6089 144.258Z" fill="#263238"/>
<path d="M110.013 218.468L61.0488 223.883C61.7258 264.949 64.634 305.915 69.7235 346.68C77.7464 405.195 84.7664 476.196 84.7664 476.196H227.473C226.595 494.247 229.529 380.275 234.894 328.428L284.36 320.606C284.36 320.606 274.181 241.859 247.58 237.421C220.979 232.933 166.775 206.032 110.013 218.468Z" fill="#0090D3"/>
<path d="M69.8988 335.624L68.8207 334.771L61.6503 329.306L18.0762 296.212C27.3526 224.008 60.8731 224.008 61.199 224.008L66.8902 297.29L69.8988 335.624Z" fill="#0090D3"/>
<path d="M207.542 148.62C202.804 182.265 185.43 187.53 166.501 193.296C166.501 193.296 166.501 196.907 166.977 201.645C167.829 209.266 169.935 219.947 175.451 223.833C175.451 223.833 169.685 248.578 135.989 246.447C102.293 244.341 104.925 224.886 104.925 224.886C104.925 224.886 124.431 212.3 125.985 195.452C126.788 184.296 125.709 173.114 122.826 162.309C122.826 162.309 97.0027 148.119 104.9 132.825C112.798 117.532 128.969 133.878 128.969 133.878L131.626 81.2797C131.626 81.2797 182.12 73.257 197.94 89.7035C206.966 107.93 210.325 128.463 207.542 148.62Z" fill="#CE7A63"/>
<path d="M156.897 126.382C156.897 128.99 155.618 131.07 154.013 131.07C152.409 131.07 151.08 128.99 151.08 126.382C151.08 123.775 152.359 121.644 154.013 121.644C155.668 121.644 156.897 123.775 156.897 126.382Z" fill="#263238"/>
<path d="M186.105 126.382C186.105 128.99 184.776 131.07 183.172 131.07C181.567 131.07 180.238 128.99 180.238 126.382C180.238 123.775 181.567 121.644 183.172 121.644C184.776 121.644 186.105 123.775 186.105 126.382Z" fill="#263238"/>
<path d="M168.205 124.402V148.996C172.166 149.347 176.128 148.169 179.237 145.662L168.205 124.402Z" fill="#BA4D3C"/>
<path d="M150.904 153.283C152.634 156.216 155.116 158.648 158.1 160.328C161.083 162.008 164.418 162.86 167.853 162.835" stroke="#263238" stroke-linecap="round" stroke-linejoin="round"/>
<path d="M151.307 112.794C152.635 110.638 154.641 108.983 156.998 108.106C159.38 107.228 161.962 107.178 164.369 107.955" stroke="#263238" stroke-linecap="round" stroke-linejoin="round"/>
<path d="M189.842 106.3C192.048 106.451 194.179 107.253 195.959 108.582C197.739 109.911 199.068 111.741 199.845 113.847" stroke="#263238" stroke-linecap="round" stroke-linejoin="round"/>
<path d="M131.775 81.2797C131.775 81.2797 151.18 107.955 129.167 133.903L122.674 107.579L131.775 81.2797Z" fill="#263238"/>
<path opacity="0.2" d="M68.8208 334.796L61.6504 329.331L66.9154 297.165L68.8208 334.796Z" fill="black"/>
<path d="M131.775 81.2797C139.598 87.2465 149.1 90.606 158.953 90.9319C168.781 91.2579 178.483 88.5001 186.707 83.0848C186.707 83.0848 192.724 65.6354 163.691 67.9169C134.608 70.1983 131.775 81.2797 131.775 81.2797Z" fill="#263238"/>
<path d="M99.6836 61.223C99.6836 61.223 118.738 36.4781 163.866 45.654C199.969 53.0248 209.672 29.6086 220.879 35.1493C232.061 40.69 226.169 86.3691 192.999 79.274C159.805 72.179 99.6836 61.223 99.6836 61.223Z" fill="#263238"/>
<path d="M92.5653 82.4329C90.685 80.4022 88.2781 78.923 85.5954 78.221C82.9128 77.519 80.0797 77.5692 77.4472 78.4216L92.5653 83.887L74.9902 86.0933C74.9902 86.0933 90.0832 89.4277 94.4958 86.9708C98.9084 84.5138 92.5653 82.4329 92.5653 82.4329Z" fill="#263238"/>
<path opacity="0.1" d="M166.976 201.645C158.627 200.592 150.855 196.806 144.863 190.865C151.933 192.619 159.204 193.422 166.475 193.321C166.5 193.321 166.5 196.932 166.976 201.645Z" fill="black"/>
<path opacity="0.2" d="M157.8 620.679C156.722 627.85 155.719 660.316 154.716 696.895C152.184 654.024 153.237 575.828 153.237 575.828L157.8 620.679Z" fill="black"/>
<path d="M255.354 406.725L285.188 410.861L304.318 550.456L276.94 552.888L255.354 406.725Z" fill="#CE7A63"/>
<path d="M276.941 552.888L269.82 590.82L315.977 580.115L304.319 550.456L276.941 552.888Z" fill="#CE7A63"/>
<path d="M269.82 590.82L288.749 621.707L315.977 596.636V580.115L279.849 577.833L269.82 590.82Z" fill="#CE7A63"/>
<path d="M144.637 320.732C158.179 320.732 169.157 309.754 169.157 296.212C169.157 282.671 158.179 271.693 144.637 271.693C131.095 271.693 120.117 282.671 120.117 296.212C120.117 309.754 131.095 320.732 144.637 320.732Z" fill="#FEC906"/>
<path d="M144.912 316.971C133.229 317.122 123.702 307.595 123.877 295.937C124.028 284.73 133.154 275.629 144.336 275.479C156.019 275.328 165.546 284.855 165.371 296.513C165.245 307.695 156.119 316.821 144.912 316.971ZM144.887 277.058C134.107 276.908 125.306 285.708 125.457 296.488C125.607 306.817 134.006 315.241 144.336 315.367C155.116 315.517 163.916 306.717 163.766 295.937C163.641 285.607 155.242 277.184 144.887 277.058Z" fill="#FFE15C"/>
<path d="M142.306 291.198H142.255L138.344 292.928L137.467 288.841L143.133 286.334H147.621V306.14H142.331V291.198H142.306Z" fill="#EDEBDD"/>
<path d="M143.985 271.693L115.83 207.787L93.541 217.615L123.05 284.529C127.112 277.058 134.934 271.919 143.985 271.693Z" fill="#E22323"/>
<path d="M166.423 284.955L196.108 217.615L173.844 207.787L145.664 271.693C154.715 272.094 162.487 277.359 166.423 284.955Z" fill="#E22323"/>
<path d="M121.521 281.07L123.051 284.529C127.112 277.058 134.935 271.919 143.985 271.693L142.657 268.659C133.806 269.286 126.135 274.075 121.521 281.07Z" fill="#AF1515"/>
<path d="M167.952 281.446C163.439 274.351 155.793 269.462 146.967 268.71L145.639 271.718C154.689 272.094 162.462 277.359 166.398 284.956L167.952 281.446Z" fill="#AF1515"/>
<path d="M147.694 283.226L147.92 286.41L151.004 285.632L148.045 286.836L149.725 289.518L147.694 287.087L145.663 289.518L147.343 286.836L144.385 285.632L147.469 286.41L147.694 283.226Z" fill="white"/>
<path d="M579.977 1235.54L522.488 1241.68C522.488 1241.68 430.225 942.489 408.112 868.63C385.999 794.772 374.867 637.452 374.867 637.452C372.661 643.795 369.251 655.754 364.839 671.949C328.535 806.329 226.996 1235.42 226.996 1235.42L180.814 1217.37C180.814 1217.37 208.493 886.907 221.405 824.255C234.317 761.603 318.607 463.761 318.607 463.761H471.041C471.041 463.761 485.808 783.59 498.72 856.22C511.632 928.85 579.977 1235.54 579.977 1235.54Z" fill="#263238"/>
<path d="M298.649 282.123C298.649 282.123 284.057 339.811 261.744 385.415C238.477 432.999 207.238 468.85 193.224 485.698L166.873 505.755L157.396 535.288L192.171 546.871C192.171 546.871 220.602 519.468 218.521 502.746L291.253 414.747L331.016 308.522L298.649 282.123Z" fill="#FFB573"/>
<path d="M433.812 67.0897C446.297 74.0343 452.214 83.1351 461.891 93.8153C481.297 115.777 504.187 134.405 529.634 148.971C547.836 159.05 567.467 166.27 586.12 175.446C594.795 179.106 602.392 184.848 608.258 192.218C612.019 198.336 614.426 205.155 615.354 212.275C621.897 249.656 611.342 290.747 583.989 317.121C575.264 325.796 564.709 332.365 553.101 336.376C530.512 343.747 506.042 338.783 482.45 335.624C467.307 334.145 452.239 331.788 437.372 328.604C422.404 325.37 408.615 318.149 397.458 307.67C386.953 296.463 380.184 282.298 378.128 267.08C376.122 251.937 376.774 236.544 380.058 221.627C382.992 206.734 387.555 192.093 388.959 176.95C390.363 161.782 388.307 145.662 379.281 133.427C374.317 126.683 358.898 121.393 355.213 113.847C347.19 97.5257 360.553 76.2656 376.473 67.2652C385.298 62.5769 395.126 60.0949 405.105 60.0699C415.108 60.0197 424.961 62.4265 433.812 67.0897Z" fill="#263238"/>
<path d="M423.706 207.787H365.666V230.075H423.706V207.787Z" fill="#E22323"/>
<path d="M368.725 207.787H365.666V230.075H378.553L368.725 207.787Z" fill="#AF1515"/>
<path d="M410.77 230.075H423.681V207.787H420.597L410.77 230.075Z" fill="#AF1515"/>
<path d="M528.104 284.805L478.287 319.779L470.54 472.21C422.654 481.286 318.632 463.586 318.632 463.586L306.598 311.155L299.503 305.94L282.705 293.655C282.705 293.655 298.274 250.182 307.3 240.455C316.326 230.727 367.472 222.479 367.472 222.479C367.472 222.479 463.746 231.906 485.207 239.051C506.668 246.196 528.104 284.805 528.104 284.805Z" fill="#0090D3"/>
<path d="M511.707 296.488L545.955 359.065C545.955 359.065 574.035 323.49 588.426 304.586L580.754 278.713L593.992 247.374L616.932 249.505C621.921 259.534 623.651 270.866 621.896 281.947C620.141 293.003 614.977 303.257 607.129 311.255C607.129 311.255 586.069 371.074 547.635 393.437C518.402 410.486 485.508 314.865 485.508 314.865L511.707 296.488Z" fill="#FFB573"/>
<path d="M423.782 163.262C417.113 182.24 408.062 217.49 419.771 232.532C419.771 232.532 411.748 251.586 375.244 246.296C335.129 240.48 359.198 223.682 359.198 223.682C381.737 221.677 383.542 205.431 381.988 189.661L423.782 163.262Z" fill="#FFB573"/>
<path opacity="0.2" d="M406.682 174.067L381.861 189.511C382.313 193.196 382.413 196.882 382.187 200.592C390.686 200.592 403.448 193.096 405.604 184.547C406.607 181.137 406.958 177.577 406.682 174.067Z" fill="black"/>
<path d="M436.517 115.301C435.84 148.319 436.191 162.284 420.195 179.833C396.127 206.233 356.013 198.135 346.636 165.518C338.613 136.185 341.02 87.0963 372.785 72.7306C383.641 67.7666 396.052 67.3153 407.233 71.4771C418.415 75.6389 427.516 84.0878 432.48 94.9434C435.414 101.311 436.818 108.281 436.517 115.301Z" fill="#FFB573"/>
<path d="M362.431 79.4246C362.155 80.0764 401.467 138.341 436.291 139.118C444.991 129.416 446.571 94.9936 434.637 86.1185C422.728 77.2434 412.248 59.1673 399.01 60.4961C379.154 62.4767 362.431 79.4246 362.431 79.4246Z" fill="#263238"/>
<path d="M391.414 126.157C391.414 128.839 390.16 131.096 388.455 131.171C386.725 131.246 385.171 129.09 384.995 126.558C384.845 124.026 386.249 121.619 387.954 121.544C389.659 121.468 391.364 123.524 391.414 126.157Z" fill="#263238"/>
<path d="M361.129 127.36C361.129 130.043 359.875 132.249 358.17 132.299C356.44 132.349 354.886 130.243 354.71 127.686C354.56 125.129 355.964 122.797 357.719 122.722C359.474 122.647 361.053 124.678 361.129 127.36Z" fill="#263238"/>
<path d="M358.571 122.722L352.027 121.117C352.027 121.117 355.562 126.006 358.571 122.722Z" fill="#263238"/>
<path d="M370.68 132.023C368.498 138.216 365.515 144.107 361.779 149.523C363.183 150.425 364.788 151.027 366.443 151.278C368.097 151.528 369.802 151.403 371.407 150.927L370.68 132.023Z" fill="#ED893E"/>
<path d="M383.091 161.858C381.762 162.108 380.433 162.259 379.08 162.309C378.879 162.309 378.678 162.234 378.528 162.108C378.378 161.983 378.277 161.782 378.277 161.582C378.277 161.381 378.353 161.156 378.503 161.005C378.653 160.855 378.829 160.754 379.055 160.729C382.389 160.679 385.673 159.852 388.632 158.272C391.59 156.718 394.123 154.462 396.053 151.729C396.178 151.553 396.354 151.428 396.554 151.378C396.755 151.328 396.956 151.378 397.156 151.478C397.231 151.528 397.332 151.604 397.382 151.679C397.432 151.754 397.482 151.854 397.507 151.955C397.532 152.055 397.532 152.155 397.507 152.255C397.482 152.356 397.457 152.456 397.382 152.531C395.752 154.963 393.646 157.044 391.189 158.649C388.732 160.253 385.974 161.331 383.091 161.858Z" fill="#263238"/>
<path d="M446.647 145.261C445.669 148.269 444.09 151.052 442.009 153.434C439.953 155.816 437.421 157.796 434.613 159.225C426.991 162.961 421.626 156.543 422.578 148.595C423.305 141.425 428.144 130.795 436.368 130.394C438.173 130.318 439.978 130.72 441.582 131.522C443.187 132.324 444.591 133.528 445.619 135.007C446.647 136.486 447.299 138.216 447.499 139.996C447.7 141.801 447.449 143.606 446.747 145.286H446.647V145.261Z" fill="#FFB573"/>
<path d="M396.303 119.538C395.977 119.588 395.626 119.538 395.325 119.413C395.024 119.262 394.749 119.037 394.598 118.736C391.063 112.368 381.762 111.315 381.636 111.265C381.235 111.214 380.859 110.989 380.608 110.663C380.358 110.337 380.232 109.911 380.282 109.51C380.307 109.309 380.358 109.108 380.458 108.933C380.558 108.757 380.684 108.582 380.859 108.457C381.009 108.331 381.21 108.231 381.411 108.181C381.611 108.131 381.812 108.106 382.012 108.131C382.464 108.131 393.094 109.409 397.381 117.231C397.582 117.582 397.632 118.009 397.531 118.41C397.431 118.811 397.18 119.137 396.804 119.362L396.303 119.538Z" fill="#263238"/>
<path d="M344.381 113.696C344.105 113.747 343.829 113.747 343.553 113.646C343.303 113.546 343.052 113.396 342.877 113.17C342.626 112.844 342.526 112.468 342.551 112.067C342.601 111.666 342.801 111.315 343.102 111.064C344.907 109.334 347.139 108.055 349.546 107.353C351.952 106.652 354.51 106.551 356.967 107.053C357.368 107.153 357.694 107.429 357.894 107.78C358.095 108.131 358.145 108.557 358.045 108.933C357.995 109.134 357.894 109.334 357.769 109.485C357.644 109.66 357.493 109.785 357.318 109.886C357.142 109.986 356.942 110.061 356.741 110.086C356.54 110.111 356.315 110.111 356.114 110.036C354.159 109.635 352.153 109.71 350.248 110.262C348.342 110.813 346.612 111.841 345.208 113.245C345.033 113.496 344.707 113.646 344.381 113.696Z" fill="#263238"/>
<path d="M388.881 121.544L382.338 119.939C382.338 119.939 385.873 124.853 388.881 121.544Z" fill="#263238"/>
<path opacity="0.2" d="M374.867 591.071V637.452C372.66 643.795 369.25 655.754 364.838 671.949L374.867 591.071Z" fill="black"/>
<path d="M474.55 455.137L470.539 472.335C460.836 473.94 451.008 474.867 441.18 475.143H437.169C428.694 475.394 418.716 475.394 407.283 474.893H403.272C392.692 474.341 380.933 473.363 368.097 471.809L364.085 471.332C356.514 470.38 348.591 469.201 340.293 467.797L336.281 467.121C330.54 466.068 324.648 464.964 318.581 463.711L317.252 446.537L337.058 447.615H341.07L364.938 448.944L368.949 449.145L404.124 451.075L408.136 451.326L437.971 452.93L441.982 453.181L474.55 455.137Z" fill="white"/>
<path d="M341.096 447.841L340.244 467.898L336.232 467.221L337.035 447.716L341.096 447.841Z" fill="#407BFF"/>
<path d="M369.175 449.37L368.222 471.834L364.211 471.357L365.139 449.17L369.175 449.37Z" fill="#407BFF"/>
<path d="M408.212 451.526L407.259 475.068H403.248L404.201 451.451L408.212 451.526Z" fill="#407BFF"/>
<path d="M442.059 453.382L441.181 475.168H437.17L438.098 452.98L442.059 453.382Z" fill="#407BFF"/>
<path fill-rule="evenodd" clip-rule="evenodd" d="M148.982 542.268C149.281 531.157 175.729 528.819 195.599 510.896C215.599 531.107 241.935 531.182 242.216 542.268V571.377C242.216 574.368 239.786 576.781 236.795 576.781H154.383C151.393 576.781 148.963 574.368 148.963 571.377L148.982 542.268Z" fill="#FBCB22"/>
<path fill-rule="evenodd" clip-rule="evenodd" d="M223.416 545.993C223.416 544.815 222.46 543.837 221.27 543.837C212.415 543.837 178.806 543.837 169.95 543.837C168.76 543.837 167.805 544.79 167.805 545.993C167.805 550.782 167.805 562.315 167.805 567.128C167.805 568.306 168.76 569.284 169.95 569.284C178.806 569.284 212.415 569.284 221.27 569.284C222.46 569.284 223.416 568.332 223.416 567.128C223.416 562.34 223.416 550.807 223.416 545.993Z" fill="#FDE282"/>
<path fill-rule="evenodd" clip-rule="evenodd" d="M191.337 437.988L187 519.042C187 523.781 190.861 527.642 195.6 527.642C200.338 527.642 204.199 523.781 204.199 519.042L199.862 437.988C199.862 435.631 197.956 433.726 195.6 433.726C193.243 433.726 191.337 435.631 191.337 437.988Z" fill="#ECA400"/>
<path d="M230.169 540.89H161.047C159.868 540.89 158.891 539.937 158.891 538.733C158.891 537.555 159.843 536.577 161.047 536.577H230.169C231.347 536.577 232.325 537.53 232.325 538.733C232.325 539.937 231.347 540.89 230.169 540.89Z" fill="#ECA400"/>
<path fill-rule="evenodd" clip-rule="evenodd" d="M172.049 382.8C139.305 373.301 116.926 330.555 110.579 314.739C104.232 298.922 99.678 270.107 104.15 269.948C106.684 269.993 110.991 270.152 113.175 269.948C118.327 269.925 114.123 274.175 121.521 287.969C132.36 308.126 153.73 310.489 153.73 310.489V293.195C153.73 293.195 135.287 297.081 127.353 280.765C119.419 264.448 124.303 257.563 119.151 257.699C111.96 257.881 100.688 257.835 94.8354 257.699C88.1176 257.54 94.9178 295.9 101.265 315.148C107.612 334.396 138.872 389.822 171.925 392.958C172.028 389.572 172.049 386.481 172.049 382.8Z" fill="#ECA400"/>
<path fill-rule="evenodd" clip-rule="evenodd" d="M219.162 382.8C251.906 373.301 274.285 330.555 280.632 314.739C286.979 298.922 291.533 270.107 287.061 269.948C284.527 269.993 280.22 270.152 278.036 269.948C272.884 269.925 277.088 274.175 269.69 287.969C258.851 308.126 237.481 310.489 237.481 310.489V293.195C237.481 293.195 255.924 297.081 263.858 280.765C271.792 264.448 266.908 257.563 272.06 257.699C279.251 257.881 290.523 257.835 296.376 257.699C303.093 257.54 296.293 295.9 289.946 315.148C283.599 334.396 252.339 389.822 219.286 392.958C219.183 389.572 219.141 386.482 219.162 382.8Z" fill="#ECA400"/>
<path fill-rule="evenodd" clip-rule="evenodd" d="M207.967 436.188C206.24 441.578 201.255 445.213 195.585 445.213C189.948 445.213 184.93 441.553 183.203 436.188C166.195 382.912 136.74 290.727 128.431 264.703C127.91 263.073 128.203 261.293 129.213 259.889C130.223 258.51 131.852 257.683 133.547 257.683C157.56 257.683 233.512 257.683 257.559 257.683C259.286 257.683 260.882 258.51 261.892 259.889C262.902 261.268 263.196 263.073 262.674 264.703C254.431 290.727 224.975 382.937 207.967 436.188Z" fill="#FBCB22"/>
<path fill-rule="evenodd" clip-rule="evenodd" d="M185.923 440.896L146.461 257.678H156.364L195.601 445.208L234.838 257.678H244.741L205.278 440.896C202.872 443.604 199.387 445.234 195.601 445.234C191.815 445.234 188.33 443.604 185.923 440.896Z" fill="#FDE282"/>
<path d="M250.163 266.428H141.027C139.849 266.428 138.871 265.475 138.871 264.272C138.871 263.094 139.824 262.116 141.027 262.116H250.163C251.341 262.116 252.319 263.069 252.319 264.272C252.319 265.45 251.367 266.428 250.163 266.428Z" fill="#ECA400"/>
<path d="M394.475 320.732C408.017 320.732 418.995 309.754 418.995 296.212C418.995 282.671 408.017 271.693 394.475 271.693C380.933 271.693 369.955 282.671 369.955 296.212C369.955 309.754 380.933 320.732 394.475 320.732Z" fill="#FEC906"/>
<path d="M394.75 316.971C383.067 317.122 373.54 307.595 373.715 295.937C373.866 284.73 382.992 275.629 394.174 275.479C405.857 275.328 415.384 284.855 415.208 296.513C415.058 307.695 405.957 316.821 394.75 316.971ZM394.725 277.058C383.944 276.908 375.144 285.708 375.295 296.488C375.445 306.817 383.844 315.241 394.174 315.367C404.954 315.517 413.754 306.717 413.604 295.937C413.478 285.607 405.055 277.184 394.725 277.058Z" fill="#FFE15C"/>
<path d="M392.144 291.198H392.093L388.182 292.928L387.305 288.841L392.971 286.334H397.459V306.14H392.169V291.198H392.144Z" fill="#EDEBDD"/>
<path d="M393.823 271.693L365.642 207.787L343.379 217.615L372.888 284.529C376.95 277.058 384.772 271.919 393.823 271.693Z" fill="#E22323"/>
<path d="M416.261 284.955L445.946 217.615L423.682 207.787L395.502 271.693C404.528 272.094 412.325 277.359 416.261 284.955Z" fill="#E22323"/>
<path d="M371.359 281.07L372.889 284.529C376.95 277.058 384.773 271.919 393.823 271.693L392.495 268.659C383.644 269.286 375.973 274.075 371.359 281.07Z" fill="#AF1515"/>
<path d="M417.79 281.446C413.277 274.351 405.63 269.462 396.805 268.71L395.477 271.718C404.527 272.094 412.299 277.359 416.236 284.956L417.79 281.446Z" fill="#AF1515"/>
<path d="M397.532 283.226L397.758 286.41L400.842 285.632L397.883 286.836L399.563 289.518L397.532 287.087L395.501 289.518L397.181 286.836L394.223 285.632L397.306 286.41L397.532 283.226Z" fill="white"/>
</svg>
