<svg width="400" height="102" viewBox="0 0 400 102" fill="none" xmlns="http://www.w3.org/2000/svg">
<path d="M0 98.404H31.0255L27.1111 37.6805H3.62448L0 98.404ZM0 15.362C0 23.7677 6.959 30.869 15.3678 30.869C23.7766 30.869 30.7356 23.7677 30.7356 15.362C30.7356 7.10132 23.7766 0 15.3678 0C6.959 0 0 7.10132 0 15.362Z" fill="white"/>
<path d="M137.624 94.0563L157.922 24.0575H130.955L121.677 62.6076L109.498 24.0575H86.1568L73.8336 62.6076L64.5549 24.0575H37.7337L58.0308 94.0563H86.4467L97.7551 54.9265L109.208 94.0563H137.624Z" fill="white"/>
<path d="M197.89 95.7953C222.827 95.7953 237.325 78.5493 237.325 58.9844C237.325 39.4196 222.827 22.3184 197.89 22.3184C173.099 22.3184 158.601 39.4196 158.601 58.9844C158.601 78.5493 173.099 95.7953 197.89 95.7953ZM197.89 72.7523C189.917 72.7523 185.422 66.8104 185.422 58.9844C185.422 51.3034 189.917 45.3615 197.89 45.3615C206.009 45.3615 210.504 51.3034 210.504 58.9844C210.504 66.8104 206.009 72.7523 197.89 72.7523Z" fill="white"/>
<path d="M337.962 94.0563L358.259 24.0575H331.293L322.014 62.6076L309.836 24.0575H286.494L274.171 62.6076L264.892 24.0575H238.071L258.368 94.0563H286.784L298.093 54.9265L309.546 94.0563H337.962Z" fill="white"/>
<path d="M396.376 63.715L400 2.99143H368.974L372.889 63.715H396.376ZM384.632 101.25C393.041 101.25 400 94.1492 400 85.8885C400 77.4828 393.041 70.3815 384.632 70.3815C376.223 70.3815 369.264 77.4828 369.264 85.8885C369.264 94.1492 376.223 101.25 384.632 101.25Z" fill="white"/>
</svg>
