<svg width="598" height="274" viewBox="0 0 598 274" fill="none" xmlns="http://www.w3.org/2000/svg">
<rect x="3" y="2" width="592" height="270" stroke="white" stroke-width="4"/>
<mask id="mask0" mask-type="alpha" maskUnits="userSpaceOnUse" x="0" y="0" width="598" height="268">
<rect width="598" height="268" fill="#C4C4C4"/>
</mask>
<g mask="url(#mask0)">
<g clip-path="url(#clip0)">
<path d="M201.236 207.715H52.347C51.5946 207.715 50.9258 207.046 50.9258 206.294L54.6041 80.729C54.8549 71.366 62.5459 63.9258 71.8254 63.9258H182.092C191.204 63.9258 198.644 71.1988 198.978 80.3111L202.657 206.294C202.657 207.046 202.072 207.715 201.236 207.715Z" stroke="white" stroke-width="11" stroke-miterlimit="10"/>
<path d="M168.55 198.017H85.7039C85.5367 198.017 72.8298 196.345 73.5821 182.3C74.0837 172.937 74.0837 143.26 74.1673 134.733C74.1673 134.315 74.0001 133.981 73.6657 133.646C69.7366 130.219 61.8784 121.023 65.0551 103.718C69.7366 77.3846 100.752 73.957 127.252 73.957C153.753 73.957 184.768 77.301 189.449 103.718C192.459 121.023 184.684 130.219 180.839 133.646C180.504 133.897 180.337 134.315 180.337 134.649C180.337 143.176 180.421 172.854 180.922 182.217C181.591 196.261 168.884 197.933 168.801 197.933H168.55V198.017ZM86.3727 191.329H167.965C168.048 191.329 168.132 191.329 168.215 191.329C169.72 190.995 174.485 189.573 174.151 182.635C173.566 171.6 173.566 133.981 173.566 132.392V131.305C173.566 130.804 173.817 130.386 174.235 130.135L175.154 129.55C175.572 129.299 185.938 122.528 182.762 104.888C179.752 88.1687 162.614 80.6449 127.085 80.6449C91.5558 80.6449 74.4181 88.0851 71.4086 104.888C68.2319 122.528 78.598 129.299 79.016 129.55L79.9356 130.135C80.3536 130.386 80.6044 130.804 80.6044 131.305V132.392C80.6044 133.981 80.6044 171.516 80.0192 182.635C79.7684 189.741 84.7843 191.078 86.1219 191.329C86.2055 191.329 86.2891 191.329 86.3727 191.329Z" fill="white"/>
<path d="M151.914 139.082C151.579 138.747 151.328 138.747 150.994 138.497L147.566 137.326C146.396 136.992 145.226 137.326 144.306 137.911C141.464 140.587 132.268 139.416 124.995 138.497C120.648 137.911 116.05 137.326 112.372 137.577C104.931 137.577 99.9154 141.924 99.163 149.95C98.2434 155.718 100.083 162.573 101.253 163.743C101.838 164.328 102.423 164.663 103.343 164.914L106.185 165.499C106.52 165.499 106.52 165.499 106.77 165.499C107.69 165.499 108.526 165.164 109.111 164.579C111.954 161.904 121.149 162.824 128.673 163.66C133.271 164.245 138.203 164.579 142.216 164.579C151.914 164.245 154.672 157.808 155.174 152.625C155.174 152.541 155.174 152.457 155.174 152.457C155.007 147.943 154.171 140.587 151.914 139.082ZM149.322 152.04C148.737 156.972 146.48 159.313 141.464 159.313C137.702 159.647 133.438 158.978 128.84 158.393C120.23 157.473 111.786 156.637 107.021 159.313C106.185 159.731 105.098 159.229 105.015 158.309V158.142C104.68 156.052 104.095 153.21 104.68 150.368C105.6 143.68 109.278 142.927 112.706 142.927H113.207C116.635 142.927 121.066 143.512 124.744 143.847C133.355 145.017 141.798 145.937 146.563 142.927L147.148 142.593L147.901 142.76C148.402 142.844 148.737 143.178 148.904 143.68C148.988 143.847 148.988 143.93 148.988 144.098C149.071 146.188 149.573 148.946 149.322 152.04Z" fill="white"/>
</g>
<g clip-path="url(#clip1)">
<path d="M375.191 207.715H226.302C225.55 207.715 224.881 207.046 224.881 206.294L228.559 80.729C228.81 71.366 236.501 63.9258 245.78 63.9258H356.047C365.159 63.9258 372.599 71.1988 372.933 80.3111L376.612 206.294C376.612 207.046 376.027 207.715 375.191 207.715Z" stroke="white" stroke-width="11" stroke-miterlimit="10"/>
<path d="M342.503 198.017H259.657C259.49 198.017 246.783 196.345 247.535 182.3C248.037 172.937 248.037 143.26 248.12 134.733C248.12 134.315 247.953 133.981 247.619 133.646C243.69 130.219 235.832 121.023 239.008 103.718C243.69 77.3846 274.705 73.957 301.205 73.957C327.706 73.957 358.721 77.301 363.403 103.718C366.412 121.023 358.637 130.219 354.792 133.646C354.457 133.897 354.29 134.315 354.29 134.649C354.29 143.176 354.374 172.854 354.875 182.217C355.544 196.261 342.837 197.933 342.754 197.933H342.503V198.017ZM260.326 191.329H341.918C342.001 191.329 342.085 191.329 342.169 191.329C343.673 190.995 348.438 189.573 348.104 182.635C347.519 171.6 347.519 133.981 347.519 132.392V131.305C347.519 130.804 347.77 130.386 348.188 130.135L349.107 129.55C349.525 129.299 359.891 122.528 356.715 104.888C353.705 88.1687 336.567 80.6449 301.038 80.6449C265.509 80.6449 248.371 88.0851 245.362 104.888C242.185 122.528 252.551 129.299 252.969 129.55L253.889 130.135C254.307 130.386 254.558 130.804 254.558 131.305V132.392C254.558 133.981 254.558 171.516 253.972 182.635C253.722 189.741 258.737 191.078 260.075 191.329C260.159 191.329 260.242 191.329 260.326 191.329Z" fill="white"/>
<path d="M325.869 139.082C325.534 138.747 325.283 138.747 324.949 138.497L321.521 137.326C320.351 136.992 319.181 137.326 318.261 137.911C315.419 140.587 306.223 139.416 298.95 138.497C294.603 137.911 290.005 137.326 286.327 137.577C278.886 137.577 273.87 141.924 273.118 149.95C272.198 155.718 274.038 162.573 275.208 163.743C275.793 164.328 276.378 164.663 277.298 164.914L280.14 165.499C280.475 165.499 280.475 165.499 280.725 165.499C281.645 165.499 282.481 165.164 283.066 164.579C285.909 161.904 295.104 162.824 302.628 163.66C307.226 164.245 312.158 164.579 316.171 164.579C325.869 164.245 328.627 157.808 329.129 152.625C329.129 152.541 329.129 152.457 329.129 152.457C328.962 147.943 328.126 140.587 325.869 139.082ZM323.277 152.04C322.692 156.972 320.435 159.313 315.419 159.313C311.657 159.647 307.393 158.978 302.795 158.393C294.185 157.473 285.741 156.637 280.976 159.313C280.14 159.731 279.054 159.229 278.97 158.309V158.142C278.636 156.052 278.05 153.21 278.636 150.368C279.555 143.68 283.233 142.927 286.661 142.927H287.163C290.59 142.927 295.021 143.512 298.699 143.847C307.31 145.017 315.753 145.937 320.518 142.927L321.103 142.593L321.856 142.76C322.357 142.844 322.692 143.178 322.859 143.68C322.943 143.847 322.943 143.93 322.943 144.098C323.026 146.188 323.528 148.946 323.277 152.04Z" fill="white"/>
</g>
<g clip-path="url(#clip2)">
<path d="M549.144 207.715H400.255C399.503 207.715 398.834 207.046 398.834 206.294L402.512 80.729C402.763 71.366 410.454 63.9258 419.734 63.9258H530C539.112 63.9258 546.552 71.1988 546.887 80.3111L550.565 206.294C550.565 207.046 549.98 207.715 549.144 207.715Z" stroke="white" stroke-width="11" stroke-miterlimit="10"/>
<path d="M516.456 198.017H433.61C433.443 198.017 420.736 196.345 421.488 182.3C421.99 172.937 421.99 143.26 422.074 134.733C422.074 134.315 421.906 133.981 421.572 133.646C417.643 130.219 409.785 121.023 412.961 103.718C417.643 77.3846 448.658 73.957 475.159 73.957C501.659 73.957 532.674 77.301 537.356 103.718C540.365 121.023 532.591 130.219 528.745 133.646C528.411 133.897 528.243 134.315 528.243 134.649C528.243 143.176 528.327 172.854 528.829 182.217C529.497 196.261 516.79 197.933 516.707 197.933H516.456V198.017ZM434.279 191.329H515.871C515.954 191.329 516.038 191.329 516.122 191.329C517.626 190.995 522.392 189.573 522.057 182.635C521.472 171.6 521.472 133.981 521.472 132.392V131.305C521.472 130.804 521.723 130.386 522.141 130.135L523.06 129.55C523.478 129.299 533.845 122.528 530.668 104.888C527.658 88.1687 510.521 80.6449 474.991 80.6449C439.462 80.6449 422.324 88.0851 419.315 104.888C416.138 122.528 426.504 129.299 426.922 129.55L427.842 130.135C428.26 130.386 428.511 130.804 428.511 131.305V132.392C428.511 133.981 428.511 171.516 427.925 182.635C427.675 189.741 432.691 191.078 434.028 191.329C434.112 191.329 434.195 191.329 434.279 191.329Z" fill="white"/>
<path d="M499.822 139.082C499.487 138.747 499.237 138.747 498.902 138.497L495.475 137.326C494.304 136.992 493.134 137.326 492.214 137.911C489.372 140.587 480.176 139.416 472.903 138.497C468.556 137.911 463.958 137.326 460.28 137.577C452.839 137.577 447.824 141.924 447.071 149.95C446.152 155.718 447.991 162.573 449.161 163.743C449.746 164.328 450.332 164.663 451.251 164.914L454.093 165.499C454.428 165.499 454.428 165.499 454.679 165.499C455.598 165.499 456.434 165.164 457.019 164.579C459.862 161.904 469.058 162.824 476.581 163.66C481.179 164.245 486.112 164.579 490.124 164.579C499.822 164.245 502.58 157.808 503.082 152.625C503.082 152.541 503.082 152.457 503.082 152.457C502.915 147.943 502.079 140.587 499.822 139.082ZM497.23 152.04C496.645 156.972 494.388 159.313 489.372 159.313C485.61 159.647 481.346 158.978 476.749 158.393C468.138 157.473 459.695 156.637 454.929 159.313C454.093 159.731 453.007 159.229 452.923 158.309V158.142C452.589 156.052 452.003 153.21 452.589 150.368C453.508 143.68 457.187 142.927 460.614 142.927H461.116C464.543 142.927 468.974 143.512 472.652 143.847C481.263 145.017 489.706 145.937 494.471 142.927L495.057 142.593L495.809 142.76C496.311 142.844 496.645 143.178 496.812 143.68C496.896 143.847 496.896 143.93 496.896 144.098C496.979 146.188 497.481 148.946 497.23 152.04Z" fill="white"/>
</g>
<g clip-path="url(#clip3)">
<path d="M202.236 41.7159H53.347C52.5946 41.7159 51.9258 41.0471 51.9258 40.2947L55.6041 -85.27C55.8549 -94.633 63.5459 -102.073 72.8254 -102.073H183.092C192.204 -102.073 199.644 -94.8002 199.978 -85.688L203.657 40.2947C203.657 41.0471 203.072 41.7159 202.236 41.7159Z" stroke="white" stroke-width="11" stroke-miterlimit="10"/>
<path d="M169.55 32.0179H86.7039C86.5367 32.0179 73.8298 30.3459 74.5821 16.3014C75.0837 6.93842 75.0837 -22.739 75.1673 -31.266C75.1673 -31.684 75.0001 -32.0184 74.6657 -32.3528C70.7366 -35.7803 62.8784 -44.9761 66.0551 -62.281C70.7366 -88.6145 101.752 -92.042 128.252 -92.042C154.753 -92.042 185.768 -88.6981 190.449 -62.281C193.459 -44.9761 185.684 -35.7803 181.839 -32.3528C181.504 -32.102 181.337 -31.684 181.337 -31.3496C181.337 -22.8226 181.421 6.8548 181.922 16.2178C182.591 30.2623 169.884 31.9343 169.801 31.9343H169.55V32.0179ZM87.3727 25.33H168.965C169.048 25.33 169.132 25.33 169.215 25.33C170.72 24.9956 175.485 23.5745 175.151 16.6358C174.566 5.60083 174.566 -32.0184 174.566 -33.6068V-34.6936C174.566 -35.1951 174.817 -35.6131 175.235 -35.8639L176.154 -36.4491C176.572 -36.6999 186.938 -43.4714 183.762 -61.1106C180.752 -77.8303 163.614 -85.3541 128.085 -85.3541C92.5558 -85.3541 75.4181 -77.9139 72.4086 -61.1106C69.2319 -43.4714 79.598 -36.6999 80.016 -36.4491L80.9356 -35.8639C81.3536 -35.6131 81.6044 -35.1951 81.6044 -34.6936V-33.6068C81.6044 -32.0184 81.6044 5.51723 81.0192 16.6358C80.7684 23.7417 85.7843 25.0792 87.1219 25.33C87.2055 25.33 87.2891 25.33 87.3727 25.33Z" fill="white"/>
</g>
<g clip-path="url(#clip4)">
<path d="M376.191 41.7149H227.302C226.55 41.7149 225.881 41.0461 225.881 40.2937L229.559 -85.271C229.81 -94.634 237.501 -102.074 246.78 -102.074H357.047C366.159 -102.074 373.599 -94.8012 373.933 -85.6889L377.612 40.2937C377.612 41.0461 377.027 41.7149 376.191 41.7149Z" stroke="white" stroke-width="11" stroke-miterlimit="10"/>
<path d="M343.503 32.0169H260.657C260.49 32.0169 247.783 30.345 248.535 16.3004C249.037 6.93744 249.037 -22.74 249.12 -31.267C249.12 -31.685 248.953 -32.0194 248.619 -32.3538C244.69 -35.7813 236.832 -44.9771 240.008 -62.282C244.69 -88.6154 275.705 -92.043 302.205 -92.043C328.706 -92.043 359.721 -88.699 364.403 -62.282C367.412 -44.9771 359.637 -35.7813 355.792 -32.3538C355.457 -32.103 355.29 -31.685 355.29 -31.3506C355.29 -22.8236 355.374 6.85383 355.875 16.2168C356.544 30.2614 343.837 31.9333 343.754 31.9333H343.503V32.0169ZM261.326 25.3291H342.918C343.001 25.3291 343.085 25.3291 343.169 25.3291C344.673 24.9947 349.438 23.5735 349.104 16.6348C348.519 5.59985 348.519 -32.0194 348.519 -33.6077V-34.6945C348.519 -35.1961 348.77 -35.6141 349.188 -35.8649L350.107 -36.4501C350.525 -36.7009 360.891 -43.4724 357.715 -61.1116C354.705 -77.8313 337.567 -85.3551 302.038 -85.3551C266.509 -85.3551 249.371 -77.9149 246.362 -61.1116C243.185 -43.4724 253.551 -36.7009 253.969 -36.4501L254.889 -35.8649C255.307 -35.6141 255.558 -35.1961 255.558 -34.6945V-33.6077C255.558 -32.0194 255.558 5.51626 254.972 16.6348C254.722 23.7407 259.737 25.0783 261.075 25.3291C261.159 25.3291 261.242 25.3291 261.326 25.3291Z" fill="white"/>
</g>
<g clip-path="url(#clip5)">
<path d="M550.144 41.7149H401.255C400.503 41.7149 399.834 41.0461 399.834 40.2937L403.512 -85.271C403.763 -94.634 411.454 -102.074 420.734 -102.074H531C540.112 -102.074 547.552 -94.8012 547.887 -85.6889L551.565 40.2937C551.565 41.0461 550.98 41.7149 550.144 41.7149Z" stroke="white" stroke-width="11" stroke-miterlimit="10"/>
<path d="M517.456 32.0169H434.61C434.443 32.0169 421.736 30.345 422.488 16.3004C422.99 6.93744 422.99 -22.74 423.074 -31.267C423.074 -31.685 422.906 -32.0194 422.572 -32.3538C418.643 -35.7813 410.785 -44.9771 413.961 -62.282C418.643 -88.6154 449.658 -92.043 476.159 -92.043C502.659 -92.043 533.674 -88.699 538.356 -62.282C541.365 -44.9771 533.591 -35.7813 529.745 -32.3538C529.411 -32.103 529.243 -31.685 529.243 -31.3506C529.243 -22.8236 529.327 6.85383 529.829 16.2168C530.497 30.2614 517.79 31.9333 517.707 31.9333H517.456V32.0169ZM435.279 25.3291H516.871C516.954 25.3291 517.038 25.3291 517.122 25.3291C518.626 24.9947 523.392 23.5735 523.057 16.6348C522.472 5.59985 522.472 -32.0194 522.472 -33.6077V-34.6945C522.472 -35.1961 522.723 -35.6141 523.141 -35.8649L524.06 -36.4501C524.478 -36.7009 534.845 -43.4724 531.668 -61.1116C528.658 -77.8313 511.521 -85.3551 475.991 -85.3551C440.462 -85.3551 423.324 -77.9149 420.315 -61.1116C417.138 -43.4724 427.504 -36.7009 427.922 -36.4501L428.842 -35.8649C429.26 -35.6141 429.511 -35.1961 429.511 -34.6945V-33.6077C429.511 -32.0194 429.511 5.51626 428.925 16.6348C428.675 23.7407 433.691 25.0783 435.028 25.3291C435.112 25.3291 435.195 25.3291 435.279 25.3291Z" fill="white"/>
</g>
<g clip-path="url(#clip6)">
<path d="M201.236 374.715H52.347C51.5946 374.715 50.9258 374.046 50.9258 373.294L54.6041 247.729C54.8549 238.366 62.5459 230.926 71.8254 230.926H182.092C191.204 230.926 198.644 238.199 198.978 247.311L202.657 373.294C202.657 374.046 202.072 374.715 201.236 374.715Z" stroke="white" stroke-width="11" stroke-miterlimit="10"/>
<path d="M168.55 365.017H85.7039C85.5367 365.017 72.8298 363.345 73.5821 349.3C74.0837 339.937 74.0837 310.26 74.1673 301.733C74.1673 301.315 74.0001 300.981 73.6657 300.646C69.7366 297.219 61.8784 288.023 65.0551 270.718C69.7366 244.385 100.752 240.957 127.252 240.957C153.753 240.957 184.768 244.301 189.449 270.718C192.459 288.023 184.684 297.219 180.839 300.646C180.504 300.897 180.337 301.315 180.337 301.649C180.337 310.176 180.421 339.854 180.922 349.217C181.591 363.261 168.884 364.933 168.801 364.933H168.55V365.017ZM86.3727 358.329H167.965C168.048 358.329 168.132 358.329 168.215 358.329C169.72 357.995 174.485 356.573 174.151 349.635C173.566 338.6 173.566 300.981 173.566 299.392V298.305C173.566 297.804 173.817 297.386 174.235 297.135L175.154 296.55C175.572 296.299 185.938 289.528 182.762 271.888C179.752 255.169 162.614 247.645 127.085 247.645C91.5558 247.645 74.4181 255.085 71.4086 271.888C68.2319 289.528 78.598 296.299 79.016 296.55L79.9356 297.135C80.3536 297.386 80.6044 297.804 80.6044 298.305V299.392C80.6044 300.981 80.6044 338.516 80.0192 349.635C79.7684 356.741 84.7843 358.078 86.1219 358.329C86.2055 358.329 86.2891 358.329 86.3727 358.329Z" fill="white"/>
</g>
<g clip-path="url(#clip7)">
<path d="M375.191 374.715H226.302C225.55 374.715 224.881 374.046 224.881 373.294L228.559 247.729C228.81 238.366 236.501 230.926 245.78 230.926H356.047C365.159 230.926 372.599 238.199 372.933 247.311L376.612 373.294C376.612 374.046 376.027 374.715 375.191 374.715Z" stroke="white" stroke-width="11" stroke-miterlimit="10"/>
<path d="M342.503 365.017H259.657C259.49 365.017 246.783 363.345 247.535 349.3C248.037 339.937 248.037 310.26 248.12 301.733C248.12 301.315 247.953 300.981 247.619 300.646C243.69 297.219 235.832 288.023 239.008 270.718C243.69 244.385 274.705 240.957 301.205 240.957C327.706 240.957 358.721 244.301 363.403 270.718C366.412 288.023 358.637 297.219 354.792 300.646C354.457 300.897 354.29 301.315 354.29 301.649C354.29 310.176 354.374 339.854 354.875 349.217C355.544 363.261 342.837 364.933 342.754 364.933H342.503V365.017ZM260.326 358.329H341.918C342.001 358.329 342.085 358.329 342.169 358.329C343.673 357.995 348.438 356.573 348.104 349.635C347.519 338.6 347.519 300.981 347.519 299.392V298.305C347.519 297.804 347.77 297.386 348.188 297.135L349.107 296.55C349.525 296.299 359.891 289.528 356.715 271.888C353.705 255.169 336.567 247.645 301.038 247.645C265.509 247.645 248.371 255.085 245.362 271.888C242.185 289.528 252.551 296.299 252.969 296.55L253.889 297.135C254.307 297.386 254.558 297.804 254.558 298.305V299.392C254.558 300.981 254.558 338.516 253.972 349.635C253.722 356.741 258.737 358.078 260.075 358.329C260.159 358.329 260.242 358.329 260.326 358.329Z" fill="white"/>
</g>
<g clip-path="url(#clip8)">
<path d="M549.144 374.715H400.255C399.503 374.715 398.834 374.046 398.834 373.294L402.512 247.729C402.763 238.366 410.454 230.926 419.734 230.926H530C539.112 230.926 546.552 238.199 546.887 247.311L550.565 373.294C550.565 374.046 549.98 374.715 549.144 374.715Z" stroke="white" stroke-width="11" stroke-miterlimit="10"/>
<path d="M516.456 365.017H433.61C433.443 365.017 420.736 363.345 421.488 349.3C421.99 339.937 421.99 310.26 422.074 301.733C422.074 301.315 421.906 300.981 421.572 300.646C417.643 297.219 409.785 288.023 412.961 270.718C417.643 244.385 448.658 240.957 475.159 240.957C501.659 240.957 532.674 244.301 537.356 270.718C540.365 288.023 532.591 297.219 528.745 300.646C528.411 300.897 528.243 301.315 528.243 301.649C528.243 310.176 528.327 339.854 528.829 349.217C529.497 363.261 516.79 364.933 516.707 364.933H516.456V365.017ZM434.279 358.329H515.871C515.954 358.329 516.038 358.329 516.122 358.329C517.626 357.995 522.392 356.573 522.057 349.635C521.472 338.6 521.472 300.981 521.472 299.392V298.305C521.472 297.804 521.723 297.386 522.141 297.135L523.06 296.55C523.478 296.299 533.845 289.528 530.668 271.888C527.658 255.169 510.521 247.645 474.991 247.645C439.462 247.645 422.324 255.085 419.315 271.888C416.138 289.528 426.504 296.299 426.922 296.55L427.842 297.135C428.26 297.386 428.511 297.804 428.511 298.305V299.392C428.511 300.981 428.511 338.516 427.925 349.635C427.675 356.741 432.691 358.078 434.028 358.329C434.112 358.329 434.195 358.329 434.279 358.329Z" fill="white"/>
</g>
</g>
<defs>
<clipPath id="clip0">
<rect width="157.583" height="149.641" fill="white" transform="translate(48 61)"/>
</clipPath>
<clipPath id="clip1">
<rect width="157.583" height="149.641" fill="white" transform="translate(221.955 61)"/>
</clipPath>
<clipPath id="clip2">
<rect width="157.583" height="149.641" fill="white" transform="translate(395.908 61)"/>
</clipPath>
<clipPath id="clip3">
<rect width="157.583" height="149.641" fill="white" transform="translate(49 -104.999)"/>
</clipPath>
<clipPath id="clip4">
<rect width="157.583" height="149.641" fill="white" transform="translate(222.955 -105)"/>
</clipPath>
<clipPath id="clip5">
<rect width="157.583" height="149.641" fill="white" transform="translate(396.908 -105)"/>
</clipPath>
<clipPath id="clip6">
<rect width="157.583" height="149.641" fill="white" transform="translate(48 228)"/>
</clipPath>
<clipPath id="clip7">
<rect width="157.583" height="149.641" fill="white" transform="translate(221.955 228)"/>
</clipPath>
<clipPath id="clip8">
<rect width="157.583" height="149.641" fill="white" transform="translate(395.908 228)"/>
</clipPath>
</defs>
</svg>
