<svg width="715" height="149" viewBox="0 0 715 149" fill="none" xmlns="http://www.w3.org/2000/svg">
<path d="M64.7839 5.61742C64.9387 5.24369 65.3033 5 65.7078 5H648.012C648.414 5 648.776 5.24046 648.933 5.61044L706.869 142.611C707.148 143.27 706.664 144 705.948 144H8.97857C8.2659 144 7.782 143.276 8.05462 142.617L64.7839 5.61742Z" stroke="white" stroke-width="10"/>
<mask id="path-2-inside-1" fill="white">
<path fill-rule="evenodd" clip-rule="evenodd" d="M445.51 55.2282C445.51 69.061 404.954 80.2748 354.925 80.2748C305.015 80.2748 264.532 69.1142 264.341 55.3266V55.2277H445.51V55.2282ZM445.511 94.4673V55.2277H445.51C445.509 41.3951 404.953 30.1816 354.925 30.1816C304.896 30.1816 264.34 41.3954 264.34 55.2282C264.34 55.261 264.34 55.2938 264.341 55.3266V94.4673C264.341 94.4676 264.341 94.4678 264.341 94.468C264.341 108.301 304.897 119.515 354.926 119.515C404.954 119.515 445.511 108.301 445.511 94.468C445.511 94.4678 445.511 94.4676 445.511 94.4673Z"/>
</mask>
<path d="M264.341 55.2277V48.2277H257.341V55.2277H264.341ZM445.511 55.2277H452.511V48.2277H445.511V55.2277ZM264.341 94.4673L271.341 94.468V94.4673H264.341ZM354.925 87.2748C380.384 87.2748 403.687 84.4294 420.844 79.6856C429.372 77.3275 436.781 74.3928 442.222 70.8366C447.37 67.4712 452.51 62.3475 452.51 55.2282H438.51C438.51 55.2304 438.51 55.2377 438.507 55.2548C438.504 55.2726 438.495 55.312 438.471 55.3757C438.424 55.5043 438.31 55.7514 438.043 56.1118C437.483 56.868 436.413 57.9076 434.561 59.1183C430.834 61.5551 424.977 64.0176 417.113 66.1919C401.484 70.5133 379.495 73.2748 354.925 73.2748V87.2748ZM257.341 55.424C257.44 62.4947 262.592 67.57 267.747 70.9141C273.199 74.4503 280.605 77.3713 289.129 79.7196C306.273 84.4427 329.526 87.2748 354.925 87.2748V73.2748C330.414 73.2748 308.47 70.5265 292.848 66.2225C284.988 64.0572 279.119 61.6028 275.366 59.1687C273.501 57.9591 272.411 56.9153 271.834 56.1477C271.558 55.7813 271.436 55.5266 271.384 55.3899C271.358 55.3224 271.348 55.2797 271.344 55.2594C271.34 55.2398 271.34 55.2313 271.34 55.2292L257.341 55.424ZM257.341 55.2277V55.3266H271.341V55.2277H257.341ZM445.51 48.2277H264.341V62.2277H445.51V48.2277ZM452.51 55.2282V55.2277H438.51V55.2282H452.51ZM438.511 55.2277V94.4673H452.511V55.2277H438.511ZM445.51 62.2277H445.511V48.2277H445.51V62.2277ZM354.925 37.1816C379.494 37.1816 401.483 39.943 417.112 44.2643C424.976 46.4386 430.833 48.901 434.561 51.3378C436.413 52.5485 437.483 53.5881 438.043 54.3444C438.31 54.7048 438.424 54.952 438.471 55.0807C438.495 55.1444 438.504 55.1838 438.507 55.2016C438.51 55.2187 438.51 55.226 438.51 55.2282L452.51 55.2272C452.509 48.1081 447.369 42.9847 442.221 39.6194C436.781 36.0633 429.372 33.1287 420.843 30.7706C403.687 26.027 380.384 23.1816 354.925 23.1816V37.1816ZM271.34 55.2282C271.34 55.226 271.34 55.2187 271.343 55.2016C271.346 55.1838 271.355 55.1444 271.378 55.0807C271.426 54.9521 271.54 54.705 271.807 54.3446C272.367 53.5884 273.437 52.5488 275.289 51.3381C279.016 48.9013 284.873 46.4388 292.737 44.2645C308.366 39.9431 330.355 37.1816 354.925 37.1816V23.1816C329.466 23.1816 306.163 26.027 289.006 30.7708C280.477 33.1289 273.068 36.0636 267.628 39.6198C262.48 42.9852 257.34 48.1089 257.34 55.2282H271.34ZM271.34 55.2292C271.34 55.2289 271.34 55.2286 271.34 55.2282H257.34C257.34 55.2935 257.34 55.3587 257.341 55.424L271.34 55.2292ZM271.341 94.4673V55.3266H257.341V94.4673H271.341ZM271.341 94.468V94.468L257.341 94.4666C257.341 94.4673 257.341 94.4679 257.341 94.468H271.341ZM354.926 112.515C330.356 112.515 308.367 109.753 292.738 105.432C284.874 103.257 279.017 100.795 275.289 98.3581C273.437 97.1474 272.367 96.1078 271.808 95.3516C271.541 94.9912 271.426 94.7441 271.379 94.6155C271.356 94.5518 271.347 94.5124 271.344 94.4946C271.341 94.4775 271.341 94.4702 271.341 94.468H257.341C257.341 101.587 262.481 106.711 267.629 110.076C273.069 113.633 280.478 116.567 289.007 118.925C306.163 123.669 329.467 126.515 354.926 126.515V112.515ZM438.511 94.468C438.511 94.4702 438.511 94.4775 438.508 94.4946C438.504 94.5124 438.496 94.5518 438.472 94.6155C438.425 94.7441 438.31 94.9912 438.044 95.3516C437.484 96.1078 436.414 97.1474 434.562 98.3581C430.834 100.795 424.977 103.257 417.113 105.432C401.485 109.753 379.495 112.515 354.926 112.515V126.515C380.385 126.515 403.688 123.669 420.844 118.925C429.373 116.567 436.782 113.633 442.222 110.076C447.37 106.711 452.511 101.587 452.511 94.468H438.511ZM438.511 94.4673C438.511 94.4673 438.511 94.4673 438.511 94.4673V94.4673C438.511 94.4673 438.511 94.4673 438.511 94.4673C438.511 94.4673 438.511 94.4673 438.511 94.4674V94.4674C438.511 94.4674 438.511 94.4674 438.511 94.4674C438.511 94.4674 438.511 94.4674 438.511 94.4674C438.511 94.4674 438.511 94.4674 438.511 94.4674V94.4674C438.511 94.4674 438.511 94.4674 438.511 94.4674C438.511 94.4674 438.511 94.4674 438.511 94.4674V94.4674C438.511 94.4674 438.511 94.4674 438.511 94.4674C438.511 94.4674 438.511 94.4674 438.511 94.4674V94.4674C438.511 94.4674 438.511 94.4674 438.511 94.4674C438.511 94.4674 438.511 94.4674 438.511 94.4675V94.4675C438.511 94.4675 438.511 94.4675 438.511 94.4675C438.511 94.4675 438.511 94.4675 438.511 94.4675V94.4675C438.511 94.4675 438.511 94.4675 438.511 94.4675C438.511 94.4675 438.511 94.4675 438.511 94.4675C438.511 94.4675 438.511 94.4675 438.511 94.4675V94.4675C438.511 94.4675 438.511 94.4675 438.511 94.4675C438.511 94.4675 438.511 94.4675 438.511 94.4675V94.4675C438.511 94.4675 438.511 94.4675 438.511 94.4675C438.511 94.4675 438.511 94.4675 438.511 94.4676V94.4676C438.511 94.4676 438.511 94.4676 438.511 94.4676C438.511 94.4676 438.511 94.4676 438.511 94.4676V94.4676C438.511 94.4676 438.511 94.4676 438.511 94.4676C438.511 94.4676 438.511 94.4676 438.511 94.4676V94.4676V94.4676C438.511 94.4676 438.511 94.4676 438.511 94.4676C438.511 94.4676 438.511 94.4676 438.511 94.4676V94.4676C438.511 94.4676 438.511 94.4676 438.511 94.4676C438.511 94.4676 438.511 94.4676 438.511 94.4677V94.4677C438.511 94.4677 438.511 94.4677 438.511 94.4677C438.511 94.4677 438.511 94.4677 438.511 94.4677V94.4677C438.511 94.4677 438.511 94.4677 438.511 94.4677C438.511 94.4677 438.511 94.4677 438.511 94.4677V94.4677C438.511 94.4677 438.511 94.4677 438.511 94.4677C438.511 94.4677 438.511 94.4677 438.511 94.4677V94.4677V94.4677C438.511 94.4677 438.511 94.4677 438.511 94.4677C438.511 94.4677 438.511 94.4677 438.511 94.4678V94.4678C438.511 94.4678 438.511 94.4678 438.511 94.4678C438.511 94.4678 438.511 94.4678 438.511 94.4678V94.4678C438.511 94.4678 438.511 94.4678 438.511 94.4678C438.511 94.4678 438.511 94.4678 438.511 94.4678V94.4678C438.511 94.4678 438.511 94.4678 438.511 94.4678C438.511 94.4678 438.511 94.4678 438.511 94.4678V94.4678C438.511 94.4678 438.511 94.4678 438.511 94.4678C438.511 94.4678 438.511 94.4678 438.511 94.4678C438.511 94.4678 438.511 94.4678 438.511 94.4678V94.4679C438.511 94.4679 438.511 94.4679 438.511 94.4679C438.511 94.4679 438.511 94.4679 438.511 94.4679V94.4679C438.511 94.4679 438.511 94.4679 438.511 94.4679C438.511 94.4679 438.511 94.4679 438.511 94.4679V94.4679C438.511 94.4679 438.511 94.4679 438.511 94.4679C438.511 94.4679 438.511 94.4679 438.511 94.4679V94.4679C438.511 94.4679 438.511 94.4679 438.511 94.4679C438.511 94.4679 438.511 94.4679 438.511 94.4679V94.4679C438.511 94.468 438.511 94.468 438.511 94.468C438.511 94.468 438.511 94.468 438.511 94.468C438.511 94.468 438.511 94.468 438.511 94.468V94.468C438.511 94.468 438.511 94.468 438.511 94.468C438.511 94.468 438.511 94.468 438.511 94.468V94.468C438.511 94.468 438.511 94.468 438.511 94.468H452.511C452.511 94.468 452.511 94.468 452.511 94.468V94.468C452.511 94.468 452.511 94.468 452.511 94.468C452.511 94.468 452.511 94.468 452.511 94.468V94.468C452.511 94.468 452.511 94.468 452.511 94.468C452.511 94.468 452.511 94.468 452.511 94.468C452.511 94.468 452.511 94.468 452.511 94.4679V94.4679C452.511 94.4679 452.511 94.4679 452.511 94.4679C452.511 94.4679 452.511 94.4679 452.511 94.4679V94.4679C452.511 94.4679 452.511 94.4679 452.511 94.4679C452.511 94.4679 452.511 94.4679 452.511 94.4679V94.4679C452.511 94.4679 452.511 94.4679 452.511 94.4679C452.511 94.4679 452.511 94.4679 452.511 94.4679V94.4679C452.511 94.4679 452.511 94.4679 452.511 94.4679C452.511 94.4679 452.511 94.4679 452.511 94.4679V94.4678C452.511 94.4678 452.511 94.4678 452.511 94.4678C452.511 94.4678 452.511 94.4678 452.511 94.4678C452.511 94.4678 452.511 94.4678 452.511 94.4678V94.4678C452.511 94.4678 452.511 94.4678 452.511 94.4678C452.511 94.4678 452.511 94.4678 452.511 94.4678V94.4678C452.511 94.4678 452.511 94.4678 452.511 94.4678C452.511 94.4678 452.511 94.4678 452.511 94.4678V94.4678C452.511 94.4678 452.511 94.4678 452.511 94.4678C452.511 94.4678 452.511 94.4678 452.511 94.4678V94.4678C452.511 94.4677 452.511 94.4677 452.511 94.4677C452.511 94.4677 452.511 94.4677 452.511 94.4677V94.4677V94.4677C452.511 94.4677 452.511 94.4677 452.511 94.4677C452.511 94.4677 452.511 94.4677 452.511 94.4677V94.4677C452.511 94.4677 452.511 94.4677 452.511 94.4677C452.511 94.4677 452.511 94.4677 452.511 94.4677V94.4677C452.511 94.4677 452.511 94.4677 452.511 94.4677C452.511 94.4677 452.511 94.4677 452.511 94.4677V94.4677C452.511 94.4676 452.511 94.4676 452.511 94.4676C452.511 94.4676 452.511 94.4676 452.511 94.4676V94.4676C452.511 94.4676 452.511 94.4676 452.511 94.4676C452.511 94.4676 452.511 94.4676 452.511 94.4676V94.4676V94.4676C452.511 94.4676 452.511 94.4676 452.511 94.4676C452.511 94.4676 452.511 94.4676 452.511 94.4676V94.4676C452.511 94.4676 452.511 94.4676 452.511 94.4676C452.511 94.4676 452.511 94.4676 452.511 94.4676V94.4676C452.511 94.4675 452.511 94.4675 452.511 94.4675C452.511 94.4675 452.511 94.4675 452.511 94.4675V94.4675C452.511 94.4675 452.511 94.4675 452.511 94.4675C452.511 94.4675 452.511 94.4675 452.511 94.4675V94.4675C452.511 94.4675 452.511 94.4675 452.511 94.4675C452.511 94.4675 452.511 94.4675 452.511 94.4675C452.511 94.4675 452.511 94.4675 452.511 94.4675V94.4675C452.511 94.4675 452.511 94.4675 452.511 94.4675C452.511 94.4675 452.511 94.4675 452.511 94.4675V94.4675C452.511 94.4674 452.511 94.4674 452.511 94.4674C452.511 94.4674 452.511 94.4674 452.511 94.4674V94.4674C452.511 94.4674 452.511 94.4674 452.511 94.4674C452.511 94.4674 452.511 94.4674 452.511 94.4674V94.4674C452.511 94.4674 452.511 94.4674 452.511 94.4674C452.511 94.4674 452.511 94.4674 452.511 94.4674V94.4674C452.511 94.4674 452.511 94.4674 452.511 94.4674C452.511 94.4674 452.511 94.4674 452.511 94.4674C452.511 94.4674 452.511 94.4674 452.511 94.4674V94.4674C452.511 94.4673 452.511 94.4673 452.511 94.4673C452.511 94.4673 452.511 94.4673 452.511 94.4673V94.4673C452.511 94.4673 452.511 94.4673 452.511 94.4673H438.511Z" fill="white" mask="url(#path-2-inside-1)"/>
<ellipse cx="354.925" cy="55.2282" rx="90.5851" ry="25.0466" fill="white"/>
</svg>
