<svg width="278" height="90" viewBox="0 0 278 90" fill="none" xmlns="http://www.w3.org/2000/svg">
<rect opacity="0.5" width="89.8776" height="89.8776" rx="15" fill="white"/>
<rect opacity="0.5" x="93.5713" width="89.8776" height="89.8776" rx="15" fill="white"/>
<rect opacity="0.5" x="187.143" width="89.8776" height="89.8776" rx="15" fill="white"/>
<path d="M78.1044 19.1202C74.3357 13.6179 68.042 10 60.8439 10H25.833C18.5218 10 12.7934 13.5425 9.77849 19.5724C9.66543 19.7985 9.21319 20.703 8.98707 20.8914C7.51729 22.9642 6.61281 24.2455 5.59527 25.7153C4.91691 26.6952 4.23855 27.7127 4.05012 28.881C3.86169 30.0493 4.23855 31.2176 4.61542 32.3482C5.67065 35.6646 6.72587 38.9433 7.7811 42.2598C7.85647 42.5612 7.93184 42.8627 7.93184 43.1642V75.4994C7.93184 77.9113 9.89155 79.871 12.3035 79.871H77.5014C79.8379 79.871 81.76 77.949 81.76 75.6124V40.5639C82.6267 37.8127 83.4935 35.0993 84.398 32.3482C84.7749 31.2176 85.1141 30.0493 84.9633 28.881C84.7749 27.7127 84.0965 26.6952 83.4182 25.7153" fill="#00BAE7"/>
<path d="M79.4233 27.3351C77.3505 15.7653 65.1401 11.959 45.8068 11.959C26.4736 11.959 14.2631 15.7653 12.1903 27.3351C10.1176 38.9049 17.4288 43.3519 17.4288 43.3519C17.4288 43.3519 17.4288 65.5494 17.1273 71.8807C16.8258 78.2121 22.3657 78.8528 22.3657 78.8528H45.8445H69.3233C69.3233 78.8528 74.8632 78.2121 74.5617 71.8807C74.2602 65.5494 74.2602 43.3519 74.2602 43.3519C74.2602 43.3519 81.4584 38.9049 79.4233 27.3351Z" fill="#C96A2D"/>
<path d="M76.7099 26.9582C74.6372 15.3884 62.4267 11.582 43.0934 11.582C23.7602 11.582 11.5497 15.3884 9.47697 26.9582C7.40421 38.528 14.7154 42.975 14.7154 42.975C14.7154 42.975 14.7154 65.1724 14.4139 71.5038C14.1124 77.8351 19.6524 78.4758 19.6524 78.4758H43.1311H66.6099C66.6099 78.4758 72.1498 77.8351 71.8483 71.5038C71.5468 65.1724 71.5468 42.975 71.5468 42.975C71.5468 42.975 78.7827 38.528 76.7099 26.9582Z" fill="#EFD0A3"/>
<g opacity="0.25">
<path opacity="0.25" d="M22.5919 40.7502C23.2996 40.7502 23.8732 40.1765 23.8732 39.4688C23.8732 38.7612 23.2996 38.1875 22.5919 38.1875C21.8842 38.1875 21.3105 38.7612 21.3105 39.4688C21.3105 40.1765 21.8842 40.7502 22.5919 40.7502Z" fill="#C96A2D"/>
<path opacity="0.25" d="M34.652 36.8303C35.3596 36.8303 35.9333 36.2566 35.9333 35.5489C35.9333 34.8413 35.3596 34.2676 34.652 34.2676C33.9443 34.2676 33.3706 34.8413 33.3706 35.5489C33.3706 36.2566 33.9443 36.8303 34.652 36.8303Z" fill="#C96A2D"/>
<path opacity="0.25" d="M33.6339 25.676C34.3416 25.676 34.9152 25.1023 34.9152 24.3946C34.9152 23.687 34.3416 23.1133 33.6339 23.1133C32.9262 23.1133 32.3525 23.687 32.3525 24.3946C32.3525 25.1023 32.9262 25.676 33.6339 25.676Z" fill="#C96A2D"/>
<path opacity="0.25" d="M31.109 53.3752C31.8167 53.3752 32.3903 52.8015 32.3903 52.0938C32.3903 51.3862 31.8167 50.8125 31.109 50.8125C30.4013 50.8125 29.8276 51.3862 29.8276 52.0938C29.8276 52.8015 30.4013 53.3752 31.109 53.3752Z" fill="#C96A2D"/>
<path opacity="0.25" d="M52.8922 46.3283C53.5999 46.3283 54.1735 45.7546 54.1735 45.047C54.1735 44.3393 53.5999 43.7656 52.8922 43.7656C52.1845 43.7656 51.6108 44.3393 51.6108 45.047C51.6108 45.7546 52.1845 46.3283 52.8922 46.3283Z" fill="#C96A2D"/>
<path opacity="0.25" d="M40.4176 45.0471C41.1252 45.0471 41.6989 44.4734 41.6989 43.7657C41.6989 43.0581 41.1252 42.4844 40.4176 42.4844C39.7099 42.4844 39.1362 43.0581 39.1362 43.7657C39.1362 44.4734 39.7099 45.0471 40.4176 45.0471Z" fill="#C96A2D"/>
<path opacity="0.25" d="M51.6104 29.8967C52.3181 29.8967 52.8918 29.323 52.8918 28.6153C52.8918 27.9077 52.3181 27.334 51.6104 27.334C50.9028 27.334 50.3291 27.9077 50.3291 28.6153C50.3291 29.323 50.9028 29.8967 51.6104 29.8967Z" fill="#C96A2D"/>
</g>
<path d="M43.0558 15.313C52.8544 15.313 59.9771 16.3305 64.9141 18.3656C69.6626 20.363 72.2253 23.3026 73.0167 27.5989C73.6951 31.3298 73.2805 34.4955 71.8484 37.0582C70.8686 38.7918 69.7003 39.6586 69.5119 39.8093L67.7406 40.7892V42.975C67.7406 43.8795 67.7406 65.3232 68.0798 71.6922C68.1551 73.5012 67.5145 74.0288 67.2884 74.2172C66.9115 74.5187 66.4969 74.6694 66.2331 74.7448H43.1312H19.9163C19.6525 74.6694 19.2379 74.5187 18.861 74.2172C18.6349 74.0288 17.9566 73.5012 18.0696 71.6922C18.3711 65.3232 18.4088 43.8795 18.4088 42.975V40.8645L16.6375 39.7716C16.6375 39.7716 15.5069 38.9802 14.4894 37.3597C12.9065 34.7593 12.4543 31.4806 13.1327 27.5989C13.8864 23.2649 16.4868 20.363 21.2353 18.3656C26.1346 16.3305 33.2573 15.313 43.0558 15.313ZM43.0558 11.582C23.7226 11.582 11.5121 15.3884 9.43937 26.9582C7.36661 38.528 14.6778 42.975 14.6778 42.975C14.6778 42.975 14.6778 65.1724 14.3763 71.5038C14.0371 77.8351 19.5771 78.4758 19.5771 78.4758H43.0558H66.5346C66.5346 78.4758 72.0746 77.8351 71.7731 71.5038C71.4716 65.1724 71.4716 42.975 71.4716 42.975C71.4716 42.975 78.7828 38.528 76.71 26.9582C74.5996 15.3884 62.3891 11.582 43.0558 11.582Z" fill="#F0C580"/>
<path opacity="0.15" d="M84.8879 28.881C84.6995 27.7127 84.0211 26.6952 83.3428 25.7153L78.1044 19.1202C74.3357 13.6179 68.042 10 60.8439 10H25.833C18.5218 10 12.7934 13.5425 9.77849 19.5724C9.66543 19.7985 9.21319 20.703 8.98707 20.8914C7.51729 22.9642 6.61281 24.2455 5.59527 25.7153C4.91691 26.6952 4.23855 27.7127 4.05012 28.881C3.86169 30.0493 4.23855 31.2176 4.61542 32.3482C5.67065 35.6646 6.72587 38.9433 7.7811 42.2598C7.85647 42.5612 7.93184 42.8627 7.93184 43.1642V75.4994C7.93184 77.9113 9.89155 79.871 12.3035 79.871H77.5014C79.8379 79.871 81.76 77.949 81.76 75.6124V40.5639C82.6267 37.8127 83.4935 35.0993 84.398 32.3482C84.6995 31.2553 85.0764 30.0493 84.8879 28.881Z" fill="white"/>
<path d="M57.3771 47.9512C57.3771 47.9512 56.2465 50.3631 51.7241 50.4008C49.6513 50.4008 40.3804 50.4762 39.1368 50.6646C32.127 51.7198 33.22 58.9934 33.22 58.9934C33.22 58.9934 34.3506 56.5814 38.873 56.5437C40.9457 56.5437 50.2166 56.4683 51.4603 56.2799C58.5077 55.2624 57.3771 47.9512 57.3771 47.9512Z" fill="#3358B6"/>
<path fill-rule="evenodd" clip-rule="evenodd" d="M43.2065 44.4459C36.4606 43.5791 31.1468 43.6545 28.0942 45.8026C27.2274 42.3731 26.8882 39.2074 27.4912 36.5694C28.5464 31.9339 31.486 30.8787 34.1994 30.7279C37.6289 30.5395 42.9804 31.6701 47.3521 32.2731C52.9674 33.0645 58.0174 33.2153 61.4469 31.2556C62.5398 34.0821 62.7282 36.9839 62.2383 39.8858C61.7484 43.2022 59.7887 44.9358 56.5476 45.3127C52.4021 45.7649 47.7289 45.0112 43.2065 44.4459Z" fill="white"/>
<path fill-rule="evenodd" clip-rule="evenodd" d="M40.7948 32.4234C41.3225 32.4234 41.5486 32.838 41.5486 33.2525C41.5486 33.7048 41.2848 34.1193 40.8325 34.1193C40.3426 34.1193 40.0788 33.7425 40.0411 33.2902C40.0411 32.8757 40.2295 32.4234 40.7948 32.4234ZM40.7948 32.1219C40.0788 32.1219 39.5512 32.4988 39.5512 33.2525C39.5512 34.0063 40.0034 34.4208 40.7948 34.4208C41.5486 34.4208 42.0385 34.0063 42.0385 33.2525C42.0385 32.5365 41.5486 32.1219 40.7948 32.1219ZM38.0814 33.1772V32.4988C38.3829 32.4988 38.7975 32.4234 38.7975 32.838C38.7975 33.1772 38.4206 33.1772 38.0814 33.1772ZM37.6292 34.4208H38.1191V33.5164C38.496 33.5164 38.9859 33.5164 39.212 33.1772C39.4381 32.838 39.3628 32.235 38.6844 32.1973H37.6292V34.4208ZM35.2926 32.1596H35.7072C35.7072 32.3858 35.7072 33.5164 35.7072 33.7048C35.8202 34.1947 36.687 34.157 36.7247 33.6671C36.7624 33.3656 36.7247 32.4988 36.7247 32.1596H37.1392C37.1392 32.4234 37.1769 33.6294 37.1016 33.8932C36.9508 34.5339 36.084 34.5339 35.6695 34.3455C35.2926 34.157 35.2549 33.8555 35.2549 33.4787L35.2926 32.1596ZM33.7474 33.1395V32.4611C34.0866 32.4611 34.5012 32.3858 34.5012 32.7626C34.5012 33.1772 34.0113 33.1395 33.7474 33.1395ZM33.2575 34.4208H33.7474V33.4787H34.0113L34.5389 34.4208H35.1042L34.5012 33.4033C34.8027 33.2902 34.9911 33.1018 34.9911 32.8003C34.9911 32.3481 34.6142 32.235 34.2751 32.1973H33.2575V34.4208ZM32.0515 33.1772V33.4787H32.4284V33.9686C32.0515 34.0817 31.4486 34.1193 31.2601 33.6294C31.0717 33.1395 31.2601 32.4234 31.9762 32.4234C32.24 32.4234 32.4284 32.4988 32.5415 32.7249L32.8053 32.4234C32.6168 32.1973 32.3907 32.1219 32.0139 32.1219C30.5441 32.1219 30.5441 33.6671 31.1471 34.1193C31.5993 34.4962 32.353 34.3831 32.9183 34.2324V33.1395L32.0515 33.1772ZM40.3803 44.8223C36.3101 44.4455 32.3907 44.6339 29.9788 46.6313C29.2251 46.5182 28.4713 46.3675 27.6799 46.2544C26.7377 43.2018 26.5493 39.9608 26.9639 36.6443C27.6422 33.4033 29.3381 30.5014 33.446 30.2753C37.7045 30.0115 43.4706 31.0667 49.2367 31.6697C53.3445 32.0843 56.9624 31.7451 59.3367 29.8984C60.2035 30.1622 61.0703 30.426 61.9747 30.6899C63.0676 33.8555 63.143 36.9458 62.6531 39.9985C61.937 44.3324 59.1105 45.8776 55.3419 45.9153C50.0658 45.9153 44.6012 45.1992 40.3803 44.8223ZM43.2068 44.4455C36.4609 43.5787 31.1471 43.6541 28.0945 45.8022C27.2277 42.3727 26.8885 39.207 27.4915 36.569C28.5467 31.9335 31.4863 30.8783 34.1997 30.7275C37.6292 30.5391 42.9807 31.6697 47.3523 32.2727C52.9676 33.0641 58.0176 33.2149 61.4471 31.2552C62.54 34.0817 62.7285 36.9835 62.2385 39.8854C61.7486 43.2018 59.7889 44.9354 56.5479 45.3123C52.4023 45.7645 47.7292 45.0108 43.2068 44.4455Z" fill="#3D438B"/>
<path fill-rule="evenodd" clip-rule="evenodd" d="M50.5175 40.7518H49.0854V36.5686H50.2914C50.9321 36.5686 51.1582 36.757 51.1959 37.0962C51.2335 37.6238 50.9321 37.8876 50.4421 37.8876H49.9899L49.4246 39.1313H50.5552C51.0828 39.1313 51.6104 39.5081 51.535 39.9981C51.422 40.4503 51.0451 40.7518 50.5175 40.7518ZM50.7436 42.1462H47.3518V35.1365H50.5929C51.7235 35.1365 52.7033 35.4757 52.8541 36.5309C52.9671 37.3223 52.741 37.8876 52.138 38.3022C53.0425 38.7167 53.4194 39.772 53.0802 40.7895C52.7787 41.807 51.5727 42.1462 50.7436 42.1462ZM56.9619 36.6816C57.9795 36.6816 58.8462 37.5484 58.8462 38.566C58.8462 39.6212 58.0171 40.4503 56.9619 40.4503C55.9444 40.4503 55.0776 39.5835 55.0776 38.566C55.1153 37.5484 55.9444 36.6816 56.9619 36.6816ZM56.9619 35.0234C58.8839 35.0234 60.4668 36.6063 60.4668 38.6037C60.4668 40.5634 58.8839 42.1839 56.9619 42.1839C55.0399 42.1839 53.4571 40.6011 53.4571 38.6037C53.4571 36.644 55.0399 35.0234 56.9619 35.0234ZM46.6358 35.1365V42.1462H44.9022V37.6992L43.7716 42.1462H42.1134L41.0582 37.7746V42.1462H39.3999V35.1365H42.0757L42.9802 39.0559L43.8847 35.1365H46.6358ZM36.9503 35.1365H38.6462V42.1462H36.9503V35.1365ZM33.8223 40.7518H32.3902V36.5686H33.5962C34.2369 36.5686 34.463 36.757 34.5007 37.0962C34.5384 37.6238 34.2369 37.8876 33.747 37.8876H33.2947L32.7294 39.1313H33.86C34.3876 39.1313 34.9152 39.5081 34.8399 39.9981C34.7645 40.4503 34.3499 40.7518 33.8223 40.7518ZM34.0861 42.1462H30.6943V35.1365H33.9354C35.066 35.1365 36.0458 35.4757 36.1966 36.5309C36.3096 37.3223 36.0835 37.8876 35.4805 38.3022C36.385 38.7167 36.7619 39.772 36.4227 40.7895C36.0835 41.807 34.9152 42.1462 34.0861 42.1462Z" fill="#DA243C"/>
<mask id="mask0" mask-type="alpha" maskUnits="userSpaceOnUse" x="4" y="10" width="81" height="70">
<path d="M78.1044 19.1202C74.3357 13.6179 68.042 10 60.8439 10H25.833C18.5218 10 12.7934 13.5425 9.77849 19.5724C9.66543 19.7985 9.21319 20.703 8.98707 20.8914C7.51729 22.9642 6.61281 24.2455 5.59527 25.7153C4.91691 26.6952 4.23855 27.7127 4.05012 28.881C3.86169 30.0493 4.23855 31.2176 4.61542 32.3482C5.67065 35.6646 6.72587 38.9433 7.7811 42.2598C7.85647 42.5612 7.93184 42.8627 7.93184 43.1642V75.4994C7.93184 77.9113 9.89155 79.871 12.3035 79.871H77.5014C79.8379 79.871 81.76 77.949 81.76 75.6124V40.5639C82.6267 37.8127 83.4935 35.0993 84.398 32.3482C84.7749 31.2176 85.1141 30.0493 84.9633 28.881C84.7749 27.7127 84.0965 26.6952 83.4182 25.7153" fill="#00BAE7"/>
</mask>
<g mask="url(#mask0)">
<path opacity="0.15" d="M-10.6335 105.445L31.813 -8.16602L28.459 -9.4191L-13.9874 104.192L-10.6335 105.445Z" fill="white"/>
<path opacity="0.15" d="M1.31576 114.316L43.7622 0.705078L42.1029 0.0851315L-0.343575 113.696L1.31576 114.316Z" fill="white"/>
<path opacity="0.15" d="M-1.22282 110.238L41.2236 -3.37305L33.9508 -6.09025L-8.49561 107.521L-1.22282 110.238Z" fill="white"/>
<path opacity="0.15" d="M49.4647 119.767L91.9111 6.15625L84.6383 3.43904L42.1919 117.05L49.4647 119.767Z" fill="white"/>
<path opacity="0.15" d="M40.4979 114.763L82.9443 1.15234L79.5904 -0.100737L37.1439 113.51L40.4979 114.763Z" fill="white"/>
<path opacity="0.15" d="M-18.1999 105.343L24.2466 -8.26758L16.9738 -10.9848L-25.4727 102.626L-18.1999 105.343Z" fill="white"/>
<path opacity="0.15" d="M-27.1667 100.339L15.2798 -13.2715L11.9258 -14.5246L-30.5206 99.0864L-27.1667 100.339Z" fill="white"/>
</g>
<path d="M172.104 19.1202C168.336 13.6179 162.042 10 154.844 10H119.833C112.522 10 106.793 13.5425 103.778 19.5724C103.665 19.7985 103.213 20.703 102.987 20.8914C101.517 22.9642 100.613 24.2455 99.5953 25.7153C98.9169 26.6952 98.2386 27.7127 98.0501 28.881C97.8617 30.0493 98.2386 31.2176 98.6154 32.3482C99.6706 35.6646 100.726 38.9433 101.781 42.2598C101.856 42.5612 101.932 42.8627 101.932 43.1642V75.4994C101.932 77.9113 103.892 79.871 106.303 79.871H171.501C173.838 79.871 175.76 77.949 175.76 75.6124V40.5639C176.627 37.8127 177.494 35.0993 178.398 32.3482C178.775 31.2176 179.114 30.0493 178.963 28.881C178.775 27.7127 178.097 26.6952 177.418 25.7153" fill="#00BAE7"/>
<path d="M173.423 27.3351C171.351 15.7653 159.14 11.959 139.807 11.959C120.474 11.959 108.263 15.7653 106.19 27.3351C104.118 38.9049 111.429 43.3519 111.429 43.3519C111.429 43.3519 111.429 65.5494 111.127 71.8807C110.826 78.2121 116.366 78.8528 116.366 78.8528H139.845H163.323C163.323 78.8528 168.863 78.2121 168.562 71.8807C168.26 65.5494 168.26 43.3519 168.26 43.3519C168.26 43.3519 175.458 38.9049 173.423 27.3351Z" fill="#C96A2D"/>
<path d="M170.71 26.9582C168.637 15.3884 156.427 11.582 137.093 11.582C117.76 11.582 105.55 15.3884 103.477 26.9582C101.404 38.528 108.715 42.975 108.715 42.975C108.715 42.975 108.715 65.1724 108.414 71.5038C108.112 77.8351 113.652 78.4758 113.652 78.4758H137.131H160.61C160.61 78.4758 166.15 77.8351 165.848 71.5038C165.547 65.1724 165.547 42.975 165.547 42.975C165.547 42.975 172.783 38.528 170.71 26.9582Z" fill="#EFD0A3"/>
<g opacity="0.25">
<path opacity="0.25" d="M116.592 40.7502C117.3 40.7502 117.873 40.1765 117.873 39.4688C117.873 38.7612 117.3 38.1875 116.592 38.1875C115.884 38.1875 115.311 38.7612 115.311 39.4688C115.311 40.1765 115.884 40.7502 116.592 40.7502Z" fill="#C96A2D"/>
<path opacity="0.25" d="M128.652 36.8303C129.36 36.8303 129.933 36.2566 129.933 35.5489C129.933 34.8413 129.36 34.2676 128.652 34.2676C127.944 34.2676 127.371 34.8413 127.371 35.5489C127.371 36.2566 127.944 36.8303 128.652 36.8303Z" fill="#C96A2D"/>
<path opacity="0.25" d="M127.634 25.676C128.342 25.676 128.915 25.1023 128.915 24.3946C128.915 23.687 128.342 23.1133 127.634 23.1133C126.926 23.1133 126.353 23.687 126.353 24.3946C126.353 25.1023 126.926 25.676 127.634 25.676Z" fill="#C96A2D"/>
<path opacity="0.25" d="M125.109 53.3752C125.817 53.3752 126.39 52.8015 126.39 52.0938C126.39 51.3862 125.817 50.8125 125.109 50.8125C124.401 50.8125 123.828 51.3862 123.828 52.0938C123.828 52.8015 124.401 53.3752 125.109 53.3752Z" fill="#C96A2D"/>
<path opacity="0.25" d="M146.892 46.3283C147.6 46.3283 148.174 45.7546 148.174 45.047C148.174 44.3393 147.6 43.7656 146.892 43.7656C146.185 43.7656 145.611 44.3393 145.611 45.047C145.611 45.7546 146.185 46.3283 146.892 46.3283Z" fill="#C96A2D"/>
<path opacity="0.25" d="M134.418 45.0471C135.125 45.0471 135.699 44.4734 135.699 43.7657C135.699 43.0581 135.125 42.4844 134.418 42.4844C133.71 42.4844 133.136 43.0581 133.136 43.7657C133.136 44.4734 133.71 45.0471 134.418 45.0471Z" fill="#C96A2D"/>
<path opacity="0.25" d="M145.61 29.8967C146.318 29.8967 146.892 29.323 146.892 28.6153C146.892 27.9077 146.318 27.334 145.61 27.334C144.903 27.334 144.329 27.9077 144.329 28.6153C144.329 29.323 144.903 29.8967 145.61 29.8967Z" fill="#C96A2D"/>
</g>
<path d="M137.056 15.313C146.854 15.313 153.977 16.3305 158.914 18.3656C163.663 20.363 166.225 23.3026 167.017 27.5989C167.695 31.3298 167.281 34.4955 165.848 37.0582C164.869 38.7918 163.7 39.6586 163.512 39.8093L161.741 40.7892V42.975C161.741 43.8795 161.741 65.3232 162.08 71.6922C162.155 73.5012 161.514 74.0288 161.288 74.2172C160.911 74.5187 160.497 74.6694 160.233 74.7448H137.131H113.916C113.652 74.6694 113.238 74.5187 112.861 74.2172C112.635 74.0288 111.957 73.5012 112.07 71.6922C112.371 65.3232 112.409 43.8795 112.409 42.975V40.8645L110.638 39.7716C110.638 39.7716 109.507 38.9802 108.489 37.3597C106.907 34.7593 106.454 31.4806 107.133 27.5989C107.886 23.2649 110.487 20.363 115.235 18.3656C120.135 16.3305 127.257 15.313 137.056 15.313ZM137.056 11.582C117.723 11.582 105.512 15.3884 103.439 26.9582C101.367 38.528 108.678 42.975 108.678 42.975C108.678 42.975 108.678 65.1724 108.376 71.5038C108.037 77.8351 113.577 78.4758 113.577 78.4758H137.056H160.535C160.535 78.4758 166.075 77.8351 165.773 71.5038C165.472 65.1724 165.472 42.975 165.472 42.975C165.472 42.975 172.783 38.528 170.71 26.9582C168.6 15.3884 156.389 11.582 137.056 11.582Z" fill="#F0C580"/>
<path opacity="0.15" d="M178.888 28.881C178.7 27.7127 178.021 26.6952 177.343 25.7153L172.104 19.1202C168.336 13.6179 162.042 10 154.844 10H119.833C112.522 10 106.793 13.5425 103.778 19.5724C103.665 19.7985 103.213 20.703 102.987 20.8914C101.517 22.9642 100.613 24.2455 99.5953 25.7153C98.9169 26.6952 98.2386 27.7127 98.0501 28.881C97.8617 30.0493 98.2386 31.2176 98.6154 32.3482C99.6706 35.6646 100.726 38.9433 101.781 42.2598C101.856 42.5612 101.932 42.8627 101.932 43.1642V75.4994C101.932 77.9113 103.892 79.871 106.303 79.871H171.501C173.838 79.871 175.76 77.949 175.76 75.6124V40.5639C176.627 37.8127 177.494 35.0993 178.398 32.3482C178.7 31.2553 179.076 30.0493 178.888 28.881Z" fill="white"/>
<path d="M151.377 47.9512C151.377 47.9512 150.246 50.3631 145.724 50.4008C143.651 50.4008 134.38 50.4762 133.137 50.6646C126.127 51.7198 127.22 58.9934 127.22 58.9934C127.22 58.9934 128.351 56.5814 132.873 56.5437C134.946 56.5437 144.217 56.4683 145.46 56.2799C152.508 55.2624 151.377 47.9512 151.377 47.9512Z" fill="#3358B6"/>
<path fill-rule="evenodd" clip-rule="evenodd" d="M137.207 44.4459C130.461 43.5791 125.147 43.6545 122.094 45.8026C121.227 42.3731 120.888 39.2074 121.491 36.5694C122.546 31.9339 125.486 30.8787 128.199 30.7279C131.629 30.5395 136.98 31.6701 141.352 32.2731C146.967 33.0645 152.017 33.2153 155.447 31.2556C156.54 34.0821 156.728 36.9839 156.238 39.8858C155.748 43.2022 153.789 44.9358 150.548 45.3127C146.402 45.7649 141.729 45.0112 137.207 44.4459Z" fill="white"/>
<path fill-rule="evenodd" clip-rule="evenodd" d="M134.795 32.4234C135.322 32.4234 135.549 32.838 135.549 33.2525C135.549 33.7048 135.285 34.1193 134.833 34.1193C134.343 34.1193 134.079 33.7425 134.041 33.2902C134.041 32.8757 134.23 32.4234 134.795 32.4234ZM134.795 32.1219C134.079 32.1219 133.551 32.4988 133.551 33.2525C133.551 34.0063 134.003 34.4208 134.795 34.4208C135.549 34.4208 136.039 34.0063 136.039 33.2525C136.039 32.5365 135.549 32.1219 134.795 32.1219ZM132.081 33.1772V32.4988C132.383 32.4988 132.797 32.4234 132.797 32.838C132.797 33.1772 132.421 33.1772 132.081 33.1772ZM131.629 34.4208H132.119V33.5164C132.496 33.5164 132.986 33.5164 133.212 33.1772C133.438 32.838 133.363 32.235 132.684 32.1973H131.629V34.4208ZM129.293 32.1596H129.707C129.707 32.3858 129.707 33.5164 129.707 33.7048C129.82 34.1947 130.687 34.157 130.725 33.6671C130.762 33.3656 130.725 32.4988 130.725 32.1596H131.139C131.139 32.4234 131.177 33.6294 131.102 33.8932C130.951 34.5339 130.084 34.5339 129.669 34.3455C129.293 34.157 129.255 33.8555 129.255 33.4787L129.293 32.1596ZM127.747 33.1395V32.4611C128.087 32.4611 128.501 32.3858 128.501 32.7626C128.501 33.1772 128.011 33.1395 127.747 33.1395ZM127.258 34.4208H127.747V33.4787H128.011L128.539 34.4208H129.104L128.501 33.4033C128.803 33.2902 128.991 33.1018 128.991 32.8003C128.991 32.3481 128.614 32.235 128.275 32.1973H127.258V34.4208ZM126.052 33.1772V33.4787H126.428V33.9686C126.052 34.0817 125.449 34.1193 125.26 33.6294C125.072 33.1395 125.26 32.4234 125.976 32.4234C126.24 32.4234 126.428 32.4988 126.541 32.7249L126.805 32.4234C126.617 32.1973 126.391 32.1219 126.014 32.1219C124.544 32.1219 124.544 33.6671 125.147 34.1193C125.599 34.4962 126.353 34.3831 126.918 34.2324V33.1395L126.052 33.1772ZM134.38 44.8223C130.31 44.4455 126.391 44.6339 123.979 46.6313C123.225 46.5182 122.471 46.3675 121.68 46.2544C120.738 43.2018 120.549 39.9608 120.964 36.6443C121.642 33.4033 123.338 30.5014 127.446 30.2753C131.705 30.0115 137.471 31.0667 143.237 31.6697C147.344 32.0843 150.962 31.7451 153.337 29.8984C154.203 30.1622 155.07 30.426 155.975 30.6899C157.068 33.8555 157.143 36.9458 156.653 39.9985C155.937 44.3324 153.111 45.8776 149.342 45.9153C144.066 45.9153 138.601 45.1992 134.38 44.8223ZM137.207 44.4455C130.461 43.5787 125.147 43.6541 122.094 45.8022C121.228 42.3727 120.888 39.207 121.491 36.569C122.547 31.9335 125.486 30.8783 128.2 30.7275C131.629 30.5391 136.981 31.6697 141.352 32.2727C146.968 33.0641 152.018 33.2149 155.447 31.2552C156.54 34.0817 156.728 36.9835 156.239 39.8854C155.749 43.2018 153.789 44.9354 150.548 45.3123C146.402 45.7645 141.729 45.0108 137.207 44.4455Z" fill="#3D438B"/>
<path fill-rule="evenodd" clip-rule="evenodd" d="M144.518 40.7518H143.085V36.5686H144.291C144.932 36.5686 145.158 36.757 145.196 37.0962C145.234 37.6238 144.932 37.8876 144.442 37.8876H143.99L143.425 39.1313H144.555C145.083 39.1313 145.61 39.5081 145.535 39.9981C145.422 40.4503 145.045 40.7518 144.518 40.7518ZM144.744 42.1462H141.352V35.1365H144.593C145.723 35.1365 146.703 35.4757 146.854 36.5309C146.967 37.3223 146.741 37.8876 146.138 38.3022C147.043 38.7167 147.419 39.772 147.08 40.7895C146.779 41.807 145.573 42.1462 144.744 42.1462ZM150.962 36.6816C151.979 36.6816 152.846 37.5484 152.846 38.566C152.846 39.6212 152.017 40.4503 150.962 40.4503C149.944 40.4503 149.078 39.5835 149.078 38.566C149.115 37.5484 149.944 36.6816 150.962 36.6816ZM150.962 35.0234C152.884 35.0234 154.467 36.6063 154.467 38.6037C154.467 40.5634 152.884 42.1839 150.962 42.1839C149.04 42.1839 147.457 40.6011 147.457 38.6037C147.457 36.644 149.04 35.0234 150.962 35.0234ZM140.636 35.1365V42.1462H138.902V37.6992L137.772 42.1462H136.113L135.058 37.7746V42.1462H133.4V35.1365H136.076L136.98 39.0559L137.885 35.1365H140.636ZM130.95 35.1365H132.646V42.1462H130.95V35.1365ZM127.822 40.7518H126.39V36.5686H127.596C128.237 36.5686 128.463 36.757 128.501 37.0962C128.538 37.6238 128.237 37.8876 127.747 37.8876H127.295L126.729 39.1313H127.86C128.388 39.1313 128.915 39.5081 128.84 39.9981C128.764 40.4503 128.35 40.7518 127.822 40.7518ZM128.086 42.1462H124.694V35.1365H127.935C129.066 35.1365 130.046 35.4757 130.197 36.5309C130.31 37.3223 130.084 37.8876 129.481 38.3022C130.385 38.7167 130.762 39.772 130.423 40.7895C130.084 41.807 128.915 42.1462 128.086 42.1462Z" fill="#DA243C"/>
<mask id="mask1" mask-type="alpha" maskUnits="userSpaceOnUse" x="98" y="10" width="81" height="70">
<path d="M172.104 19.1202C168.336 13.6179 162.042 10 154.844 10H119.833C112.522 10 106.793 13.5425 103.778 19.5724C103.665 19.7985 103.213 20.703 102.987 20.8914C101.517 22.9642 100.613 24.2455 99.5953 25.7153C98.9169 26.6952 98.2386 27.7127 98.0501 28.881C97.8617 30.0493 98.2386 31.2176 98.6154 32.3482C99.6706 35.6646 100.726 38.9433 101.781 42.2598C101.856 42.5612 101.932 42.8627 101.932 43.1642V75.4994C101.932 77.9113 103.892 79.871 106.303 79.871H171.501C173.838 79.871 175.76 77.949 175.76 75.6124V40.5639C176.627 37.8127 177.494 35.0993 178.398 32.3482C178.775 31.2176 179.114 30.0493 178.963 28.881C178.775 27.7127 178.097 26.6952 177.418 25.7153" fill="#00BAE7"/>
</mask>
<g mask="url(#mask1)">
<path opacity="0.15" d="M83.3665 105.445L125.813 -8.16602L122.459 -9.4191L80.0126 104.192L83.3665 105.445Z" fill="white"/>
<path opacity="0.15" d="M95.3158 114.316L137.762 0.705078L136.103 0.0851315L93.6564 113.696L95.3158 114.316Z" fill="white"/>
<path opacity="0.15" d="M92.7772 110.238L135.224 -3.37305L127.951 -6.09025L85.5044 107.521L92.7772 110.238Z" fill="white"/>
<path opacity="0.15" d="M143.465 119.767L185.911 6.15625L178.638 3.43904L136.192 117.05L143.465 119.767Z" fill="white"/>
<path opacity="0.15" d="M134.498 114.763L176.944 1.15234L173.59 -0.100737L131.144 113.51L134.498 114.763Z" fill="white"/>
<path opacity="0.15" d="M75.8001 105.343L118.247 -8.26758L110.974 -10.9848L68.5273 102.626L75.8001 105.343Z" fill="white"/>
<path opacity="0.15" d="M66.8333 100.339L109.28 -13.2715L105.926 -14.5246L63.4794 99.0864L66.8333 100.339Z" fill="white"/>
</g>
<path d="M265.104 19.1202C261.336 13.6179 255.042 10 247.844 10H212.833C205.522 10 199.793 13.5425 196.778 19.5724C196.665 19.7985 196.213 20.703 195.987 20.8914C194.517 22.9642 193.613 24.2455 192.595 25.7153C191.917 26.6952 191.239 27.7127 191.05 28.881C190.862 30.0493 191.239 31.2176 191.615 32.3482C192.671 35.6646 193.726 38.9433 194.781 42.2598C194.856 42.5612 194.932 42.8627 194.932 43.1642V75.4994C194.932 77.9113 196.892 79.871 199.303 79.871H264.501C266.838 79.871 268.76 77.949 268.76 75.6124V40.5639C269.627 37.8127 270.494 35.0993 271.398 32.3482C271.775 31.2176 272.114 30.0493 271.963 28.881C271.775 27.7127 271.097 26.6952 270.418 25.7153" fill="#00BAE7"/>
<path d="M266.423 27.3351C264.351 15.7653 252.14 11.959 232.807 11.959C213.474 11.959 201.263 15.7653 199.19 27.3351C197.118 38.9049 204.429 43.3519 204.429 43.3519C204.429 43.3519 204.429 65.5494 204.127 71.8807C203.826 78.2121 209.366 78.8528 209.366 78.8528H232.845H256.323C256.323 78.8528 261.863 78.2121 261.562 71.8807C261.26 65.5494 261.26 43.3519 261.26 43.3519C261.26 43.3519 268.458 38.9049 266.423 27.3351Z" fill="#C96A2D"/>
<path d="M263.71 26.9582C261.637 15.3884 249.427 11.582 230.093 11.582C210.76 11.582 198.55 15.3884 196.477 26.9582C194.404 38.528 201.715 42.975 201.715 42.975C201.715 42.975 201.715 65.1724 201.414 71.5038C201.112 77.8351 206.652 78.4758 206.652 78.4758H230.131H253.61C253.61 78.4758 259.15 77.8351 258.848 71.5038C258.547 65.1724 258.547 42.975 258.547 42.975C258.547 42.975 265.783 38.528 263.71 26.9582Z" fill="#EFD0A3"/>
<g opacity="0.25">
<path opacity="0.25" d="M209.592 40.7502C210.3 40.7502 210.873 40.1765 210.873 39.4688C210.873 38.7612 210.3 38.1875 209.592 38.1875C208.884 38.1875 208.311 38.7612 208.311 39.4688C208.311 40.1765 208.884 40.7502 209.592 40.7502Z" fill="#C96A2D"/>
<path opacity="0.25" d="M221.652 36.8303C222.36 36.8303 222.933 36.2566 222.933 35.5489C222.933 34.8413 222.36 34.2676 221.652 34.2676C220.944 34.2676 220.371 34.8413 220.371 35.5489C220.371 36.2566 220.944 36.8303 221.652 36.8303Z" fill="#C96A2D"/>
<path opacity="0.25" d="M220.634 25.676C221.342 25.676 221.915 25.1023 221.915 24.3946C221.915 23.687 221.342 23.1133 220.634 23.1133C219.926 23.1133 219.353 23.687 219.353 24.3946C219.353 25.1023 219.926 25.676 220.634 25.676Z" fill="#C96A2D"/>
<path opacity="0.25" d="M218.109 53.3752C218.817 53.3752 219.39 52.8015 219.39 52.0938C219.39 51.3862 218.817 50.8125 218.109 50.8125C217.401 50.8125 216.828 51.3862 216.828 52.0938C216.828 52.8015 217.401 53.3752 218.109 53.3752Z" fill="#C96A2D"/>
<path opacity="0.25" d="M239.892 46.3283C240.6 46.3283 241.174 45.7546 241.174 45.047C241.174 44.3393 240.6 43.7656 239.892 43.7656C239.185 43.7656 238.611 44.3393 238.611 45.047C238.611 45.7546 239.185 46.3283 239.892 46.3283Z" fill="#C96A2D"/>
<path opacity="0.25" d="M227.418 45.0471C228.125 45.0471 228.699 44.4734 228.699 43.7657C228.699 43.0581 228.125 42.4844 227.418 42.4844C226.71 42.4844 226.136 43.0581 226.136 43.7657C226.136 44.4734 226.71 45.0471 227.418 45.0471Z" fill="#C96A2D"/>
<path opacity="0.25" d="M238.61 29.8967C239.318 29.8967 239.892 29.323 239.892 28.6153C239.892 27.9077 239.318 27.334 238.61 27.334C237.903 27.334 237.329 27.9077 237.329 28.6153C237.329 29.323 237.903 29.8967 238.61 29.8967Z" fill="#C96A2D"/>
</g>
<path d="M230.056 15.313C239.854 15.313 246.977 16.3305 251.914 18.3656C256.663 20.363 259.225 23.3026 260.017 27.5989C260.695 31.3298 260.281 34.4955 258.848 37.0582C257.869 38.7918 256.7 39.6586 256.512 39.8093L254.741 40.7892V42.975C254.741 43.8795 254.741 65.3232 255.08 71.6922C255.155 73.5012 254.514 74.0288 254.288 74.2172C253.911 74.5187 253.497 74.6694 253.233 74.7448H230.131H206.916C206.652 74.6694 206.238 74.5187 205.861 74.2172C205.635 74.0288 204.957 73.5012 205.07 71.6922C205.371 65.3232 205.409 43.8795 205.409 42.975V40.8645L203.638 39.7716C203.638 39.7716 202.507 38.9802 201.489 37.3597C199.907 34.7593 199.454 31.4806 200.133 27.5989C200.886 23.2649 203.487 20.363 208.235 18.3656C213.135 16.3305 220.257 15.313 230.056 15.313ZM230.056 11.582C210.723 11.582 198.512 15.3884 196.439 26.9582C194.367 38.528 201.678 42.975 201.678 42.975C201.678 42.975 201.678 65.1724 201.376 71.5038C201.037 77.8351 206.577 78.4758 206.577 78.4758H230.056H253.535C253.535 78.4758 259.075 77.8351 258.773 71.5038C258.472 65.1724 258.472 42.975 258.472 42.975C258.472 42.975 265.783 38.528 263.71 26.9582C261.6 15.3884 249.389 11.582 230.056 11.582Z" fill="#F0C580"/>
<path opacity="0.15" d="M271.888 28.881C271.7 27.7127 271.021 26.6952 270.343 25.7153L265.104 19.1202C261.336 13.6179 255.042 10 247.844 10H212.833C205.522 10 199.793 13.5425 196.778 19.5724C196.665 19.7985 196.213 20.703 195.987 20.8914C194.517 22.9642 193.613 24.2455 192.595 25.7153C191.917 26.6952 191.239 27.7127 191.05 28.881C190.862 30.0493 191.239 31.2176 191.615 32.3482C192.671 35.6646 193.726 38.9433 194.781 42.2598C194.856 42.5612 194.932 42.8627 194.932 43.1642V75.4994C194.932 77.9113 196.892 79.871 199.303 79.871H264.501C266.838 79.871 268.76 77.949 268.76 75.6124V40.5639C269.627 37.8127 270.494 35.0993 271.398 32.3482C271.7 31.2553 272.076 30.0493 271.888 28.881Z" fill="white"/>
<path d="M244.377 47.9512C244.377 47.9512 243.246 50.3631 238.724 50.4008C236.651 50.4008 227.38 50.4762 226.137 50.6646C219.127 51.7198 220.22 58.9934 220.22 58.9934C220.22 58.9934 221.351 56.5814 225.873 56.5437C227.946 56.5437 237.217 56.4683 238.46 56.2799C245.508 55.2624 244.377 47.9512 244.377 47.9512Z" fill="#3358B6"/>
<path fill-rule="evenodd" clip-rule="evenodd" d="M230.207 44.4459C223.461 43.5791 218.147 43.6545 215.094 45.8026C214.227 42.3731 213.888 39.2074 214.491 36.5694C215.546 31.9339 218.486 30.8787 221.199 30.7279C224.629 30.5395 229.98 31.6701 234.352 32.2731C239.967 33.0645 245.017 33.2153 248.447 31.2556C249.54 34.0821 249.728 36.9839 249.238 39.8858C248.748 43.2022 246.789 44.9358 243.548 45.3127C239.402 45.7649 234.729 45.0112 230.207 44.4459Z" fill="white"/>
<path fill-rule="evenodd" clip-rule="evenodd" d="M227.795 32.4234C228.322 32.4234 228.549 32.838 228.549 33.2525C228.549 33.7048 228.285 34.1193 227.833 34.1193C227.343 34.1193 227.079 33.7425 227.041 33.2902C227.041 32.8757 227.23 32.4234 227.795 32.4234ZM227.795 32.1219C227.079 32.1219 226.551 32.4988 226.551 33.2525C226.551 34.0063 227.003 34.4208 227.795 34.4208C228.549 34.4208 229.039 34.0063 229.039 33.2525C229.039 32.5365 228.549 32.1219 227.795 32.1219ZM225.081 33.1772V32.4988C225.383 32.4988 225.797 32.4234 225.797 32.838C225.797 33.1772 225.421 33.1772 225.081 33.1772ZM224.629 34.4208H225.119V33.5164C225.496 33.5164 225.986 33.5164 226.212 33.1772C226.438 32.838 226.363 32.235 225.684 32.1973H224.629V34.4208ZM222.293 32.1596H222.707C222.707 32.3858 222.707 33.5164 222.707 33.7048C222.82 34.1947 223.687 34.157 223.725 33.6671C223.762 33.3656 223.725 32.4988 223.725 32.1596H224.139C224.139 32.4234 224.177 33.6294 224.102 33.8932C223.951 34.5339 223.084 34.5339 222.669 34.3455C222.293 34.157 222.255 33.8555 222.255 33.4787L222.293 32.1596ZM220.747 33.1395V32.4611C221.087 32.4611 221.501 32.3858 221.501 32.7626C221.501 33.1772 221.011 33.1395 220.747 33.1395ZM220.258 34.4208H220.747V33.4787H221.011L221.539 34.4208H222.104L221.501 33.4033C221.803 33.2902 221.991 33.1018 221.991 32.8003C221.991 32.3481 221.614 32.235 221.275 32.1973H220.258V34.4208ZM219.052 33.1772V33.4787H219.428V33.9686C219.052 34.0817 218.449 34.1193 218.26 33.6294C218.072 33.1395 218.26 32.4234 218.976 32.4234C219.24 32.4234 219.428 32.4988 219.541 32.7249L219.805 32.4234C219.617 32.1973 219.391 32.1219 219.014 32.1219C217.544 32.1219 217.544 33.6671 218.147 34.1193C218.599 34.4962 219.353 34.3831 219.918 34.2324V33.1395L219.052 33.1772ZM227.38 44.8223C223.31 44.4455 219.391 44.6339 216.979 46.6313C216.225 46.5182 215.471 46.3675 214.68 46.2544C213.738 43.2018 213.549 39.9608 213.964 36.6443C214.642 33.4033 216.338 30.5014 220.446 30.2753C224.705 30.0115 230.471 31.0667 236.237 31.6697C240.344 32.0843 243.962 31.7451 246.337 29.8984C247.203 30.1622 248.07 30.426 248.975 30.6899C250.068 33.8555 250.143 36.9458 249.653 39.9985C248.937 44.3324 246.111 45.8776 242.342 45.9153C237.066 45.9153 231.601 45.1992 227.38 44.8223ZM230.207 44.4455C223.461 43.5787 218.147 43.6541 215.094 45.8022C214.228 42.3727 213.888 39.207 214.491 36.569C215.547 31.9335 218.486 30.8783 221.2 30.7275C224.629 30.5391 229.981 31.6697 234.352 32.2727C239.968 33.0641 245.018 33.2149 248.447 31.2552C249.54 34.0817 249.728 36.9835 249.239 39.8854C248.749 43.2018 246.789 44.9354 243.548 45.3123C239.402 45.7645 234.729 45.0108 230.207 44.4455Z" fill="#3D438B"/>
<path fill-rule="evenodd" clip-rule="evenodd" d="M237.518 40.7518H236.085V36.5686H237.291C237.932 36.5686 238.158 36.757 238.196 37.0962C238.234 37.6238 237.932 37.8876 237.442 37.8876H236.99L236.425 39.1313H237.555C238.083 39.1313 238.61 39.5081 238.535 39.9981C238.422 40.4503 238.045 40.7518 237.518 40.7518ZM237.744 42.1462H234.352V35.1365H237.593C238.723 35.1365 239.703 35.4757 239.854 36.5309C239.967 37.3223 239.741 37.8876 239.138 38.3022C240.043 38.7167 240.419 39.772 240.08 40.7895C239.779 41.807 238.573 42.1462 237.744 42.1462ZM243.962 36.6816C244.979 36.6816 245.846 37.5484 245.846 38.566C245.846 39.6212 245.017 40.4503 243.962 40.4503C242.944 40.4503 242.078 39.5835 242.078 38.566C242.115 37.5484 242.944 36.6816 243.962 36.6816ZM243.962 35.0234C245.884 35.0234 247.467 36.6063 247.467 38.6037C247.467 40.5634 245.884 42.1839 243.962 42.1839C242.04 42.1839 240.457 40.6011 240.457 38.6037C240.457 36.644 242.04 35.0234 243.962 35.0234ZM233.636 35.1365V42.1462H231.902V37.6992L230.772 42.1462H229.113L228.058 37.7746V42.1462H226.4V35.1365H229.076L229.98 39.0559L230.885 35.1365H233.636ZM223.95 35.1365H225.646V42.1462H223.95V35.1365ZM220.822 40.7518H219.39V36.5686H220.596C221.237 36.5686 221.463 36.757 221.501 37.0962C221.538 37.6238 221.237 37.8876 220.747 37.8876H220.295L219.729 39.1313H220.86C221.388 39.1313 221.915 39.5081 221.84 39.9981C221.764 40.4503 221.35 40.7518 220.822 40.7518ZM221.086 42.1462H217.694V35.1365H220.935C222.066 35.1365 223.046 35.4757 223.197 36.5309C223.31 37.3223 223.084 37.8876 222.481 38.3022C223.385 38.7167 223.762 39.772 223.423 40.7895C223.084 41.807 221.915 42.1462 221.086 42.1462Z" fill="#DA243C"/>
<mask id="mask2" mask-type="alpha" maskUnits="userSpaceOnUse" x="191" y="10" width="81" height="70">
<path d="M265.104 19.1202C261.336 13.6179 255.042 10 247.844 10H212.833C205.522 10 199.793 13.5425 196.778 19.5724C196.665 19.7985 196.213 20.703 195.987 20.8914C194.517 22.9642 193.613 24.2455 192.595 25.7153C191.917 26.6952 191.239 27.7127 191.05 28.881C190.862 30.0493 191.239 31.2176 191.615 32.3482C192.671 35.6646 193.726 38.9433 194.781 42.2598C194.856 42.5612 194.932 42.8627 194.932 43.1642V75.4994C194.932 77.9113 196.892 79.871 199.303 79.871H264.501C266.838 79.871 268.76 77.949 268.76 75.6124V40.5639C269.627 37.8127 270.494 35.0993 271.398 32.3482C271.775 31.2176 272.114 30.0493 271.963 28.881C271.775 27.7127 271.097 26.6952 270.418 25.7153" fill="#00BAE7"/>
</mask>
<g mask="url(#mask2)">
<path opacity="0.15" d="M176.367 105.445L218.813 -8.16602L215.459 -9.4191L173.013 104.192L176.367 105.445Z" fill="white"/>
<path opacity="0.15" d="M188.316 114.316L230.762 0.705078L229.103 0.0851315L186.656 113.696L188.316 114.316Z" fill="white"/>
<path opacity="0.15" d="M185.777 110.238L228.224 -3.37305L220.951 -6.09025L178.504 107.521L185.777 110.238Z" fill="white"/>
<path opacity="0.15" d="M236.465 119.767L278.911 6.15625L271.638 3.43904L229.192 117.05L236.465 119.767Z" fill="white"/>
<path opacity="0.15" d="M227.498 114.763L269.944 1.15234L266.59 -0.100737L224.144 113.51L227.498 114.763Z" fill="white"/>
<path opacity="0.15" d="M168.8 105.343L211.247 -8.26758L203.974 -10.9848L161.527 102.626L168.8 105.343Z" fill="white"/>
<path opacity="0.15" d="M159.833 100.339L202.28 -13.2715L198.926 -14.5246L156.479 99.0864L159.833 100.339Z" fill="white"/>
</g>
</svg>
