<svg width="1920" height="1065" viewBox="0 0 1920 1065" fill="none" xmlns="http://www.w3.org/2000/svg">
<path d="M1273.01 433.316C1275.51 430.616 1278.11 427.816 1280.61 425.116C1287.51 417.616 1294.41 410.216 1301.21 402.716C1311.41 391.716 1321.61 380.616 1331.71 369.616C1339.61 361.016 1347.51 352.516 1355.41 343.916C1357.01 342.116 1355.71 339.216 1353.31 339.316C1348.91 339.416 1344.41 337.816 1341.51 334.516C1341.41 334.416 1341.41 334.416 1341.31 334.316C1336.31 328.516 1327.31 328.316 1322.11 333.916C1319.41 336.916 1316.61 339.916 1313.91 342.816C1306.11 351.216 1298.31 359.716 1290.61 368.116C1286.91 372.116 1283.31 376.116 1279.61 380.116C1279.41 380.316 1279.31 380.416 1279.11 380.616C1274.61 385.516 1265.51 385.216 1261.21 380.316C1256.41 374.916 1256.71 367.616 1261.51 362.416C1264.01 359.716 1266.61 356.916 1269.11 354.216C1270.31 352.816 1271.61 351.516 1272.81 350.116C1277.61 344.916 1277.21 337.116 1272.21 332.116C1272.11 332.016 1271.91 331.816 1271.81 331.716C1267.01 326.316 1267.31 319.016 1272.11 313.816C1274.61 311.116 1277.21 308.316 1279.71 305.616C1286.61 298.116 1293.51 290.716 1300.31 283.216C1310.51 272.216 1320.71 261.116 1330.81 250.116C1343.21 236.716 1355.51 223.216 1367.91 209.816C1381.51 195.016 1395.11 180.316 1408.71 165.516C1422.41 150.716 1436.11 135.816 1449.71 121.016C1462.51 107.116 1475.31 93.2162 1488.11 79.3162C1499.01 67.4162 1509.81 55.7162 1520.71 44.0162C1528.51 35.6162 1536.31 27.1162 1544.01 18.7162C1547.71 14.7162 1551.31 10.7162 1555.01 6.71623C1555.21 6.51623 1555.31 6.41623 1555.51 6.21623C1560.01 1.31623 1569.01 1.51623 1573.41 6.51623C1578.21 11.9162 1577.91 19.2162 1573.11 24.4162C1570.61 27.1162 1568.01 29.9162 1565.51 32.6162C1564.21 34.0162 1563.01 35.3162 1561.71 36.7162C1557.01 41.9162 1557.41 49.7162 1562.31 54.7162C1562.41 54.8162 1562.61 55.0162 1562.71 55.1162L1562.81 55.2162C1566.81 59.8162 1573.91 60.0162 1578.11 55.5162C1582.21 51.1162 1586.31 46.6162 1590.41 42.2162C1598.21 33.8162 1606.01 25.3162 1613.81 16.9162C1617.51 12.9162 1621.11 8.91623 1624.81 4.91623C1625.01 4.71623 1625.11 4.61623 1625.31 4.41623C1630.91 -1.68377 1642.31 -1.38377 1647.71 4.81623C1653.71 11.5162 1653.41 20.7162 1647.31 27.2162C1644.81 29.9162 1642.21 32.7162 1639.71 35.4162C1632.81 42.9162 1625.91 50.3162 1619.11 57.8162C1608.91 68.9162 1598.71 80.0162 1588.51 91.0162C1580.61 99.6162 1572.71 108.116 1564.81 116.716C1563.21 118.516 1564.51 121.416 1566.91 121.316C1571.31 121.216 1575.81 122.816 1578.71 126.116C1584.71 132.816 1584.41 142.016 1578.31 148.516C1575.81 151.216 1573.21 154.016 1570.71 156.716C1563.81 164.216 1556.91 171.616 1550.11 179.116C1539.91 190.116 1529.71 201.216 1519.61 212.216C1507.21 225.616 1494.91 239.116 1482.51 252.516C1468.91 267.316 1455.31 282.016 1441.71 296.816C1428.01 311.616 1414.31 326.516 1400.71 341.316C1387.91 355.216 1375.11 369.116 1362.31 383.016C1351.51 394.716 1340.71 406.516 1329.91 418.216C1322.11 426.616 1314.31 435.116 1306.61 443.516C1302.91 447.516 1299.31 451.516 1295.61 455.516C1295.41 455.716 1295.31 455.816 1295.11 456.016C1289.51 462.116 1278.11 461.816 1272.71 455.616C1266.61 449.016 1267.01 439.916 1273.01 433.316Z" fill="#A599E8"/>
<path d="M1396.85 974.412C1400.55 970.412 1404.25 966.412 1407.95 962.412C1418.05 951.512 1428.15 940.613 1438.25 929.713C1453.15 913.713 1468.05 897.613 1482.95 881.613C1485.75 878.513 1488.65 875.513 1491.45 872.413C1495.05 868.613 1492.95 862.313 1487.75 861.513C1483.05 860.713 1478.55 858.613 1475.25 855.113C1466.45 845.513 1466.45 831.813 1475.25 822.213C1478.95 818.213 1482.65 814.213 1486.35 810.213C1496.45 799.313 1506.55 788.413 1516.65 777.513C1531.55 761.513 1546.45 745.413 1561.35 729.413C1579.55 709.813 1597.65 690.313 1615.85 670.713C1635.75 649.313 1655.65 627.813 1675.55 606.413C1695.65 584.813 1715.75 563.113 1735.75 541.513C1754.55 521.313 1773.35 501.113 1792.05 480.813C1807.95 463.713 1823.75 446.613 1839.65 429.513C1851.05 417.313 1862.35 405.013 1873.75 392.813C1879.15 387.013 1884.45 381.213 1889.85 375.413C1890.05 375.213 1890.35 374.913 1890.55 374.713C1898.85 365.813 1915.15 365.713 1923.45 374.713C1932.25 384.313 1932.25 398.013 1923.45 407.613C1919.75 411.613 1916.05 415.613 1912.35 419.613C1902.25 430.513 1892.15 441.413 1882.05 452.313C1867.15 468.313 1852.25 484.413 1837.35 500.413C1834.55 503.513 1831.65 506.513 1828.85 509.613C1825.25 513.413 1827.35 519.713 1832.55 520.513C1837.25 521.313 1841.75 523.413 1845.05 526.913C1853.85 536.513 1853.85 550.213 1845.05 559.813C1841.35 563.813 1837.65 567.813 1833.95 571.813C1823.85 582.713 1813.75 593.613 1803.65 604.513C1788.75 620.513 1773.85 636.613 1758.95 652.613C1740.75 672.213 1722.65 691.713 1704.45 711.313C1684.55 732.713 1664.65 754.213 1644.75 775.613C1624.65 797.213 1604.55 818.913 1584.55 840.513C1565.75 860.713 1546.95 880.913 1528.25 901.213C1512.35 918.312 1496.55 935.413 1480.65 952.513C1469.25 964.713 1457.95 977.013 1446.55 989.213C1441.15 995.013 1435.85 1000.81 1430.45 1006.61C1430.25 1006.81 1429.95 1007.11 1429.75 1007.31C1421.45 1016.21 1405.15 1016.31 1396.85 1007.31C1388.05 997.713 1388.05 983.912 1396.85 974.412Z" fill="#A599E8"/>
<path d="M-244.462 1040.66C-239.462 1035.26 -234.462 1029.86 -229.462 1024.46C-215.862 1009.76 -202.162 995.062 -188.562 980.362C-168.362 958.662 -148.262 936.863 -128.062 915.163C-103.462 888.663 -78.8618 862.062 -54.1617 835.562C-27.1617 806.463 -0.261719 777.462 26.7383 748.362C27.7383 747.263 28.8383 746.163 29.8383 744.963C33.5383 740.963 31.0382 734.263 25.5382 733.963C18.1382 733.463 10.8383 730.562 5.83826 725.062C-5.86176 712.362 -5.96173 694.062 5.83826 681.362C10.8383 675.962 15.8383 670.563 20.8383 665.163C34.4382 650.463 48.1383 635.763 61.7383 621.062C81.9383 599.362 102.038 577.563 122.238 555.863C146.838 529.363 171.438 502.763 196.138 476.263C223.138 447.163 250.038 418.163 277.038 389.063C304.238 359.763 331.438 330.363 358.738 301.063C384.138 273.663 409.538 246.363 434.938 218.963C456.438 195.863 477.838 172.763 499.338 149.563C514.738 132.963 530.238 116.263 545.638 99.6625C552.938 91.7625 560.238 83.7625 567.638 75.9625C567.938 75.6625 568.238 75.2625 568.538 74.9625C579.538 63.0625 601.238 62.9625 612.238 74.9625C623.938 87.6625 624.038 105.963 612.238 118.663C607.238 124.063 602.238 129.463 597.238 134.863C583.638 149.563 569.938 164.263 556.338 178.963C536.138 200.663 516.038 222.463 495.838 244.163C471.238 270.663 446.638 297.263 421.938 323.763C394.938 352.863 368.038 381.863 341.038 410.963C340.538 411.463 340.138 411.963 339.638 412.463C335.738 416.663 338.738 423.563 344.438 423.463C354.238 423.463 364.038 426.963 370.638 434.163C377.138 441.263 380.638 449.763 381.138 458.363C381.438 464.163 388.538 466.763 392.538 462.463C392.638 462.363 392.638 462.363 392.738 462.263C414.238 439.163 435.638 416.063 457.138 392.863C472.538 376.263 488.038 359.563 503.438 342.963C510.738 335.063 518.038 327.063 525.438 319.263C525.738 318.963 526.038 318.563 526.338 318.263C537.338 306.363 559.038 306.263 570.038 318.263C581.738 330.963 581.838 349.263 570.038 361.963C565.038 367.363 560.038 372.763 555.038 378.163C541.438 392.863 527.738 407.563 514.138 422.263C493.938 443.963 473.838 465.763 453.638 487.463C429.038 513.963 404.438 540.563 379.738 567.063C352.738 596.163 325.838 625.163 298.838 654.263C271.638 683.562 244.438 712.963 217.138 742.263C191.738 769.663 166.338 796.962 140.938 824.362C119.438 847.462 98.0382 870.562 76.5382 893.763C61.1382 910.362 45.6383 927.063 30.2383 943.663C22.9383 951.563 15.6383 959.562 8.23828 967.362C7.93829 967.662 7.63824 968.062 7.33826 968.362C-3.66174 980.263 -25.3618 980.362 -36.3618 968.362C-41.2618 963.062 -44.1618 956.663 -44.9618 950.163C-45.6618 944.663 -52.5617 942.563 -56.2617 946.563C-56.9617 947.363 -57.6618 948.162 -58.4618 948.862C-79.9618 971.962 -101.362 995.062 -122.862 1018.26C-138.262 1034.86 -153.762 1051.56 -169.162 1068.16C-176.462 1076.06 -183.762 1083.96 -191.162 1091.86C-191.462 1092.16 -191.762 1092.56 -192.062 1092.86C-205.262 1107.16 -231.262 1107.26 -244.462 1092.86C-258.462 1077.86 -258.562 1055.96 -244.462 1040.66Z" fill="#A599E8"/>
</svg>
