<svg width="449" height="800" viewBox="0 0 449 800" fill="none" xmlns="http://www.w3.org/2000/svg">
<mask id="mask0" mask-type="alpha" maskUnits="userSpaceOnUse" x="0" y="0" width="449" height="800">
<rect width="449" height="800" fill="#C4C4C4"/>
</mask>
<g mask="url(#mask0)">
<g style="mix-blend-mode:exclusion">
<path opacity="0.82" d="M282.413 785.805C282.413 785.805 309.372 767.065 296.049 756.098C282.727 745.13 271.538 760.609 271.538 760.609C271.538 760.609 265.731 751.596 259.773 751.432C253.814 751.269 250.708 757.257 250.708 757.257C250.708 757.257 250.856 736.719 225.525 730.349C200.194 723.98 202.922 758.75 202.922 758.75C202.922 758.75 183.921 743.473 168.544 745.829C153.166 748.185 157.624 766.386 157.624 766.386C157.624 766.386 143.408 764.648 139.301 770.523C132.582 780.194 169.26 787.62 183.227 789.552C197.164 791.482 219.493 786.71 219.493 786.71L282.413 785.805Z" fill="#686868"/>
<path d="M209.278 732.386C207.97 732.587 206.723 731.756 206.51 730.525C206.297 729.293 207.179 728.119 208.487 727.919C209.795 727.718 211.042 728.549 211.255 729.78C211.468 731.011 210.586 732.186 209.278 732.386Z" fill="#686868"/>
<path d="M209.43 759.107C208.122 759.307 206.875 758.477 206.663 757.245C206.45 756.014 207.332 754.84 208.639 754.639C209.947 754.439 211.194 755.269 211.407 756.501C211.62 757.732 210.738 758.878 209.43 759.107Z" fill="#686868"/>
<path d="M241.911 751.603C241.272 751.689 240.695 751.288 240.573 750.715C240.482 750.114 240.907 749.57 241.516 749.455C242.154 749.369 242.732 749.77 242.854 750.343C242.976 750.944 242.55 751.488 241.911 751.603Z" fill="#686868"/>
<path d="M220.104 718.497C218.796 718.698 217.549 717.867 217.336 716.636C217.123 715.404 218.005 714.23 219.313 714.03C220.621 713.829 221.868 714.66 222.081 715.891C222.294 717.123 221.412 718.297 220.104 718.497Z" fill="#686868"/>
<path d="M199.819 742.182C199.272 742.268 198.724 741.924 198.633 741.38C198.542 740.865 198.907 740.349 199.485 740.263C200.032 740.177 200.58 740.521 200.671 741.065C200.762 741.609 200.397 742.096 199.819 742.182Z" fill="#686868"/>
<path d="M204.413 763.461C204.504 763.976 204.139 764.492 203.561 764.578C203.014 764.664 202.467 764.32 202.375 763.776C202.284 763.26 202.649 762.745 203.227 762.659C203.805 762.573 204.322 762.945 204.413 763.461Z" fill="#686868"/>
<path d="M172.903 780.985C172.994 781.5 172.63 782.016 172.052 782.102C171.504 782.188 170.957 781.844 170.866 781.3C170.774 780.784 171.139 780.269 171.717 780.183C172.295 780.097 172.812 780.441 172.903 780.985Z" fill="#686868"/>
<path d="M182.697 761.511C182.758 761.769 182.545 762.027 182.271 762.084C181.997 762.141 181.724 761.941 181.663 761.683C181.602 761.426 181.815 761.168 182.089 761.111C182.393 761.082 182.636 761.254 182.697 761.511Z" fill="#686868"/>
<path d="M170.423 773.303C170.9 773.007 171.032 772.403 170.718 771.954C170.403 771.505 169.762 771.381 169.285 771.677C168.808 771.973 168.677 772.577 168.991 773.026C169.305 773.475 169.947 773.599 170.423 773.303Z" fill="#686868"/>
<path d="M164.722 770.848C164.813 771.364 164.448 771.879 163.87 771.965C163.323 772.051 162.775 771.707 162.684 771.163C162.593 770.648 162.958 770.132 163.535 770.046C164.083 769.96 164.63 770.304 164.722 770.848Z" fill="#686868"/>
<path d="M176.157 744.856C176.63 744.554 176.753 743.948 176.432 743.503C176.112 743.058 175.469 742.942 174.996 743.244C174.524 743.546 174.401 744.152 174.721 744.597C175.042 745.042 175.685 745.158 176.157 744.856Z" fill="#686868"/>
<path d="M215.268 766.323C215.36 766.838 214.995 767.354 214.417 767.44C213.869 767.526 213.322 767.182 213.231 766.638C213.139 766.094 213.504 765.607 214.082 765.521C214.63 765.435 215.177 765.779 215.268 766.323Z" fill="#686868"/>
<path d="M224.819 749.857C224.911 750.373 224.546 750.888 223.968 750.974C223.42 751.06 222.873 750.716 222.782 750.172C222.69 749.628 223.055 749.141 223.633 749.055C224.211 748.969 224.728 749.342 224.819 749.857Z" fill="#686868"/>
</g>
<g style="mix-blend-mode:exclusion">
<path opacity="0.82" d="M320.314 668.805C320.314 668.805 293.355 650.065 306.677 639.098C320 628.13 331.188 643.609 331.188 643.609C331.188 643.609 336.995 634.596 342.954 634.432C348.912 634.269 352.018 640.257 352.018 640.257C352.018 640.257 351.871 619.719 377.202 613.349C402.533 606.98 399.804 641.75 399.804 641.75C399.804 641.75 418.805 626.473 434.183 628.829C449.56 631.185 445.102 649.386 445.102 649.386C445.102 649.386 459.319 647.648 463.425 653.523C470.144 663.194 433.466 670.62 419.499 672.552C405.563 674.482 383.234 669.71 383.234 669.71L320.314 668.805Z" fill="#686868"/>
<path d="M393.449 615.386C394.756 615.587 396.003 614.756 396.216 613.525C396.429 612.293 395.547 611.119 394.239 610.919C392.932 610.718 391.685 611.549 391.472 612.78C391.259 614.011 392.141 615.186 393.449 615.386Z" fill="#686868"/>
<path d="M393.296 642.107C394.604 642.307 395.851 641.477 396.064 640.245C396.277 639.014 395.395 637.84 394.087 637.639C392.779 637.439 391.532 638.269 391.319 639.501C391.107 640.732 391.989 641.878 393.296 642.107Z" fill="#686868"/>
<path d="M360.815 634.603C361.454 634.689 362.032 634.288 362.154 633.715C362.245 633.114 361.819 632.57 361.211 632.455C360.572 632.369 359.994 632.77 359.873 633.343C359.751 633.944 360.177 634.488 360.815 634.603Z" fill="#686868"/>
<path d="M382.623 601.497C383.93 601.698 385.177 600.867 385.39 599.636C385.603 598.404 384.721 597.23 383.413 597.03C382.105 596.829 380.858 597.66 380.646 598.891C380.433 600.123 381.315 601.297 382.623 601.497Z" fill="#686868"/>
<path d="M402.907 625.182C403.455 625.268 404.002 624.924 404.093 624.38C404.185 623.865 403.82 623.349 403.242 623.263C402.694 623.177 402.147 623.521 402.056 624.065C401.965 624.609 402.329 625.096 402.907 625.182Z" fill="#686868"/>
<path d="M398.314 646.461C398.222 646.976 398.587 647.492 399.165 647.578C399.713 647.664 400.26 647.32 400.351 646.776C400.443 646.26 400.078 645.745 399.5 645.659C398.922 645.573 398.405 645.945 398.314 646.461Z" fill="#686868"/>
<path d="M429.823 663.985C429.732 664.5 430.097 665.016 430.675 665.102C431.222 665.188 431.77 664.844 431.861 664.3C431.952 663.784 431.587 663.269 431.009 663.183C430.432 663.097 429.915 663.441 429.823 663.985Z" fill="#686868"/>
<path d="M420.03 644.511C419.969 644.769 420.182 645.027 420.455 645.084C420.729 645.141 421.003 644.941 421.064 644.683C421.125 644.426 420.912 644.168 420.638 644.111C420.334 644.082 420.091 644.254 420.03 644.511Z" fill="#686868"/>
<path d="M432.303 656.303C431.826 656.007 431.695 655.403 432.009 654.954C432.323 654.505 432.965 654.381 433.441 654.677C433.918 654.973 434.05 655.577 433.736 656.026C433.421 656.475 432.78 656.599 432.303 656.303Z" fill="#686868"/>
<path d="M438.005 653.848C437.914 654.364 438.279 654.879 438.857 654.965C439.404 655.051 439.951 654.707 440.043 654.163C440.134 653.648 439.769 653.132 439.191 653.046C438.644 652.96 438.096 653.304 438.005 653.848Z" fill="#686868"/>
<path d="M426.569 627.856C426.097 627.554 425.973 626.948 426.294 626.503C426.615 626.058 427.258 625.942 427.73 626.244C428.203 626.546 428.326 627.152 428.005 627.597C427.685 628.042 427.042 628.158 426.569 627.856Z" fill="#686868"/>
<path d="M387.458 649.323C387.367 649.838 387.732 650.354 388.31 650.44C388.857 650.526 389.405 650.182 389.496 649.638C389.587 649.094 389.222 648.607 388.644 648.521C388.097 648.435 387.549 648.779 387.458 649.323Z" fill="#686868"/>
<path d="M377.907 632.857C377.816 633.373 378.181 633.888 378.759 633.974C379.306 634.06 379.854 633.716 379.945 633.172C380.036 632.628 379.671 632.141 379.093 632.055C378.516 631.969 377.999 632.342 377.907 632.857Z" fill="#686868"/>
</g>
<g style="mix-blend-mode:exclusion">
<path opacity="0.56" d="M169.017 608.117C169.017 631.939 150.573 651.232 127.946 651.232C116.537 651.232 106.269 646.367 98.8531 638.482C95.6206 640.999 91.4373 642.509 86.8738 642.509C76.9862 642.509 69 635.295 69 626.571C69 617.847 76.9862 610.633 86.8738 610.633C86.8738 610.633 86.8738 610.633 87.064 610.633C87.064 609.794 86.8738 608.955 86.8738 608.117C86.8738 584.294 105.318 565.001 127.946 565.001C150.573 565.001 169.017 584.294 169.017 608.117Z" fill="#686868"/>
<path opacity="0.56" d="M127.946 656.096C132.32 656.096 135.742 659.787 135.742 664.317C135.742 668.846 132.13 672.537 127.946 672.537C123.573 672.537 120.15 668.846 120.15 664.317C120.15 659.787 123.573 656.096 127.946 656.096Z" fill="#686868"/>
</g>
<g style="mix-blend-mode:exclusion">
<path opacity="0.56" d="M223.017 285.117C223.017 308.939 204.573 328.232 181.946 328.232C170.537 328.232 160.269 323.367 152.853 315.482C149.621 317.999 145.437 319.509 140.874 319.509C130.986 319.509 123 312.295 123 303.571C123 294.847 130.986 287.633 140.874 287.633C140.874 287.633 140.874 287.633 141.064 287.633C141.064 286.794 140.874 285.955 140.874 285.117C140.874 261.294 159.318 242.001 181.946 242.001C204.573 242.001 223.017 261.294 223.017 285.117Z" fill="#686868"/>
<path opacity="0.56" d="M181.946 333.096C186.32 333.096 189.742 336.787 189.742 341.317C189.742 345.846 186.13 349.537 181.946 349.537C177.573 349.537 174.15 345.846 174.15 341.317C174.15 336.787 177.573 333.096 181.946 333.096Z" fill="#686868"/>
</g>
<g style="mix-blend-mode:exclusion">
<path opacity="0.56" d="M341.017 497.2C341.017 473.377 322.573 454.084 299.946 454.084C288.537 454.084 278.269 458.949 270.853 466.834C267.621 464.318 263.437 462.808 258.874 462.808C248.986 462.808 241 470.022 241 478.746C241 487.469 248.986 494.683 258.874 494.683C258.874 494.683 258.874 494.683 259.064 494.683C259.064 495.522 258.874 496.361 258.874 497.2C258.874 521.023 277.318 540.316 299.946 540.316C322.573 540.316 341.017 521.023 341.017 497.2Z" fill="#686868"/>
<path opacity="0.56" d="M351.095 453.748C346.721 453.748 343.299 457.439 343.299 461.969C343.299 466.498 346.912 470.189 351.095 470.189C355.468 470.189 358.891 466.498 358.891 461.969C358.891 457.439 355.278 453.748 351.095 453.748Z" fill="#686868"/>
<path opacity="0.56" d="M299.946 449.22C304.32 449.22 307.742 445.529 307.742 441C307.742 436.47 304.13 432.779 299.946 432.779C295.573 432.779 292.15 436.47 292.15 441C292.15 445.529 295.573 449.22 299.946 449.22Z" fill="#686868"/>
<path opacity="0.56" d="M347.101 424.388C349.192 424.388 351.094 422.543 351.094 420.194C351.094 417.845 349.382 416 347.101 416C345.009 416 343.107 417.845 343.107 420.194C343.107 422.543 344.819 424.388 347.101 424.388Z" fill="#686868"/>
<path opacity="0.56" d="M333.03 541.49C323.142 541.49 315.156 548.704 315.156 557.428C315.156 566.32 323.142 573.366 333.03 573.366C342.918 573.366 350.904 566.152 350.904 557.428C351.094 548.704 342.918 541.49 333.03 541.49Z" fill="#686868"/>
</g>
<g style="mix-blend-mode:exclusion">
<path opacity="0.56" d="M361.017 153.2C361.017 129.377 342.573 110.084 319.946 110.084C308.537 110.084 298.269 114.949 290.853 122.834C287.621 120.318 283.437 118.808 278.874 118.808C268.986 118.808 261 126.022 261 134.746C261 143.469 268.986 150.683 278.874 150.683C278.874 150.683 278.874 150.683 279.064 150.683C279.064 151.522 278.874 152.361 278.874 153.2C278.874 177.023 297.318 196.316 319.946 196.316C342.573 196.316 361.017 177.023 361.017 153.2Z" fill="#686868"/>
<path opacity="0.56" d="M371.095 109.748C366.721 109.748 363.299 113.439 363.299 117.969C363.299 122.498 366.912 126.189 371.095 126.189C375.468 126.189 378.891 122.498 378.891 117.969C378.891 113.439 375.278 109.748 371.095 109.748Z" fill="#686868"/>
<path opacity="0.56" d="M319.946 105.22C324.32 105.22 327.742 101.529 327.742 96.9998C327.742 92.4701 324.13 88.7793 319.946 88.7793C315.573 88.7793 312.15 92.4701 312.15 96.9998C312.15 101.529 315.573 105.22 319.946 105.22Z" fill="#686868"/>
<path opacity="0.56" d="M367.101 80.3883C369.192 80.3883 371.094 78.5429 371.094 76.1942C371.094 73.8454 369.382 72 367.101 72C365.009 72 363.107 73.8454 363.107 76.1942C363.107 78.5429 364.819 80.3883 367.101 80.3883Z" fill="#686868"/>
<path opacity="0.56" d="M353.03 197.49C343.142 197.49 335.156 204.704 335.156 213.428C335.156 222.32 343.142 229.366 353.03 229.366C362.918 229.366 370.904 222.152 370.904 213.428C371.094 204.704 362.918 197.49 353.03 197.49Z" fill="#686868"/>
</g>
<g style="mix-blend-mode:exclusion">
<path opacity="0.56" d="M71.8733 175.2C71.8733 151.377 90.3176 132.084 112.945 132.084C124.354 132.084 134.622 136.949 142.038 144.834C145.27 142.318 149.453 140.808 154.017 140.808C163.904 140.808 171.891 148.022 171.891 156.746C171.891 165.469 163.904 172.683 154.017 172.683C154.017 172.683 154.017 172.683 153.827 172.683C153.827 173.522 154.017 174.361 154.017 175.2C154.017 199.023 135.573 218.316 112.945 218.316C90.3176 218.316 71.8733 199.023 71.8733 175.2Z" fill="#686868"/>
<path opacity="0.56" d="M61.7958 131.748C66.1692 131.748 69.5918 135.439 69.5918 139.969C69.5918 144.498 65.979 148.189 61.7958 148.189C57.4224 148.189 53.9997 144.498 53.9997 139.969C53.9997 135.439 57.6125 131.748 61.7958 131.748Z" fill="#686868"/>
<path opacity="0.56" d="M112.944 127.22C108.571 127.22 105.148 123.529 105.148 119C105.148 114.47 108.761 110.779 112.944 110.779C117.318 110.779 120.74 114.47 120.74 119C120.74 123.529 117.318 127.22 112.944 127.22Z" fill="#686868"/>
<path opacity="0.56" d="M65.7901 102.388C63.6985 102.388 61.797 100.543 61.797 98.1942C61.797 95.8454 63.5083 94 65.7901 94C67.8817 94 69.7832 95.8454 69.7832 98.1942C69.7832 100.543 68.0719 102.388 65.7901 102.388Z" fill="#686868"/>
<path opacity="0.56" d="M79.8606 219.49C89.7482 219.49 97.7344 226.704 97.7344 235.428C97.7344 244.32 89.7482 251.366 79.8606 251.366C69.9729 251.366 61.9868 244.152 61.9868 235.428C61.7966 226.704 69.9729 219.49 79.8606 219.49Z" fill="#686868"/>
</g>
<g style="mix-blend-mode:exclusion">
<path opacity="0.82" d="M170.413 418.805C170.413 418.805 197.372 400.065 184.049 389.098C170.727 378.13 159.538 393.609 159.538 393.609C159.538 393.609 153.731 384.596 147.773 384.432C141.814 384.269 138.708 390.257 138.708 390.257C138.708 390.257 138.856 369.719 113.525 363.349C88.1936 356.98 90.9223 391.75 90.9223 391.75C90.9223 391.75 71.9214 376.473 56.5439 378.829C41.1664 381.185 45.6243 399.386 45.6243 399.386C45.6243 399.386 31.4078 397.648 27.3012 403.523C20.5822 413.194 57.2604 420.62 71.2274 422.552C85.1641 424.482 107.493 419.71 107.493 419.71L170.413 418.805Z" fill="#686868"/>
<path d="M97.2779 365.386C95.9701 365.587 94.7231 364.756 94.5102 363.525C94.2973 362.293 95.1793 361.119 96.4871 360.919C97.7949 360.718 99.0419 361.549 99.2548 362.78C99.4677 364.011 98.5857 365.186 97.2779 365.386Z" fill="#686868"/>
<path d="M97.4302 392.107C96.1224 392.307 94.8754 391.477 94.6626 390.245C94.4497 389.014 95.3317 387.84 96.6395 387.639C97.9473 387.439 99.1942 388.269 99.4071 389.501C99.62 390.732 98.738 391.878 97.4302 392.107Z" fill="#686868"/>
<path d="M129.911 384.603C129.272 384.689 128.695 384.288 128.573 383.715C128.482 383.114 128.907 382.57 129.516 382.455C130.154 382.369 130.732 382.77 130.854 383.343C130.976 383.944 130.55 384.488 129.911 384.603Z" fill="#686868"/>
<path d="M108.104 351.497C106.796 351.698 105.549 350.867 105.336 349.636C105.123 348.404 106.005 347.23 107.313 347.03C108.621 346.829 109.868 347.66 110.081 348.891C110.294 350.123 109.412 351.297 108.104 351.497Z" fill="#686868"/>
<path d="M87.8192 375.182C87.2718 375.268 86.7243 374.924 86.6331 374.38C86.5418 373.865 86.9068 373.349 87.4847 373.263C88.0321 373.177 88.5796 373.521 88.6708 374.065C88.7621 374.609 88.3971 375.096 87.8192 375.182Z" fill="#686868"/>
<path d="M92.413 396.461C92.5042 396.976 92.1393 397.492 91.5614 397.578C91.014 397.664 90.4665 397.32 90.3753 396.776C90.284 396.26 90.649 395.745 91.2269 395.659C91.8047 395.573 92.3217 395.945 92.413 396.461Z" fill="#686868"/>
<path d="M60.9032 413.985C60.9945 414.5 60.6295 415.016 60.0516 415.102C59.5042 415.188 58.9567 414.844 58.8655 414.3C58.7743 413.784 59.1392 413.269 59.7171 413.183C60.295 413.097 60.812 413.441 60.9032 413.985Z" fill="#686868"/>
<path d="M70.6969 394.511C70.7577 394.769 70.5448 395.027 70.2711 395.084C69.9973 395.141 69.7236 394.941 69.6628 394.683C69.602 394.426 69.8149 394.168 70.0886 394.111C70.3927 394.082 70.636 394.254 70.6969 394.511Z" fill="#686868"/>
<path d="M58.4233 406.303C58.9001 406.007 59.0319 405.403 58.7176 404.954C58.4033 404.505 57.762 404.381 57.2852 404.677C56.8084 404.973 56.6766 405.577 56.9909 406.026C57.3052 406.475 57.9465 406.599 58.4233 406.303Z" fill="#686868"/>
<path d="M52.7216 403.848C52.8128 404.364 52.4479 404.879 51.87 404.965C51.3226 405.051 50.7751 404.707 50.6839 404.163C50.5926 403.648 50.9576 403.132 51.5354 403.046C52.0829 402.96 52.6303 403.304 52.7216 403.848Z" fill="#686868"/>
<path d="M64.1575 377.856C64.63 377.554 64.7531 376.948 64.4324 376.503C64.1118 376.058 63.4687 375.942 62.9962 376.244C62.5237 376.546 62.4006 377.152 62.7213 377.597C63.0419 378.042 63.6849 378.158 64.1575 377.856Z" fill="#686868"/>
<path d="M103.268 399.323C103.36 399.838 102.995 400.354 102.417 400.44C101.869 400.526 101.322 400.182 101.231 399.638C101.139 399.094 101.504 398.607 102.082 398.521C102.63 398.435 103.177 398.779 103.268 399.323Z" fill="#686868"/>
<path d="M112.819 382.857C112.911 383.373 112.546 383.888 111.968 383.974C111.42 384.06 110.873 383.716 110.782 383.172C110.69 382.628 111.055 382.141 111.633 382.055C112.211 381.969 112.728 382.342 112.819 382.857Z" fill="#686868"/>
</g>
<g style="mix-blend-mode:exclusion">
<path opacity="0.82" d="M420.413 311.805C420.413 311.805 447.372 293.065 434.049 282.098C420.727 271.13 409.538 286.609 409.538 286.609C409.538 286.609 403.731 277.596 397.773 277.432C391.814 277.269 388.708 283.257 388.708 283.257C388.708 283.257 388.856 262.719 363.525 256.349C338.194 249.98 340.922 284.75 340.922 284.75C340.922 284.75 321.921 269.473 306.544 271.829C291.166 274.185 295.624 292.386 295.624 292.386C295.624 292.386 281.408 290.648 277.301 296.523C270.582 306.194 307.26 313.62 321.227 315.552C335.164 317.482 357.493 312.71 357.493 312.71L420.413 311.805Z" fill="#686868"/>
<path d="M347.278 258.386C345.97 258.587 344.723 257.756 344.51 256.525C344.297 255.293 345.179 254.119 346.487 253.919C347.795 253.718 349.042 254.549 349.255 255.78C349.468 257.011 348.586 258.186 347.278 258.386Z" fill="#686868"/>
<path d="M347.43 285.107C346.122 285.307 344.875 284.477 344.663 283.245C344.45 282.014 345.332 280.84 346.639 280.639C347.947 280.439 349.194 281.269 349.407 282.501C349.62 283.732 348.738 284.878 347.43 285.107Z" fill="#686868"/>
<path d="M379.911 277.603C379.272 277.689 378.695 277.288 378.573 276.715C378.482 276.114 378.907 275.57 379.516 275.455C380.154 275.369 380.732 275.77 380.854 276.343C380.976 276.944 380.55 277.488 379.911 277.603Z" fill="#686868"/>
<path d="M358.104 244.497C356.796 244.698 355.549 243.867 355.336 242.636C355.123 241.404 356.005 240.23 357.313 240.03C358.621 239.829 359.868 240.66 360.081 241.891C360.294 243.123 359.412 244.297 358.104 244.497Z" fill="#686868"/>
<path d="M337.819 268.182C337.272 268.268 336.724 267.924 336.633 267.38C336.542 266.865 336.907 266.349 337.485 266.263C338.032 266.177 338.58 266.521 338.671 267.065C338.762 267.609 338.397 268.096 337.819 268.182Z" fill="#686868"/>
<path d="M342.413 289.461C342.504 289.976 342.139 290.492 341.561 290.578C341.014 290.664 340.467 290.32 340.375 289.776C340.284 289.26 340.649 288.745 341.227 288.659C341.805 288.573 342.322 288.945 342.413 289.461Z" fill="#686868"/>
<path d="M310.903 306.985C310.994 307.5 310.63 308.016 310.052 308.102C309.504 308.188 308.957 307.844 308.866 307.3C308.774 306.784 309.139 306.269 309.717 306.183C310.295 306.097 310.812 306.441 310.903 306.985Z" fill="#686868"/>
<path d="M320.697 287.511C320.758 287.769 320.545 288.027 320.271 288.084C319.997 288.141 319.724 287.941 319.663 287.683C319.602 287.426 319.815 287.168 320.089 287.111C320.393 287.082 320.636 287.254 320.697 287.511Z" fill="#686868"/>
<path d="M308.423 299.303C308.9 299.007 309.032 298.403 308.718 297.954C308.403 297.505 307.762 297.381 307.285 297.677C306.808 297.973 306.677 298.577 306.991 299.026C307.305 299.475 307.947 299.599 308.423 299.303Z" fill="#686868"/>
<path d="M302.722 296.848C302.813 297.364 302.448 297.879 301.87 297.965C301.323 298.051 300.775 297.707 300.684 297.163C300.593 296.648 300.958 296.132 301.535 296.046C302.083 295.96 302.63 296.304 302.722 296.848Z" fill="#686868"/>
<path d="M314.157 270.856C314.63 270.554 314.753 269.948 314.432 269.503C314.112 269.058 313.469 268.942 312.996 269.244C312.524 269.546 312.401 270.152 312.721 270.597C313.042 271.042 313.685 271.158 314.157 270.856Z" fill="#686868"/>
<path d="M353.268 292.323C353.36 292.838 352.995 293.354 352.417 293.44C351.869 293.526 351.322 293.182 351.231 292.638C351.139 292.094 351.504 291.607 352.082 291.521C352.63 291.435 353.177 291.779 353.268 292.323Z" fill="#686868"/>
<path d="M362.819 275.857C362.911 276.373 362.546 276.888 361.968 276.974C361.42 277.06 360.873 276.716 360.782 276.172C360.69 275.628 361.055 275.141 361.633 275.055C362.211 274.969 362.728 275.342 362.819 275.857Z" fill="#686868"/>
</g>
</g>
</svg>
