<svg width="138" height="180" viewBox="0 0 138 180" fill="none" xmlns="http://www.w3.org/2000/svg">
<path d="M137.224 74.1177C137.224 30.4941 108.847 0 68.6118 0C28.3765 0 0 30.4941 0 74.1177C0 113.506 23.2941 157.129 56.3294 166.024L53.7882 172.376C52.0941 175.765 54.6353 179.576 58.4471 179.576H62.2588L74.9647 180H78.7765C82.5882 180 84.7059 176.188 83.4353 172.8L80.8941 166.447C113.929 157.129 137.224 113.506 137.224 74.1177Z" fill="#6550E2"/>
<path fill-rule="evenodd" clip-rule="evenodd" d="M65.4488 85.8933C52.5492 84.2391 42.4464 84.4102 36.6245 88.4601C34.9978 81.8719 34.3129 75.8826 35.4544 70.8345C37.4807 61.9931 43.0457 59.9681 48.2684 59.6544C54.8038 59.2837 65.0207 61.4512 73.354 62.6205C84.1132 64.1036 93.7308 64.3888 100.266 60.6526C102.321 66.0715 102.692 71.576 101.75 77.0804C100.837 83.412 97.0413 86.6919 90.9055 87.4334C82.9717 88.4031 74.0961 87.0056 65.4488 85.8933Z" fill="white"/>
<path fill-rule="evenodd" clip-rule="evenodd" d="M60.8266 62.9911C61.7969 62.9911 62.2536 63.7897 62.2536 64.5882C62.2536 65.4724 61.7684 66.2424 60.8552 66.2424C59.8848 66.2709 59.3997 65.5579 59.3711 64.6453C59.3711 63.8467 59.7707 62.9911 60.8266 62.9911ZM60.8266 62.3922C59.4282 62.3922 58.4864 63.1337 58.4864 64.5882C58.4864 66.0428 59.3711 66.8414 60.8552 66.8414C62.3106 66.8414 63.1953 66.0428 63.1953 64.6168C63.1668 63.1622 62.2536 62.3922 60.8266 62.3922ZM55.6611 64.3886V63.0766C56.2604 63.0766 57.0309 62.9626 57.0309 63.7041C57.0309 64.4171 56.2889 64.3886 55.6611 64.3886ZM54.7764 66.7558H55.6896V64.9875C56.4316 64.9875 57.3449 65.016 57.8015 64.3601C58.2581 63.7041 58.0583 62.5918 56.7741 62.4777H54.7764V66.7558V66.7558ZM50.3243 62.4777H51.1234C51.1234 62.9055 51.0949 65.0446 51.1519 65.3868C51.3232 66.328 52.9784 66.2709 53.0926 65.3012C53.1497 64.7308 53.1211 63.1052 53.1211 62.4492H53.9202C53.9202 62.9911 53.9773 65.2442 53.8631 65.7291C53.5777 66.9269 51.8939 66.984 51.0949 66.6132C50.3814 66.2709 50.2958 65.672 50.2958 64.959L50.3243 62.4777ZM47.3848 64.3316V63.0766C48.0127 63.0766 48.8117 62.9626 48.8117 63.6471C48.8117 64.4456 47.927 64.3316 47.3848 64.3316ZM46.4716 66.7558H47.3848V64.9305H47.927L48.9259 66.7558H50.0104L48.8403 64.7879C49.3825 64.5882 49.8106 64.246 49.8106 63.59C49.8106 62.7629 49.1257 62.4777 48.4122 62.4492H46.5001L46.4716 66.7558ZM44.1599 64.3886V64.959H44.8448V65.8717C44.1028 66.1283 42.9613 66.1854 42.6188 65.2442C42.2763 64.3316 42.6188 62.934 43.9601 62.934C44.4738 62.934 44.8163 63.1052 45.0446 63.533L45.5298 62.934C45.1302 62.5062 44.7021 62.3636 43.9887 62.3636C41.1633 62.3636 41.1919 65.3298 42.3049 66.2139C43.1896 66.8984 44.6165 66.6988 45.6439 66.4421V64.3886H44.1599ZM60.0275 86.5775C52.265 85.836 44.7878 86.2068 40.1359 90C38.6804 89.7718 37.225 89.5152 35.7695 89.287C33.9715 83.4403 33.6005 77.3084 34.3996 70.9198C35.6838 64.7023 38.9373 59.2264 46.7855 58.7415C54.8905 58.2567 65.9636 60.2246 76.9226 61.3654C84.7708 62.1925 91.6486 61.4795 96.2149 58C97.8986 58.4848 99.5539 58.9982 101.238 59.4831C103.35 65.5009 103.492 71.4332 102.522 77.2799C101.152 85.5508 95.7868 88.5169 88.5379 88.574C78.4922 88.6881 68.0755 87.3476 60.0275 86.5775ZM65.4499 85.8931C52.5503 84.2389 42.4476 84.41 36.6256 88.4599C34.9989 81.8717 34.314 75.8824 35.4555 70.8342C37.4818 61.9929 43.0469 59.9679 48.2695 59.6542C54.8049 59.2834 65.0218 61.451 73.3552 62.6203C84.1144 64.1034 93.732 64.3886 100.267 60.6524C102.322 66.0713 102.693 71.5758 101.751 77.0802C100.838 83.4118 97.0425 86.6916 90.9066 87.4332C82.9728 88.4029 74.0972 87.0054 65.4499 85.8931Z" fill="#3D438B"/>
<path fill-rule="evenodd" clip-rule="evenodd" d="M79.3485 78.8775H76.6087V70.8632H78.8918C80.0905 70.8632 80.5756 71.2054 80.6042 71.8614C80.6612 72.8596 80.0905 73.373 79.1772 73.373H78.321L77.2366 75.7117H79.377C80.4044 75.7117 81.3747 76.4532 81.232 77.3659C81.1464 78.25 80.3759 78.8775 79.3485 78.8775ZM79.8336 81.5299H73.3267V68.1537H79.5197C81.6886 68.1537 83.5151 68.7812 83.8576 70.8347C84.1144 72.3463 83.6293 73.43 82.4877 74.2001C84.2001 74.9701 84.9135 77.0521 84.3142 78.9345C83.7149 80.8739 81.4032 81.5299 79.8336 81.5299ZM91.7058 71.1199C93.675 71.1199 95.2732 72.7455 95.2732 74.742C95.2732 76.7384 93.675 78.3641 91.7058 78.3641C89.7366 78.3641 88.1384 76.7384 88.1384 74.742C88.1384 72.7455 89.7366 71.1199 91.7058 71.1199ZM91.7058 67.9541C95.4158 67.9541 98.4124 71.0058 98.4124 74.742C98.4124 78.5067 95.4158 81.5299 91.7058 81.5299C87.9957 81.5299 84.9992 78.4782 84.9992 74.742C84.9992 70.9773 87.9957 67.9541 91.7058 67.9541ZM71.9854 68.1537V81.5299H68.7034V73.0593L66.563 81.5299H63.3667L61.3119 73.1734V81.5299H58.1155V68.1537H63.2525L64.9934 75.6546L66.7057 68.1537H71.9854V68.1537ZM53.4922 68.1537H56.7456V81.5299H53.4922V68.1537ZM47.5276 78.8775H44.7878V70.8632H47.0709C48.2696 70.8632 48.7547 71.2054 48.7833 71.8614C48.8404 72.8596 48.2696 73.373 47.3563 73.373H46.5002L45.4157 75.7117H47.5561C48.5835 75.7117 49.5538 76.4532 49.4111 77.3659C49.3255 78.25 48.555 78.8775 47.5276 78.8775ZM48.0127 81.5299H41.5059V68.1537H47.6988C49.8678 68.1537 51.6943 68.7812 52.0367 70.8347C52.2936 72.3463 51.8084 73.43 50.6668 74.2001C52.3792 74.9701 53.0927 77.0521 52.4933 78.9345C51.8655 80.8739 49.5824 81.5299 48.0127 81.5299Z" fill="#DA243C"/>
</svg>
