<svg width="885" height="359" viewBox="0 0 885 359" fill="none" xmlns="http://www.w3.org/2000/svg">
<path d="M500.828 77.3997C500.828 38.4549 475.495 11.2314 439.575 11.2314C403.655 11.2314 378.322 38.4549 378.322 77.3997C378.322 112.563 399.118 151.508 428.61 159.448L426.341 165.12C424.829 168.145 427.098 171.548 430.501 171.548H433.904L445.247 171.926H448.65C452.053 171.926 453.943 168.523 452.809 165.498L450.54 159.826C480.032 151.508 500.828 112.563 500.828 77.3997ZM439.575 149.618C413.864 149.618 389.665 114.454 389.665 77.3997C389.665 44.8827 409.705 22.5746 439.575 22.5746C469.445 22.5746 489.485 44.5046 489.485 77.3997C489.485 114.454 465.286 149.618 439.575 149.618Z" fill="white"/>
<path d="M467.175 86.4733C466.419 92.1448 464.528 94.0354 458.857 94.4135C454.32 94.7916 448.27 94.0354 442.22 93.2792C430.499 92.1448 419.534 91.0105 412.35 94.7916C411.972 92.523 411.216 88.7419 411.972 85.339C412.728 78.5331 416.131 77.0207 420.668 77.0207C421.046 77.0207 421.046 77.0207 421.425 77.0207C425.962 77.0207 431.255 77.7769 436.549 78.155C448.27 79.6674 459.613 80.8017 466.419 76.6426C466.797 79.2893 467.553 82.6922 467.175 86.4733Z" fill="white"/>
<path d="M472.472 69.8359C472.094 69.4578 471.716 69.4578 471.338 69.0797L466.801 67.5673C465.288 67.1892 463.776 67.5673 462.642 68.3235C458.861 71.7264 446.761 70.214 437.309 69.0797C431.637 68.3235 425.587 67.5673 420.672 67.9454C410.841 67.9454 404.414 73.6169 403.279 84.2039C402.145 91.7659 404.414 100.84 405.926 102.353C406.682 103.109 407.438 103.487 408.573 103.865L412.354 104.621C412.732 104.621 412.732 104.621 413.11 104.621C414.244 104.621 415.379 104.243 416.135 103.487C419.916 100.084 432.015 101.219 441.846 102.353C447.896 103.109 454.323 103.487 459.617 103.487C472.472 103.109 475.875 94.4127 476.631 87.6068C476.631 81.5571 475.497 71.7264 472.472 69.8359ZM469.069 86.8506C468.313 93.2784 465.288 96.3032 458.861 96.3032C453.945 96.6813 448.274 95.9251 442.224 95.1689C430.881 94.0346 419.916 92.9003 413.488 96.3032L411.219 97.4375L410.841 94.7908C410.463 92.144 409.707 88.363 410.463 84.582C411.598 75.8856 416.513 74.7513 421.05 74.7513H421.806C426.344 74.7513 432.015 75.5075 436.93 75.8856C448.274 77.398 459.239 78.5323 465.666 74.7513L466.423 74.3732L468.313 74.7513L468.691 75.8856C468.691 78.9104 469.447 82.6914 469.069 86.8506Z" fill="white"/>
<path d="M582.161 293.265C583.416 293.21 584.624 293.748 585.423 294.718L621.319 338.321L656.563 309.307L620.667 265.704C619.87 264.735 619.573 263.449 619.865 262.229C622.747 250.208 620.212 237.014 611.407 226.319L600.251 212.768C599.354 211.678 597.712 211.519 596.622 212.416L587.894 219.601C586.188 221.005 583.668 220.761 582.264 219.056L574.832 210.029C573.969 208.98 572.765 208.374 571.484 208.25C570.252 208.131 568.951 208.487 567.896 209.357C565.775 211.102 565.484 214.224 567.202 216.311L568.221 217.548C569.625 219.254 569.381 221.775 567.675 223.179C565.97 224.583 563.449 224.339 562.045 222.633C561.181 221.584 559.977 220.978 558.696 220.854C557.409 220.729 556.134 221.08 555.069 221.957C552.949 223.703 552.657 226.824 554.375 228.911L557.151 232.283C558.555 233.988 558.311 236.509 556.605 237.913C554.9 239.317 552.379 239.073 550.975 237.367C550.111 236.319 548.908 235.713 547.627 235.589C546.339 235.464 545.064 235.814 543.999 236.691C541.879 238.437 541.588 241.559 543.305 243.645L546.784 247.871C548.188 249.576 547.944 252.097 546.238 253.501C544.533 254.905 542.012 254.661 540.608 252.955C538.877 250.853 535.787 250.556 533.688 252.268C531.63 254.018 531.332 257.152 533.073 259.266L548.936 278.536C557.339 288.742 569.805 293.804 582.161 293.265Z" stroke="white" stroke-width="8" stroke-linejoin="round"/>
<path d="M439.133 169.167C433.597 190.076 438.361 225.122 501.706 198.03C580.888 164.164 585.909 204.957 585.136 215.347" stroke="white" stroke-width="8"/>
</svg>
