<svg width="923" height="381" viewBox="0 0 923 381" fill="none" xmlns="http://www.w3.org/2000/svg">
<path d="M343.171 105.832C343.171 69.006 319.216 43.2637 285.25 43.2637C251.285 43.2637 227.33 69.006 227.33 105.832C227.33 139.082 246.994 175.908 274.882 183.416L272.737 188.779C271.307 191.64 273.452 194.857 276.67 194.857H279.887L290.613 195.215H293.831C297.049 195.215 298.837 191.997 297.764 189.137L295.619 183.774C323.506 175.908 343.171 139.082 343.171 105.832ZM285.25 174.121C260.938 174.121 238.056 140.87 238.056 105.832C238.056 75.0841 257.005 53.9896 285.25 53.9896C313.495 53.9896 332.445 74.7265 332.445 105.832C332.445 140.87 309.563 174.121 285.25 174.121Z" fill="white"/>
<path d="M311.349 114.412C310.634 119.775 308.847 121.563 303.484 121.92C299.193 122.278 293.473 121.563 287.752 120.848C276.669 119.775 266.3 118.702 259.507 122.278C259.15 120.133 258.435 116.557 259.15 113.339C259.865 106.904 263.083 105.474 267.373 105.474C267.73 105.474 267.73 105.474 268.088 105.474C272.378 105.474 277.384 106.189 282.389 106.546C293.473 107.976 304.199 109.049 310.634 105.116C310.992 107.619 311.707 110.837 311.349 114.412Z" fill="white"/>
<path d="M316.355 98.68C315.998 98.3225 315.64 98.3225 315.282 97.9649L310.992 96.5348C309.562 96.1773 308.132 96.5348 307.059 97.2499C303.484 100.468 292.043 99.0375 283.105 97.9649C277.742 97.2499 272.021 96.5348 267.373 96.8923C258.077 96.8923 251.999 102.255 250.927 112.266C249.854 119.417 251.999 127.998 253.429 129.428C254.144 130.143 254.859 130.5 255.932 130.858L259.507 131.573C259.865 131.573 259.865 131.573 260.222 131.573C261.295 131.573 262.368 131.215 263.083 130.5C266.658 127.283 278.099 128.355 287.395 129.428C293.115 130.143 299.193 130.5 304.199 130.5C316.355 130.143 319.573 121.92 320.288 115.484C320.288 109.763 319.215 100.468 316.355 98.68ZM313.137 114.769C312.422 120.847 309.562 123.707 303.484 123.707C298.836 124.065 293.473 123.35 287.752 122.635C277.026 121.562 266.658 120.489 260.58 123.707L258.435 124.78L258.077 122.277C257.72 119.774 257.005 116.199 257.72 112.624C258.792 104.401 263.44 103.328 267.731 103.328H268.446C272.736 103.328 278.099 104.043 282.747 104.401C293.473 105.831 303.841 106.903 309.919 103.328L310.635 102.97L312.422 103.328L312.78 104.401C312.78 107.261 313.495 110.836 313.137 114.769Z" fill="white"/>
<path d="M115.841 165.58C115.841 128.754 91.8858 103.012 57.9202 103.012C23.9547 103.012 0 128.754 0 165.58C0 198.83 19.6643 235.656 47.5518 243.164L45.4066 248.527C43.9765 251.388 46.1217 254.605 49.3395 254.605H52.5573L63.2832 254.963H66.501C69.7188 254.963 71.5065 251.745 70.4339 248.885L68.2887 243.522C96.1762 235.656 115.841 198.83 115.841 165.58ZM57.9202 233.869C33.608 233.869 10.726 200.618 10.726 165.58C10.726 134.832 29.6752 113.738 57.9202 113.738C86.1653 113.738 105.115 134.475 105.115 165.58C105.115 200.618 82.2325 233.869 57.9202 233.869Z" fill="white"/>
<path d="M84.0194 174.16C83.3043 179.523 81.5166 181.311 76.1536 181.668C71.8633 182.026 66.1427 181.311 60.4222 180.596C49.3387 179.523 38.9703 178.45 32.1772 182.026C31.8196 179.881 31.1046 176.305 31.8196 173.088C32.5347 166.652 35.7525 165.222 40.0429 165.222C40.4004 165.222 40.4004 165.222 40.7579 165.222C45.0483 165.222 50.0538 165.937 55.0592 166.294C66.1427 167.725 76.8687 168.797 83.3043 164.864C83.6618 167.367 84.3769 170.585 84.0194 174.16Z" fill="white"/>
<path d="M89.0289 158.428C88.6713 158.071 88.3138 158.071 87.9563 157.713L83.6659 156.283C82.2358 155.925 80.8056 156.283 79.733 156.998C76.1577 160.216 64.7167 158.786 55.7784 157.713C50.4154 156.998 44.6949 156.283 40.0469 156.64C30.7511 156.64 24.673 162.003 23.6004 172.014C22.5278 179.165 24.673 187.746 26.1032 189.176C26.8182 189.891 27.5333 190.248 28.6059 190.606L32.1812 191.321C32.5387 191.321 32.5387 191.321 32.8963 191.321C33.9689 191.321 35.0415 190.963 35.7565 190.248C39.3319 187.031 50.7729 188.103 60.0687 189.176C65.7893 189.891 71.8673 190.248 76.8728 190.248C89.0289 189.891 92.2467 181.668 92.9617 175.232C92.9617 169.512 91.8891 160.216 89.0289 158.428ZM85.8111 174.517C85.096 180.595 82.2358 183.455 76.1577 183.455C71.5098 183.813 66.1468 183.098 60.4263 182.383C49.7003 181.31 39.3319 180.238 33.2538 183.455L31.1086 184.528L30.7511 182.025C30.3936 179.522 29.6785 175.947 30.3936 172.372C31.4662 164.149 36.1141 163.076 40.4045 163.076H41.1195C45.4099 163.076 50.7729 163.791 55.4208 164.149C66.1468 165.579 76.5152 166.651 82.5933 163.076L83.3083 162.718L85.096 163.076L85.4535 164.149C85.4535 167.009 86.1686 170.584 85.8111 174.517Z" fill="white"/>
<path d="M572.686 89.8026C572.686 52.9767 548.732 27.2344 514.766 27.2344C480.8 27.2344 456.846 52.9767 456.846 89.8026C456.846 123.053 476.51 159.879 504.398 167.387L502.252 172.75C500.822 175.61 502.967 178.828 506.185 178.828H509.403L520.129 179.186H523.347C526.565 179.186 528.352 175.968 527.28 173.108L525.134 167.745C553.022 159.879 572.686 123.053 572.686 89.8026ZM514.766 158.091C490.454 158.091 467.572 124.841 467.572 89.8026C467.572 59.0548 486.521 37.9603 514.766 37.9603C543.011 37.9603 561.96 58.6972 561.96 89.8026C561.96 124.841 539.078 158.091 514.766 158.091Z" fill="white"/>
<path d="M540.867 98.3828C540.152 103.746 538.364 105.533 533.001 105.891C528.711 106.248 522.99 105.533 517.27 104.818C506.186 103.746 495.818 102.673 489.025 106.248C488.667 104.103 487.952 100.528 488.667 97.3102C489.382 90.8746 492.6 89.4444 496.891 89.4444C497.248 89.4444 497.248 89.4444 497.606 89.4444C501.896 89.4444 506.901 90.1595 511.907 90.517C522.99 91.9472 533.716 93.0198 540.152 89.0869C540.509 91.5896 541.225 94.8074 540.867 98.3828Z" fill="white"/>
<path d="M545.873 82.6507C545.515 82.2932 545.158 82.2932 544.8 81.9356L540.51 80.5055C539.08 80.148 537.649 80.5055 536.577 81.2206C533.001 84.4384 521.56 83.0082 512.622 81.9356C507.259 81.2206 501.539 80.5055 496.891 80.863C487.595 80.863 481.517 86.226 480.444 96.2369C479.372 103.388 481.517 111.968 482.947 113.398C483.662 114.114 484.377 114.471 485.45 114.829L489.025 115.544C489.382 115.544 489.382 115.544 489.74 115.544C490.813 115.544 491.885 115.186 492.6 114.471C496.176 111.253 507.617 112.326 516.912 113.398C522.633 114.114 528.711 114.471 533.717 114.471C545.873 114.114 549.09 105.89 549.805 99.4547C549.805 93.7342 548.733 84.4384 545.873 82.6507ZM542.655 98.7397C541.94 104.818 539.08 107.678 533.001 107.678C528.354 108.035 522.991 107.32 517.27 106.605C506.544 105.533 496.176 104.46 490.098 107.678L487.952 108.751L487.595 106.248C487.237 103.745 486.522 100.17 487.237 96.5945C488.31 88.3712 492.958 87.2986 497.248 87.2986H497.963C502.254 87.2986 507.617 88.0137 512.265 88.3712C522.991 89.8013 533.359 90.8739 539.437 87.2986L540.152 86.9411L541.94 87.2986L542.297 88.3712C542.297 91.2315 543.012 94.8068 542.655 98.7397Z" fill="white"/>
<path d="M856.969 89.8093C866.164 54.1499 849.395 23.2417 816.506 14.7609C783.616 6.28003 753.992 25.2258 744.797 60.8852C736.495 93.0826 746.342 133.652 771.471 147.886L768.055 152.543C765.956 154.956 767.23 158.607 770.345 159.411L773.461 160.214L783.758 163.238L786.874 164.042C789.99 164.845 792.524 162.176 792.2 159.138L791.462 153.409C820.43 152.756 848.666 122.007 856.969 89.8093ZM783.832 141.473C760.29 135.402 746.435 97.4918 755.184 63.5634C762.861 33.7895 786.477 18.0946 813.827 25.1471C841.178 32.1996 854.349 57.011 846.583 87.1311C837.834 121.06 807.374 147.543 783.832 141.473Z" fill="white"/>
<path d="M824.012 90.173C821.98 95.1876 819.803 96.4723 814.521 95.4794C810.277 94.7543 804.916 92.6336 799.555 90.5128C789.091 86.7068 779.318 83.0793 771.848 84.8452C772.037 82.6787 772.237 79.038 773.733 76.1007C776.033 70.0475 779.506 69.4661 783.66 70.5374C784.006 70.6266 784.006 70.6266 784.352 70.7159C788.507 71.7872 793.175 73.7294 797.933 75.3254C808.308 79.4777 818.427 83.1944 825.64 80.993C825.362 83.5058 825.251 86.8002 824.012 90.173Z" fill="white"/>
<path d="M832.789 76.1886C832.532 75.7531 832.186 75.6638 831.929 75.2284L828.131 72.7723C826.836 72.069 825.362 72.0581 824.144 72.4827C819.879 74.7058 809.157 70.4643 800.77 67.1939C795.755 65.1624 790.395 63.0416 785.805 62.2273C776.803 59.9063 769.579 63.5817 766.04 73.0078C763.216 79.6641 763.151 88.5087 764.179 90.2507C764.693 91.1216 765.296 91.6464 766.245 92.2604L769.529 93.8455C769.875 93.9348 769.875 93.9348 770.221 94.0241C771.26 94.2919 772.388 94.2135 773.259 93.6996C777.524 91.4765 788.335 95.3718 797.069 98.7315C802.429 100.852 808.226 102.716 813.073 103.966C824.933 106.655 830.102 99.4956 832.401 93.4424C833.83 87.903 835.112 78.6338 832.789 76.1886ZM825.656 90.9645C823.446 96.6715 819.962 98.727 814.076 97.2094C809.486 96.395 804.472 94.3636 799.111 92.2428C788.993 88.526 779.22 84.8985 772.531 86.4968L770.186 86.9997L770.465 84.487C770.744 81.9743 770.944 78.3337 772.529 75.0501C775.621 67.3552 780.389 67.4771 784.544 68.5483L785.236 68.7269C789.391 69.7981 794.405 71.8296 798.817 73.3364C808.846 77.3994 818.618 81.0269 825.397 79.0824L826.178 78.9147L827.82 79.7073L827.898 80.8352C827.184 83.6049 826.984 87.2455 825.656 90.9645Z" fill="white"/>
<path d="M460.146 321.394C461.402 321.339 462.61 321.877 463.409 322.847L497.213 363.91L530.204 336.751L496.399 295.688C495.602 294.72 495.305 293.433 495.597 292.213C498.307 280.91 495.924 268.505 487.643 258.446L477.094 245.632C476.322 244.695 474.906 244.557 473.968 245.329L465.715 252.124C464.01 253.528 461.489 253.283 460.085 251.578L453.058 243.042C452.28 242.097 451.195 241.551 450.039 241.439L450.418 237.527L450.039 241.439C448.929 241.331 447.757 241.652 446.805 242.436C444.892 244.011 444.631 246.826 446.179 248.706L447.142 249.876C448.546 251.582 448.302 254.102 446.596 255.507C444.891 256.911 442.37 256.666 440.966 254.961C440.188 254.015 439.103 253.469 437.947 253.357C436.784 253.244 435.637 253.56 434.676 254.351C432.764 255.926 432.502 258.74 434.05 260.621L436.675 263.809C438.079 265.514 437.834 268.035 436.129 269.439C434.423 270.843 431.902 270.599 430.498 268.893C429.72 267.948 428.635 267.402 427.479 267.29C426.317 267.177 425.169 267.493 424.209 268.284C422.296 269.858 422.035 272.673 423.582 274.553L426.872 278.548C428.276 280.254 428.031 282.775 426.326 284.179C424.62 285.583 422.099 285.339 420.695 283.633C419.136 281.739 416.352 281.471 414.46 283.013C412.605 284.591 412.337 287.418 413.906 289.324L428.907 307.545C436.807 317.141 448.528 321.901 460.146 321.394Z" stroke="white" stroke-width="8" stroke-linejoin="round"/>
<path d="M285.256 192.267C280.034 212.061 284.528 245.238 344.275 219.591C418.959 187.531 465.226 241.814 464.498 251.65M464.498 251.65C464.498 206.84 381.799 219.591 247.003 296.46C139.167 357.956 72.3766 292.21 52.4609 251.65M464.498 251.65C455.754 206.184 496.557 177.33 518.051 168.587" stroke="white" stroke-width="8"/>
<path d="M663.808 243.525L681.319 258.803C682.737 260.038 684.887 259.892 686.122 258.475C687.357 257.057 687.211 254.909 685.794 253.673L685.794 253.674L674.117 243.485C694.13 244.217 709.296 240.16 720.619 233.958C733.93 226.676 741.827 216.528 746.349 208.245C750.879 199.949 752.095 193.489 752.144 193.241C752.486 191.393 751.267 189.616 749.42 189.272C748.617 189.123 747.828 189.27 747.166 189.632C746.3 190.106 745.646 190.952 745.451 191.997L745.452 191.998C745.452 191.998 745.452 191.998 745.446 192.02C745.354 192.499 744.105 198.391 739.987 205.681C735.862 212.978 728.925 221.649 717.351 227.985C707.148 233.563 693.265 237.392 674.207 236.676L684.127 225.116C685.351 223.69 685.188 221.539 683.761 220.316C682.654 219.368 681.114 219.253 679.908 219.914C679.558 220.106 679.236 220.362 678.959 220.684L663.462 238.745C662.246 240.164 662.401 242.298 663.808 243.525Z" fill="white"/>
<path d="M892.02 155.124C882.74 151.586 872.625 150.854 862.932 153.019C855.721 154.407 848.693 156.613 841.984 159.596L833.678 141.786C832.165 138.816 829.538 136.566 826.371 135.529C823.203 134.491 819.754 134.749 816.777 136.248C813.715 137.565 811.3 140.041 810.059 143.135C808.818 146.228 808.853 149.687 810.155 152.755L825.825 186.36L817.973 183.557C814.521 182.338 810.729 182.522 807.411 184.069C804.093 185.617 801.514 188.403 800.229 191.831C799.577 193.531 799.273 195.344 799.334 197.164C799.396 198.984 799.822 200.772 800.587 202.424C802.017 205.652 804.668 208.182 807.959 209.46L832.269 220.708C835.234 225.095 838.989 228.893 843.342 231.909C846.597 234.271 850.21 236.095 854.043 237.31L857.052 243.762C857.47 244.687 858.228 245.417 859.167 245.8C860.107 246.184 861.159 246.193 862.105 245.825L908.849 224.027C909.739 223.539 910.408 222.728 910.718 221.762C911.029 220.795 910.957 219.746 910.517 218.831L906.286 209.758C909.223 198.816 908.152 187.185 903.267 176.963L893.865 156.8C893.462 156.046 892.81 155.453 892.02 155.124ZM896.625 180.265C901.006 189.1 901.946 199.247 899.264 208.737C898.804 209.687 898.727 210.777 899.048 211.783L902.433 219.042L862.578 237.626L860.258 232.653C860.003 232.102 859.615 231.622 859.131 231.256C858.646 230.89 858.079 230.649 857.479 230.553C853.998 229.663 850.73 228.084 847.869 225.911C844.038 223.284 840.788 219.898 838.32 215.963C837.945 215.252 837.349 214.683 836.623 214.341L810.969 202.492C810.183 202.212 809.46 201.778 808.843 201.216C808.226 200.654 807.726 199.975 807.373 199.219C807.02 198.462 806.821 197.643 806.788 196.809C806.754 195.975 806.886 195.142 807.177 194.36C807.775 192.754 808.981 191.448 810.534 190.724C812.087 190 813.863 189.916 815.477 190.489L830.26 195.87L835.18 206.422L840.334 199.927L816.876 149.621C816.422 148.335 816.485 146.923 817.051 145.682C817.617 144.442 818.642 143.469 819.911 142.969C821.11 142.318 822.514 142.158 823.828 142.522C825.142 142.886 826.264 143.745 826.958 144.92L845.448 184.573L852.843 182.884L845.133 166.351C847.979 165.092 850.889 163.981 853.85 163.023L862.046 180.598L867.971 179.267L859.587 161.288C861.09 160.915 862.643 160.559 864.26 160.255C866.215 159.898 868.188 159.648 870.17 159.504L878.24 176.81L884.165 175.479L876.69 159.45C880.464 159.567 884.203 160.205 887.802 161.346L896.625 180.265Z" fill="#FCB527"/>
</svg>
