<svg width="286" height="215" viewBox="0 0 286 215" fill="none" xmlns="http://www.w3.org/2000/svg">
<g clip-path="url(#clip0)">
<path d="M23.3106 130.343L51.7993 164.948C68.3941 185.105 92.9943 195.072 117.324 194.01L186.353 277.859L260.736 216.622L191.707 132.773C197.391 109.063 192.367 83.0444 175.078 62.0438L155.044 37.7091C150.911 32.6889 143.435 31.9642 138.415 36.0971L122.741 49.0006L109.396 32.7903C106.588 29.3796 102.653 27.4113 98.5305 27.0117C94.4779 26.6188 90.2381 27.7947 86.8274 30.6025C79.9677 36.2498 78.9856 46.3811 84.6013 53.2025L86.4311 55.4252C83.6233 52.0145 79.6882 50.0462 75.5658 49.6466C71.4434 49.2469 67.2418 50.3913 63.7928 53.2307C56.9331 58.8779 55.951 69.0093 61.5667 75.8306L66.5515 81.8856C63.7436 78.4749 59.8086 76.5065 55.6861 76.1069C51.5637 75.7073 47.3622 76.8516 43.9132 79.691C37.0535 85.3383 36.0714 95.4696 41.6871 102.291L47.9338 109.879C42.2865 103.019 32.1867 102.075 25.3654 107.691C18.6454 113.352 17.6633 123.483 23.3106 130.343Z" fill="#FCB527"/>
<path d="M23.3104 130.343L51.7992 164.948C68.3939 185.106 92.9942 195.072 117.323 194.01L186.353 277.859L223.525 247.257L63.8242 53.2695C56.9645 58.9168 55.9824 69.0481 61.5981 75.8695L66.5829 81.9244C63.775 78.5137 59.8399 76.5454 55.7175 76.1458C51.5951 75.7462 47.3936 76.8905 43.9446 79.7299C37.0849 85.3772 36.1028 95.5085 41.7185 102.33L47.9652 109.918C42.3179 103.058 32.2181 102.114 25.3968 107.73C18.6453 113.352 17.6631 123.484 23.3104 130.343Z" fill="#EAA326"/>
</g>
<defs>
<clipPath id="clip0">
<rect width="160.579" height="254.147" fill="white" transform="matrix(-0.772034 0.635581 0.635581 0.772034 124 0)"/>
</clipPath>
</defs>
</svg>
