<svg width="1920" height="1080" viewBox="0 0 1920 1080" fill="none" xmlns="http://www.w3.org/2000/svg">
<g style="mix-blend-mode:screen" opacity="0.2" clip-path="url(#clip0)">
<path d="M1165.5 -210L2325.4 624.3L2400.6 519.8L1240.7 -314.5L1165.5 -210Z" fill="#866EEA"/>
<path d="M966.4 -40.6002L2126.3 793.7L2201.5 689.1L1041.5 -145.2L966.4 -40.6002Z" fill="#866EEA"/>
<path d="M545.702 -29.2002L1947.7 979.2L2022.9 874.7L620.902 -133.7L545.702 -29.2002Z" fill="#866EEA"/>
<path d="M41.4016 -74.5996L1817.4 1202.8L1892.6 1098.3L116.602 -179.1L41.4016 -74.5996Z" fill="#866EEA"/>
<path d="M-151.798 98.7002L1560.7 1330.5L1635.9 1226L-76.5977 -5.7998L-151.798 98.7002Z" fill="#866EEA"/>
<path d="M-366.799 263.2L1345.7 1494.9L1420.8 1390.4L-291.599 158.6L-366.799 263.2Z" fill="#866EEA"/>
<path d="M-643.799 384.2L1068.7 1615.9L1143.8 1511.4L-568.599 279.6L-643.799 384.2Z" fill="#866EEA"/>
<path d="M-855.299 553.7L857.201 1785.4L932.301 1680.9L-780.099 449.1L-855.299 553.7Z" fill="#866EEA"/>
</g>
<defs>
<clipPath id="clip0">
<rect width="1920" height="1080" fill="white" transform="matrix(-1 0 0 1 1920 0)"/>
</clipPath>
</defs>
</svg>
