<svg width="873" height="389" viewBox="0 0 873 389" fill="none" xmlns="http://www.w3.org/2000/svg">
<rect x="313.135" y="79.6426" width="177.417" height="273.073" rx="18.5" stroke="white" stroke-width="9"/>
<line x1="313.975" y1="123.422" x2="488.379" y2="123.422" stroke="white" stroke-width="12"/>
<line x1="313.975" y1="168.802" x2="488.379" y2="168.802" stroke="white" stroke-width="12"/>
<line x1="313.975" y1="214.183" x2="488.379" y2="214.183" stroke="white" stroke-width="12"/>
<line x1="313.975" y1="259.563" x2="488.379" y2="259.563" stroke="white" stroke-width="12"/>
<line x1="313.975" y1="304.944" x2="488.379" y2="304.944" stroke="white" stroke-width="12"/>
<line x1="313.635" y1="308.826" x2="313.635" y2="367.342" stroke="white" stroke-width="10" stroke-linecap="round"/>
<line x1="491.6" y1="308.826" x2="491.6" y2="367.342" stroke="white" stroke-width="10" stroke-linecap="round"/>
<path d="M316.213 48.1286C309.183 26.3207 290.084 15.6489 269.97 22.1324C249.856 28.6159 240.584 48.4328 247.613 70.2407C253.96 89.9314 272.635 107.986 290.583 107.109L290.336 110.694C290.035 112.661 291.92 114.157 293.825 113.543L295.731 112.928L302.151 111.093L304.056 110.479C305.962 109.864 306.406 107.618 305.225 106.128L302.931 103.362C317.944 93.3807 322.56 67.8192 316.213 48.1286ZM294.948 99.6245C280.551 104.265 260.653 88.9426 253.965 68.1933C248.096 49.9848 255.291 33.8758 272.017 28.4842C288.744 23.0927 303.923 31.7557 309.861 50.176C316.549 70.9253 309.346 94.9837 294.948 99.6245Z" fill="white"/>
<path d="M299.008 59.2832C299.609 62.5956 298.891 63.9954 295.784 65.2309C293.311 66.2616 289.787 66.9301 286.263 67.5986C279.495 69.0791 273.15 70.4231 269.809 73.837C269.188 72.6349 268.082 70.6541 267.892 68.6121C267.087 64.6645 268.719 63.2034 271.26 62.3844C271.472 62.3162 271.472 62.3162 271.683 62.2479C274.224 61.429 277.325 60.8969 280.357 60.1532C287.194 58.8844 293.75 57.4722 296.811 53.9148C297.5 55.3286 298.538 57.0976 299.008 59.2832Z" fill="white"/>
<path d="M298.969 49.0119C298.689 48.8685 298.478 48.9367 298.198 48.7932L295.384 48.7653C294.469 48.8265 293.69 49.3113 293.191 49.9395C291.688 52.5275 284.64 53.8645 279.142 54.9355C275.83 55.5357 272.306 56.2043 269.621 57.3032C264.116 59.0776 261.541 63.4137 262.817 69.5468C263.546 73.9861 266.455 78.6581 267.575 79.232C268.134 79.519 268.626 79.5942 269.33 79.6012L271.583 79.3422C271.795 79.2739 271.795 79.2739 272.007 79.2057C272.642 79.0009 273.209 78.5845 273.496 78.0245C274.999 75.4365 281.979 73.8878 287.689 72.7485C291.213 72.08 294.88 71.1315 297.845 70.1761C304.975 67.6439 305.311 62.16 304.506 58.2124C303.414 54.8248 301.004 49.5246 298.969 49.0119ZM300.135 59.1539C300.872 62.8897 299.724 65.1295 296.124 66.2897C293.44 67.3887 290.128 67.9889 286.604 68.6575C280.047 70.0697 273.702 71.4137 270.717 74.4794L269.651 75.5241L268.962 74.1103C268.273 72.6964 267.167 70.7156 266.908 68.4619C265.973 63.3874 268.521 61.865 271.062 61.046L271.485 60.9095C274.026 60.0906 277.338 59.4903 280.159 58.8148C286.784 57.6143 293.128 56.2703 296.045 52.9928L296.401 52.6446L297.527 52.5151L297.944 53.082C298.49 54.7759 299.596 56.7566 300.135 59.1539Z" fill="white"/>
<path d="M313.543 133.55C306.513 111.743 287.414 101.071 267.3 107.554C247.186 114.038 237.914 133.855 244.943 155.663C251.29 175.353 269.965 193.408 287.913 192.531L287.666 196.116C287.365 198.083 289.25 199.579 291.155 198.965L293.061 198.35L299.481 196.515L301.386 195.9C303.292 195.286 303.736 193.039 302.555 191.55L300.261 188.784C315.274 178.803 319.89 153.241 313.543 133.55ZM292.278 185.046C277.881 189.687 257.983 174.364 251.295 153.615C245.426 135.407 252.621 119.298 269.347 113.906C286.074 108.515 301.254 117.178 307.191 135.598C313.879 156.347 306.676 180.406 292.278 185.046Z" fill="white"/>
<path d="M296.34 144.706C296.941 148.018 296.223 149.418 293.116 150.654C290.643 151.684 287.119 152.353 283.595 153.021C276.827 154.502 270.482 155.846 267.141 159.26C266.52 158.058 265.414 156.077 265.224 154.035C264.419 150.087 266.051 148.626 268.592 147.807C268.804 147.739 268.804 147.739 269.015 147.671C271.556 146.852 274.657 146.32 277.689 145.576C284.526 144.307 291.082 142.895 294.143 139.338C294.832 140.751 295.87 142.52 296.34 144.706Z" fill="white"/>
<path d="M296.299 134.435C296.019 134.291 295.808 134.36 295.528 134.216L292.714 134.188C291.799 134.249 291.02 134.734 290.521 135.362C289.018 137.95 281.97 139.287 276.472 140.358C273.16 140.959 269.636 141.627 266.951 142.726C261.447 144.5 258.871 148.837 260.147 154.97C260.876 159.409 263.785 164.081 264.905 164.655C265.465 164.942 265.956 165.017 266.66 165.024L268.913 164.765C269.125 164.697 269.125 164.697 269.337 164.629C269.972 164.424 270.539 164.007 270.826 163.447C272.329 160.859 279.309 159.311 285.019 158.171C288.543 157.503 292.21 156.554 295.175 155.599C302.305 153.067 302.641 147.583 301.836 143.635C300.744 140.248 298.334 134.947 296.299 134.435ZM297.465 144.577C298.202 148.313 297.054 150.552 293.454 151.713C290.77 152.812 287.458 153.412 283.934 154.08C277.377 155.493 271.032 156.837 268.047 159.902L266.982 160.947L266.292 159.533C265.603 158.119 264.497 156.138 264.238 153.885C263.303 148.81 265.851 147.288 268.392 146.469L268.815 146.332C271.356 145.513 274.668 144.913 277.489 144.238C284.114 143.037 290.459 141.693 293.375 138.416L293.731 138.067L294.858 137.938L295.274 138.505C295.82 140.199 296.926 142.179 297.465 144.577Z" fill="white"/>
<path d="M556.198 66.2765C563.514 44.5631 554.504 24.6257 534.477 17.8779C514.45 11.1301 495.212 21.5494 487.896 43.2629C481.29 62.8682 485.569 88.4883 500.52 98.4556L498.19 101.192C496.778 102.594 497.404 104.917 499.301 105.557L501.199 106.196L507.452 108.538L509.349 109.177C511.246 109.816 512.94 108.274 512.876 106.374L512.676 102.786C530.682 103.689 549.593 85.8818 556.198 66.2765ZM508.481 95.0344C494.145 90.2044 487.259 66.0531 494.22 45.3938C500.329 27.2641 515.693 18.5909 532.347 24.2022C549.001 29.8136 556.054 45.8051 549.874 64.1456C542.913 84.805 522.816 99.8644 508.481 95.0344Z" fill="white"/>
<path d="M535.733 65.0147C534.246 68.0348 532.837 68.7337 529.604 67.8791C527.003 67.2375 523.772 65.6794 520.541 64.1213C514.219 61.287 508.319 58.5947 503.603 59.3532C503.818 58.0173 504.107 55.7672 505.168 54.012C506.868 50.3594 509.049 50.1555 511.579 51.0078C511.79 51.0788 511.79 51.0788 512.001 51.1499C514.53 52.0022 517.34 53.4183 520.22 54.6235C526.471 57.6687 532.582 60.432 537.158 59.3916C536.872 60.9383 536.654 62.9777 535.733 65.0147Z" fill="white"/>
<path d="M541.809 56.7327C541.669 56.4509 541.458 56.3798 541.318 56.098L539.073 54.4024C538.301 53.9075 537.386 53.8342 536.612 54.0427C533.864 55.2297 527.403 52.1135 522.346 49.7053C519.325 48.2182 516.095 46.6601 513.283 45.9476C507.802 44.1008 503.153 46.0554 500.531 51.745C498.478 55.7482 498.039 61.2338 498.598 62.3611C498.877 62.9248 499.228 63.2777 499.789 63.7016L501.755 64.8335C501.966 64.9045 501.966 64.9045 502.177 64.9756C502.809 65.1886 503.513 65.1909 504.076 64.9114C506.824 63.7244 513.357 66.6298 518.625 69.109C521.856 70.6671 525.368 72.0854 528.32 73.0798C535.558 75.284 539.089 71.0746 540.789 67.4221C541.926 64.0491 543.14 58.355 541.809 56.7327ZM536.715 65.5799C535.086 69.0216 532.831 70.1398 529.248 68.9323C526.436 68.2198 523.416 66.7327 520.185 65.1746C514.074 62.4113 508.173 59.719 503.95 60.4088L502.472 60.615L502.759 59.0683C503.045 57.5216 503.334 55.2715 504.466 53.3054C506.732 48.6699 509.686 48.9608 512.215 49.8132L512.637 49.9552C515.167 50.8076 518.187 52.2947 520.856 53.4289C526.896 56.403 532.797 59.0953 537.091 58.1947L537.583 58.1259L538.566 58.6919L538.564 59.3954C537.996 61.0818 537.707 63.332 536.715 65.5799Z" fill="white"/>
<path d="M684.777 104.794C692.093 83.0806 683.082 63.1433 663.056 56.3955C643.029 49.6477 623.79 60.067 616.474 81.7804C609.868 101.386 614.147 127.006 629.098 136.973L626.768 139.709C625.357 141.112 625.982 143.435 627.879 144.074L629.777 144.714L636.03 147.055L637.927 147.694C639.825 148.334 641.518 146.792 641.454 144.892L641.254 141.304C659.26 142.206 678.171 124.399 684.777 104.794ZM637.059 133.552C622.724 128.722 615.837 104.571 622.798 83.9113C628.907 65.7817 644.271 57.1084 660.925 62.7198C677.579 68.3311 684.632 84.3227 678.452 102.663C671.491 123.323 651.394 138.382 637.059 133.552Z" fill="white"/>
<path d="M664.311 103.532C662.824 106.552 661.415 107.251 658.182 106.397C655.581 105.755 652.35 104.197 649.119 102.639C642.797 99.8046 636.897 97.1123 632.181 97.8708C632.396 96.5349 632.685 94.2848 633.746 92.5295C635.446 88.877 637.628 88.673 640.157 89.5254C640.368 89.5964 640.368 89.5964 640.579 89.6675C643.109 90.5198 645.918 91.9359 648.798 93.1411C655.049 96.1862 661.16 98.9496 665.736 97.9092C665.45 99.4559 665.232 101.495 664.311 103.532Z" fill="white"/>
<path d="M670.387 95.2512C670.247 94.9694 670.036 94.8984 669.897 94.6165L667.651 92.9209C666.879 92.426 665.964 92.3527 665.19 92.5612C662.443 93.7482 655.981 90.632 650.924 88.2239C647.904 86.7368 644.673 85.1787 641.861 84.4661C636.38 82.6194 631.731 84.574 629.11 90.2636C627.057 94.2667 626.617 99.7523 627.176 100.88C627.455 101.443 627.806 101.796 628.367 102.22L630.333 103.352C630.544 103.423 630.544 103.423 630.755 103.494C631.387 103.707 632.091 103.709 632.655 103.43C635.402 102.243 641.935 105.148 647.203 107.628C650.434 109.186 653.946 110.604 656.898 111.598C664.136 113.803 667.667 109.593 669.367 105.941C670.504 102.568 671.718 96.8735 670.387 95.2512ZM665.293 104.098C663.664 107.54 661.409 108.658 657.826 107.451C655.014 106.738 651.994 105.251 648.763 103.693C642.652 100.93 636.752 98.2375 632.528 98.9273L631.051 99.1336L631.337 97.5869C631.623 96.0402 631.912 93.79 633.044 91.824C635.31 87.1884 638.264 87.4794 640.793 88.3317L641.215 88.4738C643.745 89.3262 646.765 90.8132 649.434 91.9474C655.474 94.9216 661.375 97.6138 665.669 96.7132L666.162 96.6445L667.145 97.2105L667.142 97.9139C666.574 99.6004 666.285 101.851 665.293 104.098Z" fill="white"/>
<path d="M618.736 181.921C622.444 170.205 631.104 146.151 636.087 143.659M294.842 197.938L311.303 216.179" stroke="white" stroke-width="4"/>
<path d="M730.517 158.887C721.083 155.29 710.799 154.545 700.946 156.747C693.616 158.157 686.47 160.4 679.65 163.433L671.206 145.327C669.668 142.308 666.997 140.02 663.777 138.965C660.557 137.91 657.051 138.173 654.024 139.697C650.912 141.036 648.456 143.553 647.195 146.698C645.933 149.843 645.968 153.359 647.293 156.478L663.223 190.641L655.24 187.792C651.731 186.553 647.875 186.74 644.503 188.312C641.13 189.885 638.508 192.718 637.202 196.203C636.539 197.931 636.23 199.775 636.292 201.624C636.354 203.474 636.787 205.293 637.565 206.972C639.019 210.254 641.714 212.825 645.06 214.125L669.773 225.559C672.788 230.019 676.605 233.88 681.031 236.946C684.339 239.348 688.012 241.202 691.91 242.437L694.968 248.997C695.394 249.937 696.163 250.678 697.119 251.068C698.074 251.458 699.143 251.467 700.105 251.093L747.625 228.934C748.53 228.438 749.21 227.613 749.526 226.631C749.841 225.648 749.768 224.582 749.321 223.651L745.02 214.427C748.006 203.304 746.917 191.48 741.951 181.088L732.393 160.591C731.983 159.823 731.32 159.221 730.517 158.887ZM735.198 184.445C739.652 193.426 740.608 203.742 737.881 213.389C737.414 214.355 737.335 215.464 737.662 216.486L741.103 223.865L700.586 242.759L698.228 237.703C697.968 237.143 697.574 236.655 697.081 236.283C696.589 235.911 696.012 235.665 695.402 235.568C691.863 234.663 688.541 233.058 685.632 230.849C681.738 228.179 678.434 224.736 675.925 220.735C675.544 220.013 674.938 219.435 674.2 219.086L648.12 207.041C647.321 206.756 646.586 206.315 645.958 205.744C645.331 205.173 644.823 204.483 644.464 203.713C644.106 202.944 643.903 202.112 643.869 201.264C643.835 200.416 643.97 199.569 644.265 198.774C644.873 197.142 646.099 195.814 647.678 195.078C649.257 194.341 651.062 194.256 652.703 194.839L667.731 200.309L672.733 211.036L677.973 204.434L654.125 153.292C653.663 151.985 653.727 150.549 654.303 149.288C654.878 148.026 655.92 147.038 657.21 146.53C658.429 145.868 659.856 145.705 661.193 146.075C662.529 146.445 663.669 147.319 664.374 148.513L683.172 188.825L690.689 187.108L682.852 170.3C685.745 169.019 688.703 167.89 691.713 166.916L700.045 184.783L706.068 183.43L697.546 165.153C699.074 164.773 700.652 164.412 702.296 164.102C704.283 163.74 706.289 163.485 708.304 163.339L716.508 180.933L722.531 179.58L714.933 163.284C718.769 163.403 722.57 164.052 726.229 165.212L735.198 184.445Z" fill="#FCB527"/>
</svg>
