<?xml version="1.0" encoding="utf-8"?>
<!-- Generator: Adobe Illustrator 25.2.3, SVG Export Plug-In . SVG Version: 6.00 Build 0)  -->
<svg version="1.1" id="Capa_1" xmlns="http://www.w3.org/2000/svg" xmlns:xlink="http://www.w3.org/1999/xlink" x="0px" y="0px"
	 viewBox="0 0 184.9 177" style="enable-background:new 0 0 184.9 177;" xml:space="preserve">
<style type="text/css">
	.st0{fill:none;}
	.st1{fill:#FCB527;}
	.st2{fill:#EAA326;}
</style>
<rect x="47.6" y="1.1" transform="matrix(0.772 -0.6356 0.6356 0.772 -52.3268 110.5284)" class="st0" width="160.6" height="254.1"/>
<g>
	<path class="st1" d="M49,32.3l98.3,119.4c-1.7,1.3,22.8-19.7,29.5-39.9c5.7-23.7,0.7-49.7-16.6-70.7l-20-24.3
		c-4.1-5-11.6-5.7-16.6-1.6l-15.7,12.9L94.5,11.9c-2.8-3.4-6.7-5.4-10.9-5.8C79.6,5.7,75.4,6.9,72,9.7c-6.9,5.6-7.8,15.8-2.2,22.6
		l1.8,2.2c-2.8-3.4-6.7-5.4-10.9-5.8C56.6,28.3,52.4,29.5,49,32.3"/>
</g>
<path class="st2" d="M49,32.3c-6.9,5.6-7.8,15.8-2.2,22.6l5,6.1c-2.8-3.4-6.7-5.4-10.9-5.8c-4.1-0.4-8.3,0.7-11.8,3.6
	c-6.9,5.6-7.8,15.8-2.2,22.6l6.2,7.6c-5.6-6.9-15.7-7.8-22.6-2.2c-6.8,5.6-7.7,15.8-2.1,22.6L36.9,144c14.7,17.8,35.6,27.7,57.1,29
	c5.4,0.3,10.8-0.4,16-2c8.6-2.8,23.5-8.6,37.3-19.2L49,32.3z"/>
</svg>
